<?xml version="1.0" encoding="UTF-8" standalone="no"?>
<!-- Created with Inkscape (http://www.inkscape.org/) -->

<svg
   xmlns:dc="http://purl.org/dc/elements/1.1/"
   xmlns:cc="http://creativecommons.org/ns#"
   xmlns:rdf="http://www.w3.org/1999/02/22-rdf-syntax-ns#"
   xmlns:svg="http://www.w3.org/2000/svg"
   xmlns="http://www.w3.org/2000/svg"
   xmlns:sodipodi="http://sodipodi.sourceforge.net/DTD/sodipodi-0.dtd"
   xmlns:inkscape="http://www.inkscape.org/namespaces/inkscape"
   style="display:inline"
   sodipodi:docname="180327_Beams-R+_00_00_UW_00_.svg"
   inkscape:version="0.48.3.1 r9886"
   version="1.1"
   id="svg2902"
   height="400"
   width="400">
  <sodipodi:namedview
     id="base"
     pagecolor="#f0f0f0"
     bordercolor="#666666"
     borderopacity="1.0"
     inkscape:pageopacity="1"
     inkscape:pageshadow="2"
     inkscape:zoom="1.2708329"
     inkscape:cx="229.90364"
     inkscape:cy="329.36521"
     inkscape:document-units="px"
     inkscape:current-layer="layer4"
     showgrid="false"
     inkscape:window-width="1018"
     inkscape:window-height="709"
     inkscape:window-x="0"
     inkscape:window-y="1"
     inkscape:window-maximized="0"
     showguides="true"
     inkscape:guide-bbox="true"
     inkscape:snap-bbox="true"
     inkscape:snap-global="false" />
  <defs
     id="defs2904" />
  <metadata
     id="metadata2907">
    <rdf:RDF>
      <cc:Work
         rdf:about="">
        <dc:format>image/svg+xml</dc:format>
        <dc:type
           rdf:resource="http://purl.org/dc/dcmitype/StillImage" />
        <dc:title />
      </cc:Work>
    </rdf:RDF>
  </metadata>
  <g
     inkscape:groupmode="layer"
     id="bg"
     inkscape:label="XX_BG"
     sodipodi:insensitive="true">
    <path
       style="fill:#f4d7e3"
       d="M 400,0 400,400 0,400 0,0 z"
       id="bgrect"
       inkscape:connector-curvature="0" />
  </g>
  <g
     inkscape:label="XX_Referenz"
     inkscape:groupmode="layer"
     id="XX_referenz"
     style="display:none"
     sodipodi:insensitive="true">
    <path
       id="innerframe"
       style="fill:none;stroke:#ff0000;stroke-width:1"
       d="m 40.5,40.5 319,0 0,319 -319,0 0,-319 z"
       inkscape:label="#innerframe"
       sodipodi:insensitive="true"
       inkscape:connector-curvature="0" />
    <path
       id="outerframe"
       style="fill:none;stroke:#ff0000;stroke-width:1"
       d="m 30.5,30.5 339,0 0,339 -339,0 0,-339 z"
       inkscape:label="#outerframe"
       sodipodi:nodetypes="ccccc"
       sodipodi:insensitive="true"
       inkscape:connector-curvature="0" />
    <path
       style="opacity:0.5;fill:none;stroke:#ffc200;stroke-width:1px;stroke-linecap:square"
       d="m 189,30.5 0,10"
       id="ref-S-top-1"
       sodipodi:insensitive="true"
       inkscape:connector-curvature="0" />
    <path
       style="opacity:0.5;fill:none;stroke:#ffc200;stroke-width:1px;stroke-linecap:square"
       d="m 191,30.5 0,10"
       id="ref-S-top-2"
       sodipodi:insensitive="true"
       inkscape:connector-curvature="0" />
    <path
       style="opacity:0.5;fill:none;stroke:#ffc200;stroke-width:1px;stroke-linecap:square"
       d="m 209,30.5 0,10"
       id="ref-S-top-3"
       sodipodi:insensitive="true"
       inkscape:connector-curvature="0" />
    <path
       style="opacity:0.5;fill:none;stroke:#ffc200;stroke-width:1px;stroke-linecap:square"
       d="m 211,30.5 0,10"
       id="ref-S-top-4"
       sodipodi:insensitive="true"
       inkscape:connector-curvature="0" />
    <path
       style="opacity:0.5;fill:none;stroke:#00ff00;stroke-width:1px;stroke-linecap:square"
       d="m 199,30.5 0,10"
       id="ref-I-top-1"
       sodipodi:insensitive="true"
       inkscape:connector-curvature="0" />
    <path
       style="opacity:0.5;fill:none;stroke:#00ff00;stroke-width:1px;stroke-linecap:square"
       d="m 201,30.5 0,10"
       id="ref-I-top-2"
       sodipodi:insensitive="true"
       inkscape:connector-curvature="0" />
    <path
       style="opacity:0.5;fill:none;stroke:#00ffcc;stroke-width:1px;stroke-linecap:square"
       d="m 66,30.5 0,10"
       id="ref-C-top-1"
       sodipodi:insensitive="true"
       inkscape:connector-curvature="0" />
    <path
       style="opacity:0.5;fill:none;stroke:#00ffcc;stroke-width:1px;stroke-linecap:square"
       d="m 68,30.5 0,10"
       id="ref-C-top-2"
       sodipodi:insensitive="true"
       inkscape:connector-curvature="0" />
    <path
       style="opacity:0.5;fill:none;stroke:#00ffcc;stroke-width:1px;stroke-linecap:square"
       d="m 92,30.5 0,10"
       id="ref-C-top-3"
       sodipodi:insensitive="true"
       inkscape:connector-curvature="0" />
    <path
       style="opacity:0.5;fill:none;stroke:#00ffcc;stroke-width:1px;stroke-linecap:square"
       d="m 94,30.5 0,10"
       id="ref-C-top-4"
       sodipodi:insensitive="true"
       inkscape:connector-curvature="0" />
    <path
       style="opacity:0.5;fill:none;stroke:#00ffcc;stroke-width:1px;stroke-linecap:square"
       d="m 306,30.5 0,10"
       id="ref-C-top-5"
       sodipodi:insensitive="true"
       inkscape:connector-curvature="0" />
    <path
       style="opacity:0.5;fill:none;stroke:#00ffcc;stroke-width:1px;stroke-linecap:square"
       d="m 308,30.5 0,10"
       id="ref-C-top-6"
       sodipodi:insensitive="true"
       inkscape:connector-curvature="0" />
    <path
       style="opacity:0.5;fill:none;stroke:#00ffcc;stroke-width:1px;stroke-linecap:square"
       d="m 332,30.5 0,10"
       id="ref-C-top-7"
       sodipodi:insensitive="true"
       inkscape:connector-curvature="0" />
    <path
       style="opacity:0.5;fill:none;stroke:#00ffcc;stroke-width:1px;stroke-linecap:square"
       d="m 334,30.5 0,10"
       id="ref-C-top-8"
       sodipodi:insensitive="true"
       inkscape:connector-curvature="0" />
    <path
       style="opacity:0.5;fill:none;stroke:#ffc200;stroke-width:1px;stroke-linecap:square"
       d="m 369.5,189 -10,0"
       id="ref-S-right-1"
       sodipodi:insensitive="true"
       inkscape:connector-curvature="0" />
    <path
       style="opacity:0.5;fill:none;stroke:#ffc200;stroke-width:1px;stroke-linecap:square"
       d="m 369.5,191 -10,0"
       id="ref-S-right-2"
       sodipodi:insensitive="true"
       inkscape:connector-curvature="0" />
    <path
       style="opacity:0.5;fill:none;stroke:#ffc200;stroke-width:1px;stroke-linecap:square"
       d="m 369.5,209 -10,0"
       id="ref-S-right-3"
       sodipodi:insensitive="true"
       inkscape:connector-curvature="0" />
    <path
       style="opacity:0.5;fill:none;stroke:#ffc200;stroke-width:1px;stroke-linecap:square"
       d="m 369.5,211 -10,0"
       id="ref-S-right-4"
       sodipodi:insensitive="true"
       inkscape:connector-curvature="0" />
    <path
       style="opacity:0.5;fill:none;stroke:#00ff00;stroke-width:1px;stroke-linecap:square"
       d="m 369.5,199 -10,0"
       id="ref-I-right-1"
       sodipodi:insensitive="true"
       inkscape:connector-curvature="0" />
    <path
       style="opacity:0.5;fill:none;stroke:#00ff00;stroke-width:1px;stroke-linecap:square"
       d="m 369.5,201 -10,0"
       id="ref-I-right-2"
       sodipodi:insensitive="true"
       inkscape:connector-curvature="0" />
    <path
       style="opacity:0.5;fill:none;stroke:#00ffcc;stroke-width:1px;stroke-linecap:square"
       d="m 369.5,66 -10,0"
       id="ref-C-right-1"
       sodipodi:insensitive="true"
       inkscape:connector-curvature="0" />
    <path
       style="opacity:0.5;fill:none;stroke:#00ffcc;stroke-width:1px;stroke-linecap:square"
       d="m 369.5,68 -10,0"
       id="ref-C-right-2"
       sodipodi:insensitive="true"
       inkscape:connector-curvature="0" />
    <path
       style="opacity:0.5;fill:none;stroke:#00ffcc;stroke-width:1px;stroke-linecap:square"
       d="m 369.5,92 -10,0"
       id="ref-C-right-3"
       sodipodi:insensitive="true"
       inkscape:connector-curvature="0" />
    <path
       style="opacity:0.5;fill:none;stroke:#00ffcc;stroke-width:1px;stroke-linecap:square"
       d="m 369.5,94 -10,0"
       id="ref-C-right-4"
       sodipodi:insensitive="true"
       inkscape:connector-curvature="0" />
    <path
       style="opacity:0.5;fill:none;stroke:#00ffcc;stroke-width:1px;stroke-linecap:square"
       d="m 369.5,306 -10,0"
       id="ref-C-right-5"
       sodipodi:insensitive="true"
       inkscape:connector-curvature="0" />
    <path
       style="opacity:0.5;fill:none;stroke:#00ffcc;stroke-width:1px;stroke-linecap:square"
       d="m 369.5,308 -10,0"
       id="ref-C-right-6"
       sodipodi:insensitive="true"
       inkscape:connector-curvature="0" />
    <path
       style="opacity:0.5;fill:none;stroke:#00ffcc;stroke-width:1px;stroke-linecap:square"
       d="m 369.5,332 -10,0"
       id="ref-C-right-7"
       sodipodi:insensitive="true"
       inkscape:connector-curvature="0" />
    <path
       style="opacity:0.5;fill:none;stroke:#00ffcc;stroke-width:1px;stroke-linecap:square"
       d="m 369.5,334 -10,0"
       id="ref-C-right-8"
       sodipodi:insensitive="true"
       inkscape:connector-curvature="0" />
    <path
       style="opacity:0.5;fill:none;stroke:#ffc200;stroke-width:1px;stroke-linecap:square"
       d="m 189,369.5 0,-10"
       id="ref-S-bottom-1"
       sodipodi:insensitive="true"
       inkscape:connector-curvature="0" />
    <path
       style="opacity:0.5;fill:none;stroke:#ffc200;stroke-width:1px;stroke-linecap:square"
       d="m 191,369.5 0,-10"
       id="ref-S-bottom-2"
       sodipodi:insensitive="true"
       inkscape:connector-curvature="0" />
    <path
       style="opacity:0.5;fill:none;stroke:#ffc200;stroke-width:1px;stroke-linecap:square"
       d="m 209,369.5 0,-10"
       id="ref-S-bottom-3"
       sodipodi:insensitive="true"
       inkscape:connector-curvature="0" />
    <path
       style="opacity:0.5;fill:none;stroke:#ffc200;stroke-width:1px;stroke-linecap:square"
       d="m 211,369.5 0,-10"
       id="ref-S-bottom-4"
       sodipodi:insensitive="true"
       inkscape:connector-curvature="0" />
    <path
       style="opacity:0.5;fill:none;stroke:#00ff00;stroke-width:1px;stroke-linecap:square"
       d="m 199,369.5 0,-10"
       id="ref-I-bottom-1"
       sodipodi:insensitive="true"
       inkscape:connector-curvature="0" />
    <path
       style="opacity:0.5;fill:none;stroke:#00ff00;stroke-width:1px;stroke-linecap:square"
       d="m 201,369.5 0,-10"
       id="ref-I-bottom-2"
       sodipodi:insensitive="true"
       inkscape:connector-curvature="0" />
    <path
       style="opacity:0.5;fill:none;stroke:#00ffcc;stroke-width:1px;stroke-linecap:square"
       d="m 66,369.5 0,-10"
       id="ref-C-bottom-1"
       sodipodi:insensitive="true"
       inkscape:connector-curvature="0" />
    <path
       style="opacity:0.5;fill:none;stroke:#00ffcc;stroke-width:1px;stroke-linecap:square"
       d="m 68,369.5 0,-10"
       id="ref-C-bottom-2"
       sodipodi:insensitive="true"
       inkscape:connector-curvature="0" />
    <path
       style="opacity:0.5;fill:none;stroke:#00ffcc;stroke-width:1px;stroke-linecap:square"
       d="m 92,369.5 0,-10"
       id="ref-C-bottom-3"
       sodipodi:insensitive="true"
       inkscape:connector-curvature="0" />
    <path
       style="opacity:0.5;fill:none;stroke:#00ffcc;stroke-width:1px;stroke-linecap:square"
       d="m 94,369.5 0,-10"
       id="ref-C-bottom-4"
       sodipodi:insensitive="true"
       inkscape:connector-curvature="0" />
    <path
       style="opacity:0.5;fill:none;stroke:#00ffcc;stroke-width:1px;stroke-linecap:square"
       d="m 306,369.5 0,-10"
       id="ref-C-bottom-5"
       sodipodi:insensitive="true"
       inkscape:connector-curvature="0" />
    <path
       style="opacity:0.5;fill:none;stroke:#00ffcc;stroke-width:1px;stroke-linecap:square"
       d="m 308,369.5 0,-10"
       id="ref-C-bottom-6"
       sodipodi:insensitive="true"
       inkscape:connector-curvature="0" />
    <path
       style="opacity:0.5;fill:none;stroke:#00ffcc;stroke-width:1px;stroke-linecap:square"
       d="m 332,369.5 0,-10"
       id="ref-C-bottom-7"
       sodipodi:insensitive="true"
       inkscape:connector-curvature="0" />
    <path
       style="opacity:0.5;fill:none;stroke:#00ffcc;stroke-width:1px;stroke-linecap:square"
       d="m 334,369.5 0,-10"
       id="ref-C-bottom-8"
       sodipodi:insensitive="true"
       inkscape:connector-curvature="0" />
    <path
       style="opacity:0.5;fill:none;stroke:#ffc200;stroke-width:1px;stroke-linecap:square"
       d="m 30.5,189 10,0"
       id="ref-S-left-1"
       sodipodi:insensitive="true"
       inkscape:connector-curvature="0" />
    <path
       style="opacity:0.5;fill:none;stroke:#ffc200;stroke-width:1px;stroke-linecap:square"
       d="m 30.5,191 10,0"
       id="ref-S-left-2"
       sodipodi:insensitive="true"
       inkscape:connector-curvature="0" />
    <path
       style="opacity:0.5;fill:none;stroke:#ffc200;stroke-width:1px;stroke-linecap:square"
       d="m 30.5,209 10,0"
       id="ref-S-left-3"
       sodipodi:insensitive="true"
       inkscape:connector-curvature="0" />
    <path
       style="opacity:0.5;fill:none;stroke:#ffc200;stroke-width:1px;stroke-linecap:square"
       d="m 30.5,211 10,0"
       id="ref-S-left-4"
       sodipodi:insensitive="true"
       inkscape:connector-curvature="0" />
    <path
       style="opacity:0.5;fill:none;stroke:#00ff00;stroke-width:1px;stroke-linecap:square"
       d="m 40.5,199 -10,0"
       id="ref-I-left-1"
       sodipodi:insensitive="true"
       inkscape:connector-curvature="0" />
    <path
       style="opacity:0.5;fill:none;stroke:#00ff00;stroke-width:1px;stroke-linecap:square"
       d="m 40.5,201 -10,0"
       id="ref-I-left-2"
       sodipodi:insensitive="true"
       inkscape:connector-curvature="0" />
    <path
       style="opacity:0.5;fill:none;stroke:#00ffcc;stroke-width:1px;stroke-linecap:square"
       d="m 30.5,66 10,0"
       id="ref-C-left-1"
       sodipodi:insensitive="true"
       inkscape:connector-curvature="0" />
    <path
       style="opacity:0.5;fill:none;stroke:#00ffcc;stroke-width:1px;stroke-linecap:square"
       d="m 30.5,68 10,0"
       id="ref-C-left-2"
       sodipodi:insensitive="true"
       inkscape:connector-curvature="0" />
    <path
       style="opacity:0.5;fill:none;stroke:#00ffcc;stroke-width:1px;stroke-linecap:square"
       d="m 30.5,92 10,0"
       id="ref-C-left-3"
       sodipodi:insensitive="true"
       inkscape:connector-curvature="0" />
    <path
       style="opacity:0.5;fill:none;stroke:#00ffcc;stroke-width:1px;stroke-linecap:square"
       d="m 30.5,94 10,0"
       id="ref-C-left-4"
       sodipodi:insensitive="true"
       inkscape:connector-curvature="0" />
    <path
       style="opacity:0.5;fill:none;stroke:#00ffcc;stroke-width:1px;stroke-linecap:square"
       d="m 30.5,306 10,0"
       id="ref-C-left-5"
       sodipodi:insensitive="true"
       inkscape:connector-curvature="0" />
    <path
       style="opacity:0.5;fill:none;stroke:#00ffcc;stroke-width:1px;stroke-linecap:square"
       d="m 30.5,308 10,0"
       id="ref-C-left-6"
       sodipodi:insensitive="true"
       inkscape:connector-curvature="0" />
    <path
       style="opacity:0.5;fill:none;stroke:#00ffcc;stroke-width:1px;stroke-linecap:square"
       d="m 30.5,332 10,0"
       id="ref-C-left-7"
       sodipodi:insensitive="true"
       inkscape:connector-curvature="0" />
    <path
       style="opacity:0.5;fill:none;stroke:#00ffcc;stroke-width:1px;stroke-linecap:square"
       d="m 30.5,334 10,0"
       id="ref-C-left-8"
       sodipodi:insensitive="true"
       inkscape:connector-curvature="0" />
    <path
       style="fill:none;stroke:#000000;stroke-width:1px;stroke-linecap:square"
       d="m 190,30.5 0,10"
       id="S-top-1"
       inkscape:connector-curvature="0" />
    <path
       style="fill:none;stroke:#000000;stroke-width:1px;stroke-linecap:square"
       d="m 210,30.5 0,10"
       id="S-top-2"
       inkscape:connector-curvature="0" />
    <path
       style="fill:none;stroke:#000000;stroke-width:1px;stroke-linecap:square"
       d="m 369.5,190 -10,0"
       id="S-right-1"
       inkscape:connector-curvature="0" />
    <path
       style="fill:none;stroke:#000000;stroke-width:1px;stroke-linecap:square"
       d="m 369.5,210 -10,0"
       id="S-right-2"
       inkscape:connector-curvature="0" />
    <path
       style="fill:none;stroke:#000000;stroke-width:1px;stroke-linecap:square"
       d="m 190,369.5 0,-10"
       id="S-bottom-1"
       inkscape:connector-curvature="0" />
    <path
       style="fill:none;stroke:#000000;stroke-width:1px;stroke-linecap:square"
       d="m 210,369.5 0,-10"
       id="S-bottom-2"
       inkscape:connector-curvature="0" />
    <path
       style="fill:none;stroke:#000000;stroke-width:1px;stroke-linecap:square"
       d="m 30.5,190 10,0"
       id="S-left-1"
       inkscape:connector-curvature="0" />
    <path
       style="fill:none;stroke:#000000;stroke-width:1px;stroke-linecap:square"
       d="m 30.5,210 10,0"
       id="S-left-2"
       inkscape:connector-curvature="0" />
    <path
       style="fill:none;stroke:#000000;stroke-width:1px;stroke-linecap:square"
       d="m 200,30.5 0,10"
       id="I-top-1"
       inkscape:connector-curvature="0" />
    <path
       style="fill:none;stroke:#000000;stroke-width:1px;stroke-linecap:square"
       d="m 369.5,200 -10,0"
       id="I-right-1"
       inkscape:connector-curvature="0" />
    <path
       style="fill:none;stroke:#000000;stroke-width:1px;stroke-linecap:square"
       d="m 200,369.5 0,-10"
       id="I-bottom-1"
       inkscape:connector-curvature="0" />
    <path
       style="fill:none;stroke:#000000;stroke-width:1px;stroke-linecap:square"
       d="m 40.5,200 -10,0"
       id="I-left-1"
       inkscape:connector-curvature="0" />
    <path
       style="fill:none;stroke:#000000;stroke-width:1px;stroke-linecap:square"
       d="m 67,30.5 0,10"
       id="C-top-1"
       inkscape:connector-curvature="0" />
    <path
       style="fill:none;stroke:#000000;stroke-width:1px;stroke-linecap:square"
       d="m 93,30.5 0,10"
       id="C-top-2"
       inkscape:connector-curvature="0" />
    <path
       style="fill:none;stroke:#000000;stroke-width:1px;stroke-linecap:square"
       d="m 307,30.5 0,10"
       id="C-top-3"
       inkscape:connector-curvature="0" />
    <path
       style="fill:none;stroke:#000000;stroke-width:1px;stroke-linecap:square"
       d="m 333,30.5 0,10"
       id="C-top-4"
       inkscape:connector-curvature="0" />
    <path
       style="fill:none;stroke:#000000;stroke-width:1px;stroke-linecap:square"
       d="m 369.5,67 -10,0"
       id="C-right-1"
       inkscape:connector-curvature="0" />
    <path
       style="fill:none;stroke:#000000;stroke-width:1px;stroke-linecap:square"
       d="m 369.5,93 -10,0"
       id="C-right-2"
       inkscape:connector-curvature="0" />
    <path
       style="fill:none;stroke:#000000;stroke-width:1px;stroke-linecap:square"
       d="m 369.5,307 -10,0"
       id="C-right-3"
       inkscape:connector-curvature="0" />
    <path
       style="fill:none;stroke:#000000;stroke-width:1px;stroke-linecap:square"
       d="m 369.5,333 -10,0"
       id="C-right-4"
       inkscape:connector-curvature="0" />
    <path
       style="fill:none;stroke:#000000;stroke-width:1px;stroke-linecap:square"
       d="m 67,369.5 0,-10"
       id="C-bottom-1"
       inkscape:connector-curvature="0" />
    <path
       style="fill:none;stroke:#000000;stroke-width:1px;stroke-linecap:square"
       d="m 93,369.5 0,-10"
       id="C-bottom-2"
       inkscape:connector-curvature="0" />
    <path
       style="fill:none;stroke:#000000;stroke-width:1px;stroke-linecap:square"
       d="m 307,369.5 0,-10"
       id="C-bottom-3"
       inkscape:connector-curvature="0" />
    <path
       style="fill:none;stroke:#000000;stroke-width:1px;stroke-linecap:square"
       d="m 333,369.5 0,-10"
       id="C-bottom-4"
       inkscape:connector-curvature="0" />
    <path
       style="fill:none;stroke:#000000;stroke-width:1px;stroke-linecap:square"
       d="m 30.5,67 10,0"
       id="C-left-1"
       inkscape:connector-curvature="0" />
    <path
       style="fill:none;stroke:#000000;stroke-width:1px;stroke-linecap:square"
       d="m 30.5,93 10,0"
       id="C-left-2"
       inkscape:connector-curvature="0" />
    <path
       style="fill:none;stroke:#000000;stroke-width:1px;stroke-linecap:square"
       d="m 30.5,307 10,0"
       id="C-left-3"
       inkscape:connector-curvature="0" />
    <path
       style="fill:none;stroke:#000000;stroke-width:1px;stroke-linecap:square"
       d="m 30.5,333 10,0"
       id="C-left-4"
       inkscape:connector-curvature="0" />
  </g>
  <g
     inkscape:groupmode="layer"
     id="layer1"
     inkscape:label="XX_161204_A5x2-Kristallin.svg"
     style="display:none"
     sodipodi:insensitive="true">
    <path
       style="color:#000000;fill:#ffff00;stroke:none;stroke-width:1;marker:none;visibility:visible;display:inline;overflow:visible;enable-background:accumulate"
       d="M 333,345.49999 C 333,357.65026 273.4539,367.5 200,367.5 c -73.4539,0 -133,-9.84974 -133,-22.00001 0,-12.15026 59.5461,-22 133,-22 73.4539,0 133,9.84974 133,22 z"
       id="path3480"
       inkscape:connector-curvature="0" />
    <path
       style="color:#000000;fill:none;stroke:#000000;stroke-width:1;marker:none;visibility:visible;display:inline;overflow:visible;enable-background:accumulate"
       d="m 67,345.49999 c 0,-12.15026 59.5461,-22 133,-22 73.4539,0 133,9.84974 133,22"
       id="path3449"
       inkscape:connector-curvature="0" />
    <path
       id="path3504"
       style="fill:#f9f9f9;stroke:none;display:inline"
       d="m 80,382.5 0,-353 240,0 0,353 z"
       inkscape:connector-curvature="0"
       sodipodi:nodetypes="ccccc" />
    <g
       style="display:inline"
       transform="translate(-1633,869.64624)"
       id="g3551">
      <path
         id="path3553"
         style="fill:#ffe6d5;stroke:none;display:inline"
         d="m 1770,-487.14624 0,-353 70,0 0,353 z"
         inkscape:connector-curvature="0"
         sodipodi:nodetypes="ccccc" />
      <path
         id="path3555"
         style="fill:none;stroke:#000000;stroke-width:1px;stroke-linecap:square;display:inline"
         d="m 1770,-840.14624 0,353"
         inkscape:connector-curvature="0"
         sodipodi:nodetypes="cc" />
      <path
         sodipodi:nodetypes="cc"
         inkscape:connector-curvature="0"
         d="m 1840,-840.14624 0,353"
         style="fill:none;stroke:#000000;stroke-width:1px;stroke-linecap:square;display:inline"
         id="path3557" />
    </g>
    <g
       style="display:inline"
       id="g3541"
       transform="translate(-1620,869.64624)">
      <path
         sodipodi:nodetypes="ccccc"
         inkscape:connector-curvature="0"
         d="m 1770,-487.14624 0,-353 70,0 0,353 z"
         style="fill:#f4d7d7;stroke:none;display:inline"
         id="path3543" />
      <path
         sodipodi:nodetypes="cc"
         inkscape:connector-curvature="0"
         d="m 1770,-840.14624 0,353"
         style="fill:none;stroke:#000000;stroke-width:1px;stroke-linecap:square;display:inline"
         id="path3545" />
      <path
         id="path3547"
         style="fill:none;stroke:#000000;stroke-width:1px;stroke-linecap:square;display:inline"
         d="m 1840,-840.14624 0,353"
         inkscape:connector-curvature="0"
         sodipodi:nodetypes="cc" />
    </g>
    <g
       style="display:inline"
       id="g3559"
       transform="translate(-1679,869.64624)">
      <path
         sodipodi:nodetypes="ccccc"
         inkscape:connector-curvature="0"
         d="m 1770,-487.14624 0,-353 70,0 0,353 z"
         style="fill:#d5f6ff;stroke:none;display:inline"
         id="path3561" />
      <path
         sodipodi:nodetypes="cc"
         inkscape:connector-curvature="0"
         d="m 1770,-840.14624 0,353"
         style="fill:none;stroke:#000000;stroke-width:1px;stroke-linecap:square;display:inline"
         id="path3563" />
      <path
         id="path3565"
         style="fill:none;stroke:#000000;stroke-width:1px;stroke-linecap:square;display:inline"
         d="m 1840,-840.14624 0,353"
         inkscape:connector-curvature="0"
         sodipodi:nodetypes="cc" />
    </g>
    <path
       sodipodi:nodetypes="cc"
       inkscape:connector-curvature="0"
       d="m 80,29.5 0,353"
       style="fill:none;stroke:#000000;stroke-width:1px;stroke-linecap:square;display:inline"
       id="path3489" />
    <path
       id="path3491"
       style="fill:none;stroke:#000000;stroke-width:1px;stroke-linecap:square;display:inline"
       d="m 320,29.5 0,353"
       inkscape:connector-curvature="0"
       sodipodi:nodetypes="cc" />
    <g
       style="display:inline"
       transform="translate(-1529,869.64624)"
       id="g3567">
      <path
         id="path3569"
         style="fill:#d5f6ff;stroke:none;display:inline"
         d="m 1770,-487.14624 0,-353 70,0 0,353 z"
         inkscape:connector-curvature="0"
         sodipodi:nodetypes="ccccc" />
      <path
         id="path3571"
         style="fill:none;stroke:#000000;stroke-width:1px;stroke-linecap:square;display:inline"
         d="m 1770,-840.14624 0,353"
         inkscape:connector-curvature="0"
         sodipodi:nodetypes="cc" />
      <path
         sodipodi:nodetypes="cc"
         inkscape:connector-curvature="0"
         d="m 1840,-840.14624 0,353"
         style="fill:none;stroke:#000000;stroke-width:1px;stroke-linecap:square;display:inline"
         id="path3573" />
    </g>
    <g
       transform="translate(-1590,869.64624)"
       style="display:inline"
       id="g3575">
      <path
         sodipodi:nodetypes="ccccc"
         inkscape:connector-curvature="0"
         d="m 1810,-487.14624 0,-353 70,0 0,353 z"
         style="fill:#00ff00;stroke:none;display:inline"
         id="path3527" />
      <path
         sodipodi:nodetypes="cc"
         inkscape:connector-curvature="0"
         d="m 1810,-840.14624 0,353"
         style="fill:none;stroke:#000000;stroke-width:1px;stroke-linecap:square;display:inline"
         id="path3513" />
      <path
         id="path3511"
         style="fill:none;stroke:#000000;stroke-width:1px;stroke-linecap:square;display:inline"
         d="m 1880,-840.14624 0,353"
         inkscape:connector-curvature="0"
         sodipodi:nodetypes="cc" />
    </g>
    <g
       style="display:inline"
       id="g3536"
       transform="translate(-1570,869.64624)">
      <path
         id="path3530"
         style="fill:#ffff00;stroke:none;display:inline"
         d="m 1770,-487.14624 0,-353 70,0 0,353 z"
         inkscape:connector-curvature="0"
         sodipodi:nodetypes="ccccc" />
      <path
         id="path3532"
         style="fill:none;stroke:#000000;stroke-width:1px;stroke-linecap:square;display:inline"
         d="m 1770,-840.14624 0,353"
         inkscape:connector-curvature="0"
         sodipodi:nodetypes="cc" />
      <path
         sodipodi:nodetypes="cc"
         inkscape:connector-curvature="0"
         d="m 1840,-840.14624 0,353"
         style="fill:none;stroke:#000000;stroke-width:1px;stroke-linecap:square;display:inline"
         id="path3534" />
    </g>
    <path
       sodipodi:nodetypes="cscccc"
       inkscape:connector-curvature="0"
       d="M 333,345.49999 C 333,357.65026 273.4539,367.5 200,367.5 126.5461,367.5 67,357.65026 67,345.49999 l 0,39.00001 266,0 z"
       style="fill:#ffaaaa;stroke:none;display:inline"
       id="path3507" />
    <path
       id="C-bottom-4-1"
       style="fill:none;stroke:#000000;stroke-width:1px;stroke-linecap:square;display:inline"
       d="m 333,369.5 0,-10 0,-14.00001 C 333,357.65026 273.4539,367.5 200,367.5 126.5461,367.5 67,357.65026 67,345.49999 l 0,14.00001 0,10"
       inkscape:connector-curvature="0"
       sodipodi:nodetypes="cccsccc" />
    <path
       sodipodi:nodetypes="csccc"
       inkscape:connector-curvature="0"
       d="m 67,65.5 c 0,12.1503 59.5461,22 133,22 73.4539,0 133,-9.8497 133,-22 l 0,-38 -266,0"
       style="fill:#ffd5d5;stroke:none;display:inline"
       id="path3509" />
    <path
       id="C-top-4-8"
       style="fill:none;stroke:#000000;stroke-width:1px;stroke-linecap:square;display:inline"
       d="m 67,30.5 0,10 0,25 c 0,12.1503 59.5461,22 133,22 73.4539,0 133,-9.8497 133,-22 l 0,-25 0,-10"
       inkscape:connector-curvature="0"
       sodipodi:nodetypes="cccsccc" />
  </g>
  <g
     inkscape:groupmode="layer"
     id="layer2"
     inkscape:label="UNTEN-001"
     sodipodi:insensitive="true"
     style="display:none">
    <path
       style="fill:#ffffff;stroke:none"
       d="M 333,345.49999 C 333,357.65026 273.4539,367.5 200,367.5 c -73.4539,0 -133,-9.84974 -133,-22.00001 0,-12.15026 59.5461,-22 133,-22 73.4539,0 133,9.84974 133,22 z"
       id="path3480-8"
       inkscape:connector-curvature="0" />
    <path
       style="fill:none;stroke:#000000;stroke-width:1px"
       d="m 67,345.49999 c 0,-12.15026 59.5461,-22 133,-22 73.4539,0 133,9.84974 133,22"
       id="path3449-7"
       inkscape:connector-curvature="0" />
  </g>
  <g
     style="display:none"
     inkscape:label="UNTEN-002"
     id="g4085"
     inkscape:groupmode="layer"
     sodipodi:insensitive="true">
    <path
       inkscape:connector-curvature="0"
       id="path4087"
       d="M 333,215.49999 C 333,227.65026 273.4539,237.5 200,237.5 c -73.4539,0 -133,-9.84974 -133,-22.00001 0,-12.15026 59.5461,-22 133,-22 73.4539,0 133,9.84974 133,22 z"
       style="fill:#ffffff;stroke:none"
       sodipodi:nodetypes="sssss" />
    <path
       inkscape:connector-curvature="0"
       id="path4089"
       d="m 67,215.49999 c 0,-12.15026 59.5461,-22 133,-22 73.4539,0 133,9.84974 133,22"
       style="fill:none;stroke:#000000;stroke-width:1px"
       sodipodi:nodetypes="csc" />
  </g>
  <g
     inkscape:groupmode="layer"
     id="g4115"
     inkscape:label="UNTEN-003"
     style="display:inline"
     sodipodi:insensitive="true">
    <path
       sodipodi:nodetypes="sssss"
       style="fill:#ffffff;stroke:none"
       d="M 333,275.49999 C 333,287.65026 273.4539,297.5 200,297.5 c -73.4539,0 -133,-9.84974 -133,-22.00001 0,-12.15026 59.5461,-22 133,-22 73.4539,0 133,9.84974 133,22 z"
       id="path4117"
       inkscape:connector-curvature="0" />
    <path
       sodipodi:nodetypes="csc"
       style="fill:none;stroke:#000000;stroke-width:1px"
       d="m 67,275.49999 c 0,-12.15026 59.5461,-22 133,-22 73.4539,0 133,9.84974 133,22"
       id="path4119"
       inkscape:connector-curvature="0" />
  </g>
  <g
     inkscape:label="BEAMBG-001"
     id="g4013"
     inkscape:groupmode="layer">
    <path
       sodipodi:nodetypes="ccccc"
       inkscape:connector-curvature="0"
       d="m 81,367.5 0,-334 240,0 0,334 z"
       style="fill:#ffffff;stroke:none"
       id="path4015" />
    <path
       sodipodi:nodetypes="cc"
       inkscape:connector-curvature="0"
       d="m 81,33.5 0,334"
       style="fill:none;stroke:#000000;stroke-width:1px;stroke-linecap:butt;display:inline"
       id="path4017" />
    <path
       id="path4019"
       style="fill:none;stroke:#000000;stroke-width:1px;stroke-linecap:butt;display:inline"
       d="m 321,33.5 0,334"
       inkscape:connector-curvature="0"
       sodipodi:nodetypes="cc" />
  </g>
  <g
     inkscape:groupmode="layer"
     id="layer6"
     inkscape:label="XX________"
     sodipodi:insensitive="true" />
  <g
     inkscape:groupmode="layer"
     id="g4029"
     inkscape:label="BBEAM-002"
     style="display:none">
    <path
       id="path4031"
       style="fill:#ffffff;stroke:none"
       d="m 121,367.5 0,-334 70,0 0,334 z"
       inkscape:connector-curvature="0"
       sodipodi:nodetypes="ccccc" />
    <path
       id="path4033"
       style="fill:none;stroke:#000000;stroke-width:1px;stroke-linecap:butt;display:inline"
       d="m 121,33.5 0,334"
       inkscape:connector-curvature="0"
       sodipodi:nodetypes="cc" />
    <path
       sodipodi:nodetypes="cc"
       inkscape:connector-curvature="0"
       d="m 191,33.5 0,334"
       style="fill:none;stroke:#000000;stroke-width:1px;stroke-linecap:butt;display:inline"
       id="path4035" />
  </g>
  <g
     inkscape:groupmode="layer"
     id="layer5"
     inkscape:label="ABEAM-001"
     style="display:none">
    <path
       id="path3561-4"
       style="fill:#ffffff;stroke:none"
       d="m 91,367.5 0,-334 70,0 0,334 z"
       inkscape:connector-curvature="0"
       sodipodi:nodetypes="ccccc" />
    <path
       id="path3563-2"
       style="fill:none;stroke:#000000;stroke-width:1px;stroke-linecap:butt;display:inline"
       d="m 91,33.5 0,334"
       inkscape:connector-curvature="0"
       sodipodi:nodetypes="cc" />
    <path
       sodipodi:nodetypes="cc"
       inkscape:connector-curvature="0"
       d="m 161,33.5 0,334"
       style="fill:none;stroke:#000000;stroke-width:1px;stroke-linecap:butt;display:inline"
       id="path3565-6" />
  </g>
  <g
     style="display:none"
     inkscape:label="BBEAM-003"
     id="g4037"
     inkscape:groupmode="layer">
    <path
       sodipodi:nodetypes="ccccc"
       inkscape:connector-curvature="0"
       d="m 177,367.5 0,-334 34,0 0,334 z"
       style="fill:#ffffff;stroke:none"
       id="path4039" />
    <path
       sodipodi:nodetypes="cc"
       inkscape:connector-curvature="0"
       d="m 177,33.5 0,334"
       style="fill:none;stroke:#000000;stroke-width:1px;stroke-linecap:butt;display:inline"
       id="path4041" />
    <path
       id="path4043"
       style="fill:none;stroke:#000000;stroke-width:1px;stroke-linecap:butt;display:inline"
       d="m 211,33.5 0,334"
       inkscape:connector-curvature="0"
       sodipodi:nodetypes="cc" />
  </g>
  <g
     style="display:inline"
     inkscape:label="BBEAM-001"
     id="g4021"
     inkscape:groupmode="layer"
     sodipodi:insensitive="true">
    <path
       sodipodi:nodetypes="ccccc"
       inkscape:connector-curvature="0"
       d="m 121,367.5 0,-334 70,0 0,334 z"
       style="fill:#ffffff;stroke:none"
       id="path4023" />
    <path
       sodipodi:nodetypes="cc"
       inkscape:connector-curvature="0"
       d="m 121,33.5 0,334"
       style="fill:none;stroke:#000000;stroke-width:1px;stroke-linecap:butt;display:inline"
       id="path4025" />
    <path
       id="path4027"
       style="fill:none;stroke:#000000;stroke-width:1px;stroke-linecap:butt;display:inline"
       d="m 191,33.5 0,334"
       inkscape:connector-curvature="0"
       sodipodi:nodetypes="cc" />
  </g>
  <g
     inkscape:groupmode="layer"
     id="g4045"
     inkscape:label="CBEAM-001"
     style="display:none">
    <path
       id="path4047"
       style="fill:#ffffff;stroke:none"
       d="m 196,367.5 0,-334 66,0 0,334 z"
       inkscape:connector-curvature="0"
       sodipodi:nodetypes="ccccc" />
    <path
       id="path4049"
       style="fill:none;stroke:#000000;stroke-width:1px;stroke-linecap:butt;display:inline"
       d="m 196,33.5 0,334"
       inkscape:connector-curvature="0"
       sodipodi:nodetypes="cc" />
    <path
       sodipodi:nodetypes="cc"
       inkscape:connector-curvature="0"
       d="m 262,33.5 0,334"
       style="fill:none;stroke:#000000;stroke-width:1px;stroke-linecap:butt;display:inline"
       id="path4051" />
  </g>
  <g
     style="display:inline"
     inkscape:label="DBEAM-001"
     id="g4053"
     inkscape:groupmode="layer"
     sodipodi:insensitive="true">
    <path
       sodipodi:nodetypes="ccccc"
       inkscape:connector-curvature="0"
       d="m 232,367.5 0,-334 30,0 0,334 z"
       style="fill:#ffffff;stroke:none"
       id="path4055" />
    <path
       sodipodi:nodetypes="cc"
       inkscape:connector-curvature="0"
       d="m 232,33.5 0,334"
       style="fill:none;stroke:#000000;stroke-width:1px;stroke-linecap:butt;display:inline"
       id="path4057" />
    <path
       id="path4059"
       style="fill:none;stroke:#000000;stroke-width:1px;stroke-linecap:butt;display:inline"
       d="m 262,33.5 0,334"
       inkscape:connector-curvature="0"
       sodipodi:nodetypes="cc" />
  </g>
  <g
     inkscape:groupmode="layer"
     id="g4061"
     inkscape:label="DBEAM-002"
     style="display:none"
     sodipodi:insensitive="true">
    <path
       id="path4063"
       style="fill:#ffffff;stroke:none"
       d="m 112,367.5 0,-334 150,0 0,334 z"
       inkscape:connector-curvature="0"
       sodipodi:nodetypes="ccccc" />
    <path
       id="path4065"
       style="fill:none;stroke:#000000;stroke-width:1px;stroke-linecap:butt;display:inline"
       d="m 112,33.5 0,334"
       inkscape:connector-curvature="0"
       sodipodi:nodetypes="cc" />
    <path
       sodipodi:nodetypes="cc"
       inkscape:connector-curvature="0"
       d="m 262,33.5 0,334"
       style="fill:none;stroke:#000000;stroke-width:1px;stroke-linecap:butt;display:inline"
       id="path4067" />
  </g>
  <g
     style="display:inline"
     inkscape:label="CBEAM-002"
     id="g4069"
     inkscape:groupmode="layer">
    <path
       sodipodi:nodetypes="ccccc"
       inkscape:connector-curvature="0"
       d="m 142,367.5 0,-334 80,0 0,334 z"
       style="fill:#ffffff;stroke:none"
       id="path4071" />
    <path
       sodipodi:nodetypes="cc"
       inkscape:connector-curvature="0"
       d="m 142,33.5 0,334"
       style="fill:none;stroke:#000000;stroke-width:1px;stroke-linecap:butt;display:inline"
       id="path4073" />
    <path
       id="path4075"
       style="fill:none;stroke:#000000;stroke-width:1px;stroke-linecap:butt;display:inline"
       d="m 222,33.5 0,334"
       inkscape:connector-curvature="0"
       sodipodi:nodetypes="cc" />
  </g>
  <g
     style="display:inline"
     inkscape:label="EBEAM-001"
     id="g4077"
     inkscape:groupmode="layer">
    <path
       sodipodi:nodetypes="ccccc"
       inkscape:connector-curvature="0"
       d="m 282,367.5 0,-334 30,0 0,334 z"
       style="fill:#ffffff;stroke:none"
       id="path4079" />
    <path
       sodipodi:nodetypes="cc"
       inkscape:connector-curvature="0"
       d="m 282,33.5 0,334"
       style="fill:none;stroke:#000000;stroke-width:1px;stroke-linecap:butt;display:inline"
       id="path4081" />
    <path
       id="path4083"
       style="fill:none;stroke:#000000;stroke-width:1px;stroke-linecap:butt;display:inline"
       d="m 312,33.5 0,334"
       inkscape:connector-curvature="0"
       sodipodi:nodetypes="cc" />
  </g>
  <g
     inkscape:groupmode="layer"
     id="layer7"
     inkscape:label="XX________" />
  <g
     inkscape:groupmode="layer"
     id="layer3"
     inkscape:label="UNTEN-001"
     sodipodi:insensitive="true"
     style="display:none">
    <path
       sodipodi:nodetypes="cscccc"
       inkscape:connector-curvature="0"
       d="M 333,345.49999 C 333,357.65026 273.4539,367.5 200,367.5 126.5461,367.5 67,357.65026 67,345.49999 l 0,24.00001 266,0 z"
       style="fill:#ffffff;stroke:none;display:inline"
       id="path3507-4" />
    <path
       id="C-bottom-4-1-5"
       style="fill:none;stroke:#000000;stroke-width:1px;stroke-linecap:square;display:inline"
       d="m 333,369.5 0,-10 0,-14.00001 C 333,357.65026 273.4539,367.5 200,367.5 126.5461,367.5 67,357.65026 67,345.49999 l 0,14.00001 0,10"
       inkscape:connector-curvature="0"
       sodipodi:nodetypes="cccsccc" />
  </g>
  <g
     style="display:none"
     inkscape:label="UNTEN-002"
     id="g4091"
     inkscape:groupmode="layer"
     sodipodi:insensitive="true">
    <path
       id="path4093"
       style="fill:#ffffff;stroke:none;display:inline"
       d="M 333,215.49999 C 333,227.65026 273.4539,237.5 200,237.5 126.5461,237.5 67,227.65026 67,215.49999 L 67,369.5 l 266,0 z"
       inkscape:connector-curvature="0"
       sodipodi:nodetypes="cscccc" />
    <path
       sodipodi:nodetypes="cccsccc"
       inkscape:connector-curvature="0"
       d="m 333,369.5 0,-140 0,-14.00001 C 333,227.65026 273.4539,237.5 200,237.5 126.5461,237.5 67,227.65026 67,215.49999 l 0,14.00001 0,140"
       style="fill:none;stroke:#000000;stroke-width:1px;stroke-linecap:square;display:inline"
       id="path4095" />
  </g>
  <g
     inkscape:groupmode="layer"
     id="g4109"
     inkscape:label="UNTEN-003"
     style="display:inline"
     sodipodi:insensitive="true">
    <path
       sodipodi:nodetypes="cscccc"
       inkscape:connector-curvature="0"
       d="M 333,275.49999 C 333,287.65026 273.4539,297.5 200,297.5 126.5461,297.5 67,287.65026 67,275.49999 l 0,94.00001 266,0 z"
       style="fill:#ffffff;stroke:none;display:inline"
       id="path4111" />
    <path
       id="path4113"
       style="fill:none;stroke:#000000;stroke-width:1px;stroke-linecap:square;display:inline"
       d="m 333,369.5 0,-80 0,-14.00001 C 333,287.65026 273.4539,297.5 200,297.5 126.5461,297.5 67,287.65026 67,275.49999 l 0,14.00001 0,80"
       inkscape:connector-curvature="0"
       sodipodi:nodetypes="cccsccc" />
  </g>
  <g
     inkscape:groupmode="layer"
     id="layer4"
     inkscape:label="OBEN-001"
     style="display:inline">
    <path
       sodipodi:nodetypes="csccc"
       inkscape:connector-curvature="0"
       d="m 67,245.5 c 0,12.1503 59.5461,22 133,22 73.4539,0 133,-9.8497 133,-22 l 0,-215 -266,0"
       style="fill:#ffffff;stroke:none;display:inline"
       id="path3509-9" />
    <path
       sodipodi:nodetypes="csccscc"
       inkscape:connector-curvature="0"
       d="m 333,245.5 c 0,12.1503 -59.5461,22 -133,22 -73.4539,0 -133,-9.8497 -133,-22 l 10e-7,-13.5 c 0,-73.45387 59.546119,-133 133.000009,-133 C 273.45388,99 333,158.54613 333,232 z"
       style="fill:#ffffff;stroke:none;display:inline"
       id="path3955-7-6"
       zpos="1900" />
    <path
       id="path4107-5-2"
       style="fill:none;stroke:#000000;stroke-width:1px;stroke-linecap:square;display:inline"
       d="m 333,245.5 c 0,12.1503 -59.5461,22 -133,22 -73.4539,0 -133,-9.8497 -133,-22 l 10e-7,-13.5 c 0,-73.45387 59.546119,-133 133.000009,-133 C 273.45388,99 333,158.54613 333,232 z"
       inkscape:connector-curvature="0"
       sodipodi:nodetypes="csccscc"
       zpos="2000" />
  </g>
  <g
     style="display:none"
     inkscape:label="OBEN-002"
     id="g4097"
     inkscape:groupmode="layer">
    <path
       id="path4099"
       style="fill:#ffffff;stroke:none;display:inline"
       d="m 67,185.5 c 0,12.1503 59.5461,22 133,22 73.4539,0 133,-9.8497 133,-22 l 0,-155 -266,0"
       inkscape:connector-curvature="0"
       sodipodi:nodetypes="csccc" />
    <path
       sodipodi:nodetypes="csccscc"
       inkscape:connector-curvature="0"
       d="m 333,185.5 c 0,12.1503 -59.5461,22 -133,22 -73.4539,0 -133,-9.8497 -133,-22 l 10e-7,-53.5 C 67.000001,58.54613 126.54612,-1 200.00001,-1 273.45388,-1 333,58.54613 333,132 z"
       style="fill:#ffffff;stroke:none;display:inline"
       id="path3955-7"
       zpos="1900" />
    <path
       id="path4107-5"
       style="fill:none;stroke:#000000;stroke-width:1px;stroke-linecap:square;display:inline"
       d="m 333,185.5 c 0,12.1503 -59.5461,22 -133,22 -73.4539,0 -133,-9.8497 -133,-22 l 10e-7,-53.5 C 67.000001,58.54613 126.54612,-1 200.00001,-1 273.45388,-1 333,58.54613 333,132 z"
       inkscape:connector-curvature="0"
       sodipodi:nodetypes="csccscc"
       zpos="2000" />
  </g>
  <g
     inkscape:groupmode="layer"
     id="g4103"
     inkscape:label="OBEN-003"
     style="display:none"
     zpos="1000">
    <path
       sodipodi:nodetypes="csccscc"
       inkscape:connector-curvature="0"
       d="m 333,135.5 c 0,12.1503 -59.5461,22 -133,22 -73.4539,0 -133,-9.8497 -133,-22 l 10e-7,-53.500002 c 0,-73.453869 59.546119,-132.999999 133.000009,-132.999999 C 273.45388,-51.000001 333,8.546129 333,81.999998 z"
       style="fill:#ffffff;stroke:none;display:inline"
       id="path3955" />
    <path
       id="path4107"
       style="fill:none;stroke:#000000;stroke-width:1px;stroke-linecap:square;display:inline"
       d="m 333,135.5 c 0,12.1503 -59.5461,22 -133,22 -73.4539,0 -133,-9.8497 -133,-22 l 10e-7,-53.500002 c 0,-73.453869 59.546119,-132.999999 133.000009,-132.999999 C 273.45388,-51.000001 333,8.546129 333,81.999998 z"
       inkscape:connector-curvature="0"
       sodipodi:nodetypes="csccscc" />
  </g>
</svg>
