<?xml version="1.0" encoding="UTF-8" standalone="no"?>
<!-- Created with Inkscape (http://www.inkscape.org/) -->
<svg
   xmlns:dc="http://purl.org/dc/elements/1.1/"
   xmlns:cc="http://creativecommons.org/ns#"
   xmlns:rdf="http://www.w3.org/1999/02/22-rdf-syntax-ns#"
   xmlns:svg="http://www.w3.org/2000/svg"
   xmlns="http://www.w3.org/2000/svg"
   xmlns:sodipodi="http://sodipodi.sourceforge.net/DTD/sodipodi-0.dtd"
   xmlns:inkscape="http://www.inkscape.org/namespaces/inkscape"
   style="display:inline"
   sodipodi:docname="161212_IIII_00_UW_00_UW_.svg"
   inkscape:version="0.48.3.1 r9886"
   version="1.1"
   id="svg2902"
   height="400"
   width="400">
  <sodipodi:namedview
     id="base"
     pagecolor="#f0f0f0"
     bordercolor="#666666"
     borderopacity="1.0"
     inkscape:pageopacity="1"
     inkscape:pageshadow="2"
     inkscape:zoom="0.70608074"
     inkscape:cx="64.99885"
     inkscape:cy="74.361352"
     inkscape:document-units="px"
     inkscape:current-layer="g3189"
     showgrid="false"
     inkscape:window-width="1018"
     inkscape:window-height="709"
     inkscape:window-x="0"
     inkscape:window-y="1"
     inkscape:window-maximized="0"
     showguides="true"
     inkscape:guide-bbox="true"
     inkscape:snap-bbox="true"
     inkscape:snap-global="false" />
  <defs
     id="defs2904">
    <clipPath
       clipPathUnits="userSpaceOnUse"
       id="clipPath5174">
      <path
         id="path5176"
         style="opacity:0.5;fill:#00ff00;stroke:#00ff00;stroke-width:1px;stroke-linejoin:round;stroke-linecap:round;stroke-linecap:square;display:inline"
         d="m 436.26971,600.11436 -232.09481,134 -169.500003,-293.58262 232.094813,-134 z"
         inkscape:connector-curvature="0"
         sodipodi:nodetypes="ccccc" />
    </clipPath>
    <clipPath
       clipPathUnits="userSpaceOnUse"
       id="clipPath5174-5">
      <path
         id="path5176-9"
         style="opacity:0.5;fill:#00ff00;stroke:#00ff00;stroke-width:1px;stroke-linejoin:round;stroke-linecap:round;stroke-linecap:square;display:inline"
         d="m 436.26971,600.11436 -232.09481,134 -169.500003,-293.58262 232.094813,-134 z"
         inkscape:connector-curvature="0"
         sodipodi:nodetypes="ccccc" />
    </clipPath>
    <clipPath
       clipPathUnits="userSpaceOnUse"
       id="clipPath3238">
      <path
         sodipodi:nodetypes="ccccc"
         inkscape:connector-curvature="0"
         d="m 461.26971,643.41563 -232.09481,134 -169.500002,-293.58262 232.094812,-134 z"
         style="opacity:0.5;fill:#00ff00;stroke:#00ff00;stroke-width:1px;stroke-linejoin:round;stroke-linecap:round;stroke-linecap:square;display:inline"
         id="path3240" />
    </clipPath>
  </defs>
  <metadata
     id="metadata2907">
    <rdf:RDF>
      <cc:Work
         rdf:about="">
        <dc:format>image/svg+xml</dc:format>
        <dc:type
           rdf:resource="http://purl.org/dc/dcmitype/StillImage" />
        <dc:title />
      </cc:Work>
    </rdf:RDF>
  </metadata>
<g
     inkscape:groupmode="layer"
     id="bg"
     inkscape:label="XX_BG"
     sodipodi:insensitive="true">
    <path
       style="fill:#f6ffd5"
       d="M 400,0 400,400 0,400 0,0 z"
       id="bgrect"
       inkscape:connector-curvature="0" />
  </g>
<g
     inkscape:label="XX_Referenz"
     inkscape:groupmode="layer"
     id="XX_referenz"
     style="display:inline"
     sodipodi:insensitive="true">
    <path
       id="innerframe"
       style="fill:none;stroke:#ff0000;stroke-width:1"
       d="m 40.5,40.5 319,0 0,319 -319,0 0,-319 z"
       inkscape:label="#innerframe"
       sodipodi:insensitive="true"
       inkscape:connector-curvature="0" />
    <path
       id="outerframe"
       style="fill:none;stroke:#ff0000;stroke-width:1"
       d="m 30.5,30.5 339,0 0,339 -339,0 0,-339 z"
       inkscape:label="#outerframe"
       sodipodi:nodetypes="ccccc"
       sodipodi:insensitive="true"
       inkscape:connector-curvature="0" />
    <path
       style="opacity:0.5;fill:none;stroke:#ffc200;stroke-width:1px;stroke-linejoin:round;stroke-linecap:round;stroke-linecap:square"
       d="m 189,30.5 0,10"
       id="ref-S-top-1"
       sodipodi:insensitive="true"
       inkscape:connector-curvature="0" />
    <path
       style="opacity:0.5;fill:none;stroke:#ffc200;stroke-width:1px;stroke-linejoin:round;stroke-linecap:round;stroke-linecap:square"
       d="m 191,30.5 0,10"
       id="ref-S-top-2"
       sodipodi:insensitive="true"
       inkscape:connector-curvature="0" />
    <path
       style="opacity:0.5;fill:none;stroke:#ffc200;stroke-width:1px;stroke-linejoin:round;stroke-linecap:round;stroke-linecap:square"
       d="m 209,30.5 0,10"
       id="ref-S-top-3"
       sodipodi:insensitive="true"
       inkscape:connector-curvature="0" />
    <path
       style="opacity:0.5;fill:none;stroke:#ffc200;stroke-width:1px;stroke-linejoin:round;stroke-linecap:round;stroke-linecap:square"
       d="m 211,30.5 0,10"
       id="ref-S-top-4"
       sodipodi:insensitive="true"
       inkscape:connector-curvature="0" />
    <path
       style="opacity:0.5;fill:none;stroke:#00ff00;stroke-width:1px;stroke-linejoin:round;stroke-linecap:round;stroke-linecap:square"
       d="m 199,30.5 0,10"
       id="ref-I-top-1"
       sodipodi:insensitive="true"
       inkscape:connector-curvature="0" />
    <path
       style="opacity:0.5;fill:none;stroke:#00ff00;stroke-width:1px;stroke-linejoin:round;stroke-linecap:round;stroke-linecap:square"
       d="m 201,30.5 0,10"
       id="ref-I-top-2"
       sodipodi:insensitive="true"
       inkscape:connector-curvature="0" />
    <path
       style="opacity:0.5;fill:none;stroke:#00ffcc;stroke-width:1px;stroke-linejoin:round;stroke-linecap:round;stroke-linecap:square"
       d="m 66,30.5 0,10"
       id="ref-C-top-1"
       sodipodi:insensitive="true"
       inkscape:connector-curvature="0" />
    <path
       style="opacity:0.5;fill:none;stroke:#00ffcc;stroke-width:1px;stroke-linejoin:round;stroke-linecap:round;stroke-linecap:square"
       d="m 68,30.5 0,10"
       id="ref-C-top-2"
       sodipodi:insensitive="true"
       inkscape:connector-curvature="0" />
    <path
       style="opacity:0.5;fill:none;stroke:#00ffcc;stroke-width:1px;stroke-linejoin:round;stroke-linecap:round;stroke-linecap:square"
       d="m 92,30.5 0,10"
       id="ref-C-top-3"
       sodipodi:insensitive="true"
       inkscape:connector-curvature="0" />
    <path
       style="opacity:0.5;fill:none;stroke:#00ffcc;stroke-width:1px;stroke-linejoin:round;stroke-linecap:round;stroke-linecap:square"
       d="m 94,30.5 0,10"
       id="ref-C-top-4"
       sodipodi:insensitive="true"
       inkscape:connector-curvature="0" />
    <path
       style="opacity:0.5;fill:none;stroke:#00ffcc;stroke-width:1px;stroke-linejoin:round;stroke-linecap:round;stroke-linecap:square"
       d="m 306,30.5 0,10"
       id="ref-C-top-5"
       sodipodi:insensitive="true"
       inkscape:connector-curvature="0" />
    <path
       style="opacity:0.5;fill:none;stroke:#00ffcc;stroke-width:1px;stroke-linejoin:round;stroke-linecap:round;stroke-linecap:square"
       d="m 308,30.5 0,10"
       id="ref-C-top-6"
       sodipodi:insensitive="true"
       inkscape:connector-curvature="0" />
    <path
       style="opacity:0.5;fill:none;stroke:#00ffcc;stroke-width:1px;stroke-linejoin:round;stroke-linecap:round;stroke-linecap:square"
       d="m 332,30.5 0,10"
       id="ref-C-top-7"
       sodipodi:insensitive="true"
       inkscape:connector-curvature="0" />
    <path
       style="opacity:0.5;fill:none;stroke:#00ffcc;stroke-width:1px;stroke-linejoin:round;stroke-linecap:round;stroke-linecap:square"
       d="m 334,30.5 0,10"
       id="ref-C-top-8"
       sodipodi:insensitive="true"
       inkscape:connector-curvature="0" />
    <path
       style="opacity:0.5;fill:none;stroke:#ffc200;stroke-width:1px;stroke-linejoin:round;stroke-linecap:round;stroke-linecap:square"
       d="m 369.5,189 -10,0"
       id="ref-S-right-1"
       sodipodi:insensitive="true"
       inkscape:connector-curvature="0" />
    <path
       style="opacity:0.5;fill:none;stroke:#ffc200;stroke-width:1px;stroke-linejoin:round;stroke-linecap:round;stroke-linecap:square"
       d="m 369.5,191 -10,0"
       id="ref-S-right-2"
       sodipodi:insensitive="true"
       inkscape:connector-curvature="0" />
    <path
       style="opacity:0.5;fill:none;stroke:#ffc200;stroke-width:1px;stroke-linejoin:round;stroke-linecap:round;stroke-linecap:square"
       d="m 369.5,209 -10,0"
       id="ref-S-right-3"
       sodipodi:insensitive="true"
       inkscape:connector-curvature="0" />
    <path
       style="opacity:0.5;fill:none;stroke:#ffc200;stroke-width:1px;stroke-linejoin:round;stroke-linecap:round;stroke-linecap:square"
       d="m 369.5,211 -10,0"
       id="ref-S-right-4"
       sodipodi:insensitive="true"
       inkscape:connector-curvature="0" />
    <path
       style="opacity:0.5;fill:none;stroke:#00ff00;stroke-width:1px;stroke-linejoin:round;stroke-linecap:round;stroke-linecap:square"
       d="m 369.5,199 -10,0"
       id="ref-I-right-1"
       sodipodi:insensitive="true"
       inkscape:connector-curvature="0" />
    <path
       style="opacity:0.5;fill:none;stroke:#00ff00;stroke-width:1px;stroke-linejoin:round;stroke-linecap:round;stroke-linecap:square"
       d="m 369.5,201 -10,0"
       id="ref-I-right-2"
       sodipodi:insensitive="true"
       inkscape:connector-curvature="0" />
    <path
       style="opacity:0.5;fill:none;stroke:#00ffcc;stroke-width:1px;stroke-linejoin:round;stroke-linecap:round;stroke-linecap:square"
       d="m 369.5,66 -10,0"
       id="ref-C-right-1"
       sodipodi:insensitive="true"
       inkscape:connector-curvature="0" />
    <path
       style="opacity:0.5;fill:none;stroke:#00ffcc;stroke-width:1px;stroke-linejoin:round;stroke-linecap:round;stroke-linecap:square"
       d="m 369.5,68 -10,0"
       id="ref-C-right-2"
       sodipodi:insensitive="true"
       inkscape:connector-curvature="0" />
    <path
       style="opacity:0.5;fill:none;stroke:#00ffcc;stroke-width:1px;stroke-linejoin:round;stroke-linecap:round;stroke-linecap:square"
       d="m 369.5,92 -10,0"
       id="ref-C-right-3"
       sodipodi:insensitive="true"
       inkscape:connector-curvature="0" />
    <path
       style="opacity:0.5;fill:none;stroke:#00ffcc;stroke-width:1px;stroke-linejoin:round;stroke-linecap:round;stroke-linecap:square"
       d="m 369.5,94 -10,0"
       id="ref-C-right-4"
       sodipodi:insensitive="true"
       inkscape:connector-curvature="0" />
    <path
       style="opacity:0.5;fill:none;stroke:#00ffcc;stroke-width:1px;stroke-linejoin:round;stroke-linecap:round;stroke-linecap:square"
       d="m 369.5,306 -10,0"
       id="ref-C-right-5"
       sodipodi:insensitive="true"
       inkscape:connector-curvature="0" />
    <path
       style="opacity:0.5;fill:none;stroke:#00ffcc;stroke-width:1px;stroke-linejoin:round;stroke-linecap:round;stroke-linecap:square"
       d="m 369.5,308 -10,0"
       id="ref-C-right-6"
       sodipodi:insensitive="true"
       inkscape:connector-curvature="0" />
    <path
       style="opacity:0.5;fill:none;stroke:#00ffcc;stroke-width:1px;stroke-linejoin:round;stroke-linecap:round;stroke-linecap:square"
       d="m 369.5,332 -10,0"
       id="ref-C-right-7"
       sodipodi:insensitive="true"
       inkscape:connector-curvature="0" />
    <path
       style="opacity:0.5;fill:none;stroke:#00ffcc;stroke-width:1px;stroke-linejoin:round;stroke-linecap:round;stroke-linecap:square"
       d="m 369.5,334 -10,0"
       id="ref-C-right-8"
       sodipodi:insensitive="true"
       inkscape:connector-curvature="0" />
    <path
       style="opacity:0.5;fill:none;stroke:#ffc200;stroke-width:1px;stroke-linejoin:round;stroke-linecap:round;stroke-linecap:square"
       d="m 189,369.5 0,-10"
       id="ref-S-bottom-1"
       sodipodi:insensitive="true"
       inkscape:connector-curvature="0" />
    <path
       style="opacity:0.5;fill:none;stroke:#ffc200;stroke-width:1px;stroke-linejoin:round;stroke-linecap:round;stroke-linecap:square"
       d="m 191,369.5 0,-10"
       id="ref-S-bottom-2"
       sodipodi:insensitive="true"
       inkscape:connector-curvature="0" />
    <path
       style="opacity:0.5;fill:none;stroke:#ffc200;stroke-width:1px;stroke-linejoin:round;stroke-linecap:round;stroke-linecap:square"
       d="m 209,369.5 0,-10"
       id="ref-S-bottom-3"
       sodipodi:insensitive="true"
       inkscape:connector-curvature="0" />
    <path
       style="opacity:0.5;fill:none;stroke:#ffc200;stroke-width:1px;stroke-linejoin:round;stroke-linecap:round;stroke-linecap:square"
       d="m 211,369.5 0,-10"
       id="ref-S-bottom-4"
       sodipodi:insensitive="true"
       inkscape:connector-curvature="0" />
    <path
       style="opacity:0.5;fill:none;stroke:#00ff00;stroke-width:1px;stroke-linejoin:round;stroke-linecap:round;stroke-linecap:square"
       d="m 199,369.5 0,-10"
       id="ref-I-bottom-1"
       sodipodi:insensitive="true"
       inkscape:connector-curvature="0" />
    <path
       style="opacity:0.5;fill:none;stroke:#00ff00;stroke-width:1px;stroke-linejoin:round;stroke-linecap:round;stroke-linecap:square"
       d="m 201,369.5 0,-10"
       id="ref-I-bottom-2"
       sodipodi:insensitive="true"
       inkscape:connector-curvature="0" />
    <path
       style="opacity:0.5;fill:none;stroke:#00ffcc;stroke-width:1px;stroke-linejoin:round;stroke-linecap:round;stroke-linecap:square"
       d="m 66,369.5 0,-10"
       id="ref-C-bottom-1"
       sodipodi:insensitive="true"
       inkscape:connector-curvature="0" />
    <path
       style="opacity:0.5;fill:none;stroke:#00ffcc;stroke-width:1px;stroke-linejoin:round;stroke-linecap:round;stroke-linecap:square"
       d="m 68,369.5 0,-10"
       id="ref-C-bottom-2"
       sodipodi:insensitive="true"
       inkscape:connector-curvature="0" />
    <path
       style="opacity:0.5;fill:none;stroke:#00ffcc;stroke-width:1px;stroke-linejoin:round;stroke-linecap:round;stroke-linecap:square"
       d="m 92,369.5 0,-10"
       id="ref-C-bottom-3"
       sodipodi:insensitive="true"
       inkscape:connector-curvature="0" />
    <path
       style="opacity:0.5;fill:none;stroke:#00ffcc;stroke-width:1px;stroke-linejoin:round;stroke-linecap:round;stroke-linecap:square"
       d="m 94,369.5 0,-10"
       id="ref-C-bottom-4"
       sodipodi:insensitive="true"
       inkscape:connector-curvature="0" />
    <path
       style="opacity:0.5;fill:none;stroke:#00ffcc;stroke-width:1px;stroke-linejoin:round;stroke-linecap:round;stroke-linecap:square"
       d="m 306,369.5 0,-10"
       id="ref-C-bottom-5"
       sodipodi:insensitive="true"
       inkscape:connector-curvature="0" />
    <path
       style="opacity:0.5;fill:none;stroke:#00ffcc;stroke-width:1px;stroke-linejoin:round;stroke-linecap:round;stroke-linecap:square"
       d="m 308,369.5 0,-10"
       id="ref-C-bottom-6"
       sodipodi:insensitive="true"
       inkscape:connector-curvature="0" />
    <path
       style="opacity:0.5;fill:none;stroke:#00ffcc;stroke-width:1px;stroke-linejoin:round;stroke-linecap:round;stroke-linecap:square"
       d="m 332,369.5 0,-10"
       id="ref-C-bottom-7"
       sodipodi:insensitive="true"
       inkscape:connector-curvature="0" />
    <path
       style="opacity:0.5;fill:none;stroke:#00ffcc;stroke-width:1px;stroke-linejoin:round;stroke-linecap:round;stroke-linecap:square"
       d="m 334,369.5 0,-10"
       id="ref-C-bottom-8"
       sodipodi:insensitive="true"
       inkscape:connector-curvature="0" />
    <path
       style="opacity:0.5;fill:none;stroke:#ffc200;stroke-width:1px;stroke-linejoin:round;stroke-linecap:round;stroke-linecap:square"
       d="m 30.5,189 10,0"
       id="ref-S-left-1"
       sodipodi:insensitive="true"
       inkscape:connector-curvature="0" />
    <path
       style="opacity:0.5;fill:none;stroke:#ffc200;stroke-width:1px;stroke-linejoin:round;stroke-linecap:round;stroke-linecap:square"
       d="m 30.5,191 10,0"
       id="ref-S-left-2"
       sodipodi:insensitive="true"
       inkscape:connector-curvature="0" />
    <path
       style="opacity:0.5;fill:none;stroke:#ffc200;stroke-width:1px;stroke-linejoin:round;stroke-linecap:round;stroke-linecap:square"
       d="m 30.5,209 10,0"
       id="ref-S-left-3"
       sodipodi:insensitive="true"
       inkscape:connector-curvature="0" />
    <path
       style="opacity:0.5;fill:none;stroke:#ffc200;stroke-width:1px;stroke-linejoin:round;stroke-linecap:round;stroke-linecap:square"
       d="m 30.5,211 10,0"
       id="ref-S-left-4"
       sodipodi:insensitive="true"
       inkscape:connector-curvature="0" />
    <path
       style="opacity:0.5;fill:none;stroke:#00ff00;stroke-width:1px;stroke-linejoin:round;stroke-linecap:round;stroke-linecap:square"
       d="m 40.5,199 -10,0"
       id="ref-I-left-1"
       sodipodi:insensitive="true"
       inkscape:connector-curvature="0" />
    <path
       style="opacity:0.5;fill:none;stroke:#00ff00;stroke-width:1px;stroke-linejoin:round;stroke-linecap:round;stroke-linecap:square"
       d="m 40.5,201 -10,0"
       id="ref-I-left-2"
       sodipodi:insensitive="true"
       inkscape:connector-curvature="0" />
    <path
       style="opacity:0.5;fill:none;stroke:#00ffcc;stroke-width:1px;stroke-linejoin:round;stroke-linecap:round;stroke-linecap:square"
       d="m 30.5,66 10,0"
       id="ref-C-left-1"
       sodipodi:insensitive="true"
       inkscape:connector-curvature="0" />
    <path
       style="opacity:0.5;fill:none;stroke:#00ffcc;stroke-width:1px;stroke-linejoin:round;stroke-linecap:round;stroke-linecap:square"
       d="m 30.5,68 10,0"
       id="ref-C-left-2"
       sodipodi:insensitive="true"
       inkscape:connector-curvature="0" />
    <path
       style="opacity:0.5;fill:none;stroke:#00ffcc;stroke-width:1px;stroke-linejoin:round;stroke-linecap:round;stroke-linecap:square"
       d="m 30.5,92 10,0"
       id="ref-C-left-3"
       sodipodi:insensitive="true"
       inkscape:connector-curvature="0" />
    <path
       style="opacity:0.5;fill:none;stroke:#00ffcc;stroke-width:1px;stroke-linejoin:round;stroke-linecap:round;stroke-linecap:square"
       d="m 30.5,94 10,0"
       id="ref-C-left-4"
       sodipodi:insensitive="true"
       inkscape:connector-curvature="0" />
    <path
       style="opacity:0.5;fill:none;stroke:#00ffcc;stroke-width:1px;stroke-linejoin:round;stroke-linecap:round;stroke-linecap:square"
       d="m 30.5,306 10,0"
       id="ref-C-left-5"
       sodipodi:insensitive="true"
       inkscape:connector-curvature="0" />
    <path
       style="opacity:0.5;fill:none;stroke:#00ffcc;stroke-width:1px;stroke-linejoin:round;stroke-linecap:round;stroke-linecap:square"
       d="m 30.5,308 10,0"
       id="ref-C-left-6"
       sodipodi:insensitive="true"
       inkscape:connector-curvature="0" />
    <path
       style="opacity:0.5;fill:none;stroke:#00ffcc;stroke-width:1px;stroke-linejoin:round;stroke-linecap:round;stroke-linecap:square"
       d="m 30.5,332 10,0"
       id="ref-C-left-7"
       sodipodi:insensitive="true"
       inkscape:connector-curvature="0" />
    <path
       style="opacity:0.5;fill:none;stroke:#00ffcc;stroke-width:1px;stroke-linejoin:round;stroke-linecap:round;stroke-linecap:square"
       d="m 30.5,334 10,0"
       id="ref-C-left-8"
       sodipodi:insensitive="true"
       inkscape:connector-curvature="0" />
    <path
       style="fill:none;stroke:#000000;stroke-width:1px;stroke-linejoin:round;stroke-linecap:round;stroke-linecap:square"
       d="m 190,30.5 0,10"
       id="S-top-1"
       inkscape:connector-curvature="0" />
    <path
       style="fill:none;stroke:#000000;stroke-width:1px;stroke-linejoin:round;stroke-linecap:round;stroke-linecap:square"
       d="m 210,30.5 0,10"
       id="S-top-2"
       inkscape:connector-curvature="0" />
    <path
       style="fill:none;stroke:#000000;stroke-width:1px;stroke-linejoin:round;stroke-linecap:round;stroke-linecap:square"
       d="m 369.5,190 -10,0"
       id="S-right-1"
       inkscape:connector-curvature="0" />
    <path
       style="fill:none;stroke:#000000;stroke-width:1px;stroke-linejoin:round;stroke-linecap:round;stroke-linecap:square"
       d="m 369.5,210 -10,0"
       id="S-right-2"
       inkscape:connector-curvature="0" />
    <path
       style="fill:none;stroke:#000000;stroke-width:1px;stroke-linejoin:round;stroke-linecap:round;stroke-linecap:square"
       d="m 190,369.5 0,-10"
       id="S-bottom-1"
       inkscape:connector-curvature="0" />
    <path
       style="fill:none;stroke:#000000;stroke-width:1px;stroke-linejoin:round;stroke-linecap:round;stroke-linecap:square"
       d="m 210,369.5 0,-10"
       id="S-bottom-2"
       inkscape:connector-curvature="0" />
    <path
       style="fill:none;stroke:#000000;stroke-width:1px;stroke-linejoin:round;stroke-linecap:round;stroke-linecap:square"
       d="m 30.5,190 10,0"
       id="S-left-1"
       inkscape:connector-curvature="0" />
    <path
       style="fill:none;stroke:#000000;stroke-width:1px;stroke-linejoin:round;stroke-linecap:round;stroke-linecap:square"
       d="m 30.5,210 10,0"
       id="S-left-2"
       inkscape:connector-curvature="0" />
    <path
       style="fill:none;stroke:#000000;stroke-width:1px;stroke-linejoin:round;stroke-linecap:round;stroke-linecap:square"
       d="m 200,30.5 0,10"
       id="I-top-1"
       inkscape:connector-curvature="0" />
    <path
       style="fill:none;stroke:#000000;stroke-width:1px;stroke-linejoin:round;stroke-linecap:round;stroke-linecap:square"
       d="m 369.5,200 -10,0"
       id="I-right-1"
       inkscape:connector-curvature="0" />
    <path
       style="fill:none;stroke:#000000;stroke-width:1px;stroke-linejoin:round;stroke-linecap:round;stroke-linecap:square"
       d="m 200,369.5 0,-10"
       id="I-bottom-1"
       inkscape:connector-curvature="0" />
    <path
       style="fill:none;stroke:#000000;stroke-width:1px;stroke-linejoin:round;stroke-linecap:round;stroke-linecap:square"
       d="m 40.5,200 -10,0"
       id="I-left-1"
       inkscape:connector-curvature="0" />
    <path
       style="fill:none;stroke:#000000;stroke-width:1px;stroke-linejoin:round;stroke-linecap:round;stroke-linecap:square"
       d="m 67,30.5 0,10"
       id="C-top-1"
       inkscape:connector-curvature="0" />
    <path
       style="fill:none;stroke:#000000;stroke-width:1px;stroke-linejoin:round;stroke-linecap:round;stroke-linecap:square"
       d="m 93,30.5 0,10"
       id="C-top-2"
       inkscape:connector-curvature="0" />
    <path
       style="fill:none;stroke:#000000;stroke-width:1px;stroke-linejoin:round;stroke-linecap:round;stroke-linecap:square"
       d="m 307,30.5 0,10"
       id="C-top-3"
       inkscape:connector-curvature="0" />
    <path
       style="fill:none;stroke:#000000;stroke-width:1px;stroke-linejoin:round;stroke-linecap:round;stroke-linecap:square"
       d="m 333,30.5 0,10"
       id="C-top-4"
       inkscape:connector-curvature="0" />
    <path
       style="fill:none;stroke:#000000;stroke-width:1px;stroke-linejoin:round;stroke-linecap:round;stroke-linecap:square"
       d="m 369.5,67 -10,0"
       id="C-right-1"
       inkscape:connector-curvature="0" />
    <path
       style="fill:none;stroke:#000000;stroke-width:1px;stroke-linejoin:round;stroke-linecap:round;stroke-linecap:square"
       d="m 369.5,93 -10,0"
       id="C-right-2"
       inkscape:connector-curvature="0" />
    <path
       style="fill:none;stroke:#000000;stroke-width:1px;stroke-linejoin:round;stroke-linecap:round;stroke-linecap:square"
       d="m 369.5,307 -10,0"
       id="C-right-3"
       inkscape:connector-curvature="0" />
    <path
       style="fill:none;stroke:#000000;stroke-width:1px;stroke-linejoin:round;stroke-linecap:round;stroke-linecap:square"
       d="m 369.5,333 -10,0"
       id="C-right-4"
       inkscape:connector-curvature="0" />
    <path
       style="fill:none;stroke:#000000;stroke-width:1px;stroke-linejoin:round;stroke-linecap:round;stroke-linecap:square"
       d="m 67,369.5 0,-10"
       id="C-bottom-1"
       inkscape:connector-curvature="0" />
    <path
       style="fill:none;stroke:#000000;stroke-width:1px;stroke-linejoin:round;stroke-linecap:round;stroke-linecap:square"
       d="m 93,369.5 0,-10"
       id="C-bottom-2"
       inkscape:connector-curvature="0" />
    <path
       style="fill:none;stroke:#000000;stroke-width:1px;stroke-linejoin:round;stroke-linecap:round;stroke-linecap:square"
       d="m 307,369.5 0,-10"
       id="C-bottom-3"
       inkscape:connector-curvature="0" />
    <path
       style="fill:none;stroke:#000000;stroke-width:1px;stroke-linejoin:round;stroke-linecap:round;stroke-linecap:square"
       d="m 333,369.5 0,-10"
       id="C-bottom-4"
       inkscape:connector-curvature="0" />
    <path
       style="fill:none;stroke:#000000;stroke-width:1px;stroke-linejoin:round;stroke-linecap:round;stroke-linecap:square"
       d="m 30.5,67 10,0"
       id="C-left-1"
       inkscape:connector-curvature="0" />
    <path
       style="fill:none;stroke:#000000;stroke-width:1px;stroke-linejoin:round;stroke-linecap:round;stroke-linecap:square"
       d="m 30.5,93 10,0"
       id="C-left-2"
       inkscape:connector-curvature="0" />
    <path
       style="fill:none;stroke:#000000;stroke-width:1px;stroke-linejoin:round;stroke-linecap:round;stroke-linecap:square"
       d="m 30.5,307 10,0"
       id="C-left-3"
       inkscape:connector-curvature="0" />
    <path
       style="fill:none;stroke:#000000;stroke-width:1px;stroke-linejoin:round;stroke-linecap:round;stroke-linecap:square"
       d="m 30.5,333 10,0"
       id="C-left-4"
       inkscape:connector-curvature="0" />
  </g>
<g
     inkscape:groupmode="layer"
     id="g3149"
     inkscape:label="OKON-001"
     style="display:inline"
     sodipodi:insensitive="true">
    <path
       style="fill:none;stroke:#000000;stroke-width:1px;stroke-linejoin:round;stroke-linecap:round;stroke-linecap:square;display:inline"
       d="m 67,30.5 0,36"
       id="C-top-1-3"
       inkscape:connector-curvature="0"
       sodipodi:nodetypes="cc" />
    <path
       style="fill:none;stroke:#000000;stroke-width:1px;stroke-linejoin:round;stroke-linecap:round;stroke-linecap:square;display:inline"
       d="m 333,30.5 0,36"
       id="C-top-4-6"
       inkscape:connector-curvature="0"
       sodipodi:nodetypes="cc" />
  </g>
<g
     style="display:none"
     inkscape:label="IIII-001"
     id="g3125"
     inkscape:groupmode="layer"
     sodipodi:insensitive="true">
    <path
       style="fill:#ffffff;stroke:none"
       d="M 183.03125,67 C 183.01254,67.493391 183,67.984243 183,68.5 l 0,262.21875 c 0,0.79004 0.0227,1.54205 0.0625,2.28125 l 29.90625,0 c 0.0552,-0.86042 0.0937,-1.75896 0.0937,-2.6875 l 0,-261.21875 C 213.0625,68.370592 213.03571,67.680604 213,67 l -29.96875,0 z"
       id="path3136"
       inkscape:connector-curvature="0" />
    <path
       style="fill:none;stroke:#00ff00;stroke-width:1px;stroke-linejoin:round;stroke-linecap:round;display:inline"
       d="M 183.03125,67 C 183.01254,67.493391 183,67.984243 183,68.5 l 0,267.21875 m 30.0625,-0.40625 0,-266.21875 C 213.0625,68.370592 213.03571,67.680604 213,67"
       id="path3136-6"
       inkscape:connector-curvature="0"
       sodipodi:nodetypes="csccsc" />
  </g>
<g
     style="display:none"
     inkscape:label="IIII-002"
     id="g3141"
     inkscape:groupmode="layer"
     sodipodi:insensitive="true">
    <path
       style="fill:#ffffff;stroke:none"
       d="m 104.65625,67 c -0.3838,3.497296 0.0657,7.138929 1.375,10.28125 2.43,5.26499 6.89251,8.9125 12.5625,10.9375 l 2.03125,0.40625 29.96875,0 29.96875,0.40625 0,110.96875 0,110.96875 -29.96875,0 -29.96875,0 -2.03125,0.40625 c -8.50499,2.83499 -14.1875,10.12126 -14.1875,19.03125 0,0.87881 0.1008,1.74446 0.21875,2.59375 l 190.8125,0 c 0.57461,-3.61845 0.16264,-7.4545 -1.46875,-11.09375 -2.43,-4.455 -6.4825,-8.09876 -10.9375,-9.71875 -3.645,-1.215 -2.84753,-1.21875 -34.4375,-1.21875 l -29.15625,0 0,-110.96875 0,-110.96875 29.15625,0 c 24.29998,0 29.5675,-0.40625 31.1875,-0.40625 9.31499,-2.025 15.8125,-9.71626 15.8125,-19.03125 0,-0.884208 -0.0827,-1.746162 -0.1875,-2.59375 l -190.75,0 z"
       id="path3152"
       inkscape:connector-curvature="0" />
    <path
       style="fill:none;stroke:#00ff00;stroke-width:1px;stroke-linejoin:round;stroke-linecap:round;display:inline"
       d="m 104.65625,67 c -0.3838,3.497296 0.0657,7.138929 1.375,10.28125 2.43,5.26499 6.89251,8.9125 12.5625,10.9375 l 2.03125,0.40625 29.96875,0 29.96875,0.40625 0,110.96875 0,110.96875 -29.96875,0 -29.96875,0 -2.03125,0.40625 c -8.50499,2.83499 -14.1875,10.12126 -14.1875,19.03125 0,0.87881 0.1008,1.74446 0.21875,2.59375 m 190.8125,0 c 0.57461,-3.61845 0.16264,-7.4545 -1.46875,-11.09375 -2.43,-4.455 -6.4825,-8.09876 -10.9375,-9.71875 -3.645,-1.215 -2.84753,-1.21875 -34.4375,-1.21875 l -29.15625,0 0,-110.96875 0,-110.96875 29.15625,0 c 24.29998,0 29.5675,-0.40625 31.1875,-0.40625 9.31499,-2.025 15.8125,-9.71626 15.8125,-19.03125 0,-0.884208 -0.0827,-1.746162 -0.1875,-2.59375"
       id="path3152-5"
       inkscape:connector-curvature="0"
       sodipodi:nodetypes="cccccccccccsccccscccscsc" />
  </g>
<g
     style="display:none"
     inkscape:label="IIII-003"
     id="g3157"
     inkscape:groupmode="layer"
     sodipodi:insensitive="true">
    <path
       style="fill:#ffffff;stroke:none"
       d="m 177.71875,67 c -6.78659,6.707949 -10.1875,15.4909 -10.1875,26.375 l 0,230.0625 c 0,3.42405 0.31741,6.59982 0.96875,9.5625 l 63.25,0 c 0.65142,-2.96283 0.99998,-6.13825 1,-9.5625 l 0,-233.28125 C 232.74993,80.359955 229.75295,72.642887 223.78125,67 l -46.0625,0 z"
       id="path3168"
       inkscape:connector-curvature="0" />
    <path
       style="fill:none;stroke:#00ff00;stroke-width:1px;stroke-linejoin:round;stroke-linecap:round;display:inline"
       d="m 177.71875,67 c -6.78659,6.707949 -10.1875,15.4909 -10.1875,26.375 l 0,239.0625 m 65.21875,0 0,-242.28125 C 232.75,80.359955 229.75295,72.642887 223.78125,67"
       id="path3168-5"
       inkscape:connector-curvature="0"
       sodipodi:nodetypes="csccsc" />
  </g>
<g
     style="display:none"
     inkscape:label="IIII-004"
     id="g3173"
     inkscape:groupmode="layer"
     sodipodi:insensitive="true">
    <path
       style="fill:#ffffff;stroke:none"
       d="m 168.46875,67 0,266 48.03125,0 0,-266 -48.03125,0 z"
       id="path3184"
       inkscape:connector-curvature="0" />
    <path
       style="fill:none;stroke:#00ff00;stroke-width:1px;stroke-linejoin:round;stroke-linecap:round;display:inline"
       d="m 168.46875,67 0,266 m 48.03125,0 0,-266"
       id="path3184-2"
       inkscape:connector-curvature="0"
       sodipodi:nodetypes="cccc" />
  </g>
<g
     style="display:none"
     inkscape:label="IIII-008"
     id="g3231"
     inkscape:groupmode="layer"
     sodipodi:insensitive="true">
    <path
       style="fill:#ffffff;stroke:none"
       d="m 137.90625,67 0,11.5 c 8.78906,0.39062 15.24219,1.5625 19.34375,3.125 3.90625,1.75781 6.625,4.88281 8.1875,9.375 1.5625,4.68749 2.34375,11.91407 2.34375,21.875 l 0,189.4375 c 0,10.15624 -0.78125,17.38281 -2.34375,21.875 -1.39356,4.18068 -3.71085,7.11759 -6.96875,8.8125 l 82.28125,0 c -3.40647,-1.69347 -5.76017,-4.62427 -7.15625,-8.8125 -1.5625,-4.49219 -2.125,-11.71876 -2.125,-21.875 l 0,-189.4375 c 0,-9.96093 0.5625,-17.18751 2.125,-21.875 1.5625,-4.49219 4.30469,-7.61719 8.40625,-9.375 3.90624,-1.5625 10.54688,-2.73438 19.53125,-3.125 l 0,-11.5 -123.625,0 z"
       id="path3242"
       inkscape:connector-curvature="0" />
    <path
       style="fill:none;stroke:#00ff00;stroke-width:1px;stroke-linejoin:round;stroke-linecap:round;display:inline"
       d="m 137.90625,67 0,11.5 c 8.78906,0.39062 15.24219,1.5625 19.34375,3.125 3.90625,1.75781 6.625,4.88281 8.1875,9.375 1.5625,4.68749 2.34375,11.91407 2.34375,21.875 l 0,189.4375 c 0,10.15624 -0.78125,17.38281 -2.34375,21.875 -1.39356,4.18068 -3.71085,7.11759 -6.96875,8.8125 m 82.28125,0 c -3.40647,-1.69347 -5.76017,-4.62427 -7.15625,-8.8125 -1.5625,-4.49219 -2.125,-11.71876 -2.125,-21.875 l 0,-189.4375 c 0,-9.96093 0.5625,-17.18751 2.125,-21.875 1.5625,-4.49219 4.30469,-7.61719 8.40625,-9.375 3.90624,-1.5625 10.54688,-2.73438 19.53125,-3.125 l 0,-11.5"
       id="path3242-1"
       inkscape:connector-curvature="0"
       sodipodi:nodetypes="ccccssccccsscccc" />
  </g>
<g
     style="display:inline"
     inkscape:label="IIII-005"
     id="g3189"
     inkscape:groupmode="layer"
     sodipodi:insensitive="true">
    <path
       style="fill:#ffffff;stroke:none"
       d="m 141.625,67 -22.53125,41.53125 101.5625,0 -29.3125,38.375 0,173.8125 -42.9375,0 L 143.3125,333 l 112.125,0 13.71875,-17.84375 0,-235.4375 L 276.0625,67 141.625,67 z"
       id="path3200"
       inkscape:connector-curvature="0" />
    <path
       style="fill:none;stroke:#00ff00;stroke-width:1px;stroke-linejoin:round;stroke-linecap:round;display:inline"
       d="m 141.625,67 -22.53125,41.53125 101.5625,0 -29.3125,38.375 0,173.8125 -42.9375,0 L 143.3125,333 m 112.125,0 13.71875,-17.84375 0,-235.4375 L 276.0625,67"
       id="path3200-7"
       inkscape:connector-curvature="0"
       sodipodi:nodetypes="ccccccccccc" />
  </g>
<g
     style="display:inline"
     inkscape:label="UKON-001"
     id="g3155"
     inkscape:groupmode="layer"
     sodipodi:insensitive="true">
    <path
       style="fill:none;stroke:#000000;stroke-width:1px;stroke-linejoin:round;stroke-linecap:round;stroke-linecap:square;display:inline"
       d="m 67,369.5 0,-36"
       id="C-bottom-1-7"
       inkscape:connector-curvature="0"
       sodipodi:nodetypes="cc" />
    <path
       style="fill:none;stroke:#000000;stroke-width:1px;stroke-linejoin:round;stroke-linecap:round;stroke-linecap:square;display:inline"
       d="m 333,369.5 0,-36"
       id="C-bottom-4-5"
       inkscape:connector-curvature="0"
       sodipodi:nodetypes="cc" />
    <path
       style="fill:none;stroke:#000000;stroke-width:1px;stroke-linejoin:round;stroke-linecap:round;stroke-linecap:square;display:inline"
       d="m 369.5,333 -10,0 -319,0 -10,0"
       id="path3159"
       inkscape:connector-curvature="0"
       sodipodi:nodetypes="cccc" />
    <path
       sodipodi:nodetypes="cccc"
       inkscape:connector-curvature="0"
       id="path3153"
       d="m 30.5,67 10,0 319,0 10,0"
       style="fill:none;stroke:#000000;stroke-width:1px;stroke-linejoin:round;stroke-linecap:round;stroke-linecap:square;display:inline" />
  </g>
<g
     style="display:none"
     inkscape:label="IIII-007"
   zpos="2000"

     id="g3215"
     inkscape:groupmode="layer"
     sodipodi:insensitive="true">
    <path
       style="fill:#ffffff;stroke:none"
       d="m 142.46875,47.6875 c -2.6476,0 -5.53427,0.891181 -8.84375,2.65625 -3.53012,1.765057 -7.06364,3.762426 -10.59375,5.96875 -3.53012,2.206312 -7.03614,4.637426 -10.125,6.84375 -3.30949,2.426952 -5.9537,4.178089 -7.71875,5.28125 C 100.99547,70.864452 99,74.181102 99,78.59375 c 0,3.97138 1.10617,7.508671 3.3125,10.15625 2.20631,2.868218 5.4955,4.1875 9.6875,4.1875 l 77,0 -25.59375,16.96875 0.25,0 c -1.76507,1.3238 -3.33434,2.67244 -4.4375,4.4375 -1.32379,1.76506 -1.75,3.51242 -1.75,5.71875 -0.22063,1.32378 0.88743,4.85919 3.09375,10.375 2.20633,5.73644 4.84489,13.01847 8.375,21.84375 3.53012,8.8253 7.4936,18.53088 11.90625,29.5625 4.41264,11.03161 9.2711,22.27713 14.125,33.75 4.63328,11.47288 9.48984,22.9665 14.34375,34.21875 4.8539,11.47287 9.27862,21.8272 13.25,31.09375 3.97138,9.48719 7.47553,17.6604 10.34375,24.5 2.86822,6.8396 4.86558,11.4793 5.96875,13.90625 L 213.5625,333 l 69.125,0 c 1.40653,-0.92046 2.68543,-2.01996 3.84375,-3.34375 1.32379,-1.54443 2.21875,-3.50867 2.21875,-6.15625 0,-0.88253 -0.21688,-1.99246 -0.4375,-2.875 -0.22063,-0.88252 -0.46687,-1.99058 -0.6875,-3.09375 l 0,0.21875 -80.96875,-197.25 71.5,-48.53125 c 3.75075,-2.426952 5.71875,-5.962352 5.71875,-10.375 0,-3.750741 -1.32305,-7.039909 -3.75,-9.6875 -2.64759,-2.647579 -5.71801,-4.21875 -9.46875,-4.21875 l -128.1875,0 z m -11.25,271.625 c -1.9857,0 -4.19804,0.64496 -6.625,1.96875 -2.42696,1.3238 -4.8543,2.64307 -7.28125,4.1875 -2.42696,1.76505 -4.63743,3.32868 -6.84375,5.09375 -1.27758,1.02207 -2.29936,1.77364 -3.21875,2.4375 l 52.03125,0 c -0.38833,-0.23113 -0.76333,-0.45637 -1.15625,-0.6875 -3.97138,-2.20633 -7.50114,-4.42055 -11.03125,-6.40625 -3.53011,-1.76505 -6.85053,-3.3012 -9.71875,-4.625 -2.86822,-1.32379 -4.83246,-1.74812 -6.15625,-1.96875 z"
       id="path3226"
       inkscape:connector-curvature="0" />
    <path
       id="path3416"
       d="m 282.6875,333 c 1.40653,-0.92046 2.68543,-2.01996 3.84375,-3.34375 1.32379,-1.54443 2.21875,-3.50867 2.21875,-6.15625 0,-0.88253 -0.21688,-1.99246 -0.4375,-2.875 -0.22063,-0.88252 -0.46687,-1.99058 -0.6875,-3.09375 l 0,0.21875 -80.96875,-197.25 71.5,-48.53125 c 3.75075,-2.426952 5.71875,-5.962352 5.71875,-10.375 0,-3.750741 -1.32305,-7.039909 -3.75,-9.6875 -2.64759,-2.647579 -5.71801,-4.21875 -9.46875,-4.21875 l -128.1875,0 c -2.6476,0 -5.53427,0.891181 -8.84375,2.65625 -3.53012,1.765057 -7.06364,3.762426 -10.59375,5.96875 -3.53012,2.206312 -7.03614,4.637426 -10.125,6.84375 -3.30949,2.426952 -5.9537,4.178089 -7.71875,5.28125 C 100.99547,70.864452 99,74.181102 99,78.59375 c 0,3.97138 1.10617,7.508671 3.3125,10.15625 2.20631,2.868218 5.4955,4.1875 9.6875,4.1875 l 77,0 -25.59375,16.96875 0.25,0 c -1.76507,1.3238 -3.33434,2.67244 -4.4375,4.4375 -1.32379,1.76506 -1.75,3.51242 -1.75,5.71875 -0.22063,1.32378 0.88743,4.85919 3.09375,10.375 2.20633,5.73644 4.84489,13.01847 8.375,21.84375 3.53012,8.8253 7.4936,18.53088 11.90625,29.5625 4.41264,11.03161 9.2711,22.27713 14.125,33.75 4.63328,11.47288 9.48984,22.9665 14.34375,34.21875 4.8539,11.47287 9.27862,21.8272 13.25,31.09375 3.97138,9.48719 7.47553,17.6604 10.34375,24.5 2.86822,6.8396 4.86558,11.4793 5.96875,13.90625 L 213.5625,333 m -54.28125,0 c -0.38833,-0.23113 -0.76333,-0.45637 -1.15625,-0.6875 -3.97138,-2.20633 -7.50114,-4.42055 -11.03125,-6.40625 -3.53011,-1.76505 -6.85053,-3.3012 -9.71875,-4.625 -2.86822,-1.32379 -4.83246,-1.74812 -6.15625,-1.96875 -1.9857,0 -4.19804,0.64496 -6.625,1.96875 -2.42696,1.3238 -4.8543,2.64307 -7.28125,4.1875 -2.42696,1.76505 -4.63743,3.32868 -6.84375,5.09375 -1.27758,1.02207 -2.29936,1.77364 -3.21875,2.4375"
       style="fill:none;stroke:#00ff00;stroke-width:1px;stroke-linejoin:round;stroke-linecap:round"
       inkscape:connector-curvature="0"
       sodipodi:nodetypes="ccscccccscsscsccscsccccccsscccscccccscscsc" />
    <path
       style="fill:none;stroke:#00ff00;stroke-width:1px;stroke-linejoin:round;stroke-linecap:round;display:inline"
       d="m 206.66561,120.50818 71.48491,-48.539147 c 3.75075,-2.426952 5.73645,-5.957077 5.73645,-10.369725 0,-3.750741 -1.3238,-7.060239 -3.75075,-9.70783 -2.64759,-2.647579 -5.73645,-4.192008 -9.48719,-4.192008 l -128.18746,0 c -2.6476,0 -5.51583,0.882522 -8.82531,2.647591 -3.53012,1.765057 -7.06024,3.750753 -10.59035,5.957077 -3.53012,2.206312 -7.06024,4.633275 -10.1491,6.839599 -3.30949,2.426952 -5.95708,4.192021 -7.72213,5.295182 -4.19203,2.426952 -6.177722,5.73645 -6.177722,10.149098 0,3.97138 1.103172,7.501506 3.309502,10.149085 2.20631,2.868218 5.51581,4.19202 9.70781,4.19202 l 77.00074,0 -25.59337,16.988698 0.22064,0 c -1.76507,1.3238 -3.3095,2.64759 -4.41266,4.41265 -1.32379,1.76506 -1.76505,3.53012 -1.76505,5.73645 -0.22063,1.32378 0.88253,4.85391 3.08885,10.36972 2.20633,5.73644 4.85392,13.01733 8.38403,21.84261 3.53012,8.8253 7.50151,18.53314 11.91416,29.56476 4.41264,11.03161 9.26657,22.28389 14.12047,33.75676 4.63328,11.47288 9.48721,22.94579 14.34112,34.19804"
       id="path3414"
       inkscape:connector-curvature="0" />
    <path
       sodipodi:nodetypes="cccc"
       inkscape:connector-curvature="0"
       id="path3576-3"
       d="m 369.5,333 -10,0 -319,0 -10,0"
       style="fill:none;stroke:#000000;stroke-width:1px;stroke-linejoin:round;stroke-linecap:round;stroke-linecap:square;display:inline" />
    <path
       style="fill:none;stroke:#00ff00;stroke-width:1px;stroke-linejoin:round;stroke-linecap:round;display:inline"
       d="m 209.3132,249.79881 c 4.8539,11.47287 9.26656,21.84262 13.23794,31.10917 3.97138,9.48719 7.50151,17.6506 10.36973,24.4902 2.86822,6.8396 4.85391,11.4729 5.95708,13.89985 l -54.27559,29.34412 c -1.32379,-0.6619 -3.53013,-1.76507 -6.17771,-3.75075 -2.86821,-1.76506 -5.95708,-3.75076 -9.4872,-5.95708 -3.53011,-2.20633 -7.06024,-4.41265 -10.81099,-6.61897 -3.97138,-2.20633 -7.50151,-4.41265 -11.03162,-6.39835 -3.53011,-1.76505 -6.83961,-3.30948 -9.70783,-4.63328 -2.86822,-1.32379 -4.85391,-1.76506 -6.1777,-1.98569"
       id="path3412"
       inkscape:connector-curvature="0" />
  </g>
</svg>
