<?xml version="1.0" encoding="UTF-8" standalone="no"?>
<!-- Created with Inkscape (http://www.inkscape.org/) -->

<svg
   xmlns:dc="http://purl.org/dc/elements/1.1/"
   xmlns:cc="http://creativecommons.org/ns#"
   xmlns:rdf="http://www.w3.org/1999/02/22-rdf-syntax-ns#"
   xmlns:svg="http://www.w3.org/2000/svg"
   xmlns="http://www.w3.org/2000/svg"
   xmlns:sodipodi="http://sodipodi.sourceforge.net/DTD/sodipodi-0.dtd"
   xmlns:inkscape="http://www.inkscape.org/namespaces/inkscape"
   style="display:inline"
   sodipodi:docname="171021_UOOSA-R+_UB_00_00_SB_.svg"
   inkscape:version="0.48.3.1 r9886"
   version="1.1"
   id="svg2902"
   height="400"
   width="400">
  <sodipodi:namedview
     id="base"
     pagecolor="#f0f0f0"
     bordercolor="#666666"
     borderopacity="1.0"
     inkscape:pageopacity="1"
     inkscape:pageshadow="2"
     inkscape:zoom="1.1408668"
     inkscape:cx="72.27160285"
     inkscape:cy="254.4701"
     inkscape:document-units="px"
     inkscape:current-layer="svg2902"
     showgrid="false"
     inkscape:window-width="1018"
     inkscape:window-height="709"
     inkscape:window-x="0"
     inkscape:window-y="1"
     inkscape:window-maximized="0"
     showguides="true"
     inkscape:guide-bbox="true"
     inkscape:snap-bbox="true"
     inkscape:snap-global="false" />
  <defs
     id="defs2904" />
  <metadata
     id="metadata2907">
    <rdf:RDF>
      <cc:Work
         rdf:about="">
        <dc:format>image/svg+xml</dc:format>
        <dc:type
           rdf:resource="http://purl.org/dc/dcmitype/StillImage" />
        <dc:title />
      </cc:Work>
    </rdf:RDF>
  </metadata>
  <g
     inkscape:groupmode="layer"
     id="bg"
     inkscape:label="XX_BG"
     sodipodi:insensitive="true">
    <path
       style="fill:#e3f4d7"
       d="M 400,0 400,400 0,400 0,0 z"
       id="bgrect"
       inkscape:connector-curvature="0" />
  </g>
  <g
     inkscape:label="XX_REFERENZ"
     inkscape:groupmode="layer"
     id="XX_referenz"
     style="display:inline"
     sodipodi:insensitive="true">
    <path
       id="innerframe"
       style="fill:none;stroke:#ff0000;stroke-width:1"
       d="m 40.5,40.5 319,0 0,319 -319,0 0,-319 z"
       inkscape:label="#innerframe"
       sodipodi:insensitive="true"
       inkscape:connector-curvature="0" />
    <path
       id="outerframe"
       style="fill:none;stroke:#ff0000;stroke-width:1"
       d="m 30.5,30.5 339,0 0,339 -339,0 0,-339 z"
       inkscape:label="#outerframe"
       sodipodi:nodetypes="ccccc"
       sodipodi:insensitive="true"
       inkscape:connector-curvature="0" />
    <path
       style="opacity:0.5;fill:none;stroke:#ffc200;stroke-width:1px;stroke-linecap:square"
       d="m 189,30.5 0,10"
       id="ref-S-top-1"
       sodipodi:insensitive="true"
       inkscape:connector-curvature="0" />
    <path
       style="opacity:0.5;fill:none;stroke:#ffc200;stroke-width:1px;stroke-linecap:square"
       d="m 191,30.5 0,10"
       id="ref-S-top-2"
       sodipodi:insensitive="true"
       inkscape:connector-curvature="0" />
    <path
       style="opacity:0.5;fill:none;stroke:#ffc200;stroke-width:1px;stroke-linecap:square"
       d="m 209,30.5 0,10"
       id="ref-S-top-3"
       sodipodi:insensitive="true"
       inkscape:connector-curvature="0" />
    <path
       style="opacity:0.5;fill:none;stroke:#ffc200;stroke-width:1px;stroke-linecap:square"
       d="m 211,30.5 0,10"
       id="ref-S-top-4"
       sodipodi:insensitive="true"
       inkscape:connector-curvature="0" />
    <path
       style="opacity:0.5;fill:none;stroke:#00ff00;stroke-width:1px;stroke-linecap:square"
       d="m 199,30.5 0,10"
       id="ref-I-top-1"
       sodipodi:insensitive="true"
       inkscape:connector-curvature="0" />
    <path
       style="opacity:0.5;fill:none;stroke:#00ff00;stroke-width:1px;stroke-linecap:square"
       d="m 201,30.5 0,10"
       id="ref-I-top-2"
       sodipodi:insensitive="true"
       inkscape:connector-curvature="0" />
    <path
       style="opacity:0.5;fill:none;stroke:#00ffcc;stroke-width:1px;stroke-linecap:square"
       d="m 66,30.5 0,10"
       id="ref-C-top-1"
       sodipodi:insensitive="true"
       inkscape:connector-curvature="0" />
    <path
       style="opacity:0.5;fill:none;stroke:#00ffcc;stroke-width:1px;stroke-linecap:square"
       d="m 68,30.5 0,10"
       id="ref-C-top-2"
       sodipodi:insensitive="true"
       inkscape:connector-curvature="0" />
    <path
       style="opacity:0.5;fill:none;stroke:#00ffcc;stroke-width:1px;stroke-linecap:square"
       d="m 92,30.5 0,10"
       id="ref-C-top-3"
       sodipodi:insensitive="true"
       inkscape:connector-curvature="0" />
    <path
       style="opacity:0.5;fill:none;stroke:#00ffcc;stroke-width:1px;stroke-linecap:square"
       d="m 94,30.5 0,10"
       id="ref-C-top-4"
       sodipodi:insensitive="true"
       inkscape:connector-curvature="0" />
    <path
       style="opacity:0.5;fill:none;stroke:#00ffcc;stroke-width:1px;stroke-linecap:square"
       d="m 306,30.5 0,10"
       id="ref-C-top-5"
       sodipodi:insensitive="true"
       inkscape:connector-curvature="0" />
    <path
       style="opacity:0.5;fill:none;stroke:#00ffcc;stroke-width:1px;stroke-linecap:square"
       d="m 308,30.5 0,10"
       id="ref-C-top-6"
       sodipodi:insensitive="true"
       inkscape:connector-curvature="0" />
    <path
       style="opacity:0.5;fill:none;stroke:#00ffcc;stroke-width:1px;stroke-linecap:square"
       d="m 332,30.5 0,10"
       id="ref-C-top-7"
       sodipodi:insensitive="true"
       inkscape:connector-curvature="0" />
    <path
       style="opacity:0.5;fill:none;stroke:#00ffcc;stroke-width:1px;stroke-linecap:square"
       d="m 334,30.5 0,10"
       id="ref-C-top-8"
       sodipodi:insensitive="true"
       inkscape:connector-curvature="0" />
    <path
       style="opacity:0.5;fill:none;stroke:#ffc200;stroke-width:1px;stroke-linecap:square"
       d="m 369.5,189 -10,0"
       id="ref-S-right-1"
       sodipodi:insensitive="true"
       inkscape:connector-curvature="0" />
    <path
       style="opacity:0.5;fill:none;stroke:#ffc200;stroke-width:1px;stroke-linecap:square"
       d="m 369.5,191 -10,0"
       id="ref-S-right-2"
       sodipodi:insensitive="true"
       inkscape:connector-curvature="0" />
    <path
       style="opacity:0.5;fill:none;stroke:#ffc200;stroke-width:1px;stroke-linecap:square"
       d="m 369.5,209 -10,0"
       id="ref-S-right-3"
       sodipodi:insensitive="true"
       inkscape:connector-curvature="0" />
    <path
       style="opacity:0.5;fill:none;stroke:#ffc200;stroke-width:1px;stroke-linecap:square"
       d="m 369.5,211 -10,0"
       id="ref-S-right-4"
       sodipodi:insensitive="true"
       inkscape:connector-curvature="0" />
    <path
       style="opacity:0.5;fill:none;stroke:#00ff00;stroke-width:1px;stroke-linecap:square"
       d="m 369.5,199 -10,0"
       id="ref-I-right-1"
       sodipodi:insensitive="true"
       inkscape:connector-curvature="0" />
    <path
       style="opacity:0.5;fill:none;stroke:#00ff00;stroke-width:1px;stroke-linecap:square"
       d="m 369.5,201 -10,0"
       id="ref-I-right-2"
       sodipodi:insensitive="true"
       inkscape:connector-curvature="0" />
    <path
       style="opacity:0.5;fill:none;stroke:#00ffcc;stroke-width:1px;stroke-linecap:square"
       d="m 369.5,66 -10,0"
       id="ref-C-right-1"
       sodipodi:insensitive="true"
       inkscape:connector-curvature="0" />
    <path
       style="opacity:0.5;fill:none;stroke:#00ffcc;stroke-width:1px;stroke-linecap:square"
       d="m 369.5,68 -10,0"
       id="ref-C-right-2"
       sodipodi:insensitive="true"
       inkscape:connector-curvature="0" />
    <path
       style="opacity:0.5;fill:none;stroke:#00ffcc;stroke-width:1px;stroke-linecap:square"
       d="m 369.5,92 -10,0"
       id="ref-C-right-3"
       sodipodi:insensitive="true"
       inkscape:connector-curvature="0" />
    <path
       style="opacity:0.5;fill:none;stroke:#00ffcc;stroke-width:1px;stroke-linecap:square"
       d="m 369.5,94 -10,0"
       id="ref-C-right-4"
       sodipodi:insensitive="true"
       inkscape:connector-curvature="0" />
    <path
       style="opacity:0.5;fill:none;stroke:#00ffcc;stroke-width:1px;stroke-linecap:square"
       d="m 369.5,306 -10,0"
       id="ref-C-right-5"
       sodipodi:insensitive="true"
       inkscape:connector-curvature="0" />
    <path
       style="opacity:0.5;fill:none;stroke:#00ffcc;stroke-width:1px;stroke-linecap:square"
       d="m 369.5,308 -10,0"
       id="ref-C-right-6"
       sodipodi:insensitive="true"
       inkscape:connector-curvature="0" />
    <path
       style="opacity:0.5;fill:none;stroke:#00ffcc;stroke-width:1px;stroke-linecap:square"
       d="m 369.5,332 -10,0"
       id="ref-C-right-7"
       sodipodi:insensitive="true"
       inkscape:connector-curvature="0" />
    <path
       style="opacity:0.5;fill:none;stroke:#00ffcc;stroke-width:1px;stroke-linecap:square"
       d="m 369.5,334 -10,0"
       id="ref-C-right-8"
       sodipodi:insensitive="true"
       inkscape:connector-curvature="0" />
    <path
       style="opacity:0.5;fill:none;stroke:#ffc200;stroke-width:1px;stroke-linecap:square"
       d="m 189,369.5 0,-10"
       id="ref-S-bottom-1"
       sodipodi:insensitive="true"
       inkscape:connector-curvature="0" />
    <path
       style="opacity:0.5;fill:none;stroke:#ffc200;stroke-width:1px;stroke-linecap:square"
       d="m 191,369.5 0,-10"
       id="ref-S-bottom-2"
       sodipodi:insensitive="true"
       inkscape:connector-curvature="0" />
    <path
       style="opacity:0.5;fill:none;stroke:#ffc200;stroke-width:1px;stroke-linecap:square"
       d="m 209,369.5 0,-10"
       id="ref-S-bottom-3"
       sodipodi:insensitive="true"
       inkscape:connector-curvature="0" />
    <path
       style="opacity:0.5;fill:none;stroke:#ffc200;stroke-width:1px;stroke-linecap:square"
       d="m 211,369.5 0,-10"
       id="ref-S-bottom-4"
       sodipodi:insensitive="true"
       inkscape:connector-curvature="0" />
    <path
       style="opacity:0.5;fill:none;stroke:#00ff00;stroke-width:1px;stroke-linecap:square"
       d="m 199,369.5 0,-10"
       id="ref-I-bottom-1"
       sodipodi:insensitive="true"
       inkscape:connector-curvature="0" />
    <path
       style="opacity:0.5;fill:none;stroke:#00ff00;stroke-width:1px;stroke-linecap:square"
       d="m 201,369.5 0,-10"
       id="ref-I-bottom-2"
       sodipodi:insensitive="true"
       inkscape:connector-curvature="0" />
    <path
       style="opacity:0.5;fill:none;stroke:#00ffcc;stroke-width:1px;stroke-linecap:square"
       d="m 66,369.5 0,-10"
       id="ref-C-bottom-1"
       sodipodi:insensitive="true"
       inkscape:connector-curvature="0" />
    <path
       style="opacity:0.5;fill:none;stroke:#00ffcc;stroke-width:1px;stroke-linecap:square"
       d="m 68,369.5 0,-10"
       id="ref-C-bottom-2"
       sodipodi:insensitive="true"
       inkscape:connector-curvature="0" />
    <path
       style="opacity:0.5;fill:none;stroke:#00ffcc;stroke-width:1px;stroke-linecap:square"
       d="m 92,369.5 0,-10"
       id="ref-C-bottom-3"
       sodipodi:insensitive="true"
       inkscape:connector-curvature="0" />
    <path
       style="opacity:0.5;fill:none;stroke:#00ffcc;stroke-width:1px;stroke-linecap:square"
       d="m 94,369.5 0,-10"
       id="ref-C-bottom-4"
       sodipodi:insensitive="true"
       inkscape:connector-curvature="0" />
    <path
       style="opacity:0.5;fill:none;stroke:#00ffcc;stroke-width:1px;stroke-linecap:square"
       d="m 306,369.5 0,-10"
       id="ref-C-bottom-5"
       sodipodi:insensitive="true"
       inkscape:connector-curvature="0" />
    <path
       style="opacity:0.5;fill:none;stroke:#00ffcc;stroke-width:1px;stroke-linecap:square"
       d="m 308,369.5 0,-10"
       id="ref-C-bottom-6"
       sodipodi:insensitive="true"
       inkscape:connector-curvature="0" />
    <path
       style="opacity:0.5;fill:none;stroke:#00ffcc;stroke-width:1px;stroke-linecap:square"
       d="m 332,369.5 0,-10"
       id="ref-C-bottom-7"
       sodipodi:insensitive="true"
       inkscape:connector-curvature="0" />
    <path
       style="opacity:0.5;fill:none;stroke:#00ffcc;stroke-width:1px;stroke-linecap:square"
       d="m 334,369.5 0,-10"
       id="ref-C-bottom-8"
       sodipodi:insensitive="true"
       inkscape:connector-curvature="0" />
    <path
       style="opacity:0.5;fill:none;stroke:#ffc200;stroke-width:1px;stroke-linecap:square"
       d="m 30.5,189 10,0"
       id="ref-S-left-1"
       sodipodi:insensitive="true"
       inkscape:connector-curvature="0" />
    <path
       style="opacity:0.5;fill:none;stroke:#ffc200;stroke-width:1px;stroke-linecap:square"
       d="m 30.5,191 10,0"
       id="ref-S-left-2"
       sodipodi:insensitive="true"
       inkscape:connector-curvature="0" />
    <path
       style="opacity:0.5;fill:none;stroke:#ffc200;stroke-width:1px;stroke-linecap:square"
       d="m 30.5,209 10,0"
       id="ref-S-left-3"
       sodipodi:insensitive="true"
       inkscape:connector-curvature="0" />
    <path
       style="opacity:0.5;fill:none;stroke:#ffc200;stroke-width:1px;stroke-linecap:square"
       d="m 30.5,211 10,0"
       id="ref-S-left-4"
       sodipodi:insensitive="true"
       inkscape:connector-curvature="0" />
    <path
       style="opacity:0.5;fill:none;stroke:#00ff00;stroke-width:1px;stroke-linecap:square"
       d="m 40.5,199 -10,0"
       id="ref-I-left-1"
       sodipodi:insensitive="true"
       inkscape:connector-curvature="0" />
    <path
       style="opacity:0.5;fill:none;stroke:#00ff00;stroke-width:1px;stroke-linecap:square"
       d="m 40.5,201 -10,0"
       id="ref-I-left-2"
       sodipodi:insensitive="true"
       inkscape:connector-curvature="0" />
    <path
       style="opacity:0.5;fill:none;stroke:#00ffcc;stroke-width:1px;stroke-linecap:square"
       d="m 30.5,66 10,0"
       id="ref-C-left-1"
       sodipodi:insensitive="true"
       inkscape:connector-curvature="0" />
    <path
       style="opacity:0.5;fill:none;stroke:#00ffcc;stroke-width:1px;stroke-linecap:square"
       d="m 30.5,68 10,0"
       id="ref-C-left-2"
       sodipodi:insensitive="true"
       inkscape:connector-curvature="0" />
    <path
       style="opacity:0.5;fill:none;stroke:#00ffcc;stroke-width:1px;stroke-linecap:square"
       d="m 30.5,92 10,0"
       id="ref-C-left-3"
       sodipodi:insensitive="true"
       inkscape:connector-curvature="0" />
    <path
       style="opacity:0.5;fill:none;stroke:#00ffcc;stroke-width:1px;stroke-linecap:square"
       d="m 30.5,94 10,0"
       id="ref-C-left-4"
       sodipodi:insensitive="true"
       inkscape:connector-curvature="0" />
    <path
       style="opacity:0.5;fill:none;stroke:#00ffcc;stroke-width:1px;stroke-linecap:square"
       d="m 30.5,306 10,0"
       id="ref-C-left-5"
       sodipodi:insensitive="true"
       inkscape:connector-curvature="0" />
    <path
       style="opacity:0.5;fill:none;stroke:#00ffcc;stroke-width:1px;stroke-linecap:square"
       d="m 30.5,308 10,0"
       id="ref-C-left-6"
       sodipodi:insensitive="true"
       inkscape:connector-curvature="0" />
    <path
       style="opacity:0.5;fill:none;stroke:#00ffcc;stroke-width:1px;stroke-linecap:square"
       d="m 30.5,332 10,0"
       id="ref-C-left-7"
       sodipodi:insensitive="true"
       inkscape:connector-curvature="0" />
    <path
       style="opacity:0.5;fill:none;stroke:#00ffcc;stroke-width:1px;stroke-linecap:square"
       d="m 30.5,334 10,0"
       id="ref-C-left-8"
       sodipodi:insensitive="true"
       inkscape:connector-curvature="0" />
    <path
       style="fill:none;stroke:#000000;stroke-width:1px;stroke-linecap:square"
       d="m 190,30.5 0,10"
       id="S-top-1"
       inkscape:connector-curvature="0" />
    <path
       style="fill:none;stroke:#000000;stroke-width:1px;stroke-linecap:square"
       d="m 210,30.5 0,10"
       id="S-top-2"
       inkscape:connector-curvature="0" />
    <path
       style="fill:none;stroke:#000000;stroke-width:1px;stroke-linecap:square"
       d="m 369.5,190 -10,0"
       id="S-right-1"
       inkscape:connector-curvature="0" />
    <path
       style="fill:none;stroke:#000000;stroke-width:1px;stroke-linecap:square"
       d="m 369.5,210 -10,0"
       id="S-right-2"
       inkscape:connector-curvature="0" />
    <path
       style="fill:none;stroke:#000000;stroke-width:1px;stroke-linecap:square"
       d="m 190,369.5 0,-10"
       id="S-bottom-1"
       inkscape:connector-curvature="0" />
    <path
       style="fill:none;stroke:#000000;stroke-width:1px;stroke-linecap:square"
       d="m 210,369.5 0,-10"
       id="S-bottom-2"
       inkscape:connector-curvature="0" />
    <path
       style="fill:none;stroke:#000000;stroke-width:1px;stroke-linecap:square"
       d="m 30.5,190 10,0"
       id="S-left-1"
       inkscape:connector-curvature="0" />
    <path
       style="fill:none;stroke:#000000;stroke-width:1px;stroke-linecap:square"
       d="m 30.5,210 10,0"
       id="S-left-2"
       inkscape:connector-curvature="0" />
    <path
       style="fill:none;stroke:#000000;stroke-width:1px;stroke-linecap:square"
       d="m 200,30.5 0,10"
       id="I-top-1"
       inkscape:connector-curvature="0" />
    <path
       style="fill:none;stroke:#000000;stroke-width:1px;stroke-linecap:square"
       d="m 369.5,200 -10,0"
       id="I-right-1"
       inkscape:connector-curvature="0" />
    <path
       style="fill:none;stroke:#000000;stroke-width:1px;stroke-linecap:square"
       d="m 200,369.5 0,-10"
       id="I-bottom-1"
       inkscape:connector-curvature="0" />
    <path
       style="fill:none;stroke:#000000;stroke-width:1px;stroke-linecap:square"
       d="m 40.5,200 -10,0"
       id="I-left-1"
       inkscape:connector-curvature="0" />
    <path
       style="fill:none;stroke:#000000;stroke-width:1px;stroke-linecap:square"
       d="m 67,30.5 0,10"
       id="C-top-1"
       inkscape:connector-curvature="0" />
    <path
       style="fill:none;stroke:#000000;stroke-width:1px;stroke-linecap:square"
       d="m 93,30.5 0,10"
       id="C-top-2"
       inkscape:connector-curvature="0" />
    <path
       style="fill:none;stroke:#000000;stroke-width:1px;stroke-linecap:square"
       d="m 307,30.5 0,10"
       id="C-top-3"
       inkscape:connector-curvature="0" />
    <path
       style="fill:none;stroke:#000000;stroke-width:1px;stroke-linecap:square"
       d="m 333,30.5 0,10"
       id="C-top-4"
       inkscape:connector-curvature="0" />
    <path
       style="fill:none;stroke:#000000;stroke-width:1px;stroke-linecap:square"
       d="m 369.5,67 -10,0"
       id="C-right-1"
       inkscape:connector-curvature="0" />
    <path
       style="fill:none;stroke:#000000;stroke-width:1px;stroke-linecap:square"
       d="m 369.5,93 -10,0"
       id="C-right-2"
       inkscape:connector-curvature="0" />
    <path
       style="fill:none;stroke:#000000;stroke-width:1px;stroke-linecap:square"
       d="m 369.5,307 -10,0"
       id="C-right-3"
       inkscape:connector-curvature="0" />
    <path
       style="fill:none;stroke:#000000;stroke-width:1px;stroke-linecap:square"
       d="m 369.5,333 -10,0"
       id="C-right-4"
       inkscape:connector-curvature="0" />
    <path
       style="fill:none;stroke:#000000;stroke-width:1px;stroke-linecap:square"
       d="m 67,369.5 0,-10"
       id="C-bottom-1"
       inkscape:connector-curvature="0" />
    <path
       style="fill:none;stroke:#000000;stroke-width:1px;stroke-linecap:square"
       d="m 93,369.5 0,-10"
       id="C-bottom-2"
       inkscape:connector-curvature="0" />
    <path
       style="fill:none;stroke:#000000;stroke-width:1px;stroke-linecap:square"
       d="m 307,369.5 0,-10"
       id="C-bottom-3"
       inkscape:connector-curvature="0" />
    <path
       style="fill:none;stroke:#000000;stroke-width:1px;stroke-linecap:square"
       d="m 333,369.5 0,-10"
       id="C-bottom-4"
       inkscape:connector-curvature="0" />
    <path
       style="fill:none;stroke:#000000;stroke-width:1px;stroke-linecap:square"
       d="m 30.5,67 10,0"
       id="C-left-1"
       inkscape:connector-curvature="0" />
    <path
       style="fill:none;stroke:#000000;stroke-width:1px;stroke-linecap:square"
       d="m 30.5,93 10,0"
       id="C-left-2"
       inkscape:connector-curvature="0" />
    <path
       style="fill:none;stroke:#000000;stroke-width:1px;stroke-linecap:square"
       d="m 30.5,307 10,0"
       id="C-left-3"
       inkscape:connector-curvature="0" />
    <path
       style="fill:none;stroke:#000000;stroke-width:1px;stroke-linecap:square"
       d="m 30.5,333 10,0"
       id="C-left-4"
       inkscape:connector-curvature="0" />
  </g>
  <g
     inkscape:groupmode="layer"
     id="layer2"
     inkscape:label="FILL-001"
     zpos="-10000"
     style="display:none"
     sodipodi:insensitive="true">
    <path
       style="fill:#000000;display:inline"
       d="m 10,30 0,159 20.5,1 0,20 -20.5,1 0,179 380,0 0,-360 z"
       id="bgrect-3"
       inkscape:connector-curvature="0"
       sodipodi:nodetypes="ccccccccc" />
  </g>
  <g
     inkscape:label="INNEN-001"
     id="g3107"
     inkscape:groupmode="layer"
     style="display:none"
     sodipodi:insensitive="true">
    <path
       style="fill:#ffffff;display:inline"
       d="m -5,-5 0,195 41.6875,0 C 53.478451,190 67,176.47845 67,159.6875 L 67,40.5 67,-5 -5,-5 z"
       id="path3129"
       zpos="-9999"
       inkscape:connector-curvature="0" />
    <path
       style="fill:none;stroke:#000000;stroke-width:1px;stroke-linecap:square;display:inline"
       d="m 67,30.5 0,10 0,119.19144 c 0,16.79095 -13.517624,30.3086 -30.308575,30.30857 L 30.5,190"
       id="C-top-1-6"
       inkscape:connector-curvature="0"
       sodipodi:nodetypes="ccssc" />
  </g>
  <g
     style="display:none"
     inkscape:groupmode="layer"
     id="g3298"
     inkscape:label="INNEN-002"
     sodipodi:insensitive="true">
    <path
       style="fill:#ffffff;stroke:none;display:inline"
       d="m -5,-5 0,195 55.6875,0 C 92.710958,190 65.058627,154.52072 72,136.6875 77.119523,123.53483 86.841665,111.20677 87,97.09375 87.224463,77.086468 67,68.236311 67,40.5 L 67,-5 -5,-5 z"
       id="path3520"
       zpos="-9999"
       inkscape:connector-curvature="0" />
    <path
       sodipodi:nodetypes="ccaasc"
       inkscape:connector-curvature="0"
       id="path3302"
       d="m 67,30.5 0,10 c 0,27.736311 20.224463,36.588438 20,56.59572 -0.158335,14.11302 -9.880477,26.44305 -15,39.59572 -6.941373,17.83322 20.714883,53.30859 -21.308575,53.30857 L 30.5,190"
       style="fill:none;stroke:#000000;stroke-width:1px;stroke-linecap:square;display:inline" />
  </g>
  <g
     inkscape:label="INNEN-003"
     id="g3310"
     inkscape:groupmode="layer"
     style="display:none"
     sodipodi:insensitive="true">
    <path
       style="fill:#ffffff;stroke:none;display:inline"
       d="m -5,-5 0,195 57.6875,0 C 74.410627,190 88.452981,181.50199 92,166.6875 97.93831,141.88554 54.954971,127.28817 51,102.09375 47.710266,81.137097 67,74.41074 67,40.5 L 67,-5 -5,-5 z"
       id="path3510"
       zpos="-9999"
       inkscape:connector-curvature="0" />
    <path
       style="fill:none;stroke:#000000;stroke-width:1px;stroke-linecap:square;display:inline"
       d="m 67,30.5 0,10 c 0,33.91074 -19.289734,40.639067 -16,61.59572 3.954971,25.19442 46.93831,39.79376 41,64.59572 -3.547019,14.81449 -17.585448,23.30858 -39.308575,23.30857 L 30.5,190"
       id="path3312"
       inkscape:connector-curvature="0"
       sodipodi:nodetypes="csaasc" />
  </g>
  <g
     style="display:none"
     inkscape:groupmode="layer"
     id="g3314"
     inkscape:label="INNEN-004"
     sodipodi:insensitive="true">
    <path
       style="fill:#ffffff;stroke:none;display:inline"
       d="m -5,-5 0,195 57.6875,0 C 74.410627,190 104.97708,191.14861 111,171.6875 118.97244,145.92712 68.681854,133.94228 61,108.09375 54.556023,86.410531 67,74.41074 67,40.5 L 67,-5 -5,-5 z"
       id="path3500"
       zpos="-9999"
       inkscape:connector-curvature="0" />
    <path
       sodipodi:nodetypes="csaasc"
       inkscape:connector-curvature="0"
       id="path3316"
       d="m 67,30.5 0,10 c 0,33.91074 -12.443977,45.912501 -6,67.59572 7.681854,25.84853 57.97244,37.83534 50,63.59572 -6.02292,19.46111 -36.585448,18.30858 -58.308575,18.30857 L 30.5,190"
       style="fill:none;stroke:#000000;stroke-width:1px;stroke-linecap:square;display:inline" />
  </g>
  <g
     inkscape:label="INNEN-005"
     id="g3318"
     inkscape:groupmode="layer"
     style="display:none"
     sodipodi:insensitive="true">
    <path
       style="fill:#ffffff;stroke:none;display:inline"
       d="m -5,-5 0,195 57.6875,0 C 100.22169,190 141.33377,181.4672 150,147.09375 161.00918,103.4273 67,89.226597 67,40.5 L 67,-5 -5,-5 z"
       id="path3490"
       inkscape:connector-curvature="0"
       zpos="-9999" />
    <path
       style="fill:none;stroke:#000000;stroke-width:1px;stroke-linecap:square;display:inline"
       d="m 67,30.5 0,10 c 0,48.726597 94.00918,62.92927 83,106.59572 -8.66623,34.37345 -49.77439,42.90429 -97.308575,42.90429 L 30.5,190"
       id="path3320"
       inkscape:connector-curvature="0"
       sodipodi:nodetypes="csacc" />
  </g>
  <g
     inkscape:label="INNEN-006"
     id="g3322"
     inkscape:groupmode="layer"
     style="display:none"
     sodipodi:insensitive="true">
    <path
       style="fill:#ffffff;stroke:none;display:inline"
       d="m -5,-5 0,195 57.6875,0 C 80.109033,190 64.019423,138.39463 81,119.6875 94.887977,104.38742 134.41823,111.69633 136,91.09375 138.18328,62.656633 67,74.41074 67,40.5 L 67,-5 -5,-5 z"
       id="path3480"
       zpos="-9999"
       inkscape:connector-curvature="0" />
    <path
       style="fill:none;stroke:#000000;stroke-width:1px;stroke-linecap:square;display:inline"
       d="m 67,30.5 0,10 c 0,33.91074 71.18328,22.158603 69,50.59572 -1.58177,20.60258 -41.112023,13.29564 -55,28.59572 -16.980577,18.70713 -0.887042,70.30858 -28.308575,70.30857 L 30.5,190"
       id="path3324"
       inkscape:connector-curvature="0"
       sodipodi:nodetypes="csaasc" />
  </g>
  <g
     style="display:none"
     inkscape:groupmode="layer"
     id="g3326"
     inkscape:label="INNEN-007"
     zpos="-10000"
     sodipodi:insensitive="true">
    <path
       style="fill:#ffffff;stroke:none;display:inline"
       d="m -5,-5 0,195 57.6875,0 C 80.109033,190 148.64319,178.5697 141,146.6875 133.53914,115.56589 65.417417,172.73818 45,148.09375 21.64543,119.90408 67,87.75094 67,40.5 L 67,-5 -5,-5 z"
       id="path3470"
       inkscape:connector-curvature="0" />
    <path
       sodipodi:nodetypes="csaasc"
       inkscape:connector-curvature="0"
       id="path3328"
       d="m 67,30.5 0,10 c 0,47.25094 -45.35457,79.40605 -22,107.59572 20.417417,24.64443 88.53914,-32.52589 96,-1.40428 7.64319,31.8822 -60.887042,43.30858 -88.308575,43.30857 L 30.5,190"
       style="fill:none;stroke:#000000;stroke-width:1px;stroke-linecap:square;display:inline" />
  </g>
  <g
     inkscape:label="INNEN-008"
     id="g3330"
     inkscape:groupmode="layer"
     style="display:inline"
     sodipodi:insensitive="true">
    <path
       style="fill:#ffffff;stroke:none;display:inline"
       d="m -5,-5 0,195 57.6875,0 C 117.19621,190.00001 37.942892,108.46315 61,79.6875 83.655358,51.413243 168.93402,84.110722 165,48.09375 161.44238,15.522828 67,87.75094 67,40.5 L 67,-5 -5,-5 z"
       id="path3460"
       zpos="-9999"
       inkscape:connector-curvature="0" />
    <path
       style="fill:none;stroke:#000000;stroke-width:1px;stroke-linecap:square;display:inline"
       d="m 67,30.5 0,10 c 0,47.25094 94.44238,-24.975202 98,7.59572 3.93402,36.016972 -81.344642,3.321463 -104,31.59572 -23.057108,28.77565 56.20013,110.3086 -8.308575,110.30857 L 30.5,190"
       id="path3332"
       inkscape:connector-curvature="0"
       sodipodi:nodetypes="csaasc" />
  </g>
  <g
     inkscape:groupmode="layer"
     id="layer3"
     inkscape:label="AUSSEN-001"
     style="display:none"
     sodipodi:insensitive="true">
    <path
       style="fill:#ffffff;display:inline"
       d="m 333,-5 0,45.5 0,45 C 333,154.473 277.473,210 208.5,210 l -168,0 -45.5,0 0,195 410,0 0,-410 -72,0 z"
       id="path3129-3-2"
       zpos="-9999"
       inkscape:connector-curvature="0" />
    <path
       style="fill:none;stroke:#000000;stroke-width:1px;stroke-linecap:square;display:inline"
       d="m 333,30.5 0,10 0,45.000011 C 333,154.47301 277.473,210.00001 208.5,210.00001 l -168,-1e-5 -10,0"
       id="C-top-4-0"
       inkscape:connector-curvature="0"
       sodipodi:nodetypes="cccccc" />
  </g>
  <g
     style="display:none"
     inkscape:label="AUSSEN-002"
     id="g3304"
     inkscape:groupmode="layer"
     sodipodi:insensitive="true">
    <path
       style="fill:#ffffff;stroke:none;display:inline"
       d="m 333,-5 0,45.5 0,15 c 0,36.498455 -26.33613,40.28202 -31.625,63.25 -8.36881,36.3433 30.98398,89.36362 1.25,111.875 C 263.93121,259.91981 211.43788,191.3256 162.9375,189.5625 130.75431,188.39257 111.98457,210.00002 68.5,210 l -28,0 -45.5,0 0,195 410,0 0,-410 -72,0 z"
       id="path3450"
       zpos="-9999"
       inkscape:connector-curvature="0" />
    <path
       sodipodi:nodetypes="ccsaaascc"
       inkscape:connector-curvature="0"
       id="path3308"
       d="m 333,30.5 0,10 0,15.000011 c 0,36.498455 -26.33993,40.270629 -31.6288,63.238609 -8.36881,36.3433 30.97765,89.36489 1.24367,111.87627 C 263.92108,259.9097 211.42649,191.32182 162.92611,189.55872 130.74292,188.38879 111.98457,210.00003 68.5,210.00001 l -28,-1e-5 -10,0"
       style="fill:none;stroke:#000000;stroke-width:1px;stroke-linecap:square;display:inline" />
  </g>
  <g
     inkscape:groupmode="layer"
     id="g3334"
     inkscape:label="AUSSEN-003"
     style="display:inline"
     sodipodi:insensitive="true">
    <path
       style="fill:#ffffff;display:inline"
       d="m 333,-5 0,45.5 0,15 c 0,36.498455 -8.63045,55.36112 -27.625,73.25 -26.10695,24.58727 -77.67919,6.23205 -102.75,31.875 -33.67286,34.44131 6.77531,126.2382 -39.6875,138.9375 C 121.09159,310.9999 111.98457,210.00002 68.5,210 l -28,0 -45.5,0 0,195 410,0 0,-410 -72,0 z"
       id="path3129-3-1"
       zpos="-9999"
       inkscape:connector-curvature="0" />
    <path
       style="fill:none;stroke:#000000;stroke-width:1px;stroke-linecap:square;display:inline"
       d="m 333,30.5 0,10 0,15.000011 c 0,36.498455 -8.63425,55.349729 -27.6288,73.238609 -26.10695,24.58727 -77.68552,6.23332 -102.75633,31.87627 -33.67286,34.44131 6.77405,126.24453 -39.68876,138.94383 C 121.0802,310.99612 111.98457,210.00003 68.5,210.00001 l -28,-1e-5 -10,0"
       id="path3336"
       inkscape:connector-curvature="0"
       sodipodi:nodetypes="ccsaaascc" />
  </g>
  <g
     style="display:none"
     inkscape:label="AUSSEN-004"
     id="g3338"
     inkscape:groupmode="layer"
     sodipodi:insensitive="true">
    <path
       style="fill:#ffffff;display:inline"
       d="m 333,-5 0,45.5 0,15 c 0,36.498455 7.24989,81.93055 -20.625,103.25 -31.78082,24.30681 -92.51663,-37.43686 -119.75,-8.125 -35.96623,38.71122 67.97321,130.34374 22.3125,156.9375 C 168.93997,334.35243 155.25495,210.00001 88.5,210 l -48,0 -45.5,0 0,195 410,0 0,-410 -72,0 z"
       id="path3129-3-26"
       zpos="-9999"
       inkscape:connector-curvature="0" />
    <path
       sodipodi:nodetypes="ccsaaascc"
       inkscape:connector-curvature="0"
       id="path3340"
       d="m 333,30.5 0,10 0,15.000011 c 0,36.498455 7.24609,81.919159 -20.6288,103.238609 -31.78082,24.30681 -92.52296,-37.43559 -119.75633,-8.12373 -35.96623,38.71122 67.97195,130.35007 22.31124,156.94383 C 168.92858,334.34865 155.25495,210.00002 88.5,210.00001 l -48,-1e-5 -10,0"
       style="fill:none;stroke:#000000;stroke-width:1px;stroke-linecap:square;display:inline" />
  </g>
  <g
     inkscape:groupmode="layer"
     id="g3342"
     inkscape:label="AUSSEN-005"
     style="display:none"
     sodipodi:insensitive="true">
    <path
       style="fill:#ffffff;display:inline"
       d="m 333,-5 0,45.5 0,15 c 0,36.498455 -19.34774,68.18011 -20.625,103.25 -1.9792,54.34302 68.86104,137.5019 20.25,161.875 C 272.4065,350.81796 252.01965,197.94629 186.9375,180.5625 147.6383,170.06547 122.89256,210.00002 68.5,210 l -28,0 -45.5,0 0,195 410,0 0,-410 -72,0 z"
       id="path3129-3-6"
       zpos="-9999"
       inkscape:connector-curvature="0" />
    <path
       style="fill:none;stroke:#000000;stroke-width:1px;stroke-linecap:square;display:inline"
       d="m 333,30.5 0,10 0,15.000011 c 0,36.498455 -19.35154,68.168719 -20.6288,103.238609 -1.9792,54.34302 68.85471,137.50317 20.24367,161.87627 C 272.39637,350.80785 252.00826,197.94251 186.92611,180.55872 147.62691,170.06169 122.89256,210.00003 68.5,210.00001 l -28,-1e-5 -10,0"
       id="path3344"
       inkscape:connector-curvature="0"
       sodipodi:nodetypes="ccsaaascc" />
  </g>
  <g
     style="display:none"
     inkscape:label="AUSSEN-006"
     id="g3346"
     inkscape:groupmode="layer"
     sodipodi:insensitive="true">
    <path
       style="fill:#ffffff;display:inline"
       d="m 333,-5 0,45.5 0,28 c 0,50.59645 79.16794,123.28175 36.375,154.25 C 316.57068,260.96324 250.52471,76.41906 202.625,120.625 151.00504,168.2643 346.00315,257.33929 297.9375,308.5625 240.98309,369.25839 155.61653,210.00003 68.5,210 l -28,0 -45.5,0 0,195 410,0 0,-410 -72,0 z"
       id="path3129-3-0"
       zpos="-9999"
       inkscape:connector-curvature="0" />
    <path
       sodipodi:nodetypes="ccsaaascc"
       inkscape:connector-curvature="0"
       id="path3348"
       d="m 333,30.5 0,10 0,28.000011 C 333,119.09646 412.16414,191.77037 369.3712,222.73862 316.56688,260.95186 250.51458,76.40895 202.61487,120.61489 150.99491,168.25419 345.99176,257.33551 297.92611,308.55872 240.9717,369.25461 155.61653,210.00004 68.5,210.00001 l -28,-1e-5 -10,0"
       style="fill:none;stroke:#000000;stroke-width:1px;stroke-linecap:square;display:inline" />
  </g>
  <g
     inkscape:groupmode="layer"
     id="g3350"
     inkscape:label="AUSSEN-007"
     style="display:none"
     sodipodi:insensitive="true">
    <path
       style="fill:#ffffff;stroke:none;display:inline"
       d="m 333,-5 0,45.5 0,15 c 0,69.22243 52.7021,119.75565 19.375,163.25 -30.68374,40.04456 -109.29343,-8.26343 -149.75,21.875 -40.372,30.07543 -13.35319,137.87957 -63.6875,136.9375 C 78.362303,376.42876 155.61653,210.00003 68.5,210 l -28,0 -45.5,0 0,195 410,0 0,-410 -72,0 z"
       id="path3400"
       zpos="-9999"
       inkscape:connector-curvature="0" />
    <path
       style="fill:none;stroke:#000000;stroke-width:1px;stroke-linecap:square;display:inline"
       d="m 333,30.5 0,10 0,15.000011 c 0,69.222429 52.6983,119.744259 19.3712,163.238609 -30.68374,40.04456 -109.29976,-8.26216 -149.75633,21.87627 -40.372,30.07543 -13.35445,137.8859 -63.68876,136.94383 C 78.350913,376.42498 155.61653,210.00004 68.5,210.00001 l -28,-1e-5 -10,0"
       id="path3352"
       inkscape:connector-curvature="0"
       sodipodi:nodetypes="ccsaaascc" />
  </g>
  <g
     style="display:none"
     inkscape:label="AUSSEN-008"
     id="g3354"
     inkscape:groupmode="layer"
     sodipodi:insensitive="true">
    <path
       style="fill:#ffffff;stroke:none;display:inline"
       d="m 333,-5 0,45.5 0,15 c 0,81.32096 75.70803,103.66204 42.625,139.125 C 348.38823,223.82114 298.86527,167.73317 258.9375,167.5625 193.90531,167.28453 182.52291,210.00004 68.5,210 l -28,0 -45.5,0 0,195 410,0 0,-410 -72,0 z"
       id="path3390"
       zpos="-9999"
       inkscape:connector-curvature="0" />
    <path
       sodipodi:nodetypes="ccsaascc"
       inkscape:connector-curvature="0"
       id="path3356"
       d="m 333,30.5 0,10 0,15.000011 c 0,81.320959 75.6979,103.651919 42.61487,139.114879 -27.23677,29.19614 -76.76099,-26.8855 -116.68876,-27.05617 -65.03219,-0.27797 -76.4032,42.44133 -190.42611,42.44129 l -28,-1e-5 -10,0"
       style="fill:none;stroke:#000000;stroke-width:1px;stroke-linecap:square;display:inline" />
  </g>
  <g
     inkscape:groupmode="layer"
     id="g3358"
     inkscape:label="AUSSEN-009"
     style="display:none"
     sodipodi:insensitive="true">
    <path
       style="fill:#ffffff;display:inline"
       d="m 333,-5 0,35.5 0,10 0,15 c 0,81.32096 70.06706,134.24253 22.625,159.125 C 304.70723,241.33041 286.30346,101.42836 228.9375,97.5625 163.78292,93.171764 182.52291,210.00004 68.5,210 l -28,0 -10,0 -35.5,0 0,195 410,0 0,-410 -72,0 z"
       id="path3129-3-9"
       zpos="-9999"
       inkscape:connector-curvature="0" />
    <path
       style="fill:none;stroke:#000000;stroke-width:1px;stroke-linecap:square;display:inline"
       d="m 333,30.5 0,10 0,15.000011 C 333,136.82097 403.05693,189.73242 355.61487,214.61489 304.6971,241.3203 286.29207,101.42458 228.92611,97.55872 163.77153,93.167984 182.52291,210.00005 68.5,210.00001 l -28,-1e-5 -10,0"
       id="path3360"
       inkscape:connector-curvature="0"
       sodipodi:nodetypes="ccsaascc" />
  </g>
  <g
     inkscape:groupmode="layer"
     id="layer1"
     inkscape:label="XX_DOODLE"
     style="display:none"
     sodipodi:insensitive="true">
    <path
       style="opacity:0.5;fill:#ff0000;display:inline"
       d="m 405,-5 0,410 -410,0 0,-410 z"
       id="path3129-3"
       inkscape:connector-curvature="0"
       sodipodi:nodetypes="ccccc" />
    <rect
       y="-38.999992"
       x="-46"
       height="249"
       width="379"
       id="rect3082"
       style="color:#000000;fill:none;stroke:#00ff00;stroke-width:1;stroke-linecap:butt;stroke-linejoin:miter;stroke-miterlimit:4;stroke-opacity:1;stroke-dasharray:none;stroke-dashoffset:0;marker:none;visibility:visible;display:inline;overflow:visible;enable-background:accumulate"
       rx="64.071022"
       ry="64.071022" />
    <rect
       ry="30.308575"
       rx="30.308575"
       style="color:#000000;fill:none;stroke:#00ff00;stroke-width:1;stroke-linecap:butt;stroke-linejoin:miter;stroke-miterlimit:4;stroke-opacity:1;stroke-dasharray:none;stroke-dashoffset:0;marker:none;visibility:visible;display:inline;overflow:visible;enable-background:accumulate"
       id="rect3086"
       width="319"
       height="249"
       x="-252"
       y="-58.999989" />
  </g>
</svg>
