<?xml version="1.0" encoding="UTF-8" standalone="no"?>
<!-- Created with Inkscape (http://www.inkscape.org/) -->

<svg
   xmlns:dc="http://purl.org/dc/elements/1.1/"
   xmlns:cc="http://creativecommons.org/ns#"
   xmlns:rdf="http://www.w3.org/1999/02/22-rdf-syntax-ns#"
   xmlns:svg="http://www.w3.org/2000/svg"
   xmlns="http://www.w3.org/2000/svg"
   xmlns:sodipodi="http://sodipodi.sourceforge.net/DTD/sodipodi-0.dtd"
   xmlns:inkscape="http://www.inkscape.org/namespaces/inkscape"
   style="display:inline"
   sodipodi:docname="190107_Fngrsh-R+_II_II_SW_SW_.svg"
   inkscape:version="0.48.3.1 r9886"
   version="1.1"
   id="svg2902"
   height="400"
   width="400">
  <sodipodi:namedview
     id="base"
     pagecolor="#f0f0f0"
     bordercolor="#666666"
     borderopacity="1.0"
     inkscape:pageopacity="1"
     inkscape:pageshadow="2"
     inkscape:zoom="1.3598416"
     inkscape:cx="208.45246"
     inkscape:cy="171.4418"
     inkscape:document-units="px"
     inkscape:current-layer="g4037"
     showgrid="false"
     inkscape:window-width="1018"
     inkscape:window-height="709"
     inkscape:window-x="0"
     inkscape:window-y="1"
     inkscape:window-maximized="0"
     showguides="true"
     inkscape:guide-bbox="true"
     inkscape:snap-bbox="true"
     inkscape:snap-global="false" />
  <defs
     id="defs2904">
    <clipPath
       clipPathUnits="userSpaceOnUse"
       id="clipPath5174">
      <path
         id="path5176"
         style="opacity:0.5;fill:#00ff00;stroke:#00ff00;stroke-width:1px;stroke-linecap:square;display:inline"
         d="m 436.26971,600.11436 -232.09481,134 -169.500003,-293.58262 232.094813,-134 z"
         inkscape:connector-curvature="0"
         sodipodi:nodetypes="ccccc" />
    </clipPath>
    <clipPath
       clipPathUnits="userSpaceOnUse"
       id="clipPath5174-5">
      <path
         id="path5176-9"
         style="opacity:0.5;fill:#00ff00;stroke:#00ff00;stroke-width:1px;stroke-linecap:square;display:inline"
         d="m 436.26971,600.11436 -232.09481,134 -169.500003,-293.58262 232.094813,-134 z"
         inkscape:connector-curvature="0"
         sodipodi:nodetypes="ccccc" />
    </clipPath>
    <clipPath
       clipPathUnits="userSpaceOnUse"
       id="clipPath3238">
      <path
         sodipodi:nodetypes="ccccc"
         inkscape:connector-curvature="0"
         d="m 461.26971,643.41563 -232.09481,134 -169.500002,-293.58262 232.094812,-134 z"
         style="opacity:0.5;fill:#00ff00;stroke:#00ff00;stroke-width:1px;stroke-linecap:square;display:inline"
         id="path3240" />
    </clipPath>
  </defs>
  <metadata
     id="metadata2907">
    <rdf:RDF>
      <cc:Work
         rdf:about="">
        <dc:format>image/svg+xml</dc:format>
        <dc:type
           rdf:resource="http://purl.org/dc/dcmitype/StillImage" />
        <dc:title />
      </cc:Work>
    </rdf:RDF>
  </metadata>
  <g
     inkscape:groupmode="layer"
     id="bg"
     inkscape:label="XX_BG"
     sodipodi:insensitive="true">
    <path
       style="fill:#ffeeaa"
       d="M 400,0 400,400 0,400 0,0 z"
       id="bgrect"
       inkscape:connector-curvature="0" />
  </g>
  <g
     inkscape:label="XX_REFERENZ"
     inkscape:groupmode="layer"
     id="XX_referenz"
     style="display:inline"
     sodipodi:insensitive="true">
    <path
       id="innerframe"
       style="fill:none;stroke:#ff0000;stroke-width:1"
       d="m 40.5,40.5 319,0 0,319 -319,0 0,-319 z"
       inkscape:label="#innerframe"
       sodipodi:insensitive="true"
       inkscape:connector-curvature="0" />
    <path
       id="outerframe"
       style="fill:none;stroke:#ff0000;stroke-width:1"
       d="m 30.5,30.5 339,0 0,339 -339,0 0,-339 z"
       inkscape:label="#outerframe"
       sodipodi:nodetypes="ccccc"
       sodipodi:insensitive="true"
       inkscape:connector-curvature="0" />
    <path
       style="opacity:0.5;fill:none;stroke:#ffc200;stroke-width:1px;stroke-linecap:square"
       d="m 189,30.5 0,10"
       id="ref-S-top-1"
       sodipodi:insensitive="true"
       inkscape:connector-curvature="0" />
    <path
       style="opacity:0.5;fill:none;stroke:#ffc200;stroke-width:1px;stroke-linecap:square"
       d="m 191,30.5 0,10"
       id="ref-S-top-2"
       sodipodi:insensitive="true"
       inkscape:connector-curvature="0" />
    <path
       style="opacity:0.5;fill:none;stroke:#ffc200;stroke-width:1px;stroke-linecap:square"
       d="m 209,30.5 0,10"
       id="ref-S-top-3"
       sodipodi:insensitive="true"
       inkscape:connector-curvature="0" />
    <path
       style="opacity:0.5;fill:none;stroke:#ffc200;stroke-width:1px;stroke-linecap:square"
       d="m 211,30.5 0,10"
       id="ref-S-top-4"
       sodipodi:insensitive="true"
       inkscape:connector-curvature="0" />
    <path
       style="opacity:0.5;fill:none;stroke:#00ff00;stroke-width:1px;stroke-linecap:square"
       d="m 199,30.5 0,10"
       id="ref-I-top-1"
       sodipodi:insensitive="true"
       inkscape:connector-curvature="0" />
    <path
       style="opacity:0.5;fill:none;stroke:#00ff00;stroke-width:1px;stroke-linecap:square"
       d="m 201,30.5 0,10"
       id="ref-I-top-2"
       sodipodi:insensitive="true"
       inkscape:connector-curvature="0" />
    <path
       style="opacity:0.5;fill:none;stroke:#00ffcc;stroke-width:1px;stroke-linecap:square"
       d="m 66,30.5 0,10"
       id="ref-C-top-1"
       sodipodi:insensitive="true"
       inkscape:connector-curvature="0" />
    <path
       style="opacity:0.5;fill:none;stroke:#00ffcc;stroke-width:1px;stroke-linecap:square"
       d="m 68,30.5 0,10"
       id="ref-C-top-2"
       sodipodi:insensitive="true"
       inkscape:connector-curvature="0" />
    <path
       style="opacity:0.5;fill:none;stroke:#00ffcc;stroke-width:1px;stroke-linecap:square"
       d="m 92,30.5 0,10"
       id="ref-C-top-3"
       sodipodi:insensitive="true"
       inkscape:connector-curvature="0" />
    <path
       style="opacity:0.5;fill:none;stroke:#00ffcc;stroke-width:1px;stroke-linecap:square"
       d="m 94,30.5 0,10"
       id="ref-C-top-4"
       sodipodi:insensitive="true"
       inkscape:connector-curvature="0" />
    <path
       style="opacity:0.5;fill:none;stroke:#00ffcc;stroke-width:1px;stroke-linecap:square"
       d="m 306,30.5 0,10"
       id="ref-C-top-5"
       sodipodi:insensitive="true"
       inkscape:connector-curvature="0" />
    <path
       style="opacity:0.5;fill:none;stroke:#00ffcc;stroke-width:1px;stroke-linecap:square"
       d="m 308,30.5 0,10"
       id="ref-C-top-6"
       sodipodi:insensitive="true"
       inkscape:connector-curvature="0" />
    <path
       style="opacity:0.5;fill:none;stroke:#00ffcc;stroke-width:1px;stroke-linecap:square"
       d="m 332,30.5 0,10"
       id="ref-C-top-7"
       sodipodi:insensitive="true"
       inkscape:connector-curvature="0" />
    <path
       style="opacity:0.5;fill:none;stroke:#00ffcc;stroke-width:1px;stroke-linecap:square"
       d="m 334,30.5 0,10"
       id="ref-C-top-8"
       sodipodi:insensitive="true"
       inkscape:connector-curvature="0" />
    <path
       style="opacity:0.5;fill:none;stroke:#ffc200;stroke-width:1px;stroke-linecap:square"
       d="m 369.5,189 -10,0"
       id="ref-S-right-1"
       sodipodi:insensitive="true"
       inkscape:connector-curvature="0" />
    <path
       style="opacity:0.5;fill:none;stroke:#ffc200;stroke-width:1px;stroke-linecap:square"
       d="m 369.5,191 -10,0"
       id="ref-S-right-2"
       sodipodi:insensitive="true"
       inkscape:connector-curvature="0" />
    <path
       style="opacity:0.5;fill:none;stroke:#ffc200;stroke-width:1px;stroke-linecap:square"
       d="m 369.5,209 -10,0"
       id="ref-S-right-3"
       sodipodi:insensitive="true"
       inkscape:connector-curvature="0" />
    <path
       style="opacity:0.5;fill:none;stroke:#ffc200;stroke-width:1px;stroke-linecap:square"
       d="m 369.5,211 -10,0"
       id="ref-S-right-4"
       sodipodi:insensitive="true"
       inkscape:connector-curvature="0" />
    <path
       style="opacity:0.5;fill:none;stroke:#00ff00;stroke-width:1px;stroke-linecap:square"
       d="m 369.5,199 -10,0"
       id="ref-I-right-1"
       sodipodi:insensitive="true"
       inkscape:connector-curvature="0" />
    <path
       style="opacity:0.5;fill:none;stroke:#00ff00;stroke-width:1px;stroke-linecap:square"
       d="m 369.5,201 -10,0"
       id="ref-I-right-2"
       sodipodi:insensitive="true"
       inkscape:connector-curvature="0" />
    <path
       style="opacity:0.5;fill:none;stroke:#00ffcc;stroke-width:1px;stroke-linecap:square"
       d="m 369.5,66 -10,0"
       id="ref-C-right-1"
       sodipodi:insensitive="true"
       inkscape:connector-curvature="0" />
    <path
       style="opacity:0.5;fill:none;stroke:#00ffcc;stroke-width:1px;stroke-linecap:square"
       d="m 369.5,68 -10,0"
       id="ref-C-right-2"
       sodipodi:insensitive="true"
       inkscape:connector-curvature="0" />
    <path
       style="opacity:0.5;fill:none;stroke:#00ffcc;stroke-width:1px;stroke-linecap:square"
       d="m 369.5,92 -10,0"
       id="ref-C-right-3"
       sodipodi:insensitive="true"
       inkscape:connector-curvature="0" />
    <path
       style="opacity:0.5;fill:none;stroke:#00ffcc;stroke-width:1px;stroke-linecap:square"
       d="m 369.5,94 -10,0"
       id="ref-C-right-4"
       sodipodi:insensitive="true"
       inkscape:connector-curvature="0" />
    <path
       style="opacity:0.5;fill:none;stroke:#00ffcc;stroke-width:1px;stroke-linecap:square"
       d="m 369.5,306 -10,0"
       id="ref-C-right-5"
       sodipodi:insensitive="true"
       inkscape:connector-curvature="0" />
    <path
       style="opacity:0.5;fill:none;stroke:#00ffcc;stroke-width:1px;stroke-linecap:square"
       d="m 369.5,308 -10,0"
       id="ref-C-right-6"
       sodipodi:insensitive="true"
       inkscape:connector-curvature="0" />
    <path
       style="opacity:0.5;fill:none;stroke:#00ffcc;stroke-width:1px;stroke-linecap:square"
       d="m 369.5,332 -10,0"
       id="ref-C-right-7"
       sodipodi:insensitive="true"
       inkscape:connector-curvature="0" />
    <path
       style="opacity:0.5;fill:none;stroke:#00ffcc;stroke-width:1px;stroke-linecap:square"
       d="m 369.5,334 -10,0"
       id="ref-C-right-8"
       sodipodi:insensitive="true"
       inkscape:connector-curvature="0" />
    <path
       style="opacity:0.5;fill:none;stroke:#ffc200;stroke-width:1px;stroke-linecap:square"
       d="m 189,369.5 0,-10"
       id="ref-S-bottom-1"
       sodipodi:insensitive="true"
       inkscape:connector-curvature="0" />
    <path
       style="opacity:0.5;fill:none;stroke:#ffc200;stroke-width:1px;stroke-linecap:square"
       d="m 191,369.5 0,-10"
       id="ref-S-bottom-2"
       sodipodi:insensitive="true"
       inkscape:connector-curvature="0" />
    <path
       style="opacity:0.5;fill:none;stroke:#ffc200;stroke-width:1px;stroke-linecap:square"
       d="m 209,369.5 0,-10"
       id="ref-S-bottom-3"
       sodipodi:insensitive="true"
       inkscape:connector-curvature="0" />
    <path
       style="opacity:0.5;fill:none;stroke:#ffc200;stroke-width:1px;stroke-linecap:square"
       d="m 211,369.5 0,-10"
       id="ref-S-bottom-4"
       sodipodi:insensitive="true"
       inkscape:connector-curvature="0" />
    <path
       style="opacity:0.5;fill:none;stroke:#00ff00;stroke-width:1px;stroke-linecap:square"
       d="m 199,369.5 0,-10"
       id="ref-I-bottom-1"
       sodipodi:insensitive="true"
       inkscape:connector-curvature="0" />
    <path
       style="opacity:0.5;fill:none;stroke:#00ff00;stroke-width:1px;stroke-linecap:square"
       d="m 201,369.5 0,-10"
       id="ref-I-bottom-2"
       sodipodi:insensitive="true"
       inkscape:connector-curvature="0" />
    <path
       style="opacity:0.5;fill:none;stroke:#00ffcc;stroke-width:1px;stroke-linecap:square"
       d="m 66,369.5 0,-10"
       id="ref-C-bottom-1"
       sodipodi:insensitive="true"
       inkscape:connector-curvature="0" />
    <path
       style="opacity:0.5;fill:none;stroke:#00ffcc;stroke-width:1px;stroke-linecap:square"
       d="m 68,369.5 0,-10"
       id="ref-C-bottom-2"
       sodipodi:insensitive="true"
       inkscape:connector-curvature="0" />
    <path
       style="opacity:0.5;fill:none;stroke:#00ffcc;stroke-width:1px;stroke-linecap:square"
       d="m 92,369.5 0,-10"
       id="ref-C-bottom-3"
       sodipodi:insensitive="true"
       inkscape:connector-curvature="0" />
    <path
       style="opacity:0.5;fill:none;stroke:#00ffcc;stroke-width:1px;stroke-linecap:square"
       d="m 94,369.5 0,-10"
       id="ref-C-bottom-4"
       sodipodi:insensitive="true"
       inkscape:connector-curvature="0" />
    <path
       style="opacity:0.5;fill:none;stroke:#00ffcc;stroke-width:1px;stroke-linecap:square"
       d="m 306,369.5 0,-10"
       id="ref-C-bottom-5"
       sodipodi:insensitive="true"
       inkscape:connector-curvature="0" />
    <path
       style="opacity:0.5;fill:none;stroke:#00ffcc;stroke-width:1px;stroke-linecap:square"
       d="m 308,369.5 0,-10"
       id="ref-C-bottom-6"
       sodipodi:insensitive="true"
       inkscape:connector-curvature="0" />
    <path
       style="opacity:0.5;fill:none;stroke:#00ffcc;stroke-width:1px;stroke-linecap:square"
       d="m 332,369.5 0,-10"
       id="ref-C-bottom-7"
       sodipodi:insensitive="true"
       inkscape:connector-curvature="0" />
    <path
       style="opacity:0.5;fill:none;stroke:#00ffcc;stroke-width:1px;stroke-linecap:square"
       d="m 334,369.5 0,-10"
       id="ref-C-bottom-8"
       sodipodi:insensitive="true"
       inkscape:connector-curvature="0" />
    <path
       style="opacity:0.5;fill:none;stroke:#ffc200;stroke-width:1px;stroke-linecap:square"
       d="m 30.5,189 10,0"
       id="ref-S-left-1"
       sodipodi:insensitive="true"
       inkscape:connector-curvature="0" />
    <path
       style="opacity:0.5;fill:none;stroke:#ffc200;stroke-width:1px;stroke-linecap:square"
       d="m 30.5,191 10,0"
       id="ref-S-left-2"
       sodipodi:insensitive="true"
       inkscape:connector-curvature="0" />
    <path
       style="opacity:0.5;fill:none;stroke:#ffc200;stroke-width:1px;stroke-linecap:square"
       d="m 30.5,209 10,0"
       id="ref-S-left-3"
       sodipodi:insensitive="true"
       inkscape:connector-curvature="0" />
    <path
       style="opacity:0.5;fill:none;stroke:#ffc200;stroke-width:1px;stroke-linecap:square"
       d="m 30.5,211 10,0"
       id="ref-S-left-4"
       sodipodi:insensitive="true"
       inkscape:connector-curvature="0" />
    <path
       style="opacity:0.5;fill:none;stroke:#00ff00;stroke-width:1px;stroke-linecap:square"
       d="m 40.5,199 -10,0"
       id="ref-I-left-1"
       sodipodi:insensitive="true"
       inkscape:connector-curvature="0" />
    <path
       style="opacity:0.5;fill:none;stroke:#00ff00;stroke-width:1px;stroke-linecap:square"
       d="m 40.5,201 -10,0"
       id="ref-I-left-2"
       sodipodi:insensitive="true"
       inkscape:connector-curvature="0" />
    <path
       style="opacity:0.5;fill:none;stroke:#00ffcc;stroke-width:1px;stroke-linecap:square"
       d="m 30.5,66 10,0"
       id="ref-C-left-1"
       sodipodi:insensitive="true"
       inkscape:connector-curvature="0" />
    <path
       style="opacity:0.5;fill:none;stroke:#00ffcc;stroke-width:1px;stroke-linecap:square"
       d="m 30.5,68 10,0"
       id="ref-C-left-2"
       sodipodi:insensitive="true"
       inkscape:connector-curvature="0" />
    <path
       style="opacity:0.5;fill:none;stroke:#00ffcc;stroke-width:1px;stroke-linecap:square"
       d="m 30.5,92 10,0"
       id="ref-C-left-3"
       sodipodi:insensitive="true"
       inkscape:connector-curvature="0" />
    <path
       style="opacity:0.5;fill:none;stroke:#00ffcc;stroke-width:1px;stroke-linecap:square"
       d="m 30.5,94 10,0"
       id="ref-C-left-4"
       sodipodi:insensitive="true"
       inkscape:connector-curvature="0" />
    <path
       style="opacity:0.5;fill:none;stroke:#00ffcc;stroke-width:1px;stroke-linecap:square"
       d="m 30.5,306 10,0"
       id="ref-C-left-5"
       sodipodi:insensitive="true"
       inkscape:connector-curvature="0" />
    <path
       style="opacity:0.5;fill:none;stroke:#00ffcc;stroke-width:1px;stroke-linecap:square"
       d="m 30.5,308 10,0"
       id="ref-C-left-6"
       sodipodi:insensitive="true"
       inkscape:connector-curvature="0" />
    <path
       style="opacity:0.5;fill:none;stroke:#00ffcc;stroke-width:1px;stroke-linecap:square"
       d="m 30.5,332 10,0"
       id="ref-C-left-7"
       sodipodi:insensitive="true"
       inkscape:connector-curvature="0" />
    <path
       style="opacity:0.5;fill:none;stroke:#00ffcc;stroke-width:1px;stroke-linecap:square"
       d="m 30.5,334 10,0"
       id="ref-C-left-8"
       sodipodi:insensitive="true"
       inkscape:connector-curvature="0" />
    <path
       style="fill:none;stroke:#000000;stroke-width:1px;stroke-linecap:butt"
       d="m 190,30 0,11"
       id="S-top-1"
       inkscape:connector-curvature="0"
       sodipodi:nodetypes="cc" />
    <path
       style="fill:none;stroke:#000000;stroke-width:1px;stroke-linecap:butt"
       d="m 210,30 0,11"
       id="S-top-2"
       inkscape:connector-curvature="0"
       sodipodi:nodetypes="cc" />
    <path
       style="fill:none;stroke:#000000;stroke-width:1px;stroke-linecap:butt"
       d="m 370,190 -11,0"
       id="S-right-1"
       inkscape:connector-curvature="0"
       sodipodi:nodetypes="cc" />
    <path
       style="fill:none;stroke:#000000;stroke-width:1px;stroke-linecap:butt"
       d="m 370,210 -11,0"
       id="S-right-2"
       inkscape:connector-curvature="0"
       sodipodi:nodetypes="cc" />
    <path
       style="fill:none;stroke:#000000;stroke-width:1px;stroke-linecap:butt"
       d="m 190,370 0,-11"
       id="S-bottom-1"
       inkscape:connector-curvature="0"
       sodipodi:nodetypes="cc" />
    <path
       style="fill:none;stroke:#000000;stroke-width:1px;stroke-linecap:butt"
       d="m 210,370 0,-11"
       id="S-bottom-2"
       inkscape:connector-curvature="0"
       sodipodi:nodetypes="cc" />
    <path
       style="fill:none;stroke:#000000;stroke-width:1px;stroke-linecap:butt"
       d="m 30,190 11,0"
       id="S-left-1"
       inkscape:connector-curvature="0"
       sodipodi:nodetypes="cc" />
    <path
       style="fill:none;stroke:#000000;stroke-width:1px;stroke-linecap:butt"
       d="m 30,210 11,0"
       id="S-left-2"
       inkscape:connector-curvature="0"
       sodipodi:nodetypes="cc" />
    <path
       style="fill:none;stroke:#000000;stroke-width:1px;stroke-linecap:butt"
       d="m 200,30 0,11"
       id="I-top-1"
       inkscape:connector-curvature="0"
       sodipodi:nodetypes="cc" />
    <path
       style="fill:none;stroke:#000000;stroke-width:1px;stroke-linecap:butt"
       d="m 370,200 -11,0"
       id="I-right-1"
       inkscape:connector-curvature="0"
       sodipodi:nodetypes="cc" />
    <path
       style="fill:none;stroke:#000000;stroke-width:1px;stroke-linecap:butt"
       d="m 200,370 0,-11"
       id="I-bottom-1"
       inkscape:connector-curvature="0"
       sodipodi:nodetypes="cc" />
    <path
       style="fill:none;stroke:#000000;stroke-width:1px;stroke-linecap:butt"
       d="m 41,200 -11,0"
       id="I-left-1"
       inkscape:connector-curvature="0"
       sodipodi:nodetypes="cc" />
    <path
       style="fill:none;stroke:#000000;stroke-width:1px;stroke-linecap:butt"
       d="m 67,30 0,11"
       id="C-top-1"
       inkscape:connector-curvature="0"
       sodipodi:nodetypes="cc" />
    <path
       style="fill:none;stroke:#000000;stroke-width:1px;stroke-linecap:butt"
       d="m 93,30 0,11"
       id="C-top-2"
       inkscape:connector-curvature="0"
       sodipodi:nodetypes="cc" />
    <path
       style="fill:none;stroke:#000000;stroke-width:1px;stroke-linecap:butt"
       d="m 307,30 0,11"
       id="C-top-3"
       inkscape:connector-curvature="0"
       sodipodi:nodetypes="cc" />
    <path
       style="fill:none;stroke:#000000;stroke-width:1px;stroke-linecap:butt"
       d="m 333,30 0,11"
       id="C-top-4"
       inkscape:connector-curvature="0"
       sodipodi:nodetypes="cc" />
    <path
       style="fill:none;stroke:#000000;stroke-width:1px;stroke-linecap:butt"
       d="m 370,67 -11,0"
       id="C-right-1"
       inkscape:connector-curvature="0"
       sodipodi:nodetypes="cc" />
    <path
       style="fill:none;stroke:#000000;stroke-width:1px;stroke-linecap:butt"
       d="m 370,93 -11,0"
       id="C-right-2"
       inkscape:connector-curvature="0"
       sodipodi:nodetypes="cc" />
    <path
       style="fill:none;stroke:#000000;stroke-width:1px;stroke-linecap:butt"
       d="m 370,307 -11,0"
       id="C-right-3"
       inkscape:connector-curvature="0"
       sodipodi:nodetypes="cc" />
    <path
       style="fill:none;stroke:#000000;stroke-width:1px;stroke-linecap:butt"
       d="m 370,333 -11,0"
       id="C-right-4"
       inkscape:connector-curvature="0"
       sodipodi:nodetypes="cc" />
    <path
       style="fill:none;stroke:#000000;stroke-width:1px;stroke-linecap:butt"
       d="m 67,370 0,-11"
       id="C-bottom-1"
       inkscape:connector-curvature="0"
       sodipodi:nodetypes="cc" />
    <path
       style="fill:none;stroke:#000000;stroke-width:1px;stroke-linecap:butt"
       d="m 93,370 0,-11"
       id="C-bottom-2"
       inkscape:connector-curvature="0"
       sodipodi:nodetypes="cc" />
    <path
       style="fill:none;stroke:#000000;stroke-width:1px;stroke-linecap:butt"
       d="m 307,370 0,-11"
       id="C-bottom-3"
       inkscape:connector-curvature="0"
       sodipodi:nodetypes="cc" />
    <path
       style="fill:none;stroke:#000000;stroke-width:1px;stroke-linecap:butt"
       d="m 333,370 0,-11"
       id="C-bottom-4"
       inkscape:connector-curvature="0"
       sodipodi:nodetypes="cc" />
    <path
       style="fill:none;stroke:#000000;stroke-width:1px;stroke-linecap:butt"
       d="m 30,67 11,0"
       id="C-left-1"
       inkscape:connector-curvature="0"
       sodipodi:nodetypes="cc" />
    <path
       style="fill:none;stroke:#000000;stroke-width:1px;stroke-linecap:butt"
       d="m 30,93 11,0"
       id="C-left-2"
       inkscape:connector-curvature="0"
       sodipodi:nodetypes="cc" />
    <path
       style="fill:none;stroke:#000000;stroke-width:1px;stroke-linecap:butt"
       d="m 30,307 11,0"
       id="C-left-3"
       inkscape:connector-curvature="0"
       sodipodi:nodetypes="cc" />
    <path
       style="fill:none;stroke:#000000;stroke-width:1px;stroke-linecap:butt"
       d="m 30,333 11,0"
       id="C-left-4"
       inkscape:connector-curvature="0"
       sodipodi:nodetypes="cc" />
  </g>
  <g
     inkscape:groupmode="layer"
     id="layer1"
     inkscape:label="XX_DOODLE"
     style="display:none"
     sodipodi:insensitive="true">
    <path
       style="fill:none;stroke:#000000;stroke-width:1px;stroke-linecap:butt;display:inline"
       d="m 190,370 0,-11"
       id="S-bottom-1-3"
       inkscape:connector-curvature="0"
       sodipodi:nodetypes="cc" />
    <path
       style="fill:none;stroke:#000000;stroke-width:1px;stroke-linecap:butt;display:inline"
       d="m 210,370 0,-11"
       id="S-bottom-2-6"
       inkscape:connector-curvature="0"
       sodipodi:nodetypes="cc" />
    <path
       style="fill:none;stroke:#000000;stroke-width:1px;stroke-linecap:butt;display:inline"
       d="m 30,190 11,0"
       id="S-left-1-7"
       inkscape:connector-curvature="0"
       sodipodi:nodetypes="cc" />
    <path
       style="fill:none;stroke:#000000;stroke-width:1px;stroke-linecap:butt;display:inline"
       d="m 30,210 11,0"
       id="S-left-2-5"
       inkscape:connector-curvature="0"
       sodipodi:nodetypes="cc" />
    <path
       style="fill:none;stroke:#ffff00;stroke-width:20;stroke-linecap:butt;stroke-miterlimit:4;stroke-dasharray:none;display:inline"
       d="m 200,370 0,-31 C 200,262.22219 244.411,233.0313 212.5,198.5 178.22433,161.40986 127.78867,200 61,200 l -31,0"
       id="I-bottom-1-3"
       inkscape:connector-curvature="0"
       sodipodi:nodetypes="csasc" />
    <path
       sodipodi:nodetypes="csasc"
       inkscape:connector-curvature="0"
       id="path3878"
       d="m -60,370 0,-11 c 0,-41.35845 -44.70944,-54.51255 -69.5,-79.5 C -157.60411,251.17268 -181.8348,200 -219,200 l -11,0"
       style="fill:none;stroke:#ffff00;stroke-width:20;stroke-linecap:butt;stroke-miterlimit:4;stroke-dasharray:none;display:inline" />
    <path
       style="fill:none;stroke:#000000;stroke-width:1px;stroke-linecap:butt;display:inline"
       d="m 370,200 -31,0 c -39.57541,0 -43.40062,10.97582 -53.53225,28.46215 -11.53606,19.91025 24.43181,63.06671 2.1984,68.99749 -21.09042,5.62588 -8.96404,-57.50408 -30.79,-57.79345 -22.54522,-0.2989 -11.48397,64.22905 -33.37615,58.83381 -25.07832,-6.18045 22.28951,-70.32377 -2.53822,-77.44441 -22.44087,-6.43608 -17.25594,66.52309 -39.04554,58.14281 -22.25316,-8.55857 29.4858,-56.79291 10.18986,-70.79717 -16.60924,-12.05435 -42.87165,43.62236 -55.2188,27.22961 -18.2547,-24.23594 49.93181,-39.19299 61.23061,-67.35239 C 207.34096,145.29235 200,139.85813 200,94 l 0,-64"
       id="I-right-1-2"
       inkscape:connector-curvature="0"
       sodipodi:nodetypes="csaaaaaaaaasc" />
    <path
       sodipodi:nodetypes="csasc"
       inkscape:connector-curvature="0"
       id="path3901"
       d="m 980,200 -11,0 C 911.40889,200 916,147 889.5,120.5 863,94 810,80.066173 810,41 l 0,-11"
       style="fill:none;stroke:#000000;stroke-width:1px;stroke-linecap:butt;display:inline" />
    <path
       sodipodi:nodetypes="czcc"
       inkscape:connector-curvature="0"
       id="path3903"
       d="m 231.5664,132.07429 c -32.55468,0 -61.89264,61.93065 -75.74061,46.82264 C 141.97782,163.78892 200,134.64372 200,100.66634 l 0,-20.220894"
       style="fill:#ffeeaa;fill-opacity:1;stroke:#ff00ff;stroke-width:1px;stroke-linecap:butt;display:inline" />
    <path
       sodipodi:nodetypes="csaaaaaaaaasc"
       inkscape:connector-curvature="0"
       id="path3905"
       d="m 740,200 -31,0 c -38.31492,0 -46.69533,-17.81099 -65.53225,-6.53785 -26.00585,15.56346 -5.12517,90.1485 -34.8016,83.99749 -24.74183,-5.12822 22.4746,-62.14525 1.21,-75.79345 C 591.10686,189.61955 567.05206,244.25982 549.5,230.5 c -13.51476,-10.59481 21.18504,-37.03134 10.46178,-50.44441 -10.21022,-12.77134 -43.72967,14.60557 -49.04554,-0.85719 -7.55077,-21.96362 61.62895,-21.79547 54.18986,-43.79717 -10.70416,-31.65837 -94.78862,30.20452 -100.2188,-2.77039 -5.2103,-31.63967 68.7663,-9.53014 90.23061,-33.352393 C 568.53873,84.3833 570,78.002369 570,41 l 0,-11"
       style="fill:none;stroke:#000000;stroke-width:1px;stroke-linecap:butt;display:inline" />
  </g>
  <g
     inkscape:groupmode="layer"
     id="layer2"
     inkscape:label="XX_BGN-01"
     style="display:none"
     sodipodi:insensitive="true">
    <path
       sodipodi:nodetypes="csasc"
       inkscape:connector-curvature="0"
       id="path3974-7"
       d="m 200,370 0,-31 C 200,284.77496 296.64821,229.23784 263.5,184.5 230.9089,140.51404 184.69822,200 100,200 l -70,0"
       style="fill:none;stroke:#ffff00;stroke-width:20;stroke-linecap:butt;stroke-miterlimit:4;stroke-dasharray:none;display:inline" />
  </g>
  <g
     style="display:inline"
     inkscape:label="BGN-01"
     id="g3972"
     inkscape:groupmode="layer"
     sodipodi:insensitive="true">
    <path
       sodipodi:nodetypes="ccsssssssccccsssssssccc"
       inkscape:connector-curvature="0"
       id="path4027"
       d="m 210,370 0,-11 0,-20 c 0,-21.17134 21.7911,-48.08174 42.125,-74.75 10.16695,-13.33413 19.73655,-26.6684 24.84375,-41 5.1072,-14.3316 4.82255,-30.87148 -5.4375,-44.71875 -9.46259,-12.77101 -21.98656,-19.39372 -34.8125,-20.15625 -12.82594,-0.76253 -25.33788,3.16182 -38.78125,7.96875 C 171.05076,175.95761 140.00802,190 100,190 l -59,0 -11,0 0,20 11,0 59,0 c 44.6902,0 79.11532,-15.71112 104.65625,-24.84375 12.77046,-4.56632 23.22337,-7.26741 30.875,-6.8125 7.65163,0.45491 13.10454,2.90303 19.9375,12.125 6.31406,8.52165 6.37891,15.70384 2.6875,26.0625 -3.69141,10.35866 -12.08593,22.67324 -21.9375,35.59375 C 216.5156,277.96602 190,305.9463 190,339 l 0,20 0,11 z"
       style="fill:#ffffff;stroke:none;display:inline" />
    <path
       style="fill:none;stroke:#000000;stroke-width:1px;stroke-linecap:butt;display:inline"
       d="m 190,370 0,-11 0,-20 c 0,-33.0537 26.5156,-61.03398 46.21875,-86.875 9.85157,-12.92051 18.24609,-25.23509 21.9375,-35.59375 3.69141,-10.35866 3.62656,-17.54085 -2.6875,-26.0625 -6.83296,-9.22197 -12.28587,-11.67009 -19.9375,-12.125 -7.65163,-0.45491 -18.10454,2.24618 -30.875,6.8125 C 179.11532,194.28888 144.6902,210 100,210 l -59,0 -11,0"
       id="S-bottom-1-3-0"
       inkscape:connector-curvature="0"
       sodipodi:nodetypes="ccssssssscc" />
    <path
       style="fill:none;stroke:#000000;stroke-width:1px;stroke-linecap:butt;display:inline"
       d="m 210,370 0,-11 0,-20 c 0,-21.17134 21.7911,-48.08174 42.125,-74.75 10.16695,-13.33413 19.73655,-26.6684 24.84375,-41 5.1072,-14.3316 4.82255,-30.87148 -5.4375,-44.71875 -9.46259,-12.77101 -21.98656,-19.39372 -34.8125,-20.15625 -12.82594,-0.76253 -25.33788,3.16182 -38.78125,7.96875 C 171.05076,175.95761 140.00802,190 100,190 l -59,0 -11,0"
       id="S-bottom-2-6-9"
       inkscape:connector-curvature="0"
       sodipodi:nodetypes="ccssssssscc" />
  </g>
  <g
     style="display:none"
     inkscape:label="XX_BGN-02"
     id="g3964"
     inkscape:groupmode="layer"
     sodipodi:insensitive="true">
    <path
       sodipodi:nodetypes="csasc"
       inkscape:connector-curvature="0"
       id="path3966"
       d="m 200,370 0,-31 c 0,-76.77781 37.27994,-102.37422 6.5,-135.5 C 175.29151,169.91301 137.47711,200 69,200 l -39,0"
       style="fill:none;stroke:#ffff00;stroke-width:20;stroke-linecap:butt;stroke-miterlimit:4;stroke-dasharray:none;display:inline" />
  </g>
  <g
     inkscape:groupmode="layer"
     id="g4053"
     inkscape:label="BGN-02"
     style="display:none"
     sodipodi:insensitive="true">
    <path
       sodipodi:nodetypes="ssssssssccsssssssccs"
       inkscape:connector-curvature="0"
       id="path4088"
       d="m 69,190 c 32.77398,0 58.27779,-7.23968 81.21875,-10.71875 5.73524,-0.86977 11.36791,-1.5197 16.90625,-1.65625 5.53834,-0.13655 10.97468,0.2273 16.40625,1.375 10.86314,2.29541 21.2869,8.00766 30.28125,17.6875 8.8173,9.48929 13.54741,19.78916 14.59375,30.15625 1.04634,10.36709 -1.13691,20.23598 -3.96875,30.65625 C 218.77383,278.34054 210,302.22962 210,339 l 0,31 -20,0 0,-31 c 0,-40.00743 9.87494,-67.31644 15.15625,-86.75 2.64066,-9.71678 3.99553,-17.25808 3.375,-23.40625 -0.62053,-6.14817 -2.77108,-11.45765 -9.34375,-18.53125 -6.6099,-7.11366 -12.63689,-10.24038 -19.78125,-11.75 -7.14436,-1.50962 -15.74368,-1.11509 -26.1875,0.46875 C 132.33111,202.19893 104.70313,210 69,210 c -13,0 -39,0 -39,0 l 0,-20 z"
       style="fill:#ffffff;stroke:none;display:inline" />
    <path
       style="fill:none;stroke:#000000;stroke-width:1px;stroke-linecap:butt;display:inline"
       d="m 190,370 0,-11 0,-20 c 0,-40.00743 9.87494,-67.31644 15.15625,-86.75 2.64066,-9.71678 3.99553,-17.25808 3.375,-23.40625 -0.62053,-6.14817 -2.77108,-11.45765 -9.34375,-18.53125 -6.6099,-7.11366 -12.63689,-10.24038 -19.78125,-11.75 -7.14436,-1.50962 -15.74368,-1.11509 -26.1875,0.46875 C 132.33111,202.19893 104.70313,210 69,210 l -28,0 -11,0"
       id="S-bottom-1-3-06"
       inkscape:connector-curvature="0"
       sodipodi:nodetypes="ccssssssscc" />
    <path
       style="fill:none;stroke:#000000;stroke-width:1px;stroke-linecap:butt;display:inline"
       d="m 30,190 11,0 28,0 c 32.77398,0 58.27779,-7.23968 81.21875,-10.71875 5.73524,-0.86977 11.36791,-1.5197 16.90625,-1.65625 5.53834,-0.13655 10.97468,0.2273 16.40625,1.375 10.86314,2.29541 21.2869,8.00766 30.28125,17.6875 8.8173,9.48929 13.54741,19.78916 14.59375,30.15625 1.04634,10.36709 -1.13691,20.23598 -3.96875,30.65625 C 218.77383,278.34054 210,302.22962 210,339 l 0,20 0,11"
       id="S-left-1-7-6"
       inkscape:connector-curvature="0"
       sodipodi:nodetypes="ccsssssssscc" />
  </g>
  <g
     inkscape:groupmode="layer"
     id="g3968"
     inkscape:label="XX_BGN-03"
     style="display:none"
     sodipodi:insensitive="true">
    <path
       style="fill:none;stroke:#ffff00;stroke-width:20;stroke-linecap:butt;stroke-miterlimit:4;stroke-dasharray:none;display:inline"
       d="m 200,370 0,-32 C 200,261.22219 351.70552,290.7814 340.5,233.5 331.93992,189.74179 279.47711,200 211,200 l -181,0"
       id="path3970"
       inkscape:connector-curvature="0"
       sodipodi:nodetypes="csasc" />
  </g>
  <g
     style="display:none"
     inkscape:label="BGN-03"
     id="g4092"
     inkscape:groupmode="layer"
     sodipodi:insensitive="true">
    <path
       sodipodi:nodetypes="ccsszsccszssc"
       inkscape:connector-curvature="0"
       id="path4129"
       d="m 210,370 -20,0 0,-32 c 0,-22.48762 12.25678,-40.90686 28.15625,-49.09375 28.74547,-14.8015 113.53125,-24.14916 113.53125,-53.5 C 331.6875,206.05541 238.51796,210 211,210 l -181,0 0,-20 177,0 c 46.41198,0 137.54142,-4.73732 144.3125,41.59375 6.77108,46.33107 -85.10071,51.38826 -122.4375,74.1875 C 216.55694,313.30312 210,322.09872 210,338 z"
       style="fill:#ffffff;stroke:none;display:inline" />
    <path
       style="fill:none;stroke:#000000;stroke-width:1px;stroke-linecap:butt;display:inline"
       d="m 190,370 0,-11 0,-21 c 0,-22.48762 12.25678,-40.90686 28.15625,-49.09375 28.74547,-14.8015 113.53125,-24.14916 113.53125,-53.5 C 331.6875,206.05541 238.51796,210 211,210 l -170,0 -11,0"
       id="S-bottom-1-3-8"
       inkscape:connector-curvature="0"
       sodipodi:nodetypes="ccsszscc" />
    <path
       style="fill:none;stroke:#000000;stroke-width:1px;stroke-linecap:butt;display:inline"
       d="m 210,370 0,-11 0,-21 c 0,-15.90128 6.55694,-24.69688 18.875,-32.21875 37.33679,-22.79924 129.20858,-27.85643 122.4375,-74.1875 C 344.54142,185.26268 253.41198,190 207,190 c -55.33333,0 -166,0 -166,0 l -11,0"
       id="S-bottom-2-6-7"
       inkscape:connector-curvature="0"
       sodipodi:nodetypes="ccsszscc" />
  </g>
  <g
     inkscape:groupmode="layer"
     id="layer3"
     inkscape:label="FNGRS-01"
     style="display:inline"
     sodipodi:insensitive="true">
    <path
       sodipodi:nodetypes="csaaaaaaaaasccc"
       inkscape:connector-curvature="0"
       id="path4029"
       d="m 360,200 -21,0 c -39.57541,0 -43.40062,10.97582 -53.53225,28.46215 -11.53606,19.91025 24.43181,63.06671 2.1984,68.99749 -21.09042,5.62588 -8.96212,-57.78884 -30.79,-57.79345 -22.22581,-0.005 -9.62398,63.39778 -31.37615,58.83381 -23.70249,-4.97317 18.34306,-68.41638 -5.53822,-72.44441 -22.27638,-3.75733 -4.8173,66.17513 -27.04554,62.14281 -24.23627,-4.39659 13.92734,-56.70599 -3.81014,-73.79717 -12.7757,-12.31019 -47.84628,16.13805 -53.2188,-0.77039 -7.77277,-24.46254 50.30559,-22.62299 62.23061,-45.35239 C 209.62467,146.34628 200,127.33857 200,94 l 0,-34 105,0 z"
       style="fill:#ffffff;stroke:none;display:inline" />
    <path
       style="fill:none;stroke:#000000;stroke-width:1px;stroke-linecap:butt;display:inline"
       d="m 370,200 -31,0 c -39.57541,0 -43.40062,10.97582 -53.53225,28.46215 -11.53606,19.91025 24.43181,63.06671 2.1984,68.99749 -21.09042,5.62588 -8.96212,-57.78884 -30.79,-57.79345 -22.22581,-0.005 -9.62398,63.39778 -31.37615,58.83381 -23.70249,-4.97317 18.34306,-68.41638 -5.53822,-72.44441 -22.27638,-3.75733 -4.8173,66.17513 -27.04554,62.14281 -24.23627,-4.39659 13.92734,-56.70599 -3.81014,-73.79717 -12.7757,-12.31019 -47.84628,16.13805 -53.2188,-0.77039 -7.77277,-24.46254 50.30559,-22.62299 62.23061,-45.35239 C 209.62467,146.34628 200,127.33857 200,94 l 0,-64"
       id="I-right-1-2-1"
       inkscape:connector-curvature="0"
       sodipodi:nodetypes="csaaaaaaaaasc" />
  </g>
  <g
     style="display:none"
     inkscape:label="FNGRS-02"
     id="g4031"
     inkscape:groupmode="layer"
     sodipodi:insensitive="true">
    <path
       style="fill:#ffffff;stroke:none;display:inline"
       d="m 157.29281,175.07662 c 13.17993,-0.01 33.04262,6.41577 40.8251,-2.79817 11.67441,-13.82172 8.06818,-30.07518 4.75627,-49.852 z"
       id="path4135"
       inkscape:connector-curvature="0"
       sodipodi:nodetypes="cscc" />
    <path
       style="fill:#ffffff;stroke:none;display:inline"
       d="m 222.47846,253.80599 c 7.5435,-13.5753 17.02778,-28.21469 7.48332,-33.7504 -4.98098,-2.88893 -9.37735,0.515 -13.58251,6.16733 z"
       id="path4133"
       inkscape:connector-curvature="0"
       sodipodi:nodetypes="cscc" />
    <path
       style="fill:#ffffff;stroke:none;display:inline"
       d="m 360,200 -13,0 c -39.57541,0 -54.43972,-14.41461 -65.53225,4.46215 -8.40009,14.29488 31.18091,31.75911 21.1984,44.99749 -9.7177,12.8872 -32.51342,-13.00304 -47.79,-7.79345 -16.3414,5.57271 -19.92863,45.54554 -35.37615,37.83381 -18.00088,-8.98643 27.86569,-49.35028 10.46178,-59.44441 -15.39466,-8.92878 -25.20489,42.25406 -41.04554,34.14281 -13.62086,-6.9746 10.53758,-32.37391 3.18986,-45.79717 -8.60978,-15.72886 -49.96488,-8.05079 -47.2188,-25.77039 2.76827,-17.86275 41.56674,3.45685 53.23061,-10.35239 C 214.95967,152.33894 200,127.33857 200,94 l 0,-34 105,0 z"
       id="path4033"
       inkscape:connector-curvature="0"
       sodipodi:nodetypes="csaaaaaaaaasccc" />
    <path
       sodipodi:nodetypes="csaaaaaaaaasc"
       inkscape:connector-curvature="0"
       id="path4035"
       d="m 370,200 -23,0 c -39.57541,0 -54.43972,-14.41461 -65.53225,4.46215 -8.40009,14.29488 31.18091,31.75911 21.1984,44.99749 -9.7177,12.8872 -32.51342,-13.00304 -47.79,-7.79345 -16.3414,5.57271 -19.92863,45.54554 -35.37615,37.83381 -18.00088,-8.98643 27.86569,-49.35028 10.46178,-59.44441 -15.39466,-8.92878 -25.20489,42.25406 -41.04554,34.14281 -13.62086,-6.9746 10.53758,-32.37391 3.18986,-45.79717 -8.60978,-15.72886 -49.96488,-8.05079 -47.2188,-25.77039 2.76827,-17.86275 41.56674,3.45685 53.23061,-10.35239 C 214.95967,152.33894 200,127.33857 200,94 l 0,-64"
       style="fill:none;stroke:#000000;stroke-width:1px;stroke-linecap:butt;display:inline" />
  </g>
  <g
     style="display:none"
     inkscape:label="FNGRS-03"
     id="g4037"
     inkscape:groupmode="layer"
     sodipodi:insensitive="true">
    <path
       style="fill:#ffffff;stroke:none;display:inline"
       d="m 360,200 -4,0 c -39.57541,0 -41.00821,3.26715 -50.53225,18.46215 -16.19131,25.83221 37.49685,79.65469 9.1984,90.99749 -23.05711,9.24193 -21.00536,-60.45646 -45.79,-58.79345 C 248.15273,252.0567 257.96986,308.01831 237.5,304.5 c -23.88831,-4.10587 9.0379,-62.62237 -13.53822,-71.44441 -19.34943,-7.56115 -32.56219,48.36351 -50.04554,37.14281 -15.14011,-9.71682 20.07498,-37.15447 11.18986,-52.79717 -8.0398,-14.15446 -45.04185,0.46543 -46.2188,-15.77039 -1.604,-22.12685 47.43133,-11.5655 59.23061,-30.35239 C 211.82243,149.45803 200,127.33857 200,94 l 0,-34 105,0 z"
       id="path4039"
       inkscape:connector-curvature="0"
       sodipodi:nodetypes="csaaaaaaaaasccc" />
    <path
       sodipodi:nodetypes="csaaaaaaaaasc"
       inkscape:connector-curvature="0"
       id="path4041"
       d="m 370,200 -14,0 c -39.57541,0 -41.00821,3.26715 -50.53225,18.46215 -16.19131,25.83221 37.49685,79.65469 9.1984,90.99749 -23.05711,9.24193 -21.00536,-60.45646 -45.79,-58.79345 C 248.15273,252.0567 257.96986,308.01831 237.5,304.5 c -23.88831,-4.10587 9.0379,-62.62237 -13.53822,-71.44441 -19.34943,-7.56115 -32.56219,48.36351 -50.04554,37.14281 -15.14011,-9.71682 20.07498,-37.15447 11.18986,-52.79717 -8.0398,-14.15446 -45.04185,0.46543 -46.2188,-15.77039 -1.604,-22.12685 47.43133,-11.5655 59.23061,-30.35239 C 211.82243,149.45803 200,127.33857 200,94 l 0,-64"
       style="fill:none;stroke:#000000;stroke-width:1px;stroke-linecap:butt;display:inline" />
  </g>
  <g
     style="display:none"
     inkscape:label="FNGRS-04"
     id="g4047"
     inkscape:groupmode="layer"
     sodipodi:insensitive="true">
    <path
       style="fill:#ffffff;stroke:none;display:inline"
       d="m 360,200 -21,0 c -39.57541,0 -45.29546,4.72852 -56.53225,21.46215 -16.17163,24.0825 30.15973,79.274 2.1984,86.99749 -19.47678,5.37988 -9.59564,-52.10348 -29.79,-52.79345 C 231.01408,254.85091 238.31116,322.55081 215.5,315.5 c -26.57839,-8.21524 27.72694,-74.27696 1.46178,-83.44441 -22.26462,-7.77113 -21.36101,65.41023 -43.04554,56.14281 -20.4082,-8.72194 20.60494,-46.19888 10.18986,-65.79717 -7.99171,-15.03818 -46.69539,-4.74726 -46.2188,-21.77039 0.60606,-21.64732 47.91857,-6.53701 60.23061,-24.35239 C 213.71466,153.71014 200,127.33857 200,94 l 0,-34 105,0 z"
       id="path4049"
       inkscape:connector-curvature="0"
       sodipodi:nodetypes="csaaaaaaaaasccc" />
    <path
       sodipodi:nodetypes="csaaaaaaaaasc"
       inkscape:connector-curvature="0"
       id="path4051"
       d="m 370,200 -31,0 c -39.57541,0 -45.29546,4.72852 -56.53225,21.46215 -16.17163,24.0825 30.15973,79.274 2.1984,86.99749 -19.47678,5.37988 -9.59564,-52.10348 -29.79,-52.79345 C 231.01408,254.85091 238.31116,322.55081 215.5,315.5 c -26.57839,-8.21524 27.72694,-74.27696 1.46178,-83.44441 -22.26462,-7.77113 -21.36101,65.41023 -43.04554,56.14281 -20.4082,-8.72194 20.60494,-46.19888 10.18986,-65.79717 -7.99171,-15.03818 -46.69539,-4.74726 -46.2188,-21.77039 0.60606,-21.64732 47.91857,-6.53701 60.23061,-24.35239 C 213.71466,153.71014 200,127.33857 200,94 l 0,-64"
       style="fill:none;stroke:#000000;stroke-width:1px;stroke-linecap:butt;display:inline" />
  </g>
  <g
     inkscape:groupmode="layer"
     id="layer4"
     inkscape:label="THMB-01"
     style="display:none"
     sodipodi:insensitive="true">
    <path
       sodipodi:nodetypes="czcc"
       inkscape:connector-curvature="0"
       id="path3903-2"
       d="m 225.5664,135.07429 c -32.55468,0 -58.48105,39.59271 -68.74061,21.82264 C 146.56623,139.12686 200,134.64372 200,100.66634 l 0,-20.22089"
       style="fill:#ffffff;fill-opacity:1;stroke:#000000;stroke-width:1px;stroke-linecap:butt;display:inline" />
  </g>
  <g
     inkscape:label="THMB-02"
     id="g4043"
     inkscape:groupmode="layer"
     style="display:inline"
     sodipodi:insensitive="true">
    <path
       style="fill:#ffffff;fill-opacity:1;stroke:#000000;stroke-width:1px;stroke-linecap:butt;display:inline"
       d="M 231.5664,150.07429 C 203.38889,139.13136 168.94677,184.65041 154.82579,162.89693 139.97424,140.01801 199.45285,133.02089 200,94.66634 l 0,-14.22089"
       id="path4045"
       inkscape:connector-curvature="0"
       sodipodi:nodetypes="cacc" />
  </g>
</svg>
