<?xml version="1.0" encoding="UTF-8" standalone="no"?>
<!-- Created with Inkscape (http://www.inkscape.org/) -->

<svg
   xmlns:dc="http://purl.org/dc/elements/1.1/"
   xmlns:cc="http://creativecommons.org/ns#"
   xmlns:rdf="http://www.w3.org/1999/02/22-rdf-syntax-ns#"
   xmlns:svg="http://www.w3.org/2000/svg"
   xmlns="http://www.w3.org/2000/svg"
   xmlns:sodipodi="http://sodipodi.sourceforge.net/DTD/sodipodi-0.dtd"
   xmlns:inkscape="http://www.inkscape.org/namespaces/inkscape"
   style="display:inline"
   sodipodi:docname="190309_Foot-R+_00_UB_00_II_.svg"
   inkscape:version="0.48.3.1 r9886"
   version="1.1"
   id="svg2902"
   height="400"
   width="400">
  <sodipodi:namedview
     id="base"
     pagecolor="#f0f0f0"
     bordercolor="#666666"
     borderopacity="1.0"
     inkscape:pageopacity="1"
     inkscape:pageshadow="2"
     inkscape:zoom="0.74348568"
     inkscape:cx="331.64204"
     inkscape:cy="190.67637"
     inkscape:document-units="px"
     inkscape:current-layer="layer2"
     showgrid="false"
     inkscape:window-width="1018"
     inkscape:window-height="709"
     inkscape:window-x="0"
     inkscape:window-y="1"
     inkscape:window-maximized="0"
     showguides="true"
     inkscape:guide-bbox="true"
     inkscape:snap-bbox="true"
     inkscape:snap-global="false" />
  <defs
     id="defs2904" />
  <metadata
     id="metadata2907">
    <rdf:RDF>
      <cc:Work
         rdf:about="">
        <dc:format>image/svg+xml</dc:format>
        <dc:type
           rdf:resource="http://purl.org/dc/dcmitype/StillImage" />
        <dc:title />
      </cc:Work>
    </rdf:RDF>
  </metadata>
  <g
     inkscape:groupmode="layer"
     id="bg"
     inkscape:label="XX_BG"
     style="display:inline"
     sodipodi:insensitive="true">
    <path
       inkscape:connector-curvature="0"
       id="path3154"
       d="m 600,-200 -800,0 0,800 800,0 z"
       style="fill:#00ffff;display:inline" />
    <path
       style="fill:#d5fff6"
       d="m 0,0 400,0 0,400 -400,0 z"
       id="bgrect"
       inkscape:connector-curvature="0" />
  </g>
  <g
     inkscape:label="XX_REFERENZ"
     inkscape:groupmode="layer"
     id="XX_referenz"
     style="display:none"
     sodipodi:insensitive="true">
    <path
       id="innerframe"
       style="fill:none;stroke:#ff0000;stroke-width:1"
       d="m 40.5,40.5 319,0 0,319 -319,0 0,-319 z"
       inkscape:label="#innerframe"
       sodipodi:insensitive="true"
       inkscape:connector-curvature="0" />
    <path
       id="outerframe"
       style="fill:none;stroke:#ff0000;stroke-width:1"
       d="m 30.5,30.5 339,0 0,339 -339,0 0,-339 z"
       inkscape:label="#outerframe"
       sodipodi:nodetypes="ccccc"
       sodipodi:insensitive="true"
       inkscape:connector-curvature="0" />
    <path
       style="opacity:0.5;fill:none;stroke:#ffc200;stroke-width:1px;stroke-linecap:square"
       d="m 189,30.5 0,10"
       id="ref-S-top-1"
       sodipodi:insensitive="true"
       inkscape:connector-curvature="0" />
    <path
       style="opacity:0.5;fill:none;stroke:#ffc200;stroke-width:1px;stroke-linecap:square"
       d="m 191,30.5 0,10"
       id="ref-S-top-2"
       sodipodi:insensitive="true"
       inkscape:connector-curvature="0" />
    <path
       style="opacity:0.5;fill:none;stroke:#ffc200;stroke-width:1px;stroke-linecap:square"
       d="m 209,30.5 0,10"
       id="ref-S-top-3"
       sodipodi:insensitive="true"
       inkscape:connector-curvature="0" />
    <path
       style="opacity:0.5;fill:none;stroke:#ffc200;stroke-width:1px;stroke-linecap:square"
       d="m 211,30.5 0,10"
       id="ref-S-top-4"
       sodipodi:insensitive="true"
       inkscape:connector-curvature="0" />
    <path
       style="opacity:0.5;fill:none;stroke:#00ff00;stroke-width:1px;stroke-linecap:square"
       d="m 199,30.5 0,10"
       id="ref-I-top-1"
       sodipodi:insensitive="true"
       inkscape:connector-curvature="0" />
    <path
       style="opacity:0.5;fill:none;stroke:#00ff00;stroke-width:1px;stroke-linecap:square"
       d="m 201,30.5 0,10"
       id="ref-I-top-2"
       sodipodi:insensitive="true"
       inkscape:connector-curvature="0" />
    <path
       style="opacity:0.5;fill:none;stroke:#00ffcc;stroke-width:1px;stroke-linecap:square"
       d="m 66,30.5 0,10"
       id="ref-C-top-1"
       sodipodi:insensitive="true"
       inkscape:connector-curvature="0" />
    <path
       style="opacity:0.5;fill:none;stroke:#00ffcc;stroke-width:1px;stroke-linecap:square"
       d="m 68,30.5 0,10"
       id="ref-C-top-2"
       sodipodi:insensitive="true"
       inkscape:connector-curvature="0" />
    <path
       style="opacity:0.5;fill:none;stroke:#00ffcc;stroke-width:1px;stroke-linecap:square"
       d="m 92,30.5 0,10"
       id="ref-C-top-3"
       sodipodi:insensitive="true"
       inkscape:connector-curvature="0" />
    <path
       style="opacity:0.5;fill:none;stroke:#00ffcc;stroke-width:1px;stroke-linecap:square"
       d="m 94,30.5 0,10"
       id="ref-C-top-4"
       sodipodi:insensitive="true"
       inkscape:connector-curvature="0" />
    <path
       style="opacity:0.5;fill:none;stroke:#00ffcc;stroke-width:1px;stroke-linecap:square"
       d="m 306,30.5 0,10"
       id="ref-C-top-5"
       sodipodi:insensitive="true"
       inkscape:connector-curvature="0" />
    <path
       style="opacity:0.5;fill:none;stroke:#00ffcc;stroke-width:1px;stroke-linecap:square"
       d="m 308,30.5 0,10"
       id="ref-C-top-6"
       sodipodi:insensitive="true"
       inkscape:connector-curvature="0" />
    <path
       style="opacity:0.5;fill:none;stroke:#00ffcc;stroke-width:1px;stroke-linecap:square"
       d="m 332,30.5 0,10"
       id="ref-C-top-7"
       sodipodi:insensitive="true"
       inkscape:connector-curvature="0" />
    <path
       style="opacity:0.5;fill:none;stroke:#00ffcc;stroke-width:1px;stroke-linecap:square"
       d="m 334,30.5 0,10"
       id="ref-C-top-8"
       sodipodi:insensitive="true"
       inkscape:connector-curvature="0" />
    <path
       style="opacity:0.5;fill:none;stroke:#ffc200;stroke-width:1px;stroke-linecap:square"
       d="m 369.5,189 -10,0"
       id="ref-S-right-1"
       sodipodi:insensitive="true"
       inkscape:connector-curvature="0" />
    <path
       style="opacity:0.5;fill:none;stroke:#ffc200;stroke-width:1px;stroke-linecap:square"
       d="m 369.5,191 -10,0"
       id="ref-S-right-2"
       sodipodi:insensitive="true"
       inkscape:connector-curvature="0" />
    <path
       style="opacity:0.5;fill:none;stroke:#ffc200;stroke-width:1px;stroke-linecap:square"
       d="m 369.5,209 -10,0"
       id="ref-S-right-3"
       sodipodi:insensitive="true"
       inkscape:connector-curvature="0" />
    <path
       style="opacity:0.5;fill:none;stroke:#ffc200;stroke-width:1px;stroke-linecap:square"
       d="m 369.5,211 -10,0"
       id="ref-S-right-4"
       sodipodi:insensitive="true"
       inkscape:connector-curvature="0" />
    <path
       style="opacity:0.5;fill:none;stroke:#00ff00;stroke-width:1px;stroke-linecap:square"
       d="m 369.5,199 -10,0"
       id="ref-I-right-1"
       sodipodi:insensitive="true"
       inkscape:connector-curvature="0" />
    <path
       style="opacity:0.5;fill:none;stroke:#00ff00;stroke-width:1px;stroke-linecap:square"
       d="m 369.5,201 -10,0"
       id="ref-I-right-2"
       sodipodi:insensitive="true"
       inkscape:connector-curvature="0" />
    <path
       style="opacity:0.5;fill:none;stroke:#00ffcc;stroke-width:1px;stroke-linecap:square"
       d="m 369.5,66 -10,0"
       id="ref-C-right-1"
       sodipodi:insensitive="true"
       inkscape:connector-curvature="0" />
    <path
       style="opacity:0.5;fill:none;stroke:#00ffcc;stroke-width:1px;stroke-linecap:square"
       d="m 369.5,68 -10,0"
       id="ref-C-right-2"
       sodipodi:insensitive="true"
       inkscape:connector-curvature="0" />
    <path
       style="opacity:0.5;fill:none;stroke:#00ffcc;stroke-width:1px;stroke-linecap:square"
       d="m 369.5,92 -10,0"
       id="ref-C-right-3"
       sodipodi:insensitive="true"
       inkscape:connector-curvature="0" />
    <path
       style="opacity:0.5;fill:none;stroke:#00ffcc;stroke-width:1px;stroke-linecap:square"
       d="m 369.5,94 -10,0"
       id="ref-C-right-4"
       sodipodi:insensitive="true"
       inkscape:connector-curvature="0" />
    <path
       style="opacity:0.5;fill:none;stroke:#00ffcc;stroke-width:1px;stroke-linecap:square"
       d="m 369.5,306 -10,0"
       id="ref-C-right-5"
       sodipodi:insensitive="true"
       inkscape:connector-curvature="0" />
    <path
       style="opacity:0.5;fill:none;stroke:#00ffcc;stroke-width:1px;stroke-linecap:square"
       d="m 369.5,308 -10,0"
       id="ref-C-right-6"
       sodipodi:insensitive="true"
       inkscape:connector-curvature="0" />
    <path
       style="opacity:0.5;fill:none;stroke:#00ffcc;stroke-width:1px;stroke-linecap:square"
       d="m 369.5,332 -10,0"
       id="ref-C-right-7"
       sodipodi:insensitive="true"
       inkscape:connector-curvature="0" />
    <path
       style="opacity:0.5;fill:none;stroke:#00ffcc;stroke-width:1px;stroke-linecap:square"
       d="m 369.5,334 -10,0"
       id="ref-C-right-8"
       sodipodi:insensitive="true"
       inkscape:connector-curvature="0" />
    <path
       style="opacity:0.5;fill:none;stroke:#ffc200;stroke-width:1px;stroke-linecap:square"
       d="m 189,369.5 0,-10"
       id="ref-S-bottom-1"
       sodipodi:insensitive="true"
       inkscape:connector-curvature="0" />
    <path
       style="opacity:0.5;fill:none;stroke:#ffc200;stroke-width:1px;stroke-linecap:square"
       d="m 191,369.5 0,-10"
       id="ref-S-bottom-2"
       sodipodi:insensitive="true"
       inkscape:connector-curvature="0" />
    <path
       style="opacity:0.5;fill:none;stroke:#ffc200;stroke-width:1px;stroke-linecap:square"
       d="m 209,369.5 0,-10"
       id="ref-S-bottom-3"
       sodipodi:insensitive="true"
       inkscape:connector-curvature="0" />
    <path
       style="opacity:0.5;fill:none;stroke:#ffc200;stroke-width:1px;stroke-linecap:square"
       d="m 211,369.5 0,-10"
       id="ref-S-bottom-4"
       sodipodi:insensitive="true"
       inkscape:connector-curvature="0" />
    <path
       style="opacity:0.5;fill:none;stroke:#00ff00;stroke-width:1px;stroke-linecap:square"
       d="m 199,369.5 0,-10"
       id="ref-I-bottom-1"
       sodipodi:insensitive="true"
       inkscape:connector-curvature="0" />
    <path
       style="opacity:0.5;fill:none;stroke:#00ff00;stroke-width:1px;stroke-linecap:square"
       d="m 201,369.5 0,-10"
       id="ref-I-bottom-2"
       sodipodi:insensitive="true"
       inkscape:connector-curvature="0" />
    <path
       style="opacity:0.5;fill:none;stroke:#00ffcc;stroke-width:1px;stroke-linecap:square"
       d="m 66,369.5 0,-10"
       id="ref-C-bottom-1"
       sodipodi:insensitive="true"
       inkscape:connector-curvature="0" />
    <path
       style="opacity:0.5;fill:none;stroke:#00ffcc;stroke-width:1px;stroke-linecap:square"
       d="m 68,369.5 0,-10"
       id="ref-C-bottom-2"
       sodipodi:insensitive="true"
       inkscape:connector-curvature="0" />
    <path
       style="opacity:0.5;fill:none;stroke:#00ffcc;stroke-width:1px;stroke-linecap:square"
       d="m 92,369.5 0,-10"
       id="ref-C-bottom-3"
       sodipodi:insensitive="true"
       inkscape:connector-curvature="0" />
    <path
       style="opacity:0.5;fill:none;stroke:#00ffcc;stroke-width:1px;stroke-linecap:square"
       d="m 94,369.5 0,-10"
       id="ref-C-bottom-4"
       sodipodi:insensitive="true"
       inkscape:connector-curvature="0" />
    <path
       style="opacity:0.5;fill:none;stroke:#00ffcc;stroke-width:1px;stroke-linecap:square"
       d="m 306,369.5 0,-10"
       id="ref-C-bottom-5"
       sodipodi:insensitive="true"
       inkscape:connector-curvature="0" />
    <path
       style="opacity:0.5;fill:none;stroke:#00ffcc;stroke-width:1px;stroke-linecap:square"
       d="m 308,369.5 0,-10"
       id="ref-C-bottom-6"
       sodipodi:insensitive="true"
       inkscape:connector-curvature="0" />
    <path
       style="opacity:0.5;fill:none;stroke:#00ffcc;stroke-width:1px;stroke-linecap:square"
       d="m 332,369.5 0,-10"
       id="ref-C-bottom-7"
       sodipodi:insensitive="true"
       inkscape:connector-curvature="0" />
    <path
       style="opacity:0.5;fill:none;stroke:#00ffcc;stroke-width:1px;stroke-linecap:square"
       d="m 334,369.5 0,-10"
       id="ref-C-bottom-8"
       sodipodi:insensitive="true"
       inkscape:connector-curvature="0" />
    <path
       style="opacity:0.5;fill:none;stroke:#ffc200;stroke-width:1px;stroke-linecap:square"
       d="m 30.5,189 10,0"
       id="ref-S-left-1"
       sodipodi:insensitive="true"
       inkscape:connector-curvature="0" />
    <path
       style="opacity:0.5;fill:none;stroke:#ffc200;stroke-width:1px;stroke-linecap:square"
       d="m 30.5,191 10,0"
       id="ref-S-left-2"
       sodipodi:insensitive="true"
       inkscape:connector-curvature="0" />
    <path
       style="opacity:0.5;fill:none;stroke:#ffc200;stroke-width:1px;stroke-linecap:square"
       d="m 30.5,209 10,0"
       id="ref-S-left-3"
       sodipodi:insensitive="true"
       inkscape:connector-curvature="0" />
    <path
       style="opacity:0.5;fill:none;stroke:#ffc200;stroke-width:1px;stroke-linecap:square"
       d="m 30.5,211 10,0"
       id="ref-S-left-4"
       sodipodi:insensitive="true"
       inkscape:connector-curvature="0" />
    <path
       style="opacity:0.5;fill:none;stroke:#00ff00;stroke-width:1px;stroke-linecap:square"
       d="m 40.5,199 -10,0"
       id="ref-I-left-1"
       sodipodi:insensitive="true"
       inkscape:connector-curvature="0" />
    <path
       style="opacity:0.5;fill:none;stroke:#00ff00;stroke-width:1px;stroke-linecap:square"
       d="m 40.5,201 -10,0"
       id="ref-I-left-2"
       sodipodi:insensitive="true"
       inkscape:connector-curvature="0" />
    <path
       style="opacity:0.5;fill:none;stroke:#00ffcc;stroke-width:1px;stroke-linecap:square"
       d="m 30.5,66 10,0"
       id="ref-C-left-1"
       sodipodi:insensitive="true"
       inkscape:connector-curvature="0" />
    <path
       style="opacity:0.5;fill:none;stroke:#00ffcc;stroke-width:1px;stroke-linecap:square"
       d="m 30.5,68 10,0"
       id="ref-C-left-2"
       sodipodi:insensitive="true"
       inkscape:connector-curvature="0" />
    <path
       style="opacity:0.5;fill:none;stroke:#00ffcc;stroke-width:1px;stroke-linecap:square"
       d="m 30.5,92 10,0"
       id="ref-C-left-3"
       sodipodi:insensitive="true"
       inkscape:connector-curvature="0" />
    <path
       style="opacity:0.5;fill:none;stroke:#00ffcc;stroke-width:1px;stroke-linecap:square"
       d="m 30.5,94 10,0"
       id="ref-C-left-4"
       sodipodi:insensitive="true"
       inkscape:connector-curvature="0" />
    <path
       style="opacity:0.5;fill:none;stroke:#00ffcc;stroke-width:1px;stroke-linecap:square"
       d="m 30.5,306 10,0"
       id="ref-C-left-5"
       sodipodi:insensitive="true"
       inkscape:connector-curvature="0" />
    <path
       style="opacity:0.5;fill:none;stroke:#00ffcc;stroke-width:1px;stroke-linecap:square"
       d="m 30.5,308 10,0"
       id="ref-C-left-6"
       sodipodi:insensitive="true"
       inkscape:connector-curvature="0" />
    <path
       style="opacity:0.5;fill:none;stroke:#00ffcc;stroke-width:1px;stroke-linecap:square"
       d="m 30.5,332 10,0"
       id="ref-C-left-7"
       sodipodi:insensitive="true"
       inkscape:connector-curvature="0" />
    <path
       style="opacity:0.5;fill:none;stroke:#00ffcc;stroke-width:1px;stroke-linecap:square"
       d="m 30.5,334 10,0"
       id="ref-C-left-8"
       sodipodi:insensitive="true"
       inkscape:connector-curvature="0" />
    <path
       style="fill:none;stroke:#000000;stroke-width:1px;stroke-linecap:square"
       d="m 190,30.5 0,10"
       id="S-top-1"
       inkscape:connector-curvature="0" />
    <path
       style="fill:none;stroke:#000000;stroke-width:1px;stroke-linecap:square"
       d="m 210,30.5 0,10"
       id="S-top-2"
       inkscape:connector-curvature="0" />
    <path
       style="fill:none;stroke:#000000;stroke-width:1px;stroke-linecap:square"
       d="m 369.5,190 -10,0"
       id="S-right-1"
       inkscape:connector-curvature="0" />
    <path
       style="fill:none;stroke:#000000;stroke-width:1px;stroke-linecap:square"
       d="m 369.5,210 -10,0"
       id="S-right-2"
       inkscape:connector-curvature="0" />
    <path
       style="fill:none;stroke:#000000;stroke-width:1px;stroke-linecap:square"
       d="m 190,369.5 0,-10"
       id="S-bottom-1"
       inkscape:connector-curvature="0" />
    <path
       style="fill:none;stroke:#000000;stroke-width:1px;stroke-linecap:square"
       d="m 210,369.5 0,-10"
       id="S-bottom-2"
       inkscape:connector-curvature="0" />
    <path
       style="fill:none;stroke:#000000;stroke-width:1px;stroke-linecap:square"
       d="m 30.5,190 10,0"
       id="S-left-1"
       inkscape:connector-curvature="0" />
    <path
       style="fill:none;stroke:#000000;stroke-width:1px;stroke-linecap:square"
       d="m 30.5,210 10,0"
       id="S-left-2"
       inkscape:connector-curvature="0" />
    <path
       style="fill:none;stroke:#000000;stroke-width:1px;stroke-linecap:square"
       d="m 200,30.5 0,10"
       id="I-top-1"
       inkscape:connector-curvature="0" />
    <path
       style="fill:none;stroke:#000000;stroke-width:1px;stroke-linecap:square"
       d="m 369.5,200 -10,0"
       id="I-right-1"
       inkscape:connector-curvature="0" />
    <path
       style="fill:none;stroke:#000000;stroke-width:1px;stroke-linecap:square"
       d="m 200,369.5 0,-10"
       id="I-bottom-1"
       inkscape:connector-curvature="0" />
    <path
       style="fill:none;stroke:#000000;stroke-width:1px;stroke-linecap:square"
       d="m 40.5,200 -10,0"
       id="I-left-1"
       inkscape:connector-curvature="0" />
    <path
       style="fill:none;stroke:#000000;stroke-width:1px;stroke-linecap:square"
       d="m 67,30.5 0,10"
       id="C-top-1"
       inkscape:connector-curvature="0" />
    <path
       style="fill:none;stroke:#000000;stroke-width:1px;stroke-linecap:square"
       d="m 93,30.5 0,10"
       id="C-top-2"
       inkscape:connector-curvature="0" />
    <path
       style="fill:none;stroke:#000000;stroke-width:1px;stroke-linecap:square"
       d="m 307,30.5 0,10"
       id="C-top-3"
       inkscape:connector-curvature="0" />
    <path
       style="fill:none;stroke:#000000;stroke-width:1px;stroke-linecap:square"
       d="m 333,30.5 0,10"
       id="C-top-4"
       inkscape:connector-curvature="0" />
    <path
       style="fill:none;stroke:#000000;stroke-width:1px;stroke-linecap:square"
       d="m 369.5,67 -10,0"
       id="C-right-1"
       inkscape:connector-curvature="0" />
    <path
       style="fill:none;stroke:#000000;stroke-width:1px;stroke-linecap:square"
       d="m 369.5,93 -10,0"
       id="C-right-2"
       inkscape:connector-curvature="0" />
    <path
       style="fill:none;stroke:#000000;stroke-width:1px;stroke-linecap:square"
       d="m 369.5,307 -10,0"
       id="C-right-3"
       inkscape:connector-curvature="0" />
    <path
       style="fill:none;stroke:#000000;stroke-width:1px;stroke-linecap:square"
       d="m 369.5,333 -10,0"
       id="C-right-4"
       inkscape:connector-curvature="0" />
    <path
       style="fill:none;stroke:#000000;stroke-width:1px;stroke-linecap:square"
       d="m 67,369.5 0,-10"
       id="C-bottom-1"
       inkscape:connector-curvature="0" />
    <path
       style="fill:none;stroke:#000000;stroke-width:1px;stroke-linecap:square"
       d="m 93,369.5 0,-10"
       id="C-bottom-2"
       inkscape:connector-curvature="0" />
    <path
       style="fill:none;stroke:#000000;stroke-width:1px;stroke-linecap:square"
       d="m 307,369.5 0,-10"
       id="C-bottom-3"
       inkscape:connector-curvature="0" />
    <path
       style="fill:none;stroke:#000000;stroke-width:1px;stroke-linecap:square"
       d="m 333,369.5 0,-10"
       id="C-bottom-4"
       inkscape:connector-curvature="0" />
    <path
       style="fill:none;stroke:#000000;stroke-width:1px;stroke-linecap:square"
       d="m 30.5,67 10,0"
       id="C-left-1"
       inkscape:connector-curvature="0" />
    <path
       style="fill:none;stroke:#000000;stroke-width:1px;stroke-linecap:square"
       d="m 30.5,93 10,0"
       id="C-left-2"
       inkscape:connector-curvature="0" />
    <path
       style="fill:none;stroke:#000000;stroke-width:1px;stroke-linecap:square"
       d="m 30.5,307 10,0"
       id="C-left-3"
       inkscape:connector-curvature="0" />
    <path
       style="fill:none;stroke:#000000;stroke-width:1px;stroke-linecap:square"
       d="m 30.5,333 10,0"
       id="C-left-4"
       inkscape:connector-curvature="0" />
  </g>
  <g
     inkscape:groupmode="layer"
     id="layer3"
     inkscape:label="BACK-001"
     style="display:inline"
     sodipodi:insensitive="true">
    <path
       style="fill:#000000;stroke:none;display:inline"
       d="m 35.5,338 0,-133 329,0 0,133 z"
       id="I-bottom-1-5"
       inkscape:connector-curvature="0"
       sodipodi:nodetypes="ccccc" />
  </g>
  <g
     inkscape:groupmode="layer"
     id="layer1"
     inkscape:label="U-001"
     style="display:inline"
     sodipodi:insensitive="true">
    <path
       sodipodi:nodetypes="cccssc"
       inkscape:connector-curvature="0"
       id="path3188"
       d="m 369.5,67 0,266 -169.34543,0 C 137.66244,333 87.35289,282.69045 87.35289,220.19832 l 0,-40.39664 C 87.35289,117.30955 137.66244,67 200.15457,67"
       style="fill:#000000;stroke:none;display:inline"
       zpos="-20" />
    <path
       style="fill:none;stroke:#000000;stroke-width:1px;stroke-linecap:square;display:inline"
       d="m 87.35289,220.19832 0,-40.39664 C 87.35289,117.30955 137.66244,67 200.15457,67 L 359.5,67 l 10,0"
       id="C-top-4-6"
       inkscape:connector-curvature="0"
       sodipodi:nodetypes="csccc" />
  </g>
  <g
     inkscape:label="U-002"
     id="g3179"
     inkscape:groupmode="layer"
     style="display:none"
     sodipodi:insensitive="true">
    <path
       sodipodi:nodetypes="cccscc"
       style="fill:#000000;stroke:none;display:inline"
       d="m 369.5,333 0,-266 -109.14711,0 c -73.682,0 -133,59.318 -133,133 0,73.682 59.318,133 133,133 z"
       id="path3199"
       inkscape:connector-curvature="0"
       zpos="-20" />
    <path
       inkscape:connector-curvature="0"
       id="path3181"
       d="m 369.5,67 -10,0 -99.14711,0 c -73.682,0 -133,59.318 -133,133"
       style="fill:none;stroke:#000000;stroke-width:1px;stroke-linecap:square;display:inline"
       sodipodi:nodetypes="cccc" />
  </g>
  <g
     style="display:none"
     inkscape:groupmode="layer"
     id="g3201"
     inkscape:label="U-003"
     sodipodi:insensitive="true">
    <path
       inkscape:connector-curvature="0"
       id="path3203"
       d="m 369.5,333 0,-266 -169.14711,0 c -73.682,0 -133,59.318 -133,133 0,73.682 59.318,133 133,133 z"
       style="fill:#000000;stroke:none;display:inline"
       sodipodi:nodetypes="cccscc"
       zpos="-20" />
    <path
       sodipodi:nodetypes="cccc"
       style="fill:none;stroke:#000000;stroke-width:1px;stroke-linecap:square;display:inline"
       d="m 369.5,67 -10,0 -159.14711,0 c -73.682,0 -133,59.318 -133,133"
       id="path3205"
       inkscape:connector-curvature="0" />
  </g>
  <g
     style="display:none"
     inkscape:groupmode="layer"
     id="g3190"
     inkscape:label="U-004"
     sodipodi:insensitive="true">
    <path
       sodipodi:nodetypes="csscccc"
       inkscape:connector-curvature="0"
       id="path3216"
       d="M 203.60698,333 C 139.20221,333 87.35289,281.15068 87.35289,216.74591 l 0,-33.49182 C 87.35289,118.84932 139.20221,67 203.60698,67 L 369.5,67 l 0,266 z"
       style="fill:#000000;stroke:none;display:inline"
       zpos="-20" />
    <path
       style="fill:none;stroke:#000000;stroke-width:1px;stroke-linecap:square;display:inline"
       d="m 87.35289,216.74591 0,-33.49182 C 87.35289,118.84932 139.20221,67 203.60698,67 L 359.5,67 l 10,0"
       id="path3194"
       inkscape:connector-curvature="0"
       sodipodi:nodetypes="csccc" />
  </g>
  <g
     inkscape:label="U-005"
     id="g3310"
     inkscape:groupmode="layer"
     style="display:none"
     sodipodi:insensitive="true">
    <path
       zpos="-20"
       style="fill:#000000;stroke:none;display:inline"
       d="M 293.60698,333 C 229.20221,333 177.35289,281.15068 177.35289,216.74591 l 0,-33.49182 C 177.35289,118.84932 229.20221,67 293.60698,67 l 75.89302,0 0,266 z"
       id="path3312"
       inkscape:connector-curvature="0"
       sodipodi:nodetypes="csscccc" />
    <path
       sodipodi:nodetypes="csccc"
       inkscape:connector-curvature="0"
       id="path3314"
       d="m 177.35289,216.74591 0,-33.49182 C 177.35289,118.84932 229.20221,67 293.60698,67 l 65.89302,0 10,0"
       style="fill:none;stroke:#000000;stroke-width:1px;stroke-linecap:square;display:inline" />
  </g>
  <g
     inkscape:label="V-001"
     id="g3244"
     inkscape:groupmode="layer"
     style="display:none"
     sodipodi:insensitive="true">
    <path
       style="fill:#ffffff;stroke:none;display:inline"
       d="m 319.821,239 c -7.93405,0 -14.321,6.38734 -14.321,14.32139 l 0,65.35722 C 305.5,326.61266 311.88734,333 319.82139,333 l 39.67861,0 10,0 0,10 -10,0 -329,0 0,-143 10,0 279.321,0 z"
       id="path3258"
       inkscape:connector-curvature="0"
       sodipodi:nodetypes="csssccccccccc" />
    <path
       style="fill:none;stroke:#000000;stroke-width:1px;stroke-linecap:square;display:inline"
       d="m 369.5,333 -10,0 -39.67861,0 C 311.88734,333 305.5,326.61266 305.5,318.67861 L 305.5,286"
       id="path3964"
       inkscape:connector-curvature="0" />
    <path
       style="fill:none;stroke:#000000;stroke-width:1px;stroke-linecap:square;display:inline"
       d="m 319.821,200 -279.321,0 -10,0"
       id="path3248"
       inkscape:connector-curvature="0" />
  </g>
  <g
     style="display:none"
     inkscape:groupmode="layer"
     id="g3304"
     inkscape:label="V-002"
     sodipodi:insensitive="true">
    <path
       inkscape:connector-curvature="0"
       id="path3306"
       d="m 30.5,200 10,0 94.32139,0 40.35722,0 c 7.93405,0 14.32139,6.38734 14.32139,14.32139 l 0,10.35722 C 189.5,232.61266 183.11266,239 175.17861,239 l -55.35722,0 C 111.88734,239 105.5,245.38734 105.5,253.32139 l 0,65.35722 C 105.5,326.61266 111.88734,333 119.82139,333 l 239.67861,0 10,0 0,10 -10,0 -329,0 z"
       style="fill:#ffffff;stroke:none;display:inline"
       sodipodi:nodetypes="cccsssccssccccccc" />
    <path
       sodipodi:nodetypes="cccssccsssccc"
       style="fill:none;stroke:#000000;stroke-width:1px;stroke-linecap:square;display:inline"
       d="m 369.5,333 -10,0 -239.67861,0 C 111.88734,333 105.5,326.61266 105.5,318.67861 l 0,-65.35722 C 105.5,245.38734 111.88734,239 119.82139,239 l 55.35722,0 C 183.11266,239 189.5,232.61266 189.5,224.67861 l 0,-10.35722 C 189.5,206.38734 183.11266,200 175.17861,200 l -40.35722,0 -94.32139,0 -10,0"
       id="path3308"
       inkscape:connector-curvature="0" />
  </g>
  <g
     style="display:inline"
     inkscape:label="V-003"
     id="g3260"
     inkscape:groupmode="layer"
     sodipodi:insensitive="true">
    <path
       style="fill:#ffffff;stroke:none;display:inline"
       d="M 236.58417,200 30.5,200 l 0,143 339,0 0,-10 -226.83166,0 C 124.29308,333 109.5,318.1705 109.5,299.75 c 0,-18.4205 14.79308,-33.25 33.16834,-33.25 l 144,0 z"
       id="path3316"
       inkscape:connector-curvature="0"
       sodipodi:nodetypes="cccccssscc" />
    <path
       style="fill:none;stroke:#000000;stroke-width:1px;stroke-linecap:square;display:inline"
       d="m 369.5,333 -10,0 -216.83166,0 C 124.29308,333 109.5,318.1705 109.5,299.75 c 0,-18.4205 14.79308,-33.25 33.16834,-33.25 l 144,0"
       id="path3988"
       inkscape:connector-curvature="0"
       sodipodi:nodetypes="ccsssc" />
    <path
       style="fill:none;stroke:#000000;stroke-width:1px;stroke-linecap:square;display:inline"
       d="M 236.58417,200 42.5,200 l -12,0"
       id="path3264"
       inkscape:connector-curvature="0"
       sodipodi:nodetypes="ccc" />
  </g>
  <g
     inkscape:groupmode="layer"
     id="g3326"
     inkscape:label="V-004"
     style="display:none"
     sodipodi:insensitive="true">
    <path
       inkscape:connector-curvature="0"
       id="path3328"
       d="M 142.66834,333 C 124.29308,333 109.5,318.1705 109.5,299.75 c 0,-18.4205 14.79308,-33.25 33.16834,-33.25 l 30,0 c 18.37526,0 33.16834,-14.8295 33.16834,-33.25 0,-18.4205 -14.79308,-33.25 -33.16834,-33.25 L 30.5,200 l 0,143 339,0 0,-10 z"
       style="fill:#ffffff;stroke:none;display:inline"
       sodipodi:nodetypes="csccscccccc" />
    <path
       sodipodi:nodetypes="cccsccsccc"
       style="fill:none;stroke:#000000;stroke-width:1px;stroke-linecap:square;display:inline"
       d="m 369.5,333 -10,0 -216.83166,0 C 124.29308,333 109.5,318.1705 109.5,299.75 c 0,-18.4205 14.79308,-33.25 33.16834,-33.25 l 30,0 c 18.37526,0 33.16834,-14.8295 33.16834,-33.25 0,-18.4205 -14.79308,-33.25 -33.16834,-33.25 L 42.5,200 l -12,0"
       id="path3330"
       inkscape:connector-curvature="0" />
  </g>
  <g
     style="display:none"
     inkscape:label="V-005"
     id="g3332"
     inkscape:groupmode="layer"
     sodipodi:insensitive="true">
    <path
       sodipodi:nodetypes="cccccsscccccc"
       style="fill:#ffffff;stroke:none;display:inline"
       d="M 142.66834,333 C 124.29308,333 109.5,318.1705 109.5,299.75 l 0,-55.42861 C 109.5,236.38734 115.88734,230 123.82139,230 l 181.35722,0 C 313.11266,230 319.5,223.61266 319.5,215.67861 l 0,-1.35722 C 319.5,206.38734 313.11266,200 305.17861,200 L 30.5,200 l 0,143 339,0 0,-10 z"
       id="path3356"
       inkscape:connector-curvature="0" />
    <path
       inkscape:connector-curvature="0"
       id="path3336"
       d="m 369.5,333 -10,0 -216.83166,0 C 124.29308,333 109.5,318.1705 109.5,299.75 l 0,-55.42861 C 109.5,236.38734 115.88734,230 123.82139,230 l 181.35722,0 C 313.11266,230 319.5,223.61266 319.5,215.67861 l 0,-1.35722 C 319.5,206.38734 313.11266,200 305.17861,200 l -170.35722,0 -94.32139,0 -10,0"
       style="fill:none;stroke:#000000;stroke-width:1px;stroke-linecap:square;display:inline"
       sodipodi:nodetypes="cccccccsssccc" />
  </g>
  <g
     inkscape:groupmode="layer"
     id="g3360"
     inkscape:label="V-006"
     style="display:none"
     sodipodi:insensitive="true">
    <path
       sodipodi:nodetypes="ccsssssccccccc"
       inkscape:connector-curvature="0"
       id="path3375"
       d="m 30.5,200 274.67861,0 c 7.93405,0 14.32139,6.38734 14.32139,14.32139 l 0,1.35722 C 319.5,223.61266 313.11266,230 305.17861,230 l -51.35722,0 C 245.88734,230 239.5,236.38734 239.5,244.32139 l 0,19.17861 c 0,38.3838 31.11621,69.5 69.5,69.5 l 50.5,0 10,0 0,10 -339,0 z"
       style="fill:#ffffff;stroke:none;display:inline" />
    <path
       style="fill:none;stroke:#000000;stroke-width:1px;stroke-linecap:square;display:inline"
       d="m 369.5,333 -10,0 -50.5,0 c -38.38379,0 -69.5,-31.1162 -69.5,-69.5 l 0,-19.17861 C 239.5,236.38734 245.88734,230 253.82139,230 l 51.35722,0 C 313.11266,230 319.5,223.61266 319.5,215.67861 l 0,-1.35722 C 319.5,206.38734 313.11266,200 305.17861,200 L 40.5,200 l -10,0"
       id="path3368"
       inkscape:connector-curvature="0"
       sodipodi:nodetypes="ccccsssssccc" />
  </g>
  <g
     inkscape:groupmode="layer"
     id="layer2"
     inkscape:label="FOOT-06"
     zpos="5000"
     sodipodi:insensitive="true">
    <path
       sodipodi:nodetypes="cssccsscc"
       inkscape:connector-curvature="0"
       id="path4152"
       d="m 650,37.5 0,95.99999 C 650,243.6808 560.68081,332.99999 450.49999,333 l -96.99999,0 -40,-266 4,0 C 354.22694,67 384,37.22693 384,0.5 l 0,-23 z"
       style="color:#000000;fill:#000000;stroke:none;stroke-width:1;marker:none;visibility:visible;display:inline;overflow:visible;enable-background:accumulate" />
    <path
       style="color:#000000;fill:none;stroke:#000000;stroke-width:1;stroke-linecap:butt;stroke-linejoin:miter;stroke-miterlimit:4;stroke-opacity:1;stroke-dasharray:none;stroke-dashoffset:0;marker:none;visibility:visible;display:inline;overflow:visible;enable-background:accumulate"
       d="m 650,37.5 0,95.99999 C 650,243.6808 560.68081,333 450.49999,333 L 339.5,333"
       id="path4154"
       inkscape:connector-curvature="0"
       sodipodi:nodetypes="cssc" />
    <path
       sodipodi:nodetypes="ccssc"
       inkscape:connector-curvature="0"
       id="path4156"
       d="m 303,67 10.5,0 4,0 C 354.22694,67 384,37.22693 384,0.5 l 0,-23"
       style="fill:none;stroke:#000000;stroke-width:1px;stroke-linecap:butt;display:inline" />
    <path
       sodipodi:nodetypes="ccsscscscszccc"
       inkscape:connector-curvature="0"
       id="path3338-1"
       d="m 384.18244,-7.93734 -0.36488,-60.93959 278.74789,-72.76828 c 12.98754,-3.39045 26.41422,-2.70607 33.1594,8.9668 6.74516,11.67354 1.13482,29.62121 -11.80881,33.17529 12.94168,-3.55411 26.4139,-2.70638 33.15874,8.9668 6.74649,11.67318 -0.87229,29.59132 -13.80765,33.17578 12.93451,-3.58377 29.67045,-1.05649 33.1599,11.96632 4.60606,17.19006 -6.94516,26.34238 -19.80799,30.17561 12.86315,-3.83392 25.95002,-2.42603 33.16056,8.96616 7.23357,11.4297 4.35253,26.15182 -8.80814,33.17593 -13.16036,7.0238 -90.97251,32.46525 -90.97251,32.46525 l 0.002,24.67558 z"
       style="fill:#000000;stroke:none;display:inline" />
    <path
       style="fill:none;stroke:#000000;stroke-width:1;display:inline"
       d="m 384,-5.93734 0,-62.93959 278.56545,-72.76828 c 12.98699,-3.39253 26.41422,-2.70607 33.1594,8.9668 6.74517,11.67354 1.13482,29.62121 -11.80782,33.17529 l -52.32422,14.36836"
       id="path3384-3-2"
       inkscape:connector-curvature="0"
       sodipodi:nodetypes="ccsssc" />
    <path
       style="fill:none;stroke:#000000;stroke-width:1;display:inline"
       d="m 633.99466,-38.16576 69.27263,-19.1946 c 12.93435,-3.58395 29.67029,-1.05667 33.15974,11.96614 4.60606,17.19006 -6.94516,26.34238 -19.80815,30.17595 L 633.71462,9.48975"
       id="path3386-6-7"
       inkscape:connector-curvature="0"
       sodipodi:nodetypes="csssc" />
    <path
       style="fill:none;stroke:#000000;stroke-width:1;display:inline"
       d="m 631.59116,-85.13476 52.32389,-14.36836 c 12.94267,-3.55411 26.41489,-2.70638 33.15973,8.9668 6.74649,11.67318 -0.87229,29.59131 -13.80782,33.17561 l -69.2723,19.19461"
       id="path3388-7-0"
       inkscape:connector-curvature="0"
       sodipodi:nodetypes="csssc" />
    <path
       sodipodi:nodetypes="csszcc"
       inkscape:connector-curvature="0"
       id="path3390-5-9"
       d="m 633.71429,9.4894 82.90491,-24.70834 c 12.86299,-3.83359 25.94986,-2.4257 33.1604,8.96649 7.23357,11.4297 4.35253,26.15182 -8.80814,33.17593 C 727.8111,33.94728 650,59.38873 650,59.38873 l 0,34.67558"
       style="fill:none;stroke:#000000;stroke-width:1;display:inline" />
  </g>
  <g
     style="display:none"
     inkscape:groupmode="layer"
     id="g3966"
     inkscape:label="V-001"
     zpos="6000"
     sodipodi:insensitive="true">
    <path
       sodipodi:nodetypes="csssscc"
       inkscape:connector-curvature="0"
       id="path3968"
       d="m 299.821,200 45.35761,0 c 7.93405,0 14.32139,6.38734 14.32139,14.32139 l 0,10.35722 C 359.5,232.61266 353.11266,239 345.17861,239 l -45.35761,0 z"
       style="fill:#ffffff;stroke:none;display:inline" />
    <path
       id="path3974"
       d="m 305.5,286 0,-32.67861 C 305.5,245.38734 311.88734,239 319.82139,239"
       style="fill:none;stroke:#000000;stroke-width:1px;stroke-linecap:round;display:inline"
       inkscape:connector-curvature="0" />
    <path
       sodipodi:nodetypes="cssssc"
       inkscape:connector-curvature="0"
       id="path3978"
       d="m 319.82139,239 25.35722,0 C 353.11266,239 359.5,232.61266 359.5,224.67861 l 0,-10.35722 C 359.5,206.38734 353.11266,200 345.17861,200 l -65.35761,0"
       style="fill:none;stroke:#000000;stroke-width:1px;stroke-linecap:round;display:inline" />
  </g>
  <g
     inkscape:groupmode="layer"
     id="g3990"
     inkscape:label="V-003"
     style="display:inline"
     zpos="6000"
     sodipodi:insensitive="true">
    <path
       sodipodi:nodetypes="cssscc"
       inkscape:connector-curvature="0"
       id="path3992"
       d="m 278.66834,266.5 54,0 c 18.37526,0 33.16834,-14.8295 33.16834,-33.25 0,-18.4205 -14.79308,-33.25 -33.16834,-33.25 l -104.08417,0 z"
       style="fill:#ffffff;stroke:none;display:inline" />
    <path
       sodipodi:nodetypes="csssc"
       inkscape:connector-curvature="0"
       id="path4000"
       d="m 266.66834,266.5 66,0 c 18.37526,0 33.16834,-14.8295 33.16834,-33.25 0,-18.4205 -14.79308,-33.25 -33.16834,-33.25 l -116.08417,0"
       style="fill:none;stroke:#000000;stroke-width:1px;stroke-linecap:round;display:inline" />
  </g>
</svg>
