<?xml version="1.0" encoding="UTF-8" standalone="no"?>
<!-- Created with Inkscape (http://www.inkscape.org/) -->

<svg
   xmlns:dc="http://purl.org/dc/elements/1.1/"
   xmlns:cc="http://creativecommons.org/ns#"
   xmlns:rdf="http://www.w3.org/1999/02/22-rdf-syntax-ns#"
   xmlns:svg="http://www.w3.org/2000/svg"
   xmlns="http://www.w3.org/2000/svg"
   xmlns:sodipodi="http://sodipodi.sourceforge.net/DTD/sodipodi-0.dtd"
   xmlns:inkscape="http://www.inkscape.org/namespaces/inkscape"
   style="display:inline"
   sodipodi:docname="191101_Tntkl-R+_UW_00_00_00_.svg"
   inkscape:version="0.48.3.1 r9886"
   version="1.1"
   id="svg2902"
   height="400"
   width="400">
  <sodipodi:namedview
     id="base"
     pagecolor="#f0f0f0"
     bordercolor="#666666"
     borderopacity="1.0"
     inkscape:pageopacity="1"
     inkscape:pageshadow="2"
     inkscape:zoom="1.045806859"
     inkscape:cx="158.398045"
     inkscape:cy="171.2675646"
     inkscape:document-units="px"
     inkscape:current-layer="layer4"
     showgrid="false"
     inkscape:window-width="1018"
     inkscape:window-height="709"
     inkscape:window-x="0"
     inkscape:window-y="1"
     inkscape:window-maximized="0"
     showguides="true"
     inkscape:guide-bbox="true"
     inkscape:snap-bbox="true"
     inkscape:snap-global="false" />
  <defs
     id="defs2904">
    <clipPath
       clipPathUnits="userSpaceOnUse"
       id="clipPath5174">
      <path
         id="path5176"
         style="opacity:0.5;fill:#00ff00;stroke:#00ff00;stroke-width:1px;stroke-linecap:square;display:inline"
         d="m 436.26971,600.11436 -232.09481,134 -169.500003,-293.58262 232.094813,-134 z"
         inkscape:connector-curvature="0"
         sodipodi:nodetypes="ccccc" />
    </clipPath>
    <clipPath
       clipPathUnits="userSpaceOnUse"
       id="clipPath5174-5">
      <path
         id="path5176-9"
         style="opacity:0.5;fill:#00ff00;stroke:#00ff00;stroke-width:1px;stroke-linecap:square;display:inline"
         d="m 436.26971,600.11436 -232.09481,134 -169.500003,-293.58262 232.094813,-134 z"
         inkscape:connector-curvature="0"
         sodipodi:nodetypes="ccccc" />
    </clipPath>
    <clipPath
       clipPathUnits="userSpaceOnUse"
       id="clipPath3238">
      <path
         sodipodi:nodetypes="ccccc"
         inkscape:connector-curvature="0"
         d="m 461.26971,643.41563 -232.09481,134 -169.500002,-293.58262 232.094812,-134 z"
         style="opacity:0.5;fill:#00ff00;stroke:#00ff00;stroke-width:1px;stroke-linecap:square;display:inline"
         id="path3240" />
    </clipPath>
  </defs>
  <metadata
     id="metadata2907">
    <rdf:RDF>
      <cc:Work
         rdf:about="">
        <dc:format>image/svg+xml</dc:format>
        <dc:type
           rdf:resource="http://purl.org/dc/dcmitype/StillImage" />
        <dc:title />
      </cc:Work>
    </rdf:RDF>
  </metadata>
  <g
     inkscape:groupmode="layer"
     id="bg"
     inkscape:label="XX_BG"
     sodipodi:insensitive="true">
    <path
       style="fill:#ffaaaa"
       d="M 400,0 400,400 0,400 0,0 z"
       id="bgrect"
       inkscape:connector-curvature="0" />
  </g>
  <g
     inkscape:label="XX_REFERENZ"
     inkscape:groupmode="layer"
     id="XX_referenz"
     style="display:none"
     sodipodi:insensitive="true">
    <path
       id="innerframe"
       style="fill:none;stroke:#ffff00;stroke-width:1"
       d="m 40.5,40.5 319,0 0,319 -319,0 0,-319 z"
       inkscape:label="#innerframe"
       sodipodi:insensitive="true"
       inkscape:connector-curvature="0" />
    <path
       id="outerframe"
       style="fill:none;stroke:#ffff00;stroke-width:1"
       d="m 30.5,30.5 339,0 0,339 -339,0 0,-339 z"
       inkscape:label="#outerframe"
       sodipodi:nodetypes="ccccc"
       sodipodi:insensitive="true"
       inkscape:connector-curvature="0" />
    <path
       style="opacity:0.5;fill:none;stroke:#ffc200;stroke-width:1px;stroke-linecap:square"
       d="m 189,30.5 0,10"
       id="ref-S-top-1"
       sodipodi:insensitive="true"
       inkscape:connector-curvature="0" />
    <path
       style="opacity:0.5;fill:none;stroke:#ffc200;stroke-width:1px;stroke-linecap:square"
       d="m 191,30.5 0,10"
       id="ref-S-top-2"
       sodipodi:insensitive="true"
       inkscape:connector-curvature="0" />
    <path
       style="opacity:0.5;fill:none;stroke:#ffc200;stroke-width:1px;stroke-linecap:square"
       d="m 209,30.5 0,10"
       id="ref-S-top-3"
       sodipodi:insensitive="true"
       inkscape:connector-curvature="0" />
    <path
       style="opacity:0.5;fill:none;stroke:#ffc200;stroke-width:1px;stroke-linecap:square"
       d="m 211,30.5 0,10"
       id="ref-S-top-4"
       sodipodi:insensitive="true"
       inkscape:connector-curvature="0" />
    <path
       style="opacity:0.5;fill:none;stroke:#00ff00;stroke-width:1px;stroke-linecap:square"
       d="m 199,30.5 0,10"
       id="ref-I-top-1"
       sodipodi:insensitive="true"
       inkscape:connector-curvature="0" />
    <path
       style="opacity:0.5;fill:none;stroke:#00ff00;stroke-width:1px;stroke-linecap:square"
       d="m 201,30.5 0,10"
       id="ref-I-top-2"
       sodipodi:insensitive="true"
       inkscape:connector-curvature="0" />
    <path
       style="opacity:0.5;fill:none;stroke:#00ffcc;stroke-width:1px;stroke-linecap:square"
       d="m 66,30.5 0,10"
       id="ref-C-top-1"
       sodipodi:insensitive="true"
       inkscape:connector-curvature="0" />
    <path
       style="opacity:0.5;fill:none;stroke:#00ffcc;stroke-width:1px;stroke-linecap:square"
       d="m 68,30.5 0,10"
       id="ref-C-top-2"
       sodipodi:insensitive="true"
       inkscape:connector-curvature="0" />
    <path
       style="opacity:0.5;fill:none;stroke:#00ffcc;stroke-width:1px;stroke-linecap:square"
       d="m 92,30.5 0,10"
       id="ref-C-top-3"
       sodipodi:insensitive="true"
       inkscape:connector-curvature="0" />
    <path
       style="opacity:0.5;fill:none;stroke:#00ffcc;stroke-width:1px;stroke-linecap:square"
       d="m 94,30.5 0,10"
       id="ref-C-top-4"
       sodipodi:insensitive="true"
       inkscape:connector-curvature="0" />
    <path
       style="opacity:0.5;fill:none;stroke:#00ffcc;stroke-width:1px;stroke-linecap:square"
       d="m 306,30.5 0,10"
       id="ref-C-top-5"
       sodipodi:insensitive="true"
       inkscape:connector-curvature="0" />
    <path
       style="opacity:0.5;fill:none;stroke:#00ffcc;stroke-width:1px;stroke-linecap:square"
       d="m 308,30.5 0,10"
       id="ref-C-top-6"
       sodipodi:insensitive="true"
       inkscape:connector-curvature="0" />
    <path
       style="opacity:0.5;fill:none;stroke:#00ffcc;stroke-width:1px;stroke-linecap:square"
       d="m 332,30.5 0,10"
       id="ref-C-top-7"
       sodipodi:insensitive="true"
       inkscape:connector-curvature="0" />
    <path
       style="opacity:0.5;fill:none;stroke:#00ffcc;stroke-width:1px;stroke-linecap:square"
       d="m 334,30.5 0,10"
       id="ref-C-top-8"
       sodipodi:insensitive="true"
       inkscape:connector-curvature="0" />
    <path
       style="opacity:0.5;fill:none;stroke:#ffc200;stroke-width:1px;stroke-linecap:square"
       d="m 369.5,189 -10,0"
       id="ref-S-right-1"
       sodipodi:insensitive="true"
       inkscape:connector-curvature="0" />
    <path
       style="opacity:0.5;fill:none;stroke:#ffc200;stroke-width:1px;stroke-linecap:square"
       d="m 369.5,191 -10,0"
       id="ref-S-right-2"
       sodipodi:insensitive="true"
       inkscape:connector-curvature="0" />
    <path
       style="opacity:0.5;fill:none;stroke:#ffc200;stroke-width:1px;stroke-linecap:square"
       d="m 369.5,209 -10,0"
       id="ref-S-right-3"
       sodipodi:insensitive="true"
       inkscape:connector-curvature="0" />
    <path
       style="opacity:0.5;fill:none;stroke:#ffc200;stroke-width:1px;stroke-linecap:square"
       d="m 369.5,211 -10,0"
       id="ref-S-right-4"
       sodipodi:insensitive="true"
       inkscape:connector-curvature="0" />
    <path
       style="opacity:0.5;fill:none;stroke:#00ff00;stroke-width:1px;stroke-linecap:square"
       d="m 369.5,199 -10,0"
       id="ref-I-right-1"
       sodipodi:insensitive="true"
       inkscape:connector-curvature="0" />
    <path
       style="opacity:0.5;fill:none;stroke:#00ff00;stroke-width:1px;stroke-linecap:square"
       d="m 369.5,201 -10,0"
       id="ref-I-right-2"
       sodipodi:insensitive="true"
       inkscape:connector-curvature="0" />
    <path
       style="opacity:0.5;fill:none;stroke:#00ffcc;stroke-width:1px;stroke-linecap:square"
       d="m 369.5,66 -10,0"
       id="ref-C-right-1"
       sodipodi:insensitive="true"
       inkscape:connector-curvature="0" />
    <path
       style="opacity:0.5;fill:none;stroke:#00ffcc;stroke-width:1px;stroke-linecap:square"
       d="m 369.5,68 -10,0"
       id="ref-C-right-2"
       sodipodi:insensitive="true"
       inkscape:connector-curvature="0" />
    <path
       style="opacity:0.5;fill:none;stroke:#00ffcc;stroke-width:1px;stroke-linecap:square"
       d="m 369.5,92 -10,0"
       id="ref-C-right-3"
       sodipodi:insensitive="true"
       inkscape:connector-curvature="0" />
    <path
       style="opacity:0.5;fill:none;stroke:#00ffcc;stroke-width:1px;stroke-linecap:square"
       d="m 369.5,94 -10,0"
       id="ref-C-right-4"
       sodipodi:insensitive="true"
       inkscape:connector-curvature="0" />
    <path
       style="opacity:0.5;fill:none;stroke:#00ffcc;stroke-width:1px;stroke-linecap:square"
       d="m 369.5,306 -10,0"
       id="ref-C-right-5"
       sodipodi:insensitive="true"
       inkscape:connector-curvature="0" />
    <path
       style="opacity:0.5;fill:none;stroke:#00ffcc;stroke-width:1px;stroke-linecap:square"
       d="m 369.5,308 -10,0"
       id="ref-C-right-6"
       sodipodi:insensitive="true"
       inkscape:connector-curvature="0" />
    <path
       style="opacity:0.5;fill:none;stroke:#00ffcc;stroke-width:1px;stroke-linecap:square"
       d="m 369.5,332 -10,0"
       id="ref-C-right-7"
       sodipodi:insensitive="true"
       inkscape:connector-curvature="0" />
    <path
       style="opacity:0.5;fill:none;stroke:#00ffcc;stroke-width:1px;stroke-linecap:square"
       d="m 369.5,334 -10,0"
       id="ref-C-right-8"
       sodipodi:insensitive="true"
       inkscape:connector-curvature="0" />
    <path
       style="opacity:0.5;fill:none;stroke:#ffc200;stroke-width:1px;stroke-linecap:square"
       d="m 189,369.5 0,-10"
       id="ref-S-bottom-1"
       sodipodi:insensitive="true"
       inkscape:connector-curvature="0" />
    <path
       style="opacity:0.5;fill:none;stroke:#ffc200;stroke-width:1px;stroke-linecap:square"
       d="m 191,369.5 0,-10"
       id="ref-S-bottom-2"
       sodipodi:insensitive="true"
       inkscape:connector-curvature="0" />
    <path
       style="opacity:0.5;fill:none;stroke:#ffc200;stroke-width:1px;stroke-linecap:square"
       d="m 209,369.5 0,-10"
       id="ref-S-bottom-3"
       sodipodi:insensitive="true"
       inkscape:connector-curvature="0" />
    <path
       style="opacity:0.5;fill:none;stroke:#ffc200;stroke-width:1px;stroke-linecap:square"
       d="m 211,369.5 0,-10"
       id="ref-S-bottom-4"
       sodipodi:insensitive="true"
       inkscape:connector-curvature="0" />
    <path
       style="opacity:0.5;fill:none;stroke:#00ff00;stroke-width:1px;stroke-linecap:square"
       d="m 199,369.5 0,-10"
       id="ref-I-bottom-1"
       sodipodi:insensitive="true"
       inkscape:connector-curvature="0" />
    <path
       style="opacity:0.5;fill:none;stroke:#00ff00;stroke-width:1px;stroke-linecap:square"
       d="m 201,369.5 0,-10"
       id="ref-I-bottom-2"
       sodipodi:insensitive="true"
       inkscape:connector-curvature="0" />
    <path
       style="opacity:0.5;fill:none;stroke:#00ffcc;stroke-width:1px;stroke-linecap:square"
       d="m 66,369.5 0,-10"
       id="ref-C-bottom-1"
       sodipodi:insensitive="true"
       inkscape:connector-curvature="0" />
    <path
       style="opacity:0.5;fill:none;stroke:#00ffcc;stroke-width:1px;stroke-linecap:square"
       d="m 68,369.5 0,-10"
       id="ref-C-bottom-2"
       sodipodi:insensitive="true"
       inkscape:connector-curvature="0" />
    <path
       style="opacity:0.5;fill:none;stroke:#00ffcc;stroke-width:1px;stroke-linecap:square"
       d="m 92,369.5 0,-10"
       id="ref-C-bottom-3"
       sodipodi:insensitive="true"
       inkscape:connector-curvature="0" />
    <path
       style="opacity:0.5;fill:none;stroke:#00ffcc;stroke-width:1px;stroke-linecap:square"
       d="m 94,369.5 0,-10"
       id="ref-C-bottom-4"
       sodipodi:insensitive="true"
       inkscape:connector-curvature="0" />
    <path
       style="opacity:0.5;fill:none;stroke:#00ffcc;stroke-width:1px;stroke-linecap:square"
       d="m 306,369.5 0,-10"
       id="ref-C-bottom-5"
       sodipodi:insensitive="true"
       inkscape:connector-curvature="0" />
    <path
       style="opacity:0.5;fill:none;stroke:#00ffcc;stroke-width:1px;stroke-linecap:square"
       d="m 308,369.5 0,-10"
       id="ref-C-bottom-6"
       sodipodi:insensitive="true"
       inkscape:connector-curvature="0" />
    <path
       style="opacity:0.5;fill:none;stroke:#00ffcc;stroke-width:1px;stroke-linecap:square"
       d="m 332,369.5 0,-10"
       id="ref-C-bottom-7"
       sodipodi:insensitive="true"
       inkscape:connector-curvature="0" />
    <path
       style="opacity:0.5;fill:none;stroke:#00ffcc;stroke-width:1px;stroke-linecap:square"
       d="m 334,369.5 0,-10"
       id="ref-C-bottom-8"
       sodipodi:insensitive="true"
       inkscape:connector-curvature="0" />
    <path
       style="opacity:0.5;fill:none;stroke:#ffc200;stroke-width:1px;stroke-linecap:square"
       d="m 30.5,189 10,0"
       id="ref-S-left-1"
       sodipodi:insensitive="true"
       inkscape:connector-curvature="0" />
    <path
       style="opacity:0.5;fill:none;stroke:#ffc200;stroke-width:1px;stroke-linecap:square"
       d="m 30.5,191 10,0"
       id="ref-S-left-2"
       sodipodi:insensitive="true"
       inkscape:connector-curvature="0" />
    <path
       style="opacity:0.5;fill:none;stroke:#ffc200;stroke-width:1px;stroke-linecap:square"
       d="m 30.5,209 10,0"
       id="ref-S-left-3"
       sodipodi:insensitive="true"
       inkscape:connector-curvature="0" />
    <path
       style="opacity:0.5;fill:none;stroke:#ffc200;stroke-width:1px;stroke-linecap:square"
       d="m 30.5,211 10,0"
       id="ref-S-left-4"
       sodipodi:insensitive="true"
       inkscape:connector-curvature="0" />
    <path
       style="opacity:0.5;fill:none;stroke:#00ff00;stroke-width:1px;stroke-linecap:square"
       d="m 40.5,199 -10,0"
       id="ref-I-left-1"
       sodipodi:insensitive="true"
       inkscape:connector-curvature="0" />
    <path
       style="opacity:0.5;fill:none;stroke:#00ff00;stroke-width:1px;stroke-linecap:square"
       d="m 40.5,201 -10,0"
       id="ref-I-left-2"
       sodipodi:insensitive="true"
       inkscape:connector-curvature="0" />
    <path
       style="opacity:0.5;fill:none;stroke:#00ffcc;stroke-width:1px;stroke-linecap:square"
       d="m 30.5,66 10,0"
       id="ref-C-left-1"
       sodipodi:insensitive="true"
       inkscape:connector-curvature="0" />
    <path
       style="opacity:0.5;fill:none;stroke:#00ffcc;stroke-width:1px;stroke-linecap:square"
       d="m 30.5,68 10,0"
       id="ref-C-left-2"
       sodipodi:insensitive="true"
       inkscape:connector-curvature="0" />
    <path
       style="opacity:0.5;fill:none;stroke:#00ffcc;stroke-width:1px;stroke-linecap:square"
       d="m 30.5,92 10,0"
       id="ref-C-left-3"
       sodipodi:insensitive="true"
       inkscape:connector-curvature="0" />
    <path
       style="opacity:0.5;fill:none;stroke:#00ffcc;stroke-width:1px;stroke-linecap:square"
       d="m 30.5,94 10,0"
       id="ref-C-left-4"
       sodipodi:insensitive="true"
       inkscape:connector-curvature="0" />
    <path
       style="opacity:0.5;fill:none;stroke:#00ffcc;stroke-width:1px;stroke-linecap:square"
       d="m 30.5,306 10,0"
       id="ref-C-left-5"
       sodipodi:insensitive="true"
       inkscape:connector-curvature="0" />
    <path
       style="opacity:0.5;fill:none;stroke:#00ffcc;stroke-width:1px;stroke-linecap:square"
       d="m 30.5,308 10,0"
       id="ref-C-left-6"
       sodipodi:insensitive="true"
       inkscape:connector-curvature="0" />
    <path
       style="opacity:0.5;fill:none;stroke:#00ffcc;stroke-width:1px;stroke-linecap:square"
       d="m 30.5,332 10,0"
       id="ref-C-left-7"
       sodipodi:insensitive="true"
       inkscape:connector-curvature="0" />
    <path
       style="opacity:0.5;fill:none;stroke:#00ffcc;stroke-width:1px;stroke-linecap:square"
       d="m 30.5,334 10,0"
       id="ref-C-left-8"
       sodipodi:insensitive="true"
       inkscape:connector-curvature="0" />
    <path
       style="fill:none;stroke:#000000;stroke-width:1px;stroke-linecap:butt"
       d="m 190,30 0,11"
       id="S-top-1"
       inkscape:connector-curvature="0"
       sodipodi:nodetypes="cc" />
    <path
       style="fill:none;stroke:#000000;stroke-width:1px;stroke-linecap:butt"
       d="m 210,30 0,11"
       id="S-top-2"
       inkscape:connector-curvature="0"
       sodipodi:nodetypes="cc" />
    <path
       style="fill:none;stroke:#000000;stroke-width:1px;stroke-linecap:butt"
       d="m 370,190 -11,0"
       id="S-right-1"
       inkscape:connector-curvature="0"
       sodipodi:nodetypes="cc" />
    <path
       style="fill:none;stroke:#000000;stroke-width:1px;stroke-linecap:butt"
       d="m 370,210 -11,0"
       id="S-right-2"
       inkscape:connector-curvature="0"
       sodipodi:nodetypes="cc" />
    <path
       style="fill:none;stroke:#000000;stroke-width:1px;stroke-linecap:butt"
       d="m 190,370 0,-11"
       id="S-bottom-1"
       inkscape:connector-curvature="0"
       sodipodi:nodetypes="cc" />
    <path
       style="fill:none;stroke:#000000;stroke-width:1px;stroke-linecap:butt"
       d="m 210,370 0,-11"
       id="S-bottom-2"
       inkscape:connector-curvature="0"
       sodipodi:nodetypes="cc" />
    <path
       style="fill:none;stroke:#000000;stroke-width:1px;stroke-linecap:butt"
       d="m 30,190 11,0"
       id="S-left-1"
       inkscape:connector-curvature="0"
       sodipodi:nodetypes="cc" />
    <path
       style="fill:none;stroke:#000000;stroke-width:1px;stroke-linecap:butt"
       d="m 30,210 11,0"
       id="S-left-2"
       inkscape:connector-curvature="0"
       sodipodi:nodetypes="cc" />
    <path
       style="fill:none;stroke:#000000;stroke-width:1px;stroke-linecap:butt"
       d="m 200,30 0,11"
       id="I-top-1"
       inkscape:connector-curvature="0"
       sodipodi:nodetypes="cc" />
    <path
       style="fill:none;stroke:#000000;stroke-width:1px;stroke-linecap:butt"
       d="m 370,200 -11,0"
       id="I-right-1"
       inkscape:connector-curvature="0"
       sodipodi:nodetypes="cc" />
    <path
       style="fill:none;stroke:#000000;stroke-width:1px;stroke-linecap:butt"
       d="m 200,370 0,-11"
       id="I-bottom-1"
       inkscape:connector-curvature="0"
       sodipodi:nodetypes="cc" />
    <path
       style="fill:none;stroke:#000000;stroke-width:1px;stroke-linecap:butt"
       d="m 41,200 -11,0"
       id="I-left-1"
       inkscape:connector-curvature="0"
       sodipodi:nodetypes="cc" />
    <path
       style="fill:none;stroke:#000000;stroke-width:1px;stroke-linecap:butt"
       d="m 67,30 0,11"
       id="C-top-1"
       inkscape:connector-curvature="0"
       sodipodi:nodetypes="cc" />
    <path
       style="fill:none;stroke:#000000;stroke-width:1px;stroke-linecap:butt"
       d="m 93,30 0,11"
       id="C-top-2"
       inkscape:connector-curvature="0"
       sodipodi:nodetypes="cc" />
    <path
       style="fill:none;stroke:#000000;stroke-width:1px;stroke-linecap:butt"
       d="m 307,30 0,11"
       id="C-top-3"
       inkscape:connector-curvature="0"
       sodipodi:nodetypes="cc" />
    <path
       style="fill:none;stroke:#000000;stroke-width:1px;stroke-linecap:butt"
       d="m 333,30 0,11"
       id="C-top-4"
       inkscape:connector-curvature="0"
       sodipodi:nodetypes="cc" />
    <path
       style="fill:none;stroke:#000000;stroke-width:1px;stroke-linecap:butt"
       d="m 370,67 -11,0"
       id="C-right-1"
       inkscape:connector-curvature="0"
       sodipodi:nodetypes="cc" />
    <path
       style="fill:none;stroke:#000000;stroke-width:1px;stroke-linecap:butt"
       d="m 370,93 -11,0"
       id="C-right-2"
       inkscape:connector-curvature="0"
       sodipodi:nodetypes="cc" />
    <path
       style="fill:none;stroke:#000000;stroke-width:1px;stroke-linecap:butt"
       d="m 370,307 -11,0"
       id="C-right-3"
       inkscape:connector-curvature="0"
       sodipodi:nodetypes="cc" />
    <path
       style="fill:none;stroke:#000000;stroke-width:1px;stroke-linecap:butt"
       d="m 370,333 -11,0"
       id="C-right-4"
       inkscape:connector-curvature="0"
       sodipodi:nodetypes="cc" />
    <path
       style="fill:none;stroke:#000000;stroke-width:1px;stroke-linecap:butt"
       d="m 67,370 0,-11"
       id="C-bottom-1"
       inkscape:connector-curvature="0"
       sodipodi:nodetypes="cc" />
    <path
       style="fill:none;stroke:#000000;stroke-width:1px;stroke-linecap:butt"
       d="m 93,370 0,-11"
       id="C-bottom-2"
       inkscape:connector-curvature="0"
       sodipodi:nodetypes="cc" />
    <path
       style="fill:none;stroke:#000000;stroke-width:1px;stroke-linecap:butt"
       d="m 307,370 0,-11"
       id="C-bottom-3"
       inkscape:connector-curvature="0"
       sodipodi:nodetypes="cc" />
    <path
       style="fill:none;stroke:#000000;stroke-width:1px;stroke-linecap:butt"
       d="m 333,370 0,-11"
       id="C-bottom-4"
       inkscape:connector-curvature="0"
       sodipodi:nodetypes="cc" />
    <path
       style="fill:none;stroke:#000000;stroke-width:1px;stroke-linecap:butt"
       d="m 30,67 11,0"
       id="C-left-1"
       inkscape:connector-curvature="0"
       sodipodi:nodetypes="cc" />
    <path
       style="fill:none;stroke:#000000;stroke-width:1px;stroke-linecap:butt"
       d="m 30,93 11,0"
       id="C-left-2"
       inkscape:connector-curvature="0"
       sodipodi:nodetypes="cc" />
    <path
       style="fill:none;stroke:#000000;stroke-width:1px;stroke-linecap:butt"
       d="m 30,307 11,0"
       id="C-left-3"
       inkscape:connector-curvature="0"
       sodipodi:nodetypes="cc" />
    <path
       style="fill:none;stroke:#000000;stroke-width:1px;stroke-linecap:butt"
       d="m 30,333 11,0"
       id="C-left-4"
       inkscape:connector-curvature="0"
       sodipodi:nodetypes="cc" />
  </g>
  <g
     inkscape:groupmode="layer"
     id="layer1"
     inkscape:label="XX_DOODLE"
     style="display:none"
     sodipodi:insensitive="true">
    <path
       style="fill:none;stroke:#000000;stroke-width:1px;stroke-linecap:butt;display:inline"
       d="m 67,30 0,11"
       id="C-top-1-3"
       inkscape:connector-curvature="0"
       sodipodi:nodetypes="cc" />
    <path
       sodipodi:nodetypes="ccacscacscacscacscacscacscacscacscacscacscacscacscacscacc"
       inkscape:connector-curvature="0"
       id="path3098"
       d="m 67,30 c 0,29.13045556 0,25.44019838 0,54.74612615 0,41.45216275 0,80.08591595 0,120.12887385 0,40.6458333 0,78.9609992 0,121.9375 C 67.003855,330.1755068 69.16342571,340 79.8125,340 90.46157429,340 92.84324346,330.5691391 93,326.8125 c 0,-40.6167704 0,-81.625 0,-122.4375 0,-39.625 0,-76.7185767 0,-118.87499993 0,-3.86599324 3.13400673,-6.99999996 7,-6.99999996 3.8659931,0 7,3.13400665 7,6.99999989 0,39.4349654 0,79.25 0,118.875 0,40.8125 0,79.017714 0,122.4375 0.00386,3.3630068 2.1634257,13.1875 12.8125,13.1875 10.6490743,0 13.0307435,-9.4308609 13.1875,-13.1875 0,-40.4509031 0,-81.2916667 0,-121.9375 0,-39.4583333 0,-76.3958908 0,-118.37499993 0,-3.86599324 3.1340067,-6.99999996 7,-6.99999996 3.8659931,0 7,3.13400672 7,6.99999996 0,39.26909803 0,78.91666663 0,118.37499993 0,40.6458333 0,78.695028 0,121.9375 0.00386,3.3630068 2.1634257,13.1875 12.8125,13.1875 10.6490743,0 13.0307435,-9.4308609 13.1875,-13.1875 0,-40.4509031 0,-81.2916667 0,-121.9375 0,-39.4583333 0,-76.3958908 0,-118.37499993 0,-3.86599324 3.1340067,-6.99999996 7,-6.99999996 3.8659931,0 7,3.13400672 7,6.99999996 0,39.26909803 0,78.91666663 0,118.37499993 0,40.6458333 0,78.695028 0,121.9375 0.00386,3.3630068 2.1634257,13.1875 12.8125,13.1875 10.6490743,0 13.0307435,-9.4308609 13.1875,-13.1875 0,-40.4509031 0,-81.2916667 0,-121.9375 0,-39.4583333 0,-76.3958908 0,-118.37499993 0,-3.86599324 3.1340067,-6.99999996 7,-6.99999996 3.8659931,0 7,3.13400672 7,6.99999996 0,39.26909803 0,78.91666663 0,118.37499993 0,40.6458333 0,78.695028 0,121.9375 0.00386,3.3630068 2.1634257,13.1875 12.8125,13.1875 10.6490743,0 13.0307435,-9.4308609 13.1875,-13.1875 0,-40.4509031 0,-81.2916667 0,-121.9375 0,-39.4583333 0,-76.3958908 0,-118.37499993 0,-3.86599324 3.1340067,-6.99999996 7,-6.99999996 3.8659931,0 7,3.13400672 7,6.99999996 0,39.26909803 0,78.91666663 0,118.37499993 0,40.6458333 0,78.695028 0,121.9375 0.00386,3.3630068 2.1634257,13.1875 12.8125,13.1875 10.6490743,0 13.0307435,-9.4308609 13.1875,-13.1875 0,-40.4509031 0,-81.2916667 0,-121.9375 0,-39.4583333 0,-76.3958908 0,-118.37499993 0,-3.86599324 3.1340067,-6.99999996 7,-6.99999996 3.8659931,0 7,3.13400672 7,6.99999996 0,39.26909803 0,78.91666663 0,118.37499993 0,40.6458333 0,78.695028 0,121.9375 0.00386,3.3630068 2.1634257,13.1875 12.8125,13.1875 10.6490743,0 13.0307435,-9.4308609 13.1875,-13.1875 0,-40.202102 0,-81.2916667 0,-121.9375 0,-39.5403754 0,-78.0553356 0,-118.62112615 C 333,57.45052864 333,61.14078582 333,30"
       style="fill:none;stroke:#00ffff;stroke-width:1px" />
    <g
       id="g3976" />
    <path
       style="fill:none;stroke:#ffff00;stroke-width:26;stroke-linecap:round;stroke-miterlimit:4;stroke-dasharray:none;display:inline"
       d="m -70,30 c 0,80.1138404 18.86725139,76.4434855 20,115.5 1.7069282,58.853894 -82.7506832,66.8126285 -20,175.5"
       id="path4324"
       inkscape:connector-curvature="0"
       sodipodi:nodetypes="cac" />
    <path
       style="fill:#ffff00;stroke:#00ffff;stroke-width:1px"
       d="m -147,30 c -0.1567565,-3.75663905 -2.5384257,-13.1875 -13.1875,-13.1875 -10.6490743,0 -12.8086446,9.82449318 -12.8125,13.1875 l 0,66.8125 c 0.00386,3.3630068 2.1634257,13.1875 12.8125,13.1875 10.6490743,0 13.0307435,-9.4308609 13.1875,-13.1875 z"
       id="path4573"
       inkscape:connector-curvature="0"
       sodipodi:nodetypes="csccscc" />
    <path
       style="fill:none;stroke:#00ffff;stroke-width:1px"
       d="m 67,-470 0,296.8125 c 0.003855,3.3630068 2.16342571,13.1875 12.8125,13.1875 10.64907429,0 13.03074346,-9.4308609 13.1875,-13.1875 l 0,-241.3124999 c 0,-3.8659933 3.13400673,-7 7,-7 3.8659931,0 7,3.1340067 7,7 l 0,241.3124999 c 0.00386,3.3630068 2.1634257,13.1875 12.8125,13.1875 10.6490743,0 13.0307435,-9.4308609 13.1875,-13.1875 l 0,-240.3124999 c 0,-3.8659933 3.1340067,-7 7,-7 3.8659931,0 7,3.1340067 7,7 l 0,240.3124999 c 0.00386,3.3630068 2.1634257,13.1875 12.8125,13.1875 10.6490743,0 13.0307435,-9.4308609 13.1875,-13.1875 l 0,-240.3124999 c 0,-3.8659933 3.1340067,-7 7,-7 3.8659931,0 7,3.1340067 7,7 l 0,240.3124999 c 0.00386,3.3630068 2.1634257,13.1875 12.8125,13.1875 10.6490743,0 13.0307435,-9.4308609 13.1875,-13.1875 l 0,-240.3124999 c 0,-3.8659933 3.1340067,-7 7,-7 3.8659931,0 7,3.1340067 7,7 l 0,240.3124999 c 0.00386,3.3630068 2.1634257,13.1875 12.8125,13.1875 10.6490743,0 13.0307435,-9.4308609 13.1875,-13.1875 l 0,-240.3124999 c 0,-3.8659933 3.1340067,-7 7,-7 3.8659931,0 7,3.1340067 7,7 l 0,240.3124999 c 0.00386,3.3630068 2.1634257,13.1875 12.8125,13.1875 10.6490743,0 13.0307435,-9.4308609 13.1875,-13.1875 l 0,-240.3124999 c 0,-3.8659933 3.1340067,-7 7,-7 3.8659931,0 7,3.1340067 7,7 l 0,240.3124999 c 0.00386,3.3630068 2.1634257,13.1875 12.8125,13.1875 10.6490743,0 13.0307435,-9.4308609 13.1875,-13.1875 L 333,-470"
       id="path4844"
       inkscape:connector-curvature="0"
       sodipodi:nodetypes="ccsccsccsccsccsccsccsccsccsccsccsccsccscc" />
  </g>
  <g
     inkscape:groupmode="layer"
     id="layer2"
     inkscape:label="TNTKL-001"
     sodipodi:insensitive="true"
     style="display:none">
    <path
       style="fill:#ffffff;stroke:none;display:inline"
       d="m 67,30 0,296.8125 C 67.00385544,330.1755068 69.16342571,340 79.8125,340 90.46157429,340 92.84324346,330.5691391 93,326.8125 L 93,85.50000007 c 0,-3.86599324 3.13400673,-6.99999996 7,-6.99999996 3.8659931,0 7,3.13400672 7,6.99999996 L 107,326.8125 c 0.00386,3.3630068 2.1634257,13.1875 12.8125,13.1875 10.6490743,0 13.0307435,-9.4308609 13.1875,-13.1875 l 0,-240.31249993 c 0,-3.86599324 3.1340067,-6.99999996 7,-6.99999996 3.8659931,0 7,3.13400672 7,6.99999996 L 147,326.8125 c 0.00386,3.3630068 2.1634257,13.1875 12.8125,13.1875 10.6490743,0 13.0307435,-9.4308609 13.1875,-13.1875 l 0,-240.31249993 c 0,-3.86599324 3.1340067,-6.99999996 7,-6.99999996 3.8659931,0 7,3.13400672 7,6.99999996 L 187,326.8125 c 0.00386,3.3630068 2.1634257,13.1875 12.8125,13.1875 10.6490743,0 13.0307435,-9.4308609 13.1875,-13.1875 l 0,-240.31249993 c 0,-3.86599324 3.1340067,-6.99999996 7,-6.99999996 3.8659931,0 7,3.13400672 7,6.99999996 L 227,326.8125 c 0.00386,3.3630068 2.1634257,13.1875 12.8125,13.1875 10.6490743,0 13.0307435,-9.4308609 13.1875,-13.1875 l 0,-240.31249993 c 0,-3.86599324 3.1340067,-6.99999996 7,-6.99999996 3.8659931,0 7,3.13400672 7,6.99999996 L 267,326.8125 c 0.00386,3.3630068 2.1634257,13.1875 12.8125,13.1875 10.6490743,0 13.0307435,-9.4308609 13.1875,-13.1875 l 0,-240.31249993 c 0,-3.86599324 3.1340067,-6.99999996 7,-6.99999996 3.8659931,0 7,3.13400672 7,6.99999996 L 307,326.8125 C 307.00386,330.1755068 309.1634257,340 319.8125,340 330.4615743,340 332.8432435,330.5691391 333,326.8125 L 333,30 z"
       id="path4842"
       inkscape:connector-curvature="0"
       sodipodi:nodetypes="ccsccsccsccsccsccsccsccsccsccsccsccsccsccc" />
    <path
       sodipodi:nodetypes="ccsccsccsccsccsccsccsccsccsccsccsccsccscc"
       inkscape:connector-curvature="0"
       id="path3098-7"
       d="m 67,30 0,296.8125 C 67.00385544,330.1755068 69.16342571,340 79.8125,340 90.46157429,340 92.84324346,330.5691391 93,326.8125 L 93,85.50000007 c 0,-3.86599324 3.13400673,-6.99999996 7,-6.99999996 3.8659931,0 7,3.13400672 7,6.99999996 L 107,326.8125 c 0.00386,3.3630068 2.1634257,13.1875 12.8125,13.1875 10.6490743,0 13.0307435,-9.4308609 13.1875,-13.1875 l 0,-240.31249993 c 0,-3.86599324 3.1340067,-6.99999996 7,-6.99999996 3.8659931,0 7,3.13400672 7,6.99999996 L 147,326.8125 c 0.00386,3.3630068 2.1634257,13.1875 12.8125,13.1875 10.6490743,0 13.0307435,-9.4308609 13.1875,-13.1875 l 0,-240.31249993 c 0,-3.86599324 3.1340067,-6.99999996 7,-6.99999996 3.8659931,0 7,3.13400672 7,6.99999996 L 187,326.8125 c 0.00386,3.3630068 2.1634257,13.1875 12.8125,13.1875 10.6490743,0 13.0307435,-9.4308609 13.1875,-13.1875 l 0,-240.31249993 c 0,-3.86599324 3.1340067,-6.99999996 7,-6.99999996 3.8659931,0 7,3.13400672 7,6.99999996 L 227,326.8125 c 0.00386,3.3630068 2.1634257,13.1875 12.8125,13.1875 10.6490743,0 13.0307435,-9.4308609 13.1875,-13.1875 l 0,-240.31249993 c 0,-3.86599324 3.1340067,-6.99999996 7,-6.99999996 3.8659931,0 7,3.13400672 7,6.99999996 L 267,326.8125 c 0.00386,3.3630068 2.1634257,13.1875 12.8125,13.1875 10.6490743,0 13.0307435,-9.4308609 13.1875,-13.1875 l 0,-240.31249993 c 0,-3.86599324 3.1340067,-6.99999996 7,-6.99999996 3.8659931,0 7,3.13400672 7,6.99999996 L 307,326.8125 C 307.00386,330.1755068 309.1634257,340 319.8125,340 330.4615743,340 332.8432435,330.5691391 333,326.8125 L 333,30"
       style="fill:none;stroke:#000000;stroke-width:1px;display:inline" />
  </g>
  <g
     inkscape:groupmode="layer"
     id="layer3"
     inkscape:label="TNTKL-002"
     sodipodi:insensitive="true"
     style="display:none">
    <path
       style="fill:#ffffff;stroke:none"
       d="m 67,30 c 0,29.13045556 0,25.44019838 0,54.74612615 C 67,126.1982889 106.9060432,162.6706468 107,204.875 107.095231,247.651775 67,283.8359992 67,326.8125 67.003855,330.1755068 69.16342571,340 79.8125,340 90.46157429,340 92.84324346,330.5691391 93,326.8125 93,286.1957296 133.189359,247.3098585 133,204.375 132.8156121,162.5672926 93,127.6564233 93,85.50000007 c 0,-3.86599324 3.13400673,-6.99999996 7,-6.99999996 3.8659931,0 7,3.13400665 7,6.99999989 0,39.4349654 39.8156121,77.0672925 40,118.875 0.189359,42.9348585 -40,79.017714 -40,122.4375 0.00386,3.3630068 2.1634257,13.1875 12.8125,13.1875 10.6490743,0 13.0307435,-9.4308609 13.1875,-13.1875 0,-40.4509031 40.1900771,-79.1610413 40,-121.9375 -0.1850706,-41.649773 -40,-76.3958908 -40,-118.37499993 0,-3.86599324 3.1340067,-6.99999996 7,-6.99999996 3.8659931,0 7,3.13400672 7,6.99999996 0,39.26909803 39.8149294,76.72522693 40,118.37499993 0.1900771,42.7764587 -40,78.695028 -40,121.9375 0.00386,3.3630068 2.1634257,13.1875 12.8125,13.1875 10.6490743,0 13.0307435,-9.4308609 13.1875,-13.1875 0,-40.4509031 40.1900771,-79.1610413 40,-121.9375 -0.1850706,-41.649773 -40,-76.3958908 -40,-118.37499993 0,-3.86599324 3.1340067,-6.99999996 7,-6.99999996 3.8659931,0 7,3.13400672 7,6.99999996 0,39.26909803 39.8149294,76.72522693 40,118.37499993 0.1900771,42.7764587 -40,78.695028 -40,121.9375 0.00386,3.3630068 2.1634257,13.1875 12.8125,13.1875 10.6490743,0 13.0307435,-9.4308609 13.1875,-13.1875 0,-40.4509031 40.1900771,-79.1610413 40,-121.9375 -0.1850706,-41.649773 -40,-76.3958908 -40,-118.37499993 0,-3.86599324 3.1340067,-6.99999996 7,-6.99999996 3.8659931,0 7,3.13400672 7,6.99999996 0,39.26909803 39.8149294,76.72522693 40,118.37499993 0.1900771,42.7764587 -40,78.695028 -40,121.9375 0.00386,3.3630068 2.1634257,13.1875 12.8125,13.1875 10.6490743,0 13.0307435,-9.4308609 13.1875,-13.1875 0,-40.4509031 40.1900771,-79.1610413 40,-121.9375 -0.1850706,-41.649773 -40,-76.3958908 -40,-118.37499993 0,-3.86599324 3.1340067,-6.99999996 7,-6.99999996 3.8659931,0 7,3.13400672 7,6.99999996 0,39.26909803 39.8149294,76.72522693 40,118.37499993 0.1900771,42.7764587 -40,78.695028 -40,121.9375 0.00386,3.3630068 2.1634257,13.1875 12.8125,13.1875 10.6490743,0 13.0307435,-9.4308609 13.1875,-13.1875 0,-40.4509031 40.1900771,-79.1610413 40,-121.9375 -0.1850706,-41.649773 -40,-76.3958908 -40,-118.37499993 0,-3.86599324 3.1340067,-6.99999996 7,-6.99999996 3.8659931,0 7,3.13400672 7,6.99999996 0,39.26909803 39.8149294,76.72522693 40,118.37499993 0.1900771,42.7764587 -40,78.695028 -40,121.9375 0.00386,3.3630068 2.1634257,13.1875 12.8125,13.1875 10.6490743,0 13.0307435,-9.4308609 13.1875,-13.1875 0,-40.202102 40.1766152,-79.1609836 40,-121.9375 C 372.8277158,163.1474386 333,126.8196644 333,86.25387385 333,57.45052864 333,61.14078582 333,30 z"
       id="path4865"
       inkscape:connector-curvature="0"
       sodipodi:nodetypes="ccacscacscacscacscacscacscacscacscacscacscacscacscacscaccc" />
    <path
       sodipodi:nodetypes="ccacscacscacscacscacscacscacscacscacscacscacscacscacscacc"
       inkscape:connector-curvature="0"
       id="path3098-5"
       d="m 67,30 c 0,29.13045556 0,25.44019838 0,54.74612615 C 67,126.1982889 106.9060432,162.6706468 107,204.875 107.095231,247.651775 67,283.8359992 67,326.8125 67.003855,330.1755068 69.16342571,340 79.8125,340 90.46157429,340 92.84324346,330.5691391 93,326.8125 93,286.1957296 133.189359,247.3098585 133,204.375 132.8156121,162.5672926 93,127.6564233 93,85.50000007 c 0,-3.86599324 3.13400673,-6.99999996 7,-6.99999996 3.8659931,0 7,3.13400665 7,6.99999989 0,39.4349654 39.8156121,77.0672925 40,118.875 0.189359,42.9348585 -40,79.017714 -40,122.4375 0.00386,3.3630068 2.1634257,13.1875 12.8125,13.1875 10.6490743,0 13.0307435,-9.4308609 13.1875,-13.1875 0,-40.4509031 40.1900771,-79.1610413 40,-121.9375 -0.1850706,-41.649773 -40,-76.3958908 -40,-118.37499993 0,-3.86599324 3.1340067,-6.99999996 7,-6.99999996 3.8659931,0 7,3.13400672 7,6.99999996 0,39.26909803 39.8149294,76.72522693 40,118.37499993 0.1900771,42.7764587 -40,78.695028 -40,121.9375 0.00386,3.3630068 2.1634257,13.1875 12.8125,13.1875 10.6490743,0 13.0307435,-9.4308609 13.1875,-13.1875 0,-40.4509031 40.1900771,-79.1610413 40,-121.9375 -0.1850706,-41.649773 -40,-76.3958908 -40,-118.37499993 0,-3.86599324 3.1340067,-6.99999996 7,-6.99999996 3.8659931,0 7,3.13400672 7,6.99999996 0,39.26909803 39.8149294,76.72522693 40,118.37499993 0.1900771,42.7764587 -40,78.695028 -40,121.9375 0.00386,3.3630068 2.1634257,13.1875 12.8125,13.1875 10.6490743,0 13.0307435,-9.4308609 13.1875,-13.1875 0,-40.4509031 40.1900771,-79.1610413 40,-121.9375 -0.1850706,-41.649773 -40,-76.3958908 -40,-118.37499993 0,-3.86599324 3.1340067,-6.99999996 7,-6.99999996 3.8659931,0 7,3.13400672 7,6.99999996 0,39.26909803 39.8149294,76.72522693 40,118.37499993 0.1900771,42.7764587 -40,78.695028 -40,121.9375 0.00386,3.3630068 2.1634257,13.1875 12.8125,13.1875 10.6490743,0 13.0307435,-9.4308609 13.1875,-13.1875 0,-40.4509031 40.1900771,-79.1610413 40,-121.9375 -0.1850706,-41.649773 -40,-76.3958908 -40,-118.37499993 0,-3.86599324 3.1340067,-6.99999996 7,-6.99999996 3.8659931,0 7,3.13400672 7,6.99999996 0,39.26909803 39.8149294,76.72522693 40,118.37499993 0.1900771,42.7764587 -40,78.695028 -40,121.9375 0.00386,3.3630068 2.1634257,13.1875 12.8125,13.1875 10.6490743,0 13.0307435,-9.4308609 13.1875,-13.1875 0,-40.4509031 40.1900771,-79.1610413 40,-121.9375 -0.1850706,-41.649773 -40,-76.3958908 -40,-118.37499993 0,-3.86599324 3.1340067,-6.99999996 7,-6.99999996 3.8659931,0 7,3.13400672 7,6.99999996 0,39.26909803 39.8149294,76.72522693 40,118.37499993 0.1900771,42.7764587 -40,78.695028 -40,121.9375 0.00386,3.3630068 2.1634257,13.1875 12.8125,13.1875 10.6490743,0 13.0307435,-9.4308609 13.1875,-13.1875 0,-40.202102 40.1766152,-79.1609836 40,-121.9375 C 372.8277158,163.1474386 333,126.8196644 333,86.25387385 333,57.45052864 333,61.14078582 333,30"
       style="fill:none;stroke:#000000;stroke-width:1px;display:inline" />
  </g>
  <g
     inkscape:groupmode="layer"
     id="layer4"
     inkscape:label="TNTKL-003"
     style="display:none"
     sodipodi:insensitive="true">
    <path
       style="fill:#ffffff;stroke:none;display:inline"
       d="m 67,30 0,24.74612615 C 67,96.1982889 33.38885218,147.243617 37,194.875 40.5554508,241.7717339 87,283.8359992 87,326.8125 87.003855,330.1755068 89.16342571,340 99.8125,340 110.4615743,340 112.8432435,330.5691391 113,326.8125 113,286.1957296 66.49431977,241.4326466 63,194.375 59.49292445,147.1455725 93,97.6564233 93,55.50000007 c 0,-3.86599324 3.13400673,-6.99999996 7,-6.99999996 3.8659931,0 7,3.13400665 7,6.99999989 0,39.4349654 -33.50707555,91.6455725 -30,138.875 3.49431977,47.0576466 50,89.017714 50,132.4375 0.00386,3.3630068 2.1634257,13.1875 12.8125,13.1875 10.6490743,0 13.0307435,-9.4308609 13.1875,-13.1875 0,-40.4509031 -46.5053576,-85.0361956 -50,-131.9375 -3.50692094,-47.0660932 30,-96.3958908 30,-138.37499993 0,-3.86599324 3.1340067,-6.99999996 7,-6.99999996 3.8659931,0 7,3.13400672 7,6.99999996 0,39.26909803 -33.5069209,91.30890673 -30,138.37499993 3.4946424,46.9013044 50,88.695028 50,131.9375 0.00386,3.3630068 2.1634257,13.1875 12.8125,13.1875 10.6490743,0 13.0307435,-9.4308609 13.1875,-13.1875 0,-40.4509031 -46.5053576,-85.0361956 -50,-131.9375 -3.5069209,-47.0660932 30,-96.3958908 30,-138.37499993 0,-3.86599324 3.1340067,-6.99999996 7,-6.99999996 3.8659931,0 7,3.13400672 7,6.99999996 0,39.26909803 -33.5069209,91.30890673 -30,138.37499993 3.4946424,46.9013044 50,88.695028 50,131.9375 0.00386,3.3630068 2.1634257,13.1875 12.8125,13.1875 10.6490743,0 13.0307435,-9.4308609 13.1875,-13.1875 0,-40.4509031 -46.5053576,-85.0361956 -50,-131.9375 -3.5069209,-47.0660932 30,-96.3958908 30,-138.37499993 0,-3.86599324 3.1340067,-6.99999996 7,-6.99999996 3.8659931,0 7,3.13400672 7,6.99999996 0,39.26909803 -33.5069209,91.30890673 -30,138.37499993 3.4946424,46.9013044 50,88.695028 50,131.9375 0.00386,3.3630068 2.1634257,13.1875 12.8125,13.1875 10.6490743,0 13.0307435,-9.4308609 13.1875,-13.1875 0,-40.4509031 -46.5053576,-85.0361956 -50,-131.9375 -3.5069209,-47.0660932 30,-96.3958908 30,-138.37499993 0,-3.86599324 3.1340067,-6.99999996 7,-6.99999996 3.8659931,0 7,3.13400672 7,6.99999996 0,39.26909803 -33.5069209,91.30890673 -30,138.37499993 3.4946424,46.9013044 50,88.695028 50,131.9375 0.00386,3.3630068 2.1634257,13.1875 12.8125,13.1875 10.6490743,0 13.0307435,-9.4308609 13.1875,-13.1875 0,-40.4509031 -46.5053576,-85.0361956 -50,-131.9375 -3.5069209,-47.0660932 30,-96.3958908 30,-138.37499993 0,-3.86599324 3.1340067,-6.99999996 7,-6.99999996 3.8659931,0 7,3.13400672 7,6.99999996 0,39.26909803 -33.5069209,91.30890673 -30,138.37499993 3.4946424,46.9013044 50,88.695028 50,131.9375 0.00386,3.3630068 2.1634257,13.1875 12.8125,13.1875 10.6490743,0 13.0307435,-9.4308609 13.1875,-13.1875 0,-40.202102 -46.4967351,-85.0368389 -50,-131.9375 -3.5215463,-47.1454075 30,-98.0553356 30,-138.62112615 L 333,30 z"
       id="path4949"
       inkscape:connector-curvature="0"
       sodipodi:nodetypes="ccacscacscacscacscacscacscacscacscacscacscacscacscacscaccc" />
    <path
       sodipodi:nodetypes="ccacscacscacscacscacscacscacscacscacscacscacscacscacscacc"
       inkscape:connector-curvature="0"
       id="path3098-3"
       d="m 67,30 0,24.74612615 C 67,96.1982889 33.38885218,147.243617 37,194.875 40.5554508,241.7717339 87,283.8359992 87,326.8125 87.003855,330.1755068 89.16342571,340 99.8125,340 110.4615743,340 112.8432435,330.5691391 113,326.8125 113,286.1957296 66.49431977,241.4326466 63,194.375 59.49292445,147.1455725 93,97.6564233 93,55.50000007 c 0,-3.86599324 3.13400673,-6.99999996 7,-6.99999996 3.8659931,0 7,3.13400665 7,6.99999989 0,39.4349654 -33.50707555,91.6455725 -30,138.875 3.49431977,47.0576466 50,89.017714 50,132.4375 0.00386,3.3630068 2.1634257,13.1875 12.8125,13.1875 10.6490743,0 13.0307435,-9.4308609 13.1875,-13.1875 0,-40.4509031 -46.5053576,-85.0361956 -50,-131.9375 -3.50692094,-47.0660932 30,-96.3958908 30,-138.37499993 0,-3.86599324 3.1340067,-6.99999996 7,-6.99999996 3.8659931,0 7,3.13400672 7,6.99999996 0,39.26909803 -33.5069209,91.30890673 -30,138.37499993 3.4946424,46.9013044 50,88.695028 50,131.9375 0.00386,3.3630068 2.1634257,13.1875 12.8125,13.1875 10.6490743,0 13.0307435,-9.4308609 13.1875,-13.1875 0,-40.4509031 -46.5053576,-85.0361956 -50,-131.9375 -3.5069209,-47.0660932 30,-96.3958908 30,-138.37499993 0,-3.86599324 3.1340067,-6.99999996 7,-6.99999996 3.8659931,0 7,3.13400672 7,6.99999996 0,39.26909803 -33.5069209,91.30890673 -30,138.37499993 3.4946424,46.9013044 50,88.695028 50,131.9375 0.00386,3.3630068 2.1634257,13.1875 12.8125,13.1875 10.6490743,0 13.0307435,-9.4308609 13.1875,-13.1875 0,-40.4509031 -46.5053576,-85.0361956 -50,-131.9375 -3.5069209,-47.0660932 30,-96.3958908 30,-138.37499993 0,-3.86599324 3.1340067,-6.99999996 7,-6.99999996 3.8659931,0 7,3.13400672 7,6.99999996 0,39.26909803 -33.5069209,91.30890673 -30,138.37499993 3.4946424,46.9013044 50,88.695028 50,131.9375 0.00386,3.3630068 2.1634257,13.1875 12.8125,13.1875 10.6490743,0 13.0307435,-9.4308609 13.1875,-13.1875 0,-40.4509031 -46.5053576,-85.0361956 -50,-131.9375 -3.5069209,-47.0660932 30,-96.3958908 30,-138.37499993 0,-3.86599324 3.1340067,-6.99999996 7,-6.99999996 3.8659931,0 7,3.13400672 7,6.99999996 0,39.26909803 -33.5069209,91.30890673 -30,138.37499993 3.4946424,46.9013044 50,88.695028 50,131.9375 0.00386,3.3630068 2.1634257,13.1875 12.8125,13.1875 10.6490743,0 13.0307435,-9.4308609 13.1875,-13.1875 0,-40.4509031 -46.5053576,-85.0361956 -50,-131.9375 -3.5069209,-47.0660932 30,-96.3958908 30,-138.37499993 0,-3.86599324 3.1340067,-6.99999996 7,-6.99999996 3.8659931,0 7,3.13400672 7,6.99999996 0,39.26909803 -33.5069209,91.30890673 -30,138.37499993 3.4946424,46.9013044 50,88.695028 50,131.9375 0.00386,3.3630068 2.1634257,13.1875 12.8125,13.1875 10.6490743,0 13.0307435,-9.4308609 13.1875,-13.1875 0,-40.202102 -46.4967351,-85.0368389 -50,-131.9375 -3.5215463,-47.1454075 30,-98.0553356 30,-138.62112615 L 333,30"
       style="fill:none;stroke:#000000;stroke-width:1px;display:inline" />
  </g>
  <g
     inkscape:label="TNTKL-004"
     id="g4886"
     inkscape:groupmode="layer"
     style="display:none"
     sodipodi:insensitive="true">
    <path
       sodipodi:nodetypes="ccacscacscacscacscacscacscacscacscacscacscacscacscacscaccc"
       inkscape:connector-curvature="0"
       id="path4947"
       d="m 67,30 0,34.74612615 C 67,106.1982889 33.98287042,150.4632946 37,194.875 40.18774655,241.7981622 87,283.8359992 87,326.8125 87.003855,330.1755068 89.16342571,340 99.8125,340 110.4615743,340 112.8432435,330.5691391 113,326.8125 113,286.1957296 66.11873482,241.4590299 63,194.375 60.08485139,150.3645432 93,107.6564233 93,65.50000007 c 0,-3.86599324 3.13400673,-6.99999996 7,-6.99999996 3.8659931,0 7,3.13400665 7,6.99999989 0,39.4349654 -32.91514861,84.8645432 -30,128.875 3.11873483,47.0840299 50,89.017714 50,132.4375 0.00386,3.3630068 2.1634257,13.1875 12.8125,13.1875 10.6490743,0 13.0307435,-9.4308609 13.1875,-13.1875 0,-40.4509031 -47.3197681,-84.9826149 -50,-131.9375 -2.3197503,-40.6396214 30,-76.3958908 30,-118.37499993 0,-3.86599324 3.1340067,-6.99999996 7,-6.99999996 3.8659931,0 7,3.13400672 7,6.99999996 0,39.26909803 -32.3197503,77.73537853 -30,118.37499993 2.6802319,46.9548851 50,88.695028 50,131.9375 0.00386,3.3630068 2.1634257,13.1875 12.8125,13.1875 10.6490743,0 13.0307435,-9.4308609 13.1875,-13.1875 0,-40.4509031 -47.8328589,-84.956138 -50,-131.9375 -1.727192,-37.4437235 30,-66.3958908 30,-108.37499993 0,-3.86599324 3.1340067,-6.99999996 7,-6.99999996 3.8659931,0 7,3.13400672 7,6.99999996 0,39.26909803 -31.727192,70.93127643 -30,108.37499993 2.1671411,46.981362 50,88.695028 50,131.9375 0.00386,3.3630068 2.1634257,13.1875 12.8125,13.1875 10.6490743,0 13.0307435,-9.4308609 13.1875,-13.1875 0,-40.4509031 -48.4424338,-84.9319805 -50,-131.9375 -1.1353572,-34.2637471 30,-56.3958908 30,-98.37499993 0,-3.86599324 3.1340067,-6.99999996 7,-6.99999996 3.8659931,0 7,3.13400672 7,6.99999996 0,39.26909803 -31.1353572,64.11125283 -30,98.37499993 1.5575662,47.0055195 50,88.695028 50,131.9375 0.00386,3.3630068 2.1634257,13.1875 12.8125,13.1875 10.6490743,0 13.0307435,-9.4308609 13.1875,-13.1875 0,-40.4509031 -49.1772837,-84.9133784 -50,-131.9375 -0.5441947,-31.1046179 30,-46.3958908 30,-88.3749999 0,-3.8659933 3.1340067,-6.99999999 7,-6.99999999 3.8659931,0 7,3.13400669 7,6.99999999 0,39.269098 -30.5441947,57.270382 -30,88.3749999 0.8227163,47.0241216 50,88.695028 50,131.9375 0.00386,3.3630068 2.1634257,13.1875 12.8125,13.1875 10.6490743,0 13.0307435,-9.4308609 13.1875,-13.1875 0,-40.4509031 -50.0781992,-84.906247 -50,-131.9375 0.046512,-27.9734421 30,-36.3958908 30,-78.3749999 0,-3.8659933 3.1340067,-7 7,-7 3.8659931,0 7,3.1340067 7,7 0,39.269098 -29.9534884,50.4015578 -30,78.3749999 -0.078199,47.031253 50,88.695028 50,131.9375 0.00386,3.3630068 2.1634257,13.1875 12.8125,13.1875 10.6490743,0 13.0307435,-9.4308609 13.1875,-13.1875 0,-40.202102 -50.0536118,-84.9062125 -50,-131.9375 0.031975,-28.0500986 30,-38.0553356 30,-78.6211262 L 333,30 z"
       style="fill:#ffffff;stroke:none;display:inline" />
    <path
       style="fill:none;stroke:#000000;stroke-width:1px;display:inline"
       d="m 67,30 0,34.74612615 C 67,106.1982889 33.98287042,150.4632946 37,194.875 40.18774655,241.7981622 87,283.8359992 87,326.8125 87.003855,330.1755068 89.16342571,340 99.8125,340 110.4615743,340 112.8432435,330.5691391 113,326.8125 113,286.1957296 66.11873482,241.4590299 63,194.375 60.08485139,150.3645432 93,107.6564233 93,65.50000007 c 0,-3.86599324 3.13400673,-6.99999996 7,-6.99999996 3.8659931,0 7,3.13400665 7,6.99999989 0,39.4349654 -32.91514861,84.8645432 -30,128.875 3.11873483,47.0840299 50,89.017714 50,132.4375 0.00386,3.3630068 2.1634257,13.1875 12.8125,13.1875 10.6490743,0 13.0307435,-9.4308609 13.1875,-13.1875 0,-40.4509031 -47.3197681,-84.9826149 -50,-131.9375 -2.3197503,-40.6396214 30,-76.3958908 30,-118.37499993 0,-3.86599324 3.1340067,-6.99999996 7,-6.99999996 3.8659931,0 7,3.13400672 7,6.99999996 0,39.26909803 -32.3197503,77.73537853 -30,118.37499993 2.6802319,46.9548851 50,88.695028 50,131.9375 0.00386,3.3630068 2.1634257,13.1875 12.8125,13.1875 10.6490743,0 13.0307435,-9.4308609 13.1875,-13.1875 0,-40.4509031 -47.8328589,-84.956138 -50,-131.9375 -1.727192,-37.4437235 30,-66.3958908 30,-108.37499993 0,-3.86599324 3.1340067,-6.99999996 7,-6.99999996 3.8659931,0 7,3.13400672 7,6.99999996 0,39.26909803 -31.727192,70.93127643 -30,108.37499993 2.1671411,46.981362 50,88.695028 50,131.9375 0.00386,3.3630068 2.1634257,13.1875 12.8125,13.1875 10.6490743,0 13.0307435,-9.4308609 13.1875,-13.1875 0,-40.4509031 -48.4424338,-84.9319805 -50,-131.9375 -1.1353572,-34.2637471 30,-56.3958908 30,-98.37499993 0,-3.86599324 3.1340067,-6.99999996 7,-6.99999996 3.8659931,0 7,3.13400672 7,6.99999996 0,39.26909803 -31.1353572,64.11125283 -30,98.37499993 1.5575662,47.0055195 50,88.695028 50,131.9375 0.00386,3.3630068 2.1634257,13.1875 12.8125,13.1875 10.6490743,0 13.0307435,-9.4308609 13.1875,-13.1875 0,-40.4509031 -49.1772837,-84.9133784 -50,-131.9375 -0.5441947,-31.1046179 30,-46.3958908 30,-88.3749999 0,-3.8659933 3.1340067,-6.99999999 7,-6.99999999 3.8659931,0 7,3.13400669 7,6.99999999 0,39.269098 -30.5441947,57.270382 -30,88.3749999 0.8227163,47.0241216 50,88.695028 50,131.9375 0.00386,3.3630068 2.1634257,13.1875 12.8125,13.1875 10.6490743,0 13.0307435,-9.4308609 13.1875,-13.1875 0,-40.4509031 -50.0781992,-84.906247 -50,-131.9375 0.046512,-27.9734421 30,-36.3958908 30,-78.3749999 0,-3.8659933 3.1340067,-7 7,-7 3.8659931,0 7,3.1340067 7,7 0,39.269098 -29.9534884,50.4015578 -30,78.3749999 -0.078199,47.031253 50,88.695028 50,131.9375 0.00386,3.3630068 2.1634257,13.1875 12.8125,13.1875 10.6490743,0 13.0307435,-9.4308609 13.1875,-13.1875 0,-40.202102 -50.0536118,-84.9062125 -50,-131.9375 0.031975,-28.0500986 30,-38.0553356 30,-78.6211262 L 333,30"
       id="path4888"
       inkscape:connector-curvature="0"
       sodipodi:nodetypes="ccacscacscacscacscacscacscacscacscacscacscacscacscacscacc" />
  </g>
  <g
     style="display:none"
     inkscape:label="TNTKL-005"
     id="g4890"
     inkscape:groupmode="layer"
     sodipodi:insensitive="true">
    <path
       sodipodi:nodetypes="ccacscacscacscacscacscacscacscacscacscacscacscacscacscaccc"
       inkscape:connector-curvature="0"
       id="path4945"
       d="m 67,30 0,34.74612615 C 67,106.1982889 34.57624882,143.6734962 37,184.875 39.76192548,231.8251507 87,273.8359992 87,316.8125 87.003855,320.1755068 89.16342571,330 99.8125,330 110.4615743,330 112.8432435,320.5691391 113,316.8125 113,276.1957296 65.68323208,231.4858548 63,184.375 60.67613713,143.573771 93,107.6564233 93,65.50000007 c 0,-3.86599324 3.13400673,-6.99999996 7,-6.99999996 3.8659931,0 7,3.13400665 7,6.99999989 0,39.4349654 -31.84635028,78.0493755 -30,118.875 2.27338837,50.2680888 50,99.017714 50,142.4375 0.00386,3.3630068 2.1634257,13.1875 12.8125,13.1875 10.6490743,0 13.0307435,-9.4308609 13.1875,-13.1875 0,-40.4509031 -47.3197681,-84.9826149 -50,-131.9375 -2.3197503,-40.6396214 30,-76.3958908 30,-118.37499993 0,-3.86599324 3.1340067,-6.99999996 7,-6.99999996 3.8659931,0 7,3.13400672 7,6.99999996 0,39.26909803 -31.8410551,77.71088083 -30,118.37499993 2.2687555,50.1109088 50,98.695028 50,141.9375 0.00386,3.3630068 2.1634257,13.1875 12.8125,13.1875 10.6490743,0 13.0307435,-9.4308609 13.1875,-13.1875 0,-40.4509031 -47.3197681,-84.9826149 -50,-131.9375 -2.3197503,-40.6396214 30,-76.3958908 30,-118.37499993 0,-3.86599324 3.1340067,-6.99999996 7,-6.99999996 3.8659931,0 7,3.13400672 7,6.99999996 0,39.26909803 -31.8410551,77.71088083 -30,118.37499993 2.2687555,50.1109088 50,98.695028 50,141.9375 0.00386,3.3630068 2.1634257,13.1875 12.8125,13.1875 10.6490743,0 13.0307435,-9.4308609 13.1875,-13.1875 0,-40.4509031 -47.3197681,-84.9826149 -50,-131.9375 -2.3197503,-40.6396214 30,-76.3958908 30,-118.3749999 0,-3.8659933 3.1340067,-6.99999999 7,-6.99999999 3.8659931,0 7,3.13400669 7,6.99999999 0,39.269098 -31.8410551,77.7108808 -30,118.3749999 2.2687555,50.1109088 50,98.695028 50,141.9375 0.00386,3.3630068 2.1634257,13.1875 12.8125,13.1875 10.6490743,0 13.0307435,-9.4308609 13.1875,-13.1875 0,-40.4509031 -47.3197681,-84.9826149 -50,-131.9375 -2.3197503,-40.6396214 30,-76.3958908 30,-118.3749999 0,-3.8659933 3.1340067,-7 7,-7 3.8659931,0 7,3.1340067 7,7 0,39.269098 -31.8410551,77.7108808 -30,118.3749999 2.2687555,50.1109088 50,98.695028 50,141.9375 0.00386,3.3630068 2.1634257,13.1875 12.8125,13.1875 10.6490743,0 13.0307435,-9.4308609 13.1875,-13.1875 0,-40.4509031 -47.3197681,-84.9826149 -50,-131.9375 -2.3197503,-40.6396214 30,-76.3958908 30,-118.3749999 0,-3.8659933 3.1340067,-7 7,-7 3.8659931,0 7,3.1340067 7,7 0,39.269098 -31.8410551,77.7108808 -30,118.3749999 2.2687555,50.1109088 50,98.695028 50,141.9375 0.00386,3.3630068 2.1634257,13.1875 12.8125,13.1875 10.6490743,0 13.0307435,-9.4308609 13.1875,-13.1875 0,-40.202102 -47.7188629,-91.8271533 -50,-141.9375 -1.8547193,-40.7431136 30,-78.0553356 30,-118.6211262 L 333,30 z"
       style="fill:#ffffff;stroke:none;display:inline" />
    <path
       style="fill:none;stroke:#000000;stroke-width:1px;display:inline"
       d="m 67,30 0,34.74612615 C 67,106.1982889 34.57624882,143.6734962 37,184.875 39.76192548,231.8251507 87,273.8359992 87,316.8125 87.003855,320.1755068 89.16342571,330 99.8125,330 110.4615743,330 112.8432435,320.5691391 113,316.8125 113,276.1957296 65.68323208,231.4858548 63,184.375 60.67613713,143.573771 93,107.6564233 93,65.50000007 c 0,-3.86599324 3.13400673,-6.99999996 7,-6.99999996 3.8659931,0 7,3.13400665 7,6.99999989 0,39.4349654 -31.84635028,78.0493755 -30,118.875 2.27338837,50.2680888 50,99.017714 50,142.4375 0.00386,3.3630068 2.1634257,13.1875 12.8125,13.1875 10.6490743,0 13.0307435,-9.4308609 13.1875,-13.1875 0,-40.4509031 -47.3197681,-84.9826149 -50,-131.9375 -2.3197503,-40.6396214 30,-76.3958908 30,-118.37499993 0,-3.86599324 3.1340067,-6.99999996 7,-6.99999996 3.8659931,0 7,3.13400672 7,6.99999996 0,39.26909803 -31.8410551,77.71088083 -30,118.37499993 2.2687555,50.1109088 50,98.695028 50,141.9375 0.00386,3.3630068 2.1634257,13.1875 12.8125,13.1875 10.6490743,0 13.0307435,-9.4308609 13.1875,-13.1875 0,-40.4509031 -47.3197681,-84.9826149 -50,-131.9375 -2.3197503,-40.6396214 30,-76.3958908 30,-118.37499993 0,-3.86599324 3.1340067,-6.99999996 7,-6.99999996 3.8659931,0 7,3.13400672 7,6.99999996 0,39.26909803 -31.8410551,77.71088083 -30,118.37499993 2.2687555,50.1109088 50,98.695028 50,141.9375 0.00386,3.3630068 2.1634257,13.1875 12.8125,13.1875 10.6490743,0 13.0307435,-9.4308609 13.1875,-13.1875 0,-40.4509031 -47.3197681,-84.9826149 -50,-131.9375 -2.3197503,-40.6396214 30,-76.3958908 30,-118.3749999 0,-3.8659933 3.1340067,-6.99999999 7,-6.99999999 3.8659931,0 7,3.13400669 7,6.99999999 0,39.269098 -31.8410551,77.7108808 -30,118.3749999 2.2687555,50.1109088 50,98.695028 50,141.9375 0.00386,3.3630068 2.1634257,13.1875 12.8125,13.1875 10.6490743,0 13.0307435,-9.4308609 13.1875,-13.1875 0,-40.4509031 -47.3197681,-84.9826149 -50,-131.9375 -2.3197503,-40.6396214 30,-76.3958908 30,-118.3749999 0,-3.8659933 3.1340067,-7 7,-7 3.8659931,0 7,3.1340067 7,7 0,39.269098 -31.8410551,77.7108808 -30,118.3749999 2.2687555,50.1109088 50,98.695028 50,141.9375 0.00386,3.3630068 2.1634257,13.1875 12.8125,13.1875 10.6490743,0 13.0307435,-9.4308609 13.1875,-13.1875 0,-40.4509031 -47.3197681,-84.9826149 -50,-131.9375 -2.3197503,-40.6396214 30,-76.3958908 30,-118.3749999 0,-3.8659933 3.1340067,-7 7,-7 3.8659931,0 7,3.1340067 7,7 0,39.269098 -31.8410551,77.7108808 -30,118.3749999 2.2687555,50.1109088 50,98.695028 50,141.9375 0.00386,3.3630068 2.1634257,13.1875 12.8125,13.1875 10.6490743,0 13.0307435,-9.4308609 13.1875,-13.1875 0,-40.202102 -47.7188629,-91.8271533 -50,-141.9375 -1.8547193,-40.7431136 30,-78.0553356 30,-118.6211262 L 333,30"
       id="path4892"
       inkscape:connector-curvature="0"
       sodipodi:nodetypes="ccacscacscacscacscacscacscacscacscacscacscacscacscacscacc" />
  </g>
  <g
     inkscape:groupmode="layer"
     id="layer5"
     inkscape:label="TNTKL-006"
     style="display:none"
     sodipodi:insensitive="true">
    <path
       style="fill:#ffffff;stroke:none;display:inline"
       d="m 67,30 c 0,29.13045556 0,25.44019838 0,54.74612615 C 67,126.1982889 71.41712236,158.4320916 67,194.875 61.96340629,236.4287783 37,273.8359992 37,316.8125 37.003855,320.1755068 39.16342571,330 49.8125,330 60.46157429,330 62.84324346,320.5691391 63,316.8125 63,276.1957296 87.96369494,236.0918526 93,194.375 c 4.34976088,-36.030052 0,-66.7185767 0,-108.87499993 0,-3.86599324 3.13400673,-6.99999996 7,-6.99999996 3.8659931,0 7,3.13400665 7,6.99999989 0,39.4349654 4.7492797,79.5356435 0,118.875 -5.0363051,41.7168526 -30,79.017714 -30,122.4375 0.00386,3.3630068 2.1634257,13.1875 12.8125,13.1875 10.6490743,0 13.0307435,-9.4308609 13.1875,-13.1875 0,-40.4509031 24.9634063,-80.3837217 30,-121.9375 4.3467768,-35.8625313 0,-66.3958908 0,-108.37499993 0,-3.86599324 3.1340067,-6.99999996 7,-6.99999996 3.8659931,0 7,3.13400672 7,6.99999996 0,39.26909803 4.7478635,79.20335383 0,118.37499993 -5.0365937,41.5537783 -30,78.695028 -30,121.9375 0.00386,3.3630068 2.1634257,13.1875 12.8125,13.1875 10.6490743,0 13.0307435,-9.4308609 13.1875,-13.1875 0,-40.4509031 24.9634063,-80.3837217 30,-121.9375 4.3467768,-35.8625313 0,-66.3958908 0,-108.3749999 0,-3.8659933 3.1340067,-6.99999999 7,-6.99999999 3.8659931,0 7,3.13400669 7,6.99999999 0,39.269098 4.7478635,79.2033538 0,118.3749999 -5.0365937,41.5537783 -30,78.695028 -30,121.9375 0.00386,3.3630068 2.1634257,13.1875 12.8125,13.1875 10.6490743,0 13.0307435,-9.4308609 13.1875,-13.1875 0,-40.4509031 24.9634063,-80.3837217 30,-121.9375 4.3467768,-35.8625313 0,-66.3958908 0,-108.3749999 0,-3.8659933 3.1340067,-7 7,-7 3.8659931,0 7,3.1340067 7,7 0,39.269098 4.7478635,79.2033538 0,118.3749999 -5.0365937,41.5537783 -30,78.695028 -30,121.9375 0.00386,3.3630068 2.1634257,13.1875 12.8125,13.1875 10.6490743,0 13.0307435,-9.4308609 13.1875,-13.1875 0,-40.4509031 24.9634063,-80.3837217 30,-121.9375 4.3467768,-35.8625313 0,-66.3958908 0,-108.3749999 0,-3.8659933 3.1340067,-7 7,-7 3.8659931,0 7,3.1340067 7,7 0,39.269098 4.7478635,79.2033538 0,118.3749999 -5.0365937,41.5537783 -30,78.695028 -30,121.9375 0.00386,3.3630068 2.1634257,13.1875 12.8125,13.1875 10.6490743,0 13.0307435,-9.4308609 13.1875,-13.1875 0,-40.4509031 24.9634063,-80.3837217 30,-121.9375 4.3467768,-35.8625313 0,-66.3958908 0,-108.3749999 0,-3.8659933 3.1340067,-7 7,-7 3.8659931,0 7,3.1340067 7,7 0,39.269098 4.7478635,79.2033538 0,118.3749999 -5.0365937,41.5537783 -30,78.695028 -30,121.9375 0.00386,3.3630068 2.1634257,13.1875 12.8125,13.1875 10.6490743,0 13.0307435,-9.4308609 13.1875,-13.1875 0,-40.202102 24.9634063,-80.3837217 30,-121.9375 4.7577353,-39.2530921 0,-78.0553356 0,-118.6211261 C 333,107.4505286 333,61.14078582 333,30 z"
       id="path4943"
       inkscape:connector-curvature="0"
       sodipodi:nodetypes="ccacscacscacscacscacscacscacscacscacscacscacscacscacscaccc" />
    <path
       sodipodi:nodetypes="ccacscacscacscacscacscacscacscacscacscacscacscacscacscacc"
       inkscape:connector-curvature="0"
       id="path3098-56"
       d="m 67,30 c 0,29.13045556 0,25.44019838 0,54.74612615 C 67,126.1982889 71.41712236,158.4320916 67,194.875 61.96340629,236.4287783 37,273.8359992 37,316.8125 37.003855,320.1755068 39.16342571,330 49.8125,330 60.46157429,330 62.84324346,320.5691391 63,316.8125 63,276.1957296 87.96369494,236.0918526 93,194.375 c 4.34976088,-36.030052 0,-66.7185767 0,-108.87499993 0,-3.86599324 3.13400673,-6.99999996 7,-6.99999996 3.8659931,0 7,3.13400665 7,6.99999989 0,39.4349654 4.7492797,79.5356435 0,118.875 -5.0363051,41.7168526 -30,79.017714 -30,122.4375 0.00386,3.3630068 2.1634257,13.1875 12.8125,13.1875 10.6490743,0 13.0307435,-9.4308609 13.1875,-13.1875 0,-40.4509031 24.9634063,-80.3837217 30,-121.9375 4.3467768,-35.8625313 0,-66.3958908 0,-108.37499993 0,-3.86599324 3.1340067,-6.99999996 7,-6.99999996 3.8659931,0 7,3.13400672 7,6.99999996 0,39.26909803 4.7478635,79.20335383 0,118.37499993 -5.0365937,41.5537783 -30,78.695028 -30,121.9375 0.00386,3.3630068 2.1634257,13.1875 12.8125,13.1875 10.6490743,0 13.0307435,-9.4308609 13.1875,-13.1875 0,-40.4509031 24.9634063,-80.3837217 30,-121.9375 4.3467768,-35.8625313 0,-66.3958908 0,-108.3749999 0,-3.8659933 3.1340067,-6.99999999 7,-6.99999999 3.8659931,0 7,3.13400669 7,6.99999999 0,39.269098 4.7478635,79.2033538 0,118.3749999 -5.0365937,41.5537783 -30,78.695028 -30,121.9375 0.00386,3.3630068 2.1634257,13.1875 12.8125,13.1875 10.6490743,0 13.0307435,-9.4308609 13.1875,-13.1875 0,-40.4509031 24.9634063,-80.3837217 30,-121.9375 4.3467768,-35.8625313 0,-66.3958908 0,-108.3749999 0,-3.8659933 3.1340067,-7 7,-7 3.8659931,0 7,3.1340067 7,7 0,39.269098 4.7478635,79.2033538 0,118.3749999 -5.0365937,41.5537783 -30,78.695028 -30,121.9375 0.00386,3.3630068 2.1634257,13.1875 12.8125,13.1875 10.6490743,0 13.0307435,-9.4308609 13.1875,-13.1875 0,-40.4509031 24.9634063,-80.3837217 30,-121.9375 4.3467768,-35.8625313 0,-66.3958908 0,-108.3749999 0,-3.8659933 3.1340067,-7 7,-7 3.8659931,0 7,3.1340067 7,7 0,39.269098 4.7478635,79.2033538 0,118.3749999 -5.0365937,41.5537783 -30,78.695028 -30,121.9375 0.00386,3.3630068 2.1634257,13.1875 12.8125,13.1875 10.6490743,0 13.0307435,-9.4308609 13.1875,-13.1875 0,-40.4509031 24.9634063,-80.3837217 30,-121.9375 4.3467768,-35.8625313 0,-66.3958908 0,-108.3749999 0,-3.8659933 3.1340067,-7 7,-7 3.8659931,0 7,3.1340067 7,7 0,39.269098 4.7478635,79.2033538 0,118.3749999 -5.0365937,41.5537783 -30,78.695028 -30,121.9375 0.00386,3.3630068 2.1634257,13.1875 12.8125,13.1875 10.6490743,0 13.0307435,-9.4308609 13.1875,-13.1875 0,-40.202102 24.9634063,-80.3837217 30,-121.9375 4.7577353,-39.2530921 0,-78.0553356 0,-118.6211261 C 333,107.4505286 333,61.14078582 333,30"
       style="fill:none;stroke:#000000;stroke-width:1px;display:inline" />
  </g>
  <g
     inkscape:label="TNTKL-007"
     id="g4913"
     inkscape:groupmode="layer"
     style="display:none"
     sodipodi:insensitive="true">
    <path
       sodipodi:nodetypes="ccacscacscacscacscacscacscacscacscacscacscacscacscacscaccc"
       inkscape:connector-curvature="0"
       id="path4941"
       d="m 67,30 0,14.74612615 C 67,86.1982889 113.7841555,150.2784664 107,204.875 101.7796519,246.8865534 47,273.8359992 47,316.8125 47.003855,320.1755068 49.16342571,330 59.8125,330 70.46157429,330 72.84324346,320.5691391 73,316.8125 73,276.1957296 127.8397033,246.5420401 133,204.375 139.6336698,150.1683835 93,87.6564233 93,45.50000007 c 0,-3.86599324 3.13400673,-6.99999996 7,-6.99999996 3.8659931,0 7,3.13400665 7,6.99999989 0,39.4349654 47.4307572,111.5050308 40,168.875 -5.4567844,42.1296978 -60,69.017714 -60,112.4375 0.00386,3.3630068 2.1634257,13.1875 12.8125,13.1875 10.6490743,0 13.0307435,-9.4308609 13.1875,-13.1875 0,-40.4509031 54.8343163,-69.9191901 60,-111.9375 6.643929,-54.0425393 -40,-116.3958908 -40,-158.37499993 0,-3.86599324 3.1340067,-6.99999996 7,-6.99999996 3.8659931,0 7,3.13400672 7,6.99999996 0,39.26909803 47.4438949,111.17026383 40,168.37499993 -5.4628344,41.980711 -60,68.695028 -60,111.9375 0.00386,3.3630068 2.1634257,13.1875 12.8125,13.1875 10.6490743,0 13.0307435,-9.4308609 13.1875,-13.1875 0,-40.4509031 54.8343163,-69.9191901 60,-111.9375 6.643929,-54.0425393 -40,-116.3958908 -40,-158.3749999 0,-3.8659933 3.1340067,-6.99999999 7,-6.99999999 3.8659931,0 7,3.13400669 7,6.99999999 0,39.269098 47.4438949,111.1702638 40,168.3749999 -5.4628344,41.980711 -60,68.695028 -60,111.9375 0.00386,3.3630068 2.1634257,13.1875 12.8125,13.1875 10.6490743,0 13.0307435,-9.4308609 13.1875,-13.1875 0,-40.4509031 54.8343163,-69.9191901 60,-111.9375 6.643929,-54.0425393 -40,-116.3958908 -40,-158.3749999 0,-3.8659933 3.1340067,-7 7,-7 3.8659931,0 7,3.1340067 7,7 0,39.269098 47.4438949,111.1702638 40,168.3749999 -5.4628344,41.980711 -60,68.695028 -60,111.9375 0.00386,3.3630068 2.1634257,13.1875 12.8125,13.1875 10.6490743,0 13.0307435,-9.4308609 13.1875,-13.1875 0,-40.4509031 54.8343163,-69.9191901 60,-111.9375 6.643929,-54.0425393 -40,-116.3958908 -40,-158.3749999 0,-3.8659933 3.1340067,-7 7,-7 3.8659931,0 7,3.1340067 7,7 0,39.269098 47.4438949,111.1702638 40,168.3749999 -5.4628344,41.980711 -60,68.695028 -60,111.9375 0.00386,3.3630068 2.1634257,13.1875 12.8125,13.1875 10.6490743,0 13.0307435,-9.4308609 13.1875,-13.1875 0,-40.4509031 54.8343163,-69.9191901 60,-111.9375 6.643929,-54.0425393 -40,-116.3958908 -40,-158.3749999 0,-3.8659933 3.1340067,-7 7,-7 3.8659931,0 7,3.1340067 7,7 0,39.269098 47.4438949,111.1702638 40,168.3749999 -5.4628344,41.980711 -60,68.695028 -60,111.9375 0.00386,3.3630068 2.1634257,13.1875 12.8125,13.1875 10.6490743,0 13.0307435,-9.4308609 13.1875,-13.1875 0,-40.202102 54.5302754,-69.9576862 60,-111.9375 7.4635972,-57.2826681 -40,-128.0553356 -40,-168.6211261 L 333,30 z"
       style="fill:#ffffff;stroke:none;display:inline" />
    <path
       style="fill:none;stroke:#000000;stroke-width:1px;display:inline"
       d="m 67,30 0,14.74612615 C 67,86.1982889 113.7841555,150.2784664 107,204.875 101.7796519,246.8865534 47,273.8359992 47,316.8125 47.003855,320.1755068 49.16342571,330 59.8125,330 70.46157429,330 72.84324346,320.5691391 73,316.8125 73,276.1957296 127.8397033,246.5420401 133,204.375 139.6336698,150.1683835 93,87.6564233 93,45.50000007 c 0,-3.86599324 3.13400673,-6.99999996 7,-6.99999996 3.8659931,0 7,3.13400665 7,6.99999989 0,39.4349654 47.4307572,111.5050308 40,168.875 -5.4567844,42.1296978 -60,69.017714 -60,112.4375 0.00386,3.3630068 2.1634257,13.1875 12.8125,13.1875 10.6490743,0 13.0307435,-9.4308609 13.1875,-13.1875 0,-40.4509031 54.8343163,-69.9191901 60,-111.9375 6.643929,-54.0425393 -40,-116.3958908 -40,-158.37499993 0,-3.86599324 3.1340067,-6.99999996 7,-6.99999996 3.8659931,0 7,3.13400672 7,6.99999996 0,39.26909803 47.4438949,111.17026383 40,168.37499993 -5.4628344,41.980711 -60,68.695028 -60,111.9375 0.00386,3.3630068 2.1634257,13.1875 12.8125,13.1875 10.6490743,0 13.0307435,-9.4308609 13.1875,-13.1875 0,-40.4509031 54.8343163,-69.9191901 60,-111.9375 6.643929,-54.0425393 -40,-116.3958908 -40,-158.3749999 0,-3.8659933 3.1340067,-6.99999999 7,-6.99999999 3.8659931,0 7,3.13400669 7,6.99999999 0,39.269098 47.4438949,111.1702638 40,168.3749999 -5.4628344,41.980711 -60,68.695028 -60,111.9375 0.00386,3.3630068 2.1634257,13.1875 12.8125,13.1875 10.6490743,0 13.0307435,-9.4308609 13.1875,-13.1875 0,-40.4509031 54.8343163,-69.9191901 60,-111.9375 6.643929,-54.0425393 -40,-116.3958908 -40,-158.3749999 0,-3.8659933 3.1340067,-7 7,-7 3.8659931,0 7,3.1340067 7,7 0,39.269098 47.4438949,111.1702638 40,168.3749999 -5.4628344,41.980711 -60,68.695028 -60,111.9375 0.00386,3.3630068 2.1634257,13.1875 12.8125,13.1875 10.6490743,0 13.0307435,-9.4308609 13.1875,-13.1875 0,-40.4509031 54.8343163,-69.9191901 60,-111.9375 6.643929,-54.0425393 -40,-116.3958908 -40,-158.3749999 0,-3.8659933 3.1340067,-7 7,-7 3.8659931,0 7,3.1340067 7,7 0,39.269098 47.4438949,111.1702638 40,168.3749999 -5.4628344,41.980711 -60,68.695028 -60,111.9375 0.00386,3.3630068 2.1634257,13.1875 12.8125,13.1875 10.6490743,0 13.0307435,-9.4308609 13.1875,-13.1875 0,-40.4509031 54.8343163,-69.9191901 60,-111.9375 6.643929,-54.0425393 -40,-116.3958908 -40,-158.3749999 0,-3.8659933 3.1340067,-7 7,-7 3.8659931,0 7,3.1340067 7,7 0,39.269098 47.4438949,111.1702638 40,168.3749999 -5.4628344,41.980711 -60,68.695028 -60,111.9375 0.00386,3.3630068 2.1634257,13.1875 12.8125,13.1875 10.6490743,0 13.0307435,-9.4308609 13.1875,-13.1875 0,-40.202102 54.5302754,-69.9576862 60,-111.9375 7.4635972,-57.2826681 -40,-128.0553356 -40,-168.6211261 L 333,30"
       id="path4915"
       inkscape:connector-curvature="0"
       sodipodi:nodetypes="ccacscacscacscacscacscacscacscacscacscacscacscacscacscacc" />
  </g>
  <g
     inkscape:groupmode="layer"
     id="g4917"
     inkscape:label="TNTKL-008"
     style="display:none"
     sodipodi:insensitive="true">
    <path
       style="fill:#ffffff;stroke:none;display:inline"
       d="m 67,30 c 0,29.13045556 0,25.44019838 0,54.74612615 0,41.45216275 33.6703087,78.44216715 35,120.12887385 1.218868,38.2123208 -25,68.9609992 -25,111.9375 0.003855,3.3630068 2.16342571,13.1875 12.8125,13.1875 10.6490743,0 13.0307435,-9.4308609 13.1875,-13.1875 0,-40.6167704 26.2965141,-74.0649652 25,-112.4375 -1.3948598,-41.2832424 -35,-76.7185767 -35,-118.87499993 0,-3.86599324 3.13400673,-6.99999996 7,-6.99999996 3.8659931,0 7,3.13400665 7,6.99999989 0,39.4349654 33.9674001,84.372604 35,128.875 0.8906356,38.3841002 -25,69.017714 -25,112.4375 0.00386,3.3630068 2.1634257,13.1875 12.8125,13.1875 10.6490743,0 13.0307435,-9.4308609 13.1875,-13.1875 0,-40.4509031 26.2948006,-73.7276768 25,-111.9375 -1.3935298,-41.123342 -35,-76.3958908 -35,-118.37499993 0,-3.86599324 3.1340067,-6.99999996 7,-6.99999996 3.8659931,0 7,3.13400672 7,6.99999996 0,39.26909803 33.9702735,84.03339973 35,128.37499993 0.8876008,38.2214503 -25,68.695028 -25,111.9375 0.00386,3.3630068 2.1634257,13.1875 12.8125,13.1875 10.6490743,0 13.0307435,-9.4308609 13.1875,-13.1875 0,-40.4509031 26.2948006,-73.7276768 25,-111.9375 -1.3935298,-41.1233419 -35,-76.3958908 -35,-118.3749999 0,-3.8659933 3.1340067,-6.99999999 7,-6.99999999 3.8659931,0 7,3.13400669 7,6.99999999 0,39.269098 33.9702735,84.0333997 35,128.3749999 0.8876008,38.2214503 -25,68.695028 -25,111.9375 0.00386,3.3630068 2.1634257,13.1875 12.8125,13.1875 10.6490743,0 13.0307435,-9.4308609 13.1875,-13.1875 0,-40.4509031 26.2948006,-73.7276768 25,-111.9375 -1.3935298,-41.1233419 -35,-76.3958908 -35,-118.3749999 0,-3.8659933 3.1340067,-7 7,-7 3.8659931,0 7,3.1340067 7,7 0,39.269098 33.9702735,84.0333997 35,128.3749999 0.8876008,38.2214503 -25,68.695028 -25,111.9375 0.00386,3.3630068 2.1634257,13.1875 12.8125,13.1875 10.6490743,0 13.0307435,-9.4308609 13.1875,-13.1875 0,-40.4509031 26.2948006,-73.7276768 25,-111.9375 -1.3935298,-41.1233419 -35,-76.3958908 -35,-118.3749999 0,-3.8659933 3.1340067,-7 7,-7 3.8659931,0 7,3.1340067 7,7 0,39.269098 33.9702735,84.0333997 35,128.3749999 0.8876008,38.2214503 -25,68.695028 -25,111.9375 0.00386,3.3630068 2.1634257,13.1875 12.8125,13.1875 10.6490743,0 13.0307435,-9.4308609 13.1875,-13.1875 0,-40.4509031 26.2948006,-73.7276768 25,-111.9375 -1.3935298,-41.1233419 -35,-76.3958908 -35,-118.3749999 0,-3.8659933 3.1340067,-7 7,-7 3.8659931,0 7,3.1340067 7,7 0,39.269098 33.9702735,84.0333997 35,128.3749999 0.8876008,38.2214503 -25,68.695028 -25,111.9375 0.00386,3.3630068 2.1634257,13.1875 12.8125,13.1875 10.6490743,0 13.0307435,-9.4308609 13.1875,-13.1875 0,-40.202102 25.878319,-73.7158352 25,-111.9375 C 366.979223,220.4540137 333,176.8196644 333,136.2538739 333,107.4505286 333,61.14078582 333,30 z"
       id="path4939"
       inkscape:connector-curvature="0"
       sodipodi:nodetypes="ccacscacscacscacscacscacscacscacscacscacscacscacscacscaccc" />
    <path
       sodipodi:nodetypes="ccacscacscacscacscacscacscacscacscacscacscacscacscacscacc"
       inkscape:connector-curvature="0"
       id="path4919"
       d="m 67,30 c 0,29.13045556 0,25.44019838 0,54.74612615 0,41.45216275 33.6703087,78.44216715 35,120.12887385 1.218868,38.2123208 -25,68.9609992 -25,111.9375 0.003855,3.3630068 2.16342571,13.1875 12.8125,13.1875 10.6490743,0 13.0307435,-9.4308609 13.1875,-13.1875 0,-40.6167704 26.2965141,-74.0649652 25,-112.4375 -1.3948598,-41.2832424 -35,-76.7185767 -35,-118.87499993 0,-3.86599324 3.13400673,-6.99999996 7,-6.99999996 3.8659931,0 7,3.13400665 7,6.99999989 0,39.4349654 33.9674001,84.372604 35,128.875 0.8906356,38.3841002 -25,69.017714 -25,112.4375 0.00386,3.3630068 2.1634257,13.1875 12.8125,13.1875 10.6490743,0 13.0307435,-9.4308609 13.1875,-13.1875 0,-40.4509031 26.2948006,-73.7276768 25,-111.9375 -1.3935298,-41.123342 -35,-76.3958908 -35,-118.37499993 0,-3.86599324 3.1340067,-6.99999996 7,-6.99999996 3.8659931,0 7,3.13400672 7,6.99999996 0,39.26909803 33.9702735,84.03339973 35,128.37499993 0.8876008,38.2214503 -25,68.695028 -25,111.9375 0.00386,3.3630068 2.1634257,13.1875 12.8125,13.1875 10.6490743,0 13.0307435,-9.4308609 13.1875,-13.1875 0,-40.4509031 26.2948006,-73.7276768 25,-111.9375 -1.3935298,-41.1233419 -35,-76.3958908 -35,-118.3749999 0,-3.8659933 3.1340067,-6.99999999 7,-6.99999999 3.8659931,0 7,3.13400669 7,6.99999999 0,39.269098 33.9702735,84.0333997 35,128.3749999 0.8876008,38.2214503 -25,68.695028 -25,111.9375 0.00386,3.3630068 2.1634257,13.1875 12.8125,13.1875 10.6490743,0 13.0307435,-9.4308609 13.1875,-13.1875 0,-40.4509031 26.2948006,-73.7276768 25,-111.9375 -1.3935298,-41.1233419 -35,-76.3958908 -35,-118.3749999 0,-3.8659933 3.1340067,-7 7,-7 3.8659931,0 7,3.1340067 7,7 0,39.269098 33.9702735,84.0333997 35,128.3749999 0.8876008,38.2214503 -25,68.695028 -25,111.9375 0.00386,3.3630068 2.1634257,13.1875 12.8125,13.1875 10.6490743,0 13.0307435,-9.4308609 13.1875,-13.1875 0,-40.4509031 26.2948006,-73.7276768 25,-111.9375 -1.3935298,-41.1233419 -35,-76.3958908 -35,-118.3749999 0,-3.8659933 3.1340067,-7 7,-7 3.8659931,0 7,3.1340067 7,7 0,39.269098 33.9702735,84.0333997 35,128.3749999 0.8876008,38.2214503 -25,68.695028 -25,111.9375 0.00386,3.3630068 2.1634257,13.1875 12.8125,13.1875 10.6490743,0 13.0307435,-9.4308609 13.1875,-13.1875 0,-40.4509031 26.2948006,-73.7276768 25,-111.9375 -1.3935298,-41.1233419 -35,-76.3958908 -35,-118.3749999 0,-3.8659933 3.1340067,-7 7,-7 3.8659931,0 7,3.1340067 7,7 0,39.269098 33.9702735,84.0333997 35,128.3749999 0.8876008,38.2214503 -25,68.695028 -25,111.9375 0.00386,3.3630068 2.1634257,13.1875 12.8125,13.1875 10.6490743,0 13.0307435,-9.4308609 13.1875,-13.1875 0,-40.202102 25.878319,-73.7158352 25,-111.9375 C 366.979223,220.4540137 333,176.8196644 333,136.2538739 333,107.4505286 333,61.14078582 333,30"
       style="fill:none;stroke:#000000;stroke-width:1px;display:inline" />
  </g>
  <g
     inkscape:label="TNTKL-009"
     id="g4921"
     inkscape:groupmode="layer"
     style="display:none"
     sodipodi:insensitive="true">
    <path
       sodipodi:nodetypes="ccacscacscacscacscacscacscacscacscacscacscacscacscacscaccc"
       inkscape:connector-curvature="0"
       id="path4937"
       d="m 67,30 c 0,29.13045556 0,25.44019838 0,54.74612615 C 67,126.1982889 51.86391601,157.8833347 47,194.875 41.6834289,235.3092547 37,273.8359992 37,316.8125 37.003855,320.1755068 39.16342571,330 49.8125,330 60.46157429,330 62.84324346,320.5691391 63,316.8125 63,276.1957296 67.62744353,234.9694196 73,194.375 77.84125108,157.7950629 93,127.6564233 93,85.50000007 c 0,-3.86599324 3.13400673,-6.99999996 7,-6.99999996 3.8659931,0 7,3.13400665 7,6.99999989 0,39.4349654 -15.02668682,79.0020615 -20,118.875 -5.0681826,40.6335427 -10,79.017714 -10,122.4375 0.00386,3.3630068 2.1634257,13.1875 12.8125,13.1875 10.6490743,0 13.0307435,-9.4308609 13.1875,-13.1875 0,-40.4509031 4.6259433,-81.5108455 10,-121.9375 4.8407282,-36.4146594 20,-66.3958908 20,-108.37499993 0,-3.86599324 3.1340067,-6.99999996 7,-6.99999996 3.8659931,0 7,3.13400672 7,6.99999996 0,39.26909803 -15.0267038,78.66768523 -20,118.37499993 -5.0683357,40.4661198 -10,78.695028 -10,121.9375 0.00386,3.3630068 2.1634257,13.1875 12.8125,13.1875 10.6490743,0 13.0307435,-9.4308609 13.1875,-13.1875 0,-40.4509031 4.6259433,-81.5108455 10,-121.9375 4.8407282,-36.4146594 20,-66.3958908 20,-108.3749999 0,-3.8659933 3.1340067,-6.99999999 7,-6.99999999 3.8659931,0 7,3.13400669 7,6.99999999 0,39.269098 -15.0267038,78.6676853 -20,118.3749999 -5.0683357,40.4661198 -10,78.695028 -10,121.9375 0.00386,3.3630068 2.1634257,13.1875 12.8125,13.1875 10.6490743,0 13.0307435,-9.4308609 13.1875,-13.1875 0,-40.4509031 4.6259433,-81.5108455 10,-121.9375 4.8407282,-36.4146594 20,-66.3958908 20,-108.3749999 0,-3.8659933 3.1340067,-7 7,-7 3.8659931,0 7,3.1340067 7,7 0,39.269098 -15.0267038,78.6676853 -20,118.3749999 -5.0683357,40.4661198 -10,78.695028 -10,121.9375 0.00386,3.3630068 2.1634257,13.1875 12.8125,13.1875 10.6490743,0 13.0307435,-9.4308609 13.1875,-13.1875 0,-40.4509031 4.6259433,-81.5108455 10,-121.9375 4.8407282,-36.4146594 20,-66.3958908 20,-108.3749999 0,-3.8659933 3.1340067,-7 7,-7 3.8659931,0 7,3.1340067 7,7 0,39.269098 -15.0267038,78.6676853 -20,118.3749999 -5.0683357,40.4661198 -10,78.695028 -10,121.9375 0.00386,3.3630068 2.1634257,13.1875 12.8125,13.1875 10.6490743,0 13.0307435,-9.4308609 13.1875,-13.1875 0,-40.4509031 4.6259433,-81.5108455 10,-121.9375 4.8407282,-36.4146594 20,-66.3958908 20,-108.3749999 0,-3.8659933 3.1340067,-7 7,-7 3.8659931,0 7,3.1340067 7,7 0,39.269098 -15.0267038,78.6676853 -20,118.3749999 -5.0683357,40.4661198 -10,78.695028 -10,121.9375 0.00386,3.3630068 2.1634257,13.1875 12.8125,13.1875 10.6490743,0 13.0307435,-9.4308609 13.1875,-13.1875 0,-40.202102 4.9385609,-81.470517 10,-121.9375 4.9765691,-39.7884341 20,-78.0553356 20,-118.6211261 C 333,107.4505286 333,61.14078582 333,30 z"
       style="fill:#ffffff;stroke:none;display:inline" />
    <path
       style="fill:none;stroke:#000000;stroke-width:1px;display:inline"
       d="m 67,30 c 0,29.13045556 0,25.44019838 0,54.74612615 C 67,126.1982889 51.86391601,157.8833347 47,194.875 41.6834289,235.3092547 37,273.8359992 37,316.8125 37.003855,320.1755068 39.16342571,330 49.8125,330 60.46157429,330 62.84324346,320.5691391 63,316.8125 63,276.1957296 67.62744353,234.9694196 73,194.375 77.84125108,157.7950629 93,127.6564233 93,85.50000007 c 0,-3.86599324 3.13400673,-6.99999996 7,-6.99999996 3.8659931,0 7,3.13400665 7,6.99999989 0,39.4349654 -15.02668682,79.0020615 -20,118.875 -5.0681826,40.6335427 -10,79.017714 -10,122.4375 0.00386,3.3630068 2.1634257,13.1875 12.8125,13.1875 10.6490743,0 13.0307435,-9.4308609 13.1875,-13.1875 0,-40.4509031 4.6259433,-81.5108455 10,-121.9375 4.8407282,-36.4146594 20,-66.3958908 20,-108.37499993 0,-3.86599324 3.1340067,-6.99999996 7,-6.99999996 3.8659931,0 7,3.13400672 7,6.99999996 0,39.26909803 -15.0267038,78.66768523 -20,118.37499993 -5.0683357,40.4661198 -10,78.695028 -10,121.9375 0.00386,3.3630068 2.1634257,13.1875 12.8125,13.1875 10.6490743,0 13.0307435,-9.4308609 13.1875,-13.1875 0,-40.4509031 4.6259433,-81.5108455 10,-121.9375 4.8407282,-36.4146594 20,-66.3958908 20,-108.3749999 0,-3.8659933 3.1340067,-6.99999999 7,-6.99999999 3.8659931,0 7,3.13400669 7,6.99999999 0,39.269098 -15.0267038,78.6676853 -20,118.3749999 -5.0683357,40.4661198 -10,78.695028 -10,121.9375 0.00386,3.3630068 2.1634257,13.1875 12.8125,13.1875 10.6490743,0 13.0307435,-9.4308609 13.1875,-13.1875 0,-40.4509031 4.6259433,-81.5108455 10,-121.9375 4.8407282,-36.4146594 20,-66.3958908 20,-108.3749999 0,-3.8659933 3.1340067,-7 7,-7 3.8659931,0 7,3.1340067 7,7 0,39.269098 -15.0267038,78.6676853 -20,118.3749999 -5.0683357,40.4661198 -10,78.695028 -10,121.9375 0.00386,3.3630068 2.1634257,13.1875 12.8125,13.1875 10.6490743,0 13.0307435,-9.4308609 13.1875,-13.1875 0,-40.4509031 4.6259433,-81.5108455 10,-121.9375 4.8407282,-36.4146594 20,-66.3958908 20,-108.3749999 0,-3.8659933 3.1340067,-7 7,-7 3.8659931,0 7,3.1340067 7,7 0,39.269098 -15.0267038,78.6676853 -20,118.3749999 -5.0683357,40.4661198 -10,78.695028 -10,121.9375 0.00386,3.3630068 2.1634257,13.1875 12.8125,13.1875 10.6490743,0 13.0307435,-9.4308609 13.1875,-13.1875 0,-40.4509031 4.6259433,-81.5108455 10,-121.9375 4.8407282,-36.4146594 20,-66.3958908 20,-108.3749999 0,-3.8659933 3.1340067,-7 7,-7 3.8659931,0 7,3.1340067 7,7 0,39.269098 -15.0267038,78.6676853 -20,118.3749999 -5.0683357,40.4661198 -10,78.695028 -10,121.9375 0.00386,3.3630068 2.1634257,13.1875 12.8125,13.1875 10.6490743,0 13.0307435,-9.4308609 13.1875,-13.1875 0,-40.202102 4.9385609,-81.470517 10,-121.9375 4.9765691,-39.7884341 20,-78.0553356 20,-118.6211261 C 333,107.4505286 333,61.14078582 333,30"
       id="path4923"
       inkscape:connector-curvature="0"
       sodipodi:nodetypes="ccacscacscacscacscacscacscacscacscacscacscacscacscacscacc" />
  </g>
  <g
     style="display:inline"
     inkscape:groupmode="layer"
     id="g4925"
     inkscape:label="TNTKL-010"
     sodipodi:insensitive="true">
    <path
       style="fill:#ffffff;stroke:none;display:inline"
       d="m 67,30 c 0,29.13045556 0,25.44019838 0,54.74612615 C 67,126.1982889 40.66823679,143.4246683 37,174.875 32.66011243,212.0838584 47,243.8359992 47,286.8125 47.003855,290.1755068 49.16342571,300 59.8125,300 70.46157429,300 72.84324346,290.5691391 73,286.8125 73,246.1957296 58.55463684,211.7385891 63,174.375 c 3.69399291,-31.0482695 30,-46.7185767 30,-88.87499993 0,-3.86599324 3.13400673,-6.99999996 7,-6.99999996 3.8659931,0 7,3.13400665 7,6.99999989 0,39.4349654 -26.46078973,64.6153192 -30,98.875 -3.86650648,37.4279197 10,69.017714 10,112.4375 0.00386,3.3630068 2.1634257,13.1875 12.8125,13.1875 10.6490743,0 13.0307435,-9.4308609 13.1875,-13.1875 0,-40.4509031 -14.45028768,-74.7416843 -10,-111.9375 3.6957189,-30.8890768 30,-46.3958908 30,-88.37499993 0,-3.86599324 3.1340067,-6.99999996 7,-6.99999996 3.8659931,0 7,3.13400672 7,6.99999996 0,39.26909803 -26.4598284,64.27572453 -30,98.37499993 -3.8684025,37.260827 10,68.695028 10,111.9375 0.00386,3.3630068 2.1634257,13.1875 12.8125,13.1875 10.6490743,0 13.0307435,-9.4308609 13.1875,-13.1875 0,-40.4509031 -14.4502877,-74.7416843 -10,-111.9375 3.6957189,-30.8890768 30,-46.3958908 30,-88.3749999 0,-3.8659933 3.1340067,-6.99999999 7,-6.99999999 3.8659931,0 7,3.13400669 7,6.99999999 0,39.269098 -26.4598284,64.2757245 -30,98.3749999 -3.8684025,37.260827 10,68.695028 10,111.9375 0.00386,3.3630068 2.1634257,13.1875 12.8125,13.1875 10.6490743,0 13.0307435,-9.4308609 13.1875,-13.1875 0,-40.4509031 -14.4502877,-74.7416843 -10,-111.9375 3.6957189,-30.8890768 30,-46.3958908 30,-88.3749999 0,-3.8659933 3.1340067,-7 7,-7 3.8659931,0 7,3.1340067 7,7 0,39.269098 -26.4598284,64.2757245 -30,98.3749999 -3.8684025,37.260827 10,68.695028 10,111.9375 0.00386,3.3630068 2.1634257,13.1875 12.8125,13.1875 10.6490743,0 13.0307435,-9.4308609 13.1875,-13.1875 0,-40.4509031 -14.4502877,-74.7416843 -10,-111.9375 3.6957189,-30.8890768 30,-46.3958908 30,-88.3749999 0,-3.8659933 3.1340067,-7 7,-7 3.8659931,0 7,3.1340067 7,7 0,39.269098 -26.4598284,64.2757245 -30,98.3749999 -3.8684025,37.260827 10,68.695028 10,111.9375 0.00386,3.3630068 2.1634257,13.1875 12.8125,13.1875 10.6490743,0 13.0307435,-9.4308609 13.1875,-13.1875 0,-40.4509031 -14.4502877,-74.7416843 -10,-111.9375 3.6957189,-30.8890768 30,-46.3958908 30,-88.3749999 0,-3.8659933 3.1340067,-7 7,-7 3.8659931,0 7,3.1340067 7,7 0,39.269098 -26.4598284,64.2757245 -30,98.3749999 -3.8684025,37.260827 10,68.695028 10,111.9375 0.00386,3.3630068 2.1634257,13.1875 12.8125,13.1875 10.6490743,0 13.0307435,-9.4308609 13.1875,-13.1875 0,-40.202102 -13.8554269,-74.6753282 -10,-111.9375 3.5363743,-34.178572 30,-58.0553356 30,-98.6211261 C 333,107.4505286 333,61.14078582 333,30 z"
       id="path4935"
       inkscape:connector-curvature="0"
       sodipodi:nodetypes="ccacscacscacscacscacscacscacscacscacscacscacscacscacscaccc" />
    <path
       sodipodi:nodetypes="ccacscacscacscacscacscacscacscacscacscacscacscacscacscacc"
       inkscape:connector-curvature="0"
       id="path4927"
       d="m 67,30 c 0,29.13045556 0,25.44019838 0,54.74612615 C 67,126.1982889 40.66823679,143.4246683 37,174.875 32.66011243,212.0838584 47,243.8359992 47,286.8125 47.003855,290.1755068 49.16342571,300 59.8125,300 70.46157429,300 72.84324346,290.5691391 73,286.8125 73,246.1957296 58.55463684,211.7385891 63,174.375 c 3.69399291,-31.0482695 30,-46.7185767 30,-88.87499993 0,-3.86599324 3.13400673,-6.99999996 7,-6.99999996 3.8659931,0 7,3.13400665 7,6.99999989 0,39.4349654 -26.46078973,64.6153192 -30,98.875 -3.86650648,37.4279197 10,69.017714 10,112.4375 0.00386,3.3630068 2.1634257,13.1875 12.8125,13.1875 10.6490743,0 13.0307435,-9.4308609 13.1875,-13.1875 0,-40.4509031 -14.45028768,-74.7416843 -10,-111.9375 3.6957189,-30.8890768 30,-46.3958908 30,-88.37499993 0,-3.86599324 3.1340067,-6.99999996 7,-6.99999996 3.8659931,0 7,3.13400672 7,6.99999996 0,39.26909803 -26.4598284,64.27572453 -30,98.37499993 -3.8684025,37.260827 10,68.695028 10,111.9375 0.00386,3.3630068 2.1634257,13.1875 12.8125,13.1875 10.6490743,0 13.0307435,-9.4308609 13.1875,-13.1875 0,-40.4509031 -14.4502877,-74.7416843 -10,-111.9375 3.6957189,-30.8890768 30,-46.3958908 30,-88.3749999 0,-3.8659933 3.1340067,-6.99999999 7,-6.99999999 3.8659931,0 7,3.13400669 7,6.99999999 0,39.269098 -26.4598284,64.2757245 -30,98.3749999 -3.8684025,37.260827 10,68.695028 10,111.9375 0.00386,3.3630068 2.1634257,13.1875 12.8125,13.1875 10.6490743,0 13.0307435,-9.4308609 13.1875,-13.1875 0,-40.4509031 -14.4502877,-74.7416843 -10,-111.9375 3.6957189,-30.8890768 30,-46.3958908 30,-88.3749999 0,-3.8659933 3.1340067,-7 7,-7 3.8659931,0 7,3.1340067 7,7 0,39.269098 -26.4598284,64.2757245 -30,98.3749999 -3.8684025,37.260827 10,68.695028 10,111.9375 0.00386,3.3630068 2.1634257,13.1875 12.8125,13.1875 10.6490743,0 13.0307435,-9.4308609 13.1875,-13.1875 0,-40.4509031 -14.4502877,-74.7416843 -10,-111.9375 3.6957189,-30.8890768 30,-46.3958908 30,-88.3749999 0,-3.8659933 3.1340067,-7 7,-7 3.8659931,0 7,3.1340067 7,7 0,39.269098 -26.4598284,64.2757245 -30,98.3749999 -3.8684025,37.260827 10,68.695028 10,111.9375 0.00386,3.3630068 2.1634257,13.1875 12.8125,13.1875 10.6490743,0 13.0307435,-9.4308609 13.1875,-13.1875 0,-40.4509031 -14.4502877,-74.7416843 -10,-111.9375 3.6957189,-30.8890768 30,-46.3958908 30,-88.3749999 0,-3.8659933 3.1340067,-7 7,-7 3.8659931,0 7,3.1340067 7,7 0,39.269098 -26.4598284,64.2757245 -30,98.3749999 -3.8684025,37.260827 10,68.695028 10,111.9375 0.00386,3.3630068 2.1634257,13.1875 12.8125,13.1875 10.6490743,0 13.0307435,-9.4308609 13.1875,-13.1875 0,-40.202102 -13.8554269,-74.6753282 -10,-111.9375 3.5363743,-34.178572 30,-58.0553356 30,-98.6211261 C 333,107.4505286 333,61.14078582 333,30"
       style="fill:none;stroke:#000000;stroke-width:1px;display:inline" />
  </g>
  <g
     inkscape:label="TNTKL-011"
     id="g4929"
     inkscape:groupmode="layer"
     style="display:none"
     zpos="4000"
     sodipodi:insensitive="true">
    <path
       sodipodi:nodetypes="ccacscacscacscacscacscacscacscacscacscacscacscacscacscaccc"
       inkscape:connector-curvature="0"
       id="path4933"
       d="m 67,30 c 0,29.13045556 0,65.44019838 0,94.7461262 C 67,166.1982889 53.40488714,211.5196206 57,254.875 61.59481615,310.2863335 97,373.8359992 97,416.8125 97.003855,420.1755068 99.16342571,430 109.8125,430 120.4615743,430 122.8432435,420.5691391 123,416.8125 123,376.1957296 87.56762027,309.950947 83,254.375 79.47067043,211.4323249 93,167.6564233 93,125.5000001 c 0,-3.8659933 3.13400673,-7 7,-7 3.8659931,0 7,3.1340067 7,6.9999999 0,39.4349654 -13.93009532,92.6301747 -10,138.875 4.7219998,55.5630431 40,119.017714 40,162.4375 0.00386,3.3630068 2.1634257,13.1875 12.8125,13.1875 10.6490743,0 13.0307435,-9.4308609 13.1875,-13.1875 0,-40.4509031 -35.4340993,-106.5237764 -40,-161.9375 -3.5246233,-42.7763355 10,-86.3958908 10,-128.3749999 0,-3.8659933 3.1340067,-7 7,-7 3.8659931,0 7,3.1340067 7,7 0,39.269098 -13.926568,92.29671 -10,138.3749999 4.7209808,55.400727 40,118.695028 40,161.9375 0.00386,3.3630068 2.1634257,13.1875 12.8125,13.1875 10.6490743,0 13.0307435,-9.4308609 13.1875,-13.1875 0,-40.4509031 -35.4340993,-106.5237764 -40,-161.9375 -3.5246233,-42.7763355 10,-86.3958908 10,-128.3749999 0,-3.8659933 3.1340067,-7 7,-7 3.8659931,0 7,3.1340067 7,7 0,39.269098 -13.926568,92.29671 -10,138.3749999 4.7209808,55.400727 40,118.695028 40,161.9375 0.00386,3.3630068 2.1634257,13.1875 12.8125,13.1875 10.6490743,0 13.0307435,-9.4308609 13.1875,-13.1875 0,-40.4509031 -35.4340993,-106.5237764 -40,-161.9375 -3.5246233,-42.7763355 10,-86.3958908 10,-128.3749999 0,-3.8659933 3.1340067,-7 7,-7 3.8659931,0 7,3.1340067 7,7 0,39.269098 -13.926568,92.29671 -10,138.3749999 4.7209808,55.400727 40,118.695028 40,161.9375 0.00386,3.3630068 2.1634257,13.1875 12.8125,13.1875 10.6490743,0 13.0307435,-9.4308609 13.1875,-13.1875 0,-40.4509031 -35.4340993,-106.5237764 -40,-161.9375 -3.5246233,-42.7763355 10,-86.3958908 10,-128.3749999 0,-3.8659933 3.1340067,-7 7,-7 3.8659931,0 7,3.1340067 7,7 0,39.269098 -13.926568,92.29671 -10,138.3749999 4.7209808,55.400727 40,118.695028 40,161.9375 0.00386,3.3630068 2.1634257,13.1875 12.8125,13.1875 10.6490743,0 13.0307435,-9.4308609 13.1875,-13.1875 0,-40.4509031 -35.4340993,-106.5237764 -40,-161.9375 -3.5246233,-42.7763355 10,-86.3958908 10,-128.3749999 0,-3.8659933 3.1340067,-7 7,-7 3.8659931,0 7,3.1340067 7,7 0,39.269098 -13.926568,92.29671 -10,138.3749999 4.7209808,55.400727 40,118.695028 40,161.9375 0.00386,3.3630068 2.1634257,13.1875 12.8125,13.1875 10.6490743,0 13.0307435,-9.4308609 13.1875,-13.1875 0,-40.202102 -35.2754833,-106.5370744 -40,-161.9375 -3.936462,-46.1595723 10,-98.0553356 10,-138.6211261 C 333,147.4505286 333,61.14078582 333,30 z"
       style="fill:#ffffff;stroke:none;display:inline" />
    <path
       style="fill:none;stroke:#000000;stroke-width:1px;display:inline"
       d="m 67,30 c 0,29.13045556 0,65.44019838 0,94.7461262 C 67,166.1982889 53.40488714,211.5196206 57,254.875 61.59481615,310.2863335 97,373.8359992 97,416.8125 97.003855,420.1755068 99.16342571,430 109.8125,430 120.4615743,430 122.8432435,420.5691391 123,416.8125 123,376.1957296 87.56762027,309.950947 83,254.375 79.47067043,211.4323249 93,167.6564233 93,125.5000001 c 0,-3.8659933 3.13400673,-7 7,-7 3.8659931,0 7,3.1340067 7,6.9999999 0,39.4349654 -13.93009532,92.6301747 -10,138.875 4.7219998,55.5630431 40,119.017714 40,162.4375 0.00386,3.3630068 2.1634257,13.1875 12.8125,13.1875 10.6490743,0 13.0307435,-9.4308609 13.1875,-13.1875 0,-40.4509031 -35.4340993,-106.5237764 -40,-161.9375 -3.5246233,-42.7763355 10,-86.3958908 10,-128.3749999 0,-3.8659933 3.1340067,-7 7,-7 3.8659931,0 7,3.1340067 7,7 0,39.269098 -13.926568,92.29671 -10,138.3749999 4.7209808,55.400727 40,118.695028 40,161.9375 0.00386,3.3630068 2.1634257,13.1875 12.8125,13.1875 10.6490743,0 13.0307435,-9.4308609 13.1875,-13.1875 0,-40.4509031 -35.4340993,-106.5237764 -40,-161.9375 -3.5246233,-42.7763355 10,-86.3958908 10,-128.3749999 0,-3.8659933 3.1340067,-7 7,-7 3.8659931,0 7,3.1340067 7,7 0,39.269098 -13.926568,92.29671 -10,138.3749999 4.7209808,55.400727 40,118.695028 40,161.9375 0.00386,3.3630068 2.1634257,13.1875 12.8125,13.1875 10.6490743,0 13.0307435,-9.4308609 13.1875,-13.1875 0,-40.4509031 -35.4340993,-106.5237764 -40,-161.9375 -3.5246233,-42.7763355 10,-86.3958908 10,-128.3749999 0,-3.8659933 3.1340067,-7 7,-7 3.8659931,0 7,3.1340067 7,7 0,39.269098 -13.926568,92.29671 -10,138.3749999 4.7209808,55.400727 40,118.695028 40,161.9375 0.00386,3.3630068 2.1634257,13.1875 12.8125,13.1875 10.6490743,0 13.0307435,-9.4308609 13.1875,-13.1875 0,-40.4509031 -35.4340993,-106.5237764 -40,-161.9375 -3.5246233,-42.7763355 10,-86.3958908 10,-128.3749999 0,-3.8659933 3.1340067,-7 7,-7 3.8659931,0 7,3.1340067 7,7 0,39.269098 -13.926568,92.29671 -10,138.3749999 4.7209808,55.400727 40,118.695028 40,161.9375 0.00386,3.3630068 2.1634257,13.1875 12.8125,13.1875 10.6490743,0 13.0307435,-9.4308609 13.1875,-13.1875 0,-40.4509031 -35.4340993,-106.5237764 -40,-161.9375 -3.5246233,-42.7763355 10,-86.3958908 10,-128.3749999 0,-3.8659933 3.1340067,-7 7,-7 3.8659931,0 7,3.1340067 7,7 0,39.269098 -13.926568,92.29671 -10,138.3749999 4.7209808,55.400727 40,118.695028 40,161.9375 0.00386,3.3630068 2.1634257,13.1875 12.8125,13.1875 10.6490743,0 13.0307435,-9.4308609 13.1875,-13.1875 0,-40.202102 -35.2754833,-106.5370744 -40,-161.9375 -3.936462,-46.1595723 10,-98.0553356 10,-138.6211261 C 333,147.4505286 333,61.14078582 333,30"
       id="path4931"
       inkscape:connector-curvature="0"
       sodipodi:nodetypes="ccacscacscacscacscacscacscacscacscacscacscacscacscacscacc" />
  </g>
</svg>
