<?xml version="1.0" encoding="UTF-8" standalone="no"?>
<!-- Created with Inkscape (http://www.inkscape.org/) -->

<svg
   xmlns:dc="http://purl.org/dc/elements/1.1/"
   xmlns:cc="http://creativecommons.org/ns#"
   xmlns:rdf="http://www.w3.org/1999/02/22-rdf-syntax-ns#"
   xmlns:svg="http://www.w3.org/2000/svg"
   xmlns="http://www.w3.org/2000/svg"
   xmlns:sodipodi="http://sodipodi.sourceforge.net/DTD/sodipodi-0.dtd"
   xmlns:inkscape="http://www.inkscape.org/namespaces/inkscape"
   style="display:inline"
   sodipodi:docname="111119_Sweben-R+_II_UW_00_00_.svg"
   inkscape:version="0.48.3.1 r9886"
   version="1.1"
   id="svg2902"
   height="400"
   width="400">
  <sodipodi:namedview
     id="base"
     pagecolor="#f0f0f0"
     bordercolor="#666666"
     borderopacity="1.0"
     inkscape:pageopacity="1"
     inkscape:pageshadow="2"
     inkscape:zoom="2.423380326"
     inkscape:cx="137.5013015"
     inkscape:cy="220.8797502"
     inkscape:document-units="px"
     inkscape:current-layer="layer31"
     showgrid="false"
     inkscape:window-width="1018"
     inkscape:window-height="709"
     inkscape:window-x="0"
     inkscape:window-y="1"
     inkscape:window-maximized="0"
     showguides="true"
     inkscape:guide-bbox="true"
     inkscape:snap-bbox="true"
     inkscape:snap-global="false" />
  <defs
     id="defs2904">
    <clipPath
       clipPathUnits="userSpaceOnUse"
       id="clipPath5174">
      <path
         id="path5176"
         style="opacity:0.5;fill:#00ff00;stroke:#00ff00;stroke-width:1px;stroke-linecap:square;display:inline"
         d="m 436.26971,600.11436 -232.09481,134 -169.500003,-293.58262 232.094813,-134 z"
         inkscape:connector-curvature="0"
         sodipodi:nodetypes="ccccc" />
    </clipPath>
    <clipPath
       clipPathUnits="userSpaceOnUse"
       id="clipPath5174-5">
      <path
         id="path5176-9"
         style="opacity:0.5;fill:#00ff00;stroke:#00ff00;stroke-width:1px;stroke-linecap:square;display:inline"
         d="m 436.26971,600.11436 -232.09481,134 -169.500003,-293.58262 232.094813,-134 z"
         inkscape:connector-curvature="0"
         sodipodi:nodetypes="ccccc" />
    </clipPath>
    <clipPath
       clipPathUnits="userSpaceOnUse"
       id="clipPath3238">
      <path
         sodipodi:nodetypes="ccccc"
         inkscape:connector-curvature="0"
         d="m 461.26971,643.41563 -232.09481,134 -169.500002,-293.58262 232.094812,-134 z"
         style="opacity:0.5;fill:#00ff00;stroke:#00ff00;stroke-width:1px;stroke-linecap:square;display:inline"
         id="path3240" />
    </clipPath>
  </defs>
  <metadata
     id="metadata2907">
    <rdf:RDF>
      <cc:Work
         rdf:about="">
        <dc:format>image/svg+xml</dc:format>
        <dc:type
           rdf:resource="http://purl.org/dc/dcmitype/StillImage" />
        <dc:title />
      </cc:Work>
    </rdf:RDF>
  </metadata>
  <g
     inkscape:groupmode="layer"
     id="bg"
     inkscape:label="XX_BG"
     sodipodi:insensitive="true">
    <path
       style="fill:#f4d7e3"
       d="M 400,0 400,400 0,400 0,0 z"
       id="bgrect"
       inkscape:connector-curvature="0" />
  </g>
  <g
     inkscape:label="XX_REFERENZ"
     inkscape:groupmode="layer"
     id="XX_referenz"
     style="display:inline"
     sodipodi:insensitive="true">
    <path
       id="innerframe"
       style="fill:none;stroke:#ff0000;stroke-width:1"
       d="m 40.5,40.5 319,0 0,319 -319,0 0,-319 z"
       inkscape:label="#innerframe"
       sodipodi:insensitive="true"
       inkscape:connector-curvature="0" />
    <path
       id="outerframe"
       style="fill:none;stroke:#ff0000;stroke-width:1"
       d="m 30.5,30.5 339,0 0,339 -339,0 0,-339 z"
       inkscape:label="#outerframe"
       sodipodi:nodetypes="ccccc"
       sodipodi:insensitive="true"
       inkscape:connector-curvature="0" />
    <path
       style="opacity:0.5;fill:none;stroke:#ffc200;stroke-width:1px;stroke-linecap:square"
       d="m 189,30.5 0,10"
       id="ref-S-top-1"
       sodipodi:insensitive="true"
       inkscape:connector-curvature="0" />
    <path
       style="opacity:0.5;fill:none;stroke:#ffc200;stroke-width:1px;stroke-linecap:square"
       d="m 191,30.5 0,10"
       id="ref-S-top-2"
       sodipodi:insensitive="true"
       inkscape:connector-curvature="0" />
    <path
       style="opacity:0.5;fill:none;stroke:#ffc200;stroke-width:1px;stroke-linecap:square"
       d="m 209,30.5 0,10"
       id="ref-S-top-3"
       sodipodi:insensitive="true"
       inkscape:connector-curvature="0" />
    <path
       style="opacity:0.5;fill:none;stroke:#ffc200;stroke-width:1px;stroke-linecap:square"
       d="m 211,30.5 0,10"
       id="ref-S-top-4"
       sodipodi:insensitive="true"
       inkscape:connector-curvature="0" />
    <path
       style="opacity:0.5;fill:none;stroke:#00ff00;stroke-width:1px;stroke-linecap:square"
       d="m 199,30.5 0,10"
       id="ref-I-top-1"
       sodipodi:insensitive="true"
       inkscape:connector-curvature="0" />
    <path
       style="opacity:0.5;fill:none;stroke:#00ff00;stroke-width:1px;stroke-linecap:square"
       d="m 201,30.5 0,10"
       id="ref-I-top-2"
       sodipodi:insensitive="true"
       inkscape:connector-curvature="0" />
    <path
       style="opacity:0.5;fill:none;stroke:#00ffcc;stroke-width:1px;stroke-linecap:square"
       d="m 66,30.5 0,10"
       id="ref-C-top-1"
       sodipodi:insensitive="true"
       inkscape:connector-curvature="0" />
    <path
       style="opacity:0.5;fill:none;stroke:#00ffcc;stroke-width:1px;stroke-linecap:square"
       d="m 68,30.5 0,10"
       id="ref-C-top-2"
       sodipodi:insensitive="true"
       inkscape:connector-curvature="0" />
    <path
       style="opacity:0.5;fill:none;stroke:#00ffcc;stroke-width:1px;stroke-linecap:square"
       d="m 92,30.5 0,10"
       id="ref-C-top-3"
       sodipodi:insensitive="true"
       inkscape:connector-curvature="0" />
    <path
       style="opacity:0.5;fill:none;stroke:#00ffcc;stroke-width:1px;stroke-linecap:square"
       d="m 94,30.5 0,10"
       id="ref-C-top-4"
       sodipodi:insensitive="true"
       inkscape:connector-curvature="0" />
    <path
       style="opacity:0.5;fill:none;stroke:#00ffcc;stroke-width:1px;stroke-linecap:square"
       d="m 306,30.5 0,10"
       id="ref-C-top-5"
       sodipodi:insensitive="true"
       inkscape:connector-curvature="0" />
    <path
       style="opacity:0.5;fill:none;stroke:#00ffcc;stroke-width:1px;stroke-linecap:square"
       d="m 308,30.5 0,10"
       id="ref-C-top-6"
       sodipodi:insensitive="true"
       inkscape:connector-curvature="0" />
    <path
       style="opacity:0.5;fill:none;stroke:#00ffcc;stroke-width:1px;stroke-linecap:square"
       d="m 332,30.5 0,10"
       id="ref-C-top-7"
       sodipodi:insensitive="true"
       inkscape:connector-curvature="0" />
    <path
       style="opacity:0.5;fill:none;stroke:#00ffcc;stroke-width:1px;stroke-linecap:square"
       d="m 334,30.5 0,10"
       id="ref-C-top-8"
       sodipodi:insensitive="true"
       inkscape:connector-curvature="0" />
    <path
       style="opacity:0.5;fill:none;stroke:#ffc200;stroke-width:1px;stroke-linecap:square"
       d="m 369.5,189 -10,0"
       id="ref-S-right-1"
       sodipodi:insensitive="true"
       inkscape:connector-curvature="0" />
    <path
       style="opacity:0.5;fill:none;stroke:#ffc200;stroke-width:1px;stroke-linecap:square"
       d="m 369.5,191 -10,0"
       id="ref-S-right-2"
       sodipodi:insensitive="true"
       inkscape:connector-curvature="0" />
    <path
       style="opacity:0.5;fill:none;stroke:#ffc200;stroke-width:1px;stroke-linecap:square"
       d="m 369.5,209 -10,0"
       id="ref-S-right-3"
       sodipodi:insensitive="true"
       inkscape:connector-curvature="0" />
    <path
       style="opacity:0.5;fill:none;stroke:#ffc200;stroke-width:1px;stroke-linecap:square"
       d="m 369.5,211 -10,0"
       id="ref-S-right-4"
       sodipodi:insensitive="true"
       inkscape:connector-curvature="0" />
    <path
       style="opacity:0.5;fill:none;stroke:#00ff00;stroke-width:1px;stroke-linecap:square"
       d="m 369.5,199 -10,0"
       id="ref-I-right-1"
       sodipodi:insensitive="true"
       inkscape:connector-curvature="0" />
    <path
       style="opacity:0.5;fill:none;stroke:#00ff00;stroke-width:1px;stroke-linecap:square"
       d="m 369.5,201 -10,0"
       id="ref-I-right-2"
       sodipodi:insensitive="true"
       inkscape:connector-curvature="0" />
    <path
       style="opacity:0.5;fill:none;stroke:#00ffcc;stroke-width:1px;stroke-linecap:square"
       d="m 369.5,66 -10,0"
       id="ref-C-right-1"
       sodipodi:insensitive="true"
       inkscape:connector-curvature="0" />
    <path
       style="opacity:0.5;fill:none;stroke:#00ffcc;stroke-width:1px;stroke-linecap:square"
       d="m 369.5,68 -10,0"
       id="ref-C-right-2"
       sodipodi:insensitive="true"
       inkscape:connector-curvature="0" />
    <path
       style="opacity:0.5;fill:none;stroke:#00ffcc;stroke-width:1px;stroke-linecap:square"
       d="m 369.5,92 -10,0"
       id="ref-C-right-3"
       sodipodi:insensitive="true"
       inkscape:connector-curvature="0" />
    <path
       style="opacity:0.5;fill:none;stroke:#00ffcc;stroke-width:1px;stroke-linecap:square"
       d="m 369.5,94 -10,0"
       id="ref-C-right-4"
       sodipodi:insensitive="true"
       inkscape:connector-curvature="0" />
    <path
       style="opacity:0.5;fill:none;stroke:#00ffcc;stroke-width:1px;stroke-linecap:square"
       d="m 369.5,306 -10,0"
       id="ref-C-right-5"
       sodipodi:insensitive="true"
       inkscape:connector-curvature="0" />
    <path
       style="opacity:0.5;fill:none;stroke:#00ffcc;stroke-width:1px;stroke-linecap:square"
       d="m 369.5,308 -10,0"
       id="ref-C-right-6"
       sodipodi:insensitive="true"
       inkscape:connector-curvature="0" />
    <path
       style="opacity:0.5;fill:none;stroke:#00ffcc;stroke-width:1px;stroke-linecap:square"
       d="m 369.5,332 -10,0"
       id="ref-C-right-7"
       sodipodi:insensitive="true"
       inkscape:connector-curvature="0" />
    <path
       style="opacity:0.5;fill:none;stroke:#00ffcc;stroke-width:1px;stroke-linecap:square"
       d="m 369.5,334 -10,0"
       id="ref-C-right-8"
       sodipodi:insensitive="true"
       inkscape:connector-curvature="0" />
    <path
       style="opacity:0.5;fill:none;stroke:#ffc200;stroke-width:1px;stroke-linecap:square"
       d="m 189,369.5 0,-10"
       id="ref-S-bottom-1"
       sodipodi:insensitive="true"
       inkscape:connector-curvature="0" />
    <path
       style="opacity:0.5;fill:none;stroke:#ffc200;stroke-width:1px;stroke-linecap:square"
       d="m 191,369.5 0,-10"
       id="ref-S-bottom-2"
       sodipodi:insensitive="true"
       inkscape:connector-curvature="0" />
    <path
       style="opacity:0.5;fill:none;stroke:#ffc200;stroke-width:1px;stroke-linecap:square"
       d="m 209,369.5 0,-10"
       id="ref-S-bottom-3"
       sodipodi:insensitive="true"
       inkscape:connector-curvature="0" />
    <path
       style="opacity:0.5;fill:none;stroke:#ffc200;stroke-width:1px;stroke-linecap:square"
       d="m 211,369.5 0,-10"
       id="ref-S-bottom-4"
       sodipodi:insensitive="true"
       inkscape:connector-curvature="0" />
    <path
       style="opacity:0.5;fill:none;stroke:#00ff00;stroke-width:1px;stroke-linecap:square"
       d="m 199,369.5 0,-10"
       id="ref-I-bottom-1"
       sodipodi:insensitive="true"
       inkscape:connector-curvature="0" />
    <path
       style="opacity:0.5;fill:none;stroke:#00ff00;stroke-width:1px;stroke-linecap:square"
       d="m 201,369.5 0,-10"
       id="ref-I-bottom-2"
       sodipodi:insensitive="true"
       inkscape:connector-curvature="0" />
    <path
       style="opacity:0.5;fill:none;stroke:#00ffcc;stroke-width:1px;stroke-linecap:square"
       d="m 66,369.5 0,-10"
       id="ref-C-bottom-1"
       sodipodi:insensitive="true"
       inkscape:connector-curvature="0" />
    <path
       style="opacity:0.5;fill:none;stroke:#00ffcc;stroke-width:1px;stroke-linecap:square"
       d="m 68,369.5 0,-10"
       id="ref-C-bottom-2"
       sodipodi:insensitive="true"
       inkscape:connector-curvature="0" />
    <path
       style="opacity:0.5;fill:none;stroke:#00ffcc;stroke-width:1px;stroke-linecap:square"
       d="m 92,369.5 0,-10"
       id="ref-C-bottom-3"
       sodipodi:insensitive="true"
       inkscape:connector-curvature="0" />
    <path
       style="opacity:0.5;fill:none;stroke:#00ffcc;stroke-width:1px;stroke-linecap:square"
       d="m 94,369.5 0,-10"
       id="ref-C-bottom-4"
       sodipodi:insensitive="true"
       inkscape:connector-curvature="0" />
    <path
       style="opacity:0.5;fill:none;stroke:#00ffcc;stroke-width:1px;stroke-linecap:square"
       d="m 306,369.5 0,-10"
       id="ref-C-bottom-5"
       sodipodi:insensitive="true"
       inkscape:connector-curvature="0" />
    <path
       style="opacity:0.5;fill:none;stroke:#00ffcc;stroke-width:1px;stroke-linecap:square"
       d="m 308,369.5 0,-10"
       id="ref-C-bottom-6"
       sodipodi:insensitive="true"
       inkscape:connector-curvature="0" />
    <path
       style="opacity:0.5;fill:none;stroke:#00ffcc;stroke-width:1px;stroke-linecap:square"
       d="m 332,369.5 0,-10"
       id="ref-C-bottom-7"
       sodipodi:insensitive="true"
       inkscape:connector-curvature="0" />
    <path
       style="opacity:0.5;fill:none;stroke:#00ffcc;stroke-width:1px;stroke-linecap:square"
       d="m 334,369.5 0,-10"
       id="ref-C-bottom-8"
       sodipodi:insensitive="true"
       inkscape:connector-curvature="0" />
    <path
       style="opacity:0.5;fill:none;stroke:#ffc200;stroke-width:1px;stroke-linecap:square"
       d="m 30.5,189 10,0"
       id="ref-S-left-1"
       sodipodi:insensitive="true"
       inkscape:connector-curvature="0" />
    <path
       style="opacity:0.5;fill:none;stroke:#ffc200;stroke-width:1px;stroke-linecap:square"
       d="m 30.5,191 10,0"
       id="ref-S-left-2"
       sodipodi:insensitive="true"
       inkscape:connector-curvature="0" />
    <path
       style="opacity:0.5;fill:none;stroke:#ffc200;stroke-width:1px;stroke-linecap:square"
       d="m 30.5,209 10,0"
       id="ref-S-left-3"
       sodipodi:insensitive="true"
       inkscape:connector-curvature="0" />
    <path
       style="opacity:0.5;fill:none;stroke:#ffc200;stroke-width:1px;stroke-linecap:square"
       d="m 30.5,211 10,0"
       id="ref-S-left-4"
       sodipodi:insensitive="true"
       inkscape:connector-curvature="0" />
    <path
       style="opacity:0.5;fill:none;stroke:#00ff00;stroke-width:1px;stroke-linecap:square"
       d="m 40.5,199 -10,0"
       id="ref-I-left-1"
       sodipodi:insensitive="true"
       inkscape:connector-curvature="0" />
    <path
       style="opacity:0.5;fill:none;stroke:#00ff00;stroke-width:1px;stroke-linecap:square"
       d="m 40.5,201 -10,0"
       id="ref-I-left-2"
       sodipodi:insensitive="true"
       inkscape:connector-curvature="0" />
    <path
       style="opacity:0.5;fill:none;stroke:#00ffcc;stroke-width:1px;stroke-linecap:square"
       d="m 30.5,66 10,0"
       id="ref-C-left-1"
       sodipodi:insensitive="true"
       inkscape:connector-curvature="0" />
    <path
       style="opacity:0.5;fill:none;stroke:#00ffcc;stroke-width:1px;stroke-linecap:square"
       d="m 30.5,68 10,0"
       id="ref-C-left-2"
       sodipodi:insensitive="true"
       inkscape:connector-curvature="0" />
    <path
       style="opacity:0.5;fill:none;stroke:#00ffcc;stroke-width:1px;stroke-linecap:square"
       d="m 30.5,92 10,0"
       id="ref-C-left-3"
       sodipodi:insensitive="true"
       inkscape:connector-curvature="0" />
    <path
       style="opacity:0.5;fill:none;stroke:#00ffcc;stroke-width:1px;stroke-linecap:square"
       d="m 30.5,94 10,0"
       id="ref-C-left-4"
       sodipodi:insensitive="true"
       inkscape:connector-curvature="0" />
    <path
       style="opacity:0.5;fill:none;stroke:#00ffcc;stroke-width:1px;stroke-linecap:square"
       d="m 30.5,306 10,0"
       id="ref-C-left-5"
       sodipodi:insensitive="true"
       inkscape:connector-curvature="0" />
    <path
       style="opacity:0.5;fill:none;stroke:#00ffcc;stroke-width:1px;stroke-linecap:square"
       d="m 30.5,308 10,0"
       id="ref-C-left-6"
       sodipodi:insensitive="true"
       inkscape:connector-curvature="0" />
    <path
       style="opacity:0.5;fill:none;stroke:#00ffcc;stroke-width:1px;stroke-linecap:square"
       d="m 30.5,332 10,0"
       id="ref-C-left-7"
       sodipodi:insensitive="true"
       inkscape:connector-curvature="0" />
    <path
       style="opacity:0.5;fill:none;stroke:#00ffcc;stroke-width:1px;stroke-linecap:square"
       d="m 30.5,334 10,0"
       id="ref-C-left-8"
       sodipodi:insensitive="true"
       inkscape:connector-curvature="0" />
    <path
       style="fill:none;stroke:#000000;stroke-width:1px;stroke-linecap:butt"
       d="m 190,30 0,11"
       id="S-top-1"
       inkscape:connector-curvature="0"
       sodipodi:nodetypes="cc" />
    <path
       style="fill:none;stroke:#000000;stroke-width:1px;stroke-linecap:butt"
       d="m 210,30 0,11"
       id="S-top-2"
       inkscape:connector-curvature="0"
       sodipodi:nodetypes="cc" />
    <path
       style="fill:none;stroke:#000000;stroke-width:1px;stroke-linecap:butt"
       d="m 370,190 -11,0"
       id="S-right-1"
       inkscape:connector-curvature="0"
       sodipodi:nodetypes="cc" />
    <path
       style="fill:none;stroke:#000000;stroke-width:1px;stroke-linecap:butt"
       d="m 370,210 -11,0"
       id="S-right-2"
       inkscape:connector-curvature="0"
       sodipodi:nodetypes="cc" />
    <path
       style="fill:none;stroke:#000000;stroke-width:1px;stroke-linecap:butt"
       d="m 190,370 0,-11"
       id="S-bottom-1"
       inkscape:connector-curvature="0"
       sodipodi:nodetypes="cc" />
    <path
       style="fill:none;stroke:#000000;stroke-width:1px;stroke-linecap:butt"
       d="m 210,370 0,-11"
       id="S-bottom-2"
       inkscape:connector-curvature="0"
       sodipodi:nodetypes="cc" />
    <path
       style="fill:none;stroke:#000000;stroke-width:1px;stroke-linecap:butt"
       d="m 30,190 11,0"
       id="S-left-1"
       inkscape:connector-curvature="0"
       sodipodi:nodetypes="cc" />
    <path
       style="fill:none;stroke:#000000;stroke-width:1px;stroke-linecap:butt"
       d="m 30,210 11,0"
       id="S-left-2"
       inkscape:connector-curvature="0"
       sodipodi:nodetypes="cc" />
    <path
       style="fill:none;stroke:#000000;stroke-width:1px;stroke-linecap:butt"
       d="m 200,30 0,11"
       id="I-top-1"
       inkscape:connector-curvature="0"
       sodipodi:nodetypes="cc" />
    <path
       style="fill:none;stroke:#000000;stroke-width:1px;stroke-linecap:butt"
       d="m 370,200 -11,0"
       id="I-right-1"
       inkscape:connector-curvature="0"
       sodipodi:nodetypes="cc" />
    <path
       style="fill:none;stroke:#000000;stroke-width:1px;stroke-linecap:butt"
       d="m 200,370 0,-11"
       id="I-bottom-1"
       inkscape:connector-curvature="0"
       sodipodi:nodetypes="cc" />
    <path
       style="fill:none;stroke:#000000;stroke-width:1px;stroke-linecap:butt"
       d="m 41,200 -11,0"
       id="I-left-1"
       inkscape:connector-curvature="0"
       sodipodi:nodetypes="cc" />
    <path
       style="fill:none;stroke:#000000;stroke-width:1px;stroke-linecap:butt"
       d="m 67,30 0,11"
       id="C-top-1"
       inkscape:connector-curvature="0"
       sodipodi:nodetypes="cc" />
    <path
       style="fill:none;stroke:#000000;stroke-width:1px;stroke-linecap:butt"
       d="m 93,30 0,11"
       id="C-top-2"
       inkscape:connector-curvature="0"
       sodipodi:nodetypes="cc" />
    <path
       style="fill:none;stroke:#000000;stroke-width:1px;stroke-linecap:butt"
       d="m 307,30 0,11"
       id="C-top-3"
       inkscape:connector-curvature="0"
       sodipodi:nodetypes="cc" />
    <path
       style="fill:none;stroke:#000000;stroke-width:1px;stroke-linecap:butt"
       d="m 333,30 0,11"
       id="C-top-4"
       inkscape:connector-curvature="0"
       sodipodi:nodetypes="cc" />
    <path
       style="fill:none;stroke:#000000;stroke-width:1px;stroke-linecap:butt"
       d="m 370,67 -11,0"
       id="C-right-1"
       inkscape:connector-curvature="0"
       sodipodi:nodetypes="cc" />
    <path
       style="fill:none;stroke:#000000;stroke-width:1px;stroke-linecap:butt"
       d="m 370,93 -11,0"
       id="C-right-2"
       inkscape:connector-curvature="0"
       sodipodi:nodetypes="cc" />
    <path
       style="fill:none;stroke:#000000;stroke-width:1px;stroke-linecap:butt"
       d="m 370,307 -11,0"
       id="C-right-3"
       inkscape:connector-curvature="0"
       sodipodi:nodetypes="cc" />
    <path
       style="fill:none;stroke:#000000;stroke-width:1px;stroke-linecap:butt"
       d="m 370,333 -11,0"
       id="C-right-4"
       inkscape:connector-curvature="0"
       sodipodi:nodetypes="cc" />
    <path
       style="fill:none;stroke:#000000;stroke-width:1px;stroke-linecap:butt"
       d="m 67,370 0,-11"
       id="C-bottom-1"
       inkscape:connector-curvature="0"
       sodipodi:nodetypes="cc" />
    <path
       style="fill:none;stroke:#000000;stroke-width:1px;stroke-linecap:butt"
       d="m 93,370 0,-11"
       id="C-bottom-2"
       inkscape:connector-curvature="0"
       sodipodi:nodetypes="cc" />
    <path
       style="fill:none;stroke:#000000;stroke-width:1px;stroke-linecap:butt"
       d="m 307,370 0,-11"
       id="C-bottom-3"
       inkscape:connector-curvature="0"
       sodipodi:nodetypes="cc" />
    <path
       style="fill:none;stroke:#000000;stroke-width:1px;stroke-linecap:butt"
       d="m 333,370 0,-11"
       id="C-bottom-4"
       inkscape:connector-curvature="0"
       sodipodi:nodetypes="cc" />
    <path
       style="fill:none;stroke:#000000;stroke-width:1px;stroke-linecap:butt"
       d="m 30,67 11,0"
       id="C-left-1"
       inkscape:connector-curvature="0"
       sodipodi:nodetypes="cc" />
    <path
       style="fill:none;stroke:#000000;stroke-width:1px;stroke-linecap:butt"
       d="m 30,93 11,0"
       id="C-left-2"
       inkscape:connector-curvature="0"
       sodipodi:nodetypes="cc" />
    <path
       style="fill:none;stroke:#000000;stroke-width:1px;stroke-linecap:butt"
       d="m 30,307 11,0"
       id="C-left-3"
       inkscape:connector-curvature="0"
       sodipodi:nodetypes="cc" />
    <path
       style="fill:none;stroke:#000000;stroke-width:1px;stroke-linecap:butt"
       d="m 30,333 11,0"
       id="C-left-4"
       inkscape:connector-curvature="0"
       sodipodi:nodetypes="cc" />
  </g>
  <g
     inkscape:groupmode="layer"
     id="layer32"
     inkscape:label="XX_addon-01"
     sodipodi:insensitive="true"
     style="display:none">
    <path
       sodipodi:nodetypes="csasssaccc"
       d="m 188.09769,139.49178 c 0,0 14.77006,18.80393 24.89112,24.60826 14.22497,8.15788 54.26989,-3.3226 51.89504,14.47867 -1.65847,12.43136 -32.47889,-11.07969 -37.62361,0.25688 -6.29162,13.86381 32.02598,25.50735 21.19323,36.20506 -10.72042,10.5868 -21.20138,-32.81405 -30.90419,-27.35241 -7.60164,4.2789 -0.95709,22.08156 3.79891,31.54437 23.47909,46.71539 46.94432,106.15324 113.7778,107.96745 0,0 12.74495,-0.004 12.74495,-0.004 l 32.11935,0.004"
       style="fill:none;stroke:#ff00ff;stroke-width:1;stroke-linecap:butt;stroke-linejoin:miter;stroke-miterlimit:4;stroke-opacity:1;stroke-dasharray:none;display:inline"
       id="path4326"
       inkscape:connector-curvature="0" />
    <path
       style="fill:none;stroke:#000000;stroke-width:1px;stroke-linecap:butt;display:inline"
       d="m 370,333 -11,0 -13.87401,0.20006 c -61.3395,0.8845 -227.79778,-20.60762 -187.57671,-93.51182 27.35421,-49.58189 86.72221,25.89036 100.90419,-4.64759 9.95225,-21.43009 -55.48376,-36.0249 -43.19323,-56.20506 12.44297,-20.43046 64.25449,35.80099 70.62361,12.74312 6.91389,-25.03009 -58.29729,-20.00829 -72.89504,-27.47867 -17.01105,-8.70538 -30.89112,-30.60826 -30.89112,-30.60826"
       id="C-right-4-4"
       inkscape:connector-curvature="0"
       sodipodi:nodetypes="ccssaaasc" />
  </g>
  <g
     style="display:none"
     inkscape:label="XX_addon-02"
     id="g6167"
     inkscape:groupmode="layer"
     sodipodi:insensitive="true">
    <path
       sodipodi:nodetypes="ccsaaaaac"
       inkscape:connector-curvature="0"
       id="path6171"
       d="m 370,333 -11,0 -13.87401,0.20006 c -61.3395,0.8845 -119.21552,36.69874 -147.57671,-3.51182 -17.12378,-24.27812 28.80813,-54.9519 27.90419,-84.64759 -0.69007,-22.66983 -35.43643,-42.96959 -25.19323,-63.20506 13.31853,-26.3108 88.30884,7.11029 85.62361,-22.25688 -2.73559,-29.91793 -63.72232,8.27105 -89.89504,-6.47867 -6.97821,-3.9326 -13.89112,-19.60826 -13.89112,-19.60826"
       style="fill:none;stroke:#00ff00;stroke-width:1px;stroke-linecap:butt;display:inline" />
    <path
       id="path4560"
       style="fill:none;stroke:#ff00ff;stroke-width:1;stroke-linecap:butt;stroke-linejoin:miter;stroke-miterlimit:4;stroke-opacity:1;stroke-dasharray:none;display:inline"
       d="m 188.09769,139.49178 c 0,0 14.77006,18.80393 24.89112,24.60826 14.22497,8.15788 54.26989,-3.3226 51.89504,14.47867 -1.65847,12.43136 -32.47889,-11.07969 -37.62361,0.25688 -6.29162,13.86381 32.02598,25.50735 21.19323,36.20506 -10.72042,10.5868 -21.20138,-32.81405 -30.90419,-27.35241 -7.60164,4.2789 4.03538,20.95624 3.79891,31.54437 -0.85158,38.13054 -43.93506,84.24293 -18.73879,112.87527 29.20126,33.18351 67.76579,-4.99034 132.51659,-4.90782 0,0 12.74495,-0.004 12.74495,-0.004 l 32.11935,0.004"
       sodipodi:nodetypes="csasssaaccc"
       inkscape:connector-curvature="0" />
  </g>
  <g
     inkscape:groupmode="layer"
     id="layer36"
     inkscape:label="addon-02"
     style="display:none"
     sodipodi:insensitive="true">
    <path
       style="fill:none;stroke:#000000;stroke-width:1px;stroke-linecap:round;display:inline"
       d="m 213.10701,172.58894 c 25.56634,-6.8449 74.96516,10.92241 72.77684,-13.01023"
       id="path6233"
       inkscape:connector-curvature="0" />
    <path
       style="fill:none;stroke:#000000;stroke-width:1px;stroke-linecap:round;display:inline"
       d="m 195.98881,153.10004 c -6.97821,-3.9326 -13.89112,-19.60826 -13.89112,-19.60826"
       id="path6171-0"
       inkscape:connector-curvature="0" />
  </g>
  <g
     inkscape:groupmode="layer"
     id="layer33"
     inkscape:label="addon-01"
     style="display:inline"
     sodipodi:insensitive="true">
    <path
       style="fill:none;stroke:#000000;stroke-width:1px;stroke-linecap:butt;display:inline"
       d="m 370,333 -11,0 -13.87401,0.20006 c -61.3395,0.8845 -227.79778,-20.60762 -187.57671,-93.51182"
       id="path6127"
       inkscape:connector-curvature="0" />
    <path
       style="fill:none;stroke:#000000;stroke-width:1px;stroke-linecap:round;display:inline"
       d="m 258.45347,235.04065 c 9.95225,-21.43009 -55.48376,-36.0249 -43.19323,-56.20506"
       id="path6123"
       inkscape:connector-curvature="0" />
    <path
       style="fill:none;stroke:#000000;stroke-width:1px;stroke-linecap:round;display:inline"
       d="m 285.88385,191.57871 c 6.91389,-25.03009 -58.29729,-20.00829 -72.89504,-27.47867 -17.01105,-8.70538 -30.89112,-30.60826 -30.89112,-30.60826"
       id="C-right-4-4-5"
       inkscape:connector-curvature="0" />
  </g>
  <g
     inkscape:groupmode="layer"
     id="layer26"
     inkscape:label="schwebetorso-01"
     style="display:none"
     sodipodi:insensitive="true">
    <path
       style="fill:#ffffff;stroke:#000000;stroke-width:1;stroke-linecap:butt;stroke-linejoin:miter;stroke-miterlimit:4;stroke-opacity:1;stroke-dasharray:none;display:inline"
       d="m 140.79661,129.69652 c 1.45418,1.08939 15.06964,20.78778 15.06964,20.78778 -6.47847,4.68158 -10.53216,9.39093 -20.49226,13.06981 0,0 -8.32693,3.08849 -15.15546,-5.29139 -6.82852,-8.37989 -31.74592,-41.33111 -31.74592,-41.33111 l -9.433791,-13.09278 c 3.945301,-6.560071 5.205471,-7.828531 16.787421,-6.175121 0,0 2.94356,9.126461 16.17793,17.997851 13.44889,7.00993 16.12821,13.53058 18.42032,20.03363 l 10.37212,-5.99872 z"
       id="path4417"
       sodipodi:nodetypes="cccsccccccc"
       inkscape:connector-curvature="0" />
    <path
       style="fill:#ffffff;stroke:#000000;stroke-width:1;stroke-linecap:butt;stroke-linejoin:miter;stroke-miterlimit:4;stroke-opacity:1;stroke-dasharray:none;display:inline"
       d="m 255.10804,159.95476 2.49267,34.77023 c -0.20322,5.27211 -1.03511,10.40919 -11.85852,13.40042 l -33.18845,5.77147 -4.44473,7.26396 c -2.01583,0.0309 -8.28509,1.82399 -7.07334,1.25668 -5.61541,-8.22052 -2.53354,-19.48382 5.02341,-28.9651 l 5.62454,5.23561 c -0.31397,0.66556 6.5572,-10.29873 18.89728,-12.21529 2.25034,-0.34951 -10.09367,-30.3743 -9.33696,-30.52529 l 33.8641,4.0073 z"
       id="path4425"
       sodipodi:nodetypes="ccccccccsccc"
       inkscape:connector-curvature="0" />
    <path
       id="path4427-8"
       style="fill:#ffffff;stroke:none;display:inline"
       d="m 359.99029,66.802439 -2.19198,0.002 c 0,0 -2.94718,0.009 -4.24061,0.01606 -31.47906,1.504918 -76.58502,-15.942095 -95.66099,49.483701 l 5.10114,3.87139 -0.20122,33.37526 -6.42076,12.66331 c 0,0 -15.91138,-7.00948 -39.26344,-5.98331 -1.49724,-9.24767 -6.7122,-24.24668 -6.7122,-24.24668 l -14.92217,-0.2113 -20.74652,8.66132 -5.52612,6.97729 -4.65073,2.64781 -8.96099,0.41584 c -10.00078,-8.05061 -18.03728,-16.71455 -17.2396,-28.19488 l 12.37042,-11.22224 c 0,0 7.56411,-10.75131 11.3543,-16.121226 12.68146,-17.967051 38.36031,-8.387058 37.92918,-43.523663 L 200,42.185575 l -0.0123,-2.22441 160.00259,-0.728573 z"
       sodipodi:nodetypes="ccccccccccccccccsccccc"
       inkscape:connector-curvature="0" />
    <path
       style="fill:none;stroke:#000000;stroke-width:1px;stroke-linecap:butt;display:inline"
       d="m 200,30 0,11 0.008,14.413086 c 0.43113,35.136605 -25.24772,25.556612 -37.92918,43.523663 -3.79019,5.369921 -11.3543,16.121231 -11.3543,16.121231 l -12.37042,11.22223 c -0.79768,11.48033 7.23882,20.14427 17.2396,28.19488 l 8.96099,-0.41584 4.65073,-2.64781 5.52612,-6.97729 20.74652,-8.66132 14.92217,0.2113 c 0,0 5.21496,14.99901 6.7122,24.24668 23.35206,-1.02617 39.26344,5.98331 39.26344,5.98331 l 6.42076,-12.66331 0.20122,-33.37526 -5.10114,-3.87138 C 276.97268,50.878369 322.07864,68.512918 353.5577,67.008 L 359,67 l 11,0"
       id="I-top-1-1"
       inkscape:connector-curvature="0"
       sodipodi:nodetypes="cccscccccccccccccccc" />
  </g>
  <g
     inkscape:groupmode="layer"
     id="layer27"
     inkscape:label="schwebetorso-02"
     style="display:none"
     sodipodi:insensitive="true">
    <path
       sodipodi:nodetypes="cccsccccccc"
       id="path4496"
       d="m 140.79661,129.69652 c 1.45418,1.08939 15.06964,20.78778 15.06964,20.78778 -6.47847,4.68158 -10.53216,9.39093 -20.49226,13.06981 0,0 -8.32693,3.08849 -15.15546,-5.29139 -6.82852,-8.37989 -31.74592,-41.33111 -31.74592,-41.33111 l -9.433791,-13.09278 c 3.945301,-6.560071 5.205471,-7.828531 16.787421,-6.175121 0,0 2.94356,9.126461 16.17793,17.997851 13.44889,7.00993 16.12821,13.53058 18.42032,20.03363 l 10.37212,-5.99872 z"
       style="fill:#ffffff;stroke:#000000;stroke-width:1;stroke-linecap:butt;stroke-linejoin:miter;stroke-miterlimit:4;stroke-opacity:1;stroke-dasharray:none;display:inline"
       inkscape:connector-curvature="0" />
    <path
       sodipodi:nodetypes="ccccccccsccc"
       id="path4498"
       d="m 255.10804,159.95476 2.49267,34.77023 c -0.20322,5.27211 -1.03511,10.40919 -11.85852,13.40042 l -33.18845,5.77147 -4.44473,7.26396 c -2.01583,0.0309 -8.28509,1.82399 -7.07334,1.25668 -5.61541,-8.22052 -2.53354,-19.48382 5.02341,-28.9651 l 5.62454,5.23561 c -0.31397,0.66556 6.5572,-10.29873 18.89728,-12.21529 2.25034,-0.34951 -10.09367,-30.3743 -9.33696,-30.52529 l 33.8641,4.0073 z"
       style="fill:#ffffff;stroke:#000000;stroke-width:1;stroke-linecap:butt;stroke-linejoin:miter;stroke-miterlimit:4;stroke-opacity:1;stroke-dasharray:none;display:inline"
       inkscape:connector-curvature="0" />
    <path
       sodipodi:nodetypes="ccccacccccccccc"
       d="m 200,39.99611 160.53654,-0.614856 -0.54625,27.42118 -18.43259,0.205596 c -67.55155,-0.349467 -41.34171,79.36955 -79.40977,95.9078 -13.79308,5.99225 -21.68344,-3.71116 -45.0355,-2.68499 -1.49724,-9.24767 -6.7122,-24.24668 -6.7122,-24.24668 l -14.92217,-0.2113 -20.74652,8.66132 -5.52612,6.97729 -4.65073,2.64781 -8.96099,0.41584 c -10.00078,-8.05061 -18.03728,-16.71455 -17.2396,-28.19488 25.85584,-64.726423 62.83855,-28.34435 61.6539,-70.867124 z"
       style="fill:#ffffff;stroke:none;display:inline"
       id="path4502-6"
       inkscape:connector-curvature="0" />
    <path
       style="fill:none;stroke:#000000;stroke-width:1px;stroke-linecap:butt;display:inline"
       d="m 370,67 -11,0 -17.4423,0.008 c -67.55155,-0.349467 -41.34171,79.36955 -79.40977,95.9078 -13.79308,5.99225 -21.68344,-3.71116 -45.0355,-2.68499 -1.49724,-9.24767 -6.7122,-24.24668 -6.7122,-24.24668 l -14.92217,-0.2113 -20.74652,8.66132 -5.52612,6.97729 -4.65073,2.64781 -8.96099,0.41584 C 145.59292,146.42451 137.55642,137.76057 138.3541,126.28024 164.20994,61.553817 201.19265,97.93589 200.008,55.413116 L 200,41 200,30"
       id="C-right-1-9"
       inkscape:connector-curvature="0"
       sodipodi:nodetypes="cccaccccccccccc" />
  </g>
  <g
     inkscape:label="schwebetorso-0"
     id="g5967"
     inkscape:groupmode="layer"
     style="display:inline"
     sodipodi:insensitive="true">
    <path
       sodipodi:nodetypes="cccsccccccc"
       id="path4528"
       d="m 140.79661,129.69652 c 1.45418,1.08939 15.06964,20.78778 15.06964,20.78778 -6.47847,4.68158 -10.53216,9.39093 -20.49226,13.06981 0,0 -8.32693,3.08849 -15.15546,-5.29139 -6.82852,-8.37989 -31.74592,-41.33111 -31.74592,-41.33111 l -9.433791,-13.09278 c 3.945301,-6.560071 5.205471,-7.828531 16.787421,-6.175121 0,0 2.94356,9.126461 16.17793,17.997851 13.44889,7.00993 16.12821,13.53058 18.42032,20.03363 l 10.37212,-5.99872 z"
       style="fill:#ffffff;stroke:#000000;stroke-width:1;stroke-linecap:butt;stroke-linejoin:miter;stroke-miterlimit:4;stroke-opacity:1;stroke-dasharray:none;display:inline"
       inkscape:connector-curvature="0" />
    <path
       sodipodi:nodetypes="ccccccccsccc"
       id="path4530"
       d="m 255.10804,159.95476 2.49267,34.77023 c -0.20322,5.27211 -1.03511,10.40919 -11.85852,13.40042 l -33.18845,5.77147 -4.44473,7.26396 c -2.01583,0.0309 -8.28509,1.82399 -7.07334,1.25668 -5.61541,-8.22052 -2.53354,-19.48382 5.02341,-28.9651 l 5.62454,5.23561 c -0.31397,0.66556 6.5572,-10.29873 18.89728,-12.21529 2.25034,-0.34951 -10.09367,-30.3743 -9.33696,-30.52529 l 33.8641,4.0073 z"
       style="fill:#ffffff;stroke:#000000;stroke-width:1;stroke-linecap:butt;stroke-linejoin:miter;stroke-miterlimit:4;stroke-opacity:1;stroke-dasharray:none;display:inline"
       inkscape:connector-curvature="0" />
    <path
       sodipodi:nodetypes="ccccsacccccccccccsccc"
       d="m 200,39.99611 158.45979,-0.337959 -0.4695,27.332819 -0.19198,0.002 -12.24061,0.01606 c -80.27371,0.105321 -86.89774,-15.929144 -105.93905,14.18383 -13.53566,21.40604 28.86758,58.13398 23.17798,72.35798 l -6.42076,12.66331 c 0,0 -15.91138,-7.00948 -39.26344,-5.98331 -1.49724,-9.24767 -6.7122,-24.24668 -6.7122,-24.24668 l -14.92217,-0.2113 -20.74652,8.66132 -5.52612,6.97729 -4.65073,2.64781 -8.96099,0.41584 c -10.00078,-8.05061 -18.03728,-16.71455 -17.2396,-28.19488 l 12.37042,-11.22223 c 0,0 7.56411,-10.75131 11.3543,-16.121231 12.68146,-17.967051 38.36031,-8.387058 37.92918,-43.523663 L 200,42.18557 z"
       style="fill:#ffffff;stroke:none;display:inline"
       id="path4534-9"
       inkscape:connector-curvature="0" />
    <path
       style="fill:none;stroke:#000000;stroke-width:1px;stroke-linecap:butt;display:inline"
       d="m 370,67 -11,0 -13.4423,0.009 c -80.27371,0.105321 -86.89774,-15.929144 -105.93905,14.18383 -13.53566,21.40604 28.86758,58.13398 23.17798,72.35798 l -6.42076,12.66331 c 0,0 -15.91138,-7.00948 -39.26344,-5.98331 -1.49724,-9.24767 -6.7122,-24.24668 -6.7122,-24.24668 l -14.92217,-0.2113 -20.74652,8.66132 -5.52612,6.97729 -4.65073,2.64781 -8.96099,0.41584 c -10.00078,-8.05061 -18.03728,-16.71455 -17.2396,-28.19488 l 12.37042,-11.22223 c 0,0 7.56411,-10.75131 11.3543,-16.121231 C 174.76028,80.969728 200.0275,90.55236 200.008,55.413116 L 200,41 200,30"
       id="C-right-1-8"
       inkscape:connector-curvature="0"
       sodipodi:nodetypes="ccsacccccccccccsscc" />
  </g>
  <g
     inkscape:groupmode="layer"
     id="layer35"
     inkscape:label="addon-01"
     sodipodi:insensitive="true"
     style="display:inline">
    <path
       inkscape:connector-curvature="0"
       style="fill:none;stroke:#000000;stroke-width:1px;stroke-linecap:round;display:inline"
       d="m 215.26024,178.83559 c 12.44297,-20.43046 64.25449,35.80099 70.62361,12.74312"
       id="path6121" />
  </g>
  <g
     inkscape:groupmode="layer"
     id="layer28"
     inkscape:label="fusse-01"
     style="display:none"
     sodipodi:insensitive="true">
    <path
       style="fill:#ffffff;stroke:#ff00ff;stroke-width:1;stroke-linecap:butt;stroke-linejoin:miter;stroke-miterlimit:4;stroke-opacity:1;stroke-dasharray:none;display:inline"
       d="m 101.49612,102.95443 c -12.65422,-6.193994 -22.13984,0.59136 -17.14158,12.31568 -4.167027,-1.31586 -8.726944,2.62726 -16.898304,4.5703 -11.14931,1.84994 -9.841572,-5.42032 -8.549851,-9.47304 1.903061,-5.97086 8.974223,-13.269774 15.82287,-13.536744 10.439115,-0.77449 13.279705,-8.58193 18.958645,-8.54915 5.57118,-0.25719 12.29332,2.954 10.8414,8.03592 l -3.03318,6.637034 z"
       id="path3215"
       sodipodi:nodetypes="cccscccc"
       inkscape:connector-curvature="0" />
    <path
       style="fill:#ffffff;stroke:#ff00ff;stroke-width:1;stroke-linecap:butt;stroke-linejoin:miter;stroke-miterlimit:4;stroke-opacity:1;stroke-dasharray:none;display:inline"
       d="m 211.0117,217.5931 c -19.16458,-1.87412 -9.60798,-23.07499 -0.29591,-20.69112 1.55193,-2.6131 0.17947,-6.38105 -1.7096,-7.29369 -3.63087,-2.35796 -9.25887,-2.04185 -12.48301,4.70222 -3.70508,6.24746 -1.76243,11.80204 -3.03607,17.62639 -1.71775,7.85514 -4.95257,5.60252 -6.20145,23.3115 0.36946,10.4417 2.83285,13.47489 10.02629,12.22062 5.85804,-0.73731 12.62045,-18.863 13.69975,-29.87592 z"
       id="path3211"
       sodipodi:nodetypes="ccccaccc"
       inkscape:connector-curvature="0" />
  </g>
  <g
     inkscape:groupmode="layer"
     id="layer29"
     inkscape:label="fusse-02"
     style="display:none"
     sodipodi:insensitive="true">
    <path
       sodipodi:nodetypes="cccscccc"
       id="path4393"
       d="m 101.49612,102.95443 c -12.65422,-6.193994 -22.13984,0.59136 -17.14158,12.31568 -4.167027,-1.31586 -8.726944,2.62726 -16.898304,4.5703 -11.14931,1.84994 -9.841572,-5.42032 -8.549851,-9.47304 1.903061,-5.97086 8.974223,-13.269774 15.82287,-13.536744 10.439115,-0.77449 13.279705,-8.58193 18.958645,-8.54915 5.57118,-0.25719 12.29332,2.954 10.8414,8.03592 l -3.03318,6.637034 z"
       style="fill:#0000ff;stroke:#ffff00;stroke-width:1;stroke-linecap:butt;stroke-linejoin:miter;stroke-miterlimit:4;stroke-opacity:1;stroke-dasharray:none;display:inline"
       inkscape:connector-curvature="0" />
    <path
       sodipodi:nodetypes="ccccaccc"
       id="path4395"
       d="m 211.0117,217.5931 c -19.16458,-1.87412 -9.60798,-23.07499 -0.29591,-20.69112 1.55193,-2.6131 0.17947,-6.38105 -1.7096,-7.29369 -3.63087,-2.35796 -9.25887,-2.04185 -12.48301,4.70222 -3.70508,6.24746 -1.76243,11.80204 -3.03607,17.62639 -1.71775,7.85514 -4.95257,5.60252 -6.20145,23.3115 0.36946,10.4417 2.83285,13.47489 10.02629,12.22062 5.85804,-0.73731 12.62045,-18.863 13.69975,-29.87592 z"
       style="fill:#0000ff;stroke:#ffff00;stroke-width:1;stroke-linecap:butt;stroke-linejoin:miter;stroke-miterlimit:4;stroke-opacity:1;stroke-dasharray:none;display:inline"
       inkscape:connector-curvature="0" />
  </g>
  <g
     inkscape:groupmode="layer"
     id="layer30"
     inkscape:label="fusse-03"
     style="display:none"
     sodipodi:insensitive="true">
    <path
       style="fill:#0000ff;stroke:#ffff00;stroke-width:1;stroke-linecap:butt;stroke-linejoin:miter;stroke-miterlimit:4;stroke-opacity:1;stroke-dasharray:none;display:inline"
       d="m 101.49612,102.95443 c -12.65422,-6.193994 -22.13984,0.59136 -17.14158,12.31568 -4.167027,-1.31586 -8.726944,2.62726 -16.898304,4.5703 -11.14931,1.84994 -9.841572,-5.42032 -8.549851,-9.47304 1.903061,-5.97086 8.974223,-13.269774 15.82287,-13.536744 10.439115,-0.77449 13.279705,-8.58193 18.958645,-8.54915 5.57118,-0.25719 12.29332,2.954 10.8414,8.03592 l -3.03318,6.637034 z"
       id="path4411"
       sodipodi:nodetypes="cccscccc"
       inkscape:connector-curvature="0" />
    <path
       style="fill:#0000ff;stroke:#ffff00;stroke-width:1;stroke-linecap:butt;stroke-linejoin:miter;stroke-miterlimit:4;stroke-opacity:1;stroke-dasharray:none;display:inline"
       d="m 211.14302,220.87182 c -21.37957,-3.7911 -3.62706,-30.78288 -0.19935,-25.54636 2.21789,-3.73443 -0.1906,-11.35465 -2.8903,-12.65892 -5.18894,-3.3698 -13.23202,-2.91804 -17.83969,6.72002 -5.29499,8.92836 -2.51872,16.86651 -4.3389,25.19019 -2.45487,11.22591 -7.07781,8.00666 -8.8626,33.31487 0.528,14.92242 4.04847,19.2572 14.32875,17.4647 8.37182,-1.0537 18.25964,-28.74574 19.80209,-44.4845 z"
       id="path4413"
       sodipodi:nodetypes="ccccaccc"
       inkscape:connector-curvature="0" />
  </g>
  <g
     inkscape:groupmode="layer"
     id="layer31"
     inkscape:label="fusse-04"
     style="display:inline"
     sodipodi:insensitive="true">
    <path
       sodipodi:nodetypes="cccscccc"
       id="path4429"
       d="m 102.96963,104.96804 c -15.261128,-4.64014 -16.123374,3.17263 -15.535546,12.39829 -6.424237,-2.02864 -16.546789,6.87408 -29.14444,9.86964 -17.188707,2.85202 -15.172589,-8.35642 -13.181164,-14.60443 2.933918,-9.20518 13.835411,-20.457796 24.393857,-20.86938 16.093811,-1.194018 20.473102,-13.230619 29.22823,-13.180083 8.589003,-0.396506 11.825973,11.546108 9.587573,19.38082 l -5.34851,7.005143 z"
       style="fill:#0000ff;stroke:#ffff00;stroke-width:1;stroke-linecap:butt;stroke-linejoin:miter;stroke-miterlimit:4;stroke-opacity:1;stroke-dasharray:none;display:inline"
       inkscape:connector-curvature="0" />
    <path
       sodipodi:nodetypes="ccccaccc"
       id="path4431"
       d="m 211.14302,220.87182 c -21.37957,-3.7911 -3.62706,-30.78288 -0.19935,-25.54636 2.21789,-3.73443 -0.1906,-11.35465 -2.8903,-12.65892 -5.18894,-3.3698 -13.23202,-2.91804 -17.83969,6.72002 -5.29499,8.92836 -2.51872,16.86651 -4.3389,25.19019 -2.45487,11.22591 -7.07781,8.00666 -8.8626,33.31487 0.528,14.92242 4.04847,19.2572 14.32875,17.4647 8.37182,-1.0537 18.25964,-28.74574 19.80209,-44.4845 z"
       style="fill:#0000ff;stroke:#ffff00;stroke-width:1;stroke-linecap:butt;stroke-linejoin:miter;stroke-miterlimit:4;stroke-opacity:1;stroke-dasharray:none;display:inline"
       inkscape:connector-curvature="0" />
  </g>
  <g
     inkscape:groupmode="layer"
     id="layer34"
     inkscape:label="addon-01"
     style="display:inline"
     sodipodi:insensitive="true">
    <path
       inkscape:connector-curvature="0"
       style="fill:none;stroke:#000000;stroke-width:1px;stroke-linecap:round;display:inline"
       d="m 157.54928,239.68824 c 27.35421,-49.58189 86.72221,25.89036 100.90419,-4.64759"
       id="path6125" />
  </g>
  <g
     inkscape:groupmode="layer"
     id="layer38"
     inkscape:label="addon-02"
     sodipodi:insensitive="true"
     style="display:none">
    <path
       inkscape:connector-curvature="0"
       style="fill:none;stroke:#000000;stroke-width:1px;stroke-linecap:butt;display:inline"
       d="m 370,333 -11,0 -13.87401,0.20006 c -61.3395,0.8845 -119.21552,36.69874 -147.57671,-3.51182 -17.12378,-24.27812 28.80813,-54.9519 27.90419,-84.64759 -0.69007,-22.66983 -35.43643,-42.96959 -25.19323,-63.20506 2.46465,-4.86893 7.04127,-7.69234 12.84677,-9.24665"
       id="path6235" />
    <path
       inkscape:connector-curvature="0"
       style="fill:none;stroke:#000000;stroke-width:1px;stroke-linecap:round;display:inline"
       d="m 285.88385,159.57871 c -2.73559,-29.91793 -63.72232,8.27105 -89.89504,-6.47867"
       id="path6231" />
  </g>
</svg>
