<?xml version="1.0" encoding="UTF-8" standalone="no"?>
<!-- Created with Inkscape (http://www.inkscape.org/) -->

<svg
   xmlns:dc="http://purl.org/dc/elements/1.1/"
   xmlns:cc="http://creativecommons.org/ns#"
   xmlns:rdf="http://www.w3.org/1999/02/22-rdf-syntax-ns#"
   xmlns:svg="http://www.w3.org/2000/svg"
   xmlns="http://www.w3.org/2000/svg"
   xmlns:sodipodi="http://sodipodi.sourceforge.net/DTD/sodipodi-0.dtd"
   xmlns:inkscape="http://www.inkscape.org/namespaces/inkscape"
   style="display:inline"
   sodipodi:docname="161127_Koppeln-R+_CW_00_UW_00_.svg"
   inkscape:version="0.48.3.1 r9886"
   version="1.1"
   id="svg2902"
   height="400"
   width="400">
  <sodipodi:namedview
     id="base"
     pagecolor="#f0f0f0"
     bordercolor="#666666"
     borderopacity="1.0"
     inkscape:pageopacity="1"
     inkscape:pageshadow="2"
     inkscape:zoom="0.4395147"
     inkscape:cx="-239.9147"
     inkscape:cy="325.72399"
     inkscape:document-units="px"
     inkscape:current-layer="g3418"
     showgrid="false"
     inkscape:window-width="1018"
     inkscape:window-height="709"
     inkscape:window-x="0"
     inkscape:window-y="1"
     inkscape:window-maximized="0"
     showguides="true"
     inkscape:guide-bbox="true"
     inkscape:snap-bbox="true"
     inkscape:snap-global="false" />
  <defs
     id="defs2904" />
  <metadata
     id="metadata2907">
    <rdf:RDF>
      <cc:Work
         rdf:about="">
        <dc:format>image/svg+xml</dc:format>
        <dc:type
           rdf:resource="http://purl.org/dc/dcmitype/StillImage" />
        <dc:title />
      </cc:Work>
    </rdf:RDF>
  </metadata>
  <g
     inkscape:groupmode="layer"
     id="bg"
     inkscape:label="XX_BG"
     sodipodi:insensitive="true">
    <path
       style="fill:#dde9af;fill-opacity:1"
       d="m 0,0 400,0 0,400 -400,0 z"
       id="bgrect"
       inkscape:connector-curvature="0" />
  </g>
  <g
     inkscape:label="XX_Referenz"
     inkscape:groupmode="layer"
     id="XX_referenz"
     style="display:none"
     sodipodi:insensitive="true">
    <path
       id="innerframe"
       style="fill:none;stroke:#ff0000;stroke-width:1"
       d="m 40.5,40.5 319,0 0,319 -319,0 0,-319 z"
       inkscape:label="#innerframe"
       sodipodi:insensitive="true"
       inkscape:connector-curvature="0" />
    <path
       id="outerframe"
       style="fill:none;stroke:#ff0000;stroke-width:1"
       d="m 30.5,30.5 339,0 0,339 -339,0 0,-339 z"
       inkscape:label="#outerframe"
       sodipodi:nodetypes="ccccc"
       sodipodi:insensitive="true"
       inkscape:connector-curvature="0" />
    <path
       style="opacity:0.5;fill:none;stroke:#ffc200;stroke-width:1px;stroke-linecap:square"
       d="m 189,30.5 0,10"
       id="ref-S-top-1"
       sodipodi:insensitive="true"
       inkscape:connector-curvature="0" />
    <path
       style="opacity:0.5;fill:none;stroke:#ffc200;stroke-width:1px;stroke-linecap:square"
       d="m 191,30.5 0,10"
       id="ref-S-top-2"
       sodipodi:insensitive="true"
       inkscape:connector-curvature="0" />
    <path
       style="opacity:0.5;fill:none;stroke:#ffc200;stroke-width:1px;stroke-linecap:square"
       d="m 209,30.5 0,10"
       id="ref-S-top-3"
       sodipodi:insensitive="true"
       inkscape:connector-curvature="0" />
    <path
       style="opacity:0.5;fill:none;stroke:#ffc200;stroke-width:1px;stroke-linecap:square"
       d="m 211,30.5 0,10"
       id="ref-S-top-4"
       sodipodi:insensitive="true"
       inkscape:connector-curvature="0" />
    <path
       style="opacity:0.5;fill:none;stroke:#00ff00;stroke-width:1px;stroke-linecap:square"
       d="m 199,30.5 0,10"
       id="ref-I-top-1"
       sodipodi:insensitive="true"
       inkscape:connector-curvature="0" />
    <path
       style="opacity:0.5;fill:none;stroke:#00ff00;stroke-width:1px;stroke-linecap:square"
       d="m 201,30.5 0,10"
       id="ref-I-top-2"
       sodipodi:insensitive="true"
       inkscape:connector-curvature="0" />
    <path
       style="opacity:0.5;fill:none;stroke:#00ffcc;stroke-width:1px;stroke-linecap:square"
       d="m 66,30.5 0,10"
       id="ref-C-top-1"
       sodipodi:insensitive="true"
       inkscape:connector-curvature="0" />
    <path
       style="opacity:0.5;fill:none;stroke:#00ffcc;stroke-width:1px;stroke-linecap:square"
       d="m 68,30.5 0,10"
       id="ref-C-top-2"
       sodipodi:insensitive="true"
       inkscape:connector-curvature="0" />
    <path
       style="opacity:0.5;fill:none;stroke:#00ffcc;stroke-width:1px;stroke-linecap:square"
       d="m 92,30.5 0,10"
       id="ref-C-top-3"
       sodipodi:insensitive="true"
       inkscape:connector-curvature="0" />
    <path
       style="opacity:0.5;fill:none;stroke:#00ffcc;stroke-width:1px;stroke-linecap:square"
       d="m 94,30.5 0,10"
       id="ref-C-top-4"
       sodipodi:insensitive="true"
       inkscape:connector-curvature="0" />
    <path
       style="opacity:0.5;fill:none;stroke:#00ffcc;stroke-width:1px;stroke-linecap:square"
       d="m 306,30.5 0,10"
       id="ref-C-top-5"
       sodipodi:insensitive="true"
       inkscape:connector-curvature="0" />
    <path
       style="opacity:0.5;fill:none;stroke:#00ffcc;stroke-width:1px;stroke-linecap:square"
       d="m 308,30.5 0,10"
       id="ref-C-top-6"
       sodipodi:insensitive="true"
       inkscape:connector-curvature="0" />
    <path
       style="opacity:0.5;fill:none;stroke:#00ffcc;stroke-width:1px;stroke-linecap:square"
       d="m 332,30.5 0,10"
       id="ref-C-top-7"
       sodipodi:insensitive="true"
       inkscape:connector-curvature="0" />
    <path
       style="opacity:0.5;fill:none;stroke:#00ffcc;stroke-width:1px;stroke-linecap:square"
       d="m 334,30.5 0,10"
       id="ref-C-top-8"
       sodipodi:insensitive="true"
       inkscape:connector-curvature="0" />
    <path
       style="opacity:0.5;fill:none;stroke:#ffc200;stroke-width:1px;stroke-linecap:square"
       d="m 369.5,189 -10,0"
       id="ref-S-right-1"
       sodipodi:insensitive="true"
       inkscape:connector-curvature="0" />
    <path
       style="opacity:0.5;fill:none;stroke:#ffc200;stroke-width:1px;stroke-linecap:square"
       d="m 369.5,191 -10,0"
       id="ref-S-right-2"
       sodipodi:insensitive="true"
       inkscape:connector-curvature="0" />
    <path
       style="opacity:0.5;fill:none;stroke:#ffc200;stroke-width:1px;stroke-linecap:square"
       d="m 369.5,209 -10,0"
       id="ref-S-right-3"
       sodipodi:insensitive="true"
       inkscape:connector-curvature="0" />
    <path
       style="opacity:0.5;fill:none;stroke:#ffc200;stroke-width:1px;stroke-linecap:square"
       d="m 369.5,211 -10,0"
       id="ref-S-right-4"
       sodipodi:insensitive="true"
       inkscape:connector-curvature="0" />
    <path
       style="opacity:0.5;fill:none;stroke:#00ff00;stroke-width:1px;stroke-linecap:square"
       d="m 369.5,199 -10,0"
       id="ref-I-right-1"
       sodipodi:insensitive="true"
       inkscape:connector-curvature="0" />
    <path
       style="opacity:0.5;fill:none;stroke:#00ff00;stroke-width:1px;stroke-linecap:square"
       d="m 369.5,201 -10,0"
       id="ref-I-right-2"
       sodipodi:insensitive="true"
       inkscape:connector-curvature="0" />
    <path
       style="opacity:0.5;fill:none;stroke:#00ffcc;stroke-width:1px;stroke-linecap:square"
       d="m 369.5,66 -10,0"
       id="ref-C-right-1"
       sodipodi:insensitive="true"
       inkscape:connector-curvature="0" />
    <path
       style="opacity:0.5;fill:none;stroke:#00ffcc;stroke-width:1px;stroke-linecap:square"
       d="m 369.5,68 -10,0"
       id="ref-C-right-2"
       sodipodi:insensitive="true"
       inkscape:connector-curvature="0" />
    <path
       style="opacity:0.5;fill:none;stroke:#00ffcc;stroke-width:1px;stroke-linecap:square"
       d="m 369.5,92 -10,0"
       id="ref-C-right-3"
       sodipodi:insensitive="true"
       inkscape:connector-curvature="0" />
    <path
       style="opacity:0.5;fill:none;stroke:#00ffcc;stroke-width:1px;stroke-linecap:square"
       d="m 369.5,94 -10,0"
       id="ref-C-right-4"
       sodipodi:insensitive="true"
       inkscape:connector-curvature="0" />
    <path
       style="opacity:0.5;fill:none;stroke:#00ffcc;stroke-width:1px;stroke-linecap:square"
       d="m 369.5,306 -10,0"
       id="ref-C-right-5"
       sodipodi:insensitive="true"
       inkscape:connector-curvature="0" />
    <path
       style="opacity:0.5;fill:none;stroke:#00ffcc;stroke-width:1px;stroke-linecap:square"
       d="m 369.5,308 -10,0"
       id="ref-C-right-6"
       sodipodi:insensitive="true"
       inkscape:connector-curvature="0" />
    <path
       style="opacity:0.5;fill:none;stroke:#00ffcc;stroke-width:1px;stroke-linecap:square"
       d="m 369.5,332 -10,0"
       id="ref-C-right-7"
       sodipodi:insensitive="true"
       inkscape:connector-curvature="0" />
    <path
       style="opacity:0.5;fill:none;stroke:#00ffcc;stroke-width:1px;stroke-linecap:square"
       d="m 369.5,334 -10,0"
       id="ref-C-right-8"
       sodipodi:insensitive="true"
       inkscape:connector-curvature="0" />
    <path
       style="opacity:0.5;fill:none;stroke:#ffc200;stroke-width:1px;stroke-linecap:square"
       d="m 189,369.5 0,-10"
       id="ref-S-bottom-1"
       sodipodi:insensitive="true"
       inkscape:connector-curvature="0" />
    <path
       style="opacity:0.5;fill:none;stroke:#ffc200;stroke-width:1px;stroke-linecap:square"
       d="m 191,369.5 0,-10"
       id="ref-S-bottom-2"
       sodipodi:insensitive="true"
       inkscape:connector-curvature="0" />
    <path
       style="opacity:0.5;fill:none;stroke:#ffc200;stroke-width:1px;stroke-linecap:square"
       d="m 209,369.5 0,-10"
       id="ref-S-bottom-3"
       sodipodi:insensitive="true"
       inkscape:connector-curvature="0" />
    <path
       style="opacity:0.5;fill:none;stroke:#ffc200;stroke-width:1px;stroke-linecap:square"
       d="m 211,369.5 0,-10"
       id="ref-S-bottom-4"
       sodipodi:insensitive="true"
       inkscape:connector-curvature="0" />
    <path
       style="opacity:0.5;fill:none;stroke:#00ff00;stroke-width:1px;stroke-linecap:square"
       d="m 199,369.5 0,-10"
       id="ref-I-bottom-1"
       sodipodi:insensitive="true"
       inkscape:connector-curvature="0" />
    <path
       style="opacity:0.5;fill:none;stroke:#00ff00;stroke-width:1px;stroke-linecap:square"
       d="m 201,369.5 0,-10"
       id="ref-I-bottom-2"
       sodipodi:insensitive="true"
       inkscape:connector-curvature="0" />
    <path
       style="opacity:0.5;fill:none;stroke:#00ffcc;stroke-width:1px;stroke-linecap:square"
       d="m 66,369.5 0,-10"
       id="ref-C-bottom-1"
       sodipodi:insensitive="true"
       inkscape:connector-curvature="0" />
    <path
       style="opacity:0.5;fill:none;stroke:#00ffcc;stroke-width:1px;stroke-linecap:square"
       d="m 68,369.5 0,-10"
       id="ref-C-bottom-2"
       sodipodi:insensitive="true"
       inkscape:connector-curvature="0" />
    <path
       style="opacity:0.5;fill:none;stroke:#00ffcc;stroke-width:1px;stroke-linecap:square"
       d="m 92,369.5 0,-10"
       id="ref-C-bottom-3"
       sodipodi:insensitive="true"
       inkscape:connector-curvature="0" />
    <path
       style="opacity:0.5;fill:none;stroke:#00ffcc;stroke-width:1px;stroke-linecap:square"
       d="m 94,369.5 0,-10"
       id="ref-C-bottom-4"
       sodipodi:insensitive="true"
       inkscape:connector-curvature="0" />
    <path
       style="opacity:0.5;fill:none;stroke:#00ffcc;stroke-width:1px;stroke-linecap:square"
       d="m 306,369.5 0,-10"
       id="ref-C-bottom-5"
       sodipodi:insensitive="true"
       inkscape:connector-curvature="0" />
    <path
       style="opacity:0.5;fill:none;stroke:#00ffcc;stroke-width:1px;stroke-linecap:square"
       d="m 308,369.5 0,-10"
       id="ref-C-bottom-6"
       sodipodi:insensitive="true"
       inkscape:connector-curvature="0" />
    <path
       style="opacity:0.5;fill:none;stroke:#00ffcc;stroke-width:1px;stroke-linecap:square"
       d="m 332,369.5 0,-10"
       id="ref-C-bottom-7"
       sodipodi:insensitive="true"
       inkscape:connector-curvature="0" />
    <path
       style="opacity:0.5;fill:none;stroke:#00ffcc;stroke-width:1px;stroke-linecap:square"
       d="m 334,369.5 0,-10"
       id="ref-C-bottom-8"
       sodipodi:insensitive="true"
       inkscape:connector-curvature="0" />
    <path
       style="opacity:0.5;fill:none;stroke:#ffc200;stroke-width:1px;stroke-linecap:square"
       d="m 30.5,189 10,0"
       id="ref-S-left-1"
       sodipodi:insensitive="true"
       inkscape:connector-curvature="0" />
    <path
       style="opacity:0.5;fill:none;stroke:#ffc200;stroke-width:1px;stroke-linecap:square"
       d="m 30.5,191 10,0"
       id="ref-S-left-2"
       sodipodi:insensitive="true"
       inkscape:connector-curvature="0" />
    <path
       style="opacity:0.5;fill:none;stroke:#ffc200;stroke-width:1px;stroke-linecap:square"
       d="m 30.5,209 10,0"
       id="ref-S-left-3"
       sodipodi:insensitive="true"
       inkscape:connector-curvature="0" />
    <path
       style="opacity:0.5;fill:none;stroke:#ffc200;stroke-width:1px;stroke-linecap:square"
       d="m 30.5,211 10,0"
       id="ref-S-left-4"
       sodipodi:insensitive="true"
       inkscape:connector-curvature="0" />
    <path
       style="opacity:0.5;fill:none;stroke:#00ff00;stroke-width:1px;stroke-linecap:square"
       d="m 40.5,199 -10,0"
       id="ref-I-left-1"
       sodipodi:insensitive="true"
       inkscape:connector-curvature="0" />
    <path
       style="opacity:0.5;fill:none;stroke:#00ff00;stroke-width:1px;stroke-linecap:square"
       d="m 40.5,201 -10,0"
       id="ref-I-left-2"
       sodipodi:insensitive="true"
       inkscape:connector-curvature="0" />
    <path
       style="opacity:0.5;fill:none;stroke:#00ffcc;stroke-width:1px;stroke-linecap:square"
       d="m 30.5,66 10,0"
       id="ref-C-left-1"
       sodipodi:insensitive="true"
       inkscape:connector-curvature="0" />
    <path
       style="opacity:0.5;fill:none;stroke:#00ffcc;stroke-width:1px;stroke-linecap:square"
       d="m 30.5,68 10,0"
       id="ref-C-left-2"
       sodipodi:insensitive="true"
       inkscape:connector-curvature="0" />
    <path
       style="opacity:0.5;fill:none;stroke:#00ffcc;stroke-width:1px;stroke-linecap:square"
       d="m 30.5,92 10,0"
       id="ref-C-left-3"
       sodipodi:insensitive="true"
       inkscape:connector-curvature="0" />
    <path
       style="opacity:0.5;fill:none;stroke:#00ffcc;stroke-width:1px;stroke-linecap:square"
       d="m 30.5,94 10,0"
       id="ref-C-left-4"
       sodipodi:insensitive="true"
       inkscape:connector-curvature="0" />
    <path
       style="opacity:0.5;fill:none;stroke:#00ffcc;stroke-width:1px;stroke-linecap:square"
       d="m 30.5,306 10,0"
       id="ref-C-left-5"
       sodipodi:insensitive="true"
       inkscape:connector-curvature="0" />
    <path
       style="opacity:0.5;fill:none;stroke:#00ffcc;stroke-width:1px;stroke-linecap:square"
       d="m 30.5,308 10,0"
       id="ref-C-left-6"
       sodipodi:insensitive="true"
       inkscape:connector-curvature="0" />
    <path
       style="opacity:0.5;fill:none;stroke:#00ffcc;stroke-width:1px;stroke-linecap:square"
       d="m 30.5,332 10,0"
       id="ref-C-left-7"
       sodipodi:insensitive="true"
       inkscape:connector-curvature="0" />
    <path
       style="opacity:0.5;fill:none;stroke:#00ffcc;stroke-width:1px;stroke-linecap:square"
       d="m 30.5,334 10,0"
       id="ref-C-left-8"
       sodipodi:insensitive="true"
       inkscape:connector-curvature="0" />
    <path
       style="fill:none;stroke:#000000;stroke-width:1px;stroke-linecap:square"
       d="m 190,30.5 0,10"
       id="S-top-1"
       inkscape:connector-curvature="0" />
    <path
       style="fill:none;stroke:#000000;stroke-width:1px;stroke-linecap:square"
       d="m 210,30.5 0,10"
       id="S-top-2"
       inkscape:connector-curvature="0" />
    <path
       style="fill:none;stroke:#000000;stroke-width:1px;stroke-linecap:square"
       d="m 369.5,190 -10,0"
       id="S-right-1"
       inkscape:connector-curvature="0" />
    <path
       style="fill:none;stroke:#000000;stroke-width:1px;stroke-linecap:square"
       d="m 369.5,210 -10,0"
       id="S-right-2"
       inkscape:connector-curvature="0" />
    <path
       style="fill:none;stroke:#000000;stroke-width:1px;stroke-linecap:square"
       d="m 190,369.5 0,-10"
       id="S-bottom-1"
       inkscape:connector-curvature="0" />
    <path
       style="fill:none;stroke:#000000;stroke-width:1px;stroke-linecap:square"
       d="m 210,369.5 0,-10"
       id="S-bottom-2"
       inkscape:connector-curvature="0" />
    <path
       style="fill:none;stroke:#000000;stroke-width:1px;stroke-linecap:square"
       d="m 30.5,190 10,0"
       id="S-left-1"
       inkscape:connector-curvature="0" />
    <path
       style="fill:none;stroke:#000000;stroke-width:1px;stroke-linecap:square"
       d="m 30.5,210 10,0"
       id="S-left-2"
       inkscape:connector-curvature="0" />
    <path
       style="fill:none;stroke:#000000;stroke-width:1px;stroke-linecap:square"
       d="m 200,30.5 0,10"
       id="I-top-1"
       inkscape:connector-curvature="0" />
    <path
       style="fill:none;stroke:#000000;stroke-width:1px;stroke-linecap:square"
       d="m 369.5,200 -10,0"
       id="I-right-1"
       inkscape:connector-curvature="0" />
    <path
       style="fill:none;stroke:#000000;stroke-width:1px;stroke-linecap:square"
       d="m 200,369.5 0,-10"
       id="I-bottom-1"
       inkscape:connector-curvature="0" />
    <path
       style="fill:none;stroke:#000000;stroke-width:1px;stroke-linecap:square"
       d="m 40.5,200 -10,0"
       id="I-left-1"
       inkscape:connector-curvature="0" />
    <path
       style="fill:none;stroke:#000000;stroke-width:1px;stroke-linecap:square"
       d="m 67,30.5 0,10"
       id="C-top-1"
       inkscape:connector-curvature="0" />
    <path
       style="fill:none;stroke:#000000;stroke-width:1px;stroke-linecap:square"
       d="m 93,30.5 0,10"
       id="C-top-2"
       inkscape:connector-curvature="0" />
    <path
       style="fill:none;stroke:#000000;stroke-width:1px;stroke-linecap:square"
       d="m 307,30.5 0,10"
       id="C-top-3"
       inkscape:connector-curvature="0" />
    <path
       style="fill:none;stroke:#000000;stroke-width:1px;stroke-linecap:square"
       d="m 333,30.5 0,10"
       id="C-top-4"
       inkscape:connector-curvature="0" />
    <path
       style="fill:none;stroke:#000000;stroke-width:1px;stroke-linecap:square"
       d="m 369.5,67 -10,0"
       id="C-right-1"
       inkscape:connector-curvature="0" />
    <path
       style="fill:none;stroke:#000000;stroke-width:1px;stroke-linecap:square"
       d="m 369.5,93 -10,0"
       id="C-right-2"
       inkscape:connector-curvature="0" />
    <path
       style="fill:none;stroke:#000000;stroke-width:1px;stroke-linecap:square"
       d="m 369.5,307 -10,0"
       id="C-right-3"
       inkscape:connector-curvature="0" />
    <path
       style="fill:none;stroke:#000000;stroke-width:1px;stroke-linecap:square"
       d="m 369.5,333 -10,0"
       id="C-right-4"
       inkscape:connector-curvature="0" />
    <path
       style="fill:none;stroke:#000000;stroke-width:1px;stroke-linecap:square"
       d="m 67,369.5 0,-10"
       id="C-bottom-1"
       inkscape:connector-curvature="0" />
    <path
       style="fill:none;stroke:#000000;stroke-width:1px;stroke-linecap:square"
       d="m 93,369.5 0,-10"
       id="C-bottom-2"
       inkscape:connector-curvature="0" />
    <path
       style="fill:none;stroke:#000000;stroke-width:1px;stroke-linecap:square"
       d="m 307,369.5 0,-10"
       id="C-bottom-3"
       inkscape:connector-curvature="0" />
    <path
       style="fill:none;stroke:#000000;stroke-width:1px;stroke-linecap:square"
       d="m 333,369.5 0,-10"
       id="C-bottom-4"
       inkscape:connector-curvature="0" />
    <path
       style="fill:none;stroke:#000000;stroke-width:1px;stroke-linecap:square"
       d="m 30.5,67 10,0"
       id="C-left-1"
       inkscape:connector-curvature="0" />
    <path
       style="fill:none;stroke:#000000;stroke-width:1px;stroke-linecap:square"
       d="m 30.5,93 10,0"
       id="C-left-2"
       inkscape:connector-curvature="0" />
    <path
       style="fill:none;stroke:#000000;stroke-width:1px;stroke-linecap:square"
       d="m 30.5,307 10,0"
       id="C-left-3"
       inkscape:connector-curvature="0" />
    <path
       style="fill:none;stroke:#000000;stroke-width:1px;stroke-linecap:square"
       d="m 30.5,333 10,0"
       id="C-left-4"
       inkscape:connector-curvature="0" />
  </g>
  <g
     inkscape:groupmode="layer"
     id="layer3"
     inkscape:label="URCL-001"
     style="display:inline"
     sodipodi:insensitive="true">
    <path
       id="path3368"
       style="fill:#ffffff;stroke:none"
       d="m 93,30.5 0,10.00023 C 93,163.26454 67,217.37949 67,359.49977 l 0,10.00023 266,0 0,-10.00023 C 333,236.73546 307,182.62051 307,40.50023 L 307,30.5 z"
       inkscape:connector-curvature="0"
       sodipodi:nodetypes="cssccsscc" />
    <path
       style="fill:none;stroke:#000000;stroke-width:1px;stroke-linecap:square"
       d="m 333,369.5 0,-10.00023 C 333,236.73546 307,182.62051 307,40.50023"
       id="path3362"
       inkscape:connector-curvature="0"
       sodipodi:nodetypes="csc" />
    <path
       id="path3364"
       d="M 93,40.50023 C 93,163.26454 67,217.37949 67,359.49977 L 67,369.5"
       style="fill:none;stroke:#000000;stroke-width:1px;stroke-linecap:square"
       inkscape:connector-curvature="0"
       sodipodi:nodetypes="csc" />
  </g>
  <g
     inkscape:label="URCL-002"
     id="g3371"
     inkscape:groupmode="layer"
     style="display:none"
     sodipodi:insensitive="true">
    <path
       sodipodi:nodetypes="cssccsscc"
       inkscape:connector-curvature="0"
       d="m 93,30.5 0,64.00023 c 0,122.76431 -26,46.87926 -26,188.99954 l 0,86.00023 266,0 0,-86.00023 C 333,160.73546 307,236.62051 307,94.50023 L 307,30.5 z"
       style="fill:#ffffff;stroke:none"
       id="path3373" />
    <path
       id="path3375"
       d="m 333,369.5 0,-86.00023 C 333,160.73546 307,236.62051 307,94.50023 L 307,59.5"
       style="fill:none;stroke:#000000;stroke-width:1px;stroke-linecap:square"
       inkscape:connector-curvature="0"
       sodipodi:nodetypes="cssc" />
    <path
       inkscape:connector-curvature="0"
       style="fill:none;stroke:#000000;stroke-width:1px;stroke-linecap:square"
       d="m 93,59.5 0,35.00023 C 93,217.26454 67,141.37949 67,283.49977 L 67,369.5"
       id="path3377"
       sodipodi:nodetypes="cssc" />
  </g>
  <g
     inkscape:groupmode="layer"
     id="g3379"
     inkscape:label="URCL-003"
     style="display:none"
     sodipodi:insensitive="true">
    <path
       sodipodi:nodetypes="cssccsscc"
       inkscape:connector-curvature="0"
       d="m 333,369.5 0,-120.00023 c 0,-40.23703 -26,-46.18628 -26,-78.99954 L 307,30.5 l -214,0 0,140.00023 c 0,35.52374 -26,39.8372 -26,78.99954 L 67,369.5 z"
       style="fill:#ffffff;stroke:none"
       id="path3388" />
    <path
       id="path3385"
       style="fill:none;stroke:#000000;stroke-width:1px;stroke-linecap:square"
       d="m 93,50.5 0,120.00023 c 0,35.52374 -26,39.8372 -26,78.99954 L 67,369.5 m 266,0 0,-120.00023 c 0,-40.23703 -26,-46.18628 -26,-78.99954 L 307,50.5"
       inkscape:connector-curvature="0"
       sodipodi:nodetypes="cssccssc" />
  </g>
  <g
     inkscape:groupmode="layer"
     id="layer4"
     inkscape:label="CAUSSEN-001"
     style="display:none">
    <path
       sodipodi:nodetypes="cccsccc"
       inkscape:connector-curvature="0"
       d="m 67.000021,30.62667 0,12.43863 -1.7e-5,96.85913 c 0,73.50374 59.546126,133.09029 132.999996,133.09029 73.45387,0 133,-59.58655 133,-133.09029 l -10e-6,-96.85913 0,-12.43863"
       style="fill:#ffffff;stroke:none"
       id="path3416" />
    <path
       id="C-top-3-0"
       style="fill:none;stroke:#000000;stroke-width:1px;stroke-linecap:square;display:inline"
       d="m 307,30.5 0,187 m -214,-187 0,187"
       inkscape:connector-curvature="0"
       sodipodi:nodetypes="cccc" />
    <path
       id="path3412"
       style="fill:none;stroke:#000000;stroke-width:1px"
       d="m 67.000021,30.62667 0,12.43863 -1.7e-5,96.85913 c 0,73.50374 59.546126,133.09029 132.999996,133.09029 73.45387,0 133,-59.58655 133,-133.09029 l -10e-6,-96.85913 0,-12.43863"
       inkscape:connector-curvature="0"
       sodipodi:nodetypes="cccsccc" />
  </g>
  <g
     style="display:none"
     inkscape:label="CAUSSEN-002"
     id="g3418"
     inkscape:groupmode="layer">
    <path
       id="path3420"
       style="fill:#ffffff;stroke:none"
       d="m 67.000021,30.62667 0,12.43863 -1.7e-5,146.85913 c 0,73.50374 59.546126,133.09029 132.999996,133.09029 73.45387,0 133,-59.58655 133,-133.09029 l -10e-6,-146.85913 0,-12.43863"
       inkscape:connector-curvature="0"
       sodipodi:nodetypes="cccsccc" />
    <path
       sodipodi:nodetypes="cccsccc"
       inkscape:connector-curvature="0"
       d="m 67.000021,29.62667 0,13.43863 -1.7e-5,146.85913 c 0,73.50374 59.546126,133.09029 132.999996,133.09029 73.45387,0 133,-59.58655 133,-133.09029 l -10e-6,-146.85913 0,-13.43863"
       style="fill:none;stroke:#000000;stroke-width:1px"
       id="path3422" />
    <path
       style="fill:none;stroke:#000000;stroke-width:1px;stroke-linecap:square"
       d="m 93,30.5 0,10 0,98 c 0,41.4459 -17.471517,37.90332 -25,66"
       id="path3994"
       inkscape:connector-curvature="0"
       sodipodi:nodetypes="cccc" />
    <path
       sodipodi:nodetypes="cccc"
       inkscape:connector-curvature="0"
       id="path4001"
       d="m 307,30.5 0,10 0,98 c 0,41.4459 17.47152,37.90332 25,66"
       style="fill:none;stroke:#000000;stroke-width:1px;stroke-linecap:square" />
  </g>
  <g
     inkscape:groupmode="layer"
     id="g3424"
     inkscape:label="CAUSSEN-003"
     style="display:none">
    <path
       sodipodi:nodetypes="cccssssssssscc"
       inkscape:connector-curvature="0"
       d="m 67,30.5 266,0 0,14.22696 c 0,3.75226 3.02078,6.77304 6.77304,6.77304 l 5.45392,0 C 348.97922,51.5 352,54.52078 352,58.27304 l 0,69.21863 c 0,83.95188 -68.05272,152.00834 -152,152.00834 -83.94727,0 -152,-68.05646 -152,-152.00834 L 48,66.27304 C 48,62.52078 51.020778,59.5 54.773045,59.5 l 5.453911,0 C 63.979223,59.5 67,56.47922 67,52.72696 z"
       style="fill:#ffffff;stroke:none"
       id="path3588" />
    <path
       id="C-right-4-2"
       style="fill:none;stroke:#000000;stroke-width:1px;stroke-linecap:square"
       d="m 333,30.5 0,8.00023 0,6.22673 c 0,3.75226 3.02078,6.77304 6.77304,6.77304 l 5.45392,0 C 348.97922,51.5 352,54.52078 352,58.27304 l 0,69.21863 c 0,83.95188 -68.05272,152.00834 -152,152.00834 -83.94727,0 -152,-68.05646 -152,-152.00834 L 48,66.27304 C 48,62.52078 51.020778,59.5 54.773045,59.5 l 5.453911,0 C 63.979223,59.5 67,56.47922 67,52.72696 L 67,38.50023 67,30.5"
       inkscape:connector-curvature="0"
       sodipodi:nodetypes="cccsssssssssccc" />
    <path
       style="fill:none;stroke:#000000;stroke-width:1px;stroke-linecap:square"
       d="m 93,30.5 0,10 0,98 c 0,41.4459 -17.471517,37.90332 -25,66"
       id="path3994-9"
       inkscape:connector-curvature="0"
       sodipodi:nodetypes="cccc" />
    <path
       sodipodi:nodetypes="cccc"
       inkscape:connector-curvature="0"
       id="path4001-8"
       d="m 307,30.5 0,10 0,98 c 0,41.4459 17.47152,37.90332 25,66"
       style="fill:none;stroke:#000000;stroke-width:1px;stroke-linecap:square" />
  </g>
  <g
     style="display:inline"
     inkscape:label="CAUSSEN-004"
     id="g3590"
     inkscape:groupmode="layer">
    <path
       id="path3592"
       style="fill:#ffffff;stroke:none"
       d="m 67,30.5 266,0 0,74.22696 c 0,3.75226 6.36616,3.04291 6.77304,6.77304 l 5.45392,50 c 0.40688,3.73013 6.77304,3.02078 6.77304,6.77304 l 0,9.21863 c 0,83.95188 -68.05272,152.00834 -152,152.00834 -83.94727,0 -152,-68.05646 -152,-152.00834 l 0,-9.21863 c 0,-3.75226 6.366168,-3.0429 6.773045,-6.77304 l 5.453911,-50 C 60.633833,107.76986 67,108.47922 67,104.72696 z"
       inkscape:connector-curvature="0"
       sodipodi:nodetypes="cccssssssssscc" />
    <path
       sodipodi:nodetypes="cccsssssssssccc"
       inkscape:connector-curvature="0"
       d="m 333,30.5 0,8.00023 0,66.22673 c 0,3.75226 6.36616,3.04291 6.77304,6.77304 l 5.45392,50 c 0.40688,3.73013 6.77304,3.02078 6.77304,6.77304 l 0,9.21863 c 0,83.95188 -68.05272,152.00834 -152,152.00834 -83.94727,0 -152,-68.05646 -152,-152.00834 l 0,-9.21863 c 0,-3.75226 6.366168,-3.0429 6.773045,-6.77304 l 5.453911,-50 C 60.633833,107.76986 67,108.47922 67,104.72696 L 67,38.50023 67,30.5"
       style="fill:none;stroke:#000000;stroke-width:1px;stroke-linecap:square"
       id="path3594" />
    <path
       id="path4001-2"
       style="fill:none;stroke:#000000;stroke-width:1px;stroke-linecap:square;display:inline"
       d="m 307,30.5 0,10 0,98 c 0,41.4459 17.47152,49.90332 25,78 -70.21557,121.61693 -192.92244,123.10995 -264,0 7.528483,-28.09668 25,-36.5541 25,-78 l 0,-98 0,-10"
       inkscape:connector-curvature="0"
       sodipodi:nodetypes="ccsccscc" />
  </g>
  <g
     inkscape:groupmode="layer"
     id="layer6"
     inkscape:label="CAUSSEN-005"
     style="display:none">
    <path
       sodipodi:nodetypes="cccssssscccccccc"
       inkscape:connector-curvature="0"
       d="m 333,30.5 0,10.00023 0.0744,26.15256 C 333.07436,77.37115 341.70321,86 352.42157,86 l 7.32843,0 c 10.9415,0 19.75,8.8085 19.75,19.75 l 10e-6,54.44999 c 0,99.19034 -80.3649,179.60002 -179.50001,179.60002 -99.1351,0 -179.500007,-80.40968 -179.500007,-179.60002 L 20.47436,105.75 c 0,-10.9415 8.8085,-19.75 19.75,-19.75 l 7.428434,0 C 58.371147,86 67.000002,77.37115 67.000002,66.65279 L 67,40.50023 67,30.5 z"
       style="fill:#ffffff;stroke:none"
       id="path3701" />
    <path
       id="C-right-4-4"
       style="fill:none;stroke:#000000;stroke-width:1px;stroke-linecap:square"
       d="m 333,30.5 0,10.00023 0.0744,26.15256 C 333.07436,77.37115 341.70321,86 352.42157,86 l 7.32843,0 c 10.9415,0 19.75,8.8085 19.75,19.75 l 10e-6,54.44999 c 0,99.19034 -80.3649,179.60002 -179.50001,179.60002 -99.1351,0 -179.500007,-80.40968 -179.500007,-179.60002 L 20.47436,105.75 c 0,-10.9415 8.8085,-19.75 19.75,-19.75 l 7.428434,0 C 58.371147,86 67.000002,77.37115 67.000002,66.65279 L 67,40.50023 67,30.5"
       inkscape:connector-curvature="0"
       sodipodi:nodetypes="cccsssssccccccc" />
    <path
       style="fill:none;stroke:#000000;stroke-width:1px;stroke-linecap:square;display:inline"
       d="m 93,30.5 0,10 0,98 c 0,41.4459 -17.471517,37.90332 -25,66"
       id="path3994-6"
       inkscape:connector-curvature="0"
       sodipodi:nodetypes="cccc" />
    <path
       sodipodi:nodetypes="cccc"
       inkscape:connector-curvature="0"
       id="path4001-29"
       d="m 307,30.5 0,10 0,98 c 0,41.4459 17.47152,37.90332 25,66"
       style="fill:none;stroke:#000000;stroke-width:1px;stroke-linecap:square;display:inline" />
  </g>
  <g
     style="display:none"
     inkscape:label="CAUSSEN-006"
     id="g3703"
     inkscape:groupmode="layer">
    <path
       sodipodi:nodetypes="ccccsscccccc"
       inkscape:connector-curvature="0"
       d="m 333,30.5 0,10.00023 0.0744,7.15256 c 0,30.19127 46.4256,68.52249 46.4256,151.09721 l 10e-6,4.44999 c 2.2e-4,99.19034 -80.3649,179.60002 -179.50001,179.60002 -99.1351,0 -179.500007,-80.40968 -179.500007,-179.60002 L 20.47436,198.75 c 0,-74.7336 46.525642,-114.02824 46.525642,-151.09721 L 67,40.50023 67,30.5 z"
       style="fill:#ffffff;stroke:none;display:inline"
       id="path3707-7" />
    <path
       sodipodi:nodetypes="ccccscccc"
       inkscape:connector-curvature="0"
       d="m 333,30.5 0,10.00023 0.0744,7.15256 c 0,30.19127 46.4256,68.52249 46.4256,151.09721 l 10e-6,4.44999 c 1.1e-4,49.59517 -20.09112,94.49518 -52.53714,126.8982 C 319.47152,301.90332 307,295.9459 307,254.5 l 0,-214 0,-10"
       style="fill:none;stroke:#000000;stroke-width:1px;stroke-linecap:square"
       id="path3707" />
    <path
       style="fill:none;stroke:#000000;stroke-width:1px;stroke-linecap:square;display:inline"
       d="m 93,30.5 0,10 0,214 C 93,295.9459 80.528483,301.90332 73.037167,330.09819 40.59122,297.69517 20.499993,252.79516 20.499993,203.19999 L 20.47436,198.75 c 0,-74.7336 46.525642,-114.02824 46.525642,-151.09721 L 67,40.50023 67,30.5"
       id="path3994-66"
       inkscape:connector-curvature="0"
       sodipodi:nodetypes="ccccccccc" />
  </g>
</svg>
