<?xml version="1.0" encoding="UTF-8" standalone="no"?>
<!-- Created with Inkscape (http://www.inkscape.org/) -->

<svg
   xmlns:dc="http://purl.org/dc/elements/1.1/"
   xmlns:cc="http://creativecommons.org/ns#"
   xmlns:rdf="http://www.w3.org/1999/02/22-rdf-syntax-ns#"
   xmlns:svg="http://www.w3.org/2000/svg"
   xmlns="http://www.w3.org/2000/svg"
   xmlns:sodipodi="http://sodipodi.sourceforge.net/DTD/sodipodi-0.dtd"
   xmlns:inkscape="http://www.inkscape.org/namespaces/inkscape"
   style="display:inline"
   sodipodi:docname="161211_Gti_UW_00_UW_00_.svg"
   inkscape:version="0.48.3.1 r9886"
   version="1.1"
   id="svg2902"
   height="400"
   width="400">
  <sodipodi:namedview
     id="base"
     pagecolor="#f0f0f0"
     bordercolor="#666666"
     borderopacity="1.0"
     inkscape:pageopacity="1"
     inkscape:pageshadow="2"
     inkscape:zoom="0.9551814"
     inkscape:cx="257.91699"
     inkscape:cy="174.33278"
     inkscape:document-units="px"
     inkscape:current-layer="layer8"
     showgrid="false"
     inkscape:window-width="1018"
     inkscape:window-height="709"
     inkscape:window-x="0"
     inkscape:window-y="1"
     inkscape:window-maximized="0"
     showguides="true"
     inkscape:guide-bbox="true"
     inkscape:snap-bbox="true"
     inkscape:snap-global="false" />
  <defs
     id="defs2904">
    <clipPath
       clipPathUnits="userSpaceOnUse"
       id="clipPath5174">
      <path
         id="path5176"
         style="opacity:0.5;fill:#00ff00;stroke:#00ff00;stroke-width:1px;stroke-linecap:square;display:inline"
         d="m 436.26971,600.11436 -232.09481,134 -169.500003,-293.58262 232.094813,-134 z"
         inkscape:connector-curvature="0"
         sodipodi:nodetypes="ccccc" />
    </clipPath>
    <clipPath
       clipPathUnits="userSpaceOnUse"
       id="clipPath5174-5">
      <path
         id="path5176-9"
         style="opacity:0.5;fill:#00ff00;stroke:#00ff00;stroke-width:1px;stroke-linecap:square;display:inline"
         d="m 436.26971,600.11436 -232.09481,134 -169.500003,-293.58262 232.094813,-134 z"
         inkscape:connector-curvature="0"
         sodipodi:nodetypes="ccccc" />
    </clipPath>
    <clipPath
       clipPathUnits="userSpaceOnUse"
       id="clipPath3238">
      <path
         sodipodi:nodetypes="ccccc"
         inkscape:connector-curvature="0"
         d="m 461.26971,643.41563 -232.09481,134 -169.500002,-293.58262 232.094812,-134 z"
         style="opacity:0.5;fill:#00ff00;stroke:#00ff00;stroke-width:1px;stroke-linecap:square;display:inline"
         id="path3240" />
    </clipPath>
  </defs>
  <metadata
     id="metadata2907">
    <rdf:RDF>
      <cc:Work
         rdf:about="">
        <dc:format>image/svg+xml</dc:format>
        <dc:type
           rdf:resource="http://purl.org/dc/dcmitype/StillImage" />
        <dc:title></dc:title>
      </cc:Work>
    </rdf:RDF>
  </metadata>
  <g
     inkscape:groupmode="layer"
     id="bg"
     inkscape:label="XX_BG"
     sodipodi:insensitive="true">
    <path
       style="fill:#ffd5f6"
       d="M 400,0 400,400 0,400 0,0 z"
       id="bgrect"
       inkscape:connector-curvature="0" />
  </g>
  <g
     inkscape:label="XX_Referenz"
     inkscape:groupmode="layer"
     id="XX_referenz"
     style="display:none"
     sodipodi:insensitive="true">
    <path
       id="innerframe"
       style="fill:none;stroke:#ff0000;stroke-width:1"
       d="m 40.5,40.5 319,0 0,319 -319,0 0,-319 z"
       inkscape:label="#innerframe"
       sodipodi:insensitive="true"
       inkscape:connector-curvature="0" />
    <path
       id="outerframe"
       style="fill:none;stroke:#ff0000;stroke-width:1"
       d="m 30.5,30.5 339,0 0,339 -339,0 0,-339 z"
       inkscape:label="#outerframe"
       sodipodi:nodetypes="ccccc"
       sodipodi:insensitive="true"
       inkscape:connector-curvature="0" />
    <path
       style="opacity:0.5;fill:none;stroke:#ffc200;stroke-width:1px;stroke-linecap:square"
       d="m 189,30.5 0,10"
       id="ref-S-top-1"
       sodipodi:insensitive="true"
       inkscape:connector-curvature="0" />
    <path
       style="opacity:0.5;fill:none;stroke:#ffc200;stroke-width:1px;stroke-linecap:square"
       d="m 191,30.5 0,10"
       id="ref-S-top-2"
       sodipodi:insensitive="true"
       inkscape:connector-curvature="0" />
    <path
       style="opacity:0.5;fill:none;stroke:#ffc200;stroke-width:1px;stroke-linecap:square"
       d="m 209,30.5 0,10"
       id="ref-S-top-3"
       sodipodi:insensitive="true"
       inkscape:connector-curvature="0" />
    <path
       style="opacity:0.5;fill:none;stroke:#ffc200;stroke-width:1px;stroke-linecap:square"
       d="m 211,30.5 0,10"
       id="ref-S-top-4"
       sodipodi:insensitive="true"
       inkscape:connector-curvature="0" />
    <path
       style="opacity:0.5;fill:none;stroke:#00ff00;stroke-width:1px;stroke-linecap:square"
       d="m 199,30.5 0,10"
       id="ref-I-top-1"
       sodipodi:insensitive="true"
       inkscape:connector-curvature="0" />
    <path
       style="opacity:0.5;fill:none;stroke:#00ff00;stroke-width:1px;stroke-linecap:square"
       d="m 201,30.5 0,10"
       id="ref-I-top-2"
       sodipodi:insensitive="true"
       inkscape:connector-curvature="0" />
    <path
       style="opacity:0.5;fill:none;stroke:#00ffcc;stroke-width:1px;stroke-linecap:square"
       d="m 66,30.5 0,10"
       id="ref-C-top-1"
       sodipodi:insensitive="true"
       inkscape:connector-curvature="0" />
    <path
       style="opacity:0.5;fill:none;stroke:#00ffcc;stroke-width:1px;stroke-linecap:square"
       d="m 68,30.5 0,10"
       id="ref-C-top-2"
       sodipodi:insensitive="true"
       inkscape:connector-curvature="0" />
    <path
       style="opacity:0.5;fill:none;stroke:#00ffcc;stroke-width:1px;stroke-linecap:square"
       d="m 92,30.5 0,10"
       id="ref-C-top-3"
       sodipodi:insensitive="true"
       inkscape:connector-curvature="0" />
    <path
       style="opacity:0.5;fill:none;stroke:#00ffcc;stroke-width:1px;stroke-linecap:square"
       d="m 94,30.5 0,10"
       id="ref-C-top-4"
       sodipodi:insensitive="true"
       inkscape:connector-curvature="0" />
    <path
       style="opacity:0.5;fill:none;stroke:#00ffcc;stroke-width:1px;stroke-linecap:square"
       d="m 306,30.5 0,10"
       id="ref-C-top-5"
       sodipodi:insensitive="true"
       inkscape:connector-curvature="0" />
    <path
       style="opacity:0.5;fill:none;stroke:#00ffcc;stroke-width:1px;stroke-linecap:square"
       d="m 308,30.5 0,10"
       id="ref-C-top-6"
       sodipodi:insensitive="true"
       inkscape:connector-curvature="0" />
    <path
       style="opacity:0.5;fill:none;stroke:#00ffcc;stroke-width:1px;stroke-linecap:square"
       d="m 332,30.5 0,10"
       id="ref-C-top-7"
       sodipodi:insensitive="true"
       inkscape:connector-curvature="0" />
    <path
       style="opacity:0.5;fill:none;stroke:#00ffcc;stroke-width:1px;stroke-linecap:square"
       d="m 334,30.5 0,10"
       id="ref-C-top-8"
       sodipodi:insensitive="true"
       inkscape:connector-curvature="0" />
    <path
       style="opacity:0.5;fill:none;stroke:#ffc200;stroke-width:1px;stroke-linecap:square"
       d="m 369.5,189 -10,0"
       id="ref-S-right-1"
       sodipodi:insensitive="true"
       inkscape:connector-curvature="0" />
    <path
       style="opacity:0.5;fill:none;stroke:#ffc200;stroke-width:1px;stroke-linecap:square"
       d="m 369.5,191 -10,0"
       id="ref-S-right-2"
       sodipodi:insensitive="true"
       inkscape:connector-curvature="0" />
    <path
       style="opacity:0.5;fill:none;stroke:#ffc200;stroke-width:1px;stroke-linecap:square"
       d="m 369.5,209 -10,0"
       id="ref-S-right-3"
       sodipodi:insensitive="true"
       inkscape:connector-curvature="0" />
    <path
       style="opacity:0.5;fill:none;stroke:#ffc200;stroke-width:1px;stroke-linecap:square"
       d="m 369.5,211 -10,0"
       id="ref-S-right-4"
       sodipodi:insensitive="true"
       inkscape:connector-curvature="0" />
    <path
       style="opacity:0.5;fill:none;stroke:#00ff00;stroke-width:1px;stroke-linecap:square"
       d="m 369.5,199 -10,0"
       id="ref-I-right-1"
       sodipodi:insensitive="true"
       inkscape:connector-curvature="0" />
    <path
       style="opacity:0.5;fill:none;stroke:#00ff00;stroke-width:1px;stroke-linecap:square"
       d="m 369.5,201 -10,0"
       id="ref-I-right-2"
       sodipodi:insensitive="true"
       inkscape:connector-curvature="0" />
    <path
       style="opacity:0.5;fill:none;stroke:#00ffcc;stroke-width:1px;stroke-linecap:square"
       d="m 369.5,66 -10,0"
       id="ref-C-right-1"
       sodipodi:insensitive="true"
       inkscape:connector-curvature="0" />
    <path
       style="opacity:0.5;fill:none;stroke:#00ffcc;stroke-width:1px;stroke-linecap:square"
       d="m 369.5,68 -10,0"
       id="ref-C-right-2"
       sodipodi:insensitive="true"
       inkscape:connector-curvature="0" />
    <path
       style="opacity:0.5;fill:none;stroke:#00ffcc;stroke-width:1px;stroke-linecap:square"
       d="m 369.5,92 -10,0"
       id="ref-C-right-3"
       sodipodi:insensitive="true"
       inkscape:connector-curvature="0" />
    <path
       style="opacity:0.5;fill:none;stroke:#00ffcc;stroke-width:1px;stroke-linecap:square"
       d="m 369.5,94 -10,0"
       id="ref-C-right-4"
       sodipodi:insensitive="true"
       inkscape:connector-curvature="0" />
    <path
       style="opacity:0.5;fill:none;stroke:#00ffcc;stroke-width:1px;stroke-linecap:square"
       d="m 369.5,306 -10,0"
       id="ref-C-right-5"
       sodipodi:insensitive="true"
       inkscape:connector-curvature="0" />
    <path
       style="opacity:0.5;fill:none;stroke:#00ffcc;stroke-width:1px;stroke-linecap:square"
       d="m 369.5,308 -10,0"
       id="ref-C-right-6"
       sodipodi:insensitive="true"
       inkscape:connector-curvature="0" />
    <path
       style="opacity:0.5;fill:none;stroke:#00ffcc;stroke-width:1px;stroke-linecap:square"
       d="m 369.5,332 -10,0"
       id="ref-C-right-7"
       sodipodi:insensitive="true"
       inkscape:connector-curvature="0" />
    <path
       style="opacity:0.5;fill:none;stroke:#00ffcc;stroke-width:1px;stroke-linecap:square"
       d="m 369.5,334 -10,0"
       id="ref-C-right-8"
       sodipodi:insensitive="true"
       inkscape:connector-curvature="0" />
    <path
       style="opacity:0.5;fill:none;stroke:#ffc200;stroke-width:1px;stroke-linecap:square"
       d="m 189,369.5 0,-10"
       id="ref-S-bottom-1"
       sodipodi:insensitive="true"
       inkscape:connector-curvature="0" />
    <path
       style="opacity:0.5;fill:none;stroke:#ffc200;stroke-width:1px;stroke-linecap:square"
       d="m 191,369.5 0,-10"
       id="ref-S-bottom-2"
       sodipodi:insensitive="true"
       inkscape:connector-curvature="0" />
    <path
       style="opacity:0.5;fill:none;stroke:#ffc200;stroke-width:1px;stroke-linecap:square"
       d="m 209,369.5 0,-10"
       id="ref-S-bottom-3"
       sodipodi:insensitive="true"
       inkscape:connector-curvature="0" />
    <path
       style="opacity:0.5;fill:none;stroke:#ffc200;stroke-width:1px;stroke-linecap:square"
       d="m 211,369.5 0,-10"
       id="ref-S-bottom-4"
       sodipodi:insensitive="true"
       inkscape:connector-curvature="0" />
    <path
       style="opacity:0.5;fill:none;stroke:#00ff00;stroke-width:1px;stroke-linecap:square"
       d="m 199,369.5 0,-10"
       id="ref-I-bottom-1"
       sodipodi:insensitive="true"
       inkscape:connector-curvature="0" />
    <path
       style="opacity:0.5;fill:none;stroke:#00ff00;stroke-width:1px;stroke-linecap:square"
       d="m 201,369.5 0,-10"
       id="ref-I-bottom-2"
       sodipodi:insensitive="true"
       inkscape:connector-curvature="0" />
    <path
       style="opacity:0.5;fill:none;stroke:#00ffcc;stroke-width:1px;stroke-linecap:square"
       d="m 66,369.5 0,-10"
       id="ref-C-bottom-1"
       sodipodi:insensitive="true"
       inkscape:connector-curvature="0" />
    <path
       style="opacity:0.5;fill:none;stroke:#00ffcc;stroke-width:1px;stroke-linecap:square"
       d="m 68,369.5 0,-10"
       id="ref-C-bottom-2"
       sodipodi:insensitive="true"
       inkscape:connector-curvature="0" />
    <path
       style="opacity:0.5;fill:none;stroke:#00ffcc;stroke-width:1px;stroke-linecap:square"
       d="m 92,369.5 0,-10"
       id="ref-C-bottom-3"
       sodipodi:insensitive="true"
       inkscape:connector-curvature="0" />
    <path
       style="opacity:0.5;fill:none;stroke:#00ffcc;stroke-width:1px;stroke-linecap:square"
       d="m 94,369.5 0,-10"
       id="ref-C-bottom-4"
       sodipodi:insensitive="true"
       inkscape:connector-curvature="0" />
    <path
       style="opacity:0.5;fill:none;stroke:#00ffcc;stroke-width:1px;stroke-linecap:square"
       d="m 306,369.5 0,-10"
       id="ref-C-bottom-5"
       sodipodi:insensitive="true"
       inkscape:connector-curvature="0" />
    <path
       style="opacity:0.5;fill:none;stroke:#00ffcc;stroke-width:1px;stroke-linecap:square"
       d="m 308,369.5 0,-10"
       id="ref-C-bottom-6"
       sodipodi:insensitive="true"
       inkscape:connector-curvature="0" />
    <path
       style="opacity:0.5;fill:none;stroke:#00ffcc;stroke-width:1px;stroke-linecap:square"
       d="m 332,369.5 0,-10"
       id="ref-C-bottom-7"
       sodipodi:insensitive="true"
       inkscape:connector-curvature="0" />
    <path
       style="opacity:0.5;fill:none;stroke:#00ffcc;stroke-width:1px;stroke-linecap:square"
       d="m 334,369.5 0,-10"
       id="ref-C-bottom-8"
       sodipodi:insensitive="true"
       inkscape:connector-curvature="0" />
    <path
       style="opacity:0.5;fill:none;stroke:#ffc200;stroke-width:1px;stroke-linecap:square"
       d="m 30.5,189 10,0"
       id="ref-S-left-1"
       sodipodi:insensitive="true"
       inkscape:connector-curvature="0" />
    <path
       style="opacity:0.5;fill:none;stroke:#ffc200;stroke-width:1px;stroke-linecap:square"
       d="m 30.5,191 10,0"
       id="ref-S-left-2"
       sodipodi:insensitive="true"
       inkscape:connector-curvature="0" />
    <path
       style="opacity:0.5;fill:none;stroke:#ffc200;stroke-width:1px;stroke-linecap:square"
       d="m 30.5,209 10,0"
       id="ref-S-left-3"
       sodipodi:insensitive="true"
       inkscape:connector-curvature="0" />
    <path
       style="opacity:0.5;fill:none;stroke:#ffc200;stroke-width:1px;stroke-linecap:square"
       d="m 30.5,211 10,0"
       id="ref-S-left-4"
       sodipodi:insensitive="true"
       inkscape:connector-curvature="0" />
    <path
       style="opacity:0.5;fill:none;stroke:#00ff00;stroke-width:1px;stroke-linecap:square"
       d="m 40.5,199 -10,0"
       id="ref-I-left-1"
       sodipodi:insensitive="true"
       inkscape:connector-curvature="0" />
    <path
       style="opacity:0.5;fill:none;stroke:#00ff00;stroke-width:1px;stroke-linecap:square"
       d="m 40.5,201 -10,0"
       id="ref-I-left-2"
       sodipodi:insensitive="true"
       inkscape:connector-curvature="0" />
    <path
       style="opacity:0.5;fill:none;stroke:#00ffcc;stroke-width:1px;stroke-linecap:square"
       d="m 30.5,66 10,0"
       id="ref-C-left-1"
       sodipodi:insensitive="true"
       inkscape:connector-curvature="0" />
    <path
       style="opacity:0.5;fill:none;stroke:#00ffcc;stroke-width:1px;stroke-linecap:square"
       d="m 30.5,68 10,0"
       id="ref-C-left-2"
       sodipodi:insensitive="true"
       inkscape:connector-curvature="0" />
    <path
       style="opacity:0.5;fill:none;stroke:#00ffcc;stroke-width:1px;stroke-linecap:square"
       d="m 30.5,92 10,0"
       id="ref-C-left-3"
       sodipodi:insensitive="true"
       inkscape:connector-curvature="0" />
    <path
       style="opacity:0.5;fill:none;stroke:#00ffcc;stroke-width:1px;stroke-linecap:square"
       d="m 30.5,94 10,0"
       id="ref-C-left-4"
       sodipodi:insensitive="true"
       inkscape:connector-curvature="0" />
    <path
       style="opacity:0.5;fill:none;stroke:#00ffcc;stroke-width:1px;stroke-linecap:square"
       d="m 30.5,306 10,0"
       id="ref-C-left-5"
       sodipodi:insensitive="true"
       inkscape:connector-curvature="0" />
    <path
       style="opacity:0.5;fill:none;stroke:#00ffcc;stroke-width:1px;stroke-linecap:square"
       d="m 30.5,308 10,0"
       id="ref-C-left-6"
       sodipodi:insensitive="true"
       inkscape:connector-curvature="0" />
    <path
       style="opacity:0.5;fill:none;stroke:#00ffcc;stroke-width:1px;stroke-linecap:square"
       d="m 30.5,332 10,0"
       id="ref-C-left-7"
       sodipodi:insensitive="true"
       inkscape:connector-curvature="0" />
    <path
       style="opacity:0.5;fill:none;stroke:#00ffcc;stroke-width:1px;stroke-linecap:square"
       d="m 30.5,334 10,0"
       id="ref-C-left-8"
       sodipodi:insensitive="true"
       inkscape:connector-curvature="0" />
    <path
       style="fill:none;stroke:#000000;stroke-width:1px;stroke-linecap:square"
       d="m 190,30.5 0,10"
       id="S-top-1"
       inkscape:connector-curvature="0" />
    <path
       style="fill:none;stroke:#000000;stroke-width:1px;stroke-linecap:square"
       d="m 210,30.5 0,10"
       id="S-top-2"
       inkscape:connector-curvature="0" />
    <path
       style="fill:none;stroke:#000000;stroke-width:1px;stroke-linecap:square"
       d="m 369.5,190 -10,0"
       id="S-right-1"
       inkscape:connector-curvature="0" />
    <path
       style="fill:none;stroke:#000000;stroke-width:1px;stroke-linecap:square"
       d="m 369.5,210 -10,0"
       id="S-right-2"
       inkscape:connector-curvature="0" />
    <path
       style="fill:none;stroke:#000000;stroke-width:1px;stroke-linecap:square"
       d="m 190,369.5 0,-10"
       id="S-bottom-1"
       inkscape:connector-curvature="0" />
    <path
       style="fill:none;stroke:#000000;stroke-width:1px;stroke-linecap:square"
       d="m 210,369.5 0,-10"
       id="S-bottom-2"
       inkscape:connector-curvature="0" />
    <path
       style="fill:none;stroke:#000000;stroke-width:1px;stroke-linecap:square"
       d="m 30.5,190 10,0"
       id="S-left-1"
       inkscape:connector-curvature="0" />
    <path
       style="fill:none;stroke:#000000;stroke-width:1px;stroke-linecap:square"
       d="m 30.5,210 10,0"
       id="S-left-2"
       inkscape:connector-curvature="0" />
    <path
       style="fill:none;stroke:#000000;stroke-width:1px;stroke-linecap:square"
       d="m 200,30.5 0,10"
       id="I-top-1"
       inkscape:connector-curvature="0" />
    <path
       style="fill:none;stroke:#000000;stroke-width:1px;stroke-linecap:square"
       d="m 369.5,200 -10,0"
       id="I-right-1"
       inkscape:connector-curvature="0" />
    <path
       style="fill:none;stroke:#000000;stroke-width:1px;stroke-linecap:square"
       d="m 200,369.5 0,-10"
       id="I-bottom-1"
       inkscape:connector-curvature="0" />
    <path
       style="fill:none;stroke:#000000;stroke-width:1px;stroke-linecap:square"
       d="m 40.5,200 -10,0"
       id="I-left-1"
       inkscape:connector-curvature="0" />
    <path
       style="fill:none;stroke:#000000;stroke-width:1px;stroke-linecap:square"
       d="m 67,30.5 0,10"
       id="C-top-1"
       inkscape:connector-curvature="0" />
    <path
       style="fill:none;stroke:#000000;stroke-width:1px;stroke-linecap:square"
       d="m 93,30.5 0,10"
       id="C-top-2"
       inkscape:connector-curvature="0" />
    <path
       style="fill:none;stroke:#000000;stroke-width:1px;stroke-linecap:square"
       d="m 307,30.5 0,10"
       id="C-top-3"
       inkscape:connector-curvature="0" />
    <path
       style="fill:none;stroke:#000000;stroke-width:1px;stroke-linecap:square"
       d="m 333,30.5 0,10"
       id="C-top-4"
       inkscape:connector-curvature="0" />
    <path
       style="fill:none;stroke:#000000;stroke-width:1px;stroke-linecap:square"
       d="m 369.5,67 -10,0"
       id="C-right-1"
       inkscape:connector-curvature="0" />
    <path
       style="fill:none;stroke:#000000;stroke-width:1px;stroke-linecap:square"
       d="m 369.5,93 -10,0"
       id="C-right-2"
       inkscape:connector-curvature="0" />
    <path
       style="fill:none;stroke:#000000;stroke-width:1px;stroke-linecap:square"
       d="m 369.5,307 -10,0"
       id="C-right-3"
       inkscape:connector-curvature="0" />
    <path
       style="fill:none;stroke:#000000;stroke-width:1px;stroke-linecap:square"
       d="m 369.5,333 -10,0"
       id="C-right-4"
       inkscape:connector-curvature="0" />
    <path
       style="fill:none;stroke:#000000;stroke-width:1px;stroke-linecap:square"
       d="m 67,369.5 0,-10"
       id="C-bottom-1"
       inkscape:connector-curvature="0" />
    <path
       style="fill:none;stroke:#000000;stroke-width:1px;stroke-linecap:square"
       d="m 93,369.5 0,-10"
       id="C-bottom-2"
       inkscape:connector-curvature="0" />
    <path
       style="fill:none;stroke:#000000;stroke-width:1px;stroke-linecap:square"
       d="m 307,369.5 0,-10"
       id="C-bottom-3"
       inkscape:connector-curvature="0" />
    <path
       style="fill:none;stroke:#000000;stroke-width:1px;stroke-linecap:square"
       d="m 333,369.5 0,-10"
       id="C-bottom-4"
       inkscape:connector-curvature="0" />
    <path
       style="fill:none;stroke:#000000;stroke-width:1px;stroke-linecap:square"
       d="m 30.5,67 10,0"
       id="C-left-1"
       inkscape:connector-curvature="0" />
    <path
       style="fill:none;stroke:#000000;stroke-width:1px;stroke-linecap:square"
       d="m 30.5,93 10,0"
       id="C-left-2"
       inkscape:connector-curvature="0" />
    <path
       style="fill:none;stroke:#000000;stroke-width:1px;stroke-linecap:square"
       d="m 30.5,307 10,0"
       id="C-left-3"
       inkscape:connector-curvature="0" />
    <path
       style="fill:none;stroke:#000000;stroke-width:1px;stroke-linecap:square"
       d="m 30.5,333 10,0"
       id="C-left-4"
       inkscape:connector-curvature="0" />
  </g>
  <g
     inkscape:groupmode="layer"
     id="layer8"
     inkscape:label="KONNEKT-001"
     style="display:inline">
    <path
       sodipodi:nodetypes="ccccc"
       inkscape:connector-curvature="0"
       id="path3928"
       d="m 333,30.50004 -266,0 0,339 266,0 z"
       style="fill:#ffffff;stroke:none;stroke-width:1px;stroke-linecap:square;display:inline" />
    <path
       style="fill:none;stroke:#000000;stroke-width:1px;stroke-linecap:square;display:inline"
       d="m 333,369.50004 0,-10 0,-319 0,-10"
       id="C-bottom-4-6"
       inkscape:connector-curvature="0"
       sodipodi:nodetypes="cccc" />
    <path
       style="fill:none;stroke:#000000;stroke-width:1px;stroke-linecap:square;display:inline"
       d="m 67,30.50004 0,71 m 0,101 0,167"
       id="C-top-1-4"
       inkscape:connector-curvature="0"
       sodipodi:nodetypes="cccc" />
  </g>
  <g
     inkscape:groupmode="layer"
     id="layer1"
     inkscape:label="GTI-001"
     style="display:inline"
     zpos="500">
    <path
       style="fill:#ffffff;stroke:none;display:inline"
       d="m 29.99447,96.567341 c -5.66664,0 -10.26183,4.595199 -10.26183,10.261799 0,4.0222 2.31097,7.5172 5.6806,9.199 l 0,21.0734 c -3.364,1.6841 -5.6806,5.1077 -5.6806,9.1257 0,4.0178 2.31683,7.5151 5.6806,9.199 l 0.0364,17.2252 c 0,12.9035 6.10619,18.228 11.50778,22.0996 0,0 0.35313,0.1212 0.43979,0.1466 -7.91673,-2.0346 -15.65344,-0.2185 -18.06808,9.199 0.64304,3.215 4.93694,9.4706 23.7488,13.9634 l 0.65968,1.0995 c 0.81344,2.0334 13.84878,15.0369 22.79592,13.8168 12.52693,-2.2223 8.43369,-8.5439 1.90553,-11.1781 29.19096,1.4201 40.73816,-11.2668 45.26204,-17.2985 1.2537,-1.6717 2.14173,-3.6031 2.78535,-5.6806 l 1.28267,0 c 23.99449,0 24.00282,-25.2148 15.86924,-25.2148 -8.13393,0 -12.50922,5.4584 -15.35615,9.932 l -0.5498,0.8429 c -0.34374,-5.0042 -1.17278,-8.7225 -1.17278,-8.7225 -7.86853,-39.0474 -63.94888,-31.592 -82.68099,-3.0053 l 0,-16.8954 c 3.73824,-1.5322 6.37711,-5.2388 6.37711,-9.5288 0,-1.4289 -0.27854,-2.7588 -0.80641,-3.9948 l 25.87458,-25.8744 c 1.21946,0.5113 2.58962,0.7697 3.99472,0.7696 5.66664,1e-4 10.26195,-4.5951 10.26183,-10.2618 0,-5.6666 -4.59519,-10.261699 -10.26183,-10.261899 -5.6664,2e-4 -10.26159,4.595499 -10.26182,10.261899 0,1.1392 0.1704,2.2379 0.51309,3.2618 l -25.69127,25.6912 0,-19.4975 c 3.74574,-1.5288 6.37699,-5.1966 6.37711,-9.4922 0,-5.6666 -4.59542,-10.261699 -10.26183,-10.261799 z"
       id="path11714"
       inkscape:connector-curvature="0"
       sodipodi:nodetypes="csccscccccccccccsscccccscccccccccccc" />
    <path
       sodipodi:nodetypes="csc"
       inkscape:connector-curvature="0"
       id="path11716"
       style="fill:none;stroke:#000000;stroke-width:0.99999994px;display:inline"
       d="m 117.79124,184.38764 c 2.9493,-5.1861 7.69789,-10.7809 15.8317,-10.7809 8.13359,0 8.29813,26.2263 -17.09596,25.2465" />
    <path
       inkscape:connector-curvature="0"
       id="path11718"
       style="fill:none;stroke:#000000;stroke-width:0.99999994px;display:inline"
       d="m 43.28839,218.19204 c 0.81344,2.845 14.28388,16.0112 23.23102,14.791 8.94713,-1.22 11.74339,-6.8133 1.88125,-11.1318"
       sodipodi:nodetypes="ccc" />
    <path
       sodipodi:nodetypes="ccccsscccscccccccccccsccsccc"
       inkscape:connector-curvature="0"
       d="m 98.64771,202.88834 c 9.76058,-10.9809 6.91366,-41.6184 -22.77445,-39.4489 -35.78855,3.2536 -23.58789,39.8556 -23.58789,39.8556 -9.76046,-9.354 -28.87536,-15.0477 -32.9421,0.8133 0.81345,4.0668 7.32061,13.0139 41.88901,17.0809 34.56863,4.0667 47.58262,-10.1672 52.4629,-16.6743 7.32038,-9.7605 2.84681,-28.8747 2.84681,-28.8747 -7.86865,-39.0474 -63.92061,-31.5584 -82.65273,-2.9716 l 0,-16.897 c 3.73812,-1.5322 6.37524,-5.2465 6.37524,-9.5365 0,-1.429 -0.30176,-2.755 -0.82951,-3.991 l 25.88912,-25.8891 c 1.21957,0.5113 2.58586,0.7775 3.99097,0.7774 5.66664,1e-4 10.26241,-4.5955 10.26229,-10.2623 0,-5.6665 -4.59565,-10.262299 -10.26229,-10.262399 -5.66641,10e-5 -10.26218,4.595999 -10.26241,10.262399 0,1.1392 0.17568,2.2413 0.51837,3.2651 l -25.68178,25.6819 0,-19.4881 c 3.74575,-1.5288 6.37512,-5.1893 6.37524,-9.4848 0,-5.6667 -4.59601,-10.262299 -10.26241,-10.262399 -5.66664,0 -10.26242,4.595699 -10.26242,10.262399 0,4.0222 2.30569,7.518 5.67532,9.1997 l 2.3e-4,21.043 c -3.364,1.6841 -5.67555,5.1302 -5.67555,9.1482 0,4.0178 2.31155,7.5158 5.67532,9.1997 l 0.027,17.2338 c 0,12.9035 6.19944,18.2811 11.60103,22.1527"
       style="fill:none;stroke:#000000;stroke-width:0.99999994px;display:inline"
       id="path11720" />
    <path
       sodipodi:nodetypes="cscsc"
       inkscape:connector-curvature="0"
       d="m 98.29543,263.23954 c 5.27369,-2.4833 4.31678,-10.8636 -2.91765,-8.4295 -13.1036,4.4087 -21.15624,41.2257 8.80424,25.4078 0,0 18.08123,-8.4783 11.80183,-13.0362 -6.94384,-5.0401 -19.61692,27.5218 6.12751,11.5362"
       style="fill:none;stroke:#ff0000;stroke-width:1px;display:inline"
       id="path11722" />
    <path
       sodipodi:nodetypes="csccc"
       inkscape:connector-curvature="0"
       d="m 133.91443,270.07294 c 0.10458,-1.9952 -0.54033,-4.6972 -4.61395,-3.7725 -8.72034,1.9792 -11.66439,24.2257 5.48956,13.7992 5.07374,-2.8974 6.89268,-6.5088 10.2904,-13.3741 -2.26901,5.0779 -13.00275,21.3485 2.30935,16.4027"
       style="fill:none;stroke:#ff0000;stroke-width:1px;display:inline"
       id="path11724" />
    <path
       sodipodi:nodetypes="ccsc"
       inkscape:connector-curvature="0"
       id="path11726"
       d="m 160.70466,270.38014 c 10.47616,-7.0827 11.66127,-6.2911 3.31282,12.964 5.00438,-11.9882 8.62235,-18.9324 14.36427,-16.3796 5.2605,2.3389 -10.15456,21.5235 2.73277,15.608"
       style="fill:none;stroke:#ff0000;stroke-width:1px;display:inline" />
    <path
       sodipodi:nodetypes="cszccccc"
       inkscape:connector-curvature="0"
       d="m 187.46327,281.81104 c 0,0 18.56141,-11.3789 13.49402,-15.9542 -9.81742,-8.8642 -14.7526,26.0875 0.78547,12.958 15.53807,-13.1294 11.95272,-12.2213 13.48444,-13.7377 -1.11825,2.3984 -0.39291,0.8372 -0.2607,1.2454 11.13725,11.2582 -1.81433,22.5785 -5.65627,13.0596 6.68974,14.0032 21.06199,-14.0132 24.09605,-22.2774 -8.04318,18.2107 -13.49341,31.0631 -1.95751,24.543"
       style="fill:none;stroke:#ff0000;stroke-width:1px;display:inline"
       id="path11728" />
    <path
       sodipodi:nodetypes="cc"
       inkscape:connector-curvature="0"
       id="path11730"
       d="m 225.0775,262.09844 13.04159,-1.0212"
       style="fill:none;stroke:#ff0000;stroke-width:1px;display:inline" />
    <path
       sodipodi:nodetypes="ccczc"
       inkscape:connector-curvature="0"
       id="path11732"
       d="m 245.46196,290.30384 c 0,0 8.60443,-19.9178 11.96716,-26.3032 -2.21584,1.5181 -2.14475,1.3978 -5.29198,2.8422 5.14695,-1.2368 18.21817,-4.6256 13.86317,3.0523 -4.355,7.6778 -7.41645,16.1124 4.73585,8.6334"
       style="fill:none;stroke:#ff0000;stroke-width:1px;display:inline" />
    <path
       sodipodi:nodetypes="csccsccc"
       inkscape:connector-curvature="0"
       d="m 284.65734,271.47984 c 0,0 0.70169,-7.5686 -3.99083,-7.8464 -4.69252,-0.2777 -12.90988,10.6983 -9.02773,16.2728 7.83265,8.3861 13.46241,-9.701 16.2192,-15.2055 -5.07299,9.6358 -3.51425,24.363 4.47527,14.0409 7.65088,-9.8846 9.40073,-13.4236 10.58298,-16.3986 -1.21475,2.8927 -1.2379,3.2958 -1.10568,3.704 15.59807,7.1321 4.36583,21.5308 -2.75319,14.7434"
       style="fill:none;stroke:#ff0000;stroke-width:1px;display:inline"
       id="path11734" />
    <path
       style="fill:none;stroke:#ff0000;stroke-width:1px;display:inline"
       d="m 185.20061,268.30194 4.10961,-8.4474"
       id="path11736"
       inkscape:connector-curvature="0" />
    <path
       id="path11738"
       d="m 150.51921,260.11784 c 0,1.231 -0.99786,2.2289 -2.22892,2.2289 -1.23093,0 -2.22891,-0.9979 -2.22891,-2.2289 0,-1.231 0.99798,-2.2289 2.22891,-2.2289 1.23106,0 2.22892,0.9979 2.22892,2.2289 z"
       style="fill:none;stroke:#ff0000;stroke-width:1px;display:inline"
       inkscape:connector-curvature="0" />
    <path
       d="m 178.82876,160.99704 c -7.0192,0 -12.24675,3.4467 -12.24675,11.7416 0,6.2498 3.44492,10.5882 11.86853,10.5882 7.13918,0 11.98874,-4.2066 11.98874,-10.8465 0,-7.5245 -4.3394,-11.4833 -11.61052,-11.4833 z m -14.03384,58.5685 c -1.66089,2.0387 -3.31603,4.2045 -3.31603,6.7606 0,5.0996 6.50306,6.6342 15.43672,6.6342 7.40024,0 17.48028,-0.5182 17.48028,-7.3984 0,-4.0894 -4.84944,-4.3426 -10.97722,-4.7268 l -18.62375,-1.2696 z m 37.76505,-58.183 c 2.29266,2.9353 4.72032,7.0188 4.72032,12.8874 0,14.1614 -11.10036,22.4534 -27.17179,22.4534 -4.08714,0 -7.78726,-0.5091 -10.08157,-1.1459 l -4.21169,6.7607 12.50184,0.7638 c 22.07465,1.4064 35.08371,2.0456 35.08371,19.008 0,14.6757 -12.88299,22.9648 -35.08371,22.9648 -23.09204,0 -31.89528,-5.8697 -31.89528,-15.947 0,-5.7437 2.55232,-8.7988 7.01768,-13.0153 -4.2118,-1.7803 -5.61328,-4.9681 -5.61328,-8.4143 0,-2.8088 1.40148,-5.36 3.70165,-7.7856 2.29572,-2.4218 4.84651,-4.8493 7.90888,-7.6553 -6.25092,-3.0614 -10.97277,-9.696 -10.97277,-19.139 0,-14.6706 9.69737,-24.7463 29.21395,-24.7463 5.48709,0 8.80606,0.505 11.74094,1.2753 l 24.88053,0 0,10.8419 -11.73953,0.8934"
       style="fill:#ffffff;stroke:none;display:inline"
       id="path11740"
       inkscape:connector-curvature="0" />
    <path
       sodipodi:nodetypes="sssssccccccsccscc"
       inkscape:connector-curvature="0"
       id="path11742"
       d="m 290.34109,115.47314 c -7.27417,0 -11.4712,3.9855 -11.4712,11.2513 0,7.275 4.19703,11.4713 11.4712,11.4713 7.40036,0 11.61791,-4.1963 11.61791,-11.4713 0,-7.2658 -4.21767,-11.2513 -11.61791,-11.2513 z m 11.36142,32.9477 -26.42426,0 -1.39267,11.6179 6.89008,2.4189 c 1.27974,0.3797 1.64916,1.2747 1.64916,2.6753 l 0,29.3563 c 0,14.4232 5.74522,20.5236 20.92685,20.5236 7.27558,0 15.32812,-2.4183 20.81685,-5.0942 l -3.44504,-11.2148 c -3.06236,1.1494 -6.75815,2.0158 -10.33513,2.0158 -6.88562,0 -8.68584,-2.9165 -8.68584,-10.4451 z"
       style="fill:#ffffff;stroke:none;display:inline" />
    <path
       sodipodi:nodetypes="ccccccccccccccccccccc"
       inkscape:connector-curvature="0"
       id="path11744"
       d="m 230.19969,201.99284 c 0.0528,2.3424 -2.80142,1.8486 -4.3815,2.2313 -1.39326,0.1878 -2.78641,0.3756 -4.17967,0.5635 0,3.3595 0,6.7189 0,10.0785 12.131,0 24.26188,0 36.39289,0 0,-3.3596 0,-6.719 0,-10.0785 -2.6662,-0.4439 -5.41989,-0.5396 -8.01631,-1.2659 -1.05221,-1.4183 -0.36356,-3.4486 -0.55965,-5.1359 0,-12.7212 0,-25.4426 0,-38.1639 6.3404,0 12.68069,0 19.02109,0 0,-3.9581 0,-7.9162 0,-11.8744 -6.19427,-0.043 -12.39781,0.086 -18.5861,-0.064 -0.84065,-1.1763 -0.26294,-2.9346 -0.43499,-4.3715 0,-4.996 0,-9.992 0,-14.9879 -4.04327,0 -8.08854,0 -12.13065,0 l 3.5e-4,-2e-4 c -0.69686,6.6695 -2.14513,14.5064 -8.42349,18.2227 -2.6214,1.5574 -5.65397,2.2484 -8.655,2.5941 0,3.494 0,6.9879 0,10.4819 3.17495,0.046 6.36116,-0.093 9.52884,0.072 z"
       style="fill:#ffffff;stroke:none;display:inline" />
    <path
       inkscape:connector-curvature="0"
       id="path11746"
       style="fill:none;stroke:#ff0000;stroke-width:0.99999994px;display:inline"
       d="m 178.82875,160.99704 c -7.01921,0 -12.24676,3.4467 -12.24676,11.7415 0,6.2499 3.44493,10.5883 11.86854,10.5883 7.13918,0 11.98874,-4.2066 11.98874,-10.8465 0,-7.5246 -4.3394,-11.4833 -11.61052,-11.4833 z m -14.03384,58.5685 c -1.66089,2.0387 -3.31603,4.2044 -3.31603,6.7606 0,5.0996 6.50306,6.6342 15.43671,6.6342 7.40024,0 17.48029,-0.5182 17.48029,-7.3985 0,-4.0893 -4.84945,-4.3425 -10.97722,-4.7267 l -18.62375,-1.2696 z m 37.76504,-58.183 c 2.29267,2.9352 4.72032,7.0187 4.72032,12.8873 0,14.1615 -11.10036,22.4535 -27.17178,22.4535 -4.08714,0 -7.78726,-0.5091 -10.08157,-1.1459 l -4.21169,6.7607 12.50183,0.7638 c 22.07466,1.4064 35.08372,2.0456 35.08372,19.008 0,14.6757 -12.88299,22.9648 -35.08372,22.9648 -23.09203,0 -31.89527,-5.8697 -31.89527,-15.947 0,-5.7437 2.55232,-8.7988 7.01768,-13.0153 -4.21181,-1.7803 -5.61328,-4.9681 -5.61328,-8.4143 0,-2.8088 1.40147,-5.36 3.70165,-7.7857 2.29571,-2.4217 4.84651,-4.8492 7.90887,-7.6552 -6.25091,-3.0614 -10.97276,-9.696 -10.97276,-19.139 0,-14.6706 9.69737,-24.7463 29.21395,-24.7463 5.48709,0 8.80605,0.505 11.74093,1.2753 l 24.88053,0 0,10.8419 -11.73953,0.8934" />
    <path
       style="fill:none;stroke:#ff0000;stroke-width:0.99999994px;display:inline"
       d="m 230.19968,201.99284 c 0.0528,2.3424 -2.80142,1.8486 -4.38151,2.2312 -1.39326,0.1879 -2.7864,0.3757 -4.17967,0.5636 0,3.3595 0,6.7189 0,10.0785 12.131,0 24.26189,0 36.39289,0 0,-3.3596 0,-6.719 0,-10.0785 -2.6662,-0.4439 -5.41988,-0.5396 -8.0163,-1.2659 -1.05222,-1.4183 -0.36356,-3.4486 -0.55965,-5.1359 0,-12.7212 0,-25.4426 0,-38.1639 6.3404,0 12.68068,0 19.02108,0 0,-3.9581 0,-7.9162 0,-11.8744 -6.19427,-0.043 -12.39781,0.086 -18.5861,-0.064 -0.84065,-1.1763 -0.26294,-2.9346 -0.43498,-4.3715 0,-4.9961 0,-9.992 0,-14.9879 -4.04328,0 -8.08855,0 -12.13065,0 l 3.5e-4,-2e-4 c -0.69687,6.6694 -2.14513,14.5064 -8.42349,18.2227 -2.6214,1.5574 -5.65398,2.2484 -8.655,2.5941 0,3.494 0,6.9879 0,10.4818 3.17495,0.046 6.36116,-0.093 9.52883,0.072 z"
       id="path11748"
       inkscape:connector-curvature="0"
       sodipodi:nodetypes="ccccccccccccccccccccc" />
    <path
       style="fill:none;stroke:#ff0000;stroke-width:0.99999994px;display:inline"
       d="m 290.34107,115.47314 c -7.27417,0 -11.4712,3.9855 -11.4712,11.2513 0,7.275 4.19703,11.4713 11.4712,11.4713 7.40036,0 11.61791,-4.1963 11.61791,-11.4713 0,-7.2658 -4.21767,-11.2513 -11.61791,-11.2513 z m 11.36142,32.9477 -26.42426,0 -1.39267,11.6179 6.89008,2.4189 c 1.27974,0.3797 1.64916,1.2747 1.64916,2.6753 l 0,29.3562 c 0,14.4232 5.74522,20.5237 20.92686,20.5237 7.27557,0 15.32811,-2.4183 20.81684,-5.0942 l -3.44504,-11.2148 c -3.06236,1.1494 -6.75815,2.0157 -10.33512,2.0157 -6.88563,0 -8.68585,-2.9164 -8.68585,-10.445 z"
       id="path11750"
       inkscape:connector-curvature="0"
       sodipodi:nodetypes="sssssccccccsccscc" />
    <path
       inkscape:connector-curvature="0"
       style="fill:none;stroke:#ff0000;stroke-width:1px;display:inline"
       d="m 319.51921,281.11784 c 0,1.231 -0.99786,2.2289 -2.22892,2.2289 -1.23093,0 -2.22891,-0.9979 -2.22891,-2.2289 0,-1.231 0.99798,-2.2289 2.22891,-2.2289 1.23106,0 2.22892,0.9979 2.22892,2.2289 z"
       id="path11797" />
  </g>
</svg>
