<?xml version="1.0" encoding="UTF-8" standalone="no"?>
<!-- Created with Inkscape (http://www.inkscape.org/) -->
<svg
   xmlns:dc="http://purl.org/dc/elements/1.1/"
   xmlns:cc="http://creativecommons.org/ns#"
   xmlns:rdf="http://www.w3.org/1999/02/22-rdf-syntax-ns#"
   xmlns:svg="http://www.w3.org/2000/svg"
   xmlns="http://www.w3.org/2000/svg"
   xmlns:sodipodi="http://sodipodi.sourceforge.net/DTD/sodipodi-0.dtd"
   xmlns:inkscape="http://www.inkscape.org/namespaces/inkscape"
   style="display:inline"
   sodipodi:docname="05DC4ED72788CA-R+_SW_II_II_SW_.svg"
   inkscape:version="0.48.3.1 r9886"
   version="1.1"
   id="svg2902"
   height="400"
   width="400">
  
  <g
     inkscape:groupmode="layer"
     id="layer2"
     inkscape:label="L-001"
     style="display:inline">
    <path
       sodipodi:nodetypes="ccccc"
       inkscape:connector-curvature="0"
       d="m 244.5,190 -214,0 0,20 214,0 z"
       style="fill:#ffffff;stroke:none;display:inline"
       id="path3184" />
    <path
       id="S-left-2-0-3"
       style="fill:none;stroke:#000000;stroke-width:1.00000036px;stroke-linecap:square;stroke-linejoin:miter;stroke-opacity:1;display:inline"
       d="m 30.5,210 214,0 m -214,-20 214.00024,0"
       inkscape:connector-curvature="0"
       sodipodi:nodetypes="cccc" />
  </g>
  <g
     inkscape:groupmode="layer"
     id="layer3"
     inkscape:label="V-001"
     style="display:inline">
    <path
       style="fill:#ffffff;stroke:none;display:inline"
       d="m 190,30.5 0,70 c 0,65.97014 8.39771,106.61129 9.78125,155.625 -0.38709,3.08729 -0.59375,6.21401 -0.59375,9.40625 0,41.42135 33.57866,75 75,75 41.42135,0 75,-33.57866 75,-75 0,-35.86406 -25.17161,-65.81856 -58.8125,-73.21875 C 241.47442,175.6291 210,132.13213 210,65.5 l 0,-35 -20,0 z"
       id="path3239"
       inkscape:connector-curvature="0" />
    <path
       id="I-bottom-1-4-6"
       style="fill:none;stroke:#000000;stroke-width:1.00000036px;stroke-linecap:square;stroke-linejoin:miter;stroke-opacity:1;display:inline"
       d="m 200,369.5 0,-15.00012 0,-85.00012 c 0,-55.32443 -10,-97.12829 -10,-168.99952 L 190,45.500118 190,30.5"
       inkscape:connector-curvature="0"
       sodipodi:nodetypes="cccccc" />
  </g>
  <g
     inkscape:groupmode="layer"
     id="layer5"
     inkscape:label="R-002"
     style="display:inline">
    <path
       id="I-right-1-0"
       style="fill:none;stroke:#000000;stroke-width:1.00000036px;stroke-linecap:square;stroke-linejoin:miter;stroke-opacity:1;display:inline"
       d="m 369.5,200 -10.00024,0 -2.99976,0 C 271.17199,200 210,130.8279 210,45.499889 L 210,40.500237 210,30.5"
       inkscape:connector-curvature="0"
       sodipodi:nodetypes="ccsccc" />
  </g>
</svg>
