<?xml version="1.0" encoding="UTF-8" standalone="no"?>
<!-- Created with Inkscape (http://www.inkscape.org/) -->
<svg
   xmlns:dc="http://purl.org/dc/elements/1.1/"
   xmlns:cc="http://creativecommons.org/ns#"
   xmlns:rdf="http://www.w3.org/1999/02/22-rdf-syntax-ns#"
   xmlns:svg="http://www.w3.org/2000/svg"
   xmlns="http://www.w3.org/2000/svg"
   xmlns:sodipodi="http://sodipodi.sourceforge.net/DTD/sodipodi-0.dtd"
   xmlns:inkscape="http://www.inkscape.org/namespaces/inkscape"
   style="display:inline"
   sodipodi:docname="05DC4ED7DFE16A-R+_SW_II_II_SW_.svg"
   inkscape:version="0.48.3.1 r9886"
   version="1.1"
   id="svg2902"
   height="400"
   width="400">
  
  <g
     inkscape:groupmode="layer"
     id="layer2"
     inkscape:label="L-001"
     style="display:inline">
    <path
       sodipodi:nodetypes="ccccc"
       inkscape:connector-curvature="0"
       d="m 244.5,190 -214,0 0,20 214,0 z"
       style="fill:#ffffff;stroke:none;display:inline"
       id="path3184" />
    <path
       id="S-left-2-0-3"
       style="fill:none;stroke:#000000;stroke-width:1.00000036px;stroke-linecap:square;stroke-linejoin:miter;stroke-opacity:1;display:inline"
       d="m 30.5,210 214,0 m -214,-20 214.00024,0"
       inkscape:connector-curvature="0"
       sodipodi:nodetypes="cccc" />
  </g>
  <g
     inkscape:label="V-002"
     id="g3229"
     inkscape:groupmode="layer"
     style="display:inline">
    <path
       style="fill:#ffffff;stroke:none;display:inline"
       d="m 190,30.5 0,140 c 0,42.58497 10,30.7324 10,69 l 0,15.09375 c -0.52342,3.57618 -0.8125,7.21605 -0.8125,10.9375 0,41.42135 33.57866,75 75,75 41.42135,0 75,-33.57866 75,-75 0,-35.89828 -25.21711,-65.8859 -58.90625,-73.25 C 241.43507,175.57386 210,132.08884 210,65.5 l 0,-35 -20,0 z"
       id="path3245"
       inkscape:connector-curvature="0" />
    <path
       sodipodi:nodetypes="cccccc"
       inkscape:connector-curvature="0"
       d="m 200,369.5 0,-15.00012 0,-115.00012 c 0,-38.2676 -10,-26.41455 -10,-68.99952 L 190,45.500118 190,30.5"
       style="fill:none;stroke:#000000;stroke-width:1.00000036px;stroke-linecap:square;stroke-linejoin:miter;stroke-opacity:1;display:inline"
       id="path3235" />
  </g>
  <g
     inkscape:groupmode="layer"
     id="layer4"
     inkscape:label="R-001"
     style="display:inline">
    <path
       id="I-right-1-3-2"
       style="fill:none;stroke:#000000;stroke-width:1.00000036px;stroke-linecap:square;stroke-linejoin:miter;stroke-opacity:1;display:inline"
       d="m 369.5,200 -10.00012,0 -20.00012,0 C 263.55818,200 210,152.4239 210,65.500237 L 210,43.500118 210,30.5"
       inkscape:connector-curvature="0"
       sodipodi:nodetypes="cccccc" />
  </g>
</svg>
