<?xml version="1.0" encoding="UTF-8" standalone="no"?>
<!-- Created with Inkscape (http://www.inkscape.org/) -->
<svg
   xmlns:dc="http://purl.org/dc/elements/1.1/"
   xmlns:cc="http://creativecommons.org/ns#"
   xmlns:rdf="http://www.w3.org/1999/02/22-rdf-syntax-ns#"
   xmlns:svg="http://www.w3.org/2000/svg"
   xmlns="http://www.w3.org/2000/svg"
   xmlns:sodipodi="http://sodipodi.sourceforge.net/DTD/sodipodi-0.dtd"
   xmlns:inkscape="http://www.inkscape.org/namespaces/inkscape"
   style="display:inline"
   sodipodi:docname="0ADA4A34CD31E1-R+_SW_II_II_SW_.svg"
   inkscape:version="0.48.3.1 r9886"
   version="1.1"
   id="svg2902"
   height="400"
   width="400">
  
  <g
     inkscape:groupmode="layer"
     id="layer4"
     inkscape:label="R-001"
     style="display:inline">
    <path
       style="fill:none;stroke:#000000;stroke-width:1.00000036px;stroke-linecap:square;stroke-linejoin:miter;stroke-opacity:1;display:inline"
       d="M 369.5,200 39.49976,200"
       id="I-right-1-5"
       inkscape:connector-curvature="0"
       sodipodi:nodetypes="cc" />
  </g>
  <g
     inkscape:label="OL-004"
     id="g4102"
     inkscape:groupmode="layer"
     style="display:inline">
    <path
       sodipodi:nodetypes="cssssssssssccsssssssssscc"
       inkscape:connector-curvature="0"
       id="path4139"
       d="m 190,30.5 0,50 c 0,85.9106 52.3435,137.82179 92.84375,173.84375 20.25012,18.01098 37.5666,32.89917 44.09375,43.9375 3.26357,5.51917 3.95682,9.20205 3.03125,13.125 -0.92557,3.92295 -4.13888,9.20831 -12.28125,15.8125 -5.62317,4.5609 -9.62491,5.5748 -13.75,5.25 -4.12509,-0.3248 -9.05919,-2.45082 -14.75,-6.9375 C 277.80588,316.55788 264.68763,298.78649 251.125,279.125 237.56237,259.46351 223.32847,237.92537 207.28125,220.75 191.23403,203.57463 172.69324,190 150.5,190 l -120,0 0,20 120,0 c 13.80602,0 27.84607,9.05658 42.1875,24.40625 14.34143,15.34967 28.30144,36.23521 42,56.09375 13.69856,19.85854 26.88974,38.70714 42.125,50.71875 7.61763,6.0058 16.07463,10.44046 25.5625,11.1875 9.48787,0.74704 19.33281,-2.64583 27.9375,-9.625 10.18015,-8.25702 16.81169,-16.97653 19.125,-26.78125 2.31331,-9.80472 -0.3553,-19.57576 -5.28125,-27.90625 C 334.30434,271.43278 316.03614,257.11573 296.125,239.40625 256.30273,203.9873 210,158.38045 210,80.5 l 0,-50 z"
       style="font-size:medium;font-style:normal;font-variant:normal;font-weight:normal;font-stretch:normal;text-indent:0;text-align:start;text-decoration:none;line-height:normal;letter-spacing:normal;word-spacing:normal;text-transform:none;direction:ltr;block-progression:tb;writing-mode:lr-tb;text-anchor:start;baseline-shift:baseline;color:#000000;fill:#ffffff;stroke:none;stroke-width:1;marker:none;visibility:visible;display:inline;overflow:visible;enable-background:accumulate;font-family:Sans;-inkscape-font-specification:Sans" />
    <path
       style="font-size:medium;font-style:normal;font-variant:normal;font-weight:normal;font-stretch:normal;text-indent:0;text-align:start;text-decoration:none;line-height:normal;letter-spacing:normal;word-spacing:normal;text-transform:none;direction:ltr;block-progression:tb;writing-mode:lr-tb;text-anchor:start;baseline-shift:baseline;color:#000000;fill:none;stroke:#000000;stroke-width:1;stroke-miterlimit:4;stroke-dasharray:none;marker:none;visibility:visible;display:inline;overflow:visible;enable-background:accumulate;font-family:Sans;-inkscape-font-specification:Sans"
       d="m 30.5,210 120,0 c 13.80602,0 27.84607,9.05658 42.1875,24.40625 14.34143,15.34967 28.30144,36.23521 42,56.09375 13.69856,19.85854 26.88974,38.70714 42.125,50.71875 7.61763,6.0058 16.07463,10.44046 25.5625,11.1875 9.48787,0.74704 19.33281,-2.64583 27.9375,-9.625 10.18015,-8.25702 16.81169,-16.97653 19.125,-26.78125 2.31331,-9.80472 -0.3553,-19.57576 -5.28125,-27.90625 C 334.30434,271.43278 316.03614,257.11573 296.125,239.40625 256.30273,203.9873 210,158.38045 210,80.5 l 0,-50 m -20,0 0,50 c 0,85.9106 52.3435,137.82179 92.84375,173.84375 20.25012,18.01098 37.5666,32.89917 44.09375,43.9375 3.26357,5.51917 3.95682,9.20205 3.03125,13.125 -0.92557,3.92295 -4.13888,9.20831 -12.28125,15.8125 -5.62317,4.5609 -9.62491,5.5748 -13.75,5.25 -4.12509,-0.3248 -9.05919,-2.45082 -14.75,-6.9375 C 277.80588,316.55788 264.68763,298.78649 251.125,279.125 237.56237,259.46351 223.32847,237.92537 207.28125,220.75 191.23403,203.57463 172.69324,190 150.5,190 l -120,0"
       id="path4104"
       inkscape:connector-curvature="0"
       sodipodi:nodetypes="cssssssssssccssssssssssc" />
  </g>
  <g
     inkscape:groupmode="layer"
     id="layer5"
     inkscape:label="U-002"
     style="display:inline">
    <path
       sodipodi:nodetypes="cccccccc"
       inkscape:connector-curvature="0"
       d="M 30.5,210 40.500237,210 160,210 c 22.16,0 40,17.84 40,40 l 0,109.49976 0,10.00024 -169.75,0.25 z"
       style="fill:#ffffff;stroke:none;display:inline"
       id="path4100" />
    <path
       id="S-left-2-3"
       style="fill:none;stroke:#000000;stroke-width:1.00000036px;stroke-linecap:square;stroke-linejoin:miter;stroke-opacity:1;display:inline"
       d="M 30.5,210 40.500237,210 160,210 c 22.16,0 40,17.84 40,40 l 0,109.49976 0,10.00024"
       inkscape:connector-curvature="0"
       sodipodi:nodetypes="cccccc" />
  </g>
</svg>
