<?xml version="1.0" encoding="UTF-8" standalone="no"?>
<!-- Created with Inkscape (http://www.inkscape.org/) -->
<svg
   xmlns:dc="http://purl.org/dc/elements/1.1/"
   xmlns:cc="http://creativecommons.org/ns#"
   xmlns:rdf="http://www.w3.org/1999/02/22-rdf-syntax-ns#"
   xmlns:svg="http://www.w3.org/2000/svg"
   xmlns="http://www.w3.org/2000/svg"
   xmlns:sodipodi="http://sodipodi.sourceforge.net/DTD/sodipodi-0.dtd"
   xmlns:inkscape="http://www.inkscape.org/namespaces/inkscape"
   style="display:inline"
   sodipodi:docname="0ADA4A348E518C-R+_SW_II_II_SW_.svg"
   inkscape:version="0.48.3.1 r9886"
   version="1.1"
   id="svg2902"
   height="400"
   width="400">
  
  <g
     inkscape:groupmode="layer"
     id="layer4"
     inkscape:label="R-001"
     style="display:inline">
    <path
       style="fill:none;stroke:#000000;stroke-width:1.00000036px;stroke-linecap:square;stroke-linejoin:miter;stroke-opacity:1;display:inline"
       d="M 369.5,200 39.49976,200"
       id="I-right-1-5"
       inkscape:connector-curvature="0"
       sodipodi:nodetypes="cc" />
  </g>
  <g
     inkscape:groupmode="layer"
     id="layer2"
     inkscape:label="OL-001"
     style="display:inline">
    <path
       style="color:#000000;fill:#ffffff;fill-opacity:1;fill-rule:nonzero;stroke:none;stroke-width:1;marker:none;visibility:visible;display:inline;overflow:visible;enable-background:accumulate"
       d="m 190,30.5 0,30 c 0,3.747595 0.37913,7.534462 1.0625,11.375 C 175.68301,56.511434 154.45616,47 131,47 84.05577,47 46,85.055772 46,132 c 0,23.38426 9.469387,44.53814 24.75,59.90625 C 64.158519,190.66454 57.407672,190 50.5,190 l -20,0 0,20 20,0 c 35.235184,0 70.12536,24.49293 103.0625,45.28125 16.46857,10.39416 32.39944,19.82668 49,23.71875 16.60056,3.89207 34.66155,0.89227 49.25,-12.6875 14.91279,-13.88168 19.14441,-33.04433 17.03125,-51.84375 -2.11316,-18.79942 -9.7441,-38.12682 -18.65625,-57.28125 -8.91215,-19.15443 -19.22242,-38.11242 -27.125,-55.0625 C 215.15992,85.174925 210,70.034746 210,60.5 l 0,-30 -20,0 z"
       id="path4033"
       inkscape:connector-curvature="0" />
    <path
       sodipodi:nodetypes="cssssssssccsssssssscc"
       inkscape:connector-curvature="0"
       id="path3967"
       d="m 190,30.5 0,30 c 0,15.769535 6.64319,32.303458 14.9375,50.09375 8.29431,17.79029 18.57963,36.66512 27.125,55.03125 8.54537,18.36613 15.23754,36.24832 16.90625,51.09375 1.66871,14.84543 -0.86398,25.73718 -10.78125,34.96875 -10.20682,9.5011 -18.93744,10.68652 -31.0625,7.84375 -12.12506,-2.84277 -26.86246,-11.06144 -42.90625,-21.1875 C 132.13117,218.09163 94.574896,190 50.5,190 l -20,0 0,20 20,0 c 35.235184,0 70.12536,24.49293 103.0625,45.28125 16.46857,10.39416 32.39944,19.82668 49,23.71875 16.60056,3.89207 34.66155,0.89227 49.25,-12.6875 14.91279,-13.88168 19.14441,-33.04433 17.03125,-51.84375 -2.11316,-18.79942 -9.7441,-38.12682 -18.65625,-57.28125 -8.91215,-19.15443 -19.22242,-38.11242 -27.125,-55.0625 C 215.15992,85.174925 210,70.034746 210,60.5 l 0,-30 z"
       style="font-size:medium;font-style:normal;font-variant:normal;font-weight:normal;font-stretch:normal;text-indent:0;text-align:start;text-decoration:none;line-height:normal;letter-spacing:normal;word-spacing:normal;text-transform:none;direction:ltr;block-progression:tb;writing-mode:lr-tb;text-anchor:start;baseline-shift:baseline;color:#000000;fill:#ffffff;stroke:none;stroke-width:1;marker:none;visibility:visible;display:inline;overflow:visible;enable-background:accumulate;font-family:Sans;-inkscape-font-specification:Sans" />
    <path
       style="font-size:medium;font-style:normal;font-variant:normal;font-weight:normal;font-stretch:normal;text-indent:0;text-align:start;text-decoration:none;line-height:normal;letter-spacing:normal;word-spacing:normal;text-transform:none;direction:ltr;block-progression:tb;writing-mode:lr-tb;text-anchor:start;baseline-shift:baseline;color:#000000;fill:none;stroke:#000000;stroke-width:1;stroke-miterlimit:4;stroke-dasharray:none;marker:none;visibility:visible;display:inline;overflow:visible;enable-background:accumulate;font-family:Sans;-inkscape-font-specification:Sans"
       d="m 47.5,210 3,0 c 35.235184,0 70.12536,24.49293 103.0625,45.28125 16.46857,10.39416 32.39944,19.82668 49,23.71875 16.60056,3.89207 34.66155,0.89227 49.25,-12.6875 14.91279,-13.88168 19.14441,-33.04433 17.03125,-51.84375 -2.11316,-18.79942 -9.7441,-38.12682 -18.65625,-57.28125 -8.91215,-19.15443 -19.22242,-38.11242 -27.125,-55.0625 C 215.15992,85.174925 210,70.034746 210,60.5 l 0,-30 m -20,0 0,30 c 0,15.769535 6.64319,32.303458 14.9375,50.09375 8.29431,17.79029 18.57963,36.66512 27.125,55.03125 8.54537,18.36613 15.23754,36.24832 16.90625,51.09375 1.66871,14.84543 -0.86398,25.73718 -10.78125,34.96875 -10.20682,9.5011 -18.93744,10.68652 -31.0625,7.84375 -12.12506,-2.84277 -26.86246,-11.06144 -42.90625,-21.1875 C 132.13117,218.09163 94.574896,190 50.5,190 l -20,0"
       id="path3128-2"
       inkscape:connector-curvature="0"
       sodipodi:nodetypes="cssssssssccssssssssc" />
  </g>
  <g
     inkscape:groupmode="layer"
     id="layer3"
     inkscape:label="U-001"
     style="display:inline">
    <path
       sodipodi:nodetypes="cccccc"
       inkscape:connector-curvature="0"
       d="m 200,369.5 0,-10.00024 C 200,287.37301 165.36724,210 40.500237,210 L 30.5,210 l 0,159.5 z"
       style="fill:#ffffff;stroke:none;display:inline"
       id="path3943" />
    <path
       id="S-left-2-6"
       style="fill:none;stroke:#000000;stroke-width:1.00000036px;stroke-linecap:square;stroke-linejoin:miter;stroke-opacity:1;display:inline"
       d="m 200,369.5 0,-10.00024 C 200,287.37301 165.36724,210 40.500237,210 L 30.5,210"
       inkscape:connector-curvature="0"
       sodipodi:nodetypes="cccc" />
  </g>
</svg>
