<?xml version="1.0" encoding="UTF-8" standalone="no"?>
<!-- Created with Inkscape (http://www.inkscape.org/) -->
<svg
   xmlns:dc="http://purl.org/dc/elements/1.1/"
   xmlns:cc="http://creativecommons.org/ns#"
   xmlns:rdf="http://www.w3.org/1999/02/22-rdf-syntax-ns#"
   xmlns:svg="http://www.w3.org/2000/svg"
   xmlns="http://www.w3.org/2000/svg"
   xmlns:sodipodi="http://sodipodi.sourceforge.net/DTD/sodipodi-0.dtd"
   xmlns:inkscape="http://www.inkscape.org/namespaces/inkscape"
   style="display:inline"
   sodipodi:docname="0ADA4A345537FE-R+_SW_II_II_SW_.svg"
   inkscape:version="0.48.3.1 r9886"
   version="1.1"
   id="svg2902"
   height="400"
   width="400">
  
  <g
     inkscape:groupmode="layer"
     id="layer4"
     inkscape:label="R-001"
     style="display:inline">
    <path
       style="fill:none;stroke:#000000;stroke-width:1.00000036px;stroke-linecap:square;stroke-linejoin:miter;stroke-opacity:1;display:inline"
       d="M 369.5,200 39.49976,200"
       id="I-right-1-5"
       inkscape:connector-curvature="0"
       sodipodi:nodetypes="cc" />
  </g>
  <g
     inkscape:label="OL-002"
     id="g3126"
     inkscape:groupmode="layer"
     style="display:inline">
    <path
       style="color:#000000;fill:#ffffff;fill-opacity:1;fill-rule:nonzero;stroke:none;stroke-width:1;marker:none;visibility:visible;display:inline;overflow:visible;enable-background:accumulate"
       d="m 190,30.5 0,47.96875 C 174.41528,59.281349 150.64568,47 124,47 77.05577,47 39,85.055772 39,132 c 0,22.44356 8.727978,42.83827 22.9375,58.03125 C 61.457743,190.02552 60.982534,190 60.5,190 l -30,0 0,20 30,0 c 43.12657,0 73.95108,27.85671 101.84375,53 13.94634,12.57165 26.79965,24.43533 41.46875,30.875 14.6691,6.43967 32.48294,5.40083 47.59375,-7.1875 14.76502,-12.30027 20.66938,-27.64081 18.4375,-42.15625 C 267.61187,230.01581 259.55232,216.89317 250.625,202 232.77037,172.21365 210,135.95396 210,80.5 l 0,-50 -20,0 z"
       id="path4048"
       inkscape:connector-curvature="0" />
    <path
       style="font-size:medium;font-style:normal;font-variant:normal;font-weight:normal;font-stretch:normal;text-indent:0;text-align:start;text-decoration:none;line-height:normal;letter-spacing:normal;word-spacing:normal;text-transform:none;direction:ltr;block-progression:tb;writing-mode:lr-tb;text-anchor:start;baseline-shift:baseline;color:#000000;fill:#ffffff;fill-opacity:1;stroke:none;stroke-width:1;marker:none;visibility:visible;display:inline;overflow:visible;enable-background:accumulate;font-family:Sans;-inkscape-font-specification:Sans"
       d="m 190,30.5 0,50 c 0,61.01357 25.79159,102.29097 43.46875,131.78125 8.83858,14.74514 15.27506,26.70489 16.59375,35.28125 1.31869,8.57636 -0.17018,14.33752 -11.46875,23.75 -10.58976,8.82199 -16.8219,8.60839 -26.75,4.25 -9.9281,-4.35839 -22.22383,-14.90657 -36.125,-27.4375 C 147.91641,223.06313 112.19176,190 60.5,190 l -30,0 0,20 30,0 c 43.12657,0 73.95108,27.85671 101.84375,53 13.94634,12.57165 26.79965,24.43533 41.46875,30.875 14.6691,6.43967 32.48294,5.40083 47.59375,-7.1875 14.76502,-12.30027 20.66938,-27.64081 18.4375,-42.15625 C 267.61187,230.01581 259.55232,216.89317 250.625,202 232.77037,172.21365 210,135.95396 210,80.5 l 0,-50 -20,0 z"
       id="path3128-4"
       inkscape:connector-curvature="0" />
    <path
       style="font-size:medium;font-style:normal;font-variant:normal;font-weight:normal;font-stretch:normal;text-indent:0;text-align:start;text-decoration:none;line-height:normal;letter-spacing:normal;word-spacing:normal;text-transform:none;direction:ltr;block-progression:tb;writing-mode:lr-tb;text-anchor:start;baseline-shift:baseline;color:#000000;fill:none;stroke:#000000;stroke-width:1;stroke-miterlimit:4;stroke-dasharray:none;marker:none;visibility:visible;display:inline;overflow:visible;enable-background:accumulate;font-family:Sans;-inkscape-font-specification:Sans"
       d="m 162.34375,263 c 13.94634,12.57165 26.79965,24.43533 41.46875,30.875 14.6691,6.43967 32.48294,5.40083 47.59375,-7.1875 14.76502,-12.30027 20.66938,-27.64081 18.4375,-42.15625 C 267.61187,230.01581 259.55232,216.89317 250.625,202 232.77037,172.21365 210,135.95396 210,80.5 l 0,-50 m -20,0 0,50 c 0,61.01357 25.79159,102.29097 43.46875,131.78125 8.83858,14.74514 15.27506,26.70489 16.59375,35.28125 1.31869,8.57636 -0.17018,14.33752 -11.46875,23.75 -10.58976,8.82199 -16.8219,8.60839 -26.75,4.25 -9.9281,-4.35839 -22.22383,-14.90657 -36.125,-27.4375 C 147.91641,223.06313 112.19176,190 60.5,190 l -30,0"
       id="path3128"
       inkscape:connector-curvature="0"
       sodipodi:nodetypes="csssssccsssssssc" />
  </g>
  <g
     inkscape:groupmode="layer"
     id="layer3"
     inkscape:label="U-001"
     style="display:inline">
    <path
       sodipodi:nodetypes="cccccc"
       inkscape:connector-curvature="0"
       d="m 200,369.5 0,-10.00024 C 200,287.37301 165.36724,210 40.500237,210 L 30.5,210 l 0,159.5 z"
       style="fill:#ffffff;stroke:none;display:inline"
       id="path3943" />
    <path
       id="S-left-2-6"
       style="fill:none;stroke:#000000;stroke-width:1.00000036px;stroke-linecap:square;stroke-linejoin:miter;stroke-opacity:1;display:inline"
       d="m 200,369.5 0,-10.00024 C 200,287.37301 165.36724,210 40.500237,210 L 30.5,210"
       inkscape:connector-curvature="0"
       sodipodi:nodetypes="cccc" />
  </g>
</svg>
