<?xml version="1.0" encoding="UTF-8" standalone="no"?>
<!-- Created with Inkscape (http://www.inkscape.org/) -->
<svg
   xmlns:dc="http://purl.org/dc/elements/1.1/"
   xmlns:cc="http://creativecommons.org/ns#"
   xmlns:rdf="http://www.w3.org/1999/02/22-rdf-syntax-ns#"
   xmlns:svg="http://www.w3.org/2000/svg"
   xmlns="http://www.w3.org/2000/svg"
   xmlns:sodipodi="http://sodipodi.sourceforge.net/DTD/sodipodi-0.dtd"
   xmlns:inkscape="http://www.inkscape.org/namespaces/inkscape"
   style="display:inline"
   sodipodi:docname="1C17E88885D3A0-R+_00_SW_00_SW_.svg"
   inkscape:version="0.48.3.1 r9886"
   version="1.1"
   id="svg2902"
   height="400"
   width="400">
  
  <g
     style="display:inline"
     inkscape:label="ELEMENT-004"
     id="g3931"
     inkscape:groupmode="layer">
    <path
       style="font-size:medium;font-style:normal;font-variant:normal;font-weight:normal;font-stretch:normal;text-indent:0;text-align:start;text-decoration:none;line-height:normal;letter-spacing:normal;word-spacing:normal;text-transform:none;direction:ltr;block-progression:tb;writing-mode:lr-tb;text-anchor:start;baseline-shift:baseline;color:#000000;fill:#ffffff;fill-opacity:1;stroke:none;stroke-width:20;marker:none;visibility:visible;display:inline;overflow:visible;enable-background:accumulate;font-family:Sans;-inkscape-font-specification:Sans"
       d="m 200,145 c -12.82591,0 -22.97931,7.74086 -29.28125,16.875 -6.30194,9.13414 -10.26676,19.9594 -14.15625,30.5 -3.88949,10.5406 -7.64799,20.81253 -12.03125,28.21875 -4.38326,7.40622 -8.65377,11.36046 -14.1875,12.65625 -5.37264,1.25807 -8.18315,0.39395 -12.46875,-2.3125 -4.2856,-2.70645 -9.31029,-7.78645 -15.3125,-13.75 C 90.558086,205.2604 73.237863,190 45.25,190 l -14.75,0 0,20 14.75,0 c 21.149804,0 31.721568,9.95187 43.21875,21.375 5.748591,5.71157 11.367492,11.80654 18.75,16.46875 7.38251,4.66221 17.25717,7.34865 27.6875,4.90625 12.45151,-2.91568 20.99439,-12.08532 26.84375,-21.96875 5.84936,-9.88343 9.75373,-21.06222 13.59375,-31.46875 3.84002,-10.40653 7.66981,-20.01272 11.84375,-26.0625 4.17394,-6.04978 7.16666,-8.25 12.8125,-8.25 5.64584,0 8.63856,2.20022 12.8125,8.25 4.17394,6.04978 8.00373,15.65597 11.84375,26.0625 3.84002,10.40653 7.74439,21.58532 13.59375,31.46875 5.84936,9.88343 14.39224,19.05307 26.84375,21.96875 10.43859,2.44433 20.32014,-0.22797 27.75,-4.875 7.42986,-4.64703 13.13333,-10.74607 18.9375,-16.46875 C 323.38959,219.96088 334.01363,210 354.75,210 l 14.75,0 0,-20 -14.75,0 c -27.67676,0 -44.92561,15.25138 -57,27.15625 -6.03719,5.95243 -11.14854,11.05962 -15.5,13.78125 -4.35146,2.72163 -7.22936,3.56864 -12.59375,2.3125 -5.53373,-1.29579 -9.80424,-5.25003 -14.1875,-12.65625 -4.38326,-7.40622 -8.14176,-17.67815 -12.03125,-28.21875 -3.88949,-10.5406 -7.85431,-21.36586 -14.15625,-30.5 C 222.97931,152.74086 212.82591,145 200,145 z"
       id="path3933-0"
       inkscape:connector-curvature="0" />
    <path
       style="font-size:medium;font-style:normal;font-variant:normal;font-weight:normal;font-stretch:normal;text-indent:0;text-align:start;text-decoration:none;line-height:normal;letter-spacing:normal;word-spacing:normal;text-transform:none;direction:ltr;block-progression:tb;writing-mode:lr-tb;text-anchor:start;baseline-shift:baseline;color:#000000;fill:none;stroke:#000000;stroke-width:1;stroke-miterlimit:4;stroke-dasharray:none;marker:none;visibility:visible;display:inline;overflow:visible;enable-background:accumulate;font-family:Sans;-inkscape-font-specification:Sans"
       d="m 369.5,190 -14.75,0 c -27.67676,0 -44.92561,15.25138 -57,27.15625 -6.03719,5.95243 -11.14854,11.05962 -15.5,13.78125 -4.35146,2.72163 -7.22936,3.56864 -12.59375,2.3125 -5.53373,-1.29579 -9.80424,-5.25003 -14.1875,-12.65625 -4.38326,-7.40622 -8.14176,-17.67815 -12.03125,-28.21875 -3.88949,-10.5406 -7.85431,-21.36586 -14.15625,-30.5 C 222.97931,152.74086 212.82591,145 200,145 c -12.82591,0 -22.97931,7.74086 -29.28125,16.875 -6.30194,9.13414 -10.26676,19.9594 -14.15625,30.5 -3.88949,10.5406 -7.64799,20.81253 -12.03125,28.21875 -4.38326,7.40622 -8.65377,11.36046 -14.1875,12.65625 -5.37264,1.25807 -8.18315,0.39395 -12.46875,-2.3125 -4.2856,-2.70645 -9.31029,-7.78645 -15.3125,-13.75 C 90.558086,205.2604 73.237863,190 45.25,190 l -14.75,0 m 0,20 14.75,0 c 21.149804,0 31.721568,9.95187 43.21875,21.375 5.748591,5.71157 11.367492,11.80654 18.75,16.46875 7.38251,4.66221 17.25717,7.34865 27.6875,4.90625 12.45151,-2.91568 20.99439,-12.08532 26.84375,-21.96875 5.84936,-9.88343 9.75373,-21.06222 13.59375,-31.46875 3.84002,-10.40653 7.66981,-20.01272 11.84375,-26.0625 4.17394,-6.04978 7.16666,-8.25 12.8125,-8.25 5.64584,0 8.63856,2.20022 12.8125,8.25 4.17394,6.04978 8.00373,15.65597 11.84375,26.0625 3.84002,10.40653 7.74439,21.58532 13.59375,31.46875 5.84936,9.88343 14.39224,19.05307 26.84375,21.96875 10.43859,2.44433 20.32014,-0.22797 27.75,-4.875 7.42986,-4.64703 13.13333,-10.74607 18.9375,-16.46875 C 323.38959,219.96088 334.01363,210 354.75,210 l 14.75,0"
       id="path3933"
       inkscape:connector-curvature="0"
       sodipodi:nodetypes="csssssssssssssssccsssssssssssssssc" />
  </g>
</svg>
