<?xml version="1.0" encoding="UTF-8" standalone="no"?>
<!-- Created with Inkscape (http://www.inkscape.org/) -->
<svg
   xmlns:dc="http://purl.org/dc/elements/1.1/"
   xmlns:cc="http://creativecommons.org/ns#"
   xmlns:rdf="http://www.w3.org/1999/02/22-rdf-syntax-ns#"
   xmlns:svg="http://www.w3.org/2000/svg"
   xmlns="http://www.w3.org/2000/svg"
   xmlns:sodipodi="http://sodipodi.sourceforge.net/DTD/sodipodi-0.dtd"
   xmlns:inkscape="http://www.inkscape.org/namespaces/inkscape"
   style="display:inline"
   sodipodi:docname="21810F73194964-R+_00_00_UW_00_.svg"
   inkscape:version="0.48.3.1 r9886"
   version="1.1"
   id="svg2902"
   height="400"
   width="400">
  
  <g
     inkscape:groupmode="layer"
     id="g3658"
     inkscape:label="H-001"
     style="display:inline">
    <path
       id="path3676-3"
       style="font-size:medium;font-style:normal;font-variant:normal;font-weight:normal;font-stretch:normal;text-indent:0;text-align:start;text-decoration:none;line-height:normal;letter-spacing:normal;word-spacing:normal;text-transform:none;direction:ltr;block-progression:tb;writing-mode:lr-tb;text-anchor:start;baseline-shift:baseline;color:#000000;fill:#ffffff;fill-opacity:1;stroke:none;stroke-width:1;marker:none;visibility:visible;display:inline;overflow:visible;enable-background:accumulate;font-family:Sans;-inkscape-font-specification:Sans"
       d="m 307.00002,369.5 0,-129.5 c 0.0751,-5.33502 -2.09166,-10.66623 -5.86736,-14.43612 -3.7757,-3.7699 -9.11025,-5.92849 -14.44514,-5.84513 -5.23073,0.0817 -10.39577,2.31398 -14.03956,6.06765 -3.64378,3.75368 -5.72161,8.98275 -5.64794,14.2136 l 0,89.5 0,-159.5 c 0.0751,-5.33502 -2.09166,-10.66623 -5.86736,-14.43612 -3.7757,-3.7699 -9.11025,-5.92849 -14.44514,-5.84513 -5.23073,0.0817 -10.39577,2.31398 -14.03956,6.06765 -3.64378,3.75368 -5.72161,8.98275 -5.64794,14.2136 l 0,179.5 0,-119.5 c 0.0751,-5.33502 -2.09166,-10.66623 -5.86736,-14.43612 -3.7757,-3.7699 -9.11025,-5.92849 -14.44514,-5.84513 -5.23073,0.0817 -10.39577,2.31398 -14.03956,6.06765 -3.64378,3.75368 -5.72161,8.98275 -5.64794,14.2136 l 0,89.5 0,-149.5 c 0.0751,-5.33502 -2.09166,-10.66623 -5.86736,-14.43612 -3.7757,-3.7699 -9.11025,-5.92849 -14.44514,-5.84513 -5.23075,0.0817 -10.39579,2.31398 -14.03958,6.06765 C 149.00416,159.54008 146.92633,164.76915 147,170 l 0,179.5 0,-119.5 c 0.0751,-5.33502 -2.09166,-10.66623 -5.86736,-14.43612 -3.7757,-3.7699 -9.11025,-5.92849 -14.44514,-5.84513 -5.23073,0.0817 -10.39577,2.31398 -14.03956,6.06765 C 109.00416,219.54008 106.92633,224.76915 107,230 l 0,99.5 0,-159.5 c 0.0751,-5.33502 -2.09166,-10.66623 -5.86736,-14.43612 -3.775701,-3.7699 -9.110247,-5.92849 -14.44514,-5.84513 -5.230735,0.0817 -10.395772,2.31398 -14.039557,6.06765 C 69.004157,159.54008 66.926326,164.76915 67,170 l 0,199.5"
       inkscape:connector-curvature="0"
       sodipodi:nodetypes="ccssscccssscccssscccssscccssscccssscc" />
    <path
       id="path3676-3-4"
       style="font-size:medium;font-style:normal;font-variant:normal;font-weight:normal;font-stretch:normal;text-indent:0;text-align:start;text-decoration:none;line-height:normal;letter-spacing:normal;word-spacing:normal;text-transform:none;direction:ltr;block-progression:tb;writing-mode:lr-tb;text-anchor:start;baseline-shift:baseline;color:#000000;fill:none;fill-opacity:1;stroke:#ff0000;stroke-width:1;stroke-miterlimit:4;stroke-dasharray:none;marker:none;visibility:visible;display:inline;overflow:visible;enable-background:accumulate;font-family:Sans;-inkscape-font-specification:Sans"
       d="m 307.00003,358.5 0,-118.5 c 0.0751,-5.33502 -2.09166,-10.66623 -5.86736,-14.43612 -3.7757,-3.7699 -9.11025,-5.92849 -14.44514,-5.84513 -5.23073,0.0817 -10.39577,2.31398 -14.03956,6.06765 -3.64378,3.75368 -5.72161,8.98275 -5.64794,14.2136 l 0,89.5 0,-159.5 c 0.0751,-5.33502 -2.09166,-10.66623 -5.86736,-14.43612 -3.7757,-3.7699 -9.11025,-5.92849 -14.44514,-5.84513 -5.23073,0.0817 -10.39577,2.31398 -14.03956,6.06765 -3.64378,3.75368 -5.72161,8.98275 -5.64794,14.2136 l 0,169.5 0,-109.5 c 0.0751,-5.33502 -2.09166,-10.66623 -5.86736,-14.43612 -3.7757,-3.7699 -9.11025,-5.92849 -14.44514,-5.84513 -5.23073,0.0817 -10.39577,2.31398 -14.03956,6.06765 -3.64378,3.75368 -5.72161,8.98275 -5.64794,14.2136 l 0,89.5 0,-149.5 c 0.0751,-5.33502 -2.09166,-10.66623 -5.86736,-14.43612 -3.7757,-3.7699 -9.11025,-5.92849 -14.44514,-5.84513 -5.23076,0.0817 -10.3958,2.31398 -14.03959,6.06765 C 149.00416,159.54008 146.92633,164.76915 147,170 l 0,169.5 0,-109.5 c 0.0751,-5.33502 -2.09166,-10.66623 -5.86736,-14.43612 -3.7757,-3.7699 -9.11025,-5.92849 -14.44514,-5.84513 -5.23073,0.0817 -10.39577,2.31398 -14.03956,6.06765 C 109.00416,219.54008 106.92633,224.76915 107,230 l 0,99.5"
       inkscape:connector-curvature="0"
       sodipodi:nodetypes="ccssscccssscccssscccssscccssscc" />
    <path
       id="path3676-3-44"
       style="font-size:medium;font-style:normal;font-variant:normal;font-weight:normal;font-stretch:normal;text-indent:0;text-align:start;text-decoration:none;line-height:normal;letter-spacing:normal;word-spacing:normal;text-transform:none;direction:ltr;block-progression:tb;writing-mode:lr-tb;text-anchor:start;baseline-shift:baseline;color:#000000;fill:none;fill-opacity:1;stroke:#000000;stroke-width:1;stroke-miterlimit:4;stroke-dasharray:none;marker:none;visibility:visible;display:inline;overflow:visible;enable-background:accumulate;font-family:Sans;-inkscape-font-specification:Sans"
       d="M 107,329.5 107,170 c 0.0751,-5.33502 -2.09166,-10.66623 -5.86736,-14.43612 -3.775701,-3.7699 -9.110247,-5.92849 -14.44514,-5.84513 -5.230735,0.0817 -10.395772,2.31398 -14.039557,6.06765 C 69.004157,159.54008 66.926326,164.76915 67,170 L 67,359.49977 67,369.5"
       inkscape:connector-curvature="0"
       sodipodi:nodetypes="ccsssccc" />
  </g>
  <g
     inkscape:groupmode="layer"
     id="layer1"
     inkscape:label="V-001"
     style="display:inline">
    <path
       sodipodi:nodetypes="ccsccscsccc"
       inkscape:connector-curvature="0"
       d="m 333,369.5 c 0,0 0,-9.66667 0,-59.5 -2.5e-4,-3.38773 -1.38798,-6.75488 -3.77478,-9.15903 -2.38681,-2.40414 -5.74383,-3.8162 -9.13147,-3.84097 l -180,-0.5 c -3.42945,-0.0665 -6.86472,1.29117 -9.32218,3.68415 -2.45747,2.39299 -3.90594,5.79095 -3.93068,9.22095 -0.0247,3.43001 1.37458,6.8485 3.79728,9.27668 2.4227,2.42818 5.83803,3.83521 9.26808,3.81822 L 306,322.90625 306,369.5"
       style="font-size:medium;font-style:normal;font-variant:normal;font-weight:normal;font-stretch:normal;text-indent:0;text-align:start;text-decoration:none;line-height:normal;letter-spacing:normal;word-spacing:normal;text-transform:none;direction:ltr;block-progression:tb;writing-mode:lr-tb;text-anchor:start;baseline-shift:baseline;color:#000000;fill:#ffffff;fill-opacity:1;stroke:none;stroke-width:1;marker:none;visibility:visible;display:inline;overflow:visible;enable-background:accumulate;font-family:Sans;-inkscape-font-specification:Sans"
       id="path4576" />
    <path
       id="path3678"
       style="font-size:medium;font-style:normal;font-variant:normal;font-weight:normal;font-stretch:normal;text-indent:0;text-align:start;text-decoration:none;line-height:normal;letter-spacing:normal;word-spacing:normal;text-transform:none;direction:ltr;block-progression:tb;writing-mode:lr-tb;text-anchor:start;baseline-shift:baseline;color:#000000;fill:none;stroke:#000000;stroke-width:1;stroke-miterlimit:4;stroke-dasharray:none;marker:none;visibility:visible;display:inline;overflow:visible;enable-background:accumulate;font-family:Sans;-inkscape-font-specification:Sans"
       d="m 333,369.5 c 0,0 0,-9.66667 0,-59.5 -2.5e-4,-3.38773 -1.38798,-6.75488 -3.77478,-9.15903 -2.38681,-2.40414 -5.74383,-3.8162 -9.13147,-3.84097 l -180,-0.5 c -3.42945,-0.0665 -6.86472,1.29117 -9.32218,3.68415 -2.45747,2.39299 -3.90594,5.79095 -3.93068,9.22095 -0.0247,3.43001 1.37458,6.8485 3.79728,9.27668 2.4227,2.42818 5.83803,3.83521 9.26808,3.81822 L 306,322.90625 306,343.5"
       inkscape:connector-curvature="0"
       sodipodi:nodetypes="ccsccscsccc" />
  </g>
</svg>
