<?xml version="1.0" encoding="UTF-8" standalone="no"?>
<!-- Created with Inkscape (http://www.inkscape.org/) -->
<svg
   xmlns:dc="http://purl.org/dc/elements/1.1/"
   xmlns:cc="http://creativecommons.org/ns#"
   xmlns:rdf="http://www.w3.org/1999/02/22-rdf-syntax-ns#"
   xmlns:svg="http://www.w3.org/2000/svg"
   xmlns="http://www.w3.org/2000/svg"
   xmlns:sodipodi="http://sodipodi.sourceforge.net/DTD/sodipodi-0.dtd"
   xmlns:inkscape="http://www.inkscape.org/namespaces/inkscape"
   style="display:inline"
   sodipodi:docname="21812A308AFC42-R+_00_00_CW_00_.svg"
   inkscape:version="0.48.3.1 r9886"
   version="1.1"
   id="svg2902"
   height="400"
   width="400">
  
  <g
     inkscape:groupmode="layer"
     id="layer5"
     inkscape:label="RB-002"
     style="display:inline">
    <path
       style="font-size:medium;font-style:normal;font-variant:normal;font-weight:normal;font-stretch:normal;text-indent:0;text-align:start;text-decoration:none;line-height:normal;letter-spacing:normal;word-spacing:normal;text-transform:none;direction:ltr;block-progression:tb;writing-mode:lr-tb;text-anchor:start;baseline-shift:baseline;color:#000000;fill:#000000;fill-opacity:1;stroke:none;stroke-width:40;marker:none;visibility:visible;display:inline;overflow:visible;enable-background:accumulate;font-family:Sans;-inkscape-font-specification:Sans"
       d="M 320,359.5 320,90 c 0.0751,-5.335015 -2.09166,-10.666231 -5.86736,-14.436125 -3.7757,-3.769894 -9.11025,-5.92848 -14.44514,-5.845125 -5.23073,0.08174 -10.39577,2.313976 -14.03956,6.067653 C 282.00416,79.540081 279.92633,84.769145 280,90 l 0,269.5"
       id="path4475-7"
       inkscape:connector-curvature="0"
       sodipodi:nodetypes="ccssscc" />
    <path
       style="font-size:medium;font-style:normal;font-variant:normal;font-weight:normal;font-stretch:normal;text-indent:0;text-align:start;text-decoration:none;line-height:normal;letter-spacing:normal;word-spacing:normal;text-transform:none;direction:ltr;block-progression:tb;writing-mode:lr-tb;text-anchor:start;baseline-shift:baseline;color:#000000;fill:#000000;fill-opacity:1;stroke:none;stroke-width:40;marker:none;visibility:visible;display:inline;overflow:visible;enable-background:accumulate;font-family:Sans;-inkscape-font-specification:Sans"
       d="M 340,359.5 340,90.28125 340,90 339.9687,90 C 340.0466,79.172675 335.92198,69.066431 328.25,61.40625 320.51015,53.678299 310.31104,49.54788 299.375,49.71875 288.66196,49.886161 278.77533,54.155856 271.3125,61.84375 263.91647,69.462847 259.955,79.394936 260.03125,90 L 260,90 260,90.28125 260,359.5 z"
       id="path4698"
       inkscape:connector-curvature="0"
       sodipodi:nodetypes="ccccsssccccc" />
    <path
       sodipodi:nodetypes="ccccsssccccc"
       inkscape:connector-curvature="0"
       id="path4709"
       d="M 340,359.5 340,90.28125 340,90 339.9687,90 C 340.0466,79.172675 335.92198,69.066431 328.25,61.40625 320.51015,53.678299 310.31104,49.54788 299.375,49.71875 288.66196,49.886161 278.77533,54.155856 271.3125,61.84375 263.91647,69.462847 259.955,79.394936 260.03125,90 L 260,90 260,90.28125 260,359.5 z"
       style="font-size:medium;font-style:normal;font-variant:normal;font-weight:normal;font-stretch:normal;text-indent:0;text-align:start;text-decoration:none;line-height:normal;letter-spacing:normal;word-spacing:normal;text-transform:none;direction:ltr;block-progression:tb;writing-mode:lr-tb;text-anchor:start;baseline-shift:baseline;color:#000000;fill:none;stroke:#000000;stroke-width:1;stroke-miterlimit:4;stroke-dasharray:none;marker:none;visibility:visible;display:inline;overflow:visible;enable-background:accumulate;font-family:Sans;-inkscape-font-specification:Sans" />
  </g>
  <g
     style="display:inline"
     inkscape:label="L-002"
     id="g4711"
     inkscape:groupmode="layer">
    <path
       id="path4742"
       style="color:#000000;fill:#ffffff;stroke:none;stroke-width:1.00000036px;marker:none;visibility:visible;display:inline;overflow:visible;enable-background:accumulate"
       d="m 93,359.49977 0,10.00023 -26,0 0,-10.00023 z"
       inkscape:connector-curvature="0"
       sodipodi:nodetypes="ccccc" />
    <path
       style="color:#000000;fill:#ffffff;fill-opacity:1;fill-rule:nonzero;stroke:#000000;stroke-width:1;stroke-linecap:butt;stroke-linejoin:round;stroke-miterlimit:4;stroke-opacity:1;stroke-dashoffset:0;marker:none;visibility:visible;display:inline;overflow:visible;enable-background:accumulate"
       d="m 61.460455,359.47887 c 0,-10.2391 8.300437,-18.53954 18.539545,-18.53954 10.239108,0 18.539545,8.30044 18.539545,18.53954"
       id="path4717"
       inkscape:connector-curvature="0"
       sodipodi:nodetypes="csc" />
    <path
       inkscape:connector-curvature="0"
       d="m 93,369.5 0,-10.00023 M 67,369.5 67,359.49977"
       style="color:#000000;fill:none;stroke:#000000;stroke-width:1.00000036px;stroke-linecap:square;stroke-linejoin:miter;stroke-miterlimit:4;stroke-opacity:1;stroke-dasharray:none;stroke-dashoffset:0;marker:none;visibility:visible;display:inline;overflow:visible;enable-background:accumulate"
       id="path4719" />
    <path
       sodipodi:type="arc"
       style="color:#000000;fill:#ffffff;fill-opacity:1;fill-rule:nonzero;stroke:#000000;stroke-width:1;stroke-linecap:butt;stroke-linejoin:round;stroke-miterlimit:4;stroke-opacity:1;stroke-dasharray:none;stroke-dashoffset:0;marker:none;visibility:visible;display:inline;overflow:visible;enable-background:accumulate"
       id="path4567-9"
       sodipodi:cx="66.383537"
       sodipodi:cy="240.32069"
       sodipodi:rx="18.539545"
       sodipodi:ry="18.539545"
       d="m 84.923082,240.32069 a 18.539545,18.539545 0 1 1 -37.07909,0 18.539545,18.539545 0 1 1 37.07909,0 z"
       transform="translate(13.616463,54.158183)" />
    <path
       transform="translate(13.616463,-21.841817)"
       d="m 84.923082,240.32069 a 18.539545,18.539545 0 1 1 -37.07909,0 18.539545,18.539545 0 1 1 37.07909,0 z"
       sodipodi:ry="18.539545"
       sodipodi:rx="18.539545"
       sodipodi:cy="240.32069"
       sodipodi:cx="66.383537"
       id="path4740"
       style="color:#000000;fill:#ffffff;fill-opacity:1;fill-rule:nonzero;stroke:#000000;stroke-width:1;stroke-linecap:butt;stroke-linejoin:round;stroke-miterlimit:4;stroke-opacity:1;stroke-dasharray:none;stroke-dashoffset:0;marker:none;visibility:visible;display:inline;overflow:visible;enable-background:accumulate"
       sodipodi:type="arc" />
  </g>
  <g
     inkscape:groupmode="layer"
     id="layer1"
     inkscape:label="BL-001"
     style="display:inline"
     sodipodi:insensitive="true">
    <path
       style="color:#000000;fill:none;stroke:#000000;stroke-width:1.00000036px;stroke-linecap:square;stroke-linejoin:miter;stroke-miterlimit:4;stroke-opacity:1;stroke-dasharray:none;stroke-dashoffset:0;marker:none;visibility:visible;display:inline;overflow:visible;enable-background:accumulate"
       d="m 30.5,359.5 350.00023,0"
       id="path4557"
       inkscape:connector-curvature="0"
       sodipodi:nodetypes="cc" />
  </g>
  <g
     inkscape:groupmode="layer"
     id="layer4"
     inkscape:label="RA-001"
     style="display:inline">
    <path
       sodipodi:nodetypes="ccsccsssccc"
       inkscape:connector-curvature="0"
       id="path4555"
       d="M 333,369.5 333,220 c -2.5e-4,-3.38773 -1.38798,-6.75488 -3.77478,-9.15903 -2.38681,-2.40414 -5.74383,-3.8162 -9.13147,-3.84097 l -70,-0.5 c -3.42945,-0.0665 -6.86472,1.29117 -9.32218,3.68415 -2.45747,2.39299 -3.90594,5.79095 -3.93068,9.22095 -0.0247,3.43001 1.37458,6.8485 3.79728,9.27668 2.4227,2.42818 5.83803,3.83521 9.26808,3.81822 L 307,232.90625 307,369.5"
       style="font-size:medium;font-style:normal;font-variant:normal;font-weight:normal;font-stretch:normal;text-indent:0;text-align:start;text-decoration:none;line-height:normal;letter-spacing:normal;word-spacing:normal;text-transform:none;direction:ltr;block-progression:tb;writing-mode:lr-tb;text-anchor:start;baseline-shift:baseline;color:#000000;fill:#ffffff;fill-opacity:1;stroke:none;stroke-width:1;marker:none;visibility:visible;display:inline;overflow:visible;enable-background:accumulate;font-family:Sans;-inkscape-font-specification:Sans" />
    <path
       style="font-size:medium;font-style:normal;font-variant:normal;font-weight:normal;font-stretch:normal;text-indent:0;text-align:start;text-decoration:none;line-height:normal;letter-spacing:normal;word-spacing:normal;text-transform:none;direction:ltr;block-progression:tb;writing-mode:lr-tb;text-anchor:start;baseline-shift:baseline;color:#000000;fill:none;stroke:#000000;stroke-width:1;stroke-miterlimit:4;stroke-dasharray:none;marker:none;visibility:visible;display:inline;overflow:visible;enable-background:accumulate;font-family:Sans;-inkscape-font-specification:Sans"
       d="M 333,369.5 333,220 c -2.5e-4,-3.38773 -1.38798,-6.75488 -3.77478,-9.15903 -2.38681,-2.40414 -5.74383,-3.8162 -9.13147,-3.84097 l -70,-0.5 c -3.42945,-0.0665 -6.86472,1.29117 -9.32218,3.68415 -2.45747,2.39299 -3.90594,5.79095 -3.93068,9.22095 -0.0247,3.43001 1.37458,6.8485 3.79728,9.27668 2.4227,2.42818 5.83803,3.83521 9.26808,3.81822 L 307,232.90625 307,369.5"
       id="path4559"
       inkscape:connector-curvature="0"
       sodipodi:nodetypes="ccsccsssccc" />
  </g>
</svg>
