<?xml version="1.0" encoding="UTF-8" standalone="no"?>
<!-- Created with Inkscape (http://www.inkscape.org/) -->
<svg
   xmlns:dc="http://purl.org/dc/elements/1.1/"
   xmlns:cc="http://creativecommons.org/ns#"
   xmlns:rdf="http://www.w3.org/1999/02/22-rdf-syntax-ns#"
   xmlns:svg="http://www.w3.org/2000/svg"
   xmlns="http://www.w3.org/2000/svg"
   xmlns:sodipodi="http://sodipodi.sourceforge.net/DTD/sodipodi-0.dtd"
   xmlns:inkscape="http://www.inkscape.org/namespaces/inkscape"
   style="display:inline"
   sodipodi:docname="2AFDE67CDCAE63-R+_CB_CB_CB_CB_.svg"
   inkscape:version="0.48.3.1 r9886"
   version="1.1"
   id="svg2902"
   height="400"
   width="400">
  
  <g
     style="display:inline"
     inkscape:label="ELEMENT-001"
     id="element"
     inkscape:groupmode="layer">
    <path
       id="C-left-2-7-6"
       style="color:#000000;fill:#000000;stroke:none;stroke-width:1.00000036px;marker:none;visibility:visible;display:inline;overflow:visible;enable-background:accumulate"
       d="m 30.5,67 10.00023,0 C 61.976878,67 67,57.571754 67,40.500237 L 67,30.5 l 26,0 0,10.000237 C 93,72.122749 68.886616,93 40.50023,93 L 30.5,93 z"
       inkscape:connector-curvature="0"
       sodipodi:nodetypes="cssccsscc" />
    <path
       id="C-left-4-5-5"
       style="color:#000000;fill:#000000;stroke:none;stroke-width:1.00000036px;marker:none;visibility:visible;display:inline;overflow:visible;enable-background:accumulate"
       d="m 93,369.5 0,-10.00023 C 93,336.07427 85.872913,307 40.50023,307 L 30.5,307 l 0,26 10.00023,0 C 64.257166,333 67,346.65802 67,359.49977 L 67,369.5 z"
       inkscape:connector-curvature="0"
       sodipodi:nodetypes="cssccsscc" />
    <path
       id="C-bottom-4-7-6"
       style="color:#000000;fill:#000000;stroke:none;stroke-width:1.00000036px;marker:none;visibility:visible;display:inline;overflow:visible;enable-background:accumulate"
       d="m 333,369.5 0,-10.00023 C 333,340.26669 347.80524,333 359.49977,333 l 10.00023,0 0,-26 -10.00023,0 C 331.55758,307 307,325.43177 307,359.49977 L 307,369.5 z"
       inkscape:connector-curvature="0"
       sodipodi:nodetypes="cssccsscc" />
    <path
       id="C-right-2-0-4"
       style="color:#000000;fill:#000000;stroke:none;stroke-width:1.00000036px;marker:none;visibility:visible;display:inline;overflow:visible;enable-background:accumulate"
       d="m 369.5,93 -10.00023,0 C 327.74491,93 307,73.843834 307,40.500237 L 307,30.5 l 26,0 0,10.000237 C 333,53.873442 342.40329,67 359.49977,67 L 369.5,67 z"
       inkscape:connector-curvature="0"
       sodipodi:nodetypes="cssccsscc" />
    <path
       id="C-right-1-6"
       style="color:#000000;fill:none;stroke:#000000;stroke-width:1.00000036px;stroke-linecap:square;stroke-linejoin:miter;stroke-miterlimit:4;stroke-opacity:1;stroke-dasharray:none;stroke-dashoffset:0;marker:none;visibility:visible;display:inline;overflow:visible;enable-background:accumulate"
       d="m 369.5,67 -10.00023,0 C 342.40329,67 333,53.873442 333,40.500237 L 333,30.5"
       inkscape:connector-curvature="0"
       sodipodi:nodetypes="cccc" />
    <path
       id="C-right-2-0"
       style="color:#000000;fill:none;stroke:#000000;stroke-width:1.00000036px;stroke-linecap:square;stroke-linejoin:miter;stroke-miterlimit:4;stroke-opacity:1;stroke-dasharray:none;stroke-dashoffset:0;marker:none;visibility:visible;display:inline;overflow:visible;enable-background:accumulate"
       d="m 369.5,93 -10.00023,0 C 327.74491,93 307,73.843834 307,40.500237 L 307,30.5"
       inkscape:connector-curvature="0"
       sodipodi:nodetypes="cccc" />
    <path
       id="C-bottom-3-3"
       style="color:#000000;fill:none;stroke:#000000;stroke-width:1.00000036px;stroke-linecap:square;stroke-linejoin:miter;stroke-miterlimit:4;stroke-opacity:1;stroke-dasharray:none;stroke-dashoffset:0;marker:none;visibility:visible;display:inline;overflow:visible;enable-background:accumulate"
       d="m 369.5,307 -10.00023,0 C 331.55758,307 307,325.43177 307,359.49977 L 307,369.5"
       inkscape:connector-curvature="0"
       sodipodi:nodetypes="cccc" />
    <path
       id="C-bottom-4-7"
       style="color:#000000;fill:none;stroke:#000000;stroke-width:1.00000036px;stroke-linecap:square;stroke-linejoin:miter;stroke-miterlimit:4;stroke-opacity:1;stroke-dasharray:none;stroke-dashoffset:0;marker:none;visibility:visible;display:inline;overflow:visible;enable-background:accumulate"
       d="m 369.5,333 -10.00023,0 C 347.80524,333 333,340.26669 333,359.49977 L 333,369.5"
       inkscape:connector-curvature="0"
       sodipodi:nodetypes="cccc" />
    <path
       id="C-left-1-2"
       style="color:#000000;fill:none;stroke:#000000;stroke-width:1.00000036px;stroke-linecap:square;stroke-linejoin:miter;stroke-miterlimit:4;stroke-opacity:1;stroke-dasharray:none;stroke-dashoffset:0;marker:none;visibility:visible;display:inline;overflow:visible;enable-background:accumulate"
       d="m 67,30.5 0,10.000237 C 67,57.571754 61.976878,67 40.50023,67 L 30.5,67"
       inkscape:connector-curvature="0"
       sodipodi:nodetypes="cccc" />
    <path
       id="C-left-2-7"
       style="color:#000000;fill:none;stroke:#000000;stroke-width:1.00000036px;stroke-linecap:square;stroke-linejoin:miter;stroke-miterlimit:4;stroke-opacity:1;stroke-dasharray:none;stroke-dashoffset:0;marker:none;visibility:visible;display:inline;overflow:visible;enable-background:accumulate"
       d="m 93,30.5 0,10.000237 C 93,72.122749 68.886616,93 40.50023,93 L 30.5,93"
       inkscape:connector-curvature="0"
       sodipodi:nodetypes="cccc" />
    <path
       id="C-left-3-0"
       style="color:#000000;fill:none;stroke:#000000;stroke-width:1.00000036px;stroke-linecap:square;stroke-linejoin:miter;stroke-miterlimit:4;stroke-opacity:1;stroke-dasharray:none;stroke-dashoffset:0;marker:none;visibility:visible;display:inline;overflow:visible;enable-background:accumulate"
       d="m 93,369.5 0,-10.00023 C 93,336.07427 85.872913,307 40.50023,307 L 30.5,307"
       inkscape:connector-curvature="0"
       sodipodi:nodetypes="cccc" />
    <path
       id="C-left-4-5"
       style="color:#000000;fill:none;stroke:#000000;stroke-width:1.00000036px;stroke-linecap:square;stroke-linejoin:miter;stroke-miterlimit:4;stroke-opacity:1;stroke-dasharray:none;stroke-dashoffset:0;marker:none;visibility:visible;display:inline;overflow:visible;enable-background:accumulate"
       d="m 30.5,333 10.00023,0 C 64.257166,333 67,346.65802 67,359.49977 L 67,369.5"
       inkscape:connector-curvature="0"
       sodipodi:nodetypes="cccc" />
  </g>
</svg>
