<?xml version="1.0" encoding="UTF-8" standalone="no"?>
<!-- Created with Inkscape (http://www.inkscape.org/) -->
<svg
   xmlns:dc="http://purl.org/dc/elements/1.1/"
   xmlns:cc="http://creativecommons.org/ns#"
   xmlns:rdf="http://www.w3.org/1999/02/22-rdf-syntax-ns#"
   xmlns:svg="http://www.w3.org/2000/svg"
   xmlns="http://www.w3.org/2000/svg"
   xmlns:sodipodi="http://sodipodi.sourceforge.net/DTD/sodipodi-0.dtd"
   xmlns:inkscape="http://www.inkscape.org/namespaces/inkscape"
   style="display:inline"
   sodipodi:docname="33654E8F96A074-R+_0_II_II_00_.svg"
   inkscape:version="0.48.3.1 r9886"
   version="1.1"
   id="svg2902"
   height="400"
   width="400">
  
  <g
     style="display:inline"
     inkscape:label="ELEMENT-003"
     id="g4389"
     inkscape:groupmode="layer">
    <path
       id="path4395"
       style="color:#000000;fill:#ffffff;stroke:none;stroke-width:1;marker:none;visibility:visible;display:inline;overflow:visible;enable-background:accumulate"
       d="m 287,342 0,-199.49732 c 0,-9.60365 -7.71413,-17.33512 -17.29625,-17.33512 l -52.4075,0 C 207.71413,125.16756 200,132.89903 200,142.50268 L 200,342 z"
       inkscape:connector-curvature="0"
       sodipodi:nodetypes="csssccc" />
    <path
       sodipodi:nodetypes="csssssccc"
       inkscape:connector-curvature="0"
       d="m 306.70375,359.16756 -2.4075,0 C 294.71413,359.16756 287,351.4361 287,341.83245 l 0,-199.32977 c 0,-9.60365 -7.71413,-17.33512 -17.29625,-17.33512 l -52.4075,0 c -9.58212,0 -17.29625,7.73147 -17.29625,17.33512 l 0,216.99708 0,10.00024"
       style="color:#000000;fill:none;stroke:#000000;stroke-width:1;marker:none;visibility:visible;display:inline;overflow:visible;enable-background:accumulate"
       id="path4397" />
    <path
       sodipodi:nodetypes="csssscc"
       inkscape:connector-curvature="0"
       d="m 306,200 -179.70375,0 C 116.71413,200 109,207.73147 109,217.33512 l 0,2.49733 c 0,9.60365 7.71413,17.33511 17.29625,17.33511 l 179.70375,0 z"
       style="color:#000000;fill:#ffffff;stroke:none;stroke-width:1;marker:none;visibility:visible;display:inline;overflow:visible;enable-background:accumulate"
       id="path4391" />
    <path
       id="path4393"
       style="color:#000000;fill:none;stroke:#000000;stroke-width:1;marker:none;visibility:visible;display:inline;overflow:visible;enable-background:accumulate"
       d="m 369.5,200 -10.00024,0 -233.20351,0 C 116.71413,200 109,207.73147 109,217.33512 l 0,2.49733 c 0,9.60365 7.71413,17.33511 17.29625,17.33511 l 180.4075,0 c 9.58212,0 17.29625,7.73147 17.29625,17.33512 l 0,87.32977 c 0,9.60365 -7.71413,17.33511 -17.29625,17.33511 l -2.4075,0"
       inkscape:connector-curvature="0"
       sodipodi:nodetypes="ccssssssssc" />
  </g>
</svg>
