<?xml version="1.0" encoding="UTF-8" standalone="no"?>
<!-- Created with Inkscape (http://www.inkscape.org/) -->
<svg
   xmlns:dc="http://purl.org/dc/elements/1.1/"
   xmlns:cc="http://creativecommons.org/ns#"
   xmlns:rdf="http://www.w3.org/1999/02/22-rdf-syntax-ns#"
   xmlns:svg="http://www.w3.org/2000/svg"
   xmlns="http://www.w3.org/2000/svg"
   xmlns:sodipodi="http://sodipodi.sourceforge.net/DTD/sodipodi-0.dtd"
   xmlns:inkscape="http://www.inkscape.org/namespaces/inkscape"
   style="display:inline"
   sodipodi:docname="33651F52ACF37C-R+_UB_II_UB_00_.svg"
   inkscape:version="0.48.3.1 r9886"
   version="1.1"
   id="svg2902"
   height="400"
   width="400">
  
  <g
     inkscape:groupmode="layer"
     id="layer1"
     inkscape:label="VERT-001"
     style="display:inline">
    <path
       d="M 67,369.5 67,349.49977 67,50.500237 67,30.5 l 266,0 0,10.000237 0,309.999763 0,19 z"
       style="color:#000000;fill:#000000;stroke:none;stroke-width:1.00000036000000003px;marker:none;visibility:visible;display:inline;overflow:visible;enable-background:accumulate"
       id="path3601"
       inkscape:connector-curvature="0"
       sodipodi:nodetypes="ccccccccc" />
    <path
       id="C-top-4-2"
       style="color:#000000;fill:none;stroke:#000000;stroke-width:1.00000036px;stroke-linecap:square;stroke-linejoin:miter;stroke-miterlimit:4;stroke-opacity:1;stroke-dasharray:none;stroke-dashoffset:0;marker:none;visibility:visible;display:inline;overflow:visible;enable-background:accumulate"
       d="m 333,190.5 0,179 M 67,30.5 67,50.500237 67,349.49977 67,369.5"
       inkscape:connector-curvature="0"
       sodipodi:nodetypes="cccccc" />
  </g>
  <g
     inkscape:label="BEULE-002"
     id="g4275"
     inkscape:groupmode="layer"
     style="display:inline"
     sodipodi:insensitive="true">
    <path
       id="path3605"
       style="color:#000000;fill:#ffffff;stroke:none;stroke-width:1;marker:none;visibility:visible;display:inline;overflow:visible;enable-background:accumulate"
       d="m 369.5,200 -10.00024,0 -327.97317,0 c -11.08,0 -20,-8.92 -20,-20 l 0,-86 c 0,-11.08 8.92,-20 20,-20 L 313,74 c 11.08,0 20,-8.92 20,-20 L 333,40.500237 369,40.5"
       inkscape:connector-curvature="0"
       sodipodi:nodetypes="cccssssscc" />
    <path
       sodipodi:nodetypes="cccssssscc"
       inkscape:connector-curvature="0"
       d="m 369.5,200 -10.00024,0 -327.97317,0 c -11.08,0 -20,-8.92 -20,-20 l 0,-86 c 0,-11.08 8.92,-20 20,-20 L 313,74 c 11.08,0 20,-8.92 20,-20 L 333,40.500237 333,30.5"
       style="color:#000000;fill:none;stroke:#000000;stroke-width:1;stroke-linecap:butt;stroke-linejoin:miter;stroke-miterlimit:4;stroke-opacity:1;stroke-dashoffset:0;marker:none;visibility:visible;display:inline;overflow:visible;enable-background:accumulate"
       id="path4277" />
  </g>
</svg>
