<?xml version="1.0" encoding="UTF-8" standalone="no"?>
<!-- Created with Inkscape (http://www.inkscape.org/) -->
<svg
   xmlns:dc="http://purl.org/dc/elements/1.1/"
   xmlns:cc="http://creativecommons.org/ns#"
   xmlns:rdf="http://www.w3.org/1999/02/22-rdf-syntax-ns#"
   xmlns:svg="http://www.w3.org/2000/svg"
   xmlns="http://www.w3.org/2000/svg"
   xmlns:sodipodi="http://sodipodi.sourceforge.net/DTD/sodipodi-0.dtd"
   xmlns:inkscape="http://www.inkscape.org/namespaces/inkscape"
   style="display:inline"
   sodipodi:docname="352EAFDC106791-R+_SW_00_00_SW_.svg"
   inkscape:version="0.48.3.1 r9886"
   version="1.1"
   id="svg2902"
   height="400"
   width="400">
  
  <g
     style="display:inline"
     inkscape:label="E-006"
     id="g4373"
     inkscape:groupmode="layer">
    <path
       style="font-size:medium;font-style:normal;font-variant:normal;font-weight:normal;font-stretch:normal;text-indent:0;text-align:start;text-decoration:none;line-height:normal;letter-spacing:normal;word-spacing:normal;text-transform:none;direction:ltr;block-progression:tb;writing-mode:lr-tb;text-anchor:start;baseline-shift:baseline;color:#000000;fill:#ffffff;fill-opacity:1;stroke:none;stroke-width:20;marker:none;visibility:visible;display:inline;overflow:visible;enable-background:accumulate;font-family:Sans;-inkscape-font-specification:Sans"
       d="m 190,30.5 0,114 c 0,53.32996 29.60834,93.36585 50.34375,122.9375 10.3677,14.78582 18.32176,27.34545 20.25,35.46875 0.96412,4.06165 0.75015,6.62255 -0.4375,9.21875 -1.18765,2.5962 -3.79356,5.73968 -9.53125,9.28125 -5.11563,3.15761 -7.90717,3.30504 -10.5,2.6875 -2.59283,-0.61754 -5.85951,-2.68189 -9.65625,-7.0625 C 222.87526,308.27004 214.66226,291.38582 205.75,273 196.83774,254.61418 186.98538,234.62867 173.46875,218.53125 159.95212,202.43383 141.71513,190 118.5,190 l -88,0 0,20 88,0 c 16.348,0 28.37714,7.94232 39.65625,21.375 11.27911,13.43268 20.75746,32.11465 29.59375,50.34375 8.83629,18.2291 16.76567,35.91303 27.59375,48.40625 5.41404,6.24661 11.92251,11.47644 20.15625,13.4375 8.23374,1.96106 17.33323,-0.0382 25.625,-5.15625 7.99407,-4.93431 13.95237,-10.82845 17.21875,-17.96875 3.26638,-7.1403 3.38671,-14.99782 1.6875,-22.15625 -3.39842,-14.31686 -12.84623,-27.3861 -23.3125,-42.3125 C 235.7862,226.11595 210,190.38488 210,144.5 l 0,-114 -20,0 z"
       id="path4375"
       inkscape:connector-curvature="0" />
    <path
       inkscape:connector-curvature="0"
       id="path4381"
       d="m 30.5,210 88,0 c 16.348,0 28.37714,7.94232 39.65625,21.375 11.27911,13.43268 20.75746,32.11465 29.59375,50.34375 8.83629,18.2291 16.76567,35.91303 27.59375,48.40625 5.41404,6.24661 11.92251,11.47644 20.15625,13.4375 8.23374,1.96106 17.33323,-0.0382 25.625,-5.15625 7.99407,-4.93431 13.95237,-10.82845 17.21875,-17.96875 3.26638,-7.1403 3.38671,-14.99782 1.6875,-22.15625 -3.39842,-14.31686 -12.84623,-27.3861 -23.3125,-42.3125 C 235.7862,226.11595 210,190.38488 210,144.5 l 0,-114 m -20,0 0,114 c 0,53.32996 29.60834,93.36585 50.34375,122.9375 10.3677,14.78582 18.32176,27.34545 20.25,35.46875 0.96412,4.06165 0.75015,6.62255 -0.4375,9.21875 -1.18765,2.5962 -3.79356,5.73968 -9.53125,9.28125 -5.11563,3.15761 -7.90717,3.30504 -10.5,2.6875 -2.59283,-0.61754 -5.85951,-2.68189 -9.65625,-7.0625 C 222.87526,308.27004 214.66226,291.38582 205.75,273 196.83774,254.61418 186.98538,234.62867 173.46875,218.53125 159.95212,202.43383 141.71513,190 118.5,190 l -88,0"
       style="font-size:medium;font-style:normal;font-variant:normal;font-weight:normal;font-stretch:normal;text-indent:0;text-align:start;text-decoration:none;line-height:normal;letter-spacing:normal;word-spacing:normal;text-transform:none;direction:ltr;block-progression:tb;writing-mode:lr-tb;text-anchor:start;baseline-shift:baseline;color:#000000;fill:none;stroke:#000000;stroke-width:1;stroke-miterlimit:4;stroke-dasharray:none;marker:none;visibility:visible;display:inline;overflow:visible;enable-background:accumulate;font-family:Sans;-inkscape-font-specification:Sans"
       sodipodi:nodetypes="cssssssssssccssssssssssc" />
  </g>
</svg>
