<?xml version="1.0" encoding="UTF-8" standalone="no"?>
<!-- Created with Inkscape (http://www.inkscape.org/) -->
<svg
   xmlns:dc="http://purl.org/dc/elements/1.1/"
   xmlns:cc="http://creativecommons.org/ns#"
   xmlns:rdf="http://www.w3.org/1999/02/22-rdf-syntax-ns#"
   xmlns:svg="http://www.w3.org/2000/svg"
   xmlns="http://www.w3.org/2000/svg"
   xmlns:sodipodi="http://sodipodi.sourceforge.net/DTD/sodipodi-0.dtd"
   xmlns:inkscape="http://www.inkscape.org/namespaces/inkscape"
   style="display:inline"
   sodipodi:docname="352EAFDCD74BAC-R+_SW_00_00_SW_.svg"
   inkscape:version="0.48.3.1 r9886"
   version="1.1"
   id="svg2902"
   height="400"
   width="400">
  
  <g
     inkscape:label="E-003"
     id="g4380"
     inkscape:groupmode="layer"
     style="display:inline">
    <path
       style="font-size:medium;font-style:normal;font-variant:normal;font-weight:normal;font-stretch:normal;text-indent:0;text-align:start;text-decoration:none;line-height:normal;letter-spacing:normal;word-spacing:normal;text-transform:none;direction:ltr;block-progression:tb;writing-mode:lr-tb;text-anchor:start;baseline-shift:baseline;color:#000000;fill:#ffffff;fill-opacity:1;stroke:none;stroke-width:20;marker:none;visibility:visible;display:inline;overflow:visible;enable-background:accumulate;font-family:Sans;-inkscape-font-specification:Sans"
       d="m 190,30.5 0,34 c 0,38.36813 2.51418,58.38176 12.3125,70.78125 4.89916,6.19975 13.68763,9.21382 20.5625,7.8125 6.87487,-1.40132 12.09455,-5.15455 17.125,-9.375 10.0609,-8.4409 19.38702,-20.02292 26.78125,-27.5 1.77715,-1.79706 3.48599,-3.29548 4.875,-4.4375 12.08419,22.49263 17.78929,54.52048 14.71875,84.1875 -3.26686,31.56387 -16.07876,59.48299 -37.40625,72.40625 -11.74099,7.11438 -20.60914,7.01571 -31.65625,3.0625 -11.04711,-3.95321 -23.61726,-12.77602 -37.65625,-23.21875 C 151.57828,217.33329 116.88777,190 68.5,190 l -38,0 0,20 38,0 c 40.84006,0 70.84908,23.17881 99.21875,44.28125 14.18484,10.55122 27.75165,20.59929 42.84375,26 15.0921,5.40071 32.36279,5.11723 48.75,-4.8125 28.92642,-17.52778 43.25191,-51.82797 46.9375,-87.4375 3.68559,-35.60953 -2.99726,-73.33384 -19.8125,-100.96875 -1.92038,-3.156032 -5.57715,-6.266479 -9.75,-7.125 -4.17285,-0.858521 -7.76167,0.217366 -10.5,1.5 -5.47665,2.565268 -9.34756,6.393387 -13.625,10.71875 -8.55487,8.65073 -17.78389,19.82373 -25.40625,26.21875 -3.81118,3.19751 -7.20292,4.87395 -8.28125,5.09375 -1.07833,0.2198 0.40929,1.03148 -0.875,-0.59375 -2.56858,-3.25046 -8,-21.41332 -8,-58.375 l 0,-34 -20,0 z"
       id="path4382"
       inkscape:connector-curvature="0" />
    <path
       inkscape:connector-curvature="0"
       id="path4388"
       d="m 30.5,210 38,0 c 40.84006,0 70.84908,23.17881 99.21875,44.28125 14.18484,10.55122 27.75165,20.59929 42.84375,26 15.0921,5.40071 32.36279,5.11723 48.75,-4.8125 28.92642,-17.52778 43.25191,-51.82797 46.9375,-87.4375 3.68559,-35.60953 -2.99726,-73.33384 -19.8125,-100.96875 -1.92038,-3.156032 -5.57715,-6.266479 -9.75,-7.125 -4.17285,-0.858521 -7.76167,0.217366 -10.5,1.5 -5.47665,2.565268 -9.34756,6.393387 -13.625,10.71875 -8.55487,8.65073 -17.78389,19.82373 -25.40625,26.21875 -3.81118,3.19751 -7.20292,4.87395 -8.28125,5.09375 -1.07833,0.2198 0.40929,1.03148 -0.875,-0.59375 -2.56858,-3.25046 -8,-21.41332 -8,-58.375 l 0,-34 m -20,0 0,34 c 0,38.36813 2.51418,58.38176 12.3125,70.78125 4.89916,6.19975 13.68763,9.21382 20.5625,7.8125 6.87487,-1.40132 12.09455,-5.15455 17.125,-9.375 10.0609,-8.4409 19.38702,-20.02292 26.78125,-27.5 1.77715,-1.79706 3.48599,-3.29548 4.875,-4.4375 12.08419,22.49263 17.78929,54.52048 14.71875,84.1875 -3.26686,31.56387 -16.07876,59.48299 -37.40625,72.40625 -11.74099,7.11438 -20.60914,7.01571 -31.65625,3.0625 -11.04711,-3.95321 -23.61726,-12.77602 -37.65625,-23.21875 C 151.57828,217.33329 116.88777,190 68.5,190 l -38,0"
       style="font-size:medium;font-style:normal;font-variant:normal;font-weight:normal;font-stretch:normal;text-indent:0;text-align:start;text-decoration:none;line-height:normal;letter-spacing:normal;word-spacing:normal;text-transform:none;direction:ltr;block-progression:tb;writing-mode:lr-tb;text-anchor:start;baseline-shift:baseline;color:#000000;fill:none;stroke:#000000;stroke-width:1;stroke-linecap:square;stroke-miterlimit:4;stroke-dasharray:none;marker:none;visibility:visible;display:inline;overflow:visible;enable-background:accumulate;font-family:Sans;-inkscape-font-specification:Sans"
       sodipodi:nodetypes="csssssssssssssccssssscsssssc" />
  </g>
</svg>
