<?xml version="1.0" encoding="UTF-8" standalone="no"?>
<!-- Created with Inkscape (http://www.inkscape.org/) -->
<svg
   xmlns:dc="http://purl.org/dc/elements/1.1/"
   xmlns:cc="http://creativecommons.org/ns#"
   xmlns:rdf="http://www.w3.org/1999/02/22-rdf-syntax-ns#"
   xmlns:svg="http://www.w3.org/2000/svg"
   xmlns="http://www.w3.org/2000/svg"
   xmlns:sodipodi="http://sodipodi.sourceforge.net/DTD/sodipodi-0.dtd"
   xmlns:inkscape="http://www.inkscape.org/namespaces/inkscape"
   style="display:inline"
   sodipodi:docname="352EAFDCE703D5-R+_SW_00_00_SW_.svg"
   inkscape:version="0.48.3.1 r9886"
   version="1.1"
   id="svg2902"
   height="400"
   width="400">
  
  <g
     inkscape:groupmode="layer"
     id="g3588"
     inkscape:label="E-005"
     style="display:inline">
    <path
       style="font-size:medium;font-style:normal;font-variant:normal;font-weight:normal;font-stretch:normal;text-indent:0;text-align:start;text-decoration:none;line-height:normal;letter-spacing:normal;word-spacing:normal;text-transform:none;direction:ltr;block-progression:tb;writing-mode:lr-tb;text-anchor:start;baseline-shift:baseline;color:#000000;fill:#ffffff;fill-opacity:1;stroke:none;stroke-width:20;marker:none;visibility:visible;display:inline;overflow:visible;enable-background:accumulate;font-family:Sans;-inkscape-font-specification:Sans"
       d="m 190,30.5 0,34 c 0,34.74144 -5.7355,47.2211 -11.34375,56.46875 -2.80413,4.62383 -6.10679,8.76903 -8.9375,14.71875 -2.83071,5.94972 -4.56344,13.48176 -4.125,22.84375 1.02591,21.90641 17.15063,39.62465 27.96875,55.3125 5.40906,7.84393 9.61545,15.06229 10.96875,20.0625 1.3533,5.00021 1.30844,6.56171 -2.1875,10.0625 -3.55446,3.55939 -6.15266,4.88903 -7.9375,5.34375 -1.78484,0.45472 -3.20561,0.36899 -5.71875,-0.625 -5.02629,-1.98798 -13.08315,-8.7562 -23.03125,-17.4375 C 145.76004,213.8874 116.2416,190 68.5,190 l -38,0 0,20 38,0 c 41.27085,0 64.55232,19.31404 84.03125,36.3125 9.73946,8.49923 18.01768,16.69922 28.8125,20.96875 5.39741,2.13476 11.77305,2.99269 18,1.40625 6.22695,-1.58644 11.85452,-5.2847 17.125,-10.5625 8.15717,-8.16849 9.90801,-19.96301 7.34375,-29.4375 -2.56426,-9.47449 -8.01176,-17.85215 -13.78125,-26.21875 -11.53898,-16.7332 -23.95171,-33.83468 -24.46875,-44.875 -0.3155,-6.73679 0.61096,-9.93317 2.21875,-13.3125 1.60779,-3.37933 4.50916,-7.18132 8,-12.9375 C 202.76293,119.8314 210,101.64646 210,64.5 l 0,-34 -20,0 z"
       id="path3590"
       inkscape:connector-curvature="0" />
    <path
       inkscape:connector-curvature="0"
       id="path4370"
       d="m 30.5,210 38,0 c 41.27085,0 64.55232,19.31404 84.03125,36.3125 9.73946,8.49923 18.01768,16.69922 28.8125,20.96875 5.39741,2.13476 11.77305,2.99269 18,1.40625 6.22695,-1.58644 11.85452,-5.2847 17.125,-10.5625 8.15717,-8.16849 9.90801,-19.96301 7.34375,-29.4375 -2.56426,-9.47449 -8.01176,-17.85215 -13.78125,-26.21875 -11.53898,-16.7332 -23.95171,-33.83468 -24.46875,-44.875 -0.3155,-6.73679 0.61096,-9.93317 2.21875,-13.3125 1.60779,-3.37933 4.50916,-7.18132 8,-12.9375 C 202.76293,119.8314 210,101.64646 210,64.5 l 0,-34 m -20,0 0,34 c 0,34.74144 -5.7355,47.2211 -11.34375,56.46875 -2.80413,4.62383 -6.10679,8.76903 -8.9375,14.71875 -2.83071,5.94972 -4.56344,13.48176 -4.125,22.84375 1.02591,21.90641 17.15063,39.62465 27.96875,55.3125 5.40906,7.84393 9.61545,15.06229 10.96875,20.0625 1.3533,5.00021 1.30844,6.56171 -2.1875,10.0625 -3.55446,3.55939 -6.15266,4.88903 -7.9375,5.34375 -1.78484,0.45472 -3.20561,0.36899 -5.71875,-0.625 -5.02629,-1.98798 -13.08315,-8.7562 -23.03125,-17.4375 C 145.76004,213.8874 116.2416,190 68.5,190 l -38,0"
       style="font-size:medium;font-style:normal;font-variant:normal;font-weight:normal;font-stretch:normal;text-indent:0;text-align:start;text-decoration:none;line-height:normal;letter-spacing:normal;word-spacing:normal;text-transform:none;direction:ltr;block-progression:tb;writing-mode:lr-tb;text-anchor:start;baseline-shift:baseline;color:#000000;fill:none;stroke:#000000;stroke-width:1;stroke-miterlimit:4;stroke-dasharray:none;marker:none;visibility:visible;display:inline;overflow:visible;enable-background:accumulate;font-family:Sans;-inkscape-font-specification:Sans"
       sodipodi:nodetypes="csssssssssssccsssssssssssc" />
  </g>
</svg>
