<?xml version="1.0" encoding="UTF-8" standalone="no"?>
<!-- Created with Inkscape (http://www.inkscape.org/) -->
<svg
   xmlns:dc="http://purl.org/dc/elements/1.1/"
   xmlns:cc="http://creativecommons.org/ns#"
   xmlns:rdf="http://www.w3.org/1999/02/22-rdf-syntax-ns#"
   xmlns:svg="http://www.w3.org/2000/svg"
   xmlns="http://www.w3.org/2000/svg"
   xmlns:sodipodi="http://sodipodi.sourceforge.net/DTD/sodipodi-0.dtd"
   xmlns:inkscape="http://www.inkscape.org/namespaces/inkscape"
   style="display:inline"
   sodipodi:docname="37E02757056A17-R+_SB_00_SB_00_.svg"
   inkscape:version="0.48.3.1 r9886"
   version="1.1"
   id="svg2902"
   height="400"
   width="400">
  
  <g
     style="display:inline"
     inkscape:label="ELEMENT-003"
     id="g4479"
     inkscape:groupmode="layer">
    <path
       id="path4487-4-7"
       style="font-size:medium;font-style:normal;font-variant:normal;font-weight:normal;font-stretch:normal;text-indent:0;text-align:start;text-decoration:none;line-height:normal;letter-spacing:normal;word-spacing:normal;text-transform:none;direction:ltr;block-progression:tb;writing-mode:lr-tb;text-anchor:start;baseline-shift:baseline;color:#000000;fill:#000000;stroke:none;stroke-width:1;marker:none;visibility:visible;display:inline;overflow:visible;enable-background:accumulate;font-family:Sans;-inkscape-font-specification:Sans"
       d="m 185.01461,163.37205 c -0.79886,-0.0598 -1.6061,-0.0905 -2.42086,-0.0908 -16.49011,-0.006 -31.10973,13.26864 -31,30.15627 0.0369,5.68486 1.32114,11.69009 4.90625,16.71878 3.58511,5.02869 9.49257,8.95064 18.09375,10.40625 l 0.0625,0 0.0625,0 c 6.35778,0.59723 11.32206,0.0462 15.125,-1.6875 3.80294,-1.73367 6.34455,-4.73103 7.65625,-8.34375 2.6234,-7.22544 0.94293,-16.76032 -1.9375,-27.3125 -2.88043,-10.55218 -7.12061,-22.11858 -10.3125,-33 C 176.27872,98.019021 207.85567,74.851166 210,41.40625 L 210,30.5 l -20,0 0,10.90625 c 0,36.223534 -22.48362,63.92441 -8.59375,109.9375 3.24454,11.06092 7.46797,22.63131 10.28125,32.9375 2.81328,10.30619 4.07751,19.32521 2.0625,24.875 -1.0075,2.77489 -2.69645,4.74169 -5.59375,6.0625 -2.86786,1.30739 -7.07788,1.90246 -12.90625,1.375 -7.75795,-1.3129 -12.49733,-4.5821 -15.46875,-8.75 -2.97142,-4.1679 -4.15444,-9.34956 -4.1875,-14.4375 -0.0945,-14.54999 12.65741,-26.13058 27,-26.125 1.28708,5.4e-4 2.5536,0.0883 3.79501,0.25742 z"
       inkscape:connector-curvature="0"
       sodipodi:nodetypes="cccscccsssccccscssscscccc" />
    <path
       id="path4487-6-9"
       style="font-size:medium;font-style:normal;font-variant:normal;font-weight:normal;font-stretch:normal;text-indent:0;text-align:start;text-decoration:none;line-height:normal;letter-spacing:normal;word-spacing:normal;text-transform:none;direction:ltr;block-progression:tb;writing-mode:lr-tb;text-anchor:start;baseline-shift:baseline;color:#000000;fill:#000000;stroke:none;stroke-width:1;marker:none;visibility:visible;display:inline;overflow:visible;enable-background:accumulate;font-family:Sans;-inkscape-font-specification:Sans"
       d="M 198.35618,78.108154 C 260.44686,84.812642 300.7266,135.4264 300.75,198.84375 300.75,280.93332 190,309.64906 190,359.5 l 0,10 20,-0.25173 0,-9.74827 c 0,-42.30197 97.13594,-83.84797 96.15331,-157.09452 C 305.73054,130.22684 263.43093,81.372703 200.01015,74.26758 z"
       inkscape:connector-curvature="0"
       sodipodi:nodetypes="ccsccsccc" />
    <path
       id="path4487-6"
       style="font-size:medium;font-style:normal;font-variant:normal;font-weight:normal;font-stretch:normal;text-indent:0;text-align:start;text-decoration:none;line-height:normal;letter-spacing:normal;word-spacing:normal;text-transform:none;direction:ltr;block-progression:tb;writing-mode:lr-tb;text-anchor:start;baseline-shift:baseline;color:#000000;fill:none;stroke:#000000;stroke-width:1;stroke-miterlimit:4;stroke-dasharray:none;marker:none;visibility:visible;display:inline;overflow:visible;enable-background:accumulate;font-family:Sans;-inkscape-font-specification:Sans"
       d="M 198.35618,78.108154 C 260.44686,84.812642 300.7266,135.4264 300.75,198.84375 300.75,280.93332 190,309.64906 190,359.5 l 0,10 m 20,-0.25173 0,-9.74827 c 0,-42.30197 97.13594,-83.84797 96.15331,-157.09452 C 305.73054,130.22684 263.43093,81.372703 200.01015,74.26758"
       inkscape:connector-curvature="0"
       sodipodi:nodetypes="ccsccscc" />
    <path
       id="path4487-4"
       style="font-size:medium;font-style:normal;font-variant:normal;font-weight:normal;font-stretch:normal;text-indent:0;text-align:start;text-decoration:none;line-height:normal;letter-spacing:normal;word-spacing:normal;text-transform:none;direction:ltr;block-progression:tb;writing-mode:lr-tb;text-anchor:start;baseline-shift:baseline;color:#000000;fill:none;stroke:#000000;stroke-width:1;stroke-miterlimit:4;stroke-dasharray:none;marker:none;visibility:visible;display:inline;overflow:visible;enable-background:accumulate;font-family:Sans;-inkscape-font-specification:Sans"
       d="m 190,30.5 0,10.90625 c 0,36.223534 -22.48362,63.92441 -8.59375,109.9375 3.24454,11.06092 7.46797,22.63131 10.28125,32.9375 2.81328,10.30619 4.07751,19.32521 2.0625,24.875 -1.0075,2.77489 -2.69645,4.74169 -5.59375,6.0625 -2.86786,1.30739 -7.07788,1.90246 -12.90625,1.375 -7.75795,-1.3129 -12.49733,-4.5821 -15.46875,-8.75 -2.97142,-4.1679 -4.15444,-9.34956 -4.1875,-14.4375 -0.0945,-14.54999 12.65741,-26.13058 27,-26.125 1.28708,5.4e-4 2.5536,0.0883 3.79501,0.25742 m -1.37415,-4.16662 c -0.79886,-0.0598 -1.6061,-0.0905 -2.42086,-0.0908 -16.49011,-0.006 -31.10973,13.26864 -31,30.15627 0.0369,5.68486 1.32114,11.69009 4.90625,16.71878 3.58511,5.02869 9.49257,8.95064 18.09375,10.40625 l 0.0625,0 0.0625,0 c 6.35778,0.59723 11.32206,0.0462 15.125,-1.6875 3.80294,-1.73367 6.34455,-4.73103 7.65625,-8.34375 2.6234,-7.22544 0.94293,-16.76032 -1.9375,-27.3125 -2.88043,-10.55218 -7.12061,-22.11858 -10.3125,-33 C 176.27872,98.019021 207.85567,74.851166 210,41.40625 L 210,30.5"
       inkscape:connector-curvature="0"
       sodipodi:nodetypes="cscssscsccccccscccsssccc" />
    <path
       id="path4487-8"
       style="font-size:medium;font-style:normal;font-variant:normal;font-weight:normal;font-stretch:normal;text-indent:0;text-align:start;text-decoration:none;line-height:normal;letter-spacing:normal;word-spacing:normal;text-transform:none;direction:ltr;block-progression:tb;writing-mode:lr-tb;text-anchor:start;baseline-shift:baseline;color:#000000;fill:#000000;stroke:none;stroke-width:1;marker:none;visibility:visible;display:inline;overflow:visible;enable-background:accumulate;font-family:Sans;-inkscape-font-specification:Sans"
       d="m 191.06988,168.59014 c 12.44492,3.93485 21.37678,16.22134 21.30512,29.72236 -0.10015,18.87057 -16.66892,33.77292 -35.28125,33.59375 -21.2226,-0.2043 -37.97051,-18.8536 -37.6875,-39.78125 0.32027,-23.68395 21.1503,-42.30287 44.53125,-41.90625 26.28389,0.44586 46.92826,23.55753 46.40625,49.5 -0.58331,28.98931 -26.10629,51.71914 -54.75,51.0625 -31.83542,-0.72979 -56.77193,-28.76958 -55.96875,-60.21875 0.88831,-34.78297 31.57226,-62.02088 65.96875,-61.0625 37.87369,1.05529 67.50077,34.4937 66.375,71.9375 -1.23456,41.06158 -37.5207,73.14502 -78.15625,71.84375 -44.39544,-1.42167 -79.051716,-40.67086 -77.5625,-84.59375 1.621409,-47.82199 43.92369,-85.12219 91.28125,-83.4375 51.39766,1.82841 91.45549,47.3043 89.5625,98.1875 -2.04842,55.06134 -50.81556,97.98322 -105.375,95.875 C 112.84115,297.03745 67.007082,244.85306 69.34375,186.53125 71.780089,125.7217 124.07558,77.973291 183.9193,77.377367 c 0.21524,-1.582651 0.57358,-2.431596 0.8613,-4.098104 C 122.56317,73.545461 67.877302,123.13911 65.34375,186.375 c -2.424208,60.50673 45.06685,114.54332 106.21875,116.90625 56.74186,2.19254 107.39811,-42.34868 109.53125,-99.6875 1.97417,-53.0655 -39.73037,-100.4343 -93.40625,-102.34375 -49.53716,-1.762228 -93.738729,37.20881 -95.4375,87.3125 -1.563104,46.10215 34.72807,87.22398 81.40625,88.71875 42.81189,1.37097 81.0092,-32.37057 82.3125,-75.71875 1.19119,-39.61954 -30.08825,-74.94345 -70.25,-76.0625 -36.56901,-1.01892 -69.1469,27.8934 -70.09375,64.96875 -0.85864,33.62077 25.74522,63.53011 59.875,64.3125 30.81171,0.70634 58.21418,-23.68016 58.84375,-54.96875 0.56561,-28.10911 -21.75792,-53.10885 -50.34375,-53.59375 -25.54349,-0.4333 -48.24228,19.88337 -48.59375,45.875 -0.31223,23.08827 18.12237,43.58594 41.65625,43.8125 20.76819,0.19993 39.20006,-16.40506 39.3125,-37.59375 0.0856,-16.13669 -11.16455,-30.68573 -26.57452,-34.21746 z"
       inkscape:connector-curvature="0"
       sodipodi:nodetypes="csssssssssssssssccssssssssssssssscc" />
    <path
       id="path4487"
       style="font-size:medium;font-style:normal;font-variant:normal;font-weight:normal;font-stretch:normal;text-indent:0;text-align:start;text-decoration:none;line-height:normal;letter-spacing:normal;word-spacing:normal;text-transform:none;direction:ltr;block-progression:tb;writing-mode:lr-tb;text-anchor:start;baseline-shift:baseline;color:#000000;fill:none;stroke:#ff0000;stroke-width:1;stroke-miterlimit:4;stroke-dasharray:none;marker:none;visibility:visible;display:inline;overflow:visible;enable-background:accumulate;font-family:Sans;-inkscape-font-specification:Sans"
       d="m 191.06988,168.59014 c 12.44492,3.93485 21.37678,16.22134 21.30512,29.72236 -0.10015,18.87057 -16.66892,33.77292 -35.28125,33.59375 -21.2226,-0.2043 -37.97051,-18.8536 -37.6875,-39.78125 0.32027,-23.68395 21.1503,-42.30287 44.53125,-41.90625 26.28389,0.44586 46.92826,23.55753 46.40625,49.5 -0.58331,28.98931 -26.10629,51.71914 -54.75,51.0625 -31.83542,-0.72979 -56.77193,-28.76958 -55.96875,-60.21875 0.88831,-34.78297 31.57226,-62.02088 65.96875,-61.0625 37.87369,1.05529 67.50077,34.4937 66.375,71.9375 -1.23456,41.06158 -37.5207,73.14502 -78.15625,71.84375 -44.39544,-1.42167 -79.051716,-40.67086 -77.5625,-84.59375 1.621409,-47.82199 43.92369,-85.12219 91.28125,-83.4375 51.39766,1.82841 91.45549,47.3043 89.5625,98.1875 -2.04842,55.06134 -50.81556,97.98322 -105.375,95.875 C 112.84115,297.03745 67.007082,244.85306 69.34375,186.53125 71.776019,125.8233 124.24476,78.132882 183.96319,77.380749 m 0.97144,-4.033252 C 122.81845,73.741281 67.874003,123.22146 65.34375,186.375 c -2.424208,60.50673 45.06685,114.54332 106.21875,116.90625 56.74186,2.19254 107.39811,-42.34868 109.53125,-99.6875 1.97417,-53.0655 -39.73037,-100.4343 -93.40625,-102.34375 -49.53716,-1.762228 -93.738729,37.20881 -95.4375,87.3125 -1.563104,46.10215 34.72807,87.22398 81.40625,88.71875 42.81189,1.37097 81.0092,-32.37057 82.3125,-75.71875 1.19119,-39.61954 -30.08825,-74.94345 -70.25,-76.0625 -36.56901,-1.01892 -69.1469,27.8934 -70.09375,64.96875 -0.85864,33.62077 25.74522,63.53011 59.875,64.3125 30.81171,0.70634 58.21418,-23.68016 58.84375,-54.96875 0.56561,-28.10911 -21.75792,-53.10885 -50.34375,-53.59375 -25.54349,-0.4333 -48.24228,19.88337 -48.59375,45.875 -0.31223,23.08827 18.12237,43.58594 41.65625,43.8125 20.76819,0.19993 39.20006,-16.40506 39.3125,-37.59375 0.0856,-16.13669 -11.16455,-30.68573 -26.57452,-34.21746"
       inkscape:connector-curvature="0"
       sodipodi:nodetypes="csssssssssssssssccsssssssssssssssc" />
  </g>
</svg>
