<?xml version="1.0" encoding="UTF-8" standalone="no"?>
<!-- Created with Inkscape (http://www.inkscape.org/) -->
<svg
   xmlns:dc="http://purl.org/dc/elements/1.1/"
   xmlns:cc="http://creativecommons.org/ns#"
   xmlns:rdf="http://www.w3.org/1999/02/22-rdf-syntax-ns#"
   xmlns:svg="http://www.w3.org/2000/svg"
   xmlns="http://www.w3.org/2000/svg"
   xmlns:sodipodi="http://sodipodi.sourceforge.net/DTD/sodipodi-0.dtd"
   xmlns:inkscape="http://www.inkscape.org/namespaces/inkscape"
   style="display:inline"
   sodipodi:docname="3B0DE33710EEF5-R+_00_CW_00_CW_.svg"
   inkscape:version="0.48.3.1 r9886"
   version="1.1"
   id="svg2902"
   height="400"
   width="400">
  
  <g
     style="display:inline"
     inkscape:label="OBEN-002"
     layerid="element"
     id="g3131"
     inkscape:groupmode="layer">
    <path
       sodipodi:nodetypes="cccsssccccssscc"
       inkscape:connector-curvature="0"
       d="m 30.5,93 0,-26 12,0 c 50.491915,0 77.91576,12.382314 99.5625,24.0625 C 163.70924,102.74269 175.90888,112 200,112 c 24.09112,0 41.66522,-9.74554 65.15625,-21.1875 C 288.64728,79.370545 315.54009,67 357.5,67 l 12,0 0,26 -12,0 c -37.02207,0 -58.26591,10.12946 -80.96875,21.1875 C 253.82841,125.24554 231.15095,138 200,138 168.84905,138 149.77097,124.75731 129.71875,113.9375 109.66653,103.11769 88.969705,93 42.5,93 z"
       style="color:#000000;fill:#ffffff;stroke:none;stroke-width:1.00000036px;marker:none;visibility:visible;display:inline;overflow:visible;enable-background:accumulate"
       id="path3304" />
    <path
       id="C-left-2-7-4"
       style="color:#000000;fill:none;stroke:#000000;stroke-width:1.00000036px;stroke-linecap:square;stroke-linejoin:miter;stroke-miterlimit:4;stroke-opacity:1;stroke-dasharray:none;stroke-dashoffset:0;marker:none;visibility:visible;display:inline;overflow:visible;enable-background:accumulate"
       d="M 369.5,93 359.49977,93 357.5,93 c -37.02207,0 -58.26591,10.12946 -80.96875,21.1875 C 253.82841,125.24554 231.15095,138 200,138 168.84905,138 149.77097,124.75731 129.71875,113.9375 109.66653,103.11769 88.969705,93 42.5,93 L 40.50023,93 30.5,93 M 369.5,67 359.49977,67 357.5,67 C 315.54009,67 288.64728,79.370545 265.15625,90.8125 241.66522,102.25446 224.09112,112 200,112 175.90888,112 163.70924,102.74269 142.0625,91.0625 120.41576,79.382314 92.991915,67 42.5,67 L 40.50023,67 30.5,67"
       inkscape:connector-curvature="0"
       sodipodi:nodetypes="cccsssscccccsssscc" />
  </g>
  <g
     inkscape:groupmode="layer"
     id="g3155"
     layerid="element"
     inkscape:label="UNTEN-002"
     style="display:inline">
    <path
       sodipodi:nodetypes="cccsssssccccssssscc"
       inkscape:connector-curvature="0"
       d="m 369.5,333 0,-26 -12,0 c -32.34447,0 -50.63265,-21.5175 -72.84375,-47.03125 -11.10555,-12.75687 -22.22439,-26.1994 -35.59375,-37 C 235.69314,212.16815 219.34835,204 200,204 c -19.34835,0 -35.56765,8.22791 -48.71875,19.0625 -13.1511,10.83459 -23.97898,24.24181 -34.875,36.96875 C 94.61422,285.48512 76.548048,307 42.5,307 l -12,0 0,26 12,0 c 45.298302,0 71.35717,-29.98512 93.65625,-56.03125 C 147.30579,263.94569 157.52194,251.60291 167.8125,243.125 178.10306,234.64709 187.70398,230 200,230 c 12.29602,0 22.18243,4.70685 32.71875,13.21875 10.53632,8.5119 21.00128,20.81937 32.3125,33.8125 C 287.65369,303.0175 313.46784,333 357.5,333 z"
       style="font-size:medium;font-style:normal;font-variant:normal;font-weight:normal;font-stretch:normal;text-indent:0;text-align:start;text-decoration:none;line-height:normal;letter-spacing:normal;word-spacing:normal;text-transform:none;direction:ltr;block-progression:tb;writing-mode:lr-tb;text-anchor:start;baseline-shift:baseline;color:#000000;fill:#ffffff;stroke:none;stroke-width:1.00000036px;marker:none;visibility:visible;display:inline;overflow:visible;enable-background:accumulate;font-family:Sans;-inkscape-font-specification:Sans"
       id="path3365" />
    <path
       id="path3165"
       style="font-size:medium;font-style:normal;font-variant:normal;font-weight:normal;font-stretch:normal;text-indent:0;text-align:start;text-decoration:none;line-height:normal;letter-spacing:normal;word-spacing:normal;text-transform:none;direction:ltr;block-progression:tb;writing-mode:lr-tb;text-anchor:start;baseline-shift:baseline;color:#000000;fill:none;stroke:#000000;stroke-width:1.00000036px;stroke-linecap:square;stroke-linejoin:miter;stroke-miterlimit:4;stroke-opacity:1;stroke-dasharray:none;stroke-dashoffset:0;marker:none;visibility:visible;display:inline;overflow:visible;enable-background:accumulate;font-family:Sans;-inkscape-font-specification:Sans"
       d="m 369.5,307 -10.00023,0 -1.99977,0 c -32.34447,0 -50.63265,-21.5175 -72.84375,-47.03125 -11.10555,-12.75687 -22.22439,-26.1994 -35.59375,-37 C 235.69314,212.16815 219.34835,204 200,204 c -19.34835,0 -35.56765,8.22791 -48.71875,19.0625 -13.1511,10.83459 -23.97898,24.24181 -34.875,36.96875 C 94.61422,285.48512 76.548048,307 42.5,307 L 40.50023,307 30.5,307 m 0,26 10.00023,0 1.99977,0 c 45.298302,0 71.35717,-29.98512 93.65625,-56.03125 C 147.30579,263.94569 157.52194,251.60291 167.8125,243.125 178.10306,234.64709 187.70398,230 200,230 c 12.29602,0 22.18243,4.70685 32.71875,13.21875 10.53632,8.5119 21.00128,20.81937 32.3125,33.8125 C 287.65369,303.0175 313.46784,333 357.5,333 l 1.99977,0 10.00023,0"
       inkscape:connector-curvature="0"
       sodipodi:nodetypes="ccssssssccccccsssssscc" />
  </g>
</svg>
