<?xml version="1.0" encoding="UTF-8" standalone="no"?>
<!-- Created with Inkscape (http://www.inkscape.org/) -->
<svg
   xmlns:dc="http://purl.org/dc/elements/1.1/"
   xmlns:cc="http://creativecommons.org/ns#"
   xmlns:rdf="http://www.w3.org/1999/02/22-rdf-syntax-ns#"
   xmlns:svg="http://www.w3.org/2000/svg"
   xmlns="http://www.w3.org/2000/svg"
   xmlns:sodipodi="http://sodipodi.sourceforge.net/DTD/sodipodi-0.dtd"
   xmlns:inkscape="http://www.inkscape.org/namespaces/inkscape"
   style="display:inline"
   sodipodi:docname="3B0DE337E51319-R+_00_CW_00_CW_.svg"
   inkscape:version="0.48.3.1 r9886"
   version="1.1"
   id="svg2902"
   height="400"
   width="400">
  
  <g
     inkscape:groupmode="layer"
     id="g3102"
     layerid="element"
     inkscape:label="OBEN-001"
     style="display:inline">
    <path
       sodipodi:nodetypes="cccccccccccsssssccccssssscc"
       inkscape:connector-curvature="0"
       d="m 369.5,93 -11.00023,0 0,0 z m 0,-26 -11.00023,0 0,0 11.00023,0 0,0 -11.00023,0 L 356.5,67 C 312.3455,67 286.58046,91.502666 263.78125,113.0625 240.98204,134.62233 224.00859,152 200,152 c -12.0043,0 -19.99185,-3.73908 -28.6875,-10.53125 -8.69565,-6.79217 -17.42438,-16.95676 -27.875,-27.9375 C 122.53626,91.569778 95.779564,67 43.5,67 l -13,0 0,26 13,0 c 44.682056,0 61.54676,17.93022 81.09375,38.46875 9.77349,10.26926 18.97922,21.35467 30.6875,30.5 C 166.98953,171.11408 181.88178,178 200,178 c 36.23644,0 59.51233,-25.12233 81.65625,-46.0625 C 303.80017,110.99733 321.67252,93 356.5,93 l 1.99977,0 11.00023,0 z"
       style="color:#000000;fill:#ffffff;stroke:none;stroke-width:1.00000036px;marker:none;visibility:visible;display:inline;overflow:visible;enable-background:accumulate"
       id="path3266" />
    <path
       id="C-left-2-7-9"
       style="color:#000000;fill:none;stroke:#000000;stroke-width:1.00000036px;stroke-linecap:square;stroke-linejoin:miter;stroke-miterlimit:4;stroke-opacity:1;stroke-dasharray:none;stroke-dashoffset:0;marker:none;visibility:visible;display:inline;overflow:visible;enable-background:accumulate"
       d="M 30.5,93 40.50023,93 43.5,93 c 44.682056,0 61.54676,17.93022 81.09375,38.46875 9.77349,10.26926 18.97922,21.35467 30.6875,30.5 C 166.98953,171.11408 181.88178,178 200,178 c 36.23644,0 59.51233,-25.12233 81.65625,-46.0625 C 303.80017,110.99733 321.67252,93 356.5,93 l 1.99977,0 11.00023,0 m 0,-26 -11.00023,0 L 356.5,67 C 312.3455,67 286.58046,91.502666 263.78125,113.0625 240.98204,134.62233 224.00859,152 200,152 c -12.0043,0 -19.99185,-3.73908 -28.6875,-10.53125 -8.69565,-6.79217 -17.42438,-16.95676 -27.875,-27.9375 C 122.53626,91.569778 95.779564,67 43.5,67 L 40.50023,67 30.5,67"
       inkscape:connector-curvature="0"
       sodipodi:nodetypes="cccsssssccccsssssccc" />
  </g>
  <g
     style="display:inline"
     inkscape:label="UNTEN-001"
     layerid="element"
     id="g3117"
     inkscape:groupmode="layer">
    <path
       sodipodi:nodetypes="cccsssccccssscc"
       inkscape:connector-curvature="0"
       d="m 30.5,307 0,26 12,0 c 43.659916,0 70.72228,-20.81888 93.75,-39.375 C 159.27772,275.06888 176.1749,260 200,260 c 23.8251,0 41.62822,15.18263 64.96875,33.6875 C 288.30928,312.19237 315.16993,333 357.5,333 l 12,0 0,-26 -12,0 C 323.45344,307 303.82258,291.30763 281.125,273.3125 258.42742,255.31737 234.64538,234 200,234 165.35462,234 142.17421,255.43112 119.90625,273.375 97.638295,291.31888 78.186434,307 42.5,307 z"
       style="font-size:medium;font-style:normal;font-variant:normal;font-weight:normal;font-stretch:normal;text-indent:0;text-align:start;text-decoration:none;line-height:normal;letter-spacing:normal;word-spacing:normal;text-transform:none;direction:ltr;block-progression:tb;writing-mode:lr-tb;text-anchor:start;baseline-shift:baseline;color:#000000;fill:#ffffff;stroke:none;stroke-width:1.00000036px;marker:none;visibility:visible;display:inline;overflow:visible;enable-background:accumulate;font-family:Sans;-inkscape-font-specification:Sans"
       id="path3344" />
    <path
       id="path3129"
       style="font-size:medium;font-style:normal;font-variant:normal;font-weight:normal;font-stretch:normal;text-indent:0;text-align:start;text-decoration:none;line-height:normal;letter-spacing:normal;word-spacing:normal;text-transform:none;direction:ltr;block-progression:tb;writing-mode:lr-tb;text-anchor:start;baseline-shift:baseline;color:#000000;fill:none;stroke:#000000;stroke-width:1.00000036px;stroke-linecap:square;stroke-linejoin:miter;stroke-miterlimit:4;stroke-opacity:1;stroke-dasharray:none;stroke-dashoffset:0;marker:none;visibility:visible;display:inline;overflow:visible;enable-background:accumulate;font-family:Sans;-inkscape-font-specification:Sans"
       d="m 30.5,333 10.00023,0 1.99977,0 c 43.659916,0 70.72228,-20.81888 93.75,-39.375 C 159.27772,275.06888 176.1749,260 200,260 c 23.8251,0 41.62822,15.18263 64.96875,33.6875 C 288.30928,312.19237 315.16993,333 357.5,333 l 1.99977,0 10.00023,0 m 0,-26 -10.00023,0 -1.99977,0 C 323.45344,307 303.82258,291.30763 281.125,273.3125 258.42742,255.31737 234.64538,234 200,234 165.35462,234 142.17421,255.43112 119.90625,273.375 97.638295,291.31888 78.186434,307 42.5,307 L 40.50023,307 30.5,307"
       inkscape:connector-curvature="0"
       sodipodi:nodetypes="ccssssccccccsssscc" />
  </g>
</svg>
