<?xml version="1.0" encoding="UTF-8" standalone="no"?>
<!-- Created with Inkscape (http://www.inkscape.org/) -->
<svg
   xmlns:dc="http://purl.org/dc/elements/1.1/"
   xmlns:cc="http://creativecommons.org/ns#"
   xmlns:rdf="http://www.w3.org/1999/02/22-rdf-syntax-ns#"
   xmlns:svg="http://www.w3.org/2000/svg"
   xmlns="http://www.w3.org/2000/svg"
   xmlns:sodipodi="http://sodipodi.sourceforge.net/DTD/sodipodi-0.dtd"
   xmlns:inkscape="http://www.inkscape.org/namespaces/inkscape"
   style="display:inline"
   sodipodi:docname="3B7B5A8BBF6F6D15B_00_II_SW_00_.svg"
   inkscape:version="0.48.3.1 r9886"
   version="1.1"
   id="svg2902"
   height="400"
   width="400">
  
  <g
     style="display:inline"
     inkscape:label="THIN-001"
     layerid="element"
     id="element"
     inkscape:groupmode="layer">
    <path
       id="bottom-left-7-8"
       style="fill:none;stroke:#000000;stroke-width:1.00000036px;stroke-linecap:square;stroke-linejoin:miter;stroke-opacity:1;display:inline"
       d="m 200,359.49976 c 0,-86.9484 46.5251,-121.96984 46.5251,-121.96984 C 274.58455,211.90477 313.43276,200 359.49976,200 L 369.5,200"
       inkscape:connector-curvature="0"
       sodipodi:nodetypes="ccsc" />
  </g>
  <g
     inkscape:groupmode="layer"
     id="g3627"
     layerid="element"
     inkscape:label="SWALLOW-003"
     style="display:inline">
    <path
       id="path3631-1"
       style="fill:#ffffff;stroke:none;display:inline"
       d="m 210,369.5 0,-10.00024 0,-1.99976 c 0,-12.93107 0.99592,-24.79856 2.89853,-35.70653 -4.61592,-0.87669 -15.42935,-2.74636 -19.62956,-3.47326 C 191.11628,330.47484 190,343.52264 190,357.5 l 0,1.99976 0,10.00024 z"
       inkscape:connector-curvature="0"
       sodipodi:nodetypes="ccccccccc" />
    <path
       id="path3631"
       style="fill:none;stroke:#000000;stroke-width:1.00000036px;stroke-linecap:square;stroke-linejoin:miter;stroke-opacity:1;display:inline"
       d="m 210,369.5 0,-10.00024 0,-1.99976 c 0,-12.93107 0.99592,-24.79856 2.89853,-35.70653 -4.61592,-0.87669 -15.42935,-2.74636 -19.62956,-3.47326 C 191.11628,330.47484 190,343.52264 190,357.5 l 0,1.99976 0,10.00024"
       inkscape:connector-curvature="0"
       sodipodi:nodetypes="cccccccc" />
  </g>
</svg>
