<?xml version="1.0" encoding="UTF-8" standalone="no"?>
<!-- Created with Inkscape (http://www.inkscape.org/) -->
<svg
   xmlns:dc="http://purl.org/dc/elements/1.1/"
   xmlns:cc="http://creativecommons.org/ns#"
   xmlns:rdf="http://www.w3.org/1999/02/22-rdf-syntax-ns#"
   xmlns:svg="http://www.w3.org/2000/svg"
   xmlns="http://www.w3.org/2000/svg"
   xmlns:sodipodi="http://sodipodi.sourceforge.net/DTD/sodipodi-0.dtd"
   xmlns:inkscape="http://www.inkscape.org/namespaces/inkscape"
   style="display:inline"
   sodipodi:docname="3D33C3BE9DC3AC-R+_00_SW_00_UB_.svg"
   inkscape:version="0.48.3.1 r9886"
   version="1.1"
   id="svg2902"
   height="400"
   width="400">
  
  <g
     inkscape:groupmode="layer"
     id="layer10"
     inkscape:label="R-001"
     style="display:inline">
    <path
       sodipodi:nodetypes="cccssscccc"
       inkscape:connector-curvature="0"
       d="M 369.5,190 359.49976,190 59.5,190 c -2.641563,-0.0374 -5.281805,1.0236 -7.16302,2.8784 -1.881214,1.8548 -2.9794,4.47977 -2.9794,7.1216 0,2.64183 1.098186,5.2668 2.9794,7.1216 1.881215,1.8548 4.521457,2.91576 7.16302,2.8784 l 299.99976,0 10.00024,0 z"
       style="font-size:medium;font-style:normal;font-variant:normal;font-weight:normal;font-stretch:normal;text-indent:0;text-align:start;text-decoration:none;line-height:normal;letter-spacing:normal;word-spacing:normal;text-transform:none;direction:ltr;block-progression:tb;writing-mode:lr-tb;text-anchor:start;baseline-shift:baseline;color:#000000;fill:#ffffff;stroke:none;stroke-width:1;marker:none;visibility:visible;display:inline;overflow:visible;enable-background:accumulate;font-family:Sans;-inkscape-font-specification:Sans"
       id="path3119"
       zpos="-5" />
    <path
       id="I-right-1-5-0"
       style="font-size:medium;font-style:normal;font-variant:normal;font-weight:normal;font-stretch:normal;text-indent:0;text-align:start;text-decoration:none;line-height:normal;letter-spacing:normal;word-spacing:normal;text-transform:none;direction:ltr;block-progression:tb;writing-mode:lr-tb;text-anchor:start;baseline-shift:baseline;color:#000000;fill:none;stroke:#000000;stroke-width:1;stroke-miterlimit:4;stroke-dasharray:none;marker:none;visibility:visible;display:inline;overflow:visible;enable-background:accumulate;font-family:Sans;-inkscape-font-specification:Sans"
       d="M 369.5,190 359.49976,190 59.5,190 c -2.641563,-0.0374 -5.281805,1.0236 -7.16302,2.8784 -1.881214,1.8548 -2.9794,4.47977 -2.9794,7.1216 0,2.64183 1.098186,5.2668 2.9794,7.1216 1.881215,1.8548 4.521457,2.91576 7.16302,2.8784 l 299.99976,0 10.00024,0"
       inkscape:connector-curvature="0"
       sodipodi:nodetypes="cccsssccc"
       zpos="-2" />
  </g>
  <g
     inkscape:groupmode="layer"
     id="layer12"
     inkscape:label="L-004"
     style="display:inline">
    <path
       sodipodi:nodetypes="cccssccsccsscccc"
       inkscape:connector-curvature="0"
       d="m 30.5,67 10.00023,0 190.70498,0 C 239.12452,67 245.5,73.375476 245.5,81.29479 l 0,21.41042 C 245.5,110.62452 239.12452,117 231.20521,117 L 175.5,117 c -22.16,0 -40,17.84 -40,40 0,22.16 17.84,40 40,40 l 109.31639,0 C 299.59911,197 311.5,208.90089 311.5,223.68361 l 0,82.63278 C 311.5,321.09911 299.59911,333 284.81639,333 L 40.50023,333 30.5,333 z"
       style="color:#000000;fill:#000000;stroke:none;stroke-width:1.00000036px;marker:none;visibility:visible;display:inline;overflow:visible;enable-background:accumulate"
       id="path4983"
       zpos="-2" />
    <path
       id="C-left-4-2-6"
       style="color:#000000;fill:none;stroke:#000000;stroke-width:1.00000036px;stroke-linecap:square;stroke-linejoin:miter;stroke-miterlimit:4;stroke-opacity:1;stroke-dasharray:none;stroke-dashoffset:0;marker:none;visibility:visible;display:inline;overflow:visible;enable-background:accumulate"
       d="m 30.5,67 10.00023,0 190.70498,0 C 239.12452,67 245.5,73.375476 245.5,81.29479 l 0,21.41042 C 245.5,110.62452 239.12452,117 231.20521,117 L 175.5,117 c -22.16,0 -40,17.84 -40,40 0,22.16 17.84,40 40,40 l 109.31639,0 C 299.59911,197 311.5,208.90089 311.5,223.68361 l 0,82.63278 C 311.5,321.09911 299.59911,333 284.81639,333 L 40.50023,333 30.5,333"
       inkscape:connector-curvature="0"
       sodipodi:nodetypes="cccssccsccssccc"
       zpos="5" />
  </g>
</svg>
