<?xml version="1.0" encoding="UTF-8" standalone="no"?>
<!-- Created with Inkscape (http://www.inkscape.org/) -->
<svg
   xmlns:dc="http://purl.org/dc/elements/1.1/"
   xmlns:cc="http://creativecommons.org/ns#"
   xmlns:rdf="http://www.w3.org/1999/02/22-rdf-syntax-ns#"
   xmlns:svg="http://www.w3.org/2000/svg"
   xmlns="http://www.w3.org/2000/svg"
   xmlns:sodipodi="http://sodipodi.sourceforge.net/DTD/sodipodi-0.dtd"
   xmlns:inkscape="http://www.inkscape.org/namespaces/inkscape"
   style="display:inline"
   sodipodi:docname="3EDB81302678AF-R+_UW_00_CW_00_.svg"
   inkscape:version="0.48.3.1 r9886"
   version="1.1"
   id="svg2902"
   height="400"
   width="400">
  
  <g
     style="display:inline"
     inkscape:label="AUSSEN-001"
     id="g3757"
     inkscape:groupmode="layer">
    <path
       style="color:#000000;fill:#ffffff;stroke:none;stroke-width:1.00000036px;marker:none;visibility:visible;display:inline;overflow:visible;enable-background:accumulate"
       d="M 67 30.5 L 67 40.5 L 67 359.5 L 67 369.5 L 93 369.5 L 93 269.5 L 307 269.5 L 307 369.5 L 333 369.5 L 333 359.5 L 333 40.5 L 333 30.5 L 67 30.5 z "
       id="path3759" />
    <path
       sodipodi:nodetypes="cccc"
       inkscape:connector-curvature="0"
       d="M 67,369.5 67,359.49977 67,40.500237 67,30.5"
       style="color:#000000;fill:none;stroke:#000000;stroke-width:1.00000036px;stroke-linecap:square;stroke-linejoin:miter;stroke-miterlimit:4;stroke-opacity:1;stroke-dasharray:none;stroke-dashoffset:0;marker:none;visibility:visible;display:inline;overflow:visible;enable-background:accumulate"
       id="path3765" />
    <path
       sodipodi:nodetypes="cccc"
       inkscape:connector-curvature="0"
       d="m 333,30.5 0,10.000237 0,318.999533 0,10.00023"
       style="color:#000000;fill:none;stroke:#000000;stroke-width:1.00000036px;stroke-linecap:square;stroke-linejoin:miter;stroke-miterlimit:4;stroke-opacity:1;stroke-dasharray:none;stroke-dashoffset:0;marker:none;visibility:visible;display:inline;overflow:visible;enable-background:accumulate"
       id="path3769" />
  </g>
  <g
     style="display:inline"
     inkscape:label="INNEN-002"
     id="g3797"
     inkscape:groupmode="layer">
    <path
       sodipodi:nodetypes="ccccc"
       inkscape:connector-curvature="0"
       d="m 93,369.5 0,-100.00023 214,0 0,100.00023 z"
       style="color:#000000;fill:#ffffff;stroke:none;stroke-width:1.00000036px;marker:none;visibility:visible;display:inline;overflow:visible;enable-background:accumulate"
       id="path3799"
       zpos="-100" />
    <path
       inkscape:connector-curvature="0"
       id="path3801"
       d="m 307,269.73021 c 0,18.9323 -47.90553,34.27997 -107,34.27997 -59.09447,0 -107,-15.34767 -107,-34.27997 0,-18.93232 47.90553,-34.28 107,-34.28 59.09447,0 107,15.34768 107,34.28 z"
       style="color:#000000;fill:#000000;stroke:none;stroke-width:0.99999994;marker:none;visibility:visible;display:inline;overflow:visible;enable-background:accumulate" />
    <path
       sodipodi:nodetypes="cccc"
       inkscape:connector-curvature="0"
       d="m 307,369.5 0,-100.00023 M 93,369.5 93,269.49977"
       style="color:#000000;fill:none;stroke:#000000;stroke-width:1.00000036px;stroke-linecap:square;stroke-linejoin:miter;stroke-miterlimit:4;stroke-opacity:1;stroke-dasharray:none;stroke-dashoffset:0;marker:none;visibility:visible;display:inline;overflow:visible;enable-background:accumulate"
       id="path3803" />
    <path
       inkscape:connector-curvature="0"
       id="path3805"
       d="m 307,269.73021 c 0,18.9323 -47.90553,34.27997 -107,34.27997 -59.09447,0 -107,-15.34767 -107,-34.27997 0,-18.93232 47.90553,-34.28 107,-34.28 59.09447,0 107,15.34768 107,34.28 z"
       style="color:#000000;fill:none;stroke:#ff00ff;stroke-width:0.99999994;marker:none;visibility:visible;display:inline;overflow:visible;enable-background:accumulate" />
  </g>
</svg>
