<?xml version="1.0" encoding="UTF-8" standalone="no"?>
<!-- Created with Inkscape (http://www.inkscape.org/) -->
<svg
   xmlns:dc="http://purl.org/dc/elements/1.1/"
   xmlns:cc="http://creativecommons.org/ns#"
   xmlns:rdf="http://www.w3.org/1999/02/22-rdf-syntax-ns#"
   xmlns:svg="http://www.w3.org/2000/svg"
   xmlns="http://www.w3.org/2000/svg"
   xmlns:sodipodi="http://sodipodi.sourceforge.net/DTD/sodipodi-0.dtd"
   xmlns:inkscape="http://www.inkscape.org/namespaces/inkscape"
   style="display:inline"
   sodipodi:docname="3F2FD4A46D0171-R+_00_CB_00_00_.svg"
   inkscape:version="0.48.3.1 r9886"
   version="1.1"
   id="svg2902"
   height="400"
   width="400">
  
  <g
     inkscape:groupmode="layer"
     id="g3099"
     inkscape:label="CCC-002"
     style="display:inline">
    <path
       id="path3107-0"
       style="color:#000000;fill:#000000;stroke:none;stroke-width:1.00000036px;marker:none;visibility:visible;display:inline;overflow:visible;enable-background:accumulate"
       d="m 369.5,93 -128.00024,0 -7.96371,0 C 161.96802,93 125.43492,141.39613 125.43492,200.15347 125.43492,258.91083 157.69779,307 233.53605,307 l 7.96371,0 128.00024,0 0,26 -128.00024,0 -7.96371,0 C 145.29568,333 100.53604,273.44806 100.53604,200.15347 100.53604,126.85891 147.43079,67 233.53605,67 l 7.96395,0 128,0 z"
       inkscape:connector-curvature="0"
       sodipodi:nodetypes="ccsssccccsssccc" />
    <path
       id="path3107"
       style="color:#000000;fill:none;stroke:#000000;stroke-width:1.00000036px;stroke-linecap:square;stroke-linejoin:miter;stroke-miterlimit:4;stroke-opacity:1;stroke-dasharray:none;stroke-dashoffset:0;marker:none;visibility:visible;display:inline;overflow:visible;enable-background:accumulate"
       d="m 369.5,333 -128.00024,0 -7.96371,0 C 145.29568,333 100.53604,273.44806 100.53604,200.15347 100.53604,126.85891 147.43079,67 233.53605,67 l 7.96395,0 128,0 m 0,240 -128.00024,0 -7.96371,0 C 157.69779,307 125.43492,258.91083 125.43492,200.15347 125.43492,141.39613 161.96802,93 233.53605,93 l 7.96371,0 L 369.5,93"
       inkscape:connector-curvature="0"
       sodipodi:nodetypes="ccsssccccssscc" />
  </g>
</svg>
