<?xml version="1.0" encoding="UTF-8" standalone="no"?>
<!-- Created with Inkscape (http://www.inkscape.org/) -->
<svg
   xmlns:dc="http://purl.org/dc/elements/1.1/"
   xmlns:cc="http://creativecommons.org/ns#"
   xmlns:rdf="http://www.w3.org/1999/02/22-rdf-syntax-ns#"
   xmlns:svg="http://www.w3.org/2000/svg"
   xmlns="http://www.w3.org/2000/svg"
   xmlns:sodipodi="http://sodipodi.sourceforge.net/DTD/sodipodi-0.dtd"
   xmlns:inkscape="http://www.inkscape.org/namespaces/inkscape"
   style="display:inline"
   sodipodi:docname="3F2FD4A4EAD925-R+_00_CB_00_00_.svg"
   inkscape:version="0.48.3.1 r9886"
   version="1.1"
   id="svg2902"
   height="400"
   width="400">
  
  <g
     style="display:inline"
     inkscape:label="CCC-001"
     id="element"
     inkscape:groupmode="layer">
    <path
       id="C-top-4-2-5"
       style="color:#000000;fill:#000000;stroke:none;stroke-width:1.00000036000000003px;marker:none;visibility:visible;display:inline;overflow:visible;enable-background:accumulate"
       d="m 369.5,333 -10.00024,0 -7.96371,0 C 278.24147,333 218.53604,273.44806 218.53604,200.15347 218.53604,126.85891 278.24147,67 351.53605,67 l 7.96395,0 10,0 0,26 -10.00024,0 -7.96371,0 C 292.7787,93 243.43492,141.39613 243.43492,200.15347 243.43492,258.91083 292.7787,307 351.53605,307 l 7.96371,0 10.00024,0 z"
       inkscape:connector-curvature="0"
       sodipodi:nodetypes="ccsssccccsssccc" />
    <path
       id="C-top-3-8"
       style="color:#000000;fill:none;stroke:#000000;stroke-width:1.00000036px;stroke-linecap:square;stroke-linejoin:miter;stroke-miterlimit:4;stroke-opacity:1;stroke-dasharray:none;stroke-dashoffset:0;marker:none;visibility:visible;display:inline;overflow:visible;enable-background:accumulate"
       d="m 369.5,307 -10.00024,0 -7.96371,0 C 292.7787,307 243.43492,258.91083 243.43492,200.15347 243.43492,141.39613 292.7787,93 351.53605,93 l 7.96371,0 10.00024,0"
       inkscape:connector-curvature="0"
       sodipodi:nodetypes="cccsccc" />
    <path
       id="C-top-4-2"
       style="color:#000000;fill:none;stroke:#000000;stroke-width:1.00000036px;stroke-linecap:square;stroke-linejoin:miter;stroke-miterlimit:4;stroke-opacity:1;stroke-dasharray:none;stroke-dashoffset:0;marker:none;visibility:visible;display:inline;overflow:visible;enable-background:accumulate"
       d="m 369.5,333 -10.00024,0 -7.96371,0 C 278.24147,333 218.53604,273.44806 218.53604,200.15347 218.53604,126.85891 278.24147,67 351.53605,67 l 7.96395,0 10,0"
       inkscape:connector-curvature="0"
       sodipodi:nodetypes="cccsccc" />
  </g>
</svg>
