<?xml version="1.0" encoding="UTF-8" standalone="no"?>
<!-- Created with Inkscape (http://www.inkscape.org/) -->
<svg
   xmlns:dc="http://purl.org/dc/elements/1.1/"
   xmlns:cc="http://creativecommons.org/ns#"
   xmlns:rdf="http://www.w3.org/1999/02/22-rdf-syntax-ns#"
   xmlns:svg="http://www.w3.org/2000/svg"
   xmlns="http://www.w3.org/2000/svg"
   xmlns:sodipodi="http://sodipodi.sourceforge.net/DTD/sodipodi-0.dtd"
   xmlns:inkscape="http://www.inkscape.org/namespaces/inkscape"
   style="display:inline"
   sodipodi:docname="3F70519DD9394A-R+_00_SB_SB_00_.svg"
   inkscape:version="0.48.3.1 r9886"
   version="1.1"
   id="svg2902"
   height="400"
   width="400">
  
  <g
     style="display:inline"
     inkscape:label="ELEMENT-002"
     id="g3876"
     inkscape:groupmode="layer">
    <path
       style="font-size:medium;font-style:normal;font-variant:normal;font-weight:normal;font-stretch:normal;text-indent:0;text-align:start;text-decoration:none;line-height:normal;letter-spacing:normal;word-spacing:normal;text-transform:none;direction:ltr;block-progression:tb;writing-mode:lr-tb;text-anchor:start;baseline-shift:baseline;color:#000000;fill:#000000;fill-opacity:1;stroke:none;stroke-width:20;marker:none;visibility:visible;display:inline;overflow:visible;enable-background:accumulate;font-family:Sans;-inkscape-font-specification:Sans"
       d="m 359.5,190 c -37.96668,0 -79.95137,12.68771 -112.96875,40.40625 C 213.51387,258.12479 190,301.28185 190,359.5 l 0,10 20,0 0,-10 c 0,-52.93541 20.52889,-89.5383 49.40625,-113.78125 C 288.28361,221.4758 326.04613,210 359.5,210 l 10,0 0,-20 -10,0 z"
       id="path3882-7"
       inkscape:connector-curvature="0" />
    <path
       style="font-size:medium;font-style:normal;font-variant:normal;font-weight:normal;font-stretch:normal;text-indent:0;text-align:start;text-decoration:none;line-height:normal;letter-spacing:normal;word-spacing:normal;text-transform:none;direction:ltr;block-progression:tb;writing-mode:lr-tb;text-anchor:start;baseline-shift:baseline;color:#000000;fill:none;stroke:#000000;stroke-width:1;stroke-miterlimit:4;stroke-dasharray:none;marker:none;visibility:visible;display:inline;overflow:visible;enable-background:accumulate;font-family:Sans;-inkscape-font-specification:Sans"
       d="m 210,369.5 0,-10 c 0,-52.93541 20.52889,-89.5383 49.40625,-113.78125 C 288.28361,221.4758 326.04613,210 359.5,210 l 10,0 m 0,-20 -10,0 c -37.96668,0 -79.95137,12.68771 -112.96875,40.40625 C 213.51387,258.12479 190,301.28185 190,359.5 l 0,10"
       id="path3882"
       inkscape:connector-curvature="0"
       sodipodi:nodetypes="csssccsssc" />
  </g>
</svg>
