<?xml version="1.0" encoding="UTF-8" standalone="no"?>
<!-- Created with Inkscape (http://www.inkscape.org/) -->
<svg
   xmlns:dc="http://purl.org/dc/elements/1.1/"
   xmlns:cc="http://creativecommons.org/ns#"
   xmlns:rdf="http://www.w3.org/1999/02/22-rdf-syntax-ns#"
   xmlns:svg="http://www.w3.org/2000/svg"
   xmlns="http://www.w3.org/2000/svg"
   xmlns:sodipodi="http://sodipodi.sourceforge.net/DTD/sodipodi-0.dtd"
   xmlns:inkscape="http://www.inkscape.org/namespaces/inkscape"
   style="display:inline"
   sodipodi:docname="4AC2D9FC72CD14-R+_SW_II_II_SW_.svg"
   inkscape:version="0.48.3.1 r9886"
   version="1.1"
   id="svg2902"
   height="400"
   width="400">
  
  <g
     inkscape:label="RU-002"
     id="g4046"
     inkscape:groupmode="layer"
     sodipodi:insensitive="true"
     style="display:inline">
    <path
       sodipodi:nodetypes="ccccc"
       inkscape:connector-curvature="0"
       d="M 200,369.5 200,353.49976 200,200 353.49976,200 369.5,200"
       style="fill:none;stroke:#000000;stroke-width:1.00000036px;stroke-linecap:square;stroke-linejoin:miter;stroke-opacity:1;display:inline"
       id="path4048" />
  </g>
  <g
     inkscape:label="OL-008"
     id="g4222"
     inkscape:groupmode="layer"
     style="display:inline">
    <path
       sodipodi:nodetypes="cccccsascc"
       inkscape:connector-curvature="0"
       id="path4228"
       style="fill:#ffffff;stroke:none;display:inline"
       d="m 190,30.5 0,12.499989 C 190,131.08939 130.08943,190 41.999997,190 L 30.5,190 l 0,20 30.000237,0 C 177.96358,210 206.13739,295.92829 251.25012,249.25012 291.94199,207.14622 210,157.91888 210,78.500237 L 210,30.5 z" />
    <path
       d="m 190,30.5 0,12.499989 C 190,131.08939 130.08943,190 41.999997,190 L 30.5,190 m 0,20 30.000237,0 C 177.96358,210 206.13739,295.92829 251.25012,249.25012 291.94199,207.14622 210,157.91888 210,78.500237 L 210,30.5"
       style="fill:none;stroke:#000000;stroke-width:1.00000036px;stroke-linecap:square;stroke-linejoin:miter;stroke-opacity:1;display:inline"
       id="path4226"
       inkscape:connector-curvature="0"
       sodipodi:nodetypes="cccccsasc" />
  </g>
</svg>
