<?xml version="1.0" encoding="UTF-8" standalone="no"?>
<!-- Created with Inkscape (http://www.inkscape.org/) -->
<svg
   xmlns:dc="http://purl.org/dc/elements/1.1/"
   xmlns:cc="http://creativecommons.org/ns#"
   xmlns:rdf="http://www.w3.org/1999/02/22-rdf-syntax-ns#"
   xmlns:svg="http://www.w3.org/2000/svg"
   xmlns="http://www.w3.org/2000/svg"
   xmlns:sodipodi="http://sodipodi.sourceforge.net/DTD/sodipodi-0.dtd"
   xmlns:inkscape="http://www.inkscape.org/namespaces/inkscape"
   style="display:inline"
   sodipodi:docname="4AC2D9FC12A82E-R+_SW_II_II_SW_.svg"
   inkscape:version="0.48.3.1 r9886"
   version="1.1"
   id="svg2902"
   height="400"
   width="400">
  
  <g
     inkscape:label="RU-002"
     id="g4046"
     inkscape:groupmode="layer"
     sodipodi:insensitive="true"
     style="display:inline">
    <path
       sodipodi:nodetypes="ccccc"
       inkscape:connector-curvature="0"
       d="M 200,369.5 200,353.49976 200,200 353.49976,200 369.5,200"
       style="fill:none;stroke:#000000;stroke-width:1.00000036px;stroke-linecap:square;stroke-linejoin:miter;stroke-opacity:1;display:inline"
       id="path4048" />
  </g>
  <g
     style="display:inline"
     inkscape:groupmode="layer"
     id="g3968"
     inkscape:label="OL-003">
    <path
       style="font-size:medium;font-style:normal;font-variant:normal;font-weight:normal;font-stretch:normal;text-indent:0;text-align:start;text-decoration:none;line-height:normal;letter-spacing:normal;word-spacing:normal;text-transform:none;direction:ltr;block-progression:tb;writing-mode:lr-tb;text-anchor:start;baseline-shift:baseline;color:#000000;fill:#ffffff;stroke:none;stroke-width:1;marker:none;visibility:visible;display:inline;overflow:visible;enable-background:accumulate;font-family:Sans;-inkscape-font-specification:Sans"
       d="m 190,30.5 0,51.3125 C 176.49984,62.007801 153.77627,49 128,49 86.57865,49 53,82.57865 53,124 c 0,28.52678 15.928731,53.31957 39.375,66 l -61.875,0 0,20 80,0 c 44.36535,0 78.84516,29.22817 108.78125,54.375 14.96805,12.57342 28.41567,24.17933 43.3125,29.65625 7.44841,2.73846 15.63919,3.76938 23.65625,1.53125 8.01706,-2.23813 15.2352,-7.54773 21.5,-15.25 6.04369,-7.43042 9.13824,-16.11511 9,-24.59375 C 316.61176,247.24011 313.59579,239.31987 309.21875,232 300.46467,217.36027 286.12108,204.16008 271.03125,190.9375 255.94142,177.71492 240.02671,164.63516 228.3125,152.28125 216.59829,139.92734 210,128.5899 210,120.5 l 0,-90 z"
       id="path4092"
       inkscape:connector-curvature="0"
       sodipodi:nodetypes="ccsscccsssssssssscc" />
    <path
       style="font-size:medium;font-style:normal;font-variant:normal;font-weight:normal;font-stretch:normal;text-indent:0;text-align:start;text-decoration:none;line-height:normal;letter-spacing:normal;word-spacing:normal;text-transform:none;direction:ltr;block-progression:tb;writing-mode:lr-tb;text-anchor:start;baseline-shift:baseline;color:#000000;fill:#ffffff;stroke:none;stroke-width:1;marker:none;visibility:visible;display:inline;overflow:visible;enable-background:accumulate;font-family:Sans;-inkscape-font-specification:Sans"
       d="m 190,30.5 0,90 c 0,17.21438 10.72468,31.79291 23.78125,45.5625 13.05657,13.76959 29.36695,27.00177 44.09375,39.90625 14.7268,12.90448 27.80405,25.63726 34.1875,36.3125 3.19172,5.33762 4.65642,9.92712 4.71875,13.75 0.0623,3.82288 -0.94169,7.24306 -4.53125,11.65625 -4.43253,5.44958 -8.12462,7.68634 -11.375,8.59375 -3.25038,0.90741 -6.66119,0.70182 -11.375,-1.03125 -9.42763,-3.46614 -22.46012,-13.685 -37.34375,-26.1875 C 202.38899,224.05749 163.53144,190 110.5,190 l -80,0 0,20 80,0 c 44.36535,0 78.84516,29.22817 108.78125,54.375 14.96805,12.57342 28.41567,24.17933 43.3125,29.65625 7.44841,2.73846 15.63919,3.76938 23.65625,1.53125 8.01706,-2.23813 15.2352,-7.54773 21.5,-15.25 6.04369,-7.43042 9.13824,-16.11511 9,-24.59375 C 316.61176,247.24011 313.59579,239.31987 309.21875,232 300.46467,217.36027 286.12108,204.16008 271.03125,190.9375 255.94142,177.71492 240.02671,164.63516 228.3125,152.28125 216.59829,139.92734 210,128.5899 210,120.5 l 0,-90 z"
       id="path3970-6"
       inkscape:connector-curvature="0"
       sodipodi:nodetypes="cssssssssssccsssssssssscc" />
    <path
       style="font-size:medium;font-style:normal;font-variant:normal;font-weight:normal;font-stretch:normal;text-indent:0;text-align:start;text-decoration:none;line-height:normal;letter-spacing:normal;word-spacing:normal;text-transform:none;direction:ltr;block-progression:tb;writing-mode:lr-tb;text-anchor:start;baseline-shift:baseline;color:#000000;fill:none;stroke:#000000;stroke-width:1;stroke-miterlimit:4;stroke-dasharray:none;marker:none;visibility:visible;display:inline;overflow:visible;enable-background:accumulate;font-family:Sans;-inkscape-font-specification:Sans"
       d="m 190,30.5 0,90 c 0,17.21438 10.72468,31.79291 23.78125,45.5625 13.05657,13.76959 29.36695,27.00177 44.09375,39.90625 14.7268,12.90448 27.80405,25.63726 34.1875,36.3125 3.19172,5.33762 4.65642,9.92712 4.71875,13.75 0.0623,3.82288 -0.94169,7.24306 -4.53125,11.65625 -4.43253,5.44958 -8.12462,7.68634 -11.375,8.59375 -3.25038,0.90741 -6.66119,0.70182 -11.375,-1.03125 -9.42763,-3.46614 -22.46012,-13.685 -37.34375,-26.1875 C 202.38899,224.05749 163.53144,190 110.5,190 l -80,0 m 0,20 80,0 c 44.36535,0 78.84516,29.22817 108.78125,54.375 14.96805,12.57342 28.41567,24.17933 43.3125,29.65625 7.44841,2.73846 15.63919,3.76938 23.65625,1.53125 8.01706,-2.23813 15.2352,-7.54773 21.5,-15.25 6.04369,-7.43042 9.13824,-16.11511 9,-24.59375 C 316.61176,247.24011 313.59579,239.31987 309.21875,232 300.46467,217.36027 286.12108,204.16008 271.03125,190.9375 255.94142,177.71492 240.02671,164.63516 228.3125,152.28125 216.59829,139.92734 210,128.5899 210,120.5 l 0,-90"
       id="path3970"
       inkscape:connector-curvature="0"
       sodipodi:nodetypes="cssssssssssccssssssssssc" />
  </g>
</svg>
