<?xml version="1.0" encoding="UTF-8" standalone="no"?>
<!-- Created with Inkscape (http://www.inkscape.org/) -->
<svg
   xmlns:dc="http://purl.org/dc/elements/1.1/"
   xmlns:cc="http://creativecommons.org/ns#"
   xmlns:rdf="http://www.w3.org/1999/02/22-rdf-syntax-ns#"
   xmlns:svg="http://www.w3.org/2000/svg"
   xmlns="http://www.w3.org/2000/svg"
   xmlns:sodipodi="http://sodipodi.sourceforge.net/DTD/sodipodi-0.dtd"
   xmlns:inkscape="http://www.inkscape.org/namespaces/inkscape"
   style="display:inline"
   sodipodi:docname="4E18494BB692F3-R+_00_SW_SW_SW_.svg"
   inkscape:version="0.48.3.1 r9886"
   version="1.1"
   id="svg2902"
   height="400"
   width="400">
  
  <g
     inkscape:groupmode="layer"
     id="g3426"
     layerid="element"
     inkscape:label="PLUG-001"
     style="display:inline">
    <path
       id="S-bottom-2-3-6"
       style="fill:#ffffff;stroke:none;display:inline"
       d="m 190,190.49976 0,179.00024 20,0 0,-179.00024 z"
       sodipodi:nodetypes="ccccc"
       inkscape:connector-curvature="0" />
    <path
       id="S-bottom-2-3"
       style="fill:none;stroke:#000000;stroke-width:1.00000036px;stroke-linecap:square;stroke-linejoin:miter;stroke-opacity:1;display:inline"
       d="m 210,369.5 0,-179.00024 M 190,369.5 190,190.49976"
       sodipodi:nodetypes="cccc"
       inkscape:connector-curvature="0" />
  </g>
  <g
     style="display:inline"
     inkscape:label="BLINE-001"
     layerid="element"
     id="element"
     inkscape:groupmode="layer">
    <path
       id="S-left-1-6-7-6"
       style="fill:#ffffff;stroke:none;display:inline"
       d="m 30.5,190 10.000237,0 318.999523,0 10.00024,0 0,20 -10.00024,0 L 40.500237,210 30.5,210 z"
       inkscape:connector-curvature="0"
       sodipodi:nodetypes="ccccccccc" />
    <path
       id="S-left-2-5"
       style="fill:none;stroke:#000000;stroke-width:1.00000036px;stroke-linecap:square;stroke-linejoin:miter;stroke-opacity:1;display:inline"
       d="M 369.5,210 359.49976,210 40.500237,210 30.5,210"
       sodipodi:nodetypes="cccc"
       inkscape:connector-curvature="0" />
  </g>
  <g
     style="display:inline"
     inkscape:label="TLINE-002"
     layerid="element"
     id="g3513"
     inkscape:groupmode="layer">
    <path
       sodipodi:nodetypes="ccaccc"
       d="m 369.5,190 -10.00024,0 C 275.55658,190 262.75187,90 200,90 137.24813,90 111.27758,190 40.500237,190 c 0,0 -6.821138,0 -10.000237,0 17.242522,9.95497 324.32394,8.47323 339,0 z"
       style="fill:#ffffff;stroke:none;display:inline"
       id="path3515-4"
       inkscape:connector-curvature="0" />
    <path
       sodipodi:nodetypes="ccacc"
       d="m 369.5,190 -10.00024,0 C 275.55658,190 262.75187,90 200,90 137.24813,90 111.27758,190 40.500237,190 L 30.5,190"
       style="fill:none;stroke:#000000;stroke-width:1.00000036px;stroke-linecap:square;stroke-linejoin:miter;stroke-opacity:1;display:inline"
       id="path3515"
       inkscape:connector-curvature="0" />
  </g>
</svg>
