<?xml version="1.0" encoding="UTF-8" standalone="no"?>
<!-- Created with Inkscape (http://www.inkscape.org/) -->
<svg
   xmlns:dc="http://purl.org/dc/elements/1.1/"
   xmlns:cc="http://creativecommons.org/ns#"
   xmlns:rdf="http://www.w3.org/1999/02/22-rdf-syntax-ns#"
   xmlns:svg="http://www.w3.org/2000/svg"
   xmlns="http://www.w3.org/2000/svg"
   xmlns:sodipodi="http://sodipodi.sourceforge.net/DTD/sodipodi-0.dtd"
   xmlns:inkscape="http://www.inkscape.org/namespaces/inkscape"
   style="display:inline"
   sodipodi:docname="4E93CE0DAE0FDB-R+_00_SW_UW_SW_.svg"
   inkscape:version="0.48.3.1 r9886"
   version="1.1"
   id="svg2902"
   height="400"
   width="400">
  
  <g
     style="display:inline"
     inkscape:label="H-004"
     id="g3454"
     inkscape:groupmode="layer">
    <path
       sodipodi:nodetypes="cccssccssccc"
       inkscape:connector-curvature="0"
       d="M 369.5,190 359.49976,190 84,190 c -3.878,0 -7,-3.122 -7,-7 L 77,54 c 0,-3.878 -3.122,-7 -7,-7 l -7,0 c -3.878,0 -7,3.122 -7,7 l 0,129 c 0,3.878 -3.122,7 -7,7 L 43.50024,190 30.5,190"
       style="color:#000000;fill:none;stroke:#000000;stroke-width:1;marker:none;visibility:visible;display:inline;overflow:visible;enable-background:accumulate"
       id="path3456" />
  </g>
  <g
     style="display:inline"
     inkscape:label="R-002"
     id="g3370"
     inkscape:groupmode="layer">
    <path
       id="path3372"
       style="color:#000000;fill:#ffffff;stroke:none;stroke-width:1;marker:none;visibility:visible;display:inline;overflow:visible;enable-background:accumulate"
       d="m 369.5,210 -11.00024,0 2.4e-4,-10.11693 c 0,-8.31 -5.6865,-15 -12.75,-15 -7.0635,0 -12.75,6.69 -12.75,15 l 0,159.61681 0,10.00012 36.5,0 z"
       inkscape:connector-curvature="0"
       sodipodi:nodetypes="cccsccccc" />
    <path
       sodipodi:nodetypes="cccsccc"
       inkscape:connector-curvature="0"
       d="m 333,369.5 0,-10.00012 0,-159.61681 c 0,-8.31 5.6865,-15 12.75,-15 7.0635,0 12.75,6.69 12.75,15 L 358.49976,210 369.5,210"
       style="color:#000000;fill:none;stroke:#000000;stroke-width:1;marker:none;visibility:visible;display:inline;overflow:visible;enable-background:accumulate"
       id="path3374" />
  </g>
  <g
     inkscape:groupmode="layer"
     id="g3311"
     inkscape:label="L-003"
     style="display:inline">
    <path
       id="path3313"
       style="color:#000000;fill:#ffffff;stroke:none;stroke-width:1;marker:none;visibility:visible;display:inline;overflow:visible;enable-background:accumulate"
       d="m 67,369.5 -36.5,0 0,-159.5 11.000237,0 L 41.5,61.88307 c 0,-1.662 1.338,-3 3,-3 l 19.5,0 c 1.662,0 3,1.338 3,3 z"
       inkscape:connector-curvature="0"
       sodipodi:nodetypes="cccccsscc" />
    <path
       sodipodi:nodetypes="cccssccc"
       inkscape:connector-curvature="0"
       d="m 67,369.5 0,-10.00012 0,-297.61681 c 0,-1.662 -1.338,-3 -3,-3 l -19.5,0 c -1.662,0 -3,1.338 -3,3 L 41.500237,210 30.5,210"
       style="color:#000000;fill:none;stroke:#000000;stroke-width:1;marker:none;visibility:visible;display:inline;overflow:visible;enable-background:accumulate"
       id="path3315" />
  </g>
</svg>
