<?xml version="1.0" encoding="UTF-8" standalone="no"?>
<!-- Created with Inkscape (http://www.inkscape.org/) -->
<svg
   xmlns:dc="http://purl.org/dc/elements/1.1/"
   xmlns:cc="http://creativecommons.org/ns#"
   xmlns:rdf="http://www.w3.org/1999/02/22-rdf-syntax-ns#"
   xmlns:svg="http://www.w3.org/2000/svg"
   xmlns="http://www.w3.org/2000/svg"
   xmlns:sodipodi="http://sodipodi.sourceforge.net/DTD/sodipodi-0.dtd"
   xmlns:inkscape="http://www.inkscape.org/namespaces/inkscape"
   style="display:inline"
   sodipodi:docname="4E93CE0D963192-R+_00_SW_UW_SW_.svg"
   inkscape:version="0.48.3.1 r9886"
   version="1.1"
   id="svg2902"
   height="400"
   width="400">
  
  <g
     inkscape:groupmode="layer"
     id="g3448"
     inkscape:label="H-003"
     style="display:inline">
    <path
       id="path3452"
       style="color:#000000;fill:none;stroke:#000000;stroke-width:1;marker:none;visibility:visible;display:inline;overflow:visible;enable-background:accumulate"
       d="M 369.5,190 359.49976,190 322,190 c -3.878,0 -7,-3.122 -7,-7 l 0,-129 c 0,-3.878 -3.122,-7 -7,-7 L 90,47 c -3.878,0 -7,3.122 -7,7 l 0,129 c 0,3.878 -3.122,7 -7,7 L 70.50024,190 30.5,190"
       inkscape:connector-curvature="0"
       sodipodi:nodetypes="cccssccssccc" />
  </g>
  <g
     style="display:inline"
     inkscape:label="R-006"
     id="g3420"
     inkscape:groupmode="layer">
    <path
       sodipodi:nodetypes="ccccscccc"
       inkscape:connector-curvature="0"
       d="m 333,369.5 36.5,0 0,-159.5 -7.4312,0 c -5.263,0 -9.5,-5.02171 -9.5,-11.25944 L 352.5,93.04163 c 0,-6.18184 -4.3485,-11.15856 -9.75,-11.15856 -5.4015,0 -9.75,4.97672 -9.75,11.15856 z"
       style="color:#000000;fill:#ffffff;stroke:none;stroke-width:0.99999994;marker:none;visibility:visible;display:inline;overflow:visible;enable-background:accumulate"
       id="path3432" />
    <path
       id="path3424"
       style="color:#000000;fill:none;stroke:#000000;stroke-width:0.99999994;marker:none;visibility:visible;display:inline;overflow:visible;enable-background:accumulate"
       d="m 333,369.5 0,-10.00012 0,-266.45825 c 0,-6.18184 4.3485,-11.15856 9.75,-11.15856 5.4015,0 9.75,4.97672 9.75,11.15856 l 0.0688,105.69893 c 0,6.23773 4.237,11.25944 9.5,11.25944 l 2.431,0 5.00024,0"
       inkscape:connector-curvature="0"
       sodipodi:nodetypes="cccsccscc" />
  </g>
  <g
     inkscape:groupmode="layer"
     id="g3311"
     inkscape:label="L-003"
     style="display:inline">
    <path
       id="path3313"
       style="color:#000000;fill:#ffffff;stroke:none;stroke-width:1;marker:none;visibility:visible;display:inline;overflow:visible;enable-background:accumulate"
       d="m 67,369.5 -36.5,0 0,-159.5 11.000237,0 L 41.5,61.88307 c 0,-1.662 1.338,-3 3,-3 l 19.5,0 c 1.662,0 3,1.338 3,3 z"
       inkscape:connector-curvature="0"
       sodipodi:nodetypes="cccccsscc" />
    <path
       sodipodi:nodetypes="cccssccc"
       inkscape:connector-curvature="0"
       d="m 67,369.5 0,-10.00012 0,-297.61681 c 0,-1.662 -1.338,-3 -3,-3 l -19.5,0 c -1.662,0 -3,1.338 -3,3 L 41.500237,210 30.5,210"
       style="color:#000000;fill:none;stroke:#000000;stroke-width:1;marker:none;visibility:visible;display:inline;overflow:visible;enable-background:accumulate"
       id="path3315" />
  </g>
</svg>
