<?xml version="1.0" encoding="UTF-8" standalone="no"?>
<!-- Created with Inkscape (http://www.inkscape.org/) -->
<svg
   xmlns:dc="http://purl.org/dc/elements/1.1/"
   xmlns:cc="http://creativecommons.org/ns#"
   xmlns:rdf="http://www.w3.org/1999/02/22-rdf-syntax-ns#"
   xmlns:svg="http://www.w3.org/2000/svg"
   xmlns="http://www.w3.org/2000/svg"
   xmlns:sodipodi="http://sodipodi.sourceforge.net/DTD/sodipodi-0.dtd"
   xmlns:inkscape="http://www.inkscape.org/namespaces/inkscape"
   style="display:inline"
   sodipodi:docname="4E93CE0D766A32-R+_00_SW_UW_SW_.svg"
   inkscape:version="0.48.3.1 r9886"
   version="1.1"
   id="svg2902"
   height="400"
   width="400">
  
  <g
     inkscape:groupmode="layer"
     id="layer2"
     inkscape:label="H-001"
     style="display:inline"
     sodipodi:insensitive="true">
    <path
       id="S-left-1-0-6"
       style="fill:none;stroke:#000000;stroke-width:1.00000036px;stroke-linecap:square;stroke-linejoin:miter;stroke-opacity:1;display:inline"
       d="M 369.5,190 359.49976,190 40.500237,190 30.5,190"
       inkscape:connector-curvature="0"
       sodipodi:nodetypes="cccc" />
  </g>
  <g
     inkscape:groupmode="layer"
     id="layer4"
     inkscape:label="R-001"
     style="display:inline">
    <path
       sodipodi:nodetypes="cccsccccc"
       inkscape:connector-curvature="0"
       d="m 369.5,210 -11.00024,0 2.4e-4,-42.11693 c 0,-8.31 -5.6865,-15 -12.75,-15 -7.0635,0 -12.75,6.69 -12.75,15 l 0,191.61681 0,10.00012 36.5,0 z"
       style="color:#000000;fill:#ffffff;stroke:none;stroke-width:1;marker:none;visibility:visible;display:inline;overflow:visible;enable-background:accumulate"
       id="path3368" />
    <path
       id="rect3266-3"
       style="color:#000000;fill:none;stroke:#000000;stroke-width:1;marker:none;visibility:visible;display:inline;overflow:visible;enable-background:accumulate"
       d="m 333,369.5 0,-10.00012 0,-191.61681 c 0,-8.31 5.6865,-15 12.75,-15 7.0635,0 12.75,6.69 12.75,15 L 358.49976,210 369.5,210"
       inkscape:connector-curvature="0"
       sodipodi:nodetypes="cccsccc" />
  </g>
  <g
     inkscape:groupmode="layer"
     id="layer3"
     inkscape:label="L-001"
     style="display:inline">
    <path
       sodipodi:nodetypes="ccssccccc"
       inkscape:connector-curvature="0"
       d="M 30.5,210 41.500237,210 41.5,162.88307 c 0,-5.54 4.46,-10 10,-10 l 5.5,0 c 5.54,0 10,4.46 10,10 l 0,206.61681 -36.5,0 z"
       style="color:#000000;fill:#ffffff;stroke:none;stroke-width:1;marker:none;visibility:visible;display:inline;overflow:visible;enable-background:accumulate"
       id="path3297" />
    <path
       id="rect3264-6"
       style="color:#000000;fill:none;stroke:#000000;stroke-width:1;marker:none;visibility:visible;display:inline;overflow:visible;enable-background:accumulate"
       d="m 67,369.5 0,-10.00012 0,-196.61681 c 0,-5.54 -4.46,-10 -10,-10 l -5.5,0 c -5.54,0 -10,4.46 -10,10 L 41.500237,210 30.5,210"
       inkscape:connector-curvature="0"
       sodipodi:nodetypes="cccssccc" />
  </g>
</svg>
