<?xml version="1.0" encoding="UTF-8" standalone="no"?>
<!-- Created with Inkscape (http://www.inkscape.org/) -->
<svg
   xmlns:dc="http://purl.org/dc/elements/1.1/"
   xmlns:cc="http://creativecommons.org/ns#"
   xmlns:rdf="http://www.w3.org/1999/02/22-rdf-syntax-ns#"
   xmlns:svg="http://www.w3.org/2000/svg"
   xmlns="http://www.w3.org/2000/svg"
   xmlns:sodipodi="http://sodipodi.sourceforge.net/DTD/sodipodi-0.dtd"
   xmlns:inkscape="http://www.inkscape.org/namespaces/inkscape"
   width="400"
   height="400"
   id="svg2902"
   version="1.1"
   inkscape:version="0.48.3.1 r9886"
   sodipodi:docname="511B993A66B689CF7_00_00_SW_00_.svg"
   style="display:inline">
  
  <g
     inkscape:groupmode="layer"
     id="g3651"
     inkscape:label="MONSTER-001"
     style="display:inline">
    <path
       id="S-bottom-2-5-3-2"
       style="fill:#ffffff;stroke:none;display:inline"
       d="m 190,135.49976 0,234.00024 20,0 0,-234.00024 z"
       inkscape:connector-curvature="0"
       sodipodi:nodetypes="ccccc" />
    <path
       id="S-bottom-2-5-3"
       style="fill:none;stroke:#000000;stroke-width:1.00000036px;stroke-linecap:square;stroke-linejoin:miter;stroke-opacity:1;display:inline"
       d="m 210,369.5 0,-234.00024 M 190,369.5 190,135.49976"
       inkscape:connector-curvature="0"
       sodipodi:nodetypes="cccc" />
    <path
       style="color:#000000;fill:#ffffff;stroke:none;stroke-width:1;marker:none;visibility:visible;display:inline;overflow:visible;enable-background:accumulate"
       d="m 220.46206,73.292274 c 13.61374,1.462403 24.11768,12.208729 24.11768,25.331266 l 0,12.4992 0,0 c 0,14.12744 -12.17429,25.5008 -27.29662,25.5008 l -66.8049,0 c -13.99586,0 -24.3631,-11.55179 -27.29662,-25.5008 l 59.26241,0 0,-12.4992 -59.26241,0 c 2.93352,-13.94901 13.30076,-25.5008 27.29662,-25.5008 l 51.48231,0 z"
       id="rect7245-4-7"
       inkscape:connector-curvature="0"
       sodipodi:nodetypes="csccssccccscc" />
    <path
       style="color:#000000;fill:none;stroke:#ff0000;stroke-width:1;stroke-linecap:square;stroke-linejoin:bevel;stroke-miterlimit:4;stroke-opacity:1;stroke-dashoffset:3;marker:none;visibility:visible;display:inline;overflow:visible;enable-background:accumulate"
       d="m 220.46206,73.292276 c 13.61374,1.462403 24.11768,12.208729 24.11768,25.331266 l 0,12.499198 0,0 c 0,14.12744 -12.17429,25.5008 -27.29662,25.5008 l -66.8049,0 c -13.99586,0 -24.3631,-11.55179 -27.29662,-25.5008 l 59.26241,0 0,-12.499198 -59.26241,0 c 2.93352,-13.94901 13.30076,-25.5008 27.29662,-25.5008 l 51.48231,0"
       id="rect7245-4"
       inkscape:connector-curvature="0"
       sodipodi:nodetypes="csccssccccsc" />
    <path
       id="path3598-8-02-1-4"
       d="m 219.38966,98.246278 c 0,4.490742 -3.64047,8.131212 -8.13121,8.131212 -4.49075,0 -8.13121,-3.64047 -8.13121,-8.131212 0,-4.49075 3.64046,-8.13122 8.13121,-8.13122 4.49074,0 8.13121,3.64047 8.13121,8.13122 z"
       style="color:#000000;fill:none;stroke:#ff0000;stroke-width:1;stroke-linecap:butt;stroke-linejoin:miter;stroke-miterlimit:4;stroke-opacity:1;stroke-dashoffset:3;marker:none;visibility:visible;display:inline;overflow:visible;enable-background:accumulate"
       inkscape:connector-curvature="0" />
    <path
       id="path3598-8-02-1-2-8"
       d="m 215.33314,98.246278 c 0,2.250392 -1.8243,4.074692 -4.07469,4.074692 -2.25039,0 -4.07469,-1.8243 -4.07469,-4.074692 0,-2.250397 1.8243,-4.074699 4.07469,-4.074699 2.25039,0 4.07469,1.824302 4.07469,4.074699 z"
       style="color:#000000;fill:none;stroke:#ff0000;stroke-width:1;stroke-linecap:butt;stroke-linejoin:miter;stroke-miterlimit:4;stroke-opacity:1;stroke-dashoffset:3;marker:none;visibility:visible;display:inline;overflow:visible;enable-background:accumulate"
       inkscape:connector-curvature="0" />
    <path
       style="color:#000000;fill:none;stroke:#ff0000;stroke-width:0.99999994;stroke-linecap:square;stroke-linejoin:bevel;stroke-miterlimit:4;stroke-opacity:1;stroke-dashoffset:3;marker:none;visibility:visible;display:inline;overflow:visible;enable-background:accumulate"
       d="m 223.00894,49.746512 -11.7505,32.38584 -11.75049,-32.38584"
       id="rect7236-3"
       inkscape:connector-curvature="0"
       sodipodi:nodetypes="ccc" />
  </g>
</svg>
