<?xml version="1.0" encoding="UTF-8" standalone="no"?>
<!-- Created with Inkscape (http://www.inkscape.org/) -->
<svg
   xmlns:dc="http://purl.org/dc/elements/1.1/"
   xmlns:cc="http://creativecommons.org/ns#"
   xmlns:rdf="http://www.w3.org/1999/02/22-rdf-syntax-ns#"
   xmlns:svg="http://www.w3.org/2000/svg"
   xmlns="http://www.w3.org/2000/svg"
   xmlns:sodipodi="http://sodipodi.sourceforge.net/DTD/sodipodi-0.dtd"
   xmlns:inkscape="http://www.inkscape.org/namespaces/inkscape"
   width="400"
   height="400"
   id="svg2902"
   version="1.1"
   inkscape:version="0.48.3.1 r9886"
   sodipodi:docname="511B993A12130CA3D_00_00_SW_00_.svg"
   style="display:inline">
  
  <g
     inkscape:groupmode="layer"
     id="g3808"
     inkscape:label="MONSTER-005"
     style="display:inline">
    <path
       id="S-bottom-2-5-16-6"
       style="fill:#ffffff;stroke:none;display:inline"
       d="m 210,255.49976 0,114.00024 -20,0 0,-114.00024 z"
       inkscape:connector-curvature="0"
       sodipodi:nodetypes="ccccc" />
    <path
       id="S-bottom-2-5-16"
       style="fill:none;stroke:#000000;stroke-width:1.00000036px;stroke-linecap:square;stroke-linejoin:miter;stroke-opacity:1;display:inline"
       d="m 210,369.5 0,-114.00024 M 190,369.5 190,255.49976"
       inkscape:connector-curvature="0"
       sodipodi:nodetypes="cccc" />
    <path
       sodipodi:nodetypes="ccsccccccccccccccccccsccc"
       inkscape:connector-curvature="0"
       d="m 230.36038,235.40112 c 0,14.12744 -12.17429,25.5008 -27.29662,25.5008 0,0 -52.80903,0 -66.80489,0 -13.99586,0 -24.3631,-11.55179 -27.29662,-25.5008 l 7.4078,-2 7.4078,4 7.4078,-4 7.40781,4 7.4078,-4 7.4078,4 7.4078,-4 7.4078,4 0,-12.4992 -7.4078,-4 -7.4078,4 -7.4078,-4 -7.4078,4 -7.40781,-4 -7.4078,4 -7.4078,-4 -7.4078,2 c 2.93352,-13.94901 13.30076,-25.5008 27.29662,-25.5008 13.99586,0 66.80489,0 66.80489,0 15.12233,0 27.29662,11.37336 27.29662,25.5008 z"
       style="color:#000000;fill:#ffffff;stroke:none;stroke-width:1;marker:none;visibility:visible;display:inline;overflow:visible;enable-background:accumulate"
       id="path3812" />
    <path
       sodipodi:nodetypes="cssccssccccccccccccccccccc"
       inkscape:connector-curvature="0"
       id="path3814"
       d="m 153.64341,197.40112 49.42035,0 c 15.12233,0 27.29662,11.37336 27.29662,25.5008 l 0,12.4992 0,0 c 0,14.12744 -12.17429,25.5008 -27.29662,25.5008 l -66.80489,0 c -13.99586,0 -24.3631,-11.55179 -27.29662,-25.5008 l 7.4078,-2 7.4078,4 7.4078,-4 7.40781,4 7.4078,-4 7.4078,4 7.4078,-4 7.4078,4 0,-12.4992 -7.4078,-4 -7.4078,4 -7.4078,-4 -7.4078,4 -7.40781,-4 -7.4078,4 -7.4078,-4 -7.4078,2 c 2.93352,-13.94901 13.30076,-25.5008 27.29662,-25.5008"
       style="color:#000000;fill:none;stroke:#ff0000;stroke-width:1;stroke-linecap:square;stroke-linejoin:bevel;stroke-miterlimit:4;stroke-opacity:1;stroke-dashoffset:3;marker:none;visibility:visible;display:inline;overflow:visible;enable-background:accumulate" />
    <path
       inkscape:connector-curvature="0"
       style="color:#000000;fill:none;stroke:#00ff00;stroke-width:1;stroke-linecap:butt;stroke-linejoin:miter;stroke-miterlimit:4;stroke-opacity:1;stroke-dashoffset:3;marker:none;visibility:visible;display:inline;overflow:visible;enable-background:accumulate"
       d="m 211.13501,222.52466 c 0,5.57582 -4.5201,10.09592 -10.09592,10.09592 -5.57583,0 -10.09592,-4.5201 -10.09592,-10.09592 0,-5.57583 4.52009,-10.09593 10.09592,-10.09593 5.57582,0 10.09592,4.5201 10.09592,10.09593 z"
       id="path3816" />
    <path
       sodipodi:nodetypes="cccc"
       inkscape:connector-curvature="0"
       id="path3818-9"
       d="m 133.2886,206.41073 11.75049,-32.38584 11.75049,32.38584 z"
       style="color:#000000;fill:#ffffff;stroke:none;stroke-width:0.99999994;marker:none;visibility:visible;display:inline;overflow:visible;enable-background:accumulate" />
    <path
       sodipodi:nodetypes="ccc"
       inkscape:connector-curvature="0"
       id="path3818"
       d="m 133.2886,206.41073 11.75049,-32.38584 11.75049,32.38584"
       style="color:#000000;fill:none;stroke:#00ff00;stroke-width:0.99999994;stroke-linecap:square;stroke-linejoin:bevel;stroke-miterlimit:4;stroke-opacity:1;stroke-dashoffset:3;marker:none;visibility:visible;display:inline;overflow:visible;enable-background:accumulate" />
  </g>
</svg>
