<?xml version="1.0" encoding="UTF-8" standalone="no"?>
<!-- Created with Inkscape (http://www.inkscape.org/) -->
<svg
   xmlns:dc="http://purl.org/dc/elements/1.1/"
   xmlns:cc="http://creativecommons.org/ns#"
   xmlns:rdf="http://www.w3.org/1999/02/22-rdf-syntax-ns#"
   xmlns:svg="http://www.w3.org/2000/svg"
   xmlns="http://www.w3.org/2000/svg"
   xmlns:sodipodi="http://sodipodi.sourceforge.net/DTD/sodipodi-0.dtd"
   xmlns:inkscape="http://www.inkscape.org/namespaces/inkscape"
   width="400"
   height="400"
   id="svg2902"
   version="1.1"
   inkscape:version="0.48.3.1 r9886"
   sodipodi:docname="511B81C0D6575418D_00_SW_00_00_.svg"
   style="display:inline">
  
  <g
     style="display:inline"
     inkscape:label="TUBE-002"
     id="g3742"
     inkscape:groupmode="layer">
    <path
       id="path3744-0"
       style="font-size:medium;font-style:normal;font-variant:normal;font-weight:normal;font-stretch:normal;text-indent:0;text-align:start;text-decoration:none;line-height:normal;letter-spacing:normal;word-spacing:normal;text-transform:none;direction:ltr;block-progression:tb;writing-mode:lr-tb;text-anchor:start;baseline-shift:baseline;color:#000000;fill:#ffffff;stroke:none;stroke-width:1;marker:none;visibility:visible;display:inline;overflow:visible;enable-background:accumulate;font-family:Sans;-inkscape-font-specification:Sans"
       d="m 369.5,210 -10.00024,0 c -5.51567,7.6e-4 -11.03135,7.3e-4 -16.54702,7.3e-4 -3.266,0 -5.8125,2.45 -5.8125,6.15625 -0.001,31.45552 0.041,10.42396 0.031,45.8125 0,14.20177 -11.5684,26.15625 -25.8125,26.15625 l -60.2187,0 c -14.2441,0 -25.8125,-11.95448 -25.8125,-26.15625 l 0,-20.78125 20,0 0,20.78125 c 0,3.70625 2.5464,6.15625 5.8125,6.15625 l 60.2187,0 c 3.266,0 5.8125,-2.45 5.8125,-6.15625 0,-37.84736 -0.031,-7.6771 -0.031,-45.81255 0,-14.20177 11.5685,-26.15625 25.8125,-26.15625 3.75572,0 10.07938,2.1e-4 16.54702,-6.8e-4 L 369.5,190 z"
       inkscape:connector-curvature="0"
       sodipodi:nodetypes="cccccsssccssssscccc" />
    <path
       id="path3744"
       style="font-size:medium;font-style:normal;font-variant:normal;font-weight:normal;font-stretch:normal;text-indent:0;text-align:start;text-decoration:none;line-height:normal;letter-spacing:normal;word-spacing:normal;text-transform:none;direction:ltr;block-progression:tb;writing-mode:lr-tb;text-anchor:start;baseline-shift:baseline;color:#000000;fill:none;stroke:#000000;stroke-width:1;stroke-miterlimit:4;stroke-dasharray:none;marker:none;visibility:visible;display:inline;overflow:visible;enable-background:accumulate;font-family:Sans;-inkscape-font-specification:Sans"
       d="m 369.5,210 -10.00024,0 c -5.51567,7.6e-4 -11.03135,7.3e-4 -16.54702,7.3e-4 -3.266,0 -5.8125,2.45 -5.8125,6.15625 -0.001,31.45552 0.041,10.42396 0.031,45.8125 0,14.20177 -11.5684,26.15625 -25.8125,26.15625 l -60.2187,0 c -14.2441,0 -25.8125,-11.95448 -25.8125,-26.15625 l 0,-20.78125 M 369.5,190 l -10.00024,0 c -6.46764,8.9e-4 -12.7913,6.8e-4 -16.54702,6.8e-4 -14.244,0 -25.8125,11.95448 -25.8125,26.15625 0,38.13545 0.031,7.96519 0.031,45.81255 0,3.70625 -2.5465,6.15625 -5.8125,6.15625 l -60.2187,0 c -3.2661,0 -5.8125,-2.45 -5.8125,-6.15625 l 0,-20.78125"
       inkscape:connector-curvature="0"
       sodipodi:nodetypes="cccccsssccccsssssc" />
  </g>
  <g
     inkscape:groupmode="layer"
     id="g3651"
     inkscape:label="MONSTER-001"
     style="display:inline">
    <path
       sodipodi:nodetypes="ccccc"
       inkscape:connector-curvature="0"
       d="m 245.32754,131.18823 0,120.78125 -20,0 0,-120.78125 z"
       style="font-size:medium;font-style:normal;font-variant:normal;font-weight:normal;font-stretch:normal;text-indent:0;text-align:start;text-decoration:none;line-height:normal;letter-spacing:normal;word-spacing:normal;text-transform:none;direction:ltr;block-progression:tb;writing-mode:lr-tb;text-anchor:start;baseline-shift:baseline;color:#000000;fill:#ffffff;stroke:none;stroke-width:1;marker:none;visibility:visible;display:inline;overflow:visible;enable-background:accumulate;font-family:Sans;-inkscape-font-specification:Sans"
       id="path3650-1-6" />
    <path
       sodipodi:nodetypes="cccc"
       inkscape:connector-curvature="0"
       d="m 225.32754,251.96948 0,-120.78125 m 20,120.78125 0,-120.78125"
       style="font-size:medium;font-style:normal;font-variant:normal;font-weight:normal;font-stretch:normal;text-indent:0;text-align:start;text-decoration:none;line-height:normal;letter-spacing:normal;word-spacing:normal;text-transform:none;direction:ltr;block-progression:tb;writing-mode:lr-tb;text-anchor:start;baseline-shift:baseline;color:#000000;fill:none;stroke:#000000;stroke-width:1;stroke-miterlimit:4;stroke-dasharray:none;marker:none;visibility:visible;display:inline;overflow:visible;enable-background:accumulate;font-family:Sans;-inkscape-font-specification:Sans"
       id="path3650-1" />
    <path
       style="color:#000000;fill:#ffffff;stroke:none;stroke-width:0.99999994;marker:none;visibility:visible;display:inline;overflow:visible;enable-background:accumulate"
       d="m 236.49857,82.13235 11.7505,-32.38584 11.75049,32.38584"
       id="rect7236-3-4"
       inkscape:connector-curvature="0"
       sodipodi:nodetypes="ccc" />
    <path
       style="color:#000000;fill:#ffffff;stroke:none;stroke-width:1;marker:none;visibility:visible;display:inline;overflow:visible;enable-background:accumulate"
       d="m 258.46206,73.292274 c 13.61374,1.462403 24.11768,12.208729 24.11768,25.331266 l 0,12.4992 0,0 c 0,14.12744 -12.17429,25.5008 -27.29662,25.5008 l -66.8049,0 c -13.99586,0 -24.3631,-11.55179 -27.29662,-25.5008 l 59.26241,0 0,-12.4992 -59.26241,0 c 2.93352,-13.94901 13.30076,-25.5008 27.29662,-25.5008 l 51.48231,0 z"
       id="rect7245-4-1"
       inkscape:connector-curvature="0"
       sodipodi:nodetypes="csccssccccscc" />
    <path
       style="color:#000000;fill:none;stroke:#ff0000;stroke-width:1;stroke-linecap:square;stroke-linejoin:bevel;stroke-miterlimit:4;stroke-opacity:1;stroke-dashoffset:3;marker:none;visibility:visible;display:inline;overflow:visible;enable-background:accumulate"
       d="m 258.46206,73.292276 c 13.61374,1.462403 24.11768,12.208729 24.11768,25.331266 l 0,12.499198 0,0 c 0,14.12744 -12.17429,25.5008 -27.29662,25.5008 l -66.8049,0 c -13.99586,0 -24.3631,-11.55179 -27.29662,-25.5008 l 59.26241,0 0,-12.499198 -59.26241,0 c 2.93352,-13.94901 13.30076,-25.5008 27.29662,-25.5008 l 51.48231,0"
       id="rect7245-4"
       inkscape:connector-curvature="0"
       sodipodi:nodetypes="csccssccccsc" />
    <path
       id="path3598-8-02-1-4"
       d="m 259.35437,98.246279 c 0,5.575821 -4.5201,10.095921 -10.09592,10.095921 -5.57583,0 -10.09592,-4.5201 -10.09592,-10.095921 0,-5.57583 4.52009,-10.09593 10.09592,-10.09593 5.57582,0 10.09592,4.5201 10.09592,10.09593 z"
       style="color:#000000;fill:none;stroke:#ff0000;stroke-width:1;stroke-linecap:butt;stroke-linejoin:miter;stroke-miterlimit:4;stroke-opacity:1;stroke-dashoffset:3;marker:none;visibility:visible;display:inline;overflow:visible;enable-background:accumulate"
       inkscape:connector-curvature="0" />
    <path
       id="path3598-8-02-1-2-8"
       d="m 254.31769,98.246279 c 0,2.794141 -2.2651,5.059241 -5.05924,5.059241 -2.79414,0 -5.05924,-2.2651 -5.05924,-5.059241 0,-2.79415 2.2651,-5.05925 5.05924,-5.05925 2.79414,0 5.05924,2.2651 5.05924,5.05925 z"
       style="color:#000000;fill:none;stroke:#ff0000;stroke-width:1;stroke-linecap:butt;stroke-linejoin:miter;stroke-miterlimit:4;stroke-opacity:1;stroke-dashoffset:3;marker:none;visibility:visible;display:inline;overflow:visible;enable-background:accumulate"
       inkscape:connector-curvature="0" />
    <path
       style="color:#000000;fill:none;stroke:#ff0000;stroke-width:0.99999994;stroke-linecap:square;stroke-linejoin:bevel;stroke-miterlimit:4;stroke-opacity:1;stroke-dashoffset:3;marker:none;visibility:visible;display:inline;overflow:visible;enable-background:accumulate"
       d="m 237.50795,82.132352 11.7505,-32.38584 11.75049,32.38584"
       id="rect7236-3"
       inkscape:connector-curvature="0"
       sodipodi:nodetypes="ccc" />
  </g>
</svg>
