<?xml version="1.0" encoding="UTF-8" standalone="no"?>
<!-- Created with Inkscape (http://www.inkscape.org/) -->
<svg
   xmlns:dc="http://purl.org/dc/elements/1.1/"
   xmlns:cc="http://creativecommons.org/ns#"
   xmlns:rdf="http://www.w3.org/1999/02/22-rdf-syntax-ns#"
   xmlns:svg="http://www.w3.org/2000/svg"
   xmlns="http://www.w3.org/2000/svg"
   xmlns:sodipodi="http://sodipodi.sourceforge.net/DTD/sodipodi-0.dtd"
   xmlns:inkscape="http://www.inkscape.org/namespaces/inkscape"
   width="400"
   height="400"
   id="svg2902"
   version="1.1"
   inkscape:version="0.48.3.1 r9886"
   sodipodi:docname="511B993A8B69B1487_00_00_SW_00_.svg"
   style="display:inline">
  
  <g
     style="display:inline"
     inkscape:label="MONSTER-004"
     id="g3758"
     inkscape:groupmode="layer">
    <path
       id="S-bottom-2-5-1-5"
       style="fill:#ffffff;stroke:none;display:inline"
       d="m 210,135.49976 0,234.00024 -20,0 0,-234.00024 z"
       inkscape:connector-curvature="0"
       sodipodi:nodetypes="ccccc" />
    <path
       id="S-bottom-2-5-1"
       style="fill:none;stroke:#000000;stroke-width:1.00000036px;stroke-linecap:square;stroke-linejoin:miter;stroke-opacity:1;display:inline"
       d="m 210,369.5 0,-234.00024 M 190,369.5 190,135.49976"
       inkscape:connector-curvature="0"
       sodipodi:nodetypes="cccc" />
    <path
       style="color:#000000;fill:#ffffff;stroke:none;stroke-width:0.99999994;marker:none;visibility:visible;display:inline;overflow:visible;enable-background:accumulate"
       d="m 169.75734,48.928591 31.2091,-14.591397 -14.5914,31.209099 z"
       id="rect7236-3-5-3-0"
       inkscape:connector-curvature="0"
       sodipodi:nodetypes="cccc" />
    <path
       style="color:#000000;fill:none;stroke:#ff00ff;stroke-width:0.99999994;stroke-linecap:square;stroke-linejoin:bevel;stroke-miterlimit:4;stroke-opacity:1;stroke-dashoffset:3;marker:none;visibility:visible;display:inline;overflow:visible;enable-background:accumulate"
       d="m 169.75734,48.928591 31.2091,-14.591397 -14.5914,31.209099"
       id="rect7236-3-5-3"
       inkscape:connector-curvature="0"
       sodipodi:nodetypes="ccc" />
    <path
       id="rect7245-4-6-7-8"
       style="color:#000000;fill:#ffffff;stroke:none;stroke-width:1;marker:none;visibility:visible;display:inline;overflow:visible;enable-background:accumulate"
       d="m 217.89816,138.06801 c -9.98961,9.9896 -26.64032,9.42326 -37.33342,-1.26984 0,0 -37.34162,-37.34162 -47.23819,-47.23819 -9.89657,-9.89657 -9.05896,-25.395664 -1.26984,-37.333416 l 6.65232,3.823892 2.40968,8.066533 8.06654,2.409679 2.40968,8.06654 8.06653,2.409678 2.40968,8.066534 8.06653,2.40968 2.40968,8.06653 8.83827,-8.83827 -2.40968,-8.066532 -8.06653,-2.409678 -2.40968,-8.066533 -8.06653,-2.409679 -2.40969,-8.066539 -8.06653,-2.409679 -2.40968,-8.066533 -6.65232,-3.823892 c 11.93775,-7.789127 27.43685,-8.626731 37.33342,1.269837 9.89656,9.896567 47.23819,47.238188 47.23819,47.238188 10.6931,10.6931 11.25944,27.34381 1.26983,37.33342 z"
       inkscape:connector-curvature="0"
       sodipodi:nodetypes="ccsccccccccccccccccccsccc" />
    <path
       style="color:#000000;fill:none;stroke:#ff00ff;stroke-width:1;stroke-linecap:square;stroke-linejoin:bevel;stroke-miterlimit:4;stroke-opacity:1;stroke-dashoffset:3;marker:none;visibility:visible;display:inline;overflow:visible;enable-background:accumulate"
       d="m 190.52112,56.950858 34.94547,34.945462 c 10.6931,10.6931 11.25944,27.34381 1.26983,37.33342 l -8.83826,8.83827 0,0 c -9.98961,9.9896 -26.64032,9.42326 -37.33342,-1.26984 L 133.32655,89.55998 c -9.89657,-9.89657 -9.05896,-25.395664 -1.26984,-37.333416 l 6.65232,3.823892 2.40968,8.066533 8.06654,2.409679 2.40968,8.06654 8.06653,2.409678 2.40968,8.066534 8.06653,2.40968 2.40968,8.06653 8.83827,-8.83827 -2.40968,-8.066532 -8.06653,-2.409678 -2.40968,-8.066533 -8.06653,-2.409679 -2.40969,-8.066539 -8.06653,-2.409679 -2.40968,-8.066533 -6.65232,-3.823892 c 11.93775,-7.789127 27.43685,-8.626731 37.33342,1.269837"
       id="rect7245-4-6-7"
       inkscape:connector-curvature="0"
       sodipodi:nodetypes="cssccssccccccccccccccccccc" />
    <path
       id="path3598-8-02-1-4-7-0"
       d="m 213.4088,115.36858 c -3.9427,3.9427 -10.33509,3.9427 -14.27779,0 -3.94271,-3.9427 -3.9427,-10.33508 0,-14.27778 3.94271,-3.94271 10.33509,-3.94272 14.2778,-1e-5 3.9427,3.9427 3.9427,10.33509 -10e-6,14.27779 z"
       style="color:#000000;fill:none;stroke:#ff00ff;stroke-width:1;stroke-linecap:butt;stroke-linejoin:miter;stroke-miterlimit:4;stroke-opacity:1;stroke-dashoffset:3;marker:none;visibility:visible;display:inline;overflow:visible;enable-background:accumulate"
       inkscape:connector-curvature="0" />
  </g>
</svg>
