<?xml version="1.0" encoding="UTF-8" standalone="no"?>
<!-- Created with Inkscape (http://www.inkscape.org/) -->
<svg
   xmlns:dc="http://purl.org/dc/elements/1.1/"
   xmlns:cc="http://creativecommons.org/ns#"
   xmlns:rdf="http://www.w3.org/1999/02/22-rdf-syntax-ns#"
   xmlns:svg="http://www.w3.org/2000/svg"
   xmlns="http://www.w3.org/2000/svg"
   xmlns:sodipodi="http://sodipodi.sourceforge.net/DTD/sodipodi-0.dtd"
   xmlns:inkscape="http://www.inkscape.org/namespaces/inkscape"
   style="display:inline"
   sodipodi:docname="51C8CFDDD1D144-R+_00_00_SW_00_.svg"
   inkscape:version="0.48.3.1 r9886"
   version="1.1"
   id="svg2902"
   height="400"
   width="400">
  
  <g
     style="display:inline"
     inkscape:label="H-002"
     id="g3853"
     inkscape:groupmode="layer">
    <path
       id="path3871"
       style="fill:#ffffff;stroke:none;stroke-width:1.00000036000000003px;stroke-linecap:square;stroke-linejoin:miter;stroke-opacity:1;display:inline"
       d="m 188.0544,106.64253 0.13792,-10.608364 c 0,-11.516964 12.31252,-10.2174 12.31252,-0.489397 l 0.39843,14.093131 c -0.017,-5.47684 11.88958,-10.165746 12.75679,1.68231 0.0962,1.31412 4.93606,57.65074 4.93606,57.65074 2.62943,-0.70198 5.37887,0.15774 6.39999,2.61663 2.31918,5.82862 7.96988,17.36702 13.60338,25.49926 -2.8941,18.46914 -2.70416,19.97619 -3.52279,29.99654 -1.24124,15.19412 -15.59067,24.3107 -16.34339,38.9791 -6.29019,41.98885 -5.82186,48.26642 -8.73331,93.43723 l 0,10.00029 -20,0 0,-10.33472 c 0.52814,-33.27297 -1.12675,-52.21941 -7.5291,-82.32646 -3.96003,-18.62203 -22.12893,-30.59978 -24.59431,-51.54879 -3.7821,-32.13758 4.58936,-62.14901 5.67298,-96.92584 0.30443,-9.76965 10.81594,-9.46661 11.31642,-1.43073 0.3812,-6.95467 0.7759,-13.75633 1.20518,-20.13773 0.51213,-9.864216 11.8797,-9.953743 11.8797,-0.2396"
       inkscape:connector-curvature="0"
       sodipodi:nodetypes="ccccccccscccccsssccc" />
    <path
       style="opacity:1;color:#000000;fill:none;stroke:#0000ff;stroke-width:1;stroke-linecap:round;stroke-linejoin:round;stroke-miterlimit:4;stroke-opacity:1;stroke-dasharray:none;stroke-dashoffset:0;marker:none;visibility:visible;display:inline;overflow:visible;enable-background:accumulate"
       d="m 171.2927,186.69403 c 2.1485,-28.83599 3.24206,-57.05885 4.77847,-79.8983 0.51213,-9.864216 11.8797,-9.953743 11.8797,-0.2396"
       id="path3857"
       inkscape:connector-curvature="0"
       sodipodi:nodetypes="ccc" />
    <path
       style="opacity:1;color:#000000;fill:none;stroke:#0000ff;stroke-width:1;stroke-linecap:round;stroke-linejoin:round;stroke-miterlimit:4;stroke-opacity:1;stroke-dasharray:none;stroke-dashoffset:0;marker:none;visibility:visible;display:inline;overflow:visible;enable-background:accumulate"
       d="m 187.10588,179.59783 1.08644,-83.563614 c 0,-11.516964 12.31252,-10.2174 12.31252,-0.489397 l 2.17277,79.159101"
       id="path3859"
       inkscape:connector-curvature="0"
       sodipodi:nodetypes="cccc" />
    <path
       style="opacity:1;color:#000000;fill:none;stroke:#0000ff;stroke-width:1;stroke-linecap:round;stroke-linejoin:round;stroke-miterlimit:4;stroke-opacity:1;stroke-dasharray:none;stroke-dashoffset:0;marker:none;visibility:visible;display:inline;overflow:visible;enable-background:accumulate"
       d="m 200.9124,109.54674 c -0.0261,-5.38563 11.88048,-10.074536 12.74769,1.77352 0.0962,1.31412 4.96359,57.53115 4.96359,57.53115"
       id="path3861"
       inkscape:connector-curvature="0"
       sodipodi:nodetypes="csc" />
    <path
       sodipodi:nodetypes="cssscccccsccscc"
       inkscape:connector-curvature="0"
       d="m 174.8776,126.77026 c -0.51209,-7.87268 -11.0236,-8.17572 -11.32803,1.59393 -1.08362,34.77683 -9.45508,64.78826 -5.67298,96.92584 2.46538,20.94901 20.63428,32.92676 24.59431,51.54879 6.40235,30.10705 8.05724,49.05349 7.5291,82.32646 L 190,369.5 m 20,0 0,-10.00024 c 2.91145,-45.17081 2.44312,-51.44838 8.73331,-93.43723 0.75272,-14.6684 15.10215,-23.78498 16.34339,-38.9791 0.81863,-10.02035 0.62869,-11.5274 3.52279,-29.99654 -5.6335,-8.13224 -11.2842,-19.67064 -13.60338,-25.49926 -2.47281,-5.9546 -15.08121,-2.53094 -11.96696,11.43708 2.6124,11.71711 6.70416,21.21054 6.70416,21.21054 -14.13318,16.93453 -29.42813,14.76453 -38.92223,35.29732"
       style="fill:none;stroke:#000000;stroke-width:1;stroke-linecap:butt;stroke-linejoin:miter;stroke-opacity:1;display:inline;opacity:1;stroke-miterlimit:4;stroke-dasharray:none"
       id="path3863" />
  </g>
</svg>
