<?xml version="1.0" encoding="UTF-8" standalone="no"?>
<!-- Created with Inkscape (http://www.inkscape.org/) -->
<svg
   xmlns:dc="http://purl.org/dc/elements/1.1/"
   xmlns:cc="http://creativecommons.org/ns#"
   xmlns:rdf="http://www.w3.org/1999/02/22-rdf-syntax-ns#"
   xmlns:svg="http://www.w3.org/2000/svg"
   xmlns="http://www.w3.org/2000/svg"
   xmlns:sodipodi="http://sodipodi.sourceforge.net/DTD/sodipodi-0.dtd"
   xmlns:inkscape="http://www.inkscape.org/namespaces/inkscape"
   style="display:inline"
   sodipodi:docname="5DFC82C105ADB3-R+_CW_CW_CW_00_.svg"
   inkscape:version="0.48.3.1 r9886"
   version="1.1"
   id="svg2902"
   height="400"
   width="400">
  
  <g
     style="display:inline"
     inkscape:label="ELEMENT-002"
     id="g3357"
     inkscape:groupmode="layer">
    <path
       style="font-size:medium;font-style:normal;font-variant:normal;font-weight:normal;font-stretch:normal;text-indent:0;text-align:start;text-decoration:none;line-height:normal;letter-spacing:normal;word-spacing:normal;text-transform:none;direction:ltr;block-progression:tb;writing-mode:lr-tb;text-anchor:start;baseline-shift:baseline;color:#000000;fill:#ffffff;fill-opacity:1;stroke:none;stroke-width:1;marker:none;visibility:visible;display:inline;overflow:visible;enable-background:accumulate;font-family:Sans;-inkscape-font-specification:Sans"
       d="m 307,30.5 0,13.59375 C 307,70.954749 329.014,93 355.875,93 l 13.625,0 0,-26 -13.625,0 C 342.96828,67 333,57.000473 333,44.09375 L 333,30.5 z"
       id="rect3377-7"
       inkscape:connector-curvature="0"
       sodipodi:nodetypes="cssccsscc" />
    <path
       style="font-size:medium;font-style:normal;font-variant:normal;font-weight:normal;font-stretch:normal;text-indent:0;text-align:start;text-decoration:none;line-height:normal;letter-spacing:normal;word-spacing:normal;text-transform:none;direction:ltr;block-progression:tb;writing-mode:lr-tb;text-anchor:start;baseline-shift:baseline;color:#000000;fill:#ffffff;fill-opacity:1;stroke:none;stroke-width:1;marker:none;visibility:visible;display:inline;overflow:visible;enable-background:accumulate;font-family:Sans;-inkscape-font-specification:Sans"
       d="m 307,369.5 0,-13.59375 C 307,329.04525 329.014,307 355.875,307 l 13.625,0 0,26 -13.625,0 C 342.96828,333 333,342.99953 333,355.90625 L 333,369.5 z"
       id="rect3397-4"
       inkscape:connector-curvature="0"
       sodipodi:nodetypes="cssccsscc" />
    <path
       style="font-size:medium;font-style:normal;font-variant:normal;font-weight:normal;font-stretch:normal;text-indent:0;text-align:start;text-decoration:none;line-height:normal;letter-spacing:normal;word-spacing:normal;text-transform:none;direction:ltr;block-progression:tb;writing-mode:lr-tb;text-anchor:start;baseline-shift:baseline;color:#000000;fill:none;stroke:#000000;stroke-width:1;stroke-miterlimit:4;stroke-dasharray:none;marker:none;visibility:visible;display:inline;overflow:visible;enable-background:accumulate;font-family:Sans;-inkscape-font-specification:Sans"
       d="m 307,30.5 0,13.59375 C 307,70.954749 329.014,93 355.875,93 l 13.625,0 m 0,-26 -13.625,0 C 342.96828,67 333,57.000473 333,44.09375 L 333,30.5"
       id="rect3377"
       inkscape:connector-curvature="0"
       sodipodi:nodetypes="cssccssc" />
    <path
       id="C-bottom-2-6-3"
       style="color:#000000;fill:#ffffff;stroke:none;stroke-width:1.00000036000000003px;marker:none;visibility:visible;display:inline;overflow:visible;enable-background:accumulate"
       d="M 67,369.5 67,359.49977 67,40.500237 67,30.5 l 26,0 0,10.000237 0,318.999533 0,10.00023 z"
       inkscape:connector-curvature="0"
       sodipodi:nodetypes="ccccccccc" />
    <path
       id="C-bottom-2-6"
       style="color:#000000;fill:none;stroke:#000000;stroke-width:1.00000036px;stroke-linecap:square;stroke-linejoin:miter;stroke-miterlimit:4;stroke-opacity:1;stroke-dasharray:none;stroke-dashoffset:0;marker:none;visibility:visible;display:inline;overflow:visible;enable-background:accumulate"
       d="M 67,369.5 67,359.49977 67,40.500237 67,30.5 m 26,0 0,10.000237 0,318.999533 0,10.00023"
       inkscape:connector-curvature="0"
       sodipodi:nodetypes="cccccccc" />
    <path
       style="font-size:medium;font-style:normal;font-variant:normal;font-weight:normal;font-stretch:normal;text-indent:0;text-align:start;text-decoration:none;line-height:normal;letter-spacing:normal;word-spacing:normal;text-transform:none;direction:ltr;block-progression:tb;writing-mode:lr-tb;text-anchor:start;baseline-shift:baseline;color:#000000;fill:none;stroke:#000000;stroke-width:1;stroke-miterlimit:4;stroke-dasharray:none;marker:none;visibility:visible;display:inline;overflow:visible;enable-background:accumulate;font-family:Sans;-inkscape-font-specification:Sans"
       d="m 369.5,333 -13.625,0 C 342.96828,333 333,342.99953 333,355.90625 L 333,369.5 m -26,0 0,-13.59375 C 307,329.04525 329.014,307 355.875,307 l 13.625,0"
       id="rect3397"
       inkscape:connector-curvature="0"
       sodipodi:nodetypes="cssccssc" />
  </g>
</svg>
