<?xml version="1.0" encoding="UTF-8" standalone="no"?>
<!-- Created with Inkscape (http://www.inkscape.org/) -->
<svg
   xmlns:dc="http://purl.org/dc/elements/1.1/"
   xmlns:cc="http://creativecommons.org/ns#"
   xmlns:rdf="http://www.w3.org/1999/02/22-rdf-syntax-ns#"
   xmlns:svg="http://www.w3.org/2000/svg"
   xmlns="http://www.w3.org/2000/svg"
   xmlns:sodipodi="http://sodipodi.sourceforge.net/DTD/sodipodi-0.dtd"
   xmlns:inkscape="http://www.inkscape.org/namespaces/inkscape"
   style="display:inline"
   sodipodi:docname="5F15B75FDD5079-R+_CW_SW_00_SW_.svg"
   inkscape:version="0.48.3.1 r9886"
   version="1.1"
   id="svg2902"
   height="400"
   width="400">
  
  <g
     style="display:inline"
     inkscape:label="ELEMENT-001"
     id="element"
     inkscape:groupmode="layer">
    <path
       id="S-right-2-3-7"
       style="fill:#ffffff;stroke:none;display:inline"
       d="m 333,30.5 0,10.000237 c 0,0 -3.06279,91.549963 -3.06279,138.093513 0,6.49408 4.91217,11.40625 11.40625,11.40625 6.0521,0 18.1563,0 18.1563,0 l 10.00024,0 0,20 -10.00024,0 c 0,0 -12.1042,0 -18.1563,0 -17.22813,0 -31.40625,-14.17811 -31.40625,-31.40625 C 309.93721,132.95241 307,40.500237 307,40.500237 L 307,30.5 z"
       inkscape:connector-curvature="0"
       sodipodi:nodetypes="cccsccccscccc" />
    <path
       id="S-left-2-0-4"
       style="fill:#ffffff;stroke:none;display:inline"
       d="m 30.5,210 10.000237,0 c 0,0 12.044575,0 17.950746,0 17.228133,0 31.40625,-14.17811 31.40625,-31.40625 C 89.857233,122.14509 93,40.500237 93,40.500237 L 93,30.5 l -26,0 0,10.000237 c 0,0 2.857233,81.198573 2.857233,138.093513 0,6.49408 -4.912169,11.40625 -11.40625,11.40625 -5.906171,0 -17.950746,0 -17.950746,0 L 30.5,190 z"
       inkscape:connector-curvature="0"
       sodipodi:nodetypes="ccsccccccsccc" />
    <path
       id="S-right-2-3"
       style="fill:none;stroke:#000000;stroke-width:1.00000036px;stroke-linecap:square;stroke-linejoin:miter;stroke-opacity:1;display:inline"
       d="m 369.5,210 -10.00024,0 c 0,0 -12.1042,0 -18.1563,0 -17.22813,0 -31.40625,-14.17811 -31.40625,-31.40625 C 309.93721,132.95241 307,40.500237 307,40.500237 L 307,30.5 m 62.5,159.5 -10.00024,0 c 0,0 -12.1042,0 -18.1563,0 -6.49408,0 -11.40625,-4.91217 -11.40625,-11.40625 C 329.93721,132.0502 333,40.500237 333,40.500237 L 333,30.5"
       inkscape:connector-curvature="0"
       sodipodi:nodetypes="ccscccccsccc" />
    <path
       id="S-left-2-0"
       style="fill:none;stroke:#000000;stroke-width:1.00000036px;stroke-linecap:square;stroke-linejoin:miter;stroke-opacity:1;display:inline"
       d="m 93,30.5 0,10.000237 c 0,0 -3.142767,81.644853 -3.142767,138.093513 0,17.22814 -14.178117,31.40625 -31.40625,31.40625 -5.906171,0 -17.950746,0 -17.950746,0 L 30.5,210 M 67,30.5 67,40.500237 c 0,0 2.857233,81.198573 2.857233,138.093513 0,6.49408 -4.912169,11.40625 -11.40625,11.40625 -5.906171,0 -17.950746,0 -17.950746,0 L 30.5,190"
       inkscape:connector-curvature="0"
       sodipodi:nodetypes="cccscccccscc" />
  </g>
</svg>
