<?xml version="1.0" encoding="UTF-8" standalone="no"?>
<!-- Created with Inkscape (http://www.inkscape.org/) -->
<svg
   xmlns:dc="http://purl.org/dc/elements/1.1/"
   xmlns:cc="http://creativecommons.org/ns#"
   xmlns:rdf="http://www.w3.org/1999/02/22-rdf-syntax-ns#"
   xmlns:svg="http://www.w3.org/2000/svg"
   xmlns="http://www.w3.org/2000/svg"
   xmlns:sodipodi="http://sodipodi.sourceforge.net/DTD/sodipodi-0.dtd"
   xmlns:inkscape="http://www.inkscape.org/namespaces/inkscape"
   style="display:inline"
   sodipodi:docname="63F2A295558244-R+_00_UW_00_SW_.svg"
   inkscape:version="0.48.3.1 r9886"
   version="1.1"
   id="svg2902"
   height="400"
   width="400">
  
  <g
     style="display:inline"
     inkscape:label="U-001"
     id="g4478"
     inkscape:groupmode="layer"
     sodipodi:insensitive="true">
    <path
       transform="matrix(0.9540682,0,0,1.6957412,67.620699,-102.3157)"
       d="m 227.75382,178.27939 a 30.920221,78.431778 0 1 1 -61.84044,0 30.920221,78.431778 0 1 1 61.84044,0 z"
       sodipodi:ry="78.431778"
       sodipodi:rx="30.920221"
       sodipodi:cy="178.27939"
       sodipodi:cx="196.8336"
       id="path4482"
       style="color:#000000;fill:#000000;stroke:none;stroke-width:0.7861954;marker:none;visibility:visible;display:inline;overflow:visible;enable-background:accumulate"
       sodipodi:type="arc" />
    <path
       sodipodi:nodetypes="csc"
       inkscape:connector-curvature="0"
       id="path4488"
       d="m 196.8336,256.71117 c -17.07676,0 -30.92022,-35.11511 -30.92022,-78.43178 0,-43.31668 13.84346,-78.43178 30.92022,-78.43178"
       style="color:#000000;fill:none;stroke:#0000ff;stroke-width:0.7861954;stroke-linecap:round;stroke-linejoin:miter;stroke-miterlimit:4;stroke-opacity:1;stroke-dashoffset:0;marker:none;visibility:visible;display:inline;overflow:visible;enable-background:accumulate"
       transform="matrix(0.9540682,0,0,1.6957412,67.620699,-102.3157)" />
  </g>
  <g
     inkscape:groupmode="layer"
     id="g4495"
     inkscape:label="S-002"
     style="display:inline">
    <path
       style="font-size:medium;font-style:normal;font-variant:normal;font-weight:normal;font-stretch:normal;text-indent:0;text-align:start;text-decoration:none;line-height:normal;letter-spacing:normal;word-spacing:normal;text-transform:none;direction:ltr;block-progression:tb;writing-mode:lr-tb;text-anchor:start;baseline-shift:baseline;color:#000000;fill:#ffffff;stroke:none;stroke-width:1;marker:none;visibility:visible;display:inline;overflow:visible;enable-background:accumulate;font-family:Sans;-inkscape-font-specification:Sans"
       d="m 331.65625,151.78125 -119.625,0 c -19.77306,0 -36.03135,16.22688 -36.03125,36 L 176,259 c 4e-5,9.03894 -6.961,16 -16,16 -9.039,0 -16.00003,-6.96103 -16,-16 l 0,-137.21875 c 5e-5,-19.77309 -16.22694,-36 -36,-36 -19.77306,0 -36,16.22694 -36,36 L 72,174 c 2.5e-5,9.03898 -6.961,16 -16,16 l -15.5,0 -10,0 0,20 10,0 15.5,0 c 19.77306,0 36.000055,-16.22692 36,-36 l 0,-52.21875 c 0,-9.039 6.961,-16 16,-16 9.039,0 16.00003,6.96103 16,16 L 124,259 c -5e-5,19.77309 16.22694,36 36,36 19.77306,0 36.0001,-16.22688 36,-36 l 0,-71.21875 c -4e-5,-9.03894 6.99225,-16 16.03125,-16 l 119.625,0 z"
       id="path4499-7"
       inkscape:connector-curvature="0"
       sodipodi:nodetypes="cssssssssssccccsssssssssscc" />
    <path
       style="font-size:medium;font-style:normal;font-variant:normal;font-weight:normal;font-stretch:normal;text-indent:0;text-align:start;text-decoration:none;line-height:normal;letter-spacing:normal;word-spacing:normal;text-transform:none;direction:ltr;block-progression:tb;writing-mode:lr-tb;text-anchor:start;baseline-shift:baseline;color:#000000;fill:none;stroke:#00ff00;stroke-width:1;stroke-linecap:square;stroke-miterlimit:4;stroke-dasharray:none;marker:none;visibility:visible;display:inline;overflow:visible;enable-background:accumulate;font-family:Sans;-inkscape-font-specification:Sans"
       d="m 30.5,210 10,0 15.5,0 c 19.77306,0 36.000055,-16.22692 36,-36 l 0,-52.21875 c 0,-9.039 6.961,-16 16,-16 9.039,0 16.00003,6.96103 16,16 L 124,259 c -5e-5,19.77309 16.22694,36 36,36 19.77306,0 36.0001,-16.22688 36,-36 l 0,-71.21875 c -4e-5,-9.03894 6.99225,-16 16.03125,-16 l 119.625,0 m 0,-20 -119.625,0 c -19.77306,0 -36.03135,16.22688 -36.03125,36 L 176,259 c 4e-5,9.03894 -6.961,16 -16,16 -9.039,0 -16.00003,-6.96103 -16,-16 l 0,-137.21875 c 5e-5,-19.77309 -16.22694,-36 -36,-36 -19.77306,0 -36,16.22694 -36,36 L 72,174 c 2.5e-5,9.03898 -6.961,16 -16,16 l -15.5,0 -10,0"
       id="path4499"
       inkscape:connector-curvature="0"
       sodipodi:nodetypes="ccssssssssssccsssssssssscc" />
  </g>
  <g
     inkscape:label="U-001"
     id="g4466"
     inkscape:groupmode="layer"
     style="display:inline"
     sodipodi:insensitive="true">
    <path
       sodipodi:nodetypes="ccscc"
       inkscape:connector-curvature="0"
       d="m 370,333 -114.58681,0 c 16.29259,10e-6 29.50019,-59.54613 29.50019,-132.99999 0,-73.45388 -13.2076,-133.000004 -29.50019,-133.000007 L 370,67"
       style="color:#000000;fill:#ffffff;stroke:none;stroke-width:1;marker:none;visibility:visible;display:inline;overflow:visible;enable-background:accumulate"
       id="path4468" />
    <path
       sodipodi:nodetypes="cccc"
       inkscape:connector-curvature="0"
       d="m 370,333 -114.587,0 M 370,67 255.413,67"
       style="color:#000000;fill:none;stroke:#000000;stroke-width:1.00000036px;stroke-linecap:butt;stroke-linejoin:miter;stroke-miterlimit:4;stroke-opacity:1;stroke-dasharray:none;stroke-dashoffset:0;marker:none;visibility:visible;display:inline;overflow:visible;enable-background:accumulate"
       id="path4472" />
    <path
       sodipodi:nodetypes="csc"
       inkscape:connector-curvature="0"
       id="path4474"
       d="m 196.8336,99.84761 c 17.07677,0 30.92022,35.1151 30.92022,78.43178 0,43.31667 -13.84345,78.43178 -30.92022,78.43178"
       style="color:#000000;fill:none;stroke:#0000ff;stroke-width:0.7861954;stroke-linecap:round;stroke-linejoin:miter;stroke-miterlimit:4;stroke-opacity:1;stroke-dashoffset:0;marker:none;visibility:visible;display:inline;overflow:visible;enable-background:accumulate"
       transform="matrix(0.9540682,0,0,1.6957412,67.6207,-102.3157)" />
  </g>
</svg>
