<?xml version="1.0" encoding="UTF-8" standalone="no"?>
<!-- Created with Inkscape (http://www.inkscape.org/) -->
<svg
   xmlns:dc="http://purl.org/dc/elements/1.1/"
   xmlns:cc="http://creativecommons.org/ns#"
   xmlns:rdf="http://www.w3.org/1999/02/22-rdf-syntax-ns#"
   xmlns:svg="http://www.w3.org/2000/svg"
   xmlns="http://www.w3.org/2000/svg"
   xmlns:sodipodi="http://sodipodi.sourceforge.net/DTD/sodipodi-0.dtd"
   xmlns:inkscape="http://www.inkscape.org/namespaces/inkscape"
   style="display:inline"
   sodipodi:docname="63F2A2957A6354-R+_00_UW_00_SW_.svg"
   inkscape:version="0.48.3.1 r9886"
   version="1.1"
   id="svg2902"
   height="400"
   width="400">
  
  <g
     style="display:inline"
     inkscape:label="U-001"
     id="g4478"
     inkscape:groupmode="layer"
     sodipodi:insensitive="true">
    <path
       transform="matrix(0.9540682,0,0,1.6957412,67.620699,-102.3157)"
       d="m 227.75382,178.27939 a 30.920221,78.431778 0 1 1 -61.84044,0 30.920221,78.431778 0 1 1 61.84044,0 z"
       sodipodi:ry="78.431778"
       sodipodi:rx="30.920221"
       sodipodi:cy="178.27939"
       sodipodi:cx="196.8336"
       id="path4482"
       style="color:#000000;fill:#000000;stroke:none;stroke-width:0.7861954;marker:none;visibility:visible;display:inline;overflow:visible;enable-background:accumulate"
       sodipodi:type="arc" />
    <path
       sodipodi:nodetypes="csc"
       inkscape:connector-curvature="0"
       id="path4488"
       d="m 196.8336,256.71117 c -17.07676,0 -30.92022,-35.11511 -30.92022,-78.43178 0,-43.31668 13.84346,-78.43178 30.92022,-78.43178"
       style="color:#000000;fill:none;stroke:#0000ff;stroke-width:0.7861954;stroke-linecap:round;stroke-linejoin:miter;stroke-miterlimit:4;stroke-opacity:1;stroke-dashoffset:0;marker:none;visibility:visible;display:inline;overflow:visible;enable-background:accumulate"
       transform="matrix(0.9540682,0,0,1.6957412,67.620699,-102.3157)" />
  </g>
  <g
     inkscape:label="S-003"
     id="g4543"
     inkscape:groupmode="layer"
     style="display:inline">
    <path
       style="font-size:medium;font-style:normal;font-variant:normal;font-weight:normal;font-stretch:normal;text-indent:0;text-align:start;text-decoration:none;line-height:normal;letter-spacing:normal;word-spacing:normal;text-transform:none;direction:ltr;block-progression:tb;writing-mode:lr-tb;text-anchor:start;baseline-shift:baseline;color:#000000;fill:#ffffff;fill-opacity:1;stroke:none;stroke-width:20;marker:none;visibility:visible;display:inline;overflow:visible;enable-background:accumulate;font-family:Sans;-inkscape-font-specification:Sans"
       d="m 78.1875,108.59375 c -13.432065,0 -24.65625,11.04072 -24.65625,24.5 l 0,52.40625 c 7e-6,2.61464 -1.848813,4.5 -4.65625,4.5 l -12.75,0 -5.625,0 0,20 5.625,0 12.75,0 c 13.432065,0 24.656289,-11.0407 24.65625,-24.5 l 0,-52.40625 c 0,-2.61466 1.848813,-4.5 4.65625,-4.5 2.807437,0 4.656253,1.88535 4.65625,4.5 l 0,177.96875 c -1.5e-5,13.45929 11.224186,24.53125 24.65625,24.53125 13.43206,0 24.65628,-11.07194 24.65625,-24.53125 l 0,-100.875 c -1e-5,-2.61463 1.8488,-4.5 4.65625,-4.5 l 153.4375,0 0,-20 -153.4375,0 c -13.43207,0 -24.65628,11.04069 -24.65625,24.5 l 0,100.875 c 1e-5,2.61463 -1.84881,4.53125 -4.65625,4.53125 -2.80743,0 -4.65625,-1.9166 -4.65625,-4.53125 l 0,-177.96875 c 2e-5,-13.45929 -11.224185,-24.5 -24.65625,-24.5 z"
       id="path4545"
       inkscape:connector-curvature="0" />
    <path
       style="font-size:medium;font-style:normal;font-variant:normal;font-weight:normal;font-stretch:normal;text-indent:0;text-align:start;text-decoration:none;line-height:normal;letter-spacing:normal;word-spacing:normal;text-transform:none;direction:ltr;block-progression:tb;writing-mode:lr-tb;text-anchor:start;baseline-shift:baseline;color:#000000;fill:none;stroke:#000000;stroke-width:1;stroke-linecap:square;stroke-miterlimit:4;stroke-dasharray:none;marker:none;visibility:visible;display:inline;overflow:visible;enable-background:accumulate;font-family:Sans;-inkscape-font-specification:Sans"
       d="m 30.5,210 5.625,0 12.75,0 c 13.432065,0 24.656289,-11.0407 24.65625,-24.5 l 0,-52.40625 c 0,-2.61466 1.848813,-4.5 4.65625,-4.5 2.807437,0 4.656253,1.88535 4.65625,4.5 l 0,177.96875 c -1.5e-5,13.45929 11.224186,24.53125 24.65625,24.53125 13.43206,0 24.65628,-11.07194 24.65625,-24.53125 l 0,-100.875 c -1e-5,-2.61463 1.8488,-4.5 4.65625,-4.5 l 153.4375,0 m 0,-20 -153.4375,0 c -13.43207,0 -24.65628,11.04069 -24.65625,24.5 l 0,100.875 c 1e-5,2.61463 -1.84881,4.53125 -4.65625,4.53125 -2.80743,0 -4.65625,-1.9166 -4.65625,-4.53125 l 0,-177.96875 c 2e-5,-13.45929 -11.224185,-24.5 -24.65625,-24.5 -13.432065,0 -24.65625,11.04072 -24.65625,24.5 l 0,52.40625 c 7e-6,2.61464 -1.848813,4.5 -4.65625,4.5 l -12.75,0 -5.625,0"
       id="path4545-2"
       inkscape:connector-curvature="0"
       sodipodi:nodetypes="ccssssssssssccsssssssssscc" />
  </g>
  <g
     inkscape:label="U-001"
     id="g4466"
     inkscape:groupmode="layer"
     style="display:inline"
     sodipodi:insensitive="true">
    <path
       sodipodi:nodetypes="ccscc"
       inkscape:connector-curvature="0"
       d="m 370,333 -114.58681,0 c 16.29259,10e-6 29.50019,-59.54613 29.50019,-132.99999 0,-73.45388 -13.2076,-133.000004 -29.50019,-133.000007 L 370,67"
       style="color:#000000;fill:#ffffff;stroke:none;stroke-width:1;marker:none;visibility:visible;display:inline;overflow:visible;enable-background:accumulate"
       id="path4468" />
    <path
       sodipodi:nodetypes="cccc"
       inkscape:connector-curvature="0"
       d="m 370,333 -114.587,0 M 370,67 255.413,67"
       style="color:#000000;fill:none;stroke:#000000;stroke-width:1.00000036px;stroke-linecap:butt;stroke-linejoin:miter;stroke-miterlimit:4;stroke-opacity:1;stroke-dasharray:none;stroke-dashoffset:0;marker:none;visibility:visible;display:inline;overflow:visible;enable-background:accumulate"
       id="path4472" />
    <path
       sodipodi:nodetypes="csc"
       inkscape:connector-curvature="0"
       id="path4474"
       d="m 196.8336,99.84761 c 17.07677,0 30.92022,35.1151 30.92022,78.43178 0,43.31667 -13.84345,78.43178 -30.92022,78.43178"
       style="color:#000000;fill:none;stroke:#0000ff;stroke-width:0.7861954;stroke-linecap:round;stroke-linejoin:miter;stroke-miterlimit:4;stroke-opacity:1;stroke-dashoffset:0;marker:none;visibility:visible;display:inline;overflow:visible;enable-background:accumulate"
       transform="matrix(0.9540682,0,0,1.6957412,67.6207,-102.3157)" />
  </g>
</svg>
