<?xml version="1.0" encoding="UTF-8" standalone="no"?>
<!-- Created with Inkscape (http://www.inkscape.org/) -->
<svg
   xmlns:dc="http://purl.org/dc/elements/1.1/"
   xmlns:cc="http://creativecommons.org/ns#"
   xmlns:rdf="http://www.w3.org/1999/02/22-rdf-syntax-ns#"
   xmlns:svg="http://www.w3.org/2000/svg"
   xmlns="http://www.w3.org/2000/svg"
   xmlns:sodipodi="http://sodipodi.sourceforge.net/DTD/sodipodi-0.dtd"
   xmlns:inkscape="http://www.inkscape.org/namespaces/inkscape"
   style="display:inline"
   sodipodi:docname="663E6C99F2836E-R+_00_CB_SW_00_.svg"
   inkscape:version="0.48.3.1 r9886"
   version="1.1"
   id="svg2902"
   height="400"
   width="400">
  
  <g
     style="display:inline"
     inkscape:label="WAAG-001"
     layerid="element"
     id="element"
     inkscape:groupmode="layer"
     sodipodi:insensitive="true">
    <path
       id="C-left-4-3-6"
       style="color:#000000;fill:#000000;stroke:none;stroke-width:1.00000036px;marker:none;visibility:visible;display:inline;overflow:visible;enable-background:accumulate"
       d="m 369.5,333 -164,0 0,-26 164,0 z m 0,-240 -164,0 0,-26 164,0 z"
       inkscape:connector-curvature="0"
       sodipodi:nodetypes="cccccccccc" />
    <path
       id="C-left-4-3"
       style="color:#000000;fill:none;stroke:#000000;stroke-width:1.00000036px;stroke-linecap:square;stroke-linejoin:miter;stroke-miterlimit:4;stroke-opacity:1;stroke-dasharray:none;stroke-dashoffset:0;marker:none;visibility:visible;display:inline;overflow:visible;enable-background:accumulate"
       d="m 210.5,333 10.00023,0 138.99954,0 10.00023,0 m -159,-26 10.00023,0 138.99954,0 10.00023,0 m 0,-214 -10.00023,0 L 220.50023,93 210.5,93 m -20.51447,-26 9.95636,0 159.55788,0 10.00023,0"
       inkscape:connector-curvature="0"
       sodipodi:nodetypes="cccccccccccccccc" />
  </g>
  <g
     inkscape:groupmode="layer"
     id="layer2"
     inkscape:label="SENK-001"
     style="display:inline"
     sodipodi:insensitive="true">
    <path
       id="S-bottom-2-7-5"
       style="fill:#ffffff;stroke:none;display:inline"
       d="m 190,67.387102 0,11.113135 0,280.999523 0,10.00024 20,0 0,-10.00024 0,-280.999523 0,-11.113135 z"
       inkscape:connector-curvature="0"
       sodipodi:nodetypes="ccccccccc" />
    <path
       id="S-bottom-2-7"
       style="fill:none;stroke:#000000;stroke-width:1.00000036px;stroke-linecap:square;stroke-linejoin:miter;stroke-opacity:1;display:inline"
       d="m 210,369.5 0,-10.00024 0,-282.525929 0,-9.541411 m -20,0 0,9.541411 0,282.525929 0,10.00024"
       inkscape:connector-curvature="0"
       sodipodi:nodetypes="cccccccc" />
  </g>
</svg>
