<?xml version="1.0" encoding="UTF-8" standalone="no"?>
<!-- Created with Inkscape (http://www.inkscape.org/) -->
<svg
   xmlns:dc="http://purl.org/dc/elements/1.1/"
   xmlns:cc="http://creativecommons.org/ns#"
   xmlns:rdf="http://www.w3.org/1999/02/22-rdf-syntax-ns#"
   xmlns:svg="http://www.w3.org/2000/svg"
   xmlns="http://www.w3.org/2000/svg"
   xmlns:sodipodi="http://sodipodi.sourceforge.net/DTD/sodipodi-0.dtd"
   xmlns:inkscape="http://www.inkscape.org/namespaces/inkscape"
   style="display:inline"
   sodipodi:docname="6830137A2F3CCA-R+_00_UW_00_SB_.svg"
   inkscape:version="0.48.3.1 r9886"
   version="1.1"
   id="svg2902"
   height="400"
   width="400">
  
  <g
     style="display:inline"
     inkscape:label="US-002"
     id="g3100"
     inkscape:groupmode="layer">
    <path
       id="path3102"
       style="fill:#000000;stroke:none;display:inline"
       d="M 30.5,210 40.500237,210 80.5,210 c 48.58997,0 73.92432,27.73148 109.125,58.75 C 224.82568,299.76852 269.36288,333 349.5,333 l 6,0 3,0 -10,0 c -163.553,0 -172.7891,-266 0,-266 l 10,0 1,0 -10,0 C 278.52642,67 234.47221,100.19012 197.09375,131.03125 159.71529,161.87238 129.17948,190 80.5,190 L 40.500237,190 30.5,190"
       inkscape:connector-curvature="0"
       sodipodi:nodetypes="ccsssccccccssccc" />
    <path
       sodipodi:nodetypes="cc"
       inkscape:connector-curvature="0"
       d="M 348.5,333 C 184.947,333 175.7109,67 348.5,67"
       style="fill:none;stroke:#ff0000;display:inline"
       id="path3106" />
    <path
       inkscape:connector-curvature="0"
       d="M 30.5,190 40.500237,190 80.5,190 c 48.67948,0 79.21529,-28.12762 116.59375,-58.96875 C 234.47221,100.19012 278.52642,67 349.5,67 l 10,0 10,0 M 30.5,210 40.500237,210 80.5,210 c 48.58997,0 73.92432,27.73148 109.125,58.75 C 224.82568,299.76852 269.36288,333 349.5,333 l 6,0 14,0"
       style="fill:none;stroke:#000000;stroke-width:1.00000036px;stroke-linecap:square;stroke-linejoin:miter;stroke-opacity:1;display:inline"
       id="path3104" />
  </g>
</svg>
