<?xml version="1.0" encoding="UTF-8" standalone="no"?>
<!-- Created with Inkscape (http://www.inkscape.org/) -->
<svg
   xmlns:dc="http://purl.org/dc/elements/1.1/"
   xmlns:cc="http://creativecommons.org/ns#"
   xmlns:rdf="http://www.w3.org/1999/02/22-rdf-syntax-ns#"
   xmlns:svg="http://www.w3.org/2000/svg"
   xmlns="http://www.w3.org/2000/svg"
   xmlns:sodipodi="http://sodipodi.sourceforge.net/DTD/sodipodi-0.dtd"
   xmlns:inkscape="http://www.inkscape.org/namespaces/inkscape"
   width="400"
   height="400"
   id="svg2902"
   version="1.1"
   inkscape:version="0.48.3.1 r9886"
   sodipodi:docname="699F554DC8107D-R+_00_00_00_SW_.svg"
   style="display:inline">
  
  <g
     style="display:inline"
     inkscape:label="SPADDONS-002"
     id="g5803"
     inkscape:groupmode="layer">
    <path
       inkscape:connector-curvature="0"
       id="path5805"
       d="m 198.375,154.0625 c -12.42639,0 -22.5,20.56694 -22.5,45.9375 0,25.37058 10.07361,45.9375 22.5,45.9375 5.83533,0 11.1581,-4.53046 15.15625,-11.96875 2.12614,1.80444 4.46019,2.78125 6.90625,2.78125 5.75427,0 10.89241,-5.51395 14.1875,-14.09375 l 0,-0.34375 c 2.22247,3.2848 4.95282,5.25 7.90625,5.25 6.29745,0 11.5706,-8.81078 13.0625,-20.71875 L 255.75,194.5 c -1.25004,-12.58292 -6.68684,-22.0625 -13.21875,-22.0625 -2.92539,0 -5.63283,1.92806 -7.84375,5.15625 l 0,-0.0625 c -3.29196,-8.69502 -8.45076,-14.28125 -14.25,-14.28125 -2.45913,0 -4.80222,0.98974 -6.9375,2.8125 l 0,-0.0625 c -3.99506,-7.4084 -9.30285,-11.9375 -15.125,-11.9375 z"
       style="color:#000000;fill:#ffffff;stroke:none;stroke-width:1;marker:none;visibility:visible;display:inline;overflow:visible;enable-background:accumulate" />
  </g>
  <g
     style="display:inline"
     inkscape:label="SPITZE-002"
     id="g3768"
     inkscape:groupmode="layer">
    <path
       style="font-size:medium;font-style:normal;font-variant:normal;font-weight:normal;font-stretch:normal;text-indent:0;text-align:start;text-decoration:none;line-height:normal;letter-spacing:normal;word-spacing:normal;text-transform:none;direction:ltr;block-progression:tb;writing-mode:lr-tb;text-anchor:start;baseline-shift:baseline;color:#000000;fill:#ffffff;fill-opacity:1;fill-rule:nonzero;stroke:none;stroke-width:0.99999994;marker:none;visibility:visible;display:inline;overflow:visible;enable-background:accumulate;font-family:Sans;-inkscape-font-specification:Sans"
       d="m 142.59375,155.78125 0,0.6875 0,13.03125 -0.0937,0 c -13.72857,0 -32.1396,5.03142 -50.6875,10.03125 C 73.264546,184.53108 54.582346,189.5 40.5,189.5 l -10,0 -0.5,0 0,0.5 0,20 0,0.5 0.5,0 10,0 c 15.28984,0 33.756045,4.96919 51.90625,9.96875 C 110.55646,225.46831 128.38617,230.5 142.5,230.5 l 0.0937,0 0,14.46875 0,0.6875 0.65625,-0.21875 38.84375,-13.1875 0.34375,-0.125 0,-0.34375 -0.34375,-62.28125 0,-0.34375 -0.34375,-0.125 L 143.25,156 l -0.65625,-0.21875 z"
       id="path3227"
       inkscape:connector-curvature="0" />
    <path
       style="color:#000000;fill:#ffffff;stroke:none;stroke-width:0.99999994;marker:none;visibility:visible;display:inline;overflow:visible;enable-background:accumulate"
       d="m 230.79859,186.19786 42.78417,14.50727 -42.31046,14.34665 z"
       id="path3209"
       inkscape:connector-curvature="0"
       sodipodi:nodetypes="cccc" />
    <path
       sodipodi:nodetypes="ccc"
       inkscape:connector-curvature="0"
       id="path3778"
       d="m 230.79859,186.19786 42.78417,14.50727 -42.31046,14.34665"
       style="color:#000000;fill:none;stroke:#ff0000;stroke-width:0.99999994;stroke-linecap:butt;stroke-linejoin:miter;stroke-miterlimit:4;stroke-opacity:1;stroke-dashoffset:3;marker:none;visibility:visible;display:inline;overflow:visible;enable-background:accumulate" />
    <path
       sodipodi:nodetypes="cccccc"
       inkscape:connector-curvature="0"
       d="m 30.5,210 9.999941,0 C 71.296098,210 114.51052,230 142.5,230 m -112,-40 10.000059,0 c 28.399438,0 74.788031,-20 102.000181,-20"
       style="fill:none;stroke:#000000;stroke-width:1.00000036px;stroke-linecap:square;stroke-linejoin:miter;stroke-opacity:1;display:inline"
       id="S-left-2-1" />
    <path
       sodipodi:nodetypes="ccccc"
       inkscape:connector-curvature="0"
       id="path3770"
       d="m 181.94376,231.77813 -38.86102,13.17702 0,-88.5 0,0 38.50401,13.05595"
       style="color:#000000;fill:none;stroke:#ff0000;stroke-width:0.99999994;stroke-linecap:butt;stroke-linejoin:miter;stroke-miterlimit:4;stroke-opacity:1;stroke-dashoffset:3;marker:none;visibility:visible;display:inline;overflow:visible;enable-background:accumulate" />
  </g>
  <g
     inkscape:groupmode="layer"
     id="g3780"
     inkscape:label="SPADDONS-002"
     style="display:inline">
    <path
       sodipodi:nodetypes="csssc"
       inkscape:connector-curvature="0"
       id="path3782"
       d="m 234.62534,222.65746 c -3.29509,8.5798 -8.4187,14.09254 -14.17297,14.09254 -9.94111,0 -18,-16.45355 -18,-36.75002 0,-20.29645 8.05889,-36.74998 18,-36.74998 5.79924,0 10.95794,5.59924 14.2499,14.29426"
       style="color:#000000;fill:none;stroke:#ff0000;stroke-width:1;stroke-linecap:butt;stroke-linejoin:miter;stroke-miterlimit:4;stroke-opacity:1;stroke-dashoffset:3;marker:none;visibility:visible;display:inline;overflow:visible;enable-background:accumulate" />
    <path
       sodipodi:nodetypes="csssc"
       inkscape:connector-curvature="0"
       id="path3784"
       d="m 213.53713,233.96391 c -3.99815,7.43829 -9.31463,11.97359 -15.14996,11.97359 -12.42639,0 -22.5,-20.56694 -22.5,-45.93752 0,-25.37056 10.07361,-45.93748 22.5,-45.93748 5.82215,0 11.12778,4.51483 15.12284,11.92323"
       style="color:#000000;fill:none;stroke:#ff0000;stroke-width:1;stroke-linecap:butt;stroke-linejoin:miter;stroke-miterlimit:4;stroke-opacity:1;stroke-dashoffset:3;marker:none;visibility:visible;display:inline;overflow:visible;enable-background:accumulate" />
    <path
       sodipodi:nodetypes="csssc"
       inkscape:connector-curvature="0"
       id="path3786"
       d="m 255.59725,206.85104 c -1.4919,11.90797 -6.78223,20.71146 -13.07968,20.71146 -7.45584,0 -13.5,-12.34015 -13.5,-27.56252 0,-15.22233 6.04416,-27.56248 13.5,-27.56248 6.53191,0 11.98033,9.47125 13.23037,22.05417"
       style="color:#000000;fill:none;stroke:#ff0000;stroke-width:1;stroke-linecap:butt;stroke-linejoin:miter;stroke-miterlimit:4;stroke-opacity:1;stroke-dashoffset:3;marker:none;visibility:visible;display:inline;overflow:visible;enable-background:accumulate" />
    <path
       sodipodi:nodetypes="csssc"
       inkscape:connector-curvature="0"
       id="path3786-7"
       d="m 232.56356,218.41256 c -2.47141,5.61702 -6.05662,9.14994 -10.04599,9.14994 -7.45584,0 -13.5,-12.34015 -13.5,-27.56252 0,-15.22233 6.04416,-27.56248 13.5,-27.56248 3.96681,0 7.53402,3.49309 10.00396,9.05487"
       style="color:#000000;fill:none;stroke:#ff0000;stroke-width:1;stroke-linecap:butt;stroke-linejoin:miter;stroke-miterlimit:4;stroke-opacity:1;stroke-dashoffset:3;marker:none;visibility:visible;display:inline;overflow:visible;enable-background:accumulate" />
    <path
       sodipodi:nodetypes="csssc"
       inkscape:connector-curvature="0"
       id="path3782-8"
       d="m 210.47034,230.53692 c -2.86375,3.92391 -6.30992,6.21308 -10.01797,6.21308 -9.94111,0 -18,-16.45355 -18,-36.75002 0,-20.29645 8.05889,-36.74998 18,-36.74998 3.67261,0 7.08832,2.24562 9.9357,6.10101"
       style="color:#000000;fill:none;stroke:#ff0000;stroke-width:1;stroke-linecap:butt;stroke-linejoin:miter;stroke-miterlimit:4;stroke-opacity:1;stroke-dashoffset:3;marker:none;visibility:visible;display:inline;overflow:visible;enable-background:accumulate" />
  </g>
  <g
     style="display:inline"
     inkscape:label="OUT-001"
     id="g3724"
     inkscape:groupmode="layer">
    <path
       inkscape:connector-curvature="0"
       style="color:#000000;fill:#ffffff;stroke:none;stroke-width:1;marker:none;visibility:visible;display:inline;overflow:visible;enable-background:accumulate"
       d="m 295.16725,200.47011 c 0,5.57581 -4.5201,10.09592 -10.09593,10.09592 -5.57583,0 -10.09593,-4.52011 -10.09593,-10.09592 0,-5.57583 4.5201,-10.09594 10.09593,-10.09594 5.57583,0 10.09593,4.52011 10.09593,10.09594 z"
       id="path3144" />
    <path
       id="path3728"
       d="m 295.16725,200.47011 c 0,5.57581 -4.5201,10.09592 -10.09593,10.09592 -5.57583,0 -10.09593,-4.52011 -10.09593,-10.09592 0,-5.57583 4.5201,-10.09594 10.09593,-10.09594 5.57583,0 10.09593,4.52011 10.09593,10.09594 z"
       style="color:#000000;fill:none;stroke:#ff0000;stroke-width:1;stroke-linecap:butt;stroke-linejoin:miter;stroke-miterlimit:4;stroke-opacity:1;stroke-dashoffset:3;marker:none;visibility:visible;display:inline;overflow:visible;enable-background:accumulate"
       inkscape:connector-curvature="0" />
    <path
       id="path3730"
       d="m 290.13057,200.47011 c 0,2.79414 -2.26511,5.05923 -5.05925,5.05923 -2.79415,0 -5.05924,-2.26509 -5.05924,-5.05923 0,-2.79415 2.2651,-5.05925 5.05924,-5.05925 2.79414,0 5.05925,2.2651 5.05925,5.05925 z"
       style="color:#000000;fill:none;stroke:#ff0000;stroke-width:1;stroke-linecap:butt;stroke-linejoin:miter;stroke-miterlimit:4;stroke-opacity:1;stroke-dashoffset:3;marker:none;visibility:visible;display:inline;overflow:visible;enable-background:accumulate"
       inkscape:connector-curvature="0" />
  </g>
</svg>
