<?xml version="1.0" encoding="UTF-8" standalone="no"?>
<!-- Created with Inkscape (http://www.inkscape.org/) -->
<svg
   xmlns:dc="http://purl.org/dc/elements/1.1/"
   xmlns:cc="http://creativecommons.org/ns#"
   xmlns:rdf="http://www.w3.org/1999/02/22-rdf-syntax-ns#"
   xmlns:svg="http://www.w3.org/2000/svg"
   xmlns="http://www.w3.org/2000/svg"
   xmlns:sodipodi="http://sodipodi.sourceforge.net/DTD/sodipodi-0.dtd"
   xmlns:inkscape="http://www.inkscape.org/namespaces/inkscape"
   width="400"
   height="400"
   id="svg2902"
   version="1.1"
   inkscape:version="0.48.3.1 r9886"
   sodipodi:docname="699F554D812A35-R+_00_00_00_SW_.svg"
   style="display:inline">
  
  <g
     inkscape:groupmode="layer"
     id="g5825"
     inkscape:label="SPADDONS-004"
     style="display:inline">
    <path
       inkscape:connector-curvature="0"
       id="path5827"
       d="m 196,157.4375 c -13.93519,-0.0327 -20.125,23.51285 -20.125,42.5625 0,23.90544 12.44458,56.06452 32.34375,36.71875 l 0,-0.5 c 5.10406,2.12734 10.89025,0.83916 16.5625,-5.75 l 0,-0.25 c 3.46795,1.50003 6.91954,0.49192 9.875,-2.5 l 0,-0.0625 c 0.76617,0.36482 1.53536,0.63119 2.34375,0.71875 4.33881,0.59009 8.32988,-2.9372 11.0625,-8.9375 1.30303,-2.60517 2.37224,-7.30073 3.0625,-10.84375 l 0.125,-15.90625 c -0.6037,-3.52628 -1.54139,-8.28132 -2.75,-10.9375 -2.72909,-6.66063 -6.961,-10.66394 -11.5625,-10 -0.88723,0.0997 -1.75849,0.3787 -2.59375,0.8125 l 0,-0.1875 c -2.97804,-2.90758 -6.42945,-3.79818 -9.90625,-2.125 l 0,-0.40625 c -6.02339,-6.98083 -11.52696,-8.57645 -16.21875,-6.71875 l 0,-0.59375 C 203.63485,158.99496 199.55211,157.44584 196,157.4375 z"
       style="color:#000000;fill:#ffffff;stroke:none;stroke-width:1;marker:none;visibility:visible;display:inline;overflow:visible;enable-background:accumulate" />
  </g>
  <g
     style="display:inline"
     inkscape:label="SPITZE-004"
     id="g3860"
     inkscape:groupmode="layer">
    <path
       sodipodi:nodetypes="ccccccccccc"
       inkscape:connector-curvature="0"
       d="m 30.5,210 9.999941,0 22.291429,0 80.29137,34.95515 38.86102,-13.17702 L 181.58675,169.5111 143.08274,156.45515 62.79149,190 40.500059,190 30.5,190 z"
       style="fill:#ffffff;stroke:none;display:inline"
       id="path3203" />
    <path
       style="color:#000000;fill:#ffffff;stroke:none;stroke-width:0.99999994;marker:none;visibility:visible;display:inline;overflow:visible;enable-background:accumulate"
       d="m 230.79859,186.19786 42.78417,14.50727 -42.31046,14.34665 z"
       id="path3201"
       inkscape:connector-curvature="0"
       sodipodi:nodetypes="cccc" />
    <path
       sodipodi:nodetypes="ccc"
       inkscape:connector-curvature="0"
       id="path3862"
       d="m 230.79859,186.19786 42.78417,14.50727 -42.31046,14.34665"
       style="color:#000000;fill:none;stroke:#ff0000;stroke-width:0.99999994;stroke-linecap:butt;stroke-linejoin:miter;stroke-miterlimit:4;stroke-opacity:1;stroke-dashoffset:3;marker:none;visibility:visible;display:inline;overflow:visible;enable-background:accumulate" />
    <path
       id="path3864"
       style="fill:none;stroke:#000000;stroke-width:1.00000036px;stroke-linecap:square;stroke-linejoin:miter;stroke-opacity:1;display:inline"
       d="m 30.5,210 9.999941,0 22.291429,0 80.29137,34.95515 38.86102,-13.17702 M 30.5,190 l 10.000059,0 22.291431,0 80.29125,-33.54485 38.50401,13.05595"
       inkscape:connector-curvature="0"
       sodipodi:nodetypes="cccccccccc" />
  </g>
  <g
     style="display:inline"
     inkscape:label="SPADDONS-004"
     id="g3956"
     inkscape:groupmode="layer">
    <path
       style="color:#000000;fill:none;stroke:#ff0000;stroke-width:1;stroke-linecap:butt;stroke-linejoin:miter;stroke-miterlimit:4;stroke-opacity:1;stroke-dashoffset:3;marker:none;visibility:visible;display:inline;overflow:visible;enable-background:accumulate"
       d="m 208.20632,162.52831 c -22.56688,-17.40944 -32.31915,13.56623 -32.31915,37.47167 0,23.90544 12.4332,56.0757 32.33237,36.72993"
       id="path3960"
       inkscape:connector-curvature="0"
       sodipodi:nodetypes="czc" />
    <path
       inkscape:connector-curvature="0"
       style="color:#000000;fill:none;stroke:#ff0000;stroke-width:1;stroke-linecap:butt;stroke-linejoin:miter;stroke-miterlimit:4;stroke-opacity:1;stroke-dashoffset:3;marker:none;visibility:visible;display:inline;overflow:visible;enable-background:accumulate"
       d="m 251.24421,192.70195 c -0.6037,-3.52628 -1.55084,-8.30626 -2.75945,-10.96244 -2.72909,-6.66063 -6.9438,-10.64079 -11.5453,-9.97685 -7.09784,0.79786 -12.79046,12.81229 -12.95137,27.6184 -0.002,0.22961 -0.004,0.45979 -0.003,0.69052 0.0107,15.13232 5.79493,27.50562 13.02742,28.28903 4.33881,0.59009 8.33097,-2.93202 11.06359,-8.93232 1.30303,-2.60517 2.34309,-7.27855 3.03335,-10.82157"
       id="path4382"
       sodipodi:nodetypes="cccccccc" />
    <path
       inkscape:connector-curvature="0"
       style="color:#000000;fill:none;stroke:#ff0000;stroke-width:1;stroke-linecap:butt;stroke-linejoin:miter;stroke-miterlimit:4;stroke-opacity:1;stroke-dashoffset:3;marker:none;visibility:visible;display:inline;overflow:visible;enable-background:accumulate"
       d="m 234.34408,172.35938 c -2.98555,-2.91491 -6.46423,-3.8048 -9.94983,-2.11443 -6.54448,2.59226 -11.60362,14.70129 -11.72666,29.28177 -0.002,0.23497 -0.003,0.47028 -0.002,0.70588 0.0347,14.92982 5.23443,27.37767 11.96459,29.92297 3.5204,1.59883 7.02337,0.60043 10.02301,-2.43621"
       id="path4384"
       sodipodi:nodetypes="cccccc" />
    <path
       inkscape:connector-curvature="0"
       style="color:#000000;fill:none;stroke:#ff0000;stroke-width:1;stroke-linecap:butt;stroke-linejoin:miter;stroke-miterlimit:4;stroke-opacity:1;stroke-dashoffset:3;marker:none;visibility:visible;display:inline;overflow:visible;enable-background:accumulate"
       d="m 224.43719,169.83715 c -18.17966,-21.06937 -31.64534,6.80226 -32.24151,31.19376 -0.59617,24.3915 16.50459,48.1226 32.5921,29.43458"
       id="path4386"
       sodipodi:nodetypes="czc" />
  </g>
  <g
     style="display:inline"
     inkscape:label="OUT-001"
     id="g3724"
     inkscape:groupmode="layer">
    <path
       inkscape:connector-curvature="0"
       style="color:#000000;fill:#ffffff;stroke:none;stroke-width:1;marker:none;visibility:visible;display:inline;overflow:visible;enable-background:accumulate"
       d="m 295.16725,200.47011 c 0,5.57581 -4.5201,10.09592 -10.09593,10.09592 -5.57583,0 -10.09593,-4.52011 -10.09593,-10.09592 0,-5.57583 4.5201,-10.09594 10.09593,-10.09594 5.57583,0 10.09593,4.52011 10.09593,10.09594 z"
       id="path3144" />
    <path
       id="path3728"
       d="m 295.16725,200.47011 c 0,5.57581 -4.5201,10.09592 -10.09593,10.09592 -5.57583,0 -10.09593,-4.52011 -10.09593,-10.09592 0,-5.57583 4.5201,-10.09594 10.09593,-10.09594 5.57583,0 10.09593,4.52011 10.09593,10.09594 z"
       style="color:#000000;fill:none;stroke:#ff0000;stroke-width:1;stroke-linecap:butt;stroke-linejoin:miter;stroke-miterlimit:4;stroke-opacity:1;stroke-dashoffset:3;marker:none;visibility:visible;display:inline;overflow:visible;enable-background:accumulate"
       inkscape:connector-curvature="0" />
    <path
       id="path3730"
       d="m 290.13057,200.47011 c 0,2.79414 -2.26511,5.05923 -5.05925,5.05923 -2.79415,0 -5.05924,-2.26509 -5.05924,-5.05923 0,-2.79415 2.2651,-5.05925 5.05924,-5.05925 2.79414,0 5.05925,2.2651 5.05925,5.05925 z"
       style="color:#000000;fill:none;stroke:#ff0000;stroke-width:1;stroke-linecap:butt;stroke-linejoin:miter;stroke-miterlimit:4;stroke-opacity:1;stroke-dashoffset:3;marker:none;visibility:visible;display:inline;overflow:visible;enable-background:accumulate"
       inkscape:connector-curvature="0" />
  </g>
</svg>
