<?xml version="1.0" encoding="UTF-8" standalone="no"?>
<!-- Created with Inkscape (http://www.inkscape.org/) -->
<svg
   xmlns:dc="http://purl.org/dc/elements/1.1/"
   xmlns:cc="http://creativecommons.org/ns#"
   xmlns:rdf="http://www.w3.org/1999/02/22-rdf-syntax-ns#"
   xmlns:svg="http://www.w3.org/2000/svg"
   xmlns="http://www.w3.org/2000/svg"
   xmlns:sodipodi="http://sodipodi.sourceforge.net/DTD/sodipodi-0.dtd"
   xmlns:inkscape="http://www.inkscape.org/namespaces/inkscape"
   width="400"
   height="400"
   id="svg2902"
   version="1.1"
   inkscape:version="0.48.3.1 r9886"
   sodipodi:docname="699F554DF3BAA4-R+_00_00_00_SW_.svg"
   style="display:inline">
  
  <g
     style="display:inline"
     inkscape:label="SPADDONS-003"
     id="g5817"
     inkscape:groupmode="layer">
    <path
       inkscape:connector-curvature="0"
       id="path5819"
       d="m 198.375,154.0625 c -12.42639,0 -22.5,20.56694 -22.5,45.9375 0,25.37058 10.07361,45.9375 22.5,45.9375 5.83533,0 11.1581,-4.53046 15.15625,-11.96875 L 232.96875,219.5 c 2.44302,4.98783 5.83458,8.0625 9.5625,8.0625 6.29745,0 11.5706,-8.81078 13.0625,-20.71875 L 255.75,194.5 c -1.25004,-12.58292 -6.68684,-22.0625 -13.21875,-22.0625 -3.72792,0 -7.11948,3.07467 -9.5625,8.0625 L 213.5,166 c -3.99506,-7.4084 -9.30285,-11.9375 -15.125,-11.9375 z"
       style="color:#000000;fill:#ffffff;stroke:none;stroke-width:1;marker:none;visibility:visible;display:inline;overflow:visible;enable-background:accumulate" />
  </g>
  <g
     inkscape:groupmode="layer"
     id="element"
     inkscape:label="SPITZE-001"
     style="display:inline"
     sodipodi:insensitive="true">
    <path
       id="path3232"
       style="fill:#ffffff;stroke:none;display:inline"
       d="m 30.5,210 145.01271,0 0,-20 L 30.5,190 z"
       inkscape:connector-curvature="0"
       sodipodi:nodetypes="ccccc" />
    <path
       style="color:#000000;fill:#ffffff;stroke:none;stroke-width:0.99999994;marker:none;visibility:visible;display:inline;overflow:visible;enable-background:accumulate"
       d="m 243.70956,190.64468 29.8732,10.06045 -29.92243,10.07715 z"
       id="path3230"
       inkscape:connector-curvature="0"
       sodipodi:nodetypes="cccc" />
    <path
       sodipodi:nodetypes="ccc"
       inkscape:connector-curvature="0"
       id="path3932"
       d="m 243.70956,190.64468 29.8732,10.06045 -29.92243,10.07715"
       style="color:#000000;fill:none;stroke:#ff0000;stroke-width:0.99999994;stroke-linecap:butt;stroke-linejoin:miter;stroke-miterlimit:4;stroke-opacity:1;stroke-dashoffset:3;marker:none;visibility:visible;display:inline;overflow:visible;enable-background:accumulate" />
    <path
       sodipodi:nodetypes="cccc"
       inkscape:connector-curvature="0"
       d="m 30.5,210 145.01271,0 M 30.5,190 l 145.01271,0"
       style="fill:none;stroke:#000000;stroke-width:1.00000036px;stroke-linecap:square;stroke-linejoin:miter;stroke-opacity:1;display:inline"
       id="S-left-2-9" />
  </g>
  <g
     inkscape:groupmode="layer"
     id="g3878"
     inkscape:label="SPADDONS-003"
     style="display:inline">
    <path
       sodipodi:nodetypes="csssc"
       inkscape:connector-curvature="0"
       id="path3786-8"
       d="m 255.59725,206.85104 c -1.4919,11.90797 -6.78223,20.71146 -13.07968,20.71146 -7.45584,0 -13.5,-12.34015 -13.5,-27.56252 0,-15.22233 6.04416,-27.56248 13.5,-27.56248 6.53191,0 11.98033,9.47125 13.23037,22.05417"
       style="color:#000000;fill:none;stroke:#ff0000;stroke-width:1;stroke-linecap:butt;stroke-linejoin:miter;stroke-miterlimit:4;stroke-opacity:1;stroke-dashoffset:3;marker:none;visibility:visible;display:inline;overflow:visible;enable-background:accumulate" />
    <path
       sodipodi:nodetypes="ccssscc"
       inkscape:connector-curvature="0"
       id="path3786-8-7"
       d="m 232.97163,180.51037 -19.46162,-14.52464 c -3.99506,-7.4084 -9.30069,-11.92323 -15.12284,-11.92323 -12.42639,0 -22.5,20.56692 -22.5,45.93748 0,25.37058 10.07361,45.93752 22.5,45.93752 5.83533,0 11.15181,-4.5353 15.14996,-11.97359 l 19.4345,-14.47428"
       style="color:#000000;fill:none;stroke:#ff0000;stroke-width:1;stroke-linecap:butt;stroke-linejoin:miter;stroke-miterlimit:4;stroke-opacity:1;stroke-dashoffset:3;marker:none;visibility:visible;display:inline;overflow:visible;enable-background:accumulate" />
  </g>
  <g
     style="display:inline"
     inkscape:label="OUT-001"
     id="g3724"
     inkscape:groupmode="layer">
    <path
       inkscape:connector-curvature="0"
       style="color:#000000;fill:#ffffff;stroke:none;stroke-width:1;marker:none;visibility:visible;display:inline;overflow:visible;enable-background:accumulate"
       d="m 295.16725,200.47011 c 0,5.57581 -4.5201,10.09592 -10.09593,10.09592 -5.57583,0 -10.09593,-4.52011 -10.09593,-10.09592 0,-5.57583 4.5201,-10.09594 10.09593,-10.09594 5.57583,0 10.09593,4.52011 10.09593,10.09594 z"
       id="path3144" />
    <path
       id="path3728"
       d="m 295.16725,200.47011 c 0,5.57581 -4.5201,10.09592 -10.09593,10.09592 -5.57583,0 -10.09593,-4.52011 -10.09593,-10.09592 0,-5.57583 4.5201,-10.09594 10.09593,-10.09594 5.57583,0 10.09593,4.52011 10.09593,10.09594 z"
       style="color:#000000;fill:none;stroke:#ff0000;stroke-width:1;stroke-linecap:butt;stroke-linejoin:miter;stroke-miterlimit:4;stroke-opacity:1;stroke-dashoffset:3;marker:none;visibility:visible;display:inline;overflow:visible;enable-background:accumulate"
       inkscape:connector-curvature="0" />
    <path
       id="path3730"
       d="m 290.13057,200.47011 c 0,2.79414 -2.26511,5.05923 -5.05925,5.05923 -2.79415,0 -5.05924,-2.26509 -5.05924,-5.05923 0,-2.79415 2.2651,-5.05925 5.05924,-5.05925 2.79414,0 5.05925,2.2651 5.05925,5.05925 z"
       style="color:#000000;fill:none;stroke:#ff0000;stroke-width:1;stroke-linecap:butt;stroke-linejoin:miter;stroke-miterlimit:4;stroke-opacity:1;stroke-dashoffset:3;marker:none;visibility:visible;display:inline;overflow:visible;enable-background:accumulate"
       inkscape:connector-curvature="0" />
  </g>
</svg>
