<?xml version="1.0" encoding="UTF-8" standalone="no"?>
<!-- Created with Inkscape (http://www.inkscape.org/) -->
<svg
   xmlns:dc="http://purl.org/dc/elements/1.1/"
   xmlns:cc="http://creativecommons.org/ns#"
   xmlns:rdf="http://www.w3.org/1999/02/22-rdf-syntax-ns#"
   xmlns:svg="http://www.w3.org/2000/svg"
   xmlns="http://www.w3.org/2000/svg"
   xmlns:sodipodi="http://sodipodi.sourceforge.net/DTD/sodipodi-0.dtd"
   xmlns:inkscape="http://www.inkscape.org/namespaces/inkscape"
   style="display:inline"
   sodipodi:docname="6CE5E258E5A237-R+_00_CW_CW_00_.svg"
   inkscape:version="0.48.3.1 r9886"
   version="1.1"
   id="svg2902"
   height="400"
   width="400">
  
  <g
     inkscape:groupmode="layer"
     id="g3614"
     inkscape:label="INNEN-001"
     style="display:inline">
    <path
       zpos="-2500"
       sodipodi:nodetypes="sccsccssccsccss"
       inkscape:connector-curvature="0"
       id="path3616"
       d="m 349.5,93.5 119.5,0 c 0.12211,0 1.84177,0 2,0 58.83009,0 106.53125,47.67007 106.53125,106.5 0,58.82993 -47.70116,106.5 -106.53125,106.5 -0.0781,0 -1.91908,0 -2,0 l -119.5,0 c -23.8653,0 -43,22.12026 -43,43 l 0,19.5 c 0,0.14522 0,1.81907 0,2 0,58.83011 -47.67009,106.53125 -106.5,106.53125 -58.82994,0 -106.5,-47.70114 -106.5,-106.53125 0,-0.12604 0,-1.83063 0,-2 l 0,-19.5 c 0,-138.72277 113.28056,-256 256,-256 z"
       style="font-size:medium;font-style:normal;font-variant:normal;font-weight:normal;font-stretch:normal;text-indent:0;text-align:start;text-decoration:none;line-height:normal;letter-spacing:normal;word-spacing:normal;text-transform:none;direction:ltr;block-progression:tb;writing-mode:lr-tb;text-anchor:start;baseline-shift:baseline;color:#000000;fill:#00ff00;fill-opacity:1;stroke:none;stroke-width:1;marker:none;visibility:visible;display:inline;overflow:visible;enable-background:accumulate;font-family:Sans;-inkscape-font-specification:Sans" />
    <path
       zpos="-2499"
       sodipodi:nodetypes="cccsccc"
       inkscape:connector-curvature="0"
       id="path3618"
       d="M 349.5,93 469,93 c 0.12211,0 1.84177,0 2,0 58.83009,0 106.53125,48.17007 106.53125,107 0,58.82993 -47.70116,107 -106.53125,107 -0.0781,0 -1.91908,0 -2,0 l -109.5,0"
       style="font-size:medium;font-style:normal;font-variant:normal;font-weight:normal;font-stretch:normal;text-indent:0;text-align:start;text-decoration:none;line-height:normal;letter-spacing:normal;word-spacing:normal;text-transform:none;direction:ltr;block-progression:tb;writing-mode:lr-tb;text-anchor:start;baseline-shift:baseline;color:#000000;fill:none;stroke:#ff00ff;stroke-width:1;marker:none;visibility:visible;display:inline;overflow:visible;enable-background:accumulate;font-family:Sans;-inkscape-font-specification:Sans" />
    <path
       zpos="-2499"
       sodipodi:nodetypes="cccsccc"
       inkscape:connector-curvature="0"
       id="path3620"
       d="m 307,367.5 0,1.5 c 0,0.14522 0,1.81907 0,2 0,58.83011 -48.17009,106.53125 -107,106.53125 -58.82994,0 -107,-47.70114 -107,-106.53125 0,-0.12604 0,-1.83063 0,-2 l 0,-1.5"
       style="font-size:medium;font-style:normal;font-variant:normal;font-weight:normal;font-stretch:normal;text-indent:0;text-align:start;text-decoration:none;line-height:normal;letter-spacing:normal;word-spacing:normal;text-transform:none;direction:ltr;block-progression:tb;writing-mode:lr-tb;text-anchor:start;baseline-shift:baseline;color:#000000;fill:none;stroke:#ff00ff;stroke-width:1;marker:none;visibility:visible;display:inline;overflow:visible;enable-background:accumulate;font-family:Sans;-inkscape-font-specification:Sans" />
  </g>
  <g
     inkscape:groupmode="layer"
     id="g3644"
     inkscape:label="AUSSEN-001"
     style="display:inline"
     zpos="-1000">
    <path
       id="path3646"
       d="M 349.5,67 C 191.99543,67 67,196.11727 67,349.5 l 0,20 26,0 0,-20 C 93,210.50502 206.50664,93 349.5,93 l 20,0 0,-26 -20,0 z m 0,240 c -23.555,0 -42.5,21.92722 -42.5,42.5 l 0,20 26,0 0,-20 c 0,-6.18503 7.45621,-16.5 16.5,-16.5 l 20,0 0,-26 -20,0 z"
       style="font-size:medium;font-style:normal;font-variant:normal;font-weight:normal;font-stretch:normal;text-indent:0;text-align:start;text-decoration:none;line-height:normal;letter-spacing:normal;word-spacing:normal;text-transform:none;direction:ltr;block-progression:tb;writing-mode:lr-tb;text-anchor:start;baseline-shift:baseline;color:#000000;fill:#ffffff;fill-opacity:1;stroke:none;stroke-width:1;marker:none;visibility:visible;display:inline;overflow:visible;enable-background:accumulate;font-family:Sans;-inkscape-font-specification:Sans"
       inkscape:connector-curvature="0" />
    <path
       sodipodi:nodetypes="cssccssccssccssc"
       inkscape:connector-curvature="0"
       id="path3648"
       d="m 369.5,67 -20,0 C 191.99543,67 67,196.11727 67,349.5 l 0,20 m 26,0 0,-20 C 93,210.50502 206.50664,93 349.5,93 l 20,0 m 0,214 -20,0 c -23.555,0 -42.5,21.92722 -42.5,42.5 l 0,20 m 26,0 0,-20 c 0,-6.18503 7.45621,-16.5 16.5,-16.5 l 20,0"
       style="font-size:medium;font-style:normal;font-variant:normal;font-weight:normal;font-stretch:normal;text-indent:0;text-align:start;text-decoration:none;line-height:normal;letter-spacing:normal;word-spacing:normal;text-transform:none;direction:ltr;block-progression:tb;writing-mode:lr-tb;text-anchor:start;baseline-shift:baseline;color:#000000;fill:none;stroke:#000000;stroke-width:1;stroke-linecap:square;stroke-miterlimit:4;stroke-dasharray:none;marker:none;visibility:visible;display:inline;overflow:visible;enable-background:accumulate;font-family:Sans;-inkscape-font-specification:Sans" />
  </g>
</svg>
