<?xml version="1.0" encoding="UTF-8" standalone="no"?>
<!-- Created with Inkscape (http://www.inkscape.org/) -->
<svg
   xmlns:dc="http://purl.org/dc/elements/1.1/"
   xmlns:cc="http://creativecommons.org/ns#"
   xmlns:rdf="http://www.w3.org/1999/02/22-rdf-syntax-ns#"
   xmlns:svg="http://www.w3.org/2000/svg"
   xmlns="http://www.w3.org/2000/svg"
   xmlns:sodipodi="http://sodipodi.sourceforge.net/DTD/sodipodi-0.dtd"
   xmlns:inkscape="http://www.inkscape.org/namespaces/inkscape"
   style="display:inline"
   sodipodi:docname="6CE50A307BF614-R+_00_CW_SB_00_.svg"
   inkscape:version="0.48.3.1 r9886"
   version="1.1"
   id="svg2902"
   height="400"
   width="400">
  
  <g
     inkscape:groupmode="layer"
     id="g4626"
     inkscape:label="WBLOB-001"
     style="display:inline">
    <path
       zpos="-6000"
       sodipodi:nodetypes="sscacssccssccssccs"
       inkscape:connector-curvature="0"
       id="path4628"
       d="M 349.5,67 C 191.99543,67 67,196.11727 67,349.5 l 0,40 c 1.852377,76.34841 69.85516,134.89419 133,134.89419 63.14484,0 133.484,-60.44661 133,-134.89419 l 0,-40 c 0,-6.18503 7.45621,-16.5 16.5,-16.5 l 20,0 0,-26 -117,0 c -23.555,0 -42.5,21.92722 -42.5,42.5 l 0,20 -20,0 0,-146 C 190,143.827 262.39404,93 349.5,93 l 20,0 0,-26 z"
       style="color:#000000;fill:#ffffff;fill-opacity:1;stroke:none;stroke-width:1;marker:none;visibility:visible;display:inline;overflow:visible;enable-background:accumulate" />
    <path
       inkscape:connector-curvature="0"
       style="color:#000000;fill:none;stroke:#000000;stroke-width:1;marker:none;visibility:visible;display:inline;overflow:visible;enable-background:accumulate"
       d="m 67,358.5 0,31 c 1.852377,76.34841 69.85516,134.89419 133,134.89419 63.14484,0 133.484,-60.44661 133,-134.89419 l 0,-31"
       id="path3614"
       sodipodi:nodetypes="ccscc"
       zpos="-5000" />
  </g>
  <g
     style="display:inline"
     inkscape:label="SBLOB-001"
     id="g4612"
     inkscape:groupmode="layer">
    <path
       zpos="-9999"
       sodipodi:nodetypes="sccccsczcs"
       inkscape:connector-curvature="0"
       id="path4634-8"
       d="M 349.5,93 C 262.39404,93 190,143.827 190,223.5 l 0,146 20,0 0,-20 c 0,-20.57278 18.945,-42.5 42.5,-42.5 l 137,0 c 49.18468,0 108.52389,-31.92215 108.52389,-107 0,-75.07785 -62.33283,-106.299227 -108.52389,-107 z"
       style="font-size:medium;font-style:normal;font-variant:normal;font-weight:normal;font-stretch:normal;text-indent:0;text-align:start;text-decoration:none;line-height:normal;letter-spacing:normal;word-spacing:normal;text-transform:none;direction:ltr;block-progression:tb;writing-mode:lr-tb;text-anchor:start;baseline-shift:baseline;color:#000000;fill:#000000;fill-opacity:1;stroke:none;stroke-width:214;marker:none;visibility:visible;display:inline;overflow:visible;enable-background:accumulate;font-family:Sans;-inkscape-font-specification:Sans" />
  </g>
  <g
     inkscape:groupmode="layer"
     id="g4598"
     inkscape:label="STROKE-001"
     style="display:inline"
     sodipodi:insensitive="true">
    <path
       sodipodi:nodetypes="cssccssccssccssc"
       inkscape:connector-curvature="0"
       id="path4608"
       d="m 369.5,307 -117,0 c -23.555,0 -42.5,21.92722 -42.5,42.5 l 0,20 m -20,0 0,-146 C 190,143.827 262.39404,93 349.5,93 l 20,0 m 0,-26 -20,0 C 191.99543,67 67,196.11727 67,349.5 l 0,20 m 266,0 0,-20 c 0,-6.18503 7.45621,-16.5 16.5,-16.5 l 20,0"
       style="font-size:medium;font-style:normal;font-variant:normal;font-weight:normal;font-stretch:normal;text-indent:0;text-align:start;text-decoration:none;line-height:normal;letter-spacing:normal;word-spacing:normal;text-transform:none;direction:ltr;block-progression:tb;writing-mode:lr-tb;text-anchor:start;baseline-shift:baseline;color:#000000;fill:none;stroke:#000000;stroke-width:1;stroke-linecap:square;stroke-miterlimit:4;stroke-dasharray:none;marker:none;visibility:visible;display:inline;overflow:visible;enable-background:accumulate;font-family:Sans;-inkscape-font-specification:Sans" />
    <path
       sodipodi:nodetypes="ccsccscc"
       inkscape:connector-curvature="0"
       id="path4610"
       d="m 210,369.5 0,-20 c 0,-20.57278 18.945,-42.5 42.5,-42.5 l 117,0 m 0,-213.999997 -20,0 C 262.39404,93.000003 190,143.827 190,223.5 l 0,146"
       style="font-size:medium;font-style:normal;font-variant:normal;font-weight:normal;font-stretch:normal;text-indent:0;text-align:start;text-decoration:none;line-height:normal;letter-spacing:normal;word-spacing:normal;text-transform:none;direction:ltr;block-progression:tb;writing-mode:lr-tb;text-anchor:start;baseline-shift:baseline;color:#000000;fill:none;stroke:#000000;stroke-width:1;stroke-linecap:square;stroke-miterlimit:4;stroke-dasharray:none;marker:none;visibility:visible;display:inline;overflow:visible;enable-background:accumulate;font-family:Sans;-inkscape-font-specification:Sans" />
  </g>
</svg>
