<?xml version="1.0" encoding="UTF-8" standalone="no"?>
<!-- Created with Inkscape (http://www.inkscape.org/) -->
<svg
   xmlns:dc="http://purl.org/dc/elements/1.1/"
   xmlns:cc="http://creativecommons.org/ns#"
   xmlns:rdf="http://www.w3.org/1999/02/22-rdf-syntax-ns#"
   xmlns:svg="http://www.w3.org/2000/svg"
   xmlns="http://www.w3.org/2000/svg"
   xmlns:sodipodi="http://sodipodi.sourceforge.net/DTD/sodipodi-0.dtd"
   xmlns:inkscape="http://www.inkscape.org/namespaces/inkscape"
   style="display:inline"
   sodipodi:docname="6FD541CA55A5BF257_00_00_00_SW_.svg"
   inkscape:version="0.48.3.1 r9886"
   version="1.1"
   id="svg2902"
   height="400"
   width="400">
  
  <g
     inkscape:groupmode="layer"
     id="lt001"
     inkscape:label="LOUT-001"
     style="display:inline">
    <path
       id="left-top-7-1"
       style="fill:#ffffff;stroke:none;display:inline"
       d="m 30.5,190 70.48608,0 0,20 L 30.5,210 z"
       sodipodi:nodetypes="ccccc"
       inkscape:connector-curvature="0" />
    <path
       id="left-top-7"
       style="fill:none;stroke:#000000;stroke-width:1.00000036px;stroke-linecap:square;stroke-linejoin:miter;stroke-opacity:1;display:inline"
       d="m 30.5,190 70.48608,0 M 30.5,210 l 70.48608,0"
       sodipodi:nodetypes="cccc"
       inkscape:connector-curvature="0" />
  </g>
  <g
     inkscape:groupmode="layer"
     id="tv001"
     inkscape:label="RADIO-001"
     style="display:inline">
    <path
       style="fill:#ffffff;stroke:none;display:inline"
       d="m 136.875,121.53125 -27.4375,8.9375 c -2.87359,0.89478 -8.0625,3.39294 -8.0625,7.96875 l 0,147.71875 c 0,3.383 4.1679,7.90625 8.25,7.90625 l 1.59375,0 228.6875,0 4.34375,0 c 3.258,0 5.90625,-2.64425 5.90625,-5.90625 l 0,-151.71875 c 0,-2.03625 -1.0293,-3.85086 -2.59375,-4.90625 l -14.34375,-10 z"
       id="1102-6"
       inkscape:connector-curvature="0"
       sodipodi:nodetypes="ccsssccsssccc" />
    <path
       style="fill:none;stroke:#ff0000;stroke-width:1;stroke-linejoin:round;stroke-miterlimit:4;stroke-dasharray:none"
       id="1"
       d="m 339.90874,294.0543 0,-163.512 4.356,0 c 3.258,0 5.883,2.625 5.883,5.883 l 0,151.746 c 0,3.262 -2.625,5.883 -5.883,5.883 l -4.356,0 z m 0,0"
       inkscape:connector-curvature="0" />
    <path
       style="fill:none;stroke:#ff0000;stroke-width:1;stroke-linejoin:round;stroke-miterlimit:4;stroke-dasharray:none"
       id="2"
       d="m 111.20194,294.0543 0,-163.512 64.7108,0 c 3.258,0 5.883,2.625 5.883,5.883 l 0,151.746 c 0,3.262 -2.625,5.883 -5.883,5.883 l -64.7108,0 z m 0,0"
       inkscape:connector-curvature="0" />
    <path
       style="fill:none;stroke:#ff0000;stroke-width:1;stroke-miterlimit:4;stroke-dasharray:none"
       id="3"
       d="m 178.65174,293.3973 161.281,0"
       inkscape:connector-curvature="0" />
    <path
       style="fill:none;stroke:#ff0000;stroke-width:1;stroke-miterlimit:4;stroke-dasharray:none"
       id="4"
       d="m 178.61974,131.2023 161.266,0"
       inkscape:connector-curvature="0" />
    <path
       style="fill:none;stroke:#ff0000;stroke-width:1;stroke-miterlimit:4;stroke-dasharray:none"
       id="5"
       d="m 181.79574,220.5893 158.074,0"
       inkscape:connector-curvature="0" />
    <path
       style="fill:none;stroke:#ff0000;stroke-width:1;stroke-linejoin:round;stroke-miterlimit:4;stroke-dasharray:none"
       id="6"
       d="m 331.48609,163.89052 c 0,6.0575 -4.96576,10.96776 -11.09557,10.96776 -6.13119,0 -11.10118,-4.91026 -11.10118,-10.96776 0,-6.05056 4.96999,-10.96221 11.10118,-10.96221 6.12981,0 11.09557,4.91165 11.09557,10.96221 z m 0,0"
       inkscape:connector-curvature="0" />
    <path
       style="fill:none;stroke:#ff0000;stroke-width:1;stroke-linejoin:round;stroke-miterlimit:4;stroke-dasharray:none"
       id="7"
       d="m 331.48609,198.13752 c 0,6.05612 -4.96576,10.96777 -11.09557,10.96777 -6.13119,0 -11.10118,-4.91165 -11.10118,-10.96777 0,-6.05612 4.96999,-10.9622 11.10118,-10.9622 6.12981,0 11.09557,4.90608 11.09557,10.9622 z m 0,0"
       inkscape:connector-curvature="0" />
    <path
       style="fill:none;stroke:#ff0000;stroke-width:0.99999994;stroke-linejoin:round;stroke-miterlimit:4;stroke-dasharray:none"
       id="8"
       d="m 219.02642,242.28373 c 3.97261,6.48873 2.18138,15.1374 -4.00395,19.3019 -6.18531,4.17943 -14.42671,2.28837 -18.39933,-4.20036 -3.98115,-6.48873 -2.18138,-15.12245 4.00395,-19.30188 6.18531,-4.1645 14.41817,-2.2854 18.39933,4.20034 z m 0,0"
       inkscape:connector-curvature="0" />
    <path
       style="fill:none;stroke:#ff0000;stroke-width:0.99999994;stroke-miterlimit:4;stroke-dasharray:none"
       id="9"
       d="m 200.61569,238.08339 7.14217,11.64804"
       inkscape:connector-curvature="0" />
    <path
       style="fill:none;stroke:#ff0000;stroke-width:0.99999994;stroke-linejoin:round;stroke-miterlimit:4;stroke-dasharray:none"
       id="10"
       d="m 234.10628,242.4839 c 3.86155,-6.55745 12.07164,-8.57697 18.32245,-4.51703 6.25083,4.05995 8.1873,12.66081 4.3172,19.22122 -3.87295,6.55746 -12.08302,8.58892 -18.33385,4.52599 -6.25081,-4.05994 -8.17589,-12.67274 -4.3058,-19.23018 z m 0,0"
       inkscape:connector-curvature="0" />
    <path
       style="fill:none;stroke:#ff0000;stroke-width:0.99999994;stroke-miterlimit:4;stroke-dasharray:none"
       id="11"
       d="m 238.41208,261.72603 6.94284,-11.77352"
       inkscape:connector-curvature="0" />
    <path
       style="fill:none;stroke:#ff0000;stroke-width:0.99999994;stroke-linejoin:round;stroke-miterlimit:4;stroke-dasharray:none"
       id="12"
       d="m 283.58418,235.87865 c 7.34151,0.32563 13.0484,6.83827 12.74654,14.5399 -0.31041,7.71358 -6.51851,13.70042 -13.86002,13.37479 -7.3529,-0.31667 -13.05979,-6.82929 -12.74654,-14.54288 0.29901,-7.70164 6.50711,-13.68848 13.86002,-13.37181 z m 0,0"
       inkscape:connector-curvature="0" />
    <path
       style="fill:none;stroke:#ff0000;stroke-width:0.99999994;stroke-miterlimit:4;stroke-dasharray:none"
       id="13"
       d="m 269.71276,249.25046 13.18226,0.58554"
       inkscape:connector-curvature="0" />
    <path
       style="fill:none;stroke:#ff0000;stroke-width:1;stroke-miterlimit:4;stroke-dasharray:none"
       id="127"
       d="m 196.43274,154.3043 97.73,0"
       inkscape:connector-curvature="0" />
    <path
       style="fill:none;stroke:#ff0000;stroke-width:1;stroke-miterlimit:4;stroke-dasharray:none"
       id="129"
       d="m 196.43274,171.3743 97.73,0"
       inkscape:connector-curvature="0" />
    <path
       style="fill:none;stroke:#ff0000;stroke-width:1;stroke-miterlimit:4;stroke-dasharray:none"
       id="131"
       d="m 196.43274,187.2573 97.73,0"
       inkscape:connector-curvature="0" />
    <path
       style="fill:none;stroke:#ff0000;stroke-width:1;stroke-miterlimit:4;stroke-dasharray:none"
       id="133"
       d="m 196.43274,203.1403 97.73,0"
       inkscape:connector-curvature="0" />
    <path
       style="fill:none;stroke:#ff0000;stroke-width:1;stroke-miterlimit:4;stroke-dasharray:none"
       id="318"
       d="m 181.79574,141.5183 158.074,0"
       inkscape:connector-curvature="0" />
    <path
       style="fill:none;stroke:#ff0000;stroke-width:1;stroke-miterlimit:4;stroke-dasharray:none"
       id="319"
       d="m 197.08195,214.59139 3.02003,0"
       inkscape:connector-curvature="0" />
    <path
       style="fill:none;stroke:#ff0000;stroke-width:1;stroke-miterlimit:4;stroke-dasharray:none"
       id="323"
       d="m 215.71725,214.59139 3.02003,0"
       inkscape:connector-curvature="0" />
    <path
       style="fill:none;stroke:#ff0000;stroke-width:1;stroke-miterlimit:4;stroke-dasharray:none"
       id="327"
       d="m 234.35255,214.59139 3.02003,0"
       inkscape:connector-curvature="0" />
    <path
       style="fill:none;stroke:#ff0000;stroke-width:1;stroke-miterlimit:4;stroke-dasharray:none"
       id="331"
       d="m 252.98785,214.59139 3.02003,0"
       inkscape:connector-curvature="0" />
    <path
       style="fill:none;stroke:#ff0000;stroke-width:1;stroke-miterlimit:4;stroke-dasharray:none"
       id="335"
       d="m 271.62314,214.59139 3.01534,0"
       inkscape:connector-curvature="0" />
    <path
       style="fill:none;stroke:#ff0000;stroke-width:1;stroke-miterlimit:4;stroke-dasharray:none"
       id="339"
       d="m 290.25726,214.59139 3.01652,0"
       inkscape:connector-curvature="0" />
    <path
       style="fill:none;stroke:#ff0000;stroke-width:1;stroke-miterlimit:4;stroke-dasharray:none"
       id="343"
       d="m 261.60474,208.2683 5.523,0 0,-58.367 -5.523,0 0,58.367 z"
       inkscape:connector-curvature="0" />
    <path
       id="1102"
       style="fill:none;stroke:#ff0000;stroke-width:1;stroke-miterlimit:4;stroke-dasharray:none"
       d="m 347.55774,131.5303 -14.336,-10.008 -196.34,0 -27.4538,8.93161 c -2.87359,0.89478 -8.0541,3.39558 -8.0541,7.97139 l 0,147.746 c 0,3.383 4.1601,7.883 8.2422,7.883 l 1.59064,0"
       inkscape:connector-curvature="0"
       sodipodi:nodetypes="cssccccc" />
  </g>
</svg>
