<?xml version="1.0" encoding="UTF-8" standalone="no"?>
<!-- Created with Inkscape (http://www.inkscape.org/) -->
<svg
   xmlns:dc="http://purl.org/dc/elements/1.1/"
   xmlns:cc="http://creativecommons.org/ns#"
   xmlns:rdf="http://www.w3.org/1999/02/22-rdf-syntax-ns#"
   xmlns:svg="http://www.w3.org/2000/svg"
   xmlns="http://www.w3.org/2000/svg"
   xmlns:sodipodi="http://sodipodi.sourceforge.net/DTD/sodipodi-0.dtd"
   xmlns:inkscape="http://www.inkscape.org/namespaces/inkscape"
   style="display:inline"
   sodipodi:docname="70855B1E088BDC-R+_CB_00_00_00_.svg"
   inkscape:version="0.48.3.1 r9886"
   version="1.1"
   id="svg2902"
   height="400"
   width="400">
  
  <g
     style="display:inline"
     inkscape:label="ELEMENT-001"
     id="element"
     inkscape:groupmode="layer">
    <path
       id="C-top-4-2-5"
       style="color:#000000;fill:#000000;stroke:none;stroke-width:1.00000036px;marker:none;visibility:visible;display:inline;overflow:visible;enable-background:accumulate"
       d="m 307,30.5 0,10.000237 0,7.963714 C 307,107.2213 258.91083,156.56508 200.15347,156.56508 141.39613,156.56508 93,107.2213 93,48.463951 L 93,40.500237 93,30.5 l -26,0 0,10 0,7.963951 C 67,121.75853 126.85891,181.46396 200.15347,181.46396 273.44806,181.46396 333,121.75853 333,48.463951 L 333,40.500237 333,30.5 z"
       inkscape:connector-curvature="0"
       sodipodi:nodetypes="ccsssccccsssccc" />
    <path
       id="C-top-3-8"
       style="color:#000000;fill:none;stroke:#000000;stroke-width:1.00000036px;stroke-linecap:square;stroke-linejoin:miter;stroke-miterlimit:4;stroke-opacity:1;stroke-dasharray:none;stroke-dashoffset:0;marker:none;visibility:visible;display:inline;overflow:visible;enable-background:accumulate"
       d="m 307,30.5 0,10.000237 0,7.963714 C 307,107.2213 258.91083,156.56508 200.15347,156.56508 141.39613,156.56508 93,107.2213 93,48.463951 L 93,40.500237 93,30.5"
       inkscape:connector-curvature="0"
       sodipodi:nodetypes="cccsccc" />
    <path
       id="C-top-4-2"
       style="color:#000000;fill:none;stroke:#000000;stroke-width:1.00000036px;stroke-linecap:square;stroke-linejoin:miter;stroke-miterlimit:4;stroke-opacity:1;stroke-dasharray:none;stroke-dashoffset:0;marker:none;visibility:visible;display:inline;overflow:visible;enable-background:accumulate"
       d="m 333,30.5 0,10.000237 0,7.963714 C 333,121.75853 273.44806,181.46396 200.15347,181.46396 126.85891,181.46396 67,121.75853 67,48.463951 L 67,40.5 l 0,-10"
       inkscape:connector-curvature="0"
       sodipodi:nodetypes="cccsccc" />
  </g>
</svg>
