<?xml version="1.0" encoding="UTF-8" standalone="no"?>
<!-- Created with Inkscape (http://www.inkscape.org/) -->
<svg
   xmlns:dc="http://purl.org/dc/elements/1.1/"
   xmlns:cc="http://creativecommons.org/ns#"
   xmlns:rdf="http://www.w3.org/1999/02/22-rdf-syntax-ns#"
   xmlns:svg="http://www.w3.org/2000/svg"
   xmlns="http://www.w3.org/2000/svg"
   xmlns:sodipodi="http://sodipodi.sourceforge.net/DTD/sodipodi-0.dtd"
   xmlns:inkscape="http://www.inkscape.org/namespaces/inkscape"
   style="display:inline"
   sodipodi:docname="77906410D2068C03A_00_CW_00_00_.svg"
   inkscape:version="0.48.3.1 r9886"
   version="1.1"
   id="svg2902"
   height="400"
   width="400">
  
  <g
     inkscape:groupmode="layer"
     id="layer1"
     inkscape:label="STABE-001"
     style="display:inline">
    <path
       sodipodi:nodetypes="cccccccccc"
       inkscape:connector-curvature="0"
       d="m 369.5,307 -170.00023,0 0,26 L 369.5,333 z M 249.49977,93 369.5,93 l 0,-26 -120.00023,0 z"
       style="color:#000000;fill:#ffffff;stroke:none;stroke-width:1.00000036px;marker:none;visibility:visible;display:inline;overflow:visible;enable-background:accumulate"
       id="path3727" />
    <path
       id="C-right-4-0"
       style="color:#000000;fill:none;stroke:#000000;stroke-width:1.00000036px;stroke-linecap:square;stroke-linejoin:miter;stroke-miterlimit:4;stroke-opacity:1;stroke-dasharray:none;stroke-dashoffset:0;marker:none;visibility:visible;display:inline;overflow:visible;enable-background:accumulate"
       d="m 369.5,333 -170.00023,0 M 369.5,307 199.49977,307 M 369.5,93 249.49977,93 M 369.5,67 249.49977,67"
       inkscape:connector-curvature="0"
       sodipodi:nodetypes="cccccccc" />
    <g
       style="font-size:414.80303955px;font-style:normal;font-variant:normal;font-weight:600;font-stretch:normal;text-align:center;line-height:140.99999666%;letter-spacing:0px;word-spacing:0px;writing-mode:lr-tb;text-anchor:middle;fill:#000000;fill-opacity:1;stroke:none;display:inline;font-family:Autobahn;-inkscape-font-specification:Autobahn Semi-Bold"
       id="text3751">
      <path
         d="m 115.96279,303.38547 80.47179,36.50267 81.3014,-54.754 0,-124.85571 -35.25826,-16.17732 35.25826,-23.22897 0,-64.294474 -52.67999,-24.058576 -44.79873,31.939834 0,-25.302985 -63.87967,0 0,263.814731 -0.4148,0.4148 m 97.89352,-18.66613 -33.59905,-14.51811 0,-85.86423 33.59905,14.51811 0,85.86423 m 0,-140.20343 -33.59905,23.64377 0,-87.523437 33.59905,14.932909 0,48.946758"
         id="path3931"
         inkscape:connector-curvature="0" />
    </g>
    <g
       id="g3598"
       style="font-size:414.80303954999999405px;font-style:normal;font-variant:normal;font-weight:600;font-stretch:normal;text-align:center;line-height:140.99999665999999365%;letter-spacing:0px;word-spacing:0px;writing-mode:lr-tb;text-anchor:middle;fill:none;fill-opacity:1;stroke:#000000;display:inline;font-family:Autobahn;-inkscape-font-specification:Autobahn Semi-Bold">
      <path
         inkscape:connector-curvature="0"
         id="path3600"
         d="m 115.96279,303.38547 80.47179,36.50267 81.3014,-54.754 0,-124.85571 -35.25826,-16.17732 35.25826,-23.22897 0,-64.294474 -52.67999,-24.058576 -44.79873,31.939834 0,-25.302985 -63.87967,0 0,263.814731 -0.4148,0.4148 m 97.89352,-18.66613 -33.59905,-14.51811 0,-85.86423 33.59905,14.51811 0,85.86423 m 0,-140.20343 -33.59905,23.64377 0,-87.523437 33.59905,14.932909 0,48.946758"
         style="stroke:#000000;fill:none" />
    </g>
  </g>
</svg>
