<?xml version="1.0" encoding="UTF-8" standalone="no"?>
<!-- Created with Inkscape (http://www.inkscape.org/) -->
<svg
   xmlns:dc="http://purl.org/dc/elements/1.1/"
   xmlns:cc="http://creativecommons.org/ns#"
   xmlns:rdf="http://www.w3.org/1999/02/22-rdf-syntax-ns#"
   xmlns:svg="http://www.w3.org/2000/svg"
   xmlns="http://www.w3.org/2000/svg"
   xmlns:sodipodi="http://sodipodi.sourceforge.net/DTD/sodipodi-0.dtd"
   xmlns:inkscape="http://www.inkscape.org/namespaces/inkscape"
   style="display:inline"
   sodipodi:docname="80DB04A2E5D1EE-R+_00_00_SW_00_.svg"
   inkscape:version="0.48.3.1 r9886"
   version="1.1"
   id="svg2902"
   height="400"
   width="400">
  
  <g
     inkscape:groupmode="layer"
     id="layer2"
     inkscape:label="ELEMENT-002"
     style="display:inline">
    <path
       style="color:#000000;fill:#ffffff;fill-opacity:1;fill-rule:nonzero;stroke:none;stroke-width:1.00000036px;marker:none;visibility:visible;display:inline;overflow:visible;enable-background:accumulate"
       d="m 237.25345,292.38636 c 0,9.06748 -16.67894,16.41816 -37.25345,16.41816 -20.57451,0 -37.25345,-7.35068 -37.25345,-16.41816 0,-9.06752 16.67894,-16.41817 37.25345,-16.41817 20.57451,0 37.25345,7.35065 37.25345,16.41817 z"
       id="path3078"
       inkscape:connector-curvature="0" />
    <path
       style="color:#000000;fill:none;stroke:#ff00ff;stroke-width:1.00000036px;marker:none;visibility:visible;display:inline;overflow:visible;enable-background:accumulate"
       d="m 237.25344,292.38636 c 0,9.06748 -16.67894,16.41816 -37.25345,16.41816 -20.57451,0 -37.25345,-7.35068 -37.25345,-16.41816 0,-9.06752 16.67894,-16.41817 37.25345,-16.41817 20.57451,0 37.25345,7.35065 37.25345,16.41817 z"
       id="path3078-6"
       inkscape:connector-curvature="0" />
    <path
       style="fill:#ffffff;stroke:none;display:inline"
       d="m 200,276.5 c -3.69451,0 -7.14018,0.5492 -10,1.5 l 0,91.5 20,0 0,-91.5 c -2.85982,-0.9508 -6.30549,-1.5 -10,-1.5 z"
       id="bottom-left-2-0"
       inkscape:connector-curvature="0" />
    <path
       id="bottom-left-2"
       style="fill:none;stroke:#000000;stroke-width:1.00000036px;stroke-linecap:square;stroke-linejoin:miter;stroke-opacity:1;display:inline"
       d="m 190,369.5 0,-92.32817 m 20,92.32817 0,-92.32817"
       inkscape:connector-curvature="0"
       sodipodi:nodetypes="cccc" />
    <path
       style="color:#000000;fill:none;stroke:#ff00ff;stroke-width:1.00000036px;marker:none;visibility:visible;display:inline;overflow:visible;enable-background:accumulate"
       d="m 162.74654,292.38636 c 0,-9.06752 16.67894,-16.41817 37.25345,-16.41817 20.57451,0 37.25345,7.35065 37.25345,16.41817"
       id="path3078-6-0"
       inkscape:connector-curvature="0"
       sodipodi:nodetypes="csc" />
  </g>
</svg>
