<?xml version="1.0" encoding="UTF-8" standalone="no"?>
<!-- Created with Inkscape (http://www.inkscape.org/) -->
<svg
   xmlns:dc="http://purl.org/dc/elements/1.1/"
   xmlns:cc="http://creativecommons.org/ns#"
   xmlns:rdf="http://www.w3.org/1999/02/22-rdf-syntax-ns#"
   xmlns:svg="http://www.w3.org/2000/svg"
   xmlns="http://www.w3.org/2000/svg"
   xmlns:sodipodi="http://sodipodi.sourceforge.net/DTD/sodipodi-0.dtd"
   xmlns:inkscape="http://www.inkscape.org/namespaces/inkscape"
   style="display:inline"
   sodipodi:docname="80DB018DADBBDD-R+_00_00_SB_00_.svg"
   inkscape:version="0.48.3.1 r9886"
   version="1.1"
   id="svg2902"
   height="400"
   width="400">
  
  <g
     style="display:inline"
     inkscape:label="ELEMENT-001"
     layerid="element"
     id="element"
     inkscape:groupmode="layer">
    <path
       inkscape:connector-curvature="0"
       id="bottom-left-8-8"
       style="fill:#000000;stroke:none;display:inline"
       d="m 210,369.5 0,-30.11665 c 0,-54.14582 30.56871,-86.92048 20,-129.19869 -4.04196,-16.16912 -17.9815,-20 -30,-20 -12.0185,0 -26.18126,3.77671 -30,20 -8.47876,36.02059 20,75.08753 20,129.19869 L 190,369.5 z"
       sodipodi:nodetypes="ccaaaccc" />
    <path
       id="bottom-left-8"
       style="fill:none;stroke:#000000;stroke-width:1.00000036px;stroke-linecap:square;stroke-linejoin:miter;stroke-opacity:1;display:inline"
       d="m 210,369.5 0,-30.11665 c 0,-54.14582 30.56871,-86.92048 20,-129.19869 -4.04196,-16.16912 -17.9815,-20 -30,-20 -12.0185,0 -26.18126,3.77671 -30,20 -8.47876,36.02059 20,75.08753 20,129.19869 L 190,369.5"
       sodipodi:nodetypes="ccaaacc"
       inkscape:connector-curvature="0" />
  </g>
</svg>
