<?xml version="1.0" encoding="UTF-8" standalone="no"?>
<!-- Created with Inkscape (http://www.inkscape.org/) -->
<svg
   xmlns:dc="http://purl.org/dc/elements/1.1/"
   xmlns:cc="http://creativecommons.org/ns#"
   xmlns:rdf="http://www.w3.org/1999/02/22-rdf-syntax-ns#"
   xmlns:svg="http://www.w3.org/2000/svg"
   xmlns="http://www.w3.org/2000/svg"
   xmlns:sodipodi="http://sodipodi.sourceforge.net/DTD/sodipodi-0.dtd"
   xmlns:inkscape="http://www.inkscape.org/namespaces/inkscape"
   style="display:inline"
   sodipodi:docname="80DB018D791A65-R+_00_00_SB_00_.svg"
   inkscape:version="0.48.3.1 r9886"
   version="1.1"
   id="svg2902"
   height="400"
   width="400">
  
  <g
     inkscape:groupmode="layer"
     id="layer2"
     inkscape:label="ELEMENT-002">
    <path
       style="color:#000000;fill:#ffffff;fill-opacity:1;fill-rule:nonzero;stroke:none;stroke-width:1.00000036px;marker:none;visibility:visible;display:inline;overflow:visible;enable-background:accumulate"
       d="m 240.75064,297.13885 c 0,11.25297 -18.24468,20.37532 -40.75064,20.37532 -22.50596,0 -40.75064,-9.12235 -40.75064,-20.37532 0,-11.25299 18.24468,-20.37532 40.75064,-20.37532 22.50596,0 40.75064,9.12233 40.75064,20.37532 z"
       id="path3078"
       inkscape:connector-curvature="0" />
    <path
       style="color:#000000;fill:none;stroke:#ff00ff;stroke-width:1.00000036px;marker:none;visibility:visible;display:inline;overflow:visible;enable-background:accumulate"
       d="m 240.75064,297.13885 c 0,11.25297 -18.24468,20.37532 -40.75064,20.37532 -22.50596,0 -40.75064,-9.12235 -40.75064,-20.37532 0,-11.25299 18.24468,-20.37532 40.75064,-20.37532 22.50596,0 40.75064,9.12233 40.75064,20.37532 z"
       id="path3078-2"
       inkscape:connector-curvature="0" />
    <path
       style="fill:#000000;stroke:none;display:inline"
       d="M 200 276.5 C 196.30549 276.5 192.85982 277.0492 190 278 L 190 369.5 L 210 369.5 L 210 278 C 207.14018 277.0492 203.69451 276.5 200 276.5 z "
       id="bottom-left-2-0" />
    <path
       id="bottom-left-2"
       style="fill:none;stroke:#000000;stroke-width:1.00000036px;stroke-linecap:square;stroke-linejoin:miter;stroke-opacity:1;display:inline"
       d="m 190,369.5 0,-91.32817 m 20,91.32817 0,-91.32817"
       inkscape:connector-curvature="0"
       sodipodi:nodetypes="cccc" />
    <path
       style="color:#000000;fill:none;stroke:#ff00ff;stroke-width:1.00000036px;marker:none;visibility:visible;display:inline;overflow:visible;enable-background:accumulate"
       d="m 159.24936,297.13885 c 0,-11.25299 18.24468,-20.37532 40.75064,-20.37532 22.50596,0 40.75064,9.12233 40.75064,20.37532"
       id="path3078-2-9"
       inkscape:connector-curvature="0"
       sodipodi:nodetypes="csc" />
  </g>
</svg>
