<?xml version="1.0" encoding="UTF-8" standalone="no"?>
<!-- Created with Inkscape (http://www.inkscape.org/) -->
<svg
   xmlns:dc="http://purl.org/dc/elements/1.1/"
   xmlns:cc="http://creativecommons.org/ns#"
   xmlns:rdf="http://www.w3.org/1999/02/22-rdf-syntax-ns#"
   xmlns:svg="http://www.w3.org/2000/svg"
   xmlns="http://www.w3.org/2000/svg"
   xmlns:sodipodi="http://sodipodi.sourceforge.net/DTD/sodipodi-0.dtd"
   xmlns:inkscape="http://www.inkscape.org/namespaces/inkscape"
   style="display:inline"
   sodipodi:docname="80DB04A2B03A18-R+_00_00_SW_00_.svg"
   inkscape:version="0.48.3.1 r9886"
   version="1.1"
   id="svg2902"
   height="400"
   width="400">
  
  <g
     inkscape:label="ELEMENT-003"
     id="g3019"
     inkscape:groupmode="layer">
    <path
       inkscape:connector-curvature="0"
       id="path3021"
       d="m 254.69318,301.20149 c 0,13.38365 -24.48697,24.23329 -54.69318,24.23329 -30.2062,0 -54.69317,-10.84964 -54.69317,-24.23329 0,-13.3837 24.48697,-24.2333 54.69317,-24.2333 30.20621,0 54.69318,10.8496 54.69318,24.2333 z"
       style="color:#000000;fill:#000000;fill-opacity:1;fill-rule:nonzero;stroke:none;stroke-width:1.00000036px;marker:none;visibility:visible;display:inline;overflow:visible;enable-background:accumulate" />
    <path
       inkscape:connector-curvature="0"
       id="path3023"
       d="m 254.69317,301.20148 c 0,13.38365 -24.48698,24.23329 -54.69318,24.23329 -30.2062,0 -54.69317,-10.84964 -54.69317,-24.23329 0,-13.38371 24.48697,-24.2333 54.69317,-24.2333 30.2062,0 54.69318,10.84959 54.69318,24.2333 z"
       style="color:#000000;fill:none;stroke:#ff00ff;stroke-width:1.00000036px;marker:none;visibility:visible;display:inline;overflow:visible;enable-background:accumulate" />
    <path
       id="path3025"
       d="M 200 276.5 C 196.30549 276.5 192.85982 277.0492 190 278 L 190 369.5 L 210 369.5 L 210 278 C 207.14018 277.0492 203.69451 276.5 200 276.5 z "
       style="fill:#ffffff;stroke:none;display:inline" />
    <path
       sodipodi:nodetypes="cccc"
       inkscape:connector-curvature="0"
       d="m 190,369.5 0,-91.894 m 20,91.894 0,-91.894"
       style="fill:none;stroke:#000000;stroke-width:1.00000036px;stroke-linecap:square;stroke-linejoin:miter;stroke-opacity:1;display:inline"
       id="path3027" />
    <path
       sodipodi:nodetypes="csc"
       inkscape:connector-curvature="0"
       id="path3029"
       d="m 145.30682,301.20148 c 0,-13.38371 24.48697,-24.2333 54.69317,-24.2333 30.2062,0 54.69318,10.84959 54.69318,24.2333"
       style="color:#000000;fill:none;stroke:#ff00ff;stroke-width:1.00000036px;marker:none;visibility:visible;display:inline;overflow:visible;enable-background:accumulate" />
  </g>
</svg>
