<?xml version="1.0" encoding="UTF-8" standalone="no"?>
<!-- Created with Inkscape (http://www.inkscape.org/) -->
<svg
   xmlns:dc="http://purl.org/dc/elements/1.1/"
   xmlns:cc="http://creativecommons.org/ns#"
   xmlns:rdf="http://www.w3.org/1999/02/22-rdf-syntax-ns#"
   xmlns:svg="http://www.w3.org/2000/svg"
   xmlns="http://www.w3.org/2000/svg"
   xmlns:sodipodi="http://sodipodi.sourceforge.net/DTD/sodipodi-0.dtd"
   xmlns:inkscape="http://www.inkscape.org/namespaces/inkscape"
   style="display:inline"
   sodipodi:docname="82099795B5F7C6-R+_SW_UW_00_CB_.svg"
   inkscape:version="0.48.3.1 r9886"
   version="1.1"
   id="svg2902"
   height="400"
   width="400">
  
  <g
     inkscape:label="CBSW-001"
     id="g3911"
     inkscape:groupmode="layer"
     style="display:inline">
    <path
       id="path4048"
       style="color:#000000;fill:#000000;stroke:none;stroke-width:1.00000036px;marker:none;visibility:visible;display:inline;overflow:visible;enable-background:accumulate"
       d="m 30.5,93 10.00023,0 99.31227,0 C 169.05289,93 190,70.996272 190,39.8125 l 0,-0.9375 0,0.9375 C 190,55.098611 178.09861,67 162.8125,67 L 40.50023,67 30.5,67 z"
       inkscape:connector-curvature="0"
       sodipodi:nodetypes="cccscscccc" />
    <path
       id="path4042"
       style="font-size:medium;font-style:normal;font-variant:normal;font-weight:normal;font-stretch:normal;text-indent:0;text-align:start;text-decoration:none;line-height:normal;letter-spacing:normal;word-spacing:normal;text-transform:none;direction:ltr;block-progression:tb;writing-mode:lr-tb;text-anchor:start;baseline-shift:baseline;color:#000000;fill:none;stroke:#000000;stroke-width:1.00000036px;stroke-linecap:square;stroke-linejoin:miter;stroke-miterlimit:4;stroke-opacity:1;stroke-dasharray:none;stroke-dashoffset:0;marker:none;visibility:visible;display:inline;overflow:visible;enable-background:accumulate;font-family:Sans;-inkscape-font-specification:Sans"
       d="M 190,39.8125 C 190,55.098611 178.09861,67 162.8125,67 L 40.50023,67 30.5,67"
       inkscape:connector-curvature="0"
       sodipodi:nodetypes="cccc" />
    <path
       id="path4001"
       style="color:#000000;fill:#000000;stroke:none;stroke-width:1.00000036px;marker:none;visibility:visible;display:inline;overflow:visible;enable-background:accumulate"
       d="m 29.5,307 11.00023,0 18.96852,0 C 143.0826,307 210,240.0826 210,156.46875 l 0,7.49675 C 210,257.61061 134.61061,333 40.9655,333 L 40.50023,333 29.5,333 z"
       inkscape:connector-curvature="0"
       sodipodi:nodetypes="ccsccsccc" />
    <path
       id="C-left-2-3"
       style="color:#000000;fill:none;stroke:#000000;stroke-width:1.00000036px;stroke-linecap:square;stroke-linejoin:miter;stroke-miterlimit:4;stroke-opacity:1;stroke-dasharray:none;stroke-dashoffset:0;marker:none;visibility:visible;display:inline;overflow:visible;enable-background:accumulate"
       d="m 30.5,93 10.00023,0 100.31866,-1.1e-5 c 27.24594,0 49.18041,-21.934464 49.18041,-49.180413 L 190,40.500237 190,30.5"
       inkscape:connector-curvature="0"
       sodipodi:nodetypes="cccccc" />
    <path
       id="C-left-3-2"
       style="color:#000000;fill:none;stroke:#000000;stroke-width:1.00000036px;stroke-linecap:square;stroke-linejoin:miter;stroke-miterlimit:4;stroke-opacity:1;stroke-dasharray:none;stroke-dashoffset:0;marker:none;visibility:visible;display:inline;overflow:visible;enable-background:accumulate"
       d="m 30.5,307 10.00023,0 18.96852,0 C 143.0826,307 210,240.0826 210,156.46875 l 0,-72.9375"
       inkscape:connector-curvature="0"
       sodipodi:nodetypes="cccsc" />
    <path
       style="color:#000000;fill:none;stroke:#000000;stroke-width:1.00000036px;stroke-linecap:square;stroke-linejoin:miter;stroke-miterlimit:4;stroke-opacity:1;stroke-dasharray:none;stroke-dashoffset:0;marker:none;visibility:visible;display:inline;overflow:visible;enable-background:accumulate"
       d="m 30.5,333 10.00023,0"
       id="C-left-4-2"
       inkscape:connector-curvature="0" />
    <path
       id="path3978"
       style="color:#000000;fill:none;stroke:#000000;stroke-width:1.00000036px;stroke-linecap:square;stroke-linejoin:miter;stroke-miterlimit:4;stroke-opacity:1;stroke-dasharray:none;stroke-dashoffset:0;marker:none;visibility:visible;display:inline;overflow:visible;enable-background:accumulate"
       d="m 210,30.5 0,10.000237 0,11.534263 0,111.931 C 210,257.61061 134.61061,333 40.9655,333 L 40.50023,333 30.5,333"
       inkscape:connector-curvature="0"
       sodipodi:nodetypes="cccsccc" />
  </g>
  <g
     inkscape:label="U-002"
     id="g3100"
     inkscape:groupmode="layer"
     style="display:inline"
     zpos="2">
    <path
       sodipodi:nodetypes="ccsssccc"
       inkscape:connector-curvature="0"
       d="m 369.5,333 -160.00024,0 -7.96371,0 C 128.24147,333 68.53604,273.44806 68.53604,200.15347 68.53604,126.85891 128.24147,67 201.53605,67 l 7.96395,0 160,0 z"
       style="color:#000000;fill:#ffffff;stroke:none;stroke-width:1.00000036px;marker:none;visibility:visible;display:inline;overflow:visible;enable-background:accumulate"
       id="path3102" />
    <path
       sodipodi:nodetypes="cccsccc"
       inkscape:connector-curvature="0"
       d="m 369.5,333 -160.00024,0 -7.96371,0 C 128.24147,333 68.53604,273.44806 68.53604,200.15347 68.53604,126.85891 128.24147,67 201.53605,67 l 7.96395,0 160,0"
       style="color:#000000;fill:none;stroke:#000000;stroke-width:1.00000036px;stroke-linecap:square;stroke-linejoin:miter;stroke-miterlimit:4;stroke-opacity:1;stroke-dasharray:none;stroke-dashoffset:0;marker:none;visibility:visible;display:inline;overflow:visible;enable-background:accumulate"
       id="path3104" />
  </g>
</svg>
