<?xml version="1.0" encoding="UTF-8" standalone="no"?>
<!-- Created with Inkscape (http://www.inkscape.org/) -->
<svg
   xmlns:dc="http://purl.org/dc/elements/1.1/"
   xmlns:cc="http://creativecommons.org/ns#"
   xmlns:rdf="http://www.w3.org/1999/02/22-rdf-syntax-ns#"
   xmlns:svg="http://www.w3.org/2000/svg"
   xmlns="http://www.w3.org/2000/svg"
   xmlns:sodipodi="http://sodipodi.sourceforge.net/DTD/sodipodi-0.dtd"
   xmlns:inkscape="http://www.inkscape.org/namespaces/inkscape"
   style="display:inline"
   sodipodi:docname="8209D3360D95FB-R+_00_CW_CW_00_.svg"
   inkscape:version="0.48.3.1 r9886"
   version="1.1"
   id="svg2902"
   height="400"
   width="400">
  
  <g
     inkscape:groupmode="layer"
     id="g4556"
     inkscape:label="AUSSEN-002"
     style="display:inline"
     sodipodi:insensitive="true">
    <path
       style="font-size:medium;font-style:normal;font-variant:normal;font-weight:normal;font-stretch:normal;text-indent:0;text-align:start;text-decoration:none;line-height:normal;letter-spacing:normal;word-spacing:normal;text-transform:none;direction:ltr;block-progression:tb;writing-mode:lr-tb;text-anchor:start;baseline-shift:baseline;color:#000000;fill:#ffffff;fill-opacity:1;stroke:none;stroke-width:1;marker:none;visibility:visible;display:inline;overflow:visible;enable-background:accumulate;font-family:Sans;-inkscape-font-specification:Sans"
       d="m 349.5,67 c -25.13343,0 -44.62154,8.600624 -57.84375,22.25 -13.22221,13.64938 -20.35018,31.13209 -25.8125,48.84375 -10.92465,35.42332 -16.7276,72.57259 -34.625,90.53125 -18.32475,18.38747 -56.12356,24.30345 -92.125,35.5 -18.00072,5.59827 -35.73147,12.8788 -49.5625,26.375 C 75.700216,303.9962 67,323.85338 67,349.5 l 0,20 26,0 0,-20 c 0,-20.2442 5.626341,-31.5332 14.6875,-40.375 9.06116,-8.8418 22.76969,-15.10095 39.125,-20.1875 32.71062,-10.17309 75.14001,-14.20154 102.8125,-41.96875 27.23857,-27.33181 31.14725,-69.06841 41.0625,-101.21875 4.95763,-16.07517 11.04219,-29.54616 19.625,-38.40625 C 318.89531,98.483657 329.80394,93 349.5,93 l 20,0 0,-26 -20,0 z"
       id="path4558-2"
       inkscape:connector-curvature="0" />
    <path
       style="font-size:medium;font-style:normal;font-variant:normal;font-weight:normal;font-stretch:normal;text-indent:0;text-align:start;text-decoration:none;line-height:normal;letter-spacing:normal;word-spacing:normal;text-transform:none;direction:ltr;block-progression:tb;writing-mode:lr-tb;text-anchor:start;baseline-shift:baseline;color:#000000;fill:none;stroke:#000000;stroke-width:1;stroke-miterlimit:4;stroke-dasharray:none;marker:none;visibility:visible;display:inline;overflow:visible;enable-background:accumulate;font-family:Sans;-inkscape-font-specification:Sans"
       d="m 93,369.5 0,-20 c 0,-20.2442 5.626341,-31.5332 14.6875,-40.375 9.06116,-8.8418 22.76969,-15.10095 39.125,-20.1875 32.71062,-10.17309 75.14001,-14.20154 102.8125,-41.96875 27.23857,-27.33181 31.14725,-69.06841 41.0625,-101.21875 4.95763,-16.07517 11.04219,-29.54616 19.625,-38.40625 C 318.89531,98.483657 329.80394,93 349.5,93 l 20,0 m 0,-26 -20,0 c -25.13343,0 -44.62154,8.600624 -57.84375,22.25 -13.22221,13.64938 -20.35018,31.13209 -25.8125,48.84375 -10.92465,35.42332 -16.7276,72.57259 -34.625,90.53125 -18.32475,18.38747 -56.12356,24.30345 -92.125,35.5 -18.00072,5.59827 -35.73147,12.8788 -49.5625,26.375 C 75.700216,303.9962 67,323.85338 67,349.5 l 0,20"
       id="path4558"
       inkscape:connector-curvature="0"
       sodipodi:nodetypes="csssssssccsssssssc" />
  </g>
  <g
     style="display:inline"
     inkscape:label="INNEN-004"
     id="g4716"
     inkscape:groupmode="layer">
    <path
       inkscape:connector-curvature="0"
       style="font-size:medium;font-style:normal;font-variant:normal;font-weight:normal;font-stretch:normal;text-indent:0;text-align:start;text-decoration:none;line-height:normal;letter-spacing:normal;word-spacing:normal;text-transform:none;direction:ltr;block-progression:tb;writing-mode:lr-tb;text-anchor:start;baseline-shift:baseline;color:#000000;fill:#ffffff;fill-opacity:1;stroke:none;stroke-width:20;marker:none;visibility:visible;display:inline;overflow:visible;enable-background:accumulate;font-family:Sans;-inkscape-font-specification:Sans"
       d="m 233.40625,200.4375 c -8.15164,-0.0755 -16.38774,3.59782 -22.875,10.0625 -6.48274,6.46017 -10.22957,14.6516 -10.1875,22.78125 0.0421,8.12965 3.36039,15.42258 7.90625,22.03125 9.09171,13.21734 23.74394,24.9354 39.25,36.875 15.50606,11.9396 31.91875,23.88014 43.96875,35.15625 C 303.51875,338.61986 307,349.0127 307,355.5 l 0,14 26,0 0,-14 0,-1 -0.0313,0 C 332.41068,338.22048 318.34388,325.08867 305.125,312.71875 291.63628,300.09632 274.85322,288.02128 259.6875,276.34375 244.52178,264.66622 231.02627,253.16973 224.71875,244 c -3.15376,-4.58487 -4.36166,-8.26525 -4.375,-10.84375 -0.0133,-2.5785 0.65576,-4.82474 4.3125,-8.46875 3.60488,-3.59234 5.86862,-4.27497 8.5625,-4.25 2.69388,0.025 6.51901,1.28902 11.21875,4.46875 9.39948,6.35946 21.12688,19.81693 32.90625,34.9375 11.77937,15.12057 23.83722,31.83861 36.125,45.25 C 325.75653,318.50514 338.27539,333 354.5,333 l 15,0 0,-26 -15,0 c -5.05084,0 -15.21719,-3.33047 -26.28125,-15.40625 -11.06406,-12.07578 -23.01101,-28.52126 -35.09375,-44.03125 -12.08274,-15.50999 -24.09322,-30.14805 -37.5,-39.21875 -6.70339,-4.53535 -14.06711,-7.8307 -22.21875,-7.90625 z"
       id="path4720-0" />
    <path
       style="font-size:medium;font-style:normal;font-variant:normal;font-weight:normal;font-stretch:normal;text-indent:0;text-align:start;text-decoration:none;line-height:normal;letter-spacing:normal;word-spacing:normal;text-transform:none;direction:ltr;block-progression:tb;writing-mode:lr-tb;text-anchor:start;baseline-shift:baseline;color:#000000;fill:none;stroke:#000000;stroke-width:1;stroke-miterlimit:4;stroke-dasharray:none;marker:none;visibility:visible;display:inline;overflow:visible;enable-background:accumulate;font-family:Sans;-inkscape-font-specification:Sans"
       d="m 369.5,307 -15,0 c -5.05084,0 -15.21719,-3.33047 -26.28125,-15.40625 -11.06406,-12.07578 -23.01101,-28.52126 -35.09375,-44.03125 -12.08274,-15.50999 -24.09322,-30.14805 -37.5,-39.21875 -6.70339,-4.53535 -14.06711,-7.8307 -22.21875,-7.90625 -8.15164,-0.0755 -16.38774,3.59782 -22.875,10.0625 -6.48274,6.46017 -10.22957,14.6516 -10.1875,22.78125 0.0421,8.12965 3.36039,15.42258 7.90625,22.03125 9.09171,13.21734 23.74394,24.9354 39.25,36.875 15.50606,11.9396 31.91875,23.88014 43.96875,35.15625 C 303.51875,338.61986 307,349.0127 307,355.5 l 0,14 m 26,0 0,-14 0,-1 -0.0313,0 C 332.41068,338.22048 318.34388,325.08867 305.125,312.71875 291.63628,300.09632 274.85322,288.02128 259.6875,276.34375 244.52178,264.66622 231.02627,253.16973 224.71875,244 c -3.15376,-4.58487 -4.36166,-8.26525 -4.375,-10.84375 -0.0133,-2.5785 0.65576,-4.82474 4.3125,-8.46875 3.60488,-3.59234 5.86862,-4.27497 8.5625,-4.25 2.69388,0.025 6.51901,1.28902 11.21875,4.46875 9.39948,6.35946 21.12688,19.81693 32.90625,34.9375 11.77937,15.12057 23.83722,31.83861 36.125,45.25 C 325.75653,318.50514 338.27539,333 354.5,333 l 15,0"
       id="path4720"
       inkscape:connector-curvature="0"
       sodipodi:nodetypes="cssssssssssscccccssscscssssc" />
  </g>
</svg>
