<?xml version="1.0" encoding="UTF-8" standalone="no"?>
<!-- Created with Inkscape (http://www.inkscape.org/) -->
<svg
   xmlns:dc="http://purl.org/dc/elements/1.1/"
   xmlns:cc="http://creativecommons.org/ns#"
   xmlns:rdf="http://www.w3.org/1999/02/22-rdf-syntax-ns#"
   xmlns:svg="http://www.w3.org/2000/svg"
   xmlns="http://www.w3.org/2000/svg"
   xmlns:sodipodi="http://sodipodi.sourceforge.net/DTD/sodipodi-0.dtd"
   xmlns:inkscape="http://www.inkscape.org/namespaces/inkscape"
   style="display:inline"
   sodipodi:docname="886D81F583EC8B-R+_CW_00_00_II_.svg"
   inkscape:version="0.48.3.1 r9886"
   version="1.1"
   id="svg2902"
   height="400"
   width="400">
  
  <g
     inkscape:groupmode="layer"
     id="layer2"
     inkscape:label="B-001"
     style="display:inline"
     zpos="600">
    <path
       sodipodi:nodetypes="cccssscsscc"
       inkscape:connector-curvature="0"
       d="M 333,30.5 333,40.500237 333,325 c 0,65.926 -53.074,119 -119,119 l -12,0 C 136.074,444 83,390.926 83,325 l 0,-58.80381 0,-32.39238 C 83,215.0765 67.923502,200 49.196194,200 L 40.50024,200 30.5,200"
       style="color:#000000;fill:#ffffff;stroke:none;stroke-width:1.00000036px;marker:none;visibility:visible;display:inline;overflow:visible;enable-background:accumulate"
       id="path4070" />
    <path
       id="path4010"
       style="color:#000000;fill:#ffffff;stroke:none;stroke-width:1.00000036px;marker:none;visibility:visible;display:inline;overflow:visible;enable-background:accumulate"
       d="M 307,156.50024 307,30.5 l 26,0 0,126.00024 z"
       inkscape:connector-curvature="0"
       sodipodi:nodetypes="ccccc" />
    <path
       sodipodi:nodetypes="cccsccscccc"
       inkscape:connector-curvature="0"
       d="m 93,30.5 0,10.000237 0,86.343513 C 93,143.77511 106.22489,157 123.15625,157 L 333,157 l 0,26 -209.84375,0 C 92.270618,183 67,157.72938 67,126.84375 L 67,40.500237 67,30.5 z"
       style="color:#000000;fill:#ffffff;stroke:none;stroke-width:1.00000036px;marker:none;visibility:visible;display:inline;overflow:visible;enable-background:accumulate"
       id="path3989" />
    <path
       id="C-top-2-2"
       style="color:#000000;fill:none;stroke:#000000;stroke-width:1.00000036px;stroke-linecap:square;stroke-linejoin:miter;stroke-miterlimit:4;stroke-opacity:1;stroke-dasharray:none;stroke-dashoffset:0;marker:none;visibility:visible;display:inline;overflow:visible;enable-background:accumulate"
       d="m 93,30.5 0,10.000237 0,86.343513 C 93,143.77511 106.22489,157 123.15625,157 L 333,157 m 0,26 -209.84375,0 C 92.270618,183 67,157.72938 67,126.84375 L 67,40.500237 67,30.5"
       inkscape:connector-curvature="0"
       sodipodi:nodetypes="cccsccsccc" />
    <path
       style="color:#000000;fill:none;stroke:#000000;stroke-width:1.00000036px;stroke-linecap:square;stroke-linejoin:miter;stroke-miterlimit:4;stroke-opacity:1;stroke-dasharray:none;stroke-dashoffset:0;marker:none;visibility:visible;display:inline;overflow:visible;enable-background:accumulate"
       d="m 307,30.5 0,126.00024"
       id="C-top-3-8"
       inkscape:connector-curvature="0"
       sodipodi:nodetypes="cc" />
    <path
       id="C-top-4-8"
       style="color:#000000;fill:none;stroke:#000000;stroke-width:1.00000036px;stroke-linecap:square;stroke-linejoin:miter;stroke-miterlimit:4;stroke-opacity:1;stroke-dasharray:none;stroke-dashoffset:0;marker:none;visibility:visible;display:inline;overflow:visible;enable-background:accumulate"
       d="M 333,30.5 333,40.500237 333,325 c 0,65.926 -53.074,119 -119,119 l -12,0 C 136.074,444 83,390.926 83,325 l 0,-58.80381 0,-32.39238 C 83,215.0765 67.923502,200 49.196194,200 L 40.50024,200 30.5,200"
       inkscape:connector-curvature="0"
       sodipodi:nodetypes="cccssscsscc" />
  </g>
</svg>
