<?xml version="1.0" encoding="UTF-8" standalone="no"?>
<!-- Created with Inkscape (http://www.inkscape.org/) -->
<svg
   xmlns:dc="http://purl.org/dc/elements/1.1/"
   xmlns:cc="http://creativecommons.org/ns#"
   xmlns:rdf="http://www.w3.org/1999/02/22-rdf-syntax-ns#"
   xmlns:svg="http://www.w3.org/2000/svg"
   xmlns="http://www.w3.org/2000/svg"
   xmlns:sodipodi="http://sodipodi.sourceforge.net/DTD/sodipodi-0.dtd"
   xmlns:inkscape="http://www.inkscape.org/namespaces/inkscape"
   style="display:inline"
   sodipodi:docname="906A9FFEE98B08-R+_00_CB_CB_00_.svg"
   inkscape:version="0.48.3.1 r9886"
   version="1.1"
   id="svg2902"
   height="400"
   width="400">
  
  <g
     inkscape:groupmode="layer"
     id="g4363"
     inkscape:label="INNEN-001"
     style="display:inline">
    <path
       style="font-size:medium;font-style:normal;font-variant:normal;font-weight:normal;font-stretch:normal;text-indent:0;text-align:start;text-decoration:none;line-height:normal;letter-spacing:normal;word-spacing:normal;text-transform:none;direction:ltr;block-progression:tb;writing-mode:lr-tb;text-anchor:start;baseline-shift:baseline;color:#000000;fill:#000000;stroke:none;stroke-width:1;marker:none;visibility:visible;display:inline;overflow:visible;enable-background:accumulate;font-family:Sans;-inkscape-font-specification:Sans"
       d="m 369.5,307 -20,0 c -12.43563,0 -23.01181,6.01035 -30.34375,13.84375 C 311.82431,328.67715 307,338.53496 307,349.5 l 0,20 26,0 0,-20 c 0,-2.41387 1.78179,-7.30313 5.125,-10.875 3.34321,-3.57187 7.51124,-5.625 11.375,-5.625 l 20,0 z"
       id="path4365-8"
       inkscape:connector-curvature="0"
       sodipodi:nodetypes="csssccssscc" />
    <path
       style="font-size:medium;font-style:normal;font-variant:normal;font-weight:normal;font-stretch:normal;text-indent:0;text-align:start;text-decoration:none;line-height:normal;letter-spacing:normal;word-spacing:normal;text-transform:none;direction:ltr;block-progression:tb;writing-mode:lr-tb;text-anchor:start;baseline-shift:baseline;color:#000000;fill:none;stroke:#000000;stroke-width:1;stroke-miterlimit:4;stroke-dasharray:none;marker:none;visibility:visible;display:inline;overflow:visible;enable-background:accumulate;font-family:Sans;-inkscape-font-specification:Sans"
       d="m 333,369.5 0,-20 c 0,-2.41387 1.78179,-7.30313 5.125,-10.875 3.34321,-3.57187 7.51124,-5.625 11.375,-5.625 l 20,0 m 0,-26 -20,0 c -12.43563,0 -23.01181,6.01035 -30.34375,13.84375 C 311.82431,328.67715 307,338.53496 307,349.5 l 0,20"
       id="path4365"
       inkscape:connector-curvature="0"
       sodipodi:nodetypes="csssccsssc" />
  </g>
  <g
     style="display:inline"
     inkscape:label="AUSSEN-001"
     id="g4393"
     inkscape:groupmode="layer">
    <path
       style="font-size:medium;font-style:normal;font-variant:normal;font-weight:normal;font-stretch:normal;text-indent:0;text-align:start;text-decoration:none;line-height:normal;letter-spacing:normal;word-spacing:normal;text-transform:none;direction:ltr;block-progression:tb;writing-mode:lr-tb;text-anchor:start;baseline-shift:baseline;color:#000000;fill:#000000;fill-opacity:1;stroke:none;stroke-width:26;marker:none;visibility:visible;display:inline;overflow:visible;enable-background:accumulate;font-family:Sans;-inkscape-font-specification:Sans"
       d="M 349.5,67 C 192.13819,67 67,196.24147 67,349.5 l 0,20 26,0 0,-20 C 93,210.38083 206.36387,93 349.5,93 l 20,0 0,-26 -20,0 z"
       id="path4395-3"
       inkscape:connector-curvature="0" />
    <path
       style="font-size:medium;font-style:normal;font-variant:normal;font-weight:normal;font-stretch:normal;text-indent:0;text-align:start;text-decoration:none;line-height:normal;letter-spacing:normal;word-spacing:normal;text-transform:none;direction:ltr;block-progression:tb;writing-mode:lr-tb;text-anchor:start;baseline-shift:baseline;color:#000000;fill:none;stroke:#000000;stroke-width:1;stroke-miterlimit:4;stroke-dasharray:none;marker:none;visibility:visible;display:inline;overflow:visible;enable-background:accumulate;font-family:Sans;-inkscape-font-specification:Sans"
       d="m 93,369.5 0,-20 C 93,210.38083 206.36387,93 349.5,93 l 20,0 m 0,-26 -20,0 C 192.13819,67 67,196.24147 67,349.5 l 0,20"
       id="path4395"
       inkscape:connector-curvature="0"
       sodipodi:nodetypes="cssccssc" />
  </g>
</svg>
