<?xml version="1.0" encoding="UTF-8" standalone="no"?>
<!-- Created with Inkscape (http://www.inkscape.org/) -->
<svg
   xmlns:dc="http://purl.org/dc/elements/1.1/"
   xmlns:cc="http://creativecommons.org/ns#"
   xmlns:rdf="http://www.w3.org/1999/02/22-rdf-syntax-ns#"
   xmlns:svg="http://www.w3.org/2000/svg"
   xmlns="http://www.w3.org/2000/svg"
   xmlns:sodipodi="http://sodipodi.sourceforge.net/DTD/sodipodi-0.dtd"
   xmlns:inkscape="http://www.inkscape.org/namespaces/inkscape"
   style="display:inline"
   sodipodi:docname="941E92CE01323AB27_00_00_CW_00_.svg"
   inkscape:version="0.48.3.1 r9886"
   version="1.1"
   id="svg2902"
   height="400"
   width="400">
  
  <g
     style="display:inline"
     inkscape:label="ELEMENT-001"
     layerid="element"
     id="element"
     inkscape:groupmode="layer">
    <path
       style="color:#000000;fill:#ffffff;stroke:none;stroke-width:1.00000036px;marker:none;visibility:visible;display:inline;overflow:visible;enable-background:accumulate"
       d="M 183.59375 45.5625 C 148.13952 45.554494 112.89322 46.231993 78.15625 47.5625 C 71.64505 47.5625 66.96875 55.23988 66.96875 61.75 L 66.96875 207.65625 L 67 359.5 L 67 369.5 L 93.40625 369.5 L 93.40625 221.5 L 307 221.5 L 307 369.5 L 333 369.5 L 333 359.5 L 332.25 207.65625 C 332.25 207.65625 332.77967 110.13607 333.03125 61.375 C 333.03125 54.86488 327.38609 49.0625 320.875 49.0625 C 275.11834 46.714856 229.17776 45.572794 183.59375 45.5625 z M 92.09375 68.5625 L 255.90625 68.5625 C 257.83589 68.5625 259.375 70.13313 259.375 72.0625 L 259.375 192.3125 C 259.375 194.2473 257.83589 195.78125 255.90625 195.78125 L 92.09375 195.78125 C 90.159745 195.78125 88.59375 194.2473 88.59375 192.3125 L 88.59375 72.0625 C 88.59375 70.13313 90.159745 68.5625 92.09375 68.5625 z "
       id="C-bottom-4-4-4" />
    <path
       inkscape:connector-curvature="0"
       style="fill:none;stroke:#ff0000;stroke-width:0.99999994;stroke-miterlimit:4;stroke-dasharray:none;display:inline"
       d="m 270.35109,203.56794 c 0,2.29526 -1.84494,4.13993 -4.13947,4.13993 l -184.448553,0 c -2.290607,0 -4.135776,-1.84467 -4.135776,-4.13993 l 0,-142.77519 c 0,-2.29417 1.845169,-4.13885 4.135776,-4.13885 l 184.448553,0 c 2.29453,0 4.13947,1.84468 4.13947,4.13885 0,47.59173 0,95.18347 0,142.77519 z"
       id="3"
       sodipodi:nodetypes="ccccccccc" />
    <path
       inkscape:connector-curvature="0"
       style="fill:none;stroke:#ff0000;stroke-width:0.99999994;stroke-miterlimit:4;stroke-dasharray:none;display:inline"
       d="m 259.38404,192.3077 c 0,1.9348 -1.5572,3.48631 -3.48684,3.48631 l -163.815348,0 c -1.934005,0 -3.486854,-1.55151 -3.486854,-3.48631 l 0,-120.25471 c 0,-1.92937 1.552849,-3.48523 3.486854,-3.48523 l 163.815348,0 c 1.92964,0 3.48684,1.55586 3.48684,3.48523 0,40.0849 0,80.16981 0,120.25471 z"
       id="5"
       sodipodi:nodetypes="ccccccccc" />
    <path
       inkscape:connector-curvature="0"
       style="fill:none;stroke:#ff0000;stroke-width:0.99999994;stroke-miterlimit:4;stroke-dasharray:none;display:inline"
       d="m 280.4734,85.79863 26.457,0 c 8.42011,0 15.19833,6.77721 15.19833,15.19607 l 0,1.3398 c 0,8.41885 -6.77822,15.19605 -15.19833,15.19605 l -26.67309,0"
       id="11"
       sodipodi:nodetypes="cccccc" />
    <path
       inkscape:connector-curvature="0"
       style="fill:none;stroke:#ff0000;stroke-width:0.99999994;stroke-miterlimit:4;stroke-dasharray:none;display:inline"
       id="15"
       d="m 314.368,101.66459 c 0,5.58181 -4.52605,10.10719 -10.1087,10.10719 -5.58155,0 -10.1076,-4.52538 -10.1076,-10.10719 0,-5.58071 4.52605,-10.10609 10.1076,-10.10609 5.58265,0 10.1087,4.52538 10.1087,10.10609" />
    <path
       inkscape:connector-curvature="0"
       style="fill:none;stroke:#ff0000;stroke-width:0.99999994;stroke-miterlimit:4;stroke-dasharray:none;display:inline"
       id="23"
       d="m 279.54929,159.21251 53.17137,0" />
    <path
       inkscape:connector-curvature="0"
       style="fill:none;stroke:#ff0000;stroke-width:0.99999994;stroke-miterlimit:4;stroke-dasharray:none;display:inline"
       id="27"
       d="m 279.54929,168.55207 53.17137,0" />
    <path
       inkscape:connector-curvature="0"
       style="fill:none;stroke:#ff0000;stroke-width:0.99999994;stroke-miterlimit:4;stroke-dasharray:none;display:inline"
       id="31"
       d="m 279.54929,177.88728 53.17137,0" />
    <path
       inkscape:connector-curvature="0"
       style="fill:none;stroke:#ff0000;stroke-width:0.99999994;stroke-miterlimit:4;stroke-dasharray:none;display:inline"
       id="35"
       d="m 279.54929,187.22141 53.17137,0" />
    <path
       inkscape:connector-curvature="0"
       style="fill:none;stroke:#ff0000;stroke-width:0.99999994;stroke-miterlimit:4;stroke-dasharray:none;display:inline"
       id="39"
       d="m 279.54929,196.55663 53.17137,0" />
    <path
       inkscape:connector-curvature="0"
       style="fill:none;stroke:#ff0000;stroke-width:0.99999994;stroke-miterlimit:4;stroke-dasharray:none;display:inline"
       id="43"
       d="m 279.54929,205.8951 53.17137,0" />
    <path
       id="10-6"
       style="fill:none;stroke:#ff0000;stroke-width:0.99999994;stroke-miterlimit:4;stroke-dasharray:none;display:inline"
       d="m 279.52064,220.83999 c 0.5206,-57.9198 0.77113,-115.84103 1.04181,-173.76234"
       inkscape:connector-curvature="0"
       sodipodi:nodetypes="cc" />
    <path
       style="color:#000000;fill:none;stroke:#000000;stroke-width:1.00000036px;stroke-linecap:square;stroke-linejoin:miter;stroke-miterlimit:4;stroke-opacity:1;stroke-dasharray:none;stroke-dashoffset:0;marker:none;visibility:visible;display:inline;overflow:visible;enable-background:accumulate"
       d="M 93,369.5 93,207.86651"
       id="C-bottom-2-0"
       inkscape:connector-curvature="0"
       sodipodi:nodetypes="cc" />
    <path
       style="color:#000000;fill:none;stroke:#000000;stroke-width:1.00000036px;stroke-linecap:square;stroke-linejoin:miter;stroke-miterlimit:4;stroke-opacity:1;stroke-dasharray:none;stroke-dashoffset:0;marker:none;visibility:visible;display:inline;overflow:visible;enable-background:accumulate"
       d="m 307,369.5 0,-148.00023 -213.59123,0"
       id="C-bottom-3-7"
       inkscape:connector-curvature="0"
       sodipodi:nodetypes="ccc" />
    <path
       id="C-bottom-4-4"
       style="color:#000000;fill:none;stroke:#000000;stroke-width:1.00000036px;stroke-linecap:square;stroke-linejoin:miter;stroke-miterlimit:4;stroke-opacity:1;stroke-dasharray:none;stroke-dashoffset:0;marker:none;visibility:visible;display:inline;overflow:visible;enable-background:accumulate"
       d="m 67,369.5 0,-10.00023 -0.01711,-151.83858 0,-145.90972 c 0,-6.51012 4.674485,-14.19067 11.185685,-14.19067 l 0,0 0,0 c 79.398795,-3.04116 161.371615,-2.67201 242.716795,1.50158 6.51109,0 12.13174,5.80547 12.13174,12.31559 -0.25158,48.76107 -0.75471,146.28322 -0.75471,146.28322 l 0,0 0,0 L 333,359.49977 333,369.5"
       inkscape:connector-curvature="0"
       sodipodi:nodetypes="cccscccccccccc" />
  </g>
</svg>
