<?xml version="1.0" encoding="UTF-8" standalone="no"?>
<!-- Created with Inkscape (http://www.inkscape.org/) -->
<svg
   xmlns:dc="http://purl.org/dc/elements/1.1/"
   xmlns:cc="http://creativecommons.org/ns#"
   xmlns:rdf="http://www.w3.org/1999/02/22-rdf-syntax-ns#"
   xmlns:svg="http://www.w3.org/2000/svg"
   xmlns="http://www.w3.org/2000/svg"
   xmlns:sodipodi="http://sodipodi.sourceforge.net/DTD/sodipodi-0.dtd"
   xmlns:inkscape="http://www.inkscape.org/namespaces/inkscape"
   style="display:inline"
   sodipodi:docname="9F49C7D95E158C-R+_00_00_CB_00_.svg"
   inkscape:version="0.48.3.1 r9886"
   version="1.1"
   id="svg2902"
   height="400"
   width="400">
  
  <g
     inkscape:groupmode="layer"
     id="g5212"
     inkscape:label="AUSSEN-001"
     style="display:inline">
    <path
       style="color:#000000;fill:#000000;stroke:none;stroke-width:1;marker:none;visibility:visible;display:inline;overflow:visible;enable-background:accumulate"
       d="M 150.09375,214.5 C 104.06161,214.5 67,251.56161 67,297.59375 l 0,71.90625 26,0 0,-8 214,0 0,8 26,0 0,-71.90625 C 333,251.56161 295.93839,214.5 249.90625,214.5 z"
       id="rect5214-3"
       inkscape:connector-curvature="0"
       sodipodi:nodetypes="ssccccccsss" />
    <path
       style="color:#000000;fill:none;stroke:#000000;stroke-width:1;stroke-linecap:square;marker:none;visibility:visible;display:inline;overflow:visible;enable-background:accumulate"
       d="m 67,369.5 0,-71.90949 C 67,251.55837 104.05837,214.5 150.09051,214.5 l 99.81898,0 C 295.94163,214.5 333,251.55837 333,297.59051 L 333,369.5"
       id="rect5214"
       inkscape:connector-curvature="0"
       sodipodi:nodetypes="cssssc" />
  </g>
  <g
     inkscape:groupmode="layer"
     id="g5247"
     inkscape:label="INNEN-004"
     style="display:inline">
    <path
       style="color:#000000;fill:#ffffff;stroke:none;stroke-width:1;marker:none;visibility:visible;display:inline;overflow:visible;enable-background:accumulate"
       d="M 93,369.5 93,187.09051 C 93,174.02137 103.52137,163.5 116.59051,163.5 l 166.81898,0 C 296.47863,163.5 307,174.02137 307,187.09051 L 307,369.5 z"
       id="rect5249-5"
       inkscape:connector-curvature="0"
       sodipodi:nodetypes="csssscc" />
    <path
       style="color:#000000;fill:none;stroke:#000000;stroke-width:1;stroke-linecap:square;marker:none;visibility:visible;display:inline;overflow:visible;enable-background:accumulate"
       d="M 93,369.5 93,187.09051 C 93,174.02137 103.52137,163.5 116.59051,163.5 l 166.81898,0 C 296.47863,163.5 307,174.02137 307,187.09051 L 307,369.5"
       id="rect5249"
       inkscape:connector-curvature="0"
       sodipodi:nodetypes="cssssc" />
  </g>
</svg>
