<?xml version="1.0" encoding="UTF-8" standalone="no"?>
<!-- Created with Inkscape (http://www.inkscape.org/) -->
<svg
   xmlns:dc="http://purl.org/dc/elements/1.1/"
   xmlns:cc="http://creativecommons.org/ns#"
   xmlns:rdf="http://www.w3.org/1999/02/22-rdf-syntax-ns#"
   xmlns:svg="http://www.w3.org/2000/svg"
   xmlns="http://www.w3.org/2000/svg"
   xmlns:sodipodi="http://sodipodi.sourceforge.net/DTD/sodipodi-0.dtd"
   xmlns:inkscape="http://www.inkscape.org/namespaces/inkscape"
   style="display:inline"
   sodipodi:docname="9F49E6EA0E69C1-R+_00_SW_CB_SW_.svg"
   inkscape:version="0.48.3.1 r9886"
   version="1.1"
   id="svg2902"
   height="400"
   width="400">
  
  <g
     inkscape:groupmode="layer"
     id="layer3"
     inkscape:label="OSOS-001"
     style="display:inline">
    <path
       id="S-left-2-4-0"
       style="fill:#ffffff;stroke:none;display:inline"
       d="m 369.5,190 -10.00024,0 -318.999523,0 -10.000237,0 0,20 10.000237,0 318.999523,0 10.00024,0 z"
       inkscape:connector-curvature="0"
       sodipodi:nodetypes="ccccccccc" />
    <path
       id="S-left-2-4"
       style="fill:none;stroke:#000000;stroke-width:1.00000036px;stroke-linecap:square;stroke-linejoin:miter;stroke-opacity:1;display:inline"
       d="m 30.5,210 10.000237,0 318.999523,0 10.00024,0 m 0,-20 -10.00024,0 L 40.500237,190 30.5,190"
       inkscape:connector-curvature="0"
       sodipodi:nodetypes="cccccccc" />
  </g>
  <g
     inkscape:groupmode="layer"
     id="g5276"
     inkscape:label="AUSSEN-003"
     style="display:inline">
    <path
       style="color:#000000;fill:#000000;stroke:none;stroke-width:1;marker:none;visibility:visible;display:inline;overflow:visible;enable-background:accumulate"
       d="M 83.65625,14.5 C 74.423725,14.5 67,21.92372 67,31.15625 L 67,369.5 l 26,0 0,-7 214,0 0,7 26,0 0,-338.34375 C 333,21.92372 325.57628,14.5 316.34375,14.5 z"
       id="rect5278-3"
       inkscape:connector-curvature="0"
       sodipodi:nodetypes="ssccccccsss" />
    <path
       style="color:#000000;fill:none;stroke:#000000;stroke-width:1;stroke-linecap:square;marker:none;visibility:visible;display:inline;overflow:visible;enable-background:accumulate"
       d="M 67,369.5 67,31.16521 C 67,21.93268 74.432682,14.5 83.665207,14.5 l 232.669583,0 C 325.56732,14.5 333,21.93268 333,31.16521 L 333,369.5"
       id="rect5278"
       inkscape:connector-curvature="0"
       sodipodi:nodetypes="cssssc" />
  </g>
  <g
     inkscape:groupmode="layer"
     id="g5241"
     inkscape:label="INNEN-003"
     style="display:inline">
    <path
       style="color:#000000;fill:#ffffff;stroke:none;stroke-width:1;marker:none;visibility:visible;display:inline;overflow:visible;enable-background:accumulate"
       d="M 93,369.5 93,188.13087 C 93,141.24537 130.74537,103.5 177.63087,103.5 l 44.73826,0 C 269.25463,103.5 307,141.24537 307,188.13087 L 307,369.5 z"
       id="path5243"
       inkscape:connector-curvature="0"
       sodipodi:nodetypes="csssscc" />
    <path
       style="color:#000000;fill:none;stroke:#000000;stroke-width:1;stroke-linecap:square;marker:none;visibility:visible;display:inline;overflow:visible;enable-background:accumulate"
       d="M 93,369.5 93,188.13087 C 93,141.24537 130.74537,103.5 177.63087,103.5 l 44.73826,0 C 269.25463,103.5 307,141.24537 307,188.13087 L 307,369.5"
       id="path5245"
       inkscape:connector-curvature="0"
       sodipodi:nodetypes="cssssc" />
  </g>
</svg>
