<?xml version="1.0" encoding="UTF-8" standalone="no"?>
<!-- Created with Inkscape (http://www.inkscape.org/) -->
<svg
   xmlns:dc="http://purl.org/dc/elements/1.1/"
   xmlns:cc="http://creativecommons.org/ns#"
   xmlns:rdf="http://www.w3.org/1999/02/22-rdf-syntax-ns#"
   xmlns:svg="http://www.w3.org/2000/svg"
   xmlns="http://www.w3.org/2000/svg"
   xmlns:sodipodi="http://sodipodi.sourceforge.net/DTD/sodipodi-0.dtd"
   xmlns:inkscape="http://www.inkscape.org/namespaces/inkscape"
   style="display:inline"
   sodipodi:docname="9F49C7D953FE87-R+_00_00_CB_00_.svg"
   inkscape:version="0.48.3.1 r9886"
   version="1.1"
   id="svg2902"
   height="400"
   width="400">
  
  <g
     style="display:inline"
     inkscape:label="AUSSEN-002"
     id="g5270"
     inkscape:groupmode="layer">
    <path
       style="color:#000000;fill:#000000;stroke:none;stroke-width:1;marker:none;visibility:visible;display:inline;overflow:visible;enable-background:accumulate"
       d="M 150.09375,274.5 C 104.06161,274.5 67,311.56161 67,357.59375 l 0,11.90625 26,0 0,-7 214,0 0,7 26,0 0,-11.90625 C 333,311.56161 295.93839,274.5 249.90625,274.5 z"
       id="path5272"
       inkscape:connector-curvature="0"
       sodipodi:nodetypes="ssccccccsss" />
    <path
       sodipodi:nodetypes="cssssc"
       inkscape:connector-curvature="0"
       id="path5274"
       d="m 67,369.5 0,-11.90949 C 67,311.55837 104.05837,274.5 150.09051,274.5 l 99.81898,0 C 295.94163,274.5 333,311.55837 333,357.59051 L 333,369.5"
       style="color:#000000;fill:none;stroke:#000000;stroke-width:1;stroke-linecap:square;marker:none;visibility:visible;display:inline;overflow:visible;enable-background:accumulate" />
  </g>
  <g
     inkscape:groupmode="layer"
     id="g5183"
     inkscape:label="INNEN-001"
     style="display:inline">
    <path
       style="color:#000000;fill:#ffffff;stroke:none;stroke-width:1;marker:none;visibility:visible;display:inline;overflow:visible;enable-background:accumulate"
       d="m 93,369.5 0,-21.36913 C 93,301.24537 130.74537,263.5 177.63087,263.5 l 44.73826,0 C 269.25463,263.5 307,301.24537 307,348.13087 L 307,369.5 z"
       id="rect5185-6"
       inkscape:connector-curvature="0"
       sodipodi:nodetypes="csssscc" />
    <path
       style="color:#000000;fill:none;stroke:#000000;stroke-width:1;stroke-linecap:square;marker:none;visibility:visible;display:inline;overflow:visible;enable-background:accumulate"
       d="m 93,369.5 0,-21.36913 C 93,301.24537 130.74537,263.5 177.63087,263.5 l 44.73826,0 C 269.25463,263.5 307,301.24537 307,348.13087 L 307,369.5"
       id="rect5185"
       inkscape:connector-curvature="0"
       sodipodi:nodetypes="cssssc" />
  </g>
</svg>
