<?xml version="1.0" encoding="UTF-8" standalone="no"?>
<!-- Created with Inkscape (http://www.inkscape.org/) -->
<svg
   xmlns:dc="http://purl.org/dc/elements/1.1/"
   xmlns:cc="http://creativecommons.org/ns#"
   xmlns:rdf="http://www.w3.org/1999/02/22-rdf-syntax-ns#"
   xmlns:svg="http://www.w3.org/2000/svg"
   xmlns="http://www.w3.org/2000/svg"
   xmlns:sodipodi="http://sodipodi.sourceforge.net/DTD/sodipodi-0.dtd"
   xmlns:inkscape="http://www.inkscape.org/namespaces/inkscape"
   style="display:inline"
   sodipodi:docname="9F49E6EA6623FB-R+_00_SW_CB_SW_.svg"
   inkscape:version="0.48.3.1 r9886"
   version="1.1"
   id="svg2902"
   height="400"
   width="400">
  
  <g
     inkscape:groupmode="layer"
     id="layer3"
     inkscape:label="OSOS-001"
     style="display:inline">
    <path
       id="S-left-2-4-0"
       style="fill:#ffffff;stroke:none;display:inline"
       d="m 369.5,190 -10.00024,0 -318.999523,0 -10.000237,0 0,20 10.000237,0 318.999523,0 10.00024,0 z"
       inkscape:connector-curvature="0"
       sodipodi:nodetypes="ccccccccc" />
    <path
       id="S-left-2-4"
       style="fill:none;stroke:#000000;stroke-width:1.00000036px;stroke-linecap:square;stroke-linejoin:miter;stroke-opacity:1;display:inline"
       d="m 30.5,210 10.000237,0 318.999523,0 10.00024,0 m 0,-20 -10.00024,0 L 40.500237,190 30.5,190"
       inkscape:connector-curvature="0"
       sodipodi:nodetypes="cccccccc" />
  </g>
  <g
     style="display:inline"
     inkscape:label="AUSSEN-002"
     id="g5270"
     inkscape:groupmode="layer">
    <path
       style="color:#000000;fill:#000000;stroke:none;stroke-width:1;marker:none;visibility:visible;display:inline;overflow:visible;enable-background:accumulate"
       d="M 150.09375,274.5 C 104.06161,274.5 67,311.56161 67,357.59375 l 0,11.90625 26,0 0,-8 214,0 0,8 26,0 0,-11.90625 C 333,311.56161 295.93839,274.5 249.90625,274.5 z"
       id="path5272"
       inkscape:connector-curvature="0"
       sodipodi:nodetypes="ssccccccsss" />
    <path
       sodipodi:nodetypes="cssssc"
       inkscape:connector-curvature="0"
       id="path5274"
       d="m 67,369.5 0,-11.90949 C 67,311.55837 104.05837,274.5 150.09051,274.5 l 99.81898,0 C 295.94163,274.5 333,311.55837 333,357.59051 L 333,369.5"
       style="color:#000000;fill:none;stroke:#000000;stroke-width:1;stroke-linecap:square;marker:none;visibility:visible;display:inline;overflow:visible;enable-background:accumulate" />
  </g>
  <g
     inkscape:groupmode="layer"
     id="g5247"
     inkscape:label="INNEN-004"
     style="display:inline">
    <path
       style="color:#000000;fill:#ffffff;stroke:none;stroke-width:1;marker:none;visibility:visible;display:inline;overflow:visible;enable-background:accumulate"
       d="M 93,369.5 93,187.09051 C 93,174.02137 103.52137,163.5 116.59051,163.5 l 166.81898,0 C 296.47863,163.5 307,174.02137 307,187.09051 L 307,369.5 z"
       id="rect5249-5"
       inkscape:connector-curvature="0"
       sodipodi:nodetypes="csssscc" />
    <path
       style="color:#000000;fill:none;stroke:#000000;stroke-width:1;stroke-linecap:square;marker:none;visibility:visible;display:inline;overflow:visible;enable-background:accumulate"
       d="M 93,369.5 93,187.09051 C 93,174.02137 103.52137,163.5 116.59051,163.5 l 166.81898,0 C 296.47863,163.5 307,174.02137 307,187.09051 L 307,369.5"
       id="rect5249"
       inkscape:connector-curvature="0"
       sodipodi:nodetypes="cssssc" />
  </g>
</svg>
