<?xml version="1.0" encoding="UTF-8" standalone="no"?>
<!-- Created with Inkscape (http://www.inkscape.org/) -->
<svg
   xmlns:dc="http://purl.org/dc/elements/1.1/"
   xmlns:cc="http://creativecommons.org/ns#"
   xmlns:rdf="http://www.w3.org/1999/02/22-rdf-syntax-ns#"
   xmlns:svg="http://www.w3.org/2000/svg"
   xmlns="http://www.w3.org/2000/svg"
   xmlns:sodipodi="http://sodipodi.sourceforge.net/DTD/sodipodi-0.dtd"
   xmlns:inkscape="http://www.inkscape.org/namespaces/inkscape"
   width="400"
   height="400"
   id="svg2902"
   version="1.1"
   inkscape:version="0.48.3.1 r9886"
   sodipodi:docname="A0BA3E8317A91FF86_SW_00_SW_00_.svg"
   style="display:inline">
  
  <g
     inkscape:groupmode="layer"
     id="g3663"
     inkscape:label="KONNEKTOR-001"
     style="display:inline"
     sodipodi:insensitive="true">
    <path
       id="S-bottom-2-3-6"
       style="fill:#ffffff;stroke:none;display:inline"
       d="m 190,369.5 0,-339 20,0 0,339 z"
       inkscape:connector-curvature="0"
       sodipodi:nodetypes="ccccc" />
    <path
       id="S-bottom-2-3"
       style="fill:none;stroke:#000000;stroke-width:1.00000036px;stroke-linecap:square;stroke-linejoin:miter;stroke-opacity:1;display:inline"
       d="m 190,369.5 0,-339 m 20,0 0,339"
       inkscape:connector-curvature="0"
       sodipodi:nodetypes="cccc" />
  </g>
  <g
     inkscape:groupmode="layer"
     id="g3696"
     inkscape:label="TUBE-002"
     style="display:inline"
     sodipodi:insensitive="true">
    <path
       sodipodi:nodetypes="cssccsscc"
       inkscape:connector-curvature="0"
       d="m 127.32754,131.18823 0,130.78125 c 0,14.20177 11.5684,26.15625 25.8125,26.15625 l 46.2187,0 0,-20 -46.2187,0 c -3.2661,0 -5.8125,-2.45 -5.8125,-6.15625 l 0,-130.78125 z"
       style="font-size:medium;font-style:normal;font-variant:normal;font-weight:normal;font-stretch:normal;text-indent:0;text-align:start;text-decoration:none;line-height:normal;letter-spacing:normal;word-spacing:normal;text-transform:none;direction:ltr;block-progression:tb;writing-mode:lr-tb;text-anchor:start;baseline-shift:baseline;color:#000000;fill:#ffffff;stroke:none;stroke-width:1;marker:none;visibility:visible;display:inline;overflow:visible;enable-background:accumulate;font-family:Sans;-inkscape-font-specification:Sans"
       id="path3698-3" />
    <path
       sodipodi:nodetypes="cssccssc"
       inkscape:connector-curvature="0"
       d="m 199.35874,288.12573 -46.2187,0 c -14.2441,0 -25.8125,-11.95448 -25.8125,-26.15625 l 0,-130.78125 m 72.0312,136.9375 -46.2187,0 c -3.2661,0 -5.8125,-2.45 -5.8125,-6.15625 l 0,-130.78125"
       style="font-size:medium;font-style:normal;font-variant:normal;font-weight:normal;font-stretch:normal;text-indent:0;text-align:start;text-decoration:none;line-height:normal;letter-spacing:normal;word-spacing:normal;text-transform:none;direction:ltr;block-progression:tb;writing-mode:lr-tb;text-anchor:start;baseline-shift:baseline;color:#000000;fill:none;stroke:#ff00ff;stroke-width:1;stroke-miterlimit:4;stroke-dasharray:none;marker:none;visibility:visible;display:inline;overflow:visible;enable-background:accumulate;font-family:Sans;-inkscape-font-specification:Sans"
       id="path3698" />
  </g>
  <g
     style="display:inline"
     inkscape:label="VOGEL-002"
     id="g3680"
     inkscape:groupmode="layer">
    <path
       style="color:#000000;fill:#ffffff;stroke:none;stroke-width:1;marker:none;visibility:visible;display:inline;overflow:visible;enable-background:accumulate"
       d="m 116.20244,146.79955 c 0,-11.69883 9.5291,-21.11702 21.3657,-21.11702 l 0,0 0,0 c 11.8366,0 21.3656,9.41819 21.3656,21.11702 l 0,98.98608 c 0,13.1244 -42.7313,13.79378 -42.7313,0 l 0,0 0,0 c 0,-32.99536 0,-65.99072 0,-98.98608 z"
       id="path3682"
       inkscape:connector-curvature="0"
       sodipodi:nodetypes="ccccsscccc" />
    <path
       style="color:#000000;fill:none;stroke:#ff0000;stroke-width:1;stroke-linecap:square;stroke-linejoin:bevel;stroke-miterlimit:4;stroke-opacity:1;stroke-dashoffset:3;marker:none;visibility:visible;display:inline;overflow:visible;enable-background:accumulate"
       d="m 116.20244,158.42578 0,-11.62623 c 0,-11.69883 9.5291,-21.11702 21.3657,-21.11702 l 0,0 0,0 c 11.8366,0 21.3656,9.41819 21.3656,21.11702 l 0,98.98608 c 0,13.1244 -42.7313,13.79378 -42.7313,0 l 0,0 0,0 0,-72.13538"
       id="path3684"
       inkscape:connector-curvature="0"
       sodipodi:nodetypes="cscccsscccc" />
    <path
       style="color:#000000;fill:#ffffff;stroke:none;stroke-width:0.99999994;marker:none;visibility:visible;display:inline;overflow:visible;enable-background:accumulate"
       d="m 122.51424,195.70433 -6.2803,-2.27866 -26.1055,-9.47183 26.0941,-9.46767 6.2917,-2.28282 z"
       id="path3692-0"
       inkscape:connector-curvature="0"
       sodipodi:nodetypes="cccccc" />
    <path
       id="path3688"
       d="m 151.22232,172.01004 c 0,6.18051 -5.0103,11.19082 -11.19082,11.19082 -6.18053,0 -11.19082,-5.01031 -11.19082,-11.19082 0,-6.18053 5.01029,-11.19084 11.19082,-11.19084 6.18052,0 11.19082,5.01031 11.19082,11.19084 z"
       style="color:#000000;fill:none;stroke:#ff0000;stroke-width:1;stroke-linecap:butt;stroke-linejoin:miter;stroke-miterlimit:4;stroke-opacity:1;stroke-dashoffset:3;marker:none;visibility:visible;display:inline;overflow:visible;enable-background:accumulate"
       inkscape:connector-curvature="0" />
    <path
       style="color:#000000;fill:none;stroke:#ff0000;stroke-width:0.99999994;stroke-linecap:square;stroke-linejoin:bevel;stroke-miterlimit:4;stroke-opacity:1;stroke-dashoffset:3;marker:none;visibility:visible;display:inline;overflow:visible;enable-background:accumulate"
       d="m 122.51424,195.70433 -6.2803,-2.27866 -26.1055,-9.47183 26.0941,-9.46767 6.2917,-2.28282"
       id="path3692"
       inkscape:connector-curvature="0"
       sodipodi:nodetypes="ccccc" />
    <path
       style="fill:none;stroke:#ff0000;stroke-width:1px;stroke-linecap:butt;stroke-linejoin:miter;stroke-opacity:1;display:inline"
       d="m 85.30374,183.97761 c -20.47209,0 -16.97359,-16.38885 -26.75,-14 -9.47688,2.31567 -7.03266,24.86427 -16.75,24 -11.69909,-1.04052 -3.25335,-29.59616 -14.75,-32"
       id="path3694"
       inkscape:connector-curvature="0"
       sodipodi:nodetypes="caac" />
  </g>
</svg>
