<?xml version="1.0" encoding="UTF-8" standalone="no"?>
<!-- Created with Inkscape (http://www.inkscape.org/) -->
<svg
   xmlns:dc="http://purl.org/dc/elements/1.1/"
   xmlns:cc="http://creativecommons.org/ns#"
   xmlns:rdf="http://www.w3.org/1999/02/22-rdf-syntax-ns#"
   xmlns:svg="http://www.w3.org/2000/svg"
   xmlns="http://www.w3.org/2000/svg"
   xmlns:sodipodi="http://sodipodi.sourceforge.net/DTD/sodipodi-0.dtd"
   xmlns:inkscape="http://www.inkscape.org/namespaces/inkscape"
   width="400"
   height="400"
   id="svg2902"
   version="1.1"
   inkscape:version="0.48.3.1 r9886"
   sodipodi:docname="A0BA3E839D51783D3_SW_00_SW_00_.svg"
   style="display:inline">
  
  <g
     inkscape:groupmode="layer"
     id="g3663"
     inkscape:label="KONNEKTOR-001"
     style="display:inline"
     sodipodi:insensitive="true">
    <path
       id="S-bottom-2-3-6"
       style="fill:#ffffff;stroke:none;display:inline"
       d="m 190,369.5 0,-339 20,0 0,339 z"
       inkscape:connector-curvature="0"
       sodipodi:nodetypes="ccccc" />
    <path
       id="S-bottom-2-3"
       style="fill:none;stroke:#000000;stroke-width:1.00000036px;stroke-linecap:square;stroke-linejoin:miter;stroke-opacity:1;display:inline"
       d="m 190,369.5 0,-339 m 20,0 0,339"
       inkscape:connector-curvature="0"
       sodipodi:nodetypes="cccc" />
  </g>
  <g
     inkscape:groupmode="layer"
     id="g3696"
     inkscape:label="TUBE-002"
     style="display:inline"
     sodipodi:insensitive="true">
    <path
       sodipodi:nodetypes="cssccsscc"
       inkscape:connector-curvature="0"
       d="m 127.32754,131.18823 0,130.78125 c 0,14.20177 11.5684,26.15625 25.8125,26.15625 l 46.2187,0 0,-20 -46.2187,0 c -3.2661,0 -5.8125,-2.45 -5.8125,-6.15625 l 0,-130.78125 z"
       style="font-size:medium;font-style:normal;font-variant:normal;font-weight:normal;font-stretch:normal;text-indent:0;text-align:start;text-decoration:none;line-height:normal;letter-spacing:normal;word-spacing:normal;text-transform:none;direction:ltr;block-progression:tb;writing-mode:lr-tb;text-anchor:start;baseline-shift:baseline;color:#000000;fill:#ffffff;stroke:none;stroke-width:1;marker:none;visibility:visible;display:inline;overflow:visible;enable-background:accumulate;font-family:Sans;-inkscape-font-specification:Sans"
       id="path3698-3" />
    <path
       sodipodi:nodetypes="cssccssc"
       inkscape:connector-curvature="0"
       d="m 199.35874,288.12573 -46.2187,0 c -14.2441,0 -25.8125,-11.95448 -25.8125,-26.15625 l 0,-130.78125 m 72.0312,136.9375 -46.2187,0 c -3.2661,0 -5.8125,-2.45 -5.8125,-6.15625 l 0,-130.78125"
       style="font-size:medium;font-style:normal;font-variant:normal;font-weight:normal;font-stretch:normal;text-indent:0;text-align:start;text-decoration:none;line-height:normal;letter-spacing:normal;word-spacing:normal;text-transform:none;direction:ltr;block-progression:tb;writing-mode:lr-tb;text-anchor:start;baseline-shift:baseline;color:#000000;fill:none;stroke:#ff00ff;stroke-width:1;stroke-miterlimit:4;stroke-dasharray:none;marker:none;visibility:visible;display:inline;overflow:visible;enable-background:accumulate;font-family:Sans;-inkscape-font-specification:Sans"
       id="path3698" />
  </g>
  <g
     inkscape:groupmode="layer"
     id="g3640"
     inkscape:label="VOGEL-001"
     style="display:inline">
    <path
       sodipodi:nodetypes="ccccsscccc"
       inkscape:connector-curvature="0"
       id="path3644-5"
       d="m 116.20244,14.79955 c 0,-11.69883 9.5291,-21.11702 21.3657,-21.11702 l 0,0 0,0 c 11.8366,0 21.3656,9.41819 21.3656,21.11702 l 0,138.98608 c 0,13.1244 -42.7313,13.79378 -42.7313,0 l 0,0 0,0 c 0,-32.99536 0,-105.99072 0,-138.98608 z"
       style="color:#000000;fill:#ffffff;stroke:none;stroke-width:1;marker:none;visibility:visible;display:inline;overflow:visible;enable-background:accumulate" />
    <path
       sodipodi:nodetypes="cscccsscccc"
       inkscape:connector-curvature="0"
       id="path3644"
       d="m 116.20244,62.42578 0,-47.62623 c 0,-11.69883 9.5291,-21.11702 21.3657,-21.11702 l 0,0 0,0 c 11.8366,0 21.3656,9.41819 21.3656,21.11702 l 0,138.98608 c 0,13.1244 -42.7313,13.79378 -42.7313,0 l 0,0 0,0 0,-72.13538"
       style="color:#000000;fill:none;stroke:#ff0000;stroke-width:1;stroke-linecap:square;stroke-linejoin:bevel;stroke-miterlimit:4;stroke-opacity:1;stroke-dashoffset:3;marker:none;visibility:visible;display:inline;overflow:visible;enable-background:accumulate" />
    <path
       inkscape:connector-curvature="0"
       style="color:#000000;fill:none;stroke:#ff0000;stroke-width:1;stroke-linecap:butt;stroke-linejoin:miter;stroke-miterlimit:4;stroke-opacity:1;stroke-dashoffset:3;marker:none;visibility:visible;display:inline;overflow:visible;enable-background:accumulate"
       d="m 150.9784,50.010041 c 0,6.045805 -4.9011,10.946902 -10.94691,10.946902 -6.04581,0 -10.9469,-4.901097 -10.9469,-10.946902 0,-6.045814 4.90109,-10.946912 10.9469,-10.946912 6.04581,0 10.94691,4.901098 10.94691,10.946912 z"
       id="path3648" />
    <path
       sodipodi:nodetypes="caac"
       inkscape:connector-curvature="0"
       id="path3654"
       d="m 85.30374,61.7433 c -20.47209,0 -16.96533,-16.354766 -26.75,-14 -7.14862,1.720378 -5.40022,17.792182 -12.75,18 -6.81688,0.192749 -6.04906,-14.733351 -12.75,-16"
       style="fill:none;stroke:#ff0000;stroke-width:1px;stroke-linecap:butt;stroke-linejoin:miter;stroke-opacity:1;display:inline" />
    <path
       sodipodi:nodetypes="cccccc"
       inkscape:connector-curvature="0"
       id="path3652-0"
       d="m 122.51424,73.70433 -6.2803,-2.27866 -26.1055,-9.47183 26.0941,-9.46767 6.2917,-2.28282 z"
       style="color:#000000;fill:#ffffff;stroke:none;stroke-width:0.99999994;marker:none;visibility:visible;display:inline;overflow:visible;enable-background:accumulate" />
    <path
       sodipodi:nodetypes="ccccc"
       inkscape:connector-curvature="0"
       id="path3652"
       d="m 122.51424,73.70433 -6.2803,-2.27866 -26.1055,-9.47183 26.0941,-9.46767 6.2917,-2.28282"
       style="color:#000000;fill:none;stroke:#ff0000;stroke-width:0.99999994;stroke-linecap:square;stroke-linejoin:bevel;stroke-miterlimit:4;stroke-opacity:1;stroke-dashoffset:3;marker:none;visibility:visible;display:inline;overflow:visible;enable-background:accumulate" />
  </g>
</svg>
