<?xml version="1.0" encoding="UTF-8" standalone="no"?>
<!-- Created with Inkscape (http://www.inkscape.org/) -->
<svg
   xmlns:dc="http://purl.org/dc/elements/1.1/"
   xmlns:cc="http://creativecommons.org/ns#"
   xmlns:rdf="http://www.w3.org/1999/02/22-rdf-syntax-ns#"
   xmlns:svg="http://www.w3.org/2000/svg"
   xmlns="http://www.w3.org/2000/svg"
   xmlns:sodipodi="http://sodipodi.sourceforge.net/DTD/sodipodi-0.dtd"
   xmlns:inkscape="http://www.inkscape.org/namespaces/inkscape"
   width="400"
   height="400"
   id="svg2902"
   version="1.1"
   inkscape:version="0.48.3.1 r9886"
   sodipodi:docname="A0BA33449A6946EAC_00_SW_00_00_.svg"
   style="display:inline">
  
  <g
     style="display:inline"
     inkscape:label="TUBE-001"
     id="element"
     inkscape:groupmode="layer">
    <path
       id="rect7511-6-1-4-7-7-6"
       style="font-size:medium;font-style:normal;font-variant:normal;font-weight:normal;font-stretch:normal;text-indent:0;text-align:start;text-decoration:none;line-height:normal;letter-spacing:normal;word-spacing:normal;text-transform:none;direction:ltr;block-progression:tb;writing-mode:lr-tb;text-anchor:start;baseline-shift:baseline;color:#000000;fill:#ffffff;stroke:none;stroke-width:1;marker:none;visibility:visible;display:inline;overflow:visible;enable-background:accumulate;font-family:Sans;-inkscape-font-specification:Sans"
       d="m 245.32754,131.18823 0,170.78125 c 0,3.70625 2.5464,6.15625 5.8125,6.15625 l 60.2187,0 c 3.266,0 5.8125,-2.45 5.8125,-6.15625 0,-37.84736 -0.031,-47.6771 -0.031,-85.81255 0,-14.20177 11.5685,-26.15625 25.8125,-26.15625 3.75572,0 10.07938,2.1e-4 16.54702,-6.8e-4 l 10.00024,0 0,20 -10.00024,0 c -5.51567,7.6e-4 -11.03135,7.3e-4 -16.54702,7.3e-4 -3.266,0 -5.8125,2.45 -5.8125,6.15625 -0.001,31.45552 0.041,50.42396 0.031,85.8125 0,14.20177 -11.5684,26.15625 -25.8125,26.15625 l -60.2187,0 c -14.2441,0 -25.8125,-11.95448 -25.8125,-26.15625 l 0,-170.78125 z"
       inkscape:connector-curvature="0"
       sodipodi:nodetypes="csssssccccccccssscc" />
    <path
       id="rect7511-6-1-4-7-7"
       style="font-size:medium;font-style:normal;font-variant:normal;font-weight:normal;font-stretch:normal;text-indent:0;text-align:start;text-decoration:none;line-height:normal;letter-spacing:normal;word-spacing:normal;text-transform:none;direction:ltr;block-progression:tb;writing-mode:lr-tb;text-anchor:start;baseline-shift:baseline;color:#000000;fill:none;stroke:#000000;stroke-width:1;stroke-miterlimit:4;stroke-dasharray:none;marker:none;visibility:visible;display:inline;overflow:visible;enable-background:accumulate;font-family:Sans;-inkscape-font-specification:Sans"
       d="m 369.5,210 -10.00024,0 c -5.51567,7.6e-4 -11.03135,7.3e-4 -16.54702,7.3e-4 -3.266,0 -5.8125,2.45 -5.8125,6.15625 -0.001,31.45552 0.041,50.42396 0.031,85.8125 0,14.20177 -11.5684,26.15625 -25.8125,26.15625 l -60.2187,0 c -14.2441,0 -25.8125,-11.95448 -25.8125,-26.15625 l 0,-170.78125 M 369.5,190 l -10.00024,0 c -6.46764,8.9e-4 -12.7913,6.8e-4 -16.54702,6.8e-4 -14.244,0 -25.8125,11.95448 -25.8125,26.15625 0,38.13545 0.031,47.96519 0.031,85.81255 0,3.70625 -2.5465,6.15625 -5.8125,6.15625 l -60.2187,0 c -3.2661,0 -5.8125,-2.45 -5.8125,-6.15625 l 0,-170.78125"
       inkscape:connector-curvature="0"
       sodipodi:nodetypes="cccccsssccccsssssc" />
  </g>
  <g
     style="display:inline"
     inkscape:label="VOGEL-007"
     id="g17804"
     inkscape:groupmode="layer">
    <path
       sodipodi:nodetypes="cccccaac"
       inkscape:connector-curvature="0"
       id="path17806"
       d="m 214.2616,237.08681 c -22.03702,-27.88292 -11.58096,-63.00996 0,-90.98607 3.85903,-9.23996 9.52908,-21.11702 21.36567,-21.11702 l 0,0 0,0 c 11.83656,0 17.50661,11.87707 21.36564,21.11702 11.68823,27.98597 21.44562,69.54044 0,90.98607 -10.07187,10.07187 -32.65944,10.07187 -42.73131,0 z"
       style="color:#000000;fill:#ffffff;stroke:none;stroke-width:1;marker:none;visibility:visible;display:inline;overflow:visible;enable-background:accumulate" />
    <path
       sodipodi:nodetypes="cscccssccc"
       inkscape:connector-curvature="0"
       id="path17808"
       d="m 213.80417,147.18365 c 0.19777,-0.48426 0.2584,-0.60635 0.45743,-1.08291 3.85905,-9.23995 9.52908,-21.11702 21.36567,-21.11702 l 0,0 0,0 c 11.83656,0 17.50661,11.87707 21.36564,21.11702 11.68823,27.98597 21.44562,69.54044 0,90.98607 -10.07187,10.07187 -32.65944,10.07187 -42.73131,0 l 0,0 c -13.98628,-13.98628 -14.70095,-36.52548 -10.26381,-58.27584"
       style="color:#000000;fill:none;stroke:#ff0000;stroke-width:1;stroke-linecap:square;stroke-linejoin:bevel;stroke-miterlimit:4;stroke-opacity:1;stroke-dashoffset:3;marker:none;visibility:visible;display:inline;overflow:visible;enable-background:accumulate" />
    <path
       inkscape:connector-curvature="0"
       style="color:#000000;fill:none;stroke:#ff0000;stroke-width:1;stroke-linecap:butt;stroke-linejoin:miter;stroke-miterlimit:4;stroke-opacity:1;stroke-dashoffset:3;marker:none;visibility:visible;display:inline;overflow:visible;enable-background:accumulate"
       d="m 243.77367,149.4398 c 0,2.79414 -2.2651,5.05924 -5.05924,5.05924 -2.79414,0 -5.05924,-2.2651 -5.05924,-5.05924 0,-2.79415 2.2651,-5.05925 5.05924,-5.05925 2.79414,0 5.05924,2.2651 5.05924,5.05925 z"
       id="path17812" />
    <path
       id="path17814-8"
       style="color:#000000;fill:#ffffff;stroke:none;stroke-width:0.99999994000000003;stroke-linecap:square;stroke-linejoin:bevel;stroke-miterlimit:4;stroke-opacity:1;stroke-dashoffset:3;marker:none;visibility:visible;display:inline;overflow:visible;enable-background:accumulate"
       d="m 214.06278,180.1365 -39.5915,-8.30642 53.41416,-3.61273 -49.01085,-24.81592 41.75612,5.39509 z"
       inkscape:connector-curvature="0"
       sodipodi:nodetypes="cccccc" />
    <path
       id="path17814"
       style="color:#000000;fill:none;stroke:#ff0000;stroke-width:0.99999994;stroke-linecap:square;stroke-linejoin:bevel;stroke-miterlimit:4;stroke-opacity:1;stroke-dashoffset:3;marker:none;visibility:visible;display:inline;overflow:visible;enable-background:accumulate"
       d="m 214.06278,180.1365 -39.5915,-8.30642 53.41416,-3.61273 -49.01085,-24.81592 41.75612,5.39509"
       inkscape:connector-curvature="0"
       sodipodi:nodetypes="ccccc" />
  </g>
</svg>
