<?xml version="1.0" encoding="UTF-8" standalone="no"?>
<!-- Created with Inkscape (http://www.inkscape.org/) -->
<svg
   xmlns:dc="http://purl.org/dc/elements/1.1/"
   xmlns:cc="http://creativecommons.org/ns#"
   xmlns:rdf="http://www.w3.org/1999/02/22-rdf-syntax-ns#"
   xmlns:svg="http://www.w3.org/2000/svg"
   xmlns="http://www.w3.org/2000/svg"
   xmlns:sodipodi="http://sodipodi.sourceforge.net/DTD/sodipodi-0.dtd"
   xmlns:inkscape="http://www.inkscape.org/namespaces/inkscape"
   width="400"
   height="400"
   id="svg2902"
   version="1.1"
   inkscape:version="0.48.3.1 r9886"
   sodipodi:docname="A0BA9F9AD31AB8916_II_00_II_00_.svg"
   style="display:inline">
  
  <g
     style="display:inline"
     inkscape:label="TUBE-003"
     id="g3716"
     inkscape:groupmode="layer">
    <path
       id="path3718-1"
       style="font-size:medium;font-style:normal;font-variant:normal;font-weight:normal;font-stretch:normal;text-indent:0;text-align:start;text-decoration:none;line-height:normal;letter-spacing:normal;word-spacing:normal;text-transform:none;direction:ltr;block-progression:tb;writing-mode:lr-tb;text-anchor:start;baseline-shift:baseline;color:#000000;fill:#ffffff;stroke:none;stroke-width:1;marker:none;visibility:visible;display:inline;overflow:visible;enable-background:accumulate;font-family:Sans;-inkscape-font-specification:Sans"
       d="m 135.32754,131.18823 0,196.78125 c 0,14.20177 11.5684,26.15625 25.8125,26.15625 l 22.2187,0 c 6.30383,0 12.0836,-2.34137 16.56852,-6.1827 l 0.4121,-153.28067 c -6.76191,4.76561 -11.19912,12.69911 -11.19912,21.49457 0,38.13545 0.031,73.96519 0.031,111.81255 0,3.70625 -2.5465,6.15625 -5.8125,6.15625 l -22.2187,0 c -3.2661,0 -5.8125,-2.45 -5.8125,-6.15625 l 0,-196.78125 z"
       inkscape:connector-curvature="0"
       sodipodi:nodetypes="csssccssssscc" />
    <path
       style="font-size:medium;font-style:normal;font-variant:normal;font-weight:normal;font-stretch:normal;text-indent:0;text-align:start;text-decoration:none;line-height:normal;letter-spacing:normal;word-spacing:normal;text-transform:none;direction:ltr;block-progression:tb;writing-mode:lr-tb;text-anchor:start;baseline-shift:baseline;color:#000000;fill:none;stroke:#ff00ff;stroke-width:1;stroke-linecap:butt;stroke-linejoin:miter;stroke-miterlimit:4;stroke-opacity:1;stroke-dasharray:none;stroke-dashoffset:0;marker:none;visibility:visible;display:inline;overflow:visible;enable-background:accumulate;font-family:Sans;-inkscape-font-specification:Sans"
       d="m 199.92726,347.94303 c -4.48492,3.84133 -10.26469,6.1827 -16.56852,6.1827 l -22.2187,0 c -14.2441,0 -25.8125,-11.95448 -25.8125,-26.15625 l 0,-196.78125"
       id="path3655"
       inkscape:connector-curvature="0"
       sodipodi:nodetypes="csssc" />
    <path
       style="font-size:medium;font-style:normal;font-variant:normal;font-weight:normal;font-stretch:normal;text-indent:0;text-align:start;text-decoration:none;line-height:normal;letter-spacing:normal;word-spacing:normal;text-transform:none;direction:ltr;block-progression:tb;writing-mode:lr-tb;text-anchor:start;baseline-shift:baseline;color:#000000;fill:none;stroke:#ff00ff;stroke-width:1;stroke-miterlimit:4;stroke-dasharray:none;marker:none;visibility:visible;display:inline;overflow:visible;enable-background:accumulate;font-family:Sans;-inkscape-font-specification:Sans"
       d="m 200.33936,194.66236 c -6.76191,4.76561 -11.19912,12.69911 -11.19912,21.49457 0,38.13545 0.031,73.96519 0.031,111.81255 0,3.70625 -2.5465,6.15625 -5.8125,6.15625 l -22.2187,0 c -3.2661,0 -5.8125,-2.45 -5.8125,-6.15625 l 0,-196.78125"
       id="path3718"
       inkscape:connector-curvature="0"
       sodipodi:nodetypes="csssssc" />
  </g>
  <g
     style="display:inline"
     inkscape:label="VOGEL-007"
     id="g17804"
     inkscape:groupmode="layer">
    <path
       style="color:#000000;fill:#ffffff;stroke:none;stroke-width:1;marker:none;visibility:visible;display:inline;overflow:visible;enable-background:accumulate"
       d="m 145.625,121.96875 c -11.83659,0 -17.51597,11.88504 -21.375,21.125 -0.24175,0.58401 -0.47826,1.19114 -0.71875,1.78125 l 7.09375,0.90625 -3,14.25 10.25,5.1875 -11.46875,0.78125 -2.34375,11.125 -10.28125,-2.15625 c -4.40393,20.14817 -3.7443,41.14156 10.46875,59.125 10.07187,10.07187 32.67813,10.07187 42.75,0 21.44562,-21.44563 11.68823,-63.01403 0,-91 -3.85903,-9.23995 -9.53844,-21.125 -21.375,-21.125 z m 3.09375,19.40625 c 2.79414,0 5.0625,2.26835 5.0625,5.0625 0,2.79414 -2.26836,5.0625 -5.0625,5.0625 -2.79414,0 -5.0625,-2.26836 -5.0625,-5.0625 0,-2.79415 2.26836,-5.0625 5.0625,-5.0625 z"
       id="path4668"
       inkscape:connector-curvature="0" />
    <path
       sodipodi:nodetypes="cscccssccc"
       inkscape:connector-curvature="0"
       id="path17808"
       d="m 123.80417,144.18365 c 0.19777,-0.48426 0.2584,-0.60635 0.45743,-1.08291 3.85905,-9.23995 9.52908,-21.11702 21.36567,-21.11702 l 0,0 0,0 c 11.83656,0 17.50661,11.87707 21.36564,21.11702 11.68823,27.98597 21.44562,69.54044 0,90.98607 -10.07187,10.07187 -32.65944,10.07187 -42.73131,0 l 0,0 c -13.98628,-13.98628 -14.70095,-36.52548 -10.26381,-58.27584"
       style="color:#000000;fill:none;stroke:#ff0000;stroke-width:1;stroke-linecap:square;stroke-linejoin:bevel;stroke-miterlimit:4;stroke-opacity:1;stroke-dashoffset:3;marker:none;visibility:visible;display:inline;overflow:visible;enable-background:accumulate" />
    <path
       inkscape:connector-curvature="0"
       style="color:#000000;fill:none;stroke:#ff0000;stroke-width:1;stroke-linecap:butt;stroke-linejoin:miter;stroke-miterlimit:4;stroke-opacity:1;stroke-dashoffset:3;marker:none;visibility:visible;display:inline;overflow:visible;enable-background:accumulate"
       d="m 153.77367,146.4398 c 0,2.79414 -2.2651,5.05924 -5.05924,5.05924 -2.79414,0 -5.05924,-2.2651 -5.05924,-5.05924 0,-2.79415 2.2651,-5.05925 5.05924,-5.05925 2.79414,0 5.05924,2.2651 5.05924,5.05925 z"
       id="path17812" />
    <path
       id="path17814-7"
       style="color:#000000;fill:#ffffff;stroke:none;stroke-width:0.99999994;marker:none;visibility:visible;display:inline;overflow:visible;enable-background:accumulate"
       d="m 125.06278,177.1365 -40.5915,-8.30642 53.41416,-3.61273 -49.01085,-24.81592 42.75612,5.39509 z"
       inkscape:connector-curvature="0"
       sodipodi:nodetypes="cccccc" />
    <path
       id="path17814"
       style="color:#000000;fill:none;stroke:#ff0000;stroke-width:0.99999994;stroke-linecap:square;stroke-linejoin:bevel;stroke-miterlimit:4;stroke-opacity:1;stroke-dashoffset:3;marker:none;visibility:visible;display:inline;overflow:visible;enable-background:accumulate"
       d="m 124.06278,177.1365 -39.5915,-8.30642 53.41416,-3.61273 -49.01085,-24.81592 41.75612,5.39509"
       inkscape:connector-curvature="0"
       sodipodi:nodetypes="ccccc" />
  </g>
  <g
     style="display:inline"
     inkscape:label="KONNEKTOR-001"
     id="g4429"
     inkscape:groupmode="layer"
     sodipodi:insensitive="true">
    <path
       sodipodi:nodetypes="cccc"
       inkscape:connector-curvature="0"
       id="path4433"
       d="M 200,369.5 200,359.49976 200,40.500237 200,30.5"
       style="fill:none;stroke:#000000;stroke-width:1.00000036px;stroke-linecap:square;stroke-linejoin:miter;stroke-opacity:1;display:inline" />
  </g>
</svg>
