<?xml version="1.0" encoding="UTF-8" standalone="no"?>
<!-- Created with Inkscape (http://www.inkscape.org/) -->
<svg
   xmlns:dc="http://purl.org/dc/elements/1.1/"
   xmlns:cc="http://creativecommons.org/ns#"
   xmlns:rdf="http://www.w3.org/1999/02/22-rdf-syntax-ns#"
   xmlns:svg="http://www.w3.org/2000/svg"
   xmlns="http://www.w3.org/2000/svg"
   xmlns:sodipodi="http://sodipodi.sourceforge.net/DTD/sodipodi-0.dtd"
   xmlns:inkscape="http://www.inkscape.org/namespaces/inkscape"
   width="400"
   height="400"
   id="svg2902"
   version="1.1"
   inkscape:version="0.48.3.1 r9886"
   sodipodi:docname="A0BA3344CA17488A4_00_SW_00_00_.svg"
   style="display:inline">
  
  <g
     style="display:inline"
     inkscape:label="TUBE-001"
     id="element"
     inkscape:groupmode="layer">
    <path
       id="rect7511-6-1-4-7-7-6"
       style="font-size:medium;font-style:normal;font-variant:normal;font-weight:normal;font-stretch:normal;text-indent:0;text-align:start;text-decoration:none;line-height:normal;letter-spacing:normal;word-spacing:normal;text-transform:none;direction:ltr;block-progression:tb;writing-mode:lr-tb;text-anchor:start;baseline-shift:baseline;color:#000000;fill:#ffffff;stroke:none;stroke-width:1;marker:none;visibility:visible;display:inline;overflow:visible;enable-background:accumulate;font-family:Sans;-inkscape-font-specification:Sans"
       d="m 245.32754,131.18823 0,170.78125 c 0,3.70625 2.5464,6.15625 5.8125,6.15625 l 60.2187,0 c 3.266,0 5.8125,-2.45 5.8125,-6.15625 0,-37.84736 -0.031,-47.6771 -0.031,-85.81255 0,-14.20177 11.5685,-26.15625 25.8125,-26.15625 3.75572,0 10.07938,2.1e-4 16.54702,-6.8e-4 l 10.00024,0 0,20 -10.00024,0 c -5.51567,7.6e-4 -11.03135,7.3e-4 -16.54702,7.3e-4 -3.266,0 -5.8125,2.45 -5.8125,6.15625 -0.001,31.45552 0.041,50.42396 0.031,85.8125 0,14.20177 -11.5684,26.15625 -25.8125,26.15625 l -60.2187,0 c -14.2441,0 -25.8125,-11.95448 -25.8125,-26.15625 l 0,-170.78125 z"
       inkscape:connector-curvature="0"
       sodipodi:nodetypes="csssssccccccccssscc" />
    <path
       id="rect7511-6-1-4-7-7"
       style="font-size:medium;font-style:normal;font-variant:normal;font-weight:normal;font-stretch:normal;text-indent:0;text-align:start;text-decoration:none;line-height:normal;letter-spacing:normal;word-spacing:normal;text-transform:none;direction:ltr;block-progression:tb;writing-mode:lr-tb;text-anchor:start;baseline-shift:baseline;color:#000000;fill:none;stroke:#000000;stroke-width:1;stroke-miterlimit:4;stroke-dasharray:none;marker:none;visibility:visible;display:inline;overflow:visible;enable-background:accumulate;font-family:Sans;-inkscape-font-specification:Sans"
       d="m 369.5,210 -10.00024,0 c -5.51567,7.6e-4 -11.03135,7.3e-4 -16.54702,7.3e-4 -3.266,0 -5.8125,2.45 -5.8125,6.15625 -0.001,31.45552 0.041,50.42396 0.031,85.8125 0,14.20177 -11.5684,26.15625 -25.8125,26.15625 l -60.2187,0 c -14.2441,0 -25.8125,-11.95448 -25.8125,-26.15625 l 0,-170.78125 M 369.5,190 l -10.00024,0 c -6.46764,8.9e-4 -12.7913,6.8e-4 -16.54702,6.8e-4 -14.244,0 -25.8125,11.95448 -25.8125,26.15625 0,38.13545 0.031,47.96519 0.031,85.81255 0,3.70625 -2.5465,6.15625 -5.8125,6.15625 l -60.2187,0 c -3.2661,0 -5.8125,-2.45 -5.8125,-6.15625 l 0,-170.78125"
       inkscape:connector-curvature="0"
       sodipodi:nodetypes="cccccsssccccsssssc" />
  </g>
  <g
     inkscape:groupmode="layer"
     id="g3720"
     inkscape:label="VOGEL-004"
     style="display:inline">
    <path
       style="color:#000000;fill:#ffffff;stroke:none;stroke-width:1;marker:none;visibility:visible;display:inline;overflow:visible;enable-background:accumulate"
       d="m 214.2616,169.08681 c -21.44562,-21.44563 -11.68824,-63.0001 0,-90.986075 3.85903,-9.23996 9.52908,-21.11702 21.36567,-21.11702 l 0,0 0,0 c 11.83656,0 17.50661,11.87707 21.36564,21.11702 11.68823,27.985975 21.44562,69.540445 0,90.986075 -10.07187,10.07187 -32.65944,10.07187 -42.73131,0 z"
       id="rect7208-0-1"
       inkscape:connector-curvature="0"
       sodipodi:nodetypes="aacccaaa" />
    <path
       style="color:#000000;fill:none;stroke:#ff0000;stroke-width:1;stroke-linecap:square;stroke-linejoin:bevel;stroke-miterlimit:4;stroke-opacity:1;stroke-dashoffset:3;marker:none;visibility:visible;display:inline;overflow:visible;enable-background:accumulate"
       d="m 210.84848,86.852932 c 1.09907,-3.030251 2.24647,-5.958812 3.41312,-8.752193 3.85903,-9.239958 9.52908,-21.11702 21.36567,-21.11702 l 0,0 0,0 c 11.83656,0 17.50661,11.87707 21.36564,21.11702 11.68823,27.985971 21.44562,69.540441 0,90.986071 -10.07187,10.07187 -32.65944,10.07187 -42.73131,0 l 0,0 c -15.89201,-15.89202 -14.64931,-42.82654 -8.18363,-67.09921"
       id="rect7208-0"
       inkscape:connector-curvature="0"
       sodipodi:nodetypes="cscccssccc" />
    <path
       id="path3598-8-02-1-6"
       d="m 246.20361,83.311235 c 0,4.480681 -3.63231,8.112995 -8.11299,8.112995 -4.48069,0 -8.11299,-3.632314 -8.11299,-8.112995 0,-4.480688 3.6323,-8.113002 8.11299,-8.113002 4.48068,0 8.11299,3.632314 8.11299,8.113002 z"
       style="color:#000000;fill:none;stroke:#ff0000;stroke-width:1;stroke-linecap:butt;stroke-linejoin:miter;stroke-miterlimit:4;stroke-opacity:1;stroke-dashoffset:3;marker:none;visibility:visible;display:inline;overflow:visible;enable-background:accumulate"
       inkscape:connector-curvature="0" />
    <path
       id="path3598-8-02-1-2-84"
       d="m 243.14986,83.311236 c 0,2.79414 -2.2651,5.05924 -5.05924,5.05924 -2.79414,0 -5.05924,-2.2651 -5.05924,-5.05924 0,-2.79415 2.2651,-5.05925 5.05924,-5.05925 2.79414,0 5.05924,2.2651 5.05924,5.05925 z"
       style="color:#000000;fill:none;stroke:#ff0000;stroke-width:1;stroke-linecap:butt;stroke-linejoin:miter;stroke-miterlimit:4;stroke-opacity:1;stroke-dashoffset:3;marker:none;visibility:visible;display:inline;overflow:visible;enable-background:accumulate"
       inkscape:connector-curvature="0" />
    <path
       style="color:#000000;fill:#ffffff;stroke:none;stroke-width:0.99999994;marker:none;visibility:visible;display:inline;overflow:visible;enable-background:accumulate"
       d="M 220.57339,107.00551 188.18755,95.25503 220.57339,83.50454 z"
       id="rect7236-4-4"
       inkscape:connector-curvature="0"
       sodipodi:nodetypes="cccc" />
    <path
       style="color:#000000;fill:none;stroke:#ff0000;stroke-width:0.99999994;stroke-linecap:square;stroke-linejoin:bevel;stroke-miterlimit:4;stroke-opacity:1;stroke-dashoffset:3;marker:none;visibility:visible;display:inline;overflow:visible;enable-background:accumulate"
       d="M 220.57339,107.00551 188.18755,95.255029 220.57339,83.504539"
       id="rect7236-4"
       inkscape:connector-curvature="0"
       sodipodi:nodetypes="ccc" />
  </g>
</svg>
