<?xml version="1.0" encoding="UTF-8" standalone="no"?>
<!-- Created with Inkscape (http://www.inkscape.org/) -->
<svg
   xmlns:dc="http://purl.org/dc/elements/1.1/"
   xmlns:cc="http://creativecommons.org/ns#"
   xmlns:rdf="http://www.w3.org/1999/02/22-rdf-syntax-ns#"
   xmlns:svg="http://www.w3.org/2000/svg"
   xmlns="http://www.w3.org/2000/svg"
   xmlns:sodipodi="http://sodipodi.sourceforge.net/DTD/sodipodi-0.dtd"
   xmlns:inkscape="http://www.inkscape.org/namespaces/inkscape"
   width="400"
   height="400"
   id="svg2902"
   version="1.1"
   inkscape:version="0.48.3.1 r9886"
   sodipodi:docname="A0BA9F9A90AB72C6E_II_00_II_00_.svg"
   style="display:inline">
  
  <g
     inkscape:groupmode="layer"
     id="g3696"
     inkscape:label="TUBE-002"
     style="display:inline">
    <path
       sodipodi:nodetypes="cssccsscc"
       inkscape:connector-curvature="0"
       d="m 155.32754,131.18823 0,130.78125 c 0,3.70625 2.5464,6.15625 5.8125,6.15625 l 38.92049,0 0,20 -38.92049,0 c -14.2441,0 -25.8125,-11.95448 -25.8125,-26.15625 l 0,-130.78125 z"
       style="font-size:medium;font-style:normal;font-variant:normal;font-weight:normal;font-stretch:normal;text-indent:0;text-align:start;text-decoration:none;line-height:normal;letter-spacing:normal;word-spacing:normal;text-transform:none;direction:ltr;block-progression:tb;writing-mode:lr-tb;text-anchor:start;baseline-shift:baseline;color:#000000;fill:#ffffff;stroke:none;stroke-width:1;marker:none;visibility:visible;display:inline;overflow:visible;enable-background:accumulate;font-family:Sans;-inkscape-font-specification:Sans"
       id="path3698-0" />
    <path
       sodipodi:nodetypes="cssccssc"
       inkscape:connector-curvature="0"
       d="m 200.06053,288.12573 -38.92049,0 c -14.2441,0 -25.8125,-11.95448 -25.8125,-26.15625 l 0,-130.78125 m 64.73299,136.9375 -38.92049,0 c -3.2661,0 -5.8125,-2.45 -5.8125,-6.15625 l 0,-130.78125"
       style="font-size:medium;font-style:normal;font-variant:normal;font-weight:normal;font-stretch:normal;text-indent:0;text-align:start;text-decoration:none;line-height:normal;letter-spacing:normal;word-spacing:normal;text-transform:none;direction:ltr;block-progression:tb;writing-mode:lr-tb;text-anchor:start;baseline-shift:baseline;color:#000000;fill:none;stroke:#ff00ff;stroke-width:1;stroke-miterlimit:4;stroke-dasharray:none;marker:none;visibility:visible;display:inline;overflow:visible;enable-background:accumulate;font-family:Sans;-inkscape-font-specification:Sans"
       id="path3698" />
  </g>
  <g
     inkscape:groupmode="layer"
     id="g17786"
     inkscape:label="VOGEL-006"
     style="display:inline">
    <path
       style="color:#000000;fill:none;stroke:#ff0000;stroke-width:1;stroke-linecap:square;stroke-linejoin:bevel;stroke-miterlimit:4;stroke-opacity:1;stroke-dashoffset:3;marker:none;visibility:visible;display:inline;overflow:visible;enable-background:accumulate"
       d="m 123.80417,79.18365 c 0.19777,-0.484259 0.2584,-0.606354 0.45743,-1.082911 3.85905,-9.239951 9.52908,-21.11702 21.36567,-21.11702 l 0,0 0,0 c 11.83656,0 17.50661,11.87707 21.36564,21.11702 11.68823,27.985971 21.44562,69.540441 0,90.986071 -10.07187,10.07187 -32.65944,10.07187 -42.73131,0 l 0,0 c -13.98628,-13.98628 -14.70095,-36.52548 -10.26381,-58.27584"
       id="path17790"
       inkscape:connector-curvature="0"
       sodipodi:nodetypes="cscccssccc" />
    <path
       id="path17796"
       d="m 153.77367,81.439797 c 0,2.79414 -2.2651,5.05924 -5.05924,5.05924 -2.79414,0 -5.05924,-2.2651 -5.05924,-5.05924 0,-2.79415 2.2651,-5.05925 5.05924,-5.05925 2.79414,0 5.05924,2.2651 5.05924,5.05925 z"
       style="color:#000000;fill:#ffffff;stroke:#ff0000;stroke-width:1;stroke-linecap:butt;stroke-linejoin:miter;stroke-miterlimit:4;stroke-opacity:1;stroke-dashoffset:3;marker:none;visibility:visible;display:inline;overflow:visible;enable-background:accumulate"
       inkscape:connector-curvature="0"
       zpos="2000" />
    <path
       sodipodi:nodetypes="ccccc"
       inkscape:connector-curvature="0"
       d="m 124.06278,112.13651 -39.5915,-8.30642 64.6428,-0.18176 -60.23949,-28.2469 41.75612,5.395095"
       style="color:#000000;fill:#ffffff;stroke:none;stroke-width:0.99999994;marker:none;visibility:visible;display:inline;overflow:visible;enable-background:accumulate"
       id="path17798-9" />
    <path
       sodipodi:nodetypes="ccccc"
       inkscape:connector-curvature="0"
       d="m 124.06278,112.1365 -39.5915,-8.30642 64.6428,-0.18176 -60.23949,-28.246895 41.75612,5.395095"
       style="color:#000000;fill:none;stroke:#ff0000;stroke-width:0.99999994;stroke-linecap:square;stroke-linejoin:bevel;stroke-miterlimit:4;stroke-opacity:1;stroke-dashoffset:3;marker:none;visibility:visible;display:inline;overflow:visible;enable-background:accumulate"
       id="path17798"
       zpos="2000" />
  </g>
  <g
     style="display:inline"
     inkscape:label="KONNEKTOR-001"
     id="g4429"
     inkscape:groupmode="layer"
     sodipodi:insensitive="true">
    <path
       sodipodi:nodetypes="cccc"
       inkscape:connector-curvature="0"
       id="path4433"
       d="M 200,369.5 200,359.49976 200,40.500237 200,30.5"
       style="fill:none;stroke:#000000;stroke-width:1.00000036px;stroke-linecap:square;stroke-linejoin:miter;stroke-opacity:1;display:inline" />
  </g>
</svg>
