<?xml version="1.0" encoding="UTF-8" standalone="no"?>
<!-- Created with Inkscape (http://www.inkscape.org/) -->
<svg
   xmlns:dc="http://purl.org/dc/elements/1.1/"
   xmlns:cc="http://creativecommons.org/ns#"
   xmlns:rdf="http://www.w3.org/1999/02/22-rdf-syntax-ns#"
   xmlns:svg="http://www.w3.org/2000/svg"
   xmlns="http://www.w3.org/2000/svg"
   xmlns:sodipodi="http://sodipodi.sourceforge.net/DTD/sodipodi-0.dtd"
   xmlns:inkscape="http://www.inkscape.org/namespaces/inkscape"
   width="400"
   height="400"
   id="svg2902"
   version="1.1"
   inkscape:version="0.48.3.1 r9886"
   sodipodi:docname="A0BA9F9A106B75309_II_00_II_00_.svg"
   style="display:inline">
  
  <g
     inkscape:groupmode="layer"
     id="g3696"
     inkscape:label="TUBE-002"
     style="display:inline">
    <path
       sodipodi:nodetypes="cssccsscc"
       inkscape:connector-curvature="0"
       d="m 155.32754,131.18823 0,130.78125 c 0,3.70625 2.5464,6.15625 5.8125,6.15625 l 38.92049,0 0,20 -38.92049,0 c -14.2441,0 -25.8125,-11.95448 -25.8125,-26.15625 l 0,-130.78125 z"
       style="font-size:medium;font-style:normal;font-variant:normal;font-weight:normal;font-stretch:normal;text-indent:0;text-align:start;text-decoration:none;line-height:normal;letter-spacing:normal;word-spacing:normal;text-transform:none;direction:ltr;block-progression:tb;writing-mode:lr-tb;text-anchor:start;baseline-shift:baseline;color:#000000;fill:#ffffff;stroke:none;stroke-width:1;marker:none;visibility:visible;display:inline;overflow:visible;enable-background:accumulate;font-family:Sans;-inkscape-font-specification:Sans"
       id="path3698-0" />
    <path
       sodipodi:nodetypes="cssccssc"
       inkscape:connector-curvature="0"
       d="m 200.06053,288.12573 -38.92049,0 c -14.2441,0 -25.8125,-11.95448 -25.8125,-26.15625 l 0,-130.78125 m 64.73299,136.9375 -38.92049,0 c -3.2661,0 -5.8125,-2.45 -5.8125,-6.15625 l 0,-130.78125"
       style="font-size:medium;font-style:normal;font-variant:normal;font-weight:normal;font-stretch:normal;text-indent:0;text-align:start;text-decoration:none;line-height:normal;letter-spacing:normal;word-spacing:normal;text-transform:none;direction:ltr;block-progression:tb;writing-mode:lr-tb;text-anchor:start;baseline-shift:baseline;color:#000000;fill:none;stroke:#ff00ff;stroke-width:1;stroke-miterlimit:4;stroke-dasharray:none;marker:none;visibility:visible;display:inline;overflow:visible;enable-background:accumulate;font-family:Sans;-inkscape-font-specification:Sans"
       id="path3698" />
  </g>
  <g
     style="display:inline"
     inkscape:label="VOGEL-005"
     id="g3772"
     inkscape:groupmode="layer">
    <path
       id="path3784-7-9"
       style="color:#000000;fill:#ffffff;stroke:none;stroke-width:0.99999994;marker:none;visibility:visible;display:inline;overflow:visible;enable-background:accumulate"
       d="M 122.50325,111.82459 94.45229,104.14199 120.10677,94.914939 94.177,84.446715 127.51164,79.8608 z"
       inkscape:connector-curvature="0"
       sodipodi:nodetypes="cccccc" />
    <path
       sodipodi:nodetypes="cccccaac"
       inkscape:connector-curvature="0"
       id="path3774"
       d="m 124.2616,169.08681 c -22.03702,-27.88292 -11.58096,-63.00996 0,-90.986075 3.85903,-9.239958 9.52908,-21.11702 21.36567,-21.11702 l 0,0 0,0 c 11.83656,0 17.50661,11.87707 21.36564,21.11702 11.68823,27.985975 21.44562,69.540445 0,90.986075 -10.07187,10.07187 -32.65944,10.07187 -42.73131,0 z"
       style="color:#000000;fill:#ffffff;stroke:none;stroke-width:1;marker:none;visibility:visible;display:inline;overflow:visible;enable-background:accumulate" />
    <path
       sodipodi:nodetypes="cscccssccc"
       inkscape:connector-curvature="0"
       id="path3776"
       d="m 123.80417,79.18365 c 0.19777,-0.484259 0.2584,-0.606354 0.45743,-1.082911 3.85905,-9.239951 9.52908,-21.11702 21.36567,-21.11702 l 0,0 0,0 c 11.83656,0 17.50661,11.87707 21.36564,21.11702 11.68823,27.985971 21.44562,69.540441 0,90.986071 -10.07187,10.07187 -32.65944,10.07187 -42.73131,0 l 0,0 c -13.98628,-13.98628 -14.70095,-36.52548 -10.26381,-58.27584"
       style="color:#000000;fill:none;stroke:#ff0000;stroke-width:1;stroke-linecap:square;stroke-linejoin:bevel;stroke-miterlimit:4;stroke-opacity:1;stroke-dashoffset:3;marker:none;visibility:visible;display:inline;overflow:visible;enable-background:accumulate" />
    <path
       inkscape:connector-curvature="0"
       style="color:#000000;fill:none;stroke:#ff0000;stroke-width:1;stroke-linecap:butt;stroke-linejoin:miter;stroke-miterlimit:4;stroke-opacity:1;stroke-dashoffset:3;marker:none;visibility:visible;display:inline;overflow:visible;enable-background:accumulate"
       d="m 156.71666,83.311235 c 0,4.76403 -3.86201,8.626043 -8.62604,8.626043 -4.76404,0 -8.62604,-3.862013 -8.62604,-8.626043 0,-4.764039 3.862,-8.626053 8.62604,-8.626053 4.76403,0 8.62604,3.862014 8.62604,8.626053 z"
       id="path3780" />
    <path
       inkscape:connector-curvature="0"
       style="color:#000000;fill:none;stroke:#ff0000;stroke-width:1;stroke-linecap:butt;stroke-linejoin:miter;stroke-miterlimit:4;stroke-opacity:1;stroke-dashoffset:3;marker:none;visibility:visible;display:inline;overflow:visible;enable-background:accumulate"
       d="m 151.26002,83.311233 c 0,1.750411 -1.41899,3.169401 -3.1694,3.169401 -1.75041,0 -3.1694,-1.41899 -3.1694,-3.169401 0,-1.750416 1.41899,-3.169406 3.1694,-3.169406 1.75041,0 3.1694,1.41899 3.1694,3.169406 z"
       id="path3782" />
    <path
       id="path3784-7"
       style="color:#000000;fill:none;stroke:#ff0000;stroke-width:0.99999994;stroke-linecap:square;stroke-linejoin:bevel;stroke-miterlimit:4;stroke-opacity:1;stroke-dashoffset:3;marker:none;visibility:visible;display:inline;overflow:visible;enable-background:accumulate"
       d="M 122.50325,111.82459 94.45229,104.14199 120.10677,94.914939 94.177,84.446715 127.51164,79.8608"
       inkscape:connector-curvature="0"
       sodipodi:nodetypes="ccccc" />
    <path
       style="fill:none;stroke:#ff00ff;stroke-width:1px;stroke-linecap:butt;stroke-linejoin:miter;stroke-opacity:1"
       d="M 104.62968,96.019679 93.08914,89.044971 81.5486,112.07026 70.00806,79.095555 58.46751,96.120847 46.92697,85.146139 35.38643,92.171431"
       id="path3805"
       inkscape:connector-curvature="0"
       sodipodi:nodetypes="ccccccc" />
  </g>
  <g
     style="display:inline"
     inkscape:label="KONNEKTOR-001"
     id="g4429"
     inkscape:groupmode="layer"
     sodipodi:insensitive="true">
    <path
       sodipodi:nodetypes="cccc"
       inkscape:connector-curvature="0"
       id="path4433"
       d="M 200,369.5 200,359.49976 200,40.500237 200,30.5"
       style="fill:none;stroke:#000000;stroke-width:1.00000036px;stroke-linecap:square;stroke-linejoin:miter;stroke-opacity:1;display:inline" />
  </g>
</svg>
