<?xml version="1.0" encoding="UTF-8" standalone="no"?>
<!-- Created with Inkscape (http://www.inkscape.org/) -->
<svg
   xmlns:dc="http://purl.org/dc/elements/1.1/"
   xmlns:cc="http://creativecommons.org/ns#"
   xmlns:rdf="http://www.w3.org/1999/02/22-rdf-syntax-ns#"
   xmlns:svg="http://www.w3.org/2000/svg"
   xmlns="http://www.w3.org/2000/svg"
   xmlns:sodipodi="http://sodipodi.sourceforge.net/DTD/sodipodi-0.dtd"
   xmlns:inkscape="http://www.inkscape.org/namespaces/inkscape"
   width="400"
   height="400"
   id="svg2902"
   version="1.1"
   inkscape:version="0.48.3.1 r9886"
   sodipodi:docname="A0BA3344AF6556878_00_SW_00_00_.svg"
   style="display:inline">
  
  <g
     inkscape:groupmode="layer"
     id="g3696"
     inkscape:label="TUBE-002"
     style="display:inline">
    <path
       sodipodi:nodetypes="csssssccccccccssscc"
       inkscape:connector-curvature="0"
       d="m 245.32754,131.18823 0,130.78125 c 0,3.70625 2.5464,6.15625 5.8125,6.15625 l 60.2187,0 c 3.266,0 5.8125,-2.45 5.8125,-6.15625 0,-37.84736 -0.031,-7.6771 -0.031,-45.81255 0,-14.20177 11.5685,-26.15625 25.8125,-26.15625 3.75572,0 10.07938,2.1e-4 16.54702,-6.8e-4 l 10.00024,0 0,20 -10.00024,0 c -5.51567,7.6e-4 -11.03135,7.3e-4 -16.54702,7.3e-4 -3.266,0 -5.8125,2.45 -5.8125,6.15625 -0.001,31.45552 0.041,10.42396 0.031,45.8125 0,14.20177 -11.5684,26.15625 -25.8125,26.15625 l -60.2187,0 c -14.2441,0 -25.8125,-11.95448 -25.8125,-26.15625 l 0,-130.78125 z"
       style="font-size:medium;font-style:normal;font-variant:normal;font-weight:normal;font-stretch:normal;text-indent:0;text-align:start;text-decoration:none;line-height:normal;letter-spacing:normal;word-spacing:normal;text-transform:none;direction:ltr;block-progression:tb;writing-mode:lr-tb;text-anchor:start;baseline-shift:baseline;color:#000000;fill:#ffffff;stroke:none;stroke-width:1;marker:none;visibility:visible;display:inline;overflow:visible;enable-background:accumulate;font-family:Sans;-inkscape-font-specification:Sans"
       id="path3698-3" />
    <path
       sodipodi:nodetypes="cccccsssccccsssssc"
       inkscape:connector-curvature="0"
       d="m 369.5,210 -10.00024,0 c -5.51567,7.6e-4 -11.03135,7.3e-4 -16.54702,7.3e-4 -3.266,0 -5.8125,2.45 -5.8125,6.15625 -0.001,31.45552 0.041,10.42396 0.031,45.8125 0,14.20177 -11.5684,26.15625 -25.8125,26.15625 l -60.2187,0 c -14.2441,0 -25.8125,-11.95448 -25.8125,-26.15625 l 0,-130.78125 M 369.5,190 l -10.00024,0 c -6.46764,8.9e-4 -12.7913,6.8e-4 -16.54702,6.8e-4 -14.244,0 -25.8125,11.95448 -25.8125,26.15625 0,38.13545 0.031,7.96519 0.031,45.81255 0,3.70625 -2.5465,6.15625 -5.8125,6.15625 l -60.2187,0 c -3.2661,0 -5.8125,-2.45 -5.8125,-6.15625 l 0,-130.78125"
       style="font-size:medium;font-style:normal;font-variant:normal;font-weight:normal;font-stretch:normal;text-indent:0;text-align:start;text-decoration:none;line-height:normal;letter-spacing:normal;word-spacing:normal;text-transform:none;direction:ltr;block-progression:tb;writing-mode:lr-tb;text-anchor:start;baseline-shift:baseline;color:#000000;fill:none;stroke:#000000;stroke-width:1;stroke-miterlimit:4;stroke-dasharray:none;marker:none;visibility:visible;display:inline;overflow:visible;enable-background:accumulate;font-family:Sans;-inkscape-font-specification:Sans"
       id="path3698" />
  </g>
  <g
     style="display:inline"
     inkscape:label="VOGEL-002"
     id="g3680"
     inkscape:groupmode="layer">
    <path
       style="color:#000000;fill:#ffffff;stroke:none;stroke-width:1;marker:none;visibility:visible;display:inline;overflow:visible;enable-background:accumulate"
       d="m 214.20244,146.79955 c 0,-11.69883 9.5291,-21.11702 21.3657,-21.11702 l 0,0 0,0 c 11.8366,0 21.3656,9.41819 21.3656,21.11702 l 0,98.98608 c 0,13.1244 -42.7313,13.79378 -42.7313,0 l 0,0 0,0 c 0,-32.99536 0,-65.99072 0,-98.98608 z"
       id="path3682"
       inkscape:connector-curvature="0"
       sodipodi:nodetypes="ccccsscccc" />
    <path
       style="color:#000000;fill:none;stroke:#ff0000;stroke-width:1;stroke-linecap:square;stroke-linejoin:bevel;stroke-miterlimit:4;stroke-opacity:1;stroke-dashoffset:3;marker:none;visibility:visible;display:inline;overflow:visible;enable-background:accumulate"
       d="m 214.20244,154.42578 0,-7.62623 c 0,-11.69883 9.5291,-21.11702 21.3657,-21.11702 l 0,0 0,0 c 11.8366,0 21.3656,9.41819 21.3656,21.11702 l 0,98.98608 c 0,13.1244 -42.7313,13.79378 -42.7313,0 l 0,0 0,0 0,-72.13538"
       id="path3684"
       inkscape:connector-curvature="0"
       sodipodi:nodetypes="cscccsscccc" />
    <path
       id="path3688"
       d="m 242.9718,152.01004 c 0,2.72846 -2.21185,4.94031 -4.94031,4.94031 -2.72846,0 -4.94031,-2.21185 -4.94031,-4.94031 0,-2.72847 2.21185,-4.94032 4.94031,-4.94032 2.72846,0 4.94031,2.21185 4.94031,4.94032 z"
       style="color:#000000;fill:none;stroke:#ff0000;stroke-width:1;stroke-linecap:butt;stroke-linejoin:miter;stroke-miterlimit:4;stroke-opacity:1;stroke-dashoffset:3;marker:none;visibility:visible;display:inline;overflow:visible;enable-background:accumulate"
       inkscape:connector-curvature="0" />
    <path
       id="path3690"
       d="m 240.50716,152.01004 c 0,1.36728 -1.10839,2.47567 -2.47567,2.47567 -1.36728,0 -2.47568,-1.10839 -2.47568,-2.47567 0,-1.36728 1.1084,-2.47568 2.47568,-2.47568 1.36728,0 2.47567,1.1084 2.47567,2.47568 z"
       style="color:#000000;fill:none;stroke:#ff0000;stroke-width:1;stroke-linecap:butt;stroke-linejoin:miter;stroke-miterlimit:4;stroke-opacity:1;stroke-dashoffset:3;marker:none;visibility:visible;display:inline;overflow:visible;enable-background:accumulate"
       inkscape:connector-curvature="0" />
    <path
       style="color:#000000;fill:#ffffff;stroke:none;stroke-width:0.99999994;marker:none;visibility:visible;display:inline;overflow:visible;enable-background:accumulate"
       d="m 220.51424,175.70433 -6.2803,-2.27866 -26.1055,-9.47183 26.0941,-9.46767 6.2917,-2.28282 z"
       id="path3692-8"
       inkscape:connector-curvature="0"
       sodipodi:nodetypes="cccccc" />
    <path
       style="color:#000000;fill:none;stroke:#ff0000;stroke-width:0.99999994;stroke-linecap:square;stroke-linejoin:bevel;stroke-miterlimit:4;stroke-opacity:1;stroke-dashoffset:3;marker:none;visibility:visible;display:inline;overflow:visible;enable-background:accumulate"
       d="m 220.51424,175.70433 -6.2803,-2.27866 -26.1055,-9.47183 26.0941,-9.46767 6.2917,-2.28282"
       id="path3692"
       inkscape:connector-curvature="0"
       sodipodi:nodetypes="ccccc" />
    <path
       style="fill:none;stroke:#ff0000;stroke-width:1px;stroke-linecap:butt;stroke-linejoin:miter;stroke-opacity:1;display:inline"
       d="m 183.30374,163.7433 c -21.27239,0 -12.08686,-19.38539 -23.26042,-19.38539 -11.35637,0 -5.89702,34.94531 -17.23958,34.38539 -11.73099,-0.5791 -4.04923,-37 -13.75,-37 -9.70077,0 -0.61914,22 -20.74999,22"
       id="path3694"
       inkscape:connector-curvature="0"
       sodipodi:nodetypes="csszc" />
  </g>
</svg>
