<?xml version="1.0" encoding="UTF-8" standalone="no"?>
<!-- Created with Inkscape (http://www.inkscape.org/) -->
<svg
   xmlns:dc="http://purl.org/dc/elements/1.1/"
   xmlns:cc="http://creativecommons.org/ns#"
   xmlns:rdf="http://www.w3.org/1999/02/22-rdf-syntax-ns#"
   xmlns:svg="http://www.w3.org/2000/svg"
   xmlns="http://www.w3.org/2000/svg"
   xmlns:sodipodi="http://sodipodi.sourceforge.net/DTD/sodipodi-0.dtd"
   xmlns:inkscape="http://www.inkscape.org/namespaces/inkscape"
   width="400"
   height="400"
   id="svg2902"
   version="1.1"
   inkscape:version="0.48.3.1 r9886"
   sodipodi:docname="A0BA3E83A997A4CEB_SW_00_SW_00_.svg"
   style="display:inline">
  
  <g
     inkscape:groupmode="layer"
     id="g3663"
     inkscape:label="KONNEKTOR-001"
     style="display:inline"
     sodipodi:insensitive="true">
    <path
       id="S-bottom-2-3-6"
       style="fill:#ffffff;stroke:none;display:inline"
       d="m 190,369.5 0,-339 20,0 0,339 z"
       inkscape:connector-curvature="0"
       sodipodi:nodetypes="ccccc" />
    <path
       id="S-bottom-2-3"
       style="fill:none;stroke:#000000;stroke-width:1.00000036px;stroke-linecap:square;stroke-linejoin:miter;stroke-opacity:1;display:inline"
       d="m 190,369.5 0,-339 m 20,0 0,339"
       inkscape:connector-curvature="0"
       sodipodi:nodetypes="cccc" />
  </g>
  <g
     style="display:inline"
     inkscape:label="TUBE-001"
     id="element"
     inkscape:groupmode="layer"
     sodipodi:insensitive="true">
    <path
       id="rect7511-6-1-4-7-7-8"
       style="font-size:medium;font-style:normal;font-variant:normal;font-weight:normal;font-stretch:normal;text-indent:0;text-align:start;text-decoration:none;line-height:normal;letter-spacing:normal;word-spacing:normal;text-transform:none;direction:ltr;block-progression:tb;writing-mode:lr-tb;text-anchor:start;baseline-shift:baseline;color:#000000;fill:#ffffff;stroke:none;stroke-width:1;marker:none;visibility:visible;display:inline;overflow:visible;enable-background:accumulate;font-family:Sans;-inkscape-font-specification:Sans"
       d="m 147.32754,131.18823 0,170.78125 c 0,3.70625 2.5464,6.15625 5.8125,6.15625 l 48.2187,0 0,20 -48.2187,0 c -14.2441,0 -25.8125,-11.95448 -25.8125,-26.15625 l 0,-170.78125 z"
       inkscape:connector-curvature="0"
       sodipodi:nodetypes="cssccsscc" />
    <path
       id="rect7511-6-1-4-7-7"
       style="font-size:medium;font-style:normal;font-variant:normal;font-weight:normal;font-stretch:normal;text-indent:0;text-align:start;text-decoration:none;line-height:normal;letter-spacing:normal;word-spacing:normal;text-transform:none;direction:ltr;block-progression:tb;writing-mode:lr-tb;text-anchor:start;baseline-shift:baseline;color:#000000;fill:none;stroke:#ff00ff;stroke-width:1;stroke-miterlimit:4;stroke-dasharray:none;marker:none;visibility:visible;display:inline;overflow:visible;enable-background:accumulate;font-family:Sans;-inkscape-font-specification:Sans"
       d="m 201.35874,328.12573 -48.2187,0 c -14.2441,0 -25.8125,-11.95448 -25.8125,-26.15625 l 0,-170.78125 m 74.0312,176.9375 -48.2187,0 c -3.2661,0 -5.8125,-2.45 -5.8125,-6.15625 l 0,-170.78125"
       inkscape:connector-curvature="0"
       sodipodi:nodetypes="cssccssc" />
  </g>
  <g
     style="display:inline"
     inkscape:label="VOGEL-003"
     id="g3700"
     inkscape:groupmode="layer">
    <path
       style="color:#000000;fill:#ffffff;stroke:none;stroke-width:1;marker:none;visibility:visible;display:inline;overflow:visible;enable-background:accumulate"
       d="m 170.29553,64.416762 c 0,-17.663995 -14.3817,-31.884464 -32.24597,-31.884464 l 0,0 0,0 c -17.86427,0 -32.24582,14.220469 -32.24582,31.884464 l 0,113.221038 c 0,19.81646 64.49179,20.82715 64.49179,0 l 0,0 0,0 c 0,-49.8195 0,-63.40154 0,-113.221038 z"
       id="path3702"
       inkscape:connector-curvature="0"
       sodipodi:nodetypes="ccccsscccc" />
    <path
       style="color:#000000;fill:none;stroke:#ff0000;stroke-width:1;stroke-linecap:square;stroke-linejoin:bevel;stroke-miterlimit:4;stroke-opacity:1;stroke-dashoffset:3;marker:none;visibility:visible;display:inline;overflow:visible;enable-background:accumulate"
       d="m 170.29554,75.931561 0,-11.514799 c 0,-17.663995 -14.3817,-31.884464 -32.24597,-31.884464 l 0,0 0,0 c -17.86428,0 -32.24582,14.220469 -32.24582,31.884464 l 0,113.221038 c 0,19.81646 64.49179,20.82715 64.49179,0 l 0,0 0,0 0,-72.67933"
       id="path3704"
       inkscape:connector-curvature="0"
       sodipodi:nodetypes="cscccsscccc" />
    <path
       id="path3708"
       d="m 121.19184,72.28405 c 0,7.260129 5.88295,13.145636 13.13994,13.145636 7.257,0 13.13994,-5.885507 13.13994,-13.145636 0,-7.260145 -5.88294,-13.145652 -13.13994,-13.145652 -7.25699,0 -13.13994,5.885507 -13.13994,13.145652 z"
       style="color:#000000;fill:none;stroke:#ff0000;stroke-width:1;stroke-linecap:butt;stroke-linejoin:miter;stroke-miterlimit:4;stroke-opacity:1;stroke-dashoffset:3;marker:none;visibility:visible;display:inline;overflow:visible;enable-background:accumulate"
       inkscape:connector-curvature="0" />
    <path
       id="path3710"
       d="m 127.74713,72.28405 c 0,3.63818 2.94804,6.587502 6.58465,6.587502 3.6366,0 6.58465,-2.949322 6.58465,-6.587502 0,-3.638196 -2.94805,-6.587517 -6.58465,-6.587517 -3.63661,0 -6.58465,2.949321 -6.58465,6.587517 z"
       style="color:#000000;fill:none;stroke:#ff0000;stroke-width:1;stroke-linecap:butt;stroke-linejoin:miter;stroke-miterlimit:4;stroke-opacity:1;stroke-dashoffset:3;marker:none;visibility:visible;display:inline;overflow:visible;enable-background:accumulate"
       inkscape:connector-curvature="0" />
    <path
       style="color:#000000;fill:#ffffff;stroke:none;stroke-width:0.99999994;marker:none;visibility:visible;display:inline;overflow:visible;enable-background:accumulate"
       d="m 160.76951,108.05992 9.47848,-3.44054 39.39946,-14.301457 -39.38226,-14.295179 -9.49568,-3.446817 z"
       id="path3712-4"
       inkscape:connector-curvature="0"
       sodipodi:nodetypes="cccccc" />
    <path
       style="color:#000000;fill:none;stroke:#ff0000;stroke-width:0.99999994;stroke-linecap:square;stroke-linejoin:bevel;stroke-miterlimit:4;stroke-opacity:1;stroke-dashoffset:3;marker:none;visibility:visible;display:inline;overflow:visible;enable-background:accumulate"
       d="M 160.76952,108.05992 170.248,104.61938 209.64746,90.317923 170.2652,76.022744 160.76952,72.575927"
       id="path3712"
       inkscape:connector-curvature="0"
       sodipodi:nodetypes="ccccc" />
    <path
       style="fill:none;stroke:#ff0000;stroke-width:1px;stroke-linecap:butt;stroke-linejoin:miter;stroke-opacity:1;display:inline"
       d="m 216.92909,90.00003 c 30.8973,0 22.55773,-39.325283 40.37218,-36.237459 23.67723,4.104044 10.30652,63.166719 34.33521,63.415549"
       id="path3714"
       inkscape:connector-curvature="0"
       sodipodi:nodetypes="cac"
       zpos="2500" />
  </g>
</svg>
