<?xml version="1.0" encoding="UTF-8" standalone="no"?>
<!-- Created with Inkscape (http://www.inkscape.org/) -->
<svg
   xmlns:dc="http://purl.org/dc/elements/1.1/"
   xmlns:cc="http://creativecommons.org/ns#"
   xmlns:rdf="http://www.w3.org/1999/02/22-rdf-syntax-ns#"
   xmlns:svg="http://www.w3.org/2000/svg"
   xmlns="http://www.w3.org/2000/svg"
   xmlns:sodipodi="http://sodipodi.sourceforge.net/DTD/sodipodi-0.dtd"
   xmlns:inkscape="http://www.inkscape.org/namespaces/inkscape"
   style="display:inline"
   sodipodi:docname="A49C091A526373-R+_00_SW_00_SW_.svg"
   inkscape:version="0.48.3.1 r9886"
   version="1.1"
   id="svg2902"
   height="400"
   width="400">
  
  <g
     inkscape:groupmode="layer"
     id="dstll003"
     inkscape:label="DESTILLE-003"
     style="display:inline">
    <path
       sodipodi:nodetypes="ccccsccsccssssccccccccssssccsccsccccc"
       d="m 30,210 39.515625,0 c 17.888914,0 32.906255,-13.12695 32.906255,-32.84375 l 0,-29.71875 c 0,-7.93805 4.8786,-13.10874 12.9375,-12.84375 8.0589,0.265 12.9375,5.26803 12.9375,12.84375 l 0,19.15625 c 0,20.44196 14.79823,32.84375 32.9375,32.84375 18.13926,0 32.9375,-17.73539 32.9375,-32.84375 l 0,-31.15625 c 0,-10.04287 4.25209,-16.79235 12.9375,-16.84375 8.6854,-0.0514 12.70918,5.75759 12.9375,16.84375 0.22832,11.08616 0,72.40452 0,87.15625 0,14.75172 14.37704,32.84375 32.9375,32.84375 18.56046,0 32.9375,-17.7004 32.9375,-32.84375 l 0,-52.9375 c 0,-19.72014 -14.216,-32.84375 -32.9375,-32.84375 l -12.98638,0 0,20 12.98638,0 c 8.6428,0 12.9375,4.70225 12.9375,12.84375 l 0,52.9375 c 0,10.16801 -4.52063,12.84375 -12.9375,12.84375 -8.41687,0 -12.9375,-3.12544 -12.9375,-12.84375 0,-9.71832 0.10574,-67.6386 0,-87.15625 -0.12488,-23.04919 -16.59363,-34.4981 -33.03116,-34.46026 -16.43753,0.0378 -32.84384,11.56244 -32.84384,34.46026 l 0,31.15625 c 0,10.20301 -5.09782,13.1093 -12.9375,12.84375 -7.83968,-0.26555 -12.9375,-5.65248 -12.9375,-12.84375 l 0,-19.15625 c 0,-17.74715 -14.94796,-31.89425 -32.9375,-32.84375 -17.989543,-0.9495 -32.937505,13.47654 -32.937505,32.84375 l 0,29.71875 C 82.421875,184.27361 79.05894,190 69.515625,190 L 30,190 z"
       style="font-size:medium;font-style:normal;font-variant:normal;font-weight:normal;font-stretch:normal;text-indent:0;text-align:start;text-decoration:none;line-height:normal;letter-spacing:normal;word-spacing:normal;text-transform:none;direction:ltr;block-progression:tb;writing-mode:lr-tb;text-anchor:start;color:#000000;fill:#ffffff;stroke:none;stroke-width:1;marker:none;visibility:visible;display:inline;overflow:visible;enable-background:accumulate;font-family:Bitstream Vera Sans;-inkscape-font-specification:Bitstream Vera Sans"
       id="path3469-4"
       inkscape:connector-curvature="0" />
    <path
       sodipodi:nodetypes="ccccssssccsccsccccccccssssccsccscccc"
       d="m 240.48431,136.8125 12.50007,0 c 18.7215,0 32.9375,13.12361 32.9375,32.84375 l 0,52.9375 c 0,15.14335 -14.37704,32.84375 -32.9375,32.84375 -18.56046,0 -32.9375,-18.09203 -32.9375,-32.84375 0,-14.75173 0.22832,-76.07009 0,-87.15625 -0.22832,-11.08616 -4.2521,-16.89516 -12.9375,-16.84375 -8.68541,0.0514 -12.9375,6.80088 -12.9375,16.84375 l 0,31.15625 c 0,15.10836 -14.79824,32.84375 -32.9375,32.84375 -18.13927,0 -32.9375,-12.40179 -32.9375,-32.84375 l 0,-19.15625 c 0,-7.57572 -4.8786,-12.57875 -12.9375,-12.84375 -8.0589,-0.26499 -12.9375,4.9057 -12.9375,12.84375 l 0,29.71875 C 102.42188,196.87305 87.404539,210 69.515625,210 L 30,210 m 209.99818,-53.1875 12.9862,0 c 8.6428,0 12.9375,4.70225 12.9375,12.84375 l 0,52.9375 c 0,10.16801 -4.52063,12.84375 -12.9375,12.84375 -8.41687,0 -12.9375,-3.12544 -12.9375,-12.84375 0,-9.71832 0.10574,-67.6386 0,-87.15625 -0.12488,-23.04919 -16.59363,-34.4981 -33.03116,-34.46026 -16.43753,0.0378 -32.84384,11.56244 -32.84384,34.46026 l 0,31.15625 c 0,10.20301 -5.09782,13.1093 -12.9375,12.84375 -7.83968,-0.26555 -12.9375,-5.65248 -12.9375,-12.84375 l 0,-19.15625 c 0,-17.74715 -14.94796,-31.89425 -32.9375,-32.84375 -17.989543,-0.9495 -32.937505,13.47654 -32.937505,32.84375 l 0,29.71875 C 82.421875,184.27361 79.05894,190 69.515625,190 L 30,190"
       style="font-size:medium;font-style:normal;font-variant:normal;font-weight:normal;font-stretch:normal;text-indent:0;text-align:start;text-decoration:none;line-height:normal;letter-spacing:normal;word-spacing:normal;text-transform:none;direction:ltr;block-progression:tb;writing-mode:lr-tb;text-anchor:start;color:#000000;fill:none;stroke:#000000;stroke-width:1;stroke-miterlimit:4;stroke-dasharray:none;marker:none;visibility:visible;display:inline;overflow:visible;enable-background:accumulate;font-family:Bitstream Vera Sans;-inkscape-font-specification:Bitstream Vera Sans"
       id="path3469"
       inkscape:connector-curvature="0" />
  </g>
  <g
     style="display:inline"
     inkscape:label="OUT-001"
     id="t001"
     inkscape:groupmode="layer">
    <path
       id="right-bottom-7-9"
       style="fill:#ffffff;stroke:none;display:inline"
       d="m 370,210 0,-20 -98.50024,0 0,20 z"
       sodipodi:nodetypes="ccccc"
       inkscape:connector-curvature="0" />
    <path
       id="right-bottom-7"
       style="fill:none;stroke:#000000;stroke-width:1.00000036px;stroke-linecap:square;stroke-linejoin:miter;stroke-opacity:1;display:inline"
       d="m 369.5,210 -98.00024,0 M 369.5,190 l -98.00024,0"
       sodipodi:nodetypes="cccc"
       inkscape:connector-curvature="0" />
    <path
       style="color:#000000;fill:none;stroke:#ff00ff;stroke-width:0.99999994;marker:none;visibility:visible;display:inline;overflow:visible;enable-background:accumulate"
       d="m 282.01965,210.48786 c -0.2655,6.15166 -3.30707,10.11957 -5.36839,10.03322 -3.70531,-0.15522 -6.71493,-9.19184 -6.71493,-20.53056 0,-11.33871 3.00637,-20.53057 6.71493,-20.53057 2.75138,0 4.83154,5.568 5.11266,10.1751"
       id="path3410"
       sodipodi:nodetypes="cssss"
       inkscape:connector-curvature="0" />
  </g>
</svg>
