<?xml version="1.0" encoding="UTF-8" standalone="no"?>
<!-- Created with Inkscape (http://www.inkscape.org/) -->
<svg
   xmlns:dc="http://purl.org/dc/elements/1.1/"
   xmlns:cc="http://creativecommons.org/ns#"
   xmlns:rdf="http://www.w3.org/1999/02/22-rdf-syntax-ns#"
   xmlns:svg="http://www.w3.org/2000/svg"
   xmlns="http://www.w3.org/2000/svg"
   xmlns:sodipodi="http://sodipodi.sourceforge.net/DTD/sodipodi-0.dtd"
   xmlns:inkscape="http://www.inkscape.org/namespaces/inkscape"
   style="display:inline"
   sodipodi:docname="A5E6575FCEFA95-R+_00_SW_SW_00_.svg"
   inkscape:version="0.48.3.1 r9886"
   version="1.1"
   id="svg2902"
   height="400"
   width="400">
  
  <g
     inkscape:groupmode="layer"
     id="layer3"
     inkscape:label="ALONG-001"
     zpos="-3000"
     style="display:inline">
    <path
       style="fill:#000000;stroke:none;display:inline"
       d="m 233.73265,393.89731 c -8.25382,8.37712 -16.50759,16.76369 -24.76132,25.15968 -0.15698,-16.49917 -0.31396,-32.99834 -0.47094,-49.49751 -2.1e-4,-0.18303 -2.7e-4,-0.36609 -1.7e-4,-0.54918 0.17599,0.18255 0.35213,0.36477 0.52841,0.54667 8.23472,8.12248 16.46939,16.23593 24.70402,24.34034 z m 0.83052,-48.77015 c -9.02133,7.0974 -17.72484,15.1926 -26.06296,23.88314 0.008,-15.75119 1.16519,-31.72329 4.16733,-47.58876 0.30023,-1.59007 0.62119,-3.1796 0.96373,-4.76763 1.1419,1.90932 2.31312,3.78242 3.50984,5.62088 5.37081,8.25317 11.22914,15.81713 17.42206,22.85237 z m 10.05886,-45.19634 c -10.51563,3.99871 -20.96174,9.76949 -30.99077,16.72309 2.49853,-11.58343 6.14513,-23.08642 11.27301,-34.12607 2.60175,-5.5883 5.60623,-11.01685 9.01096,-16.21362 1.27567,8.25895 3.41143,16.05648 6.19372,23.31311 1.36091,3.55644 2.87276,6.98783 4.51308,10.30349 z m 24.30787,-36.8425 c -4.02269,-0.36371 -8.14804,-0.47209 -12.35508,-0.29657 -7.37525,0.30522 -14.99062,1.49774 -22.6596,3.52246 3.22948,-4.9293 6.81907,-9.65006 10.76664,-14.10084 7.65951,-8.59455 16.51237,-15.98889 26.14282,-22.04895 0,0 10e-6,0 10e-6,0 1.02826,-0.63997 2.06259,-1.26533 3.10264,-1.87641 -0.48189,1.55264 -0.93215,3.10565 -1.34945,4.65829 -2.75572,10.2865 -3.9733,20.4952 -3.64798,30.14202 z m 38.22653,-22.97576 c -10.09419,-5.16923 -21.07815,-9.31194 -33.2291,-11.82456 15.81467,-9.29187 32.95157,-15.28195 50.18395,-19.1184 -6.79359,10.07268 -12.63985,20.4925 -16.95485,30.94296 z m 45.9054,-10.55699 c -4.85725,-3.92027 -9.88002,-7.72449 -15.1074,-11.38836 -4.44247,-3.11418 -9.04789,-6.13288 -13.84315,-8.99762 3.95802,-0.88117 7.92107,-1.64873 11.87429,-2.31658 13.22536,-2.28184 26.46889,-3.6496 39.6524,-4.43079 -8.06964,8.82784 -15.69172,17.86383 -22.57614,27.13335 z m 48.46337,-2.98762 c -8.29581,-8.23219 -16.84245,-16.33202 -25.88723,-24.14574 12.02376,-0.71248 23.99758,-0.93706 35.86213,-0.92221 4.95748,0 9.91497,0 14.87245,0 -4.95748,4.95748 -9.91497,9.91496 -14.87245,14.87244 -3.36735,3.37666 -6.69874,6.77461 -9.9749,10.19551 z m 49.84735,-0.068 c -8.33333,-8.33333 -16.66667,-16.66667 -25,-25 16.66667,0 33.33333,10e-6 50,10e-6 -8.33333,8.33333 -16.66667,16.66666 -25,24.99999 z"
       id="path3849-9-2-15"
       inkscape:connector-curvature="0" />
  </g>
  <g
     style="display:inline"
     inkscape:label="ELEMENT-001"
     id="g3030"
     inkscape:groupmode="layer">
    <path
       d="m 359.5,190 c -37.96668,0 -79.95137,12.68771 -112.96875,40.40625 C 213.51387,258.12479 190,301.28185 190,359.5 l 0,10 20,0 0,-10 c 0,-52.93541 20.52889,-89.5383 49.40625,-113.78125 C 288.28361,221.4758 326.04613,210 359.5,210 l 10,0 0,-20 -10,0 z"
       id="path3036-6"
       inkscape:connector-curvature="0"
       style="fill:#ffffff" />
    <path
       inkscape:connector-curvature="0"
       d="m 369.5,210 -10.00024,0 M 369.5,190 l -10.00024,0"
       style="fill:none;stroke:#000000;stroke-width:1.00000036px;stroke-linecap:square;stroke-linejoin:miter;stroke-opacity:1;display:inline"
       id="path3032" />
    <path
       inkscape:connector-curvature="0"
       d="m 190,369.5 0,-10.00024 m 20,10.00024 0,-10.00024"
       style="fill:none;stroke:#000000;stroke-width:1.00000036px;stroke-linecap:square;stroke-linejoin:miter;stroke-opacity:1;display:inline"
       id="path3034" />
    <path
       d="m 210,369.5 0,-10 c 0,-52.93541 20.52889,-89.5383 49.40625,-113.78125 C 288.28361,221.4758 326.04613,210 359.5,210 l 10,0 m 0,-20 -10,0 c -37.96668,0 -79.95137,12.68771 -112.96875,40.40625 C 213.51387,258.12479 190,301.28185 190,359.5 l 0,10"
       id="path3036"
       inkscape:connector-curvature="0"
       sodipodi:nodetypes="csssccsssc"
       style="fill:none;stroke:#000000;stroke-width:1;stroke-miterlimit:4;stroke-dasharray:none" />
  </g>
  <g
     inkscape:label="ALONG-001"
     id="g4732"
     inkscape:groupmode="layer"
     style="display:inline"
     zpos="3000">
    <path
       style="fill:#ffffff;stroke:none;display:inline"
       d="m 228.73265,392.89731 c -8.25382,8.37712 -16.50759,16.76369 -24.76132,25.15968 -0.15698,-16.49917 -0.31396,-32.99834 -0.47094,-49.49751 -2.1e-4,-0.18303 -2.7e-4,-0.36609 -1.7e-4,-0.54918 0.17599,0.18255 0.35213,0.36477 0.52841,0.54667 8.23472,8.12248 16.46939,16.23593 24.70402,24.34034 z"
       id="path4752"
       inkscape:connector-curvature="0" />
    <path
       style="fill:#ffffff;stroke:none;display:inline"
       d="m 229.56317,344.12716 c -9.02133,7.0974 -17.72484,15.1926 -26.06296,23.88314 0.008,-15.75119 1.16519,-31.72329 4.16733,-47.58876 0.30023,-1.59007 0.62119,-3.1796 0.96373,-4.76763 1.1419,1.90932 2.31312,3.78242 3.50984,5.62088 5.37081,8.25317 11.22914,15.81713 17.42206,22.85237 z"
       id="path4750"
       inkscape:connector-curvature="0" />
    <path
       style="fill:#ffffff;stroke:none;display:inline"
       d="m 239.62203,298.93082 c -10.51563,3.99871 -20.96174,9.76949 -30.99077,16.72309 2.49853,-11.58343 6.14513,-23.08642 11.27301,-34.12607 2.60175,-5.5883 5.60623,-11.01685 9.01096,-16.21362 1.27567,8.25895 3.41143,16.05648 6.19372,23.31311 1.36091,3.55644 2.87276,6.98783 4.51308,10.30349 z"
       id="path4748"
       inkscape:connector-curvature="0" />
    <path
       style="fill:#ffffff;stroke:none;display:inline"
       d="m 263.9299,262.08832 c -4.02269,-0.36371 -8.14804,-0.47209 -12.35508,-0.29657 -7.37525,0.30522 -14.99062,1.49774 -22.6596,3.52246 3.22948,-4.9293 6.81907,-9.65006 10.76664,-14.10084 7.65951,-8.59455 16.51237,-15.98889 26.14282,-22.04895 0,0 10e-6,0 10e-6,0 1.02826,-0.63997 2.06259,-1.26533 3.10264,-1.87641 -0.48189,1.55264 -0.93215,3.10565 -1.34945,4.65829 -2.75572,10.2865 -3.9733,20.4952 -3.64798,30.14202 z"
       id="path4746"
       inkscape:connector-curvature="0" />
    <path
       style="fill:#ffffff;stroke:none;display:inline"
       d="m 302.15643,239.11256 c -10.09419,-5.16923 -21.07815,-9.31194 -33.2291,-11.82456 15.81467,-9.29187 32.95157,-15.28195 50.18395,-19.1184 -6.79359,10.07268 -12.63985,20.4925 -16.95485,30.94296 z"
       id="path4744"
       inkscape:connector-curvature="0" />
    <path
       style="fill:#ffffff;stroke:none;display:inline"
       d="m 348.06183,228.55557 c -4.85725,-3.92027 -9.88002,-7.72449 -15.1074,-11.38836 -4.44247,-3.11418 -9.04789,-6.13288 -13.84315,-8.99762 3.95802,-0.88117 7.92107,-1.64873 11.87429,-2.31658 13.22536,-2.28184 26.46889,-3.6496 39.6524,-4.43079 -8.06964,8.82784 -15.69172,17.86383 -22.57614,27.13335 z"
       id="path4742"
       inkscape:connector-curvature="0" />
    <path
       style="fill:#ffffff;stroke:none;display:inline"
       d="m 396.5252,225.56795 c -8.29581,-8.23219 -16.84245,-16.33202 -25.88723,-24.14574 12.02376,-0.71248 23.99758,-0.93706 35.86213,-0.92221 4.95748,0 9.91497,0 14.87245,0 -4.95748,4.95748 -9.91497,9.91496 -14.87245,14.87244 -3.36735,3.37666 -6.69874,6.77461 -9.9749,10.19551 z"
       id="path4740"
       inkscape:connector-curvature="0" />
    <path
       style="fill:#ffffff;stroke:none;display:inline"
       d="m 446.37255,225.49995 c -8.33333,-8.33333 -16.66667,-16.66667 -25,-25 16.66667,0 33.33333,10e-6 50,10e-6 -8.33333,8.33333 -16.66667,16.66666 -25,24.99999 z"
       id="path4734"
       inkscape:connector-curvature="0" />
    <path
       sodipodi:nodetypes="ccccccccccccccccccccccc"
       inkscape:connector-curvature="0"
       d="m 471.37255,200.49996 c -8.33333,8.33333 -16.66667,16.66666 -25,24.99999 -8.33333,-8.33333 -25,-24.99998 -25,-24.99998 0,0 -9.91497,9.91499 -14.87245,14.87247 -3.36735,3.37666 -6.69874,6.77461 -9.9749,10.19551 -8.29581,-8.23219 -16.84245,-16.33202 -25.88723,-24.14574 -8.06964,8.82785 -15.69172,17.86384 -22.57614,27.13336 -4.85725,-3.92027 -9.88002,-7.72449 -15.1074,-11.38836 -4.44247,-3.11418 -9.04789,-6.13288 -13.84315,-8.99761 -6.79359,10.07268 -12.63985,20.4925 -16.95485,30.94296 -10.09419,-5.16923 -21.07815,-9.31194 -33.2291,-11.82456 -0.48189,1.55265 -0.93215,3.10566 -1.34945,4.6583 -2.75572,10.2865 -3.9733,20.4952 -3.64798,30.14202 -4.02269,-0.36371 -8.14804,-0.47209 -12.35508,-0.29657 -7.37525,0.30522 -14.99062,1.49774 -22.6596,3.52247 1.27568,8.25895 3.41144,16.05648 6.19373,23.31311 1.36091,3.55644 2.87276,6.98783 4.51308,10.30349 -10.51563,3.99871 -20.96174,9.76949 -30.99077,16.72309 1.14191,1.90932 2.31313,3.78242 3.50985,5.62088 5.37081,8.25317 11.22914,15.81713 17.42206,22.85237 -9.02133,7.0974 -17.72484,15.1926 -25.79875,24.15648 8.49893,8.39581 16.7336,16.50926 24.96823,24.61367 -8.25382,8.37712 -16.50759,16.76369 -24.76132,25.15968"
       style="fill:none;stroke:#666666;stroke-width:1;stroke-linecap:round;stroke-miterlimit:4;stroke-dasharray:none;display:inline"
       id="path4736" />
  </g>
</svg>
