<?xml version="1.0" encoding="UTF-8" standalone="no"?>
<!-- Created with Inkscape (http://www.inkscape.org/) -->
<svg
   xmlns:dc="http://purl.org/dc/elements/1.1/"
   xmlns:cc="http://creativecommons.org/ns#"
   xmlns:rdf="http://www.w3.org/1999/02/22-rdf-syntax-ns#"
   xmlns:svg="http://www.w3.org/2000/svg"
   xmlns="http://www.w3.org/2000/svg"
   xmlns:sodipodi="http://sodipodi.sourceforge.net/DTD/sodipodi-0.dtd"
   xmlns:inkscape="http://www.inkscape.org/namespaces/inkscape"
   style="display:inline"
   sodipodi:docname="B111BBB04339F7-R+_SW_II_00_II_.svg"
   inkscape:version="0.48.3.1 r9886"
   version="1.1"
   id="svg2902"
   height="400"
   width="400">
  
  <g
     style="display:inline"
     inkscape:label="TABLE-001"
     id="element"
     inkscape:groupmode="layer">
    <path
       style="fill:#ffffff;stroke:none;stroke-width:1.00000036000000003px;stroke-linecap:square;stroke-linejoin:miter;stroke-opacity:1;display:inline"
       d="M 52 26.5 L 52 199.40625 L 189.90625 199.40625 L 210.34375 199.40625 L 300 199.40625 L 300 58.5 L 300 26.5 L 210.34375 26.5 L 210.34375 58.5 L 189.90625 58.5 L 189.90625 26.5 L 52 26.5 z "
       id="path5460-9" />
    <path
       style="fill:none;stroke:#ff0000;stroke-width:1.00000036px;stroke-linecap:square;stroke-linejoin:miter;stroke-opacity:1;display:inline"
       d="M 210.34924,26.5 300,26.5 300,199.40916"
       id="path5460"
       sodipodi:nodetypes="ccc"
       inkscape:connector-curvature="0" />
    <path
       style="fill:none;stroke:#ff0000;stroke-width:1.00000036px;stroke-linecap:square;stroke-linejoin:miter;stroke-opacity:1;display:inline"
       d="M 52,199.40916 52,26.5 l 137.91082,0"
       id="T-top-2-7"
       sodipodi:nodetypes="ccc"
       inkscape:connector-curvature="0" />
    <path
       id="S-top-2-2"
       style="fill:none;stroke:#000000;stroke-width:1.00000036px;stroke-linecap:square;stroke-linejoin:miter;stroke-opacity:1;display:inline"
       d="m 210,26.5 0,31.453896 M 190,26.5 l 0,31.453896"
       sodipodi:nodetypes="cccc"
       inkscape:connector-curvature="0" />
    <path
       id="I-left-1-4"
       style="fill:none;stroke:#000000;stroke-width:1.00000036px;stroke-linecap:square;stroke-linejoin:miter;stroke-opacity:1;display:inline"
       d="M 369.5,200 359.49976,200 40.50024,200 30.5,200"
       sodipodi:nodetypes="cccc"
       inkscape:connector-curvature="0" />
  </g>
  <g
     inkscape:groupmode="layer"
     id="g3407"
     inkscape:label="LAPTOP-001"
     style="display:inline"
     sodipodi:insensitive="true">
    <path
       style="fill:#ffffff;stroke:#ffffff;stroke-width:1;display:inline"
       d="m 91.424079,217.07397 0,-183.851529 70.176161,25.222154 0,133.407225 -70.176161,25.22215 z"
       id="path3411-8"
       sodipodi:nodetypes="ccccc"
       inkscape:connector-curvature="0" />
    <path
       style="fill:#ffffff;stroke:none;display:inline"
       d="m 165.73348,191.84171 90.86396,0.0633 7.0315,-2.52221 0,-128.399102 -7.0315,-2.522216 -90.86396,-0.02699 0,133.407208 z"
       id="path3415-4"
       inkscape:connector-curvature="0" />
    <path
       style="fill:none;stroke:#ff0000;stroke-width:1;stroke-linecap:butt;stroke-linejoin:miter;stroke-miterlimit:4;stroke-opacity:1;display:inline"
       d="m 91.424079,217.07397 0,-183.851528 70.176161,25.222154 0,133.407224 -70.176161,25.22215 z"
       id="path3411"
       sodipodi:nodetypes="ccccc"
       inkscape:connector-curvature="0" />
    <path
       id="path3415"
       style="fill:none;stroke:#ff0000;stroke-width:1;stroke-linecap:butt;stroke-linejoin:miter;stroke-miterlimit:4;stroke-opacity:1;display:inline"
       d="m 256.60458,58.471546 -0.004,133.409144 m -90.8673,-0.039 90.86396,0.0633 7.0315,-2.52221 0,-128.399101 -7.0315,-2.522214 -90.86396,-0.02699 0,133.407215 z"
       sodipodi:nodetypes="ccccccccc"
       inkscape:connector-curvature="0" />
    <path
       style="fill:none;stroke:#ff0000;stroke-width:1;stroke-linecap:butt;stroke-linejoin:miter;stroke-miterlimit:4;stroke-opacity:1;display:inline"
       d="m 235.96637,140.05377 13.4596,0.0167 0,-29.79424 -13.4596,-0.008 0,29.78468 z"
       id="path3415-9-0"
       sodipodi:nodetypes="ccccc"
       inkscape:connector-curvature="0" />
    <path
       id="path3415-9-4"
       style="fill:none;stroke:#ff0000;stroke-width:1;stroke-linecap:butt;stroke-linejoin:miter;stroke-miterlimit:4;stroke-opacity:1;display:inline"
       d="m 228.85043,181.81616 -53.02712,-0.0633 0,-113.229493 53.02712,0.02699 0,113.265803 z"
       sodipodi:nodetypes="ccccc"
       inkscape:connector-curvature="0" />
    <path
       id="path5477"
       d="m 189.0801,68.530114 c 0,0 0,113.238566 0,113.238566"
       style="fill:none;stroke:#ff0000;stroke-width:1;stroke-linecap:butt;stroke-linejoin:miter;stroke-miterlimit:4;stroke-opacity:1;display:inline"
       inkscape:connector-curvature="0" />
    <path
       id="path5479"
       d="m 202.33687,181.78451 c 0,0 0,-113.247649 0,-113.247649"
       style="fill:none;stroke:#ff0000;stroke-width:1;stroke-linecap:butt;stroke-linejoin:miter;stroke-miterlimit:4;stroke-opacity:1;display:inline"
       inkscape:connector-curvature="0" />
    <path
       id="path5481"
       d="m 215.59365,68.543608 c 0,0 0,113.256732 0,113.256732"
       style="fill:none;stroke:#ff0000;stroke-width:1;stroke-linecap:butt;stroke-linejoin:miter;stroke-miterlimit:4;stroke-opacity:1;display:inline"
       inkscape:connector-curvature="0" />
    <path
       style="fill:none;stroke:#ff0000;stroke-width:1;stroke-linecap:butt;stroke-linejoin:miter;stroke-miterlimit:4;stroke-opacity:1;display:inline"
       d="m 175.82331,165.57719 c 0,0 53.02712,0.0581 53.02712,0.0581"
       id="path8002"
       inkscape:connector-curvature="0" />
    <path
       style="fill:none;stroke:#ff0000;stroke-width:1;stroke-linecap:butt;stroke-linejoin:miter;stroke-miterlimit:4;stroke-opacity:1;display:inline"
       d="m 228.85043,149.4545 c 0,0 -53.02712,-0.053 -53.02712,-0.053"
       id="path8004"
       inkscape:connector-curvature="0" />
    <path
       style="fill:none;stroke:#ff0000;stroke-width:1;stroke-linecap:butt;stroke-linejoin:miter;stroke-miterlimit:4;stroke-opacity:1;display:inline"
       d="m 175.82331,133.226 c 0,0 53.02712,0.0477 53.02712,0.0477"
       id="path8006"
       inkscape:connector-curvature="0" />
    <path
       style="fill:none;stroke:#ff0000;stroke-width:1;stroke-linecap:butt;stroke-linejoin:miter;stroke-miterlimit:4;stroke-opacity:1;display:inline"
       d="m 228.85043,117.09285 c 0,0 -53.02712,-0.0425 -53.02712,-0.0425"
       id="path8008"
       inkscape:connector-curvature="0" />
    <path
       style="fill:none;stroke:#ff0000;stroke-width:1;stroke-linecap:butt;stroke-linejoin:miter;stroke-miterlimit:4;stroke-opacity:1;display:inline"
       d="m 175.82331,100.87465 c 0,0 53.02712,0.0373 53.02712,0.0373"
       id="path8010"
       inkscape:connector-curvature="0" />
    <path
       style="fill:none;stroke:#ff0000;stroke-width:1;stroke-linecap:butt;stroke-linejoin:miter;stroke-miterlimit:4;stroke-opacity:1;display:inline"
       d="m 228.85043,84.73119 c 0,0 -53.02712,-0.0322 -53.02712,-0.0322"
       id="path8012"
       inkscape:connector-curvature="0" />
  </g>
</svg>
