<?xml version="1.0" encoding="UTF-8" standalone="no"?>
<!-- Created with Inkscape (http://www.inkscape.org/) -->
<svg
   xmlns:dc="http://purl.org/dc/elements/1.1/"
   xmlns:cc="http://creativecommons.org/ns#"
   xmlns:rdf="http://www.w3.org/1999/02/22-rdf-syntax-ns#"
   xmlns:svg="http://www.w3.org/2000/svg"
   xmlns="http://www.w3.org/2000/svg"
   xmlns:sodipodi="http://sodipodi.sourceforge.net/DTD/sodipodi-0.dtd"
   xmlns:inkscape="http://www.inkscape.org/namespaces/inkscape"
   style="display:inline"
   sodipodi:docname="B75B91AF14D615-R+_00_CW_00_SB_.svg"
   inkscape:version="0.48.3.1 r9886"
   version="1.1"
   id="svg2902"
   height="400"
   width="400">
  
  <g
     inkscape:label="CWSB-002"
     id="g3117"
     inkscape:groupmode="layer">
    <path
       id="path3147"
       style="fill:#ffffff;stroke:none;display:inline"
       d="M 349.5,67 C 278.52642,67 234.47221,100.19012 197.09375,131.03125 159.71529,161.87238 129.17948,190 80.5,190 l -39.999763,0 -5.000237,0 0,20 5.000237,0 L 80.5,210 c 48.58997,0 73.92432,27.73148 109.125,58.75 C 224.82568,299.76852 269.36288,333 349.5,333 l 20,0 0,-26 -11,0 -29,0.5 C 260.8436,308.68373 238.00225,280.06351 200.09375,250.1875 174.74423,230.20933 156.00932,209.253 130.1875,200 161.17623,189.51678 179.74423,169.79067 205.09375,149.8125 243.00225,119.93649 260.8334,92.5 329.5,92.5 l 29,0.5 11,0 0,-26 z"
       inkscape:connector-curvature="0"
       sodipodi:nodetypes="cssccccssccccsscsccccc" />
    <path
       sodipodi:nodetypes="ccsssccsscssccssccc"
       inkscape:connector-curvature="0"
       d="M 30.5,210 40.500237,210 80.5,210 c 48.58997,0 73.92432,27.73148 109.125,58.75 C 224.82568,299.76852 269.36288,333 349.5,333 l 6,0 3,0 -10,0 c -74.86849,0 -111.34872,-49.01852 -145.65625,-79.25 -22.55533,-19.87555 -43.95734,-41.17946 -72,-53.4375 30.16496,-12.06008 54.37561,-33.55184 78.96875,-53.84375 C 246.66707,116.05988 283.53399,67 348.5,67 l 10,0 1,0 -10,0 C 278.52642,67 234.47221,100.19012 197.09375,131.03125 159.71529,161.87238 129.17948,190 80.5,190 L 40.500237,190 30.5,190"
       style="fill:#000000;stroke:none;display:inline"
       id="path3994" />
    <path
       inkscape:connector-curvature="0"
       id="S-left-2-5"
       style="fill:none;stroke:#000000;stroke-width:1.00000036px;stroke-linecap:square;stroke-linejoin:miter;stroke-opacity:1;display:inline"
       d="M 30.5,190 40.500237,190 80.5,190 c 48.67948,0 79.21529,-28.12762 116.59375,-58.96875 C 234.47221,100.19012 278.52642,67 349.5,67 l 10,0 10,0 M 30.5,210 40.500237,210 80.5,210 c 48.58997,0 73.92432,27.73148 109.125,58.75 C 224.82568,299.76852 269.36288,333 349.5,333 l 6,0 14,0" />
    <path
       style="fill:none;stroke:#000000;stroke-width:1.00000036000000003px;stroke-linecap:square;stroke-linejoin:miter;stroke-opacity:1;display:inline"
       d="m 369.5,307 -10.00023,0 -0.99977,0 -29,0.5 C 260.8436,308.68373 238.00225,280.06351 200.09375,250.1875 174.74423,230.20933 156.00932,209.253 130.1875,200 161.17623,189.51678 179.74423,169.79067 205.09375,149.8125 243.00225,119.93649 260.8334,92.5 329.5,92.5 l 29,0.5 0.99977,0 10.00023,0"
       id="path3169"
       inkscape:connector-curvature="0"
       sodipodi:nodetypes="cccsscscccc" />
  </g>
</svg>
