<?xml version="1.0" encoding="UTF-8" standalone="no"?>
<!-- Created with Inkscape (http://www.inkscape.org/) -->
<svg
   xmlns:dc="http://purl.org/dc/elements/1.1/"
   xmlns:cc="http://creativecommons.org/ns#"
   xmlns:rdf="http://www.w3.org/1999/02/22-rdf-syntax-ns#"
   xmlns:svg="http://www.w3.org/2000/svg"
   xmlns="http://www.w3.org/2000/svg"
   xmlns:sodipodi="http://sodipodi.sourceforge.net/DTD/sodipodi-0.dtd"
   xmlns:inkscape="http://www.inkscape.org/namespaces/inkscape"
   width="400"
   height="400"
   id="svg2902"
   version="1.1"
   inkscape:version="0.48.3.1 r9886"
   sodipodi:docname="BB54279CE380EA9A8_00_SW_00_00_.svg"
   style="display:inline">
  
  <g
     inkscape:groupmode="layer"
     id="layer2"
     inkscape:label="LAPTOP-001"
     sodipodi:insensitive="true">
    <path
       inkscape:connector-curvature="0"
       style="fill:#ffffff;stroke:none;display:inline"
       d="m 71.5625,126.21875 0,134.28125 -22.9375,76 0,15.125 251.09375,0 0,-15.125 -22.96875,-76 0,-134.28125 -205.1875,0 z"
       id="path3611-4-1" />
  </g>
  <g
     style="display:inline"
     inkscape:label="KONNEKT-001"
     id="knnkt001"
     inkscape:groupmode="layer">
    <path
       inkscape:connector-curvature="0"
       sodipodi:nodetypes="ccccc"
       d="m 276.71989,210 92.78011,0 0,-20 -92.78011,0 z"
       style="fill:#ffffff;stroke:none;display:inline"
       id="right-bottom-0-3" />
    <path
       inkscape:connector-curvature="0"
       sodipodi:nodetypes="cccc"
       d="m 369.5,210 -91.78011,0 M 369.5,190 l -91.78011,0"
       style="fill:none;stroke:#000000;stroke-width:1.00000036px;stroke-linecap:square;stroke-linejoin:miter;stroke-opacity:1;display:inline"
       id="right-bottom-0" />
  </g>
  <g
     style="display:inline"
     inkscape:label="ONSCREEN-002"
     id="g3559"
     inkscape:groupmode="layer"
     sodipodi:insensitive="true">
    <path
       inkscape:connector-curvature="0"
       sodipodi:nodetypes="caaaccaaac"
       d="m 276.00168,210 c -27.29143,0 -33.34504,-14.62899 -50.94503,-14 -17.99898,0.64325 -32.93722,18.31033 -50.94503,18 -18.24069,-0.31434 -32.71272,-19.36358 -50.94502,-20 -17.78866,-0.62094 -29.59306,16 -50.94503,16 m 203.78011,-20 c -25.42252,0 -33.34504,-14.62899 -50.94503,-14 -17.99898,0.64325 -32.93722,18.31033 -50.94503,18 -18.24069,-0.31434 -32.71272,-19.36358 -50.94502,-20 -17.78866,-0.62094 -29.067768,16 -50.94503,16"
       style="fill:none;stroke:#000000;stroke-width:1.00000036px;stroke-linecap:square;stroke-linejoin:miter;stroke-opacity:1;display:inline"
       id="right-bottom-0-1" />
  </g>
  <g
     inkscape:groupmode="layer"
     id="lptp001"
     inkscape:label="LAPTOP-001"
     style="display:inline">
    <path
       inkscape:connector-curvature="0"
       style="fill:none;stroke:#ff0000;stroke-width:1;stroke-linecap:butt;stroke-linejoin:miter;stroke-miterlimit:4;stroke-opacity:1"
       d="m 71.573771,260.51493 -22.960868,75.97352 0,15.14147 251.102087,0 0,-15.14147 -22.96087,-75.97351 -205.180335,0 z m 0,0"
       id="path3611-4" />
    <path
       style="fill:none;stroke:#ff0000;stroke-width:1;stroke-linecap:butt;stroke-linejoin:miter;stroke-miterlimit:4;stroke-opacity:1"
       d="m 71.561073,259.89878 0,-133.66786 205.180357,0 0,133.66786"
       id="path3615-7"
       inkscape:connector-curvature="0"
       sodipodi:nodetypes="cccc" />
    <path
       inkscape:connector-curvature="0"
       style="fill:none;stroke:#ff0000;stroke-width:1;stroke-linecap:butt;stroke-linejoin:miter;stroke-miterlimit:4;stroke-opacity:1"
       d="m 299.70229,338.17364 -251.102073,0"
       id="path3617-5" />
  </g>
  <g
     inkscape:groupmode="layer"
     id="g3604"
     inkscape:label="KEYBOARD-003"
     style="display:inline"
     sodipodi:insensitive="true">
    <path
       style="fill:none;stroke:#ff0000;stroke-width:1;stroke-linecap:butt;stroke-linejoin:miter;stroke-miterlimit:4;stroke-opacity:1"
       d="m 283.0162,305.87602 c 0,0 -10.87948,-38.29084 -10.85435,-38.29084 l -196.021447,0 c 0.0259,0 -6.793192,24.31504 -10.740351,38.29084 l 24.200835,0 193.415313,0 z m 0,0"
       id="path3606"
       inkscape:connector-curvature="0" />
    <path
       style="fill:none;stroke:#ff0000;stroke-width:1;stroke-linecap:butt;stroke-linejoin:miter;stroke-miterlimit:4;stroke-opacity:1"
       d="m 68.05669,296.30966 212.20155,0"
       id="path3624"
       inkscape:connector-curvature="0" />
    <path
       style="fill:none;stroke:#ff0000;stroke-width:1;stroke-linecap:butt;stroke-linejoin:miter;stroke-miterlimit:4;stroke-opacity:1"
       d="m 277.56377,286.74326 -206.825032,0"
       id="path3626"
       inkscape:connector-curvature="0" />
    <path
       style="fill:none;stroke:#ff0000;stroke-width:1;stroke-linecap:butt;stroke-linejoin:miter;stroke-miterlimit:4;stroke-opacity:1"
       d="m 73.433234,277.16424 201.436056,0"
       id="path3628"
       inkscape:connector-curvature="0" />
  </g>
</svg>
