<?xml version="1.0" encoding="UTF-8" standalone="no"?>
<!-- Created with Inkscape (http://www.inkscape.org/) -->
<svg
   xmlns:dc="http://purl.org/dc/elements/1.1/"
   xmlns:cc="http://creativecommons.org/ns#"
   xmlns:rdf="http://www.w3.org/1999/02/22-rdf-syntax-ns#"
   xmlns:svg="http://www.w3.org/2000/svg"
   xmlns="http://www.w3.org/2000/svg"
   xmlns:sodipodi="http://sodipodi.sourceforge.net/DTD/sodipodi-0.dtd"
   xmlns:inkscape="http://www.inkscape.org/namespaces/inkscape"
   width="400"
   height="400"
   id="svg2902"
   version="1.1"
   inkscape:version="0.48.3.1 r9886"
   sodipodi:docname="BB54279CD22E031D7_00_SW_00_00_.svg"
   style="display:inline">
  
  <g
     inkscape:groupmode="layer"
     id="layer2"
     inkscape:label="LAPTOP-001"
     sodipodi:insensitive="true">
    <path
       inkscape:connector-curvature="0"
       style="fill:#ffffff;stroke:none;display:inline"
       d="m 71.5625,126.21875 0,134.28125 -22.9375,76 0,15.125 251.09375,0 0,-15.125 -22.96875,-76 0,-134.28125 -205.1875,0 z"
       id="path3611-4-1" />
  </g>
  <g
     style="display:inline"
     inkscape:label="KONNEKT-001"
     id="knnkt001"
     inkscape:groupmode="layer">
    <path
       inkscape:connector-curvature="0"
       sodipodi:nodetypes="ccccc"
       d="m 276.71989,210 92.78011,0 0,-20 -92.78011,0 z"
       style="fill:#ffffff;stroke:none;display:inline"
       id="right-bottom-0-3" />
    <path
       inkscape:connector-curvature="0"
       sodipodi:nodetypes="cccc"
       d="m 369.5,210 -91.78011,0 M 369.5,190 l -91.78011,0"
       style="fill:none;stroke:#000000;stroke-width:1.00000036px;stroke-linecap:square;stroke-linejoin:miter;stroke-opacity:1;display:inline"
       id="right-bottom-0" />
  </g>
  <g
     inkscape:groupmode="layer"
     id="g13858"
     inkscape:label="ONSCREEN-003"
     style="display:inline"
     sodipodi:insensitive="true">
    <path
       style="color:#000000;fill:none;stroke:#ff0000;stroke-width:1;marker:none;visibility:visible;display:inline;overflow:visible;enable-background:accumulate"
       inkscape:transform-center-x="1.9985583"
       inkscape:transform-center-y="1.0060517"
       d="m 162.49854,207.63282 -20.61318,-1.34635 -12.7936,16.2386 -5.09098,-20.04484 -19.37799,-7.16466 17.46677,-11.04205 0.81736,-20.6666 15.88604,13.22048 19.88313,-5.60801 -7.64865,19.21276 z"
       id="path13862"
       inkscape:connector-curvature="0" />
    <path
       style="color:#000000;fill:none;stroke:#ff0000;stroke-width:1;marker:none;visibility:visible;display:inline;overflow:visible;enable-background:accumulate"
       inkscape:transform-center-x="1.1965555"
       inkscape:transform-center-y="1.1980809"
       d="m 203.31953,205.21413 -5.27883,15.58617 9.83083,13.19004 -16.43605,-0.21036 -9.49091,13.43732 -4.87923,-15.71617 -15.69653,-4.88532 13.42052,-9.50278 -0.21007,-16.45659 13.17354,9.84311 z"
       id="path13864"
       inkscape:connector-curvature="0" />
    <path
       style="color:#000000;fill:none;stroke:#ff0000;stroke-width:1;marker:none;visibility:visible;display:inline;overflow:visible;enable-background:accumulate"
       inkscape:transform-center-x="-3.066185"
       d="m 242.73888,175.07742 -19.12091,9.44853 -3.06619,21.12757 -14.88354,-15.28806 -21.01593,3.60903 9.92237,-18.89707 -9.92237,-18.89707 21.01593,3.60902 14.88354,-15.28804 3.06619,21.12755 z"
       id="path13866"
       inkscape:connector-curvature="0"
       inkscape:transform-center-y="1.5479986e-05" />
  </g>
  <g
     inkscape:groupmode="layer"
     id="lptp001"
     inkscape:label="LAPTOP-001"
     style="display:inline">
    <path
       inkscape:connector-curvature="0"
       style="fill:none;stroke:#ff0000;stroke-width:1;stroke-linecap:butt;stroke-linejoin:miter;stroke-miterlimit:4;stroke-opacity:1"
       d="m 71.573771,260.51493 -22.960868,75.97352 0,15.14147 251.102087,0 0,-15.14147 -22.96087,-75.97351 -205.180335,0 z m 0,0"
       id="path3611-4" />
    <path
       style="fill:none;stroke:#ff0000;stroke-width:1;stroke-linecap:butt;stroke-linejoin:miter;stroke-miterlimit:4;stroke-opacity:1"
       d="m 71.561073,259.89878 0,-133.66786 205.180357,0 0,133.66786"
       id="path3615-7"
       inkscape:connector-curvature="0"
       sodipodi:nodetypes="cccc" />
    <path
       inkscape:connector-curvature="0"
       style="fill:none;stroke:#ff0000;stroke-width:1;stroke-linecap:butt;stroke-linejoin:miter;stroke-miterlimit:4;stroke-opacity:1"
       d="m 299.70229,338.17364 -251.102073,0"
       id="path3617-5" />
  </g>
  <g
     inkscape:groupmode="layer"
     id="g3604"
     inkscape:label="KEYBOARD-003"
     style="display:inline"
     sodipodi:insensitive="true">
    <path
       style="fill:none;stroke:#ff0000;stroke-width:1;stroke-linecap:butt;stroke-linejoin:miter;stroke-miterlimit:4;stroke-opacity:1"
       d="m 283.0162,305.87602 c 0,0 -10.87948,-38.29084 -10.85435,-38.29084 l -196.021447,0 c 0.0259,0 -6.793192,24.31504 -10.740351,38.29084 l 24.200835,0 193.415313,0 z m 0,0"
       id="path3606"
       inkscape:connector-curvature="0" />
    <path
       style="fill:none;stroke:#ff0000;stroke-width:1;stroke-linecap:butt;stroke-linejoin:miter;stroke-miterlimit:4;stroke-opacity:1"
       d="m 68.05669,296.30966 212.20155,0"
       id="path3624"
       inkscape:connector-curvature="0" />
    <path
       style="fill:none;stroke:#ff0000;stroke-width:1;stroke-linecap:butt;stroke-linejoin:miter;stroke-miterlimit:4;stroke-opacity:1"
       d="m 277.56377,286.74326 -206.825032,0"
       id="path3626"
       inkscape:connector-curvature="0" />
    <path
       style="fill:none;stroke:#ff0000;stroke-width:1;stroke-linecap:butt;stroke-linejoin:miter;stroke-miterlimit:4;stroke-opacity:1"
       d="m 73.433234,277.16424 201.436056,0"
       id="path3628"
       inkscape:connector-curvature="0" />
  </g>
</svg>
