<?xml version="1.0" encoding="UTF-8" standalone="no"?>
<!-- Created with Inkscape (http://www.inkscape.org/) -->
<svg
   xmlns:dc="http://purl.org/dc/elements/1.1/"
   xmlns:cc="http://creativecommons.org/ns#"
   xmlns:rdf="http://www.w3.org/1999/02/22-rdf-syntax-ns#"
   xmlns:svg="http://www.w3.org/2000/svg"
   xmlns="http://www.w3.org/2000/svg"
   xmlns:sodipodi="http://sodipodi.sourceforge.net/DTD/sodipodi-0.dtd"
   xmlns:inkscape="http://www.inkscape.org/namespaces/inkscape"
   style="display:inline"
   sodipodi:docname="BCD7919D5D139D-R+_00_SB_00_UW_.svg"
   inkscape:version="0.48.3.1 r9886"
   version="1.1"
   id="svg2902"
   height="400"
   width="400">
  
  <g
     inkscape:groupmode="layer"
     id="layer5"
     inkscape:label="S-002"
     style="display:inline">
    <path
       sodipodi:nodetypes="ccccccc"
       inkscape:connector-curvature="0"
       d="m 48.49976,190 311.00012,0 10.00012,0 0,20 -10.00012,0 -311.00012,0 z"
       style="fill:#000000;stroke:none;display:inline"
       id="path3429"
       zpos="-2" />
    <path
       id="S-right-2-0-1"
       style="fill:none;stroke:#000000;stroke-width:1.00000036px;stroke-linecap:square;stroke-linejoin:miter;stroke-opacity:1;display:inline"
       d="m 369.5,210 -10.00012,0 -311.00012,0 M 369.5,190 l -10.00012,0 -311.00012,0"
       inkscape:connector-curvature="0"
       sodipodi:nodetypes="cccccc" />
  </g>
  <g
     inkscape:label="U-003"
     id="g3359"
     inkscape:groupmode="layer"
     style="display:inline">
    <path
       id="path3363"
       style="color:#000000;fill:#ffffff;stroke:none;stroke-width:1.00000036px;marker:none;visibility:visible;display:inline;overflow:visible;enable-background:accumulate"
       d="m 15.5,87 14.500115,-20 20.500115,0 106.44292,0 c 3.07849,0 5.55685,2.478356 5.55685,5.556851 l 0,18.441853 c 0,3.078496 -2.47836,5.556851 -5.55685,5.556851 l -18.8863,2e-6 c -3.07849,0 -5.55685,2.478356 -5.55685,5.556853 l 0,18.44185 c 0,3.0785 2.47836,5.55685 5.55685,5.55685 l 38.8863,0 c 3.07849,0 5.55685,2.47835 5.55685,5.55685 l 0,18.44185 c 0,3.0785 -2.47836,5.55685 -5.55685,5.55685 l -18.8863,1e-5 c -3.07849,0 -5.55685,2.47836 -5.55685,5.55685 l 0,18.44186 c 0,3.07849 2.47836,5.55685 5.55685,5.55685 l 38.8863,0 c 3.07849,0 5.55685,2.47835 5.55685,5.55685 l 0,18.44185 c 0,3.0785 -2.47836,5.55685 -5.55685,5.55685 l -28.8863,1e-5 c -3.07849,0 -5.55685,2.47835 -5.55685,5.55685 l 0,18.44185 c 0,3.0785 2.47836,5.55685 5.55685,5.55685 l 48.8863,-1e-5 c 3.07849,0 5.55685,2.47835 5.55685,5.55685 l 0,18.44185 c 0,3.0785 -2.47836,5.55685 -5.55685,5.55685 l -28.8863,1e-5 c -3.07849,0 -5.55685,2.47835 -5.55685,5.55685 l 0,18.44185 c 0,3.0785 2.47836,5.55685 5.55685,5.55685 l 48.8863,2e-5 c 3.07849,0 5.55685,2.47835 5.55685,5.55685 l 0,18.44185 c 0,3.0785 -2.47836,5.55685 -5.55685,5.55685 L 50.50023,333 30.000115,333 15.5,313"
       inkscape:connector-curvature="0"
       sodipodi:nodetypes="ccccsssssssssssssssssssssssssssssssssscccc"
       zpos="-1" />
    <path
       sodipodi:nodetypes="cccssssssssssssssssssssssssssssssssssccc"
       inkscape:connector-curvature="0"
       d="m 30.5,67 10.00023,0 116.44292,0 c 3.07849,0 5.55685,2.478356 5.55685,5.556851 l 0,18.441853 c 0,3.078496 -2.47836,5.556851 -5.55685,5.556851 l -18.8863,2e-6 c -3.07849,0 -5.55685,2.478356 -5.55685,5.556853 l 0,18.44185 c 0,3.0785 2.47836,5.55685 5.55685,5.55685 l 38.8863,0 c 3.07849,0 5.55685,2.47835 5.55685,5.55685 l 0,18.44185 c 0,3.0785 -2.47836,5.55685 -5.55685,5.55685 l -18.8863,1e-5 c -3.07849,0 -5.55685,2.47836 -5.55685,5.55685 l 0,18.44186 c 0,3.07849 2.47836,5.55685 5.55685,5.55685 l 38.8863,0 c 3.07849,0 5.55685,2.47835 5.55685,5.55685 l 0,18.44185 c 0,3.0785 -2.47836,5.55685 -5.55685,5.55685 l -28.8863,1e-5 c -3.07849,0 -5.55685,2.47835 -5.55685,5.55685 l 0,18.44185 c 0,3.0785 2.47836,5.55685 5.55685,5.55685 l 48.8863,-1e-5 c 3.07849,0 5.55685,2.47835 5.55685,5.55685 l 0,18.44185 c 0,3.0785 -2.47836,5.55685 -5.55685,5.55685 l -28.8863,1e-5 c -3.07849,0 -5.55685,2.47835 -5.55685,5.55685 l 0,18.44185 c 0,3.0785 2.47836,5.55685 5.55685,5.55685 l 48.8863,2e-5 c 3.07849,0 5.55685,2.47835 5.55685,5.55685 l 0,18.44185 c 0,3.0785 -2.47836,5.55685 -5.55685,5.55685 L 40.50023,333 30.5,333"
       style="color:#000000;fill:none;stroke:#000000;stroke-width:1.00000036px;stroke-linecap:square;stroke-linejoin:miter;stroke-miterlimit:4;stroke-opacity:1;stroke-dasharray:none;stroke-dashoffset:0;marker:none;visibility:visible;display:inline;overflow:visible;enable-background:accumulate"
       id="path3361" />
  </g>
</svg>
