<?xml version="1.0" encoding="UTF-8" standalone="no"?>
<!-- Created with Inkscape (http://www.inkscape.org/) -->
<svg
   xmlns:dc="http://purl.org/dc/elements/1.1/"
   xmlns:cc="http://creativecommons.org/ns#"
   xmlns:rdf="http://www.w3.org/1999/02/22-rdf-syntax-ns#"
   xmlns:svg="http://www.w3.org/2000/svg"
   xmlns="http://www.w3.org/2000/svg"
   xmlns:sodipodi="http://sodipodi.sourceforge.net/DTD/sodipodi-0.dtd"
   xmlns:inkscape="http://www.inkscape.org/namespaces/inkscape"
   style="display:inline"
   sodipodi:docname="BCD7919D02A3D0-R+_00_SB_00_UW_.svg"
   inkscape:version="0.48.3.1 r9886"
   version="1.1"
   id="svg2902"
   height="400"
   width="400">
  
  <g
     inkscape:label="S-003"
     id="g3431"
     inkscape:groupmode="layer"
     style="display:inline">
    <path
       style="color:#000000;fill:#000000;fill-opacity:1;fill-rule:nonzero;stroke:none;stroke-width:1;marker:none;visibility:visible;display:inline;overflow:visible;enable-background:accumulate"
       d="m 369.5,190 -10,0 -10,0 C 279.28526,190 248.33426,89.236379 161.5,80.59375 156.18301,79.876688 150.76347,79.5 145.25,79.5 78.699682,79.5 24.75,133.44968 24.75,200 c 0,66.55031 53.949682,120.5 120.5,120.5 4.98516,0 9.89238,-0.31818 14.71875,-0.90625 C 254.38483,312.45974 283.94931,210 349.5,210 l 10,0 10,0 z"
       id="path3437-3"
       inkscape:connector-curvature="0"
       sodipodi:nodetypes="ccscssscsccc"
       zpos="-2" />
    <path
       style="color:#000000;fill:none;stroke:#000000;stroke-width:1;marker:none;visibility:visible;display:inline;overflow:visible;enable-background:accumulate"
       d="m 369.5,190 -10,0 -10,0 C 279.28526,190 248.33426,89.236379 161.5,80.59375 156.18301,79.876688 150.76347,79.5 145.25,79.5 78.699682,79.5 24.75,133.44968 24.75,200 c 0,66.55031 53.949682,120.5 120.5,120.5 4.98516,0 9.89238,-0.31818 14.71875,-0.90625 C 254.38483,312.45974 283.94931,210 349.5,210 l 10,0 10,0"
       id="path3437"
       inkscape:connector-curvature="0"
       sodipodi:nodetypes="ccscssscscc" />
  </g>
  <g
     inkscape:groupmode="layer"
     id="layer2"
     inkscape:label="U-001"
     style="display:inline">
    <path
       sodipodi:nodetypes="ccccssssssssssssssssssssssssssssssssssssccccc"
       inkscape:connector-curvature="0"
       d="m 15.5,87 14.500115,-20 20.500115,0 154.94805,0 14.10344,0 C 226.72507,67 232.5,72.774932 232.5,79.948278 l 0,3.658999 c 0,7.173346 -5.77493,12.948277 -12.94828,12.948278 l -8.10344,10e-7 C 204.27493,96.555557 198.5,102.33049 198.5,109.50383 l 0,3.659 c 0,7.17335 5.77493,12.94828 12.94828,12.94828 l 8.10344,0 c 7.17335,0 12.94828,5.77493 12.94828,12.94828 l 0,3.659 c 0,7.17334 -5.77493,12.94826 -12.94828,12.94827 l -8.10344,1e-5 c -7.17335,1e-5 -12.94828,5.77493 -12.94828,12.94828 l 0,3.659 c 0,7.17334 5.77493,12.94826 12.94828,12.94827 l 8.10344,1e-5 c 7.17335,1e-5 12.94828,5.77493 12.94828,12.94828 l 0,3.659 c 0,7.17334 -5.77493,12.94827 -12.94828,12.94827 l -8.10344,0 c -7.17335,0 -12.94828,5.77493 -12.94828,12.94828 l 0,3.659 c 0,7.17334 5.77493,12.94827 12.94828,12.94827 l 8.10344,0 c 7.17335,0 12.94828,5.77493 12.94828,12.94828 l 0,3.659 c 0,7.17334 -5.77493,12.94826 -12.94828,12.94827 l -8.10344,1e-5 C 204.27493,273.8889 198.5,279.66382 198.5,286.83717 l 0,3.659 c 0,7.17334 5.77493,12.94825 12.94828,12.94827 l 8.10344,2e-5 c 7.17335,2e-5 12.94828,5.77493 12.94828,12.94828 l 0,3.659 c 0,7.17334 -5.77493,12.94827 -12.94828,12.94827 l -24.10344,0 L 50.50023,333 30.000115,333 15.5,313 z"
       style="color:#000000;fill:#ffffff;stroke:none;stroke-width:1.00000036px;marker:none;visibility:visible;display:inline;overflow:visible;enable-background:accumulate"
       id="path3404"
       zpos="-1" />
    <path
       id="C-left-4-1-1"
       style="color:#000000;fill:none;stroke:#000000;stroke-width:1.00000036px;stroke-linecap:square;stroke-linejoin:miter;stroke-miterlimit:4;stroke-opacity:1;stroke-dasharray:none;stroke-dashoffset:0;marker:none;visibility:visible;display:inline;overflow:visible;enable-background:accumulate"
       d="m 30.5,67 10.00023,0 164.94805,0 14.10344,0 C 226.72507,67 232.5,72.774932 232.5,79.948278 l 0,3.658999 c 0,7.173346 -5.77493,12.948277 -12.94828,12.948278 l -8.10344,10e-7 C 204.27493,96.555557 198.5,102.33049 198.5,109.50383 l 0,3.659 c 0,7.17335 5.77493,12.94828 12.94828,12.94828 l 8.10344,0 c 7.17335,0 12.94828,5.77493 12.94828,12.94828 l 0,3.659 c 0,7.17334 -5.77493,12.94826 -12.94828,12.94827 l -8.10344,1e-5 c -7.17335,1e-5 -12.94828,5.77493 -12.94828,12.94828 l 0,3.659 c 0,7.17334 5.77493,12.94826 12.94828,12.94827 l 8.10344,1e-5 c 7.17335,1e-5 12.94828,5.77493 12.94828,12.94828 l 0,3.659 c 0,7.17334 -5.77493,12.94827 -12.94828,12.94827 l -8.10344,0 c -7.17335,0 -12.94828,5.77493 -12.94828,12.94828 l 0,3.659 c 0,7.17334 5.77493,12.94827 12.94828,12.94827 l 8.10344,0 c 7.17335,0 12.94828,5.77493 12.94828,12.94828 l 0,3.659 c 0,7.17334 -5.77493,12.94826 -12.94828,12.94827 l -8.10344,1e-5 C 204.27493,273.8889 198.5,279.66382 198.5,286.83717 l 0,3.659 c 0,7.17334 5.77493,12.94825 12.94828,12.94827 l 8.10344,2e-5 c 7.17335,2e-5 12.94828,5.77493 12.94828,12.94828 l 0,3.659 c 0,7.17334 -5.77493,12.94827 -12.94828,12.94827 l -24.10344,0 L 40.50023,333 30.5,333"
       inkscape:connector-curvature="0"
       sodipodi:nodetypes="cccssssssssssssssssssssssssssssssssssssccc" />
  </g>
</svg>
