<?xml version="1.0" encoding="UTF-8" standalone="no"?>
<!-- Created with Inkscape (http://www.inkscape.org/) -->
<svg
   xmlns:dc="http://purl.org/dc/elements/1.1/"
   xmlns:cc="http://creativecommons.org/ns#"
   xmlns:rdf="http://www.w3.org/1999/02/22-rdf-syntax-ns#"
   xmlns:svg="http://www.w3.org/2000/svg"
   xmlns="http://www.w3.org/2000/svg"
   xmlns:sodipodi="http://sodipodi.sourceforge.net/DTD/sodipodi-0.dtd"
   xmlns:inkscape="http://www.inkscape.org/namespaces/inkscape"
   style="display:inline"
   sodipodi:docname="BCD7009F7D37A2-R+_00_UW_00_UW_.svg"
   inkscape:version="0.48.3.1 r9886"
   version="1.1"
   id="svg2902"
   height="400"
   width="400">
  
  <g
     inkscape:groupmode="layer"
     id="layer4"
     inkscape:label="S-001"
     style="display:inline">
    <path
       sodipodi:nodetypes="ccccccc"
       inkscape:connector-curvature="0"
       d="m 369.5,333 -21.00012,0 C 309.6814,333 222.66982,323 179.49977,323 29.844088,323 30.502386,77 179.49977,77 230.1396,77 303.76628,67 348.49988,67 L 369.5,67 z"
       style="color:#000000;fill:#ffffff;stroke:none;stroke-width:1.00000036px;marker:none;visibility:visible;display:inline;overflow:visible;enable-background:accumulate"
       id="path3980"
       zpos="-2" />
    <path
       id="C-right-4-4"
       style="color:#000000;fill:none;stroke:#000000;stroke-width:1.00000036px;stroke-linecap:square;stroke-linejoin:miter;stroke-miterlimit:4;stroke-opacity:1;stroke-dasharray:none;stroke-dashoffset:0;marker:none;visibility:visible;display:inline;overflow:visible;enable-background:accumulate"
       d="m 369.5,333 -21.00012,0 C 309.6814,333 222.66982,323 179.49977,323 29.844088,323 30.502386,77 179.49977,77 230.1396,77 303.76628,67 348.49988,67 L 369.5,67"
       inkscape:connector-curvature="0"
       sodipodi:nodetypes="cccccc" />
  </g>
  <g
     inkscape:groupmode="layer"
     id="layer3"
     inkscape:label="L-002"
     style="display:inline">
    <path
       sodipodi:nodetypes="ccccssssssssssssssssssssssssssssssssssccccc"
       inkscape:connector-curvature="0"
       d="m 20.5,87 10.500115,-20 19.500115,0 176.44292,0 c 3.07849,0 5.55685,2.478356 5.55685,5.556851 l 0,18.441853 c 0,3.078496 -2.47836,5.556851 -5.55685,5.556851 l -28.8863,2e-6 c -3.07849,0 -5.55685,2.478356 -5.55685,5.556853 l 0,18.44185 c 0,3.0785 2.47836,5.55685 5.55685,5.55685 l 28.8863,0 c 3.07849,0 5.55685,2.47835 5.55685,5.55685 l 0,18.44185 c 0,3.0785 -2.47836,5.55685 -5.55685,5.55685 l -28.8863,1e-5 c -3.07849,0 -5.55685,2.47836 -5.55685,5.55685 l 0,18.44186 c 0,3.07849 2.47836,5.55685 5.55685,5.55685 l 28.8863,0 c 3.07849,0 5.55685,2.47835 5.55685,5.55685 l 0,18.44185 c 0,3.0785 -2.47836,5.55685 -5.55685,5.55685 l -28.8863,1e-5 c -3.07849,0 -5.55685,2.47835 -5.55685,5.55685 l 0,18.44185 c 0,3.0785 2.47836,5.55685 5.55685,5.55685 l 28.8863,-1e-5 c 3.07849,0 5.55685,2.47835 5.55685,5.55685 l 0,18.44185 c 0,3.0785 -2.47836,5.55685 -5.55685,5.55685 l -28.8863,1e-5 c -3.07849,0 -5.55685,2.47835 -5.55685,5.55685 l 0,18.44185 c 0,3.0785 2.47836,5.55685 5.55685,5.55685 l 28.8863,2e-5 c 3.07849,0 5.55685,2.47835 5.55685,5.55685 l 0,18.44185 c 0,3.0785 -2.47836,5.55685 -5.55685,5.55685 L 50.50023,333 31.000115,333 20.5,313 z"
       style="color:#000000;fill:#ffffff;stroke:none;stroke-width:1.00000036px;marker:none;visibility:visible;display:inline;overflow:visible;enable-background:accumulate"
       id="path3402"
       zpos="-1" />
    <path
       id="C-left-4-1-5"
       style="color:#000000;fill:none;stroke:#000000;stroke-width:1.00000036px;stroke-linecap:square;stroke-linejoin:miter;stroke-miterlimit:4;stroke-opacity:1;stroke-dasharray:none;stroke-dashoffset:0;marker:none;visibility:visible;display:inline;overflow:visible;enable-background:accumulate"
       d="m 30.5,67 10.00023,0 186.44292,0 c 3.07849,0 5.55685,2.478356 5.55685,5.556851 l 0,18.441853 c 0,3.078496 -2.47836,5.556851 -5.55685,5.556851 l -28.8863,2e-6 c -3.07849,0 -5.55685,2.478356 -5.55685,5.556853 l 0,18.44185 c 0,3.0785 2.47836,5.55685 5.55685,5.55685 l 28.8863,0 c 3.07849,0 5.55685,2.47835 5.55685,5.55685 l 0,18.44185 c 0,3.0785 -2.47836,5.55685 -5.55685,5.55685 l -28.8863,1e-5 c -3.07849,0 -5.55685,2.47836 -5.55685,5.55685 l 0,18.44186 c 0,3.07849 2.47836,5.55685 5.55685,5.55685 l 28.8863,0 c 3.07849,0 5.55685,2.47835 5.55685,5.55685 l 0,18.44185 c 0,3.0785 -2.47836,5.55685 -5.55685,5.55685 l -28.8863,1e-5 c -3.07849,0 -5.55685,2.47835 -5.55685,5.55685 l 0,18.44185 c 0,3.0785 2.47836,5.55685 5.55685,5.55685 l 28.8863,-1e-5 c 3.07849,0 5.55685,2.47835 5.55685,5.55685 l 0,18.44185 c 0,3.0785 -2.47836,5.55685 -5.55685,5.55685 l -28.8863,1e-5 c -3.07849,0 -5.55685,2.47835 -5.55685,5.55685 l 0,18.44185 c 0,3.0785 2.47836,5.55685 5.55685,5.55685 l 28.8863,2e-5 c 3.07849,0 5.55685,2.47835 5.55685,5.55685 l 0,18.44185 c 0,3.0785 -2.47836,5.55685 -5.55685,5.55685 L 40.50023,333 30.5,333"
       inkscape:connector-curvature="0"
       sodipodi:nodetypes="cccssssssssssssssssssssssssssssssssssccc" />
  </g>
</svg>
