<?xml version="1.0" encoding="UTF-8" standalone="no"?>
<!-- Created with Inkscape (http://www.inkscape.org/) -->
<svg
   xmlns:dc="http://purl.org/dc/elements/1.1/"
   xmlns:cc="http://creativecommons.org/ns#"
   xmlns:rdf="http://www.w3.org/1999/02/22-rdf-syntax-ns#"
   xmlns:svg="http://www.w3.org/2000/svg"
   xmlns="http://www.w3.org/2000/svg"
   xmlns:sodipodi="http://sodipodi.sourceforge.net/DTD/sodipodi-0.dtd"
   xmlns:inkscape="http://www.inkscape.org/namespaces/inkscape"
   style="display:inline"
   sodipodi:docname="BCD7919D431D01-R+_00_SB_00_UW_.svg"
   inkscape:version="0.48.3.1 r9886"
   version="1.1"
   id="svg2902"
   height="400"
   width="400">
  
  <g
     inkscape:groupmode="layer"
     id="layer4"
     inkscape:label="S-001"
     style="display:inline"
     zpos="-10">
    <path
       sodipodi:nodetypes="cccssscccc"
       inkscape:connector-curvature="0"
       id="path3400"
       d="m 369.5,190 -10,0 -92.96875,0 C 249.0322,190 230.85122,165.5 209,165.5 c -19.05381,0 -39.5,15.44618 -39.5,34.5 0,19.05382 20.44619,34.5 39.5,34.5 23.86638,0 37.47558,-24.5 57.53125,-24.5 l 92.96875,0 10,0 z"
       style="color:#000000;fill:#000000;fill-opacity:1;fill-rule:nonzero;stroke:none;stroke-width:1;marker:none;visibility:visible;display:inline;overflow:visible;enable-background:accumulate"
       zpos="-2" />
    <path
       style="color:#000000;fill:none;stroke:#000000;stroke-width:1;marker:none;visibility:visible;display:inline;overflow:visible;enable-background:accumulate"
       d="m 369.5,190 -10,0 -92.96875,0 C 249.0322,190 230.85122,165.5 209,165.5 c -19.05381,0 -39.5,15.44618 -39.5,34.5 0,19.05382 20.44619,34.5 39.5,34.5 23.86638,0 37.47558,-24.5 57.53125,-24.5 l 92.96875,0 10,0"
       id="path3388"
       inkscape:connector-curvature="0"
       sodipodi:nodetypes="cccsssccc" />
  </g>
  <g
     inkscape:label="U-005"
     id="g3665"
     inkscape:groupmode="layer"
     style="display:inline">
    <path
       sodipodi:nodetypes="ccccsssssssssssssssssssssssssssssssssssssssssssssssssccccc"
       inkscape:connector-curvature="0"
       d="m 20.5,323 10.000115,10 20.000115,0 164.18488,10e-6 c 4.32945,0 7.81489,-3.48544 7.81489,-7.81488 0,-4.32945 -3.48544,-7.81489 -7.81489,-7.81489 l -14.37022,-2e-5 c -4.32945,0 -7.81489,-3.48544 -7.81489,-7.81488 0,-4.32945 3.48544,-7.81489 7.81489,-7.81489 l 4.37022,10e-6 c 4.32945,0 7.81489,-3.48544 7.81489,-7.81489 0,-4.32944 -3.48544,-7.81488 -7.81489,-7.81488 l -14.37022,-2e-5 c -4.32945,0 -7.81489,-3.48544 -7.81489,-7.81489 0,-4.32944 3.48544,-7.81488 7.81489,-7.81488 l 4.37022,10e-6 c 4.32945,0 7.81489,-3.48544 7.81489,-7.81489 0,-4.32944 -3.48544,-7.81488 -7.81489,-7.81488 l -14.37022,-10e-6 c -4.32945,0 -7.81489,-3.48544 -7.81489,-7.81488 0,-4.32945 3.48544,-7.81489 7.81489,-7.81489 l 4.37022,0 c 4.32945,0 7.81489,-3.48544 7.81489,-7.81489 0,-4.32945 -3.48544,-7.81489 -7.81489,-7.81489 l -24.37022,0 c -4.32945,0 -7.81489,-3.48544 -7.81489,-7.81489 0,-4.32944 3.48635,-7.72638 7.81489,-7.81488 l 14.37022,-0.29378 c 4.32854,-0.0885 7.81489,-3.48544 7.81489,-7.81489 0,-4.32945 -3.48544,-7.81489 -7.81489,-7.81489 l -24.37022,0 c -4.32945,0 -7.81489,-3.48544 -7.81489,-7.81488 0,-4.32945 3.48544,-7.81489 7.81489,-7.81489 l 34.37022,-2e-5 c 4.32945,0 7.81489,-3.48544 7.81489,-7.81489 0,-4.32944 -3.48544,-7.81488 -7.81489,-7.81488 l -4.37022,0 c -4.32945,0 -7.81489,-3.48544 -7.81489,-7.81489 0,-4.32945 3.48544,-7.81489 7.81489,-7.81489 l 14.37022,0 c 4.32945,0 7.81489,-3.48544 7.81489,-7.81489 0,-4.32945 -3.48544,-7.81489 -7.81489,-7.81489 l -4.37022,0 c -4.32945,0 -7.81489,-3.48544 -7.81489,-7.81488 0,-4.32945 3.48544,-7.81489 7.81489,-7.81489 l 14.37022,0 c 4.32945,0 7.81489,-3.48544 7.81489,-7.81489 0,-4.32945 -3.48544,-7.814887 -7.81489,-7.814887 l -4.37022,-1e-6 c -4.32945,0 -7.81489,-3.48544 -7.81489,-7.814888 0,-4.329448 3.48544,-7.814887 7.81489,-7.814887 l 14.37022,-10e-7 c 4.32945,0 7.81489,-3.48544 7.81489,-7.814888 0,-4.329448 -3.48544,-7.814887 -7.81489,-7.814887 L 50.50023,67 30.500115,67 20.5,77 z"
       style="color:#000000;fill:#ffffff;stroke:none;stroke-width:1.00000036px;marker:none;visibility:visible;display:inline;overflow:visible;enable-background:accumulate"
       id="path3715"
       zpos="-1" />
    <path
       id="C-left-4-3"
       style="color:#000000;fill:none;stroke:#000000;stroke-width:1.00000036px;stroke-linecap:square;stroke-linejoin:miter;stroke-miterlimit:4;stroke-opacity:1;stroke-dasharray:none;stroke-dashoffset:0;marker:none;visibility:visible;display:inline;overflow:visible;enable-background:accumulate"
       d="m 30.5,333 10.00023,0 174.18488,10e-6 c 4.32945,0 7.81489,-3.48544 7.81489,-7.81488 0,-4.32945 -3.48544,-7.81489 -7.81489,-7.81489 l -14.37022,-2e-5 c -4.32945,0 -7.81489,-3.48544 -7.81489,-7.81488 0,-4.32945 3.48544,-7.81489 7.81489,-7.81489 l 4.37022,10e-6 c 4.32945,0 7.81489,-3.48544 7.81489,-7.81489 0,-4.32944 -3.48544,-7.81488 -7.81489,-7.81488 l -14.37022,-2e-5 c -4.32945,0 -7.81489,-3.48544 -7.81489,-7.81489 0,-4.32944 3.48544,-7.81488 7.81489,-7.81488 l 4.37022,10e-6 c 4.32945,0 7.81489,-3.48544 7.81489,-7.81489 0,-4.32944 -3.48544,-7.81488 -7.81489,-7.81488 l -14.37022,-10e-6 c -4.32945,0 -7.81489,-3.48544 -7.81489,-7.81488 0,-4.32945 3.48544,-7.81489 7.81489,-7.81489 l 4.37022,0 c 4.32945,0 7.81489,-3.48544 7.81489,-7.81489 0,-4.32945 -3.48544,-7.81489 -7.81489,-7.81489 l -24.37022,0 c -4.32945,0 -7.81489,-3.48544 -7.81489,-7.81489 0,-4.32944 3.48635,-7.72638 7.81489,-7.81488 l 14.37022,-0.29378 c 4.32854,-0.0885 7.81489,-3.48544 7.81489,-7.81489 0,-4.32945 -3.48544,-7.81489 -7.81489,-7.81489 l -24.37022,0 c -4.32945,0 -7.81489,-3.48544 -7.81489,-7.81488 0,-4.32945 3.48544,-7.81489 7.81489,-7.81489 l 34.37022,-2e-5 c 4.32945,0 7.81489,-3.48544 7.81489,-7.81489 0,-4.32944 -3.48544,-7.81488 -7.81489,-7.81488 l -4.37022,0 c -4.32945,0 -7.81489,-3.48544 -7.81489,-7.81489 0,-4.32945 3.48544,-7.81489 7.81489,-7.81489 l 14.37022,0 c 4.32945,0 7.81489,-3.48544 7.81489,-7.81489 0,-4.32945 -3.48544,-7.81489 -7.81489,-7.81489 l -4.37022,0 c -4.32945,0 -7.81489,-3.48544 -7.81489,-7.81488 0,-4.32945 3.48544,-7.81489 7.81489,-7.81489 l 14.37022,0 c 4.32945,0 7.81489,-3.48544 7.81489,-7.81489 0,-4.32945 -3.48544,-7.814887 -7.81489,-7.814887 l -4.37022,-1e-6 c -4.32945,0 -7.81489,-3.48544 -7.81489,-7.814888 0,-4.329448 3.48544,-7.814887 7.81489,-7.814887 l 14.37022,-10e-7 c 4.32945,0 7.81489,-3.48544 7.81489,-7.814888 0,-4.329448 -3.48544,-7.814887 -7.81489,-7.814887 L 40.50023,67 30.5,67"
       inkscape:connector-curvature="0"
       sodipodi:nodetypes="cccsssssssssssssssssssssssssssssssssssssssssssssssssccc" />
  </g>
</svg>
