<?xml version="1.0" encoding="UTF-8" standalone="no"?>
<!-- Created with Inkscape (http://www.inkscape.org/) -->
<svg
   xmlns:dc="http://purl.org/dc/elements/1.1/"
   xmlns:cc="http://creativecommons.org/ns#"
   xmlns:rdf="http://www.w3.org/1999/02/22-rdf-syntax-ns#"
   xmlns:svg="http://www.w3.org/2000/svg"
   xmlns="http://www.w3.org/2000/svg"
   xmlns:sodipodi="http://sodipodi.sourceforge.net/DTD/sodipodi-0.dtd"
   xmlns:inkscape="http://www.inkscape.org/namespaces/inkscape"
   style="display:inline"
   sodipodi:docname="BCD7919D01D833-R+_00_SB_00_UW_.svg"
   inkscape:version="0.48.3.1 r9886"
   version="1.1"
   id="svg2902"
   height="400"
   width="400">
  
  <g
     inkscape:groupmode="layer"
     id="layer5"
     inkscape:label="S-002"
     style="display:inline"
     zpos="-10">
    <path
       sodipodi:nodetypes="ccccccc"
       inkscape:connector-curvature="0"
       d="m 48.49976,190 311.00012,0 10.00012,0 0,20 -10.00012,0 -311.00012,0 z"
       style="fill:#000000;stroke:none;display:inline"
       id="path3429"
       zpos="-2" />
    <path
       id="S-right-2-0-1"
       style="fill:none;stroke:#000000;stroke-width:1.00000036px;stroke-linecap:square;stroke-linejoin:miter;stroke-opacity:1;display:inline"
       d="m 369.5,210 -10.00012,0 -311.00012,0 M 369.5,190 l -10.00012,0 -311.00012,0"
       inkscape:connector-curvature="0"
       sodipodi:nodetypes="cccccc" />
  </g>
  <g
     inkscape:groupmode="layer"
     id="layer6"
     inkscape:label="U-004"
     style="display:inline">
    <path
       sodipodi:nodetypes="ccccsssssssssssssssssssssssssssssssssssssssssssssssssccccc"
       inkscape:connector-curvature="0"
       d="m 20.5,77 10.000115,-10 20.000115,0 154.18488,3.1e-5 c 4.32945,0 7.81489,3.485439 7.81489,7.814887 0,4.329448 -3.48544,7.814888 -7.81489,7.814888 l -4.37022,10e-7 c -4.32945,0 -7.81489,3.485439 -7.81489,7.814887 0,4.329448 3.48544,7.814888 7.81489,7.814888 l 4.37022,1e-6 c 4.32945,0 7.81489,3.485437 7.81489,7.814887 0,4.32945 -3.48544,7.81489 -7.81489,7.81489 l -4.37022,0 c -4.32945,0 -7.81489,3.48544 -7.81489,7.81489 0,4.32944 3.48544,7.81488 7.81489,7.81488 l 4.37022,0 c 4.32945,0 7.81489,3.48544 7.81489,7.81489 0,4.32945 -3.48544,7.81489 -7.81489,7.81489 l -4.37022,0 c -4.32945,0 -7.81489,3.48544 -7.81489,7.81489 0,4.32945 3.48544,7.81489 7.81489,7.81489 l 4.37022,0 c 4.32945,0 7.81489,3.48544 7.81489,7.81488 0,4.32945 -3.48544,7.81489 -7.81489,7.81489 l -4.37022,2e-5 c -4.32945,0 -7.81489,3.48544 -7.81489,7.81489 0,4.32944 3.48544,7.81488 7.81489,7.81488 l 4.37022,0 c 4.32945,0 7.81489,3.48544 7.81489,7.81489 0,4.32945 -3.49519,7.52451 -7.81489,7.81489 l -4.37022,0.29378 c -4.3197,0.29038 -7.81489,3.48544 -7.81489,7.81488 0,4.32945 3.48544,7.81489 7.81489,7.81489 l 4.37022,0 c 4.32945,0 7.81489,3.48544 7.81489,7.81489 0,4.32945 -3.48544,7.81489 -7.81489,7.81489 l -4.37022,0 c -4.32945,0 -7.81489,3.48544 -7.81489,7.81489 0,4.32944 3.48544,7.81488 7.81489,7.81488 l 4.37022,10e-6 c 4.32945,0 7.81489,3.48544 7.81489,7.81488 0,4.32945 -3.48544,7.81489 -7.81489,7.81489 l -4.37022,-10e-6 c -4.32945,0 -7.81489,3.48544 -7.81489,7.81488 0,4.32945 3.48544,7.81489 7.81489,7.81489 l 4.37022,2e-5 c 4.32945,0 7.81489,3.48544 7.81489,7.81488 0,4.32945 -3.48544,7.81489 -7.81489,7.81489 l -4.37022,-10e-6 c -4.32945,0 -7.81489,3.48544 -7.81489,7.81489 0,4.32944 3.48544,7.81488 7.81489,7.81488 l 4.37022,2e-5 c 4.32945,0 7.81489,3.48544 7.81489,7.81489 0,4.32944 -3.48544,7.81488 -7.81489,7.81488 L 50.50023,333 30.500115,333 20.5,323 z"
       style="color:#000000;fill:#ffffff;stroke:none;stroke-width:1.00000036px;marker:none;visibility:visible;display:inline;overflow:visible;enable-background:accumulate"
       id="path3712"
       zpos="-1" />
    <path
       id="C-left-4-3-5"
       style="color:#000000;fill:none;stroke:#000000;stroke-width:1.00000036px;stroke-linecap:square;stroke-linejoin:miter;stroke-miterlimit:4;stroke-opacity:1;stroke-dasharray:none;stroke-dashoffset:0;marker:none;visibility:visible;display:inline;overflow:visible;enable-background:accumulate"
       d="m 30.5,67 10.00023,0 164.18488,3.1e-5 c 4.32945,0 7.81489,3.485439 7.81489,7.814887 0,4.329448 -3.48544,7.814888 -7.81489,7.814888 l -4.37022,10e-7 c -4.32945,0 -7.81489,3.485439 -7.81489,7.814887 0,4.329448 3.48544,7.814888 7.81489,7.814888 l 4.37022,1e-6 c 4.32945,0 7.81489,3.485437 7.81489,7.814887 0,4.32945 -3.48544,7.81489 -7.81489,7.81489 l -4.37022,0 c -4.32945,0 -7.81489,3.48544 -7.81489,7.81489 0,4.32944 3.48544,7.81488 7.81489,7.81488 l 4.37022,0 c 4.32945,0 7.81489,3.48544 7.81489,7.81489 0,4.32945 -3.48544,7.81489 -7.81489,7.81489 l -4.37022,0 c -4.32945,0 -7.81489,3.48544 -7.81489,7.81489 0,4.32945 3.48544,7.81489 7.81489,7.81489 l 4.37022,0 c 4.32945,0 7.81489,3.48544 7.81489,7.81488 0,4.32945 -3.48544,7.81489 -7.81489,7.81489 l -4.37022,2e-5 c -4.32945,0 -7.81489,3.48544 -7.81489,7.81489 0,4.32944 3.48544,7.81488 7.81489,7.81488 l 4.37022,0 c 4.32945,0 7.81489,3.48544 7.81489,7.81489 0,4.32945 -3.49519,7.52451 -7.81489,7.81489 l -4.37022,0.29378 c -4.3197,0.29038 -7.81489,3.48544 -7.81489,7.81488 0,4.32945 3.48544,7.81489 7.81489,7.81489 l 4.37022,0 c 4.32945,0 7.81489,3.48544 7.81489,7.81489 0,4.32945 -3.48544,7.81489 -7.81489,7.81489 l -4.37022,0 c -4.32945,0 -7.81489,3.48544 -7.81489,7.81489 0,4.32944 3.48544,7.81488 7.81489,7.81488 l 4.37022,10e-6 c 4.32945,0 7.81489,3.48544 7.81489,7.81488 0,4.32945 -3.48544,7.81489 -7.81489,7.81489 l -4.37022,-10e-6 c -4.32945,0 -7.81489,3.48544 -7.81489,7.81488 0,4.32945 3.48544,7.81489 7.81489,7.81489 l 4.37022,2e-5 c 4.32945,0 7.81489,3.48544 7.81489,7.81488 0,4.32945 -3.48544,7.81489 -7.81489,7.81489 l -4.37022,-10e-6 c -4.32945,0 -7.81489,3.48544 -7.81489,7.81489 0,4.32944 3.48544,7.81488 7.81489,7.81488 l 4.37022,2e-5 c 4.32945,0 7.81489,3.48544 7.81489,7.81489 0,4.32944 -3.48544,7.81488 -7.81489,7.81488 L 40.50023,333 30.5,333"
       inkscape:connector-curvature="0"
       sodipodi:nodetypes="cccsssssssssssssssssssssssssssssssssssssssssssssssssccc" />
  </g>
</svg>
