<?xml version="1.0" encoding="UTF-8" standalone="no"?>
<!-- Created with Inkscape (http://www.inkscape.org/) -->
<svg
   xmlns:dc="http://purl.org/dc/elements/1.1/"
   xmlns:cc="http://creativecommons.org/ns#"
   xmlns:rdf="http://www.w3.org/1999/02/22-rdf-syntax-ns#"
   xmlns:svg="http://www.w3.org/2000/svg"
   xmlns="http://www.w3.org/2000/svg"
   xmlns:sodipodi="http://sodipodi.sourceforge.net/DTD/sodipodi-0.dtd"
   xmlns:inkscape="http://www.inkscape.org/namespaces/inkscape"
   style="display:inline"
   sodipodi:docname="BCD7009FE432EB-R+_00_UW_00_UW_.svg"
   inkscape:version="0.48.3.1 r9886"
   version="1.1"
   id="svg2902"
   height="400"
   width="400">
  
  <g
     inkscape:groupmode="layer"
     id="layer4"
     inkscape:label="S-001"
     style="display:inline">
    <path
       sodipodi:nodetypes="ccccccc"
       inkscape:connector-curvature="0"
       d="m 369.5,333 -21.00012,0 C 309.6814,333 222.66982,323 179.49977,323 29.844088,323 30.502386,77 179.49977,77 230.1396,77 303.76628,67 348.49988,67 L 369.5,67 z"
       style="color:#000000;fill:#ffffff;stroke:none;stroke-width:1.00000036px;marker:none;visibility:visible;display:inline;overflow:visible;enable-background:accumulate"
       id="path3980"
       zpos="-2" />
    <path
       id="C-right-4-4"
       style="color:#000000;fill:none;stroke:#000000;stroke-width:1.00000036px;stroke-linecap:square;stroke-linejoin:miter;stroke-miterlimit:4;stroke-opacity:1;stroke-dasharray:none;stroke-dashoffset:0;marker:none;visibility:visible;display:inline;overflow:visible;enable-background:accumulate"
       d="m 369.5,333 -21.00012,0 C 309.6814,333 222.66982,323 179.49977,323 29.844088,323 30.502386,77 179.49977,77 230.1396,77 303.76628,67 348.49988,67 L 369.5,67"
       inkscape:connector-curvature="0"
       sodipodi:nodetypes="cccccc" />
  </g>
  <g
     inkscape:label="L-005"
     id="g3665"
     inkscape:groupmode="layer"
     style="display:inline">
    <path
       sodipodi:nodetypes="ccccsssssssssssssssssssssssssssssssssssssssssssssssssccccc"
       inkscape:connector-curvature="0"
       d="m 25.5,323 6.000115,10 19.000115,0 164.18488,10e-6 c 4.32945,0 7.81489,-3.48544 7.81489,-7.81488 0,-4.32945 -3.48544,-7.81489 -7.81489,-7.81489 l -14.37022,-2e-5 c -4.32945,0 -7.81489,-3.48544 -7.81489,-7.81488 0,-4.32945 3.48544,-7.81489 7.81489,-7.81489 l 4.37022,10e-6 c 4.32945,0 7.81489,-3.48544 7.81489,-7.81489 0,-4.32944 -3.48544,-7.81488 -7.81489,-7.81488 l -14.37022,-2e-5 c -4.32945,0 -7.81489,-3.48544 -7.81489,-7.81489 0,-4.32944 3.48544,-7.81488 7.81489,-7.81488 l 4.37022,10e-6 c 4.32945,0 7.81489,-3.48544 7.81489,-7.81489 0,-4.32944 -3.48544,-7.81488 -7.81489,-7.81488 l -14.37022,-10e-6 c -4.32945,0 -7.81489,-3.48544 -7.81489,-7.81488 0,-4.32945 3.48544,-7.81489 7.81489,-7.81489 l 4.37022,0 c 4.32945,0 7.81489,-3.48544 7.81489,-7.81489 0,-4.32945 -3.48544,-7.81489 -7.81489,-7.81489 l -24.37022,0 c -4.32945,0 -7.81489,-3.48544 -7.81489,-7.81489 0,-4.32944 3.48635,-7.72638 7.81489,-7.81488 l 14.37022,-0.29378 c 4.32854,-0.0885 7.81489,-3.48544 7.81489,-7.81489 0,-4.32945 -3.48544,-7.81489 -7.81489,-7.81489 l -24.37022,0 c -4.32945,0 -7.81489,-3.48544 -7.81489,-7.81488 0,-4.32945 3.48544,-7.81489 7.81489,-7.81489 l 34.37022,-2e-5 c 4.32945,0 7.81489,-3.48544 7.81489,-7.81489 0,-4.32944 -3.48544,-7.81488 -7.81489,-7.81488 l -4.37022,0 c -4.32945,0 -7.81489,-3.48544 -7.81489,-7.81489 0,-4.32945 3.48544,-7.81489 7.81489,-7.81489 l 14.37022,0 c 4.32945,0 7.81489,-3.48544 7.81489,-7.81489 0,-4.32945 -3.48544,-7.81489 -7.81489,-7.81489 l -4.37022,0 c -4.32945,0 -7.81489,-3.48544 -7.81489,-7.81488 0,-4.32945 3.48544,-7.81489 7.81489,-7.81489 l 14.37022,0 c 4.32945,0 7.81489,-3.48544 7.81489,-7.81489 0,-4.32945 -3.48544,-7.814887 -7.81489,-7.814887 l -4.37022,-1e-6 c -4.32945,0 -7.81489,-3.48544 -7.81489,-7.814888 0,-4.329448 3.48544,-7.814887 7.81489,-7.814887 l 14.37022,-10e-7 c 4.32945,0 7.81489,-3.48544 7.81489,-7.814888 0,-4.329448 -3.48544,-7.814887 -7.81489,-7.814887 L 50.50023,67 31.500115,67 25.5,77 z"
       style="color:#000000;fill:#ffffff;stroke:none;stroke-width:1.00000036px;marker:none;visibility:visible;display:inline;overflow:visible;enable-background:accumulate"
       id="path3715"
       zpos="-1" />
    <path
       id="C-left-4-3"
       style="color:#000000;fill:none;stroke:#000000;stroke-width:1.00000036px;stroke-linecap:square;stroke-linejoin:miter;stroke-miterlimit:4;stroke-opacity:1;stroke-dasharray:none;stroke-dashoffset:0;marker:none;visibility:visible;display:inline;overflow:visible;enable-background:accumulate"
       d="m 30.5,333 10.00023,0 174.18488,10e-6 c 4.32945,0 7.81489,-3.48544 7.81489,-7.81488 0,-4.32945 -3.48544,-7.81489 -7.81489,-7.81489 l -14.37022,-2e-5 c -4.32945,0 -7.81489,-3.48544 -7.81489,-7.81488 0,-4.32945 3.48544,-7.81489 7.81489,-7.81489 l 4.37022,10e-6 c 4.32945,0 7.81489,-3.48544 7.81489,-7.81489 0,-4.32944 -3.48544,-7.81488 -7.81489,-7.81488 l -14.37022,-2e-5 c -4.32945,0 -7.81489,-3.48544 -7.81489,-7.81489 0,-4.32944 3.48544,-7.81488 7.81489,-7.81488 l 4.37022,10e-6 c 4.32945,0 7.81489,-3.48544 7.81489,-7.81489 0,-4.32944 -3.48544,-7.81488 -7.81489,-7.81488 l -14.37022,-10e-6 c -4.32945,0 -7.81489,-3.48544 -7.81489,-7.81488 0,-4.32945 3.48544,-7.81489 7.81489,-7.81489 l 4.37022,0 c 4.32945,0 7.81489,-3.48544 7.81489,-7.81489 0,-4.32945 -3.48544,-7.81489 -7.81489,-7.81489 l -24.37022,0 c -4.32945,0 -7.81489,-3.48544 -7.81489,-7.81489 0,-4.32944 3.48635,-7.72638 7.81489,-7.81488 l 14.37022,-0.29378 c 4.32854,-0.0885 7.81489,-3.48544 7.81489,-7.81489 0,-4.32945 -3.48544,-7.81489 -7.81489,-7.81489 l -24.37022,0 c -4.32945,0 -7.81489,-3.48544 -7.81489,-7.81488 0,-4.32945 3.48544,-7.81489 7.81489,-7.81489 l 34.37022,-2e-5 c 4.32945,0 7.81489,-3.48544 7.81489,-7.81489 0,-4.32944 -3.48544,-7.81488 -7.81489,-7.81488 l -4.37022,0 c -4.32945,0 -7.81489,-3.48544 -7.81489,-7.81489 0,-4.32945 3.48544,-7.81489 7.81489,-7.81489 l 14.37022,0 c 4.32945,0 7.81489,-3.48544 7.81489,-7.81489 0,-4.32945 -3.48544,-7.81489 -7.81489,-7.81489 l -4.37022,0 c -4.32945,0 -7.81489,-3.48544 -7.81489,-7.81488 0,-4.32945 3.48544,-7.81489 7.81489,-7.81489 l 14.37022,0 c 4.32945,0 7.81489,-3.48544 7.81489,-7.81489 0,-4.32945 -3.48544,-7.814887 -7.81489,-7.814887 l -4.37022,-1e-6 c -4.32945,0 -7.81489,-3.48544 -7.81489,-7.814888 0,-4.329448 3.48544,-7.814887 7.81489,-7.814887 l 14.37022,-10e-7 c 4.32945,0 7.81489,-3.48544 7.81489,-7.814888 0,-4.329448 -3.48544,-7.814887 -7.81489,-7.814887 L 40.50023,67 30.5,67"
       inkscape:connector-curvature="0"
       sodipodi:nodetypes="cccsssssssssssssssssssssssssssssssssssssssssssssssssccc" />
  </g>
</svg>
