<?xml version="1.0" encoding="UTF-8" standalone="no"?>
<!-- Created with Inkscape (http://www.inkscape.org/) -->
<svg
   xmlns:dc="http://purl.org/dc/elements/1.1/"
   xmlns:cc="http://creativecommons.org/ns#"
   xmlns:rdf="http://www.w3.org/1999/02/22-rdf-syntax-ns#"
   xmlns:svg="http://www.w3.org/2000/svg"
   xmlns="http://www.w3.org/2000/svg"
   xmlns:sodipodi="http://sodipodi.sourceforge.net/DTD/sodipodi-0.dtd"
   xmlns:inkscape="http://www.inkscape.org/namespaces/inkscape"
   style="display:inline"
   sodipodi:docname="BCD7919D89009D-R+_00_SB_00_UW_.svg"
   inkscape:version="0.48.3.1 r9886"
   version="1.1"
   id="svg2902"
   height="400"
   width="400">
  
  <g
     inkscape:groupmode="layer"
     id="layer4"
     inkscape:label="S-001"
     style="display:inline"
     zpos="-10">
    <path
       sodipodi:nodetypes="cccssscccc"
       inkscape:connector-curvature="0"
       id="path3400"
       d="m 369.5,190 -10,0 -92.96875,0 C 249.0322,190 230.85122,165.5 209,165.5 c -19.05381,0 -39.5,15.44618 -39.5,34.5 0,19.05382 20.44619,34.5 39.5,34.5 23.86638,0 37.47558,-24.5 57.53125,-24.5 l 92.96875,0 10,0 z"
       style="color:#000000;fill:#000000;fill-opacity:1;fill-rule:nonzero;stroke:none;stroke-width:1;marker:none;visibility:visible;display:inline;overflow:visible;enable-background:accumulate"
       zpos="-2" />
    <path
       style="color:#000000;fill:none;stroke:#000000;stroke-width:1;marker:none;visibility:visible;display:inline;overflow:visible;enable-background:accumulate"
       d="m 369.5,190 -10,0 -92.96875,0 C 249.0322,190 230.85122,165.5 209,165.5 c -19.05381,0 -39.5,15.44618 -39.5,34.5 0,19.05382 20.44619,34.5 39.5,34.5 23.86638,0 37.47558,-24.5 57.53125,-24.5 l 92.96875,0 10,0"
       id="path3388"
       inkscape:connector-curvature="0"
       sodipodi:nodetypes="cccsssccc" />
  </g>
  <g
     inkscape:groupmode="layer"
     id="layer7"
     inkscape:label="U-006"
     style="display:inline">
    <path
       sodipodi:nodetypes="ccccssssssssssssssssssssssssssssssccssssssssssssssssssssssssssssssssssccccc"
       inkscape:connector-curvature="0"
       d="m 22.5,323 8.000115,10 20.000115,0 289.02198,0 c 1.64969,0 2.97779,-1.32809 2.97779,-2.97779 l 0,-9.67419 c 0,-1.6497 -1.3281,-2.97779 -2.97779,-2.97779 l -274.04442,-2e-5 c -1.64969,0 -2.97779,-1.32809 -2.97779,-2.97779 l 0,-9.67419 c 0,-1.6497 1.3281,-2.97779 2.97779,-2.97779 l 274.04442,1e-5 c 1.64969,0 2.97779,-1.32809 2.97779,-2.97779 l 0,-9.67419 c 0,-1.6497 -1.3281,-2.97779 -2.97779,-2.97779 l -274.04442,-2e-5 c -1.64969,0 -2.97779,-1.32809 -2.97779,-2.97779 l 0,-9.67419 c 0,-1.6497 1.3281,-2.97779 2.97779,-2.97779 l 274.04442,1e-5 c 1.64969,0 2.97779,-1.3281 2.97779,-2.97779 l 0,-9.67419 c 0,-1.6497 -1.3281,-2.97779 -2.97779,-2.97779 l -274.04442,-1e-5 c -1.64969,0 -2.97779,-1.32809 -2.97779,-2.97779 l 0,-9.67419 c 0,-1.6497 1.3281,-2.97779 2.97779,-2.97779 l 274.04442,0 c 1.64969,0 2.97779,-1.3281 2.97779,-2.97779 l 0,-9.67419 c 0,-1.6497 -1.3281,-2.9778 -2.97779,-2.9778 l -274.04442,0 c -1.64969,0 -2.97779,-1.32809 -2.97779,-2.97779 l 0,-9.67419 c 0,-1.6497 1.3281,-2.97779 2.97779,-2.97779 l 274.04442,0.0271 c 1.64969,0 2.97779,-1.32811 2.97779,-2.97779 l 0,-9.99506 c 0,-1.6497 -1.3281,-2.9778 -2.97779,-2.9778 l -274.04442,0 c -1.64969,0 -2.97779,-1.32809 -2.97779,-2.97779 l 0,-9.67419 c 0,-1.6497 1.3281,-2.97779 2.97779,-2.97779 l 274.04442,-2e-5 c 1.64969,0 2.97779,-1.32809 2.97779,-2.97779 l 0,-9.67419 c 0,-1.6497 -1.3281,-2.97779 -2.97779,-2.97779 l -274.04442,0 c -1.64969,0 -2.97779,-1.3281 -2.97779,-2.9778 l 0,-9.67419 c 0,-1.64969 1.3281,-2.97779 2.97779,-2.97779 l 274.04442,0 c 1.64969,0 2.97779,-1.3281 2.97779,-2.97779 l 0,-9.67419 c 0,-1.6497 -1.3281,-2.9778 -2.97779,-2.9778 l -274.04442,0 c -1.64969,0 -2.97779,-1.32809 -2.97779,-2.97779 l 0,-9.67419 c 0,-1.6497 1.3281,-2.97779 2.97779,-2.97779 l 274.04442,0 c 1.64969,0 2.97779,-1.3281 2.97779,-2.9778 l 0,-9.67418 c 0,-1.649702 -1.3281,-2.977797 -2.97779,-2.977797 l -274.04442,-1e-6 C 63.8281,98.259582 62.5,96.931486 62.5,95.281789 l 0,-9.67419 c 0,-1.649697 1.3281,-2.977792 2.97779,-2.977792 l 274.04442,-10e-7 c 1.64969,0 2.97779,-1.328096 2.97779,-2.977793 l 0,-9.67419 c 0,-1.649697 -1.3281,-2.977792 -2.97779,-2.977792 L 50.50023,67 30.500115,67 22.5,77 z"
       style="color:#000000;fill:#ffffff;stroke:none;stroke-width:1.00000036px;marker:none;visibility:visible;display:inline;overflow:visible;enable-background:accumulate"
       id="path3860"
       zpos="-1" />
    <path
       id="C-left-4-35"
       style="color:#000000;fill:none;stroke:#000000;stroke-width:1.00000036px;stroke-linecap:square;stroke-linejoin:miter;stroke-miterlimit:4;stroke-opacity:1;stroke-dasharray:none;stroke-dashoffset:0;marker:none;visibility:visible;display:inline;overflow:visible;enable-background:accumulate"
       d="m 30.5,333 10.00023,0 299.02198,0 c 1.64969,0 2.97779,-1.32809 2.97779,-2.97779 l 0,-9.67419 c 0,-1.6497 -1.3281,-2.97779 -2.97779,-2.97779 l -274.04442,-2e-5 c -1.64969,0 -2.97779,-1.32809 -2.97779,-2.97779 l 0,-9.67419 c 0,-1.6497 1.3281,-2.97779 2.97779,-2.97779 l 274.04442,1e-5 c 1.64969,0 2.97779,-1.32809 2.97779,-2.97779 l 0,-9.67419 c 0,-1.6497 -1.3281,-2.97779 -2.97779,-2.97779 l -274.04442,-2e-5 c -1.64969,0 -2.97779,-1.32809 -2.97779,-2.97779 l 0,-9.67419 c 0,-1.6497 1.3281,-2.97779 2.97779,-2.97779 l 274.04442,1e-5 c 1.64969,0 2.97779,-1.3281 2.97779,-2.97779 l 0,-9.67419 c 0,-1.6497 -1.3281,-2.97779 -2.97779,-2.97779 l -274.04442,-1e-5 c -1.64969,0 -2.97779,-1.32809 -2.97779,-2.97779 l 0,-9.67419 c 0,-1.6497 1.3281,-2.97779 2.97779,-2.97779 l 274.04442,0 c 1.64969,0 2.97779,-1.3281 2.97779,-2.97779 l 0,-9.67419 c 0,-1.6497 -1.3281,-2.9778 -2.97779,-2.9778 l -274.04442,0 c -1.64969,0 -2.97779,-1.32809 -2.97779,-2.97779 l 0,-9.67419 c 0,-1.6497 1.3281,-2.97779 2.97779,-2.97779 l 274.04442,0.0271 c 1.64969,0 2.97779,-1.32811 2.97779,-2.97779 l 0,-9.99506 c 0,-1.6497 -1.3281,-2.9778 -2.97779,-2.9778 l -274.04442,0 c -1.64969,0 -2.97779,-1.32809 -2.97779,-2.97779 l 0,-9.67419 c 0,-1.6497 1.3281,-2.97779 2.97779,-2.97779 l 274.04442,-2e-5 c 1.64969,0 2.97779,-1.32809 2.97779,-2.97779 l 0,-9.67419 c 0,-1.6497 -1.3281,-2.97779 -2.97779,-2.97779 l -274.04442,0 c -1.64969,0 -2.97779,-1.3281 -2.97779,-2.9778 l 0,-9.67419 c 0,-1.64969 1.3281,-2.97779 2.97779,-2.97779 l 274.04442,0 c 1.64969,0 2.97779,-1.3281 2.97779,-2.97779 l 0,-9.67419 c 0,-1.6497 -1.3281,-2.9778 -2.97779,-2.9778 l -274.04442,0 c -1.64969,0 -2.97779,-1.32809 -2.97779,-2.97779 l 0,-9.67419 c 0,-1.6497 1.3281,-2.97779 2.97779,-2.97779 l 274.04442,0 c 1.64969,0 2.97779,-1.3281 2.97779,-2.9778 l 0,-9.67418 c 0,-1.649702 -1.3281,-2.977797 -2.97779,-2.977797 l -274.04442,-1e-6 C 63.8281,98.259582 62.5,96.931486 62.5,95.281789 l 0,-9.67419 c 0,-1.649697 1.3281,-2.977792 2.97779,-2.977792 l 274.04442,-10e-7 c 1.64969,0 2.97779,-1.328096 2.97779,-2.977793 l 0,-9.67419 c 0,-1.649697 -1.3281,-2.977792 -2.97779,-2.977792 L 40.50023,67 30.5,67"
       inkscape:connector-curvature="0"
       sodipodi:nodetypes="cccssssssssssssssssssssssssssssssccssssssssssssssssssssssssssssssssssccc" />
  </g>
</svg>
