<?xml version="1.0" encoding="UTF-8" standalone="no"?>
<!-- Created with Inkscape (http://www.inkscape.org/) -->
<svg
   xmlns:dc="http://purl.org/dc/elements/1.1/"
   xmlns:cc="http://creativecommons.org/ns#"
   xmlns:rdf="http://www.w3.org/1999/02/22-rdf-syntax-ns#"
   xmlns:svg="http://www.w3.org/2000/svg"
   xmlns="http://www.w3.org/2000/svg"
   xmlns:sodipodi="http://sodipodi.sourceforge.net/DTD/sodipodi-0.dtd"
   xmlns:inkscape="http://www.inkscape.org/namespaces/inkscape"
   style="display:inline"
   sodipodi:docname="BF610B6E271D8C-R+_00_II_00_II_.svg"
   inkscape:version="0.48.3.1 r9886"
   version="1.1"
   id="svg2902"
   height="400"
   width="400">
  
  <g
     style="display:inline"
     inkscape:label="LINIE-001"
     layerid="element"
     id="element"
     inkscape:groupmode="layer"
     sodipodi:insensitive="true">
    <path
       id="right-top-3-1-4"
       style="fill:none;stroke:#000000;stroke-width:1.00000036px;stroke-linecap:square;stroke-linejoin:miter;stroke-opacity:1;display:inline"
       d="M 369.5,200 359.49976,200 40.50024,200 30.5,200"
       sodipodi:nodetypes="cccc" />
  </g>
  <g
     inkscape:groupmode="layer"
     id="g3372"
     layerid="element"
     inkscape:label="SCHERE-001"
     style="display:inline">
    <path
       style="fill:#ffffff;stroke:none;display:inline"
       d="m 282.54941,192.95707 -94.03356,0.48825 1.63943,5.91012 -49.18355,0 c -0.12468,-0.0668 -0.25887,0.41804 -0.37389,0.34157 -2.10926,-1.33073 -4.14179,-3.66669 -6.01134,-5.38995 -2.89541,-2.64231 -5.86753,-5.591 -9.32856,-7.78338 -1.9175,-1.20627 -3.73911,-2.12534 -5.95381,-2.45085 0.24927,7.67807 -0.76698,13.46055 -4.90876,19.98019 -9.72166,15.337 -30.1429,16.63901 -44.54324,7.53447 -16.89306,-10.68419 -20.39248,-29.76446 -9.81754,-46.44175 7.1714,-11.31601 18.62838,-17.51975 31.84946,-15.87309 10.18187,1.33074 22.33872,8.47268 31.5331,13.47969 5.11969,2.96784 14.15104,8.13759 18.65715,1.04353 4.49649,-7.09408 -4.26641,-13.94878 -9.57785,-17.03152 -9.78877,-6.19414 -21.14988,-14.17855 -26.49969,-24.81487 -5.16762,-10.52141 -4.18011,-21.47366 2.02296,-31.248363 10.93925,-17.26125 28.65684,-22.68951 46.3265,-11.51706 14.20856,8.98006 22.36748,27.055083 12.63624,42.392063 -4.25684,6.71112 -9.44364,10.65547 -16.80679,13.78605 1.87915,2.53702 4.1226,4.49002 6.80708,6.19412 4.61158,2.9104 9.76001,3.75287 12.63625,5.57187 2.69405,1.7041 4.88959,7.13237 6.07843,9.49705 l 2.63656,5.15061 49.33694,-1.04351 c 12.29109,-0.28722 25.46424,1.04351 35.82826,7.60146 9.03134,5.7059 17.78468,13.89135 19.05022,24.62342 l 0,0 0,-1.2e-4 z"
       id="path2887-3"
       sodipodi:nodetypes="ccccsccccccccccccccccsccccccc"
       inkscape:connector-curvature="0" />
    <path
       style="fill:none;stroke:#ff0000;stroke-width:1;stroke-linecap:butt;stroke-linejoin:miter;stroke-miterlimit:4;stroke-opacity:1"
       d="m 140.94215,199.27862 c -2.10926,-1.33073 -4.4861,-3.2483 -6.35565,-4.97156 -2.89541,-2.64231 -5.86753,-5.591 -9.32856,-7.78338 -1.9175,-1.20627 -3.73911,-2.12534 -5.95381,-2.45085 0.24927,7.67807 -0.76698,13.46055 -4.90876,19.98019 -9.72166,15.337 -30.1429,16.63901 -44.54324,7.53447 -16.89306,-10.68419 -20.39248,-29.76446 -9.81754,-46.44175 7.1714,-11.31601 18.62838,-17.51975 31.84946,-15.87309 10.18187,1.33074 22.33872,8.47268 31.5331,13.47969 5.11969,2.96784 14.15104,8.13759 18.65715,1.04353 4.49649,-7.09408 -4.26641,-13.94878 -9.57785,-17.03152 -9.78877,-6.19414 -21.14988,-14.17855 -26.49969,-24.81487 -5.16762,-10.52141 -4.18011,-21.47366 2.02296,-31.248361 10.93925,-17.26125 28.65684,-22.68951 46.3265,-11.51706 14.20856,8.98006 22.36748,27.055081 12.63624,42.392061 -4.25684,6.71112 -9.44364,10.65547 -16.80679,13.78605 1.87915,2.53702 4.1226,4.49002 6.80708,6.19412 4.61158,2.9104 9.76001,3.75287 12.63625,5.57187 2.69405,1.7041 4.88959,7.13237 6.07843,9.49705 l 2.63656,5.15061 49.33694,-1.04351 c 12.29109,-0.28722 25.46424,1.04351 35.82826,7.60146 9.03134,5.7059 17.78468,13.89135 19.05022,24.62342 l 0,0 0,-1.2e-4 0,0 -94.03356,0.48825 1.53469,6.23638"
       id="path2887"
       sodipodi:nodetypes="cccccccccccccccccscccccccccc"
       inkscape:connector-curvature="0" />
    <path
       style="fill:none;stroke:#ff0000;stroke-width:1;stroke-linecap:butt;stroke-linejoin:miter;stroke-miterlimit:4;stroke-opacity:1"
       d="m 171.45979,180.28156 c -0.0479,-1.61794 -0.67113,-3.14015 -2.20512,-4.10708 -3.06798,-1.94347 -6.0305,-0.30636 -7.8521,2.5753 -1.82162,2.8721 -1.97501,6.51007 1.28472,8.57798 2.69405,1.69454 5.7908,0.16273 7.48778,-2.51785 0.78617,-1.24458 1.34223,-2.91998 1.28472,-4.52835 z"
       id="path2885"
       inkscape:connector-curvature="0" />
    <path
       style="fill:none;stroke:#ff0000;stroke-width:1;stroke-linecap:butt;stroke-linejoin:miter;stroke-miterlimit:4;stroke-opacity:1"
       d="m 156.8006,105.09977 c -0.17259,-6.337731 -3.31725,-12.493591 -8.96425,-16.054991 -9.78877,-6.19415 -22.27161,-3.90605 -28.58975,6.0697 -5.95378,9.391731 -3.02963,21.741711 6.38523,27.686951 9.59703,6.06968 22.20452,2.7189 28.15832,-6.67282 2.14759,-3.37949 3.10631,-7.2281 3.01045,-11.02884 z"
       id="path2883"
       inkscape:connector-curvature="0" />
    <path
       style="fill:none;stroke:#ff0000;stroke-width:1;stroke-linecap:butt;stroke-linejoin:miter;stroke-miterlimit:4;stroke-opacity:1"
       d="m 106.85006,182.97177 c -0.14393,-6.45264 -3.38438,-12.70422 -9.26147,-16.41881 -10.18187,-6.43348 -22.39625,-2.86251 -28.71439,7.10365 -5.47441,8.63543 -2.07089,21.5024 6.37567,26.84448 9.79837,6.18458 21.96481,3.9635 28.40757,-6.19413 2.23386,-3.52311 3.27888,-7.46743 3.19262,-11.33519 z"
       id="path2881"
       inkscape:connector-curvature="0" />
    <path
       style="fill:none;stroke:#ff0000;stroke-width:1;stroke-linecap:butt;stroke-linejoin:miter;stroke-miterlimit:4;stroke-opacity:1"
       d="M 106.85006,182.97177"
       id="path3447-3"
       inkscape:connector-curvature="0" />
  </g>
</svg>
