<?xml version="1.0" encoding="UTF-8" standalone="no"?>
<!-- Created with Inkscape (http://www.inkscape.org/) -->
<svg
   xmlns:dc="http://purl.org/dc/elements/1.1/"
   xmlns:cc="http://creativecommons.org/ns#"
   xmlns:rdf="http://www.w3.org/1999/02/22-rdf-syntax-ns#"
   xmlns:svg="http://www.w3.org/2000/svg"
   xmlns="http://www.w3.org/2000/svg"
   xmlns:sodipodi="http://sodipodi.sourceforge.net/DTD/sodipodi-0.dtd"
   xmlns:inkscape="http://www.inkscape.org/namespaces/inkscape"
   style="display:inline"
   sodipodi:docname="BFB853731BF9CF-R+_CW_CW_CW_CW_.svg"
   inkscape:version="0.48.3.1 r9886"
   version="1.1"
   id="svg2902"
   height="400"
   width="400">
  
  <g
     inkscape:groupmode="layer"
     id="layer3"
     inkscape:label="SENK-002"
     style="display:inline">
    <path
       id="C-bottom-4-3-2-6"
       style="color:#000000;fill:#ffffff;stroke:none;stroke-width:1.00000036px;marker:none;visibility:visible;display:inline;overflow:visible;enable-background:accumulate"
       d="m 307,369.5 0,-36.00023 0,-266.99954 0,-36.00023 26,0 0,36.00023 0,266.99954 0,36.00023 z m -240,0 0,-36.00023 L 67,66.50023 67,30.5 l 26,0 0,36.00023 0,266.99954 0,36.00023 z"
       inkscape:connector-curvature="0"
       sodipodi:nodetypes="cccccccccccccccccc" />
    <path
       id="C-bottom-4-3-2"
       style="color:#000000;fill:none;stroke:#000000;stroke-width:1.00000036px;stroke-linecap:square;stroke-linejoin:miter;stroke-miterlimit:4;stroke-opacity:1;stroke-dasharray:none;stroke-dashoffset:0;marker:none;visibility:visible;display:inline;overflow:visible;enable-background:accumulate"
       d="m 93,30.5 0,36.00023 0,266.99954 0,36.00023 m 214,-339 0,36.00023 0,266.99954 0,36.00023 m 26,-339 0,36.00023 0,266.99954 0,36.00023 m -266,0 0,-36.00023 L 67,66.50023 67,30.5"
       inkscape:connector-curvature="0"
       sodipodi:nodetypes="cccccccccccccccc" />
  </g>
  <g
     style="display:inline"
     inkscape:label="WAAG-002"
     id="g3394"
     inkscape:groupmode="layer">
    <path
       sodipodi:nodetypes="ccccccccc"
       inkscape:connector-curvature="0"
       d="m 369.5,307 -10.00023,0 -318.99954,0 -10.00023,0 0,26 10.00023,0 318.99954,0 10.00023,0 z"
       style="color:#000000;fill:#ffffff;stroke:none;stroke-width:1.00000036px;marker:none;visibility:visible;display:inline;overflow:visible;enable-background:accumulate"
       id="path3396" />
    <path
       sodipodi:nodetypes="cccccccc"
       inkscape:connector-curvature="0"
       d="m 30.5,333 10.00023,0 318.99954,0 10.00023,0 m 0,-26 -10.00023,0 L 40.50023,307 30.5,307"
       style="color:#000000;fill:none;stroke:#000000;stroke-width:1.00000036px;stroke-linecap:square;stroke-linejoin:miter;stroke-miterlimit:4;stroke-opacity:1;stroke-dasharray:none;stroke-dashoffset:0;marker:none;visibility:visible;display:inline;overflow:visible;enable-background:accumulate"
       id="path3398" />
    <path
       sodipodi:nodetypes="ccccccccc"
       inkscape:connector-curvature="0"
       d="m 30.5,93 10.00023,0 318.99954,0 10.00023,0 0,-26 -10.00023,0 L 40.50023,67 30.5,67 z"
       style="color:#000000;fill:#ffffff;stroke:none;stroke-width:1.00000036px;marker:none;visibility:visible;display:inline;overflow:visible;enable-background:accumulate"
       id="path3400" />
    <path
       sodipodi:nodetypes="cccccccc"
       inkscape:connector-curvature="0"
       d="M 369.5,67 359.49977,67 40.50023,67 30.5,67 m 0,26 10.00023,0 318.99954,0 10.00023,0"
       style="color:#000000;fill:none;stroke:#000000;stroke-width:1.00000036px;stroke-linecap:square;stroke-linejoin:miter;stroke-miterlimit:4;stroke-opacity:1;stroke-dasharray:none;stroke-dashoffset:0;marker:none;visibility:visible;display:inline;overflow:visible;enable-background:accumulate"
       id="path3402" />
  </g>
</svg>
