<?xml version="1.0" encoding="UTF-8" standalone="no"?>
<!-- Created with Inkscape (http://www.inkscape.org/) -->
<svg
   xmlns:dc="http://purl.org/dc/elements/1.1/"
   xmlns:cc="http://creativecommons.org/ns#"
   xmlns:rdf="http://www.w3.org/1999/02/22-rdf-syntax-ns#"
   xmlns:svg="http://www.w3.org/2000/svg"
   xmlns="http://www.w3.org/2000/svg"
   xmlns:sodipodi="http://sodipodi.sourceforge.net/DTD/sodipodi-0.dtd"
   xmlns:inkscape="http://www.inkscape.org/namespaces/inkscape"
   style="display:inline"
   sodipodi:docname="C5B78450A8D16D-R+_00_II_SW_00_.svg"
   inkscape:version="0.48.3.1 r9886"
   version="1.1"
   id="svg2902"
   height="400"
   width="400">
  
  <g
     style="display:inline"
     inkscape:label="DONGLE-001"
     id="element"
     inkscape:groupmode="layer"
     sodipodi:insensitive="true">
    <path
       id="path3642-0"
       style="color:#000000;fill:#ffffff;stroke:none;stroke-width:1;marker:none;visibility:visible;display:inline;overflow:visible;enable-background:accumulate"
       d="m 210,369.5 0,-110.00024 c 0,-34.9234 44.97901,-83.32807 44.97901,-117.49976 0,-34.17169 -26.60656,-64.97901 -54.97901,-64.97901 -28.37245,0 -54.97901,29.82987 -54.97901,64.97901 0,35.14914 43.01141,82.0101 44.97901,117.49976 L 190,369.5 z"
       inkscape:connector-curvature="0"
       sodipodi:nodetypes="cczazccc" />
    <path
       id="path3642"
       style="color:#000000;fill:none;stroke:#000000;stroke-width:1;stroke-linecap:square;stroke-linejoin:miter;stroke-miterlimit:4;stroke-opacity:1;stroke-dashoffset:0;marker:none;visibility:visible;display:inline;overflow:visible;enable-background:accumulate"
       d="m 210,369.5 0,-110.00024 c 0,-34.9234 44.97901,-83.32807 44.97901,-117.49976 0,-34.17169 -26.60656,-64.97901 -54.97901,-64.97901 -28.37245,0 -54.97901,29.82987 -54.97901,64.97901 0,35.14914 43.01141,82.0101 44.97901,117.49976 L 190,369.5"
       inkscape:connector-curvature="0"
       sodipodi:nodetypes="cczazcc" />
  </g>
  <g
     style="display:inline"
     inkscape:label="SCHLINGE-002"
     id="g3818"
     inkscape:groupmode="layer">
    <path
       style="fill:none;stroke:#000000;stroke-width:1.00000036px;stroke-linecap:square;stroke-linejoin:miter;stroke-opacity:1;display:inline"
       d="m 369.5,200 -10.00024,0 -25.14732,0 C 264.7665,200 279.9179,300 211.3677,300"
       id="path3820"
       inkscape:connector-curvature="0"
       sodipodi:nodetypes="cccc" />
    <path
       id="path3822"
       style="color:#000000;fill:none;stroke:#ff0000;stroke-width:1;stroke-linecap:square;stroke-linejoin:miter;stroke-miterlimit:4;stroke-opacity:1;stroke-dashoffset:0;marker:none;visibility:visible;display:inline;overflow:visible;enable-background:accumulate"
       d="m 189.45136,299.99447 c 0,0 -3.27239,0 -6.45046,0 -6.17807,0 -10.33412,-4.62827 -10.33412,-10.3773 0,-5.74901 3.63557,-10.37792 10.33412,-10.3773 l 6.38796,6e-4 21.32989,10e-4 c 0,0 0.45701,2.7e-4 6.98401,2.7e-4 6.527,0 10.33413,-4.62828 10.33413,-10.37729 0,-5.74903 -4.60903,-10.37732 -10.33413,-10.37732 l -7.0358,0"
       inkscape:connector-curvature="0"
       sodipodi:nodetypes="cczscczcsc" />
    <path
       id="path3822-1"
       style="color:#000000;fill:none;stroke:#ff0000;stroke-width:1;stroke-linecap:square;stroke-linejoin:miter;stroke-miterlimit:4;stroke-opacity:1;stroke-dashoffset:0;marker:none;visibility:visible;display:inline;overflow:visible;enable-background:accumulate"
       d="m 189.39201,258.48343 c 0,0 -3.27239,0 -6.45046,0 -6.17807,0 -10.33412,-4.62827 -10.33412,-10.3773 0,-5.74901 3.63557,-10.37793 10.33412,-10.3773 l 6.38796,6e-4 34.94835,0.001 c 0,0 0.45701,2.7e-4 6.98401,2.7e-4 6.527,0 10.33413,-4.62828 10.33413,-10.37729 0,-5.74903 -4.60903,-10.37732 -10.33413,-10.37732 l -7.0358,0"
       inkscape:connector-curvature="0"
       sodipodi:nodetypes="cczscczcsc" />
    <path
       id="path3822-1-3"
       style="color:#000000;fill:none;stroke:#ff0000;stroke-width:1;stroke-linecap:square;stroke-linejoin:miter;stroke-miterlimit:4;stroke-opacity:1;stroke-dashoffset:0;marker:none;visibility:visible;display:inline;overflow:visible;enable-background:accumulate"
       d="m 174.66287,216.97617 c 0,0 -3.27239,0 -6.45046,0 -6.17807,0 -10.33412,-4.62827 -10.33412,-10.3773 0,-5.74901 3.63557,-10.37793 10.33412,-10.3773 l 6.38796,6e-4 71.44835,0.001 c 0,0 0.45701,2.7e-4 6.98401,2.7e-4 6.527,0 10.33413,-4.62828 10.33413,-10.37729 0,-5.74903 -4.60903,-10.37732 -10.33413,-10.37732 l -7.0358,0"
       inkscape:connector-curvature="0"
       sodipodi:nodetypes="cczscczcsc" />
    <path
       id="path3822-1-3-6"
       style="color:#000000;fill:none;stroke:#ff0000;stroke-width:1;stroke-linecap:square;stroke-linejoin:miter;stroke-miterlimit:4;stroke-opacity:1;stroke-dashoffset:0;marker:none;visibility:visible;display:inline;overflow:visible;enable-background:accumulate"
       d="m 153.31659,175.46388 c 0,0 -3.27239,0 -6.45046,0 -6.17807,0 -10.33412,-4.62827 -10.33412,-10.3773 0,-5.74901 3.63557,-10.37793 10.33412,-10.3773 l 6.38796,6e-4 102.19835,0.001 c 0,0 0.45701,2.7e-4 6.98401,2.7e-4 6.527,0 10.33413,-4.62828 10.33413,-10.37729 0,-5.74903 -4.60903,-10.37732 -10.33413,-10.37732 l -7.0358,0"
       inkscape:connector-curvature="0"
       sodipodi:nodetypes="cczscczcsc" />
    <path
       id="path3822-1-3-6-5"
       style="color:#000000;fill:none;stroke:#ff0000;stroke-width:1;stroke-linecap:square;stroke-linejoin:miter;stroke-miterlimit:4;stroke-opacity:1;stroke-dashoffset:0;marker:none;visibility:visible;display:inline;overflow:visible;enable-background:accumulate"
       d="m 144.90826,133.95455 c 0,0 -3.27239,0 -6.45046,0 -6.17806,0 -10.33412,-4.62827 -10.33412,-10.3773 0,-5.74901 3.63557,-10.37793 10.33412,-10.3773 l 6.38796,6e-4 90.13335,10e-4 c 0,0 0.45701,2.7e-4 6.98401,2.7e-4 6.527,0 10.33413,-4.62828 10.33413,-10.37729 0,-5.749032 -4.60903,-10.377322 -10.33413,-10.377322 l -7.0358,0"
       inkscape:connector-curvature="0"
       sodipodi:nodetypes="cczscczcsc" />
  </g>
</svg>
