<?xml version="1.0" encoding="UTF-8" standalone="no"?>
<!-- Created with Inkscape (http://www.inkscape.org/) -->
<svg
   xmlns:dc="http://purl.org/dc/elements/1.1/"
   xmlns:cc="http://creativecommons.org/ns#"
   xmlns:rdf="http://www.w3.org/1999/02/22-rdf-syntax-ns#"
   xmlns:svg="http://www.w3.org/2000/svg"
   xmlns="http://www.w3.org/2000/svg"
   xmlns:sodipodi="http://sodipodi.sourceforge.net/DTD/sodipodi-0.dtd"
   xmlns:inkscape="http://www.inkscape.org/namespaces/inkscape"
   style="display:inline"
   sodipodi:docname="C5B7845038C509-R+_00_II_SW_00_.svg"
   inkscape:version="0.48.3.1 r9886"
   version="1.1"
   id="svg2902"
   height="400"
   width="400">
  
  <g
     style="display:inline"
     inkscape:label="DONGLE-001"
     id="element"
     inkscape:groupmode="layer"
     sodipodi:insensitive="true">
    <path
       id="path3642-0"
       style="color:#000000;fill:#ffffff;stroke:none;stroke-width:1;marker:none;visibility:visible;display:inline;overflow:visible;enable-background:accumulate"
       d="m 210,369.5 0,-110.00024 c 0,-34.9234 44.97901,-83.32807 44.97901,-117.49976 0,-34.17169 -26.60656,-64.97901 -54.97901,-64.97901 -28.37245,0 -54.97901,29.82987 -54.97901,64.97901 0,35.14914 43.01141,82.0101 44.97901,117.49976 L 190,369.5 z"
       inkscape:connector-curvature="0"
       sodipodi:nodetypes="cczazccc" />
    <path
       id="path3642"
       style="color:#000000;fill:none;stroke:#000000;stroke-width:1;stroke-linecap:square;stroke-linejoin:miter;stroke-miterlimit:4;stroke-opacity:1;stroke-dashoffset:0;marker:none;visibility:visible;display:inline;overflow:visible;enable-background:accumulate"
       d="m 210,369.5 0,-110.00024 c 0,-34.9234 44.97901,-83.32807 44.97901,-117.49976 0,-34.17169 -26.60656,-64.97901 -54.97901,-64.97901 -28.37245,0 -54.97901,29.82987 -54.97901,64.97901 0,35.14914 43.01141,82.0101 44.97901,117.49976 L 190,369.5"
       inkscape:connector-curvature="0"
       sodipodi:nodetypes="cczazcc" />
  </g>
  <g
     inkscape:groupmode="layer"
     id="g3802"
     inkscape:label="SCHLINGE-001"
     style="display:inline"
     sodipodi:insensitive="true">
    <path
       sodipodi:nodetypes="ccc"
       inkscape:connector-curvature="0"
       id="path3804"
       d="m 369.5,200 -10.00024,0 -125.29464,0"
       style="fill:none;stroke:#000000;stroke-width:1.00000036px;stroke-linecap:square;stroke-linejoin:miter;stroke-opacity:1;display:inline" />
    <path
       sodipodi:nodetypes="cczscc"
       inkscape:connector-curvature="0"
       d="m 246.04582,175.4614 9.80666,0 c 3.42461,0 6.18161,2.73599 6.18161,6.1345 0,3.3985 -2.757,6.13448 -6.18161,6.13448 -1.75692,0 -95.88499,-0.001 -99.8919,-0.001 -4.00691,0 -6.18161,2.73599 -6.18161,6.13449 0,3.39851 2.757,6.13449 6.18161,6.13449 l 9.82149,0"
       style="color:#000000;fill:none;stroke:#ff0000;stroke-width:1;stroke-linecap:square;stroke-linejoin:miter;stroke-miterlimit:4;stroke-opacity:1;stroke-dashoffset:0;marker:none;visibility:visible;display:inline;overflow:visible;enable-background:accumulate"
       id="path3808" />
    <path
       sodipodi:nodetypes="cczscc"
       inkscape:connector-curvature="0"
       d="m 254.45315,150.92234 9.68012,0 c 3.42461,0 6.18161,2.73599 6.18161,6.1345 0,3.3985 -2.757,6.13448 -6.18161,6.13448 -1.75692,0 -116.58766,-10e-4 -120.59457,-10e-4 -4.00691,0 -6.18161,2.73599 -6.18161,6.13449 0,3.39851 2.757,6.13449 6.18161,6.13449 l 9.63238,0"
       style="color:#000000;fill:none;stroke:#ff0000;stroke-width:1;stroke-linecap:square;stroke-linejoin:miter;stroke-miterlimit:4;stroke-opacity:1;stroke-dashoffset:0;marker:none;visibility:visible;display:inline;overflow:visible;enable-background:accumulate"
       id="path3810" />
    <path
       sodipodi:nodetypes="cczscc"
       inkscape:connector-curvature="0"
       d="m 253.79633,126.38703 9.75683,0 c 3.42461,0 6.18161,2.73599 6.18161,6.1345 0,3.3985 -2.757,6.13448 -6.18161,6.13448 -1.75692,0 -123.89827,-0.001 -127.90518,-0.001 -4.00691,0 -6.18161,2.73599 -6.18161,6.13449 0,3.39851 2.757,6.13449 6.18161,6.13449 l 9.64122,0"
       style="color:#000000;fill:none;stroke:#ff0000;stroke-width:1;stroke-linecap:square;stroke-linejoin:miter;stroke-miterlimit:4;stroke-opacity:1;stroke-dashoffset:0;marker:none;visibility:visible;display:inline;overflow:visible;enable-background:accumulate"
       id="path3812" />
    <path
       sodipodi:nodetypes="cczscc"
       inkscape:connector-curvature="0"
       d="m 243.02443,101.85037 9.66416,0 c 3.42461,0 6.18161,2.73599 6.18161,6.1345 0,3.3985 -2.757,6.13448 -6.18161,6.13448 -1.75692,0 -112.06834,-10e-4 -116.07525,-10e-4 -4.00691,0 -6.18161,2.73599 -6.18161,6.13449 0,3.39851 2.757,6.13449 6.18161,6.13449 l 9.03625,0"
       style="color:#000000;fill:none;stroke:#ff0000;stroke-width:1;stroke-linecap:square;stroke-linejoin:miter;stroke-miterlimit:4;stroke-opacity:1;stroke-dashoffset:0;marker:none;visibility:visible;display:inline;overflow:visible;enable-background:accumulate"
       id="path3814" />
    <path
       sodipodi:nodetypes="csssssscscc"
       inkscape:connector-curvature="0"
       d="m 199.63692,76.812501 0,-7.348287 c 0,-3.3985 2.1747,-6.13449 6.18161,-6.13449 4.00691,0 5.57521,9.64e-4 7.83801,0.0017 l 17.16685,7.36e-4 c 3.42461,1.47e-4 6.18161,2.73599 6.18161,6.1345 l 0,13.999995 c 0,3.3985 -2.757,6.13448 -6.18161,6.13448 -1.75692,0 -76.32522,-0.001 -80.33213,-0.001 -4.00691,0 -6.18161,2.73599 -6.18161,6.13449 0,3.39851 2.757,6.134495 6.18161,6.134495 l 6.22666,0"
       style="color:#000000;fill:none;stroke:#ff0000;stroke-width:1;stroke-linecap:square;stroke-linejoin:miter;stroke-miterlimit:4;stroke-opacity:1;stroke-dashoffset:0;marker:none;visibility:visible;display:inline;overflow:visible;enable-background:accumulate"
       id="path3816" />
  </g>
</svg>
