<?xml version="1.0" encoding="UTF-8" standalone="no"?>
<!-- Created with Inkscape (http://www.inkscape.org/) -->
<svg
   xmlns:dc="http://purl.org/dc/elements/1.1/"
   xmlns:cc="http://creativecommons.org/ns#"
   xmlns:rdf="http://www.w3.org/1999/02/22-rdf-syntax-ns#"
   xmlns:svg="http://www.w3.org/2000/svg"
   xmlns="http://www.w3.org/2000/svg"
   xmlns:sodipodi="http://sodipodi.sourceforge.net/DTD/sodipodi-0.dtd"
   xmlns:inkscape="http://www.inkscape.org/namespaces/inkscape"
   style="display:inline"
   sodipodi:docname="C5B759F1A2F16F-M-_00_II_SW_00_.svg"
   inkscape:version="0.48.3.1 r9886"
   version="1.1"
   id="svg2902"
   height="400"
   width="400">
  
  <g
     inkscape:label="KA-001"
     id="g3135"
     inkscape:groupmode="layer"
     style="display:inline"
     zpos="-1000">
    <path
       d="m 440.23748,149.42808 c 7.67458,15.29262 17.49345,25.32107 29.45664,30.08532 12.20152,4.76396 29.66019,7.12854 52.37604,7.09372 3.10799,-0.005 4.6664,2.74289 4.67527,8.24284 0.008,5.26087 -1.30052,9.80638 -3.92444,13.63647 -2.62515,3.59097 -4.65484,5.38755 -6.08906,5.38975 -20.80553,-1.64206 -49.38041,-2.43526 -85.72472,-2.37962 -36.34501,0.0557 -64.91733,0.93635 -85.71704,2.64213 -1.67401,0.003 -2.51475,-2.50703 -2.52219,-7.52875 -0.008,-5.02172 1.3002,-9.56721 3.92446,-13.63646 2.62371,-4.0692 4.65303,-6.10492 6.08797,-6.10715 24.38887,-0.0373 36.57488,-5.67554 36.55799,-16.91467 -0.009,-5.97819 -2.65249,-14.34372 -7.92908,-25.09659 L 320.24244,18.329116 c -5.9966,-12.1862899 -13.30379,-21.50115 -21.92138,-27.94472 -8.61843,-6.68223 -15.67728,-10.01925 -21.17661,-10.01105 -5.49974,0.009 -8.72404,2.40489 -9.67296,7.18873 L 223.23818,145.09726 c -1.66625,5.02436 -2.49581,9.80824 -2.48869,14.35167 0.028,18.41304 17.97537,27.59207 53.84199,27.53712 1.67358,-0.003 2.5145,2.62662 2.52273,7.88745 0.008,5.26087 -1.30027,9.80636 -3.92443,13.63646 -2.62453,3.8301 -4.65404,5.74625 -6.08852,5.74845 -20.80531,-1.64208 -50.81483,-2.43307 -90.02871,-2.37303 -38.97495,0.0597 -68.74281,0.94221 -89.303661,2.64762 -1.912887,0.003 -2.872993,-2.3869 -2.880313,-7.1695 -0.0073,-4.7826 1.300829,-9.3281 3.924458,-13.63646 2.623603,-4.30835 4.65272,-6.46362 6.087404,-6.46585 29.410462,-0.045 48.652732,-4.02011 57.726902,-11.92534 9.074,-7.90516 15.27547,-17.95813 18.60443,-30.15896 l 100.9606,-353.82867 c 1.42676,-5.02349 2.13694,-9.68763 2.13057,-13.99239 -0.028,-18.17343 -19.05116,-27.23126 -57.06946,-27.17351 -2.15211,0.004 -3.23215,-2.62503 -3.24007,-7.88634 -0.009,-5.49953 1.18004,-10.04481 3.56578,-13.63591 2.6242,-3.82962 4.65373,-5.74578 6.08851,-5.74846 11.47895,1.17857 42.20547,1.72934 92.1796,1.65234 49.97366,-0.076 80.45922,-0.72054 91.45676,-1.93352 1.91256,-0.002 2.87285,2.50697 2.88085,7.52821 0.007,5.0222 -1.30077,9.56768 -3.92442,13.63646 -2.62431,4.06969 -4.65365,6.10541 -6.08799,6.10713 -28.69346,0.0444 -47.697,3.78003 -57.01065,11.20688 -9.31457,7.18862 -15.75514,17.24196 -19.32176,30.16003 l -45.66577,158.972186 c -0.47622,1.43577 -0.71334,2.75133 -0.7113,3.94673 0.002,1.19592 1.19808,1.79193 3.58938,1.78799 9.80329,-0.0148 27.36009,-11.63946 52.67044,-34.874139 L 476.98829,-210.04146 c 14.80353,-13.65265 22.2,-24.06615 22.18942,-31.2405 -0.01,-5.97779 -5.75277,-8.95812 -17.22962,-8.94102 -1.6742,0.003 -2.51491,-2.50655 -2.5222,-7.52874 -0.008,-5.26039 1.29969,-9.80587 3.92444,-13.63645 2.62359,-4.06875 4.77246,-6.10467 6.44664,-6.10771 11.00045,1.17929 33.9559,1.74197 68.86638,1.68803 34.90952,-0.053 57.86314,-0.68594 68.86086,-1.89891 1.91234,-0.002 2.87262,2.50696 2.88087,7.5282 0.007,4.78307 -1.30137,9.32856 -3.92443,13.63647 -2.62455,4.06968 -4.77343,6.10557 -6.44664,6.10767 -23.9115,0.0371 -43.27425,3.41456 -58.08831,10.13246 -14.8154,6.47964 -33.20688,19.5404 -55.17451,39.1823 L 347.02805,-56.320644 c -2.38807,2.1561 -3.58013,4.42966 -3.57621,6.82069 0.003,2.39157 0.48509,4.66257 1.44507,6.81303 l 95.34057,192.115004"
       style="font-size:455.06280518px;font-style:italic;font-variant:normal;font-weight:normal;font-stretch:normal;text-align:start;line-height:125%;letter-spacing:0px;word-spacing:0px;writing-mode:lr-tb;text-anchor:start;fill:#ffffff;fill-opacity:1;stroke:#000000;font-family:Junicode;-inkscape-font-specification:Junicode Italic"
       id="path3137"
       inkscape:connector-curvature="0"
       zpos="-2000" />
  </g>
  <g
     inkscape:groupmode="layer"
     id="layer1"
     inkscape:label="KA-001"
     style="display:inline">
    <path
       inkscape:connector-curvature="0"
       id="path3132"
       style="font-size:455.06280518px;font-style:italic;font-variant:normal;font-weight:normal;font-stretch:normal;text-align:start;line-height:125%;letter-spacing:0px;word-spacing:0px;writing-mode:lr-tb;text-anchor:start;fill:#ffffff;stroke:#000000;stroke-width:1;font-family:Junicode;-inkscape-font-specification:Junicode Italic"
       d="m 440.23746,149.42808 c 7.6746,15.29263 17.49347,25.32108 29.45666,30.08535 12.20152,4.76394 29.66019,7.12851 52.37604,7.09369 3.10798,-0.005 4.6664,2.74289 4.67527,8.24284 0.008,5.26087 -1.30052,9.80637 -3.92444,13.63647 -2.62515,3.59097 -4.65484,5.38755 -6.08906,5.38975 -20.80553,-1.64206 -49.38043,-2.43527 -85.72472,-2.37962 -36.34502,0.0557 -64.91733,0.93635 -85.71704,2.64213 -1.67402,0.003 -2.51475,-2.50703 -2.52219,-7.52875 -0.008,-5.02172 1.3002,-9.56721 3.92445,-13.63647 2.62372,-4.06922 4.65304,-6.1049 6.08797,-6.10715 24.38888,-0.0373 36.57487,-5.67553 36.55799,-16.91466 -0.009,-5.97819 -2.65248,-14.34372 -7.92908,-25.09658 L 320.24244,18.329116 c -5.99661,-12.1862999 -13.3038,-21.50116 -21.92141,-27.94471 -8.61839,-6.68223 -15.67725,-10.01924 -21.1766,-10.01105 -5.49971,0.009 -8.72402,2.40487 -9.67295,7.18871 L 223.23815,145.09727 c -1.66622,5.02435 -2.49578,9.80824 -2.48867,14.35164 0.028,18.41306 17.97538,27.59209 53.842,27.53714 1.67358,-0.003 2.51448,2.62662 2.52273,7.88745 0.008,5.26087 -1.30027,9.80636 -3.92442,13.63646 -2.62454,3.8301 -4.65406,5.74625 -6.08853,5.74845 -20.80531,-1.64208 -50.81483,-2.43307 -90.02871,-2.37303 -38.97497,0.0597 -68.74282,0.9422 -89.303684,2.64763 -1.912869,0.003 -2.872979,-2.38691 -2.880303,-7.16952 -0.0073,-4.78258 1.300828,-9.32807 3.924449,-13.63645 2.623616,-4.30834 4.652728,-6.46362 6.087404,-6.46585 29.410474,-0.045 48.652744,-4.02011 57.726894,-11.92535 9.07402,-7.90514 15.27549,-17.95813 18.60445,-30.15895 l 100.96059,-353.82867 c 1.42676,-5.02349 2.13696,-9.68763 2.13058,-13.99239 -0.028,-18.17343 -19.05117,-27.23126 -57.06944,-27.17351 -2.15212,0.004 -3.23216,-2.62502 -3.24008,-7.88634 -0.009,-5.49953 1.18003,-10.04482 3.56577,-13.63591 2.6242,-3.82962 4.65374,-5.74578 6.08851,-5.74846 11.47896,1.17857 42.20548,1.72934 92.17959,1.65234 49.97367,-0.076 80.45924,-0.72054 91.45678,-1.93352 1.91256,-0.002 2.87285,2.50697 2.88085,7.52821 0.007,5.0222 -1.30077,9.56768 -3.92442,13.63646 -2.62431,4.06969 -4.65365,6.10541 -6.08798,6.10714 -28.69347,0.0444 -47.69702,3.78002 -57.01067,11.20687 -9.31457,7.18861 -15.75514,17.24196 -19.32177,30.16003 L 278.1743,-49.758674 c -0.47622,1.43576 -0.71333,2.75134 -0.71127,3.94674 0.002,1.1959 1.19807,1.79192 3.58937,1.78798 9.80328,-0.0148 27.36008,-11.63945 52.67043,-34.874135 L 476.98829,-210.04145 c 14.80352,-13.65267 22.19999,-24.06616 22.18942,-31.24051 -0.01,-5.97779 -5.75277,-8.95812 -17.22962,-8.94102 -1.6742,0.003 -2.51491,-2.50655 -2.52221,-7.52873 -0.008,-5.2604 1.2997,-9.80588 3.92444,-13.63646 2.6236,-4.06875 4.77246,-6.10466 6.44665,-6.10771 11.00045,1.17929 33.9559,1.74197 68.86638,1.68803 34.90952,-0.053 57.86314,-0.68594 68.86088,-1.89891 1.91232,-0.002 2.87261,2.50696 2.88085,7.5282 0.007,4.78308 -1.30137,9.32856 -3.92443,13.63647 -2.62455,4.06968 -4.77342,6.10558 -6.44664,6.10767 -23.9115,0.0371 -43.27425,3.41456 -58.08832,10.13245 -14.81539,6.47966 -33.20686,19.5404 -55.17451,39.18231 L 347.02806,-56.320634 c -2.38809,2.15608 -3.58013,4.42964 -3.57623,6.82069 0.003,2.39157 0.48508,4.66255 1.44509,6.81301 l 95.34054,192.115014"
       zpos="-101" />
    <path
       style="color:#000000;fill:#000000;fill-opacity:1;fill-rule:nonzero;stroke:none;stroke-width:1;marker:none;visibility:visible;display:inline;overflow:visible;enable-background:accumulate"
       d="m 511.90306,-136.6289 c -14.54409,7.15283 -32.13293,1.16104 -39.28577,-13.38306 -7.15283,-14.54409 -1.16104,-32.13293 13.38306,-39.28576 14.54409,-7.15284 32.13292,-1.16104 39.28576,13.38305 7.15283,14.5441 1.16104,32.13293 -13.38305,39.28577 z"
       id="path3145"
       inkscape:connector-curvature="0"
       zpos="-100" />
    <path
       style="color:#000000;fill:#000000;fill-opacity:1;fill-rule:nonzero;stroke:none;stroke-width:1;marker:none;visibility:visible;display:inline;overflow:visible;enable-background:accumulate"
       d="m 492.38934,-260.92424 c -8.91151,4.38271 -19.68859,0.7114 -24.0713,-8.2001 -4.3827,-8.9115 -0.71139,-19.68858 8.20011,-24.0713 8.91149,-4.3827 19.68858,-0.71139 24.07128,8.20011 4.38272,8.9115 0.7114,19.68858 -8.20009,24.07129 z"
       id="path3145-2"
       inkscape:connector-curvature="0"
       zpos="-100" />
    <path
       style="color:#000000;fill:#000000;fill-opacity:1;fill-rule:nonzero;stroke:none;stroke-width:1;marker:none;visibility:visible;display:inline;overflow:visible;enable-background:accumulate"
       d="m 278.72875,-205.64292 c -14.54409,7.15283 -32.13292,1.16104 -39.28576,-13.38306 -7.15284,-14.54409 -1.16104,-32.13293 13.38305,-39.28576 14.5441,-7.15284 32.13294,-1.16104 39.28577,13.38305 7.15284,14.5441 1.16104,32.13293 -13.38306,39.28577 z"
       id="path3145-8"
       inkscape:connector-curvature="0"
       zpos="-100" />
  </g>
  <g
     style="display:inline"
     inkscape:label="DONGLE-001"
     id="element"
     inkscape:groupmode="layer"
     sodipodi:insensitive="true">
    <path
       id="path3642-3"
       style="color:#000000;fill:#ffff00;stroke:none;stroke-width:1;marker:none;visibility:visible;display:inline;overflow:visible;enable-background:accumulate"
       d="m 210,369.5 0,-110.00024 c 0,-34.9234 44.97901,-83.32807 44.97901,-117.49976 0,-34.17169 -26.60656,-64.97901 -54.97901,-64.97901 -28.37245,0 -54.97901,29.82987 -54.97901,64.97901 0,35.14914 43.01141,82.0101 44.97901,117.49976 L 190,369.5 z"
       inkscape:connector-curvature="0"
       sodipodi:nodetypes="cczazccc" />
    <path
       id="path3642"
       style="color:#000000;fill:#ffffff;stroke:#000000;stroke-width:1;stroke-linecap:square;stroke-linejoin:miter;stroke-miterlimit:4;stroke-opacity:1;stroke-dashoffset:0;marker:none;visibility:visible;display:inline;overflow:visible;enable-background:accumulate"
       d="m 210,369.5 0,-110.00024 c 0,-34.9234 44.97901,-83.32807 44.97901,-117.49976 0,-34.17169 -26.60656,-64.97901 -54.97901,-64.97901 -28.37245,0 -54.97901,29.82987 -54.97901,64.97901 0,35.14914 43.01141,82.0101 44.97901,117.49976 L 190,369.5"
       inkscape:connector-curvature="0"
       sodipodi:nodetypes="cczazcc" />
  </g>
  <g
     style="display:inline"
     inkscape:label="SCHLINGE-002"
     id="g3818"
     inkscape:groupmode="layer"
     sodipodi:insensitive="true">
    <path
       style="fill:none;stroke:#000000;stroke-width:1.00000036px;stroke-linecap:square;stroke-linejoin:miter;stroke-opacity:1;display:inline"
       d="m 369.5,200 -10.00024,0 -25.14732,0 c -69.58594,0 -55.24877,100 -123.79897,100"
       id="path3820"
       inkscape:connector-curvature="0"
       sodipodi:nodetypes="cccc" />
    <path
       id="path3822"
       style="color:#000000;fill:none;stroke:#ff0000;stroke-width:1;stroke-linecap:square;stroke-linejoin:miter;stroke-miterlimit:4;stroke-opacity:1;stroke-dashoffset:0;marker:none;visibility:visible;display:inline;overflow:visible;enable-background:accumulate"
       d="m 189.45136,299.99447 c 0,0 -3.27239,0 -6.45046,0 -6.17807,0 -10.33412,-4.62827 -10.33412,-10.3773 0,-5.74901 3.63557,-10.37792 10.33412,-10.3773 l 6.38796,6e-4 21.32989,10e-4 c 0,0 0.45701,2.7e-4 6.98401,2.7e-4 6.527,0 10.33413,-4.62828 10.33413,-10.37729 0,-5.74903 -4.60903,-10.37732 -10.33413,-10.37732 l -7.0358,0"
       inkscape:connector-curvature="0"
       sodipodi:nodetypes="cczscczcsc" />
    <path
       id="path3822-1"
       style="color:#000000;fill:none;stroke:#ff0000;stroke-width:1;stroke-linecap:square;stroke-linejoin:miter;stroke-miterlimit:4;stroke-opacity:1;stroke-dashoffset:0;marker:none;visibility:visible;display:inline;overflow:visible;enable-background:accumulate"
       d="m 189.39201,258.48343 c 0,0 -3.27239,0 -6.45046,0 -6.17807,0 -10.33412,-4.62827 -10.33412,-10.3773 0,-5.74901 3.63557,-10.37793 10.33412,-10.3773 l 6.38796,6e-4 34.94835,0.001 c 0,0 0.45701,2.7e-4 6.98401,2.7e-4 6.527,0 10.33413,-4.62828 10.33413,-10.37729 0,-5.74903 -4.60903,-10.37732 -10.33413,-10.37732 l -7.0358,0"
       inkscape:connector-curvature="0"
       sodipodi:nodetypes="cczscczcsc" />
    <path
       id="path3822-1-3"
       style="color:#000000;fill:none;stroke:#ff0000;stroke-width:1;stroke-linecap:square;stroke-linejoin:miter;stroke-miterlimit:4;stroke-opacity:1;stroke-dashoffset:0;marker:none;visibility:visible;display:inline;overflow:visible;enable-background:accumulate"
       d="m 174.66287,216.97617 c 0,0 -3.27239,0 -6.45046,0 -6.17807,0 -10.33412,-4.62827 -10.33412,-10.3773 0,-5.74901 3.63557,-10.37793 10.33412,-10.3773 l 6.38796,6e-4 71.44835,0.001 c 0,0 0.45701,2.7e-4 6.98401,2.7e-4 6.527,0 10.33413,-4.62828 10.33413,-10.37729 0,-5.74903 -4.60903,-10.37732 -10.33413,-10.37732 l -7.0358,0"
       inkscape:connector-curvature="0"
       sodipodi:nodetypes="cczscczcsc" />
    <path
       id="path3822-1-3-6"
       style="color:#000000;fill:none;stroke:#ff0000;stroke-width:1;stroke-linecap:square;stroke-linejoin:miter;stroke-miterlimit:4;stroke-opacity:1;stroke-dashoffset:0;marker:none;visibility:visible;display:inline;overflow:visible;enable-background:accumulate"
       d="m 153.31659,175.46388 c 0,0 -3.27239,0 -6.45046,0 -6.17807,0 -10.33412,-4.62827 -10.33412,-10.3773 0,-5.74901 3.63557,-10.37793 10.33412,-10.3773 l 6.38796,6e-4 102.19835,0.001 c 0,0 0.45701,2.7e-4 6.98401,2.7e-4 6.527,0 10.33413,-4.62828 10.33413,-10.37729 0,-5.74903 -4.60903,-10.37732 -10.33413,-10.37732 l -7.0358,0"
       inkscape:connector-curvature="0"
       sodipodi:nodetypes="cczscczcsc" />
    <path
       id="path3822-1-3-6-5"
       style="color:#000000;fill:none;stroke:#ff0000;stroke-width:1;stroke-linecap:square;stroke-linejoin:miter;stroke-miterlimit:4;stroke-opacity:1;stroke-dashoffset:0;marker:none;visibility:visible;display:inline;overflow:visible;enable-background:accumulate"
       d="m 144.90826,133.95455 c 0,0 -3.27239,0 -6.45046,0 -6.17806,0 -10.33412,-4.62827 -10.33412,-10.3773 0,-5.74901 3.63557,-10.37793 10.33412,-10.3773 l 6.38796,6e-4 90.13335,10e-4 c 0,0 0.45701,2.7e-4 6.98401,2.7e-4 6.527,0 10.33413,-4.62828 10.33413,-10.37729 0,-5.749032 -4.60903,-10.377322 -10.33413,-10.377322 l -7.0358,0"
       inkscape:connector-curvature="0"
       sodipodi:nodetypes="cczscczcsc" />
  </g>
</svg>
