<?xml version="1.0" encoding="UTF-8" standalone="no"?>
<!-- Created with Inkscape (http://www.inkscape.org/) -->
<svg
   xmlns:dc="http://purl.org/dc/elements/1.1/"
   xmlns:cc="http://creativecommons.org/ns#"
   xmlns:rdf="http://www.w3.org/1999/02/22-rdf-syntax-ns#"
   xmlns:svg="http://www.w3.org/2000/svg"
   xmlns="http://www.w3.org/2000/svg"
   xmlns:sodipodi="http://sodipodi.sourceforge.net/DTD/sodipodi-0.dtd"
   xmlns:inkscape="http://www.inkscape.org/namespaces/inkscape"
   style="display:inline"
   sodipodi:docname="C7BB3CFFA98503-R+_CB_00_CB_00_.svg"
   inkscape:version="0.48.3.1 r9886"
   version="1.1"
   id="svg2902"
   height="400"
   width="400">
  
  <g
     inkscape:groupmode="layer"
     id="g4904"
     inkscape:label="LEFT-001"
     style="display:inline">
    <path
       style="color:#000000;fill:#000000;stroke:none;stroke-width:1.00000036px;marker:none;visibility:visible;display:inline;overflow:visible;enable-background:accumulate"
       d="m 67,304.375 0,65 26,0 0,-6 214,0 0,6 26,0 0,-65 z"
       id="path4906"
       inkscape:connector-curvature="0"
       sodipodi:nodetypes="ccccccccc" />
    <path
       style="color:#000000;fill:#ffffff;stroke:none;stroke-width:1.00000012;marker:none;visibility:visible;display:inline;overflow:visible;enable-background:accumulate"
       d="m 200,257.59814 c 73.45387,0 133,20.79678 133,46.45096 0,25.65412 -59.54613,46.4509 -133,46.4509 -73.45387,0 -133,-20.79678 -133,-46.4509 0,-25.65418 59.54613,-46.45096 133,-46.45096 z"
       id="path4918"
       inkscape:connector-curvature="0" />
    <path
       style="color:#000000;fill:#ffffff;stroke:none;stroke-width:1.00000036px;marker:none;visibility:visible;display:inline;overflow:visible;enable-background:accumulate"
       d="m 93,369.37906 214,0 0,-106 c -0.28824,20.51818 -48.08406,37.125 -107,37.125 -58.91594,0 -106.71175,-16.60682 -107,-37.125 z"
       id="path4920"
       inkscape:connector-curvature="0"
       sodipodi:nodetypes="cccscc" />
    <path
       style="color:#000000;fill:none;stroke:#000000;stroke-width:1;stroke-linecap:square;stroke-linejoin:miter;stroke-miterlimit:4;stroke-opacity:1;stroke-dasharray:none;stroke-dashoffset:0;marker:none;visibility:visible;display:inline;overflow:visible;enable-background:accumulate"
       d="m 67,304.0491 c 0,-25.65418 59.54613,-46.45096 133,-46.45096 73.45387,0 133,20.79678 133,46.45096"
       id="path4922"
       inkscape:connector-curvature="0"
       sodipodi:nodetypes="csc" />
    <path
       style="color:#000000;fill:#ffffff;stroke:none;stroke-width:1.00000012;marker:none;visibility:visible;display:inline;overflow:visible;enable-background:accumulate"
       d="m 200,225.88614 c 59.09447,0 107,16.70287 107,37.30695 0,20.60404 -47.90553,37.30691 -107,37.30691 -59.09447,0 -107,-16.70287 -107,-37.30691 0,-20.60408 47.90553,-37.30695 107,-37.30695 z"
       id="path4928"
       inkscape:connector-curvature="0" />
    <path
       style="color:#000000;fill:none;stroke:#ff00ff;stroke-width:1.00000012;stroke-linecap:square;stroke-linejoin:miter;stroke-miterlimit:4;stroke-opacity:1;stroke-dashoffset:0;marker:none;visibility:visible;display:inline;overflow:visible;enable-background:accumulate"
       d="m 93,263.19309 c 0,-20.60408 47.90553,-37.30695 107,-37.30695 59.09447,0 107,16.70287 107,37.30695"
       id="path4930"
       inkscape:connector-curvature="0"
       sodipodi:nodetypes="csc" />
  </g>
  <g
     style="display:inline"
     inkscape:groupmode="layer"
     id="g5539"
     inkscape:label="SIGNAL-003">
    <path
       style="color:#000000;fill:#ff00ff;fill-opacity:1;fill-rule:nonzero;stroke:none;stroke-width:1;marker:none;visibility:visible;display:inline;overflow:visible;enable-background:accumulate"
       d="M 200,99.407835 280.96244,180.37027 200,261.3327 119.03756,180.37027 z"
       id="rect5557"
       inkscape:connector-curvature="0" />
  </g>
  <g
     style="display:inline"
     inkscape:label="LEFT-001"
     id="g5444"
     inkscape:groupmode="layer">
    <path
       sodipodi:nodetypes="cccscc"
       inkscape:connector-curvature="0"
       id="path5454"
       d="m 93,309.37906 214,0 0,-46 c -0.28824,20.51818 -48.08406,37.125 -107,37.125 -58.91594,0 -106.71175,-16.60682 -107,-37.125 z"
       style="color:#000000;fill:#ffffff;stroke:none;stroke-width:1.00000036px;marker:none;visibility:visible;display:inline;overflow:visible;enable-background:accumulate" />
    <path
       sodipodi:nodetypes="cccc"
       inkscape:connector-curvature="0"
       d="m 307,342.37906 0,-79.00023 m -214,79.00023 0,-79.00023"
       style="color:#000000;fill:none;stroke:#00ff00;stroke-width:1.00000036px;stroke-linecap:square;stroke-linejoin:miter;stroke-miterlimit:4;stroke-opacity:1;stroke-dasharray:none;stroke-dashoffset:0;marker:none;visibility:visible;display:inline;overflow:visible;enable-background:accumulate"
       id="path5456" />
    <path
       inkscape:connector-curvature="0"
       id="path5460"
       d="M 307,263.19309 C 307,283.79713 259.09447,300.5 200,300.5 140.90553,300.5 93,283.79713 93,263.19309"
       style="color:#000000;fill:none;stroke:#ff00ff;stroke-width:1.00000012;stroke-linecap:square;stroke-linejoin:miter;stroke-miterlimit:4;stroke-opacity:1;stroke-dashoffset:0;marker:none;visibility:visible;display:inline;overflow:visible;enable-background:accumulate"
       sodipodi:nodetypes="csc" />
    <path
       sodipodi:nodetypes="cccc"
       inkscape:connector-curvature="0"
       d="m 307,369.5 0,-26.12117 M 93,369.5 93,343.37883"
       style="color:#000000;fill:none;stroke:#000000;stroke-width:1.00000036px;stroke-linecap:square;stroke-linejoin:miter;stroke-miterlimit:4;stroke-opacity:1;stroke-dasharray:none;stroke-dashoffset:0;marker:none;visibility:visible;display:inline;overflow:visible;enable-background:accumulate"
       id="path5456-8" />
  </g>
  <g
     inkscape:groupmode="layer"
     id="layer1"
     inkscape:label="LEFT-001"
     zpos="2"
     style="display:inline">
    <path
       inkscape:connector-curvature="0"
       style="color:#000000;fill:#ffffff;stroke:none;stroke-width:1.00000036px;marker:none;visibility:visible;display:inline;overflow:visible;enable-background:accumulate"
       d="m 67,304.38614 c 0.52131,25.49823 59.86963,46.125 133,46.125 73.13037,0 132.47869,-20.62677 133,-46.125 l 0,18.65625 c 0,24.5852 -54.69958,44.70942 -123.90625,46.34375 l -18.1875,0 C 121.69958,367.75181 67,347.62759 67,323.04239 l 0,-18.65625 z"
       id="path4932" />
    <path
       style="color:#000000;fill:none;stroke:#ff00ff;stroke-width:1;stroke-linecap:square;stroke-linejoin:miter;stroke-miterlimit:4;stroke-opacity:1;stroke-dasharray:none;stroke-dashoffset:0;marker:none;visibility:visible;display:inline;overflow:visible;enable-background:accumulate"
       d="M 333,323.0491 C 333,348.70322 273.45387,369.5 200,369.5 126.54613,369.5 67,348.70322 67,323.0491"
       id="path4934"
       inkscape:connector-curvature="0"
       sodipodi:nodetypes="csc" />
    <path
       style="color:#000000;fill:none;stroke:#ff00ff;stroke-width:1;stroke-linecap:square;stroke-linejoin:miter;stroke-miterlimit:4;stroke-opacity:1;stroke-dasharray:none;stroke-dashoffset:0;marker:none;visibility:visible;display:inline;overflow:visible;enable-background:accumulate"
       d="M 332.90974,305.77651 C 330.30818,330.63032 271.79796,350.5 200,350.5 128.61301,350.5 70.362083,330.85713 67.140424,306.20281"
       id="path4938"
       inkscape:connector-curvature="0"
       sodipodi:nodetypes="csc" />
    <path
       id="path4936"
       style="color:#000000;fill:none;stroke:#000000;stroke-width:1.00000036px;stroke-linecap:square;stroke-linejoin:miter;stroke-miterlimit:4;stroke-opacity:1;stroke-dasharray:none;stroke-dashoffset:0;marker:none;visibility:visible;display:inline;overflow:visible;enable-background:accumulate"
       d="m 333,369.37906 0,-65.00023 m -266,65.00023 0,-65.00023"
       inkscape:connector-curvature="0"
       sodipodi:nodetypes="cccc" />
  </g>
  <g
     style="display:inline"
     inkscape:label="RIGHT-001"
     id="g4950"
     inkscape:groupmode="layer">
    <path
       style="color:#000000;fill:#000000;stroke:none;stroke-width:1.00000036px;marker:none;visibility:visible;display:inline;overflow:visible;enable-background:accumulate"
       d="m 67,30.5 0,65 266,0 0,-65 -26,0 0,6 -214,0 0,-6 z"
       id="path4954"
       inkscape:connector-curvature="0"
       sodipodi:nodetypes="ccccccccc" />
    <path
       sodipodi:nodetypes="cccscc"
       inkscape:connector-curvature="0"
       id="path4956"
       d="m 93,30.50708 214,0 0,106 c -0.28824,-20.51818 -48.08406,-37.125 -107,-37.125 -58.91594,0 -106.71176,16.60682 -107,37.125 z"
       style="color:#000000;fill:#ffffff;stroke:none;stroke-width:1.00000036px;marker:none;visibility:visible;display:inline;overflow:visible;enable-background:accumulate" />
    <path
       inkscape:connector-curvature="0"
       id="path4958"
       d="m 200,174 c 59.09447,0 107,-16.70287 107,-37.30695 0,-20.60404 -47.90553,-37.30691 -107,-37.30691 -59.09447,0 -107,16.70287 -107,37.30691 C 93,157.29713 140.90553,174 200,174 z"
       style="color:#000000;fill:#ffffff;stroke:none;stroke-width:1.00000012;marker:none;visibility:visible;display:inline;overflow:visible;enable-background:accumulate" />
    <path
       sodipodi:nodetypes="cccc"
       inkscape:connector-curvature="0"
       d="m 307,30.50708 0,106.00023 M 93,30.50708 93,136.50731"
       style="color:#000000;fill:none;stroke:#000000;stroke-width:1.00000036px;stroke-linecap:square;stroke-linejoin:miter;stroke-miterlimit:4;stroke-opacity:1;stroke-dasharray:none;stroke-dashoffset:0;marker:none;visibility:visible;display:inline;overflow:visible;enable-background:accumulate"
       id="path4960" />
    <path
       inkscape:connector-curvature="0"
       id="path4962"
       d="M 93,136.69305 C 93,157.29713 140.90553,174 200,174 c 59.09447,0 107,-16.70287 107,-37.30695"
       style="color:#000000;fill:none;stroke:#ff00ff;stroke-width:1.00000012;stroke-linecap:square;stroke-linejoin:miter;stroke-miterlimit:4;stroke-opacity:1;stroke-dashoffset:0;marker:none;visibility:visible;display:inline;overflow:visible;enable-background:accumulate"
       sodipodi:nodetypes="csc" />
    <path
       style="color:#000000;fill:#000000;stroke:none;stroke-width:1.00000012;marker:none;visibility:visible;display:inline;overflow:visible;enable-background:accumulate"
       d="m 67,95.84375 c 0,25.65418 59.54613,46.4375 133,46.4375 73.45387,0 133,-20.78332 133,-46.4375 C 333,83.61373 319.43376,72.48271 297.3125,64.1875 280.432,77.05293 243.22991,86 200,86 156.77009,86 119.568,77.05293 102.6875,64.1875 80.56624,72.48271 67,83.61373 67,95.84375 z"
       id="path4986"
       inkscape:connector-curvature="0" />
    <path
       style="color:#000000;fill:#000000;stroke:none;stroke-width:1.00000036px;marker:none;visibility:visible;display:inline;overflow:visible;enable-background:accumulate"
       d="m 67,95.5 266,0 0,-19.21875 C 333,65.95477 323.3224,56.42715 307,48.71875 306.95179,69.30853 259.06472,86 200,86 140.93528,86 93.04821,69.30853 93,48.71875 76.6776,56.42715 67,65.95477 67,76.28125 L 67,95.5 z"
       id="path4988"
       inkscape:connector-curvature="0" />
    <path
       sodipodi:nodetypes="cccc"
       inkscape:connector-curvature="0"
       d="m 333,30.50708 0,65.00023 M 67,30.50708 67,95.50731"
       style="color:#000000;fill:none;stroke:#000000;stroke-width:1.00000036px;stroke-linecap:square;stroke-linejoin:miter;stroke-miterlimit:4;stroke-opacity:1;stroke-dasharray:none;stroke-dashoffset:0;marker:none;visibility:visible;display:inline;overflow:visible;enable-background:accumulate"
       id="path4990" />
    <path
       sodipodi:nodetypes="csc"
       inkscape:connector-curvature="0"
       id="path4992"
       d="m 67,95.83704 c 0,25.65418 59.54613,46.45096 133,46.45096 73.45387,0 133,-20.79678 133,-46.45096"
       style="color:#000000;fill:none;stroke:#ff00ff;stroke-width:1;stroke-linecap:square;stroke-linejoin:miter;stroke-miterlimit:4;stroke-opacity:1;stroke-dasharray:none;stroke-dashoffset:0;marker:none;visibility:visible;display:inline;overflow:visible;enable-background:accumulate" />
    <path
       inkscape:connector-curvature="0"
       id="path4994"
       d="M 93,48.69305 C 93,69.29713 140.90553,86 200,86 259.09447,86 307,69.29713 307,48.69305"
       style="color:#000000;fill:none;stroke:#000000;stroke-width:1.00000012;stroke-linecap:square;stroke-linejoin:miter;stroke-miterlimit:4;stroke-opacity:1;stroke-dashoffset:0;marker:none;visibility:visible;display:inline;overflow:visible;enable-background:accumulate"
       sodipodi:nodetypes="csc" />
  </g>
</svg>
