<?xml version="1.0" encoding="UTF-8" standalone="no"?>
<!-- Created with Inkscape (http://www.inkscape.org/) -->
<svg
   xmlns:dc="http://purl.org/dc/elements/1.1/"
   xmlns:cc="http://creativecommons.org/ns#"
   xmlns:rdf="http://www.w3.org/1999/02/22-rdf-syntax-ns#"
   xmlns:svg="http://www.w3.org/2000/svg"
   xmlns="http://www.w3.org/2000/svg"
   xmlns:sodipodi="http://sodipodi.sourceforge.net/DTD/sodipodi-0.dtd"
   xmlns:inkscape="http://www.inkscape.org/namespaces/inkscape"
   style="display:inline"
   sodipodi:docname="C97A2A0BB34E20-R+_CW_00_II_00_.svg"
   inkscape:version="0.48.3.1 r9886"
   version="1.1"
   id="svg2902"
   height="400"
   width="400">
  
  <g
     inkscape:groupmode="layer"
     id="g3102"
     inkscape:label="III-003"
     style="display:inline">
    <path
       sodipodi:nodetypes="ccaacc"
       inkscape:connector-curvature="0"
       id="path3105"
       d="m 200,369.5 0,-12.50006 c 0,-31.86551 18.42702,-34.33405 15.41461,-52.23701 -2.58335,-15.35304 -25.77575,-22.49604 -27.15146,-38.00401 -1.54914,-17.46297 22.56343,-21.07619 22.56343,-47.50883 l 0,-38.92592"
       style="fill:none;stroke:#000000;stroke-width:1.00000036px;stroke-linecap:square;stroke-linejoin:miter;stroke-opacity:1;display:inline" />
  </g>
  <g
     style="display:inline"
     inkscape:label="CCC-001"
     id="element"
     inkscape:groupmode="layer"
     sodipodi:insensitive="true">
    <path
       id="C-top-4-2-8"
       style="color:#000000;fill:#ffffff;stroke:none;stroke-width:1.00000036px;marker:none;visibility:visible;display:inline;overflow:visible;enable-background:accumulate"
       d="m 333,30.5 0,10.000237 0,7.963714 C 333,121.75853 273.44806,181.46396 200.15347,181.46396 126.85891,181.46396 67,121.75853 67,48.463951 L 67,40.5 l 0,-10 26,0 0,10.000237 0,7.963714 C 93,107.2213 141.39613,156.56508 200.15347,156.56508 258.91083,156.56508 307,107.2213 307,48.463951 L 307,40.500237 307,30.5 z"
       inkscape:connector-curvature="0"
       sodipodi:nodetypes="ccsssccccsssccc" />
    <path
       id="C-top-3-8"
       style="color:#000000;fill:none;stroke:#000000;stroke-width:1.00000036px;stroke-linecap:square;stroke-linejoin:miter;stroke-miterlimit:4;stroke-opacity:1;stroke-dasharray:none;stroke-dashoffset:0;marker:none;visibility:visible;display:inline;overflow:visible;enable-background:accumulate"
       d="m 307,30.5 0,10.000237 0,7.963714 C 307,107.2213 258.91083,156.56508 200.15347,156.56508 141.39613,156.56508 93,107.2213 93,48.463951 L 93,40.500237 93,30.5"
       inkscape:connector-curvature="0"
       sodipodi:nodetypes="cccsccc" />
    <path
       id="C-top-4-2"
       style="color:#000000;fill:none;stroke:#000000;stroke-width:1.00000036px;stroke-linecap:square;stroke-linejoin:miter;stroke-miterlimit:4;stroke-opacity:1;stroke-dasharray:none;stroke-dashoffset:0;marker:none;visibility:visible;display:inline;overflow:visible;enable-background:accumulate"
       d="m 333,30.5 0,10.000237 0,7.963714 C 333,121.75853 273.44806,181.46396 200.15347,181.46396 126.85891,181.46396 67,121.75853 67,48.463951 L 67,40.5 l 0,-10"
       inkscape:connector-curvature="0"
       sodipodi:nodetypes="cccsccc" />
  </g>
</svg>
