<?xml version="1.0" encoding="UTF-8" standalone="no"?>
<!-- Created with Inkscape (http://www.inkscape.org/) -->
<svg
   xmlns:dc="http://purl.org/dc/elements/1.1/"
   xmlns:cc="http://creativecommons.org/ns#"
   xmlns:rdf="http://www.w3.org/1999/02/22-rdf-syntax-ns#"
   xmlns:svg="http://www.w3.org/2000/svg"
   xmlns="http://www.w3.org/2000/svg"
   xmlns:sodipodi="http://sodipodi.sourceforge.net/DTD/sodipodi-0.dtd"
   xmlns:inkscape="http://www.inkscape.org/namespaces/inkscape"
   style="display:inline"
   sodipodi:docname="CE9AFA98DFC333-R+_00_CB_CB_00_.svg"
   inkscape:version="0.48.3.1 r9886"
   version="1.1"
   id="svg2902"
   height="400"
   width="400">
  
  <g
     inkscape:groupmode="layer"
     id="layer3"
     inkscape:label="OOCO-001"
     style="display:inline">
    <path
       id="C-bottom-4-9-9"
       style="color:#000000;fill:#000000;stroke:none;stroke-width:1.00000036000000003px;marker:none;visibility:visible;display:inline;overflow:visible;enable-background:accumulate"
       d="m 307,329.49977 0,40.00023 26,0 0,-40.00023 z m -214,-65 0,105.00023 -26,0 0,-105.00023 z"
       inkscape:connector-curvature="0"
       sodipodi:nodetypes="cccccccccc" />
    <path
       id="C-bottom-4-9"
       style="color:#000000;fill:none;stroke:#000000;stroke-width:1.00000036px;stroke-linecap:square;stroke-linejoin:miter;stroke-miterlimit:4;stroke-opacity:1;stroke-dasharray:none;stroke-dashoffset:0;marker:none;visibility:visible;display:inline;overflow:visible;enable-background:accumulate"
       d="m 333,369.5 0,-40.00023 M 307,369.5 307,329.49977 M 93,369.5 93,264.49977 M 67,369.5 67,264.49977"
       inkscape:connector-curvature="0"
       sodipodi:nodetypes="cccccccc" />
  </g>
  <g
     inkscape:groupmode="layer"
     id="layer1"
     inkscape:label="OCOO-001"
     style="display:inline">
    <path
       id="C-top-4-2-2"
       style="color:#000000;fill:#000000;stroke:none;stroke-width:1.00000036000000003px;marker:none;visibility:visible;display:inline;overflow:visible;enable-background:accumulate"
       d="m 369.5,93 -10.00024,0 -177.96371,0 C 122.7787,93 73.43492,141.39613 73.43492,200.15347 73.43492,258.91083 122.7787,307 181.53605,307 l 177.96371,0 10.00024,0 0,26 -10.00024,0 -177.96371,0 C 108.24147,333 48.53604,273.44806 48.53604,200.15347 48.53604,126.85891 108.24147,67 181.53605,67 L 359.5,67 l 10,0 z"
       inkscape:connector-curvature="0"
       sodipodi:nodetypes="ccsssccccsssccc" />
    <path
       id="C-top-4-2"
       style="color:#000000;fill:none;stroke:#000000;stroke-width:1.00000036px;stroke-linecap:square;stroke-linejoin:miter;stroke-miterlimit:4;stroke-opacity:1;stroke-dasharray:none;stroke-dashoffset:0;marker:none;visibility:visible;display:inline;overflow:visible;enable-background:accumulate"
       d="m 369.5,333 -10.00024,0 -177.96371,0 C 108.24147,333 48.53604,273.44806 48.53604,200.15347 48.53604,126.85891 108.24147,67 181.53605,67 L 359.5,67 l 10,0 m 0,240 -10.00024,0 -177.96371,0 C 122.7787,307 73.43492,258.91083 73.43492,200.15347 73.43492,141.39613 122.7787,93 181.53605,93 L 359.49976,93 369.5,93"
       inkscape:connector-curvature="0"
       sodipodi:nodetypes="ccsssccccssscc" />
  </g>
</svg>
