<?xml version="1.0" encoding="UTF-8" standalone="no"?>
<!-- Created with Inkscape (http://www.inkscape.org/) -->
<svg
   xmlns:dc="http://purl.org/dc/elements/1.1/"
   xmlns:cc="http://creativecommons.org/ns#"
   xmlns:rdf="http://www.w3.org/1999/02/22-rdf-syntax-ns#"
   xmlns:svg="http://www.w3.org/2000/svg"
   xmlns="http://www.w3.org/2000/svg"
   xmlns:sodipodi="http://sodipodi.sourceforge.net/DTD/sodipodi-0.dtd"
   xmlns:inkscape="http://www.inkscape.org/namespaces/inkscape"
   style="display:inline"
   sodipodi:docname="DB792AAF2F3050-R+_00_SB_SB_00_.svg"
   inkscape:version="0.48.3.1 r9886"
   version="1.1"
   id="svg2902"
   height="400"
   width="400">
  
  <g
     inkscape:groupmode="layer"
     id="g3914"
     inkscape:label="ELEMENT-003"
     style="display:inline">
    <path
       style="font-size:medium;font-style:normal;font-variant:normal;font-weight:normal;font-stretch:normal;text-indent:0;text-align:start;text-decoration:none;line-height:normal;letter-spacing:normal;word-spacing:normal;text-transform:none;direction:ltr;block-progression:tb;writing-mode:lr-tb;text-anchor:start;baseline-shift:baseline;color:#000000;fill:#000000;fill-opacity:1;stroke:none;stroke-width:0;marker:none;visibility:visible;display:inline;overflow:visible;enable-background:accumulate;font-family:Sans;-inkscape-font-specification:Sans"
       d="m 238.74999,173.3125 c -3.33853,0.12342 -6.66846,0.41985 -9.96875,0.9375 -13.20116,2.07059 -26.02444,7.94495 -36.875,18.875 -10.75099,10.82977 -16.48004,23.46896 -18.40624,36.4375 -1.9262,12.96854 -0.39385,26.13481 2.15625,39.75 5.1002,27.23037 14.34374,56.68103 14.34374,90.1875 l 0,10 20,0 0,-10 c 0,-37.13102 -9.9396,-68.49436 -14.6875,-93.84375 -2.37395,-12.6747 -3.42757,-23.75526 -2.03125,-33.15625 1.39632,-9.40099 4.85534,-17.2658 12.8125,-25.28125 7.99397,-8.05253 16.07958,-11.69705 25.78125,-13.21875 9.70167,-1.5217 21.12884,-0.57867 34.0625,1.6875 C 291.80482,200.21984 323.354,210 359.5,210 l 10,0 0,-20 -10,0 c -32.47471,0 -62.32585,-9.12918 -90.12501,-14 -10.42468,-1.82656 -20.6094,-3.05777 -30.625,-2.6875 z"
       id="path3920-8"
       inkscape:connector-curvature="0" />
    <path
       style="font-size:medium;font-style:normal;font-variant:normal;font-weight:normal;font-stretch:normal;text-indent:0;text-align:start;text-decoration:none;line-height:normal;letter-spacing:normal;word-spacing:normal;text-transform:none;direction:ltr;block-progression:tb;writing-mode:lr-tb;text-anchor:start;baseline-shift:baseline;color:#000000;fill:none;stroke:#000000;stroke-width:1;stroke-miterlimit:4;stroke-dasharray:none;marker:none;visibility:visible;display:inline;overflow:visible;enable-background:accumulate;font-family:Sans;-inkscape-font-specification:Sans"
       d="m 210,369.5 0,-10 c 0,-37.13102 -9.9396,-68.49436 -14.6875,-93.84375 -2.37395,-12.6747 -3.42757,-23.75526 -2.03125,-33.15625 1.39632,-9.40099 4.85534,-17.2658 12.8125,-25.28125 7.99397,-8.05253 16.07958,-11.69705 25.78125,-13.21875 9.70167,-1.5217 21.12884,-0.57867 34.0625,1.6875 C 291.80482,200.21984 323.354,210 359.5,210 l 10,0 m 0,-20 -10,0 c -32.47471,0 -62.32585,-9.12918 -90.125,-14 -10.42468,-1.82656 -20.6094,-3.05777 -30.625,-2.6875 -3.33853,0.12342 -6.66846,0.41985 -9.96875,0.9375 -13.20116,2.07059 -26.02444,7.94495 -36.875,18.875 -10.751,10.82977 -16.48005,23.46896 -18.40625,36.4375 -1.9262,12.96854 -0.39385,26.13481 2.15625,39.75 C 180.75645,296.54287 190,325.99353 190,359.5 l 0,10"
       id="path3920"
       inkscape:connector-curvature="0"
       sodipodi:nodetypes="csssssssccssssssssc" />
  </g>
</svg>
