<?xml version="1.0" encoding="UTF-8" standalone="no"?>
<!-- Created with Inkscape (http://www.inkscape.org/) -->
<svg
   xmlns:dc="http://purl.org/dc/elements/1.1/"
   xmlns:cc="http://creativecommons.org/ns#"
   xmlns:rdf="http://www.w3.org/1999/02/22-rdf-syntax-ns#"
   xmlns:svg="http://www.w3.org/2000/svg"
   xmlns="http://www.w3.org/2000/svg"
   xmlns:sodipodi="http://sodipodi.sourceforge.net/DTD/sodipodi-0.dtd"
   xmlns:inkscape="http://www.inkscape.org/namespaces/inkscape"
   style="display:inline"
   sodipodi:docname="EE0354338C9045-R+_00_II_SW_00_.svg"
   inkscape:version="0.48.3.1 r9886"
   version="1.1"
   id="svg2902"
   height="400"
   width="400">
  
  <g
     style="display:inline"
     inkscape:label="II-002"
     layerid="element"
     id="g4019"
     inkscape:groupmode="layer">
    <path
       sodipodi:nodetypes="ccaaaaaaaaaaaaaaacc"
       inkscape:connector-curvature="0"
       d="m 369.5,200 -18.00024,0 c -5.47285,0 -9.07346,4.56087 -13.88325,4.13474 -5.988,-0.53051 -10.20432,-9.22947 -16.10989,-8.10617 -6.39046,1.21553 -6.80501,12.55886 -12.99481,14.55934 -5.70398,1.84347 -12.10716,-6.35636 -17.56195,-3.8706 -5.21974,2.37865 -3.16762,12.41619 -8.23051,15.11265 -5.12311,2.72853 -12.46008,-4.76979 -17.33743,-1.62296 -4.11619,2.65574 -0.87566,10.94077 -4.78264,13.89568 -4.70943,3.56182 -13.21639,-2.87086 -17.68652,0.98701 -4.23594,3.65575 0.39086,12.30576 -3.37633,16.4429 -3.44666,3.78513 -11.6115,0.3902 -14.68956,4.4807 -3.38921,4.50397 2.53287,12.01269 -0.2613,16.90811 -2.99097,5.24024 -13.08888,3.88894 -15.44166,9.44506 -2.09732,4.95286 4.38457,10.43367 3.53269,15.7444 -1.00401,6.25914 -8.62234,10.08639 -9.7584,16.32291 -1.05499,5.79143 3.44727,11.50133 3.1348,17.37977 -0.38136,7.17441 -6.053,9.39818 -6.053,20.68622 L 200,369.5"
       style="color:#000000;fill:none;stroke:#000000;stroke-width:1;stroke-linecap:butt;stroke-linejoin:miter;stroke-miterlimit:4;stroke-opacity:1;stroke-dasharray:none;stroke-dashoffset:0;marker:none;visibility:visible;display:inline;overflow:visible;enable-background:accumulate"
       id="path4021" />
  </g>
  <g
     style="display:inline"
     inkscape:label="SW-004"
     layerid="element"
     id="g3938"
     inkscape:groupmode="layer">
    <path
       inkscape:connector-curvature="0"
       id="path3993"
       d="M 194.46875,313.90625 C 191.52373,327.93967 190,343.13903 190,359.5 l 0,10 20,0 0,-10 c 0,-15.10829 1.42614,-28.90617 4.0625,-41.46875 l -19.59375,-4.125 z"
       style="font-size:medium;font-style:normal;font-variant:normal;font-weight:normal;font-stretch:normal;text-indent:0;text-align:start;text-decoration:none;line-height:normal;letter-spacing:normal;word-spacing:normal;text-transform:none;direction:ltr;block-progression:tb;writing-mode:lr-tb;text-anchor:start;baseline-shift:baseline;color:#000000;fill:#ffffff;fill-opacity:1;stroke:none;stroke-width:1;marker:none;visibility:visible;display:inline;overflow:visible;enable-background:accumulate;font-family:Sans;-inkscape-font-specification:Sans" />
    <path
       style="font-size:medium;font-style:normal;font-variant:normal;font-weight:normal;font-stretch:normal;text-indent:0;text-align:start;text-decoration:none;line-height:normal;letter-spacing:normal;word-spacing:normal;text-transform:none;direction:ltr;block-progression:tb;writing-mode:lr-tb;text-anchor:start;baseline-shift:baseline;color:#000000;fill:none;stroke:#000000;stroke-width:1;stroke-linecap:butt;stroke-linejoin:miter;stroke-miterlimit:4;stroke-opacity:1;stroke-dasharray:none;stroke-dashoffset:0;marker:none;visibility:visible;display:inline;overflow:visible;enable-background:accumulate;font-family:Sans;-inkscape-font-specification:Sans"
       d="m 210,369.5 0,-10 c 0,-15.10829 1.42614,-28.90617 4.0625,-41.46875 l -19.59375,-4.125 C 191.52373,327.93967 190,343.13903 190,359.5 l 0,10"
       id="path3940"
       inkscape:connector-curvature="0"
       sodipodi:nodetypes="csccsc" />
  </g>
</svg>
