<?xml version="1.0" encoding="UTF-8" standalone="no"?>
<!-- Created with Inkscape (http://www.inkscape.org/) -->
<svg
   xmlns:dc="http://purl.org/dc/elements/1.1/"
   xmlns:cc="http://creativecommons.org/ns#"
   xmlns:rdf="http://www.w3.org/1999/02/22-rdf-syntax-ns#"
   xmlns:svg="http://www.w3.org/2000/svg"
   xmlns="http://www.w3.org/2000/svg"
   xmlns:sodipodi="http://sodipodi.sourceforge.net/DTD/sodipodi-0.dtd"
   xmlns:inkscape="http://www.inkscape.org/namespaces/inkscape"
   style="display:inline"
   sodipodi:docname="EE03AEC5B1F5EE-R+_00_II_SW_00_.svg"
   inkscape:version="0.48.3.1 r9886"
   version="1.1"
   id="svg2902"
   height="400"
   width="400">
  
  <g
     style="display:inline"
     inkscape:label="SW-001"
     layerid="element"
     id="element"
     inkscape:groupmode="layer">
    <path
       id="bottom-left-75-8"
       style="fill:#ffffff;stroke:none;display:inline"
       d="m 210,369.5 0,-10.00024 0,-1.99976 c 0,-51.72428 15.93468,-86.43123 42.09375,-110.78125 -5.70796,-6.47454 -9.73945,-10.4396 -13.625,-14.65625 l 0,0 C 207.86058,260.55394 190,301.59058 190,357.5 l 0,1.99976 0,10.00024 z"
       inkscape:connector-curvature="0"
       sodipodi:nodetypes="cccccccccc" />
    <path
       id="bottom-left-75"
       style="fill:none;stroke:#000000;stroke-width:1.00000036px;stroke-linecap:square;stroke-linejoin:miter;stroke-opacity:1;display:inline"
       d="m 210,369.5 0,-10.00024 0,-1.99976 c 0,-51.72428 15.93468,-86.43123 42.09375,-110.78125 -5.70796,-6.47454 -9.73945,-10.4396 -13.625,-14.65625 l 0,0 C 207.86058,260.55394 190,301.59058 190,357.5 l 0,1.99976 0,10.00024"
       inkscape:connector-curvature="0"
       sodipodi:nodetypes="ccccccccc" />
  </g>
  <g
     style="display:inline"
     inkscape:label="II-002"
     layerid="element"
     id="g3053"
     inkscape:groupmode="layer">
    <path
       id="path3055"
       style="fill:none;stroke:#000000;stroke-width:1.00000036px;stroke-linecap:square;stroke-linejoin:miter;stroke-opacity:1;display:inline"
       d="m 246.5251,237.52992 c 42.28449,-24.41296 22.66072,-56.24279 48.23078,-63.04606 C 315.97934,168.83707 318.8715,200 355.49976,200 L 369.5,200"
       inkscape:connector-curvature="0"
       sodipodi:nodetypes="cacc" />
  </g>
</svg>
