<?xml version="1.0" encoding="UTF-8" standalone="no"?>
<!-- Created with Inkscape (http://www.inkscape.org/) -->
<svg
   xmlns:dc="http://purl.org/dc/elements/1.1/"
   xmlns:cc="http://creativecommons.org/ns#"
   xmlns:rdf="http://www.w3.org/1999/02/22-rdf-syntax-ns#"
   xmlns:svg="http://www.w3.org/2000/svg"
   xmlns="http://www.w3.org/2000/svg"
   xmlns:sodipodi="http://sodipodi.sourceforge.net/DTD/sodipodi-0.dtd"
   xmlns:inkscape="http://www.inkscape.org/namespaces/inkscape"
   style="display:inline"
   sodipodi:docname="F196F04E5278ED-R+_00_SW_00_00_.svg"
   inkscape:version="0.48.3.1 r9886"
   version="1.1"
   id="svg2902"
   height="400"
   width="400">
  
  <g
     style="display:inline"
     inkscape:label="PLATTE-001"
     id="element"
     inkscape:groupmode="layer">
    <path
       id="S-right-2-1-1-9"
       style="fill:#ffffff;stroke:none;display:inline"
       d="m 275.49976,190 94.00024,0 0,20 -94.00024,0 z"
       inkscape:connector-curvature="0"
       sodipodi:nodetypes="ccccc" />
    <path
       style="color:#000000;fill:#ffffff;stroke:none;stroke-width:0.99999994;marker:none;visibility:visible;display:inline;overflow:visible;enable-background:accumulate"
       d="m 285.24491,178.06565 c 5.20248,1.68123 10.75056,2.5906 16.51723,2.5906 29.71566,0 53.82134,-24.07607 53.82134,-53.79174 0,-29.715668 -24.10568,-53.79174 -53.82134,-53.79174 l 0,0 0,0 c -25.14959,0 -46.25573,17.241956 -52.14865,40.55561 -12.15891,32.82906 25.0937,64.03197 35.63142,64.43727 z"
       id="path4292-7-9"
       inkscape:connector-curvature="0"
       sodipodi:nodetypes="cssccccc" />
    <path
       id="S-right-2-1-1"
       style="fill:#ffffff;stroke:#000000;stroke-width:1;stroke-linecap:square;stroke-linejoin:miter;stroke-miterlimit:4;stroke-opacity:1;stroke-dasharray:none;display:inline"
       d="m 369.5,210 -94.00024,0 M 369.5,190 l -94.00024,0"
       inkscape:connector-curvature="0"
       sodipodi:nodetypes="cccc" />
    <path
       style="fill:#ffffff;stroke:#000000;stroke-width:1;stroke-miterlimit:4;stroke-dasharray:none;display:inline"
       inkscape:connector-curvature="0"
       id="23"
       d="m 279.8052,198.9276 c 0.73,61.754 -48.739,112.41 -110.49601,113.141 -61.754,0.73 -112.406894,-48.742 -113.137294,-110.496 C 55.441396,139.8186 104.91019,89.161499 166.66419,88.431399 228.4222,87.701399 279.0742,137.1736 279.8052,198.9276 z m 0,0" />
    <path
       style="fill:#ffffff;stroke:#000000;stroke-width:1;stroke-miterlimit:4;stroke-dasharray:none;display:inline"
       inkscape:connector-curvature="0"
       id="21"
       d="m 270.1952,199.0406 c 0.668,56.45 -44.55,102.75 -101.00001,103.414 -56.445,0.668 -102.745994,-44.55 -103.413994,-100.996 C 65.113296,145.0136 110.33219,98.712499 166.78119,98.044499 223.2272,97.376499 269.5272,142.5956 270.1952,199.0406" />
    <path
       style="fill:#ffffff;stroke:#000000;stroke-width:1;stroke-miterlimit:4;stroke-dasharray:none;display:inline"
       inkscape:connector-curvature="0"
       id="22-2"
       d="m 202.16749,199.78219 c 0.23365,18.87722 -14.89234,34.34793 -33.7691,34.58159 -18.88904,0.19677 -34.34708,-14.89271 -34.59303,-33.76993 -0.19676,-18.87721 14.89235,-34.34792 33.76909,-34.58158 18.87676,-0.24596 34.34709,14.89271 34.59304,33.76992" />
    <path
       style="fill:#ffffff;stroke:#000000;stroke-width:1;stroke-miterlimit:4;stroke-dasharray:none;display:inline"
       inkscape:connector-curvature="0"
       id="22"
       d="m 170.76619,200.1546 c 0.019,1.535 -1.211,2.793 -2.746,2.812 -1.536,0.016 -2.793,-1.211 -2.813,-2.746 -0.016,-1.535 1.211,-2.793 2.746,-2.812 1.535,-0.02 2.793,1.211 2.813,2.746" />
    <path
       style="color:#000000;fill:none;stroke:#000000;stroke-width:0.99999994;stroke-linecap:square;stroke-linejoin:miter;stroke-miterlimit:4;stroke-opacity:1;stroke-dashoffset:0;marker:none;visibility:visible;display:inline;overflow:visible;enable-background:accumulate"
       d="m 285.24491,178.06565 c 5.20248,1.68123 10.75056,2.5906 16.51723,2.5906 29.71566,0 53.82134,-24.07607 53.82134,-53.79174 0,-29.715668 -24.10568,-53.79174 -53.82134,-53.79174 l 0,0 0,0 c -25.14959,0 -46.25573,17.241956 -52.14865,40.55561"
       id="path4292-7"
       inkscape:connector-curvature="0"
       sodipodi:nodetypes="csscccc" />
    <path
       style="color:#000000;fill:none;stroke:#ff0000;stroke-width:0.99999994;stroke-linecap:square;stroke-linejoin:miter;stroke-miterlimit:4;stroke-opacity:1;stroke-dashoffset:0;marker:none;visibility:visible;display:inline;overflow:visible;enable-background:accumulate"
       d="m 276.79803,174.51073 c 2.69061,1.41389 5.51382,2.60707 8.44688,3.55492"
       id="path3680"
       inkscape:connector-curvature="0"
       sodipodi:nodetypes="cc" />
    <path
       style="color:#000000;fill:none;stroke:#ff0000;stroke-width:0.99999994;stroke-linecap:square;stroke-linejoin:miter;stroke-miterlimit:4;stroke-opacity:1;stroke-dashoffset:0;marker:none;visibility:visible;display:inline;overflow:visible;enable-background:accumulate"
       d="m 249.61349,113.62838 c -0.7079,2.8006 -1.19626,5.68882 -1.44573,8.64529"
       id="path4292"
       inkscape:connector-curvature="0"
       sodipodi:nodetypes="cc" />
  </g>
  <g
     inkscape:groupmode="layer"
     id="g4205"
     inkscape:label="TONARM-001"
     style="display:inline">
    <path
       d="m 340.45036,110.09455 c 0.90717,6.56117 -3.68837,12.61541 -10.25582,13.5232 -6.57528,0.90431 -12.63853,-3.67312 -13.54695,-10.23266 -0.90132,-6.5619 3.68835,-12.6154 10.26144,-13.525375 6.5753,-0.904313 12.63872,3.674565 13.54133,10.234835"
       id="path4235"
       inkscape:connector-curvature="0"
       style="fill:none;stroke:#000000;stroke-width:1;stroke-miterlimit:4;stroke-dasharray:none;display:inline"
       inkscape:transform-center-x="-32.025568"
       inkscape:transform-center-y="3.5526284" />
    <path
       style="fill:#ffffff;stroke:none;display:inline"
       d="m 293.0093,49.18096 c -1.30557,0.126575 -2.43038,0.355352 -3.33596,0.569681 -1.44893,0.342927 -2.32266,0.661276 -2.32266,0.661276 l 0.36306,6.432115 0.8429,-0.0491 c -6.28278,1.26944 -9.22513,3.988712 -9.22513,3.988712 l 1.16803,26.69736 2.6061,1.320756 0.22964,0.10364 c -0.058,0.0388 -0.12016,0.07187 -0.17774,0.111149 l -0.0519,-0.214785 c -8.17723,5.472351 -12.52614,15.646276 -10.12782,25.766876 2.47664,10.4767 11.41641,17.69649 21.60921,18.52982 l -0.0949,-0.33625 c 0.0221,0.002 0.043,0.0232 0.0652,0.0252 0.0118,0.10284 0.0179,0.20831 0.0297,0.31108 4.76664,39.88183 22.29568,75.28866 32.35547,97.20834 7.13959,15.5571 8.09033,29.72035 -0.0105,53.14791 l 6.91285,2.69887 c 8.7106,-25.11707 8.03089,-41.88106 0.1335,-59.09277 -10.12439,-22.05399 -26.96334,-56.5422 -31.60228,-94.58054 -0.0109,-0.093 -0.0158,-0.18699 -0.0267,-0.27997 0.15373,-0.0371 0.30823,-0.0668 0.46069,-0.10678 l -0.43396,0.38676 c 8.39623,-2.05397 14.69472,-8.23282 17.25725,-15.8685 l -0.31838,0.28149 c 1.13619,-3.20136 1.62157,-6.68839 1.27737,-10.29303 -0.1992,-2.08617 -0.66765,-4.07978 -1.35399,-5.96079 l 0.31563,0.34657 C 317.51054,95.091452 313.3421,90.403996 308.13653,87.604498 l 0.28452,0.349538 c -0.15729,-0.0884 -0.30586,-0.184585 -0.46523,-0.269498 l 0.18071,-0.08004 2.34923,-1.040519 c 0,0 -1.81885,-28.18741 -1.82914,-28.360799 -2.93505,-0.838207 -5.63275,-1.362134 -8.10214,-1.674929 l 0.3733,-0.03564 c 0,0 -0.16192,-4.90958 -0.2713,-6.786191 -2.81156,-0.702787 -5.47112,-0.736433 -7.64707,-0.52548 z m 31.67816,233.45214 -5.14449,13.51898 -0.68298,-0.24871 -10.51813,28.91198 -3.40757,-1.49536 -9.41504,20.73886 20.79373,9.66093 9.11287,-20.61583 -4.02991,-2.09517 1.4225,-4.49934 23.75185,8.75062 2.03295,-4.02397 -24.02513,-11.6126 7.55355,-18.2067 -1.37488,-0.59073 5.11182,-13.86118 -11.18114,-4.33178 z"
       id="path4283"
       inkscape:connector-curvature="0"
       inkscape:transform-center-x="-3.2355028"
       inkscape:transform-center-y="93.595118" />
    <path
       id="path4223"
       style="fill:none;stroke:#ff0000;stroke-width:1;stroke-miterlimit:4;stroke-dasharray:none;display:inline"
       d="m 302.37604,132.48028 c 8.39623,-2.05397 18.82084,-10.53399 17.70432,-24.65554 -1.11652,-14.121548 -7.95854,-16.840357 -11.94394,-20.220217 l 0,0"
       inkscape:connector-curvature="0"
       sodipodi:nodetypes="czcc" />
    <path
       sodipodi:nodetypes="ccc"
       inkscape:connector-curvature="0"
       id="path4225"
       d="m 283.10564,88.801765 c -8.17723,5.47235 -12.52614,15.646275 -10.12782,25.766885 2.47664,10.4767 11.41641,17.69648 21.60921,18.52982"
       style="fill:none;stroke:#ff0000;stroke-width:1;stroke-miterlimit:4;stroke-dasharray:none;display:inline"
       inkscape:transform-center-x="14.233222"
       inkscape:transform-center-y="2.0013813" />
    <path
       inkscape:connector-curvature="0"
       id="path4229"
       d="m 324.68772,282.62203 -5.14502,13.54279 -0.67223,-0.27158 -10.53608,28.92403 -3.39119,-1.492 -9.40888,20.74044 20.78617,9.65127 9.10548,-20.62547 -4.04402,-2.09643 1.43635,-4.4987 23.73584,8.75511 2.05911,-4.02831 -24.04369,-11.59558 7.57639,-18.21772 -1.39925,-0.57783 5.11966,-13.8656 -11.17864,-4.34442 z"
       style="fill:none;stroke:#ff0000;stroke-width:1;stroke-miterlimit:4;stroke-dasharray:none;display:inline"
       inkscape:transform-center-x="-3.6762397"
       inkscape:transform-center-y="211.29172" />
    <path
       d="m 307.566,106.36196 c 1.42352,6.0389 -2.31973,12.09375 -8.36952,13.52712 -6.05123,1.43367 -12.11569,-2.30447 -13.54498,-8.34206 -1.4253,-6.04 2.3183,-12.093432 8.36953,-13.527124 6.05106,-1.427679 12.11426,2.304784 13.54497,8.342064"
       id="path4231"
       inkscape:connector-curvature="0"
       style="fill:none;stroke:#ff0000;stroke-width:1;stroke-miterlimit:4;stroke-dasharray:none;display:inline"
       inkscape:transform-center-x="-0.064618431"
       inkscape:transform-center-y="0.75328749" />
    <path
       style="fill:none;stroke:#ff0000;stroke-width:1;stroke-miterlimit:4;stroke-dasharray:none;display:inline"
       d="m 333.85372,286.14201 c 8.71061,-25.11706 8.03301,-41.87511 0.13562,-59.08682 -10.94353,-23.83834 -29.77962,-62.19458 -32.51847,-103.8702 7.27544,-2.46786 11.60434,-10.08549 9.80194,-17.69897 -1.12693,-4.76399 -4.42081,-8.436766 -8.58202,-10.277323 l -0.27088,-5.06345 8.07032,-3.57137 c 0,0 -1.83811,-28.203663 -1.8484,-28.377052 -2.93506,-0.838207 -5.62471,-1.362807 -8.09411,-1.675601 l 0.37959,-0.02108 c 0,0 -0.16486,-4.915503 -0.27424,-6.792113 -4.4985,-1.124462 -8.5638,-0.543358 -10.97868,0.02819 l 0,-2e-6 0,0 c -1.44894,0.342928 -2.31373,0.679032 -2.31373,0.679032 l 0.35147,6.422501 0.8575,-0.03218 c -6.28278,1.269439 -9.22534,3.990536 -9.22534,3.990536 l 1.14684,26.676868 7.81049,3.981044 0.21616,4.819511 c -5.25974,3.349594 -8.10767,9.752859 -6.59507,16.147109 1.40364,5.93384 6.16092,10.19162 11.78712,11.28793 2.86528,43.67661 22.38293,82.96888 33.22541,106.59401 7.13959,15.5571 8.10963,29.73404 0.009,53.16161"
       id="path4211"
       inkscape:connector-curvature="0"
       sodipodi:nodetypes="cccccccccccccccccccccscsc"
       inkscape:transform-center-x="-7.4369"
       inkscape:transform-center-y="60.792916" />
  </g>
</svg>
