<?xml version="1.0" encoding="UTF-8" standalone="no"?>
<!-- Created with Inkscape (http://www.inkscape.org/) -->

<svg
   xmlns:dc="http://purl.org/dc/elements/1.1/"
   xmlns:cc="http://creativecommons.org/ns#"
   xmlns:rdf="http://www.w3.org/1999/02/22-rdf-syntax-ns#"
   xmlns:svg="http://www.w3.org/2000/svg"
   xmlns="http://www.w3.org/2000/svg"
   xmlns:sodipodi="http://sodipodi.sourceforge.net/DTD/sodipodi-0.dtd"
   xmlns:inkscape="http://www.inkscape.org/namespaces/inkscape"
   style="display:inline"
   sodipodi:docname="200422_OIIR-R+_XX_XX_XX_XX_.svg"
   inkscape:version="0.48.3.1 r9886"
   version="1.1"
   id="svg2902"
   height="400"
   width="400">
  <metadata
     id="metadata95">
    <rdf:RDF>
      <cc:Work
         rdf:about="">
        <dc:format>image/svg+xml</dc:format>
        <dc:type
           rdf:resource="http://purl.org/dc/dcmitype/StillImage" />
      </cc:Work>
    </rdf:RDF>
  </metadata>
  <defs
     id="defs93" />
  <sodipodi:namedview
     id="base"
     pagecolor="#f0f0f0"
     bordercolor="#666666"
     borderopacity="1.0"
     inkscape:pageopacity="1"
     inkscape:pageshadow="2"
     inkscape:zoom="0.5603464482"
     inkscape:cx="-45.81939108"
     inkscape:cy="403.2368015"
     inkscape:document-units="px"
     showgrid="false"
     inkscape:current-layer="g3263" />
  <g
     inkscape:groupmode="layer"
     id="bg"
     inkscape:label="XX_BG"
     sodipodi:insensitive="true">
    <path
       style="fill:#fff6d5"
       d="M 0,400 0,0 l 400,0 0,400 z"
       id="bgrect"
       inkscape:connector-curvature="0" />
  </g>
  <g
     inkscape:label="XX_REFERENZ"
     inkscape:groupmode="layer"
     id="XX_referenz"
     style="display:none"
     sodipodi:insensitive="true">
    <path
       id="innerframe"
       style="fill:none;stroke:#ff0000;stroke-width:1"
       d="m 40.5,40.5 319,0 0,319 -319,0 0,-319 z"
       inkscape:label="#innerframe"
       sodipodi:insensitive="true"
       inkscape:connector-curvature="0" />
    <path
       id="outerframe"
       style="fill:none;stroke:#ff0000;stroke-width:1"
       d="m 30.5,30.5 339,0 0,339 -339,0 0,-339 z"
       inkscape:label="#outerframe"
       sodipodi:nodetypes="ccccc"
       sodipodi:insensitive="true"
       inkscape:connector-curvature="0" />
    <path
       style="opacity:0.5;fill:none;stroke:#ffc200;stroke-width:1px;stroke-linecap:square"
       d="m 189,30.5 0,10"
       id="ref-S-top-1"
       sodipodi:insensitive="true"
       inkscape:connector-curvature="0" />
    <path
       style="opacity:0.5;fill:none;stroke:#ffc200;stroke-width:1px;stroke-linecap:square"
       d="m 191,30.5 0,10"
       id="ref-S-top-2"
       sodipodi:insensitive="true"
       inkscape:connector-curvature="0" />
    <path
       style="opacity:0.5;fill:none;stroke:#ffc200;stroke-width:1px;stroke-linecap:square"
       d="m 209,30.5 0,10"
       id="ref-S-top-3"
       sodipodi:insensitive="true"
       inkscape:connector-curvature="0" />
    <path
       style="opacity:0.5;fill:none;stroke:#ffc200;stroke-width:1px;stroke-linecap:square"
       d="m 211,30.5 0,10"
       id="ref-S-top-4"
       sodipodi:insensitive="true"
       inkscape:connector-curvature="0" />
    <path
       style="opacity:0.5;fill:none;stroke:#00ff00;stroke-width:1px;stroke-linecap:square"
       d="m 199,30.5 0,10"
       id="ref-I-top-1"
       sodipodi:insensitive="true"
       inkscape:connector-curvature="0" />
    <path
       style="opacity:0.5;fill:none;stroke:#00ff00;stroke-width:1px;stroke-linecap:square"
       d="m 201,30.5 0,10"
       id="ref-I-top-2"
       sodipodi:insensitive="true"
       inkscape:connector-curvature="0" />
    <path
       style="opacity:0.5;fill:none;stroke:#00ffcc;stroke-width:1px;stroke-linecap:square"
       d="m 66,30.5 0,10"
       id="ref-C-top-1"
       sodipodi:insensitive="true"
       inkscape:connector-curvature="0" />
    <path
       style="opacity:0.5;fill:none;stroke:#00ffcc;stroke-width:1px;stroke-linecap:square"
       d="m 68,30.5 0,10"
       id="ref-C-top-2"
       sodipodi:insensitive="true"
       inkscape:connector-curvature="0" />
    <path
       style="opacity:0.5;fill:none;stroke:#00ffcc;stroke-width:1px;stroke-linecap:square"
       d="m 92,30.5 0,10"
       id="ref-C-top-3"
       sodipodi:insensitive="true"
       inkscape:connector-curvature="0" />
    <path
       style="opacity:0.5;fill:none;stroke:#00ffcc;stroke-width:1px;stroke-linecap:square"
       d="m 94,30.5 0,10"
       id="ref-C-top-4"
       sodipodi:insensitive="true"
       inkscape:connector-curvature="0" />
    <path
       style="opacity:0.5;fill:none;stroke:#00ffcc;stroke-width:1px;stroke-linecap:square"
       d="m 306,30.5 0,10"
       id="ref-C-top-5"
       sodipodi:insensitive="true"
       inkscape:connector-curvature="0" />
    <path
       style="opacity:0.5;fill:none;stroke:#00ffcc;stroke-width:1px;stroke-linecap:square"
       d="m 308,30.5 0,10"
       id="ref-C-top-6"
       sodipodi:insensitive="true"
       inkscape:connector-curvature="0" />
    <path
       style="opacity:0.5;fill:none;stroke:#00ffcc;stroke-width:1px;stroke-linecap:square"
       d="m 332,30.5 0,10"
       id="ref-C-top-7"
       sodipodi:insensitive="true"
       inkscape:connector-curvature="0" />
    <path
       style="opacity:0.5;fill:none;stroke:#00ffcc;stroke-width:1px;stroke-linecap:square"
       d="m 334,30.5 0,10"
       id="ref-C-top-8"
       sodipodi:insensitive="true"
       inkscape:connector-curvature="0" />
    <path
       style="opacity:0.5;fill:none;stroke:#ffc200;stroke-width:1px;stroke-linecap:square"
       d="m 369.5,189 -10,0"
       id="ref-S-right-1"
       sodipodi:insensitive="true"
       inkscape:connector-curvature="0" />
    <path
       style="opacity:0.5;fill:none;stroke:#ffc200;stroke-width:1px;stroke-linecap:square"
       d="m 369.5,191 -10,0"
       id="ref-S-right-2"
       sodipodi:insensitive="true"
       inkscape:connector-curvature="0" />
    <path
       style="opacity:0.5;fill:none;stroke:#ffc200;stroke-width:1px;stroke-linecap:square"
       d="m 369.5,209 -10,0"
       id="ref-S-right-3"
       sodipodi:insensitive="true"
       inkscape:connector-curvature="0" />
    <path
       style="opacity:0.5;fill:none;stroke:#ffc200;stroke-width:1px;stroke-linecap:square"
       d="m 369.5,211 -10,0"
       id="ref-S-right-4"
       sodipodi:insensitive="true"
       inkscape:connector-curvature="0" />
    <path
       style="opacity:0.5;fill:none;stroke:#00ff00;stroke-width:1px;stroke-linecap:square"
       d="m 369.5,199 -10,0"
       id="ref-I-right-1"
       sodipodi:insensitive="true"
       inkscape:connector-curvature="0" />
    <path
       style="opacity:0.5;fill:none;stroke:#00ff00;stroke-width:1px;stroke-linecap:square"
       d="m 369.5,201 -10,0"
       id="ref-I-right-2"
       sodipodi:insensitive="true"
       inkscape:connector-curvature="0" />
    <path
       style="opacity:0.5;fill:none;stroke:#00ffcc;stroke-width:1px;stroke-linecap:square"
       d="m 369.5,66 -10,0"
       id="ref-C-right-1"
       sodipodi:insensitive="true"
       inkscape:connector-curvature="0" />
    <path
       style="opacity:0.5;fill:none;stroke:#00ffcc;stroke-width:1px;stroke-linecap:square"
       d="m 369.5,68 -10,0"
       id="ref-C-right-2"
       sodipodi:insensitive="true"
       inkscape:connector-curvature="0" />
    <path
       style="opacity:0.5;fill:none;stroke:#00ffcc;stroke-width:1px;stroke-linecap:square"
       d="m 369.5,92 -10,0"
       id="ref-C-right-3"
       sodipodi:insensitive="true"
       inkscape:connector-curvature="0" />
    <path
       style="opacity:0.5;fill:none;stroke:#00ffcc;stroke-width:1px;stroke-linecap:square"
       d="m 369.5,94 -10,0"
       id="ref-C-right-4"
       sodipodi:insensitive="true"
       inkscape:connector-curvature="0" />
    <path
       style="opacity:0.5;fill:none;stroke:#00ffcc;stroke-width:1px;stroke-linecap:square"
       d="m 369.5,306 -10,0"
       id="ref-C-right-5"
       sodipodi:insensitive="true"
       inkscape:connector-curvature="0" />
    <path
       style="opacity:0.5;fill:none;stroke:#00ffcc;stroke-width:1px;stroke-linecap:square"
       d="m 369.5,308 -10,0"
       id="ref-C-right-6"
       sodipodi:insensitive="true"
       inkscape:connector-curvature="0" />
    <path
       style="opacity:0.5;fill:none;stroke:#00ffcc;stroke-width:1px;stroke-linecap:square"
       d="m 369.5,332 -10,0"
       id="ref-C-right-7"
       sodipodi:insensitive="true"
       inkscape:connector-curvature="0" />
    <path
       style="opacity:0.5;fill:none;stroke:#00ffcc;stroke-width:1px;stroke-linecap:square"
       d="m 369.5,334 -10,0"
       id="ref-C-right-8"
       sodipodi:insensitive="true"
       inkscape:connector-curvature="0" />
    <path
       style="opacity:0.5;fill:none;stroke:#ffc200;stroke-width:1px;stroke-linecap:square"
       d="m 189,369.5 0,-10"
       id="ref-S-bottom-1"
       sodipodi:insensitive="true"
       inkscape:connector-curvature="0" />
    <path
       style="opacity:0.5;fill:none;stroke:#ffc200;stroke-width:1px;stroke-linecap:square"
       d="m 191,369.5 0,-10"
       id="ref-S-bottom-2"
       sodipodi:insensitive="true"
       inkscape:connector-curvature="0" />
    <path
       style="opacity:0.5;fill:none;stroke:#ffc200;stroke-width:1px;stroke-linecap:square"
       d="m 209,369.5 0,-10"
       id="ref-S-bottom-3"
       sodipodi:insensitive="true"
       inkscape:connector-curvature="0" />
    <path
       style="opacity:0.5;fill:none;stroke:#ffc200;stroke-width:1px;stroke-linecap:square"
       d="m 211,369.5 0,-10"
       id="ref-S-bottom-4"
       sodipodi:insensitive="true"
       inkscape:connector-curvature="0" />
    <path
       style="opacity:0.5;fill:none;stroke:#00ff00;stroke-width:1px;stroke-linecap:square"
       d="m 199,369.5 0,-10"
       id="ref-I-bottom-1"
       sodipodi:insensitive="true"
       inkscape:connector-curvature="0" />
    <path
       style="opacity:0.5;fill:none;stroke:#00ff00;stroke-width:1px;stroke-linecap:square"
       d="m 201,369.5 0,-10"
       id="ref-I-bottom-2"
       sodipodi:insensitive="true"
       inkscape:connector-curvature="0" />
    <path
       style="opacity:0.5;fill:none;stroke:#00ffcc;stroke-width:1px;stroke-linecap:square"
       d="m 66,369.5 0,-10"
       id="ref-C-bottom-1"
       sodipodi:insensitive="true"
       inkscape:connector-curvature="0" />
    <path
       style="opacity:0.5;fill:none;stroke:#00ffcc;stroke-width:1px;stroke-linecap:square"
       d="m 68,369.5 0,-10"
       id="ref-C-bottom-2"
       sodipodi:insensitive="true"
       inkscape:connector-curvature="0" />
    <path
       style="opacity:0.5;fill:none;stroke:#00ffcc;stroke-width:1px;stroke-linecap:square"
       d="m 92,369.5 0,-10"
       id="ref-C-bottom-3"
       sodipodi:insensitive="true"
       inkscape:connector-curvature="0" />
    <path
       style="opacity:0.5;fill:none;stroke:#00ffcc;stroke-width:1px;stroke-linecap:square"
       d="m 94,369.5 0,-10"
       id="ref-C-bottom-4"
       sodipodi:insensitive="true"
       inkscape:connector-curvature="0" />
    <path
       style="opacity:0.5;fill:none;stroke:#00ffcc;stroke-width:1px;stroke-linecap:square"
       d="m 306,369.5 0,-10"
       id="ref-C-bottom-5"
       sodipodi:insensitive="true"
       inkscape:connector-curvature="0" />
    <path
       style="opacity:0.5;fill:none;stroke:#00ffcc;stroke-width:1px;stroke-linecap:square"
       d="m 308,369.5 0,-10"
       id="ref-C-bottom-6"
       sodipodi:insensitive="true"
       inkscape:connector-curvature="0" />
    <path
       style="opacity:0.5;fill:none;stroke:#00ffcc;stroke-width:1px;stroke-linecap:square"
       d="m 332,369.5 0,-10"
       id="ref-C-bottom-7"
       sodipodi:insensitive="true"
       inkscape:connector-curvature="0" />
    <path
       style="opacity:0.5;fill:none;stroke:#00ffcc;stroke-width:1px;stroke-linecap:square"
       d="m 334,369.5 0,-10"
       id="ref-C-bottom-8"
       sodipodi:insensitive="true"
       inkscape:connector-curvature="0" />
    <path
       style="opacity:0.5;fill:none;stroke:#ffc200;stroke-width:1px;stroke-linecap:square"
       d="m 30.5,189 10,0"
       id="ref-S-left-1"
       sodipodi:insensitive="true"
       inkscape:connector-curvature="0" />
    <path
       style="opacity:0.5;fill:none;stroke:#ffc200;stroke-width:1px;stroke-linecap:square"
       d="m 30.5,191 10,0"
       id="ref-S-left-2"
       sodipodi:insensitive="true"
       inkscape:connector-curvature="0" />
    <path
       style="opacity:0.5;fill:none;stroke:#ffc200;stroke-width:1px;stroke-linecap:square"
       d="m 30.5,209 10,0"
       id="ref-S-left-3"
       sodipodi:insensitive="true"
       inkscape:connector-curvature="0" />
    <path
       style="opacity:0.5;fill:none;stroke:#ffc200;stroke-width:1px;stroke-linecap:square"
       d="m 30.5,211 10,0"
       id="ref-S-left-4"
       sodipodi:insensitive="true"
       inkscape:connector-curvature="0" />
    <path
       style="opacity:0.5;fill:none;stroke:#00ff00;stroke-width:1px;stroke-linecap:square"
       d="m 40.5,199 -10,0"
       id="ref-I-left-1"
       sodipodi:insensitive="true"
       inkscape:connector-curvature="0" />
    <path
       style="opacity:0.5;fill:none;stroke:#00ff00;stroke-width:1px;stroke-linecap:square"
       d="m 40.5,201 -10,0"
       id="ref-I-left-2"
       sodipodi:insensitive="true"
       inkscape:connector-curvature="0" />
    <path
       style="opacity:0.5;fill:none;stroke:#00ffcc;stroke-width:1px;stroke-linecap:square"
       d="m 30.5,66 10,0"
       id="ref-C-left-1"
       sodipodi:insensitive="true"
       inkscape:connector-curvature="0" />
    <path
       style="opacity:0.5;fill:none;stroke:#00ffcc;stroke-width:1px;stroke-linecap:square"
       d="m 30.5,68 10,0"
       id="ref-C-left-2"
       sodipodi:insensitive="true"
       inkscape:connector-curvature="0" />
    <path
       style="opacity:0.5;fill:none;stroke:#00ffcc;stroke-width:1px;stroke-linecap:square"
       d="m 30.5,92 10,0"
       id="ref-C-left-3"
       sodipodi:insensitive="true"
       inkscape:connector-curvature="0" />
    <path
       style="opacity:0.5;fill:none;stroke:#00ffcc;stroke-width:1px;stroke-linecap:square"
       d="m 30.5,94 10,0"
       id="ref-C-left-4"
       sodipodi:insensitive="true"
       inkscape:connector-curvature="0" />
    <path
       style="opacity:0.5;fill:none;stroke:#00ffcc;stroke-width:1px;stroke-linecap:square"
       d="m 30.5,306 10,0"
       id="ref-C-left-5"
       sodipodi:insensitive="true"
       inkscape:connector-curvature="0" />
    <path
       style="opacity:0.5;fill:none;stroke:#00ffcc;stroke-width:1px;stroke-linecap:square"
       d="m 30.5,308 10,0"
       id="ref-C-left-6"
       sodipodi:insensitive="true"
       inkscape:connector-curvature="0" />
    <path
       style="opacity:0.5;fill:none;stroke:#00ffcc;stroke-width:1px;stroke-linecap:square"
       d="m 30.5,332 10,0"
       id="ref-C-left-7"
       sodipodi:insensitive="true"
       inkscape:connector-curvature="0" />
    <path
       style="opacity:0.5;fill:none;stroke:#00ffcc;stroke-width:1px;stroke-linecap:square"
       d="m 30.5,334 10,0"
       id="ref-C-left-8"
       sodipodi:insensitive="true"
       inkscape:connector-curvature="0" />
    <path
       style="fill:none;stroke:#000000;stroke-width:1px;stroke-linecap:butt"
       d="m 190,30 0,11"
       id="S-top-1"
       inkscape:connector-curvature="0"
       sodipodi:nodetypes="cc" />
    <path
       style="fill:none;stroke:#000000;stroke-width:1px;stroke-linecap:butt"
       d="m 210,30 0,11"
       id="S-top-2"
       inkscape:connector-curvature="0"
       sodipodi:nodetypes="cc" />
    <path
       style="fill:none;stroke:#000000;stroke-width:1px;stroke-linecap:butt"
       d="m 370,190 -11,0"
       id="S-right-1"
       inkscape:connector-curvature="0"
       sodipodi:nodetypes="cc" />
    <path
       style="fill:none;stroke:#000000;stroke-width:1px;stroke-linecap:butt"
       d="m 370,210 -11,0"
       id="S-right-2"
       inkscape:connector-curvature="0"
       sodipodi:nodetypes="cc" />
    <path
       style="fill:none;stroke:#000000;stroke-width:1px;stroke-linecap:butt"
       d="m 190,370 0,-11"
       id="S-bottom-1"
       inkscape:connector-curvature="0"
       sodipodi:nodetypes="cc" />
    <path
       style="fill:none;stroke:#000000;stroke-width:1px;stroke-linecap:butt"
       d="m 210,370 0,-11"
       id="S-bottom-2"
       inkscape:connector-curvature="0"
       sodipodi:nodetypes="cc" />
    <path
       style="fill:none;stroke:#000000;stroke-width:1px;stroke-linecap:butt"
       d="m 30,190 11,0"
       id="S-left-1"
       inkscape:connector-curvature="0"
       sodipodi:nodetypes="cc" />
    <path
       style="fill:none;stroke:#000000;stroke-width:1px;stroke-linecap:butt"
       d="m 30,210 11,0"
       id="S-left-2"
       inkscape:connector-curvature="0"
       sodipodi:nodetypes="cc" />
    <path
       style="fill:none;stroke:#000000;stroke-width:1px;stroke-linecap:butt"
       d="m 200,30 0,11"
       id="I-top-1"
       inkscape:connector-curvature="0"
       sodipodi:nodetypes="cc" />
    <path
       style="fill:none;stroke:#000000;stroke-width:1px;stroke-linecap:butt"
       d="m 370,200 -11,0"
       id="I-right-1"
       inkscape:connector-curvature="0"
       sodipodi:nodetypes="cc" />
    <path
       style="fill:none;stroke:#000000;stroke-width:1px;stroke-linecap:butt"
       d="m 200,370 0,-11"
       id="I-bottom-1"
       inkscape:connector-curvature="0"
       sodipodi:nodetypes="cc" />
    <path
       style="fill:none;stroke:#000000;stroke-width:1px;stroke-linecap:butt"
       d="m 41,200 -11,0"
       id="I-left-1"
       inkscape:connector-curvature="0"
       sodipodi:nodetypes="cc" />
    <path
       style="fill:none;stroke:#000000;stroke-width:1px;stroke-linecap:butt"
       d="m 67,30 0,11"
       id="C-top-1"
       inkscape:connector-curvature="0"
       sodipodi:nodetypes="cc" />
    <path
       style="fill:none;stroke:#000000;stroke-width:1px;stroke-linecap:butt"
       d="m 93,30 0,11"
       id="C-top-2"
       inkscape:connector-curvature="0"
       sodipodi:nodetypes="cc" />
    <path
       style="fill:none;stroke:#000000;stroke-width:1px;stroke-linecap:butt"
       d="m 307,30 0,11"
       id="C-top-3"
       inkscape:connector-curvature="0"
       sodipodi:nodetypes="cc" />
    <path
       style="fill:none;stroke:#000000;stroke-width:1px;stroke-linecap:butt"
       d="m 333,30 0,11"
       id="C-top-4"
       inkscape:connector-curvature="0"
       sodipodi:nodetypes="cc" />
    <path
       style="fill:none;stroke:#000000;stroke-width:1px;stroke-linecap:butt"
       d="m 370,67 -11,0"
       id="C-right-1"
       inkscape:connector-curvature="0"
       sodipodi:nodetypes="cc" />
    <path
       style="fill:none;stroke:#000000;stroke-width:1px;stroke-linecap:butt"
       d="m 370,93 -11,0"
       id="C-right-2"
       inkscape:connector-curvature="0"
       sodipodi:nodetypes="cc" />
    <path
       style="fill:none;stroke:#000000;stroke-width:1px;stroke-linecap:butt"
       d="m 370,307 -11,0"
       id="C-right-3"
       inkscape:connector-curvature="0"
       sodipodi:nodetypes="cc" />
    <path
       style="fill:none;stroke:#000000;stroke-width:1px;stroke-linecap:butt"
       d="m 370,333 -11,0"
       id="C-right-4"
       inkscape:connector-curvature="0"
       sodipodi:nodetypes="cc" />
    <path
       style="fill:none;stroke:#000000;stroke-width:1px;stroke-linecap:butt"
       d="m 67,370 0,-11"
       id="C-bottom-1"
       inkscape:connector-curvature="0"
       sodipodi:nodetypes="cc" />
    <path
       style="fill:none;stroke:#000000;stroke-width:1px;stroke-linecap:butt"
       d="m 93,370 0,-11"
       id="C-bottom-2"
       inkscape:connector-curvature="0"
       sodipodi:nodetypes="cc" />
    <path
       style="fill:none;stroke:#000000;stroke-width:1px;stroke-linecap:butt"
       d="m 307,370 0,-11"
       id="C-bottom-3"
       inkscape:connector-curvature="0"
       sodipodi:nodetypes="cc" />
    <path
       style="fill:none;stroke:#000000;stroke-width:1px;stroke-linecap:butt"
       d="m 333,370 0,-11"
       id="C-bottom-4"
       inkscape:connector-curvature="0"
       sodipodi:nodetypes="cc" />
    <path
       style="fill:none;stroke:#000000;stroke-width:1px;stroke-linecap:butt"
       d="m 30,67 11,0"
       id="C-left-1"
       inkscape:connector-curvature="0"
       sodipodi:nodetypes="cc" />
    <path
       style="fill:none;stroke:#000000;stroke-width:1px;stroke-linecap:butt"
       d="m 30,93 11,0"
       id="C-left-2"
       inkscape:connector-curvature="0"
       sodipodi:nodetypes="cc" />
    <path
       style="fill:none;stroke:#000000;stroke-width:1px;stroke-linecap:butt"
       d="m 30,307 11,0"
       id="C-left-3"
       inkscape:connector-curvature="0"
       sodipodi:nodetypes="cc" />
    <path
       style="fill:none;stroke:#000000;stroke-width:1px;stroke-linecap:butt"
       d="m 30,333 11,0"
       id="C-left-4"
       inkscape:connector-curvature="0"
       sodipodi:nodetypes="cc" />
  </g>
  <g
     inkscape:groupmode="layer"
     id="layer1"
     inkscape:label="LMNT-010"
     connect="00UW0000"
     style="display:none"
     zpos="2"
     sodipodi:insensitive="true">
    <path
       sodipodi:nodetypes="csssssssssscc"
       inkscape:connector-curvature="0"
       id="path3207"
       d="m 370,67 -87,0 c -58.649217,0 -70.9028494,26.69637928 -76.4296382,51.2207458 l -25.1407236,111.5585084 c -5.0829419,22.5548568 10.7932563,27.4654202 19,5 l 26.1407236,-71.5585084 C 234.0338497,142.7899394 249.3017455,148.4770341 247,166 l -31,236 c -2.0017365,15.2390266 16.2169004,19.2095258 22.0317352,2.4024522 l 14.6872721,-42.4517758 C 259.6874553,341.809224 273.5867128,333 299,333 l 71,0 z"
       style="fill:#ffffff;stroke:none" />
    <path
       style="fill:none;stroke:#000000;stroke-width:1px;stroke-linecap:butt;display:inline"
       d="m 370,67 -87,0 c -58.649217,0 -70.9028494,26.69637928 -76.4296382,51.2207458 l -25.1407236,111.5585084 c -5.0829419,22.5548568 10.7932563,27.4654202 19,5 l 26.1407236,-71.5585084 C 234.0338497,142.7899394 249.3017455,148.4770341 247,166 l -31,236 c -2.0017365,15.2390266 16.2169004,19.2095258 22.0317352,2.4024522 l 14.6872721,-42.4517758 C 259.6874553,341.809224 273.5867128,333 299,333 l 71,0"
       id="C-right-4-6"
       inkscape:connector-curvature="0"
       sodipodi:nodetypes="cssssssssssc" />
  </g>
  <g
     connect="00UW0000"
     inkscape:label="LMNT-015"
     id="g3098"
     inkscape:groupmode="layer"
     style="display:none"
     zpos="2"
     sodipodi:insensitive="true">
    <path
       style="fill:#ffffff;stroke:none"
       d="m 370,67 -120,0 c -62.8951264,0 -84.5574129,13.26642959 -103.4296382,71.2207458 l -30.1407236,92.5585084 c -6.4961934,19.9490225 10.9112762,29.9271612 21,10 l 29.1407236,-57.5585084 C 176.3952382,163.8147338 190.104336,168.6012798 187,186 l -43,241 c -4.5477677,25.4886514 15.1618072,29.7570227 23.0317352,5.4024522 l 14.6872721,-45.4517758 C 195.9353443,342.9562738 205.8426772,333 256,333 l 114,0 z"
       id="path3209"
       inkscape:connector-curvature="0"
       sodipodi:nodetypes="csssssssssscc" />
    <path
       sodipodi:nodetypes="cssssssssssc"
       inkscape:connector-curvature="0"
       id="path3100"
       d="m 370,67 -120,0 c -62.8951264,0 -84.5574129,13.26642959 -103.4296382,71.2207458 l -30.1407236,92.5585084 c -6.4961934,19.9490225 10.9112762,29.9271612 21,10 l 29.1407236,-57.5585084 C 176.3952382,163.8147338 190.104336,168.6012798 187,186 l -43,241 c -4.5477677,25.4886514 15.1618072,29.7570227 23.0317352,5.4024522 l 14.6872721,-45.4517758 C 195.9353443,342.9562738 205.8426772,333 256,333 l 114,0"
       style="fill:none;stroke:#000000;stroke-width:1px;stroke-linecap:butt;display:inline" />
  </g>
  <g
     style="display:none"
     inkscape:groupmode="layer"
     id="g3102"
     inkscape:label="LMNT-020"
     connect="00UW0000"
     zpos="2"
     sodipodi:insensitive="true">
    <path
       sodipodi:nodetypes="csssssssssscc"
       inkscape:connector-curvature="0"
       id="path3211"
       d="m 370,67 -116,0 c -62.8951264,0 -83.5262874,12.95983537 -101.4296382,71.2207458 l -24.1407236,78.5585084 c -4.3905226,14.2875961 10.8483871,19.3562543 17,7 l 32.1407236,-64.5585084 C 187.2644236,139.749057 202.1924392,144.8309633 198,162 l -63,258 c -6.1418093,25.1521712 13.3709329,34.0464664 27.0317352,12.4024522 l 28.6872721,-45.4517758 C 215.3960525,347.8526568 219.8426772,333 270,333 l 100,0 z"
       style="fill:#ffffff;stroke:none" />
    <path
       style="fill:none;stroke:#000000;stroke-width:1px;stroke-linecap:butt;display:inline"
       d="m 370,67 -116,0 c -62.8951264,0 -83.5262874,12.95983537 -101.4296382,71.2207458 l -24.1407236,78.5585084 c -4.3905226,14.2875961 10.8483871,19.3562543 17,7 l 32.1407236,-64.5585084 C 187.2644236,139.749057 202.1924392,144.8309633 198,162 l -63,258 c -6.1418093,25.1521712 13.3709329,34.0464664 27.0317352,12.4024522 l 28.6872721,-45.4517758 C 215.3960525,347.8526568 219.8426772,333 270,333 l 100,0"
       id="path3104"
       inkscape:connector-curvature="0"
       sodipodi:nodetypes="cssssssssssc" />
  </g>
  <g
     connect="00UW0000"
     inkscape:label="LMNT-025"
     id="g3106"
     inkscape:groupmode="layer"
     style="display:none"
     zpos="2"
     sodipodi:insensitive="true">
    <path
       style="fill:#ffffff;stroke:none"
       d="m 370,67 -127,0 c -62.0976238,0 -99.3560265,9.63054762 -112.4296382,86.2207458 l -16.1407236,94.5585084 c -2.9133322,17.0674098 8.9951439,25.429432 19,4 l 30.1407236,-64.5585084 C 172.7720583,167.5116038 187.2422953,172.4693276 185,190 l -33,258 c -2.5101825,19.6250631 17.8116312,24.1800144 24.0317352,5.4024522 l 20.6872721,-62.4517758 C 212.9698869,341.8917049 214.7939248,333 270,333 l 100,0 z"
       id="path3213"
       inkscape:connector-curvature="0"
       sodipodi:nodetypes="csssssssssscc" />
    <path
       sodipodi:nodetypes="cssssssssssc"
       inkscape:connector-curvature="0"
       id="path3108"
       d="m 370,67 -127,0 c -62.0976238,0 -99.3560265,9.63054762 -112.4296382,86.2207458 l -16.1407236,94.5585084 c -2.9133322,17.0674098 8.9951439,25.429432 19,4 l 30.1407236,-64.5585084 C 172.7720583,167.5116038 187.2422953,172.4693276 185,190 l -33,258 c -2.5101825,19.6250631 17.8116312,24.1800144 24.0317352,5.4024522 l 20.6872721,-62.4517758 C 212.9698869,341.8917049 214.7939248,333 270,333 l 100,0"
       style="fill:none;stroke:#000000;stroke-width:1px;stroke-linecap:butt;display:inline" />
  </g>
  <g
     style="display:none"
     inkscape:groupmode="layer"
     id="g3110"
     inkscape:label="LMNT-030"
     connect="0000UW00"
     sodipodi:insensitive="true"
     zpos="2">
    <path
       sodipodi:nodetypes="csssssssscc"
       inkscape:connector-curvature="0"
       id="path3215"
       d="m 67,370 0,-60 C 67,255.2835491 85.92429567,190.8396321 76.5975478,156.0317352 70.40429767,132.9182111 87.9700512,132.8951792 94,154 l 26,91 c 24.2201646,84.7705763 119.5486941,63.9598266 122.7792542,-1.4296382 l 5.4414916,-110.1407236 c 1.9219967,-38.902955 44.5769465,-40.87190213 54,-9 0,0 30.7792542,91.1556643 30.7792542,198.5703618 l 0,47 z"
       style="fill:#ffffff;stroke:none" />
    <path
       style="fill:none;stroke:#000000;stroke-width:1px;stroke-linecap:butt;display:inline"
       d="m 67,370 0,-60 C 67,255.2835491 85.92429567,190.8396321 76.5975478,156.0317352 70.40429767,132.9182111 87.9700512,132.8951792 94,154 l 26,91 c 24.2201646,84.7705763 119.5486941,63.9598266 122.7792542,-1.4296382 l 5.4414916,-110.1407236 c 1.9219967,-38.902955 44.5769465,-40.87190213 54,-9 0,0 30.7792542,91.1556643 30.7792542,198.5703618 l 0,47"
       id="path3112"
       inkscape:connector-curvature="0"
       sodipodi:nodetypes="cssssssssc" />
  </g>
  <g
     connect="0000UW00"
     inkscape:label="LMNT-035"
     id="g3114"
     inkscape:groupmode="layer"
     style="display:none"
     sodipodi:insensitive="true"
     zpos="2">
    <path
       style="fill:#ffffff;stroke:none"
       d="m 67,370 0,-40 C 67,231.6969627 39.39620753,205.798275 24.08026759,143.514455 20.87585064,130.4833691 33.14918655,123.2062144 40,138 l 69,149 c 39.422429,85.129593 137.3864324,63.9632411 135.7792542,-43.4296382 l -1.5585084,-104.1407236 c -0.3899122,-26.054233 15.1426323,-30.0302175 20,-1 C 283.599476,260.2237883 333,279.9505989 333,346 l 0,24 z"
       id="path3217"
       inkscape:connector-curvature="0"
       sodipodi:nodetypes="csssssssscc" />
    <path
       sodipodi:nodetypes="cssssssssc"
       inkscape:connector-curvature="0"
       id="path3116"
       d="m 67,370 0,-40 C 67,231.6969627 39.39620753,205.798275 24.08026759,143.514455 20.87585064,130.4833691 33.14918655,123.2062144 40,138 l 69,149 c 39.422429,85.129593 137.3864324,63.9632411 135.7792542,-43.4296382 l -1.5585084,-104.1407236 c -0.3899122,-26.054233 15.1426323,-30.0302175 20,-1 C 283.599476,260.2237883 333,279.9505989 333,346 l 0,24"
       style="fill:none;stroke:#000000;stroke-width:1px;stroke-linecap:butt;display:inline" />
  </g>
  <g
     style="display:none"
     inkscape:groupmode="layer"
     id="g3118"
     inkscape:label="LMNT-040"
     connect="0000UW00"
     zpos="2"
     sodipodi:insensitive="true">
    <path
       sodipodi:nodetypes="csssssssscc"
       inkscape:connector-curvature="0"
       id="path3219"
       d="m 67,370 0,-40 C 67,249.0957304 48.34507791,206.973121 17.08026759,142.514455 11.22394591,130.4404754 18.58496324,124.0365873 27,138 l 91,151 c 39.9268473,66.2522411 108.9372771,39.8108195 107.7792542,-25.4296382 l -2.5585084,-144.1407236 c -0.3857737,-21.73364119 15.0278321,-25.73979192 19,-2 C 262.599476,239.2237883 333,279.9505989 333,346 l 0,24 z"
       style="fill:#ffffff;stroke:none" />
    <path
       style="fill:none;stroke:#000000;stroke-width:1px;stroke-linecap:butt;display:inline"
       d="m 67,370 0,-40 C 67,249.0957304 48.34507791,206.973121 17.08026759,142.514455 11.22394591,130.4404754 18.58496324,124.0365873 27,138 l 91,151 c 39.9268473,66.2522411 108.9372771,39.8108195 107.7792542,-25.4296382 l -2.5585084,-144.1407236 c -0.3857737,-21.73364119 15.0278321,-25.73979192 19,-2 C 262.599476,239.2237883 333,279.9505989 333,346 l 0,24"
       id="path3120"
       inkscape:connector-curvature="0"
       sodipodi:nodetypes="cssssssssc" />
  </g>
  <g
     connect="0000UW00"
     inkscape:label="LMNT-045"
     id="g3122"
     inkscape:groupmode="layer"
     style="display:none"
     zpos="2"
     sodipodi:insensitive="true">
    <path
       style="fill:#ffffff;stroke:none"
       d="m 51,139 77,227 c 23.0335991,67.9042466 94.6572608,54.8209822 94.7792542,-10.4296382 l 0.4414916,-236.1407236 z"
       id="path3172"
       inkscape:connector-curvature="0"
       sodipodi:nodetypes="csscc" />
    <path
       sodipodi:nodetypes="cssssssssc"
       inkscape:connector-curvature="0"
       id="path3124"
       d="m 67,370 0,-40 C 67,249.0957304 55.01821082,199.6062539 38.08026759,142.514455 34.88184241,131.7336982 46.53833774,125.8467879 51,139 l 77,227 c 23.0335991,67.9042466 94.6572608,54.8209822 94.7792542,-10.4296382 l 0.4414916,-236.1407236 c 0.04064,-21.73702668 15.0278321,-25.73979192 19,-2 C 262.599476,239.2237883 333,279.9505989 333,346 l 0,24"
       style="fill:none;stroke:#000000;stroke-width:1px;stroke-linecap:butt;display:inline" />
  </g>
  <g
     style="display:none"
     inkscape:groupmode="layer"
     id="g3126"
     inkscape:label="LMNT-050"
     connect="00UBUWUB"
     sodipodi:insensitive="true">
    <path
       sodipodi:nodetypes="ccccc"
       inkscape:connector-curvature="0"
       id="path3157"
       d="m 370,67 -340,0 0,266 340,0 z"
       style="fill:#000000;stroke:none" />
    <path
       style="fill:none;stroke:#000000;stroke-width:1px;stroke-linecap:butt;display:inline"
       d="M 370,67 30,67"
       id="C-right-1-7"
       inkscape:connector-curvature="0"
       sodipodi:nodetypes="cc" />
    <path
       style="fill:none;stroke:#000000;stroke-width:1px;stroke-linecap:butt;display:inline"
       d="m 30,333 340,0"
       id="C-left-4-5"
       inkscape:connector-curvature="0"
       sodipodi:nodetypes="cc" />
    <path
       sodipodi:nodetypes="csssssssscc"
       inkscape:connector-curvature="0"
       id="path3161"
       d="m 67,370 0,-60 C 67,192.5967421 130.3086265,137.396969 162.0802676,123.514455 187.4548309,112.4271231 194.3368346,122.6579135 187,141 l -26,65 c -27.639927,69.0998174 17.1496105,77.9704815 59.7792542,28.5703618 L 332.2207458,105.4296382 c 14.2012703,-16.45672806 32.8223222,-8.37017159 20,12 C 266.8310667,253.0838815 333,284.5311372 333,346 l 0,24 z"
       style="fill:#ffffff;stroke:none;display:inline" />
    <path
       style="fill:none;stroke:#000000;stroke-width:1px;stroke-linecap:butt;display:inline"
       d="m 67,370 0,-60 C 67,192.5967421 130.3086265,137.396969 162.0802676,123.514455 187.4548309,112.4271231 194.3368346,122.6579135 187,141 l -26,65 c -27.639927,69.0998174 17.1496105,77.9704815 59.7792542,28.5703618 L 332.2207458,105.4296382 c 14.2012703,-16.45672806 32.8223222,-8.37017159 20,12 C 266.8310667,253.0838815 333,284.5311372 333,346 l 0,24"
       id="path3128"
       inkscape:connector-curvature="0"
       sodipodi:nodetypes="cssssssssc" />
  </g>
  <g
     style="display:none"
     connect="00UBUWUB"
     inkscape:label="LMNT-055"
     id="g3163"
     inkscape:groupmode="layer"
     sodipodi:insensitive="true"
     zpos="2">
    <path
       sodipodi:nodetypes="ccccc"
       inkscape:connector-curvature="0"
       id="path3157-6"
       d="m 370,67 -340,0 0,266 340,0 z"
       style="fill:#000000;stroke:none;display:inline" />
    <path
       style="fill:none;stroke:#000000;stroke-width:1px;stroke-linecap:butt;display:inline"
       d="M 370,67 30,67"
       id="C-right-1-7-2"
       inkscape:connector-curvature="0"
       sodipodi:nodetypes="cc" />
    <path
       style="fill:none;stroke:#000000;stroke-width:1px;stroke-linecap:butt;display:inline"
       d="m 30,333 340,0"
       id="C-left-4-5-9"
       inkscape:connector-curvature="0"
       sodipodi:nodetypes="cc" />
    <path
       style="fill:#ffffff;stroke:none;display:inline"
       d="m 67,370 0,-187 c 0,-45.4238222 12.28993828,-67.6883397 42.2207458,-88.4296382 l 92.5585084,-64.1407236 c 12.908698,-8.94540377 23.3492061,-3.65682724 17,12 L 167.2207458,169.5703618 C 159.0466116,189.7273712 169.9654291,195.4326917 186,188 L 378,99 c 11.6636138,-5.40657098 21.6240533,1.1932812 13.4024522,13.0317352 l -41.4517758,59.6872721 C 331.0587231,198.9219228 333,213.5867128 333,239 l 0,131 z"
       id="path3191"
       inkscape:connector-curvature="0"
       sodipodi:nodetypes="csssssssssscc" />
    <path
       sodipodi:nodetypes="cssssssssssc"
       inkscape:connector-curvature="0"
       id="path3165"
       d="m 67,370 0,-187 c 0,-45.4238222 12.28993828,-67.6883397 42.2207458,-88.4296382 l 92.5585084,-64.1407236 c 12.908698,-8.94540377 23.3492061,-3.65682724 17,12 L 167.2207458,169.5703618 C 159.0466116,189.7273712 169.9654291,195.4326917 186,188 L 378,99 c 11.6636138,-5.40657098 21.6240533,1.1932812 13.4024522,13.0317352 l -41.4517758,59.6872721 C 331.0587231,198.9219228 333,213.5867128 333,239 l 0,131"
       style="fill:none;stroke:#000000;stroke-width:1px;stroke-linecap:butt;display:inline" />
  </g>
  <g
     inkscape:groupmode="layer"
     id="g3193"
     inkscape:label="LMNT-060"
     connect="00UBUWUB"
     style="display:none"
     sodipodi:insensitive="true"
     zpos="2">
    <path
       style="fill:#000000;stroke:none;display:inline"
       d="m 370,67 -340,0 0,266 340,0 z"
       id="path3195"
       inkscape:connector-curvature="0"
       sodipodi:nodetypes="ccccc" />
    <path
       sodipodi:nodetypes="cc"
       inkscape:connector-curvature="0"
       id="path3197"
       d="M 370,67 30,67"
       style="fill:none;stroke:#000000;stroke-width:1px;stroke-linecap:butt;display:inline" />
    <path
       sodipodi:nodetypes="cc"
       inkscape:connector-curvature="0"
       id="path3199"
       d="m 30,333 340,0"
       style="fill:none;stroke:#000000;stroke-width:1px;stroke-linecap:butt;display:inline" />
    <path
       sodipodi:nodetypes="csssssssssscc"
       inkscape:connector-curvature="0"
       id="path3205"
       d="m 67,370 0,-79 C 67,163.9564372 84.98152245,128.0719011 143.2207458,85.5703618 l 75.5585084,-55.1407236 c 15.7090334,-11.4640626 27.5997786,-1.31201224 21,14 L 177.2207458,189.5703618 C 145.8917411,262.2561487 204.1587854,314.7603316 266,226 l 85,-122 c 7.3490731,-10.54808138 19.232412,-5.86341235 15.4024522,8.0317352 l -16.4517758,59.6872721 C 338.6375452,212.7632052 333,253.1295309 333,300 l 0,70 z"
       style="fill:#ffffff;stroke:none;display:inline" />
    <path
       style="fill:none;stroke:#000000;stroke-width:1px;stroke-linecap:butt;display:inline"
       d="m 67,370 0,-79 C 67,163.9564372 84.98152245,128.0719011 143.2207458,85.5703618 l 75.5585084,-55.1407236 c 15.7090334,-11.4640626 27.5997786,-1.31201224 21,14 L 177.2207458,189.5703618 C 145.8917411,262.2561487 204.1587854,314.7603316 266,226 l 85,-122 c 7.3490731,-10.54808138 19.232412,-5.86341235 15.4024522,8.0317352 l -16.4517758,59.6872721 C 338.6375452,212.7632052 333,253.1295309 333,300 l 0,70"
       id="path3203"
       inkscape:connector-curvature="0"
       sodipodi:nodetypes="cssssssssssc" />
  </g>
  <g
     connect="00UBUWUB"
     inkscape:label="LMNT-065"
     id="g3221"
     inkscape:groupmode="layer"
     style="display:none"
     sodipodi:insensitive="true"
     zpos="2">
    <path
       style="fill:#000000;stroke:none;display:inline"
       d="m 370,67 -340,0 0,266 340,0 z"
       id="path3195-1"
       inkscape:connector-curvature="0"
       sodipodi:nodetypes="ccccc" />
    <path
       sodipodi:nodetypes="cc"
       inkscape:connector-curvature="0"
       id="path3197-2"
       d="M 370,67 30,67"
       style="fill:none;stroke:#000000;stroke-width:1px;stroke-linecap:butt;display:inline" />
    <path
       sodipodi:nodetypes="cc"
       inkscape:connector-curvature="0"
       id="path3199-7"
       d="m 30,333 340,0"
       style="fill:none;stroke:#000000;stroke-width:1px;stroke-linecap:butt;display:inline" />
    <path
       style="fill:#ffffff;stroke:none"
       d="m 67,370 0,-73 C 67,216.0957304 54.34507791,133.973121 23.08026759,69.514455 17.22394591,57.4404754 24.79116149,50.91437938 33,65 l 88,151 c 38.9484978,66.8320814 91.4150627,39.7343131 94.7792542,-25.4296382 l 7.4414916,-144.1407236 c 1.1207176,-21.70815452 15.0278321,-25.73979192 19,-2 C 262.599476,166.2237883 333,216.9505989 333,283 l 0,87 z"
       id="path3223"
       inkscape:connector-curvature="0"
       sodipodi:nodetypes="csssssssscc" />
    <path
       sodipodi:nodetypes="cssssssssc"
       inkscape:connector-curvature="0"
       id="path3225"
       d="m 67,370 0,-73 C 67,216.0957304 54.34507791,133.973121 23.08026759,69.514455 17.22394591,57.4404754 24.79116149,50.91437938 33,65 l 88,151 c 38.9484978,66.8320814 91.4150627,39.7343131 94.7792542,-25.4296382 l 7.4414916,-144.1407236 c 1.1207176,-21.70815452 15.0278321,-25.73979192 19,-2 C 262.599476,166.2237883 333,216.9505989 333,283 l 0,87"
       style="fill:none;stroke:#000000;stroke-width:1px;stroke-linecap:butt;display:inline" />
  </g>
  <g
     style="display:none"
     inkscape:groupmode="layer"
     id="g3251"
     inkscape:label="LMNT-070"
     connect="0000UW00"
     sodipodi:insensitive="true"
     zpos="2">
    <path
       sodipodi:nodetypes="csssssssssscc"
       inkscape:connector-curvature="0"
       id="path4356"
       d="M 67,370 67,267 C 67,231.3308387 63.65515307,224.8182711 32.40443045,197.8716562 L -10.91973241,160.514455 C -21.08262112,151.7512833 -14.5635345,137.6724355 0,145 l 159,80 c 37.3451878,18.7900316 49.1165502,-7.9396744 28.7792542,-28.4296382 l -77.5585084,-78.1407236 c -10.31476661,-10.3921974 -3.2864873,-22.61292852 12,-14 l 162.3737414,91.4869062 C 330.5244549,221.7950554 333,244.7725241 333,290 l 0,80 z"
       style="fill:#ffffff;stroke:none;display:inline" />
    <path
       style="fill:none;stroke:#000000;stroke-width:1px;stroke-linecap:butt;display:inline"
       d="M 67,370 67,267 C 67,231.3308387 63.65515307,224.8182711 32.40443045,197.8716562 L -10.91973241,160.514455 C -21.08262112,151.7512833 -14.5635345,137.6724355 0,145 l 159,80 c 37.3451878,18.7900316 49.1165502,-7.9396744 28.7792542,-28.4296382 l -77.5585084,-78.1407236 c -10.31476661,-10.3921974 -3.2864873,-22.61292852 12,-14 l 162.3737414,91.4869062 C 330.5244549,221.7950554 333,244.7725241 333,290 l 0,80"
       id="path3261"
       inkscape:connector-curvature="0"
       sodipodi:nodetypes="cssssssssssc" />
  </g>
  <g
     connect="00UBUWUB"
     inkscape:label="LMNT-075"
     id="g3263"
     inkscape:groupmode="layer"
     style="display:none"
     sodipodi:insensitive="true">
    <path
       style="fill:#000000;stroke:none;display:inline"
       d="m 370,67 -340,0 0,266 340,0 z"
       id="path3195-0"
       inkscape:connector-curvature="0"
       sodipodi:nodetypes="ccccc" />
    <path
       sodipodi:nodetypes="cc"
       inkscape:connector-curvature="0"
       id="path3197-9"
       d="M 370,67 30,67"
       style="fill:none;stroke:#000000;stroke-width:1px;stroke-linecap:butt;display:inline" />
    <path
       sodipodi:nodetypes="cc"
       inkscape:connector-curvature="0"
       id="path3199-3"
       d="m 30,333 340,0"
       style="fill:none;stroke:#000000;stroke-width:1px;stroke-linecap:butt;display:inline" />
    <path
       zpos="2"
       style="fill:#ffffff;stroke:none"
       d="M 67,370 67,185 C 67,149.3308387 61.45455328,110.9371562 41.40443045,74.8716562 L 20.08026759,36.514455 C 13.55986902,24.78577699 22.35099717,14.85897709 32,28 l 105,143 c 50.0355162,68.1436078 119.3883281,32.738771 90.7792542,-45.4296382 L 177.2207458,-12.5703618 c -3.4453516,-9.41371448 4.434868,-14.92990347 11,-7 L 294.5944872,108.9165444 C 328.2136714,149.5245451 333,182.7725241 333,228 l 0,142 z"
       id="path3291"
       inkscape:connector-curvature="0"
       sodipodi:nodetypes="csssssssssscc" />
    <path
       sodipodi:nodetypes="cssssssssssc"
       inkscape:connector-curvature="0"
       id="path3265"
       d="M 67,370 67,185 C 67,149.3308387 61.45455328,110.9371562 41.40443045,74.8716562 L 20.08026759,36.514455 C 13.55986902,24.78577699 22.35099717,14.85897709 32,28 l 105,143 c 50.0355162,68.1436078 119.3883281,32.738771 90.7792542,-45.4296382 L 177.2207458,-12.5703618 c -3.4453516,-9.41371448 4.434868,-14.92990347 11,-7 L 294.5944872,108.9165444 C 328.2136714,149.5245451 333,182.7725241 333,228 l 0,142"
       style="fill:none;stroke:#000000;stroke-width:1px;stroke-linecap:butt;display:inline"
       zpos="2" />
  </g>
  <g
     style="display:none"
     inkscape:groupmode="layer"
     id="g3293"
     inkscape:label="LMNT-080"
     connect="0000UW00"
     zpos="2"
     sodipodi:insensitive="true">
    <path
       sodipodi:nodetypes="csssssssssscc"
       inkscape:connector-curvature="0"
       id="path3305"
       d="M 67,370 C 67,215.2510299 83,198.6432283 83,146 83,99.70693255 45.34381938,44.22182906 35.40443045,27.8716562 L -49.91973241,-112.485545 C -55.6957303,-121.9869907 -47.77847058,-130.6368217 -38,-122 L 159,52 c 37.5740101,33.18719673 89.5269236,-5.21756991 65.7792542,-50.4296382 l -72.5585084,-138.1407236 c -5.899307,-11.2314124 3.8235152,-20.4990319 14,-9 L 305.5944872,11.9165444 C 327.8827998,37.10147067 333,56.7725241 333,102 l 0,268 z"
       style="fill:#ffffff;stroke:none" />
    <path
       zpos="600"
       style="fill:none;stroke:#000000;stroke-width:1px;stroke-linecap:butt;display:inline"
       d="M 67,370 C 67,215.2510299 83,198.6432283 83,146 83,99.70693255 45.34381938,44.22182906 35.40443045,27.8716562 L -49.91973241,-112.485545 C -55.6957303,-121.9869907 -47.77847058,-130.6368217 -38,-122 L 159,52 c 37.5740101,33.18719673 89.5269236,-5.21756991 65.7792542,-50.4296382 l -72.5585084,-138.1407236 c -5.899307,-11.2314124 3.8235152,-20.4990319 14,-9 L 305.5944872,11.9165444 C 327.8827998,37.10147067 333,56.7725241 333,102 l 0,268"
       id="path3303"
       inkscape:connector-curvature="0"
       sodipodi:nodetypes="cssssssssssc" />
    <path
       sodipodi:nodetypes="cccsscc"
       inkscape:connector-curvature="0"
       id="path3182"
       d="M 280.6399798,13.67040428 268.4755735,46.32029058 222.2418273,-2.97221929 152.2207458,-136.5703618 c -5.889322,-11.2366514 3.8235152,-20.4990319 14,-9 L 305.5944872,11.9165444 z"
       style="fill:#ffffff;stroke:none;display:inline"
       zpos="400" />
    <path
       sodipodi:nodetypes="cssscccc"
       inkscape:connector-curvature="0"
       id="path3180"
       d="m 73.63683008,100.4886997 c 0,0 -31.46167284,-61.47928099 -38.23239963,-72.6170435 L -49.91973241,-112.485545 C -55.6957303,-121.9869907 -47.77847056,-130.6368217 -38,-122 L 159,52 122.3182176,69.43479349 82.41530561,61.89583375 z"
       style="fill:#ffffff;stroke:none;display:inline"
       zpos="400" />
    <path
       style="fill:none;stroke:#000000;stroke-width:1px;stroke-linecap:round;display:inline"
       d="M 83,146 C 83,99.70693255 45.34381938,44.22182906 35.40443045,27.8716562 L -49.91973241,-112.485545 C -55.6957303,-121.9869907 -47.77847058,-130.6368217 -38,-122 L 159,52"
       id="path3178"
       inkscape:connector-curvature="0"
       sodipodi:nodetypes="csssc"
       zpos="400" />
    <path
       style="fill:none;stroke:#000000;stroke-width:1px;stroke-linecap:round;display:inline"
       d="m 224.7792542,1.5703618 -72.5585084,-138.1407236 c -5.899307,-11.2314124 3.8235152,-20.4990319 14,-9 L 305.5944872,11.9165444"
       id="path3174"
       inkscape:connector-curvature="0"
       sodipodi:nodetypes="cssc"
       zpos="400" />
  </g>
  <g
     connect="0000UW00"
     inkscape:label="LMNT-085"
     id="g3307"
     inkscape:groupmode="layer"
     style="display:none"
     sodipodi:insensitive="true"
     zpos="2">
    <path
       style="fill:#ffffff;stroke:none;display:inline"
       d="M 67,370 67,103 C 67,57.7725241 74.78793239,39.23320467 94.4055128,11.9165444 l 84.3737414,-117.4869062 c 14.014987,-19.5152833 28.7400609,-9.0172579 23,9 L 155.2207458,49.5703618 C 127.6206107,136.2033717 190.9753251,173.5989667 245,102 L 328,-8 c 29.3840633,-38.94273446 53.2583543,-16.11989658 38.9197324,18.514455 C 330.191557,99.22985239 333,138.6501919 333,196 l 0,174 z"
       id="path4358"
       inkscape:connector-curvature="0"
       sodipodi:nodetypes="cssssssssscc" />
    <path
       sodipodi:nodetypes="csssssssssc"
       inkscape:connector-curvature="0"
       id="path3311"
       d="M 67,370 67,103 C 67,57.7725241 74.78793239,39.23320467 94.4055128,11.9165444 l 84.3737414,-117.4869062 c 14.014987,-19.5152833 28.7400609,-9.0172579 23,9 L 155.2207458,49.5703618 C 127.6206107,136.2033717 190.9753251,173.5989667 245,102 L 328,-8 c 29.3840633,-38.94273446 53.2583543,-16.11989658 38.9197324,18.514455 C 330.191557,99.22985239 333,138.6501919 333,196 l 0,174"
       style="fill:none;stroke:#000000;stroke-width:1px;stroke-linecap:butt;display:inline" />
  </g>
  <g
     style="display:none"
     inkscape:groupmode="layer"
     id="g3331"
     inkscape:label="LMNT-090"
     connect="0000UW00"
     sodipodi:insensitive="true"
     zpos="2">
    <path
       sodipodi:nodetypes="cssssssssscc"
       inkscape:connector-curvature="0"
       id="path4360"
       d="M 67,370 67,143 C 67,97.7725241 70.78793239,79.23320467 90.4055128,51.9165444 l 84.3737414,-117.4869062 c 14.014987,-19.51528329 28.8335933,-8.98719186 23,9 L 156.2207458,71.5703618 C 130.0346541,152.3120647 188.3205258,169.5322417 242,102 L 304,24 C 330.6558861,-9.534824397 350.2541041,15.92260516 336.9197324,40.514455 291.1515837,124.9221393 281.2607609,175.8811618 303,226 c 19.5108562,44.9814016 30,69.4416102 30,144 z"
       style="fill:#ffffff;stroke:none" />
    <path
       style="fill:none;stroke:#000000;stroke-width:1px;stroke-linecap:butt;display:inline"
       d="M 67,370 67,143 C 67,97.7725241 70.78793239,79.23320467 90.4055128,51.9165444 l 84.3737414,-117.4869062 c 14.014987,-19.51528329 28.8335933,-8.98719186 23,9 L 156.2207458,71.5703618 C 130.0346541,152.3120647 188.3205258,169.5322417 242,102 L 304,24 C 330.6558861,-9.534824397 350.2541041,15.92260516 336.9197324,40.514455 291.1515837,124.9221393 281.2607609,175.8811618 303,226 c 19.5108562,44.9814016 30,69.4416102 30,144"
       id="path3333"
       inkscape:connector-curvature="0"
       sodipodi:nodetypes="csssssssssc" />
  </g>
  <g
     connect="00IIII00"
     inkscape:label="LMNT-095"
     id="g3335"
     inkscape:groupmode="layer"
     style="display:none"
     sodipodi:insensitive="true">
    <path
       sodipodi:nodetypes="csssssc"
       inkscape:connector-curvature="0"
       id="path3337"
       d="m 200,370 c 0,0 0.086553,-90.7082403 0,-161.0834556 L 199.7792542,29.4296382 c -0.020135,-16.37132725 15.3615543,-18.24639126 20,-2 l 37.4414916,131.1407236 C 267.5721991,194.8268522 284.1607057,200 321,200 l 49,0"
       style="fill:none;stroke:#000000;stroke-width:1px;stroke-linecap:butt;display:inline" />
  </g>
  <g
     style="display:none"
     inkscape:groupmode="layer"
     id="g3357"
     inkscape:label="LMNT-100"
     connect="00IIII00"
     sodipodi:insensitive="true">
    <path
       style="fill:none;stroke:#000000;stroke-width:1px;stroke-linecap:butt;display:inline"
       d="m 200,370 c 0,-110.4010754 17.4475407,-166.1690487 -1,-234.0834556 L 175.7792542,50.4296382 c -3.3722501,-12.41489967 6.8281072,-16.25302185 13,-5 l 66.4414916,121.1407236 c 5.6389329,10.2812925 13.9228647,9.8608231 21.9751853,-0.035639 l 53.7603177,-66.0724991 c 6.5548334,-8.0560206 12.3505954,-4.98550004 10.5563491,5.7279221 l -11.2553623,67.2056276 C 326.9563651,193.1052298 335.5282833,200 351,200 l 19,0"
       id="path3365"
       inkscape:connector-curvature="0"
       sodipodi:nodetypes="csssssssssc" />
  </g>
  <g
     style="display:none"
     inkscape:groupmode="layer"
     id="g3386"
     inkscape:label="LMNT-105"
     connect="UW000000"
     sodipodi:insensitive="true">
    <path
       style="fill:none;stroke:#000000;stroke-width:1px;stroke-linecap:butt;display:inline"
       d="m 333,30 0,64 c 0,62.6510894 15.2981734,108.863986 52.9197324,146.485545 C 397.4043523,251.9701649 386.2864387,266.5439549 373,255 L 251,149 c -57.9622634,-50.36065511 -103.2715191,-3.4563317 -56.7792542,50.4296382 l 110.5585084,128.1407236 c 10.086482,11.690544 0.2346161,23.5569785 -15,12 L 120.4055128,211.0834556 C 78.40458019,179.2215516 67,137.2274759 67,92 l 0,-62"
       id="path3396"
       inkscape:connector-curvature="0"
       sodipodi:nodetypes="csssssssssc"
       zpos="400" />
  </g>
  <g
     connect="UW00UB00"
     inkscape:label="LMNT-110"
     id="g3416"
     inkscape:groupmode="layer"
     style="display:inline"
     zpos="2"
     sodipodi:insensitive="true">
    <path
       style="fill:#ffffff;stroke:none;display:inline"
       d="m 67,30 0,48 c 0,21.1902837 1.77165915,42.783894 8.3125,62.5 0,0 0.32964244,0.3297894 0.34375,0.34375 12.59171151,-8.8618611 34.5683969,-2.1888053 35.34375,19.375 0.3664706,10.1921303 3.4069825,17.0631498 8.5625,22.21875 0.049269,0.042388 0.1073578,0.083029 0.15625,0.125 1.9066836,1.6367672 3.5622376,3.0221633 4.78125,3.90625 0.2997173,0.204046 0.5978237,0.4265093 0.90625,0.625 l 249.375,160.46875 c 15.7628921,10.1443631 22.1856545,-6.0399343 11,-15 -19.0750254,-15.2797032 -37.6216328,-32.6342804 -53.28125,-52.53125 -1.1020085,-1.4002022 -2.1773342,-2.8245695 -3.25,-4.25 -1.2544912,-1.6670523 -2.5068083,-3.3292314 -3.71875,-5.03125 -0.00837,-0.011756 -0.02288,-0.019492 -0.03125,-0.03125 -1.2042749,-1.6919257 -2.3715927,-3.4292894 -3.53125,-5.15625 -1.0128965,-1.5084046 -2.0229703,-3.0270189 -3,-4.5625 -0.085391,-0.1341991 -0.1648899,-0.2718427 -0.25,-0.40625 -0.2227946,-0.3518455 -0.4353946,-0.7092254 -0.65625,-1.0625 -0.7599198,-1.2155386 -1.5135846,-2.4236887 -2.25,-3.65625 -0.2611501,-0.437051 -0.5231248,-0.8732952 -0.78125,-1.3125 -0.823745,-1.4018628 -1.6141253,-2.8260448 -2.40625,-4.25 -0.308435,-0.5543026 -0.6339819,-1.0985755 -0.9375,-1.65625 -0.3556032,-0.6535323 -0.7137572,-1.3105668 -1.0625,-1.96875 -0.4704227,-0.887693 -0.9172981,-1.7913006 -1.375,-2.6875 -0.027509,-0.053871 -0.066287,-0.1023483 -0.09375,-0.15625 -0.568762,-1.11619 -1.107713,-2.245532 -1.65625,-3.375 -0.3790233,-0.7805158 -0.7558553,-1.5568515 -1.125,-2.34375 -0.1891407,-0.4030957 -0.3759867,-0.8139727 -0.5625,-1.21875 -0.5544027,-1.2031826 -1.0942336,-2.4068788 -1.625,-3.625 -0.5277874,-1.2112843 -1.0587072,-2.4300759 -1.5625,-3.65625 -0.03908,-0.095141 -0.086066,-0.1860185 -0.125,-0.28125 -0.4632522,-1.1327802 -0.9014875,-2.2606811 -1.34375,-3.40625 -0.3316285,-0.8593051 -0.6491718,-1.7272036 -0.96875,-2.59375 -0.1429541,-0.3874495 -0.2969849,-0.7673471 -0.4375,-1.15625 -0.1459138,-0.404018 -0.2942385,-0.8131597 -0.4375,-1.21875 -0.3020558,-0.8549442 -0.5848723,-1.7317922 -0.875,-2.59375 -0.4084771,-1.2135692 -0.8031291,-2.4286903 -1.1875,-3.65625 -0.055147,-0.1761708 -0.1016055,-0.3547898 -0.15625,-0.53125 -0.013648,-0.044064 -0.048883,-0.080918 -0.0625,-0.125 -0.3141114,-1.017087 -0.6090206,-2.0357716 -0.90625,-3.0625 -0.2134725,-0.7374045 -0.4203707,-1.4763464 -0.625,-2.21875 -0.1747356,-0.6335692 -0.3630321,-1.2690252 -0.53125,-1.90625 -0.05707,-0.2163635 -0.099937,-0.439464 -0.15625,-0.65625 -0.2297155,-0.8836948 -0.4392267,-1.7655132 -0.65625,-2.65625 -0.096032,-0.3942476 -0.1877303,-0.7918679 -0.28125,-1.1875 -0.2899291,-1.2263527 -0.5782824,-2.4477836 -0.84375,-3.6875 -0.038059,-0.1777274 -0.087449,-0.3532469 -0.125,-0.53125 -0.1065009,-0.5049053 -0.2101114,-1.0241221 -0.3125,-1.53125 -0.1199847,-0.5944647 -0.2294629,-1.1837222 -0.34375,-1.78125 -0.2102767,-1.099391 -0.4030112,-2.2026918 -0.59375,-3.3125 -0.059107,-0.3436707 -0.1302875,-0.6865764 -0.1875,-1.03125 -0.066762,-0.4025659 -0.1233355,-0.8148134 -0.1875,-1.21875 -0.096035,-0.6042092 -0.1910718,-1.2052157 -0.28125,-1.8125 -0.1309092,-0.8817798 -0.2565681,-1.7679618 -0.375,-2.65625 -0.1194269,-0.8959687 -0.2371815,-1.8161293 -0.34375,-2.71875 -0.028106,-0.2383247 -0.066547,-0.4799603 -0.09375,-0.71875 -0.060456,-0.5301095 -0.1002703,-1.0613439 -0.15625,-1.59375 -0.1361531,-1.2959074 -0.2656902,-2.5966739 -0.375,-3.90625 -0.062454,-0.7480435 -0.1339281,-1.4974736 -0.1875,-2.25 -0.015481,-0.2176964 -0.016516,-0.4381775 -0.03125,-0.65625 -0.086127,-1.2731091 -0.1583626,-2.5577769 -0.21875,-3.84375 -0.068975,-1.4688422 -0.1214446,-2.9517631 -0.15625,-4.4375 -0.034814,-1.4861142 -0.0625,-2.9656131 -0.0625,-4.46875 0,-16.1283857 11,-24.8391746 22,-25.15625 11,-0.3170754 22,7.7595626 22,25.15625 L 333,183.1875 391,225 c 16.1687232,11.6536888 24.8903765,-3.5158735 13.90625,-14.5 C 370.7161636,176.3099136 333,120.7248135 333,53 l 0,-23 -266,0 z"
       id="path4271"
       inkscape:connector-curvature="0" />
    <path
       style="fill:#000000;stroke:none;display:inline"
       d="m 311,135.0625 c -11,0.3170754 -22,9.0278643 -22,25.15625 0,47.9979901 17.9016605,87.2874787 43.5,119.8125 l 0.5,-0.0625 0,-119.75 c 0,-17.3966874 -11,-25.4733254 -22,-25.15625 z"
       id="path4262"
       inkscape:connector-curvature="0" />
    <path
       sodipodi:nodetypes="ccssscc"
       inkscape:connector-curvature="0"
       id="path4260"
       d="M 333,370 333.00151,320.7818279 125.4055128,187.0834556 C 116.7407016,181.5071318 111.4886274,173.8055125 111,160.2160054 c -1.0885013,-30.2729564 -44,-31.2336542 -44,-1 L 67,370 z"
       style="fill:#000000;stroke:none" />
    <path
       style="fill:none;stroke:#000000;stroke-width:1px;stroke-linecap:round;display:inline"
       d="m 333,279.9796673 0,-119.7636619 c 0,-34.7933748 -44,-32.2567714 -44,0"
       id="path3477"
       inkscape:connector-curvature="0"
       sodipodi:nodetypes="csc" />
    <path
       style="fill:none;stroke:#000000;stroke-width:1px;stroke-linecap:butt;display:inline"
       d="M 75.30406815,140.4886903 C 68.7632273,120.7725843 67,99.1902837 67,78 l 0,-48"
       id="path3469"
       inkscape:connector-curvature="0"
       sodipodi:nodetypes="csc" />
    <path
       sodipodi:nodetypes="csssc"
       inkscape:connector-curvature="0"
       id="path3418"
       d="m 333,30 0,23 c 0,67.7248135 37.729646,123.2954586 71.9197324,157.485545 C 415.9038589,221.4696715 407.1687232,236.6536888 391,225 l -58.0001981,-41.8039354"
       style="fill:none;stroke:#000000;stroke-width:1px;stroke-linecap:butt;display:inline" />
    <path
       style="fill:none;stroke:#000000;stroke-width:1px;stroke-linecap:butt;display:inline"
       d="m 333,370 0,-49.1212002"
       id="path3473"
       inkscape:connector-curvature="0"
       sodipodi:nodetypes="cc" />
    <path
       style="fill:none;stroke:#000000;stroke-width:1px;stroke-linecap:butt;display:inline"
       d="m 289,160.2160054 c 0,77.3604474 46.5228167,132.0973485 96.7792542,172.3543564 11.1856545,8.9600657 4.7628921,25.1443631 -11,15 L 125.4055128,187.0834556 C 116.7407016,181.5071318 111.4886274,173.8055125 111,160.2160054 c -1.0885013,-30.2729564 -44,-31.2336542 -44,-1 L 67,370"
       id="path3464"
       inkscape:connector-curvature="0" />
  </g>
  <g
     connect="00UBUWUB"
     inkscape:label="XX_LMNT-115"
     id="g4281"
     inkscape:groupmode="layer"
     style="display:none"
     sodipodi:insensitive="true">
    <path
       sodipodi:nodetypes="cssssssssssc"
       inkscape:connector-curvature="0"
       id="path4283"
       d="m 333,30 0,42 c 0,17.8740999 7.5352476,30.0527017 15.155336,38.670479 l 76.7643964,86.815066 C 433.044356,206.6739157 424.6878695,220.4377166 412,213 l -87,-51 c -28.9844836,-16.9909042 -42.7626652,14.2479454 -29.7792542,38.4296382 l 72.5585084,135.1407236 c 5.2875667,9.8481296 -3.4955926,24.5927987 -19,12 L 120.4055128,162.0834556 C 79.483953,128.8466505 67,102.2274759 67,57 l 0,-27"
       style="fill:none;stroke:#000000;stroke-width:1px;stroke-linecap:butt;display:inline" />
    <path
       style="fill:none;stroke:#ff0000;stroke-width:1px;stroke-linecap:butt;display:inline"
       d="m 211,235.2160054 c -47.9159895,-36.6099695 -64.11234,-50.0829452 -104,-85 -15.72323363,-13.7638811 -40,-3.9936145 -40,15 L 67,370"
       id="path4285"
       inkscape:connector-curvature="0"
       sodipodi:nodetypes="cssc" />
    <path
       sodipodi:nodetypes="cssc"
       inkscape:connector-curvature="0"
       id="path4287"
       d="m 289,209.2160054 0,-28 c 0,-32.5426837 44,-31.2630807 44,0 L 333,370"
       style="fill:none;stroke:#ff0000;stroke-width:1px;stroke-linecap:butt;display:inline" />
  </g>
  <g
     style="display:none"
     inkscape:groupmode="layer"
     id="g3450"
     inkscape:label="LMNT-115"
     connect="UW00UB00"
     sodipodi:insensitive="true"
     zpos="2">
    <path
       style="fill:#ffffff;stroke:none"
       d="m 67,30 0,41 c 0,25.55221056 3.9659482,45.184187 14.8125,63.40625 6.6848932,-2.05269 15.1065572,0.024516 24.1875,7.8125 46.3605027,39.7596239 227,194.65625 227,194.65625 l 14.78125,12.6875 c 15.1619141,13.0031377 25.2980056,-4.1574823 20,-14 C 358.2256097,317.8102428 345.4743509,297.0733583 333,275.96875 c -1.4046348,-2.3764176 -2.7954237,-4.7424268 -4.1875,-7.125 -2.7876002,-4.7710471 -5.541903,-9.5298107 -8.21875,-14.28125 -2.672266,-4.743308 -5.2683236,-9.4913096 -7.75,-14.15625 -1.1047112,-2.076585 -2.2257808,-4.1348598 -3.28125,-6.1875 -0.1292756,-0.2514107 -0.2465227,-0.4989922 -0.375,-0.75 -1.1502523,-2.2472628 -2.2314126,-4.4763291 -3.3125,-6.6875 -0.067764,-0.1384764 -0.1512765,-0.2679296 -0.21875,-0.40625 -1.0035954,-2.0592009 -1.9711098,-4.103284 -2.90625,-6.125 -0.077647,-0.1676723 -0.1728517,-0.3326062 -0.25,-0.5 -0.9993047,-2.1708639 -1.9646851,-4.3171856 -2.875,-6.4375 -0.4655363,-1.0830685 -0.9032998,-2.150229 -1.34375,-3.21875 -0.4398077,-1.0682857 -0.8677574,-2.1346756 -1.28125,-3.1875 -0.4481037,-1.139507 -0.896773,-2.2859674 -1.3125,-3.40625 -0.1598147,-0.431197 -0.2826409,-0.8530214 -0.4375,-1.28125 -0.2097238,-0.5792117 -0.4245452,-1.145109 -0.625,-1.71875 -0.3339293,-0.9568893 -0.6614235,-1.9029801 -0.96875,-2.84375 -0.3275421,-1.0011662 -0.6413259,-1.9867136 -0.9375,-2.96875 -0.2540864,-0.843626 -0.4886509,-1.6711322 -0.71875,-2.5 -0.1347917,-0.484488 -0.2798719,-0.9582037 -0.40625,-1.4375 -0.1416329,-0.5381556 -0.2754295,-1.0935537 -0.40625,-1.625 -0.038966,-0.1581006 -0.087005,-0.3112521 -0.125,-0.46875 -0.1946822,-0.8079797 -0.3625675,-1.6144956 -0.53125,-2.40625 -0.029032,-0.1361949 -0.065502,-0.270545 -0.09375,-0.40625 -0.1733901,-0.8333229 -0.3254368,-1.6543135 -0.46875,-2.46875 -0.1392001,-0.7910622 -0.2650497,-1.571147 -0.375,-2.34375 -0.014861,-0.1044279 -0.016932,-0.2084159 -0.03125,-0.3125 -0.080867,-0.5856821 -0.1553156,-1.1440941 -0.21875,-1.71875 -0.012834,-0.11622 -0.019137,-0.2279882 -0.03125,-0.34375 -0.040896,-0.3907008 -0.092409,-0.7708201 -0.125,-1.15625 -0.039038,-0.4615161 -0.066794,-0.9211889 -0.09375,-1.375 -0.011703,-0.1974258 -0.021865,-0.3978014 -0.03125,-0.59375 -0.037624,-0.7828566 -0.0625,-1.5537454 -0.0625,-2.3125 0,-16.2713418 11,-24.0974504 22,-23.9375 10.2800327,0.1494814 20.5421001,7.2780674 21.84375,20.96875 1.161e-4,0.00122 0.031134,-0.00122 0.03125,0 L 412,213 c 12.9410448,6.9879194 21.0308736,-6.3116293 12.90625,-15.5 l -76.75,-86.84375 C 340.5361616,102.0384727 333,89.8740999 333,72 l 0,-42 -266,0 z"
       id="path4330"
       inkscape:connector-curvature="0" />
    <path
       style="fill:#000000;stroke:none"
       d="m 311,149.28125 c -11,-0.1599504 -22,7.6661582 -22,23.9375 0,25.4721891 21.5282235,64.7272174 44,102.75 l 0,-102.75 c 0,-15.6315403 -11,-23.7775496 -22,-23.9375 z"
       id="path4324"
       inkscape:connector-curvature="0" />
    <path
       id="path4315"
       d="m 333,370 0,-33.1254618 c 0,0 -180.6394973,-154.8989089 -227,-194.6585328 -21.27585716,-18.2465683 -39,-5.1616901 -39,19 L 67,370 z"
       style="fill:#000000;stroke:none"
       inkscape:connector-curvature="0"
       sodipodi:nodetypes="cccscc" />
    <path
       style="fill:none;stroke:#000000;stroke-width:1px;stroke-linecap:round;display:inline"
       d="m 333,275.9674392 0,-102.7514338 c 0,-31.2630807 -44,-32.5426837 -44,0"
       id="path4311"
       inkscape:connector-curvature="0" />
    <path
       style="fill:none;stroke:#000000;stroke-width:1px;stroke-linecap:butt;display:inline"
       d="M 81.85329561,134.4237405 C 70.99015906,116.1912588 67,96.56945037 67,71 l 0,-41"
       id="path4300"
       inkscape:connector-curvature="0" />
    <path
       style="fill:none;stroke:#000000;stroke-width:1px;stroke-linecap:butt;display:inline"
       d="m 333,30 0,42 c 0,17.8740999 7.5352476,30.0527017 15.155336,38.670479 l 76.7643964,86.815066 C 433.044356,206.6739157 424.9410448,219.9879194 412,213 l -79.1421284,-42.735252"
       id="path4295"
       inkscape:connector-curvature="0"
       sodipodi:nodetypes="cssssc" />
    <path
       style="fill:none;stroke:#000000;stroke-width:1px;stroke-linecap:butt;display:inline"
       d="m 333,370 0,-33.1254618"
       id="path4304"
       inkscape:connector-curvature="0" />
    <path
       style="fill:none;stroke:#000000;stroke-width:1px;stroke-linecap:butt;display:inline"
       d="m 289,173.2160054 c 0,39.6117341 52.0092639,112.6216604 78.7792542,162.3543564 5.2980056,9.8425177 -4.8380859,27.0031377 -20,14 L 106,142.2160054 c -21.27585716,-18.2465683 -39,-5.1616901 -39,19 L 67,370"
       id="path4279"
       inkscape:connector-curvature="0"
       zpos="600" />
  </g>
  <g
     connect="UB00UW00"
     inkscape:label="LMNT-120"
     id="g4338"
     inkscape:groupmode="layer"
     style="display:none"
     sodipodi:insensitive="true">
    <path
       inkscape:connector-curvature="0"
       id="path4340"
       d="m 67,30 0,41 c 0,25.55221056 3.9659482,45.184187 14.8125,63.40625 6.6848932,-2.05269 15.10655722,0.024516 24.1875,7.8125 46.3605027,39.7596239 227,194.65625 227,194.65625 l 14.78125,12.6875 c 15.1619141,13.0031377 25.2980056,-4.1574823 20,-14 C 358.2256097,317.8102428 345.4743509,297.0733583 333,275.96875 c -1.4046348,-2.3764176 -2.7954237,-4.7424268 -4.1875,-7.125 -2.7876002,-4.7710471 -5.541903,-9.5298107 -8.21875,-14.28125 -2.672266,-4.743308 -5.2683236,-9.4913096 -7.75,-14.15625 -1.1047112,-2.076585 -2.2257808,-4.1348598 -3.28125,-6.1875 -0.1292756,-0.2514107 -0.2465227,-0.4989922 -0.375,-0.75 -1.1502523,-2.2472628 -2.2314126,-4.4763291 -3.3125,-6.6875 -0.067764,-0.1384764 -0.1512765,-0.2679296 -0.21875,-0.40625 -1.0035954,-2.0592009 -1.9711098,-4.103284 -2.90625,-6.125 -0.077647,-0.1676723 -0.1728517,-0.3326062 -0.25,-0.5 -0.9993047,-2.1708639 -1.9646851,-4.3171856 -2.875,-6.4375 -0.4655363,-1.0830685 -0.9032998,-2.150229 -1.34375,-3.21875 -0.4398077,-1.0682857 -0.8677574,-2.1346756 -1.28125,-3.1875 -0.4481037,-1.139507 -0.896773,-2.2859674 -1.3125,-3.40625 -0.1598147,-0.431197 -0.2826409,-0.8530214 -0.4375,-1.28125 -0.2097238,-0.5792117 -0.4245452,-1.145109 -0.625,-1.71875 -0.3339293,-0.9568893 -0.6614235,-1.9029801 -0.96875,-2.84375 -0.3275421,-1.0011662 -0.6413259,-1.9867136 -0.9375,-2.96875 -0.2540864,-0.843626 -0.4886509,-1.6711322 -0.71875,-2.5 -0.1347917,-0.484488 -0.2798719,-0.9582037 -0.40625,-1.4375 -0.1416329,-0.5381556 -0.2754295,-1.0935537 -0.40625,-1.625 -0.038966,-0.1581006 -0.087005,-0.3112521 -0.125,-0.46875 -0.1946822,-0.8079797 -0.3625675,-1.6144956 -0.53125,-2.40625 -0.029032,-0.1361949 -0.065502,-0.270545 -0.09375,-0.40625 -0.1733901,-0.8333229 -0.3254368,-1.6543135 -0.46875,-2.46875 -0.1392001,-0.7910622 -0.2650497,-1.571147 -0.375,-2.34375 -0.014861,-0.1044279 -0.016932,-0.2084159 -0.03125,-0.3125 -0.080867,-0.5856821 -0.1553156,-1.1440941 -0.21875,-1.71875 -0.012834,-0.11622 -0.019137,-0.2279882 -0.03125,-0.34375 -0.040896,-0.3907008 -0.092409,-0.7708201 -0.125,-1.15625 -0.039038,-0.4615161 -0.066794,-0.9211889 -0.09375,-1.375 -0.011703,-0.1974258 -0.021865,-0.3978014 -0.03125,-0.59375 -0.037624,-0.7828566 -0.0625,-1.5537454 -0.0625,-2.3125 0,-16.2713418 11,-24.0974504 22,-23.9375 10.2800327,0.1494814 20.5421001,7.2780674 21.84375,20.96875 1.161e-4,0.00122 0.031134,-0.00122 0.03125,0 L 412,213 c 12.9410448,6.9879194 21.0308736,-6.3116293 12.90625,-15.5 l -76.75,-86.84375 C 340.5361616,102.0384727 333,89.8740999 333,72 l 0,-42 -266,0 z"
       style="fill:#000000;stroke:none" />
    <path
       inkscape:connector-curvature="0"
       id="path4342"
       d="m 311,149.28125 c -11,-0.1599504 -22,7.6661582 -22,23.9375 0,25.4721891 21.5282235,64.7272174 44,102.75 l 0,-102.75 c 0,-15.6315403 -11,-23.7775496 -22,-23.9375 z"
       style="fill:#ffffff;stroke:none" />
    <path
       sodipodi:nodetypes="cccscc"
       inkscape:connector-curvature="0"
       style="fill:#ffffff;stroke:none"
       d="m 333,370 0,-33.1254618 c 0,0 -180.6394973,-154.8989089 -227,-194.6585328 -21.27585716,-18.2465683 -39,-5.1616901 -39,19 L 67,370 z"
       id="path4344" />
    <path
       inkscape:connector-curvature="0"
       id="path4346"
       d="m 333,275.9674392 0,-102.7514338 c 0,-31.2630807 -44,-32.5426837 -44,0"
       style="fill:none;stroke:#000000;stroke-width:1px;stroke-linecap:round;display:inline" />
    <path
       inkscape:connector-curvature="0"
       id="path4348"
       d="M 81.85329561,134.4237405 C 70.99015906,116.1912588 67,96.56945037 67,71 l 0,-41"
       style="fill:none;stroke:#000000;stroke-width:1px;stroke-linecap:butt;display:inline" />
    <path
       sodipodi:nodetypes="cssssc"
       inkscape:connector-curvature="0"
       id="path4350"
       d="m 333,30 0,42 c 0,17.8740999 7.5352476,30.0527017 15.155336,38.670479 l 76.7643964,86.815066 C 433.044356,206.6739157 424.9410448,219.9879194 412,213 l -79.1421284,-42.735252"
       style="fill:none;stroke:#000000;stroke-width:1px;stroke-linecap:butt;display:inline" />
    <path
       inkscape:connector-curvature="0"
       id="path4352"
       d="m 333,370 0,-33.1254618"
       style="fill:none;stroke:#000000;stroke-width:1px;stroke-linecap:butt;display:inline" />
    <path
       inkscape:connector-curvature="0"
       id="path4354"
       d="m 289,173.2160054 c 0,39.6117341 52.0092639,112.6216604 78.7792542,162.3543564 5.2980056,9.8425177 -4.8380859,27.0031377 -20,14 L 106,142.2160054 c -21.27585716,-18.2465683 -39,-5.1616901 -39,19 L 67,370"
       style="fill:none;stroke:#000000;stroke-width:1px;stroke-linecap:butt;display:inline" />
  </g>
</svg>
