<?xml version="1.0" encoding="UTF-8" standalone="no"?>
<!-- Created with Inkscape (http://www.inkscape.org/) -->

<svg
   xmlns:dc="http://purl.org/dc/elements/1.1/"
   xmlns:cc="http://creativecommons.org/ns#"
   xmlns:rdf="http://www.w3.org/1999/02/22-rdf-syntax-ns#"
   xmlns:svg="http://www.w3.org/2000/svg"
   xmlns="http://www.w3.org/2000/svg"
   xmlns:sodipodi="http://sodipodi.sourceforge.net/DTD/sodipodi-0.dtd"
   xmlns:inkscape="http://www.inkscape.org/namespaces/inkscape"
   style="display:inline"
   sodipodi:docname="201214_Hnds-R+_XX_XX_XX_XX_.svg"
   inkscape:version="0.48.3.1 r9886"
   version="1.1"
   id="svg2902"
   height="400"
   width="400">
  <sodipodi:namedview
     id="base"
     pagecolor="#f0f0f0"
     bordercolor="#666666"
     borderopacity="1.0"
     inkscape:pageopacity="1"
     inkscape:pageshadow="2"
     inkscape:zoom="0.9605411283"
     inkscape:cx="261.767538"
     inkscape:cy="161.0212428"
     inkscape:document-units="px"
     inkscape:current-layer="svg2902"
     showgrid="false"
     inkscape:window-width="1018"
     inkscape:window-height="709"
     inkscape:window-x="0"
     inkscape:window-y="1"
     inkscape:window-maximized="0"
     showguides="true"
     inkscape:guide-bbox="true"
     inkscape:snap-bbox="true"
     inkscape:snap-global="false" />
  <defs
     id="defs2904" />
  <metadata
     id="metadata2907">
    <rdf:RDF>
      <cc:Work
         rdf:about="">
        <dc:format>image/svg+xml</dc:format>
        <dc:type
           rdf:resource="http://purl.org/dc/dcmitype/StillImage" />
        <dc:title />
      </cc:Work>
    </rdf:RDF>
  </metadata>
  <g
     inkscape:groupmode="layer"
     id="bg"
     inkscape:label="XX_BG"
     sodipodi:insensitive="true">
    <path
       style="fill:#f4d7e3"
       d="m 0,0 400,0 0,400 -400,0 z"
       id="bgrect"
       inkscape:connector-curvature="0" />
    <path
       style="fill:#fff6d5;display:inline"
       d="m 0,0 400,0 0,400 -400,0 z"
       id="bgrect-3"
       inkscape:connector-curvature="0" />
  </g>
  <g
     inkscape:label="XX_REFERENZ"
     inkscape:groupmode="layer"
     id="XX_referenz"
     style="display:none"
     sodipodi:insensitive="true">
    <path
       id="innerframe"
       style="fill:none;stroke:#ff0000;stroke-width:1"
       d="m 40.5,40.5 319,0 0,319 -319,0 0,-319 z"
       inkscape:label="#innerframe"
       sodipodi:insensitive="true"
       inkscape:connector-curvature="0" />
    <path
       id="outerframe"
       style="fill:none;stroke:#ff0000;stroke-width:1"
       d="m 30.5,30.5 339,0 0,339 -339,0 0,-339 z"
       inkscape:label="#outerframe"
       sodipodi:nodetypes="ccccc"
       sodipodi:insensitive="true"
       inkscape:connector-curvature="0" />
    <path
       style="opacity:0.5;fill:none;stroke:#ffc200;stroke-width:1px;stroke-linecap:square"
       d="m 189,30.5 0,10"
       id="ref-S-top-1"
       sodipodi:insensitive="true"
       inkscape:connector-curvature="0" />
    <path
       style="opacity:0.5;fill:none;stroke:#ffc200;stroke-width:1px;stroke-linecap:square"
       d="m 191,30.5 0,10"
       id="ref-S-top-2"
       sodipodi:insensitive="true"
       inkscape:connector-curvature="0" />
    <path
       style="opacity:0.5;fill:none;stroke:#ffc200;stroke-width:1px;stroke-linecap:square"
       d="m 209,30.5 0,10"
       id="ref-S-top-3"
       sodipodi:insensitive="true"
       inkscape:connector-curvature="0" />
    <path
       style="opacity:0.5;fill:none;stroke:#ffc200;stroke-width:1px;stroke-linecap:square"
       d="m 211,30.5 0,10"
       id="ref-S-top-4"
       sodipodi:insensitive="true"
       inkscape:connector-curvature="0" />
    <path
       style="opacity:0.5;fill:none;stroke:#00ff00;stroke-width:1px;stroke-linecap:square"
       d="m 199,30.5 0,10"
       id="ref-I-top-1"
       sodipodi:insensitive="true"
       inkscape:connector-curvature="0" />
    <path
       style="opacity:0.5;fill:none;stroke:#00ff00;stroke-width:1px;stroke-linecap:square"
       d="m 201,30.5 0,10"
       id="ref-I-top-2"
       sodipodi:insensitive="true"
       inkscape:connector-curvature="0" />
    <path
       style="opacity:0.5;fill:none;stroke:#00ffcc;stroke-width:1px;stroke-linecap:square"
       d="m 66,30.5 0,10"
       id="ref-C-top-1"
       sodipodi:insensitive="true"
       inkscape:connector-curvature="0" />
    <path
       style="opacity:0.5;fill:none;stroke:#00ffcc;stroke-width:1px;stroke-linecap:square"
       d="m 68,30.5 0,10"
       id="ref-C-top-2"
       sodipodi:insensitive="true"
       inkscape:connector-curvature="0" />
    <path
       style="opacity:0.5;fill:none;stroke:#00ffcc;stroke-width:1px;stroke-linecap:square"
       d="m 92,30.5 0,10"
       id="ref-C-top-3"
       sodipodi:insensitive="true"
       inkscape:connector-curvature="0" />
    <path
       style="opacity:0.5;fill:none;stroke:#00ffcc;stroke-width:1px;stroke-linecap:square"
       d="m 94,30.5 0,10"
       id="ref-C-top-4"
       sodipodi:insensitive="true"
       inkscape:connector-curvature="0" />
    <path
       style="opacity:0.5;fill:none;stroke:#00ffcc;stroke-width:1px;stroke-linecap:square"
       d="m 306,30.5 0,10"
       id="ref-C-top-5"
       sodipodi:insensitive="true"
       inkscape:connector-curvature="0" />
    <path
       style="opacity:0.5;fill:none;stroke:#00ffcc;stroke-width:1px;stroke-linecap:square"
       d="m 308,30.5 0,10"
       id="ref-C-top-6"
       sodipodi:insensitive="true"
       inkscape:connector-curvature="0" />
    <path
       style="opacity:0.5;fill:none;stroke:#00ffcc;stroke-width:1px;stroke-linecap:square"
       d="m 332,30.5 0,10"
       id="ref-C-top-7"
       sodipodi:insensitive="true"
       inkscape:connector-curvature="0" />
    <path
       style="opacity:0.5;fill:none;stroke:#00ffcc;stroke-width:1px;stroke-linecap:square"
       d="m 334,30.5 0,10"
       id="ref-C-top-8"
       sodipodi:insensitive="true"
       inkscape:connector-curvature="0" />
    <path
       style="opacity:0.5;fill:none;stroke:#ffc200;stroke-width:1px;stroke-linecap:square"
       d="m 369.5,189 -10,0"
       id="ref-S-right-1"
       sodipodi:insensitive="true"
       inkscape:connector-curvature="0" />
    <path
       style="opacity:0.5;fill:none;stroke:#ffc200;stroke-width:1px;stroke-linecap:square"
       d="m 369.5,191 -10,0"
       id="ref-S-right-2"
       sodipodi:insensitive="true"
       inkscape:connector-curvature="0" />
    <path
       style="opacity:0.5;fill:none;stroke:#ffc200;stroke-width:1px;stroke-linecap:square"
       d="m 369.5,209 -10,0"
       id="ref-S-right-3"
       sodipodi:insensitive="true"
       inkscape:connector-curvature="0" />
    <path
       style="opacity:0.5;fill:none;stroke:#ffc200;stroke-width:1px;stroke-linecap:square"
       d="m 369.5,211 -10,0"
       id="ref-S-right-4"
       sodipodi:insensitive="true"
       inkscape:connector-curvature="0" />
    <path
       style="opacity:0.5;fill:none;stroke:#00ff00;stroke-width:1px;stroke-linecap:square"
       d="m 369.5,199 -10,0"
       id="ref-I-right-1"
       sodipodi:insensitive="true"
       inkscape:connector-curvature="0" />
    <path
       style="opacity:0.5;fill:none;stroke:#00ff00;stroke-width:1px;stroke-linecap:square"
       d="m 369.5,201 -10,0"
       id="ref-I-right-2"
       sodipodi:insensitive="true"
       inkscape:connector-curvature="0" />
    <path
       style="opacity:0.5;fill:none;stroke:#00ffcc;stroke-width:1px;stroke-linecap:square"
       d="m 369.5,66 -10,0"
       id="ref-C-right-1"
       sodipodi:insensitive="true"
       inkscape:connector-curvature="0" />
    <path
       style="opacity:0.5;fill:none;stroke:#00ffcc;stroke-width:1px;stroke-linecap:square"
       d="m 369.5,68 -10,0"
       id="ref-C-right-2"
       sodipodi:insensitive="true"
       inkscape:connector-curvature="0" />
    <path
       style="opacity:0.5;fill:none;stroke:#00ffcc;stroke-width:1px;stroke-linecap:square"
       d="m 369.5,92 -10,0"
       id="ref-C-right-3"
       sodipodi:insensitive="true"
       inkscape:connector-curvature="0" />
    <path
       style="opacity:0.5;fill:none;stroke:#00ffcc;stroke-width:1px;stroke-linecap:square"
       d="m 369.5,94 -10,0"
       id="ref-C-right-4"
       sodipodi:insensitive="true"
       inkscape:connector-curvature="0" />
    <path
       style="opacity:0.5;fill:none;stroke:#00ffcc;stroke-width:1px;stroke-linecap:square"
       d="m 369.5,306 -10,0"
       id="ref-C-right-5"
       sodipodi:insensitive="true"
       inkscape:connector-curvature="0" />
    <path
       style="opacity:0.5;fill:none;stroke:#00ffcc;stroke-width:1px;stroke-linecap:square"
       d="m 369.5,308 -10,0"
       id="ref-C-right-6"
       sodipodi:insensitive="true"
       inkscape:connector-curvature="0" />
    <path
       style="opacity:0.5;fill:none;stroke:#00ffcc;stroke-width:1px;stroke-linecap:square"
       d="m 369.5,332 -10,0"
       id="ref-C-right-7"
       sodipodi:insensitive="true"
       inkscape:connector-curvature="0" />
    <path
       style="opacity:0.5;fill:none;stroke:#00ffcc;stroke-width:1px;stroke-linecap:square"
       d="m 369.5,334 -10,0"
       id="ref-C-right-8"
       sodipodi:insensitive="true"
       inkscape:connector-curvature="0" />
    <path
       style="opacity:0.5;fill:none;stroke:#ffc200;stroke-width:1px;stroke-linecap:square"
       d="m 189,369.5 0,-10"
       id="ref-S-bottom-1"
       sodipodi:insensitive="true"
       inkscape:connector-curvature="0" />
    <path
       style="opacity:0.5;fill:none;stroke:#ffc200;stroke-width:1px;stroke-linecap:square"
       d="m 191,369.5 0,-10"
       id="ref-S-bottom-2"
       sodipodi:insensitive="true"
       inkscape:connector-curvature="0" />
    <path
       style="opacity:0.5;fill:none;stroke:#ffc200;stroke-width:1px;stroke-linecap:square"
       d="m 209,369.5 0,-10"
       id="ref-S-bottom-3"
       sodipodi:insensitive="true"
       inkscape:connector-curvature="0" />
    <path
       style="opacity:0.5;fill:none;stroke:#ffc200;stroke-width:1px;stroke-linecap:square"
       d="m 211,369.5 0,-10"
       id="ref-S-bottom-4"
       sodipodi:insensitive="true"
       inkscape:connector-curvature="0" />
    <path
       style="opacity:0.5;fill:none;stroke:#00ff00;stroke-width:1px;stroke-linecap:square"
       d="m 199,369.5 0,-10"
       id="ref-I-bottom-1"
       sodipodi:insensitive="true"
       inkscape:connector-curvature="0" />
    <path
       style="opacity:0.5;fill:none;stroke:#00ff00;stroke-width:1px;stroke-linecap:square"
       d="m 201,369.5 0,-10"
       id="ref-I-bottom-2"
       sodipodi:insensitive="true"
       inkscape:connector-curvature="0" />
    <path
       style="opacity:0.5;fill:none;stroke:#00ffcc;stroke-width:1px;stroke-linecap:square"
       d="m 66,369.5 0,-10"
       id="ref-C-bottom-1"
       sodipodi:insensitive="true"
       inkscape:connector-curvature="0" />
    <path
       style="opacity:0.5;fill:none;stroke:#00ffcc;stroke-width:1px;stroke-linecap:square"
       d="m 68,369.5 0,-10"
       id="ref-C-bottom-2"
       sodipodi:insensitive="true"
       inkscape:connector-curvature="0" />
    <path
       style="opacity:0.5;fill:none;stroke:#00ffcc;stroke-width:1px;stroke-linecap:square"
       d="m 92,369.5 0,-10"
       id="ref-C-bottom-3"
       sodipodi:insensitive="true"
       inkscape:connector-curvature="0" />
    <path
       style="opacity:0.5;fill:none;stroke:#00ffcc;stroke-width:1px;stroke-linecap:square"
       d="m 94,369.5 0,-10"
       id="ref-C-bottom-4"
       sodipodi:insensitive="true"
       inkscape:connector-curvature="0" />
    <path
       style="opacity:0.5;fill:none;stroke:#00ffcc;stroke-width:1px;stroke-linecap:square"
       d="m 306,369.5 0,-10"
       id="ref-C-bottom-5"
       sodipodi:insensitive="true"
       inkscape:connector-curvature="0" />
    <path
       style="opacity:0.5;fill:none;stroke:#00ffcc;stroke-width:1px;stroke-linecap:square"
       d="m 308,369.5 0,-10"
       id="ref-C-bottom-6"
       sodipodi:insensitive="true"
       inkscape:connector-curvature="0" />
    <path
       style="opacity:0.5;fill:none;stroke:#00ffcc;stroke-width:1px;stroke-linecap:square"
       d="m 332,369.5 0,-10"
       id="ref-C-bottom-7"
       sodipodi:insensitive="true"
       inkscape:connector-curvature="0" />
    <path
       style="opacity:0.5;fill:none;stroke:#00ffcc;stroke-width:1px;stroke-linecap:square"
       d="m 334,369.5 0,-10"
       id="ref-C-bottom-8"
       sodipodi:insensitive="true"
       inkscape:connector-curvature="0" />
    <path
       style="opacity:0.5;fill:none;stroke:#ffc200;stroke-width:1px;stroke-linecap:square"
       d="m 30.5,189 10,0"
       id="ref-S-left-1"
       sodipodi:insensitive="true"
       inkscape:connector-curvature="0" />
    <path
       style="opacity:0.5;fill:none;stroke:#ffc200;stroke-width:1px;stroke-linecap:square"
       d="m 30.5,191 10,0"
       id="ref-S-left-2"
       sodipodi:insensitive="true"
       inkscape:connector-curvature="0" />
    <path
       style="opacity:0.5;fill:none;stroke:#ffc200;stroke-width:1px;stroke-linecap:square"
       d="m 30.5,209 10,0"
       id="ref-S-left-3"
       sodipodi:insensitive="true"
       inkscape:connector-curvature="0" />
    <path
       style="opacity:0.5;fill:none;stroke:#ffc200;stroke-width:1px;stroke-linecap:square"
       d="m 30.5,211 10,0"
       id="ref-S-left-4"
       sodipodi:insensitive="true"
       inkscape:connector-curvature="0" />
    <path
       style="opacity:0.5;fill:none;stroke:#00ff00;stroke-width:1px;stroke-linecap:square"
       d="m 40.5,199 -10,0"
       id="ref-I-left-1"
       sodipodi:insensitive="true"
       inkscape:connector-curvature="0" />
    <path
       style="opacity:0.5;fill:none;stroke:#00ff00;stroke-width:1px;stroke-linecap:square"
       d="m 40.5,201 -10,0"
       id="ref-I-left-2"
       sodipodi:insensitive="true"
       inkscape:connector-curvature="0" />
    <path
       style="opacity:0.5;fill:none;stroke:#00ffcc;stroke-width:1px;stroke-linecap:square"
       d="m 30.5,66 10,0"
       id="ref-C-left-1"
       sodipodi:insensitive="true"
       inkscape:connector-curvature="0" />
    <path
       style="opacity:0.5;fill:none;stroke:#00ffcc;stroke-width:1px;stroke-linecap:square"
       d="m 30.5,68 10,0"
       id="ref-C-left-2"
       sodipodi:insensitive="true"
       inkscape:connector-curvature="0" />
    <path
       style="opacity:0.5;fill:none;stroke:#00ffcc;stroke-width:1px;stroke-linecap:square"
       d="m 30.5,92 10,0"
       id="ref-C-left-3"
       sodipodi:insensitive="true"
       inkscape:connector-curvature="0" />
    <path
       style="opacity:0.5;fill:none;stroke:#00ffcc;stroke-width:1px;stroke-linecap:square"
       d="m 30.5,94 10,0"
       id="ref-C-left-4"
       sodipodi:insensitive="true"
       inkscape:connector-curvature="0" />
    <path
       style="opacity:0.5;fill:none;stroke:#00ffcc;stroke-width:1px;stroke-linecap:square"
       d="m 30.5,306 10,0"
       id="ref-C-left-5"
       sodipodi:insensitive="true"
       inkscape:connector-curvature="0" />
    <path
       style="opacity:0.5;fill:none;stroke:#00ffcc;stroke-width:1px;stroke-linecap:square"
       d="m 30.5,308 10,0"
       id="ref-C-left-6"
       sodipodi:insensitive="true"
       inkscape:connector-curvature="0" />
    <path
       style="opacity:0.5;fill:none;stroke:#00ffcc;stroke-width:1px;stroke-linecap:square"
       d="m 30.5,332 10,0"
       id="ref-C-left-7"
       sodipodi:insensitive="true"
       inkscape:connector-curvature="0" />
    <path
       style="opacity:0.5;fill:none;stroke:#00ffcc;stroke-width:1px;stroke-linecap:square"
       d="m 30.5,334 10,0"
       id="ref-C-left-8"
       sodipodi:insensitive="true"
       inkscape:connector-curvature="0" />
    <path
       style="fill:none;stroke:#000000;stroke-width:1px;stroke-linecap:butt"
       d="m 190,30 0,11"
       id="S-top-1"
       inkscape:connector-curvature="0"
       sodipodi:nodetypes="cc" />
    <path
       style="fill:none;stroke:#000000;stroke-width:1px;stroke-linecap:butt"
       d="m 210,30 0,11"
       id="S-top-2"
       inkscape:connector-curvature="0"
       sodipodi:nodetypes="cc" />
    <path
       style="fill:none;stroke:#000000;stroke-width:1px;stroke-linecap:butt"
       d="m 370,190 -11,0"
       id="S-right-1"
       inkscape:connector-curvature="0"
       sodipodi:nodetypes="cc" />
    <path
       style="fill:none;stroke:#000000;stroke-width:1px;stroke-linecap:butt"
       d="m 370,210 -11,0"
       id="S-right-2"
       inkscape:connector-curvature="0"
       sodipodi:nodetypes="cc" />
    <path
       style="fill:none;stroke:#000000;stroke-width:1px;stroke-linecap:butt"
       d="m 190,370 0,-11"
       id="S-bottom-1"
       inkscape:connector-curvature="0"
       sodipodi:nodetypes="cc" />
    <path
       style="fill:none;stroke:#000000;stroke-width:1px;stroke-linecap:butt"
       d="m 210,370 0,-11"
       id="S-bottom-2"
       inkscape:connector-curvature="0"
       sodipodi:nodetypes="cc" />
    <path
       style="fill:none;stroke:#000000;stroke-width:1px;stroke-linecap:butt"
       d="m 30,190 11,0"
       id="S-left-1"
       inkscape:connector-curvature="0"
       sodipodi:nodetypes="cc" />
    <path
       style="fill:none;stroke:#000000;stroke-width:1px;stroke-linecap:butt"
       d="m 30,210 11,0"
       id="S-left-2"
       inkscape:connector-curvature="0"
       sodipodi:nodetypes="cc" />
    <path
       style="fill:none;stroke:#000000;stroke-width:1px;stroke-linecap:butt"
       d="m 200,30 0,11"
       id="I-top-1"
       inkscape:connector-curvature="0"
       sodipodi:nodetypes="cc" />
    <path
       style="fill:none;stroke:#000000;stroke-width:1px;stroke-linecap:butt"
       d="m 370,200 -11,0"
       id="I-right-1"
       inkscape:connector-curvature="0"
       sodipodi:nodetypes="cc" />
    <path
       style="fill:none;stroke:#000000;stroke-width:1px;stroke-linecap:butt"
       d="m 200,370 0,-11"
       id="I-bottom-1"
       inkscape:connector-curvature="0"
       sodipodi:nodetypes="cc" />
    <path
       style="fill:none;stroke:#000000;stroke-width:1px;stroke-linecap:butt"
       d="m 41,200 -11,0"
       id="I-left-1"
       inkscape:connector-curvature="0"
       sodipodi:nodetypes="cc" />
    <path
       style="fill:none;stroke:#000000;stroke-width:1px;stroke-linecap:butt"
       d="m 67,30 0,11"
       id="C-top-1"
       inkscape:connector-curvature="0"
       sodipodi:nodetypes="cc" />
    <path
       style="fill:none;stroke:#000000;stroke-width:1px;stroke-linecap:butt"
       d="m 93,30 0,11"
       id="C-top-2"
       inkscape:connector-curvature="0"
       sodipodi:nodetypes="cc" />
    <path
       style="fill:none;stroke:#000000;stroke-width:1px;stroke-linecap:butt"
       d="m 307,30 0,11"
       id="C-top-3"
       inkscape:connector-curvature="0"
       sodipodi:nodetypes="cc" />
    <path
       style="fill:none;stroke:#000000;stroke-width:1px;stroke-linecap:butt"
       d="m 333,30 0,11"
       id="C-top-4"
       inkscape:connector-curvature="0"
       sodipodi:nodetypes="cc" />
    <path
       style="fill:none;stroke:#000000;stroke-width:1px;stroke-linecap:butt"
       d="m 370,67 -11,0"
       id="C-right-1"
       inkscape:connector-curvature="0"
       sodipodi:nodetypes="cc" />
    <path
       style="fill:none;stroke:#000000;stroke-width:1px;stroke-linecap:butt"
       d="m 370,93 -11,0"
       id="C-right-2"
       inkscape:connector-curvature="0"
       sodipodi:nodetypes="cc" />
    <path
       style="fill:none;stroke:#000000;stroke-width:1px;stroke-linecap:butt"
       d="m 370,307 -11,0"
       id="C-right-3"
       inkscape:connector-curvature="0"
       sodipodi:nodetypes="cc" />
    <path
       style="fill:none;stroke:#000000;stroke-width:1px;stroke-linecap:butt"
       d="m 370,333 -11,0"
       id="C-right-4"
       inkscape:connector-curvature="0"
       sodipodi:nodetypes="cc" />
    <path
       style="fill:none;stroke:#000000;stroke-width:1px;stroke-linecap:butt"
       d="m 67,370 0,-11"
       id="C-bottom-1"
       inkscape:connector-curvature="0"
       sodipodi:nodetypes="cc" />
    <path
       style="fill:none;stroke:#000000;stroke-width:1px;stroke-linecap:butt"
       d="m 93,370 0,-11"
       id="C-bottom-2"
       inkscape:connector-curvature="0"
       sodipodi:nodetypes="cc" />
    <path
       style="fill:none;stroke:#000000;stroke-width:1px;stroke-linecap:butt"
       d="m 307,370 0,-11"
       id="C-bottom-3"
       inkscape:connector-curvature="0"
       sodipodi:nodetypes="cc" />
    <path
       style="fill:none;stroke:#000000;stroke-width:1px;stroke-linecap:butt"
       d="m 333,370 0,-11"
       id="C-bottom-4"
       inkscape:connector-curvature="0"
       sodipodi:nodetypes="cc" />
    <path
       style="fill:none;stroke:#000000;stroke-width:1px;stroke-linecap:butt"
       d="m 30,67 11,0"
       id="C-left-1"
       inkscape:connector-curvature="0"
       sodipodi:nodetypes="cc" />
    <path
       style="fill:none;stroke:#000000;stroke-width:1px;stroke-linecap:butt"
       d="m 30,93 11,0"
       id="C-left-2"
       inkscape:connector-curvature="0"
       sodipodi:nodetypes="cc" />
    <path
       style="fill:none;stroke:#000000;stroke-width:1px;stroke-linecap:butt"
       d="m 30,307 11,0"
       id="C-left-3"
       inkscape:connector-curvature="0"
       sodipodi:nodetypes="cc" />
    <path
       style="fill:none;stroke:#000000;stroke-width:1px;stroke-linecap:butt"
       d="m 30,333 11,0"
       id="C-left-4"
       inkscape:connector-curvature="0"
       sodipodi:nodetypes="cc" />
  </g>
  <g
     sodipodi:insensitive="true"
     inkscape:label="XX_____________"
     id="g3353"
     inkscape:groupmode="layer"
     style="display:none" />
  <g
     inkscape:groupmode="layer"
     id="layer1"
     inkscape:label="XX_DRAFT"
     style="display:none"
     sodipodi:insensitive="true">
    <path
       inkscape:connector-curvature="0"
       style="fill:none;stroke:#000000;stroke-width:1px;display:inline"
       d="m -985.7504356,327.6995392 c 29.426798,-50.9687092 21.9958658,-82.973179 103.6604441,-118.191242 20.3467345,-8.7253932 11.6475999,-26.4243539 -6.1544744,-20.4166207 -11.8810008,4.0093677 -17.3510769,6.4104659 -20.4699091,7.6247703 -19.1360296,7.4505546 -27.6079111,1.9103142 -17.3917614,-15.0066779 18.9223101,-31.334429 26.356521,-44.360701 50.7621,-81.643645 3.43977,-5.25437648 -0.8134045,-13.16688018 -6.4600717,-15.27788198 -5.6477362,-2.1114015 -11.6203131,1.9414054 -14.9166735,7.2862032 l -31.0545703,50.35351638 c -1.4594685,2.3663552 -4.4474404,4.2005101 -7.2713085,3.1448094 -2.8238684,-1.0557004 -4.9085752,-3.1603934 -3.4170641,-7.140649 l 24.3335094,-64.93654878 c 2.2024537,-5.8774793 -0.8134045,-13.1668794 -6.460606,-15.2780808 -5.6472018,-2.1112017 -12.7136858,1.4089226 -14.9161389,7.2864028 l -24.3335103,64.93654878 c -0.9751654,2.6023318 -4.4479744,4.2003104 -7.2713085,3.1448094 -2.8238676,-1.0557006 -4.6039854,-3.0590692 -3.4170645,-7.140649 l 19.2370249,-66.15222148 c 1.7526272,-6.026929 -0.8134047,-13.1668796 -6.4606067,-15.2780814 -5.6477358,-2.1114009 -13.1634519,1.2592688 -14.9161388,7.2864034 l -19.2370246,66.15222148 c -1.4848765,5.1061888 -6.4479746,6.2003104 -9.2713085,5.1448091 -2.823868,-1.0557005 -5.371436,-4.9981545 -4.417064,-9.1406484 l 14.661481,-63.63879158 c 1.4093341,-6.1172757 -0.8134043,-13.1668798 -6.4606063,-15.278081 -5.6477357,-2.1114017 -13.2374077,1.2375067 -14.9161387,7.2864026 l -17.661482,63.63879118 c -16.841794,60.6852535 -39.129026,133.8020752 -58.618804,175.2628058"
       id="path4990-6-1"
       sodipodi:nodetypes="ccssssssszssssszssssszsssssc" />
    <path
       sodipodi:nodetypes="ccssssssssssssssssssc"
       id="path3627"
       d="m -705.7504356,327.6995392 c 29.426798,-50.9687092 21.9958658,-82.973179 103.6604441,-118.191242 20.3467345,-8.7253932 11.6475999,-26.4243539 -6.1544744,-20.4166207 -11.8810008,4.0093677 -17.3510769,6.4104659 -20.4699091,7.6247703 -19.1360296,7.4505546 -26.1838095,3.3500602 -15.3917614,-15.0066779 18.5515878,-31.55533 23.1961733,-42.1002733 44.6192166,-80.2864825 8.8132489,-15.70946586 -9.6907467,-22.82254425 -17.2338618,-10.34884128 l -31.0545703,51.35351638 c -4.4570991,7.3705 -13.2979839,2.9681849 -10.6883726,-3.9958396 l 24.3335094,-64.93654878 c 6.2441278,-16.66311694 -15.2820504,-20.84817785 -19.8053032,-8.77739884 l -24.3335103,64.93654882 c -2.9882344,7.9744198 -14.5290049,4.5931655 -12.2598147,-3.2101188 l 19.2370249,-66.15222148 c 5.0457485,-17.35130421 -15.5731263,-18.66064964 -19.3767455,-6.991678 l -21.2370246,65.15222148 c -3.4964248,10.7265424 -14.4263482,6.3067465 -12.8213975,-1.2844455 l 12.6159247,-59.67155825 c 3.7495451,-17.73482348 -14.961884,-18.34374561 -18.9762427,-4.47127656 L -747.5702047,109.98581 c -17.5063446,60.4968918 -39.129026,133.8020752 -58.618804,175.2628058"
       style="fill:none;stroke:#000000;stroke-width:1px;display:inline"
       inkscape:connector-curvature="0" />
    <path
       sodipodi:nodetypes="ccssssssssssssssssssc"
       id="path3627-3-6"
       d="m -375.5861872,351.3502607 c 9.7579922,-58.0390157 -8.3896357,-85.4282187 55.8167145,-146.9664987 16.0142072,-15.2861787 1.6780059,-28.8287592 -12.901808,-16.9782009 -9.7305384,7.9088452 -14.016505,12.0702747 -16.5142728,14.2980102 -15.3253954,13.6686008 -23.3618271,12.2898257 -19.6658573,-8.6810575 6.3533917,-36.0490593 7.0197179,-47.5522768 13.7460529,-90.8176183 2.7671542,-17.79897559 -17.0559313,-17.99650816 -19.763919,-3.67314774 l -11.1486294,58.96844964 c -1.6001042,8.4634313 -11.4220505,7.4285436 -11.4108709,-0.00836 l 0.104246,-69.34597451 c 0.02675,-17.79460262 -21.60462,-14.19253249 -21.623998,-1.30210401 l -0.1042468,69.34597492 c -0.012802,8.5159117 -12.0075256,9.3812836 -12.6086142,1.2770155 l -5.095719,-68.70380771 c -1.1838267,-15.96112341 -21.1707127,-13.42122116 -20.5983709,0.22122773 l 2.8723487,68.46585128 c 0.4728983,11.2720924 -11.1655414,10.92748 -12.4617765,3.2775233 l -9.0343518,-53.3177992 c -2.8051595,-16.55513691 -20.7637967,-14.15879146 -19.3422648,2.4427223 l 4.4636196,52.1288626 c 5.2449002,61.2531314 7.7719514,132.0986952 12.3306103,184.6974246"
       style="fill:none;stroke:#000000;stroke-width:1px;display:inline"
       inkscape:connector-curvature="0" />
    <path
       style="fill:none;stroke:#000000;stroke-width:1px;stroke-linecap:butt;display:inline"
       d="M 500.1495765,68.2634692 C 498.1217407,63.84674495 497,57.50680706 497,46.5 L 497,30"
       id="C-top-1-7"
       inkscape:connector-curvature="0"
       sodipodi:nodetypes="csc" />
    <path
       style="fill:none;stroke:#000000;stroke-width:1px;stroke-linecap:butt;display:inline"
       d="m 763,370 0,-41.5"
       id="C-bottom-4-2"
       inkscape:connector-curvature="0"
       sodipodi:nodetypes="cc" />
    <path
       style="fill:none;stroke:#000000;stroke-width:1px;stroke-linecap:butt;display:inline"
       d="m 801,67 -12,0 c -18.9559164,0 -27.3292957,36.8764272 -33.5515669,52.7526172 -5.5357124,14.1244279 -19.2547636,5.7757832 -15.2992312,-4.633733 C 758.0157333,68.10070013 763,57.02018542 763,42 l 0,-12"
       id="C-right-1-3"
       inkscape:connector-curvature="0"
       sodipodi:nodetypes="cssssc" />
    <path
       style="fill:none;stroke:#000000;stroke-width:1px;stroke-linecap:butt;display:inline"
       d="m 800,333 -11,0 c -68.3073258,0 -65.3109232,-83.7144335 -40.4338564,-191.4348062 2.8961795,-12.5407688 -11.8710416,-17.0157376 -15.4111672,-4.8275986 -4.9360216,16.9940064 -27.5915519,75.8914478 -31.9624353,88.8334208 -10.1473141,30.0457029 -41.1167943,18.9286856 -36.8277616,-8.8311551 7.8881706,-51.0544859 11.2089244,-69.8367679 19.2914043,-132.50616256 3.2516841,-25.21269168 -23.9939454,-25.39496929 -27.4625355,-5.11678319 l -13.4997012,78.92240015 c -2.0495312,11.982037 -16.5869174,9.3476956 -16.0636593,-1.1350063 l 4.9726535,-99.61975164 c 1.1639384,-23.31778368 -27.1532877,-23.52600441 -28.3145842,-0.96176353 l -4.9726548,96.61975227 c -0.779653,15.148825 -21.9628269,13.682405 -21.8763921,-0.4432673 l 0.5888152,-96.22752723 c 0.1382125,-22.58747283 -29.4944031,-20.97956769 -30.0206286,-1.71615458 l -2.6955036,98.67365701 c -0.4347946,15.916422 -17.299008,16.1477419 -17.8665854,-0.6123612 L 523.9748441,79.66314037 C 523.18191,56.24843524 496.4585941,58.29804869 496.503923,80.1982037 l 0.1528134,73.829963 C 496.8363187,240.7911953 497,285.1110198 497,359 l 0,11"
       id="C-right-4-5"
       inkscape:connector-curvature="0"
       sodipodi:nodetypes="csssssssssssssssssssssc" />
    <path
       sodipodi:nodetypes="ccssssssssssssssssssc"
       id="path3627-3-6-1-8"
       d="m 38.24549041,-153.9604923 c 66.21011999,11.1343075 97.45535029,-9.5729512 167.65738339,63.6893786 17.4382648,18.2729298 32.8874565,1.9146801 19.3685008,-14.7215425 -9.0223031,-11.1029814 -13.7696053,-15.9934618 -16.3109757,-18.8435271 -15.5929539,-17.4869645 -14.020066,-26.6568941 9.9032324,-22.4396265 41.1242767,7.2495053 54.2469908,8.0098134 103.6035041,15.6848638 20.3048294,3.1574472 20.6488055,-20.1731364 4.1902771,-22.5515194 l -67.2704057,-9.721087 c -11.8756354,-1.7161199 -9.0691565,-16.0339671 0.00954,-16.0203162 l 79.1089448,0.1189493 c 20.2998408,0.030523 16.1906481,-24.651842 1.4854226,-24.6739531 l -79.1089453,-0.1189502 c -9.7148363,-0.014607 -10.7020408,-13.7011261 -1.4568019,-14.3869952 l 78.3763696,-5.8144443 c 18.2082326,-1.3507994 15.3107467,-24.1567343 -0.2523735,-23.5036665 l -78.1049122,3.2774788 c -12.8590498,0.5395982 -11.5062199,-15.0018176 -2.7389541,-16.2194467 l 59.8242204,-8.3086013 c 18.973086,-2.6350499 16.1521568,-20.6924247 -2.7866244,-19.070393 l -59.4678976,5.0931905 c -70.1939273,6.0118325 -150.9215838,-0.9302198 -210.70031369,-0.9302198"
       style="fill:none;stroke:#000000;stroke-width:1px;display:inline"
       inkscape:connector-curvature="0" />
    <path
       sodipodi:nodetypes="cc"
       inkscape:connector-curvature="0"
       id="path3541-9"
       d="m 333,860 0,-40"
       style="fill:none;stroke:#00ff00;stroke-width:1px;stroke-linecap:butt;display:inline" />
    <path
       sodipodi:nodetypes="csssssssssssssssssssssc"
       inkscape:connector-curvature="0"
       id="path3545-2"
       d="m 67,860 0,-11 c 0,-59.7787299 6.52113228,-170.0810679 0.50929973,-240.2749952 l -5.09319048,-59.4678977 c -1.62203179,-18.9387812 16.43534313,-21.7597104 19.07039302,-2.7866244 l 8.30860123,59.8242205 c 1.21762916,8.7672658 16.7590449,10.1200957 16.2194468,-2.7389541 l -3.2774789,-78.1049123 c -0.6530677,-15.5631202 22.1528671,-18.4606061 23.5036665,-0.2523735 l 5.8144443,78.3763697 c 0.6858691,9.2452389 14.2495981,8.2570737 14.3869952,-1.4568019 l 1.1189502,-79.1089454 c 0.2079763,-14.7037713 24.7044762,-18.8144182 24.6739531,1.4854227 l -0.1189493,79.1089448 c -0.013651,9.0786965 12.4183246,11.7230119 15.0203162,0.00954 l 14.721087,-66.2704057 c 3.6061188,-16.2337849 24.7089666,-15.1145524 21.5515194,5.1902771 -7.6750504,49.3565133 -13.6635146,62.5329455 -19.6848638,104.6035041 -2.8131889,19.6554671 14.8896452,23.8573479 25.4396265,2.9032324 1.7172031,-3.410667 8.0298464,-15.2388961 13.8435271,-28.3109757 8.109723,-18.2347379 29.5615343,-11.7374238 20.7215425,8.3685008 C 219.2297552,731.3071939 278.0277773,823 359,823 l 11,0"
       style="fill:none;stroke:#000000;stroke-width:1px;stroke-linecap:butt;display:inline" />
    <path
       style="fill:none;stroke:#ff0000;stroke-width:1px;stroke-linecap:butt;display:inline"
       d="m 200,520 0,11 c 0,15.6730896 -3.9697014,15.9791696 -9.0102777,18.536534 l -31.2304157,15.9037694 c -13.6563402,6.9543513 -6.8801896,26.8567661 9.5212627,19.6095805 45.6882816,-20.187935 60.195934,-24.9476027 99.2745332,-41.6524413 18.2576165,-7.804541 33.8460952,1.6915376 20.0478253,18.2331901 -2.4460038,2.9323201 -13.0860853,14.8874286 -22.4172689,25.7321122 -9.3961843,10.9202272 2.368752,25.0735835 14.4464809,13.8495457 C 302.5389336,580.8539364 324.6589339,557 359,557 l 11,0"
       id="I-top-1-5-2"
       inkscape:connector-curvature="0"
       sodipodi:nodetypes="cscsssssscc" />
    <path
       sodipodi:nodetypes="cc"
       inkscape:connector-curvature="0"
       id="path3541-9-6-6"
       d="m 332.9999999,-370 0,-40"
       style="fill:none;stroke:#00ff00;stroke-width:1px;stroke-linecap:butt;display:inline" />
    <path
       sodipodi:nodetypes="csssssssssssssssssssssc"
       inkscape:connector-curvature="0"
       id="path3545-2-1-3"
       d="m 67,-370 0,-11 c 0,-59.7787299 0.52113227,-122.0810679 -5.49070027,-192.2749952 l -5.09319048,-59.4678977 c -1.24915181,-14.5850489 16.00404771,-18.7005992 18.07039302,-1.7866244 l 7.30860123,59.8242205 c 1.07337879,8.7860929 14.42992553,11.129691 14.2194468,-1.7389541 l -1.2774789,-78.1049123 c -0.25473933,-15.5747333 19.1528671,-19.4606061 20.5036665,-1.2523735 l 5.8144443,78.3763697 c 0.6858691,9.2452389 13.8818584,8.2449038 14.3869952,-1.4568019 l 4.1189502,-79.1089454 c 0.8495547,-16.3166274 21.6978365,-16.8002256 21.673953,-0.5145773 l -0.1189493,81.1089448 c -0.013314,9.078697 12.4183246,11.7230119 15.0203162,0.00954 l 14.721087,-66.2704057 c 3.6061189,-16.2337849 24.6439688,-15.1245532 21.5515194,5.1902771 -5.0360529,33.0826956 -8.1033475,62.5329455 -13.6848638,104.6035041 -2.0379551,15.3610427 9.5505946,21.3184733 19.4396265,2.9032324 6.5553651,-12.2073252 7.7786185,-18.3535442 13.8435271,-31.3109757 8.7072298,-18.6026437 27.0563495,-12.0762894 20.7215425,8.3685008 C 224.999763,-464.410628 267.2625911,-407 358.9999999,-407 l 11,0"
       style="fill:none;stroke:#000000;stroke-width:1px;stroke-linecap:butt;display:inline" />
    <path
       style="fill:none;stroke:#ff0000;stroke-width:1px;stroke-linecap:butt;display:inline"
       d="m 286.2858944,-875.4748725 -8.0428622,7.5041568 c -43.7083715,40.7808143 -108.2106541,109.8815498 -163.6355464,153.3719035 l -46.95565494,36.8447814 c -14.95399889,11.7339822 -4.69790558,26.8614069 10.97225289,15.8447099 l 49.40972775,-34.7368538 c 7.2410174,-5.0907012 18.8324577,5.3498095 9.0622037,13.7276651 l -59.34379638,50.8864719 c -11.82479574,10.1395963 1.61477054,28.7912489 15.84958108,17.3573273 l 61.2729855,-49.2167079 c 7.2277318,-5.8055792 15.7583383,4.7859253 8.7495826,11.5131536 l -57.0786878,54.7859533 c -10.6090654,10.1829208 3.0967716,30.8982763 17.9185691,17.0274872 l 57.7608841,-54.0547829 c 6.6287514,-6.2034323 17.0432385,1.0825049 10.253776,10.9758857 l -38.4122177,55.9730167 c -9.4095649,13.7113076 5.7534096,28.3368239 18.4973328,12.2170225 20.7534756,-26.2510919 40.1940975,-48.5846482 67.1471095,-81.366051 9.8412377,-11.9693331 22.102791,-7.5602771 15.3843911,12.2330842 -4.453577,13.1208708 -5.8647426,16.183759 -11.2561163,29.4355981 -8.8511963,21.755982 11.5847186,29.6217103 20.2549455,9.4419971 43.6445611,-101.5815079 139.1005957,-110.2275344 194.3395274,-51.0231319 l 7.5041567,8.0428621"
       id="path3841-2"
       inkscape:connector-curvature="0"
       sodipodi:nodetypes="csssssssssssssssssssssc" />
    <path
       style="fill:#ffffff;stroke:none;display:inline"
       d="m 93.00890273,-934.395424 c -0.0391121,-49.6529978 -0.59749562,-101.642753 -5.499603,-158.879571 l -5.09319048,-59.467898 c -1.24915181,-14.585049 16.00404771,-18.700599 18.07039305,-1.786624 l 7.3086012,59.82422 c 1.0733788,8.786093 14.4299255,11.129691 14.2194468,-1.738954 l -1.2774789,-78.104912 c -0.2547393,-15.574733 19.1528671,-19.460606 20.5036665,-1.252374 l 5.8144443,78.37637 c 0.6858691,9.245239 13.8818584,8.244904 14.3869952,-1.456802 l 4.1189502,-79.108945 c 0.8495547,-16.316628 21.6978366,-16.800226 21.6739531,-0.514578 l -0.1189493,81.108945 c -0.013314,9.078697 12.4183246,11.723012 15.0203162,0.0095 l 14.721087,-66.270406 c 3.6061189,-16.233784 24.6439688,-15.124553 21.5515194,5.190278 -5.0360529,33.082695 -8.1033475,62.532945 -13.6848638,104.603504 -2.0379551,15.361042 9.5505946,21.318473 19.4396265,2.903232 6.5553651,-12.207325 7.7786185,-18.353544 13.8435271,-31.310976 8.7072298,-18.602643 27.0563495,-12.076289 20.7215425,8.368501 -13.7986982,44.533557 -7.0942883,83.9953646 11.7535524,110.7748592 z"
       id="path3962-6"
       inkscape:connector-curvature="0"
       sodipodi:nodetypes="cssssssssssssssssssscc" />
    <path
       sodipodi:nodetypes="cc"
       inkscape:connector-curvature="0"
       id="path3964-9"
       d="m 307,-890 0,-55.2761012"
       style="fill:none;stroke:#00ff00;stroke-width:1px;stroke-linecap:butt;display:inline" />
    <path
       sodipodi:nodetypes="cc"
       inkscape:connector-curvature="0"
       id="path3966-3"
       d="m 333,-890 0,-41"
       style="fill:none;stroke:#00ff00;stroke-width:1px;stroke-linecap:butt;display:inline" />
    <path
       sodipodi:nodetypes="csssssssssssssssssssssc"
       inkscape:connector-curvature="0"
       id="path3968-7"
       d="m 93,-890 0,-11 c 0,-59.7787299 0.52113227,-122.081068 -5.49070027,-192.274995 l -5.09319048,-59.467898 c -1.24915181,-14.585049 16.00404771,-18.700599 18.07039305,-1.786624 l 7.3086012,59.82422 c 1.0733788,8.786093 14.4299255,11.129691 14.2194468,-1.738954 l -1.2774789,-78.104912 c -0.2547393,-15.574733 19.1528671,-19.460606 20.5036665,-1.252374 l 5.8144443,78.37637 c 0.6858691,9.245239 13.8818584,8.244904 14.3869952,-1.456802 l 4.1189502,-79.108945 c 0.8495547,-16.316628 21.6978366,-16.800226 21.6739531,-0.514578 l -0.1189493,81.108945 c -0.013314,9.078697 12.4183246,11.723012 15.0203162,0.0095 l 14.721087,-66.270406 c 3.6061189,-16.233784 24.6439688,-15.124553 21.5515194,5.190278 -5.0360529,33.082695 -8.1033475,62.532945 -13.6848638,104.603504 -2.0379551,15.361042 9.5505946,21.318473 19.4396265,2.903232 6.5553651,-12.207325 7.7786185,-18.353544 13.8435271,-31.310976 8.7072298,-18.602643 27.0563495,-12.076289 20.7215425,8.368501 C 253.3019764,-991.840731 297.4945243,-927 359,-927 l 11,0"
       style="fill:none;stroke:#000000;stroke-width:1px;stroke-linecap:butt;display:inline" />
    <path
       sodipodi:nodetypes="cc"
       inkscape:connector-curvature="0"
       id="path3970-4"
       d="m 67,-1230 0,340"
       style="fill:none;stroke:#000000;stroke-width:1px;stroke-linecap:butt;display:inline" />
    <path
       sodipodi:nodetypes="cc"
       inkscape:connector-curvature="0"
       id="path3972-5"
       d="m 333,-1230 0,11"
       style="fill:none;stroke:#000000;stroke-width:1px;stroke-linecap:butt;display:inline" />
    <path
       sodipodi:nodetypes="cssssssssssssssssssssc"
       inkscape:connector-curvature="0"
       id="path3960-2"
       d="m 370,-1193 -11,0 c -40.7859495,0 -50.2270552,47.756505 -69.0102168,91.473794 -6.296221,14.65428 -26.0198941,7.582998 -20.2549455,-9.441997 4.670396,-13.792572 6.9071105,-20.497575 11.3606875,-33.618446 6.7183999,-19.793361 -5.5431534,-24.202417 -15.3843911,-12.233084 -26.953012,32.781403 -46.3936339,55.114959 -67.1471095,81.366051 -12.7439232,16.119801 -27.9068978,1.494285 -18.4973329,-12.217023 l 38.4122178,-55.973016 c 6.7894625,-9.893381 -3.6250245,-17.179318 -10.253776,-10.975886 l -57.7608842,54.054783 c -14.8217975,13.870789 -28.5276345,-6.844567 -17.9185691,-17.027487 l 57.0786879,-54.785954 c 7.0087557,-6.727228 -1.5218508,-17.318733 -8.7495827,-11.513153 l -61.2729855,49.216708 c -14.2348105,11.433921 -27.67437683,-7.217731 -15.8495811,-17.357328 l 59.3437964,-50.886472 c 9.770254,-8.377855 -1.8211863,-18.818366 -9.0622037,-13.727665 l -49.4097278,34.736854 c -15.6701584,11.016697 -25.92625171,-4.110728 -10.97225284,-15.84471 l 46.95565494,-36.844781 c 19.7037233,-15.460958 40.5546698,-34.158619 61.2107407,-53.669929"
       style="fill:none;stroke:#ff0000;stroke-width:1px;stroke-linecap:butt;display:inline" />
  </g>
  <g
     inkscape:groupmode="layer"
     id="layer2"
     inkscape:label="HND-0010"
     connect="00IIUWII"
     style="display:none"
     sodipodi:insensitive="true">
    <path
       sodipodi:nodetypes="ccsssssssssssssssssscc"
       inkscape:connector-curvature="0"
       id="path3709"
       d="m 296.6234185,308.5400264 c -15.0202128,-3.6805798 -35.7091614,-3.4393292 -63.838031,2.4717663 -20.1065762,4.2681118 -22.9780974,-13.8136521 -6.2565254,-18.7818193 11.1597951,-3.3158461 16.5949204,-4.4213171 19.6110309,-5.1689837 18.5057776,-4.5873968 21.6585868,-11.4693702 3.6469876,-19.6205148 -30.9620343,-14.0118608 -40.1290359,-19.5262435 -76.8181758,-37.0319658 -15.0935849,-7.2016981 -4.8610665,-22.4992573 7.5372416,-17.0726536 l 51.0431203,22.3410147 c 7.3259504,3.2064883 11.7106236,-4.9127532 5.970953,-8.7506411 l -58.0203998,-38.7959186 c -11.8629352,-7.9322698 -0.8538788,-21.9742607 9.2774988,-15.6038594 l 59.0720678,37.1432978 c 10.2542289,6.4476476 15.0763463,-4.7526832 9.1160513,-9.378532 l -52.6269739,-40.8443593 c -9.882556,-7.6699577 0.1323444,-22.2210366 11.8257596,-13.6797958 l 51.2107632,37.4059634 c 8.4582919,6.1782043 14.0899389,-2.6978128 9.040294,-7.8350754 l -34.3313618,-34.9270544 c -8.2769451,-8.4205605 -0.072338,-18.3905758 10.0045758,-9.5461147 l 32.8142546,28.8009203 c 7.2866655,6.3954728 30.7399089,29.0976607 56.3531667,37.327151 z"
       style="fill:#ffffff;stroke:none" />
    <path
       style="fill:none;stroke:#000000;stroke-width:1px;stroke-linecap:butt;display:inline"
       d="m 333,370 0,-11 c 0,-35.1595745 -19.4082906,-64.9691203 -100.2146125,-47.9882073 -20.1065762,4.2681118 -22.9780974,-13.8136521 -6.2565254,-18.7818193 11.1597951,-3.3158461 16.5949204,-4.4213171 19.6110309,-5.1689837 18.5057776,-4.5873968 21.6585868,-11.4693702 3.6469876,-19.6205148 -30.9620343,-14.0118608 -40.1290359,-19.5262435 -76.8181758,-37.0319658 -15.0935849,-7.2016981 -4.8610665,-22.4992573 7.5372416,-17.0726536 l 51.0431203,22.3410147 c 7.3259504,3.2064883 11.7106236,-4.9127532 5.970953,-8.7506411 l -58.0203998,-38.7959186 c -11.8629352,-7.9322698 -0.8538788,-21.9742607 9.2774988,-15.6038594 l 59.0720678,37.1432978 c 10.2542289,6.4476476 15.0763463,-4.7526832 9.1160513,-9.378532 l -52.6269739,-40.8443593 c -9.882556,-7.6699577 0.1323444,-22.2210366 11.8257596,-13.6797958 l 51.2107632,37.4059634 c 8.4582919,6.1782043 14.0899389,-2.6978128 9.040294,-7.8350754 l -34.3313618,-34.9270544 c -8.2769451,-8.4205605 -0.072338,-18.3905758 10.0045758,-9.5461147 l 32.8142546,28.8009203 C 293.8556416,167.523789 327.2152931,200 359,200 l 11,0"
       id="C-bottom-4-3"
       inkscape:connector-curvature="0"
       sodipodi:nodetypes="cscsssssssssssssssssssc" />
    <path
       sodipodi:nodetypes="cssssssssssssssssssscc"
       inkscape:connector-curvature="0"
       id="path3707"
       d="m 91.39922915,300.6285446 c 18.44230015,-10.7792785 44.89562045,-16.9250521 80.76647855,-15.1963997 15.6359647,0.7535127 18.4844097,-16.3718802 1.1861674,-18.6232236 -11.5446818,-1.5026655 -22.7806884,-2.5796786 -25.8463807,-3.0871826 -12.099247,-2.0029462 -17.5412443,-7.7038966 -1.0518973,-18.6102884 28.3452747,-18.7481452 36.520709,-25.6474956 69.9658687,-48.7541463 13.7590403,-9.50587 1.2278947,-22.9855221 -10.1518167,-15.6600046 l -46.8496163,30.1587331 c -6.724079,4.3285243 -12.3017449,-2.9489373 -7.2843419,-7.6920726 l 46.785137,-44.227707 c 12.0053531,-11.349101 -1.7626817,-21.1015499 -10.8297017,-13.2905736 l -48.8929646,42.1198798 c -5.9900213,5.1602307 -11.3671263,-1.9501508 -6.4563662,-7.6778164 l 40.5713142,-47.3203574 c 10.9195166,-12.7359795 -2.5658602,-18.3011388 -10.4984417,-10.1213848 l -44.2905615,45.6706179 c -4.8219218,4.9721688 -10.0691403,-0.392558 -6.4345819,-4.8232603 l 36.0967408,-44.0036708 c 7.8735941,-9.5982915 -2.9075637,-16.982385 -10.0265485,-8.9330024 L 100.285427,153.3785982 C 81.49982872,174.6193329 62.00070216,200 31,200 z"
       style="fill:#ffffff;stroke:none" />
    <path
       style="fill:none;stroke:#000000;stroke-width:1px;stroke-linecap:butt;display:inline"
       d="m 57,370 0,-11 c 0,-39.8886771 32.689818,-77.5424504 115.1657077,-73.5678551 15.6359647,0.7535127 18.4844097,-16.3718802 1.1861674,-18.6232236 -11.5446818,-1.5026655 -22.7806884,-2.5796786 -25.8463807,-3.0871826 -12.099247,-2.0029462 -17.5412443,-7.7038966 -1.0518973,-18.6102884 28.3452747,-18.7481452 36.520709,-25.6474956 69.9658687,-48.7541463 13.7590403,-9.50587 1.2278947,-22.9855221 -10.1518167,-15.6600046 l -46.8496163,30.1587331 c -6.724079,4.3285243 -12.3017449,-2.9489373 -7.2843419,-7.6920726 l 46.785137,-44.227707 c 12.0053531,-11.349101 -1.7626817,-21.1015499 -10.8297017,-13.2905736 l -48.8929646,42.1198798 c -5.9900213,5.1602307 -11.3671263,-1.9501508 -6.4563662,-7.6778164 l 40.5713142,-47.3203574 c 10.9195166,-12.7359795 -2.5658602,-18.3011388 -10.4984417,-10.1213848 l -44.2905615,45.6706179 c -4.8219218,4.9721688 -10.0691403,-0.392558 -6.4345819,-4.8232603 l 36.0967408,-44.0036708 c 7.8735941,-9.5982915 -2.9075637,-16.982385 -10.0265485,-8.9330024 L 100.285427,153.3785982 C 81.49982872,174.6193329 62.00070216,200 31,200 l -11,0"
       id="C-bottom-1-7"
       inkscape:connector-curvature="0"
       sodipodi:nodetypes="csssssssssssssssssssssc" />
  </g>
  <g
     inkscape:groupmode="layer"
     id="layer3"
     inkscape:label="HND-0012"
     style="display:none"
     connect="00IIUWII"
     sodipodi:insensitive="true">
    <path
       sodipodi:nodetypes="csssssssssssssssssscc"
       inkscape:connector-curvature="0"
       id="path3780"
       d="m 282.0720259,273.547821 c -19.1894766,-11.6555899 -42.6580757,-19.5993293 -68.3729973,-23.7435349 -16.7671607,-2.7021883 -13.6201911,-17.4694809 0.7487869,-16.3388646 9.5897427,0.7544489 36.9585424,5.9077443 39.5062565,6.2261475 15.6318595,1.9536227 20.1053252,-2.4175149 8.6346718,-14.0470664 -19.7181139,-19.9912607 -25.1507871,-26.9633193 -48.2485137,-51.3479714 -9.5021985,-10.0316283 2.9280214,-18.7912912 10.8785357,-10.9281452 l 32.7318096,32.3721184 c 4.6978245,4.6461999 9.1078113,0.9328087 6.2011735,-3.975866 l -30.7951915,-52.0063353 c -6.9548356,-11.7451944 5.21655,-16.3913143 10.7425137,-8.1914058 l 33.6100612,49.8735496 c 3.6506637,5.4171743 10.2218473,1.2355859 7.6573497,-4.4460824 l -23.0637022,-51.0978478 c -4.3253395,-9.5828302 8.4781054,-14.2058449 12.2267937,-5.5698812 l 20.6421663,47.5539668 c 3.4459304,7.9384913 9.4866909,3.7043341 8.1776207,-2.1015443 l -9.4710843,-42.0053594 c -1.9159616,-8.4975124 8.5939136,-10.9952153 11.3511311,-2.0967299 8.5705226,27.6600124 16.0615568,61.4061293 38.0638887,74.1521757 z"
       style="fill:#ffffff;stroke:none" />
    <path
       style="fill:none;stroke:#000000;stroke-width:1px;stroke-linecap:butt;display:inline"
       d="m 333,370 0,-11 c 0,-61.4167282 -51.9444499,-98.3405662 -119.3009714,-109.1957139 -16.7671607,-2.7021883 -13.6201911,-17.4694809 0.7487869,-16.3388646 9.5897427,0.7544489 36.9585424,5.9077443 39.5062565,6.2261475 15.6318595,1.9536227 20.1053252,-2.4175149 8.6346718,-14.0470664 -19.7181139,-19.9912607 -25.1507871,-26.9633193 -48.2485137,-51.3479714 -9.5021985,-10.0316283 2.9280214,-18.7912912 10.8785357,-10.9281452 l 32.7318096,32.3721184 c 4.6978245,4.6461999 9.1078113,0.9328087 6.2011735,-3.975866 l -30.7951915,-52.0063353 c -6.9548356,-11.7451944 5.21655,-16.3913143 10.7425137,-8.1914058 l 33.6100612,49.8735496 c 3.6506637,5.4171743 10.2218473,1.2355859 7.6573497,-4.4460824 l -23.0637022,-51.0978478 c -4.3253395,-9.5828302 8.4781054,-14.2058449 12.2267937,-5.5698812 l 20.6421663,47.5539668 c 3.4459304,7.9384913 9.4866909,3.7043341 8.1776207,-2.1015443 l -9.4710843,-42.0053594 c -1.9159616,-8.4975124 8.5939136,-10.9952153 11.3511311,-2.0967299 C 315.5915992,155.1193119 324.7994031,200 359,200 l 11,0"
       id="C-bottom-4-1"
       inkscape:connector-curvature="0"
       sodipodi:nodetypes="cssssssssssssssssssssc" />
    <path
       inkscape:connector-curvature="0"
       style="fill:#ffffff;stroke:none"
       d="m 119.7573741,260.5736589 c 21.7433193,-9.9257408 48.3629215,-12.9286963 76.2279941,-12.8671566 15.6291235,0.034517 13.1705692,-14.8927876 1.0505609,-15.9068124 -9.5858806,-0.802006 -31.5028071,-1.6325331 -34.0703497,-1.6325331 -5.558646,0 -10.8167852,-5.2136569 -2.5296269,-12.2181872 21.0717977,-17.8104532 25.3197969,-20.4286968 51.3722295,-42.2932132 10.5845141,-8.8830585 2.9300614,-17.7180266 -6.3561689,-11.4875469 l -40.8064383,27.3785679 c -3.9999477,2.6837148 -8.0271133,-2.6153157 -4.2288332,-5.6894983 l 49.1308686,-39.7646452 c 10.6109856,-8.5881257 -0.039538,-17.7622305 -7.9078457,-11.7723292 l -51.1431497,38.9337131 c -3.5585213,2.7089933 -7.554023,-2.4770148 -4.4847523,-5.099266 l 48.3675298,-41.3231111 c 10.5389606,-9.004029 -1.9001753,-15.8081705 -9.1185256,-9.7635961 l -48.5835094,40.6833452 c -3.7971639,3.1797071 -7.3233046,-1.6745257 -4.741714,-4.2943544 l 34.9559447,-35.4737075 c 6.5895483,-6.6871518 -1.5777223,-12.1933038 -8.2523643,-6.6336259 -18.5144987,15.4217482 -52.5891193,52.0316739 -82.34574825,73.0646488 z"
       id="path3778"
       sodipodi:nodetypes="csssssssssssssssssscc" />
    <path
       style="fill:none;stroke:#000000;stroke-width:1px;stroke-linecap:butt;display:inline"
       d="m 67,370 0,-11 c 0,-93.2236746 60.7594827,-111.4441737 128.9853682,-111.2934977 15.6291235,0.034517 13.1705692,-14.8927876 1.0505609,-15.9068124 -9.5858806,-0.802006 -31.5028071,-1.6325331 -34.0703497,-1.6325331 -5.558646,0 -10.8167852,-5.2136569 -2.5296269,-12.2181872 21.0717977,-17.8104532 25.3197969,-20.4286968 51.3722295,-42.2932132 10.5845141,-8.8830585 2.9300614,-17.7180266 -6.3561689,-11.4875469 l -40.8064383,27.3785679 c -3.9999477,2.6837148 -8.0271133,-2.6153157 -4.2288332,-5.6894983 l 49.1308686,-39.7646452 c 10.6109856,-8.5881257 -0.039538,-17.7622305 -7.9078457,-11.7723292 l -51.1431497,38.9337131 c -3.5585213,2.7089933 -7.554023,-2.4770148 -4.4847523,-5.099266 l 48.3675298,-41.3231111 c 10.5389606,-9.004029 -1.9001753,-15.8081705 -9.1185256,-9.7635961 l -48.5835094,40.6833452 c -3.7971639,3.1797071 -7.3233046,-1.6745257 -4.741714,-4.2943544 l 34.9559447,-35.4737075 c 6.5895483,-6.6871518 -1.5777223,-12.1933038 -8.2523643,-6.6336259 C 131.9179577,133.6073197 72.78489288,200 41,200 l -11,0"
       id="C-bottom-1-9"
       inkscape:connector-curvature="0"
       sodipodi:nodetypes="cssssssssssssssssssssc" />
  </g>
  <g
     inkscape:groupmode="layer"
     id="layer4"
     inkscape:label="HND-0020"
     style="display:none"
     connect="UWUWUW00"
     sodipodi:insensitive="true">
    <path
       style="fill:none;stroke:#000000;stroke-width:1px;stroke-linecap:butt;display:inline"
       d="m 67,30 0,53"
       id="C-top-1-2"
       inkscape:connector-curvature="0"
       sodipodi:nodetypes="cc" />
    <path
       style="fill:none;stroke:#000000;stroke-width:1px;stroke-linecap:butt;display:inline"
       d="m 333,370 0,-38"
       id="C-bottom-4-0-9"
       inkscape:connector-curvature="0"
       sodipodi:nodetypes="cc" />
    <path
       sodipodi:nodetypes="csssssssssssssssssssssc"
       inkscape:connector-curvature="0"
       id="path3165-2-3"
       d="m 370,333 -11.2377126,0 c -88.4591483,0 -119.4937451,-48.8304742 -102.9277964,-171.5689846 2.3433949,-17.3624104 -16.7147042,-20.705612 -20.8830945,-3.0542981 -3.145823,13.3211875 -5.713501,31.452257 -6.6590782,34.9811992 -3.6506744,13.6245024 -21.2060343,13.5951011 -21.9407693,-1.2639255 -2.0816158,-42.0978788 -3.6865428,-66.8485703 -4.0772637,-108.4876006 -0.1616032,-17.22201513 -18.8779591,-16.91684372 -19.24346,-1.9576034 l -1.4426033,59.0429528 c -0.2296565,9.3993947 -16.4061638,9.437592 -16.4259358,-0.8778767 l -0.1534373,-80.05143 c -0.034612,-18.0576912 -24.9375017,-17.2193828 -24.9025566,0.2561188 l 0.1534363,76.7310645 c 0.023461,11.7324274 -12.9653105,11.5409387 -13.9223363,0.6571525 L 119.7928663,62.979073 C 118.2625467,45.575496 97.58706429,48.7792411 98.5706106,63.6517041 l 4.9149112,74.3196681 c 0.8126565,12.2883932 -14.48459176,14.4280029 -15.8205772,1.5263659 L 82.75385666,92.0712679 C 80.88741795,74.04703357 63.70929502,76.56493536 64.50391,93.4851155 l 2.11820778,45.10418 C 69.77018692,205.6228881 67,302.342164 67,359.4919911 L 67,370"
       style="fill:none;stroke:#000000;stroke-width:1px;stroke-linecap:butt;display:inline" />
    <path
       style="fill:none;stroke:#000000;stroke-width:1px;stroke-linecap:butt;display:inline"
       d="m 333,30 0,11 c 0,16.87339703 -70.4425773,13.07199003 -90.6805775,88.6012349 -3.9532032,14.7535552 13.5522754,22.8160973 20.0143632,6.2964475 C 284.6777141,78.77777311 336.7059848,67 359,67 l 11,0"
       id="I-top-1-7-6"
       inkscape:connector-curvature="0"
       sodipodi:nodetypes="cssssc" />
  </g>
  <g
     connect="IIUWUW00"
     style="display:none"
     inkscape:label="HND-0022"
     id="g3196"
     inkscape:groupmode="layer"
     sodipodi:insensitive="true">
    <path
       style="fill:none;stroke:#000000;stroke-width:1px;stroke-linecap:butt;display:inline"
       d="m 333,370 0,-38"
       id="C-bottom-4-0"
       inkscape:connector-curvature="0"
       sodipodi:nodetypes="cc" />
    <path
       sodipodi:nodetypes="csssssssssssssssssssssc"
       inkscape:connector-curvature="0"
       id="path3165-2"
       d="m 370,333 -11.2377126,0 c -88.4591483,0 -113.4817476,-30.8543517 -102.9277964,-111.5689846 2.3433948,-17.9218429 -19.553853,-22.5447608 -22.8830945,-4.0542981 -2.4254745,13.4709804 -6.713501,32.452257 -7.6590782,35.9811992 -3.6506744,13.6245024 -21.9407693,10.6132552 -21.9407693,-4.2639255 0,-42.0978788 -2.9210333,-63.8875763 -1.0772637,-105.4876006 0.6710431,-15.1403993 -18.3724542,-16.895937 -19.24346,-1.9576034 l -3.4426033,59.0429528 c -0.5472823,9.3862583 -14.4061638,9.437592 -14.4259358,-0.8778767 l -0.1534373,-80.05143 c -0.034612,-18.0576912 -22.9375017,-17.2193828 -22.9025566,0.2561188 l 0.1534363,76.7310645 c 0.023461,11.7324274 -12.9653105,11.5409387 -13.9223363,0.6571525 l -6.544526,-74.4276959 c -1.5303196,-17.403577 -24.205802,-14.1998319 -23.2222557,0.6726311 l 4.9149112,74.3196681 c 0.8126565,12.2883932 -12.2803495,12.4052165 -13.8205772,-0.4736341 L 83.75385666,148.0712679 C 81.60208127,130.0788673 63.77389838,132.562025 64.50391,149.4851155 l 2.11820778,49.10418 C 69.51424428,265.6344182 67,302.342164 67,359.4919911 L 67,370"
       style="fill:none;stroke:#000000;stroke-width:1px;stroke-linecap:butt;display:inline" />
    <path
       style="fill:none;stroke:#000000;stroke-width:1px;stroke-linecap:butt;display:inline"
       d="m 200,30 0,11 c 0,46.18733138 44.599397,49.32967843 37.3194225,148.6012349 -1.1171032,15.2330984 17.108374,19.5996454 21.0143632,2.2964475 C 276.2737639,112.4251132 300.1264528,67 359,67 l 11,0"
       id="I-top-1-7"
       inkscape:connector-curvature="0"
       sodipodi:nodetypes="cssssc" />
  </g>
  <g
     connect="UWUWUW00"
     style="display:none"
     inkscape:label="HND-0024"
     id="g3397"
     inkscape:groupmode="layer"
     sodipodi:insensitive="true">
    <path
       style="fill:none;stroke:#000000;stroke-width:1px;stroke-linecap:butt;display:inline"
       d="m 67,30 0,10.5 c 0,11.36219612 1.65285312,31.00699113 11.37759307,47.33751009"
       id="C-top-1-6"
       inkscape:connector-curvature="0"
       sodipodi:nodetypes="csc" />
    <path
       style="fill:none;stroke:#000000;stroke-width:1px;stroke-linecap:butt;display:inline"
       d="m 335.1002394,347.3616378 c -89.8076343,-50.8577961 -74.6851609,-133.9104039 -61.1151407,-213.2589645 1.8343109,-10.7258449 -10.412271,-14.90021 -14.1983434,-3.8625301 -4.0034596,11.6714372 -11.2212486,35.7122538 -16.494437,58.1177733 -3.4138599,14.5053237 -21.4022657,14.7131952 -20.9407693,-2.2639255 1.2988472,-47.780838 1.6457263,-74.4286487 2.9227363,-111.4876006 0.6494235,-18.8463321 -22.7256803,-19.8172727 -24.24346,-1.9576034 l -5.4426033,64.0429528 c -0.7961633,9.3684304 -16.4061638,9.437592 -16.4259358,-0.8778767 l -0.1534373,-80.05143 c -0.034612,-18.0576912 -24.9375017,-17.2193828 -24.9025566,0.2561188 l 0.1534363,76.7310645 c 0.023461,11.7324274 -12.9653105,11.5409387 -13.9223363,0.6571525 l -6.544526,-74.4276959 c -1.5303196,-17.403577 -22.205802,-14.1998319 -21.2222557,0.6726311 l 4.9149112,74.3196681 c 0.8126565,12.2883932 -14.4845918,14.4280029 -15.8205772,1.5263659 L 96.75385666,88.0712679 C 94.88741795,70.0470336 77.70929502,72.5649354 78.50391,89.4851155 l 2.11820778,45.10418 C 83.77018692,201.6228881 67,302.342164 67,359.4919911 L 67,370"
       id="path3401"
       inkscape:connector-curvature="0"
       sodipodi:nodetypes="cssssssssssssssssssssc" />
    <path
       sodipodi:nodetypes="cssssc"
       inkscape:connector-curvature="0"
       id="path3403"
       d="m 333,30 0,11 c 0,20.8737282 -51.4661412,22.35602068 -66.7699341,67.0715253 -4.0872973,11.9425008 7.363913,17.2984468 14.2294928,5.4069138 C 299.3576477,80.74598877 340.3426495,67 359,67 l 11,0"
       style="fill:none;stroke:#000000;stroke-width:1px;stroke-linecap:butt;display:inline" />
    <path
       style="fill:none;stroke:#000000;stroke-width:1px;stroke-linecap:butt;display:inline"
       d="m 333,370 0,-11 c 0,-19.67406 14.1828512,-26 26,-26 l 11,0"
       id="C-bottom-4-6"
       inkscape:connector-curvature="0"
       sodipodi:nodetypes="cssc" />
  </g>
  <g
     inkscape:groupmode="layer"
     id="layer5"
     inkscape:label="HND-0030"
     style="display:none"
     connect="0000UBUW"
     sodipodi:insensitive="true">
    <path
       style="fill:#000000;stroke:none"
       d="m 217.71875,202.71875 c -12.7758836,0.5075553 -11.419275,9.2293413 1.25,23.4375 2.5413704,2.8500653 7.2901969,7.7407686 16.3125,18.84375 13.5189557,16.6362226 -1.9367352,32.9916798 -19.375,14.71875 C 127.7526492,180.6221607 67,218.5717948 67,299 l 0,71 266,0 0,-150.53125 c -0.1795745,-0.024168 -0.3484418,-0.034073 -0.53125,-0.0625 -49.3565133,-7.6750504 -62.4694733,-8.4379947 -103.59375,-15.6875 -4.4856185,-0.7907377 -8.2079692,-1.1171281 -11.15625,-1 z"
       id="path3526"
       inkscape:connector-curvature="0" />
    <path
       style="fill:none;stroke:#000000;stroke-width:1px;stroke-linecap:butt;display:inline"
       d="m 30,333 37,0"
       id="C-left-4-3"
       inkscape:connector-curvature="0"
       sodipodi:nodetypes="cc" />
    <path
       style="fill:none;stroke:#000000;stroke-width:1px;stroke-linecap:butt;display:inline"
       d="m 333,370 0,-151"
       id="C-bottom-4-20"
       inkscape:connector-curvature="0"
       sodipodi:nodetypes="cc" />
    <path
       style="fill:none;stroke:#000000;stroke-width:1px;stroke-linecap:butt;display:inline"
       d="m 30,67 11,0 c 59.7787299,0 153.0810679,6.52113228 223.2749952,0.50929973 l 59.4678976,-5.09319048 c 18.9387812,-1.62203175 21.7597104,16.43534312 2.7866244,19.07039302 l -59.8242204,8.30860123 c -8.7672658,1.21762916 -10.1200957,16.7590449 2.7389541,16.2194468 l 78.1049122,-3.2774789 c 15.5631202,-0.6530677 18.4606061,22.1528671 0.2523735,23.5036665 l -78.3763696,5.8144443 c -9.2452389,0.6858691 -8.2580344,14.3723882 1.4568019,14.3869952 l 79.1089453,0.1189502 c 14.7052255,0.022111 18.8144182,24.7044761 -1.4854226,24.6739531 l -79.1089448,-0.1189493 c -9.0786965,-0.013651 -11.8851754,14.3041963 -0.00954,16.0203162 l 67.2704057,9.721087 c 16.4585284,2.378383 16.1145523,25.7089666 -4.1902771,22.5515194 -49.3565133,-7.6750504 -62.4792274,-8.4353585 -103.6035041,-15.6848638 -23.9232984,-4.2172676 -25.4961863,4.952662 -9.9032324,22.4396265 2.5413704,2.8500653 7.2886726,7.7405457 16.3109757,18.8435271 13.5189557,16.6362226 -1.930236,32.9944723 -19.3685008,14.7215425 C 127.749273,180.632297 67,218.5717948 67,299 l 0,71"
       id="C-left-1-2"
       inkscape:connector-curvature="0"
       sodipodi:nodetypes="csssssssssssssssssssccc" />
  </g>
  <g
     connect="0000UWUW"
     style="display:none"
     inkscape:label="HND-0031"
     id="g3806"
     inkscape:groupmode="layer"
     sodipodi:insensitive="true">
    <path
       inkscape:connector-curvature="0"
       id="path3808"
       d="m 217.71875,202.71875 c -12.7758836,0.5075553 -11.419275,9.2293413 1.25,23.4375 2.5413704,2.8500653 7.2901969,7.7407686 16.3125,18.84375 13.5189557,16.6362226 -1.9367352,32.9916798 -19.375,14.71875 C 127.7526492,180.6221607 67,218.5717948 67,299 l 0,71 266,0 0,-150.53125 c -0.1795745,-0.024168 -0.3484418,-0.034073 -0.53125,-0.0625 -49.3565133,-7.6750504 -62.4694733,-8.4379947 -103.59375,-15.6875 -4.4856185,-0.7907377 -8.2079692,-1.1171281 -11.15625,-1 z"
       style="fill:#ffffff;stroke:none" />
    <path
       sodipodi:nodetypes="cc"
       inkscape:connector-curvature="0"
       id="path3810"
       d="m 30,333 37,0"
       style="fill:none;stroke:#000000;stroke-width:1px;stroke-linecap:butt;display:inline" />
    <path
       sodipodi:nodetypes="cc"
       inkscape:connector-curvature="0"
       id="path3812"
       d="m 333,370 0,-151"
       style="fill:none;stroke:#000000;stroke-width:1px;stroke-linecap:butt;display:inline" />
    <path
       sodipodi:nodetypes="csssssssssssssssssssccc"
       inkscape:connector-curvature="0"
       id="path3814"
       d="m 30,67 11,0 c 59.7787299,0 153.0810679,6.52113228 223.2749952,0.50929973 l 59.4678976,-5.09319048 c 18.9387812,-1.62203175 21.7597104,16.43534312 2.7866244,19.07039302 l -59.8242204,8.30860123 c -8.7672658,1.21762916 -10.1200957,16.7590449 2.7389541,16.2194468 l 78.1049122,-3.2774789 c 15.5631202,-0.6530677 18.4606061,22.1528671 0.2523735,23.5036665 l -78.3763696,5.8144443 c -9.2452389,0.6858691 -8.2580344,14.3723882 1.4568019,14.3869952 l 79.1089453,0.1189502 c 14.7052255,0.022111 18.8144182,24.7044761 -1.4854226,24.6739531 l -79.1089448,-0.1189493 c -9.0786965,-0.013651 -11.8851754,14.3041963 -0.00954,16.0203162 l 67.2704057,9.721087 c 16.4585284,2.378383 16.1145523,25.7089666 -4.1902771,22.5515194 -49.3565133,-7.6750504 -62.4792274,-8.4353585 -103.6035041,-15.6848638 -23.9232984,-4.2172676 -25.4961863,4.952662 -9.9032324,22.4396265 2.5413704,2.8500653 7.2886726,7.7405457 16.3109757,18.8435271 13.5189557,16.6362226 -1.930236,32.9944723 -19.3685008,14.7215425 C 127.749273,180.632297 67,218.5717948 67,299 l 0,71"
       style="fill:none;stroke:#000000;stroke-width:1px;stroke-linecap:butt;display:inline" />
  </g>
  <g
     style="display:none"
     inkscape:label="HND-0040"
     id="g3537"
     inkscape:groupmode="layer"
     connect="IIUWUW00"
     sodipodi:insensitive="true">
    <path
       style="fill:#ffffff;stroke:none"
       d="M 160,20.625 C 153.8536934,20.95315303 147.6664882,25.64811433 147.5625,33 l -1.125,79.125 c -0.1373971,9.7138756 -13.6891309,10.6827389 -14.375,1.4375 L 126.25,35.1875 c -1.3507994,-18.2082326 -24.1530677,-15.3131202 -23.5,0.25 l 3.25,78.125 c 0.5395981,12.8590498 -15.00112084,11.4860158 -16.21875,2.71875 L 81.5,56.46875 C 78.86495011,37.495664 60.78421821,40.3112188 62.40625,59.25 L 67.5,118.71875 C 73.51183255,188.9126773 67,299.2212701 67,359 l 212.40625,-62.71875 c -31.4701915,-35.9846984 -42.890619,-94.315966 -15.6875,-156.1875 8.8399919,-20.1059246 -12.609027,-26.6097379 -20.71875,-8.375 -5.8136807,13.0720796 -12.1265469,24.901833 -13.84375,28.3125 -10.5499813,20.9541155 -28.250689,16.7492171 -25.4375,-2.90625 5.0583154,-35.3419387 10.0937305,-50.2673786 16.125,-83.40625 L 193.5625,84.625 l -6.4375,29 c -2.6019916,11.7134719 -15.013651,9.0474465 -15,-0.03125 l 0.03125,-19.78125 c -1.0077252,0.44359967 -1.8356595,0.79075447 -2.875,1.25 -16.4014523,7.2471855 -23.1875902,-12.67064862 -9.53125,-19.625 L 172.1875,69.09375 172.25,34.5 C 172.2652615,24.3500796 166.1463066,20.29684697 160,20.625 z"
       id="path3609"
       inkscape:connector-curvature="0" />
    <path
       sodipodi:nodetypes="cc"
       inkscape:connector-curvature="0"
       id="path3541"
       d="m 333,370 0,-40"
       style="fill:none;stroke:#000000;stroke-width:1px;stroke-linecap:butt;display:inline" />
    <path
       sodipodi:nodetypes="cssssssssssssccssccsssssc"
       inkscape:connector-curvature="0"
       id="path3545"
       d="m 67,370 0,-11 c 0,-59.7787299 6.52113228,-170.0810679 0.50929973,-240.2749952 L 62.41610925,59.2571072 C 60.79407746,40.318326 78.85145238,37.4973968 81.48650227,56.4704828 l 8.30860123,59.8242204 c 1.21762916,8.7672658 16.7590449,10.1200957 16.2194468,-2.7389541 l -3.2774789,-78.1049122 c -0.6530677,-15.5631202 22.1528671,-18.4606061 23.5036665,-0.2523735 l 5.8144443,78.3763696 c 0.6858691,9.2452389 14.2495981,8.2570737 14.3869952,-1.4568019 l 1.1189502,-79.1089453 c 0.2079763,-14.70377134 24.7044762,-18.8144182 24.6739531,1.4854226 l -0.052046,34.61411338 m -0.037033,24.62908453 -0.02987,19.86574689 c -0.013651,9.0786965 12.4183246,11.7230119 15.0203162,0.00954 l 6.4395632,-28.98919527 m 26.2728725,-10.91940218 c -6.0312695,33.13887135 -11.0663777,48.09003425 -16.1246931,83.43197295 -2.813189,19.6554671 14.8896452,23.8573479 25.4396265,2.9032324 1.7172031,-3.410667 8.0298464,-15.2388961 13.8435271,-28.3109757 8.109723,-18.2347379 29.5615343,-11.7374238 20.7215425,8.3685008 C 219.2297552,241.3071939 278.0277773,333 359,333 l 11,0"
       style="fill:none;stroke:#000000;stroke-width:1px;stroke-linecap:butt;display:inline" />
    <path
       style="fill:none;stroke:#000000;stroke-width:1px;stroke-linecap:butt;display:inline"
       d="m 200,30 0,11 c 0,15.67308963 -3.9697014,15.97916966 -9.0102777,18.53653405 L 159.7593066,75.4403034 c -13.6563402,6.95435138 -6.8801896,26.8567661 9.5212627,19.60958058 45.6882816,-20.18793502 60.195934,-24.94760278 99.2745332,-41.65244128 18.2576165,-7.804541 33.8460952,1.69153756 20.0478253,18.23319 -2.4460038,2.93232015 -13.0860853,14.88742867 -22.4172689,25.7321122 -9.3961843,10.9202272 2.368752,25.0735835 14.4464809,13.8495457 C 302.5389336,90.85393644 324.6589339,67 359,67 l 11,0"
       id="I-top-1-5"
       inkscape:connector-curvature="0"
       sodipodi:nodetypes="cscsssssscc" />
  </g>
  <g
     connect="IICWUW00"
     inkscape:groupmode="layer"
     id="g3614"
     inkscape:label="HND-0041"
     style="display:none"
     sodipodi:insensitive="true">
    <path
       style="fill:none;stroke:#000000;stroke-width:1px;stroke-linecap:butt;display:inline"
       d="m 370,93 -67,0"
       id="C-right-2-8"
       inkscape:connector-curvature="0"
       sodipodi:nodetypes="cc" />
    <path
       style="fill:none;stroke:#000000;stroke-width:1px;stroke-linecap:butt;display:inline"
       d="m 370,333 -37,0"
       id="C-right-4-9"
       inkscape:connector-curvature="0"
       sodipodi:nodetypes="cc" />
    <path
       style="fill:none;stroke:#000000;stroke-width:1px;stroke-linecap:butt;display:inline"
       d="m 333,370 0,-66.6948563"
       id="path3618"
       inkscape:connector-curvature="0"
       sodipodi:nodetypes="cc" />
    <path
       style="fill:none;stroke:#000000;stroke-width:1px;stroke-linecap:butt;display:inline"
       d="m 67,370 0,-11 c 0,-59.7787299 6.52113228,-170.0810679 0.50929973,-240.2749952 L 62.41610925,59.2571072 C 60.79407746,40.318326 78.85145238,37.4973968 81.48650227,56.4704828 l 8.30860123,59.8242204 c 1.21762916,8.7672658 16.7590449,10.1200957 16.2194468,-2.7389541 l -3.2774789,-78.1049122 c -0.6530677,-15.5631202 22.1528671,-18.4606061 23.5036665,-0.2523735 l 5.8144443,78.3763696 c 0.6858691,9.2452389 14.2495981,8.2570737 14.3869952,-1.4568019 l 1.1189502,-79.1089453 c 0.2079763,-14.70377134 24.7044762,-18.8144182 24.6739531,1.4854226 l -0.052046,34.61411338 m -0.037033,24.62908453 -0.02987,19.86574689 c -0.013651,9.0786965 12.4183246,11.7230119 15.0203162,0.00954 l 6.4395632,-28.98919527 m 26.2728725,-10.91940218 c -6.0312695,33.13887135 -11.0663777,48.09003425 -16.1246931,83.43197295 -2.813189,19.6554671 12.3278088,23.2168888 25.4396265,2.9032324 2.0708415,-3.2082785 10.5678594,-16.6408655 18.8435271,-28.3109757 9.0704117,-12.7908355 24.3544636,-8.7391138 18.7215425,8.3685008 C 235.4871865,234.9805713 292.284777,307 359,307 l 11,0"
       id="path3620"
       inkscape:connector-curvature="0"
       sodipodi:nodetypes="cssssssssssssccssccsssssc" />
    <path
       sodipodi:nodetypes="cscsssssssc"
       inkscape:connector-curvature="0"
       id="path3622"
       d="m 200,30 0,11 c 0,15.67308963 -3.9697014,15.97916966 -9.0102777,18.53653405 L 159.7593066,75.4403034 c -13.6563402,6.95435138 -6.8801896,26.8567661 9.5212627,19.60958058 45.6882816,-20.18793502 60.195934,-24.94760278 99.2745332,-41.65244128 18.2576165,-7.804541 31.6044883,-0.55006932 20.0478253,18.23319 -2.0010153,3.25228745 -13.7265444,17.96605135 -22.4172689,30.7321122 -8.1070231,11.9086447 3.288533,25.9883577 14.4464809,13.8495457 C 300.9979751,94.05615151 323.6316282,67 359,67 l 11,0"
       style="fill:none;stroke:#000000;stroke-width:1px;stroke-linecap:butt;display:inline" />
  </g>
  <g
     inkscape:groupmode="layer"
     id="layer6"
     inkscape:label="HND-0050"
     style="display:none"
     connect="00UWUWUW"
     sodipodi:insensitive="true">
    <path
       style="fill:none;stroke:#000000;stroke-width:1px;stroke-linecap:butt;display:inline"
       d="m 370,67 -68,0"
       id="C-right-1-36"
       inkscape:connector-curvature="0"
       sodipodi:nodetypes="cc" />
    <path
       style="fill:none;stroke:#000000;stroke-width:1px;stroke-linecap:butt;display:inline"
       d="m 370,333 -36,0"
       id="C-right-4-1"
       inkscape:connector-curvature="0"
       sodipodi:nodetypes="cc" />
    <path
       style="fill:none;stroke:#000000;stroke-width:1px;stroke-linecap:butt;display:inline"
       d="m 30,333 37,0"
       id="C-left-4-1"
       inkscape:connector-curvature="0"
       sodipodi:nodetypes="cc" />
    <path
       style="fill:none;stroke:#000000;stroke-width:1px;stroke-linecap:butt;display:inline"
       d="m 30,67 32,0"
       id="C-left-1-3"
       inkscape:connector-curvature="0"
       sodipodi:nodetypes="cc" />
    <path
       sodipodi:nodetypes="cssssssssssssssssssssscc"
       inkscape:connector-curvature="0"
       id="path3712"
       d="m 333,370 0,-11 c 0,-61.4908048 19.2829836,-116.5052489 42.7939458,-167.9445014 9.8021325,-21.4459266 -14.3948391,-36.7854116 -29.9882325,-10.9708377 -11.2982815,18.7040957 -22.1441369,42.5931946 -37.0686781,73.3330362 -12.1569225,25.0394211 -33.3400798,14.7383686 -28.8138186,-14.1634205 9.249437,-59.0609478 15.4546635,-102.6962021 23.5770082,-158.52098917 3.725284,-25.60383639 -25.4235885,-30.16926677 -30.6919015,-4.73320618 L 250.1572514,185.3622305 c -4.1373029,19.9754049 -21.878752,16.4787795 -22.4616944,-1.1630155 L 223.0910475,44.85128429 C 222.087401,14.47756902 189.5009698,15.9870873 188.4798366,44.69831839 L 183.655946,180.3317818 c -0.7329281,20.607759 -22.0132662,19.4516574 -23.1530374,-0.1933159 L 152.740446,46.34550323 c -1.6713043,-28.80641987 -32.8188445,-25.7474262 -32.2239565,0.53568937 l 3.1057432,137.2167659 c 0.522467,23.0834397 -22.629751,22.5243765 -24.3135211,1.3854214 L 90.22946263,71.49760671 C 88.48554508,49.60352817 60.25368149,50.07418647 61.13776871,73.98421343 L 66.24353323,212.068969 C 68.58023553,275.2647871 67,340.1428094 67,359 l 0,11 z"
       style="fill:#ffffff;stroke:none;display:inline"
       zpos="400" />
    <path
       style="fill:none;stroke:#000000;stroke-width:1px;stroke-linecap:butt;display:inline"
       d="m 333,370 0,-11 c 0,-61.4908048 19.2829836,-116.5052489 42.7939458,-167.9445014 9.8021325,-21.4459266 -14.3948391,-36.7854116 -29.9882325,-10.9708377 -11.2982815,18.7040957 -22.1441369,42.5931946 -37.0686781,73.3330362 -12.1569225,25.0394211 -33.3400798,14.7383686 -28.8138186,-14.1634205 9.249437,-59.0609478 15.4546635,-102.6962021 23.5770082,-158.52098917 3.725284,-25.60383639 -25.4235885,-30.16926677 -30.6919015,-4.73320618 L 250.1572514,185.3622305 c -4.1373029,19.9754049 -21.878752,16.4787795 -22.4616944,-1.1630155 L 223.0910475,44.85128429 C 222.087401,14.47756902 189.5009698,15.9870873 188.4798366,44.69831839 L 183.655946,180.3317818 c -0.7329281,20.607759 -22.0132662,19.4516574 -23.1530374,-0.1933159 L 152.740446,46.34550323 c -1.6713043,-28.80641987 -32.8188445,-25.7474262 -32.2239565,0.53568937 l 3.1057432,137.2167659 c 0.522467,23.0834397 -22.629751,22.5243765 -24.3135211,1.3854214 L 90.22946263,71.49760671 C 88.48554508,49.60352817 60.25368149,50.07418647 61.13776871,73.98421343 L 66.24353323,212.068969 C 68.58023553,275.2647871 67,340.1428094 67,359 l 0,11"
       id="C-bottom-4-9"
       inkscape:connector-curvature="0"
       sodipodi:nodetypes="csssssssssssssssssssssc"
       zpos="400" />
  </g>
  <g
     inkscape:label="HND-0051"
     id="g3714"
     inkscape:groupmode="layer"
     connect="00UBUWUB"
     sodipodi:insensitive="true"
     style="display:none">
    <path
       style="fill:#000000"
       d="m 30,333 340,0 0,-266 -340,0 z"
       id="path3730"
       inkscape:connector-curvature="0"
       sodipodi:nodetypes="ccccc" />
    <path
       sodipodi:nodetypes="cc"
       inkscape:connector-curvature="0"
       id="path3716"
       d="M 370,67 30,67"
       style="fill:none;stroke:#000000;stroke-width:1px;stroke-linecap:butt;display:inline" />
    <path
       sodipodi:nodetypes="cc"
       inkscape:connector-curvature="0"
       id="path3720"
       d="m 30,333 340,0"
       style="fill:none;stroke:#000000;stroke-width:1px;stroke-linecap:butt;display:inline" />
    <path
       style="fill:#ffffff;stroke:none;display:inline"
       d="m 333,370 0,-11 c 0,-61.4908048 19.2829836,-116.5052489 42.7939458,-167.9445014 9.8021325,-21.4459266 -14.3948391,-36.7854116 -29.9882325,-10.9708377 -11.2982815,18.7040957 -22.1441369,42.5931946 -37.0686781,73.3330362 -12.1569225,25.0394211 -33.3400798,14.7383686 -28.8138186,-14.1634205 9.249437,-59.0609478 15.4546635,-102.6962021 23.5770082,-158.52098917 3.725284,-25.60383639 -25.4235885,-30.16926677 -30.6919015,-4.73320618 L 250.1572514,185.3622305 c -4.1373029,19.9754049 -21.878752,16.4787795 -22.4616944,-1.1630155 L 223.0910475,44.85128429 C 222.087401,14.47756902 189.5009698,15.9870873 188.4798366,44.69831839 L 183.655946,180.3317818 c -0.7329281,20.607759 -22.0132662,19.4516574 -23.1530374,-0.1933159 L 152.740446,46.34550323 c -1.6713043,-28.80641987 -32.8188445,-25.7474262 -32.2239565,0.53568937 l 3.1057432,137.2167659 c 0.522467,23.0834397 -22.629751,22.5243765 -24.3135211,1.3854214 L 90.22946263,71.49760671 C 88.48554508,49.60352817 60.25368149,50.07418647 61.13776871,73.98421343 L 66.24353323,212.068969 C 68.58023553,275.2647871 67,340.1428094 67,359 l 0,11 z"
       id="path3724"
       inkscape:connector-curvature="0"
       sodipodi:nodetypes="cssssssssssssssssssssscc"
       zpos="500" />
    <path
       sodipodi:nodetypes="csssssssssssssssssssssc"
       inkscape:connector-curvature="0"
       id="path3726"
       d="m 333,370 0,-11 c 0,-61.4908048 19.2829836,-116.5052489 42.7939458,-167.9445014 9.8021325,-21.4459266 -14.3948391,-36.7854116 -29.9882325,-10.9708377 -11.2982815,18.7040957 -22.1441369,42.5931946 -37.0686781,73.3330362 -12.1569225,25.0394211 -33.3400798,14.7383686 -28.8138186,-14.1634205 9.249437,-59.0609478 15.4546635,-102.6962021 23.5770082,-158.52098917 3.725284,-25.60383639 -25.4235885,-30.16926677 -30.6919015,-4.73320618 L 250.1572514,185.3622305 c -4.1373029,19.9754049 -21.878752,16.4787795 -22.4616944,-1.1630155 L 223.0910475,44.85128429 C 222.087401,14.47756902 189.5009698,15.9870873 188.4798366,44.69831839 L 183.655946,180.3317818 c -0.7329281,20.607759 -22.0132662,19.4516574 -23.1530374,-0.1933159 L 152.740446,46.34550323 c -1.6713043,-28.80641987 -32.8188445,-25.7474262 -32.2239565,0.53568937 l 3.1057432,137.2167659 c 0.522467,23.0834397 -22.629751,22.5243765 -24.3135211,1.3854214 L 90.22946263,71.49760671 C 88.48554508,49.60352817 60.25368149,50.07418647 61.13776871,73.98421343 L 66.24353323,212.068969 C 68.58023553,275.2647871 67,340.1428094 67,359 l 0,11"
       style="fill:none;stroke:#000000;stroke-width:1px;stroke-linecap:butt;display:inline"
       zpos="400" />
  </g>
  <g
     inkscape:groupmode="layer"
     id="layer7"
     inkscape:label="HND-0060"
     connect="00UWUWUW"
     sodipodi:insensitive="true"
     style="display:none">
    <path
       style="fill:none;stroke:#000000;stroke-width:1px;stroke-linecap:butt;display:inline"
       d="m 30,67 157,0"
       id="C-left-1-8"
       inkscape:connector-curvature="0"
       sodipodi:nodetypes="cc" />
    <path
       style="fill:none;stroke:#000000;stroke-width:1px;stroke-linecap:butt;display:inline"
       d="m 370,67 -10.5,0 c -24.1280942,0 -36.0632854,16.69282295 -50.579652,33.8886151"
       id="C-right-1-4"
       inkscape:connector-curvature="0"
       sodipodi:nodetypes="csc" />
    <path
       style="fill:none;stroke:#000000;stroke-width:1px;stroke-linecap:butt;display:inline"
       d="m 30,333 11,0 c 64.4601616,0 99.513972,-126.0855503 134.3897906,-230.4014054 l 13.9413539,-41.69950164 c 4.6169111,-13.80948321 19.9806775,-8.81007015 15.8099314,4.89013239 l -13.7858954,45.28435785 c -2.5558378,8.3954993 7.9813763,12.0636961 11.7484485,3.7453467 l 25.9478063,-57.29726156 c 5.3144276,-11.73517897 22.714555,-4.41261328 16.9370547,9.53852331 l -24.2431419,58.54078175 c -2.9335285,7.0836963 6.8785665,11.8580428 10.9059472,4.9059178 l 32.7953893,-56.61189325 c 6.0961954,-10.52334404 25.4721319,-3.2598156 17.056634,11.26714366 l -32.7953884,56.61189329 c -3.7636627,6.4968912 3.0334612,13.1848317 9.469381,5.6315864 l 36.7771506,-43.161949 c 8.9195874,-10.46809692 24.0751728,-0.9106817 13.4181921,12.3267987 -25.9047444,32.1773634 -30.8752755,41.2619871 -53.0713663,67.7190562 -12.9121713,15.3909176 -6.9952732,20.3094525 11.9758477,16.3723821 3.0919545,-0.6416692 22.2822946,-4.8787871 33.9645015,-6.7497444 15.4792839,-2.4790761 22.2116941,13.8035969 2.5346335,18.9601992 -42.6320841,11.1722329 -60.7384436,42.7082795 -53.3078057,71.4903357 C 261.3023652,322.4536256 296.8181006,333 359,333 l 11,0"
       id="C-left-4-4"
       inkscape:connector-curvature="0"
       sodipodi:nodetypes="cssssssssssssssssssssasc" />
  </g>
  <g
     inkscape:label="HND-0061"
     id="g3751"
     inkscape:groupmode="layer"
     style="display:none"
     connect="00UW00II"
     sodipodi:insensitive="true">
    <path
       style="fill:none;stroke:#000000;stroke-width:1px;stroke-linecap:butt;display:inline"
       d="m 370,67 -26,0"
       id="C-right-1-0"
       inkscape:connector-curvature="0"
       sodipodi:nodetypes="cc" />
    <path
       style="fill:none;stroke:#000000;stroke-width:1px;stroke-linecap:butt;display:inline"
       d="m 370,333 -11,0 c -55.5990086,0 -95.4517844,-9.2056639 -102.5094024,-45.9850561 -7.2449783,-37.7557837 19.0311062,-82.8041781 80.2830513,-82.8041781 17.0042424,0 17.7498679,-18.9360834 -0.2821882,-18.9360834 -11.8310794,0 -36.3997401,-0.410737 -39.556803,-0.4805626 -15.3520392,-0.3395453 -17.9520156,-9.9226746 -7.3302963,-18.9140842 26.3586365,-22.3128939 36.4057345,-27.0405808 69.7559106,-51.4168859 13.719965,-10.0281946 0.2787146,-23.872872 -10.7364938,-15.6384759 l -45.0221014,33.6561781 c -7.948013,5.9415207 -14.6791286,-4.0727074 -9.3621905,-9.3741148 L 340.5696351,76.9119184 C 352.4582356,65.05804435 335.6224576,53.0271532 327.0103432,61.61411163 l -46.3301496,46.19481847 c -5.689493,5.6728746 -14.2698788,-1.7535423 -9.2645911,-7.5614196 L 313.8478519,51.01132055 C 323.7056224,39.57287299 308.6756447,27.9306725 299.9566648,37.41418221 L 256.1996827,85.0080243 c -7.2040695,7.8357632 -15.5007095,-2.043876 -11.0858695,-7.8831942 L 275.238868,37.279721 c 9.5540777,-12.63676612 -2.6544441,-21.5468235 -12.7808168,-9.5225233 L 230.6611743,65.51357956 C 172.6619068,134.3833147 127.7711013,200 41,200 l -11,0"
       id="C-right-4-3"
       inkscape:connector-curvature="0"
       sodipodi:nodetypes="csassssssssssssssssssssc" />
  </g>
  <g
     inkscape:groupmode="layer"
     id="layer8"
     inkscape:label="HND-0070"
     style="display:none"
     connect="IIUWUW00"
     sodipodi:insensitive="true">
    <path
       sodipodi:nodetypes="cc"
       inkscape:connector-curvature="0"
       id="path3541-9-6"
       d="m 333,370 0,-38"
       style="fill:none;stroke:#000000;stroke-width:1px;stroke-linecap:butt;display:inline" />
    <path
       sodipodi:nodetypes="csssssssssssssssssssssc"
       inkscape:connector-curvature="0"
       id="path3545-2-1"
       d="m 67,370 0,-11 c 0,-59.7787299 6.52113227,-91.0810679 0.50929973,-161.2749952 l -5.09319048,-59.4678977 c -1.24915181,-14.5850489 16.31248687,-18.7354324 18.07039302,-1.7866244 l 6.30860123,60.8242205 c 1.09884554,10.5944917 15.2651703,11.1313309 15.2194468,-1.7389541 l -0.2774789,-78.1049123 c -0.055339,-15.5767181 19.4076717,-19.47771819 20.5036665,-1.2523735 l 4.8144443,80.0595991 c 0.5951233,9.8963309 11.8149755,10.1674588 13.1385549,0.5431981 l 11.0879044,-80.6244684 c 2.2260365,-16.18637803 19.7436249,-12.2576302 17.8727053,3.9202118 l -8.0382154,69.5064493 c -1.7539173,15.1661231 14.0570048,14.4484599 16.7343409,2.7519795 l 16.0923067,-70.3024753 c 3.7105393,-16.2102364 24.6439688,-15.1245532 21.5515194,5.1902771 -5.0360529,33.0826956 -10.1601771,39.2222101 -16.7701082,78.8931342 -2.5467593,15.2849243 10.5790094,23.032498 19.4396265,2.9032324 5.582362,-12.6818309 8.1148778,-18.2014096 13.8435271,-31.3109757 7.6802595,-17.5756734 26.2372396,-12.3123191 20.7215425,8.3685008 C 223.2451336,296.6449264 267.2625912,333 359,333 l 11,0"
       style="fill:none;stroke:#000000;stroke-width:1px;stroke-linecap:butt;display:inline" />
    <path
       style="fill:none;stroke:#000000;stroke-width:1px;stroke-linecap:butt;display:inline"
       d="m 200,30 0,11 c 0,16.59263561 -20.1987203,34.54510586 -33.9602154,51.597851 -8.0232428,9.9421113 3.9092965,20.2446526 12.4789885,10.8669923 l 45.1484772,-49.40516874 c 6.1244088,-6.70183064 16.0798964,-2.57290772 9.5902271,7.51966259 l -22.3629076,34.77823117 c -7.2805183,11.32247888 4.7720508,21.60367248 13.9489349,9.99582278 10.9790646,-13.88742969 29.9482151,-35.48890187 34.2958799,-40.70280818 8.0765484,-9.68574358 20.302348,-6.12565271 13.5839481,8.38393842 -5.8219868,12.57362593 -23.4925501,57.56258866 -28.8839238,70.81442776 -8.8511963,21.755982 10.0387646,28.8848186 20.2549455,9.4419971 C 293.9105192,97.54661323 305.9003255,67 359,67 l 11,0"
       id="I-top-1-1"
       inkscape:connector-curvature="0"
       sodipodi:nodetypes="cssssssssssssc" />
  </g>
  <g
     style="display:none"
     inkscape:label="HND-0071"
     id="g3867"
     inkscape:groupmode="layer"
     connect="UWUWCW00"
     sodipodi:insensitive="true">
    <path
       style="fill:none;stroke:#000000;stroke-width:1px;stroke-linecap:butt;display:inline"
       d="m 333,30 0,45.48042697"
       id="C-top-4-4"
       inkscape:connector-curvature="0"
       sodipodi:nodetypes="cc" />
    <path
       style="fill:none;stroke:#000000;stroke-width:1px;stroke-linecap:butt;display:inline"
       d="m 370,67 -11,0 c -40.7859495,0 -50.2270552,47.7565052 -69.0102168,91.4737941 -6.296221,14.6542801 -26.0198941,7.5829982 -20.2549455,-9.4419971 4.670396,-13.7925724 6.9071105,-20.4975752 11.3606875,-33.618446 6.7183999,-19.7933613 -5.5431534,-24.20241725 -15.3843911,-12.2330842 -12.2959252,14.9548287 -23.0283934,27.7352816 -33.0352974,39.7052474"
       id="C-right-1-5"
       inkscape:connector-curvature="0"
       sodipodi:nodetypes="csssssc" />
    <path
       sodipodi:nodetypes="cssssssssssssssssssscc"
       inkscape:connector-curvature="0"
       id="path3956"
       d="m 93.00890273,325.604576 c -0.0391121,-49.6529978 -0.59749562,-101.6427525 -5.499603,-158.8795712 L 82.41610925,107.2571071 C 81.16695744,92.67205822 98.42015696,88.55650788 100.4865023,105.4704827 l 7.3086012,59.8242205 c 1.0733788,8.7860929 14.4299255,11.129691 14.2194468,-1.7389541 l -1.2774789,-78.1049123 c -0.2547393,-15.57473325 19.1528671,-19.4606061 20.5036665,-1.2523735 l 5.8144443,78.3763697 c 0.6858691,9.2452389 13.8818584,8.2449038 14.3869952,-1.4568019 l 4.1189502,-79.1089454 c 0.8495547,-16.31662743 21.6978366,-16.8002256 21.6739531,-0.5145773 l -0.1189493,81.1089448 c -0.013314,9.078697 12.4183246,11.7230119 15.0203162,0.00954 l 14.721087,-66.2704057 c 3.6061189,-16.23378491 24.6439688,-15.12455322 21.5515194,5.1902771 -5.0360529,33.0826956 -8.1033475,62.5329455 -13.6848638,104.6035041 -2.0379551,15.3610427 9.5505946,21.3184733 19.4396265,2.9032324 6.5553651,-12.2073252 7.7786185,-18.3535442 13.8435271,-31.3109757 8.7072298,-18.6026437 27.0563495,-12.0762894 20.7215425,8.3685008 -13.7986982,44.5335571 -7.0942883,83.9953644 11.7535524,110.774859 z"
       style="fill:#ffffff;stroke:none;display:inline" />
    <path
       style="fill:none;stroke:#000000;stroke-width:1px;stroke-linecap:butt;display:inline"
       d="m 307,370 0,-55.2761012"
       id="C-bottom-3-5"
       inkscape:connector-curvature="0"
       sodipodi:nodetypes="cc" />
    <path
       style="fill:none;stroke:#000000;stroke-width:1px;stroke-linecap:butt;display:inline"
       d="m 333,370 0,-41"
       id="path3869"
       inkscape:connector-curvature="0"
       sodipodi:nodetypes="cc" />
    <path
       style="fill:none;stroke:#000000;stroke-width:1px;stroke-linecap:butt;display:inline"
       d="m 93,370 0,-11 C 93,299.2212701 93.52113227,236.9189321 87.50929973,166.7250048 L 82.41610925,107.2571071 C 81.16695744,92.67205822 98.42015696,88.55650788 100.4865023,105.4704827 l 7.3086012,59.8242205 c 1.0733788,8.7860929 14.4299255,11.129691 14.2194468,-1.7389541 l -1.2774789,-78.1049123 c -0.2547393,-15.57473325 19.1528671,-19.4606061 20.5036665,-1.2523735 l 5.8144443,78.3763697 c 0.6858691,9.2452389 13.8818584,8.2449038 14.3869952,-1.4568019 l 4.1189502,-79.1089454 c 0.8495547,-16.31662743 21.6978366,-16.8002256 21.6739531,-0.5145773 l -0.1189493,81.1089448 c -0.013314,9.078697 12.4183246,11.7230119 15.0203162,0.00954 l 14.721087,-66.2704057 c 3.6061189,-16.23378491 24.6439688,-15.12455322 21.5515194,5.1902771 -5.0360529,33.0826956 -8.1033475,62.5329455 -13.6848638,104.6035041 -2.0379551,15.3610427 9.5505946,21.3184733 19.4396265,2.9032324 6.5553651,-12.2073252 7.7786185,-18.3535442 13.8435271,-31.3109757 8.7072298,-18.6026437 27.0563495,-12.0762894 20.7215425,8.3685008 C 253.3019764,268.159269 297.4945243,333 359,333 l 11,0"
       id="path3871"
       inkscape:connector-curvature="0"
       sodipodi:nodetypes="csssssssssssssssssssssc" />
    <path
       style="fill:none;stroke:#000000;stroke-width:1px;stroke-linecap:butt;display:inline"
       d="m 67,30 0,340"
       id="C-top-1-5"
       inkscape:connector-curvature="0"
       sodipodi:nodetypes="cc" />
  </g>
  <g
     inkscape:groupmode="layer"
     id="g3958"
     inkscape:label="HND-0072"
     style="display:none"
     sodipodi:insensitive="true"
     connect="UWUWUW00">
    <path
       style="fill:none;stroke:#000000;stroke-width:1px;stroke-linecap:butt;display:inline"
       d="m 67,30 0,10.5 C 67,69.68337477 72,97 72,97"
       id="C-top-1-68"
       inkscape:connector-curvature="0"
       sodipodi:nodetypes="csc" />
    <path
       sodipodi:nodetypes="cc"
       inkscape:connector-curvature="0"
       id="path3966"
       d="m 333,370 0,-40"
       style="fill:none;stroke:#000000;stroke-width:1px;stroke-linecap:butt;display:inline" />
    <path
       sodipodi:nodetypes="csssssssssssssssssssssc"
       inkscape:connector-curvature="0"
       id="path3968"
       d="m 67,370 0,-11 C 67,299.2212701 79.52113227,236.9189321 73.50929973,166.7250048 L 68.41610925,107.2571071 C 67.16695744,92.67205822 84.420157,88.55650787 86.4865023,105.4704827 l 7.3086012,59.8242205 c 1.07337879,8.7860929 14.4299255,11.129691 14.2194468,-1.7389541 l -1.2774789,-78.1049123 c -0.2547393,-15.57473325 19.1528671,-19.4606061 20.5036665,-1.2523735 l 5.8144443,78.3763697 c 0.6858691,9.2452389 13.8818584,8.2449038 14.3869952,-1.4568019 l 4.1189502,-79.1089454 c 0.8495547,-16.31662743 21.4970595,-16.79928238 21.6739531,-0.5145773 l 0.8810507,81.1089448 c 0.098612,9.0781712 16.1040589,11.8545281 18.0203162,0.00954 l 10.721087,-66.2704057 c 2.6557547,-16.41605415 23.5431109,-15.26184107 21.5515194,5.1902771 -3.3321503,34.2186306 -5.5111526,64.8048156 -7.6848638,104.6035041 -0.8450761,15.4725803 9.5505946,21.3184733 19.4396265,2.9032324 6.5553651,-12.2073252 14.7691895,-41.0722451 20.8340981,-54.0296766 8.7072298,-18.6026437 27.0563495,-12.0762894 20.7215425,8.3685008 C 250.7350661,250.4671425 277.6496917,333 359,333 l 11,0"
       style="fill:none;stroke:#000000;stroke-width:1px;stroke-linecap:butt;display:inline" />
    <path
       sodipodi:nodetypes="csssssssssc"
       inkscape:connector-curvature="0"
       id="path3972"
       d="m 333,30 0,11 c 0,9.11838874 -2.54056,11.16256718 -15.5339675,14.41664293 l -85.214306,21.34111519 c -11.5497979,2.89253739 -9.9319823,17.85421726 3.2060199,15.7160514 22.7691264,-3.70559907 31.8797157,-6.09268287 48.3313954,-8.46891296 12.7693626,-1.84436751 11.4638273,3.41064389 7.1405049,12.22238599 -5.849005,11.92136955 -14.0145733,28.16834025 -17.8210606,35.88461905 -4.8254891,9.7819369 7.9616027,16.4205948 12.9791037,7.9085709 C 305.0946982,107.7757138 331.5611836,67 361,67 l 9,0"
       style="fill:none;stroke:#000000;stroke-width:1px;stroke-linecap:butt;display:inline" />
  </g>
  <g
     inkscape:groupmode="layer"
     id="layer9"
     inkscape:label="HND-0073"
     style="display:inline"
     connect="UWUWCW00"
     sodipodi:insensitive="true">
    <path
       sodipodi:nodetypes="cc"
       inkscape:connector-curvature="0"
       id="path3964-4"
       d="m 307,370 0,-50.2761012"
       style="fill:none;stroke:#000000;stroke-width:1px;stroke-linecap:butt;display:inline" />
    <path
       sodipodi:nodetypes="cc"
       inkscape:connector-curvature="0"
       id="path3966-7"
       d="m 333,370 0,-40"
       style="fill:none;stroke:#000000;stroke-width:1px;stroke-linecap:butt;display:inline" />
    <path
       sodipodi:nodetypes="csssssssssssssssssssssc"
       inkscape:connector-curvature="0"
       id="path3968-4"
       d="m 93,370 0,-11 C 93,299.2212701 93.52113227,236.9189321 87.50929973,166.7250048 L 82.41610925,107.2571071 C 81.16695744,92.67205822 98.42015696,88.55650788 100.4865023,105.4704827 l 7.3086012,59.8242205 c 1.0733788,8.7860929 14.4299255,11.129691 14.2194468,-1.7389541 l -1.2774789,-78.1049123 c -0.2547393,-15.57473325 19.1528671,-19.4606061 20.5036665,-1.2523735 l 5.8144443,78.3763697 c 0.6858691,9.2452389 13.8818584,8.2449038 14.3869952,-1.4568019 l 4.1189502,-79.1089454 c 0.8495547,-16.31662743 21.6978366,-16.8002256 21.6739531,-0.5145773 l -0.1189493,81.1089448 c -0.013314,9.078697 12.4183246,11.7230119 15.0203162,0.00954 l 14.721087,-66.2704057 c 3.6061189,-16.23378491 24.6439688,-15.12455322 21.5515194,5.1902771 -5.0360529,33.0826956 -8.1033475,62.5329455 -13.6848638,104.6035041 -2.0379551,15.3610427 12.2112548,22.6582639 21.4396265,3.9032324 6.3704788,-12.9468703 17.986686,-34.6949396 24.0515946,-47.6523711 7.5231278,-16.0728578 22.5142238,-9.962876 17.1526453,7.3409419 C 251.098155,286.7847025 293.4022857,333 359,333 l 11,0"
       style="fill:none;stroke:#000000;stroke-width:1px;stroke-linecap:butt;display:inline" />
    <path
       sodipodi:nodetypes="cc"
       inkscape:connector-curvature="0"
       id="path3970-43"
       d="m 67,30 0,340"
       style="fill:none;stroke:#000000;stroke-width:1px;stroke-linecap:butt;display:inline" />
    <path
       style="fill:none;stroke:#000000;stroke-width:1px;stroke-linecap:butt;display:inline"
       d="m 370,67 -11,0 c -20.4537349,0 -38.6047998,45.7612018 -63.3570252,79.6872848 -6.146223,8.4241828 -16.3976533,3.5149193 -12.2875541,-7.8260882 C 294.3099977,108.6342035 333,58.93007719 333,41 l 0,-11"
       id="path4012-7"
       inkscape:connector-curvature="0"
       sodipodi:nodetypes="cssssc" />
  </g>
</svg>
