<?xml version="1.0" encoding="UTF-8" standalone="no"?>
<!-- Created with Inkscape (http://www.inkscape.org/) -->

<svg
   xmlns:dc="http://purl.org/dc/elements/1.1/"
   xmlns:cc="http://creativecommons.org/ns#"
   xmlns:rdf="http://www.w3.org/1999/02/22-rdf-syntax-ns#"
   xmlns:svg="http://www.w3.org/2000/svg"
   xmlns="http://www.w3.org/2000/svg"
   xmlns:sodipodi="http://sodipodi.sourceforge.net/DTD/sodipodi-0.dtd"
   xmlns:inkscape="http://www.inkscape.org/namespaces/inkscape"
   style="display:inline"
   sodipodi:docname="141021_MOSOSA-R+_00_SB_00_SB_.svg"
   inkscape:version="0.48.3.1 r9886"
   version="1.1"
   id="svg2902"
   height="400"
   width="400">
  <sodipodi:namedview
     id="base"
     pagecolor="#ffffff"
     bordercolor="#666666"
     borderopacity="1.0"
     inkscape:pageopacity="0.0"
     inkscape:pageshadow="2"
     inkscape:zoom="1.4458885"
     inkscape:cx="192.0579"
     inkscape:cy="153.31285"
     inkscape:document-units="px"
     inkscape:current-layer="g3931"
     showgrid="false"
     inkscape:window-width="1018"
     inkscape:window-height="709"
     inkscape:window-x="0"
     inkscape:window-y="1"
     inkscape:window-maximized="0"
     showguides="true"
     inkscape:guide-bbox="true"
     inkscape:snap-bbox="true"
     inkscape:snap-global="false" />
  <defs
     id="defs2904" />
  <metadata
     id="metadata2907">
    <rdf:RDF>
      <cc:Work
         rdf:about="">
        <dc:format>image/svg+xml</dc:format>
        <dc:type
           rdf:resource="http://purl.org/dc/dcmitype/StillImage" />
        <dc:title />
      </cc:Work>
    </rdf:RDF>
  </metadata>
  <g
     inkscape:groupmode="layer"
     id="layer1"
     inkscape:label="XX_BG"
     sodipodi:insensitive="true">
    <path
       style="color:#000000;fill:#00ffff;fill-opacity:1;fill-rule:nonzero;stroke:none;stroke-width:0;marker:none;visibility:visible;display:inline;overflow:visible;enable-background:accumulate"
       d="m 0,0 400,0 0,400 -400,0 z"
       id="rect3096"
       inkscape:connector-curvature="0" />
  </g>
  <g
     inkscape:label="XX_Referenz"
     inkscape:groupmode="layer"
     id="XX_referenz"
     layerid="XX_referenz"
     style="display:inline"
     sodipodi:insensitive="true">
    <path
       id="innerframe"
       style="fill:none;stroke:#ff0000;stroke-width:1;stroke-linecap:round;stroke-linejoin:miter;stroke-miterlimit:3.9000001;stroke-opacity:1;stroke-dasharray:none"
       d="m 40.500002,40.500004 318.999998,0 0,318.999996 -318.999997,0 0,-318.999996 z"
       inkscape:label="#innerframe"
       sodipodi:insensitive="true"
       inkscape:connector-curvature="0" />
    <path
       id="outerframe"
       style="fill:none;stroke:#ff0000;stroke-width:1;stroke-linecap:round;stroke-linejoin:miter;stroke-miterlimit:3.9000001;stroke-opacity:1;stroke-dasharray:none;display:inline"
       d="m 30.500003,30.5 338.999997,0 0,339 -338.999997,0 0,-339 z"
       inkscape:label="#outerframe"
       sodipodi:nodetypes="ccccc"
       sodipodi:insensitive="true"
       inkscape:connector-curvature="0" />
    <path
       style="fill:none;stroke:#000000;stroke-width:1.00000036px;stroke-linecap:square;stroke-linejoin:miter;stroke-opacity:1"
       d="m 30.5,210 10.000237,0"
       id="left-bottom"
       inkscape:connector-curvature="0" />
    <path
       style="fill:none;stroke:#000000;stroke-width:1.00000036px;stroke-linecap:square;stroke-linejoin:miter;stroke-opacity:1;display:inline"
       d="m 30.5,190 10.000237,0"
       id="left-top"
       inkscape:connector-curvature="0" />
    <path
       style="opacity:0.5;fill:none;stroke:#00ff00;stroke-width:1.00000036px;stroke-linecap:square;stroke-linejoin:miter;stroke-opacity:1"
       d="m 30.5,209 10.000237,0"
       id="ref-left-bi"
       sodipodi:insensitive="true"
       inkscape:connector-curvature="0" />
    <path
       style="opacity:0.5;fill:none;stroke:#00ff00;stroke-width:1.00000036px;stroke-linecap:square;stroke-linejoin:miter;stroke-opacity:1;display:inline"
       d="m 30.5,211 10.000237,0"
       id="ref-left-bo"
       sodipodi:insensitive="true"
       inkscape:connector-curvature="0" />
    <path
       style="opacity:0.5;fill:none;stroke:#00ff00;stroke-width:1.00000036px;stroke-linecap:square;stroke-linejoin:miter;stroke-opacity:1;display:inline"
       d="m 30.5,189 10.000237,0"
       id="ref-left-to"
       sodipodi:insensitive="true"
       inkscape:connector-curvature="0" />
    <path
       style="opacity:0.5;fill:none;stroke:#00ff00;stroke-width:1.00000036px;stroke-linecap:square;stroke-linejoin:miter;stroke-opacity:1;display:inline"
       d="m 30.5,191 10.000237,0"
       id="ref-left-ti"
       sodipodi:insensitive="true"
       inkscape:connector-curvature="0" />
    <path
       style="fill:none;stroke:#000000;stroke-width:1.00000036px;stroke-linecap:square;stroke-linejoin:miter;stroke-opacity:1"
       d="m 190,30.5 0,10.000237"
       id="top-left"
       inkscape:connector-curvature="0" />
    <path
       style="fill:none;stroke:#000000;stroke-width:1.00000036px;stroke-linecap:square;stroke-linejoin:miter;stroke-opacity:1;display:inline"
       d="m 210,30.5 0,10.000237"
       id="top-right"
       inkscape:connector-curvature="0" />
    <path
       style="opacity:0.5;fill:none;stroke:#00ff00;stroke-width:1.00000036px;stroke-linecap:square;stroke-linejoin:miter;stroke-opacity:1;display:inline"
       d="m 191,30.5 0,10.000237"
       id="ref-top-li"
       sodipodi:insensitive="true"
       inkscape:connector-curvature="0" />
    <path
       style="opacity:0.5;fill:none;stroke:#00ff00;stroke-width:1.00000036px;stroke-linecap:square;stroke-linejoin:miter;stroke-opacity:1;display:inline"
       d="m 189,30.5 0,10.000237"
       id="ref-top-lo"
       sodipodi:insensitive="true"
       inkscape:connector-curvature="0" />
    <path
       style="opacity:0.5;fill:none;stroke:#00ff00;stroke-width:1.00000036px;stroke-linecap:square;stroke-linejoin:miter;stroke-opacity:1;display:inline"
       d="m 211,30.5 0,10.000237"
       id="ref-top-ro"
       sodipodi:insensitive="true"
       inkscape:connector-curvature="0" />
    <path
       style="opacity:0.5;fill:none;stroke:#00ff00;stroke-width:1.00000036px;stroke-linecap:square;stroke-linejoin:miter;stroke-opacity:1;display:inline"
       d="m 209,30.5 0,10.000237"
       id="ref-top-ri"
       sodipodi:insensitive="true"
       inkscape:connector-curvature="0" />
    <path
       style="fill:none;stroke:#000000;stroke-width:1.00000036px;stroke-linecap:square;stroke-linejoin:miter;stroke-opacity:1"
       d="m 369.5,190 -10.00024,0"
       id="right-top"
       inkscape:connector-curvature="0" />
    <path
       style="fill:none;stroke:#000000;stroke-width:1.00000036px;stroke-linecap:square;stroke-linejoin:miter;stroke-opacity:1;display:inline"
       d="m 369.5,210 -10.00024,0"
       id="right-bottom"
       inkscape:connector-curvature="0" />
    <path
       style="opacity:0.5;fill:none;stroke:#00ff00;stroke-width:1.00000036px;stroke-linecap:square;stroke-linejoin:miter;stroke-opacity:1;display:inline"
       d="m 369.5,191 -10.00024,0"
       id="ref-right-ti"
       sodipodi:insensitive="true"
       inkscape:connector-curvature="0" />
    <path
       style="opacity:0.5;fill:none;stroke:#00ff00;stroke-width:1.00000036px;stroke-linecap:square;stroke-linejoin:miter;stroke-opacity:1;display:inline"
       d="m 369.5,189 -10.00024,0"
       id="ref-right-to"
       sodipodi:insensitive="true"
       inkscape:connector-curvature="0" />
    <path
       style="opacity:0.5;fill:none;stroke:#00ff00;stroke-width:1.00000036px;stroke-linecap:square;stroke-linejoin:miter;stroke-opacity:1;display:inline"
       d="m 369.5,211 -10.00024,0"
       id="ref-right-bo"
       sodipodi:insensitive="true"
       inkscape:connector-curvature="0" />
    <path
       style="opacity:0.5;fill:none;stroke:#00ff00;stroke-width:1.00000036px;stroke-linecap:square;stroke-linejoin:miter;stroke-opacity:1;display:inline"
       d="m 369.5,209 -10.00024,0"
       id="ref-right-bi"
       sodipodi:insensitive="true"
       inkscape:connector-curvature="0" />
    <path
       style="fill:none;stroke:#000000;stroke-width:1.00000036px;stroke-linecap:square;stroke-linejoin:miter;stroke-opacity:1"
       d="m 210,369.5 0,-10.00024"
       id="bottom-right"
       inkscape:connector-curvature="0" />
    <path
       style="fill:none;stroke:#000000;stroke-width:1.00000036px;stroke-linecap:square;stroke-linejoin:miter;stroke-opacity:1;display:inline"
       d="m 190,369.5 0,-10.00024"
       id="bottom-left"
       inkscape:connector-curvature="0" />
    <path
       style="opacity:0.5;fill:none;stroke:#00ff00;stroke-width:1.00000036px;stroke-linecap:square;stroke-linejoin:miter;stroke-opacity:1;display:inline"
       d="m 209,369.5 0,-10.00024"
       id="ref-bottom-ri"
       sodipodi:insensitive="true"
       inkscape:connector-curvature="0" />
    <path
       style="opacity:0.5;fill:none;stroke:#00ff00;stroke-width:1.00000036px;stroke-linecap:square;stroke-linejoin:miter;stroke-opacity:1;display:inline"
       d="m 211,369.5 0,-10.00024"
       id="ref-bottom-ro"
       sodipodi:insensitive="true"
       inkscape:connector-curvature="0" />
    <path
       style="opacity:0.5;fill:none;stroke:#00ff00;stroke-width:1.00000036px;stroke-linecap:square;stroke-linejoin:miter;stroke-opacity:1;display:inline"
       d="m 189,369.5 0,-10.00024"
       id="ref-bottom-lo"
       sodipodi:insensitive="true"
       inkscape:connector-curvature="0" />
    <path
       style="opacity:0.5;fill:none;stroke:#00ff00;stroke-width:1.00000036px;stroke-linecap:square;stroke-linejoin:miter;stroke-opacity:1;display:inline"
       d="m 191,369.5 0,-10.00024"
       id="ref-bottom-li"
       sodipodi:insensitive="true"
       inkscape:connector-curvature="0" />
  </g>
  <g
     style="display:none"
     inkscape:label="ELEMENT-001"
     layerid="element"
     id="element"
     inkscape:groupmode="layer">
    <path
       inkscape:connector-curvature="0"
       id="right-bottom-3-9"
       style="fill:#000000;stroke:none;display:inline"
       d="m 369.5,210 -339,0 0,-20 339,0 z"
       sodipodi:nodetypes="ccccc" />
    <path
       id="right-bottom-3"
       style="fill:none;stroke:#000000;stroke-width:1.00000036px;stroke-linecap:square;stroke-linejoin:miter;stroke-opacity:1;display:inline"
       d="m 30.5,190 339,0 m -339,20 339,0"
       sodipodi:nodetypes="cccc"
       inkscape:connector-curvature="0" />
  </g>
  <g
     inkscape:groupmode="layer"
     id="layer2"
     inkscape:label="XX_ELEMENT-002"
     style="display:none">
    <path
       id="left-top-6-0"
       style="fill:none;stroke:#ff0000;stroke-width:20;stroke-linecap:butt;stroke-linejoin:miter;stroke-miterlimit:4;stroke-opacity:1;stroke-dasharray:none;display:inline"
       d="m 369.5,200 -34.75,0 c -71.26668,0 -86.2359,55 -134.75,55 -48.5141,0 -61.35717,-55 -134.75,-55 l -34.75,0"
       inkscape:connector-curvature="0"
       sodipodi:nodetypes="ccacc" />
  </g>
  <g
     inkscape:label="ELEMENT-002"
     id="g3865"
     inkscape:groupmode="layer"
     style="display:none">
    <path
       style="font-size:medium;font-style:normal;font-variant:normal;font-weight:normal;font-stretch:normal;text-indent:0;text-align:start;text-decoration:none;line-height:normal;letter-spacing:normal;word-spacing:normal;text-transform:none;direction:ltr;block-progression:tb;writing-mode:lr-tb;text-anchor:start;baseline-shift:baseline;color:#000000;fill:#000000;stroke:none;stroke-width:1;marker:none;visibility:visible;display:inline;overflow:visible;enable-background:accumulate;font-family:Sans;-inkscape-font-specification:Sans"
       d="m 369.5,190 -34.75,0 c -38.20584,0 -62.70803,15.40128 -81.8125,29.4375 C 233.83303,233.47372 220.47808,245 200,245 179.52192,245 166.81836,233.54051 147.9375,219.46875 129.05664,205.39699 104.44439,190 65.25,190 l -34.75,0 0,20 34.75,0 c 34.198442,0 52.70134,12.10301 70.71875,25.53125 C 153.98616,248.95949 171.96398,265 200,265 c 28.03602,0 46.42466,-15.97372 64.75,-29.4375 C 283.07534,222.09872 301.68916,210 334.75,210 l 34.75,0 z"
       id="path3867-4"
       inkscape:connector-curvature="0"
       sodipodi:nodetypes="csssssccssssscc" />
    <path
       style="font-size:medium;font-style:normal;font-variant:normal;font-weight:normal;font-stretch:normal;text-indent:0;text-align:start;text-decoration:none;line-height:normal;letter-spacing:normal;word-spacing:normal;text-transform:none;direction:ltr;block-progression:tb;writing-mode:lr-tb;text-anchor:start;baseline-shift:baseline;color:#000000;fill:none;stroke:#000000;stroke-width:1;stroke-miterlimit:4;stroke-dasharray:none;marker:none;visibility:visible;display:inline;overflow:visible;enable-background:accumulate;font-family:Sans;-inkscape-font-specification:Sans"
       d="m 369.5,190 -34.75,0 c -38.20584,0 -62.70803,15.40128 -81.8125,29.4375 C 233.83303,233.47372 220.47808,245 200,245 179.52192,245 166.81836,233.54051 147.9375,219.46875 129.05664,205.39699 104.44439,190 65.25,190 l -34.75,0 m 0,20 34.75,0 c 34.198442,0 52.70134,12.10301 70.71875,25.53125 C 153.98616,248.95949 171.96398,265 200,265 c 28.03602,0 46.42466,-15.97372 64.75,-29.4375 C 283.07534,222.09872 301.68916,210 334.75,210 l 34.75,0"
       id="path3867"
       inkscape:connector-curvature="0"
       sodipodi:nodetypes="csssssccsssssc" />
  </g>
  <g
     style="display:none"
     inkscape:label="XX_ELEMENT-003"
     id="g3891"
     inkscape:groupmode="layer">
    <path
       sodipodi:nodetypes="ccaaacc"
       inkscape:connector-curvature="0"
       d="m 369.5,200 -34.75,0 c -40.11374,0 -44.51662,13.8056 -67.375,13 -23.23158,-0.81875 -44.129,-18 -67.375,-18 -23.246,0 -44.14342,17.18125 -67.375,18 -22.85838,0.8056 -27.91996,-13 -67.375,-13 l -34.75,0"
       style="fill:none;stroke:#ff0000;stroke-width:20;stroke-linecap:butt;stroke-linejoin:miter;stroke-miterlimit:4;stroke-opacity:1;stroke-dasharray:none;display:inline"
       id="path3893" />
  </g>
  <g
     inkscape:groupmode="layer"
     id="g3895"
     inkscape:label="ELEMENT-003"
     style="display:none">
    <path
       style="font-size:medium;font-style:normal;font-variant:normal;font-weight:normal;font-stretch:normal;text-indent:0;text-align:start;text-decoration:none;line-height:normal;letter-spacing:normal;word-spacing:normal;text-transform:none;direction:ltr;block-progression:tb;writing-mode:lr-tb;text-anchor:start;baseline-shift:baseline;color:#000000;fill:#000000;fill-opacity:1;stroke:none;stroke-width:1;marker:none;visibility:visible;display:inline;overflow:visible;enable-background:accumulate;font-family:Sans;-inkscape-font-specification:Sans"
       d="m 200,185 c -14.08669,0 -26.32228,4.9887 -37.40625,9.40625 -11.08397,4.41755 -21.05186,8.26738 -30.3125,8.59375 -9.39376,0.33107 -14.19657,-2.06189 -23.65625,-5.5625 C 99.165323,193.93689 86.143877,190 65.25,190 l -34.75,0 0,20 34.75,0 c 18.561163,0 27.788032,2.98671 36.4375,6.1875 8.64947,3.20079 17.81663,7.28703 31.28125,6.8125 C 146.93969,222.50762 159.01586,217.34651 170,212.96875 180.98414,208.59099 190.84069,205 200,205 c 9.15931,0 19.01586,3.59099 30,7.96875 10.98414,4.37776 23.06031,9.53887 37.03125,10.03125 13.46124,0.47442 22.52082,-3.65384 31.0625,-6.84375 C 306.63543,212.96634 315.84033,210 334.75,210 l 34.75,0 0,-20 -34.75,0 c -21.20407,0 -34.25346,3.92601 -43.65625,7.4375 -9.40279,3.51149 -13.97786,5.89368 -23.375,5.5625 -9.26064,-0.32637 -19.22853,-4.1762 -30.3125,-8.59375 C 226.32228,189.9887 214.08669,185 200,185 z"
       id="path3897-3"
       inkscape:connector-curvature="0" />
    <path
       style="font-size:medium;font-style:normal;font-variant:normal;font-weight:normal;font-stretch:normal;text-indent:0;text-align:start;text-decoration:none;line-height:normal;letter-spacing:normal;word-spacing:normal;text-transform:none;direction:ltr;block-progression:tb;writing-mode:lr-tb;text-anchor:start;baseline-shift:baseline;color:#000000;fill:none;stroke:#000000;stroke-width:1;stroke-miterlimit:4;stroke-dasharray:none;marker:none;visibility:visible;display:inline;overflow:visible;enable-background:accumulate;font-family:Sans;-inkscape-font-specification:Sans"
       d="m 30.5,210 34.75,0 c 18.561163,0 27.788032,2.98671 36.4375,6.1875 8.64947,3.20079 17.81663,7.28703 31.28125,6.8125 C 146.93969,222.50762 159.01586,217.34651 170,212.96875 180.98414,208.59099 190.84069,205 200,205 c 9.15931,0 19.01586,3.59099 30,7.96875 10.98414,4.37776 23.06031,9.53887 37.03125,10.03125 13.46124,0.47442 22.52082,-3.65384 31.0625,-6.84375 C 306.63543,212.96634 315.84033,210 334.75,210 l 34.75,0 m 0,-20 -34.75,0 c -21.20407,0 -34.25346,3.92601 -43.65625,7.4375 -9.40279,3.51149 -13.97786,5.89368 -23.375,5.5625 -9.26064,-0.32637 -19.22853,-4.1762 -30.3125,-8.59375 C 226.32228,189.9887 214.08669,185 200,185 c -14.08669,0 -26.32228,4.9887 -37.40625,9.40625 -11.08397,4.41755 -21.05186,8.26738 -30.3125,8.59375 -9.39376,0.33107 -14.19657,-2.06189 -23.65625,-5.5625 C 99.165323,193.93689 86.143877,190 65.25,190 l -34.75,0"
       id="path3897"
       inkscape:connector-curvature="0"
       sodipodi:nodetypes="csssssssssccsssssssssc" />
  </g>
  <g
     inkscape:groupmode="layer"
     id="g3927"
     inkscape:label="XX_ELEMENT-004"
     style="display:none">
    <path
       id="path3929"
       style="fill:none;stroke:#ff0000;stroke-width:20;stroke-linecap:butt;stroke-linejoin:miter;stroke-miterlimit:4;stroke-opacity:1;stroke-dasharray:none;display:inline"
       d="m 369.5,200 -14.75,0 c -48.41313,0 -55.76905,50.40094 -87.375,43 -35.97048,-8.42295 -30.43151,-88 -67.375,-88 -36.94349,0 -31.40452,79.57705 -67.375,88 -31.60595,7.40094 -38.237333,-43 -87.375,-43 l -14.75,0"
       inkscape:connector-curvature="0"
       sodipodi:nodetypes="ccaaacc" />
  </g>
  <g
     style="display:inline"
     inkscape:label="ELEMENT-004"
     id="g3931"
     inkscape:groupmode="layer">
    <path
       style="font-size:medium;font-style:normal;font-variant:normal;font-weight:normal;font-stretch:normal;text-indent:0;text-align:start;text-decoration:none;line-height:normal;letter-spacing:normal;word-spacing:normal;text-transform:none;direction:ltr;block-progression:tb;writing-mode:lr-tb;text-anchor:start;baseline-shift:baseline;color:#000000;fill:#000000;fill-opacity:1;stroke:none;stroke-width:20;marker:none;visibility:visible;display:inline;overflow:visible;enable-background:accumulate;font-family:Sans;-inkscape-font-specification:Sans"
       d="m 200,145 c -12.82591,0 -22.97931,7.74086 -29.28125,16.875 -6.30194,9.13414 -10.26676,19.9594 -14.15625,30.5 -3.88949,10.5406 -7.64799,20.81253 -12.03125,28.21875 -4.38326,7.40622 -8.65377,11.36046 -14.1875,12.65625 -5.37264,1.25807 -8.18315,0.39395 -12.46875,-2.3125 -4.2856,-2.70645 -9.31029,-7.78645 -15.3125,-13.75 C 90.558086,205.2604 73.237863,190 45.25,190 l -14.75,0 0,20 14.75,0 c 21.149804,0 31.721568,9.95187 43.21875,21.375 5.748591,5.71157 11.367492,11.80654 18.75,16.46875 7.38251,4.66221 17.25717,7.34865 27.6875,4.90625 12.45151,-2.91568 20.99439,-12.08532 26.84375,-21.96875 5.84936,-9.88343 9.75373,-21.06222 13.59375,-31.46875 3.84002,-10.40653 7.66981,-20.01272 11.84375,-26.0625 4.17394,-6.04978 7.16666,-8.25 12.8125,-8.25 5.64584,0 8.63856,2.20022 12.8125,8.25 4.17394,6.04978 8.00373,15.65597 11.84375,26.0625 3.84002,10.40653 7.74439,21.58532 13.59375,31.46875 5.84936,9.88343 14.39224,19.05307 26.84375,21.96875 10.43859,2.44433 20.32014,-0.22797 27.75,-4.875 7.42986,-4.64703 13.13333,-10.74607 18.9375,-16.46875 C 323.38959,219.96088 334.01363,210 354.75,210 l 14.75,0 0,-20 -14.75,0 c -27.67676,0 -44.92561,15.25138 -57,27.15625 -6.03719,5.95243 -11.14854,11.05962 -15.5,13.78125 -4.35146,2.72163 -7.22936,3.56864 -12.59375,2.3125 -5.53373,-1.29579 -9.80424,-5.25003 -14.1875,-12.65625 -4.38326,-7.40622 -8.14176,-17.67815 -12.03125,-28.21875 -3.88949,-10.5406 -7.85431,-21.36586 -14.15625,-30.5 C 222.97931,152.74086 212.82591,145 200,145 z"
       id="path3933-0"
       inkscape:connector-curvature="0" />
    <path
       style="font-size:medium;font-style:normal;font-variant:normal;font-weight:normal;font-stretch:normal;text-indent:0;text-align:start;text-decoration:none;line-height:normal;letter-spacing:normal;word-spacing:normal;text-transform:none;direction:ltr;block-progression:tb;writing-mode:lr-tb;text-anchor:start;baseline-shift:baseline;color:#000000;fill:none;stroke:#000000;stroke-width:1;stroke-miterlimit:4;stroke-dasharray:none;marker:none;visibility:visible;display:inline;overflow:visible;enable-background:accumulate;font-family:Sans;-inkscape-font-specification:Sans"
       d="m 369.5,190 -14.75,0 c -27.67676,0 -44.92561,15.25138 -57,27.15625 -6.03719,5.95243 -11.14854,11.05962 -15.5,13.78125 -4.35146,2.72163 -7.22936,3.56864 -12.59375,2.3125 -5.53373,-1.29579 -9.80424,-5.25003 -14.1875,-12.65625 -4.38326,-7.40622 -8.14176,-17.67815 -12.03125,-28.21875 -3.88949,-10.5406 -7.85431,-21.36586 -14.15625,-30.5 C 222.97931,152.74086 212.82591,145 200,145 c -12.82591,0 -22.97931,7.74086 -29.28125,16.875 -6.30194,9.13414 -10.26676,19.9594 -14.15625,30.5 -3.88949,10.5406 -7.64799,20.81253 -12.03125,28.21875 -4.38326,7.40622 -8.65377,11.36046 -14.1875,12.65625 -5.37264,1.25807 -8.18315,0.39395 -12.46875,-2.3125 -4.2856,-2.70645 -9.31029,-7.78645 -15.3125,-13.75 C 90.558086,205.2604 73.237863,190 45.25,190 l -14.75,0 m 0,20 14.75,0 c 21.149804,0 31.721568,9.95187 43.21875,21.375 5.748591,5.71157 11.367492,11.80654 18.75,16.46875 7.38251,4.66221 17.25717,7.34865 27.6875,4.90625 12.45151,-2.91568 20.99439,-12.08532 26.84375,-21.96875 5.84936,-9.88343 9.75373,-21.06222 13.59375,-31.46875 3.84002,-10.40653 7.66981,-20.01272 11.84375,-26.0625 4.17394,-6.04978 7.16666,-8.25 12.8125,-8.25 5.64584,0 8.63856,2.20022 12.8125,8.25 4.17394,6.04978 8.00373,15.65597 11.84375,26.0625 3.84002,10.40653 7.74439,21.58532 13.59375,31.46875 5.84936,9.88343 14.39224,19.05307 26.84375,21.96875 10.43859,2.44433 20.32014,-0.22797 27.75,-4.875 7.42986,-4.64703 13.13333,-10.74607 18.9375,-16.46875 C 323.38959,219.96088 334.01363,210 354.75,210 l 14.75,0"
       id="path3933"
       inkscape:connector-curvature="0"
       sodipodi:nodetypes="csssssssssssssssccsssssssssssssssc" />
  </g>
</svg>
