<?xml version="1.0" encoding="UTF-8" standalone="no"?>
<!-- Created with Inkscape (http://www.inkscape.org/) -->

<svg
   xmlns:dc="http://purl.org/dc/elements/1.1/"
   xmlns:cc="http://creativecommons.org/ns#"
   xmlns:rdf="http://www.w3.org/1999/02/22-rdf-syntax-ns#"
   xmlns:svg="http://www.w3.org/2000/svg"
   xmlns="http://www.w3.org/2000/svg"
   xmlns:sodipodi="http://sodipodi.sourceforge.net/DTD/sodipodi-0.dtd"
   xmlns:inkscape="http://www.inkscape.org/namespaces/inkscape"
   style="display:inline"
   sodipodi:docname="141027_man-R+_00_SW_00_SW_.svg"
   inkscape:version="0.48.3.1 r9886"
   version="1.1"
   id="svg2902"
   height="400"
   width="400">
  <sodipodi:namedview
     id="base"
     pagecolor="#ffffff"
     bordercolor="#666666"
     borderopacity="1.0"
     inkscape:pageopacity="0.0"
     inkscape:pageshadow="2"
     inkscape:zoom="2.2113092"
     inkscape:cx="173.0873"
     inkscape:cy="131.56872"
     inkscape:document-units="px"
     inkscape:current-layer="g3723"
     showgrid="false"
     inkscape:window-width="1018"
     inkscape:window-height="709"
     inkscape:window-x="0"
     inkscape:window-y="1"
     inkscape:window-maximized="0"
     showguides="true"
     inkscape:guide-bbox="true"
     inkscape:snap-bbox="true"
     inkscape:snap-global="false" />
  <defs
     id="defs2904" />
  <metadata
     id="metadata2907">
    <rdf:RDF>
      <cc:Work
         rdf:about="">
        <dc:format>image/svg+xml</dc:format>
        <dc:type
           rdf:resource="http://purl.org/dc/dcmitype/StillImage" />
        <dc:title />
      </cc:Work>
    </rdf:RDF>
  </metadata>
  <g
     inkscape:groupmode="layer"
     id="layer1"
     inkscape:label="XX_BG"
     sodipodi:insensitive="true">
    <path
       style="color:#000000;fill:#ffd5d5;fill-opacity:1;fill-rule:nonzero;stroke:none;stroke-width:0;marker:none;visibility:visible;display:inline;overflow:visible;enable-background:accumulate"
       d="m 0,0 400,0 0,400 -400,0 z"
       id="rect3537"
       inkscape:connector-curvature="0" />
  </g>
  <g
     style="display:inline"
     id="XX_referenz"
     inkscape:groupmode="layer"
     inkscape:label="XX_Referenz"
     sodipodi:insensitive="true">
    <path
       sodipodi:insensitive="true"
       inkscape:label="#innerframe"
       d="m 40.500002,40.500004 318.999998,0 0,318.999996 -318.999997,0 0,-318.999996 z"
       style="fill:none;stroke:#ff0000;stroke-width:1;stroke-linecap:round;stroke-linejoin:miter;stroke-miterlimit:3.9000001;stroke-opacity:1;stroke-dasharray:none"
       id="innerframe" />
    <path
       sodipodi:insensitive="true"
       sodipodi:nodetypes="ccccc"
       inkscape:label="#outerframe"
       d="m 30.500003,30.5 338.999997,0 0,339 -338.999997,0 0,-339 z"
       style="fill:none;stroke:#ff0000;stroke-width:1;stroke-linecap:round;stroke-linejoin:miter;stroke-miterlimit:3.9000001;stroke-opacity:1;stroke-dasharray:none;display:inline"
       id="outerframe" />
    <path
       id="left-bottom"
       d="m 30.5,210 10.000237,0"
       style="fill:none;stroke:#000000;stroke-width:1.00000036px;stroke-linecap:square;stroke-linejoin:miter;stroke-opacity:1" />
    <path
       id="left-top"
       d="m 30.5,190 10.000237,0"
       style="fill:none;stroke:#000000;stroke-width:1.00000036px;stroke-linecap:square;stroke-linejoin:miter;stroke-opacity:1;display:inline" />
    <path
       sodipodi:insensitive="true"
       id="ref-left-bi"
       d="m 30.5,209 10.000237,0"
       style="opacity:0.5;fill:none;stroke:#00ff00;stroke-width:1.00000036px;stroke-linecap:square;stroke-linejoin:miter;stroke-opacity:1" />
    <path
       sodipodi:insensitive="true"
       id="ref-left-bo"
       d="m 30.5,211 10.000237,0"
       style="opacity:0.5;fill:none;stroke:#00ff00;stroke-width:1.00000036px;stroke-linecap:square;stroke-linejoin:miter;stroke-opacity:1;display:inline" />
    <path
       sodipodi:insensitive="true"
       id="ref-left-to"
       d="m 30.5,189 10.000237,0"
       style="opacity:0.5;fill:none;stroke:#00ff00;stroke-width:1.00000036px;stroke-linecap:square;stroke-linejoin:miter;stroke-opacity:1;display:inline" />
    <path
       sodipodi:insensitive="true"
       id="ref-left-ti"
       d="m 30.5,191 10.000237,0"
       style="opacity:0.5;fill:none;stroke:#00ff00;stroke-width:1.00000036px;stroke-linecap:square;stroke-linejoin:miter;stroke-opacity:1;display:inline" />
    <path
       id="top-left"
       d="m 190,30.5 0,10.000237"
       style="fill:none;stroke:#000000;stroke-width:1.00000036px;stroke-linecap:square;stroke-linejoin:miter;stroke-opacity:1" />
    <path
       id="top-right"
       d="m 210,30.5 0,10.000237"
       style="fill:none;stroke:#000000;stroke-width:1.00000036px;stroke-linecap:square;stroke-linejoin:miter;stroke-opacity:1;display:inline" />
    <path
       sodipodi:insensitive="true"
       id="ref-top-li"
       d="m 191,30.5 0,10.000237"
       style="opacity:0.5;fill:none;stroke:#00ff00;stroke-width:1.00000036px;stroke-linecap:square;stroke-linejoin:miter;stroke-opacity:1;display:inline" />
    <path
       sodipodi:insensitive="true"
       id="ref-top-lo"
       d="m 189,30.5 0,10.000237"
       style="opacity:0.5;fill:none;stroke:#00ff00;stroke-width:1.00000036px;stroke-linecap:square;stroke-linejoin:miter;stroke-opacity:1;display:inline" />
    <path
       sodipodi:insensitive="true"
       id="ref-top-ro"
       d="m 211,30.5 0,10.000237"
       style="opacity:0.5;fill:none;stroke:#00ff00;stroke-width:1.00000036px;stroke-linecap:square;stroke-linejoin:miter;stroke-opacity:1;display:inline" />
    <path
       sodipodi:insensitive="true"
       id="ref-top-ri"
       d="m 209,30.5 0,10.000237"
       style="opacity:0.5;fill:none;stroke:#00ff00;stroke-width:1.00000036px;stroke-linecap:square;stroke-linejoin:miter;stroke-opacity:1;display:inline" />
    <path
       id="right-top"
       d="m 369.5,190 -10.00024,0"
       style="fill:none;stroke:#000000;stroke-width:1.00000036px;stroke-linecap:square;stroke-linejoin:miter;stroke-opacity:1" />
    <path
       id="right-bottom"
       d="m 369.5,210 -10.00024,0"
       style="fill:none;stroke:#000000;stroke-width:1.00000036px;stroke-linecap:square;stroke-linejoin:miter;stroke-opacity:1;display:inline" />
    <path
       sodipodi:insensitive="true"
       id="ref-right-ti"
       d="m 369.5,191 -10.00024,0"
       style="opacity:0.5;fill:none;stroke:#00ff00;stroke-width:1.00000036px;stroke-linecap:square;stroke-linejoin:miter;stroke-opacity:1;display:inline" />
    <path
       sodipodi:insensitive="true"
       id="ref-right-to"
       d="m 369.5,189 -10.00024,0"
       style="opacity:0.5;fill:none;stroke:#00ff00;stroke-width:1.00000036px;stroke-linecap:square;stroke-linejoin:miter;stroke-opacity:1;display:inline" />
    <path
       sodipodi:insensitive="true"
       id="ref-right-bo"
       d="m 369.5,211 -10.00024,0"
       style="opacity:0.5;fill:none;stroke:#00ff00;stroke-width:1.00000036px;stroke-linecap:square;stroke-linejoin:miter;stroke-opacity:1;display:inline" />
    <path
       sodipodi:insensitive="true"
       id="ref-right-bi"
       d="m 369.5,209 -10.00024,0"
       style="opacity:0.5;fill:none;stroke:#00ff00;stroke-width:1.00000036px;stroke-linecap:square;stroke-linejoin:miter;stroke-opacity:1;display:inline" />
    <path
       id="bottom-right"
       d="m 210,369.5 0,-10.00024"
       style="fill:none;stroke:#000000;stroke-width:1.00000036px;stroke-linecap:square;stroke-linejoin:miter;stroke-opacity:1" />
    <path
       id="bottom-left"
       d="m 190,369.5 0,-10.00024"
       style="fill:none;stroke:#000000;stroke-width:1.00000036px;stroke-linecap:square;stroke-linejoin:miter;stroke-opacity:1;display:inline" />
    <path
       sodipodi:insensitive="true"
       id="ref-bottom-ri"
       d="m 209,369.5 0,-10.00024"
       style="opacity:0.5;fill:none;stroke:#00ff00;stroke-width:1.00000036px;stroke-linecap:square;stroke-linejoin:miter;stroke-opacity:1;display:inline" />
    <path
       sodipodi:insensitive="true"
       id="ref-bottom-ro"
       d="m 211,369.5 0,-10.00024"
       style="opacity:0.5;fill:none;stroke:#00ff00;stroke-width:1.00000036px;stroke-linecap:square;stroke-linejoin:miter;stroke-opacity:1;display:inline" />
    <path
       sodipodi:insensitive="true"
       id="ref-bottom-lo"
       d="m 189,369.5 0,-10.00024"
       style="opacity:0.5;fill:none;stroke:#00ff00;stroke-width:1.00000036px;stroke-linecap:square;stroke-linejoin:miter;stroke-opacity:1;display:inline" />
    <path
       sodipodi:insensitive="true"
       id="ref-bottom-li"
       d="m 191,369.5 0,-10.00024"
       style="opacity:0.5;fill:none;stroke:#00ff00;stroke-width:1.00000036px;stroke-linecap:square;stroke-linejoin:miter;stroke-opacity:1;display:inline" />
  </g>
  <g
     style="display:inline"
     inkscape:label="PAGE-001"
     id="g3633"
     inkscape:groupmode="layer"
     sodipodi:insensitive="true">
    <path
       sodipodi:nodetypes="ccccccc"
       inkscape:connector-curvature="0"
       d="m 200.50146,294.00622 -86.31668,-22.00803 0,-136.91027 0,0 0,0 86.31668,22.00804 z"
       style="color:#000000;fill:#ffffff;stroke:none;stroke-width:1;marker:none;visibility:visible;display:inline;overflow:visible;enable-background:accumulate"
       id="path3649" />
    <path
       sodipodi:nodetypes="cccccc"
       inkscape:connector-curvature="0"
       d="m 200.55121,157.09596 0,0 86.31668,-22.00804 0,136.91027 -86.31668,22.00803 0,-136.56743"
       style="color:#000000;fill:#ffffff;stroke:none;stroke-width:1;marker:none;visibility:visible;display:inline;overflow:visible;enable-background:accumulate"
       id="path3651" />
  </g>
  <g
     inkscape:groupmode="layer"
     id="g3723"
     inkscape:label="HOLD-001"
     style="display:inline"
     sodipodi:insensitive="true">
    <path
       style="fill:#ffffff;stroke:none;display:inline"
       d="m 287,173.75 -0.0937,11.09375 c 5.8186,1.69518 8.94559,1.92897 13.03125,3.09375 -17.69703,0.78946 -31.45394,3.88333 -49.125,5.125 -5.86827,1.13484 -7.18409,3.55508 -6.59375,7.09375 0.54854,3.28649 3.55749,5.00525 7.4375,4.875 -1.09778,0.14001 -2.25646,0.28237 -3.59375,0.4375 -4.53031,0.76251 -8.7747,2.94174 -8.21875,6.96875 0.55673,4.03331 4.18266,5.34083 9.8125,4.53125 l 6.96875,-1 c -4.77795,0.76287 -8.23145,3.02764 -7.78125,6.9375 0.44802,3.88356 3.96108,4.8361 8.90625,4.125 l 6.65625,-1 c -3.72783,0.53606 -6.30926,3.02452 -5.9375,6.1875 0.39927,3.39683 3.70967,4.78606 7.4375,4.25 l 32.2812,-4.65625 C 322.77098,227.1076 338.02048,210.63841 359.5,210 l 10,0 0,-20 -10,0 c -27.79484,-0.37107 -43.28305,-9.74981 -72.5,-16.25 z"
       id="path3731"
       inkscape:connector-curvature="0" />
    <path
       style="fill:#ffffff;stroke:none"
       d="M 114.1875,175.59375 C 91.3007,179.81841 63.722735,189.69027 40.5,190 l -10,0 0,20 10,0 c 17.813498,0 30.99058,15.81449 61.21875,21.8125 L 134,236.46875 c 3.72783,0.53606 7.03822,-0.85317 7.4375,-4.25 0.37175,-3.16298 -2.20967,-5.65144 -5.9375,-6.1875 l 6.65625,1 c 4.94518,0.7111 8.45823,-0.24144 8.90625,-4.125 0.43096,-3.74275 -2.72741,-5.95907 -4.95745,-6.40141 -0.002,-3.7e-4 4.14495,0.46391 4.14495,0.46391 5.62984,0.80958 9.25576,-0.49794 9.8125,-4.53125 0.55595,-4.02701 -3.68843,-6.20624 -8.21875,-6.96875 l -1.99865,-0.39615 c 2.06385,0.0726 5.27283,-1.50388 5.8424,-4.91635 0.59033,-3.53867 -0.72548,-5.95891 -6.59375,-7.09375 -17.67107,-1.69931 -32.10557,-3.19091 -50.03125,-4.78125 4.42865,-0.93596 9.02515,-2.32016 14.84375,-3.4375 z"
       id="path3735"
       inkscape:connector-curvature="0"
       sodipodi:nodetypes="ccccscccccccccccccccc" />
  </g>
  <g
     style="display:inline"
     inkscape:label="HOLD-001"
     id="g3611"
     inkscape:groupmode="layer"
     sodipodi:insensitive="true">
    <path
       sodipodi:nodetypes="cccccscccscccscc"
       id="path3747"
       d="m 286.9125,184.83736 c 5.8186,1.69518 8.93204,1.9305 13.0177,3.09528 -17.69703,0.78946 -31.45264,3.88011 -49.1237,5.12178 l 0,0 0,0 c -5.86827,1.13484 -7.18888,3.5535 -6.59854,7.09217 0.61509,3.68522 4.30923,5.26915 8.87408,4.61274 l 24.08676,-2.67252 -29.10782,3.37143 c -4.53031,0.76251 -8.78674,2.94647 -8.23079,6.97348 0.55673,4.03331 4.20248,5.33365 9.83232,4.52407 l 25.41226,-3.64764 -18.12747,2.61333 c -4.94516,0.7111 -8.55559,2.98925 -8.09528,6.98689 0.44802,3.88356 3.95172,4.82761 8.89689,4.11651 l 6.65655,-0.98101"
       style="color:#000000;fill:none;stroke:#ff0000;stroke-width:0.99999994;stroke-linecap:butt;stroke-linejoin:miter;stroke-miterlimit:4;stroke-opacity:1;stroke-dashoffset:0;marker:none;visibility:visible;display:inline;overflow:visible;enable-background:accumulate"
       inkscape:connector-curvature="0" />
    <path
       sodipodi:nodetypes="cccccscccscccscc"
       id="path3755"
       d="m 113.91857,184.83736 c -5.8186,1.11734 -10.42764,2.50255 -14.856293,3.43851 17.925683,1.59034 32.367293,3.07924 50.038363,4.77855 l 0,0 0,0 c 5.86827,1.13484 7.18887,3.5535 6.59854,7.09217 -0.61509,3.68522 -4.30923,5.26915 -8.87408,4.61274 l -24.08677,-2.67252 29.10782,3.37143 c 4.53032,0.76251 8.78675,2.94647 8.2308,6.97348 -0.55674,4.03331 -4.20249,5.33365 -9.83233,4.52407 l -25.41226,-3.64764 18.12747,2.61333 c 4.94517,0.7111 8.55559,2.98925 8.09528,6.98689 -0.44802,3.88356 -3.95171,4.82761 -8.89689,4.11651 l -6.65654,-0.98101"
       style="color:#000000;fill:none;stroke:#ff0000;stroke-width:0.99999994;stroke-linecap:butt;stroke-linejoin:miter;stroke-miterlimit:4;stroke-opacity:1;stroke-dashoffset:0;marker:none;visibility:visible;display:inline;overflow:visible;enable-background:accumulate"
       inkscape:connector-curvature="0" />
    <path
       id="left-top-3"
       style="fill:none;stroke:#000000;stroke-width:1.00000036px;stroke-linecap:square;stroke-linejoin:miter;stroke-opacity:1;display:inline"
       d="m 114.2811,223.00428 21.22058,3.03959 c 3.72783,0.53606 6.31542,3.02243 5.94367,6.18541 -0.39928,3.39683 -3.71189,4.76862 -7.43972,4.23256 l -32.27341,-4.64089 C 71.50405,225.82294 58.313735,210 40.500237,210 L 30.5,210 m 83.68622,-34.41061 C 91.29942,179.81405 63.722972,189.69027 40.500237,190 L 30.5,190"
       sodipodi:nodetypes="ccsccccccc"
       inkscape:connector-curvature="0" />
    <path
       id="right-bottom-8"
       style="fill:none;stroke:#000000;stroke-width:1.00000036px;stroke-linecap:square;stroke-linejoin:miter;stroke-opacity:1;display:inline"
       d="m 285.62603,223.00428 -21.22057,3.03959 c -3.72783,0.53606 -6.31543,3.02243 -5.94367,6.18541 0.39927,3.39683 3.71188,4.76862 7.43971,4.23256 l 32.27342,-4.64089 C 322.7584,227.11605 338.02024,210.63841 359.49976,210 L 369.5,210 m -82.50869,-36.25974 c 29.21695,6.50019 44.71361,15.88867 72.50845,16.25974 L 369.5,190"
       sodipodi:nodetypes="ccsccccccc"
       inkscape:connector-curvature="0" />
  </g>
  <g
     inkscape:groupmode="layer"
     id="g3674"
     inkscape:label="RESULT-001"
     style="display:inline"
     sodipodi:insensitive="true">
    <path
       inkscape:connector-curvature="0"
       style="fill:none;stroke:#ff0000;stroke-width:0.99999994;display:inline"
       d="m 180.47446,86.796549 c -0.1587,-9.363965 10.70152,-15.29435 18.89858,-15.77068 7.87643,-0.457695 17.56134,5.395843 19.79825,12.948084 4.53404,15.307811 -19.38073,27.004917 -19.38073,43.807097"
       id="path3690"
       sodipodi:nodetypes="caac" />
    <path
       inkscape:connector-curvature="0"
       style="color:#000000;fill:none;stroke:#ff0000;stroke-width:0.99999994;stroke-linecap:round;stroke-linejoin:round;stroke-miterlimit:4;stroke-opacity:1;stroke-dashoffset:0;marker:none;visibility:visible;display:inline;overflow:visible;enable-background:accumulate"
       d="m 202.82425,140.39177 c 0,1.67267 -1.35845,3.02865 -3.03417,3.02865 -1.67574,0 -3.03421,-1.35598 -3.03421,-3.02865 0,-1.67269 1.35847,-3.02866 3.03421,-3.02866 1.67572,0 3.03417,1.35597 3.03417,3.02866 z"
       id="path3692" />
  </g>
  <g
     inkscape:groupmode="layer"
     id="g3540"
     inkscape:label="PAGE-001"
     style="display:inline"
     sodipodi:insensitive="true">
    <path
       style="color:#000000;fill:none;stroke:#ff0000;stroke-width:1;stroke-linecap:square;stroke-linejoin:bevel;stroke-miterlimit:4;stroke-opacity:1;stroke-dashoffset:0;marker:none;visibility:visible;display:inline;overflow:visible;enable-background:accumulate"
       d="m 286.86789,233.80892 0,38.18927 -86.31668,22.00803 0,-136.56743"
       id="path3542"
       sodipodi:nodetypes="cccc"
       inkscape:connector-curvature="0" />
    <path
       id="path3546"
       style="color:#000000;fill:none;stroke:#ff0000;stroke-width:1;stroke-linecap:square;stroke-linejoin:bevel;stroke-miterlimit:4;stroke-opacity:1;stroke-dashoffset:0;marker:none;visibility:visible;display:inline;overflow:visible;enable-background:accumulate"
       d="m 114.18478,188.93544 0,-53.84752 0,0 0,0 86.35398,22.00804 86.32913,-22.00804 0,53.49967"
       inkscape:connector-curvature="0"
       sodipodi:nodetypes="ccccccc" />
    <path
       style="color:#000000;fill:none;stroke:#ff0000;stroke-width:1;stroke-linecap:square;stroke-linejoin:bevel;stroke-miterlimit:4;stroke-opacity:1;stroke-dashoffset:0;marker:none;visibility:visible;display:inline;overflow:visible;enable-background:accumulate"
       d="m 200.50146,294.00622 -86.31668,-22.00803 0,-38.38727"
       id="path3548"
       sodipodi:nodetypes="ccc"
       inkscape:connector-curvature="0" />
    <path
       id="path3550"
       style="fill:none;stroke:#ff0000;stroke-width:1;stroke-linecap:round;stroke-linejoin:round;display:inline"
       d="m 232.84613,187.38066 0,-21.43928 -8.17461,23.73782 -8.17461,-19.14076 0,21.4393"
       sodipodi:nodetypes="ccccc"
       inkscape:connector-curvature="0" />
    <path
       id="path3552"
       style="fill:none;stroke:#ff0000;stroke-width:1;stroke-linecap:round;stroke-linejoin:round;display:inline"
       d="m 254.30452,181.34701 -8.17462,-19.14075 -8.17461,23.73783 m 3.06548,-8.0084 10.21826,-2.87316"
       sodipodi:nodetypes="ccccc"
       inkscape:connector-curvature="0" />
    <path
       id="path3554"
       style="fill:none;stroke:#ff0000;stroke-width:1;stroke-linecap:round;stroke-linejoin:round;display:inline"
       d="m 273.71925,154.4487 0,21.43928 -14.30558,-17.41685 0,21.43928"
       sodipodi:nodetypes="cccc"
       inkscape:connector-curvature="0" />
  </g>
</svg>
