<?xml version="1.0" encoding="UTF-8" standalone="no"?>
<!-- Created with Inkscape (http://www.inkscape.org/) -->

<svg
   xmlns:dc="http://purl.org/dc/elements/1.1/"
   xmlns:cc="http://creativecommons.org/ns#"
   xmlns:rdf="http://www.w3.org/1999/02/22-rdf-syntax-ns#"
   xmlns:svg="http://www.w3.org/2000/svg"
   xmlns="http://www.w3.org/2000/svg"
   xmlns:sodipodi="http://sodipodi.sourceforge.net/DTD/sodipodi-0.dtd"
   xmlns:inkscape="http://www.inkscape.org/namespaces/inkscape"
   style="display:inline"
   sodipodi:docname="141022_spirale-R+_SB_00_SW_00_.svg"
   inkscape:version="0.48.3.1 r9886"
   version="1.1"
   id="svg2902"
   height="400"
   width="400">
  <sodipodi:namedview
     id="base"
     pagecolor="#ffffff"
     bordercolor="#666666"
     borderopacity="1.0"
     inkscape:pageopacity="0.0"
     inkscape:pageshadow="2"
     inkscape:zoom="0.80062967"
     inkscape:cx="226.93012"
     inkscape:cy="250.28797"
     inkscape:document-units="px"
     inkscape:current-layer="g4416"
     showgrid="false"
     inkscape:window-width="1018"
     inkscape:window-height="709"
     inkscape:window-x="0"
     inkscape:window-y="1"
     inkscape:window-maximized="0"
     showguides="true"
     inkscape:guide-bbox="true"
     inkscape:snap-bbox="true"
     inkscape:snap-global="false" />
  <defs
     id="defs2904" />
  <metadata
     id="metadata2907">
    <rdf:RDF>
      <cc:Work
         rdf:about="">
        <dc:format>image/svg+xml</dc:format>
        <dc:type
           rdf:resource="http://purl.org/dc/dcmitype/StillImage" />
        <dc:title />
      </cc:Work>
    </rdf:RDF>
  </metadata>
  <g
     inkscape:groupmode="layer"
     id="layer2"
     inkscape:label="XX_BG"
     sodipodi:insensitive="true"
     style="display:inline">
    <path
       style="color:#000000;fill:#00ffff;fill-opacity:1;fill-rule:nonzero;stroke:none;stroke-width:0;marker:none;visibility:visible;display:inline;overflow:visible;enable-background:accumulate"
       d="m 0,0 400,0 0,400 -400,0 z"
       id="rect4441"
       inkscape:connector-curvature="0" />
  </g>
  <g
     inkscape:label="XX_Referenz"
     inkscape:groupmode="layer"
     id="XX_referenz"
     style="display:inline"
     sodipodi:insensitive="true">
    <path
       id="innerframe"
       style="fill:none;stroke:#ff0000;stroke-width:1;stroke-linecap:round;stroke-linejoin:miter;stroke-miterlimit:3.9000001;stroke-opacity:1;stroke-dasharray:none"
       d="m 40.500002,40.500004 318.999998,0 0,318.999996 -318.999997,0 0,-318.999996 z"
       inkscape:label="#innerframe"
       sodipodi:insensitive="true"
       inkscape:connector-curvature="0" />
    <path
       id="outerframe"
       style="fill:none;stroke:#ff0000;stroke-width:1;stroke-linecap:round;stroke-linejoin:miter;stroke-miterlimit:3.9000001;stroke-opacity:1;stroke-dasharray:none;display:inline"
       d="m 30.500003,30.5 338.999997,0 0,339 -338.999997,0 0,-339 z"
       inkscape:label="#outerframe"
       sodipodi:nodetypes="ccccc"
       sodipodi:insensitive="true"
       inkscape:connector-curvature="0" />
    <path
       style="opacity:0.5;fill:none;stroke:#ffc200;stroke-width:1.00000036px;stroke-linecap:square;stroke-linejoin:miter;stroke-opacity:1;display:inline"
       d="m 189,30.5 0,10.000237"
       id="ref-S-top-1"
       sodipodi:insensitive="true"
       inkscape:connector-curvature="0" />
    <path
       style="opacity:0.5;fill:none;stroke:#ffc200;stroke-width:1.00000036px;stroke-linecap:square;stroke-linejoin:miter;stroke-opacity:1;display:inline"
       d="m 191,30.5 0,10.000237"
       id="ref-S-top-2"
       sodipodi:insensitive="true"
       inkscape:connector-curvature="0" />
    <path
       style="opacity:0.5;fill:none;stroke:#ffc200;stroke-width:1.00000036px;stroke-linecap:square;stroke-linejoin:miter;stroke-opacity:1;display:inline"
       d="m 209,30.5 0,10.000237"
       id="ref-S-top-3"
       sodipodi:insensitive="true"
       inkscape:connector-curvature="0" />
    <path
       style="opacity:0.5;fill:none;stroke:#ffc200;stroke-width:1.00000036px;stroke-linecap:square;stroke-linejoin:miter;stroke-opacity:1;display:inline"
       d="m 211,30.5 0,10.000237"
       id="ref-S-top-4"
       sodipodi:insensitive="true"
       inkscape:connector-curvature="0" />
    <path
       style="opacity:0.5;fill:none;stroke:#00ff00;stroke-width:1.00000036px;stroke-linecap:square;stroke-linejoin:miter;stroke-opacity:1;display:inline"
       d="m 199,30.5 0,10.000237"
       id="ref-I-top-1"
       sodipodi:insensitive="true"
       inkscape:connector-curvature="0" />
    <path
       style="opacity:0.5;fill:none;stroke:#00ff00;stroke-width:1.00000036px;stroke-linecap:square;stroke-linejoin:miter;stroke-opacity:1;display:inline"
       d="m 201,30.5 0,10.000237"
       id="ref-I-top-2"
       sodipodi:insensitive="true"
       inkscape:connector-curvature="0" />
    <path
       style="opacity:0.5;color:#000000;fill:none;stroke:#00ffcc;stroke-width:1.00000036px;stroke-linecap:square;stroke-linejoin:miter;stroke-miterlimit:4;stroke-opacity:1;stroke-dasharray:none;stroke-dashoffset:0;marker:none;visibility:visible;display:inline;overflow:visible;enable-background:accumulate"
       d="m 66,30.5 0,10.000237"
       id="ref-C-top-1"
       sodipodi:insensitive="true"
       inkscape:connector-curvature="0" />
    <path
       style="opacity:0.5;color:#000000;fill:none;stroke:#00ffcc;stroke-width:1.00000036px;stroke-linecap:square;stroke-linejoin:miter;stroke-miterlimit:4;stroke-opacity:1;stroke-dasharray:none;stroke-dashoffset:0;marker:none;visibility:visible;display:inline;overflow:visible;enable-background:accumulate"
       d="m 68,30.5 0,10.000237"
       id="ref-C-top-2"
       sodipodi:insensitive="true"
       inkscape:connector-curvature="0" />
    <path
       style="opacity:0.5;color:#000000;fill:none;stroke:#00ffcc;stroke-width:1.00000036px;stroke-linecap:square;stroke-linejoin:miter;stroke-miterlimit:4;stroke-opacity:1;stroke-dasharray:none;stroke-dashoffset:0;marker:none;visibility:visible;display:inline;overflow:visible;enable-background:accumulate"
       d="m 92,30.5 0,10.000237"
       id="ref-C-top-3"
       sodipodi:insensitive="true"
       inkscape:connector-curvature="0" />
    <path
       style="opacity:0.5;color:#000000;fill:none;stroke:#00ffcc;stroke-width:1.00000036px;stroke-linecap:square;stroke-linejoin:miter;stroke-miterlimit:4;stroke-opacity:1;stroke-dasharray:none;stroke-dashoffset:0;marker:none;visibility:visible;display:inline;overflow:visible;enable-background:accumulate"
       d="m 94,30.5 0,10.000237"
       id="ref-C-top-4"
       sodipodi:insensitive="true"
       inkscape:connector-curvature="0" />
    <path
       style="opacity:0.5;color:#000000;fill:none;stroke:#00ffcc;stroke-width:1.00000036px;stroke-linecap:square;stroke-linejoin:miter;stroke-miterlimit:4;stroke-opacity:1;stroke-dasharray:none;stroke-dashoffset:0;marker:none;visibility:visible;display:inline;overflow:visible;enable-background:accumulate"
       d="m 306,30.5 0,10.000237"
       id="ref-C-top-5"
       sodipodi:insensitive="true"
       inkscape:connector-curvature="0" />
    <path
       style="opacity:0.5;color:#000000;fill:none;stroke:#00ffcc;stroke-width:1.00000036px;stroke-linecap:square;stroke-linejoin:miter;stroke-miterlimit:4;stroke-opacity:1;stroke-dasharray:none;stroke-dashoffset:0;marker:none;visibility:visible;display:inline;overflow:visible;enable-background:accumulate"
       d="m 308,30.5 0,10.000237"
       id="ref-C-top-6"
       sodipodi:insensitive="true"
       inkscape:connector-curvature="0" />
    <path
       style="opacity:0.5;color:#000000;fill:none;stroke:#00ffcc;stroke-width:1.00000036px;stroke-linecap:square;stroke-linejoin:miter;stroke-miterlimit:4;stroke-opacity:1;stroke-dasharray:none;stroke-dashoffset:0;marker:none;visibility:visible;display:inline;overflow:visible;enable-background:accumulate"
       d="m 332,30.5 0,10.000237"
       id="ref-C-top-7"
       sodipodi:insensitive="true"
       inkscape:connector-curvature="0" />
    <path
       style="opacity:0.5;color:#000000;fill:none;stroke:#00ffcc;stroke-width:1.00000036px;stroke-linecap:square;stroke-linejoin:miter;stroke-miterlimit:4;stroke-opacity:1;stroke-dasharray:none;stroke-dashoffset:0;marker:none;visibility:visible;display:inline;overflow:visible;enable-background:accumulate"
       d="m 334,30.5 0,10.000237"
       id="ref-C-top-8"
       sodipodi:insensitive="true"
       inkscape:connector-curvature="0" />
    <path
       style="color:#000000;fill:none;stroke:#000000;stroke-width:1.00000036px;stroke-linecap:square;stroke-linejoin:miter;stroke-miterlimit:4;stroke-opacity:1;stroke-dasharray:none;stroke-dashoffset:0;marker:none;visibility:visible;display:inline;overflow:visible;enable-background:accumulate"
       d="m 190,30.5 0,10.000237"
       id="S-top-1"
       inkscape:connector-curvature="0" />
    <path
       style="color:#000000;fill:none;stroke:#000000;stroke-width:1.00000036px;stroke-linecap:square;stroke-linejoin:miter;stroke-miterlimit:4;stroke-opacity:1;stroke-dasharray:none;stroke-dashoffset:0;marker:none;visibility:visible;display:inline;overflow:visible;enable-background:accumulate"
       d="m 210,30.5 0,10.000237"
       id="S-top-2"
       inkscape:connector-curvature="0" />
    <path
       style="fill:none;stroke:#000000;stroke-width:1.00000036px;stroke-linecap:square;stroke-linejoin:miter;stroke-opacity:1;display:inline"
       d="m 200,30.5 0,10.000237"
       id="I-top-1"
       inkscape:connector-curvature="0" />
    <path
       style="color:#000000;fill:none;stroke:#000000;stroke-width:1.00000036px;stroke-linecap:square;stroke-linejoin:miter;stroke-miterlimit:4;stroke-opacity:1;stroke-dasharray:none;stroke-dashoffset:0;marker:none;visibility:visible;display:inline;overflow:visible;enable-background:accumulate"
       d="m 67,30.5 0,10.000237"
       id="C-top-1"
       inkscape:connector-curvature="0" />
    <path
       style="color:#000000;fill:none;stroke:#000000;stroke-width:1.00000036px;stroke-linecap:square;stroke-linejoin:miter;stroke-miterlimit:4;stroke-opacity:1;stroke-dasharray:none;stroke-dashoffset:0;marker:none;visibility:visible;display:inline;overflow:visible;enable-background:accumulate"
       d="m 93,30.5 0,10.000237"
       id="C-top-2"
       inkscape:connector-curvature="0" />
    <path
       style="color:#000000;fill:none;stroke:#000000;stroke-width:1.00000036px;stroke-linecap:square;stroke-linejoin:miter;stroke-miterlimit:4;stroke-opacity:1;stroke-dasharray:none;stroke-dashoffset:0;marker:none;visibility:visible;display:inline;overflow:visible;enable-background:accumulate"
       d="m 307,30.5 0,10.000237"
       id="C-top-3"
       inkscape:connector-curvature="0" />
    <path
       style="color:#000000;fill:none;stroke:#000000;stroke-width:1.00000036px;stroke-linecap:square;stroke-linejoin:miter;stroke-miterlimit:4;stroke-opacity:1;stroke-dasharray:none;stroke-dashoffset:0;marker:none;visibility:visible;display:inline;overflow:visible;enable-background:accumulate"
       d="m 333,30.5 0,10.000237"
       id="C-top-4"
       inkscape:connector-curvature="0" />
    <path
       style="opacity:0.5;fill:none;stroke:#ffc200;stroke-width:1.00000036px;stroke-linecap:square;stroke-linejoin:miter;stroke-opacity:1;display:inline"
       d="m 369.5,189 -10.00024,0"
       id="ref-S-right-1"
       sodipodi:insensitive="true"
       inkscape:connector-curvature="0" />
    <path
       style="opacity:0.5;fill:none;stroke:#ffc200;stroke-width:1.00000036px;stroke-linecap:square;stroke-linejoin:miter;stroke-opacity:1;display:inline"
       d="m 369.5,191 -10.00024,0"
       id="ref-S-right-2"
       sodipodi:insensitive="true"
       inkscape:connector-curvature="0" />
    <path
       style="opacity:0.5;fill:none;stroke:#ffc200;stroke-width:1.00000036px;stroke-linecap:square;stroke-linejoin:miter;stroke-opacity:1;display:inline"
       d="m 369.5,209 -10.00024,0"
       id="ref-S-right-3"
       sodipodi:insensitive="true"
       inkscape:connector-curvature="0" />
    <path
       style="opacity:0.5;fill:none;stroke:#ffc200;stroke-width:1.00000036px;stroke-linecap:square;stroke-linejoin:miter;stroke-opacity:1;display:inline"
       d="m 369.5,211 -10.00024,0"
       id="ref-S-right-4"
       sodipodi:insensitive="true"
       inkscape:connector-curvature="0" />
    <path
       style="opacity:0.5;fill:none;stroke:#00ff00;stroke-width:1.00000036px;stroke-linecap:square;stroke-linejoin:miter;stroke-opacity:1;display:inline"
       d="m 369.5,199 -10.00024,0"
       id="ref-I-right-1"
       sodipodi:insensitive="true"
       inkscape:connector-curvature="0" />
    <path
       style="opacity:0.5;fill:none;stroke:#00ff00;stroke-width:1.00000036px;stroke-linecap:square;stroke-linejoin:miter;stroke-opacity:1;display:inline"
       d="m 369.5,201 -10.00024,0"
       id="ref-I-right-2"
       sodipodi:insensitive="true"
       inkscape:connector-curvature="0" />
    <path
       style="opacity:0.5;color:#000000;fill:none;stroke:#00ffcc;stroke-width:1.00000036px;stroke-linecap:square;stroke-linejoin:miter;stroke-miterlimit:4;stroke-opacity:1;stroke-dasharray:none;stroke-dashoffset:0;marker:none;visibility:visible;display:inline;overflow:visible;enable-background:accumulate"
       d="m 369.5,66 -10.00023,0"
       id="ref-C-right-1"
       sodipodi:insensitive="true"
       inkscape:connector-curvature="0" />
    <path
       style="opacity:0.5;color:#000000;fill:none;stroke:#00ffcc;stroke-width:1.00000036px;stroke-linecap:square;stroke-linejoin:miter;stroke-miterlimit:4;stroke-opacity:1;stroke-dasharray:none;stroke-dashoffset:0;marker:none;visibility:visible;display:inline;overflow:visible;enable-background:accumulate"
       d="m 369.5,68 -10.00023,0"
       id="ref-C-right-2"
       sodipodi:insensitive="true"
       inkscape:connector-curvature="0" />
    <path
       style="opacity:0.5;color:#000000;fill:none;stroke:#00ffcc;stroke-width:1.00000036px;stroke-linecap:square;stroke-linejoin:miter;stroke-miterlimit:4;stroke-opacity:1;stroke-dasharray:none;stroke-dashoffset:0;marker:none;visibility:visible;display:inline;overflow:visible;enable-background:accumulate"
       d="m 369.5,92 -10.00023,0"
       id="ref-C-right-3"
       sodipodi:insensitive="true"
       inkscape:connector-curvature="0" />
    <path
       style="opacity:0.5;color:#000000;fill:none;stroke:#00ffcc;stroke-width:1.00000036px;stroke-linecap:square;stroke-linejoin:miter;stroke-miterlimit:4;stroke-opacity:1;stroke-dasharray:none;stroke-dashoffset:0;marker:none;visibility:visible;display:inline;overflow:visible;enable-background:accumulate"
       d="m 369.5,94 -10.00023,0"
       id="ref-C-right-4"
       sodipodi:insensitive="true"
       inkscape:connector-curvature="0" />
    <path
       style="opacity:0.5;color:#000000;fill:none;stroke:#00ffcc;stroke-width:1.00000036px;stroke-linecap:square;stroke-linejoin:miter;stroke-miterlimit:4;stroke-opacity:1;stroke-dasharray:none;stroke-dashoffset:0;marker:none;visibility:visible;display:inline;overflow:visible;enable-background:accumulate"
       d="m 369.5,306 -10.00023,0"
       id="ref-C-right-5"
       sodipodi:insensitive="true"
       inkscape:connector-curvature="0" />
    <path
       style="opacity:0.5;color:#000000;fill:none;stroke:#00ffcc;stroke-width:1.00000036px;stroke-linecap:square;stroke-linejoin:miter;stroke-miterlimit:4;stroke-opacity:1;stroke-dasharray:none;stroke-dashoffset:0;marker:none;visibility:visible;display:inline;overflow:visible;enable-background:accumulate"
       d="m 369.5,308 -10.00023,0"
       id="ref-C-right-6"
       sodipodi:insensitive="true"
       inkscape:connector-curvature="0" />
    <path
       style="opacity:0.5;color:#000000;fill:none;stroke:#00ffcc;stroke-width:1.00000036px;stroke-linecap:square;stroke-linejoin:miter;stroke-miterlimit:4;stroke-opacity:1;stroke-dasharray:none;stroke-dashoffset:0;marker:none;visibility:visible;display:inline;overflow:visible;enable-background:accumulate"
       d="m 369.5,332 -10.00023,0"
       id="ref-C-right-7"
       sodipodi:insensitive="true"
       inkscape:connector-curvature="0" />
    <path
       style="opacity:0.5;color:#000000;fill:none;stroke:#00ffcc;stroke-width:1.00000036px;stroke-linecap:square;stroke-linejoin:miter;stroke-miterlimit:4;stroke-opacity:1;stroke-dasharray:none;stroke-dashoffset:0;marker:none;visibility:visible;display:inline;overflow:visible;enable-background:accumulate"
       d="m 369.5,334 -10.00023,0"
       id="ref-C-right-8"
       sodipodi:insensitive="true"
       inkscape:connector-curvature="0" />
    <path
       style="fill:none;stroke:#000000;stroke-width:1.00000036px;stroke-linecap:square;stroke-linejoin:miter;stroke-opacity:1"
       d="m 369.5,190 -10.00024,0"
       id="S-right-1"
       inkscape:connector-curvature="0" />
    <path
       style="fill:none;stroke:#000000;stroke-width:1.00000036px;stroke-linecap:square;stroke-linejoin:miter;stroke-opacity:1;display:inline"
       d="m 369.5,210 -10.00024,0"
       id="S-right-2"
       inkscape:connector-curvature="0" />
    <path
       style="fill:none;stroke:#000000;stroke-width:1.00000036px;stroke-linecap:square;stroke-linejoin:miter;stroke-opacity:1;display:inline"
       d="m 369.5,200 -10.00024,0"
       id="I-right-1"
       inkscape:connector-curvature="0" />
    <path
       style="color:#000000;fill:none;stroke:#000000;stroke-width:1.00000036px;stroke-linecap:square;stroke-linejoin:miter;stroke-miterlimit:4;stroke-opacity:1;stroke-dasharray:none;stroke-dashoffset:0;marker:none;visibility:visible;display:inline;overflow:visible;enable-background:accumulate"
       d="m 369.5,67 -10.00023,0"
       id="C-right-1"
       inkscape:connector-curvature="0" />
    <path
       style="color:#000000;fill:none;stroke:#000000;stroke-width:1.00000036px;stroke-linecap:square;stroke-linejoin:miter;stroke-miterlimit:4;stroke-opacity:1;stroke-dasharray:none;stroke-dashoffset:0;marker:none;visibility:visible;display:inline;overflow:visible;enable-background:accumulate"
       d="m 369.5,93 -10.00023,0"
       id="C-right-2"
       inkscape:connector-curvature="0" />
    <path
       style="color:#000000;fill:none;stroke:#000000;stroke-width:1.00000036px;stroke-linecap:square;stroke-linejoin:miter;stroke-miterlimit:4;stroke-opacity:1;stroke-dasharray:none;stroke-dashoffset:0;marker:none;visibility:visible;display:inline;overflow:visible;enable-background:accumulate"
       d="m 369.5,307 -10.00023,0"
       id="C-right-3"
       inkscape:connector-curvature="0" />
    <path
       style="color:#000000;fill:none;stroke:#000000;stroke-width:1.00000036px;stroke-linecap:square;stroke-linejoin:miter;stroke-miterlimit:4;stroke-opacity:1;stroke-dasharray:none;stroke-dashoffset:0;marker:none;visibility:visible;display:inline;overflow:visible;enable-background:accumulate"
       d="m 369.5,333 -10.00023,0"
       id="C-right-4"
       inkscape:connector-curvature="0" />
    <path
       style="opacity:0.5;fill:none;stroke:#ffc200;stroke-width:1.00000036px;stroke-linecap:square;stroke-linejoin:miter;stroke-opacity:1;display:inline"
       d="m 189,369.5 0,-10.00024"
       id="ref-S-bottom-1"
       sodipodi:insensitive="true"
       inkscape:connector-curvature="0" />
    <path
       style="opacity:0.5;fill:none;stroke:#ffc200;stroke-width:1.00000036px;stroke-linecap:square;stroke-linejoin:miter;stroke-opacity:1;display:inline"
       d="m 191,369.5 0,-10.00024"
       id="ref-S-bottom-2"
       sodipodi:insensitive="true"
       inkscape:connector-curvature="0" />
    <path
       style="opacity:0.5;fill:none;stroke:#ffc200;stroke-width:1.00000036px;stroke-linecap:square;stroke-linejoin:miter;stroke-opacity:1;display:inline"
       d="m 209,369.5 0,-10.00024"
       id="ref-S-bottom-3"
       sodipodi:insensitive="true"
       inkscape:connector-curvature="0" />
    <path
       style="opacity:0.5;fill:none;stroke:#ffc200;stroke-width:1.00000036px;stroke-linecap:square;stroke-linejoin:miter;stroke-opacity:1;display:inline"
       d="m 211,369.5 0,-10.00024"
       id="ref-S-bottom-4"
       sodipodi:insensitive="true"
       inkscape:connector-curvature="0" />
    <path
       style="opacity:0.5;fill:none;stroke:#00ff00;stroke-width:1.00000036px;stroke-linecap:square;stroke-linejoin:miter;stroke-opacity:1;display:inline"
       d="m 199,369.5 0,-10.00024"
       id="ref-I-bottom-1"
       sodipodi:insensitive="true"
       inkscape:connector-curvature="0" />
    <path
       style="opacity:0.5;fill:none;stroke:#00ff00;stroke-width:1.00000036px;stroke-linecap:square;stroke-linejoin:miter;stroke-opacity:1;display:inline"
       d="m 201,369.5 0,-10.00024"
       id="ref-I-bottom-2"
       sodipodi:insensitive="true"
       inkscape:connector-curvature="0" />
    <path
       style="opacity:0.5;color:#000000;fill:none;stroke:#00ffcc;stroke-width:1.00000036px;stroke-linecap:square;stroke-linejoin:miter;stroke-miterlimit:4;stroke-opacity:1;stroke-dasharray:none;stroke-dashoffset:0;marker:none;visibility:visible;display:inline;overflow:visible;enable-background:accumulate"
       d="m 66,369.5 0,-10.00023"
       id="ref-C-bottom-1"
       sodipodi:insensitive="true"
       inkscape:connector-curvature="0" />
    <path
       style="opacity:0.5;color:#000000;fill:none;stroke:#00ffcc;stroke-width:1.00000036px;stroke-linecap:square;stroke-linejoin:miter;stroke-miterlimit:4;stroke-opacity:1;stroke-dasharray:none;stroke-dashoffset:0;marker:none;visibility:visible;display:inline;overflow:visible;enable-background:accumulate"
       d="m 68,369.5 0,-10.00023"
       id="ref-C-bottom-2"
       sodipodi:insensitive="true"
       inkscape:connector-curvature="0" />
    <path
       style="opacity:0.5;color:#000000;fill:none;stroke:#00ffcc;stroke-width:1.00000036px;stroke-linecap:square;stroke-linejoin:miter;stroke-miterlimit:4;stroke-opacity:1;stroke-dasharray:none;stroke-dashoffset:0;marker:none;visibility:visible;display:inline;overflow:visible;enable-background:accumulate"
       d="m 92,369.5 0,-10.00023"
       id="ref-C-bottom-3"
       sodipodi:insensitive="true"
       inkscape:connector-curvature="0" />
    <path
       style="opacity:0.5;color:#000000;fill:none;stroke:#00ffcc;stroke-width:1.00000036px;stroke-linecap:square;stroke-linejoin:miter;stroke-miterlimit:4;stroke-opacity:1;stroke-dasharray:none;stroke-dashoffset:0;marker:none;visibility:visible;display:inline;overflow:visible;enable-background:accumulate"
       d="m 94,369.5 0,-10.00023"
       id="ref-C-bottom-4"
       sodipodi:insensitive="true"
       inkscape:connector-curvature="0" />
    <path
       style="opacity:0.5;color:#000000;fill:none;stroke:#00ffcc;stroke-width:1.00000036px;stroke-linecap:square;stroke-linejoin:miter;stroke-miterlimit:4;stroke-opacity:1;stroke-dasharray:none;stroke-dashoffset:0;marker:none;visibility:visible;display:inline;overflow:visible;enable-background:accumulate"
       d="m 306,369.5 0,-10.00023"
       id="ref-C-bottom-5"
       sodipodi:insensitive="true"
       inkscape:connector-curvature="0" />
    <path
       style="opacity:0.5;color:#000000;fill:none;stroke:#00ffcc;stroke-width:1.00000036px;stroke-linecap:square;stroke-linejoin:miter;stroke-miterlimit:4;stroke-opacity:1;stroke-dasharray:none;stroke-dashoffset:0;marker:none;visibility:visible;display:inline;overflow:visible;enable-background:accumulate"
       d="m 308,369.5 0,-10.00023"
       id="ref-C-bottom-6"
       sodipodi:insensitive="true"
       inkscape:connector-curvature="0" />
    <path
       style="opacity:0.5;color:#000000;fill:none;stroke:#00ffcc;stroke-width:1.00000036px;stroke-linecap:square;stroke-linejoin:miter;stroke-miterlimit:4;stroke-opacity:1;stroke-dasharray:none;stroke-dashoffset:0;marker:none;visibility:visible;display:inline;overflow:visible;enable-background:accumulate"
       d="m 332,369.5 0,-10.00023"
       id="ref-C-bottom-7"
       sodipodi:insensitive="true"
       inkscape:connector-curvature="0" />
    <path
       style="opacity:0.5;color:#000000;fill:none;stroke:#00ffcc;stroke-width:1.00000036px;stroke-linecap:square;stroke-linejoin:miter;stroke-miterlimit:4;stroke-opacity:1;stroke-dasharray:none;stroke-dashoffset:0;marker:none;visibility:visible;display:inline;overflow:visible;enable-background:accumulate"
       d="m 334,369.5 0,-10.00023"
       id="ref-C-bottom-8"
       sodipodi:insensitive="true"
       inkscape:connector-curvature="0" />
    <path
       style="fill:none;stroke:#000000;stroke-width:1.00000036px;stroke-linecap:square;stroke-linejoin:miter;stroke-opacity:1;display:inline"
       d="m 190,369.5 0,-10.00024"
       id="S-bottom-1"
       inkscape:connector-curvature="0" />
    <path
       style="fill:none;stroke:#000000;stroke-width:1.00000036px;stroke-linecap:square;stroke-linejoin:miter;stroke-opacity:1"
       d="m 210,369.5 0,-10.00024"
       id="S-bottom-2"
       inkscape:connector-curvature="0" />
    <path
       style="fill:none;stroke:#000000;stroke-width:1.00000036px;stroke-linecap:square;stroke-linejoin:miter;stroke-opacity:1;display:inline"
       d="m 200,369.5 0,-10.00024"
       id="I-bottom-1"
       inkscape:connector-curvature="0" />
    <path
       style="color:#000000;fill:none;stroke:#000000;stroke-width:1.00000036px;stroke-linecap:square;stroke-linejoin:miter;stroke-miterlimit:4;stroke-opacity:1;stroke-dasharray:none;stroke-dashoffset:0;marker:none;visibility:visible;display:inline;overflow:visible;enable-background:accumulate"
       d="m 67,369.5 0,-10.00023"
       id="C-bottom-1"
       inkscape:connector-curvature="0" />
    <path
       style="color:#000000;fill:none;stroke:#000000;stroke-width:1.00000036px;stroke-linecap:square;stroke-linejoin:miter;stroke-miterlimit:4;stroke-opacity:1;stroke-dasharray:none;stroke-dashoffset:0;marker:none;visibility:visible;display:inline;overflow:visible;enable-background:accumulate"
       d="m 93,369.5 0,-10.00023"
       id="C-bottom-2"
       inkscape:connector-curvature="0" />
    <path
       style="color:#000000;fill:none;stroke:#000000;stroke-width:1.00000036px;stroke-linecap:square;stroke-linejoin:miter;stroke-miterlimit:4;stroke-opacity:1;stroke-dasharray:none;stroke-dashoffset:0;marker:none;visibility:visible;display:inline;overflow:visible;enable-background:accumulate"
       d="m 307,369.5 0,-10.00023"
       id="C-bottom-3"
       inkscape:connector-curvature="0" />
    <path
       style="color:#000000;fill:none;stroke:#000000;stroke-width:1.00000036px;stroke-linecap:square;stroke-linejoin:miter;stroke-miterlimit:4;stroke-opacity:1;stroke-dasharray:none;stroke-dashoffset:0;marker:none;visibility:visible;display:inline;overflow:visible;enable-background:accumulate"
       d="m 333,369.5 0,-10.00023"
       id="C-bottom-4"
       inkscape:connector-curvature="0" />
    <path
       style="opacity:0.5;fill:none;stroke:#ffc200;stroke-width:1.00000036px;stroke-linecap:square;stroke-linejoin:miter;stroke-opacity:1;display:inline"
       d="m 30.5,189 10.000237,0"
       id="ref-S-left-1"
       sodipodi:insensitive="true"
       inkscape:connector-curvature="0" />
    <path
       style="opacity:0.5;fill:none;stroke:#ffc200;stroke-width:1.00000036px;stroke-linecap:square;stroke-linejoin:miter;stroke-opacity:1;display:inline"
       d="m 30.5,191 10.000237,0"
       id="ref-S-left-2"
       sodipodi:insensitive="true"
       inkscape:connector-curvature="0" />
    <path
       style="opacity:0.5;fill:none;stroke:#ffc200;stroke-width:1.00000036px;stroke-linecap:square;stroke-linejoin:miter;stroke-opacity:1"
       d="m 30.5,209 10.000237,0"
       id="ref-S-left-3"
       sodipodi:insensitive="true"
       inkscape:connector-curvature="0" />
    <path
       style="opacity:0.5;fill:none;stroke:#ffc200;stroke-width:1.00000036px;stroke-linecap:square;stroke-linejoin:miter;stroke-opacity:1;display:inline"
       d="m 30.5,211 10.000237,0"
       id="ref-S-left-4"
       sodipodi:insensitive="true"
       inkscape:connector-curvature="0" />
    <path
       style="opacity:0.5;fill:none;stroke:#00ff00;stroke-width:1.00000036px;stroke-linecap:square;stroke-linejoin:miter;stroke-opacity:1;display:inline"
       d="M 40.50024,199 30.5,199"
       id="ref-I-left-1"
       sodipodi:insensitive="true"
       inkscape:connector-curvature="0" />
    <path
       style="opacity:0.5;fill:none;stroke:#00ff00;stroke-width:1.00000036px;stroke-linecap:square;stroke-linejoin:miter;stroke-opacity:1;display:inline"
       d="M 40.50024,201 30.5,201"
       id="ref-I-left-2"
       sodipodi:insensitive="true"
       inkscape:connector-curvature="0" />
    <path
       style="opacity:0.5;color:#000000;fill:none;stroke:#00ffcc;stroke-width:1.00000036px;stroke-linecap:square;stroke-linejoin:miter;stroke-miterlimit:4;stroke-opacity:1;stroke-dasharray:none;stroke-dashoffset:0;marker:none;visibility:visible;display:inline;overflow:visible;enable-background:accumulate"
       d="m 30.5,66 10.00023,0"
       id="ref-C-left-1"
       sodipodi:insensitive="true"
       inkscape:connector-curvature="0" />
    <path
       style="opacity:0.5;color:#000000;fill:none;stroke:#00ffcc;stroke-width:1.00000036px;stroke-linecap:square;stroke-linejoin:miter;stroke-miterlimit:4;stroke-opacity:1;stroke-dasharray:none;stroke-dashoffset:0;marker:none;visibility:visible;display:inline;overflow:visible;enable-background:accumulate"
       d="m 30.5,68 10.00023,0"
       id="ref-C-left-2"
       sodipodi:insensitive="true"
       inkscape:connector-curvature="0" />
    <path
       style="opacity:0.5;color:#000000;fill:none;stroke:#00ffcc;stroke-width:1.00000036px;stroke-linecap:square;stroke-linejoin:miter;stroke-miterlimit:4;stroke-opacity:1;stroke-dasharray:none;stroke-dashoffset:0;marker:none;visibility:visible;display:inline;overflow:visible;enable-background:accumulate"
       d="m 30.5,92 10.00023,0"
       id="ref-C-left-3"
       sodipodi:insensitive="true"
       inkscape:connector-curvature="0" />
    <path
       style="opacity:0.5;color:#000000;fill:none;stroke:#00ffcc;stroke-width:1.00000036px;stroke-linecap:square;stroke-linejoin:miter;stroke-miterlimit:4;stroke-opacity:1;stroke-dasharray:none;stroke-dashoffset:0;marker:none;visibility:visible;display:inline;overflow:visible;enable-background:accumulate"
       d="m 30.5,94 10.00023,0"
       id="ref-C-left-4"
       sodipodi:insensitive="true"
       inkscape:connector-curvature="0" />
    <path
       style="opacity:0.5;color:#000000;fill:none;stroke:#00ffcc;stroke-width:1.00000036px;stroke-linecap:square;stroke-linejoin:miter;stroke-miterlimit:4;stroke-opacity:1;stroke-dasharray:none;stroke-dashoffset:0;marker:none;visibility:visible;display:inline;overflow:visible;enable-background:accumulate"
       d="m 30.5,306 10.00023,0"
       id="ref-C-left-5"
       sodipodi:insensitive="true"
       inkscape:connector-curvature="0" />
    <path
       style="opacity:0.5;color:#000000;fill:none;stroke:#00ffcc;stroke-width:1.00000036px;stroke-linecap:square;stroke-linejoin:miter;stroke-miterlimit:4;stroke-opacity:1;stroke-dasharray:none;stroke-dashoffset:0;marker:none;visibility:visible;display:inline;overflow:visible;enable-background:accumulate"
       d="m 30.5,308 10.00023,0"
       id="ref-C-left-6"
       sodipodi:insensitive="true"
       inkscape:connector-curvature="0" />
    <path
       style="opacity:0.5;color:#000000;fill:none;stroke:#00ffcc;stroke-width:1.00000036px;stroke-linecap:square;stroke-linejoin:miter;stroke-miterlimit:4;stroke-opacity:1;stroke-dasharray:none;stroke-dashoffset:0;marker:none;visibility:visible;display:inline;overflow:visible;enable-background:accumulate"
       d="m 30.5,332 10.00023,0"
       id="ref-C-left-7"
       sodipodi:insensitive="true"
       inkscape:connector-curvature="0" />
    <path
       style="opacity:0.5;color:#000000;fill:none;stroke:#00ffcc;stroke-width:1.00000036px;stroke-linecap:square;stroke-linejoin:miter;stroke-miterlimit:4;stroke-opacity:1;stroke-dasharray:none;stroke-dashoffset:0;marker:none;visibility:visible;display:inline;overflow:visible;enable-background:accumulate"
       d="m 30.5,334 10.00023,0"
       id="ref-C-left-8"
       sodipodi:insensitive="true"
       inkscape:connector-curvature="0" />
    <path
       style="fill:none;stroke:#000000;stroke-width:1.00000036px;stroke-linecap:square;stroke-linejoin:miter;stroke-opacity:1;display:inline"
       d="m 30.5,190 10.000237,0"
       id="S-left-1"
       inkscape:connector-curvature="0" />
    <path
       style="fill:none;stroke:#000000;stroke-width:1.00000036px;stroke-linecap:square;stroke-linejoin:miter;stroke-opacity:1"
       d="m 30.5,210 10.000237,0"
       id="S-left-2"
       inkscape:connector-curvature="0" />
    <path
       style="fill:none;stroke:#000000;stroke-width:1.00000036px;stroke-linecap:square;stroke-linejoin:miter;stroke-opacity:1;display:inline"
       d="M 40.50024,200 30.5,200"
       id="I-left-1"
       inkscape:connector-curvature="0" />
    <path
       style="color:#000000;fill:none;stroke:#000000;stroke-width:1.00000036px;stroke-linecap:square;stroke-linejoin:miter;stroke-miterlimit:4;stroke-opacity:1;stroke-dasharray:none;stroke-dashoffset:0;marker:none;visibility:visible;display:inline;overflow:visible;enable-background:accumulate"
       d="m 30.5,67 10.00023,0"
       id="C-left-1"
       inkscape:connector-curvature="0" />
    <path
       style="color:#000000;fill:none;stroke:#000000;stroke-width:1.00000036px;stroke-linecap:square;stroke-linejoin:miter;stroke-miterlimit:4;stroke-opacity:1;stroke-dasharray:none;stroke-dashoffset:0;marker:none;visibility:visible;display:inline;overflow:visible;enable-background:accumulate"
       d="m 30.5,93 10.00023,0"
       id="C-left-2"
       inkscape:connector-curvature="0" />
    <path
       style="color:#000000;fill:none;stroke:#000000;stroke-width:1.00000036px;stroke-linecap:square;stroke-linejoin:miter;stroke-miterlimit:4;stroke-opacity:1;stroke-dasharray:none;stroke-dashoffset:0;marker:none;visibility:visible;display:inline;overflow:visible;enable-background:accumulate"
       d="m 30.5,307 10.00023,0"
       id="C-left-3"
       inkscape:connector-curvature="0" />
    <path
       style="color:#000000;fill:none;stroke:#000000;stroke-width:1.00000036px;stroke-linecap:square;stroke-linejoin:miter;stroke-miterlimit:4;stroke-opacity:1;stroke-dasharray:none;stroke-dashoffset:0;marker:none;visibility:visible;display:inline;overflow:visible;enable-background:accumulate"
       d="m 30.5,333 10.00023,0"
       id="C-left-4"
       inkscape:connector-curvature="0" />
  </g>
  <g
     inkscape:groupmode="layer"
     id="layer1"
     inkscape:label="XX_ELEMENT-001"
     style="display:none">
    <path
       style="fill:none;stroke:#000000;stroke-width:1px;stroke-linecap:butt;stroke-linejoin:miter;stroke-opacity:1"
       d="m -370.01919,181.46995 c -0.78267,29.30859 -19.49487,47.86955 -37.91886,46.38694 -27.64973,-2.22503 -41.40805,-27.55581 -40.43371,-53.52455 1.24254,-33.11661 32.20144,-56.99218 64.29282,-54.70238 38.38427,2.73881 65.76056,38.86386 62.33004,76.3549 -3.9538,43.20978 -44.84575,73.83532 -87.25208,69.38801 -47.7014,-5.00263 -81.37286,-50.34045 -76.00044,-97.3042 5.94032,-51.9282 55.46318,-88.478624 106.70453,-82.251812 55.93782,6.797517 95.22743,60.289242 88.20258,115.580942 -7.59316,59.76484 -64.87114,101.67451 -124.02346,93.89776 -63.43538,-8.33983 -105.86343,-69.00947 -99.37198,-132.09839 5.53645,-53.80756 45.84517,-111.030341 139.85641,-104.652535 64.67183,4.387399 118.00615,49.206675 118.00615,138.500695 1e-5,92.18226 -114.47383,104.14062 -114.47384,160.82648"
       id="path5184"
       inkscape:connector-curvature="0"
       sodipodi:nodetypes="cssssssssssssc" />
    <path
       sodipodi:type="spiral"
       style="fill:none;stroke:#000000;stroke-width:1px;stroke-linecap:butt;stroke-linejoin:miter;stroke-opacity:1;display:inline"
       id="path5184-6"
       sodipodi:cx="150.92642"
       sodipodi:cy="171.85539"
       sodipodi:expansion="0.60000002"
       sodipodi:revolution="4.4000001"
       sodipodi:radius="160.43239"
       sodipodi:argument="-22.776546"
       sodipodi:t0="0.050000001"
       d="m 128.9366,156.91111 c 3.85411,-20.32666 28.50562,-26.86898 45.55551,-19.73155 25.11252,10.51262 32.8771,41.88693 21.22293,65.11417 -14.86198,29.62053 -52.93384,38.51039 -81.18719,23.12051 C 80.734234,207.00652 70.800817,162.782 89.467625,130.08801 110.98179,92.40701 160.89138,81.493335 197.63663,103.12346 c 41.33344,24.33097 53.17545,79.54919 28.81383,120.05805 C 199.51363,267.9725 139.29335,280.69907 95.246181,253.78632 47.161917,224.40692 33.588344,159.43926 62.90671,112.03722 94.596955,60.800309 164.09642,46.412428 214.69982,78.015752 268.96728,111.90739 284.14069,185.75319 250.35461,239.42676 214.35456,296.6175 136.32421,312.55084 79.694405,276.67005 19.675644,238.64202 3.0053179,156.56985 40.903877,97.084098 80.889406,34.322631 166.87617,16.936057 229.12864,56.784403 294.55579,98.664887 312.63975,188.4519 270.9023,253.39097 227.18287,321.41379 133.69914,340.17789 66.145979,296.60594 -4.4085015,251.09814 -23.836881,154.01205 21.520058,83.910859 54.563652,32.840494 115.86227,5.2033751 176.02371,13.398215"
       transform="matrix(-0.90998811,0.41463435,-0.41463435,-0.90998811,893.60453,296.26705)" />
    <path
       style="fill:none;stroke:#00ff00;stroke-width:1.00000036px;stroke-linecap:square;stroke-linejoin:miter;stroke-opacity:1;display:inline"
       d="m -370,30.5 0,150.00024"
       id="I-top-1-9"
       inkscape:connector-curvature="0"
       sodipodi:nodetypes="cc" />
    <path
       style="fill:none;stroke:#00ff00;stroke-width:1.00000036px;stroke-linecap:square;stroke-linejoin:miter;stroke-opacity:1;display:inline"
       d="m -370,369.5 0,-10.00024"
       id="I-bottom-1-4"
       inkscape:connector-curvature="0" />
    <path
       style="fill:none;stroke:#000000;stroke-width:1px;stroke-linecap:butt;stroke-linejoin:miter;stroke-opacity:1;display:inline"
       d="m -768.78698,187.94135 c 4.92093,20.09506 -14.79898,36.26986 -33.2736,36.84435 -27.21098,0.84616 -47.28552,-24.48463 -46.31118,-50.45336 1.24254,-33.11662 32.20144,-56.99219 64.29282,-54.70239 38.38426,2.73881 65.76056,38.86387 62.33004,76.35491 -3.9538,43.20977 -44.84575,73.83531 -87.25209,69.388 -47.70139,-5.00263 -81.37285,-50.34045 -76.00043,-97.30419 5.94031,-51.9282 55.46318,-88.478628 106.70453,-82.251816 55.93782,6.797517 95.22743,60.289246 88.20258,115.580936 -7.59316,59.76484 -64.87114,101.67451 -124.02346,93.89777 -63.43538,-8.33983 -105.86343,-69.00947 -99.37198,-132.09839 5.53645,-53.80757 45.84517,-111.030346 139.85641,-104.652539 64.67182,4.387399 118.00614,49.206679 118.00615,138.500699 0,92.18226 -114.47383,104.14061 -114.47384,160.82647"
       id="path5184-0"
       inkscape:connector-curvature="0"
       sodipodi:nodetypes="cssssssssssssc" />
    <path
       style="fill:none;stroke:#ff0000;stroke-width:1px;stroke-linecap:butt;stroke-linejoin:miter;stroke-opacity:1;display:inline"
       d="m -369.31112,122.44538 c 30.39038,9.61422 50.53377,41.06439 47.56222,73.53948 -3.9538,43.20977 -44.84575,73.83531 -87.25209,69.388 -47.70139,-5.00263 -81.37285,-50.34045 -76.00043,-97.30419 5.94031,-51.9282 55.46318,-88.478628 106.70453,-82.251816 55.93782,6.797517 95.22743,60.289246 88.20258,115.580936 -7.59316,59.76484 -64.87114,101.67451 -124.02346,93.89777 -63.43538,-8.33983 -105.86343,-69.00947 -99.37198,-132.09839 5.53645,-53.80757 44.31673,-111.055314 143.269,-104.342303"
       id="path5184-08"
       inkscape:connector-curvature="0"
       sodipodi:nodetypes="csssssssc" />
    <path
       style="fill:none;stroke:#000000;stroke-width:20;stroke-linecap:butt;stroke-linejoin:miter;stroke-miterlimit:4;stroke-opacity:1;stroke-dasharray:none;display:inline"
       d="m 199.98081,-234.53005 c -0.78267,29.30859 -19.49487,41.86955 -37.91886,40.38694 -27.64973,-2.22503 -41.40805,-22.55581 -40.43371,-48.52455 1.24254,-33.11661 32.20144,-56.99218 64.29282,-54.70238 38.38426,2.73881 60.76056,38.86386 57.33004,76.3549 -3.9538,43.20978 -39.84575,69.83532 -82.25209,65.38801 -47.70139,-5.00263 -81.372847,-46.34045 -76.000427,-93.3042 5.940312,-51.9282 55.463177,-88.47862 106.704527,-82.25181 55.93782,6.79752 95.22743,60.28924 88.20258,115.58094 -7.59316,59.76484 -64.87114,102.6745 -124.02346,94.89776 -74.875593,-9.84387 -110.863431,-70.00947 -104.371978,-133.09839 5.536453,-53.80756 56.585368,-122.04289 149.856408,-108.65253 65.80137,9.44671 121.89614,57.57335 113.66285,151.12116 -8.51759,96.77803 -115.13053,108.46786 -115.13054,159.20601"
       id="path5184-62"
       inkscape:connector-curvature="0"
       sodipodi:nodetypes="cssssssssssssc" />
    <path
       style="fill:none;stroke:#00ff00;stroke-width:20;stroke-linecap:square;stroke-linejoin:miter;stroke-miterlimit:4;stroke-opacity:1;stroke-dasharray:none;display:inline"
       d="m 200,-40.5 0,-10.00024"
       id="I-bottom-1-4-6"
       inkscape:connector-curvature="0" />
    <path
       style="fill:none;stroke:#00ff00;stroke-width:20;stroke-linecap:square;stroke-linejoin:miter;stroke-miterlimit:4;stroke-opacity:1;stroke-dasharray:none;display:inline"
       d="m 200,-379.5 0,140.00024"
       id="I-top-1-9-9"
       inkscape:connector-curvature="0"
       sodipodi:nodetypes="cc" />
    <path
       id="I-bottom-1-7"
       style="fill:none;stroke:#ff0000;stroke-width:20;stroke-linecap:butt;stroke-linejoin:miter;stroke-miterlimit:4;stroke-opacity:1;stroke-dasharray:none;display:inline"
       d="m 200,369.5 -0.0505,-9.81422 C 199.89898,309.13366 295.48869,326.0232 310.02951,208.6658 321.57678,115.46902 267.16803,66.99135 201.36666,57.54464 108.09562,44.15428 57.292321,110.61769 52.510252,168.19717 47.261024,231.40157 82.689013,290.31768 154.88222,299.29556 211.54949,306.34265 270.31252,264.16264 277.90568,204.3978 284.93053,149.1061 247.64092,95.61438 191.7031,88.81686 140.46175,82.59005 90.938885,119.14047 84.998573,171.06867 c -5.37242,46.96375 30.562187,92.82787 76.000427,93.3042 42.63656,0.44696 78.29829,-22.17823 82.25209,-65.38801 3.43052,-37.49104 -18.94578,-73.61609 -57.33004,-76.3549 -32.09138,-2.2898 -61.05028,19.58577 -62.29282,52.70238 -0.97434,25.96874 10.78398,49.29952 38.43371,51.52455 18.42399,1.48261 37.13619,-15.07835 37.91886,-44.38694 L 200,170.50024"
       inkscape:connector-curvature="0"
       sodipodi:nodetypes="ccsssssssssssscc" />
    <path
       style="fill:none;stroke:#00ff00;stroke-width:20;stroke-linecap:butt;stroke-linejoin:miter;stroke-miterlimit:4;stroke-opacity:1;stroke-dasharray:none;display:inline"
       d="m 200,30.5 0,140.00024"
       id="I-top-1-8"
       inkscape:connector-curvature="0"
       sodipodi:nodetypes="cc" />
  </g>
  <g
     inkscape:label="ELEMENT-001"
     id="g4416"
     inkscape:groupmode="layer"
     style="display:inline">
    <path
       style="font-size:medium;font-style:normal;font-variant:normal;font-weight:normal;font-stretch:normal;text-indent:0;text-align:start;text-decoration:none;line-height:normal;letter-spacing:normal;word-spacing:normal;text-transform:none;direction:ltr;block-progression:tb;writing-mode:lr-tb;text-anchor:start;baseline-shift:baseline;color:#000000;fill:#ffffff;fill-opacity:1;stroke:none;stroke-width:1;marker:none;visibility:visible;display:inline;overflow:visible;enable-background:accumulate;font-family:Sans;-inkscape-font-specification:Sans"
       d="m 210,171.5 0,-131 -20,0 0,131 z"
       id="path4438-5"
       inkscape:connector-curvature="0"
       sodipodi:nodetypes="ccccc" />
    <path
       style="font-size:medium;font-style:normal;font-variant:normal;font-weight:normal;font-stretch:normal;text-indent:0;text-align:start;text-decoration:none;line-height:normal;letter-spacing:normal;word-spacing:normal;text-transform:none;direction:ltr;block-progression:tb;writing-mode:lr-tb;text-anchor:start;baseline-shift:baseline;color:#000000;fill:#000000;fill-opacity:1;stroke:none;stroke-width:1;marker:none;visibility:visible;display:inline;overflow:visible;enable-background:accumulate;font-family:Sans;-inkscape-font-specification:Sans"
       d="m 210,127.5 0,-97 -20,0 0,97 z"
       id="path4438-5-1"
       inkscape:connector-curvature="0"
       sodipodi:nodetypes="ccccc" />
    <path
       style="font-size:medium;font-style:normal;font-variant:normal;font-weight:normal;font-stretch:normal;text-indent:0;text-align:start;text-decoration:none;line-height:normal;letter-spacing:normal;word-spacing:normal;text-transform:none;direction:ltr;block-progression:tb;writing-mode:lr-tb;text-anchor:start;baseline-shift:baseline;color:#000000;fill:none;stroke:#000000;stroke-width:1;stroke-miterlimit:4;stroke-dasharray:none;marker:none;visibility:visible;display:inline;overflow:visible;enable-background:accumulate;font-family:Sans;-inkscape-font-specification:Sans"
       d="m 210,171.5 0,-141 m -20,0 0,141"
       id="path4438"
       inkscape:connector-curvature="0"
       sodipodi:nodetypes="cccc" />
    <path
       style="font-size:medium;font-style:normal;font-variant:normal;font-weight:normal;font-stretch:normal;text-indent:0;text-align:start;text-decoration:none;line-height:normal;letter-spacing:normal;word-spacing:normal;text-transform:none;direction:ltr;block-progression:tb;writing-mode:lr-tb;text-anchor:start;baseline-shift:baseline;color:#000000;fill:#ffffff;fill-opacity:1;stroke:none;stroke-width:1;marker:none;visibility:visible;display:inline;overflow:visible;enable-background:accumulate;font-family:Sans;-inkscape-font-specification:Sans"
       d="m 190.00005,170.46875 -0.0313,11.71875 c -0.67181,25.15726 -15.14417,35.6491 -27.09375,34.6875 -11.15228,-0.89745 -17.71888,-5.35364 -22.46875,-12.4375 -4.74987,-7.08386 -7.2077,-17.35261 -6.78125,-28.71875 1.03046,-27.4641 24.43831,-45.06261 51.59375,-43.125 16.21639,1.15708 28.42742,9.0477 36.875,20.96875 8.44758,11.92105 12.69642,28.00948 11.1875,44.5 -1.74273,19.04575 -9.9962,32.54237 -22.625,41.96875 -12.6288,9.42638 -30.04199,14.54838 -49.5625,14.34375 C 122.32829,253.96862 90.220897,213.44958 94.9375,172.21875 100.22477,125.9992 144.67649,93.181562 190.5,98.75 c 50.22964,6.10387 83.86554,54.27268 77.5,104.375 -6.85427,53.94909 -60.89726,92.58955 -111.875,86.25 C 122.48799,285.19193 98.398808,269.79713 82.75,248.21875 67.101192,226.64037 60.018933,198.52877 62.46875,169.03125 64.644298,142.83612 77.538105,114.03608 100.40625,93.75 123.27439,73.463919 155.85847,61.10934 199.9375,67.4375 c 30.90271,4.436517 58.49467,17.905065 77.03125,40.59375 18.53658,22.68868 28.63695,54.91989 23.125,99.40625 -6.93441,55.96689 -31.41384,77.35165 -56.03125,93.40625 -12.30871,8.0273 -24.7808,14.25884 -35.21875,22.625 -10.43795,8.36616 -18.92203,20.42976 -18.90625,36.21875 l 0,0.0313 0,0.0313 0.0625,9.8125 20,-0.125 -0.0625,-9.75 0,-0.0625 c 0.007,-9.44109 3.50023,-14.22571 11.40625,-20.5625 7.92531,-6.35225 20.22499,-12.72974 33.625,-21.46875 26.80002,-17.47801 57.39359,-46.29699 65,-107.6875 C 326.00407,161.19583 314.66882,122.58602 292.4375,95.375 270.20618,68.163977 237.67991,52.666443 202.78125,47.65625 c -6.149,-0.882775 -12.12993,-1.446757 -17.96875,-1.6875 -40.87173,-1.685201 -74.02157,11.818709 -97.6875,32.8125 -27.046782,23.9929 -41.987229,57.2094 -44.59375,88.59375 -2.799411,33.70688 5.230069,66.63726 24.03125,92.5625 18.801181,25.92524 48.53755,44.48644 87.09375,49.28125 62.3568,7.75463 125.8242,-37.98191 134.15625,-103.5625 C 295.49666,145.17517 254.55225,86.366174 192.90625,78.875 136.24706,71.989818 81.655852,112.30065 75.0625,169.9375 c -6.028237,52.69667 33.73273,103.89122 85.84375,104.4375 23.11605,0.24233 44.86909,-5.73558 61.71875,-18.3125 16.84966,-12.57692 28.38268,-31.99222 30.59375,-56.15625 1.9216,-21.00052 -3.30224,-41.70731 -14.78125,-57.90625 -11.47901,-16.19894 -29.64463,-27.76202 -51.8125,-29.34375 -37.02732,-2.64199 -71.54538,23.54338 -73,62.3125 -0.54789,14.6026 2.38936,28.96377 10.1875,40.59375 7.79814,11.62998 20.94005,19.92242 37.4375,21.25 24.8984,2.00362 47.82522,-20.60258 48.71875,-54.0625 l 0,-0.125 0,-0.125 0.0313,-11.96875 z"
       id="path4436-9"
       inkscape:connector-curvature="0"
       sodipodi:nodetypes="ccsssssssssssssssssssscccccccsssssssssssssssssssssccccc" />
    <path
       style="font-size:medium;font-style:normal;font-variant:normal;font-weight:normal;font-stretch:normal;text-indent:0;text-align:start;text-decoration:none;line-height:normal;letter-spacing:normal;word-spacing:normal;text-transform:none;direction:ltr;block-progression:tb;writing-mode:lr-tb;text-anchor:start;baseline-shift:baseline;color:#000000;fill:none;stroke:#000000;stroke-width:1;stroke-miterlimit:4;stroke-dasharray:none;marker:none;visibility:visible;display:inline;overflow:visible;enable-background:accumulate;font-family:Sans;-inkscape-font-specification:Sans"
       d="m 190.00005,170.46875 -0.0313,11.71875 c -0.67181,25.15726 -15.14417,35.6491 -27.09375,34.6875 -11.15228,-0.89745 -17.71888,-5.35364 -22.46875,-12.4375 -4.74987,-7.08386 -7.2077,-17.35261 -6.78125,-28.71875 1.03046,-27.4641 24.43831,-45.06261 51.59375,-43.125 16.21639,1.15708 28.42742,9.0477 36.875,20.96875 8.44758,11.92105 12.69642,28.00948 11.1875,44.5 -1.74273,19.04575 -9.9962,32.54237 -22.625,41.96875 -12.6288,9.42638 -30.04199,14.54838 -49.5625,14.34375 C 122.32829,253.96862 90.220897,213.44958 94.9375,172.21875 100.22477,125.9992 144.67649,93.181562 190.5,98.75 c 50.22964,6.10387 83.86554,54.27268 77.5,104.375 -6.85427,53.94909 -60.89726,92.58955 -111.875,86.25 C 122.48799,285.19193 98.398808,269.79713 82.75,248.21875 67.101192,226.64037 60.018933,198.52877 62.46875,169.03125 64.644298,142.83612 77.538105,114.03608 100.40625,93.75 123.27439,73.463919 155.85847,61.10934 199.9375,67.4375 c 30.90271,4.436517 58.49467,17.905065 77.03125,40.59375 18.53658,22.68868 28.63695,54.91989 23.125,99.40625 -6.93441,55.96689 -31.41384,77.35165 -56.03125,93.40625 -12.30871,8.0273 -24.7808,14.25884 -35.21875,22.625 -10.43795,8.36616 -18.92203,20.42976 -18.90625,36.21875 l 0,0.0313 0,0.0313 0.0625,9.8125 m 20,-0.125 -0.0625,-9.75 0,-0.0625 c 0.007,-9.44109 3.50023,-14.22571 11.40625,-20.5625 7.92531,-6.35225 20.22499,-12.72974 33.625,-21.46875 26.80002,-17.47801 57.39359,-46.29699 65,-107.6875 C 326.00407,161.19583 314.66882,122.58602 292.4375,95.375 270.20618,68.163977 237.67991,52.666443 202.78125,47.65625 c -6.149,-0.882775 -12.12993,-1.446757 -17.96875,-1.6875 -40.87173,-1.685201 -74.02157,11.818709 -97.6875,32.8125 -27.046782,23.9929 -41.987229,57.2094 -44.59375,88.59375 -2.799411,33.70688 5.230069,66.63726 24.03125,92.5625 18.801181,25.92524 48.53755,44.48644 87.09375,49.28125 62.3568,7.75463 125.8242,-37.98191 134.15625,-103.5625 C 295.49666,145.17517 254.55225,86.366174 192.90625,78.875 136.24706,71.989818 81.655852,112.30065 75.0625,169.9375 c -6.028237,52.69667 33.73273,103.89122 85.84375,104.4375 23.11605,0.24233 44.86909,-5.73558 61.71875,-18.3125 16.84966,-12.57692 28.38268,-31.99222 30.59375,-56.15625 1.9216,-21.00052 -3.30224,-41.70731 -14.78125,-57.90625 -11.47901,-16.19894 -29.64463,-27.76202 -51.8125,-29.34375 -37.02732,-2.64199 -71.54538,23.54338 -73,62.3125 -0.54789,14.6026 2.38936,28.96377 10.1875,40.59375 7.79814,11.62998 20.94005,19.92242 37.4375,21.25 24.8984,2.00362 47.82522,-20.60258 48.71875,-54.0625 l 0,-0.125 0,-0.125 0.0313,-11.96875"
       id="path4436"
       inkscape:connector-curvature="0"
       sodipodi:nodetypes="ccsssssssssssssssssssscccccccssssssssssssssssssssscccc" />
  </g>
  <g
     inkscape:groupmode="layer"
     id="g4524"
     inkscape:label="XX_ELEMENT-002"
     zpos="-5000"
     style="display:none">
    <path
       sodipodi:nodetypes="ccccc"
       inkscape:connector-curvature="0"
       id="path4526"
       d="m 210,171.5 0,-141 -20,0 0,141 z"
       style="font-size:medium;font-style:normal;font-variant:normal;font-weight:normal;font-stretch:normal;text-indent:0;text-align:start;text-decoration:none;line-height:normal;letter-spacing:normal;word-spacing:normal;text-transform:none;direction:ltr;block-progression:tb;writing-mode:lr-tb;text-anchor:start;baseline-shift:baseline;color:#000000;fill:#ffffff;fill-opacity:1;stroke:none;stroke-width:1;marker:none;visibility:visible;display:inline;overflow:visible;enable-background:accumulate;font-family:Sans;-inkscape-font-specification:Sans" />
    <path
       sodipodi:nodetypes="ccsssssssssssssssssssscccccccsssssssssssssssssssssccccc"
       inkscape:connector-curvature="0"
       id="path4532"
       d="m 190.00005,170.46875 -0.0313,11.71875 c -0.67181,25.15726 -15.14417,35.6491 -27.09375,34.6875 -11.15228,-0.89745 -17.71888,-5.35364 -22.46875,-12.4375 -4.74987,-7.08386 -7.2077,-17.35261 -6.78125,-28.71875 1.03046,-27.4641 24.43831,-45.06261 51.59375,-43.125 16.21639,1.15708 28.42742,9.0477 36.875,20.96875 8.44758,11.92105 12.69642,28.00948 11.1875,44.5 -1.74273,19.04575 -9.9962,32.54237 -22.625,41.96875 -12.6288,9.42638 -30.04199,14.54838 -49.5625,14.34375 C 122.32829,253.96862 90.220897,213.44958 94.9375,172.21875 100.22477,125.9992 144.67649,93.181562 190.5,98.75 c 50.22964,6.10387 83.86554,54.27268 77.5,104.375 -6.85427,53.94909 -60.89726,92.58955 -111.875,86.25 C 122.48799,285.19193 98.398808,269.79713 82.75,248.21875 67.101192,226.64037 60.018933,198.52877 62.46875,169.03125 64.644298,142.83612 77.538105,114.03608 100.40625,93.75 123.27439,73.463919 155.85847,61.10934 199.9375,67.4375 c 30.90271,4.436517 58.49467,17.905065 77.03125,40.59375 18.53658,22.68868 28.63695,54.91989 23.125,99.40625 -6.93441,55.96689 -31.41384,77.35165 -56.03125,93.40625 -12.30871,8.0273 -24.7808,14.25884 -35.21875,22.625 -10.43795,8.36616 -18.92203,20.42976 -18.90625,36.21875 l 0,0.0313 0,0.0313 0.0625,9.8125 20,-0.125 -0.0625,-9.75 0,-0.0625 c 0.007,-9.44109 3.50023,-14.22571 11.40625,-20.5625 7.92531,-6.35225 20.22499,-12.72974 33.625,-21.46875 26.80002,-17.47801 57.39359,-46.29699 65,-107.6875 C 326.00407,161.19583 314.66882,122.58602 292.4375,95.375 270.20618,68.163977 237.67991,52.666443 202.78125,47.65625 c -6.149,-0.882775 -12.12993,-1.446757 -17.96875,-1.6875 -40.87173,-1.685201 -74.02157,11.818709 -97.6875,32.8125 -27.046782,23.9929 -41.987229,57.2094 -44.59375,88.59375 -2.799411,33.70688 5.230069,66.63726 24.03125,92.5625 18.801181,25.92524 48.53755,44.48644 87.09375,49.28125 62.3568,7.75463 125.8242,-37.98191 134.15625,-103.5625 C 295.49666,145.17517 254.55225,86.366174 192.90625,78.875 136.24706,71.989818 81.655852,112.30065 75.0625,169.9375 c -6.028237,52.69667 33.73273,103.89122 85.84375,104.4375 23.11605,0.24233 44.86909,-5.73558 61.71875,-18.3125 16.84966,-12.57692 28.38268,-31.99222 30.59375,-56.15625 1.9216,-21.00052 -3.30224,-41.70731 -14.78125,-57.90625 -11.47901,-16.19894 -29.64463,-27.76202 -51.8125,-29.34375 -37.02732,-2.64199 -71.54538,23.54338 -73,62.3125 -0.54789,14.6026 2.38936,28.96377 10.1875,40.59375 7.79814,11.62998 20.94005,19.92242 37.4375,21.25 24.8984,2.00362 47.82522,-20.60258 48.71875,-54.0625 l 0,-0.125 0,-0.125 0.0313,-11.96875 z"
       style="font-size:medium;font-style:normal;font-variant:normal;font-weight:normal;font-stretch:normal;text-indent:0;text-align:start;text-decoration:none;line-height:normal;letter-spacing:normal;word-spacing:normal;text-transform:none;direction:ltr;block-progression:tb;writing-mode:lr-tb;text-anchor:start;baseline-shift:baseline;color:#000000;fill:#ffffff;fill-opacity:1;stroke:none;stroke-width:1;marker:none;visibility:visible;display:inline;overflow:visible;enable-background:accumulate;font-family:Sans;-inkscape-font-specification:Sans" />
    <path
       sodipodi:nodetypes="ccccc"
       inkscape:connector-curvature="0"
       id="path4528-2"
       d="m 210,82.5 0,-52 -20,0 0,48 z"
       style="font-size:medium;font-style:normal;font-variant:normal;font-weight:normal;font-stretch:normal;text-indent:0;text-align:start;text-decoration:none;line-height:normal;letter-spacing:normal;word-spacing:normal;text-transform:none;direction:ltr;block-progression:tb;writing-mode:lr-tb;text-anchor:start;baseline-shift:baseline;color:#000000;fill:#000000;stroke:none;stroke-width:1;marker:none;visibility:visible;display:inline;overflow:visible;enable-background:accumulate;font-family:Sans;-inkscape-font-specification:Sans" />
    <path
       sodipodi:nodetypes="cccc"
       inkscape:connector-curvature="0"
       id="path4528"
       d="M 210,82.312661 210,30.5 m -20,0 0,48"
       style="font-size:medium;font-style:normal;font-variant:normal;font-weight:normal;font-stretch:normal;text-indent:0;text-align:start;text-decoration:none;line-height:normal;letter-spacing:normal;word-spacing:normal;text-transform:none;direction:ltr;block-progression:tb;writing-mode:lr-tb;text-anchor:start;baseline-shift:baseline;color:#000000;fill:none;stroke:#000000;stroke-width:1;stroke-miterlimit:4;stroke-dasharray:none;marker:none;visibility:visible;display:inline;overflow:visible;enable-background:accumulate;font-family:Sans;-inkscape-font-specification:Sans" />
    <path
       sodipodi:nodetypes="csssscccccccssssc"
       inkscape:connector-curvature="0"
       id="path4534-9"
       d="m 210.25216,69.282091 c 26.69275,5.745113 50.26925,18.617699 66.71659,38.749159 18.53658,22.68868 28.63695,54.91989 23.125,99.40625 -6.93441,55.96689 -31.41384,77.35165 -56.03125,93.40625 -12.30871,8.0273 -24.7808,14.25884 -35.21875,22.625 -10.43795,8.36616 -18.92203,20.42976 -18.90625,36.21875 l 0,0.0313 0,0.0313 0.0625,9.8125 m 20,-0.125 -0.0625,-9.75 0,-0.0625 c 0.007,-9.44109 3.50023,-14.22571 11.40625,-20.5625 7.92531,-6.35225 20.22499,-12.72974 33.625,-21.46875 26.80002,-17.47801 57.39359,-46.29699 65,-107.6875 C 326.00407,161.19583 314.66882,122.58602 292.4375,95.375 271.77864,70.088658 242.22968,54.917378 210.14816,48.877225"
       style="font-size:medium;font-style:normal;font-variant:normal;font-weight:normal;font-stretch:normal;text-indent:0;text-align:start;text-decoration:none;line-height:normal;letter-spacing:normal;word-spacing:normal;text-transform:none;direction:ltr;block-progression:tb;writing-mode:lr-tb;text-anchor:start;baseline-shift:baseline;color:#000000;fill:none;stroke:#000000;stroke-width:1;stroke-miterlimit:4;stroke-dasharray:none;marker:none;visibility:visible;display:inline;overflow:visible;enable-background:accumulate;font-family:Sans;-inkscape-font-specification:Sans" />
    <path
       sodipodi:nodetypes="cccc"
       inkscape:connector-curvature="0"
       id="path4528-5"
       d="m 210,118.21695 0,-14.38514 m -20,-4.778798 0,13.567318"
       style="font-size:medium;font-style:normal;font-variant:normal;font-weight:normal;font-stretch:normal;text-indent:0;text-align:start;text-decoration:none;line-height:normal;letter-spacing:normal;word-spacing:normal;text-transform:none;direction:ltr;block-progression:tb;writing-mode:lr-tb;text-anchor:start;baseline-shift:baseline;color:#000000;fill:none;stroke:#ff0000;stroke-width:1;stroke-miterlimit:4;stroke-dasharray:none;marker:none;visibility:visible;display:inline;overflow:visible;enable-background:accumulate;font-family:Sans;-inkscape-font-specification:Sans" />
    <path
       id="path4528-6"
       style="font-size:medium;font-style:normal;font-variant:normal;font-weight:normal;font-stretch:normal;text-indent:0;text-align:start;text-decoration:none;line-height:normal;letter-spacing:normal;word-spacing:normal;text-transform:none;direction:ltr;block-progression:tb;writing-mode:lr-tb;text-anchor:start;baseline-shift:baseline;color:#000000;fill:none;stroke:#ff0000;stroke-width:1;stroke-miterlimit:4;stroke-dasharray:none;marker:none;visibility:visible;display:inline;overflow:visible;enable-background:accumulate;font-family:Sans;-inkscape-font-specification:Sans"
       d="m 190,133.5 2e-5,35.98437 -0.0313,12.70313 c -0.67181,25.15726 -15.14417,35.6491 -27.09375,34.6875 -11.15228,-0.89745 -17.71888,-5.35364 -22.46875,-12.4375 -4.74987,-7.08386 -7.2077,-17.35261 -6.78125,-28.71875 1.03046,-27.4641 24.43831,-45.06261 51.59375,-43.125 16.21639,1.15708 28.42742,9.0477 36.875,20.96875 8.44758,11.92105 12.69642,28.00948 11.1875,44.5 -1.74273,19.04575 -9.9962,32.54237 -22.625,41.96875 -12.6288,9.42638 -30.04199,14.54838 -49.5625,14.34375 C 122.32829,253.96862 90.220897,213.44958 94.9375,172.21875 100.22477,125.9992 144.67649,93.181562 190.5,98.75 c 50.22964,6.10387 83.86554,54.27268 77.5,104.375 -6.85427,53.94909 -60.89726,92.58955 -111.875,86.25 C 122.48799,285.19193 98.398808,269.79713 82.75,248.21875 67.101192,226.64037 60.018933,198.52877 62.46875,169.03125 64.644298,142.83612 77.538108,114.03608 100.40625,93.75 121.4625,75.071228 150.75605,63.116891 189.67567,66.279827 m 0.12546,-20.029356 c -1.67463,-0.119694 -3.33731,-0.213635 -4.98863,-0.281721 -40.87173,-1.685201 -74.02157,11.818709 -97.6875,32.8125 -27.046782,23.9929 -41.987229,57.2094 -44.59375,88.59375 -2.799411,33.70688 5.230069,66.63726 24.03125,92.5625 18.801181,25.92524 48.53755,44.48644 87.09375,49.28125 62.3568,7.75463 125.8242,-37.98191 134.15625,-103.5625 C 295.49666,145.17517 254.55225,86.366174 192.90625,78.875 136.24706,71.989818 81.655852,112.30065 75.0625,169.9375 c -6.028237,52.69667 33.73273,103.89122 85.84375,104.4375 23.11605,0.24233 44.86909,-5.73558 61.71875,-18.3125 16.84966,-12.57692 28.38268,-31.99222 30.59375,-56.15625 1.9216,-21.00052 -3.30224,-41.70731 -14.78125,-57.90625 -11.47901,-16.19894 -29.64463,-27.76202 -51.8125,-29.34375 -37.02732,-2.64199 -71.54538,23.54338 -73,62.3125 -0.54789,14.6026 2.38936,28.96377 10.1875,40.59375 7.79814,11.62998 20.94005,19.92242 37.4375,21.25 24.8984,2.00362 47.82522,-20.60258 48.71875,-54.0625 l 0,-0.125 0,-0.125 0.0313,-13.07805 L 210,141.5"
       inkscape:connector-curvature="0"
       sodipodi:nodetypes="cccsssssssssssssssccssssssssssssssssccccc" />
  </g>
  <g
     inkscape:groupmode="layer"
     id="layer3"
     inkscape:label="XX_ELEMENT-003"
     style="display:none">
    <path
       sodipodi:type="spiral"
       style="fill:none;stroke:#000000;stroke-width:3.56741548;stroke-linecap:butt;stroke-linejoin:miter;stroke-miterlimit:4;stroke-opacity:1;stroke-dasharray:none;display:inline"
       id="path3602-3"
       sodipodi:cx="208.46796"
       sodipodi:cy="196.38013"
       sodipodi:expansion="1.92"
       sodipodi:revolution="8.5"
       sodipodi:radius="101.1295"
       sodipodi:argument="-26.965338"
       sodipodi:t0="0.36000001"
       d="m 210.10266,182.25179 c 8.49978,0.13312 14.98513,7.72297 14.79295,16.02908 -0.227,9.81101 -9.01003,17.27579 -18.61359,16.99177 -11.21204,-0.33158 -19.72261,-10.39175 -19.33602,-21.38269 0.44679,-12.70238 11.86758,-22.32473 24.33531,-21.82491 14.28158,0.57254 25.08136,13.437 24.45772,27.47046 -0.70878,15.9492 -15.09952,27.99174 -30.78721,27.23376 -17.70485,-0.85544 -31.05517,-16.85469 -30.15241,-34.28472 1.01247,-19.54812 18.70209,-34.27097 37.96216,-33.21303 21.47868,1.17981 37.63855,20.64132 36.41509,41.81877 -1.35741,23.49617 -22.67201,41.15729 -45.85385,39.75803 -25.60028,-1.54523 -44.82662,-24.7938 -43.24133,-50.06669 1.74323,-27.79069 27.00636,-48.64603 54.45665,-46.86451 30.06712,1.95136 52.615,29.30935 50.6271,59.02311 -2.16957,32.42927 -31.70246,56.73303 -63.76548,54.52865 -34.87688,-2.39784 -60.99965,-34.18542 -58.56872,-68.68319 2.63612,-37.4097 36.75793,-65.41443 73.7757,-62.74692 40.02747,2.88438 69.97692,39.41973 67.06284,79.04249 -3.1426,42.72995 -42.17056,74.68671 -84.48306,71.5161 -45.51692,-3.41072 -79.54341,-45.01016 -76.10634,-90.09692 3.68874,-48.38816 47.93829,-84.54664 95.88362,-80.83321 51.34344,3.97662 89.696,50.95474 85.69634,101.84272 -3.15472,40.13786 -31.66399,74.78464 -70.01785,86.55376"
       transform="matrix(0.11064461,1.3969986,-1.3974005,0.11067644,881.28865,-132.32057)" />
    <path
       style="font-size:medium;font-style:normal;font-variant:normal;font-weight:normal;font-stretch:normal;text-indent:0;text-align:start;text-decoration:none;line-height:normal;letter-spacing:normal;word-spacing:normal;text-transform:none;direction:ltr;block-progression:tb;writing-mode:lr-tb;text-anchor:start;baseline-shift:baseline;color:#000000;fill:#ffffff;fill-opacity:1;stroke:#000000;stroke-width:1;stroke-miterlimit:4;stroke-dasharray:none;marker:none;visibility:visible;display:inline;overflow:visible;enable-background:accumulate;font-family:Sans;-inkscape-font-specification:Sans"
       d="m 189.9375,523.5 c -64.42324,-2.6617 -121.987485,47.82424 -124.59375,112.875 -2.424218,60.50673 45.06685,114.54332 106.21875,116.90625 56.74186,2.19254 107.39811,-42.34868 109.53125,-99.6875 1.97417,-53.0655 -39.73037,-100.4343 -93.40625,-102.34375 -49.53716,-1.76223 -93.738729,37.20881 -95.4375,87.3125 -1.563104,46.10215 34.72807,87.22398 81.40625,88.71875 42.81189,1.37097 81.0092,-32.37057 82.3125,-75.71875 1.19119,-39.61954 -30.08825,-74.94345 -70.25,-76.0625 -36.56901,-1.01892 -69.1469,27.8934 -70.09375,64.96875 -0.85864,33.62077 25.74522,63.53011 59.875,64.3125 30.81171,0.70634 58.21418,-23.68016 58.84375,-54.96875 0.56561,-28.10911 -21.75792,-53.10885 -50.34375,-53.59375 -25.54349,-0.4333 -48.24228,19.88337 -48.59375,45.875 -0.31223,23.08827 18.12237,43.58594 41.65625,43.8125 20.76819,0.19993 39.20002,-16.40506 39.3125,-37.59375 0.0985,-18.56231 -14.80287,-35.02379 -33.78125,-35.03125 -16.49011,-0.006 -31.10973,13.26864 -31,30.15625 0.0369,5.68483 1.32114,11.69006 4.90625,16.71875 3.58511,5.02869 9.49257,8.95064 18.09375,10.40625 l 0.65625,-3.96875 c -7.75795,-1.3129 -12.49733,-4.5821 -15.46875,-8.75 -2.97142,-4.1679 -4.15444,-9.34956 -4.1875,-14.4375 -0.0945,-14.54999 12.65741,-26.13058 27,-26.125 16.65542,0.007 29.86834,14.62208 29.78125,31.03125 -0.10018,18.87057 -16.66892,33.77292 -35.28125,33.59375 -21.2226,-0.2043 -37.97051,-18.8536 -37.6875,-39.78125 0.32027,-23.68395 21.1503,-42.30287 44.53125,-41.90625 26.28389,0.44586 46.92826,23.55753 46.40625,49.5 -0.58331,28.98931 -26.10629,51.71914 -54.75,51.0625 -31.83542,-0.72979 -56.77193,-28.76958 -55.96875,-60.21875 0.88831,-34.78297 31.57226,-62.02088 65.96875,-61.0625 37.87369,1.05529 67.50077,34.4937 66.375,71.9375 -1.23456,41.06158 -37.5207,73.14502 -78.15625,71.84375 -44.39544,-1.42167 -79.051716,-40.67086 -77.5625,-84.59375 1.621409,-47.82199 43.92369,-85.12219 91.28125,-83.4375 51.39766,1.82841 91.45549,47.3043 89.5625,98.1875 -2.04842,55.06134 -50.81556,97.98322 -105.375,95.875 -58.8776,-2.27505 -104.711678,-54.45944 -102.375,-112.78125 2.515163,-62.77694 58.16789,-111.63393 120.40625,-109.0625 66.94934,2.76607 110.97554,55.07312 111,121.375 C 300.75,730.93332 190,759.64906 190,809.5 l 0,10 20,-0.25173 0,-9.74827 c 0,-42.30197 97.13594,-83.84797 96.15331,-157.09452 C 305.70853,576.46966 258.91374,526.34981 189.9375,523.5 z"
       inkscape:connector-curvature="0"
       sodipodi:nodetypes="sssssssssssssssscssccsscssssssssssssssssccccscs"
       id="path628" />
    <path
       id="I-bottom-1-1-5"
       style="fill:none;stroke:#000000;stroke-width:4;stroke-linecap:butt;stroke-linejoin:miter;stroke-miterlimit:4;stroke-opacity:1;stroke-dasharray:none;display:inline"
       d="m -150,369.5 0,-10.00024 c 0,-49.34025 110.71942,-46.74521 109.75565,-159.66835 -0.02484,-67.32966 -51.94471,-121.54027 -119.91281,-124.348427 -63.3308,-2.616568 -119.95099,47.065637 -122.5117,110.979487 -2.38045,59.41427 44.29004,112.51667 104.30479,114.83566 55.65065,2.15038 105.37503,-41.57503 107.46581,-97.77511 1.93358,-51.97435 -38.96138,-98.39814 -91.49815,-100.26707 -48.44736,-1.72346 -91.70688,36.41122 -93.36697,85.37406 -1.52616,45.01252 33.96045,85.18976 79.49726,86.64798 41.72372,1.33612 78.95185,-31.57598 80.22078,-73.78086 1.15848,-38.53167 -29.28913,-72.89704 -68.30685,-73.98421 -35.48275,-0.98865 -67.1157,27.07128 -68.03328,63.00044 -0.83091,32.53497 24.94947,61.52597 57.93207,62.28206 29.72771,0.68149 56.20464,-22.89922 56.81108,-53.03817 0.54381,-27.02579 -20.94366,-51.0831 -48.37852,-51.54848 -24.46222,-0.41496 -46.22564,19.06218 -46.56151,43.89997 -0.29762,22.00796 17.2742,41.57573 39.65244,41.79116 19.69026,0.18955 37.18632,-15.56272 37.29265,-35.59235 0.0928,-17.48574 -13.94381,-33.01168 -31.76071,-33.01868 -15.41635,-0.006 -29.11577,12.40381 -29.01363,28.12261 0.07,10.77277 4.96849,22.3953 21.32762,25.16381 49.11983,4.61419 -0.62514,-65.09927 4.19533,-97.15353 C -166.78957,94.164476 -150,82.170818 -150,41.412249 L -150,30.5"
       inkscape:connector-curvature="0"
       sodipodi:nodetypes="cccsssssssssssssssscscacc" />
    <path
       style="font-size:medium;font-style:normal;font-variant:normal;font-weight:normal;font-stretch:normal;text-indent:0;text-align:start;text-decoration:none;line-height:normal;letter-spacing:normal;word-spacing:normal;text-transform:none;direction:ltr;block-progression:tb;writing-mode:lr-tb;text-anchor:start;baseline-shift:baseline;color:#000000;fill:#ff0000;fill-opacity:1;stroke:#000000;stroke-width:1;stroke-miterlimit:4;stroke-dasharray:none;marker:none;visibility:visible;display:inline;overflow:visible;enable-background:accumulate;font-family:Sans;-inkscape-font-specification:Sans"
       d="m 190,480.5 0,10.90625 c 0,36.22353 -22.48362,63.92441 -8.59375,109.9375 3.24454,11.06092 7.46797,22.63131 10.28125,32.9375 2.81328,10.30619 4.07751,19.32521 2.0625,24.875 -1.0075,2.77489 -2.69645,4.74169 -5.59375,6.0625 -2.86786,1.30739 -7.07788,1.90246 -12.90625,1.375 -7.75795,-1.3129 -12.49733,-4.5821 -15.46875,-8.75 -2.97142,-4.1679 -4.15444,-9.34956 -4.1875,-14.4375 l -4,0.0313 c 0.0369,5.68483 1.32114,11.69006 4.90625,16.71875 3.58511,5.02869 9.49257,8.95064 18.09375,10.40625 l 0.0625,0 0.0625,0 c 6.35778,0.59723 11.32206,0.0462 15.125,-1.6875 3.80294,-1.73367 6.34455,-4.73103 7.65625,-8.34375 2.6234,-7.22544 0.94293,-16.76032 -1.9375,-27.3125 -2.88043,-10.55218 -7.12061,-22.11858 -10.3125,-33 -8.97128,-52.19978 22.60567,-75.36763 24.75,-108.81255 L 210,480.5 z"
       id="I-bottom-1-1"
       inkscape:connector-curvature="0"
       sodipodi:nodetypes="cccssscsccscccssscccc" />
    <path
       id="path4487-68"
       style="font-size:medium;font-style:normal;font-variant:normal;font-weight:normal;font-stretch:normal;text-indent:0;text-align:start;text-decoration:none;line-height:normal;letter-spacing:normal;word-spacing:normal;text-transform:none;direction:ltr;block-progression:tb;writing-mode:lr-tb;text-anchor:start;baseline-shift:baseline;color:#000000;fill:none;stroke:#ffff00;stroke-width:1;stroke-miterlimit:4;stroke-dasharray:none;marker:none;visibility:visible;display:inline;overflow:visible;enable-background:accumulate;font-family:Sans;-inkscape-font-specification:Sans"
       d="m 190,30.5 0,10.90625 c 0,36.223534 -22.48362,63.92441 -8.59375,109.9375 3.24454,11.06092 7.46797,22.63131 10.28125,32.9375 2.81328,10.30619 4.07751,19.32521 2.0625,24.875 -1.0075,2.77489 -2.69645,4.74169 -5.59375,6.0625 -2.86786,1.30739 -7.07788,1.90246 -12.90625,1.375 -7.75795,-1.3129 -12.49733,-4.5821 -15.46875,-8.75 -2.97142,-4.1679 -4.15444,-9.34956 -4.1875,-14.4375 -0.0945,-14.54999 12.65741,-26.13058 27,-26.125 16.65542,0.007 29.86834,14.62208 29.78125,31.03125 -0.10018,18.87057 -16.66892,33.77292 -35.28125,33.59375 -21.2226,-0.2043 -37.97051,-18.8536 -37.6875,-39.78125 0.32027,-23.68395 21.1503,-42.30287 44.53125,-41.90625 26.28389,0.44586 46.92826,23.55753 46.40625,49.5 -0.58331,28.98931 -26.10629,51.71914 -54.75,51.0625 -31.83542,-0.72979 -56.77193,-28.76958 -55.96875,-60.21875 0.88831,-34.78297 31.57226,-62.02088 65.96875,-61.0625 37.87369,1.05529 67.50077,34.4937 66.375,71.9375 -1.23456,41.06158 -37.5207,73.14502 -78.15625,71.84375 -44.39544,-1.42167 -79.051716,-40.67086 -77.5625,-84.59375 1.621409,-47.82199 43.92369,-85.12219 91.28125,-83.4375 51.39766,1.82841 91.45549,47.3043 89.5625,98.1875 -2.04842,55.06134 -50.81556,97.98322 -105.375,95.875 C 112.84115,297.03745 67.007072,244.85306 69.34375,186.53125 71.858913,123.75431 127.51164,74.897317 189.75,77.46875 c 66.94934,2.766066 110.97554,55.07312 111,121.375 C 300.75,280.93332 190,309.64906 190,359.5 l 0,10 m 20,-0.25173 0,-9.74827 c 0,-42.30197 97.13594,-83.84797 96.15331,-157.09452 C 305.70853,126.46966 258.91374,76.349809 189.9375,73.5 125.51426,70.838297 67.950015,121.32424 65.34375,186.375 c -2.424218,60.50673 45.06685,114.54332 106.21875,116.90625 56.74186,2.19254 107.39811,-42.34868 109.53125,-99.6875 1.97417,-53.0655 -39.73037,-100.4343 -93.40625,-102.34375 -49.53716,-1.762228 -93.738729,37.20881 -95.4375,87.3125 -1.563104,46.10215 34.72807,87.22398 81.40625,88.71875 42.81189,1.37097 81.0092,-32.37057 82.3125,-75.71875 1.19119,-39.61954 -30.08825,-74.94345 -70.25,-76.0625 -36.56901,-1.01892 -69.1469,27.8934 -70.09375,64.96875 -0.85864,33.62077 25.74522,63.53011 59.875,64.3125 30.81171,0.70634 58.21418,-23.68016 58.84375,-54.96875 0.56561,-28.10911 -21.75792,-53.10885 -50.34375,-53.59375 -25.54349,-0.4333 -48.24228,19.88337 -48.59375,45.875 -0.31223,23.08827 18.12237,43.58594 41.65625,43.8125 20.76819,0.19993 39.20002,-16.40506 39.3125,-37.59375 0.0985,-18.56231 -14.80287,-35.02379 -33.78125,-35.03125 -16.49011,-0.006 -31.10973,13.26864 -31,30.15627 0.0369,5.68486 1.32114,11.69009 4.90625,16.71878 3.58511,5.02869 9.49257,8.95064 18.09375,10.40625 l 0.0625,0 0.0625,0 c 6.35778,0.59723 11.32206,0.0462 15.125,-1.6875 3.80294,-1.73367 6.34455,-4.73103 7.65625,-8.34375 2.6234,-7.22544 0.94293,-16.76032 -1.9375,-27.3125 -2.88043,-10.55218 -7.12061,-22.11858 -10.3125,-33 C 176.27872,98.019021 207.85567,74.851166 210,41.40625 L 210,30.5"
       inkscape:connector-curvature="0"
       sodipodi:nodetypes="cscssscsccsssssssssssssssscsccscssssssssssssssssccscccsssccc" />
    <path
       id="path4487-4-5"
       style="font-size:medium;font-style:normal;font-variant:normal;font-weight:normal;font-stretch:normal;text-indent:0;text-align:start;text-decoration:none;line-height:normal;letter-spacing:normal;word-spacing:normal;text-transform:none;direction:ltr;block-progression:tb;writing-mode:lr-tb;text-anchor:start;baseline-shift:baseline;color:#000000;fill:none;stroke:#008080;stroke-width:1;stroke-miterlimit:4;stroke-dasharray:none;marker:none;visibility:visible;display:inline;overflow:visible;enable-background:accumulate;font-family:Sans;-inkscape-font-specification:Sans"
       d="m 190,30.5 0,10.90625 c 0,36.223534 -22.48362,63.92441 -8.59375,109.9375 3.24454,11.06092 7.46797,22.63131 10.28125,32.9375 2.81328,10.30619 4.07751,19.32521 2.0625,24.875 -1.0075,2.77489 -2.69645,4.74169 -5.59375,6.0625 -2.86786,1.30739 -7.07788,1.90246 -12.90625,1.375 -7.75795,-1.3129 -12.49733,-4.5821 -15.46875,-8.75 -2.97142,-4.1679 -4.15444,-9.34956 -4.1875,-14.4375 -0.0945,-14.54999 12.65741,-26.13058 27,-26.125 1.28708,5.4e-4 2.5536,0.0883 3.79501,0.25742 m -1.37415,-4.16662 c -0.79886,-0.0598 -1.6061,-0.0905 -2.42086,-0.0908 -16.49011,-0.006 -31.10973,13.26864 -31,30.15627 0.0369,5.68486 1.32114,11.69009 4.90625,16.71878 3.58511,5.02869 9.49257,8.95064 18.09375,10.40625 l 0.0625,0 0.0625,0 c 6.35778,0.59723 11.32206,0.0462 15.125,-1.6875 3.80294,-1.73367 6.34455,-4.73103 7.65625,-8.34375 2.6234,-7.22544 0.94293,-16.76032 -1.9375,-27.3125 -2.88043,-10.55218 -7.12061,-22.11858 -10.3125,-33 C 176.27872,98.019021 207.85567,74.851166 210,41.40625 L 210,30.5"
       inkscape:connector-curvature="0"
       sodipodi:nodetypes="cscssscsccccccscccsssccc" />
    <path
       id="path4487-6-1"
       style="font-size:medium;font-style:normal;font-variant:normal;font-weight:normal;font-stretch:normal;text-indent:0;text-align:start;text-decoration:none;line-height:normal;letter-spacing:normal;word-spacing:normal;text-transform:none;direction:ltr;block-progression:tb;writing-mode:lr-tb;text-anchor:start;baseline-shift:baseline;color:#000000;fill:none;stroke:#00ff00;stroke-width:1;stroke-miterlimit:4;stroke-dasharray:none;marker:none;visibility:visible;display:inline;overflow:visible;enable-background:accumulate;font-family:Sans;-inkscape-font-specification:Sans"
       d="M 198.35618,78.108153 C 260.44686,84.812641 300.7266,135.4264 300.75,198.84375 300.75,280.93332 190,309.64906 190,359.5 l 0,10 m 20,-0.25173 0,-9.74827 c 0,-42.30197 97.13594,-83.84797 96.15331,-157.09452 C 305.73054,130.22684 263.43093,81.372702 200.01015,74.267579"
       inkscape:connector-curvature="0"
       sodipodi:nodetypes="ccsccscc" />
  </g>
  <g
     style="display:none"
     inkscape:label="XX_ELEMENT-003"
     id="g4479"
     inkscape:groupmode="layer">
    <path
       id="path4487-8"
       style="font-size:medium;font-style:normal;font-variant:normal;font-weight:normal;font-stretch:normal;text-indent:0;text-align:start;text-decoration:none;line-height:normal;letter-spacing:normal;word-spacing:normal;text-transform:none;direction:ltr;block-progression:tb;writing-mode:lr-tb;text-anchor:start;baseline-shift:baseline;color:#000000;fill:#ffffff;stroke:none;stroke-width:1;marker:none;visibility:visible;display:inline;overflow:visible;enable-background:accumulate;font-family:Sans;-inkscape-font-specification:Sans"
       d="m 191.06988,168.59014 c 12.44492,3.93485 21.37678,16.22134 21.30512,29.72236 -0.10015,18.87057 -16.66892,33.77292 -35.28125,33.59375 -21.2226,-0.2043 -37.97051,-18.8536 -37.6875,-39.78125 0.32027,-23.68395 21.1503,-42.30287 44.53125,-41.90625 26.28389,0.44586 46.92826,23.55753 46.40625,49.5 -0.58331,28.98931 -26.10629,51.71914 -54.75,51.0625 -31.83542,-0.72979 -56.77193,-28.76958 -55.96875,-60.21875 0.88831,-34.78297 31.57226,-62.02088 65.96875,-61.0625 37.87369,1.05529 67.50077,34.4937 66.375,71.9375 -1.23456,41.06158 -37.5207,73.14502 -78.15625,71.84375 -44.39544,-1.42167 -79.051716,-40.67086 -77.5625,-84.59375 1.621409,-47.82199 43.92369,-85.12219 91.28125,-83.4375 51.39766,1.82841 91.45549,47.3043 89.5625,98.1875 -2.04842,55.06134 -50.81556,97.98322 -105.375,95.875 C 112.84115,297.03745 67.007072,244.85306 69.34375,186.53125 71.858913,123.75431 127.51164,74.897322 189.75,77.46875 c 2.88353,0.119135 5.72454,0.330172 8.52133,0.630269 l 1.87489,-3.816128 C 196.80116,73.904808 193.39723,73.642942 189.9375,73.5 125.51426,70.838302 67.950015,121.32424 65.34375,186.375 c -2.424218,60.50673 45.06685,114.54332 106.21875,116.90625 56.74186,2.19254 107.39811,-42.34868 109.53125,-99.6875 1.97417,-53.0655 -39.73037,-100.4343 -93.40625,-102.34375 -49.53716,-1.762228 -93.738729,37.20881 -95.4375,87.3125 -1.563104,46.10215 34.72807,87.22398 81.40625,88.71875 42.81189,1.37097 81.0092,-32.37057 82.3125,-75.71875 1.19119,-39.61954 -30.08825,-74.94345 -70.25,-76.0625 -36.56901,-1.01892 -69.1469,27.8934 -70.09375,64.96875 -0.85864,33.62077 25.74522,63.53011 59.875,64.3125 30.81171,0.70634 58.21418,-23.68016 58.84375,-54.96875 0.56561,-28.10911 -21.75792,-53.10885 -50.34375,-53.59375 -25.54349,-0.4333 -48.24228,19.88337 -48.59375,45.875 -0.31223,23.08827 18.12237,43.58594 41.65625,43.8125 20.76819,0.19993 39.20006,-16.40506 39.3125,-37.59375 0.0856,-16.13669 -11.16455,-30.68573 -26.57452,-34.21746 z"
       inkscape:connector-curvature="0"
       sodipodi:nodetypes="cssssssssssssssssccsssssssssssssssscc" />
    <path
       id="path4487-6-9"
       style="font-size:medium;font-style:normal;font-variant:normal;font-weight:normal;font-stretch:normal;text-indent:0;text-align:start;text-decoration:none;line-height:normal;letter-spacing:normal;word-spacing:normal;text-transform:none;direction:ltr;block-progression:tb;writing-mode:lr-tb;text-anchor:start;baseline-shift:baseline;color:#000000;fill:#ffffff;stroke:none;stroke-width:1;marker:none;visibility:visible;display:inline;overflow:visible;enable-background:accumulate;font-family:Sans;-inkscape-font-specification:Sans"
       d="M 198.35618,78.108154 C 260.44686,84.812642 300.7266,135.4264 300.75,198.84375 300.75,280.93332 190,309.64906 190,359.5 l 0,10 20,-0.25173 0,-9.74827 c 0,-42.30197 97.13594,-83.84797 96.15331,-157.09452 C 305.73054,130.22684 263.43093,81.372703 200.01015,74.26758 z"
       inkscape:connector-curvature="0"
       sodipodi:nodetypes="ccsccsccc" />
    <path
       id="path4487-6"
       style="font-size:medium;font-style:normal;font-variant:normal;font-weight:normal;font-stretch:normal;text-indent:0;text-align:start;text-decoration:none;line-height:normal;letter-spacing:normal;word-spacing:normal;text-transform:none;direction:ltr;block-progression:tb;writing-mode:lr-tb;text-anchor:start;baseline-shift:baseline;color:#000000;fill:none;stroke:#000000;stroke-width:1;stroke-miterlimit:4;stroke-dasharray:none;marker:none;visibility:visible;display:inline;overflow:visible;enable-background:accumulate;font-family:Sans;-inkscape-font-specification:Sans"
       d="M 198.35618,78.108154 C 260.44686,84.812642 300.7266,135.4264 300.75,198.84375 300.75,280.93332 190,309.64906 190,359.5 l 0,10 m 20,-0.25173 0,-9.74827 c 0,-42.30197 97.13594,-83.84797 96.15331,-157.09452 C 305.73054,130.22684 263.43093,81.372703 200.01015,74.26758"
       inkscape:connector-curvature="0"
       sodipodi:nodetypes="ccsccscc" />
    <path
       id="path4487"
       style="font-size:medium;font-style:normal;font-variant:normal;font-weight:normal;font-stretch:normal;text-indent:0;text-align:start;text-decoration:none;line-height:normal;letter-spacing:normal;word-spacing:normal;text-transform:none;direction:ltr;block-progression:tb;writing-mode:lr-tb;text-anchor:start;baseline-shift:baseline;color:#000000;fill:none;stroke:#ff0000;stroke-width:1;stroke-miterlimit:4;stroke-dasharray:none;marker:none;visibility:visible;display:inline;overflow:visible;enable-background:accumulate;font-family:Sans;-inkscape-font-specification:Sans"
       d="m 191.06988,168.59014 c 12.44492,3.93485 21.37678,16.22134 21.30512,29.72236 -0.10015,18.87057 -16.66892,33.77292 -35.28125,33.59375 -21.2226,-0.2043 -37.97051,-18.8536 -37.6875,-39.78125 0.32027,-23.68395 21.1503,-42.30287 44.53125,-41.90625 26.28389,0.44586 46.92826,23.55753 46.40625,49.5 -0.58331,28.98931 -26.10629,51.71914 -54.75,51.0625 -31.83542,-0.72979 -56.77193,-28.76958 -55.96875,-60.21875 0.88831,-34.78297 31.57226,-62.02088 65.96875,-61.0625 37.87369,1.05529 67.50077,34.4937 66.375,71.9375 -1.23456,41.06158 -37.5207,73.14502 -78.15625,71.84375 -44.39544,-1.42167 -79.051716,-40.67086 -77.5625,-84.59375 1.621409,-47.82199 43.92369,-85.12219 91.28125,-83.4375 51.39766,1.82841 91.45549,47.3043 89.5625,98.1875 -2.04842,55.06134 -50.81556,97.98322 -105.375,95.875 C 112.84115,297.03745 67.007072,244.85306 69.34375,186.53125 71.858913,123.75431 127.51164,74.897322 189.75,77.46875 c 2.88353,0.119135 5.72454,0.330172 8.52133,0.630269 m 1.87489,-3.816128 C 196.80116,73.904808 193.39723,73.642942 189.9375,73.5 125.51426,70.838302 67.950015,121.32424 65.34375,186.375 c -2.424218,60.50673 45.06685,114.54332 106.21875,116.90625 56.74186,2.19254 107.39811,-42.34868 109.53125,-99.6875 1.97417,-53.0655 -39.73037,-100.4343 -93.40625,-102.34375 -49.53716,-1.762228 -93.738729,37.20881 -95.4375,87.3125 -1.563104,46.10215 34.72807,87.22398 81.40625,88.71875 42.81189,1.37097 81.0092,-32.37057 82.3125,-75.71875 1.19119,-39.61954 -30.08825,-74.94345 -70.25,-76.0625 -36.56901,-1.01892 -69.1469,27.8934 -70.09375,64.96875 -0.85864,33.62077 25.74522,63.53011 59.875,64.3125 30.81171,0.70634 58.21418,-23.68016 58.84375,-54.96875 0.56561,-28.10911 -21.75792,-53.10885 -50.34375,-53.59375 -25.54349,-0.4333 -48.24228,19.88337 -48.59375,45.875 -0.31223,23.08827 18.12237,43.58594 41.65625,43.8125 20.76819,0.19993 39.20006,-16.40506 39.3125,-37.59375 0.0856,-16.13669 -11.16455,-30.68573 -26.57452,-34.21746"
       inkscape:connector-curvature="0"
       sodipodi:nodetypes="cssssssssssssssssccssssssssssssssssc" />
    <path
       id="path4487-4-7"
       style="font-size:medium;font-style:normal;font-variant:normal;font-weight:normal;font-stretch:normal;text-indent:0;text-align:start;text-decoration:none;line-height:normal;letter-spacing:normal;word-spacing:normal;text-transform:none;direction:ltr;block-progression:tb;writing-mode:lr-tb;text-anchor:start;baseline-shift:baseline;color:#000000;fill:#000000;stroke:none;stroke-width:1;marker:none;visibility:visible;display:inline;overflow:visible;enable-background:accumulate;font-family:Sans;-inkscape-font-specification:Sans"
       d="m 184.64687,163.33119 c -0.79886,-0.0598 -1.23836,-0.0496 -2.05312,-0.0499 -16.49011,-0.006 -31.10973,13.26864 -31,30.15627 0.0369,5.68486 1.32114,11.69009 4.90625,16.71878 3.58511,5.02869 9.49257,8.95064 18.09375,10.40625 l 0.0625,0 0.0625,0 c 6.35778,0.59723 11.32206,0.0462 15.125,-1.6875 3.80294,-1.73367 6.34455,-4.73103 7.65625,-8.34375 2.6234,-7.22544 0.94293,-16.76032 -1.9375,-27.3125 -2.88043,-10.55218 -7.12061,-22.11858 -10.3125,-33 C 176.27872,98.019021 207.85567,74.851166 210,41.40625 L 210,30.5 l -20,0 0,10.90625 c 0,36.223534 -22.48362,63.92441 -8.59375,109.9375 3.24454,11.06092 7.46797,22.63131 10.28125,32.9375 2.81328,10.30619 4.07751,19.32521 2.0625,24.875 -1.0075,2.77489 -2.69645,4.74169 -5.59375,6.0625 -2.86786,1.30739 -7.07788,1.90246 -12.90625,1.375 -7.75795,-1.3129 -12.49733,-4.5821 -15.46875,-8.75 -2.97142,-4.1679 -4.15444,-9.34956 -4.1875,-14.4375 -0.0945,-14.54999 12.65741,-26.13058 27,-26.125 1.28708,5.4e-4 2.10414,-0.0343 3.34555,0.13484 z"
       inkscape:connector-curvature="0"
       sodipodi:nodetypes="cccscccsssccccscssscscccc" />
    <path
       id="path4487-4-7-4"
       style="font-size:medium;font-style:normal;font-variant:normal;font-weight:normal;font-stretch:normal;text-indent:0;text-align:start;text-decoration:none;line-height:normal;letter-spacing:normal;word-spacing:normal;text-transform:none;direction:ltr;block-progression:tb;writing-mode:lr-tb;text-anchor:start;baseline-shift:baseline;color:#000000;fill:none;stroke:#000000;stroke-width:1;marker:none;visibility:visible;display:inline;overflow:visible;enable-background:accumulate;font-family:Sans;-inkscape-font-specification:Sans"
       d="m 190,30.5 0,10.90625 c 0,36.223534 -22.48362,63.92441 -8.59375,109.9375 3.24454,11.06092 7.46797,22.63131 10.28125,32.9375 2.81328,10.30619 4.07751,19.32521 2.0625,24.875 -1.0075,2.77489 -2.69645,4.74169 -5.59375,6.0625 -2.86786,1.30739 -7.07788,1.90246 -12.90625,1.375 -7.75795,-1.3129 -12.49733,-4.5821 -15.46875,-8.75 -2.97142,-4.1679 -4.15444,-9.34956 -4.1875,-14.4375 -0.0945,-14.54999 12.65741,-26.13058 27,-26.125 1.28708,5.4e-4 2.57254,0.0698 3.81395,0.23893 m -1.29243,-4.13695 c -0.79886,-0.0598 -1.70676,-0.10164 -2.52152,-0.10194 -16.49011,-0.006 -31.10973,13.26864 -31,30.15627 0.0369,5.68486 1.32114,11.69009 4.90625,16.71878 3.58511,5.02869 9.49257,8.95064 18.09375,10.40625 l 0.0625,0 0.0625,0 c 6.35778,0.59723 11.32206,0.0462 15.125,-1.6875 3.80294,-1.73367 6.34455,-4.73103 7.65625,-8.34375 2.6234,-7.22544 0.94293,-16.76032 -1.9375,-27.3125 -2.88043,-10.55218 -7.12061,-22.11858 -10.3125,-33 C 176.27872,98.019021 207.85567,74.851166 210,41.40625 L 210,30.5"
       inkscape:connector-curvature="0"
       sodipodi:nodetypes="cscssscsccccccscccsssccc" />
  </g>
  <g
     inkscape:groupmode="layer"
     id="g3616"
     inkscape:label="ELEMENT-003"
     style="display:none">
    <path
       sodipodi:nodetypes="ccsccsccc"
       inkscape:connector-curvature="0"
       d="M 198.35618,78.108154 C 264.49555,78.108154 303.75,136.6443 303.75,208.84375 303.75,290.93332 190,300.94355 190,359.5 l 0,10 20,-0.25173 0,-9.74827 c 0,-60.38264 100.27079,-63.79598 99.15331,-147.09452 0,-78.88051 -42.37286,-138.1379 -109.14316,-138.1379 z"
       style="font-size:medium;font-style:normal;font-variant:normal;font-weight:normal;font-stretch:normal;text-indent:0;text-align:start;text-decoration:none;line-height:normal;letter-spacing:normal;word-spacing:normal;text-transform:none;direction:ltr;block-progression:tb;writing-mode:lr-tb;text-anchor:start;baseline-shift:baseline;color:#000000;fill:#ffffff;stroke:none;stroke-width:1;marker:none;visibility:visible;display:inline;overflow:visible;enable-background:accumulate;font-family:Sans;-inkscape-font-specification:Sans"
       id="path3622-9" />
    <path
       sodipodi:nodetypes="cssssssssssssssssccsssssssssssssssscc"
       inkscape:connector-curvature="0"
       d="m 191.06988,168.59014 c 12.44492,3.93485 21.37678,16.22134 21.30512,29.72236 -0.10015,18.87057 -16.66892,33.77292 -35.28125,33.59375 -21.2226,-0.2043 -37.97051,-18.8536 -37.6875,-39.78125 0.32027,-23.68395 21.1503,-42.30287 44.53125,-41.90625 26.28389,0.44586 46.92826,23.55753 46.40625,49.5 -0.58331,28.98931 -26.10629,51.71914 -54.75,51.0625 -31.83542,-0.72979 -56.77193,-28.76958 -55.96875,-60.21875 0.88831,-34.78297 31.57226,-62.02088 65.96875,-61.0625 37.87369,1.05529 67.50077,34.4937 66.375,71.9375 -1.23456,41.06158 -37.5207,73.14502 -78.15625,71.84375 -44.39544,-1.42167 -79.051716,-40.67086 -77.5625,-84.59375 1.621409,-47.82199 43.92369,-85.12219 91.28125,-83.4375 51.39766,1.82841 91.45549,47.3043 89.5625,98.1875 -2.04842,55.06134 -50.81556,97.98322 -105.375,95.875 C 112.84115,297.03745 67.007072,244.85306 69.34375,186.53125 71.858913,123.75431 127.51164,74.897322 189.75,77.46875 c 2.88353,0.119135 5.72454,0.330172 8.52133,0.630269 l 1.87489,-3.816128 C 196.80116,73.904808 193.39723,73.642942 189.9375,73.5 125.51426,70.838302 67.950015,121.32424 65.34375,186.375 c -2.424218,60.50673 45.06685,114.54332 106.21875,116.90625 56.74186,2.19254 107.39811,-42.34868 109.53125,-99.6875 1.97417,-53.0655 -39.73037,-100.4343 -93.40625,-102.34375 -49.53716,-1.762228 -93.738729,37.20881 -95.4375,87.3125 -1.563104,46.10215 34.72807,87.22398 81.40625,88.71875 42.81189,1.37097 81.0092,-32.37057 82.3125,-75.71875 1.19119,-39.61954 -30.08825,-74.94345 -70.25,-76.0625 -36.56901,-1.01892 -69.1469,27.8934 -70.09375,64.96875 -0.85864,33.62077 25.74522,63.53011 59.875,64.3125 30.81171,0.70634 58.21418,-23.68016 58.84375,-54.96875 0.56561,-28.10911 -21.75792,-53.10885 -50.34375,-53.59375 -25.54349,-0.4333 -48.24228,19.88337 -48.59375,45.875 -0.31223,23.08827 18.12237,43.58594 41.65625,43.8125 20.76819,0.19993 39.20006,-16.40506 39.3125,-37.59375 0.0856,-16.13669 -11.16455,-30.68573 -26.57452,-34.21746 z"
       style="font-size:medium;font-style:normal;font-variant:normal;font-weight:normal;font-stretch:normal;text-indent:0;text-align:start;text-decoration:none;line-height:normal;letter-spacing:normal;word-spacing:normal;text-transform:none;direction:ltr;block-progression:tb;writing-mode:lr-tb;text-anchor:start;baseline-shift:baseline;color:#000000;fill:#ffffff;stroke:none;stroke-width:1;marker:none;visibility:visible;display:inline;overflow:visible;enable-background:accumulate;font-family:Sans;-inkscape-font-specification:Sans"
       id="path3618" />
    <path
       sodipodi:nodetypes="csssccsssccssssccsssccsssccssssccsssccsssc"
       inkscape:connector-curvature="0"
       d="m 191.06988,168.59014 c 12.44492,3.93485 21.37678,16.22134 21.30512,29.72236 -0.10015,18.87057 -16.66892,33.77292 -35.28125,33.59375 -21.2226,-0.2043 -37.9705,-18.8536 -37.6875,-39.78125 0.30456,-22.52228 19.15627,-40.46421 41.11136,-41.82902 m 5.20565,-0.0118 c 25.42692,1.43396 45.13062,24.08256 44.62049,49.43456 -0.58332,28.98931 -26.10629,51.71914 -54.75,51.0625 -31.83542,-0.72979 -56.77192,-28.76958 -55.96875,-60.21875 0.81118,-31.76284 26.46845,-57.23398 57.11008,-60.68794 m 7.48691,-0.39789 c 0.45655,0.003 0.91383,0.0106 1.37176,0.0233 37.87369,1.05526 67.50077,34.4937 66.375,71.9375 -1.23456,41.06158 -37.5207,73.14502 -78.15625,71.84375 -44.39544,-1.42167 -79.05171,-40.67086 -77.5625,-84.59375 1.507829,-44.47205 38.19674,-79.84478 81.41569,-83.22742 m 10.1916,-0.19789 c 51.24091,2.00865 91.12545,47.39975 89.23646,98.17531 -2.04843,55.06134 -50.81556,97.98322 -105.375,95.875 C 112.84115,297.03745 67.007082,244.85306 69.34375,186.53125 71.782319,125.66606 124.17133,77.885917 184.0836,77.375849 m 1.07062,-3.976407 C 122.69078,73.353259 67.885331,122.93871 65.34375,186.375 c -2.424208,60.50673 45.06685,114.54332 106.21875,116.90625 56.74186,2.19254 107.3981,-42.34868 109.53125,-99.6875 1.95722,-52.60993 -39.01753,-99.62055 -92.0265,-102.28455 m -10.79785,0.094 c -45.5927,3.10882 -84.429144,40.25616 -86.0194,87.15929 -1.563098,46.10215 34.72807,87.22398 81.40625,88.71875 42.81189,1.37097 81.0092,-32.37057 82.3125,-75.71875 1.19119,-39.61954 -30.08825,-74.94348 -70.25,-76.0625 -0.46591,-0.013 -0.93117,-0.0211 -1.39573,-0.0244 m -7.87441,0.40531 c -32.63566,3.60109 -59.95767,30.68071 -60.82361,64.58785 -0.85863,33.62077 25.74522,63.53011 59.875,64.3125 30.81171,0.70634 58.21416,-23.68016 58.84375,-54.96875 0.55797,-27.72965 -21.15937,-52.4333 -49.18952,-53.56076 m -5.48918,0.0922 c -23.72266,1.7751 -43.92736,21.23909 -44.2588,45.74976 -0.31221,23.08827 18.12237,43.58594 41.65625,43.8125 20.76819,0.19993 39.20006,-16.40506 39.3125,-37.59375 0.0856,-16.13669 -11.16455,-30.68573 -26.57452,-34.21746"
       style="font-size:medium;font-style:normal;font-variant:normal;font-weight:normal;font-stretch:normal;text-indent:0;text-align:start;text-decoration:none;line-height:normal;letter-spacing:normal;word-spacing:normal;text-transform:none;direction:ltr;block-progression:tb;writing-mode:lr-tb;text-anchor:start;baseline-shift:baseline;color:#000000;fill:none;stroke:#ff0000;stroke-width:1;stroke-miterlimit:4;stroke-dasharray:none;marker:none;visibility:visible;display:inline;overflow:visible;enable-background:accumulate;font-family:Sans;-inkscape-font-specification:Sans"
       id="path3624" />
    <path
       sodipodi:nodetypes="ccsccscc"
       inkscape:connector-curvature="0"
       d="M 198.35618,78.108154 C 264.49555,78.108154 303.75,136.6443 303.75,208.84375 303.75,290.93332 190,300.94355 190,359.5 l 0,10 m 20,-0.25173 0,-9.74827 c 0,-60.38264 100.27079,-63.79598 99.15331,-147.09452 0,-78.88051 -42.37286,-138.1379 -109.14316,-138.1379"
       style="font-size:medium;font-style:normal;font-variant:normal;font-weight:normal;font-stretch:normal;text-indent:0;text-align:start;text-decoration:none;line-height:normal;letter-spacing:normal;word-spacing:normal;text-transform:none;direction:ltr;block-progression:tb;writing-mode:lr-tb;text-anchor:start;baseline-shift:baseline;color:#000000;fill:none;stroke:#000000;stroke-width:1;stroke-miterlimit:4;stroke-dasharray:none;marker:none;visibility:visible;display:inline;overflow:visible;enable-background:accumulate;font-family:Sans;-inkscape-font-specification:Sans"
       id="path3622" />
    <path
       sodipodi:nodetypes="cccscccsssccccscssscscccc"
       inkscape:connector-curvature="0"
       d="m 184.64687,163.33119 c -0.79886,-0.0598 -1.23836,-0.0496 -2.05312,-0.0499 -16.49011,-0.006 -31.10973,13.26864 -31,30.15627 0.0369,5.68486 1.32114,11.69009 4.90625,16.71878 3.58511,5.02869 9.49257,8.95064 18.09375,10.40625 l 0.0625,0 0.0625,0 c 6.35778,0.59723 11.32206,0.0462 15.125,-1.6875 3.80294,-1.73367 6.34455,-4.73103 7.65625,-8.34375 2.6234,-7.22544 0.94293,-16.76032 -1.9375,-27.3125 -2.88043,-10.55218 -7.12061,-22.11858 -10.3125,-33 C 176.27872,98.019021 207.85567,74.851166 210,41.40625 L 210,30.5 l -20,0 0,10.90625 c 0,36.223534 -22.48362,63.92441 -8.59375,109.9375 3.24454,11.06092 7.46797,22.63131 10.28125,32.9375 2.81328,10.30619 4.07751,19.32521 2.0625,24.875 -1.0075,2.77489 -2.69645,4.74169 -5.59375,6.0625 -2.86786,1.30739 -7.07788,1.90246 -12.90625,1.375 -7.75795,-1.3129 -12.49733,-4.5821 -15.46875,-8.75 -2.97142,-4.1679 -4.15444,-9.34956 -4.1875,-14.4375 -0.0945,-14.54999 12.65741,-26.13058 27,-26.125 1.28708,5.4e-4 2.10414,-0.0343 3.34555,0.13484 z"
       style="font-size:medium;font-style:normal;font-variant:normal;font-weight:normal;font-stretch:normal;text-indent:0;text-align:start;text-decoration:none;line-height:normal;letter-spacing:normal;word-spacing:normal;text-transform:none;direction:ltr;block-progression:tb;writing-mode:lr-tb;text-anchor:start;baseline-shift:baseline;color:#000000;fill:#000000;stroke:none;stroke-width:1;marker:none;visibility:visible;display:inline;overflow:visible;enable-background:accumulate;font-family:Sans;-inkscape-font-specification:Sans"
       id="path3626" />
    <path
       sodipodi:nodetypes="cscssscsccccccscccsssccc"
       inkscape:connector-curvature="0"
       d="m 190,30.5 0,10.90625 c 0,36.223534 -22.48362,63.92441 -8.59375,109.9375 3.24454,11.06092 7.46797,22.63131 10.28125,32.9375 2.81328,10.30619 4.07751,19.32521 2.0625,24.875 -1.0075,2.77489 -2.69645,4.74169 -5.59375,6.0625 -2.86786,1.30739 -7.07788,1.90246 -12.90625,1.375 -7.75795,-1.3129 -12.49733,-4.5821 -15.46875,-8.75 -2.97142,-4.1679 -4.15444,-9.34956 -4.1875,-14.4375 -0.0945,-14.54999 12.65741,-26.13058 27,-26.125 1.28708,5.4e-4 2.57254,0.0698 3.81395,0.23893 m -1.29243,-4.13695 c -0.79886,-0.0598 -1.70676,-0.10164 -2.52152,-0.10194 -16.49011,-0.006 -31.10973,13.26864 -31,30.15627 0.0369,5.68486 1.32114,11.69009 4.90625,16.71878 3.58511,5.02869 9.49257,8.95064 18.09375,10.40625 l 0.0625,0 0.0625,0 c 6.35778,0.59723 11.32206,0.0462 15.125,-1.6875 3.80294,-1.73367 6.34455,-4.73103 7.65625,-8.34375 2.6234,-7.22544 0.94293,-16.76032 -1.9375,-27.3125 -2.88043,-10.55218 -7.12061,-22.11858 -10.3125,-33 C 176.27872,98.019021 207.85567,74.851166 210,41.40625 L 210,30.5"
       style="font-size:medium;font-style:normal;font-variant:normal;font-weight:normal;font-stretch:normal;text-indent:0;text-align:start;text-decoration:none;line-height:normal;letter-spacing:normal;word-spacing:normal;text-transform:none;direction:ltr;block-progression:tb;writing-mode:lr-tb;text-anchor:start;baseline-shift:baseline;color:#000000;fill:none;stroke:#000000;stroke-width:1;marker:none;visibility:visible;display:inline;overflow:visible;enable-background:accumulate;font-family:Sans;-inkscape-font-specification:Sans"
       id="path3628" />
  </g>
</svg>
