<?xml version="1.0" encoding="UTF-8" standalone="no"?>
<!-- Created with Inkscape (http://www.inkscape.org/) -->

<svg
   xmlns:dc="http://purl.org/dc/elements/1.1/"
   xmlns:cc="http://creativecommons.org/ns#"
   xmlns:rdf="http://www.w3.org/1999/02/22-rdf-syntax-ns#"
   xmlns:svg="http://www.w3.org/2000/svg"
   xmlns="http://www.w3.org/2000/svg"
   xmlns:sodipodi="http://sodipodi.sourceforge.net/DTD/sodipodi-0.dtd"
   xmlns:inkscape="http://www.inkscape.org/namespaces/inkscape"
   style="display:inline"
   sodipodi:docname="POSSOA-R+_0_SB_SB_0_.svg"
   inkscape:version="0.48.3.1 r9886"
   version="1.1"
   id="svg2902"
   height="400"
   width="400">
  <sodipodi:namedview
     id="base"
     pagecolor="#ffffff"
     bordercolor="#666666"
     borderopacity="1.0"
     inkscape:pageopacity="0.0"
     inkscape:pageshadow="2"
     inkscape:zoom="1.3612162"
     inkscape:cx="187.56533"
     inkscape:cy="206.06951"
     inkscape:document-units="px"
     inkscape:current-layer="layer2"
     showgrid="false"
     inkscape:window-width="1018"
     inkscape:window-height="709"
     inkscape:window-x="0"
     inkscape:window-y="1"
     inkscape:window-maximized="0"
     showguides="true"
     inkscape:guide-bbox="true"
     inkscape:snap-bbox="true"
     inkscape:snap-global="false" />
  <defs
     id="defs2904" />
  <metadata
     id="metadata2907">
    <rdf:RDF>
      <cc:Work
         rdf:about="">
        <dc:format>image/svg+xml</dc:format>
        <dc:type
           rdf:resource="http://purl.org/dc/dcmitype/StillImage" />
        <dc:title />
      </cc:Work>
    </rdf:RDF>
  </metadata>
  <g
     inkscape:groupmode="layer"
     id="layer1"
     inkscape:label="XX_BG"
     sodipodi:insensitive="true">
    <path
       style="color:#000000;fill:#00ffff;fill-opacity:1;fill-rule:nonzero;stroke:none;stroke-width:0;marker:none;visibility:visible;display:inline;overflow:visible;enable-background:accumulate"
       d="m 0,0 400,0 0,400 -400,0 z"
       id="rect3096"
       inkscape:connector-curvature="0" />
  </g>
  <g
     inkscape:label="XX_Referenz"
     inkscape:groupmode="layer"
     id="XX_referenz"
     layerid="XX_referenz"
     style="display:inline"
     sodipodi:insensitive="true">
    <path
       id="innerframe"
       style="fill:none;stroke:#ff0000;stroke-width:1;stroke-linecap:round;stroke-linejoin:miter;stroke-miterlimit:3.9000001;stroke-opacity:1;stroke-dasharray:none"
       d="m 40.500002,40.500004 318.999998,0 0,318.999996 -318.999997,0 0,-318.999996 z"
       inkscape:label="#innerframe"
       sodipodi:insensitive="true"
       inkscape:connector-curvature="0" />
    <path
       id="outerframe"
       style="fill:none;stroke:#ff0000;stroke-width:1;stroke-linecap:round;stroke-linejoin:miter;stroke-miterlimit:3.9000001;stroke-opacity:1;stroke-dasharray:none;display:inline"
       d="m 30.500003,30.5 338.999997,0 0,339 -338.999997,0 0,-339 z"
       inkscape:label="#outerframe"
       sodipodi:nodetypes="ccccc"
       sodipodi:insensitive="true"
       inkscape:connector-curvature="0" />
    <path
       style="fill:none;stroke:#000000;stroke-width:1.00000036px;stroke-linecap:square;stroke-linejoin:miter;stroke-opacity:1"
       d="m 30.5,210 10.000237,0"
       id="left-bottom"
       inkscape:connector-curvature="0" />
    <path
       style="fill:none;stroke:#000000;stroke-width:1.00000036px;stroke-linecap:square;stroke-linejoin:miter;stroke-opacity:1;display:inline"
       d="m 30.5,190 10.000237,0"
       id="left-top"
       inkscape:connector-curvature="0" />
    <path
       style="opacity:0.5;fill:none;stroke:#00ff00;stroke-width:1.00000036px;stroke-linecap:square;stroke-linejoin:miter;stroke-opacity:1"
       d="m 30.5,209 10.000237,0"
       id="ref-left-bi"
       sodipodi:insensitive="true"
       inkscape:connector-curvature="0" />
    <path
       style="opacity:0.5;fill:none;stroke:#00ff00;stroke-width:1.00000036px;stroke-linecap:square;stroke-linejoin:miter;stroke-opacity:1;display:inline"
       d="m 30.5,211 10.000237,0"
       id="ref-left-bo"
       sodipodi:insensitive="true"
       inkscape:connector-curvature="0" />
    <path
       style="opacity:0.5;fill:none;stroke:#00ff00;stroke-width:1.00000036px;stroke-linecap:square;stroke-linejoin:miter;stroke-opacity:1;display:inline"
       d="m 30.5,189 10.000237,0"
       id="ref-left-to"
       sodipodi:insensitive="true"
       inkscape:connector-curvature="0" />
    <path
       style="opacity:0.5;fill:none;stroke:#00ff00;stroke-width:1.00000036px;stroke-linecap:square;stroke-linejoin:miter;stroke-opacity:1;display:inline"
       d="m 30.5,191 10.000237,0"
       id="ref-left-ti"
       sodipodi:insensitive="true"
       inkscape:connector-curvature="0" />
    <path
       style="fill:none;stroke:#000000;stroke-width:1.00000036px;stroke-linecap:square;stroke-linejoin:miter;stroke-opacity:1"
       d="m 190,30.5 0,10.000237"
       id="top-left"
       inkscape:connector-curvature="0" />
    <path
       style="fill:none;stroke:#000000;stroke-width:1.00000036px;stroke-linecap:square;stroke-linejoin:miter;stroke-opacity:1;display:inline"
       d="m 210,30.5 0,10.000237"
       id="top-right"
       inkscape:connector-curvature="0" />
    <path
       style="opacity:0.5;fill:none;stroke:#00ff00;stroke-width:1.00000036px;stroke-linecap:square;stroke-linejoin:miter;stroke-opacity:1;display:inline"
       d="m 191,30.5 0,10.000237"
       id="ref-top-li"
       sodipodi:insensitive="true"
       inkscape:connector-curvature="0" />
    <path
       style="opacity:0.5;fill:none;stroke:#00ff00;stroke-width:1.00000036px;stroke-linecap:square;stroke-linejoin:miter;stroke-opacity:1;display:inline"
       d="m 189,30.5 0,10.000237"
       id="ref-top-lo"
       sodipodi:insensitive="true"
       inkscape:connector-curvature="0" />
    <path
       style="opacity:0.5;fill:none;stroke:#00ff00;stroke-width:1.00000036px;stroke-linecap:square;stroke-linejoin:miter;stroke-opacity:1;display:inline"
       d="m 211,30.5 0,10.000237"
       id="ref-top-ro"
       sodipodi:insensitive="true"
       inkscape:connector-curvature="0" />
    <path
       style="opacity:0.5;fill:none;stroke:#00ff00;stroke-width:1.00000036px;stroke-linecap:square;stroke-linejoin:miter;stroke-opacity:1;display:inline"
       d="m 209,30.5 0,10.000237"
       id="ref-top-ri"
       sodipodi:insensitive="true"
       inkscape:connector-curvature="0" />
    <path
       style="fill:none;stroke:#000000;stroke-width:1.00000036px;stroke-linecap:square;stroke-linejoin:miter;stroke-opacity:1"
       d="m 369.5,190 -10.00024,0"
       id="right-top"
       inkscape:connector-curvature="0" />
    <path
       style="fill:none;stroke:#000000;stroke-width:1.00000036px;stroke-linecap:square;stroke-linejoin:miter;stroke-opacity:1;display:inline"
       d="m 369.5,210 -10.00024,0"
       id="right-bottom"
       inkscape:connector-curvature="0" />
    <path
       style="opacity:0.5;fill:none;stroke:#00ff00;stroke-width:1.00000036px;stroke-linecap:square;stroke-linejoin:miter;stroke-opacity:1;display:inline"
       d="m 369.5,191 -10.00024,0"
       id="ref-right-ti"
       sodipodi:insensitive="true"
       inkscape:connector-curvature="0" />
    <path
       style="opacity:0.5;fill:none;stroke:#00ff00;stroke-width:1.00000036px;stroke-linecap:square;stroke-linejoin:miter;stroke-opacity:1;display:inline"
       d="m 369.5,189 -10.00024,0"
       id="ref-right-to"
       sodipodi:insensitive="true"
       inkscape:connector-curvature="0" />
    <path
       style="opacity:0.5;fill:none;stroke:#00ff00;stroke-width:1.00000036px;stroke-linecap:square;stroke-linejoin:miter;stroke-opacity:1;display:inline"
       d="m 369.5,211 -10.00024,0"
       id="ref-right-bo"
       sodipodi:insensitive="true"
       inkscape:connector-curvature="0" />
    <path
       style="opacity:0.5;fill:none;stroke:#00ff00;stroke-width:1.00000036px;stroke-linecap:square;stroke-linejoin:miter;stroke-opacity:1;display:inline"
       d="m 369.5,209 -10.00024,0"
       id="ref-right-bi"
       sodipodi:insensitive="true"
       inkscape:connector-curvature="0" />
    <path
       style="fill:none;stroke:#000000;stroke-width:1.00000036px;stroke-linecap:square;stroke-linejoin:miter;stroke-opacity:1"
       d="m 210,369.5 0,-10.00024"
       id="bottom-right"
       inkscape:connector-curvature="0" />
    <path
       style="fill:none;stroke:#000000;stroke-width:1.00000036px;stroke-linecap:square;stroke-linejoin:miter;stroke-opacity:1;display:inline"
       d="m 190,369.5 0,-10.00024"
       id="bottom-left"
       inkscape:connector-curvature="0" />
    <path
       style="opacity:0.5;fill:none;stroke:#00ff00;stroke-width:1.00000036px;stroke-linecap:square;stroke-linejoin:miter;stroke-opacity:1;display:inline"
       d="m 209,369.5 0,-10.00024"
       id="ref-bottom-ri"
       sodipodi:insensitive="true"
       inkscape:connector-curvature="0" />
    <path
       style="opacity:0.5;fill:none;stroke:#00ff00;stroke-width:1.00000036px;stroke-linecap:square;stroke-linejoin:miter;stroke-opacity:1;display:inline"
       d="m 211,369.5 0,-10.00024"
       id="ref-bottom-ro"
       sodipodi:insensitive="true"
       inkscape:connector-curvature="0" />
    <path
       style="opacity:0.5;fill:none;stroke:#00ff00;stroke-width:1.00000036px;stroke-linecap:square;stroke-linejoin:miter;stroke-opacity:1;display:inline"
       d="m 189,369.5 0,-10.00024"
       id="ref-bottom-lo"
       sodipodi:insensitive="true"
       inkscape:connector-curvature="0" />
    <path
       style="opacity:0.5;fill:none;stroke:#00ff00;stroke-width:1.00000036px;stroke-linecap:square;stroke-linejoin:miter;stroke-opacity:1;display:inline"
       d="m 191,369.5 0,-10.00024"
       id="ref-bottom-li"
       sodipodi:insensitive="true"
       inkscape:connector-curvature="0" />
  </g>
  <g
     inkscape:groupmode="layer"
     id="layer2"
     inkscape:label="XX_ELEMENT-002"
     style="display:none">
    <path
       id="right-bottom-2"
       style="fill:none;stroke:#000000;stroke-width:1.00000036px;stroke-linecap:square;stroke-linejoin:miter;stroke-opacity:1;display:inline"
       d="m 369.5,210 -10.00024,0 M 369.5,190 l -10.00024,0"
       inkscape:connector-curvature="0" />
    <path
       id="bottom-left-8"
       style="fill:none;stroke:#000000;stroke-width:1.00000036px;stroke-linecap:square;stroke-linejoin:miter;stroke-opacity:1;display:inline"
       d="m 190,369.5 0,-10.00024 m 20,10.00024 0,-10.00024"
       inkscape:connector-curvature="0" />
    <path
       id="right-bottom-2-8"
       style="fill:none;stroke:#ff0000;stroke-width:20;stroke-linecap:butt;stroke-linejoin:miter;stroke-miterlimit:4;stroke-opacity:1;stroke-dasharray:none;display:inline"
       d="m 369.5,200 -10.00024,0 C 288.07921,200 200,248.3462 200,359.49976 L 200,369.5"
       inkscape:connector-curvature="0"
       sodipodi:nodetypes="cccc" />
  </g>
  <g
     style="display:none"
     inkscape:label="XX_ELEMENT-003"
     id="g3906"
     inkscape:groupmode="layer">
    <path
       inkscape:connector-curvature="0"
       d="m 369.5,210 -10.00024,0 M 369.5,190 l -10.00024,0"
       style="fill:none;stroke:#000000;stroke-width:1.00000036px;stroke-linecap:square;stroke-linejoin:miter;stroke-opacity:1;display:inline"
       id="path3908" />
    <path
       inkscape:connector-curvature="0"
       d="m 190,369.5 0,-10.00024 m 20,10.00024 0,-10.00024"
       style="fill:none;stroke:#000000;stroke-width:1.00000036px;stroke-linecap:square;stroke-linejoin:miter;stroke-opacity:1;display:inline"
       id="path3910" />
    <path
       sodipodi:nodetypes="ccacc"
       inkscape:connector-curvature="0"
       d="m 369.5,200 -10.00024,0 C 290.87905,200 236.701,162.2111 199.01195,200.17627 161.59564,237.86671 200,288.86227 200,359.49976 L 200,369.5"
       style="fill:none;stroke:#ff0000;stroke-width:20;stroke-linecap:butt;stroke-linejoin:miter;stroke-miterlimit:4;stroke-opacity:1;stroke-dasharray:none;display:inline"
       id="path3912" />
  </g>
  <g
     inkscape:groupmode="layer"
     id="g3914"
     inkscape:label="ELEMENT-003"
     style="display:none">
    <path
       style="font-size:medium;font-style:normal;font-variant:normal;font-weight:normal;font-stretch:normal;text-indent:0;text-align:start;text-decoration:none;line-height:normal;letter-spacing:normal;word-spacing:normal;text-transform:none;direction:ltr;block-progression:tb;writing-mode:lr-tb;text-anchor:start;baseline-shift:baseline;color:#000000;fill:#000000;fill-opacity:1;stroke:none;stroke-width:0;marker:none;visibility:visible;display:inline;overflow:visible;enable-background:accumulate;font-family:Sans;-inkscape-font-specification:Sans"
       d="m 238.74999,173.3125 c -3.33853,0.12342 -6.66846,0.41985 -9.96875,0.9375 -13.20116,2.07059 -26.02444,7.94495 -36.875,18.875 -10.75099,10.82977 -16.48004,23.46896 -18.40624,36.4375 -1.9262,12.96854 -0.39385,26.13481 2.15625,39.75 5.1002,27.23037 14.34374,56.68103 14.34374,90.1875 l 0,10 20,0 0,-10 c 0,-37.13102 -9.9396,-68.49436 -14.6875,-93.84375 -2.37395,-12.6747 -3.42757,-23.75526 -2.03125,-33.15625 1.39632,-9.40099 4.85534,-17.2658 12.8125,-25.28125 7.99397,-8.05253 16.07958,-11.69705 25.78125,-13.21875 9.70167,-1.5217 21.12884,-0.57867 34.0625,1.6875 C 291.80482,200.21984 323.354,210 359.5,210 l 10,0 0,-20 -10,0 c -32.47471,0 -62.32585,-9.12918 -90.12501,-14 -10.42468,-1.82656 -20.6094,-3.05777 -30.625,-2.6875 z"
       id="path3920-8"
       inkscape:connector-curvature="0" />
    <path
       style="font-size:medium;font-style:normal;font-variant:normal;font-weight:normal;font-stretch:normal;text-indent:0;text-align:start;text-decoration:none;line-height:normal;letter-spacing:normal;word-spacing:normal;text-transform:none;direction:ltr;block-progression:tb;writing-mode:lr-tb;text-anchor:start;baseline-shift:baseline;color:#000000;fill:none;stroke:#000000;stroke-width:1;stroke-miterlimit:4;stroke-dasharray:none;marker:none;visibility:visible;display:inline;overflow:visible;enable-background:accumulate;font-family:Sans;-inkscape-font-specification:Sans"
       d="m 210,369.5 0,-10 c 0,-37.13102 -9.9396,-68.49436 -14.6875,-93.84375 -2.37395,-12.6747 -3.42757,-23.75526 -2.03125,-33.15625 1.39632,-9.40099 4.85534,-17.2658 12.8125,-25.28125 7.99397,-8.05253 16.07958,-11.69705 25.78125,-13.21875 9.70167,-1.5217 21.12884,-0.57867 34.0625,1.6875 C 291.80482,200.21984 323.354,210 359.5,210 l 10,0 m 0,-20 -10,0 c -32.47471,0 -62.32585,-9.12918 -90.125,-14 -10.42468,-1.82656 -20.6094,-3.05777 -30.625,-2.6875 -3.33853,0.12342 -6.66846,0.41985 -9.96875,0.9375 -13.20116,2.07059 -26.02444,7.94495 -36.875,18.875 -10.751,10.82977 -16.48005,23.46896 -18.40625,36.4375 -1.9262,12.96854 -0.39385,26.13481 2.15625,39.75 C 180.75645,296.54287 190,325.99353 190,359.5 l 0,10"
       id="path3920"
       inkscape:connector-curvature="0"
       sodipodi:nodetypes="csssssssccssssssssc" />
  </g>
  <g
     style="display:none"
     inkscape:label="XX_ELEMENT-004"
     id="g3026"
     inkscape:groupmode="layer">
    <path
       inkscape:connector-curvature="0"
       d="m 369.5,210 -10.00024,0 M 369.5,190 l -10.00024,0"
       style="fill:none;stroke:#000000;stroke-width:1.00000036px;stroke-linecap:square;stroke-linejoin:miter;stroke-opacity:1;display:inline"
       id="path3028" />
    <path
       inkscape:connector-curvature="0"
       d="m 190,369.5 0,-10.00024 m 20,10.00024 0,-10.00024"
       style="fill:none;stroke:#000000;stroke-width:1.00000036px;stroke-linecap:square;stroke-linejoin:miter;stroke-opacity:1;display:inline"
       id="path3030" />
    <path
       sodipodi:nodetypes="ccacc"
       inkscape:connector-curvature="0"
       d="m 369.5,200 -40.00024,0 C 246.77271,200 182.95037,74.735043 131.75204,123.4639 79.34578,173.34243 200,229.84475 200,329.49976 L 200,369.5"
       style="fill:none;stroke:#ff0000;stroke-width:20;stroke-linecap:butt;stroke-linejoin:miter;stroke-miterlimit:4;stroke-opacity:1;stroke-dasharray:none;display:inline"
       id="path3032" />
  </g>
  <g
     inkscape:groupmode="layer"
     id="g3034"
     inkscape:label="ELEMENT-004"
     style="display:inline">
    <path
       style="font-size:medium;font-style:normal;font-variant:normal;font-weight:normal;font-stretch:normal;text-indent:0;text-align:start;text-decoration:none;line-height:normal;letter-spacing:normal;word-spacing:normal;text-transform:none;direction:ltr;block-progression:tb;writing-mode:lr-tb;text-anchor:start;baseline-shift:baseline;color:#000000;fill:#000000;stroke:none;stroke-width:1;marker:none;visibility:visible;display:inline;overflow:visible;enable-background:accumulate;font-family:Sans;-inkscape-font-specification:Sans"
       d="m 369.5,190 -40,0 c -36.31621,0 -71.58877,-29.00544 -104.59375,-54.46875 -16.50249,-12.73165 -32.30798,-24.45338 -49.09374,-30.125 -6.29466,-2.12686 -12.89224,-3.17618 -19.5,-2.875 -11.01294,0.50197 -22.03064,4.70462 -31.46875,13.6875 -15.17258,14.44074 -18.82113,32.77475 -14.15626,49.1875 4.66487,16.41275 15.51881,31.7287 27.40626,48.25 23.7749,33.04259 51.90625,70.05198 51.90625,115.84375 l 0,40 19.99999,0 0,-40 c 0,-53.86324 -32.20559,-94.9393 -55.65624,-127.53125 -11.72532,-16.29598 -21.18772,-30.70725 -24.40625,-42.03125 -3.21853,-11.324 -2.31181,-18.72023 8.71875,-29.21875 10.49819,-9.99183 18.58432,-10.48557 30.75,-6.375 12.16568,4.11057 27.08748,14.53777 43.28124,27.03125 C 245.07504,176.36196 283.08916,210 329.5,210 l 40,0 z"
       id="path3040-4"
       inkscape:connector-curvature="0"
       sodipodi:nodetypes="cssssssssccssssssscc" />
    <path
       id="path3036"
       style="fill:none;stroke:#000000;stroke-width:1.00000036px;stroke-linecap:square;stroke-linejoin:miter;stroke-opacity:1;display:inline"
       d="m 369.5,210 -10.00024,0 M 369.5,190 l -10.00024,0"
       inkscape:connector-curvature="0" />
    <path
       id="path3038"
       style="fill:none;stroke:#000000;stroke-width:1.00000036px;stroke-linecap:square;stroke-linejoin:miter;stroke-opacity:1;display:inline"
       d="m 190,369.5 0,-10.00024 m 20,10.00024 0,-10.00024"
       inkscape:connector-curvature="0" />
    <path
       style="font-size:medium;font-style:normal;font-variant:normal;font-weight:normal;font-stretch:normal;text-indent:0;text-align:start;text-decoration:none;line-height:normal;letter-spacing:normal;word-spacing:normal;text-transform:none;direction:ltr;block-progression:tb;writing-mode:lr-tb;text-anchor:start;baseline-shift:baseline;color:#000000;fill:none;stroke:#000000;stroke-width:1;stroke-miterlimit:4;stroke-dasharray:none;marker:none;visibility:visible;display:inline;overflow:visible;enable-background:accumulate;font-family:Sans;-inkscape-font-specification:Sans"
       d="m 369.5,190 -40,0 c -36.31621,0 -71.58877,-29.00544 -104.59375,-54.46875 -16.50249,-12.73165 -32.30799,-24.45338 -49.09375,-30.125 -6.29466,-2.12686 -12.89224,-3.17618 -19.5,-2.875 -11.01294,0.50197 -22.03064,4.70462 -31.46875,13.6875 -15.17257,14.44074 -18.82112,32.77475 -14.15625,49.1875 4.66487,16.41275 15.5188,31.7287 27.40625,48.25 C 161.86865,246.69884 190,283.70823 190,329.5 l 0,40 m 20,0 0,-40 c 0,-53.86324 -32.2056,-94.9393 -55.65625,-127.53125 -11.72532,-16.29598 -21.18772,-30.70725 -24.40625,-42.03125 -3.21853,-11.324 -2.31181,-18.72023 8.71875,-29.21875 10.49819,-9.99183 18.58432,-10.48557 30.75,-6.375 12.16568,4.11057 27.08748,14.53777 43.28125,27.03125 C 245.07504,176.36196 283.08916,210 329.5,210 l 40,0"
       id="path3040"
       inkscape:connector-curvature="0"
       sodipodi:nodetypes="cssssssssccsssssssc" />
  </g>
</svg>
