<?xml version="1.0" encoding="UTF-8" standalone="no"?>
<!-- Created with Inkscape (http://www.inkscape.org/) -->

<svg
   xmlns:dc="http://purl.org/dc/elements/1.1/"
   xmlns:cc="http://creativecommons.org/ns#"
   xmlns:rdf="http://www.w3.org/1999/02/22-rdf-syntax-ns#"
   xmlns:svg="http://www.w3.org/2000/svg"
   xmlns="http://www.w3.org/2000/svg"
   xmlns:sodipodi="http://sodipodi.sourceforge.net/DTD/sodipodi-0.dtd"
   xmlns:inkscape="http://www.inkscape.org/namespaces/inkscape"
   style="display:inline"
   sodipodi:docname="161117_Ranke-R+_00_CW_II_00_.svg"
   inkscape:version="0.48.3.1 r9886"
   version="1.1"
   id="svg2902"
   height="400"
   width="400">
  <sodipodi:namedview
     id="base"
     pagecolor="#f0f0f0"
     bordercolor="#666666"
     borderopacity="1.0"
     inkscape:pageopacity="1"
     inkscape:pageshadow="2"
     inkscape:zoom="1.2852827"
     inkscape:cx="214.43442"
     inkscape:cy="178.17135"
     inkscape:document-units="px"
     inkscape:current-layer="g3363"
     showgrid="false"
     inkscape:window-width="1018"
     inkscape:window-height="709"
     inkscape:window-x="0"
     inkscape:window-y="1"
     inkscape:window-maximized="0"
     showguides="true"
     inkscape:guide-bbox="true"
     inkscape:snap-bbox="true"
     inkscape:snap-global="false" />
  <defs
     id="defs2904" />
  <metadata
     id="metadata2907">
    <rdf:RDF>
      <cc:Work
         rdf:about="">
        <dc:format>image/svg+xml</dc:format>
        <dc:type
           rdf:resource="http://purl.org/dc/dcmitype/StillImage" />
        <dc:title />
      </cc:Work>
    </rdf:RDF>
  </metadata>
  <g
     inkscape:groupmode="layer"
     id="bg"
     inkscape:label="XX_BG"
     sodipodi:insensitive="true"
     style="display:inline">
    <path
       style="fill:#ffd5e5;stroke:none"
       d="M 400,0 400,400 0,400 0,0 z"
       id="bgrect"
       inkscape:connector-curvature="0" />
  </g>
  <g
     inkscape:label="XX_Referenz"
     inkscape:groupmode="layer"
     id="XX_referenz"
     style="display:none"
     sodipodi:insensitive="true">
    <path
       id="innerframe"
       style="fill:none;stroke:#ff0000;stroke-width:1"
       d="m 40.5,40.5 319,0 0,319 -319,0 0,-319 z"
       inkscape:label="#innerframe"
       sodipodi:insensitive="true"
       inkscape:connector-curvature="0" />
    <path
       id="outerframe"
       style="fill:none;stroke:#ff0000;stroke-width:1"
       d="m 30.5,30.5 339,0 0,339 -339,0 0,-339 z"
       inkscape:label="#outerframe"
       sodipodi:nodetypes="ccccc"
       sodipodi:insensitive="true"
       inkscape:connector-curvature="0" />
    <path
       style="opacity:0.5;fill:none;stroke:#ffc200;stroke-width:1px;stroke-linecap:square"
       d="m 189,30.5 0,10"
       id="ref-S-top-1"
       sodipodi:insensitive="true"
       inkscape:connector-curvature="0" />
    <path
       style="opacity:0.5;fill:none;stroke:#ffc200;stroke-width:1px;stroke-linecap:square"
       d="m 191,30.5 0,10"
       id="ref-S-top-2"
       sodipodi:insensitive="true"
       inkscape:connector-curvature="0" />
    <path
       style="opacity:0.5;fill:none;stroke:#ffc200;stroke-width:1px;stroke-linecap:square"
       d="m 209,30.5 0,10"
       id="ref-S-top-3"
       sodipodi:insensitive="true"
       inkscape:connector-curvature="0" />
    <path
       style="opacity:0.5;fill:none;stroke:#ffc200;stroke-width:1px;stroke-linecap:square"
       d="m 211,30.5 0,10"
       id="ref-S-top-4"
       sodipodi:insensitive="true"
       inkscape:connector-curvature="0" />
    <path
       style="opacity:0.5;fill:none;stroke:#00ff00;stroke-width:1px;stroke-linecap:square"
       d="m 199,30.5 0,10"
       id="ref-I-top-1"
       sodipodi:insensitive="true"
       inkscape:connector-curvature="0" />
    <path
       style="opacity:0.5;fill:none;stroke:#00ff00;stroke-width:1px;stroke-linecap:square"
       d="m 201,30.5 0,10"
       id="ref-I-top-2"
       sodipodi:insensitive="true"
       inkscape:connector-curvature="0" />
    <path
       style="opacity:0.5;fill:none;stroke:#00ffcc;stroke-width:1px;stroke-linecap:square"
       d="m 66,30.5 0,10"
       id="ref-C-top-1"
       sodipodi:insensitive="true"
       inkscape:connector-curvature="0" />
    <path
       style="opacity:0.5;fill:none;stroke:#00ffcc;stroke-width:1px;stroke-linecap:square"
       d="m 68,30.5 0,10"
       id="ref-C-top-2"
       sodipodi:insensitive="true"
       inkscape:connector-curvature="0" />
    <path
       style="opacity:0.5;fill:none;stroke:#00ffcc;stroke-width:1px;stroke-linecap:square"
       d="m 92,30.5 0,10"
       id="ref-C-top-3"
       sodipodi:insensitive="true"
       inkscape:connector-curvature="0" />
    <path
       style="opacity:0.5;fill:none;stroke:#00ffcc;stroke-width:1px;stroke-linecap:square"
       d="m 94,30.5 0,10"
       id="ref-C-top-4"
       sodipodi:insensitive="true"
       inkscape:connector-curvature="0" />
    <path
       style="opacity:0.5;fill:none;stroke:#00ffcc;stroke-width:1px;stroke-linecap:square"
       d="m 306,30.5 0,10"
       id="ref-C-top-5"
       sodipodi:insensitive="true"
       inkscape:connector-curvature="0" />
    <path
       style="opacity:0.5;fill:none;stroke:#00ffcc;stroke-width:1px;stroke-linecap:square"
       d="m 308,30.5 0,10"
       id="ref-C-top-6"
       sodipodi:insensitive="true"
       inkscape:connector-curvature="0" />
    <path
       style="opacity:0.5;fill:none;stroke:#00ffcc;stroke-width:1px;stroke-linecap:square"
       d="m 332,30.5 0,10"
       id="ref-C-top-7"
       sodipodi:insensitive="true"
       inkscape:connector-curvature="0" />
    <path
       style="opacity:0.5;fill:none;stroke:#00ffcc;stroke-width:1px;stroke-linecap:square"
       d="m 334,30.5 0,10"
       id="ref-C-top-8"
       sodipodi:insensitive="true"
       inkscape:connector-curvature="0" />
    <path
       style="opacity:0.5;fill:none;stroke:#ffc200;stroke-width:1px;stroke-linecap:square"
       d="m 369.5,189 -10,0"
       id="ref-S-right-1"
       sodipodi:insensitive="true"
       inkscape:connector-curvature="0" />
    <path
       style="opacity:0.5;fill:none;stroke:#ffc200;stroke-width:1px;stroke-linecap:square"
       d="m 369.5,191 -10,0"
       id="ref-S-right-2"
       sodipodi:insensitive="true"
       inkscape:connector-curvature="0" />
    <path
       style="opacity:0.5;fill:none;stroke:#ffc200;stroke-width:1px;stroke-linecap:square"
       d="m 369.5,209 -10,0"
       id="ref-S-right-3"
       sodipodi:insensitive="true"
       inkscape:connector-curvature="0" />
    <path
       style="opacity:0.5;fill:none;stroke:#ffc200;stroke-width:1px;stroke-linecap:square"
       d="m 369.5,211 -10,0"
       id="ref-S-right-4"
       sodipodi:insensitive="true"
       inkscape:connector-curvature="0" />
    <path
       style="opacity:0.5;fill:none;stroke:#00ff00;stroke-width:1px;stroke-linecap:square"
       d="m 369.5,199 -10,0"
       id="ref-I-right-1"
       sodipodi:insensitive="true"
       inkscape:connector-curvature="0" />
    <path
       style="opacity:0.5;fill:none;stroke:#00ff00;stroke-width:1px;stroke-linecap:square"
       d="m 369.5,201 -10,0"
       id="ref-I-right-2"
       sodipodi:insensitive="true"
       inkscape:connector-curvature="0" />
    <path
       style="opacity:0.5;fill:none;stroke:#00ffcc;stroke-width:1px;stroke-linecap:square"
       d="m 369.5,66 -10,0"
       id="ref-C-right-1"
       sodipodi:insensitive="true"
       inkscape:connector-curvature="0" />
    <path
       style="opacity:0.5;fill:none;stroke:#00ffcc;stroke-width:1px;stroke-linecap:square"
       d="m 369.5,68 -10,0"
       id="ref-C-right-2"
       sodipodi:insensitive="true"
       inkscape:connector-curvature="0" />
    <path
       style="opacity:0.5;fill:none;stroke:#00ffcc;stroke-width:1px;stroke-linecap:square"
       d="m 369.5,92 -10,0"
       id="ref-C-right-3"
       sodipodi:insensitive="true"
       inkscape:connector-curvature="0" />
    <path
       style="opacity:0.5;fill:none;stroke:#00ffcc;stroke-width:1px;stroke-linecap:square"
       d="m 369.5,94 -10,0"
       id="ref-C-right-4"
       sodipodi:insensitive="true"
       inkscape:connector-curvature="0" />
    <path
       style="opacity:0.5;fill:none;stroke:#00ffcc;stroke-width:1px;stroke-linecap:square"
       d="m 369.5,306 -10,0"
       id="ref-C-right-5"
       sodipodi:insensitive="true"
       inkscape:connector-curvature="0" />
    <path
       style="opacity:0.5;fill:none;stroke:#00ffcc;stroke-width:1px;stroke-linecap:square"
       d="m 369.5,308 -10,0"
       id="ref-C-right-6"
       sodipodi:insensitive="true"
       inkscape:connector-curvature="0" />
    <path
       style="opacity:0.5;fill:none;stroke:#00ffcc;stroke-width:1px;stroke-linecap:square"
       d="m 369.5,332 -10,0"
       id="ref-C-right-7"
       sodipodi:insensitive="true"
       inkscape:connector-curvature="0" />
    <path
       style="opacity:0.5;fill:none;stroke:#00ffcc;stroke-width:1px;stroke-linecap:square"
       d="m 369.5,334 -10,0"
       id="ref-C-right-8"
       sodipodi:insensitive="true"
       inkscape:connector-curvature="0" />
    <path
       style="opacity:0.5;fill:none;stroke:#ffc200;stroke-width:1px;stroke-linecap:square"
       d="m 189,369.5 0,-10"
       id="ref-S-bottom-1"
       sodipodi:insensitive="true"
       inkscape:connector-curvature="0" />
    <path
       style="opacity:0.5;fill:none;stroke:#ffc200;stroke-width:1px;stroke-linecap:square"
       d="m 191,369.5 0,-10"
       id="ref-S-bottom-2"
       sodipodi:insensitive="true"
       inkscape:connector-curvature="0" />
    <path
       style="opacity:0.5;fill:none;stroke:#ffc200;stroke-width:1px;stroke-linecap:square"
       d="m 209,369.5 0,-10"
       id="ref-S-bottom-3"
       sodipodi:insensitive="true"
       inkscape:connector-curvature="0" />
    <path
       style="opacity:0.5;fill:none;stroke:#ffc200;stroke-width:1px;stroke-linecap:square"
       d="m 211,369.5 0,-10"
       id="ref-S-bottom-4"
       sodipodi:insensitive="true"
       inkscape:connector-curvature="0" />
    <path
       style="opacity:0.5;fill:none;stroke:#00ff00;stroke-width:1px;stroke-linecap:square"
       d="m 199,369.5 0,-10"
       id="ref-I-bottom-1"
       sodipodi:insensitive="true"
       inkscape:connector-curvature="0" />
    <path
       style="opacity:0.5;fill:none;stroke:#00ff00;stroke-width:1px;stroke-linecap:square"
       d="m 201,369.5 0,-10"
       id="ref-I-bottom-2"
       sodipodi:insensitive="true"
       inkscape:connector-curvature="0" />
    <path
       style="opacity:0.5;fill:none;stroke:#00ffcc;stroke-width:1px;stroke-linecap:square"
       d="m 66,369.5 0,-10"
       id="ref-C-bottom-1"
       sodipodi:insensitive="true"
       inkscape:connector-curvature="0" />
    <path
       style="opacity:0.5;fill:none;stroke:#00ffcc;stroke-width:1px;stroke-linecap:square"
       d="m 68,369.5 0,-10"
       id="ref-C-bottom-2"
       sodipodi:insensitive="true"
       inkscape:connector-curvature="0" />
    <path
       style="opacity:0.5;fill:none;stroke:#00ffcc;stroke-width:1px;stroke-linecap:square"
       d="m 92,369.5 0,-10"
       id="ref-C-bottom-3"
       sodipodi:insensitive="true"
       inkscape:connector-curvature="0" />
    <path
       style="opacity:0.5;fill:none;stroke:#00ffcc;stroke-width:1px;stroke-linecap:square"
       d="m 94,369.5 0,-10"
       id="ref-C-bottom-4"
       sodipodi:insensitive="true"
       inkscape:connector-curvature="0" />
    <path
       style="opacity:0.5;fill:none;stroke:#00ffcc;stroke-width:1px;stroke-linecap:square"
       d="m 306,369.5 0,-10"
       id="ref-C-bottom-5"
       sodipodi:insensitive="true"
       inkscape:connector-curvature="0" />
    <path
       style="opacity:0.5;fill:none;stroke:#00ffcc;stroke-width:1px;stroke-linecap:square"
       d="m 308,369.5 0,-10"
       id="ref-C-bottom-6"
       sodipodi:insensitive="true"
       inkscape:connector-curvature="0" />
    <path
       style="opacity:0.5;fill:none;stroke:#00ffcc;stroke-width:1px;stroke-linecap:square"
       d="m 332,369.5 0,-10"
       id="ref-C-bottom-7"
       sodipodi:insensitive="true"
       inkscape:connector-curvature="0" />
    <path
       style="opacity:0.5;fill:none;stroke:#00ffcc;stroke-width:1px;stroke-linecap:square"
       d="m 334,369.5 0,-10"
       id="ref-C-bottom-8"
       sodipodi:insensitive="true"
       inkscape:connector-curvature="0" />
    <path
       style="opacity:0.5;fill:none;stroke:#ffc200;stroke-width:1px;stroke-linecap:square"
       d="m 30.5,189 10,0"
       id="ref-S-left-1"
       sodipodi:insensitive="true"
       inkscape:connector-curvature="0" />
    <path
       style="opacity:0.5;fill:none;stroke:#ffc200;stroke-width:1px;stroke-linecap:square"
       d="m 30.5,191 10,0"
       id="ref-S-left-2"
       sodipodi:insensitive="true"
       inkscape:connector-curvature="0" />
    <path
       style="opacity:0.5;fill:none;stroke:#ffc200;stroke-width:1px;stroke-linecap:square"
       d="m 30.5,209 10,0"
       id="ref-S-left-3"
       sodipodi:insensitive="true"
       inkscape:connector-curvature="0" />
    <path
       style="opacity:0.5;fill:none;stroke:#ffc200;stroke-width:1px;stroke-linecap:square"
       d="m 30.5,211 10,0"
       id="ref-S-left-4"
       sodipodi:insensitive="true"
       inkscape:connector-curvature="0" />
    <path
       style="opacity:0.5;fill:none;stroke:#00ff00;stroke-width:1px;stroke-linecap:square"
       d="m 40.5,199 -10,0"
       id="ref-I-left-1"
       sodipodi:insensitive="true"
       inkscape:connector-curvature="0" />
    <path
       style="opacity:0.5;fill:none;stroke:#00ff00;stroke-width:1px;stroke-linecap:square"
       d="m 40.5,201 -10,0"
       id="ref-I-left-2"
       sodipodi:insensitive="true"
       inkscape:connector-curvature="0" />
    <path
       style="opacity:0.5;fill:none;stroke:#00ffcc;stroke-width:1px;stroke-linecap:square"
       d="m 30.5,66 10,0"
       id="ref-C-left-1"
       sodipodi:insensitive="true"
       inkscape:connector-curvature="0" />
    <path
       style="opacity:0.5;fill:none;stroke:#00ffcc;stroke-width:1px;stroke-linecap:square"
       d="m 30.5,68 10,0"
       id="ref-C-left-2"
       sodipodi:insensitive="true"
       inkscape:connector-curvature="0" />
    <path
       style="opacity:0.5;fill:none;stroke:#00ffcc;stroke-width:1px;stroke-linecap:square"
       d="m 30.5,92 10,0"
       id="ref-C-left-3"
       sodipodi:insensitive="true"
       inkscape:connector-curvature="0" />
    <path
       style="opacity:0.5;fill:none;stroke:#00ffcc;stroke-width:1px;stroke-linecap:square"
       d="m 30.5,94 10,0"
       id="ref-C-left-4"
       sodipodi:insensitive="true"
       inkscape:connector-curvature="0" />
    <path
       style="opacity:0.5;fill:none;stroke:#00ffcc;stroke-width:1px;stroke-linecap:square"
       d="m 30.5,306 10,0"
       id="ref-C-left-5"
       sodipodi:insensitive="true"
       inkscape:connector-curvature="0" />
    <path
       style="opacity:0.5;fill:none;stroke:#00ffcc;stroke-width:1px;stroke-linecap:square"
       d="m 30.5,308 10,0"
       id="ref-C-left-6"
       sodipodi:insensitive="true"
       inkscape:connector-curvature="0" />
    <path
       style="opacity:0.5;fill:none;stroke:#00ffcc;stroke-width:1px;stroke-linecap:square"
       d="m 30.5,332 10,0"
       id="ref-C-left-7"
       sodipodi:insensitive="true"
       inkscape:connector-curvature="0" />
    <path
       style="opacity:0.5;fill:none;stroke:#00ffcc;stroke-width:1px;stroke-linecap:square"
       d="m 30.5,334 10,0"
       id="ref-C-left-8"
       sodipodi:insensitive="true"
       inkscape:connector-curvature="0" />
    <path
       style="fill:none;stroke:#000000;stroke-width:1px;stroke-linecap:square"
       d="m 190,30.5 0,10"
       id="S-top-1"
       inkscape:connector-curvature="0" />
    <path
       style="fill:none;stroke:#000000;stroke-width:1px;stroke-linecap:square"
       d="m 210,30.5 0,10"
       id="S-top-2"
       inkscape:connector-curvature="0" />
    <path
       style="fill:none;stroke:#000000;stroke-width:1px;stroke-linecap:square"
       d="m 369.5,190 -10,0"
       id="S-right-1"
       inkscape:connector-curvature="0" />
    <path
       style="fill:none;stroke:#000000;stroke-width:1px;stroke-linecap:square"
       d="m 369.5,210 -10,0"
       id="S-right-2"
       inkscape:connector-curvature="0" />
    <path
       style="fill:none;stroke:#000000;stroke-width:1px;stroke-linecap:square"
       d="m 190,369.5 0,-10"
       id="S-bottom-1"
       inkscape:connector-curvature="0" />
    <path
       style="fill:none;stroke:#000000;stroke-width:1px;stroke-linecap:square"
       d="m 210,369.5 0,-10"
       id="S-bottom-2"
       inkscape:connector-curvature="0" />
    <path
       style="fill:none;stroke:#000000;stroke-width:1px;stroke-linecap:square"
       d="m 30.5,190 10,0"
       id="S-left-1"
       inkscape:connector-curvature="0" />
    <path
       style="fill:none;stroke:#000000;stroke-width:1px;stroke-linecap:square"
       d="m 30.5,210 10,0"
       id="S-left-2"
       inkscape:connector-curvature="0" />
    <path
       style="fill:none;stroke:#000000;stroke-width:1px;stroke-linecap:square"
       d="m 200,30.5 0,10"
       id="I-top-1"
       inkscape:connector-curvature="0" />
    <path
       style="fill:none;stroke:#000000;stroke-width:1px;stroke-linecap:square"
       d="m 369.5,200 -10,0"
       id="I-right-1"
       inkscape:connector-curvature="0" />
    <path
       style="fill:none;stroke:#000000;stroke-width:1px;stroke-linecap:square"
       d="m 200,369.5 0,-10"
       id="I-bottom-1"
       inkscape:connector-curvature="0" />
    <path
       style="fill:none;stroke:#000000;stroke-width:1px;stroke-linecap:square"
       d="m 40.5,200 -10,0"
       id="I-left-1"
       inkscape:connector-curvature="0" />
    <path
       style="fill:none;stroke:#000000;stroke-width:1px;stroke-linecap:square"
       d="m 67,30.5 0,10"
       id="C-top-1"
       inkscape:connector-curvature="0" />
    <path
       style="fill:none;stroke:#000000;stroke-width:1px;stroke-linecap:square"
       d="m 93,30.5 0,10"
       id="C-top-2"
       inkscape:connector-curvature="0" />
    <path
       style="fill:none;stroke:#000000;stroke-width:1px;stroke-linecap:square"
       d="m 307,30.5 0,10"
       id="C-top-3"
       inkscape:connector-curvature="0" />
    <path
       style="fill:none;stroke:#000000;stroke-width:1px;stroke-linecap:square"
       d="m 333,30.5 0,10"
       id="C-top-4"
       inkscape:connector-curvature="0" />
    <path
       style="fill:none;stroke:#000000;stroke-width:1px;stroke-linecap:square"
       d="m 369.5,67 -10,0"
       id="C-right-1"
       inkscape:connector-curvature="0" />
    <path
       style="fill:none;stroke:#000000;stroke-width:1px;stroke-linecap:square"
       d="m 369.5,93 -10,0"
       id="C-right-2"
       inkscape:connector-curvature="0" />
    <path
       style="fill:none;stroke:#000000;stroke-width:1px;stroke-linecap:square"
       d="m 369.5,307 -10,0"
       id="C-right-3"
       inkscape:connector-curvature="0" />
    <path
       style="fill:none;stroke:#000000;stroke-width:1px;stroke-linecap:square"
       d="m 369.5,333 -10,0"
       id="C-right-4"
       inkscape:connector-curvature="0" />
    <path
       style="fill:none;stroke:#000000;stroke-width:1px;stroke-linecap:square"
       d="m 67,369.5 0,-10"
       id="C-bottom-1"
       inkscape:connector-curvature="0" />
    <path
       style="fill:none;stroke:#000000;stroke-width:1px;stroke-linecap:square"
       d="m 93,369.5 0,-10"
       id="C-bottom-2"
       inkscape:connector-curvature="0" />
    <path
       style="fill:none;stroke:#000000;stroke-width:1px;stroke-linecap:square"
       d="m 307,369.5 0,-10"
       id="C-bottom-3"
       inkscape:connector-curvature="0" />
    <path
       style="fill:none;stroke:#000000;stroke-width:1px;stroke-linecap:square"
       d="m 333,369.5 0,-10"
       id="C-bottom-4"
       inkscape:connector-curvature="0" />
    <path
       style="fill:none;stroke:#000000;stroke-width:1px;stroke-linecap:square"
       d="m 30.5,67 10,0"
       id="C-left-1"
       inkscape:connector-curvature="0" />
    <path
       style="fill:none;stroke:#000000;stroke-width:1px;stroke-linecap:square"
       d="m 30.5,93 10,0"
       id="C-left-2"
       inkscape:connector-curvature="0" />
    <path
       style="fill:none;stroke:#000000;stroke-width:1px;stroke-linecap:square"
       d="m 30.5,307 10,0"
       id="C-left-3"
       inkscape:connector-curvature="0" />
    <path
       style="fill:none;stroke:#000000;stroke-width:1px;stroke-linecap:square"
       d="m 30.5,333 10,0"
       id="C-left-4"
       inkscape:connector-curvature="0" />
  </g>
  <g
     inkscape:groupmode="layer"
     id="layer1"
     inkscape:label="XX_BUILD"
     style="display:none"
     sodipodi:insensitive="true">
    <rect
       style="color:#000000;fill:none;stroke:#0000ff;stroke-width:1;marker:none;visibility:visible;display:inline;overflow:visible;enable-background:accumulate"
       id="rect3099"
       width="200"
       height="26"
       x="175"
       y="67"
       rx="13"
       ry="13" />
    <rect
       ry="20"
       rx="20"
       y="93"
       x="307"
       height="214"
       width="200"
       id="rect3102"
       style="color:#000000;fill:none;stroke:#0000ff;stroke-width:1;marker:none;visibility:visible;display:inline;overflow:visible;enable-background:accumulate" />
    <path
       style="fill:none;stroke:#000000;stroke-width:1px;stroke-linecap:square;display:inline"
       d="m 200,369.5 0,-277"
       id="I-bottom-1-6"
       inkscape:connector-curvature="0"
       sodipodi:nodetypes="cc" />
  </g>
  <g
     style="display:none"
     inkscape:label="RR-001"
     id="g3297"
     inkscape:groupmode="layer"
     sodipodi:insensitive="true">
    <path
       id="path3301"
       style="fill:#ffffff;stroke:none;display:inline"
       d="m 248,173 75,0 c 11.08,0 20,8.92 20,20 0,11.08 -8.92,20 -20,20 l -75,0 z m 0,80 75,0 c 11.08,0 20,8.92 20,20 0,11.08 -8.92,20 -20,20 l -75,0 z"
       inkscape:connector-curvature="0"
       sodipodi:nodetypes="cssscccssscc" />
    <path
       sodipodi:nodetypes="csssccsssccccc"
       inkscape:connector-curvature="0"
       d="m 248,173 75,0 c 11.08,0 20,8.92 20,20 0,11.08 -8.92,20 -20,20 l -75,0 m 0,40 75,0 c 11.08,0 20,8.92 20,20 0,11.08 -8.92,20 -20,20 l -75,0 m 0,40 68,0 43.5,0 10,0"
       style="fill:none;stroke:#000000;stroke-width:1px;stroke-linecap:square;display:inline"
       id="path3299" />
  </g>
  <g
     inkscape:groupmode="layer"
     id="g3351"
     inkscape:label="RR-002"
     style="display:inline"
     sodipodi:insensitive="true">
    <path
       sodipodi:nodetypes="cssscccssscc"
       inkscape:connector-curvature="0"
       d="m 248,173 62,0 c 11.08,0 20,8.92 20,20 0,11.08 -8.92,20 -20,20 l -62,0 z m 0,80 62,0 c 11.08,0 20,8.92 20,20 0,11.08 -8.92,20 -20,20 l -62,0 z"
       style="fill:#ffffff;stroke:none;display:inline"
       id="path3353" />
    <path
       id="path3355"
       style="fill:none;stroke:#000000;stroke-width:1px;stroke-linecap:square;display:inline"
       d="m 248,173 62,0 c 11.08,0 20,8.92 20,20 0,11.08 -8.92,20 -20,20 l -62,0 m 0,40 62,0 c 11.08,0 20,8.92 20,20 0,11.08 -8.92,20 -20,20 l -62,0 m 0,40 68,0 43.5,0 10,0"
       inkscape:connector-curvature="0"
       sodipodi:nodetypes="csssccsssccccc" />
  </g>
  <g
     style="display:none"
     inkscape:label="RR-003"
     id="g3357"
     inkscape:groupmode="layer"
     sodipodi:insensitive="true">
    <path
       id="path3359"
       style="fill:#ffffff;stroke:none;display:inline"
       d="m 248,173 182,0 c 11.08,0 20,8.92 20,20 0,11.08 -8.92,20 -20,20 l -182,0 z m 0,80 182,0 c 11.08,0 20,8.92 20,20 0,11.08 -8.92,20 -20,20 l -182,0 z"
       inkscape:connector-curvature="0"
       sodipodi:nodetypes="cssscccssscc" />
    <path
       sodipodi:nodetypes="csssccsssccccc"
       inkscape:connector-curvature="0"
       d="m 248,173 182,0 c 11.08,0 20,8.92 20,20 0,11.08 -8.92,20 -20,20 l -182,0 m 0,40 182,0 c 11.08,0 20,8.92 20,20 0,11.08 -8.92,20 -20,20 l -182,0 m 0,40 68,0 43.5,0 10,0"
       style="fill:none;stroke:#000000;stroke-width:1px;stroke-linecap:square;display:inline"
       id="path3361" />
  </g>
  <g
     inkscape:label="RL-001"
     id="g3291"
     inkscape:groupmode="layer"
     sodipodi:insensitive="true"
     style="display:none">
    <path
       id="path3295"
       style="fill:#ffffff;stroke:none;display:inline"
       d="m 273,293 -95,0 c -11.08,0 -20,8.92 -20,20 0,11.08 8.92,20 20,20 l 95,0 z m -20,-80 -77,0 c -11.08,0 -20,8.92 -20,20 0,11.08 8.92,20 20,20 l 77,0 z m 0,-80 -77,0 c -11.08,0 -20,8.92 -20,20 0,11.08 8.92,20 20,20 l 77,0 z"
       inkscape:connector-curvature="0"
       sodipodi:nodetypes="cssscccssscccssscc" />
    <path
       sodipodi:nodetypes="csssccsssccsssc"
       inkscape:connector-curvature="0"
       d="m 253,293 -75,0 c -11.08,0 -20,8.92 -20,20 0,11.08 8.92,20 20,20 l 75,0 m 0,-120 -77,0 c -11.08,0 -20,8.92 -20,20 0,11.08 8.92,20 20,20 l 77,0 m 0,-120 -77,0 c -11.08,0 -20,8.92 -20,20 0,11.08 8.92,20 20,20 l 77,0"
       style="fill:none;stroke:#000000;stroke-width:1px;stroke-linecap:square;display:inline"
       id="path3293" />
  </g>
  <g
     inkscape:groupmode="layer"
     id="g3303"
     inkscape:label="RL-002"
     style="display:none"
     sodipodi:insensitive="true">
    <path
       sodipodi:nodetypes="cssscccssscccssscc"
       inkscape:connector-curvature="0"
       d="m 273,293 -185,0 c -11.08,0 -20,8.92 -20,20 0,11.08 8.92,20 20,20 l 185,0 z m -20,-80 -167,0 c -11.08,0 -20,8.92 -20,20 0,11.08 8.92,20 20,20 l 167,0 z m 0,-80 -167,0 c -11.08,0 -20,8.92 -20,20 0,11.08 8.92,20 20,20 l 167,0 z"
       style="fill:#ffffff;stroke:none;display:inline"
       id="path3305" />
    <path
       id="path3307"
       style="fill:none;stroke:#000000;stroke-width:1px;stroke-linecap:square;display:inline"
       d="m 253,293 -165,0 c -11.08,0 -20,8.92 -20,20 0,11.08 8.92,20 20,20 l 165,0 m 0,-120 -167,0 c -11.08,0 -20,8.92 -20,20 0,11.08 8.92,20 20,20 l 167,0 m 0,-120 -167,0 c -11.08,0 -20,8.92 -20,20 0,11.08 8.92,20 20,20 l 167,0"
       inkscape:connector-curvature="0"
       sodipodi:nodetypes="csssccsssccsssc" />
  </g>
  <g
     inkscape:label="RL-003"
     id="g3313"
     inkscape:groupmode="layer"
     sodipodi:insensitive="true">
    <path
       id="path3315"
       style="fill:#ffffff;stroke:none;display:inline"
       d="m 273,293 -80,0 c -11.08,0 -20,8.92 -20,20 0,11.08 8.92,20 20,20 l 80,0 z m -20,-80 -92,0 c -11.08,0 -20,8.92 -20,20 0,11.08 8.92,20 20,20 l 92,0 z m 0,-80 -122,0 c -11.08,0 -20,8.92 -20,20 0,11.08 8.92,20 20,20 l 122,0 z"
       inkscape:connector-curvature="0"
       sodipodi:nodetypes="cssscccssscccssscc" />
    <path
       sodipodi:nodetypes="csssccsssccsssc"
       inkscape:connector-curvature="0"
       d="m 253,293 -60,0 c -11.08,0 -20,8.92 -20,20 0,11.08 8.92,20 20,20 l 60,0 m 0,-120 -92,0 c -11.08,0 -20,8.92 -20,20 0,11.08 8.92,20 20,20 l 92,0 m 0,-120 -122,0 c -11.08,0 -20,8.92 -20,20 0,11.08 8.92,20 20,20 l 122,0"
       style="fill:none;stroke:#000000;stroke-width:1px;stroke-linecap:square;display:inline"
       id="path3317" />
  </g>
  <g
     inkscape:groupmode="layer"
     id="layer3"
     inkscape:label="StR-001"
     style="display:inline"
     sodipodi:insensitive="true">
    <path
       id="path3200"
       style="fill:#ffffff;stroke:none;display:inline"
       d="m 210,67 159.5,0 0,26 -42.5,0 c -11.08,0 -20,8.92 -20,20 l 0,174 c 0,11.08 8.92,20 20,20 l 42.5,0 -159.5,0 z"
       inkscape:connector-curvature="0"
       sodipodi:nodetypes="ccccsscccc" />
    <path
       id="C-right-3-4"
       style="fill:none;stroke:#000000;stroke-width:1px;stroke-linecap:square;display:inline"
       d="m 369.5,93 -10,0 -32.5,0 c -11.08,0 -20,8.92 -20,20 l 0,174 c 0,11.08 8.92,20 20,20 l 32.5,0 10,0"
       inkscape:connector-curvature="0"
       sodipodi:nodetypes="cccssccc" />
  </g>
  <g
     style="display:none"
     inkscape:label="StR-002"
     id="g3341"
     inkscape:groupmode="layer"
     sodipodi:insensitive="true">
    <path
       sodipodi:nodetypes="ccccsscccc"
       inkscape:connector-curvature="0"
       d="m 210,67 159.5,0 0,26 -85.5,0 c -11.08,0 -20,8.92 -20,20 l 0,174 c 0,11.08 8.92,20 20,20 l 85.5,0 -159.5,0 z"
       style="fill:#ffffff;stroke:none;display:inline"
       id="path3343" />
    <path
       sodipodi:nodetypes="cccssccc"
       inkscape:connector-curvature="0"
       d="m 369.5,93 -10,0 -75.5,0 c -11.08,0 -20,8.92 -20,20 l 0,174 c 0,11.08 8.92,20 20,20 l 75.5,0 10,0"
       style="fill:none;stroke:#000000;stroke-width:1px;stroke-linecap:square;display:inline"
       id="path3345" />
  </g>
  <g
     inkscape:groupmode="layer"
     id="layer2"
     inkscape:label="StO-001"
     style="display:none"
     sodipodi:insensitive="true">
    <path
       sodipodi:nodetypes="csscsscccc"
       inkscape:connector-curvature="0"
       d="m 230,67 -102,0 c -7.202,0 -13,5.798 -13,13 0,7.202 5.798,13 13,13 l 12,0 40,0 c 11.08,0 20,8.92 20,20 l 0,256.5 30,0 z"
       style="fill:#ffffff;stroke:none;display:inline"
       id="path3196" />
    <path
       id="C-right-1-0"
       style="fill:none;stroke:#000000;stroke-width:1px;stroke-linecap:square;display:inline"
       d="m 200,369.5 0,-27 0,-229.5 c 0,-11.08 -8.92,-20 -20,-20 l -40,0 -12,0 c -7.202,0 -13,-5.798 -13,-13 0,-7.202 5.798,-13 13,-13 l 231.5,0 10,0"
       inkscape:connector-curvature="0"
       sodipodi:nodetypes="ccsscssccc" />
  </g>
  <g
     style="display:inline"
     inkscape:label="StO-002"
     id="g3329"
     inkscape:groupmode="layer"
     sodipodi:insensitive="true">
    <path
       id="path3331"
       style="fill:#ffffff;stroke:none;display:inline"
       d="M 230,67 46,67 c -7.202,0 -13,5.798 -13,13 0,7.202 5.798,13 13,13 l 12,0 122,0 c 11.08,0 20,8.92 20,20 l 0,256.5 30,0 z"
       inkscape:connector-curvature="0"
       sodipodi:nodetypes="csscsscccc" />
    <path
       sodipodi:nodetypes="ccsscssccc"
       inkscape:connector-curvature="0"
       d="m 200,369.5 0,-27 0,-229.5 c 0,-11.08 -8.92,-20 -20,-20 L 58,93 46,93 C 38.798,93 33,87.202 33,80 33,72.798 38.798,67 46,67 l 313.5,0 10,0"
       style="fill:none;stroke:#000000;stroke-width:1px;stroke-linecap:square;display:inline"
       id="path3333" />
  </g>
  <g
     inkscape:groupmode="layer"
     id="g3335"
     inkscape:label="StO-003"
     style="display:none"
     sodipodi:insensitive="true">
    <path
       sodipodi:nodetypes="csscsscccc"
       inkscape:connector-curvature="0"
       d="m 230,67 -84,0 c -7.202,0 -13,5.798 -13,13 0,7.202 5.798,13 13,13 l 12,0 22,0 c 11.08,0 20,8.92 20,20 l 0,256.5 30,0 z"
       style="fill:#ffffff;stroke:none;display:inline"
       id="path3337" />
    <path
       id="path3339"
       style="fill:none;stroke:#000000;stroke-width:1px;stroke-linecap:square;display:inline"
       d="m 200,369.5 0,-27 0,-229.5 c 0,-11.08 -8.92,-20 -20,-20 l -22,0 -12,0 c -7.202,0 -13,-5.798 -13,-13 0,-7.202 5.798,-13 13,-13 l 213.5,0 10,0"
       inkscape:connector-curvature="0"
       sodipodi:nodetypes="ccsscssccc" />
  </g>
  <g
     inkscape:groupmode="layer"
     id="layer4"
     inkscape:label="RR-001"
     style="display:none"
     sodipodi:insensitive="true">
    <path
       id="C-right-4-4"
       style="fill:none;stroke:#000000;stroke-width:1px;stroke-linecap:square;display:inline"
       d="m 248,173 75,0 c 11.08,0 20,8.92 20,20 0,11.08 -8.92,20 -20,20 m -75,40 75,0 c 11.08,0 20,8.92 20,20 0,11.08 -8.92,20 -20,20 m -75,40 68,0 43.5,0 10,0"
       inkscape:connector-curvature="0"
       sodipodi:nodetypes="cssccssccccc" />
  </g>
  <g
     style="display:inline"
     inkscape:label="RR-002"
     id="g3347"
     inkscape:groupmode="layer"
     sodipodi:insensitive="true">
    <path
       sodipodi:nodetypes="cssccssccccc"
       inkscape:connector-curvature="0"
       d="m 248,173 62,0 c 11.08,0 20,8.92 20,20 0,11.08 -8.92,20 -20,20 m -62,40 62,0 c 11.08,0 20,8.92 20,20 0,11.08 -8.92,20 -20,20 m -62,40 68,0 43.5,0 10,0"
       style="fill:none;stroke:#000000;stroke-width:1px;stroke-linecap:square;display:inline"
       id="path3349" />
  </g>
  <g
     inkscape:groupmode="layer"
     id="g3363"
     inkscape:label="RR-003"
     style="display:none"
     sodipodi:insensitive="true">
    <path
       id="path3365"
       style="fill:none;stroke:#000000;stroke-width:1px;stroke-linecap:square;display:inline"
       d="m 248,173 182,0 c 11.08,0 20,8.92 20,20 0,11.08 -8.92,20 -20,20 m -182,40 182,0 c 11.08,0 20,8.92 20,20 0,11.08 -8.92,20 -20,20 m -182,40 68,0 43.5,0 10,0"
       inkscape:connector-curvature="0"
       sodipodi:nodetypes="cssccssccccc" />
  </g>
  <g
     inkscape:groupmode="layer"
     id="layer5"
     inkscape:label="RL-001"
     style="display:none"
     sodipodi:insensitive="true">
    <path
       id="path3443"
       style="fill:none;stroke:#000000;stroke-width:1px;stroke-linecap:square;display:inline"
       d="m 178,293 c -11.08,0 -20,8.92 -20,20 0,11.08 8.92,20 20,20 l 75,0 M 176,213 c -11.08,0 -20,8.92 -20,20 0,11.08 8.92,20 20,20 l 77,0 M 176,133 c -11.08,0 -20,8.92 -20,20 0,11.08 8.92,20 20,20 l 77,0"
       inkscape:connector-curvature="0"
       sodipodi:nodetypes="cssccssccssc" />
  </g>
  <g
     style="display:none"
     inkscape:label="RL-002"
     id="g3309"
     inkscape:groupmode="layer"
     sodipodi:insensitive="true">
    <path
       sodipodi:nodetypes="cssccssccssc"
       inkscape:connector-curvature="0"
       d="m 88,293 c -11.08,0 -20,8.92 -20,20 0,11.08 8.92,20 20,20 l 165,0 M 86,213 c -11.08,0 -20,8.92 -20,20 0,11.08 8.92,20 20,20 l 167,0 M 86,133 c -11.08,0 -20,8.92 -20,20 0,11.08 8.92,20 20,20 l 167,0"
       style="fill:none;stroke:#000000;stroke-width:1px;stroke-linecap:square;display:inline"
       id="path3311" />
  </g>
  <g
     inkscape:groupmode="layer"
     id="g3319"
     inkscape:label="RL-003"
     style="display:inline"
     sodipodi:insensitive="true">
    <path
       id="path3321"
       style="fill:none;stroke:#000000;stroke-width:1px;stroke-linecap:square;display:inline"
       d="m 193,293 c -11.08,0 -20,8.92 -20,20 0,11.08 8.92,20 20,20 l 60,0 M 161,213 c -11.08,0 -20,8.92 -20,20 0,11.08 8.92,20 20,20 l 92,0 M 131,133 c -11.08,0 -20,8.92 -20,20 0,11.08 8.92,20 20,20 l 122,0"
       inkscape:connector-curvature="0"
       sodipodi:nodetypes="cssccssccssc" />
  </g>
</svg>
