<?xml version="1.0" encoding="UTF-8" standalone="no"?>
<!-- Created with Inkscape (http://www.inkscape.org/) -->

<svg
   xmlns:dc="http://purl.org/dc/elements/1.1/"
   xmlns:cc="http://creativecommons.org/ns#"
   xmlns:rdf="http://www.w3.org/1999/02/22-rdf-syntax-ns#"
   xmlns:svg="http://www.w3.org/2000/svg"
   xmlns="http://www.w3.org/2000/svg"
   xmlns:sodipodi="http://sodipodi.sourceforge.net/DTD/sodipodi-0.dtd"
   xmlns:inkscape="http://www.inkscape.org/namespaces/inkscape"
   style="display:inline"
   sodipodi:docname="161107_AOSOU-R+_00_UW_00_UW_.svg"
   inkscape:version="0.48.3.1 r9886"
   version="1.1"
   id="svg2902"
   height="400"
   width="400">
  <sodipodi:namedview
     id="base"
     pagecolor="#ffffff"
     bordercolor="#666666"
     borderopacity="1.0"
     inkscape:pageopacity="0.0"
     inkscape:pageshadow="2"
     inkscape:zoom="1.0770706"
     inkscape:cx="56.691526"
     inkscape:cy="232.6996"
     inkscape:document-units="px"
     inkscape:current-layer="layer4"
     showgrid="false"
     inkscape:window-width="1018"
     inkscape:window-height="709"
     inkscape:window-x="0"
     inkscape:window-y="1"
     inkscape:window-maximized="0"
     showguides="true"
     inkscape:guide-bbox="true"
     inkscape:snap-bbox="true"
     inkscape:snap-global="false" />
  <defs
     id="defs2904">
    <inkscape:perspective
       sodipodi:type="inkscape:persp3d"
       inkscape:vp_x="0 : 200 : 1"
       inkscape:vp_y="0 : 1000 : 0"
       inkscape:vp_z="400 : 200 : 1"
       inkscape:persp3d-origin="200 : 133.33333 : 1"
       id="perspective3097" />
  </defs>
  <metadata
     id="metadata2907">
    <rdf:RDF>
      <cc:Work
         rdf:about="">
        <dc:format>image/svg+xml</dc:format>
        <dc:type
           rdf:resource="http://purl.org/dc/dcmitype/StillImage" />
        <dc:title />
      </cc:Work>
    </rdf:RDF>
  </metadata>
  <g
     inkscape:groupmode="layer"
     id="layer1"
     inkscape:label="XX_BG"
     style="display:inline"
     sodipodi:insensitive="true">
    <path
       style="color:#000000;fill:#ffd5e5;fill-opacity:1;fill-rule:nonzero;stroke:none;stroke-width:0;marker:none;visibility:visible;display:inline;overflow:visible;enable-background:accumulate"
       d="m 0,0 400,0 0,400 -400,0 z"
       id="rect3096"
       inkscape:connector-curvature="0" />
  </g>
  <g
     inkscape:label="XX_Referenz"
     inkscape:groupmode="layer"
     id="XX_referenz"
     layerid="XX_referenz"
     style="display:inline"
     sodipodi:insensitive="true">
    <path
       id="innerframe"
       style="fill:none;stroke:#ff0000;stroke-width:1;stroke-linecap:round;stroke-linejoin:miter;stroke-miterlimit:3.9000001;stroke-opacity:1;stroke-dasharray:none"
       d="m 40.500002,40.500004 318.999998,0 0,318.999996 -318.999997,0 0,-318.999996 z"
       inkscape:label="#innerframe"
       sodipodi:insensitive="true"
       inkscape:connector-curvature="0" />
    <path
       id="outerframe"
       style="fill:none;stroke:#ff0000;stroke-width:1;stroke-linecap:round;stroke-linejoin:miter;stroke-miterlimit:3.9000001;stroke-opacity:1;stroke-dasharray:none;display:inline"
       d="m 30.500003,30.5 338.999997,0 0,339 -338.999997,0 0,-339 z"
       inkscape:label="#outerframe"
       sodipodi:nodetypes="ccccc"
       sodipodi:insensitive="true"
       inkscape:connector-curvature="0" />
    <path
       style="opacity:0.5;fill:none;stroke:#ffc200;stroke-width:1.00000036px;stroke-linecap:square;stroke-linejoin:miter;stroke-opacity:1;display:inline"
       d="m 189,30.5 0,10.000237"
       id="ref-S-top-1"
       sodipodi:insensitive="true"
       inkscape:connector-curvature="0" />
    <path
       style="opacity:0.5;fill:none;stroke:#ffc200;stroke-width:1.00000036px;stroke-linecap:square;stroke-linejoin:miter;stroke-opacity:1;display:inline"
       d="m 191,30.5 0,10.000237"
       id="ref-S-top-2"
       sodipodi:insensitive="true"
       inkscape:connector-curvature="0" />
    <path
       style="opacity:0.5;fill:none;stroke:#ffc200;stroke-width:1.00000036px;stroke-linecap:square;stroke-linejoin:miter;stroke-opacity:1;display:inline"
       d="m 209,30.5 0,10.000237"
       id="ref-S-top-3"
       sodipodi:insensitive="true"
       inkscape:connector-curvature="0" />
    <path
       style="opacity:0.5;fill:none;stroke:#ffc200;stroke-width:1.00000036px;stroke-linecap:square;stroke-linejoin:miter;stroke-opacity:1;display:inline"
       d="m 211,30.5 0,10.000237"
       id="ref-S-top-4"
       sodipodi:insensitive="true"
       inkscape:connector-curvature="0" />
    <path
       style="opacity:0.5;fill:none;stroke:#00ff00;stroke-width:1.00000036px;stroke-linecap:square;stroke-linejoin:miter;stroke-opacity:1;display:inline"
       d="m 199,30.5 0,10.000237"
       id="ref-I-top-1"
       sodipodi:insensitive="true"
       inkscape:connector-curvature="0" />
    <path
       style="opacity:0.5;fill:none;stroke:#00ff00;stroke-width:1.00000036px;stroke-linecap:square;stroke-linejoin:miter;stroke-opacity:1;display:inline"
       d="m 201,30.5 0,10.000237"
       id="ref-I-top-2"
       sodipodi:insensitive="true"
       inkscape:connector-curvature="0" />
    <path
       style="opacity:0.5;color:#000000;fill:none;stroke:#00ffcc;stroke-width:1.00000036px;stroke-linecap:square;stroke-linejoin:miter;stroke-miterlimit:4;stroke-opacity:1;stroke-dasharray:none;stroke-dashoffset:0;marker:none;visibility:visible;display:inline;overflow:visible;enable-background:accumulate"
       d="m 66,30.5 0,10.000237"
       id="ref-C-top-1"
       sodipodi:insensitive="true"
       inkscape:connector-curvature="0" />
    <path
       style="opacity:0.5;color:#000000;fill:none;stroke:#00ffcc;stroke-width:1.00000036px;stroke-linecap:square;stroke-linejoin:miter;stroke-miterlimit:4;stroke-opacity:1;stroke-dasharray:none;stroke-dashoffset:0;marker:none;visibility:visible;display:inline;overflow:visible;enable-background:accumulate"
       d="m 68,30.5 0,10.000237"
       id="ref-C-top-2"
       sodipodi:insensitive="true"
       inkscape:connector-curvature="0" />
    <path
       style="opacity:0.5;color:#000000;fill:none;stroke:#00ffcc;stroke-width:1.00000036px;stroke-linecap:square;stroke-linejoin:miter;stroke-miterlimit:4;stroke-opacity:1;stroke-dasharray:none;stroke-dashoffset:0;marker:none;visibility:visible;display:inline;overflow:visible;enable-background:accumulate"
       d="m 92,30.5 0,10.000237"
       id="ref-C-top-3"
       sodipodi:insensitive="true"
       inkscape:connector-curvature="0" />
    <path
       style="opacity:0.5;color:#000000;fill:none;stroke:#00ffcc;stroke-width:1.00000036px;stroke-linecap:square;stroke-linejoin:miter;stroke-miterlimit:4;stroke-opacity:1;stroke-dasharray:none;stroke-dashoffset:0;marker:none;visibility:visible;display:inline;overflow:visible;enable-background:accumulate"
       d="m 94,30.5 0,10.000237"
       id="ref-C-top-4"
       sodipodi:insensitive="true"
       inkscape:connector-curvature="0" />
    <path
       style="opacity:0.5;color:#000000;fill:none;stroke:#00ffcc;stroke-width:1.00000036px;stroke-linecap:square;stroke-linejoin:miter;stroke-miterlimit:4;stroke-opacity:1;stroke-dasharray:none;stroke-dashoffset:0;marker:none;visibility:visible;display:inline;overflow:visible;enable-background:accumulate"
       d="m 306,30.5 0,10.000237"
       id="ref-C-top-5"
       sodipodi:insensitive="true"
       inkscape:connector-curvature="0" />
    <path
       style="opacity:0.5;color:#000000;fill:none;stroke:#00ffcc;stroke-width:1.00000036px;stroke-linecap:square;stroke-linejoin:miter;stroke-miterlimit:4;stroke-opacity:1;stroke-dasharray:none;stroke-dashoffset:0;marker:none;visibility:visible;display:inline;overflow:visible;enable-background:accumulate"
       d="m 308,30.5 0,10.000237"
       id="ref-C-top-6"
       sodipodi:insensitive="true"
       inkscape:connector-curvature="0" />
    <path
       style="opacity:0.5;color:#000000;fill:none;stroke:#00ffcc;stroke-width:1.00000036px;stroke-linecap:square;stroke-linejoin:miter;stroke-miterlimit:4;stroke-opacity:1;stroke-dasharray:none;stroke-dashoffset:0;marker:none;visibility:visible;display:inline;overflow:visible;enable-background:accumulate"
       d="m 332,30.5 0,10.000237"
       id="ref-C-top-7"
       sodipodi:insensitive="true"
       inkscape:connector-curvature="0" />
    <path
       style="opacity:0.5;color:#000000;fill:none;stroke:#00ffcc;stroke-width:1.00000036px;stroke-linecap:square;stroke-linejoin:miter;stroke-miterlimit:4;stroke-opacity:1;stroke-dasharray:none;stroke-dashoffset:0;marker:none;visibility:visible;display:inline;overflow:visible;enable-background:accumulate"
       d="m 334,30.5 0,10.000237"
       id="ref-C-top-8"
       sodipodi:insensitive="true"
       inkscape:connector-curvature="0" />
    <path
       style="color:#000000;fill:none;stroke:#000000;stroke-width:1.00000036px;stroke-linecap:square;stroke-linejoin:miter;stroke-miterlimit:4;stroke-opacity:1;stroke-dasharray:none;stroke-dashoffset:0;marker:none;visibility:visible;display:inline;overflow:visible;enable-background:accumulate"
       d="m 190,30.5 0,10.000237"
       id="S-top-1"
       inkscape:connector-curvature="0" />
    <path
       style="color:#000000;fill:none;stroke:#000000;stroke-width:1.00000036px;stroke-linecap:square;stroke-linejoin:miter;stroke-miterlimit:4;stroke-opacity:1;stroke-dasharray:none;stroke-dashoffset:0;marker:none;visibility:visible;display:inline;overflow:visible;enable-background:accumulate"
       d="m 210,30.5 0,10.000237"
       id="S-top-2"
       inkscape:connector-curvature="0" />
    <path
       style="fill:none;stroke:#000000;stroke-width:1.00000036px;stroke-linecap:square;stroke-linejoin:miter;stroke-opacity:1;display:inline"
       d="m 200,30.5 0,10.000237"
       id="I-top-1"
       inkscape:connector-curvature="0" />
    <path
       style="color:#000000;fill:none;stroke:#000000;stroke-width:1.00000036px;stroke-linecap:square;stroke-linejoin:miter;stroke-miterlimit:4;stroke-opacity:1;stroke-dasharray:none;stroke-dashoffset:0;marker:none;visibility:visible;display:inline;overflow:visible;enable-background:accumulate"
       d="m 67,30.5 0,10.000237"
       id="C-top-1"
       inkscape:connector-curvature="0" />
    <path
       style="color:#000000;fill:none;stroke:#000000;stroke-width:1.00000036px;stroke-linecap:square;stroke-linejoin:miter;stroke-miterlimit:4;stroke-opacity:1;stroke-dasharray:none;stroke-dashoffset:0;marker:none;visibility:visible;display:inline;overflow:visible;enable-background:accumulate"
       d="m 93,30.5 0,10.000237"
       id="C-top-2"
       inkscape:connector-curvature="0" />
    <path
       style="color:#000000;fill:none;stroke:#000000;stroke-width:1.00000036px;stroke-linecap:square;stroke-linejoin:miter;stroke-miterlimit:4;stroke-opacity:1;stroke-dasharray:none;stroke-dashoffset:0;marker:none;visibility:visible;display:inline;overflow:visible;enable-background:accumulate"
       d="m 307,30.5 0,10.000237"
       id="C-top-3"
       inkscape:connector-curvature="0" />
    <path
       style="color:#000000;fill:none;stroke:#000000;stroke-width:1.00000036px;stroke-linecap:square;stroke-linejoin:miter;stroke-miterlimit:4;stroke-opacity:1;stroke-dasharray:none;stroke-dashoffset:0;marker:none;visibility:visible;display:inline;overflow:visible;enable-background:accumulate"
       d="m 333,30.5 0,10.000237"
       id="C-top-4"
       inkscape:connector-curvature="0" />
    <path
       style="opacity:0.5;fill:none;stroke:#ffc200;stroke-width:1.00000036px;stroke-linecap:square;stroke-linejoin:miter;stroke-opacity:1;display:inline"
       d="m 369.5,189 -10.00024,0"
       id="ref-S-right-1"
       sodipodi:insensitive="true"
       inkscape:connector-curvature="0" />
    <path
       style="opacity:0.5;fill:none;stroke:#ffc200;stroke-width:1.00000036px;stroke-linecap:square;stroke-linejoin:miter;stroke-opacity:1;display:inline"
       d="m 369.5,191 -10.00024,0"
       id="ref-S-right-2"
       sodipodi:insensitive="true"
       inkscape:connector-curvature="0" />
    <path
       style="opacity:0.5;fill:none;stroke:#ffc200;stroke-width:1.00000036px;stroke-linecap:square;stroke-linejoin:miter;stroke-opacity:1;display:inline"
       d="m 369.5,209 -10.00024,0"
       id="ref-S-right-3"
       sodipodi:insensitive="true"
       inkscape:connector-curvature="0" />
    <path
       style="opacity:0.5;fill:none;stroke:#ffc200;stroke-width:1.00000036px;stroke-linecap:square;stroke-linejoin:miter;stroke-opacity:1;display:inline"
       d="m 369.5,211 -10.00024,0"
       id="ref-S-right-4"
       sodipodi:insensitive="true"
       inkscape:connector-curvature="0" />
    <path
       style="opacity:0.5;fill:none;stroke:#00ff00;stroke-width:1.00000036px;stroke-linecap:square;stroke-linejoin:miter;stroke-opacity:1;display:inline"
       d="m 369.5,199 -10.00024,0"
       id="ref-I-right-1"
       sodipodi:insensitive="true"
       inkscape:connector-curvature="0" />
    <path
       style="opacity:0.5;fill:none;stroke:#00ff00;stroke-width:1.00000036px;stroke-linecap:square;stroke-linejoin:miter;stroke-opacity:1;display:inline"
       d="m 369.5,201 -10.00024,0"
       id="ref-I-right-2"
       sodipodi:insensitive="true"
       inkscape:connector-curvature="0" />
    <path
       style="opacity:0.5;color:#000000;fill:none;stroke:#00ffcc;stroke-width:1.00000036px;stroke-linecap:square;stroke-linejoin:miter;stroke-miterlimit:4;stroke-opacity:1;stroke-dasharray:none;stroke-dashoffset:0;marker:none;visibility:visible;display:inline;overflow:visible;enable-background:accumulate"
       d="m 369.5,66 -10.00023,0"
       id="ref-C-right-1"
       sodipodi:insensitive="true"
       inkscape:connector-curvature="0" />
    <path
       style="opacity:0.5;color:#000000;fill:none;stroke:#00ffcc;stroke-width:1.00000036px;stroke-linecap:square;stroke-linejoin:miter;stroke-miterlimit:4;stroke-opacity:1;stroke-dasharray:none;stroke-dashoffset:0;marker:none;visibility:visible;display:inline;overflow:visible;enable-background:accumulate"
       d="m 369.5,68 -10.00023,0"
       id="ref-C-right-2"
       sodipodi:insensitive="true"
       inkscape:connector-curvature="0" />
    <path
       style="opacity:0.5;color:#000000;fill:none;stroke:#00ffcc;stroke-width:1.00000036px;stroke-linecap:square;stroke-linejoin:miter;stroke-miterlimit:4;stroke-opacity:1;stroke-dasharray:none;stroke-dashoffset:0;marker:none;visibility:visible;display:inline;overflow:visible;enable-background:accumulate"
       d="m 369.5,92 -10.00023,0"
       id="ref-C-right-3"
       sodipodi:insensitive="true"
       inkscape:connector-curvature="0" />
    <path
       style="opacity:0.5;color:#000000;fill:none;stroke:#00ffcc;stroke-width:1.00000036px;stroke-linecap:square;stroke-linejoin:miter;stroke-miterlimit:4;stroke-opacity:1;stroke-dasharray:none;stroke-dashoffset:0;marker:none;visibility:visible;display:inline;overflow:visible;enable-background:accumulate"
       d="m 369.5,94 -10.00023,0"
       id="ref-C-right-4"
       sodipodi:insensitive="true"
       inkscape:connector-curvature="0" />
    <path
       style="opacity:0.5;color:#000000;fill:none;stroke:#00ffcc;stroke-width:1.00000036px;stroke-linecap:square;stroke-linejoin:miter;stroke-miterlimit:4;stroke-opacity:1;stroke-dasharray:none;stroke-dashoffset:0;marker:none;visibility:visible;display:inline;overflow:visible;enable-background:accumulate"
       d="m 369.5,306 -10.00023,0"
       id="ref-C-right-5"
       sodipodi:insensitive="true"
       inkscape:connector-curvature="0" />
    <path
       style="opacity:0.5;color:#000000;fill:none;stroke:#00ffcc;stroke-width:1.00000036px;stroke-linecap:square;stroke-linejoin:miter;stroke-miterlimit:4;stroke-opacity:1;stroke-dasharray:none;stroke-dashoffset:0;marker:none;visibility:visible;display:inline;overflow:visible;enable-background:accumulate"
       d="m 369.5,308 -10.00023,0"
       id="ref-C-right-6"
       sodipodi:insensitive="true"
       inkscape:connector-curvature="0" />
    <path
       style="opacity:0.5;color:#000000;fill:none;stroke:#00ffcc;stroke-width:1.00000036px;stroke-linecap:square;stroke-linejoin:miter;stroke-miterlimit:4;stroke-opacity:1;stroke-dasharray:none;stroke-dashoffset:0;marker:none;visibility:visible;display:inline;overflow:visible;enable-background:accumulate"
       d="m 369.5,332 -10.00023,0"
       id="ref-C-right-7"
       sodipodi:insensitive="true"
       inkscape:connector-curvature="0" />
    <path
       style="opacity:0.5;color:#000000;fill:none;stroke:#00ffcc;stroke-width:1.00000036px;stroke-linecap:square;stroke-linejoin:miter;stroke-miterlimit:4;stroke-opacity:1;stroke-dasharray:none;stroke-dashoffset:0;marker:none;visibility:visible;display:inline;overflow:visible;enable-background:accumulate"
       d="m 369.5,334 -10.00023,0"
       id="ref-C-right-8"
       sodipodi:insensitive="true"
       inkscape:connector-curvature="0" />
    <path
       style="fill:none;stroke:#000000;stroke-width:1.00000036px;stroke-linecap:square;stroke-linejoin:miter;stroke-opacity:1"
       d="m 369.5,190 -10.00024,0"
       id="S-right-1"
       inkscape:connector-curvature="0" />
    <path
       style="fill:none;stroke:#000000;stroke-width:1.00000036px;stroke-linecap:square;stroke-linejoin:miter;stroke-opacity:1;display:inline"
       d="m 369.5,210 -10.00024,0"
       id="S-right-2"
       inkscape:connector-curvature="0" />
    <path
       style="fill:none;stroke:#000000;stroke-width:1.00000036px;stroke-linecap:square;stroke-linejoin:miter;stroke-opacity:1;display:inline"
       d="m 369.5,200 -10.00024,0"
       id="I-right-1"
       inkscape:connector-curvature="0" />
    <path
       style="color:#000000;fill:none;stroke:#000000;stroke-width:1.00000036px;stroke-linecap:square;stroke-linejoin:miter;stroke-miterlimit:4;stroke-opacity:1;stroke-dasharray:none;stroke-dashoffset:0;marker:none;visibility:visible;display:inline;overflow:visible;enable-background:accumulate"
       d="m 369.5,67 -10.00023,0"
       id="C-right-1"
       inkscape:connector-curvature="0" />
    <path
       style="color:#000000;fill:none;stroke:#000000;stroke-width:1.00000036px;stroke-linecap:square;stroke-linejoin:miter;stroke-miterlimit:4;stroke-opacity:1;stroke-dasharray:none;stroke-dashoffset:0;marker:none;visibility:visible;display:inline;overflow:visible;enable-background:accumulate"
       d="m 369.5,93 -10.00023,0"
       id="C-right-2"
       inkscape:connector-curvature="0" />
    <path
       style="color:#000000;fill:none;stroke:#000000;stroke-width:1.00000036px;stroke-linecap:square;stroke-linejoin:miter;stroke-miterlimit:4;stroke-opacity:1;stroke-dasharray:none;stroke-dashoffset:0;marker:none;visibility:visible;display:inline;overflow:visible;enable-background:accumulate"
       d="m 369.5,307 -10.00023,0"
       id="C-right-3"
       inkscape:connector-curvature="0" />
    <path
       style="color:#000000;fill:none;stroke:#000000;stroke-width:1.00000036px;stroke-linecap:square;stroke-linejoin:miter;stroke-miterlimit:4;stroke-opacity:1;stroke-dasharray:none;stroke-dashoffset:0;marker:none;visibility:visible;display:inline;overflow:visible;enable-background:accumulate"
       d="m 369.5,333 -10.00023,0"
       id="C-right-4"
       inkscape:connector-curvature="0" />
    <path
       style="opacity:0.5;fill:none;stroke:#ffc200;stroke-width:1.00000036px;stroke-linecap:square;stroke-linejoin:miter;stroke-opacity:1;display:inline"
       d="m 189,369.5 0,-10.00024"
       id="ref-S-bottom-1"
       sodipodi:insensitive="true"
       inkscape:connector-curvature="0" />
    <path
       style="opacity:0.5;fill:none;stroke:#ffc200;stroke-width:1.00000036px;stroke-linecap:square;stroke-linejoin:miter;stroke-opacity:1;display:inline"
       d="m 191,369.5 0,-10.00024"
       id="ref-S-bottom-2"
       sodipodi:insensitive="true"
       inkscape:connector-curvature="0" />
    <path
       style="opacity:0.5;fill:none;stroke:#ffc200;stroke-width:1.00000036px;stroke-linecap:square;stroke-linejoin:miter;stroke-opacity:1;display:inline"
       d="m 209,369.5 0,-10.00024"
       id="ref-S-bottom-3"
       sodipodi:insensitive="true"
       inkscape:connector-curvature="0" />
    <path
       style="opacity:0.5;fill:none;stroke:#ffc200;stroke-width:1.00000036px;stroke-linecap:square;stroke-linejoin:miter;stroke-opacity:1;display:inline"
       d="m 211,369.5 0,-10.00024"
       id="ref-S-bottom-4"
       sodipodi:insensitive="true"
       inkscape:connector-curvature="0" />
    <path
       style="opacity:0.5;fill:none;stroke:#00ff00;stroke-width:1.00000036px;stroke-linecap:square;stroke-linejoin:miter;stroke-opacity:1;display:inline"
       d="m 199,369.5 0,-10.00024"
       id="ref-I-bottom-1"
       sodipodi:insensitive="true"
       inkscape:connector-curvature="0" />
    <path
       style="opacity:0.5;fill:none;stroke:#00ff00;stroke-width:1.00000036px;stroke-linecap:square;stroke-linejoin:miter;stroke-opacity:1;display:inline"
       d="m 201,369.5 0,-10.00024"
       id="ref-I-bottom-2"
       sodipodi:insensitive="true"
       inkscape:connector-curvature="0" />
    <path
       style="opacity:0.5;color:#000000;fill:none;stroke:#00ffcc;stroke-width:1.00000036px;stroke-linecap:square;stroke-linejoin:miter;stroke-miterlimit:4;stroke-opacity:1;stroke-dasharray:none;stroke-dashoffset:0;marker:none;visibility:visible;display:inline;overflow:visible;enable-background:accumulate"
       d="m 66,369.5 0,-10.00023"
       id="ref-C-bottom-1"
       sodipodi:insensitive="true"
       inkscape:connector-curvature="0" />
    <path
       style="opacity:0.5;color:#000000;fill:none;stroke:#00ffcc;stroke-width:1.00000036px;stroke-linecap:square;stroke-linejoin:miter;stroke-miterlimit:4;stroke-opacity:1;stroke-dasharray:none;stroke-dashoffset:0;marker:none;visibility:visible;display:inline;overflow:visible;enable-background:accumulate"
       d="m 68,369.5 0,-10.00023"
       id="ref-C-bottom-2"
       sodipodi:insensitive="true"
       inkscape:connector-curvature="0" />
    <path
       style="opacity:0.5;color:#000000;fill:none;stroke:#00ffcc;stroke-width:1.00000036px;stroke-linecap:square;stroke-linejoin:miter;stroke-miterlimit:4;stroke-opacity:1;stroke-dasharray:none;stroke-dashoffset:0;marker:none;visibility:visible;display:inline;overflow:visible;enable-background:accumulate"
       d="m 92,369.5 0,-10.00023"
       id="ref-C-bottom-3"
       sodipodi:insensitive="true"
       inkscape:connector-curvature="0" />
    <path
       style="opacity:0.5;color:#000000;fill:none;stroke:#00ffcc;stroke-width:1.00000036px;stroke-linecap:square;stroke-linejoin:miter;stroke-miterlimit:4;stroke-opacity:1;stroke-dasharray:none;stroke-dashoffset:0;marker:none;visibility:visible;display:inline;overflow:visible;enable-background:accumulate"
       d="m 94,369.5 0,-10.00023"
       id="ref-C-bottom-4"
       sodipodi:insensitive="true"
       inkscape:connector-curvature="0" />
    <path
       style="opacity:0.5;color:#000000;fill:none;stroke:#00ffcc;stroke-width:1.00000036px;stroke-linecap:square;stroke-linejoin:miter;stroke-miterlimit:4;stroke-opacity:1;stroke-dasharray:none;stroke-dashoffset:0;marker:none;visibility:visible;display:inline;overflow:visible;enable-background:accumulate"
       d="m 306,369.5 0,-10.00023"
       id="ref-C-bottom-5"
       sodipodi:insensitive="true"
       inkscape:connector-curvature="0" />
    <path
       style="opacity:0.5;color:#000000;fill:none;stroke:#00ffcc;stroke-width:1.00000036px;stroke-linecap:square;stroke-linejoin:miter;stroke-miterlimit:4;stroke-opacity:1;stroke-dasharray:none;stroke-dashoffset:0;marker:none;visibility:visible;display:inline;overflow:visible;enable-background:accumulate"
       d="m 308,369.5 0,-10.00023"
       id="ref-C-bottom-6"
       sodipodi:insensitive="true"
       inkscape:connector-curvature="0" />
    <path
       style="opacity:0.5;color:#000000;fill:none;stroke:#00ffcc;stroke-width:1.00000036px;stroke-linecap:square;stroke-linejoin:miter;stroke-miterlimit:4;stroke-opacity:1;stroke-dasharray:none;stroke-dashoffset:0;marker:none;visibility:visible;display:inline;overflow:visible;enable-background:accumulate"
       d="m 332,369.5 0,-10.00023"
       id="ref-C-bottom-7"
       sodipodi:insensitive="true"
       inkscape:connector-curvature="0" />
    <path
       style="opacity:0.5;color:#000000;fill:none;stroke:#00ffcc;stroke-width:1.00000036px;stroke-linecap:square;stroke-linejoin:miter;stroke-miterlimit:4;stroke-opacity:1;stroke-dasharray:none;stroke-dashoffset:0;marker:none;visibility:visible;display:inline;overflow:visible;enable-background:accumulate"
       d="m 334,369.5 0,-10.00023"
       id="ref-C-bottom-8"
       sodipodi:insensitive="true"
       inkscape:connector-curvature="0" />
    <path
       style="fill:none;stroke:#000000;stroke-width:1.00000036px;stroke-linecap:square;stroke-linejoin:miter;stroke-opacity:1;display:inline"
       d="m 190,369.5 0,-10.00024"
       id="S-bottom-1"
       inkscape:connector-curvature="0" />
    <path
       style="fill:none;stroke:#000000;stroke-width:1.00000036px;stroke-linecap:square;stroke-linejoin:miter;stroke-opacity:1"
       d="m 210,369.5 0,-10.00024"
       id="S-bottom-2"
       inkscape:connector-curvature="0" />
    <path
       style="fill:none;stroke:#000000;stroke-width:1.00000036px;stroke-linecap:square;stroke-linejoin:miter;stroke-opacity:1;display:inline"
       d="m 200,369.5 0,-10.00024"
       id="I-bottom-1"
       inkscape:connector-curvature="0" />
    <path
       style="color:#000000;fill:none;stroke:#000000;stroke-width:1.00000036px;stroke-linecap:square;stroke-linejoin:miter;stroke-miterlimit:4;stroke-opacity:1;stroke-dasharray:none;stroke-dashoffset:0;marker:none;visibility:visible;display:inline;overflow:visible;enable-background:accumulate"
       d="m 67,369.5 0,-10.00023"
       id="C-bottom-1"
       inkscape:connector-curvature="0" />
    <path
       style="color:#000000;fill:none;stroke:#000000;stroke-width:1.00000036px;stroke-linecap:square;stroke-linejoin:miter;stroke-miterlimit:4;stroke-opacity:1;stroke-dasharray:none;stroke-dashoffset:0;marker:none;visibility:visible;display:inline;overflow:visible;enable-background:accumulate"
       d="m 93,369.5 0,-10.00023"
       id="C-bottom-2"
       inkscape:connector-curvature="0" />
    <path
       style="color:#000000;fill:none;stroke:#000000;stroke-width:1.00000036px;stroke-linecap:square;stroke-linejoin:miter;stroke-miterlimit:4;stroke-opacity:1;stroke-dasharray:none;stroke-dashoffset:0;marker:none;visibility:visible;display:inline;overflow:visible;enable-background:accumulate"
       d="m 307,369.5 0,-10.00023"
       id="C-bottom-3"
       inkscape:connector-curvature="0" />
    <path
       style="color:#000000;fill:none;stroke:#000000;stroke-width:1.00000036px;stroke-linecap:square;stroke-linejoin:miter;stroke-miterlimit:4;stroke-opacity:1;stroke-dasharray:none;stroke-dashoffset:0;marker:none;visibility:visible;display:inline;overflow:visible;enable-background:accumulate"
       d="m 333,369.5 0,-10.00023"
       id="C-bottom-4"
       inkscape:connector-curvature="0" />
    <path
       style="opacity:0.5;fill:none;stroke:#ffc200;stroke-width:1.00000036px;stroke-linecap:square;stroke-linejoin:miter;stroke-opacity:1;display:inline"
       d="m 30.5,189 10.000237,0"
       id="ref-S-left-1"
       sodipodi:insensitive="true"
       inkscape:connector-curvature="0" />
    <path
       style="opacity:0.5;fill:none;stroke:#ffc200;stroke-width:1.00000036px;stroke-linecap:square;stroke-linejoin:miter;stroke-opacity:1;display:inline"
       d="m 30.5,191 10.000237,0"
       id="ref-S-left-2"
       sodipodi:insensitive="true"
       inkscape:connector-curvature="0" />
    <path
       style="opacity:0.5;fill:none;stroke:#ffc200;stroke-width:1.00000036px;stroke-linecap:square;stroke-linejoin:miter;stroke-opacity:1"
       d="m 30.5,209 10.000237,0"
       id="ref-S-left-3"
       sodipodi:insensitive="true"
       inkscape:connector-curvature="0" />
    <path
       style="opacity:0.5;fill:none;stroke:#ffc200;stroke-width:1.00000036px;stroke-linecap:square;stroke-linejoin:miter;stroke-opacity:1;display:inline"
       d="m 30.5,211 10.000237,0"
       id="ref-S-left-4"
       sodipodi:insensitive="true"
       inkscape:connector-curvature="0" />
    <path
       style="opacity:0.5;fill:none;stroke:#00ff00;stroke-width:1.00000036px;stroke-linecap:square;stroke-linejoin:miter;stroke-opacity:1;display:inline"
       d="M 40.50024,199 30.5,199"
       id="ref-I-left-1"
       sodipodi:insensitive="true"
       inkscape:connector-curvature="0" />
    <path
       style="opacity:0.5;fill:none;stroke:#00ff00;stroke-width:1.00000036px;stroke-linecap:square;stroke-linejoin:miter;stroke-opacity:1;display:inline"
       d="M 40.50024,201 30.5,201"
       id="ref-I-left-2"
       sodipodi:insensitive="true"
       inkscape:connector-curvature="0" />
    <path
       style="opacity:0.5;color:#000000;fill:none;stroke:#00ffcc;stroke-width:1.00000036px;stroke-linecap:square;stroke-linejoin:miter;stroke-miterlimit:4;stroke-opacity:1;stroke-dasharray:none;stroke-dashoffset:0;marker:none;visibility:visible;display:inline;overflow:visible;enable-background:accumulate"
       d="m 30.5,66 10.00023,0"
       id="ref-C-left-1"
       sodipodi:insensitive="true"
       inkscape:connector-curvature="0" />
    <path
       style="opacity:0.5;color:#000000;fill:none;stroke:#00ffcc;stroke-width:1.00000036px;stroke-linecap:square;stroke-linejoin:miter;stroke-miterlimit:4;stroke-opacity:1;stroke-dasharray:none;stroke-dashoffset:0;marker:none;visibility:visible;display:inline;overflow:visible;enable-background:accumulate"
       d="m 30.5,68 10.00023,0"
       id="ref-C-left-2"
       sodipodi:insensitive="true"
       inkscape:connector-curvature="0" />
    <path
       style="opacity:0.5;color:#000000;fill:none;stroke:#00ffcc;stroke-width:1.00000036px;stroke-linecap:square;stroke-linejoin:miter;stroke-miterlimit:4;stroke-opacity:1;stroke-dasharray:none;stroke-dashoffset:0;marker:none;visibility:visible;display:inline;overflow:visible;enable-background:accumulate"
       d="m 30.5,92 10.00023,0"
       id="ref-C-left-3"
       sodipodi:insensitive="true"
       inkscape:connector-curvature="0" />
    <path
       style="opacity:0.5;color:#000000;fill:none;stroke:#00ffcc;stroke-width:1.00000036px;stroke-linecap:square;stroke-linejoin:miter;stroke-miterlimit:4;stroke-opacity:1;stroke-dasharray:none;stroke-dashoffset:0;marker:none;visibility:visible;display:inline;overflow:visible;enable-background:accumulate"
       d="m 30.5,94 10.00023,0"
       id="ref-C-left-4"
       sodipodi:insensitive="true"
       inkscape:connector-curvature="0" />
    <path
       style="opacity:0.5;color:#000000;fill:none;stroke:#00ffcc;stroke-width:1.00000036px;stroke-linecap:square;stroke-linejoin:miter;stroke-miterlimit:4;stroke-opacity:1;stroke-dasharray:none;stroke-dashoffset:0;marker:none;visibility:visible;display:inline;overflow:visible;enable-background:accumulate"
       d="m 30.5,306 10.00023,0"
       id="ref-C-left-5"
       sodipodi:insensitive="true"
       inkscape:connector-curvature="0" />
    <path
       style="opacity:0.5;color:#000000;fill:none;stroke:#00ffcc;stroke-width:1.00000036px;stroke-linecap:square;stroke-linejoin:miter;stroke-miterlimit:4;stroke-opacity:1;stroke-dasharray:none;stroke-dashoffset:0;marker:none;visibility:visible;display:inline;overflow:visible;enable-background:accumulate"
       d="m 30.5,308 10.00023,0"
       id="ref-C-left-6"
       sodipodi:insensitive="true"
       inkscape:connector-curvature="0" />
    <path
       style="opacity:0.5;color:#000000;fill:none;stroke:#00ffcc;stroke-width:1.00000036px;stroke-linecap:square;stroke-linejoin:miter;stroke-miterlimit:4;stroke-opacity:1;stroke-dasharray:none;stroke-dashoffset:0;marker:none;visibility:visible;display:inline;overflow:visible;enable-background:accumulate"
       d="m 30.5,332 10.00023,0"
       id="ref-C-left-7"
       sodipodi:insensitive="true"
       inkscape:connector-curvature="0" />
    <path
       style="opacity:0.5;color:#000000;fill:none;stroke:#00ffcc;stroke-width:1.00000036px;stroke-linecap:square;stroke-linejoin:miter;stroke-miterlimit:4;stroke-opacity:1;stroke-dasharray:none;stroke-dashoffset:0;marker:none;visibility:visible;display:inline;overflow:visible;enable-background:accumulate"
       d="m 30.5,334 10.00023,0"
       id="ref-C-left-8"
       sodipodi:insensitive="true"
       inkscape:connector-curvature="0" />
    <path
       style="fill:none;stroke:#000000;stroke-width:1.00000036px;stroke-linecap:square;stroke-linejoin:miter;stroke-opacity:1;display:inline"
       d="m 30.5,190 10.000237,0"
       id="S-left-1"
       inkscape:connector-curvature="0" />
    <path
       style="fill:none;stroke:#000000;stroke-width:1.00000036px;stroke-linecap:square;stroke-linejoin:miter;stroke-opacity:1"
       d="m 30.5,210 10.000237,0"
       id="S-left-2"
       inkscape:connector-curvature="0" />
    <path
       style="fill:none;stroke:#000000;stroke-width:1.00000036px;stroke-linecap:square;stroke-linejoin:miter;stroke-opacity:1;display:inline"
       d="M 40.50024,200 30.5,200"
       id="I-left-1"
       inkscape:connector-curvature="0" />
    <path
       style="color:#000000;fill:none;stroke:#000000;stroke-width:1.00000036px;stroke-linecap:square;stroke-linejoin:miter;stroke-miterlimit:4;stroke-opacity:1;stroke-dasharray:none;stroke-dashoffset:0;marker:none;visibility:visible;display:inline;overflow:visible;enable-background:accumulate"
       d="m 30.5,67 10.00023,0"
       id="C-left-1"
       inkscape:connector-curvature="0" />
    <path
       style="color:#000000;fill:none;stroke:#000000;stroke-width:1.00000036px;stroke-linecap:square;stroke-linejoin:miter;stroke-miterlimit:4;stroke-opacity:1;stroke-dasharray:none;stroke-dashoffset:0;marker:none;visibility:visible;display:inline;overflow:visible;enable-background:accumulate"
       d="m 30.5,93 10.00023,0"
       id="C-left-2"
       inkscape:connector-curvature="0" />
    <path
       style="color:#000000;fill:none;stroke:#000000;stroke-width:1.00000036px;stroke-linecap:square;stroke-linejoin:miter;stroke-miterlimit:4;stroke-opacity:1;stroke-dasharray:none;stroke-dashoffset:0;marker:none;visibility:visible;display:inline;overflow:visible;enable-background:accumulate"
       d="m 30.5,307 10.00023,0"
       id="C-left-3"
       inkscape:connector-curvature="0" />
    <path
       style="color:#000000;fill:none;stroke:#000000;stroke-width:1.00000036px;stroke-linecap:square;stroke-linejoin:miter;stroke-miterlimit:4;stroke-opacity:1;stroke-dasharray:none;stroke-dashoffset:0;marker:none;visibility:visible;display:inline;overflow:visible;enable-background:accumulate"
       d="m 30.5,333 10.00023,0"
       id="C-left-4"
       inkscape:connector-curvature="0" />
  </g>
  <g
     inkscape:groupmode="layer"
     id="layer4"
     inkscape:label="S-001"
     style="display:inline">
    <path
       sodipodi:nodetypes="ccccccc"
       inkscape:connector-curvature="0"
       d="m 369.5,333 -21.00012,0 C 309.6814,333 222.66982,323 179.49977,323 29.844088,323 30.502386,77 179.49977,77 230.1396,77 303.76628,67 348.49988,67 L 369.5,67 z"
       style="color:#000000;fill:#ffffff;stroke:none;stroke-width:1.00000036px;marker:none;visibility:visible;display:inline;overflow:visible;enable-background:accumulate"
       id="path3980"
       zpos="-10" />
    <path
       id="C-right-4-4"
       style="fill:none;stroke:#000000;stroke-width:1px;stroke-linecap:square"
       d="m 369.5,333 -21.00012,0 C 309.6814,333 222.66982,323 179.49977,323 29.844088,323 30.502386,77 179.49977,77 230.1396,77 303.76628,67 348.49988,67 L 369.5,67"
       inkscape:connector-curvature="0"
       sodipodi:nodetypes="cccccc"
       zpos="-8" />
  </g>
  <g
     inkscape:groupmode="layer"
     id="layer2"
     inkscape:label="L-001"
     style="display:none">
    <path
       sodipodi:nodetypes="ccccssssssssssssssssssssssssssssssssssssccccc"
       inkscape:connector-curvature="0"
       d="m 20.5,87 11.500115,-20 18.500115,0 154.94805,0 14.10344,0 C 226.72507,67 232.5,72.774932 232.5,79.948278 l 0,3.658999 c 0,7.173346 -5.77493,12.948277 -12.94828,12.948278 l -8.10344,10e-7 C 204.27493,96.555557 198.5,102.33049 198.5,109.50383 l 0,3.659 c 0,7.17335 5.77493,12.94828 12.94828,12.94828 l 8.10344,0 c 7.17335,0 12.94828,5.77493 12.94828,12.94828 l 0,3.659 c 0,7.17334 -5.77493,12.94826 -12.94828,12.94827 l -8.10344,1e-5 c -7.17335,1e-5 -12.94828,5.77493 -12.94828,12.94828 l 0,3.659 c 0,7.17334 5.77493,12.94826 12.94828,12.94827 l 8.10344,1e-5 c 7.17335,1e-5 12.94828,5.77493 12.94828,12.94828 l 0,3.659 c 0,7.17334 -5.77493,12.94827 -12.94828,12.94827 l -8.10344,0 c -7.17335,0 -12.94828,5.77493 -12.94828,12.94828 l 0,3.659 c 0,7.17334 5.77493,12.94827 12.94828,12.94827 l 8.10344,0 c 7.17335,0 12.94828,5.77493 12.94828,12.94828 l 0,3.659 c 0,7.17334 -5.77493,12.94826 -12.94828,12.94827 l -8.10344,1e-5 C 204.27493,273.8889 198.5,279.66382 198.5,286.83717 l 0,3.659 c 0,7.17334 5.77493,12.94825 12.94828,12.94827 l 8.10344,2e-5 c 7.17335,2e-5 12.94828,5.77493 12.94828,12.94828 l 0,3.659 c 0,7.17334 -5.77493,12.94827 -12.94828,12.94827 l -24.10344,0 L 50.50023,333 32.000115,333 20.5,313 z"
       style="color:#000000;fill:#ffffff;stroke:none;stroke-width:1.00000036px;marker:none;visibility:visible;display:inline;overflow:visible;enable-background:accumulate"
       id="path3404"
       zpos="-1" />
    <path
       id="C-left-4-1-1"
       style="color:#000000;fill:none;stroke:#000000;stroke-width:1.00000036px;stroke-linecap:square;stroke-linejoin:miter;stroke-miterlimit:4;stroke-opacity:1;stroke-dasharray:none;stroke-dashoffset:0;marker:none;visibility:visible;display:inline;overflow:visible;enable-background:accumulate"
       d="m 30.5,67 10.00023,0 164.94805,0 14.10344,0 C 226.72507,67 232.5,72.774932 232.5,79.948278 l 0,3.658999 c 0,7.173346 -5.77493,12.948277 -12.94828,12.948278 l -8.10344,10e-7 C 204.27493,96.555557 198.5,102.33049 198.5,109.50383 l 0,3.659 c 0,7.17335 5.77493,12.94828 12.94828,12.94828 l 8.10344,0 c 7.17335,0 12.94828,5.77493 12.94828,12.94828 l 0,3.659 c 0,7.17334 -5.77493,12.94826 -12.94828,12.94827 l -8.10344,1e-5 c -7.17335,1e-5 -12.94828,5.77493 -12.94828,12.94828 l 0,3.659 c 0,7.17334 5.77493,12.94826 12.94828,12.94827 l 8.10344,1e-5 c 7.17335,1e-5 12.94828,5.77493 12.94828,12.94828 l 0,3.659 c 0,7.17334 -5.77493,12.94827 -12.94828,12.94827 l -8.10344,0 c -7.17335,0 -12.94828,5.77493 -12.94828,12.94828 l 0,3.659 c 0,7.17334 5.77493,12.94827 12.94828,12.94827 l 8.10344,0 c 7.17335,0 12.94828,5.77493 12.94828,12.94828 l 0,3.659 c 0,7.17334 -5.77493,12.94826 -12.94828,12.94827 l -8.10344,1e-5 C 204.27493,273.8889 198.5,279.66382 198.5,286.83717 l 0,3.659 c 0,7.17334 5.77493,12.94825 12.94828,12.94827 l 8.10344,2e-5 c 7.17335,2e-5 12.94828,5.77493 12.94828,12.94828 l 0,3.659 c 0,7.17334 -5.77493,12.94827 -12.94828,12.94827 l -24.10344,0 L 40.50023,333 30.5,333"
       inkscape:connector-curvature="0"
       sodipodi:nodetypes="cccssssssssssssssssssssssssssssssssssssccc" />
  </g>
  <g
     inkscape:groupmode="layer"
     id="layer3"
     inkscape:label="L-002"
     style="display:none">
    <path
       sodipodi:nodetypes="ccccssssssssssssssssssssssssssssssssssccccc"
       inkscape:connector-curvature="0"
       d="m 20.5,87 10.500115,-20 19.500115,0 176.44292,0 c 3.07849,0 5.55685,2.478356 5.55685,5.556851 l 0,18.441853 c 0,3.078496 -2.47836,5.556851 -5.55685,5.556851 l -28.8863,2e-6 c -3.07849,0 -5.55685,2.478356 -5.55685,5.556853 l 0,18.44185 c 0,3.0785 2.47836,5.55685 5.55685,5.55685 l 28.8863,0 c 3.07849,0 5.55685,2.47835 5.55685,5.55685 l 0,18.44185 c 0,3.0785 -2.47836,5.55685 -5.55685,5.55685 l -28.8863,1e-5 c -3.07849,0 -5.55685,2.47836 -5.55685,5.55685 l 0,18.44186 c 0,3.07849 2.47836,5.55685 5.55685,5.55685 l 28.8863,0 c 3.07849,0 5.55685,2.47835 5.55685,5.55685 l 0,18.44185 c 0,3.0785 -2.47836,5.55685 -5.55685,5.55685 l -28.8863,1e-5 c -3.07849,0 -5.55685,2.47835 -5.55685,5.55685 l 0,18.44185 c 0,3.0785 2.47836,5.55685 5.55685,5.55685 l 28.8863,-1e-5 c 3.07849,0 5.55685,2.47835 5.55685,5.55685 l 0,18.44185 c 0,3.0785 -2.47836,5.55685 -5.55685,5.55685 l -28.8863,1e-5 c -3.07849,0 -5.55685,2.47835 -5.55685,5.55685 l 0,18.44185 c 0,3.0785 2.47836,5.55685 5.55685,5.55685 l 28.8863,2e-5 c 3.07849,0 5.55685,2.47835 5.55685,5.55685 l 0,18.44185 c 0,3.0785 -2.47836,5.55685 -5.55685,5.55685 L 50.50023,333 31.000115,333 20.5,313 z"
       style="color:#000000;fill:#ffffff;stroke:none;stroke-width:1.00000036px;marker:none;visibility:visible;display:inline;overflow:visible;enable-background:accumulate"
       id="path3402"
       zpos="-1" />
    <path
       id="C-left-4-1-5"
       style="color:#000000;fill:none;stroke:#000000;stroke-width:1.00000036px;stroke-linecap:square;stroke-linejoin:miter;stroke-miterlimit:4;stroke-opacity:1;stroke-dasharray:none;stroke-dashoffset:0;marker:none;visibility:visible;display:inline;overflow:visible;enable-background:accumulate"
       d="m 30.5,67 10.00023,0 186.44292,0 c 3.07849,0 5.55685,2.478356 5.55685,5.556851 l 0,18.441853 c 0,3.078496 -2.47836,5.556851 -5.55685,5.556851 l -28.8863,2e-6 c -3.07849,0 -5.55685,2.478356 -5.55685,5.556853 l 0,18.44185 c 0,3.0785 2.47836,5.55685 5.55685,5.55685 l 28.8863,0 c 3.07849,0 5.55685,2.47835 5.55685,5.55685 l 0,18.44185 c 0,3.0785 -2.47836,5.55685 -5.55685,5.55685 l -28.8863,1e-5 c -3.07849,0 -5.55685,2.47836 -5.55685,5.55685 l 0,18.44186 c 0,3.07849 2.47836,5.55685 5.55685,5.55685 l 28.8863,0 c 3.07849,0 5.55685,2.47835 5.55685,5.55685 l 0,18.44185 c 0,3.0785 -2.47836,5.55685 -5.55685,5.55685 l -28.8863,1e-5 c -3.07849,0 -5.55685,2.47835 -5.55685,5.55685 l 0,18.44185 c 0,3.0785 2.47836,5.55685 5.55685,5.55685 l 28.8863,-1e-5 c 3.07849,0 5.55685,2.47835 5.55685,5.55685 l 0,18.44185 c 0,3.0785 -2.47836,5.55685 -5.55685,5.55685 l -28.8863,1e-5 c -3.07849,0 -5.55685,2.47835 -5.55685,5.55685 l 0,18.44185 c 0,3.0785 2.47836,5.55685 5.55685,5.55685 l 28.8863,2e-5 c 3.07849,0 5.55685,2.47835 5.55685,5.55685 l 0,18.44185 c 0,3.0785 -2.47836,5.55685 -5.55685,5.55685 L 40.50023,333 30.5,333"
       inkscape:connector-curvature="0"
       sodipodi:nodetypes="cccssssssssssssssssssssssssssssssssssccc" />
  </g>
  <g
     inkscape:label="L-003"
     id="g3359"
     inkscape:groupmode="layer"
     style="display:none">
    <path
       id="path3363"
       style="color:#000000;fill:#ffffff;stroke:none;stroke-width:1.00000036px;marker:none;visibility:visible;display:inline;overflow:visible;enable-background:accumulate"
       d="m 20.5,87 10.500115,-20 19.500115,0 136.44292,0 c 3.07849,0 5.55685,2.478356 5.55685,5.556851 l 0,18.441853 c 0,3.078496 -2.47836,5.556851 -5.55685,5.556851 l -18.8863,2e-6 c -3.07849,0 -5.55685,2.478356 -5.55685,5.556853 l 0,18.44185 c 0,3.0785 2.47836,5.55685 5.55685,5.55685 l 38.8863,0 c 3.07849,0 5.55685,2.47835 5.55685,5.55685 l 0,18.44185 c 0,3.0785 -2.47836,5.55685 -5.55685,5.55685 l -18.8863,1e-5 c -3.07849,0 -5.55685,2.47836 -5.55685,5.55685 l 0,18.44186 c 0,3.07849 2.47836,5.55685 5.55685,5.55685 l 38.8863,0 c 3.07849,0 5.55685,2.47835 5.55685,5.55685 l 0,18.44185 c 0,3.0785 -2.47836,5.55685 -5.55685,5.55685 l -28.8863,1e-5 c -3.07849,0 -5.55685,2.47835 -5.55685,5.55685 l 0,18.44185 c 0,3.0785 2.47836,5.55685 5.55685,5.55685 l 48.8863,-1e-5 c 3.07849,0 5.55685,2.47835 5.55685,5.55685 l 0,18.44185 c 0,3.0785 -2.47836,5.55685 -5.55685,5.55685 l -28.8863,1e-5 c -3.07849,0 -5.55685,2.47835 -5.55685,5.55685 l 0,18.44185 c 0,3.0785 2.47836,5.55685 5.55685,5.55685 l 48.8863,2e-5 c 3.07849,0 5.55685,2.47835 5.55685,5.55685 l 0,18.44185 c 0,3.0785 -2.47836,5.55685 -5.55685,5.55685 L 50.50023,333 31.000115,333 20.5,313"
       inkscape:connector-curvature="0"
       sodipodi:nodetypes="ccccsssssssssssssssssssssssssssssssssscccc"
       zpos="-1" />
    <path
       sodipodi:nodetypes="cccssssssssssssssssssssssssssssssssssccc"
       inkscape:connector-curvature="0"
       d="m 30.5,67 10.00023,0 146.44292,0 c 3.07849,0 5.55685,2.478356 5.55685,5.556851 l 0,18.441853 c 0,3.078496 -2.47836,5.556851 -5.55685,5.556851 l -18.8863,2e-6 c -3.07849,0 -5.55685,2.478356 -5.55685,5.556853 l 0,18.44185 c 0,3.0785 2.47836,5.55685 5.55685,5.55685 l 38.8863,0 c 3.07849,0 5.55685,2.47835 5.55685,5.55685 l 0,18.44185 c 0,3.0785 -2.47836,5.55685 -5.55685,5.55685 l -18.8863,1e-5 c -3.07849,0 -5.55685,2.47836 -5.55685,5.55685 l 0,18.44186 c 0,3.07849 2.47836,5.55685 5.55685,5.55685 l 38.8863,0 c 3.07849,0 5.55685,2.47835 5.55685,5.55685 l 0,18.44185 c 0,3.0785 -2.47836,5.55685 -5.55685,5.55685 l -28.8863,1e-5 c -3.07849,0 -5.55685,2.47835 -5.55685,5.55685 l 0,18.44185 c 0,3.0785 2.47836,5.55685 5.55685,5.55685 l 48.8863,-1e-5 c 3.07849,0 5.55685,2.47835 5.55685,5.55685 l 0,18.44185 c 0,3.0785 -2.47836,5.55685 -5.55685,5.55685 l -28.8863,1e-5 c -3.07849,0 -5.55685,2.47835 -5.55685,5.55685 l 0,18.44185 c 0,3.0785 2.47836,5.55685 5.55685,5.55685 l 48.8863,2e-5 c 3.07849,0 5.55685,2.47835 5.55685,5.55685 l 0,18.44185 c 0,3.0785 -2.47836,5.55685 -5.55685,5.55685 L 40.50023,333 30.5,333"
       style="color:#000000;fill:none;stroke:#000000;stroke-width:1.00000036px;stroke-linecap:square;stroke-linejoin:miter;stroke-miterlimit:4;stroke-opacity:1;stroke-dasharray:none;stroke-dashoffset:0;marker:none;visibility:visible;display:inline;overflow:visible;enable-background:accumulate"
       id="path3361" />
  </g>
  <g
     inkscape:groupmode="layer"
     id="layer6"
     inkscape:label="L-004"
     style="display:none">
    <path
       sodipodi:nodetypes="ccccsssssssssssssssssssssssssssssssssssssssssssssssssccccc"
       inkscape:connector-curvature="0"
       d="m 25.5,77 6.000115,-10 19.000115,0 56.18488,3.1e-5 c 4.32945,0 7.81489,3.485439 7.81489,7.814887 0,4.329448 -3.48544,7.814887 -7.81489,7.814888 l -4.37022,10e-7 c -4.32945,10e-7 -7.81489,3.485439 -7.81489,7.814887 0,4.329448 3.48544,7.814887 7.81489,7.814888 l 4.37022,1e-6 c 4.32945,10e-7 7.81489,3.485437 7.81489,7.814887 0,4.32945 -3.48544,7.81489 -7.81489,7.81489 l -4.37022,0 c -4.32945,0 -7.81489,3.48544 -7.81489,7.81489 0,4.32944 3.48544,7.81488 7.81489,7.81488 l 4.37022,0 c 4.32945,0 7.81489,3.48544 7.81489,7.81489 0,4.32945 -3.48544,7.81489 -7.81489,7.81489 l -4.37022,0 c -4.32945,0 -7.81489,3.48544 -7.81489,7.81489 0,4.32945 3.48544,7.81489 7.81489,7.81489 l 4.37022,0 c 4.32945,0 7.81489,3.48544 7.81489,7.81488 0,4.32945 -3.48544,7.81487 -7.81489,7.81489 l -4.37022,2e-5 c -4.32945,2e-5 -7.81489,3.48544 -7.81489,7.81489 0,4.32944 3.48544,7.81488 7.81489,7.81488 l 4.37022,0 c 4.32945,0 7.81489,3.48544 7.81489,7.81489 0,4.32945 -3.49519,7.52451 -7.81489,7.81489 l -4.37022,0.29378 c -4.3197,0.29038 -7.81489,3.48544 -7.81489,7.81488 0,4.32945 3.48544,7.81489 7.81489,7.81489 l 4.37022,0 c 4.32945,0 7.81489,3.48544 7.81489,7.81489 0,4.32945 -3.48544,7.81489 -7.81489,7.81489 l -4.37022,0 c -4.32945,0 -7.81489,3.48544 -7.81489,7.81489 0,4.32944 3.48544,7.81487 7.81489,7.81488 l 4.37022,10e-6 c 4.32945,1e-5 7.81489,3.48544 7.81489,7.81488 0,4.32945 -3.48544,7.8149 -7.81489,7.81489 l -4.37022,-10e-6 c -4.32945,-1e-5 -7.81489,3.48544 -7.81489,7.81488 0,4.32945 3.48544,7.81487 7.81489,7.81489 l 4.37022,2e-5 c 4.32945,2e-5 7.81489,3.48544 7.81489,7.81488 0,4.32945 -3.48544,7.8149 -7.81489,7.81489 l -4.37022,-10e-6 c -4.32945,-1e-5 -7.81489,3.48544 -7.81489,7.81489 0,4.32944 3.48544,7.81486 7.81489,7.81488 l 4.37022,2e-5 c 4.32945,2e-5 7.81489,3.48544 7.81489,7.81489 0,4.32944 -3.48544,7.81488 -7.81489,7.81488 L 50.50023,333 31.500115,333 25.5,323 z"
       style="color:#000000;fill:#ffffff;stroke:none;stroke-width:1.00000036px;marker:none;visibility:visible;display:inline;overflow:visible;enable-background:accumulate"
       id="path3712"
       zpos="-1" />
    <path
       id="C-left-4-3-5"
       style="color:#000000;fill:none;stroke:#000000;stroke-width:1.00000036px;stroke-linecap:square;stroke-linejoin:miter;stroke-miterlimit:4;stroke-opacity:1;stroke-dasharray:none;stroke-dashoffset:0;marker:none;visibility:visible;display:inline;overflow:visible;enable-background:accumulate"
       d="m 30.5,67 10.00023,0 66.18488,3.1e-5 c 4.32945,0 7.81489,3.485439 7.81489,7.814887 0,4.329448 -3.48544,7.814887 -7.81489,7.814888 l -4.37022,10e-7 c -4.32945,10e-7 -7.81489,3.485439 -7.81489,7.814887 0,4.329448 3.48544,7.814887 7.81489,7.814888 l 4.37022,1e-6 c 4.32945,10e-7 7.81489,3.485437 7.81489,7.814887 0,4.32945 -3.48544,7.81489 -7.81489,7.81489 l -4.37022,0 c -4.32945,0 -7.81489,3.48544 -7.81489,7.81489 0,4.32944 3.48544,7.81488 7.81489,7.81488 l 4.37022,0 c 4.32945,0 7.81489,3.48544 7.81489,7.81489 0,4.32945 -3.48544,7.81489 -7.81489,7.81489 l -4.37022,0 c -4.32945,0 -7.81489,3.48544 -7.81489,7.81489 0,4.32945 3.48544,7.81489 7.81489,7.81489 l 4.37022,0 c 4.32945,0 7.81489,3.48544 7.81489,7.81488 0,4.32945 -3.48544,7.81487 -7.81489,7.81489 l -4.37022,2e-5 c -4.32945,2e-5 -7.81489,3.48544 -7.81489,7.81489 0,4.32944 3.48544,7.81488 7.81489,7.81488 l 4.37022,0 c 4.32945,0 7.81489,3.48544 7.81489,7.81489 0,4.32945 -3.49519,7.52451 -7.81489,7.81489 l -4.37022,0.29378 c -4.3197,0.29038 -7.81489,3.48544 -7.81489,7.81488 0,4.32945 3.48544,7.81489 7.81489,7.81489 l 4.37022,0 c 4.32945,0 7.81489,3.48544 7.81489,7.81489 0,4.32945 -3.48544,7.81489 -7.81489,7.81489 l -4.37022,0 c -4.32945,0 -7.81489,3.48544 -7.81489,7.81489 0,4.32944 3.48544,7.81487 7.81489,7.81488 l 4.37022,10e-6 c 4.32945,1e-5 7.81489,3.48544 7.81489,7.81488 0,4.32945 -3.48544,7.8149 -7.81489,7.81489 l -4.37022,-10e-6 c -4.32945,-1e-5 -7.81489,3.48544 -7.81489,7.81488 0,4.32945 3.48544,7.81487 7.81489,7.81489 l 4.37022,2e-5 c 4.32945,2e-5 7.81489,3.48544 7.81489,7.81488 0,4.32945 -3.48544,7.8149 -7.81489,7.81489 l -4.37022,-10e-6 c -4.32945,-1e-5 -7.81489,3.48544 -7.81489,7.81489 0,4.32944 3.48544,7.81486 7.81489,7.81488 l 4.37022,2e-5 c 4.32945,2e-5 7.81489,3.48544 7.81489,7.81489 0,4.32944 -3.48544,7.81488 -7.81489,7.81488 L 40.50023,333 30.5,333"
       inkscape:connector-curvature="0"
       sodipodi:nodetypes="cccsssssssssssssssssssssssssssssssssssssssssssssssssccc" />
  </g>
  <g
     inkscape:label="L-005"
     id="g3665"
     inkscape:groupmode="layer"
     style="display:none">
    <path
       sodipodi:nodetypes="ccccsssssssssssssssssssssssssssssssssssssssssssssssssccccc"
       inkscape:connector-curvature="0"
       d="m 25.5,323 6.000115,10 19.000115,0 164.18488,10e-6 c 4.32945,0 7.81489,-3.48544 7.81489,-7.81488 0,-4.32945 -3.48544,-7.81489 -7.81489,-7.81489 l -14.37022,-2e-5 c -4.32945,0 -7.81489,-3.48544 -7.81489,-7.81488 0,-4.32945 3.48544,-7.81489 7.81489,-7.81489 l 4.37022,10e-6 c 4.32945,0 7.81489,-3.48544 7.81489,-7.81489 0,-4.32944 -3.48544,-7.81488 -7.81489,-7.81488 l -14.37022,-2e-5 c -4.32945,0 -7.81489,-3.48544 -7.81489,-7.81489 0,-4.32944 3.48544,-7.81488 7.81489,-7.81488 l 4.37022,10e-6 c 4.32945,0 7.81489,-3.48544 7.81489,-7.81489 0,-4.32944 -3.48544,-7.81488 -7.81489,-7.81488 l -14.37022,-10e-6 c -4.32945,0 -7.81489,-3.48544 -7.81489,-7.81488 0,-4.32945 3.48544,-7.81489 7.81489,-7.81489 l 4.37022,0 c 4.32945,0 7.81489,-3.48544 7.81489,-7.81489 0,-4.32945 -3.48544,-7.81489 -7.81489,-7.81489 l -24.37022,0 c -4.32945,0 -7.81489,-3.48544 -7.81489,-7.81489 0,-4.32944 3.48635,-7.72638 7.81489,-7.81488 l 14.37022,-0.29378 c 4.32854,-0.0885 7.81489,-3.48544 7.81489,-7.81489 0,-4.32945 -3.48544,-7.81489 -7.81489,-7.81489 l -24.37022,0 c -4.32945,0 -7.81489,-3.48544 -7.81489,-7.81488 0,-4.32945 3.48544,-7.81489 7.81489,-7.81489 l 34.37022,-2e-5 c 4.32945,0 7.81489,-3.48544 7.81489,-7.81489 0,-4.32944 -3.48544,-7.81488 -7.81489,-7.81488 l -4.37022,0 c -4.32945,0 -7.81489,-3.48544 -7.81489,-7.81489 0,-4.32945 3.48544,-7.81489 7.81489,-7.81489 l 14.37022,0 c 4.32945,0 7.81489,-3.48544 7.81489,-7.81489 0,-4.32945 -3.48544,-7.81489 -7.81489,-7.81489 l -4.37022,0 c -4.32945,0 -7.81489,-3.48544 -7.81489,-7.81488 0,-4.32945 3.48544,-7.81489 7.81489,-7.81489 l 14.37022,0 c 4.32945,0 7.81489,-3.48544 7.81489,-7.81489 0,-4.32945 -3.48544,-7.814887 -7.81489,-7.814887 l -4.37022,-1e-6 c -4.32945,0 -7.81489,-3.48544 -7.81489,-7.814888 0,-4.329448 3.48544,-7.814887 7.81489,-7.814887 l 14.37022,-10e-7 c 4.32945,0 7.81489,-3.48544 7.81489,-7.814888 0,-4.329448 -3.48544,-7.814887 -7.81489,-7.814887 L 50.50023,67 31.500115,67 25.5,77 z"
       style="color:#000000;fill:#ffffff;stroke:none;stroke-width:1.00000036px;marker:none;visibility:visible;display:inline;overflow:visible;enable-background:accumulate"
       id="path3715"
       zpos="-1" />
    <path
       id="C-left-4-3"
       style="color:#000000;fill:none;stroke:#000000;stroke-width:1.00000036px;stroke-linecap:square;stroke-linejoin:miter;stroke-miterlimit:4;stroke-opacity:1;stroke-dasharray:none;stroke-dashoffset:0;marker:none;visibility:visible;display:inline;overflow:visible;enable-background:accumulate"
       d="m 30.5,333 10.00023,0 174.18488,10e-6 c 4.32945,0 7.81489,-3.48544 7.81489,-7.81488 0,-4.32945 -3.48544,-7.81489 -7.81489,-7.81489 l -14.37022,-2e-5 c -4.32945,0 -7.81489,-3.48544 -7.81489,-7.81488 0,-4.32945 3.48544,-7.81489 7.81489,-7.81489 l 4.37022,10e-6 c 4.32945,0 7.81489,-3.48544 7.81489,-7.81489 0,-4.32944 -3.48544,-7.81488 -7.81489,-7.81488 l -14.37022,-2e-5 c -4.32945,0 -7.81489,-3.48544 -7.81489,-7.81489 0,-4.32944 3.48544,-7.81488 7.81489,-7.81488 l 4.37022,10e-6 c 4.32945,0 7.81489,-3.48544 7.81489,-7.81489 0,-4.32944 -3.48544,-7.81488 -7.81489,-7.81488 l -14.37022,-10e-6 c -4.32945,0 -7.81489,-3.48544 -7.81489,-7.81488 0,-4.32945 3.48544,-7.81489 7.81489,-7.81489 l 4.37022,0 c 4.32945,0 7.81489,-3.48544 7.81489,-7.81489 0,-4.32945 -3.48544,-7.81489 -7.81489,-7.81489 l -24.37022,0 c -4.32945,0 -7.81489,-3.48544 -7.81489,-7.81489 0,-4.32944 3.48635,-7.72638 7.81489,-7.81488 l 14.37022,-0.29378 c 4.32854,-0.0885 7.81489,-3.48544 7.81489,-7.81489 0,-4.32945 -3.48544,-7.81489 -7.81489,-7.81489 l -24.37022,0 c -4.32945,0 -7.81489,-3.48544 -7.81489,-7.81488 0,-4.32945 3.48544,-7.81489 7.81489,-7.81489 l 34.37022,-2e-5 c 4.32945,0 7.81489,-3.48544 7.81489,-7.81489 0,-4.32944 -3.48544,-7.81488 -7.81489,-7.81488 l -4.37022,0 c -4.32945,0 -7.81489,-3.48544 -7.81489,-7.81489 0,-4.32945 3.48544,-7.81489 7.81489,-7.81489 l 14.37022,0 c 4.32945,0 7.81489,-3.48544 7.81489,-7.81489 0,-4.32945 -3.48544,-7.81489 -7.81489,-7.81489 l -4.37022,0 c -4.32945,0 -7.81489,-3.48544 -7.81489,-7.81488 0,-4.32945 3.48544,-7.81489 7.81489,-7.81489 l 14.37022,0 c 4.32945,0 7.81489,-3.48544 7.81489,-7.81489 0,-4.32945 -3.48544,-7.814887 -7.81489,-7.814887 l -4.37022,-1e-6 c -4.32945,0 -7.81489,-3.48544 -7.81489,-7.814888 0,-4.329448 3.48544,-7.814887 7.81489,-7.814887 l 14.37022,-10e-7 c 4.32945,0 7.81489,-3.48544 7.81489,-7.814888 0,-4.329448 -3.48544,-7.814887 -7.81489,-7.814887 L 40.50023,67 30.5,67"
       inkscape:connector-curvature="0"
       sodipodi:nodetypes="cccsssssssssssssssssssssssssssssssssssssssssssssssssccc" />
  </g>
  <g
     inkscape:groupmode="layer"
     id="layer7"
     inkscape:label="L-006"
     style="display:inline">
    <path
       sodipodi:nodetypes="ccccssssssssssssssssssssssssssssssccssssssssssssssssssssssssssssssssssccccc"
       inkscape:connector-curvature="0"
       d="m 22.5,323 9.000115,10 19.000115,0 179.02198,0 c 1.64969,0 2.97779,-1.32809 2.97779,-2.97779 l 0,-9.67419 c 0,-1.6497 -1.3281,-2.97779 -2.97779,-2.97779 l -183.04442,-2e-5 c -1.64969,0 -2.97779,-1.32809 -2.97779,-2.97779 l 0,-9.67419 c 0,-1.6497 1.3281,-2.97779 2.97779,-2.97779 l 183.04442,1e-5 c 1.64969,0 2.97779,-1.32809 2.97779,-2.97779 l 0,-9.67419 c 0,-1.6497 -1.3281,-2.97779 -2.97779,-2.97779 l -183.04442,-2e-5 c -1.64969,0 -2.97779,-1.32809 -2.97779,-2.97779 l 0,-9.67419 c 0,-1.6497 1.3281,-2.97779 2.97779,-2.97779 l 183.04442,1e-5 c 1.64969,0 2.97779,-1.3281 2.97779,-2.97779 l 0,-9.67419 c 0,-1.6497 -1.3281,-2.97779 -2.97779,-2.97779 l -183.04442,-1e-5 c -1.64969,0 -2.97779,-1.32809 -2.97779,-2.97779 l 0,-9.67419 c 0,-1.6497 1.3281,-2.97779 2.97779,-2.97779 l 183.04442,0 c 1.64969,0 2.97779,-1.3281 2.97779,-2.97779 l 0,-9.67419 c 0,-1.6497 -1.3281,-2.9778 -2.97779,-2.9778 l -183.04442,0 c -1.64969,0 -2.97779,-1.32809 -2.97779,-2.97779 l 0,-9.67419 c 0,-1.6497 1.3281,-2.97779 2.97779,-2.97779 l 183.04442,0.0271 c 1.64969,0 2.97779,-1.32811 2.97779,-2.97779 l 0,-9.99506 c 0,-1.6497 -1.3281,-2.9778 -2.97779,-2.9778 l -183.04442,0 c -1.64969,0 -2.97779,-1.32809 -2.97779,-2.97779 l 0,-9.67419 c 0,-1.6497 1.3281,-2.97779 2.97779,-2.97779 l 183.04442,-2e-5 c 1.64969,0 2.97779,-1.32809 2.97779,-2.97779 l 0,-9.67419 c 0,-1.6497 -1.3281,-2.97779 -2.97779,-2.97779 l -183.04442,0 c -1.64969,0 -2.97779,-1.3281 -2.97779,-2.9778 l 0,-9.67419 c 0,-1.64969 1.3281,-2.97779 2.97779,-2.97779 l 183.04442,0 c 1.64969,0 2.97779,-1.3281 2.97779,-2.97779 l 0,-9.67419 c 0,-1.6497 -1.3281,-2.9778 -2.97779,-2.9778 l -183.04442,0 c -1.64969,0 -2.97779,-1.32809 -2.97779,-2.97779 l 0,-9.67419 c 0,-1.6497 1.3281,-2.97779 2.97779,-2.97779 l 183.04442,0 c 1.64969,0 2.97779,-1.3281 2.97779,-2.9778 l 0,-9.67418 c 0,-1.649702 -1.3281,-2.977797 -2.97779,-2.977797 l -183.04442,-1e-6 C 44.8281,98.259582 43.5,96.931486 43.5,95.281789 l 0,-9.67419 c 0,-1.649697 1.3281,-2.977792 2.97779,-2.977792 l 183.04442,-10e-7 c 1.64969,0 2.97779,-1.328096 2.97779,-2.977793 l 0,-9.67419 c 0,-1.649697 -1.3281,-2.977792 -2.97779,-2.977792 L 50.50023,67 31.500115,67 22.5,77 z"
       style="color:#000000;fill:#ffffff;stroke:none;stroke-width:1.00000036px;marker:none;visibility:visible;display:inline;overflow:visible;enable-background:accumulate"
       id="path3860"
       zpos="-1" />
    <path
       id="C-left-4-35"
       style="color:#000000;fill:none;stroke:#000000;stroke-width:1.00000036px;stroke-linecap:square;stroke-linejoin:miter;stroke-miterlimit:4;stroke-opacity:1;stroke-dasharray:none;stroke-dashoffset:0;marker:none;visibility:visible;display:inline;overflow:visible;enable-background:accumulate"
       d="m 30.5,333 10.00023,0 189.02198,0 c 1.64969,0 2.97779,-1.32809 2.97779,-2.97779 l 0,-9.67419 c 0,-1.6497 -1.3281,-2.97779 -2.97779,-2.97779 l -183.04442,-2e-5 c -1.64969,0 -2.97779,-1.32809 -2.97779,-2.97779 l 0,-9.67419 c 0,-1.6497 1.3281,-2.97779 2.97779,-2.97779 l 183.04442,1e-5 c 1.64969,0 2.97779,-1.32809 2.97779,-2.97779 l 0,-9.67419 c 0,-1.6497 -1.3281,-2.97779 -2.97779,-2.97779 l -183.04442,-2e-5 c -1.64969,0 -2.97779,-1.32809 -2.97779,-2.97779 l 0,-9.67419 c 0,-1.6497 1.3281,-2.97779 2.97779,-2.97779 l 183.04442,1e-5 c 1.64969,0 2.97779,-1.3281 2.97779,-2.97779 l 0,-9.67419 c 0,-1.6497 -1.3281,-2.97779 -2.97779,-2.97779 l -183.04442,-1e-5 c -1.64969,0 -2.97779,-1.32809 -2.97779,-2.97779 l 0,-9.67419 c 0,-1.6497 1.3281,-2.97779 2.97779,-2.97779 l 183.04442,0 c 1.64969,0 2.97779,-1.3281 2.97779,-2.97779 l 0,-9.67419 c 0,-1.6497 -1.3281,-2.9778 -2.97779,-2.9778 l -183.04442,0 c -1.64969,0 -2.97779,-1.32809 -2.97779,-2.97779 l 0,-9.67419 c 0,-1.6497 1.3281,-2.97779 2.97779,-2.97779 l 183.04442,0.0271 c 1.64969,0 2.97779,-1.32811 2.97779,-2.97779 l 0,-9.99506 c 0,-1.6497 -1.3281,-2.9778 -2.97779,-2.9778 l -183.04442,0 c -1.64969,0 -2.97779,-1.32809 -2.97779,-2.97779 l 0,-9.67419 c 0,-1.6497 1.3281,-2.97779 2.97779,-2.97779 l 183.04442,-2e-5 c 1.64969,0 2.97779,-1.32809 2.97779,-2.97779 l 0,-9.67419 c 0,-1.6497 -1.3281,-2.97779 -2.97779,-2.97779 l -183.04442,0 c -1.64969,0 -2.97779,-1.3281 -2.97779,-2.9778 l 0,-9.67419 c 0,-1.64969 1.3281,-2.97779 2.97779,-2.97779 l 183.04442,0 c 1.64969,0 2.97779,-1.3281 2.97779,-2.97779 l 0,-9.67419 c 0,-1.6497 -1.3281,-2.9778 -2.97779,-2.9778 l -183.04442,0 c -1.64969,0 -2.97779,-1.32809 -2.97779,-2.97779 l 0,-9.67419 c 0,-1.6497 1.3281,-2.97779 2.97779,-2.97779 l 183.04442,0 c 1.64969,0 2.97779,-1.3281 2.97779,-2.9778 l 0,-9.67418 c 0,-1.649702 -1.3281,-2.977797 -2.97779,-2.977797 l -183.04442,-1e-6 C 44.8281,98.259582 43.5,96.931486 43.5,95.281789 l 0,-9.67419 c 0,-1.649697 1.3281,-2.977792 2.97779,-2.977792 l 183.04442,-10e-7 c 1.64969,0 2.97779,-1.328096 2.97779,-2.977793 l 0,-9.67419 c 0,-1.649697 -1.3281,-2.977792 -2.97779,-2.977792 L 40.50023,67 30.5,67"
       inkscape:connector-curvature="0"
       sodipodi:nodetypes="cccssssssssssssssssssssssssssssssccssssssssssssssssssssssssssssssssssccc" />
  </g>
  <g
     inkscape:label="L-007"
     id="g3856"
     inkscape:groupmode="layer"
     style="display:none">
    <path
       id="path3862"
       style="color:#000000;fill:#ffffff;stroke:none;stroke-width:1.00000036px;marker:none;visibility:visible;display:inline;overflow:visible;enable-background:accumulate"
       d="m 27.5,323 3.000115,10 20.000115,0 129.02198,0 c 1.64969,0 2.97779,-1.32809 2.97779,-2.97779 l 0,-9.67419 c 0,-1.6497 -1.3281,-2.97778 -2.97779,-2.97779 l -6.04442,-2e-5 C 171.8281,317.3702 170.5,316.04212 170.5,314.39242 l 0,-9.67419 c 0,-1.6497 1.3281,-2.97779 2.97779,-2.97779 l 6.04442,1e-5 c 1.64969,0 2.97779,-1.32809 2.97779,-2.97779 l 0,-9.67419 c 0,-1.6497 -1.3281,-2.97778 -2.97779,-2.97779 l -6.04442,-2e-5 C 171.8281,286.11065 170.5,284.78257 170.5,283.13287 l 0,-9.67419 c 0,-1.6497 1.3281,-2.97779 2.97779,-2.97779 l 6.04442,1e-5 c 1.64969,0 2.97779,-1.3281 2.97779,-2.97779 l 0,-9.67419 c 0,-1.6497 -1.3281,-2.97779 -2.97779,-2.97779 l -6.04442,-1e-5 c -1.64969,0 -2.97779,-1.32809 -2.97779,-2.97779 l 0,-9.67419 c 0,-1.6497 1.3281,-2.97779 2.97779,-2.97779 l 6.04442,0 c 1.64969,0 2.97779,-1.3281 2.97779,-2.97779 l 0,-9.67419 c 0,-1.6497 -1.3281,-2.9778 -2.97779,-2.9778 l -6.04442,0 c -1.64969,0 -2.97779,-1.32809 -2.97779,-2.97779 l 0,-9.67419 c 0,-1.6497 1.3281,-2.97779 2.97779,-2.97779 l 6.04442,0.0271 c 1.64969,0 2.97779,-1.32811 2.97779,-2.97779 l 0,-9.99506 c 0,-1.6497 -1.3281,-2.9778 -2.97779,-2.9778 l -6.04442,0 c -1.64969,0 -2.97779,-1.32809 -2.97779,-2.97779 l 0,-9.67419 c 0,-1.6497 1.3281,-2.97778 2.97779,-2.97779 l 6.04442,-2e-5 c 1.64969,-1e-5 2.97779,-1.32809 2.97779,-2.97779 l 0,-9.67419 c 0,-1.6497 -1.3281,-2.97779 -2.97779,-2.97779 l -6.04442,0 c -1.64969,0 -2.97779,-1.3281 -2.97779,-2.9778 l 0,-9.67419 c 0,-1.64969 1.3281,-2.97779 2.97779,-2.97779 l 6.04442,0 c 1.64969,0 2.97779,-1.3281 2.97779,-2.97779 l 0,-9.67419 c 0,-1.6497 -1.3281,-2.9778 -2.97779,-2.9778 l -6.04442,0 c -1.64969,0 -2.97779,-1.32809 -2.97779,-2.97779 l 0,-9.67419 c 0,-1.6497 1.3281,-2.97779 2.97779,-2.97779 l 6.04442,0 c 1.64969,0 2.97779,-1.3281 2.97779,-2.9778 l 0,-9.67418 c 0,-1.649702 -1.3281,-2.977797 -2.97779,-2.977797 l -6.04442,-1e-6 c -1.64969,0 -2.97779,-1.328096 -2.97779,-2.977793 l 0,-9.67419 c 0,-1.649697 1.3281,-2.977792 2.97779,-2.977792 l 6.04442,-10e-7 c 1.64969,0 2.97779,-1.328096 2.97779,-2.977793 l 0,-9.67419 c 0,-1.649697 -1.3281,-2.977792 -2.97779,-2.977792 L 50.50023,67 30.500115,67 27.5,77 z"
       inkscape:connector-curvature="0"
       sodipodi:nodetypes="ccccssssssssssssssssssssssssssssssccssssssssssssssssssssssssssssssssssccccc"
       zpos="-1" />
    <path
       sodipodi:nodetypes="cccssssssssssssssssssssssssssssssccssssssssssssssssssssssssssssssssssccc"
       inkscape:connector-curvature="0"
       d="m 30.5,333 10.00023,0 139.02198,0 c 1.64969,0 2.97779,-1.32809 2.97779,-2.97779 l 0,-9.67419 c 0,-1.6497 -1.3281,-2.97778 -2.97779,-2.97779 l -6.04442,-2e-5 C 171.8281,317.3702 170.5,316.04212 170.5,314.39242 l 0,-9.67419 c 0,-1.6497 1.3281,-2.97779 2.97779,-2.97779 l 6.04442,1e-5 c 1.64969,0 2.97779,-1.32809 2.97779,-2.97779 l 0,-9.67419 c 0,-1.6497 -1.3281,-2.97778 -2.97779,-2.97779 l -6.04442,-2e-5 C 171.8281,286.11065 170.5,284.78257 170.5,283.13287 l 0,-9.67419 c 0,-1.6497 1.3281,-2.97779 2.97779,-2.97779 l 6.04442,1e-5 c 1.64969,0 2.97779,-1.3281 2.97779,-2.97779 l 0,-9.67419 c 0,-1.6497 -1.3281,-2.97779 -2.97779,-2.97779 l -6.04442,-1e-5 c -1.64969,0 -2.97779,-1.32809 -2.97779,-2.97779 l 0,-9.67419 c 0,-1.6497 1.3281,-2.97779 2.97779,-2.97779 l 6.04442,0 c 1.64969,0 2.97779,-1.3281 2.97779,-2.97779 l 0,-9.67419 c 0,-1.6497 -1.3281,-2.9778 -2.97779,-2.9778 l -6.04442,0 c -1.64969,0 -2.97779,-1.32809 -2.97779,-2.97779 l 0,-9.67419 c 0,-1.6497 1.3281,-2.97779 2.97779,-2.97779 l 6.04442,0.0271 c 1.64969,0 2.97779,-1.32811 2.97779,-2.97779 l 0,-9.99506 c 0,-1.6497 -1.3281,-2.9778 -2.97779,-2.9778 l -6.04442,0 c -1.64969,0 -2.97779,-1.32809 -2.97779,-2.97779 l 0,-9.67419 c 0,-1.6497 1.3281,-2.97778 2.97779,-2.97779 l 6.04442,-2e-5 c 1.64969,-1e-5 2.97779,-1.32809 2.97779,-2.97779 l 0,-9.67419 c 0,-1.6497 -1.3281,-2.97779 -2.97779,-2.97779 l -6.04442,0 c -1.64969,0 -2.97779,-1.3281 -2.97779,-2.9778 l 0,-9.67419 c 0,-1.64969 1.3281,-2.97779 2.97779,-2.97779 l 6.04442,0 c 1.64969,0 2.97779,-1.3281 2.97779,-2.97779 l 0,-9.67419 c 0,-1.6497 -1.3281,-2.9778 -2.97779,-2.9778 l -6.04442,0 c -1.64969,0 -2.97779,-1.32809 -2.97779,-2.97779 l 0,-9.67419 c 0,-1.6497 1.3281,-2.97779 2.97779,-2.97779 l 6.04442,0 c 1.64969,0 2.97779,-1.3281 2.97779,-2.9778 l 0,-9.67418 c 0,-1.649702 -1.3281,-2.977797 -2.97779,-2.977797 l -6.04442,-1e-6 c -1.64969,0 -2.97779,-1.328096 -2.97779,-2.977793 l 0,-9.67419 c 0,-1.649697 1.3281,-2.977792 2.97779,-2.977792 l 6.04442,-10e-7 c 1.64969,0 2.97779,-1.328096 2.97779,-2.977793 l 0,-9.67419 c 0,-1.649697 -1.3281,-2.977792 -2.97779,-2.977792 L 40.50023,67 30.5,67"
       style="color:#000000;fill:none;stroke:#000000;stroke-width:1.00000036px;stroke-linecap:square;stroke-linejoin:miter;stroke-miterlimit:4;stroke-opacity:1;stroke-dasharray:none;stroke-dashoffset:0;marker:none;visibility:visible;display:inline;overflow:visible;enable-background:accumulate"
       id="path3858" />
  </g>
  <g
     style="display:none"
     inkscape:label="L-008"
     id="g3864"
     inkscape:groupmode="layer">
    <path
       id="path3866"
       style="color:#000000;fill:#ffffff;stroke:none;stroke-width:1.00000036px;marker:none;visibility:visible;display:inline;overflow:visible;enable-background:accumulate"
       d="m 27.5,323 3.000115,10 20.000115,0 219.02198,0 c 1.64969,0 2.97779,-1.32809 2.97779,-2.97779 l 0,-9.67419 c 0,-1.6497 -1.3281,-2.97779 -2.97779,-2.97779 l -162.04442,-2e-5 c -1.64969,0 -2.97779,-1.32809 -2.97779,-2.97779 l 0,-9.67419 c 0,-1.6497 1.3281,-2.97779 2.97779,-2.97779 l 162.04442,1e-5 c 1.64969,0 2.97779,-1.32809 2.97779,-2.97779 l 0,-9.67419 c 0,-1.6497 -1.3281,-2.97779 -2.97779,-2.97779 l -162.04442,-2e-5 c -1.64969,0 -2.97779,-1.32809 -2.97779,-2.97779 l 0,-9.67419 c 0,-1.6497 1.3281,-2.97779 2.97779,-2.97779 l 162.04442,1e-5 c 1.64969,0 2.97779,-1.3281 2.97779,-2.97779 l 0,-9.67419 c 0,-1.6497 -1.3281,-2.97779 -2.97779,-2.97779 l -162.04442,-1e-5 c -1.64969,0 -2.97779,-1.32809 -2.97779,-2.97779 l 0,-9.67419 c 0,-1.6497 1.3281,-2.97779 2.97779,-2.97779 l 162.04442,0 c 1.64969,0 2.97779,-1.3281 2.97779,-2.97779 l 0,-9.67419 c 0,-1.6497 -1.3281,-2.9778 -2.97779,-2.9778 l -162.04442,0 c -1.64969,0 -2.97779,-1.32809 -2.97779,-2.97779 l 0,-9.67419 c 0,-1.6497 1.3281,-2.97779 2.97779,-2.97779 l 162.04442,0.0271 c 1.64969,0 2.97779,-1.32811 2.97779,-2.97779 l 0,-9.99506 c 0,-1.6497 -1.3281,-2.9778 -2.97779,-2.9778 l -162.04442,0 c -1.64969,0 -2.97779,-1.32809 -2.97779,-2.97779 l 0,-9.67419 c 0,-1.6497 1.3281,-2.97779 2.97779,-2.97779 l 162.04442,-2e-5 c 1.64969,0 2.97779,-1.32809 2.97779,-2.97779 l 0,-9.67419 c 0,-1.6497 -1.3281,-2.97779 -2.97779,-2.97779 l -162.04442,0 c -1.64969,0 -2.97779,-1.3281 -2.97779,-2.9778 l 0,-9.67419 c 0,-1.64969 1.3281,-2.97779 2.97779,-2.97779 l 162.04442,0 c 1.64969,0 2.97779,-1.3281 2.97779,-2.97779 l 0,-9.67419 c 0,-1.6497 -1.3281,-2.9778 -2.97779,-2.9778 l -162.04442,0 c -1.64969,0 -2.97779,-1.32809 -2.97779,-2.97779 l 0,-9.67419 c 0,-1.6497 1.3281,-2.97779 2.97779,-2.97779 l 162.04442,0 c 1.64969,0 2.97779,-1.3281 2.97779,-2.9778 l 0,-9.67418 c 0,-1.649702 -1.3281,-2.977797 -2.97779,-2.977797 l -162.04442,-1e-6 c -1.64969,0 -2.97779,-1.328096 -2.97779,-2.977793 l 0,-9.67419 c 0,-1.649697 1.3281,-2.977792 2.97779,-2.977792 l 162.04442,-10e-7 c 1.64969,0 2.97779,-1.328096 2.97779,-2.977793 l 0,-9.67419 c 0,-1.649697 -1.3281,-2.977792 -2.97779,-2.977792 L 50.50023,67 30.500115,67 27.5,77 z"
       inkscape:connector-curvature="0"
       sodipodi:nodetypes="ccccssssssssssssssssssssssssssssssccssssssssssssssssssssssssssssssssssccccc"
       zpos="-1" />
    <path
       sodipodi:nodetypes="cccssssssssssssssssssssssssssssssccssssssssssssssssssssssssssssssssssccc"
       inkscape:connector-curvature="0"
       d="m 30.5,333 10.00023,0 229.02198,0 c 1.64969,0 2.97779,-1.32809 2.97779,-2.97779 l 0,-9.67419 c 0,-1.6497 -1.3281,-2.97779 -2.97779,-2.97779 l -162.04442,-2e-5 c -1.64969,0 -2.97779,-1.32809 -2.97779,-2.97779 l 0,-9.67419 c 0,-1.6497 1.3281,-2.97779 2.97779,-2.97779 l 162.04442,1e-5 c 1.64969,0 2.97779,-1.32809 2.97779,-2.97779 l 0,-9.67419 c 0,-1.6497 -1.3281,-2.97779 -2.97779,-2.97779 l -162.04442,-2e-5 c -1.64969,0 -2.97779,-1.32809 -2.97779,-2.97779 l 0,-9.67419 c 0,-1.6497 1.3281,-2.97779 2.97779,-2.97779 l 162.04442,1e-5 c 1.64969,0 2.97779,-1.3281 2.97779,-2.97779 l 0,-9.67419 c 0,-1.6497 -1.3281,-2.97779 -2.97779,-2.97779 l -162.04442,-1e-5 c -1.64969,0 -2.97779,-1.32809 -2.97779,-2.97779 l 0,-9.67419 c 0,-1.6497 1.3281,-2.97779 2.97779,-2.97779 l 162.04442,0 c 1.64969,0 2.97779,-1.3281 2.97779,-2.97779 l 0,-9.67419 c 0,-1.6497 -1.3281,-2.9778 -2.97779,-2.9778 l -162.04442,0 c -1.64969,0 -2.97779,-1.32809 -2.97779,-2.97779 l 0,-9.67419 c 0,-1.6497 1.3281,-2.97779 2.97779,-2.97779 l 162.04442,0.0271 c 1.64969,0 2.97779,-1.32811 2.97779,-2.97779 l 0,-9.99506 c 0,-1.6497 -1.3281,-2.9778 -2.97779,-2.9778 l -162.04442,0 c -1.64969,0 -2.97779,-1.32809 -2.97779,-2.97779 l 0,-9.67419 c 0,-1.6497 1.3281,-2.97779 2.97779,-2.97779 l 162.04442,-2e-5 c 1.64969,0 2.97779,-1.32809 2.97779,-2.97779 l 0,-9.67419 c 0,-1.6497 -1.3281,-2.97779 -2.97779,-2.97779 l -162.04442,0 c -1.64969,0 -2.97779,-1.3281 -2.97779,-2.9778 l 0,-9.67419 c 0,-1.64969 1.3281,-2.97779 2.97779,-2.97779 l 162.04442,0 c 1.64969,0 2.97779,-1.3281 2.97779,-2.97779 l 0,-9.67419 c 0,-1.6497 -1.3281,-2.9778 -2.97779,-2.9778 l -162.04442,0 c -1.64969,0 -2.97779,-1.32809 -2.97779,-2.97779 l 0,-9.67419 c 0,-1.6497 1.3281,-2.97779 2.97779,-2.97779 l 162.04442,0 c 1.64969,0 2.97779,-1.3281 2.97779,-2.9778 l 0,-9.67418 c 0,-1.649702 -1.3281,-2.977797 -2.97779,-2.977797 l -162.04442,-1e-6 c -1.64969,0 -2.97779,-1.328096 -2.97779,-2.977793 l 0,-9.67419 c 0,-1.649697 1.3281,-2.977792 2.97779,-2.977792 l 162.04442,-10e-7 c 1.64969,0 2.97779,-1.328096 2.97779,-2.977793 l 0,-9.67419 c 0,-1.649697 -1.3281,-2.977792 -2.97779,-2.977792 L 40.50023,67 30.5,67"
       style="color:#000000;fill:none;stroke:#000000;stroke-width:1.00000036px;stroke-linecap:square;stroke-linejoin:miter;stroke-miterlimit:4;stroke-opacity:1;stroke-dasharray:none;stroke-dashoffset:0;marker:none;visibility:visible;display:inline;overflow:visible;enable-background:accumulate"
       id="path3868" />
  </g>
</svg>
