<?xml version="1.0" encoding="UTF-8" standalone="no"?>
<!-- Created with Inkscape (http://www.inkscape.org/) -->

<svg
   xmlns:dc="http://purl.org/dc/elements/1.1/"
   xmlns:cc="http://creativecommons.org/ns#"
   xmlns:rdf="http://www.w3.org/1999/02/22-rdf-syntax-ns#"
   xmlns:svg="http://www.w3.org/2000/svg"
   xmlns="http://www.w3.org/2000/svg"
   xmlns:sodipodi="http://sodipodi.sourceforge.net/DTD/sodipodi-0.dtd"
   xmlns:inkscape="http://www.inkscape.org/namespaces/inkscape"
   style="display:inline"
   sodipodi:docname="161122_Pressuru_00_UW_00_UW_.svg"
   inkscape:version="0.48.3.1 r9886"
   version="1.1"
   id="svg2902"
   height="400"
   width="400">
  <sodipodi:namedview
     id="base"
     pagecolor="#f0f0f0"
     bordercolor="#666666"
     borderopacity="1.0"
     inkscape:pageopacity="1"
     inkscape:pageshadow="2"
     inkscape:zoom="0.77318387"
     inkscape:cx="226.59738"
     inkscape:cy="97.311796"
     inkscape:document-units="px"
     inkscape:current-layer="g3459"
     showgrid="false"
     inkscape:window-width="1018"
     inkscape:window-height="709"
     inkscape:window-x="0"
     inkscape:window-y="1"
     inkscape:window-maximized="0"
     showguides="true"
     inkscape:guide-bbox="true"
     inkscape:snap-bbox="true"
     inkscape:snap-global="false" />
  <defs
     id="defs2904" />
  <metadata
     id="metadata2907">
    <rdf:RDF>
      <cc:Work
         rdf:about="">
        <dc:format>image/svg+xml</dc:format>
        <dc:type
           rdf:resource="http://purl.org/dc/dcmitype/StillImage" />
        <dc:title />
      </cc:Work>
    </rdf:RDF>
  </metadata>
  <g
     inkscape:groupmode="layer"
     id="layer1"
     inkscape:label="XX_BG"
     sodipodi:insensitive="true">
    <path
       style="color:#000000;fill:#c8b7b7;fill-opacity:1;fill-rule:nonzero;stroke:none;stroke-width:0;marker:none;visibility:visible;display:inline;overflow:visible;enable-background:accumulate"
       d="m 0,0 400,0 0,400 -400,0 z"
       id="rect3096"
       inkscape:connector-curvature="0" />
  </g>
  <g
     inkscape:label="XX_Referenz"
     inkscape:groupmode="layer"
     id="XX_referenz"
     layerid="XX_referenz"
     style="display:inline"
     sodipodi:insensitive="true">
    <path
       id="innerframe"
       style="fill:none;stroke:#ff0000;stroke-width:1;stroke-linecap:round;stroke-linejoin:miter;stroke-miterlimit:3.9000001;stroke-opacity:1;stroke-dasharray:none"
       d="m 40.500002,40.500004 318.999998,0 0,318.999996 -318.999997,0 0,-318.999996 z"
       inkscape:label="#innerframe"
       sodipodi:insensitive="true"
       inkscape:connector-curvature="0" />
    <path
       id="outerframe"
       style="fill:none;stroke:#ff0000;stroke-width:1;stroke-linecap:round;stroke-linejoin:miter;stroke-miterlimit:3.9000001;stroke-opacity:1;stroke-dasharray:none;display:inline"
       d="m 30.500003,30.5 338.999997,0 0,339 -338.999997,0 0,-339 z"
       inkscape:label="#outerframe"
       sodipodi:nodetypes="ccccc"
       sodipodi:insensitive="true"
       inkscape:connector-curvature="0" />
    <path
       style="opacity:0.5;fill:none;stroke:#ffc200;stroke-width:1.00000036px;stroke-linecap:square;stroke-linejoin:miter;stroke-opacity:1;display:inline"
       d="m 189,30.5 0,10.000237"
       id="ref-S-top-1"
       sodipodi:insensitive="true"
       inkscape:connector-curvature="0" />
    <path
       style="opacity:0.5;fill:none;stroke:#ffc200;stroke-width:1.00000036px;stroke-linecap:square;stroke-linejoin:miter;stroke-opacity:1;display:inline"
       d="m 191,30.5 0,10.000237"
       id="ref-S-top-2"
       sodipodi:insensitive="true"
       inkscape:connector-curvature="0" />
    <path
       style="opacity:0.5;fill:none;stroke:#ffc200;stroke-width:1.00000036px;stroke-linecap:square;stroke-linejoin:miter;stroke-opacity:1;display:inline"
       d="m 209,30.5 0,10.000237"
       id="ref-S-top-3"
       sodipodi:insensitive="true"
       inkscape:connector-curvature="0" />
    <path
       style="opacity:0.5;fill:none;stroke:#ffc200;stroke-width:1.00000036px;stroke-linecap:square;stroke-linejoin:miter;stroke-opacity:1;display:inline"
       d="m 211,30.5 0,10.000237"
       id="ref-S-top-4"
       sodipodi:insensitive="true"
       inkscape:connector-curvature="0" />
    <path
       style="opacity:0.5;fill:none;stroke:#00ff00;stroke-width:1.00000036px;stroke-linecap:square;stroke-linejoin:miter;stroke-opacity:1;display:inline"
       d="m 199,30.5 0,10.000237"
       id="ref-I-top-1"
       sodipodi:insensitive="true"
       inkscape:connector-curvature="0" />
    <path
       style="opacity:0.5;fill:none;stroke:#00ff00;stroke-width:1.00000036px;stroke-linecap:square;stroke-linejoin:miter;stroke-opacity:1;display:inline"
       d="m 201,30.5 0,10.000237"
       id="ref-I-top-2"
       sodipodi:insensitive="true"
       inkscape:connector-curvature="0" />
    <path
       style="opacity:0.5;color:#000000;fill:none;stroke:#00ffcc;stroke-width:1.00000036px;stroke-linecap:square;stroke-linejoin:miter;stroke-miterlimit:4;stroke-opacity:1;stroke-dasharray:none;stroke-dashoffset:0;marker:none;visibility:visible;display:inline;overflow:visible;enable-background:accumulate"
       d="m 66,30.5 0,10.000237"
       id="ref-C-top-1"
       sodipodi:insensitive="true"
       inkscape:connector-curvature="0" />
    <path
       style="opacity:0.5;color:#000000;fill:none;stroke:#00ffcc;stroke-width:1.00000036px;stroke-linecap:square;stroke-linejoin:miter;stroke-miterlimit:4;stroke-opacity:1;stroke-dasharray:none;stroke-dashoffset:0;marker:none;visibility:visible;display:inline;overflow:visible;enable-background:accumulate"
       d="m 68,30.5 0,10.000237"
       id="ref-C-top-2"
       sodipodi:insensitive="true"
       inkscape:connector-curvature="0" />
    <path
       style="opacity:0.5;color:#000000;fill:none;stroke:#00ffcc;stroke-width:1.00000036px;stroke-linecap:square;stroke-linejoin:miter;stroke-miterlimit:4;stroke-opacity:1;stroke-dasharray:none;stroke-dashoffset:0;marker:none;visibility:visible;display:inline;overflow:visible;enable-background:accumulate"
       d="m 92,30.5 0,10.000237"
       id="ref-C-top-3"
       sodipodi:insensitive="true"
       inkscape:connector-curvature="0" />
    <path
       style="opacity:0.5;color:#000000;fill:none;stroke:#00ffcc;stroke-width:1.00000036px;stroke-linecap:square;stroke-linejoin:miter;stroke-miterlimit:4;stroke-opacity:1;stroke-dasharray:none;stroke-dashoffset:0;marker:none;visibility:visible;display:inline;overflow:visible;enable-background:accumulate"
       d="m 94,30.5 0,10.000237"
       id="ref-C-top-4"
       sodipodi:insensitive="true"
       inkscape:connector-curvature="0" />
    <path
       style="opacity:0.5;color:#000000;fill:none;stroke:#00ffcc;stroke-width:1.00000036px;stroke-linecap:square;stroke-linejoin:miter;stroke-miterlimit:4;stroke-opacity:1;stroke-dasharray:none;stroke-dashoffset:0;marker:none;visibility:visible;display:inline;overflow:visible;enable-background:accumulate"
       d="m 306,30.5 0,10.000237"
       id="ref-C-top-5"
       sodipodi:insensitive="true"
       inkscape:connector-curvature="0" />
    <path
       style="opacity:0.5;color:#000000;fill:none;stroke:#00ffcc;stroke-width:1.00000036px;stroke-linecap:square;stroke-linejoin:miter;stroke-miterlimit:4;stroke-opacity:1;stroke-dasharray:none;stroke-dashoffset:0;marker:none;visibility:visible;display:inline;overflow:visible;enable-background:accumulate"
       d="m 308,30.5 0,10.000237"
       id="ref-C-top-6"
       sodipodi:insensitive="true"
       inkscape:connector-curvature="0" />
    <path
       style="opacity:0.5;color:#000000;fill:none;stroke:#00ffcc;stroke-width:1.00000036px;stroke-linecap:square;stroke-linejoin:miter;stroke-miterlimit:4;stroke-opacity:1;stroke-dasharray:none;stroke-dashoffset:0;marker:none;visibility:visible;display:inline;overflow:visible;enable-background:accumulate"
       d="m 332,30.5 0,10.000237"
       id="ref-C-top-7"
       sodipodi:insensitive="true"
       inkscape:connector-curvature="0" />
    <path
       style="opacity:0.5;color:#000000;fill:none;stroke:#00ffcc;stroke-width:1.00000036px;stroke-linecap:square;stroke-linejoin:miter;stroke-miterlimit:4;stroke-opacity:1;stroke-dasharray:none;stroke-dashoffset:0;marker:none;visibility:visible;display:inline;overflow:visible;enable-background:accumulate"
       d="m 334,30.5 0,10.000237"
       id="ref-C-top-8"
       sodipodi:insensitive="true"
       inkscape:connector-curvature="0" />
    <path
       style="color:#000000;fill:none;stroke:#000000;stroke-width:1.00000036px;stroke-linecap:square;stroke-linejoin:miter;stroke-miterlimit:4;stroke-opacity:1;stroke-dasharray:none;stroke-dashoffset:0;marker:none;visibility:visible;display:inline;overflow:visible;enable-background:accumulate"
       d="m 190,30.5 0,10.000237"
       id="S-top-1"
       inkscape:connector-curvature="0" />
    <path
       style="color:#000000;fill:none;stroke:#000000;stroke-width:1.00000036px;stroke-linecap:square;stroke-linejoin:miter;stroke-miterlimit:4;stroke-opacity:1;stroke-dasharray:none;stroke-dashoffset:0;marker:none;visibility:visible;display:inline;overflow:visible;enable-background:accumulate"
       d="m 210,30.5 0,10.000237"
       id="S-top-2"
       inkscape:connector-curvature="0" />
    <path
       style="fill:none;stroke:#000000;stroke-width:1.00000036px;stroke-linecap:square;stroke-linejoin:miter;stroke-opacity:1;display:inline"
       d="m 200,30.5 0,10.000237"
       id="I-top-1"
       inkscape:connector-curvature="0" />
    <path
       style="color:#000000;fill:none;stroke:#000000;stroke-width:1.00000036px;stroke-linecap:square;stroke-linejoin:miter;stroke-miterlimit:4;stroke-opacity:1;stroke-dasharray:none;stroke-dashoffset:0;marker:none;visibility:visible;display:inline;overflow:visible;enable-background:accumulate"
       d="m 67,30.5 0,10.000237"
       id="C-top-1"
       inkscape:connector-curvature="0" />
    <path
       style="color:#000000;fill:none;stroke:#000000;stroke-width:1.00000036px;stroke-linecap:square;stroke-linejoin:miter;stroke-miterlimit:4;stroke-opacity:1;stroke-dasharray:none;stroke-dashoffset:0;marker:none;visibility:visible;display:inline;overflow:visible;enable-background:accumulate"
       d="m 93,30.5 0,10.000237"
       id="C-top-2"
       inkscape:connector-curvature="0" />
    <path
       style="color:#000000;fill:none;stroke:#000000;stroke-width:1.00000036px;stroke-linecap:square;stroke-linejoin:miter;stroke-miterlimit:4;stroke-opacity:1;stroke-dasharray:none;stroke-dashoffset:0;marker:none;visibility:visible;display:inline;overflow:visible;enable-background:accumulate"
       d="m 307,30.5 0,10.000237"
       id="C-top-3"
       inkscape:connector-curvature="0" />
    <path
       style="color:#000000;fill:none;stroke:#000000;stroke-width:1.00000036px;stroke-linecap:square;stroke-linejoin:miter;stroke-miterlimit:4;stroke-opacity:1;stroke-dasharray:none;stroke-dashoffset:0;marker:none;visibility:visible;display:inline;overflow:visible;enable-background:accumulate"
       d="m 333,30.5 0,10.000237"
       id="C-top-4"
       inkscape:connector-curvature="0" />
    <path
       style="opacity:0.5;fill:none;stroke:#ffc200;stroke-width:1.00000036px;stroke-linecap:square;stroke-linejoin:miter;stroke-opacity:1;display:inline"
       d="m 369.5,189 -10.00024,0"
       id="ref-S-right-1"
       sodipodi:insensitive="true"
       inkscape:connector-curvature="0" />
    <path
       style="opacity:0.5;fill:none;stroke:#ffc200;stroke-width:1.00000036px;stroke-linecap:square;stroke-linejoin:miter;stroke-opacity:1;display:inline"
       d="m 369.5,191 -10.00024,0"
       id="ref-S-right-2"
       sodipodi:insensitive="true"
       inkscape:connector-curvature="0" />
    <path
       style="opacity:0.5;fill:none;stroke:#ffc200;stroke-width:1.00000036px;stroke-linecap:square;stroke-linejoin:miter;stroke-opacity:1;display:inline"
       d="m 369.5,209 -10.00024,0"
       id="ref-S-right-3"
       sodipodi:insensitive="true"
       inkscape:connector-curvature="0" />
    <path
       style="opacity:0.5;fill:none;stroke:#ffc200;stroke-width:1.00000036px;stroke-linecap:square;stroke-linejoin:miter;stroke-opacity:1;display:inline"
       d="m 369.5,211 -10.00024,0"
       id="ref-S-right-4"
       sodipodi:insensitive="true"
       inkscape:connector-curvature="0" />
    <path
       style="opacity:0.5;fill:none;stroke:#00ff00;stroke-width:1.00000036px;stroke-linecap:square;stroke-linejoin:miter;stroke-opacity:1;display:inline"
       d="m 369.5,199 -10.00024,0"
       id="ref-I-right-1"
       sodipodi:insensitive="true"
       inkscape:connector-curvature="0" />
    <path
       style="opacity:0.5;fill:none;stroke:#00ff00;stroke-width:1.00000036px;stroke-linecap:square;stroke-linejoin:miter;stroke-opacity:1;display:inline"
       d="m 369.5,201 -10.00024,0"
       id="ref-I-right-2"
       sodipodi:insensitive="true"
       inkscape:connector-curvature="0" />
    <path
       style="opacity:0.5;color:#000000;fill:none;stroke:#00ffcc;stroke-width:1.00000036px;stroke-linecap:square;stroke-linejoin:miter;stroke-miterlimit:4;stroke-opacity:1;stroke-dasharray:none;stroke-dashoffset:0;marker:none;visibility:visible;display:inline;overflow:visible;enable-background:accumulate"
       d="m 369.5,66 -10.00023,0"
       id="ref-C-right-1"
       sodipodi:insensitive="true"
       inkscape:connector-curvature="0" />
    <path
       style="opacity:0.5;color:#000000;fill:none;stroke:#00ffcc;stroke-width:1.00000036px;stroke-linecap:square;stroke-linejoin:miter;stroke-miterlimit:4;stroke-opacity:1;stroke-dasharray:none;stroke-dashoffset:0;marker:none;visibility:visible;display:inline;overflow:visible;enable-background:accumulate"
       d="m 369.5,68 -10.00023,0"
       id="ref-C-right-2"
       sodipodi:insensitive="true"
       inkscape:connector-curvature="0" />
    <path
       style="opacity:0.5;color:#000000;fill:none;stroke:#00ffcc;stroke-width:1.00000036px;stroke-linecap:square;stroke-linejoin:miter;stroke-miterlimit:4;stroke-opacity:1;stroke-dasharray:none;stroke-dashoffset:0;marker:none;visibility:visible;display:inline;overflow:visible;enable-background:accumulate"
       d="m 369.5,92 -10.00023,0"
       id="ref-C-right-3"
       sodipodi:insensitive="true"
       inkscape:connector-curvature="0" />
    <path
       style="opacity:0.5;color:#000000;fill:none;stroke:#00ffcc;stroke-width:1.00000036px;stroke-linecap:square;stroke-linejoin:miter;stroke-miterlimit:4;stroke-opacity:1;stroke-dasharray:none;stroke-dashoffset:0;marker:none;visibility:visible;display:inline;overflow:visible;enable-background:accumulate"
       d="m 369.5,94 -10.00023,0"
       id="ref-C-right-4"
       sodipodi:insensitive="true"
       inkscape:connector-curvature="0" />
    <path
       style="opacity:0.5;color:#000000;fill:none;stroke:#00ffcc;stroke-width:1.00000036px;stroke-linecap:square;stroke-linejoin:miter;stroke-miterlimit:4;stroke-opacity:1;stroke-dasharray:none;stroke-dashoffset:0;marker:none;visibility:visible;display:inline;overflow:visible;enable-background:accumulate"
       d="m 369.5,306 -10.00023,0"
       id="ref-C-right-5"
       sodipodi:insensitive="true"
       inkscape:connector-curvature="0" />
    <path
       style="opacity:0.5;color:#000000;fill:none;stroke:#00ffcc;stroke-width:1.00000036px;stroke-linecap:square;stroke-linejoin:miter;stroke-miterlimit:4;stroke-opacity:1;stroke-dasharray:none;stroke-dashoffset:0;marker:none;visibility:visible;display:inline;overflow:visible;enable-background:accumulate"
       d="m 369.5,308 -10.00023,0"
       id="ref-C-right-6"
       sodipodi:insensitive="true"
       inkscape:connector-curvature="0" />
    <path
       style="opacity:0.5;color:#000000;fill:none;stroke:#00ffcc;stroke-width:1.00000036px;stroke-linecap:square;stroke-linejoin:miter;stroke-miterlimit:4;stroke-opacity:1;stroke-dasharray:none;stroke-dashoffset:0;marker:none;visibility:visible;display:inline;overflow:visible;enable-background:accumulate"
       d="m 369.5,332 -10.00023,0"
       id="ref-C-right-7"
       sodipodi:insensitive="true"
       inkscape:connector-curvature="0" />
    <path
       style="opacity:0.5;color:#000000;fill:none;stroke:#00ffcc;stroke-width:1.00000036px;stroke-linecap:square;stroke-linejoin:miter;stroke-miterlimit:4;stroke-opacity:1;stroke-dasharray:none;stroke-dashoffset:0;marker:none;visibility:visible;display:inline;overflow:visible;enable-background:accumulate"
       d="m 369.5,334 -10.00023,0"
       id="ref-C-right-8"
       sodipodi:insensitive="true"
       inkscape:connector-curvature="0" />
    <path
       style="fill:none;stroke:#000000;stroke-width:1.00000036px;stroke-linecap:square;stroke-linejoin:miter;stroke-opacity:1"
       d="m 369.5,190 -10.00024,0"
       id="S-right-1"
       inkscape:connector-curvature="0" />
    <path
       style="fill:none;stroke:#000000;stroke-width:1.00000036px;stroke-linecap:square;stroke-linejoin:miter;stroke-opacity:1;display:inline"
       d="m 369.5,210 -10.00024,0"
       id="S-right-2"
       inkscape:connector-curvature="0" />
    <path
       style="fill:none;stroke:#000000;stroke-width:1.00000036px;stroke-linecap:square;stroke-linejoin:miter;stroke-opacity:1;display:inline"
       d="m 369.5,200 -10.00024,0"
       id="I-right-1"
       inkscape:connector-curvature="0" />
    <path
       style="color:#000000;fill:none;stroke:#000000;stroke-width:1.00000036px;stroke-linecap:square;stroke-linejoin:miter;stroke-miterlimit:4;stroke-opacity:1;stroke-dasharray:none;stroke-dashoffset:0;marker:none;visibility:visible;display:inline;overflow:visible;enable-background:accumulate"
       d="m 369.5,67 -10.00023,0"
       id="C-right-1"
       inkscape:connector-curvature="0" />
    <path
       style="color:#000000;fill:none;stroke:#000000;stroke-width:1.00000036px;stroke-linecap:square;stroke-linejoin:miter;stroke-miterlimit:4;stroke-opacity:1;stroke-dasharray:none;stroke-dashoffset:0;marker:none;visibility:visible;display:inline;overflow:visible;enable-background:accumulate"
       d="m 369.5,93 -10.00023,0"
       id="C-right-2"
       inkscape:connector-curvature="0" />
    <path
       style="color:#000000;fill:none;stroke:#000000;stroke-width:1.00000036px;stroke-linecap:square;stroke-linejoin:miter;stroke-miterlimit:4;stroke-opacity:1;stroke-dasharray:none;stroke-dashoffset:0;marker:none;visibility:visible;display:inline;overflow:visible;enable-background:accumulate"
       d="m 369.5,307 -10.00023,0"
       id="C-right-3"
       inkscape:connector-curvature="0" />
    <path
       style="color:#000000;fill:none;stroke:#000000;stroke-width:1.00000036px;stroke-linecap:square;stroke-linejoin:miter;stroke-miterlimit:4;stroke-opacity:1;stroke-dasharray:none;stroke-dashoffset:0;marker:none;visibility:visible;display:inline;overflow:visible;enable-background:accumulate"
       d="m 369.5,333 -10.00023,0"
       id="C-right-4"
       inkscape:connector-curvature="0" />
    <path
       style="opacity:0.5;fill:none;stroke:#ffc200;stroke-width:1.00000036px;stroke-linecap:square;stroke-linejoin:miter;stroke-opacity:1;display:inline"
       d="m 189,369.5 0,-10.00024"
       id="ref-S-bottom-1"
       sodipodi:insensitive="true"
       inkscape:connector-curvature="0" />
    <path
       style="opacity:0.5;fill:none;stroke:#ffc200;stroke-width:1.00000036px;stroke-linecap:square;stroke-linejoin:miter;stroke-opacity:1;display:inline"
       d="m 191,369.5 0,-10.00024"
       id="ref-S-bottom-2"
       sodipodi:insensitive="true"
       inkscape:connector-curvature="0" />
    <path
       style="opacity:0.5;fill:none;stroke:#ffc200;stroke-width:1.00000036px;stroke-linecap:square;stroke-linejoin:miter;stroke-opacity:1;display:inline"
       d="m 209,369.5 0,-10.00024"
       id="ref-S-bottom-3"
       sodipodi:insensitive="true"
       inkscape:connector-curvature="0" />
    <path
       style="opacity:0.5;fill:none;stroke:#ffc200;stroke-width:1.00000036px;stroke-linecap:square;stroke-linejoin:miter;stroke-opacity:1;display:inline"
       d="m 211,369.5 0,-10.00024"
       id="ref-S-bottom-4"
       sodipodi:insensitive="true"
       inkscape:connector-curvature="0" />
    <path
       style="opacity:0.5;fill:none;stroke:#00ff00;stroke-width:1.00000036px;stroke-linecap:square;stroke-linejoin:miter;stroke-opacity:1;display:inline"
       d="m 199,369.5 0,-10.00024"
       id="ref-I-bottom-1"
       sodipodi:insensitive="true"
       inkscape:connector-curvature="0" />
    <path
       style="opacity:0.5;fill:none;stroke:#00ff00;stroke-width:1.00000036px;stroke-linecap:square;stroke-linejoin:miter;stroke-opacity:1;display:inline"
       d="m 201,369.5 0,-10.00024"
       id="ref-I-bottom-2"
       sodipodi:insensitive="true"
       inkscape:connector-curvature="0" />
    <path
       style="opacity:0.5;color:#000000;fill:none;stroke:#00ffcc;stroke-width:1.00000036px;stroke-linecap:square;stroke-linejoin:miter;stroke-miterlimit:4;stroke-opacity:1;stroke-dasharray:none;stroke-dashoffset:0;marker:none;visibility:visible;display:inline;overflow:visible;enable-background:accumulate"
       d="m 66,369.5 0,-10.00023"
       id="ref-C-bottom-1"
       sodipodi:insensitive="true"
       inkscape:connector-curvature="0" />
    <path
       style="opacity:0.5;color:#000000;fill:none;stroke:#00ffcc;stroke-width:1.00000036px;stroke-linecap:square;stroke-linejoin:miter;stroke-miterlimit:4;stroke-opacity:1;stroke-dasharray:none;stroke-dashoffset:0;marker:none;visibility:visible;display:inline;overflow:visible;enable-background:accumulate"
       d="m 68,369.5 0,-10.00023"
       id="ref-C-bottom-2"
       sodipodi:insensitive="true"
       inkscape:connector-curvature="0" />
    <path
       style="opacity:0.5;color:#000000;fill:none;stroke:#00ffcc;stroke-width:1.00000036px;stroke-linecap:square;stroke-linejoin:miter;stroke-miterlimit:4;stroke-opacity:1;stroke-dasharray:none;stroke-dashoffset:0;marker:none;visibility:visible;display:inline;overflow:visible;enable-background:accumulate"
       d="m 92,369.5 0,-10.00023"
       id="ref-C-bottom-3"
       sodipodi:insensitive="true"
       inkscape:connector-curvature="0" />
    <path
       style="opacity:0.5;color:#000000;fill:none;stroke:#00ffcc;stroke-width:1.00000036px;stroke-linecap:square;stroke-linejoin:miter;stroke-miterlimit:4;stroke-opacity:1;stroke-dasharray:none;stroke-dashoffset:0;marker:none;visibility:visible;display:inline;overflow:visible;enable-background:accumulate"
       d="m 94,369.5 0,-10.00023"
       id="ref-C-bottom-4"
       sodipodi:insensitive="true"
       inkscape:connector-curvature="0" />
    <path
       style="opacity:0.5;color:#000000;fill:none;stroke:#00ffcc;stroke-width:1.00000036px;stroke-linecap:square;stroke-linejoin:miter;stroke-miterlimit:4;stroke-opacity:1;stroke-dasharray:none;stroke-dashoffset:0;marker:none;visibility:visible;display:inline;overflow:visible;enable-background:accumulate"
       d="m 306,369.5 0,-10.00023"
       id="ref-C-bottom-5"
       sodipodi:insensitive="true"
       inkscape:connector-curvature="0" />
    <path
       style="opacity:0.5;color:#000000;fill:none;stroke:#00ffcc;stroke-width:1.00000036px;stroke-linecap:square;stroke-linejoin:miter;stroke-miterlimit:4;stroke-opacity:1;stroke-dasharray:none;stroke-dashoffset:0;marker:none;visibility:visible;display:inline;overflow:visible;enable-background:accumulate"
       d="m 308,369.5 0,-10.00023"
       id="ref-C-bottom-6"
       sodipodi:insensitive="true"
       inkscape:connector-curvature="0" />
    <path
       style="opacity:0.5;color:#000000;fill:none;stroke:#00ffcc;stroke-width:1.00000036px;stroke-linecap:square;stroke-linejoin:miter;stroke-miterlimit:4;stroke-opacity:1;stroke-dasharray:none;stroke-dashoffset:0;marker:none;visibility:visible;display:inline;overflow:visible;enable-background:accumulate"
       d="m 332,369.5 0,-10.00023"
       id="ref-C-bottom-7"
       sodipodi:insensitive="true"
       inkscape:connector-curvature="0" />
    <path
       style="opacity:0.5;color:#000000;fill:none;stroke:#00ffcc;stroke-width:1.00000036px;stroke-linecap:square;stroke-linejoin:miter;stroke-miterlimit:4;stroke-opacity:1;stroke-dasharray:none;stroke-dashoffset:0;marker:none;visibility:visible;display:inline;overflow:visible;enable-background:accumulate"
       d="m 334,369.5 0,-10.00023"
       id="ref-C-bottom-8"
       sodipodi:insensitive="true"
       inkscape:connector-curvature="0" />
    <path
       style="fill:none;stroke:#000000;stroke-width:1.00000036px;stroke-linecap:square;stroke-linejoin:miter;stroke-opacity:1;display:inline"
       d="m 190,369.5 0,-10.00024"
       id="S-bottom-1"
       inkscape:connector-curvature="0" />
    <path
       style="fill:none;stroke:#000000;stroke-width:1.00000036px;stroke-linecap:square;stroke-linejoin:miter;stroke-opacity:1"
       d="m 210,369.5 0,-10.00024"
       id="S-bottom-2"
       inkscape:connector-curvature="0" />
    <path
       style="fill:none;stroke:#000000;stroke-width:1.00000036px;stroke-linecap:square;stroke-linejoin:miter;stroke-opacity:1;display:inline"
       d="m 200,369.5 0,-10.00024"
       id="I-bottom-1"
       inkscape:connector-curvature="0" />
    <path
       style="color:#000000;fill:none;stroke:#000000;stroke-width:1.00000036px;stroke-linecap:square;stroke-linejoin:miter;stroke-miterlimit:4;stroke-opacity:1;stroke-dasharray:none;stroke-dashoffset:0;marker:none;visibility:visible;display:inline;overflow:visible;enable-background:accumulate"
       d="m 67,369.5 0,-10.00023"
       id="C-bottom-1"
       inkscape:connector-curvature="0" />
    <path
       style="color:#000000;fill:none;stroke:#000000;stroke-width:1.00000036px;stroke-linecap:square;stroke-linejoin:miter;stroke-miterlimit:4;stroke-opacity:1;stroke-dasharray:none;stroke-dashoffset:0;marker:none;visibility:visible;display:inline;overflow:visible;enable-background:accumulate"
       d="m 93,369.5 0,-10.00023"
       id="C-bottom-2"
       inkscape:connector-curvature="0" />
    <path
       style="color:#000000;fill:none;stroke:#000000;stroke-width:1.00000036px;stroke-linecap:square;stroke-linejoin:miter;stroke-miterlimit:4;stroke-opacity:1;stroke-dasharray:none;stroke-dashoffset:0;marker:none;visibility:visible;display:inline;overflow:visible;enable-background:accumulate"
       d="m 307,369.5 0,-10.00023"
       id="C-bottom-3"
       inkscape:connector-curvature="0" />
    <path
       style="color:#000000;fill:none;stroke:#000000;stroke-width:1.00000036px;stroke-linecap:square;stroke-linejoin:miter;stroke-miterlimit:4;stroke-opacity:1;stroke-dasharray:none;stroke-dashoffset:0;marker:none;visibility:visible;display:inline;overflow:visible;enable-background:accumulate"
       d="m 333,369.5 0,-10.00023"
       id="C-bottom-4"
       inkscape:connector-curvature="0" />
    <path
       style="opacity:0.5;fill:none;stroke:#ffc200;stroke-width:1.00000036px;stroke-linecap:square;stroke-linejoin:miter;stroke-opacity:1;display:inline"
       d="m 30.5,189 10.000237,0"
       id="ref-S-left-1"
       sodipodi:insensitive="true"
       inkscape:connector-curvature="0" />
    <path
       style="opacity:0.5;fill:none;stroke:#ffc200;stroke-width:1.00000036px;stroke-linecap:square;stroke-linejoin:miter;stroke-opacity:1;display:inline"
       d="m 30.5,191 10.000237,0"
       id="ref-S-left-2"
       sodipodi:insensitive="true"
       inkscape:connector-curvature="0" />
    <path
       style="opacity:0.5;fill:none;stroke:#ffc200;stroke-width:1.00000036px;stroke-linecap:square;stroke-linejoin:miter;stroke-opacity:1"
       d="m 30.5,209 10.000237,0"
       id="ref-S-left-3"
       sodipodi:insensitive="true"
       inkscape:connector-curvature="0" />
    <path
       style="opacity:0.5;fill:none;stroke:#ffc200;stroke-width:1.00000036px;stroke-linecap:square;stroke-linejoin:miter;stroke-opacity:1;display:inline"
       d="m 30.5,211 10.000237,0"
       id="ref-S-left-4"
       sodipodi:insensitive="true"
       inkscape:connector-curvature="0" />
    <path
       style="opacity:0.5;fill:none;stroke:#00ff00;stroke-width:1.00000036px;stroke-linecap:square;stroke-linejoin:miter;stroke-opacity:1;display:inline"
       d="M 40.50024,199 30.5,199"
       id="ref-I-left-1"
       sodipodi:insensitive="true"
       inkscape:connector-curvature="0" />
    <path
       style="opacity:0.5;fill:none;stroke:#00ff00;stroke-width:1.00000036px;stroke-linecap:square;stroke-linejoin:miter;stroke-opacity:1;display:inline"
       d="M 40.50024,201 30.5,201"
       id="ref-I-left-2"
       sodipodi:insensitive="true"
       inkscape:connector-curvature="0" />
    <path
       style="opacity:0.5;color:#000000;fill:none;stroke:#00ffcc;stroke-width:1.00000036px;stroke-linecap:square;stroke-linejoin:miter;stroke-miterlimit:4;stroke-opacity:1;stroke-dasharray:none;stroke-dashoffset:0;marker:none;visibility:visible;display:inline;overflow:visible;enable-background:accumulate"
       d="m 30.5,66 10.00023,0"
       id="ref-C-left-1"
       sodipodi:insensitive="true"
       inkscape:connector-curvature="0" />
    <path
       style="opacity:0.5;color:#000000;fill:none;stroke:#00ffcc;stroke-width:1.00000036px;stroke-linecap:square;stroke-linejoin:miter;stroke-miterlimit:4;stroke-opacity:1;stroke-dasharray:none;stroke-dashoffset:0;marker:none;visibility:visible;display:inline;overflow:visible;enable-background:accumulate"
       d="m 30.5,68 10.00023,0"
       id="ref-C-left-2"
       sodipodi:insensitive="true"
       inkscape:connector-curvature="0" />
    <path
       style="opacity:0.5;color:#000000;fill:none;stroke:#00ffcc;stroke-width:1.00000036px;stroke-linecap:square;stroke-linejoin:miter;stroke-miterlimit:4;stroke-opacity:1;stroke-dasharray:none;stroke-dashoffset:0;marker:none;visibility:visible;display:inline;overflow:visible;enable-background:accumulate"
       d="m 30.5,92 10.00023,0"
       id="ref-C-left-3"
       sodipodi:insensitive="true"
       inkscape:connector-curvature="0" />
    <path
       style="opacity:0.5;color:#000000;fill:none;stroke:#00ffcc;stroke-width:1.00000036px;stroke-linecap:square;stroke-linejoin:miter;stroke-miterlimit:4;stroke-opacity:1;stroke-dasharray:none;stroke-dashoffset:0;marker:none;visibility:visible;display:inline;overflow:visible;enable-background:accumulate"
       d="m 30.5,94 10.00023,0"
       id="ref-C-left-4"
       sodipodi:insensitive="true"
       inkscape:connector-curvature="0" />
    <path
       style="opacity:0.5;color:#000000;fill:none;stroke:#00ffcc;stroke-width:1.00000036px;stroke-linecap:square;stroke-linejoin:miter;stroke-miterlimit:4;stroke-opacity:1;stroke-dasharray:none;stroke-dashoffset:0;marker:none;visibility:visible;display:inline;overflow:visible;enable-background:accumulate"
       d="m 30.5,306 10.00023,0"
       id="ref-C-left-5"
       sodipodi:insensitive="true"
       inkscape:connector-curvature="0" />
    <path
       style="opacity:0.5;color:#000000;fill:none;stroke:#00ffcc;stroke-width:1.00000036px;stroke-linecap:square;stroke-linejoin:miter;stroke-miterlimit:4;stroke-opacity:1;stroke-dasharray:none;stroke-dashoffset:0;marker:none;visibility:visible;display:inline;overflow:visible;enable-background:accumulate"
       d="m 30.5,308 10.00023,0"
       id="ref-C-left-6"
       sodipodi:insensitive="true"
       inkscape:connector-curvature="0" />
    <path
       style="opacity:0.5;color:#000000;fill:none;stroke:#00ffcc;stroke-width:1.00000036px;stroke-linecap:square;stroke-linejoin:miter;stroke-miterlimit:4;stroke-opacity:1;stroke-dasharray:none;stroke-dashoffset:0;marker:none;visibility:visible;display:inline;overflow:visible;enable-background:accumulate"
       d="m 30.5,332 10.00023,0"
       id="ref-C-left-7"
       sodipodi:insensitive="true"
       inkscape:connector-curvature="0" />
    <path
       style="opacity:0.5;color:#000000;fill:none;stroke:#00ffcc;stroke-width:1.00000036px;stroke-linecap:square;stroke-linejoin:miter;stroke-miterlimit:4;stroke-opacity:1;stroke-dasharray:none;stroke-dashoffset:0;marker:none;visibility:visible;display:inline;overflow:visible;enable-background:accumulate"
       d="m 30.5,334 10.00023,0"
       id="ref-C-left-8"
       sodipodi:insensitive="true"
       inkscape:connector-curvature="0" />
    <path
       style="fill:none;stroke:#000000;stroke-width:1.00000036px;stroke-linecap:square;stroke-linejoin:miter;stroke-opacity:1;display:inline"
       d="m 30.5,190 10.000237,0"
       id="S-left-1"
       inkscape:connector-curvature="0" />
    <path
       style="fill:none;stroke:#000000;stroke-width:1.00000036px;stroke-linecap:square;stroke-linejoin:miter;stroke-opacity:1"
       d="m 30.5,210 10.000237,0"
       id="S-left-2"
       inkscape:connector-curvature="0" />
    <path
       style="fill:none;stroke:#000000;stroke-width:1.00000036px;stroke-linecap:square;stroke-linejoin:miter;stroke-opacity:1;display:inline"
       d="M 40.50024,200 30.5,200"
       id="I-left-1"
       inkscape:connector-curvature="0" />
    <path
       style="color:#000000;fill:none;stroke:#000000;stroke-width:1.00000036px;stroke-linecap:square;stroke-linejoin:miter;stroke-miterlimit:4;stroke-opacity:1;stroke-dasharray:none;stroke-dashoffset:0;marker:none;visibility:visible;display:inline;overflow:visible;enable-background:accumulate"
       d="m 30.5,67 10.00023,0"
       id="C-left-1"
       inkscape:connector-curvature="0" />
    <path
       style="color:#000000;fill:none;stroke:#000000;stroke-width:1.00000036px;stroke-linecap:square;stroke-linejoin:miter;stroke-miterlimit:4;stroke-opacity:1;stroke-dasharray:none;stroke-dashoffset:0;marker:none;visibility:visible;display:inline;overflow:visible;enable-background:accumulate"
       d="m 30.5,93 10.00023,0"
       id="C-left-2"
       inkscape:connector-curvature="0" />
    <path
       style="color:#000000;fill:none;stroke:#000000;stroke-width:1.00000036px;stroke-linecap:square;stroke-linejoin:miter;stroke-miterlimit:4;stroke-opacity:1;stroke-dasharray:none;stroke-dashoffset:0;marker:none;visibility:visible;display:inline;overflow:visible;enable-background:accumulate"
       d="m 30.5,307 10.00023,0"
       id="C-left-3"
       inkscape:connector-curvature="0" />
    <path
       style="color:#000000;fill:none;stroke:#000000;stroke-width:1.00000036px;stroke-linecap:square;stroke-linejoin:miter;stroke-miterlimit:4;stroke-opacity:1;stroke-dasharray:none;stroke-dashoffset:0;marker:none;visibility:visible;display:inline;overflow:visible;enable-background:accumulate"
       d="m 30.5,333 10.00023,0"
       id="C-left-4"
       inkscape:connector-curvature="0" />
  </g>
  <g
     inkscape:groupmode="layer"
     id="layer3"
     inkscape:label="UW-001"
     zpos="-3000"
     style="display:inline"
     sodipodi:insensitive="true">
    <path
       id="rect3173-3"
       style="fill:#ffffff;stroke:none;display:inline"
       d="M 350,333 350,38.74088 C 350,13.493709 329.67466,-6.83163 304.42749,-6.83163 l -208.85498,0 C 70.325339,-6.83163 50,13.493709 50,38.74088 L 50,333 z"
       inkscape:connector-curvature="0"
       sodipodi:nodetypes="csssscc" />
  </g>
  <g
     style="display:none"
     inkscape:label="STABE-001"
     layerid="element"
     id="g3159"
     inkscape:groupmode="layer"
     zpos="-2000">
    <path
       inkscape:connector-curvature="0"
       id="path3190"
       style="fill:#ffffff;stroke:#00ff66;stroke-width:1px"
       d="m 299.67969,365.20663 99,0 -38.5,-259.99999 c -19.49998,-129.99988 -24.5,-140.00001 -24.5,-140.00001 l -142,0 c 0,0 -5.00002,10.00013 -24.5,140.00001 l -38.5,259.99999 99,0 6.5,-65 57,0 6.5,65 m -40,-304.999995 10,0 15,154.999995 -40.5,0 15.5,-154.999995" />
  </g>
  <g
     zpos="-2000"
     inkscape:groupmode="layer"
     id="g3204"
     layerid="element"
     inkscape:label="STABE-002"
     style="display:none">
    <path
       inkscape:connector-curvature="0"
       id="path3211"
       style="fill:#ffffff;stroke:#00ff66;stroke-width:1px"
       d="m 217.88672,367.20663 c 79.99992,0 105,-35.00007 105,-105 l 0,-21 c 0,-72.49992 -45,-79.99999 -45,-79.99999 l -5,0 0,-5 5,0 c 0,0 40,-9.00008 40,-84 0,-59.99995 -25.00008,-105.00001 -107.5,-105.00001 l -117.5,0 0,400 125,0 m -25,-169.99999 10,0 c 17.49998,0 20,5.00002 20,27.49999 l 0,50 c 0,8.5 -5.00001,15 -15,15 l -15,0 0,-92.49999 m 0,-150 12.5,0 c 9.99999,0 15,6.5 15,15 l 0,35 c 0,19.99998 -2.50002,27.5 -20,27.5 l -7.5,0 0,-77.5" />
  </g>
  <g
     style="display:none"
     inkscape:label="STABE-005"
     layerid="element"
     id="g3247"
     inkscape:groupmode="layer"
     zpos="-2000">
    <path
       inkscape:connector-curvature="0"
       id="path3254"
       style="fill:#ffffff;stroke:#00ff66;stroke-width:1px"
       d="m 279.41797,125.20664 -75,0 0,-60.000005 90,0 0,-90.000005 -190,0 0,400 190,0 0,-90 -90,0 0,-70 75,0 0,-89.99999" />
  </g>
  <g
     zpos="-2000"
     inkscape:groupmode="layer"
     id="g3257"
     layerid="element"
     inkscape:label="STABE-006"
     style="display:none">
    <path
       inkscape:connector-curvature="0"
       id="path3264"
       style="fill:#ffffff;stroke:#00ff66;stroke-width:1px"
       d="m 292.41797,135.20664 -80,0 0,-60.000005 90,0 0,-90.000005 -190,0 0,400 100,0 0,-160 80,0 0,-89.99999" />
  </g>
  <g
     zpos="-2000"
     inkscape:groupmode="layer"
     id="g3277"
     layerid="element"
     inkscape:label="STABE-008"
     style="display:none">
    <path
       inkscape:connector-curvature="0"
       id="path3284"
       style="fill:#ffffff;stroke:#00ff66;stroke-width:1px"
       d="m 214.95703,45.20663 0,150 -30,0 0,-150 -99.999999,0 0,400 99.999999,0 0,-160 30,0 0,160 100,0 0,-400 -100,0" />
  </g>
  <g
     style="display:none"
     inkscape:label="STABE-009"
     layerid="element"
     id="g3287"
     inkscape:groupmode="layer"
     zpos="-2000">
    <path
       inkscape:connector-curvature="0"
       id="path3294"
       style="fill:#ffffff;stroke:#00ff66;stroke-width:1px"
       d="m 249.89844,-84.79337 -100,0 0,400 100,0 0,-400" />
  </g>
  <g
     style="display:none"
     inkscape:label="STABE-011"
     layerid="element"
     id="g3307"
     inkscape:groupmode="layer"
     zpos="-2000">
    <path
       inkscape:connector-curvature="0"
       id="path3314"
       style="fill:#ffffff;stroke:#00ff66;stroke-width:1px"
       d="m 88.492187,-34.79337 0,400 100.000003,0 0,-162.5 7.5,0 c 19.99998,0 22.5,15.00003 22.5,40 l 0,40 c 0,77.49993 12.5,82.5 12.5,82.5 l 100,0 0,-10 c 0,0 -12.5,-5.00006 -12.5,-72.5 l 0,-42.5 c 0,-77.49992 -45,-79.99999 -45,-79.99999 l -5,0 0,-5 5,0 c 0,0 42.5,-5.00009 42.5,-90.000005 l 0,-17.5 c 0,-67.499935 11,-72.500005 11,-72.500005 l 0,-10 -97.5,0 c 0,0 -11,5.00008 -11,82.500005 l 0,15 c 0,39.999965 -5.00002,55.000005 -25,55.000005 l -5,0 0,-152.50001 -100.000003,0" />
  </g>
  <g
     zpos="-2000"
     inkscape:groupmode="layer"
     id="g3317"
     layerid="element"
     inkscape:label="STABE-012"
     style="display:none">
    <path
       inkscape:connector-curvature="0"
       id="path3324"
       style="fill:#ffffff;stroke:#00ff66;stroke-width:1px"
       d="m 312.41797,315.20663 0,-90 -95,0 0,-310 -100,0 0,400 195,0" />
  </g>
  <g
     style="display:none"
     inkscape:label="STABE-013"
     layerid="element"
     id="g3327"
     inkscape:groupmode="layer"
     zpos="-2000">
    <path
       inkscape:connector-curvature="0"
       id="path3334"
       style="fill:#ffffff;stroke:#00ff66"
       d="m 128.22266,335.20664 35,189.99999 75,0 35,-189.99999 5,0 5,189.99999 92.5,0 -26,-400 -106.5,0 -40,212.50001 -5,0 -40,-212.50001 -106.500004,0 -26,400 92.500004,0 5,-189.99999 5,0" />
  </g>
  <g
     zpos="-2000"
     inkscape:groupmode="layer"
     id="g3339"
     layerid="element"
     inkscape:label="STABE-014"
     style="display:none">
    <path
       inkscape:connector-curvature="0"
       id="path3346"
       style="fill:#ffffff;stroke:#00ff66;stroke-width:1px"
       d="m 84.957031,53.20663 0,400 92.499999,0 -7.5,-182.49999 57.5,182.49999 87.5,0 0,-400 -92.5,0 7.5,182.5 -57.5,-182.5 -87.499999,0" />
  </g>
  <g
     style="display:none"
     inkscape:label="STABE-015"
     layerid="element"
     id="g3349"
     inkscape:groupmode="layer"
     zpos="-2000">
    <path
       inkscape:connector-curvature="0"
       id="path3356"
       style="color:#000000;fill:#ffffff;fill-opacity:1;fill-rule:nonzero;stroke:#00ff66;stroke-width:1px;stroke-linecap:butt;stroke-linejoin:miter;stroke-miterlimit:4;stroke-opacity:1;stroke-dasharray:none;stroke-dashoffset:0;marker:none;visibility:visible;display:inline;overflow:visible;enable-background:accumulate"
       d="m 200.83984,353.20663 c -11.49998,0 -15,-10.00001 -15,-20 l 0,-209.99999 c 0,-9.99999 3.50002,-20 15,-20 11.49999,0 15,10.00001 15,20 l 0,209.99999 c 0,9.99999 -3.50001,20 -15,20 m -114.999996,-42.5 c 0,77.49993 32.500086,125 114.999996,125 82.49992,0 115,-47.50007 115,-125 l 0,-164.99999 c 0,-77.49993 -32.50008,-125.00001 -115,-125.00001 -82.49991,0 -114.999996,47.50008 -114.999996,125.00001 l 0,164.99999" />
  </g>
  <g
     zpos="-2000"
     inkscape:groupmode="layer"
     id="g3359"
     layerid="element"
     inkscape:label="STABE-016"
     style="display:none">
    <path
       inkscape:connector-curvature="0"
       id="path3366"
       style="fill:#ffffff;stroke:#00ff66;stroke-width:1px"
       d="m 222.88672,130.20664 c 0,17.49998 -5.00002,24.99999 -20,24.99999 l -10,0 0,-102.49999 10,0 c 17.49998,0 20,5.00002 20,24.99999 l 0,52.50001 m -130,-155.00001 0,400 100,0 0,-145 25,0 c 79.99992,0 105,-47.50006 105,-110 l 0,-35 c 0,-69.99993 -30.00008,-110 -110,-110 l -120,0" />
  </g>
  <g
     style="display:none"
     inkscape:label="STABE-018"
     layerid="element"
     id="g3379"
     inkscape:groupmode="layer"
     zpos="-2000">
    <path
       inkscape:connector-curvature="0"
       id="path3386"
       style="fill:#ffffff;stroke:#00ff66;stroke-width:1px"
       d="m 87.957031,436.20663 99.999999,0 0,-150 15,0 c 9.99999,0 15,6.50001 15,15 l 0,52.5 c 0,77.49993 10,82.5 10,82.5 l 100,0 0,-10 c 0,0 -10,-5.00006 -10,-72.5 l 0,-55 c 0,-49.99994 -45,-54.99999 -45,-54.99999 l -5,0 0,-5 5,0 c 0,0 45,-7.50007 45,-70.00001 l 0,-37.5 c 0,-52.49994 -20.00008,-95 -100,-95 l -129.999999,0 0,400 M 217.95703,188.70664 c 0,8.49999 -5.00001,14.99999 -15,14.99999 l -15,0 0,-90 15,0 c 9.99999,0 15,6.50001 15,15 l 0,60.00001" />
  </g>
  <g
     zpos="-2000"
     inkscape:groupmode="layer"
     id="g3389"
     layerid="element"
     inkscape:label="STABE-019"
     style="display:none">
    <path
       inkscape:connector-curvature="0"
       id="path3396"
       style="fill:#ffffff;stroke:#00ff66;stroke-width:1px"
       d="m 89.816406,235.20664 0,42.49999 c 0,67.49994 32.500084,115 115.000004,115 82.49991,0 115,-45.00007 115,-120 0,-134.99986 -130,-122.50005 -130,-182.499995 l 0,-10 c 0,-9.99999 3.50001,-20 15,-20 11.49998,0 15,10.00001 15,20 l 0,37.500005 97.5,0 0,-30.000005 c 0,-64.999935 -34.00008,-110.000005 -113.5,-110.000005 -77.49993,0 -111.500004,47.50007 -111.500004,110.000005 0,129.999875 127.500004,97.500095 127.500004,187.499995 l 0,15 c 0,9.99999 -3.50002,20 -15,20 -11.49999,0 -15,-10.00001 -15,-20 l 0,-54.99999 -100.000004,0" />
  </g>
  <g
     style="display:none"
     inkscape:label="STABE-020"
     layerid="element"
     id="g3399"
     inkscape:groupmode="layer"
     zpos="-2000">
    <path
       inkscape:connector-curvature="0"
       id="path3406"
       style="fill:#ffffff;stroke:#00ff66;stroke-width:1px"
       d="m 85.722656,35.20663 0,90.00001 65.000004,0 0,309.99999 100,0 0,-309.99999 65,0 0,-90.00001 -230.000004,0" />
  </g>
  <g
     zpos="-2000"
     inkscape:groupmode="layer"
     id="g3409"
     layerid="element"
     inkscape:label="STABE-021"
     style="display:none">
    <path
       inkscape:connector-curvature="0"
       id="path3416"
       style="fill:#ffffff;stroke:#00ff66;stroke-width:1px"
       d="m 204.95703,245.20663 c -11.49999,0 -15,-10.00001 -15,-20 l 0,-310 -99.999999,0 0,385 c 0,67.49994 32.500079,112.5 114.999999,112.5 82.49992,0 115,-45.00006 115,-112.5 l 0,-385 -100,0 0,310 c 0,9.99999 -3.50001,20 -15,20 z"
       sodipodi:nodetypes="ssccssscccs" />
  </g>
  <g
     style="display:none"
     inkscape:label="STABE-022"
     layerid="element"
     id="g3419"
     inkscape:groupmode="layer"
     zpos="-2000">
    <path
       inkscape:connector-curvature="0"
       id="path3426"
       style="fill:#ffffff;stroke:#00ff66;stroke-width:1px"
       d="m 194.64453,258.20663 -25,-275 -102.499999,0 58.999999,400 147,0 59,-400 -102.5,0 -25,275 -10,0" />
  </g>
  <g
     zpos="-2000"
     inkscape:groupmode="layer"
     id="g3429"
     layerid="element"
     inkscape:label="STABE-023"
     style="display:none">
    <path
       inkscape:connector-curvature="0"
       id="path3436"
       style="fill:#ffffff;stroke:#00ff66;stroke-width:1px"
       d="m 295.76172,-14.79337 -12.5,265 -5,0 -26,-265 -103,0 -26,265 -5,0 -12.5,-265 -105.0000013,0 47.5000003,400 130.000001,0 20,-219 5,0 20,219 130,0 47.5,-400 -105,0" />
  </g>
  <g
     style="display:none"
     inkscape:label="STABE-024"
     layerid="element"
     id="g3439"
     inkscape:groupmode="layer"
     zpos="-2000">
    <path
       inkscape:connector-curvature="0"
       id="path3446"
       style="fill:#ffffff;stroke:#00ff66;stroke-width:1px"
       d="m 122.20312,170.20664 -62.499995,204.99999 107.499995,0 25,-115 5.00001,0 24.99999,115 107.5,0 -62.5,-204.99999 62.5,-195.00001 -107.5,0 -24.99999,110.000005 -5.00001,0 -25,-110.000005 -107.499995,0 62.499995,195.00001" />
  </g>
  <g
     zpos="-2000"
     inkscape:groupmode="layer"
     id="g3449"
     layerid="element"
     inkscape:label="STABE-025"
     style="display:none">
    <path
       inkscape:connector-curvature="0"
       id="path3456"
       style="fill:#ffffff;stroke:#00ff66;stroke-width:1px"
       d="m 255.57422,192.70663 c 0,-24.99997 8.5,-32.50001 14.5,-52.5 l 59,-202.5 0,-22.5 -105,0 -22.5,160.000005 -5,0 -22.5,-160.000005 -105.000001,0 0,22.5 59.000001,202.50001 c 5.99999,19.99998 14.5,27.50002 14.5,52.49999 l 0,122.5 113,0 0,-122.5" />
  </g>
  <g
     style="display:inline"
     inkscape:label="STABE-026"
     layerid="element"
     id="g3459"
     inkscape:groupmode="layer"
     zpos="-2000">
    <path
       inkscape:connector-curvature="0"
       id="path3466"
       style="fill:#ffffff;stroke:#00ff66;stroke-width:1px"
       d="m 95.164062,345.20663 214.999998,0 0,-90 -112.5,0 112.5,-219.999995 0,-90.000005 -214.999998,0 0,90.000005 112.499998,0 -112.499998,219.999995 0,90" />
  </g>
  <g
     inkscape:groupmode="layer"
     id="layer2"
     inkscape:label="UW-001"
     style="display:inline">
    <path
       sodipodi:nodetypes="cccsssscccccc"
       inkscape:connector-curvature="0"
       d="m 529.5,333 -179.5,0 0,0 0,-294.259117 C 350,13.493712 329.67466,-6.8316269 304.42749,-6.8316269 l -208.85498,0 C 70.325339,-6.8316269 50,13.493712 50,38.740883 L 50,333 l 0,0 -149.5,0 0,-524.90866 629,0 z"
       style="fill:#ffffff;stroke:none"
       id="path3963"
       zpos="-1000" />
    <path
       id="rect3173"
       style="fill:none;stroke:#000000;stroke-width:1px;stroke-linecap:square"
       d="M 369.5,333 359.49977,333 350,333 350,38.740883 C 350,13.493712 329.67466,-6.8316269 304.42749,-6.8316269 l -208.85498,0 C 70.325339,-6.8316269 50,13.493712 50,38.740883 L 50,333 40.50023,333 30.5,333"
       inkscape:connector-curvature="0"
       sodipodi:nodetypes="cccssssccc"
       zpos="-1" />
    <path
       id="C-left-1-9"
       style="fill:none;stroke:#000000;stroke-width:1px;stroke-linecap:square;display:inline"
       d="m 369.5,67 -19.00023,0 M 49.50023,67 30.5,67"
       inkscape:connector-curvature="0"
       sodipodi:nodetypes="cccc"
       zpos="-1" />
  </g>
</svg>
