<?xml version="1.0" encoding="UTF-8" standalone="no"?>
<!-- Created with Inkscape (http://www.inkscape.org/) -->

<svg
   xmlns:dc="http://purl.org/dc/elements/1.1/"
   xmlns:cc="http://creativecommons.org/ns#"
   xmlns:rdf="http://www.w3.org/1999/02/22-rdf-syntax-ns#"
   xmlns:svg="http://www.w3.org/2000/svg"
   xmlns="http://www.w3.org/2000/svg"
   xmlns:sodipodi="http://sodipodi.sourceforge.net/DTD/sodipodi-0.dtd"
   xmlns:inkscape="http://www.inkscape.org/namespaces/inkscape"
   style="display:inline"
   sodipodi:docname="161211_Heartgit-R+_00_00_SW_00_.svg"
   inkscape:version="0.48.3.1 r9886"
   version="1.1"
   id="svg2902"
   height="400"
   width="400">
  <sodipodi:namedview
     id="base"
     pagecolor="#f0f0f0"
     bordercolor="#666666"
     borderopacity="1.0"
     inkscape:pageopacity="1"
     inkscape:pageshadow="2"
     inkscape:zoom="0.79019171"
     inkscape:cx="210.54064"
     inkscape:cy="122.38155"
     inkscape:document-units="px"
     inkscape:current-layer="layer4"
     showgrid="false"
     inkscape:window-width="1018"
     inkscape:window-height="709"
     inkscape:window-x="0"
     inkscape:window-y="1"
     inkscape:window-maximized="0"
     showguides="true"
     inkscape:guide-bbox="true"
     inkscape:snap-bbox="true"
     inkscape:snap-global="false" />
  <defs
     id="defs2904">
    <clipPath
       clipPathUnits="userSpaceOnUse"
       id="clipPath5174">
      <path
         id="path5176"
         style="opacity:0.5;fill:#00ff00;stroke:#00ff00;stroke-width:1px;stroke-linecap:square;display:inline"
         d="m 436.26971,600.11436 -232.09481,134 -169.500003,-293.58262 232.094813,-134 z"
         inkscape:connector-curvature="0"
         sodipodi:nodetypes="ccccc" />
    </clipPath>
    <clipPath
       clipPathUnits="userSpaceOnUse"
       id="clipPath5174-5">
      <path
         id="path5176-9"
         style="opacity:0.5;fill:#00ff00;stroke:#00ff00;stroke-width:1px;stroke-linecap:square;display:inline"
         d="m 436.26971,600.11436 -232.09481,134 -169.500003,-293.58262 232.094813,-134 z"
         inkscape:connector-curvature="0"
         sodipodi:nodetypes="ccccc" />
    </clipPath>
    <clipPath
       clipPathUnits="userSpaceOnUse"
       id="clipPath3238">
      <path
         sodipodi:nodetypes="ccccc"
         inkscape:connector-curvature="0"
         d="m 461.26971,643.41563 -232.09481,134 -169.500002,-293.58262 232.094812,-134 z"
         style="opacity:0.5;fill:#00ff00;stroke:#00ff00;stroke-width:1px;stroke-linecap:square;display:inline"
         id="path3240" />
    </clipPath>
  </defs>
  <metadata
     id="metadata2907">
    <rdf:RDF>
      <cc:Work
         rdf:about="">
        <dc:format>image/svg+xml</dc:format>
        <dc:type
           rdf:resource="http://purl.org/dc/dcmitype/StillImage" />
        <dc:title />
      </cc:Work>
    </rdf:RDF>
  </metadata>
  <g
     inkscape:groupmode="layer"
     id="bg"
     inkscape:label="XX_BG"
     sodipodi:insensitive="true">
    <path
       style="fill:#ffd5f6"
       d="M 400,0 400,400 0,400 0,0 z"
       id="bgrect"
       inkscape:connector-curvature="0" />
  </g>
  <g
     inkscape:label="XX_Referenz"
     inkscape:groupmode="layer"
     id="XX_referenz"
     style="display:inline"
     sodipodi:insensitive="true">
    <path
       id="innerframe"
       style="fill:none;stroke:#ff0000;stroke-width:1"
       d="m 40.5,40.5 319,0 0,319 -319,0 0,-319 z"
       inkscape:label="#innerframe"
       sodipodi:insensitive="true"
       inkscape:connector-curvature="0" />
    <path
       id="outerframe"
       style="fill:none;stroke:#ff0000;stroke-width:1"
       d="m 30.5,30.5 339,0 0,339 -339,0 0,-339 z"
       inkscape:label="#outerframe"
       sodipodi:nodetypes="ccccc"
       sodipodi:insensitive="true"
       inkscape:connector-curvature="0" />
    <path
       style="opacity:0.5;fill:none;stroke:#ffc200;stroke-width:1px;stroke-linecap:square"
       d="m 189,30.5 0,10"
       id="ref-S-top-1"
       sodipodi:insensitive="true"
       inkscape:connector-curvature="0" />
    <path
       style="opacity:0.5;fill:none;stroke:#ffc200;stroke-width:1px;stroke-linecap:square"
       d="m 191,30.5 0,10"
       id="ref-S-top-2"
       sodipodi:insensitive="true"
       inkscape:connector-curvature="0" />
    <path
       style="opacity:0.5;fill:none;stroke:#ffc200;stroke-width:1px;stroke-linecap:square"
       d="m 209,30.5 0,10"
       id="ref-S-top-3"
       sodipodi:insensitive="true"
       inkscape:connector-curvature="0" />
    <path
       style="opacity:0.5;fill:none;stroke:#ffc200;stroke-width:1px;stroke-linecap:square"
       d="m 211,30.5 0,10"
       id="ref-S-top-4"
       sodipodi:insensitive="true"
       inkscape:connector-curvature="0" />
    <path
       style="opacity:0.5;fill:none;stroke:#00ff00;stroke-width:1px;stroke-linecap:square"
       d="m 199,30.5 0,10"
       id="ref-I-top-1"
       sodipodi:insensitive="true"
       inkscape:connector-curvature="0" />
    <path
       style="opacity:0.5;fill:none;stroke:#00ff00;stroke-width:1px;stroke-linecap:square"
       d="m 201,30.5 0,10"
       id="ref-I-top-2"
       sodipodi:insensitive="true"
       inkscape:connector-curvature="0" />
    <path
       style="opacity:0.5;fill:none;stroke:#00ffcc;stroke-width:1px;stroke-linecap:square"
       d="m 66,30.5 0,10"
       id="ref-C-top-1"
       sodipodi:insensitive="true"
       inkscape:connector-curvature="0" />
    <path
       style="opacity:0.5;fill:none;stroke:#00ffcc;stroke-width:1px;stroke-linecap:square"
       d="m 68,30.5 0,10"
       id="ref-C-top-2"
       sodipodi:insensitive="true"
       inkscape:connector-curvature="0" />
    <path
       style="opacity:0.5;fill:none;stroke:#00ffcc;stroke-width:1px;stroke-linecap:square"
       d="m 92,30.5 0,10"
       id="ref-C-top-3"
       sodipodi:insensitive="true"
       inkscape:connector-curvature="0" />
    <path
       style="opacity:0.5;fill:none;stroke:#00ffcc;stroke-width:1px;stroke-linecap:square"
       d="m 94,30.5 0,10"
       id="ref-C-top-4"
       sodipodi:insensitive="true"
       inkscape:connector-curvature="0" />
    <path
       style="opacity:0.5;fill:none;stroke:#00ffcc;stroke-width:1px;stroke-linecap:square"
       d="m 306,30.5 0,10"
       id="ref-C-top-5"
       sodipodi:insensitive="true"
       inkscape:connector-curvature="0" />
    <path
       style="opacity:0.5;fill:none;stroke:#00ffcc;stroke-width:1px;stroke-linecap:square"
       d="m 308,30.5 0,10"
       id="ref-C-top-6"
       sodipodi:insensitive="true"
       inkscape:connector-curvature="0" />
    <path
       style="opacity:0.5;fill:none;stroke:#00ffcc;stroke-width:1px;stroke-linecap:square"
       d="m 332,30.5 0,10"
       id="ref-C-top-7"
       sodipodi:insensitive="true"
       inkscape:connector-curvature="0" />
    <path
       style="opacity:0.5;fill:none;stroke:#00ffcc;stroke-width:1px;stroke-linecap:square"
       d="m 334,30.5 0,10"
       id="ref-C-top-8"
       sodipodi:insensitive="true"
       inkscape:connector-curvature="0" />
    <path
       style="opacity:0.5;fill:none;stroke:#ffc200;stroke-width:1px;stroke-linecap:square"
       d="m 369.5,189 -10,0"
       id="ref-S-right-1"
       sodipodi:insensitive="true"
       inkscape:connector-curvature="0" />
    <path
       style="opacity:0.5;fill:none;stroke:#ffc200;stroke-width:1px;stroke-linecap:square"
       d="m 369.5,191 -10,0"
       id="ref-S-right-2"
       sodipodi:insensitive="true"
       inkscape:connector-curvature="0" />
    <path
       style="opacity:0.5;fill:none;stroke:#ffc200;stroke-width:1px;stroke-linecap:square"
       d="m 369.5,209 -10,0"
       id="ref-S-right-3"
       sodipodi:insensitive="true"
       inkscape:connector-curvature="0" />
    <path
       style="opacity:0.5;fill:none;stroke:#ffc200;stroke-width:1px;stroke-linecap:square"
       d="m 369.5,211 -10,0"
       id="ref-S-right-4"
       sodipodi:insensitive="true"
       inkscape:connector-curvature="0" />
    <path
       style="opacity:0.5;fill:none;stroke:#00ff00;stroke-width:1px;stroke-linecap:square"
       d="m 369.5,199 -10,0"
       id="ref-I-right-1"
       sodipodi:insensitive="true"
       inkscape:connector-curvature="0" />
    <path
       style="opacity:0.5;fill:none;stroke:#00ff00;stroke-width:1px;stroke-linecap:square"
       d="m 369.5,201 -10,0"
       id="ref-I-right-2"
       sodipodi:insensitive="true"
       inkscape:connector-curvature="0" />
    <path
       style="opacity:0.5;fill:none;stroke:#00ffcc;stroke-width:1px;stroke-linecap:square"
       d="m 369.5,66 -10,0"
       id="ref-C-right-1"
       sodipodi:insensitive="true"
       inkscape:connector-curvature="0" />
    <path
       style="opacity:0.5;fill:none;stroke:#00ffcc;stroke-width:1px;stroke-linecap:square"
       d="m 369.5,68 -10,0"
       id="ref-C-right-2"
       sodipodi:insensitive="true"
       inkscape:connector-curvature="0" />
    <path
       style="opacity:0.5;fill:none;stroke:#00ffcc;stroke-width:1px;stroke-linecap:square"
       d="m 369.5,92 -10,0"
       id="ref-C-right-3"
       sodipodi:insensitive="true"
       inkscape:connector-curvature="0" />
    <path
       style="opacity:0.5;fill:none;stroke:#00ffcc;stroke-width:1px;stroke-linecap:square"
       d="m 369.5,94 -10,0"
       id="ref-C-right-4"
       sodipodi:insensitive="true"
       inkscape:connector-curvature="0" />
    <path
       style="opacity:0.5;fill:none;stroke:#00ffcc;stroke-width:1px;stroke-linecap:square"
       d="m 369.5,306 -10,0"
       id="ref-C-right-5"
       sodipodi:insensitive="true"
       inkscape:connector-curvature="0" />
    <path
       style="opacity:0.5;fill:none;stroke:#00ffcc;stroke-width:1px;stroke-linecap:square"
       d="m 369.5,308 -10,0"
       id="ref-C-right-6"
       sodipodi:insensitive="true"
       inkscape:connector-curvature="0" />
    <path
       style="opacity:0.5;fill:none;stroke:#00ffcc;stroke-width:1px;stroke-linecap:square"
       d="m 369.5,332 -10,0"
       id="ref-C-right-7"
       sodipodi:insensitive="true"
       inkscape:connector-curvature="0" />
    <path
       style="opacity:0.5;fill:none;stroke:#00ffcc;stroke-width:1px;stroke-linecap:square"
       d="m 369.5,334 -10,0"
       id="ref-C-right-8"
       sodipodi:insensitive="true"
       inkscape:connector-curvature="0" />
    <path
       style="opacity:0.5;fill:none;stroke:#ffc200;stroke-width:1px;stroke-linecap:square"
       d="m 189,369.5 0,-10"
       id="ref-S-bottom-1"
       sodipodi:insensitive="true"
       inkscape:connector-curvature="0" />
    <path
       style="opacity:0.5;fill:none;stroke:#ffc200;stroke-width:1px;stroke-linecap:square"
       d="m 191,369.5 0,-10"
       id="ref-S-bottom-2"
       sodipodi:insensitive="true"
       inkscape:connector-curvature="0" />
    <path
       style="opacity:0.5;fill:none;stroke:#ffc200;stroke-width:1px;stroke-linecap:square"
       d="m 209,369.5 0,-10"
       id="ref-S-bottom-3"
       sodipodi:insensitive="true"
       inkscape:connector-curvature="0" />
    <path
       style="opacity:0.5;fill:none;stroke:#ffc200;stroke-width:1px;stroke-linecap:square"
       d="m 211,369.5 0,-10"
       id="ref-S-bottom-4"
       sodipodi:insensitive="true"
       inkscape:connector-curvature="0" />
    <path
       style="opacity:0.5;fill:none;stroke:#00ff00;stroke-width:1px;stroke-linecap:square"
       d="m 199,369.5 0,-10"
       id="ref-I-bottom-1"
       sodipodi:insensitive="true"
       inkscape:connector-curvature="0" />
    <path
       style="opacity:0.5;fill:none;stroke:#00ff00;stroke-width:1px;stroke-linecap:square"
       d="m 201,369.5 0,-10"
       id="ref-I-bottom-2"
       sodipodi:insensitive="true"
       inkscape:connector-curvature="0" />
    <path
       style="opacity:0.5;fill:none;stroke:#00ffcc;stroke-width:1px;stroke-linecap:square"
       d="m 66,369.5 0,-10"
       id="ref-C-bottom-1"
       sodipodi:insensitive="true"
       inkscape:connector-curvature="0" />
    <path
       style="opacity:0.5;fill:none;stroke:#00ffcc;stroke-width:1px;stroke-linecap:square"
       d="m 68,369.5 0,-10"
       id="ref-C-bottom-2"
       sodipodi:insensitive="true"
       inkscape:connector-curvature="0" />
    <path
       style="opacity:0.5;fill:none;stroke:#00ffcc;stroke-width:1px;stroke-linecap:square"
       d="m 92,369.5 0,-10"
       id="ref-C-bottom-3"
       sodipodi:insensitive="true"
       inkscape:connector-curvature="0" />
    <path
       style="opacity:0.5;fill:none;stroke:#00ffcc;stroke-width:1px;stroke-linecap:square"
       d="m 94,369.5 0,-10"
       id="ref-C-bottom-4"
       sodipodi:insensitive="true"
       inkscape:connector-curvature="0" />
    <path
       style="opacity:0.5;fill:none;stroke:#00ffcc;stroke-width:1px;stroke-linecap:square"
       d="m 306,369.5 0,-10"
       id="ref-C-bottom-5"
       sodipodi:insensitive="true"
       inkscape:connector-curvature="0" />
    <path
       style="opacity:0.5;fill:none;stroke:#00ffcc;stroke-width:1px;stroke-linecap:square"
       d="m 308,369.5 0,-10"
       id="ref-C-bottom-6"
       sodipodi:insensitive="true"
       inkscape:connector-curvature="0" />
    <path
       style="opacity:0.5;fill:none;stroke:#00ffcc;stroke-width:1px;stroke-linecap:square"
       d="m 332,369.5 0,-10"
       id="ref-C-bottom-7"
       sodipodi:insensitive="true"
       inkscape:connector-curvature="0" />
    <path
       style="opacity:0.5;fill:none;stroke:#00ffcc;stroke-width:1px;stroke-linecap:square"
       d="m 334,369.5 0,-10"
       id="ref-C-bottom-8"
       sodipodi:insensitive="true"
       inkscape:connector-curvature="0" />
    <path
       style="opacity:0.5;fill:none;stroke:#ffc200;stroke-width:1px;stroke-linecap:square"
       d="m 30.5,189 10,0"
       id="ref-S-left-1"
       sodipodi:insensitive="true"
       inkscape:connector-curvature="0" />
    <path
       style="opacity:0.5;fill:none;stroke:#ffc200;stroke-width:1px;stroke-linecap:square"
       d="m 30.5,191 10,0"
       id="ref-S-left-2"
       sodipodi:insensitive="true"
       inkscape:connector-curvature="0" />
    <path
       style="opacity:0.5;fill:none;stroke:#ffc200;stroke-width:1px;stroke-linecap:square"
       d="m 30.5,209 10,0"
       id="ref-S-left-3"
       sodipodi:insensitive="true"
       inkscape:connector-curvature="0" />
    <path
       style="opacity:0.5;fill:none;stroke:#ffc200;stroke-width:1px;stroke-linecap:square"
       d="m 30.5,211 10,0"
       id="ref-S-left-4"
       sodipodi:insensitive="true"
       inkscape:connector-curvature="0" />
    <path
       style="opacity:0.5;fill:none;stroke:#00ff00;stroke-width:1px;stroke-linecap:square"
       d="m 40.5,199 -10,0"
       id="ref-I-left-1"
       sodipodi:insensitive="true"
       inkscape:connector-curvature="0" />
    <path
       style="opacity:0.5;fill:none;stroke:#00ff00;stroke-width:1px;stroke-linecap:square"
       d="m 40.5,201 -10,0"
       id="ref-I-left-2"
       sodipodi:insensitive="true"
       inkscape:connector-curvature="0" />
    <path
       style="opacity:0.5;fill:none;stroke:#00ffcc;stroke-width:1px;stroke-linecap:square"
       d="m 30.5,66 10,0"
       id="ref-C-left-1"
       sodipodi:insensitive="true"
       inkscape:connector-curvature="0" />
    <path
       style="opacity:0.5;fill:none;stroke:#00ffcc;stroke-width:1px;stroke-linecap:square"
       d="m 30.5,68 10,0"
       id="ref-C-left-2"
       sodipodi:insensitive="true"
       inkscape:connector-curvature="0" />
    <path
       style="opacity:0.5;fill:none;stroke:#00ffcc;stroke-width:1px;stroke-linecap:square"
       d="m 30.5,92 10,0"
       id="ref-C-left-3"
       sodipodi:insensitive="true"
       inkscape:connector-curvature="0" />
    <path
       style="opacity:0.5;fill:none;stroke:#00ffcc;stroke-width:1px;stroke-linecap:square"
       d="m 30.5,94 10,0"
       id="ref-C-left-4"
       sodipodi:insensitive="true"
       inkscape:connector-curvature="0" />
    <path
       style="opacity:0.5;fill:none;stroke:#00ffcc;stroke-width:1px;stroke-linecap:square"
       d="m 30.5,306 10,0"
       id="ref-C-left-5"
       sodipodi:insensitive="true"
       inkscape:connector-curvature="0" />
    <path
       style="opacity:0.5;fill:none;stroke:#00ffcc;stroke-width:1px;stroke-linecap:square"
       d="m 30.5,308 10,0"
       id="ref-C-left-6"
       sodipodi:insensitive="true"
       inkscape:connector-curvature="0" />
    <path
       style="opacity:0.5;fill:none;stroke:#00ffcc;stroke-width:1px;stroke-linecap:square"
       d="m 30.5,332 10,0"
       id="ref-C-left-7"
       sodipodi:insensitive="true"
       inkscape:connector-curvature="0" />
    <path
       style="opacity:0.5;fill:none;stroke:#00ffcc;stroke-width:1px;stroke-linecap:square"
       d="m 30.5,334 10,0"
       id="ref-C-left-8"
       sodipodi:insensitive="true"
       inkscape:connector-curvature="0" />
    <path
       style="fill:none;stroke:#000000;stroke-width:1px;stroke-linecap:square"
       d="m 190,30.5 0,10"
       id="S-top-1"
       inkscape:connector-curvature="0" />
    <path
       style="fill:none;stroke:#000000;stroke-width:1px;stroke-linecap:square"
       d="m 210,30.5 0,10"
       id="S-top-2"
       inkscape:connector-curvature="0" />
    <path
       style="fill:none;stroke:#000000;stroke-width:1px;stroke-linecap:square"
       d="m 369.5,190 -10,0"
       id="S-right-1"
       inkscape:connector-curvature="0" />
    <path
       style="fill:none;stroke:#000000;stroke-width:1px;stroke-linecap:square"
       d="m 369.5,210 -10,0"
       id="S-right-2"
       inkscape:connector-curvature="0" />
    <path
       style="fill:none;stroke:#000000;stroke-width:1px;stroke-linecap:square"
       d="m 190,369.5 0,-10"
       id="S-bottom-1"
       inkscape:connector-curvature="0" />
    <path
       style="fill:none;stroke:#000000;stroke-width:1px;stroke-linecap:square"
       d="m 210,369.5 0,-10"
       id="S-bottom-2"
       inkscape:connector-curvature="0" />
    <path
       style="fill:none;stroke:#000000;stroke-width:1px;stroke-linecap:square"
       d="m 30.5,190 10,0"
       id="S-left-1"
       inkscape:connector-curvature="0" />
    <path
       style="fill:none;stroke:#000000;stroke-width:1px;stroke-linecap:square"
       d="m 30.5,210 10,0"
       id="S-left-2"
       inkscape:connector-curvature="0" />
    <path
       style="fill:none;stroke:#000000;stroke-width:1px;stroke-linecap:square"
       d="m 200,30.5 0,10"
       id="I-top-1"
       inkscape:connector-curvature="0" />
    <path
       style="fill:none;stroke:#000000;stroke-width:1px;stroke-linecap:square"
       d="m 369.5,200 -10,0"
       id="I-right-1"
       inkscape:connector-curvature="0" />
    <path
       style="fill:none;stroke:#000000;stroke-width:1px;stroke-linecap:square"
       d="m 200,369.5 0,-10"
       id="I-bottom-1"
       inkscape:connector-curvature="0" />
    <path
       style="fill:none;stroke:#000000;stroke-width:1px;stroke-linecap:square"
       d="m 40.5,200 -10,0"
       id="I-left-1"
       inkscape:connector-curvature="0" />
    <path
       style="fill:none;stroke:#000000;stroke-width:1px;stroke-linecap:square"
       d="m 67,30.5 0,10"
       id="C-top-1"
       inkscape:connector-curvature="0" />
    <path
       style="fill:none;stroke:#000000;stroke-width:1px;stroke-linecap:square"
       d="m 93,30.5 0,10"
       id="C-top-2"
       inkscape:connector-curvature="0" />
    <path
       style="fill:none;stroke:#000000;stroke-width:1px;stroke-linecap:square"
       d="m 307,30.5 0,10"
       id="C-top-3"
       inkscape:connector-curvature="0" />
    <path
       style="fill:none;stroke:#000000;stroke-width:1px;stroke-linecap:square"
       d="m 333,30.5 0,10"
       id="C-top-4"
       inkscape:connector-curvature="0" />
    <path
       style="fill:none;stroke:#000000;stroke-width:1px;stroke-linecap:square"
       d="m 369.5,67 -10,0"
       id="C-right-1"
       inkscape:connector-curvature="0" />
    <path
       style="fill:none;stroke:#000000;stroke-width:1px;stroke-linecap:square"
       d="m 369.5,93 -10,0"
       id="C-right-2"
       inkscape:connector-curvature="0" />
    <path
       style="fill:none;stroke:#000000;stroke-width:1px;stroke-linecap:square"
       d="m 369.5,307 -10,0"
       id="C-right-3"
       inkscape:connector-curvature="0" />
    <path
       style="fill:none;stroke:#000000;stroke-width:1px;stroke-linecap:square"
       d="m 369.5,333 -10,0"
       id="C-right-4"
       inkscape:connector-curvature="0" />
    <path
       style="fill:none;stroke:#000000;stroke-width:1px;stroke-linecap:square"
       d="m 67,369.5 0,-10"
       id="C-bottom-1"
       inkscape:connector-curvature="0" />
    <path
       style="fill:none;stroke:#000000;stroke-width:1px;stroke-linecap:square"
       d="m 93,369.5 0,-10"
       id="C-bottom-2"
       inkscape:connector-curvature="0" />
    <path
       style="fill:none;stroke:#000000;stroke-width:1px;stroke-linecap:square"
       d="m 307,369.5 0,-10"
       id="C-bottom-3"
       inkscape:connector-curvature="0" />
    <path
       style="fill:none;stroke:#000000;stroke-width:1px;stroke-linecap:square"
       d="m 333,369.5 0,-10"
       id="C-bottom-4"
       inkscape:connector-curvature="0" />
    <path
       style="fill:none;stroke:#000000;stroke-width:1px;stroke-linecap:square"
       d="m 30.5,67 10,0"
       id="C-left-1"
       inkscape:connector-curvature="0" />
    <path
       style="fill:none;stroke:#000000;stroke-width:1px;stroke-linecap:square"
       d="m 30.5,93 10,0"
       id="C-left-2"
       inkscape:connector-curvature="0" />
    <path
       style="fill:none;stroke:#000000;stroke-width:1px;stroke-linecap:square"
       d="m 30.5,307 10,0"
       id="C-left-3"
       inkscape:connector-curvature="0" />
    <path
       style="fill:none;stroke:#000000;stroke-width:1px;stroke-linecap:square"
       d="m 30.5,333 10,0"
       id="C-left-4"
       inkscape:connector-curvature="0" />
  </g>
  <g
     inkscape:groupmode="layer"
     id="layer1"
     inkscape:label="HEART-001"
     style="display:none"
     zpos="500">
    <path
       style="fill:#00ff00;stroke:none;display:inline"
       d="m 133.5937,81.27122 c -20.5196,-20.51958 -20.5196,-53.199253 0,-73.718733 10.2563,-10.25714 23.4802,-15.28126 36.8125,-15.28129 13.3326,5e-5 26.5523,5.02302 36.8126,15.28125 l 28.0624,28.06249 7.0938,7.0626 7.0625,-7.06251 28.0624,-28.06246 c 10.2564,-10.25723 23.4802,-15.28131 36.8126,-15.28129 13.3326,4e-5 26.6973,5.04246 36.9375,15.28125 20.5191,20.51843 20.5194,53.199303 -10e-5,73.718793 L 242.3906,190.0684 z"
       id="path12249"
       inkscape:connector-curvature="0"
       sodipodi:nodetypes="scscccccscccs" />
    <path
       style="fill:#ffffff;stroke:none;display:inline"
       d="m 190.0001,162.61494 -1e-4,147.50004 20,2e-5 0,-147.50003 -19.9999,-3e-5 z"
       id="path12112"
       inkscape:connector-curvature="0" />
    <path
       inkscape:connector-curvature="0"
       id="path12170"
       d="M 190.0001,162.61494 190,310.11498 m 20,2e-5 0,-147.50003"
       style="fill:none;stroke:#000000;stroke-width:1px;display:inline"
       sodipodi:nodetypes="cccc" />
    <path
       style="fill:#ffffff;stroke:none;display:inline"
       d="m 278.3437,226.02122 -144.75,-144.75 c -20.5196,-20.51958 -20.5196,-53.199253 0,-73.718733 10.2563,-10.25714 23.4802,-15.28126 36.8125,-15.28129 13.3326,5e-5 26.5523,5.02302 36.8126,15.28125 l 28.0624,28.06249 7.0938,7.0626 7.0625,-7.06251 28.0624,-28.06246 c 10.2564,-10.25723 23.4802,-15.28131 36.8126,-15.28129 13.3326,4e-5 26.6973,5.04246 36.9375,15.28125 20.5191,20.51843 20.5194,53.199303 -10e-5,73.718793 l -79.0624,78.99995 c -2.0072,1.8114 -3.2282,4.46575 -3.2973,7.16845 -0.069,2.7028 1.0141,5.41618 2.926,7.32788 1.9116,1.91181 4.625,2.9952 7.3277,2.92601 2.7028,-0.0692 5.3572,-1.29021 7.1686,-3.29734 l 79.0624,-78.96869 c 28.1226,-28.12264 28.1228,-73.909583 0,-102.031263 -14.0833,-14.08336 -32.6571,-21.12502 -51.0625,-21.12501 -18.4057,-5e-5 -36.876,7.06242 -50.9375,21.12502 l -20.9999,20.99994 -21,-21.00001 c -14.0628,-14.06282 -32.5631,-21.12497 -50.9688,-21.12496 -18.4058,0 -36.8761,7.0624 -50.9376,21.12501 -28.1225,28.12242 -28.1225,73.908703 0,102.031253 l 144.75,144.71882 z"
       id="path12114"
       inkscape:connector-curvature="0"
       sodipodi:nodetypes="cscscccccscccssscccscccscccc" />
    <path
       inkscape:connector-curvature="0"
       id="path12168"
       d="m 278.3437,226.02122 -144.75,-144.75 c -20.5196,-20.51958 -20.5196,-53.199253 0,-73.718733 10.2563,-10.25714 23.4802,-15.28126 36.8125,-15.28129 13.3326,5e-5 26.5523,5.02302 36.8126,15.28125 l 28.0624,28.06249 7.0938,7.0626 7.0625,-7.06251 28.0624,-28.06246 c 10.2564,-10.25723 23.4802,-15.28131 36.8126,-15.28129 13.3326,4e-5 26.6973,5.04246 36.9375,15.28125 20.5191,20.51843 20.5194,53.199303 -10e-5,73.718793 l -79.0624,78.99995 c -2.0072,1.8114 -3.2282,4.46575 -3.2973,7.16845 -0.069,2.7028 1.0141,5.41618 2.926,7.32788 1.9116,1.91181 4.625,2.9952 7.3277,2.92601 2.7028,-0.0692 5.3572,-1.29021 7.1686,-3.29734 l 79.0624,-78.96869 c 28.1226,-28.12264 28.1228,-73.909583 0,-102.031263 -14.0833,-14.08336 -32.6571,-21.12502 -51.0625,-21.12501 -18.4057,-5e-5 -36.876,7.06242 -50.9375,21.12502 l -20.9999,20.99994 -21,-21.00001 c -14.0628,-14.06282 -32.5631,-21.12497 -50.9688,-21.12496 -18.4058,0 -36.8761,7.0624 -50.9376,21.12501 -28.1225,28.12242 -28.1225,73.908703 0,102.031253 l 144.75,144.71882"
       style="fill:none;stroke:#000000;stroke-width:1px;display:inline"
       sodipodi:nodetypes="cscscccccscccssscccscccsccc" />
    <path
       inkscape:connector-curvature="0"
       id="path12106"
       d="m 298.5252,261.70703 c -11.3702,11.36906 -29.8015,11.36906 -41.1717,4.2e-4 -11.3679,-11.36792 -11.367,-29.80141 0,-41.17 11.3702,-11.36892 29.8015,-11.36827 41.1683,3.6e-4 11.3693,11.36927 11.3703,29.80138 0,41.16922 z"
       style="fill:#ffffff;stroke:none;display:inline"
       sodipodi:nodetypes="scscs" />
    <path
       style="fill:none;stroke:#000000;stroke-width:1px;display:inline"
       d="m 252,227.92744 c -5.5622,10.93188 -3.7979,24.63821 5.3437,33.78127 11.3695,11.36942 29.8174,11.36908 41.1875,4e-5 11.3706,-11.36773 11.3704,-29.78801 0,-41.15627 -5.6833,-5.68436 -13.1437,-8.53112 -20.5937,-8.53128 -3.8574,-3e-5 -7.6999,0.75734 -11.3125,2.28129"
       id="path12174"
       inkscape:connector-curvature="0"
       sodipodi:nodetypes="ccccsc" />
    <path
       inkscape:connector-curvature="0"
       id="path12108"
       d="m 220.5836,182.65466 c -11.3671,11.36851 -29.7982,11.36788 -41.1683,-5e-5 -11.3682,-11.36829 -11.3703,-29.8011 0,-41.16994 11.367,-11.36844 29.8013,-11.36868 41.1683,-1e-5 11.3702,11.36953 11.3702,29.80153 0,41.17073 z"
       style="fill:#ffffff;stroke:none;display:inline"
       sodipodi:nodetypes="ssccs" />
    <path
       style="fill:none;stroke:#000000;stroke-width:1px;display:inline"
       d="m 226.5,174.17749 c 4.908,-10.73613 2.9348,-23.84687 -5.9063,-32.68752 -5.6834,-5.68428 -13.1433,-8.53126 -20.5937,-8.53128 -4.1349,6e-5 -8.2582,0.87286 -12.0938,2.62503 m -14.25,14.03127 c -5.1063,10.79828 -3.1821,24.097 5.75,33.03122 3.1,3.09938 6.7304,5.37187 10.5939,6.78123 m 19.9999,3e-5 c 0.8265,-0.30152 1.6351,-0.65101 2.4375,-1.03127"
       id="path12176"
       inkscape:connector-curvature="0"
       sodipodi:nodetypes="ccscccccc" />
    <path
       inkscape:connector-curvature="0"
       id="path12110"
       d="m 220.5842,340.5056 c -11.3671,11.36851 -29.8015,11.36834 -41.1684,4.4e-4 -11.3702,-11.36922 -11.3702,-29.8016 0,-41.17003 11.3672,-11.36858 29.8015,-11.36862 41.1684,5.4e-4 11.3691,11.36906 11.3702,29.80161 0,41.16905 z"
       style="fill:#ffffff;stroke:none;display:inline"
       sodipodi:nodetypes="scscs" />
    <path
       style="fill:none;stroke:#000000;stroke-width:1px;display:inline"
       d="m 190,292.55245 c -3.8633,1.40943 -7.4947,3.68167 -10.5938,6.78131 -11.37,11.36858 -11.3701,29.81822 0,41.18746 11.3671,11.36787 29.8207,11.36862 41.1875,4e-5 11.3703,-11.36745 11.3702,-29.81961 0,-41.18753 -3.099,-3.09969 -6.7304,-5.37174 -10.5937,-6.78126"
       id="path12172"
       inkscape:connector-curvature="0"
       sodipodi:nodetypes="cccccc" />
    <path
       sodipodi:nodetypes="ccccc"
       inkscape:connector-curvature="0"
       id="path12213"
       d="m 210,369.49998 0,-45.99999 -20,-3e-5 1e-4,46 z"
       style="fill:#ffffff;stroke:none;display:inline" />
    <path
       style="fill:none;stroke:#000000;stroke-width:1px;stroke-linecap:square;display:inline"
       d="m 190.0001,369.49996 -1e-4,-46"
       id="S-bottom-1-2"
       inkscape:connector-curvature="0"
       sodipodi:nodetypes="cc" />
    <path
       style="fill:none;stroke:#000000;stroke-width:1px;stroke-linecap:square;display:inline"
       d="m 210,369.49998 0,-45.99999"
       id="S-bottom-2-2"
       inkscape:connector-curvature="0"
       sodipodi:nodetypes="cc" />
  </g>
  <g
     inkscape:groupmode="layer"
     id="layer2"
     inkscape:label="HEART-002"
     style="display:none">
    <path
       id="path12241"
       style="fill:#00ff00;stroke:none;display:inline"
       d="m 331.7151,122.19157 c 20.2351,-20.23509 20.2351,-52.87179 0,-73.1061 -10.119,-10.1176 -23.394,-15.1408 -36.5971,-15.14079 -13.2031,0 -26.3923,5.02379 -36.5085,15.1408 l -23.3606,23.35919 -23.358,-23.3594 C 201.7722,38.96798 188.5827,33.94478 175.3796,33.94478 c -13.203,-1e-5 -26.3923,5.02379 -36.5084,15.14079 -20.2352,20.2351 -20.2352,52.871 0,73.1061 l 96.3915,96.3918 z"
       inkscape:connector-curvature="0"
       sodipodi:nodetypes="cssccsscccc" />
    <path
       style="fill:#ffffff;stroke:none;display:inline"
       d="m 175.375,23.95874 c -15.7397,0 -31.5438,6.04277 -43.5625,18.0625 -24.0367,24.03658 -24.0367,63.21342 0,87.25 l 44.9062,44.90625 c -3.6803,8.79698 -1.9404,19.30788 5.2188,26.46875 2.3724,2.37194 5.1365,4.16146 8.0625,5.34375 l 0,86.46875 c -2.8817,1.18221 -5.5664,2.94098 -7.9063,5.28125 -9.46,9.45865 -9.46,24.79079 0,34.25 9.4574,9.45809 24.7927,9.45865 34.25,0 9.4604,-9.4575 9.4601,-24.79191 10e-5,-34.25 -1.9019,-1.90227 -4.0619,-3.39406 -6.3438,-4.53125 l 0,-85.71875 32.5,32.49999 c -3.6537,8.7874 -1.9275,19.29002 5.2187,26.43751 9.4601,9.45865 24.79,9.45892 34.25,0 9.4599,-9.45839 9.4601,-24.79163 0,-34.25 -6.7132,-6.71431 -16.3795,-8.66179 -24.8125,-5.84375 l -35.1249,-35.125 c 2.8086,-8.42816 0.8661,-18.10298 -5.8438,-24.81251 -6.7162,-6.71672 -16.3773,-8.63583 -24.8125,-5.81249 l -45.4375,-45.46876 c -16.4337,-16.43361 -16.4337,-42.53512 0,-58.96874 8.2135,-8.21428 18.7712,-12.1875 29.4375,-12.1875 10.6666,0 21.2205,3.97211 29.4375,12.1875 l 23.375,23.375 7.0625,7.0625 7.0625,-7.0625 23.375,-23.375 c 8.2137,-8.21433 18.7711,-12.1875 29.4375,-12.1875 10.6667,0 21.3343,3.9917 29.5312,12.1875 16.4333,16.43264 16.4336,42.53523 0,58.96874 L 258.875,180.83374 273,194.98998 338.7812,129.27124 c 24.0367,-24.03668 24.037,-63.21405 0,-87.25001 -12.0409,-12.03952 -27.9167,-18.06249 -43.6562,-18.06249 -15.7398,0 -31.5751,6.04283 -43.5938,18.06249 L 235.25,58.30249 218.9687,42.02124 C 206.9475,30.00285 191.1146,23.95874 175.375,23.95874 z"
       id="path12233"
       inkscape:connector-curvature="0" />
    <path
       id="path12321"
       d="m 175.375,23.95874 c -15.7397,0 -31.5438,6.04277 -43.5625,18.0625 -24.0367,24.03658 -24.0367,63.21342 0,87.25 l 44.9062,44.90625 c -3.6803,8.79698 -1.9404,19.30788 5.2188,26.46875 2.3724,2.37194 5.1365,4.16146 8.0625,5.34375 l 0,86.46875 c -2.8817,1.18221 -5.5664,2.94098 -7.9063,5.28125 -9.46,9.45865 -9.46,24.79079 0,34.25 9.4574,9.45809 24.7927,9.45865 34.25,0 9.4604,-9.4575 9.4601,-24.79191 10e-5,-34.25 -1.9019,-1.90227 -4.0619,-3.39406 -6.3438,-4.53125 l 0,-85.71875 32.5,32.49999 c -3.6537,8.7874 -1.9275,19.29002 5.2187,26.43751 9.4601,9.45865 24.79,9.45892 34.25,0 9.4599,-9.45839 9.4601,-24.79163 0,-34.25 -6.7132,-6.71431 -16.3795,-8.66179 -24.8125,-5.84375 l -35.1249,-35.125 c 2.8086,-8.42816 0.8661,-18.10298 -5.8438,-24.81251 -6.7162,-6.71672 -16.3773,-8.63583 -24.8125,-5.81249 l -45.4375,-45.46876 c -16.4337,-16.43361 -16.4337,-42.53512 0,-58.96874 8.2135,-8.21428 18.7712,-12.1875 29.4375,-12.1875 10.6666,0 21.2205,3.97211 29.4375,12.1875 l 23.375,23.375 7.0625,7.0625 7.0625,-7.0625 23.375,-23.375 c 8.2137,-8.21433 18.7711,-12.1875 29.4375,-12.1875 10.6667,0 21.3343,3.9917 29.5312,12.1875 16.4333,16.43264 16.4336,42.53523 0,58.96874 L 258.875,180.83374 273,194.98998 338.7812,129.27124 c 24.0367,-24.03668 24.037,-63.21405 0,-87.25001 -12.0409,-12.03952 -27.9167,-18.06249 -43.6562,-18.06249 -15.7398,0 -31.5751,6.04283 -43.5938,18.06249 L 235.25,58.30249 218.9687,42.02124 C 206.9475,30.00285 191.1146,23.95874 175.375,23.95874 z"
       style="fill:none;stroke:#000000;display:inline"
       inkscape:connector-curvature="0" />
    <path
       sodipodi:nodetypes="ccccc"
       inkscape:connector-curvature="0"
       id="path12371"
       d="m 210,369.5 0,-36 -20,0 0,36 z"
       style="fill:#ffffff;stroke:none;display:inline" />
    <path
       style="fill:none;stroke:#000000;stroke-width:1px;stroke-linecap:square;display:inline"
       d="m 190,369.5 0,-32.31178"
       id="S-bottom-1-9"
       inkscape:connector-curvature="0"
       sodipodi:nodetypes="cc" />
    <path
       style="fill:none;stroke:#000000;stroke-width:1px;stroke-linecap:square;display:inline"
       d="m 210,369.5 0,-33.02603"
       id="S-bottom-2-9"
       inkscape:connector-curvature="0"
       sodipodi:nodetypes="cc" />
  </g>
  <g
     inkscape:groupmode="layer"
     id="layer3"
     inkscape:label="HEART-003"
     style="display:none"
     zpos="500">
    <path
       sodipodi:nodetypes="cssccsscccc"
       inkscape:connector-curvature="0"
       d="m 68.2877,168.55837 c -20.2352,-20.2351 -20.2352,-52.8718 0,-73.106103 10.116,-10.11763 23.3912,-15.1408 36.597,-15.1408 13.2031,0 26.3923,5.0238 36.5085,15.1408 l 23.3606,23.359243 23.358,-23.359403 c 10.1187,-10.11724 23.3054,-15.14049 36.5112,-15.14049 13.2031,-1e-5 26.3923,5.0238 36.5085,15.1408 20.2351,20.235103 20.2351,52.871003 0,73.106103 l -96.3928,96.39277 z"
       style="fill:#00ff00;stroke:none;display:inline"
       id="path12381" />
    <path
       style="fill:#ffffff;stroke:none;display:inline"
       d="m 104.875,70.302487 c -15.7417,0 -31.6174,6.05316 -43.6563,18.09375 -24.037,24.035953 -24.0367,63.182083 0,87.218753 l 0,0.0313 65.7813,65.71874 7.0625,7.0625 14.1562,-14.15625 -7.0937,-7.0625 -65.7813,-65.71874 c -16.4336,-16.43353 -16.4333,-42.5361 0,-58.96875 8.1934,-8.194623 18.8614,-12.218753 29.5313,-12.218753 10.6664,0 21.2238,4.0044 29.4375,12.218743 l 23.375,23.375 7.0625,7.06251 7.0625,-7.0625 23.375,-23.375 c 8.2174,-8.216043 18.7677,-12.218753 29.4375,-12.218753 10.6664,0 21.2238,4.00441 29.4375,12.218753 16.4336,16.43361 16.4336,42.53514 0,58.96875 l -45.4375,45.46875 c -8.4356,-2.82334 -18.0944,-0.90423 -24.8125,5.8125 -6.708,6.70944 -8.6516,16.38434 -5.8438,24.81249 l -35.125,35.12501 c -8.4331,-2.81804 -18.0972,-0.87058 -24.8125,5.84375 -9.4573,9.4584 -9.4573,24.7919 0,34.25 9.46,9.459 24.7899,9.4587 34.25,0 7.1521,-7.15329 8.8842,-17.67699 5.2188,-26.46876 l 32.5,-32.5 0,85.34375 c -2.5804,1.16996 -5.0035,2.81554 -7.125,4.93751 -9.4598,9.45839 -9.4601,24.79219 0,34.25 9.4572,9.45866 24.7927,9.4581 34.25,0 9.4575,-9.45896 9.46,-24.79141 0,-34.25 -2.1221,-2.12189 -4.5443,-3.76763 -7.125,-4.93751 l 0,-86.84375 c 2.9259,-1.18229 5.6902,-2.9407 8.0625,-5.3125 7.1609,-7.16231 8.9023,-17.70182 5.2187,-26.49999 l 44.9063,-44.90625 c 24.0366,-24.03659 24.0366,-63.18216 0,-87.218753 -12.0187,-12.01966 -27.8227,-18.09375 -43.5625,-18.09375 -15.7418,0 -31.5735,6.04446 -43.5938,18.0625 l 0,0.0313 L 164.75,104.6775 148.4687,88.396257 C 136.45,76.376587 120.6148,70.302507 104.875,70.302497 z"
       id="path12375"
       inkscape:connector-curvature="0" />
    <path
       id="path12419"
       d="m 104.875,70.302487 c -15.7417,0 -31.6174,6.05316 -43.6563,18.09375 -24.037,24.035953 -24.0367,63.182083 0,87.218753 l 0,0.0313 65.7813,65.71875 7.0625,7.0625 14.1563,-14.15626 -7.0938,-7.0625 -65.7813,-65.71874 c -16.4335,-16.43354 -16.4333,-42.53611 1e-4,-58.96876 8.1933,-8.194613 18.8613,-12.218753 29.5312,-12.218753 10.6664,1e-5 21.2238,4.00441 29.4375,12.218753 l 23.375,23.375 7.0625,7.0625 7.0625,-7.0625 23.375,-23.375 c 8.2174,-8.216033 18.7677,-12.218743 29.4375,-12.218743 10.6664,-1e-5 21.2238,4.0044 29.4375,12.218743 16.4336,16.43361 16.4336,42.53514 0,58.96876 l -45.4375,45.46872 c -8.4356,-2.82334 -18.0944,-0.90423 -24.8125,5.8125 -6.708,6.70945 -8.6515,16.38434 -5.8437,24.8125 l -35.125,35.125 c -8.4331,-2.81804 -18.0972,-0.87058 -24.8125,5.84375 -9.4573,9.4584 -9.4573,24.7919 0,34.25 9.46,9.459 24.7899,9.4587 34.25,0 7.152,-7.15329 8.8841,-17.67699 5.2187,-26.46875 l 32.5,-32.5 0,85.34375 c -2.5804,1.16995 -5.0035,2.81553 -7.125,4.9375 -9.4598,9.45839 -9.4601,24.79219 0,34.25 9.4573,9.45866 24.7927,9.4581 34.25,0 9.4576,-9.45896 9.46,-24.7914 0,-34.25 -2.1221,-2.12189 -4.5442,-3.76763 -7.125,-4.9375 l 0,-86.84375 c 2.9259,-1.1823 5.6902,-2.94071 8.0625,-5.3125 7.1609,-7.16232 8.9023,-17.70183 5.2188,-26.5 l 44.9062,-44.90625 c 24.0366,-24.03659 24.0366,-63.18216 0,-87.218753 -12.0187,-12.01966 -27.8227,-18.09375 -43.5625,-18.09375 -15.7418,0 -31.5734,6.04447 -43.5937,18.0625 l 0,0.0313 L 164.75,104.6775 148.4688,88.396257 c -12.0187,-12.01967 -27.854,-18.09375 -43.5938,-18.09376 z"
       style="fill:none;stroke:#000000;stroke-width:1px;display:inline"
       inkscape:connector-curvature="0" />
  </g>
  <g
     inkscape:groupmode="layer"
     id="layer4"
     inkscape:label="HEART-004"
     style="display:inline"
     zpos="400">
    <path
       style="fill:#00ff00;stroke:none;display:inline"
       d="m 210.01,252.062 -0.063,-126.3433 c 0,-0.011 0,-0.02 0,-0.031 0.017,-23.2242 18.4897,-41.687696 41.7188,-41.687696 11.5895,0 21.9559,4.7059 29.5,12.25 7.5421,7.541196 12.1873,17.851396 12.1875,29.468696 l 0,33.0313 0,10 10,0 33.0312,0 c 11.6168,0 21.894,4.6136 29.4375,12.1562 7.5441,7.5457 12.187,17.851 12.1875,29.4688 -5e-4,23.2423 -18.4468,41.6874 -41.6875,41.6875 z"
       id="path12530"
       inkscape:connector-curvature="0"
       sodipodi:nodetypes="cccscccccsccsc" />
    <path
       style="fill:#ffffff;stroke:none;display:inline"
       d="m 190.01,223.125 0,146.3606 20,0 0,-146.3606 z"
       id="path12454"
       inkscape:connector-curvature="0"
       sodipodi:nodetypes="ccccc" />
    <path
       style="fill:none;stroke:#000000;stroke-width:1px;stroke-linecap:square;display:inline"
       d="m 210,369.5 0,-10 0.01,-136.375 m -20,0 -0.01,136.375 0,10"
       id="S-right-1-5"
       inkscape:connector-curvature="0"
       sodipodi:nodetypes="cccccc" />
    <path
       style="fill:#ffffff;stroke:none;display:inline"
       d="m 210.0105,224.5312 -0.063,-98.8125 c 0,-0.011 0,-0.02 0,-0.031 0.017,-23.2242 18.4897,-41.687696 41.7188,-41.687696 11.5895,0 21.9559,4.7059 29.5,12.25 7.5421,7.541196 12.1873,17.851396 12.1875,29.468696 l 0,33.0313 0,10 10,0 33.0312,0 c 11.6168,0 21.894,4.6136 29.4375,12.1562 7.5441,7.5457 12.187,17.851 12.1875,29.4688 -5e-4,23.2423 -18.4468,41.6875 -41.6875,41.6875 l -164.2812,0 c -3.9722,-7.9497 -12.1646,-13.4043 -21.6563,-13.4063 -9.4915,0 -17.7154,5.456 -21.6875,13.4063 l -129.6562,0 c -3.9722,-7.9497 -12.1963,-13.4062 -21.6875,-13.4063 -13.3765,0 -24.2199,10.8432 -24.2188,24.2188 0,13.3775 10.8421,24.2187 24.2188,24.2187 10.1247,0 18.7874,-6.2096 22.4062,-15.0312 l 125.9688,0 -60.3438,60.3437 c -2.6555,-1.0002 -5.5258,-1.5318 -8.5312,-1.5312 -13.3767,0 -24.2201,10.8432 -24.2188,24.2187 5e-4,13.3776 10.8422,24.2188 24.2188,24.2188 13.3766,-10e-5 24.2187,-10.8412 24.2187,-24.2188 0,-2.9963 -0.5366,-5.8825 -1.5312,-8.5312 l 61.375,-61.4063 c 2.9079,1.236 6.1098,1.9376 9.4687,1.9375 10.1254,0 18.7874,-6.2096 22.4063,-15.0312 l 163.5312,0 c 33.9923,0 61.6868,-27.6936 61.6875,-61.6875 -7e-4,-16.9978 -6.9027,-32.4629 -18.0312,-43.5938 C 368.8493,155.6529 353.3837,148.75 336.385,148.75 l -23.0312,0 0,-23.0313 c -3e-4,-16.9895 -6.9412,-32.434196 -18.0625,-43.562496 l 0,-0.031 C 284.1619,71.004 268.6844,64 251.6663,64 c -33.9928,0 -61.7188,27.726804 -61.7188,61.7187 l 0.063,98.8125 z"
       id="path3120"
       inkscape:connector-curvature="0"
       sodipodi:nodetypes="cccscccccsccsccccccscccccssccccsccsccccsccc" />
    <path
       style="fill:none;stroke:#000000;stroke-width:1px;display:inline"
       d="m 210.0105,224.5312 -0.063,-98.8125 c 0,-0.011 0,-0.02 0,-0.031 0.017,-23.2242 18.4897,-41.687696 41.7188,-41.687696 11.5895,0 21.9559,4.7059 29.5,12.25 7.5421,7.541196 12.1873,17.851396 12.1875,29.468696 l 0,33.0313 0,10 10,0 33.0312,0 c 11.6168,0 21.894,4.6136 29.4375,12.1562 7.5441,7.5457 12.187,17.851 12.1875,29.4688 -5e-4,23.2423 -18.4468,41.6875 -41.6875,41.6875 l -164.2812,0 c -3.9722,-7.9497 -12.1646,-13.4043 -21.6563,-13.4063 -9.4915,0 -17.7154,5.456 -21.6875,13.4063 l -129.6562,0 c -3.9722,-7.9497 -12.1963,-13.4062 -21.6875,-13.4063 -13.3765,0 -24.2199,10.8432 -24.2188,24.2188 0,13.3775 10.8421,24.2187 24.2188,24.2187 10.1247,0 18.7874,-6.2096 22.4062,-15.0312 l 125.9688,0 -60.3438,60.3437 c -2.6555,-1.0002 -5.5258,-1.5318 -8.5312,-1.5312 -13.3767,0 -24.2201,10.8432 -24.2188,24.2187 5e-4,13.3776 10.8422,24.2188 24.2188,24.2188 13.3766,-10e-5 24.2187,-10.8412 24.2187,-24.2188 0,-2.9963 -0.5366,-5.8825 -1.5312,-8.5312 l 61.375,-61.4063 c 2.9079,1.236 6.1098,1.9376 9.4687,1.9375 10.1254,0 18.7874,-6.2096 22.4063,-15.0312 l 163.5312,0 c 33.9923,0 61.6868,-27.6936 61.6875,-61.6875 -7e-4,-16.9978 -6.9027,-32.4629 -18.0312,-43.5938 C 368.8493,155.6529 353.3837,148.75 336.385,148.75 l -23.0312,0 0,-23.0313 c -3e-4,-16.9895 -6.9412,-32.434196 -18.0625,-43.562496 l 0,-0.031 C 284.1619,71.004 268.6844,64 251.6663,64 c -33.9928,0 -61.7188,27.726804 -61.7188,61.7187 l 0.063,98.8125"
       id="path12495"
       inkscape:connector-curvature="0"
       sodipodi:nodetypes="cccscccccsccsccccccscccccssccccsccsccccscc" />
  </g>
  <g
     inkscape:groupmode="layer"
     id="layer5"
     inkscape:label="HEART-005"
     style="display:none">
    <path
       id="path12562"
       style="fill:#00ff00;stroke:none;display:inline"
       d="m 141.125,15.4275 c -13.2058,-3e-4 -26.4777,5.0074 -36.5938,15.124999 -20.2351,20.2343 -20.2351,52.8902 0,73.125001 l 61.5313,61.4687 34.9375,34.9063 96.375,-96.375 c 20.2351,-20.235001 20.2351,-52.890501 0,-73.125001 C 287.2588,20.4352 274.0781,15.4275 260.875,15.4275 c -13.2058,0 -26.3811,5.0083 -36.5,15.124999 l -23.375,23.375 -23.3438,-23.375 C 167.5401,20.4352 154.3281,15.4275 141.125,15.4275 z"
       inkscape:connector-curvature="0"
       sodipodi:nodetypes="cccccscscccc" />
    <path
       id="path12554"
       style="fill:#ffffff;stroke:none;display:inline"
       d="m 141.125,5.4275 c -15.742,-4e-4 -31.6175,6.022 -43.6563,18.0625 -24.0369,24.035899 -24.0367,63.213599 0,87.25 L 159,172.2087 a 10.001,10.001 0 1 0 14.125,-14.1562 L 111.5937,96.583699 c -16.4334,-16.4332 -16.4332,-42.5361 0,-58.9687 8.1935,-8.1947 18.8617,-12.187799 29.5313,-12.187499 10.6666,0 21.2239,3.972999 29.4375,12.187499 l 23.375,23.375 7.0625,7.0625 7.0625,-7.0625 23.375,-23.375 c 8.2175,-8.2157 18.7677,-12.187499 29.4375,-12.187499 10.6666,0 21.2239,3.972999 29.4375,12.187499 16.4334,16.4329 16.4335,42.5353 0,58.9687 l -82.625,82.625001 c -8.4315,-2.8147 -18.0991,-0.8685 -24.8125,5.8438 -6.7086,6.7087 -8.6518,16.3842 -5.8438,24.8125 l -35.125,35.125 c -8.4281,-2.8081 -18.1045,-0.8651 -24.8125,5.8437 -9.459,9.4591 -9.46,24.7922 0,34.25 9.4601,9.459 24.79,9.4586 34.25,0 7.1615,-7.1614 8.9334,-17.7015 5.25,-26.5 L 190,225.1775 l 0,85.9062 c -2.9255,1.1824 -5.6909,2.9405 -8.0625,5.3125 -9.4592,9.4592 -9.46,24.7919 0,34.25 2.3718,2.3721 5.1366,4.1303 8.0625,5.3125 l 0,13.4063 20,0 0,-14.2188 c 2.2397,-1.1307 4.3169,-2.6292 6.1875,-4.5 9.46,-9.4594 9.46,-24.7913 0,-34.25 -1.8688,-1.8685 -3.9508,-3.3697 -6.1875,-4.5 l 0,-87.6562 c 2.5807,-1.1699 5.0028,-2.8157 7.125,-4.9375 7.1599,-7.1599 8.8993,-17.6715 5.2187,-26.4688 L 304.4375,110.74 c 24.0367,-24.036601 24.0368,-63.213901 0,-87.25 C 292.4187,11.4699 276.6146,5.4275 260.875,5.4275 c -15.7418,0 -31.5735,6.0448 -43.5938,18.0625 L 201,39.771199 184.7187,23.49 C 172.6999,11.4699 156.8646,5.4275 141.125,5.4275 z m 94.5625,219.3437 a 10.001,10.001 0 0 0 -6.9688,17.1563 l 58.3438,58.3437 a 10.001,10.001 0 1 0 14.1562,-14.125 L 242.875,227.8025 a 10.001,10.001 0 0 0 -7.1875,-3.0313 z"
       inkscape:connector-curvature="0" />
    <path
       id="S-bottom-2-8"
       style="fill:none;stroke:#000000;stroke-width:1px;stroke-linecap:square;display:inline"
       d="m 210,369.5 0,-10 0,-1.135 0,-3.2188 c 2.2397,-1.1307 4.3169,-2.6292 6.1875,-4.5 9.46,-9.4594 9.46,-24.7913 0,-34.25 -1.8688,-1.8685 -3.9508,-3.3697 -6.1875,-4.5 l 0,-87.6562 c 2.5807,-1.1699 5.0028,-2.8157 7.125,-4.9375 7.1599,-7.1599 8.8993,-17.6715 5.2187,-26.4688 L 304.4375,110.74 c 24.0367,-24.036601 24.0368,-63.213901 0,-87.25 C 292.4187,11.4699 276.6146,5.4275 260.875,5.4275 c -15.7418,0 -31.5735,6.0448 -43.5938,18.0625 L 201,39.771199 184.7187,23.49 C 172.6999,11.4699 156.8646,5.4275 141.125,5.4275 c -15.742,-4e-4 -31.6175,6.022 -43.6563,18.0625 -24.0369,24.035899 -24.0367,63.213599 0,87.25 L 159,172.2087 c 1.839,1.911 4.4638,3.0419 7.1158,3.0659 2.652,0.024 5.2968,-1.0592 7.17,-2.9366 1.8733,-1.8774 2.9507,-4.5246 2.9208,-7.1765 -0.03,-2.652 -1.1666,-5.2743 -3.0816,-7.109 L 111.5937,96.583699 c -16.4334,-16.4332 -16.4332,-42.5361 0,-58.9687 8.1935,-8.1947 18.8617,-12.187799 29.5313,-12.187499 10.6666,0 21.2239,3.972999 29.4375,12.187499 l 23.375,23.375 7.0625,7.0625 7.0625,-7.0625 23.375,-23.375 c 8.2175,-8.2157 18.7677,-12.187499 29.4375,-12.187499 10.6666,0 21.2239,3.972999 29.4375,12.187499 16.4334,16.4329 16.4335,42.5353 0,58.9687 l -82.625,82.625001 c -8.4315,-2.8147 -18.0991,-0.8685 -24.8125,5.8438 -6.7086,6.7087 -8.6518,16.3842 -5.8438,24.8125 l -35.125,35.125 c -8.4281,-2.8081 -18.1045,-0.8651 -24.8125,5.8437 -9.4589,9.4591 -9.4599,24.7922 0,34.25 9.4601,9.459 24.79,9.4586 34.25,0 7.1615,-7.1614 8.9334,-17.7015 5.25,-26.5 L 190,225.1775 l 0,85.9062 c -2.9255,1.1824 -5.6909,2.9405 -8.0625,5.3125 -9.4592,9.4592 -9.46,24.7919 0,34.25 2.3718,2.3721 5.1366,4.1303 8.0625,5.3125 l 0,2.4063 0,1.135 0,10 m 45.6875,-144.7288 c -3.9441,0.01 -7.763,2.5832 -9.2472,6.2373 -1.4843,3.6542 -0.5434,8.1634 2.2784,10.919 l 58.3438,58.3437 c 1.8347,1.9151 4.457,3.0518 7.109,3.0817 2.6519,0.03 5.2991,-1.0476 7.1765,-2.9208 1.8774,-1.8733 2.9607,-4.5181 2.9367,-7.1701 -0.024,-2.652 -1.155,-5.2768 -3.066,-7.1158 L 242.875,227.8025 c -1.8615,-1.9156 -4.5164,-3.0353 -7.1875,-3.0313 z"
       inkscape:connector-curvature="0"
       sodipodi:nodetypes="cccccsccccscscccccccssccccccccccscscccccccccccccccccscccssccc" />
  </g>
  <g
     inkscape:groupmode="layer"
     id="layer6"
     inkscape:label="HEART-006"
     style="display:none">
    <path
       id="path12885"
       style="fill:#ffffff;stroke:none;display:inline"
       d="m 190,369.5 0,-10 20,0 0,10 z"
       inkscape:connector-curvature="0"
       sodipodi:nodetypes="ccccc" />
    <path
       style="fill:none;stroke:#000000;stroke-width:1px;stroke-linecap:square;display:inline"
       d="m 190,369.5 0,-10"
       id="S-bottom-1-0"
       inkscape:connector-curvature="0" />
    <path
       style="fill:none;stroke:#000000;stroke-width:1px;stroke-linecap:square;display:inline"
       d="m 210,369.5 0,-10"
       id="S-bottom-2-94"
       inkscape:connector-curvature="0" />
    <path
       sodipodi:nodetypes="cssccsscccc"
       inkscape:connector-curvature="0"
       d="m 297.9498,109.24567 c 20.2351,-20.234991 20.2351,-52.871501 0,-73.105991 -10.1161,-10.11731 -23.3053,-15.14071 -36.5084,-15.14071 -13.2059,-9e-5 -26.3924,5.0234 -36.5112,15.1401 l -23.3587,23.3587 -23.3599,-23.3598 c -10.1161,-10.11729 -23.3054,-15.1408 -36.5085,-15.1408 -13.2058,-3e-4 -26.4808,5.0232 -36.597,15.1408 -20.235,20.23431 -20.235,52.87101 0,73.105801 l 96.4521,96.39458 z"
       style="fill:#00ff00;stroke:none;display:inline"
       id="path12789" />
    <path
       id="path12781"
       style="fill:#ffffff;stroke:none;display:inline"
       d="m 141.6875,10.98999 c -15.7318,0.008 -31.6254,6.02999 -43.6563,18.062499 -24.0368,24.03598 -24.0366,63.21359 0,87.250001 l 65.7813,65.75 a 10.001,10.001 0 1 0 14.125,-14.15625 l -65.75,-65.71875 c -16.4333,-16.433171 -16.4332,-42.536111 0,-58.968751 8.1936,-8.19475 18.8304,-12.21899 29.5,-12.21875 10.6666,0 21.224,4.00432 29.4375,12.21875 l 23.375,23.375 7.0625,7.0625 7.0937,-7.0625 23.3438,-23.375 c 8.2174,-8.21569 18.7676,-12.21883 29.4375,-12.21875 10.6666,0 21.224,4.00431 29.4375,12.21875 16.4334,16.43287 16.4335,42.53533 0,58.968751 l -82.3438,82.34375 c -8.6233,-3.23944 -18.7176,-1.37494 -25.6562,5.5625 -6.935,6.93495 -8.7659,17.00355 -5.5313,25.625 L 142.75,250.30249 c -8.62,-3.23172 -18.7236,-1.40233 -25.6563,5.53125 -9.4591,9.45901 -9.46,24.79219 0,34.25 9.46,9.45879 24.79,9.4585 34.25,0 6.9408,-6.9407 8.8084,-17.03014 5.5625,-25.65625 L 190,231.33374 l 0,85.6875 c -2.5811,1.16997 -5.003,2.81509 -7.125,4.9375 -9.4593,9.4592 -9.46,24.82315 0,34.28125 9.4573,9.4586 24.7926,9.45779 34.25,0 9.4599,-9.45951 9.4601,-24.82254 0,-34.28125 -2.1227,-2.12243 -4.5435,-3.76758 -7.125,-4.9375 l 0,-87.75 c 2.5815,-1.1699 5.0023,-2.81518 7.125,-4.9375 6.9349,-6.93495 8.7662,-17.03488 5.5312,-25.65625 l 82.375,-82.375 c 24.0367,-24.036561 24.0369,-63.182641 0,-87.218751 C 293.0125,17.06357 277.1771,10.98999 261.4375,10.98999 245.6956,10.98987 229.8952,17.03478 217.875,29.052489 l -0.031,0 -16.2812,16.28125 -16.2812,-16.28125 C 173.2708,17.04027 157.4484,10.99797 141.7191,10.98999 l -0.031,0 z"
       inkscape:connector-curvature="0" />
    <path
       d="m 141.6875,10.98999 c -15.7318,0.008 -31.6254,6.02999 -43.6563,18.062499 -24.0368,24.03598 -24.0366,63.21359 0,87.250001 l 65.7813,65.75 a 10.001,10.001 0 1 0 14.125,-14.15625 l -65.75,-65.71875 c -16.4333,-16.433171 -16.4332,-42.536111 0,-58.968751 8.1936,-8.19475 18.8304,-12.21899 29.5,-12.21875 10.6666,0 21.224,4.00432 29.4375,12.21875 l 23.375,23.375 7.0625,7.0625 7.0937,-7.0625 23.3438,-23.375 c 8.2174,-8.21569 18.7676,-12.21883 29.4375,-12.21875 10.6666,0 21.224,4.00431 29.4375,12.21875 16.4334,16.43287 16.4335,42.53533 0,58.968751 l -82.3438,82.34375 c -8.6233,-3.23944 -18.7176,-1.37494 -25.6562,5.5625 -6.935,6.93495 -8.7659,17.00355 -5.5313,25.625 L 142.75,250.30249 c -8.62,-3.23172 -18.7236,-1.40233 -25.6563,5.53125 -9.4591,9.45901 -9.46,24.79219 0,34.25 9.46,9.45879 24.79,9.4585 34.25,0 6.9408,-6.9407 8.8084,-17.03014 5.5625,-25.65625 L 190,231.33374 l 0,85.6875 c -2.5811,1.16997 -5.003,2.81509 -7.125,4.9375 -9.4593,9.4592 -9.46,24.82315 0,34.28125 9.4573,9.4586 24.7926,9.45779 34.25,0 9.4599,-9.45951 9.4601,-24.82254 0,-34.28125 -2.1227,-2.12243 -4.5435,-3.76758 -7.125,-4.9375 l 0,-87.75 c 2.5815,-1.1699 5.0023,-2.81518 7.125,-4.9375 6.9349,-6.93495 8.7662,-17.03488 5.5312,-25.65625 l 82.375,-82.375 c 24.0367,-24.036561 24.0369,-63.182641 0,-87.218751 C 293.0125,17.06357 277.1771,10.98999 261.4375,10.98999 245.6956,10.98987 229.8952,17.03478 217.875,29.052489 l -0.031,0 -16.2812,16.28125 -16.2812,-16.28125 C 173.2708,17.04027 157.4484,10.99797 141.7191,10.98999 l -0.031,0 z"
       style="fill:none;stroke:#000000;stroke-width:1px;display:inline"
       id="path12860"
       inkscape:connector-curvature="0" />
  </g>
</svg>
