<?xml version="1.0" encoding="UTF-8" standalone="no"?>
<!-- Created with Inkscape (http://www.inkscape.org/) -->

<svg
   xmlns:dc="http://purl.org/dc/elements/1.1/"
   xmlns:cc="http://creativecommons.org/ns#"
   xmlns:rdf="http://www.w3.org/1999/02/22-rdf-syntax-ns#"
   xmlns:svg="http://www.w3.org/2000/svg"
   xmlns="http://www.w3.org/2000/svg"
   xmlns:sodipodi="http://sodipodi.sourceforge.net/DTD/sodipodi-0.dtd"
   xmlns:inkscape="http://www.inkscape.org/namespaces/inkscape"
   style="display:inline"
   sodipodi:docname="161212_WWWW_00_UW_00_UW_.svg"
   inkscape:version="0.48.3.1 r9886"
   version="1.1"
   id="svg2902"
   height="400"
   width="400">
  <sodipodi:namedview
     id="base"
     pagecolor="#f0f0f0"
     bordercolor="#666666"
     borderopacity="1.0"
     inkscape:pageopacity="1"
     inkscape:pageshadow="2"
     inkscape:zoom="0.69824267"
     inkscape:cx="-168.3651"
     inkscape:cy="105.86591"
     inkscape:document-units="px"
     inkscape:current-layer="svg2902"
     showgrid="false"
     inkscape:window-width="1018"
     inkscape:window-height="709"
     inkscape:window-x="0"
     inkscape:window-y="1"
     inkscape:window-maximized="0"
     showguides="true"
     inkscape:guide-bbox="true"
     inkscape:snap-bbox="true"
     inkscape:snap-global="false" />
  <defs
     id="defs2904">
    <clipPath
       clipPathUnits="userSpaceOnUse"
       id="clipPath5174">
      <path
         id="path5176"
         style="opacity:0.5;fill:#00ff00;stroke:#00ff00;stroke-width:1px;stroke-linecap:square;display:inline"
         d="m 436.26971,600.11436 -232.09481,134 -169.500003,-293.58262 232.094813,-134 z"
         inkscape:connector-curvature="0"
         sodipodi:nodetypes="ccccc" />
    </clipPath>
    <clipPath
       clipPathUnits="userSpaceOnUse"
       id="clipPath5174-5">
      <path
         id="path5176-9"
         style="opacity:0.5;fill:#00ff00;stroke:#00ff00;stroke-width:1px;stroke-linecap:square;display:inline"
         d="m 436.26971,600.11436 -232.09481,134 -169.500003,-293.58262 232.094813,-134 z"
         inkscape:connector-curvature="0"
         sodipodi:nodetypes="ccccc" />
    </clipPath>
    <clipPath
       clipPathUnits="userSpaceOnUse"
       id="clipPath3238">
      <path
         sodipodi:nodetypes="ccccc"
         inkscape:connector-curvature="0"
         d="m 461.26971,643.41563 -232.09481,134 -169.500002,-293.58262 232.094812,-134 z"
         style="opacity:0.5;fill:#00ff00;stroke:#00ff00;stroke-width:1px;stroke-linecap:square;display:inline"
         id="path3240" />
    </clipPath>
    <clipPath
       clipPathUnits="userSpaceOnUse"
       id="clipPath3266">
      <path
         sodipodi:nodetypes="ccccc"
         inkscape:connector-curvature="0"
         d="m 399.5,67 0,265 -409,0 0,-265 z"
         style="opacity:0.5;fill:#00ff00;stroke:none;display:inline"
         id="path3268" />
    </clipPath>
    <clipPath
       clipPathUnits="userSpaceOnUse"
       id="clipPath3277">
      <path
         sodipodi:nodetypes="ccccc"
         inkscape:connector-curvature="0"
         d="m 399.5,67 0,265 -409,0 0,-265 z"
         style="opacity:0.5;fill:#00ff00;stroke:none;display:inline"
         id="path3279" />
    </clipPath>
    <clipPath
       clipPathUnits="userSpaceOnUse"
       id="clipPath3299">
      <path
         id="path3301"
         style="opacity:0.5;fill:#00ff00;stroke:none;display:inline"
         d="m 399.5,67 0,265 -409,0 0,-265 z"
         inkscape:connector-curvature="0"
         sodipodi:nodetypes="ccccc" />
    </clipPath>
  </defs>
  <metadata
     id="metadata2907">
    <rdf:RDF>
      <cc:Work
         rdf:about="">
        <dc:format>image/svg+xml</dc:format>
        <dc:type
           rdf:resource="http://purl.org/dc/dcmitype/StillImage" />
        <dc:title />
      </cc:Work>
    </rdf:RDF>
  </metadata>
  <g
     inkscape:groupmode="layer"
     id="bg"
     inkscape:label="XX_BG"
     sodipodi:insensitive="true">
    <path
       style="fill:#f6ffd5"
       d="M 400,0 400,400 0,400 0,0 z"
       id="bgrect"
       inkscape:connector-curvature="0" />
  </g>
  <g
     inkscape:label="XX_Referenz"
     inkscape:groupmode="layer"
     id="XX_referenz"
     style="display:none"
     sodipodi:insensitive="true">
    <path
       id="innerframe"
       style="fill:none;stroke:#ff0000;stroke-width:1"
       d="m 40.5,40.5 319,0 0,319 -319,0 0,-319 z"
       inkscape:label="#innerframe"
       sodipodi:insensitive="true"
       inkscape:connector-curvature="0" />
    <path
       id="outerframe"
       style="fill:none;stroke:#ff0000;stroke-width:1"
       d="m 30.5,30.5 339,0 0,339 -339,0 0,-339 z"
       inkscape:label="#outerframe"
       sodipodi:nodetypes="ccccc"
       sodipodi:insensitive="true"
       inkscape:connector-curvature="0" />
    <path
       style="opacity:0.5;fill:none;stroke:#ffc200;stroke-width:1px;stroke-linecap:square"
       d="m 189,30.5 0,10"
       id="ref-S-top-1"
       sodipodi:insensitive="true"
       inkscape:connector-curvature="0" />
    <path
       style="opacity:0.5;fill:none;stroke:#ffc200;stroke-width:1px;stroke-linecap:square"
       d="m 191,30.5 0,10"
       id="ref-S-top-2"
       sodipodi:insensitive="true"
       inkscape:connector-curvature="0" />
    <path
       style="opacity:0.5;fill:none;stroke:#ffc200;stroke-width:1px;stroke-linecap:square"
       d="m 209,30.5 0,10"
       id="ref-S-top-3"
       sodipodi:insensitive="true"
       inkscape:connector-curvature="0" />
    <path
       style="opacity:0.5;fill:none;stroke:#ffc200;stroke-width:1px;stroke-linecap:square"
       d="m 211,30.5 0,10"
       id="ref-S-top-4"
       sodipodi:insensitive="true"
       inkscape:connector-curvature="0" />
    <path
       style="opacity:0.5;fill:none;stroke:#00ff00;stroke-width:1px;stroke-linecap:square"
       d="m 199,30.5 0,10"
       id="ref-I-top-1"
       sodipodi:insensitive="true"
       inkscape:connector-curvature="0" />
    <path
       style="opacity:0.5;fill:none;stroke:#00ff00;stroke-width:1px;stroke-linecap:square"
       d="m 201,30.5 0,10"
       id="ref-I-top-2"
       sodipodi:insensitive="true"
       inkscape:connector-curvature="0" />
    <path
       style="opacity:0.5;fill:none;stroke:#00ffcc;stroke-width:1px;stroke-linecap:square"
       d="m 66,30.5 0,10"
       id="ref-C-top-1"
       sodipodi:insensitive="true"
       inkscape:connector-curvature="0" />
    <path
       style="opacity:0.5;fill:none;stroke:#00ffcc;stroke-width:1px;stroke-linecap:square"
       d="m 68,30.5 0,10"
       id="ref-C-top-2"
       sodipodi:insensitive="true"
       inkscape:connector-curvature="0" />
    <path
       style="opacity:0.5;fill:none;stroke:#00ffcc;stroke-width:1px;stroke-linecap:square"
       d="m 92,30.5 0,10"
       id="ref-C-top-3"
       sodipodi:insensitive="true"
       inkscape:connector-curvature="0" />
    <path
       style="opacity:0.5;fill:none;stroke:#00ffcc;stroke-width:1px;stroke-linecap:square"
       d="m 94,30.5 0,10"
       id="ref-C-top-4"
       sodipodi:insensitive="true"
       inkscape:connector-curvature="0" />
    <path
       style="opacity:0.5;fill:none;stroke:#00ffcc;stroke-width:1px;stroke-linecap:square"
       d="m 306,30.5 0,10"
       id="ref-C-top-5"
       sodipodi:insensitive="true"
       inkscape:connector-curvature="0" />
    <path
       style="opacity:0.5;fill:none;stroke:#00ffcc;stroke-width:1px;stroke-linecap:square"
       d="m 308,30.5 0,10"
       id="ref-C-top-6"
       sodipodi:insensitive="true"
       inkscape:connector-curvature="0" />
    <path
       style="opacity:0.5;fill:none;stroke:#00ffcc;stroke-width:1px;stroke-linecap:square"
       d="m 332,30.5 0,10"
       id="ref-C-top-7"
       sodipodi:insensitive="true"
       inkscape:connector-curvature="0" />
    <path
       style="opacity:0.5;fill:none;stroke:#00ffcc;stroke-width:1px;stroke-linecap:square"
       d="m 334,30.5 0,10"
       id="ref-C-top-8"
       sodipodi:insensitive="true"
       inkscape:connector-curvature="0" />
    <path
       style="opacity:0.5;fill:none;stroke:#ffc200;stroke-width:1px;stroke-linecap:square"
       d="m 369.5,189 -10,0"
       id="ref-S-right-1"
       sodipodi:insensitive="true"
       inkscape:connector-curvature="0" />
    <path
       style="opacity:0.5;fill:none;stroke:#ffc200;stroke-width:1px;stroke-linecap:square"
       d="m 369.5,191 -10,0"
       id="ref-S-right-2"
       sodipodi:insensitive="true"
       inkscape:connector-curvature="0" />
    <path
       style="opacity:0.5;fill:none;stroke:#ffc200;stroke-width:1px;stroke-linecap:square"
       d="m 369.5,209 -10,0"
       id="ref-S-right-3"
       sodipodi:insensitive="true"
       inkscape:connector-curvature="0" />
    <path
       style="opacity:0.5;fill:none;stroke:#ffc200;stroke-width:1px;stroke-linecap:square"
       d="m 369.5,211 -10,0"
       id="ref-S-right-4"
       sodipodi:insensitive="true"
       inkscape:connector-curvature="0" />
    <path
       style="opacity:0.5;fill:none;stroke:#00ff00;stroke-width:1px;stroke-linecap:square"
       d="m 369.5,199 -10,0"
       id="ref-I-right-1"
       sodipodi:insensitive="true"
       inkscape:connector-curvature="0" />
    <path
       style="opacity:0.5;fill:none;stroke:#00ff00;stroke-width:1px;stroke-linecap:square"
       d="m 369.5,201 -10,0"
       id="ref-I-right-2"
       sodipodi:insensitive="true"
       inkscape:connector-curvature="0" />
    <path
       style="opacity:0.5;fill:none;stroke:#00ffcc;stroke-width:1px;stroke-linecap:square"
       d="m 369.5,66 -10,0"
       id="ref-C-right-1"
       sodipodi:insensitive="true"
       inkscape:connector-curvature="0" />
    <path
       style="opacity:0.5;fill:none;stroke:#00ffcc;stroke-width:1px;stroke-linecap:square"
       d="m 369.5,68 -10,0"
       id="ref-C-right-2"
       sodipodi:insensitive="true"
       inkscape:connector-curvature="0" />
    <path
       style="opacity:0.5;fill:none;stroke:#00ffcc;stroke-width:1px;stroke-linecap:square"
       d="m 369.5,92 -10,0"
       id="ref-C-right-3"
       sodipodi:insensitive="true"
       inkscape:connector-curvature="0" />
    <path
       style="opacity:0.5;fill:none;stroke:#00ffcc;stroke-width:1px;stroke-linecap:square"
       d="m 369.5,94 -10,0"
       id="ref-C-right-4"
       sodipodi:insensitive="true"
       inkscape:connector-curvature="0" />
    <path
       style="opacity:0.5;fill:none;stroke:#00ffcc;stroke-width:1px;stroke-linecap:square"
       d="m 369.5,306 -10,0"
       id="ref-C-right-5"
       sodipodi:insensitive="true"
       inkscape:connector-curvature="0" />
    <path
       style="opacity:0.5;fill:none;stroke:#00ffcc;stroke-width:1px;stroke-linecap:square"
       d="m 369.5,308 -10,0"
       id="ref-C-right-6"
       sodipodi:insensitive="true"
       inkscape:connector-curvature="0" />
    <path
       style="opacity:0.5;fill:none;stroke:#00ffcc;stroke-width:1px;stroke-linecap:square"
       d="m 369.5,332 -10,0"
       id="ref-C-right-7"
       sodipodi:insensitive="true"
       inkscape:connector-curvature="0" />
    <path
       style="opacity:0.5;fill:none;stroke:#00ffcc;stroke-width:1px;stroke-linecap:square"
       d="m 369.5,334 -10,0"
       id="ref-C-right-8"
       sodipodi:insensitive="true"
       inkscape:connector-curvature="0" />
    <path
       style="opacity:0.5;fill:none;stroke:#ffc200;stroke-width:1px;stroke-linecap:square"
       d="m 189,369.5 0,-10"
       id="ref-S-bottom-1"
       sodipodi:insensitive="true"
       inkscape:connector-curvature="0" />
    <path
       style="opacity:0.5;fill:none;stroke:#ffc200;stroke-width:1px;stroke-linecap:square"
       d="m 191,369.5 0,-10"
       id="ref-S-bottom-2"
       sodipodi:insensitive="true"
       inkscape:connector-curvature="0" />
    <path
       style="opacity:0.5;fill:none;stroke:#ffc200;stroke-width:1px;stroke-linecap:square"
       d="m 209,369.5 0,-10"
       id="ref-S-bottom-3"
       sodipodi:insensitive="true"
       inkscape:connector-curvature="0" />
    <path
       style="opacity:0.5;fill:none;stroke:#ffc200;stroke-width:1px;stroke-linecap:square"
       d="m 211,369.5 0,-10"
       id="ref-S-bottom-4"
       sodipodi:insensitive="true"
       inkscape:connector-curvature="0" />
    <path
       style="opacity:0.5;fill:none;stroke:#00ff00;stroke-width:1px;stroke-linecap:square"
       d="m 199,369.5 0,-10"
       id="ref-I-bottom-1"
       sodipodi:insensitive="true"
       inkscape:connector-curvature="0" />
    <path
       style="opacity:0.5;fill:none;stroke:#00ff00;stroke-width:1px;stroke-linecap:square"
       d="m 201,369.5 0,-10"
       id="ref-I-bottom-2"
       sodipodi:insensitive="true"
       inkscape:connector-curvature="0" />
    <path
       style="opacity:0.5;fill:none;stroke:#00ffcc;stroke-width:1px;stroke-linecap:square"
       d="m 66,369.5 0,-10"
       id="ref-C-bottom-1"
       sodipodi:insensitive="true"
       inkscape:connector-curvature="0" />
    <path
       style="opacity:0.5;fill:none;stroke:#00ffcc;stroke-width:1px;stroke-linecap:square"
       d="m 68,369.5 0,-10"
       id="ref-C-bottom-2"
       sodipodi:insensitive="true"
       inkscape:connector-curvature="0" />
    <path
       style="opacity:0.5;fill:none;stroke:#00ffcc;stroke-width:1px;stroke-linecap:square"
       d="m 92,369.5 0,-10"
       id="ref-C-bottom-3"
       sodipodi:insensitive="true"
       inkscape:connector-curvature="0" />
    <path
       style="opacity:0.5;fill:none;stroke:#00ffcc;stroke-width:1px;stroke-linecap:square"
       d="m 94,369.5 0,-10"
       id="ref-C-bottom-4"
       sodipodi:insensitive="true"
       inkscape:connector-curvature="0" />
    <path
       style="opacity:0.5;fill:none;stroke:#00ffcc;stroke-width:1px;stroke-linecap:square"
       d="m 306,369.5 0,-10"
       id="ref-C-bottom-5"
       sodipodi:insensitive="true"
       inkscape:connector-curvature="0" />
    <path
       style="opacity:0.5;fill:none;stroke:#00ffcc;stroke-width:1px;stroke-linecap:square"
       d="m 308,369.5 0,-10"
       id="ref-C-bottom-6"
       sodipodi:insensitive="true"
       inkscape:connector-curvature="0" />
    <path
       style="opacity:0.5;fill:none;stroke:#00ffcc;stroke-width:1px;stroke-linecap:square"
       d="m 332,369.5 0,-10"
       id="ref-C-bottom-7"
       sodipodi:insensitive="true"
       inkscape:connector-curvature="0" />
    <path
       style="opacity:0.5;fill:none;stroke:#00ffcc;stroke-width:1px;stroke-linecap:square"
       d="m 334,369.5 0,-10"
       id="ref-C-bottom-8"
       sodipodi:insensitive="true"
       inkscape:connector-curvature="0" />
    <path
       style="opacity:0.5;fill:none;stroke:#ffc200;stroke-width:1px;stroke-linecap:square"
       d="m 30.5,189 10,0"
       id="ref-S-left-1"
       sodipodi:insensitive="true"
       inkscape:connector-curvature="0" />
    <path
       style="opacity:0.5;fill:none;stroke:#ffc200;stroke-width:1px;stroke-linecap:square"
       d="m 30.5,191 10,0"
       id="ref-S-left-2"
       sodipodi:insensitive="true"
       inkscape:connector-curvature="0" />
    <path
       style="opacity:0.5;fill:none;stroke:#ffc200;stroke-width:1px;stroke-linecap:square"
       d="m 30.5,209 10,0"
       id="ref-S-left-3"
       sodipodi:insensitive="true"
       inkscape:connector-curvature="0" />
    <path
       style="opacity:0.5;fill:none;stroke:#ffc200;stroke-width:1px;stroke-linecap:square"
       d="m 30.5,211 10,0"
       id="ref-S-left-4"
       sodipodi:insensitive="true"
       inkscape:connector-curvature="0" />
    <path
       style="opacity:0.5;fill:none;stroke:#00ff00;stroke-width:1px;stroke-linecap:square"
       d="m 40.5,199 -10,0"
       id="ref-I-left-1"
       sodipodi:insensitive="true"
       inkscape:connector-curvature="0" />
    <path
       style="opacity:0.5;fill:none;stroke:#00ff00;stroke-width:1px;stroke-linecap:square"
       d="m 40.5,201 -10,0"
       id="ref-I-left-2"
       sodipodi:insensitive="true"
       inkscape:connector-curvature="0" />
    <path
       style="opacity:0.5;fill:none;stroke:#00ffcc;stroke-width:1px;stroke-linecap:square"
       d="m 30.5,66 10,0"
       id="ref-C-left-1"
       sodipodi:insensitive="true"
       inkscape:connector-curvature="0" />
    <path
       style="opacity:0.5;fill:none;stroke:#00ffcc;stroke-width:1px;stroke-linecap:square"
       d="m 30.5,68 10,0"
       id="ref-C-left-2"
       sodipodi:insensitive="true"
       inkscape:connector-curvature="0" />
    <path
       style="opacity:0.5;fill:none;stroke:#00ffcc;stroke-width:1px;stroke-linecap:square"
       d="m 30.5,92 10,0"
       id="ref-C-left-3"
       sodipodi:insensitive="true"
       inkscape:connector-curvature="0" />
    <path
       style="opacity:0.5;fill:none;stroke:#00ffcc;stroke-width:1px;stroke-linecap:square"
       d="m 30.5,94 10,0"
       id="ref-C-left-4"
       sodipodi:insensitive="true"
       inkscape:connector-curvature="0" />
    <path
       style="opacity:0.5;fill:none;stroke:#00ffcc;stroke-width:1px;stroke-linecap:square"
       d="m 30.5,306 10,0"
       id="ref-C-left-5"
       sodipodi:insensitive="true"
       inkscape:connector-curvature="0" />
    <path
       style="opacity:0.5;fill:none;stroke:#00ffcc;stroke-width:1px;stroke-linecap:square"
       d="m 30.5,308 10,0"
       id="ref-C-left-6"
       sodipodi:insensitive="true"
       inkscape:connector-curvature="0" />
    <path
       style="opacity:0.5;fill:none;stroke:#00ffcc;stroke-width:1px;stroke-linecap:square"
       d="m 30.5,332 10,0"
       id="ref-C-left-7"
       sodipodi:insensitive="true"
       inkscape:connector-curvature="0" />
    <path
       style="opacity:0.5;fill:none;stroke:#00ffcc;stroke-width:1px;stroke-linecap:square"
       d="m 30.5,334 10,0"
       id="ref-C-left-8"
       sodipodi:insensitive="true"
       inkscape:connector-curvature="0" />
    <path
       style="fill:none;stroke:#000000;stroke-width:1px;stroke-linecap:square"
       d="m 190,30.5 0,10"
       id="S-top-1"
       inkscape:connector-curvature="0" />
    <path
       style="fill:none;stroke:#000000;stroke-width:1px;stroke-linecap:square"
       d="m 210,30.5 0,10"
       id="S-top-2"
       inkscape:connector-curvature="0" />
    <path
       style="fill:none;stroke:#000000;stroke-width:1px;stroke-linecap:square"
       d="m 369.5,190 -10,0"
       id="S-right-1"
       inkscape:connector-curvature="0" />
    <path
       style="fill:none;stroke:#000000;stroke-width:1px;stroke-linecap:square"
       d="m 369.5,210 -10,0"
       id="S-right-2"
       inkscape:connector-curvature="0" />
    <path
       style="fill:none;stroke:#000000;stroke-width:1px;stroke-linecap:square"
       d="m 190,369.5 0,-10"
       id="S-bottom-1"
       inkscape:connector-curvature="0" />
    <path
       style="fill:none;stroke:#000000;stroke-width:1px;stroke-linecap:square"
       d="m 210,369.5 0,-10"
       id="S-bottom-2"
       inkscape:connector-curvature="0" />
    <path
       style="fill:none;stroke:#000000;stroke-width:1px;stroke-linecap:square"
       d="m 30.5,190 10,0"
       id="S-left-1"
       inkscape:connector-curvature="0" />
    <path
       style="fill:none;stroke:#000000;stroke-width:1px;stroke-linecap:square"
       d="m 30.5,210 10,0"
       id="S-left-2"
       inkscape:connector-curvature="0" />
    <path
       style="fill:none;stroke:#000000;stroke-width:1px;stroke-linecap:square"
       d="m 200,30.5 0,10"
       id="I-top-1"
       inkscape:connector-curvature="0" />
    <path
       style="fill:none;stroke:#000000;stroke-width:1px;stroke-linecap:square"
       d="m 369.5,200 -10,0"
       id="I-right-1"
       inkscape:connector-curvature="0" />
    <path
       style="fill:none;stroke:#000000;stroke-width:1px;stroke-linecap:square"
       d="m 200,369.5 0,-10"
       id="I-bottom-1"
       inkscape:connector-curvature="0" />
    <path
       style="fill:none;stroke:#000000;stroke-width:1px;stroke-linecap:square"
       d="m 40.5,200 -10,0"
       id="I-left-1"
       inkscape:connector-curvature="0" />
    <path
       style="fill:none;stroke:#000000;stroke-width:1px;stroke-linecap:square"
       d="m 67,30.5 0,10"
       id="C-top-1"
       inkscape:connector-curvature="0" />
    <path
       style="fill:none;stroke:#000000;stroke-width:1px;stroke-linecap:square"
       d="m 93,30.5 0,10"
       id="C-top-2"
       inkscape:connector-curvature="0" />
    <path
       style="fill:none;stroke:#000000;stroke-width:1px;stroke-linecap:square"
       d="m 307,30.5 0,10"
       id="C-top-3"
       inkscape:connector-curvature="0" />
    <path
       style="fill:none;stroke:#000000;stroke-width:1px;stroke-linecap:square"
       d="m 333,30.5 0,10"
       id="C-top-4"
       inkscape:connector-curvature="0" />
    <path
       style="fill:none;stroke:#000000;stroke-width:1px;stroke-linecap:square"
       d="m 369.5,67 -10,0"
       id="C-right-1"
       inkscape:connector-curvature="0" />
    <path
       style="fill:none;stroke:#000000;stroke-width:1px;stroke-linecap:square"
       d="m 369.5,93 -10,0"
       id="C-right-2"
       inkscape:connector-curvature="0" />
    <path
       style="fill:none;stroke:#000000;stroke-width:1px;stroke-linecap:square"
       d="m 369.5,307 -10,0"
       id="C-right-3"
       inkscape:connector-curvature="0" />
    <path
       style="fill:none;stroke:#000000;stroke-width:1px;stroke-linecap:square"
       d="m 369.5,333 -10,0"
       id="C-right-4"
       inkscape:connector-curvature="0" />
    <path
       style="fill:none;stroke:#000000;stroke-width:1px;stroke-linecap:square"
       d="m 67,369.5 0,-10"
       id="C-bottom-1"
       inkscape:connector-curvature="0" />
    <path
       style="fill:none;stroke:#000000;stroke-width:1px;stroke-linecap:square"
       d="m 93,369.5 0,-10"
       id="C-bottom-2"
       inkscape:connector-curvature="0" />
    <path
       style="fill:none;stroke:#000000;stroke-width:1px;stroke-linecap:square"
       d="m 307,369.5 0,-10"
       id="C-bottom-3"
       inkscape:connector-curvature="0" />
    <path
       style="fill:none;stroke:#000000;stroke-width:1px;stroke-linecap:square"
       d="m 333,369.5 0,-10"
       id="C-bottom-4"
       inkscape:connector-curvature="0" />
    <path
       style="fill:none;stroke:#000000;stroke-width:1px;stroke-linecap:square"
       d="m 30.5,67 10,0"
       id="C-left-1"
       inkscape:connector-curvature="0" />
    <path
       style="fill:none;stroke:#000000;stroke-width:1px;stroke-linecap:square"
       d="m 30.5,93 10,0"
       id="C-left-2"
       inkscape:connector-curvature="0" />
    <path
       style="fill:none;stroke:#000000;stroke-width:1px;stroke-linecap:square"
       d="m 30.5,307 10,0"
       id="C-left-3"
       inkscape:connector-curvature="0" />
    <path
       style="fill:none;stroke:#000000;stroke-width:1px;stroke-linecap:square"
       d="m 30.5,333 10,0"
       id="C-left-4"
       inkscape:connector-curvature="0" />
  </g>
  <g
     style="display:none"
     zpos="-300"
     inkscape:label="OKON-001"
     id="g3121"
     inkscape:groupmode="layer"
     sodipodi:insensitive="true">
    <path
       sodipodi:nodetypes="ccccc"
       inkscape:connector-curvature="0"
       d="m 369.5,17 0,50 -339,0 0,-50 z"
       style="fill:#ffffff;stroke:none;display:inline"
       id="path3123" />
    <path
       style="fill:none;stroke:#000000;stroke-width:1px;stroke-linecap:square;display:inline"
       d="m 30.5,67 10,0 319,0 10,0"
       id="path3129"
       inkscape:connector-curvature="0"
       sodipodi:nodetypes="cccc" />
  </g>
  <g
     inkscape:groupmode="layer"
     id="layer1"
     inkscape:label="XX_WWWW-001"
     style="display:none"
     zpos="-200">
    <flowRoot
       xml:space="preserve"
       id="flowRoot3429"
       style="font-size:405px;font-style:normal;font-variant:normal;font-weight:bold;font-stretch:normal;text-align:center;line-height:140.99999666%;letter-spacing:0px;word-spacing:0px;writing-mode:lr-tb;text-anchor:middle;fill:#00ff00;fill-opacity:1;stroke:none;display:inline;font-family:osifont;-inkscape-font-specification:osifont Bold"
       transform="translate(-51.9775,-126.0522)"><flowRegion
         id="flowRegion3431"><rect
           id="rect3433"
           width="370"
           height="600"
           x="65"
           y="10.35376"
           style="font-size:405px;font-style:normal;font-variant:normal;font-weight:bold;font-stretch:normal;text-align:center;line-height:140.99999666%;writing-mode:lr-tb;text-anchor:middle;fill:#00ff00;font-family:osifont;-inkscape-font-specification:osifont Bold" /></flowRegion><flowPara
         id="flowPara3435">W</flowPara></flowRoot>  </g>
  <g
     zpos="-200"
     style="display:none"
     inkscape:label="WWWW-001"
     id="g3125"
     inkscape:groupmode="layer">
    <path
       style="fill:#ffffff;stroke:#00ff00;stroke-width:1px"
       d="M 304.21635,63.54978 255.37113,280.88132 213.0518,154.51658 c -3.16406,-9.49218 -7.91017,-14.43604 -14.23828,-14.43604 -7.51465,0 -12.85401,4.54835 -15.82032,13.24951 L 140.27836,280.09031 92.22416,63.54978 c -1.97754,-8.50341 -6.32813,-12.854 -13.44727,-12.854 -10.28319,0 -15.22705,4.54835 -15.22705,13.44726 0,2.96631 0.19776,5.33936 0.59327,7.3169 l 59.32617,265.78125 c 1.77978,8.1079 6.72364,12.06298 14.83154,12.06298 6.72363,0 11.46973,-4.15284 14.23828,-12.45849 l 45.08789,-136.25244 45.28565,135.46142 c 2.76855,8.89892 8.10791,13.24951 15.82031,13.24951 7.11913,0 11.86524,-4.7461 13.84277,-14.43603 l 58.53516,-260.8374 c 0.79101,-3.55957 1.18652,-6.92139 1.18652,-10.28321 0,-8.1079 -4.7461,-12.26074 -14.23828,-12.26074 -7.31689,0 -11.86524,4.15284 -13.84277,12.06299"
       id="path3136"
       inkscape:connector-curvature="0" />
  </g>
  <g
     inkscape:groupmode="layer"
     id="layer2"
     inkscape:label="XX_WWWW-002"
     style="display:none"
     zpos="-200">
    <flowRoot
       transform="translate(-43.7541,-107.7518)"
       style="font-size:405px;font-style:normal;font-variant:normal;font-weight:bold;font-stretch:normal;text-align:center;line-height:140.99999666%;letter-spacing:0px;word-spacing:0px;writing-mode:lr-tb;text-anchor:middle;fill:#00ff00;fill-opacity:1;stroke:none;display:inline;font-family:OCRA;-inkscape-font-specification:OCRA Bold"
       id="flowRoot3484"
       xml:space="preserve"><flowRegion
         id="flowRegion3486"><rect
           style="font-size:405px;font-style:normal;font-variant:normal;font-weight:bold;font-stretch:normal;text-align:center;line-height:140.99999666%;writing-mode:lr-tb;text-anchor:middle;fill:#00ff00;font-family:OCRA;-inkscape-font-specification:OCRA Bold"
           y="10.35376"
           x="65"
           height="600"
           width="370"
           id="rect3488" /></flowRegion><flowPara
         id="flowPara3490">W</flowPara></flowRoot>  </g>
  <g
     zpos="-200"
     style="display:none"
     inkscape:label="WWWW-002"
     id="g3141"
     inkscape:groupmode="layer">
    <path
       style="fill:#ffffff;stroke:#00ff00;stroke-width:1px"
       d="m 120.21504,50.55497 c -4.05,0.81 -6.885,2.025 -9.72,5.265 -2.835,2.83499 -3.645,4.455 -4.86,7.29 -1.62,4.04999 -1.215,-4.45488 -1.215,123.525 l 0,116.235 10.53,18.225 c 5.66999,9.71999 10.935,18.63 11.34,19.44 1.62,2.02499 5.265,5.265 6.885,6.48 1.62,1.215 4.455,2.025 6.885,2.43 1.215,0 7.69502,0.405 23.085,0 21.05998,0 21.06,0 23.085,-0.405 5.265,-1.62 8.91,-4.86001 12.15,-10.125 0.81,-1.62 1.62,-2.835 1.62,-2.835 0,0 0.81,1.215 2.025,2.835 2.835,5.26499 6.48001,8.505 12.15,10.125 1.62,0.405 1.62002,0.405 23.085,0.405 15.38999,0.405 21.465,0 22.68,0 2.43,-0.405 5.265,-1.215 7.29,-2.43 1.62,-1.215 5.265,-4.45501 6.075,-6.075 0.81,-0.81 6.07501,-9.72001 11.745,-19.845 l 10.53,-18.225 0,-118.26 c 0,-113.39989 0,-118.665 -0.405,-119.88 -1.62,-5.67 -5.265,-10.12501 -10.125,-12.555 -5.26499,-2.43 -10.125,-2.835 -15.39,-0.81 -2.43,0.81 -4.455,2.025 -6.885,4.455 -2.43,2.42999 -3.645,4.05 -4.455,6.885 -1.62,3.64499 -1.215,-4.04988 -1.215,117.45 l 0,112.185 -5.67,9.315 -5.265,9.315 -8.1,0 -7.695,0 -5.67,-9.315 -5.265,-9.315 0,-63.99 c -0.405,-72.49493 0,-65.20501 -2.025,-69.66 -2.025,-4.05 -4.86,-6.88501 -8.91,-8.91 -3.24,-1.62 -4.86,-1.62 -8.505,-1.62 -2.43,0 -3.645,0 -5.265,0.405 -5.26499,1.61999 -9.72,5.265 -12.15,10.125 -2.025,4.45499 -2.025,-2.83493 -2.025,69.66 l 0,64.395 -5.265,8.91 -5.265,9.315 -8.1,0 -8.1,-0.405 -5.265,-8.91 -5.265,-9.315 0,-112.995 c 0,-108.1349 0,-113.4 -0.405,-114.615 -1.215,-4.05 -4.05,-8.10001 -6.885,-10.125 -1.62,-1.62 -5.265,-3.24 -7.29,-4.05 -2.025,-0.405 -6.48,-0.405 -8.505,0"
       id="path3152"
       inkscape:connector-curvature="0" />
  </g>
  <g
     inkscape:groupmode="layer"
     id="layer3"
     inkscape:label="XX_WWWW-003"
     style="display:none"
     zpos="-200">
    <flowRoot
       xml:space="preserve"
       id="flowRoot3498"
       style="font-size:405px;font-style:normal;font-variant:normal;font-weight:bold;font-stretch:normal;text-align:center;line-height:140.99999666%;letter-spacing:0px;word-spacing:0px;writing-mode:lr-tb;text-anchor:middle;fill:#00ff00;fill-opacity:1;stroke:none;display:inline;font-family:MgOpen Modata;-inkscape-font-specification:MgOpen Modata Bold"
       transform="translate(-20.624688,-108.0621)"><flowRegion
         id="flowRegion3500"><rect
           id="rect3502"
           width="450"
           height="600"
           x="8.8190002"
           y="10.35376"
           style="font-size:405px;font-style:normal;font-variant:normal;font-weight:bold;font-stretch:normal;text-align:center;line-height:140.99999666%;writing-mode:lr-tb;text-anchor:middle;fill:#00ff00;font-family:MgOpen Modata;-inkscape-font-specification:MgOpen Modata Bold" /></flowRegion><flowPara
         id="flowPara3504">W</flowPara></flowRoot>  </g>
  <g
     zpos="-200"
     style="display:none"
     inkscape:label="WWWW-003"
     id="g3157"
     inkscape:groupmode="layer">
    <path
       style="fill:#ffffff;stroke:#00ff00;stroke-width:1px"
       d="m 5.960703,95.81495 c -0.540001,-2.42973 -0.81,-4.85973 -0.81,-7.29 0,-8.63972 3.509996,-16.06471 10.53,-22.275 7.289982,-6.2097 15.524974,-9.3147 24.705,-9.315 18.359946,3e-4 30.104934,11.07029 35.235,33.21 l 36.044997,155.115 46.17,-138.51 c 11.06984,-32.66971 25.24482,-49.0047 42.525,-49.005 18.08979,3e-4 32.66977,17.41529 43.74,52.245 l 42.525,135.27 36.045,-155.115 c 4.85968,-21.86971 17.41467,-32.8047 37.665,-32.805 8.90964,3e-4 16.60463,2.8353 23.085,8.505 6.47962,5.40029 9.71961,12.69028 9.72,21.87 -3.9e-4,2.97027 -0.40539,5.94027 -1.215,8.91 l -55.08,226.8 c -2.97033,11.07003 -8.64032,19.71002 -17.01,25.92 -8.10031,5.94001 -17.2803,8.91 -27.54,8.91 -21.33027,0 -35.23525,-9.44999 -41.715,-28.35 l -50.22,-146.61 -45.765,140.13 c -3.78015,11.34003 -9.85514,20.11502 -18.225,26.325 -8.10012,5.94001 -17.14511,8.91 -27.135,8.91 -9.990088,0 -18.765078,-2.96999 -26.324998,-8.91 -8.640068,-6.47998 -14.310063,-15.25497 -17.009999,-26.325 l -59.94,-227.61"
       id="path3168"
       inkscape:connector-curvature="0"
       clip-path="url(#clipPath3266)" />
  </g>
  <g
     inkscape:groupmode="layer"
     id="layer4"
     inkscape:label="WWWW-004"
     style="display:none"
     zpos="-200">
    <path
       style="fill:#ffffff;stroke:#00ff00;stroke-width:1px"
       d="m 277.71951,263.6768 1.18652,0 42.31934,-207.6416 50.625,0 -68.42285,287.92969 -43.70362,0 -57.54638,-204.87305 -1.18653,0 -57.74414,204.87305 -43.90137,0 -68.225093,-287.92969 50.427243,0 42.71485,207.44385 1.18652,0 54.77783,-207.44385 42.31934,0 55.17334,207.6416"
       id="path3289"
       inkscape:connector-curvature="0"
       clip-path="url(#clipPath3299)" />
  </g>
  <g
     inkscape:groupmode="layer"
     id="layer5"
     inkscape:label="XX_WWWW-005"
     style="display:none"
     zpos="-200">
    <flowRoot
       xml:space="preserve"
       id="flowRoot3526"
       style="font-size:420px;font-style:normal;font-variant:normal;font-weight:600;font-stretch:normal;text-align:center;line-height:140.99999666%;letter-spacing:0px;word-spacing:0px;writing-mode:lr-tb;text-anchor:middle;fill:#00ff00;fill-opacity:1;stroke:none;display:inline;font-family:Autobahn;-inkscape-font-specification:Autobahn Semi-Bold"
       transform="translate(-49.8102,-119.7037)"><flowRegion
         id="flowRegion3528"><rect
           id="rect3530"
           width="370"
           height="600"
           x="65"
           y="10.35376"
           style="font-size:420px;font-style:normal;font-variant:normal;font-weight:600;font-stretch:normal;text-align:center;line-height:140.99999666%;writing-mode:lr-tb;text-anchor:middle;fill:#00ff00;font-family:Autobahn;-inkscape-font-specification:Autobahn Semi-Bold" /></flowRegion><flowPara
         id="flowPara3532">W</flowPara></flowRoot>  </g>
  <g
     zpos="-200"
     style="display:none"
     inkscape:label="WWWW-005"
     id="g3303"
     inkscape:groupmode="layer">
    <path
       style="fill:#ffffff;stroke:#00ff00;stroke-width:1px"
       d="m 338.79182,184.07004 0,-91.56 -62.58,-34.44 -43.26,45.36 0,-38.64 -65.1,0 0,255.78 -42.42,-23.1 0,-232.68 -64.68,0 0,268.8 -0.42,0.42 58.38,32.34 49.14,-34.44 84.84,37.8 85.68,-58.8 c 0,-20.99998 0,-42.42002 0,-63.42 0,-20.99998 0.42,-42.00002 0.42,-63.42"
       id="path3319"
       inkscape:connector-curvature="0" />
    <path
       style="fill:#ffffff;stroke:#00ff00;stroke-width:1px"
       d="m 232.95182,297.89004 0,-172.62 17.64,-17.22 23.1,18.06 0,189.84 -40.74,-18.06"
       id="path3314"
       inkscape:connector-curvature="0" />
  </g>
  <g
     inkscape:groupmode="layer"
     id="layer6"
     inkscape:label="XX_WWWW-006"
     style="display:none"
     zpos="-200">
    <flowRoot
       transform="translate(-51.3316,-84.9187)"
       style="font-size:360px;font-style:normal;font-variant:normal;font-weight:bold;font-stretch:normal;text-align:center;line-height:140.99999666%;letter-spacing:0px;word-spacing:0px;writing-mode:lr-tb;text-anchor:middle;fill:#00ff00;fill-opacity:1;stroke:none;display:inline;font-family:Dancing Script;-inkscape-font-specification:Dancing Script Bold"
       id="flowRoot3540"
       xml:space="preserve"><flowRegion
         id="flowRegion3542"><rect
           style="font-size:360px;font-style:normal;font-variant:normal;font-weight:bold;font-stretch:normal;text-align:center;line-height:140.99999666%;writing-mode:lr-tb;text-anchor:middle;fill:#00ff00;font-family:Dancing Script;-inkscape-font-specification:Dancing Script Bold"
           y="10.35376"
           x="65"
           height="600"
           width="370"
           id="rect3544" /></flowRegion><flowPara
         id="flowPara3546">W</flowPara></flowRoot>  </g>
  <g
     zpos="-200"
     style="display:inline"
     inkscape:label="WWWW-006"
     id="g3321"
     inkscape:groupmode="layer">
    <path
       style="fill:#ffffff;stroke:#00ff00;stroke-width:1px"
       d="m 39.3459,120.18504 c 0,8.63999 2.520006,15.84001 8.28,20.88 5.39999,5.4 13.68001,7.92 25.2,7.92 -3.6,-6.47999 -5.4,-15.12001 -5.4,-26.28 0,-13.67999 2.88001,-25.92001 9,-36.72 6.11999,-10.79999 14.76001,-16.2 25.56,-16.2 7.91999,0 13.68,3.96001 16.92,11.16 3.24,7.55999 5.04,19.08002 5.04,34.2 0,7.19999 -0.36,14.04001 -0.72,20.88 -0.72,7.19999 -1.44,14.04001 -2.52,20.88 l -3.24,18 c -1.08,5.04 -2.52,11.52001 -4.68,19.08 l -4.68,17.28 c -1.44,3.96 -3.24,10.08001 -6.12,18.72 -2.88,8.99999 -4.68,14.76 -5.4,17.64 -10.79999,34.55997 -15.84,56.52001 -15.84,66.24 -0.36,6.83999 1.08,12.60001 3.96,17.28 2.52,4.68 5.76,7.92 10.08,9.72 4.32,2.16 7.92,3.6 11.16,3.96 3.24,0.72 6.48,1.08 9.72,1.08 l 0.36,0 c 20.51998,0 44.28003,-16.20003 70.56,-49.32 -2.52,7.19999 -3.6,13.32001 -3.6,18.36 0,9.35999 2.88001,16.92001 9,22.68 6.11999,5.76 14.04001,8.28 23.4,8.28 15.83998,0 33.84002,-8.64002 54,-26.64 20.15998,-17.63998 38.16002,-38.88002 54,-63.72 15.47998,-24.47997 29.16001,-50.76003 39.96,-78.48 10.79999,-27.35997 16.56,-50.40002 16.56,-69.48 0,-13.67999 -2.88001,-24.48001 -8.28,-32.4 -5.39999,-7.55999 -11.16001,-11.16 -17.64,-11.52 l -0.36,0 c -9.71999,0 -18.72001,6.84001 -26.64,20.16 16.19998,5.76 24.12,19.08002 24.48,39.96 0,17.99998 -4.68001,38.88003 -14.04,63.36 -9.35999,24.47998 -20.52001,46.80002 -33.48,67.68 -12.95999,20.87998 -27.00001,38.52002 -41.4,52.92 -14.39999,14.75999 -26.64001,21.96 -36.36,21.96 -3.6,0 -6.12,-0.72 -7.56,-2.88 -1.44,-2.16 -1.8,-5.76 -1.8,-10.8 0,-17.27998 8.64002,-46.08004 26.28,-87.12 8.63999,-20.51998 13.32,-33.12 13.32,-37.8 0,-5.03999 -2.88001,-9.72 -8.28,-14.76 -5.39999,-4.67999 -12.24001,-7.2 -20.52,-7.2 -2.52,16.55998 -9.72001,37.44003 -21.24,62.64 -11.87999,25.19998 -25.92002,47.52002 -41.76,67.68 -16.19998,20.15998 -30.24001,30.24 -42.12,30.24 -3.24,0 -5.4,-0.72 -6.48,-2.52 -1.08,-1.8 -1.44,-5.04 -1.44,-9.72 0,-6.47999 0.72,-14.04001 2.52,-22.32 1.44,-7.91999 3.24,-14.76 5.04,-20.52 1.44,-5.75999 3.96,-12.96001 7.2,-21.6 2.88,-8.63999 5.04,-14.76 6.12,-18.36 15.47998,-49.31995 23.4,-86.04002 23.4,-110.16 0,-21.95998 -4.32001,-38.88001 -12.96,-51.12 -8.63999,-11.87999 -21.24002,-17.64 -37.08,-18 -18.71998,0 -34.92001,7.20001 -48.6,20.88 -14.039986,14.03999 -20.88,28.80002 -20.88,43.92"
       id="path3332"
       inkscape:connector-curvature="0" />
  </g>
  <g
     inkscape:groupmode="layer"
     id="layer7"
     inkscape:label="XX_WWWW-007"
     style="display:none"
     zpos="-200">
    <flowRoot
       xml:space="preserve"
       id="flowRoot3554"
       style="font-size:370px;font-style:normal;font-variant:normal;font-weight:normal;font-stretch:normal;text-align:center;line-height:140.99999666%;letter-spacing:0px;word-spacing:0px;writing-mode:lr-tb;text-anchor:middle;fill:#00ff00;fill-opacity:1;stroke:none;display:inline;font-family:Standard Graf;-inkscape-font-specification:Standard Graf"
       transform="translate(-54.6135,-77.8157)"><flowRegion
         id="flowRegion3556"><rect
           id="rect3558"
           width="420"
           height="600"
           x="47.613499"
           y="10.35376"
           style="font-size:370px;font-style:normal;font-variant:normal;font-weight:normal;font-stretch:normal;text-align:center;line-height:140.99999666%;writing-mode:lr-tb;text-anchor:middle;fill:#00ff00;font-family:Standard Graf;-inkscape-font-specification:Standard Graf" /></flowRegion><flowPara
         id="flowPara3560">W</flowPara></flowRoot>  </g>
  <g
     zpos="-200"
     style="display:none"
     inkscape:label="WWWW-007"
     id="g3337"
     inkscape:groupmode="layer">
    <path
       style="fill:#ffffff;stroke:#00ff00;stroke-width:1px"
       d="m 41.859156,104.33702 0,200.71778 c 0,4.15527 1.62598,7.22656 4.877934,9.21386 l 57.8125,37.39747 c 1.62597,1.26464 3.43262,1.80664 5.78125,1.80664 1.80663,0 3.61328,-0.36133 5.41992,-1.44532 l 79.85351,-44.62402 c 0.36133,0.90332 0.72266,1.98731 1.44532,3.07129 0.54199,1.26465 1.26465,2.16797 2.16796,2.70996 l 59.25782,38.48145 c 0.90332,0.72265 1.80664,1.08398 2.70996,1.44531 0.90332,0.36133 1.9873,0.36133 3.07129,0.36133 1.80664,0 3.43262,-0.36133 5.23925,-1.44532 l 106.23047,-58.17382 c 3.79395,-2.16797 5.60059,-5.41993 5.78125,-9.75586 l 0,-174.16016 c 0,-3.79394 -1.80664,-6.86524 -5.05859,-9.21387 l -58.35449,-38.12011 0,0.18066 c -2.16797,-1.08398 -4.15528,-1.62598 -5.96192,-1.80664 -1.08398,0 -1.9873,0.18066 -2.70996,0.54199 -0.90332,0.36133 -1.80664,0.54199 -2.70996,0.90332 l 0.18067,0 -72.80762,40.46875 -61.96777,-40.28808 0,0.18066 c -2.16797,-1.08398 -4.15528,-1.62598 -5.96192,-1.80664 -1.08398,0 -1.9873,0.18066 -2.70996,0.54199 -0.90332,0.36133 -1.80664,0.54199 -2.70996,0.90332 l 0.18066,0 -80.21484,44.2627 c 0,-5.60058 0,-10.29786 0,-13.91114 0,-3.61327 -0.18066,-6.5039 -0.54199,-8.67187 -0.54199,-2.16797 -1.26465,-3.97461 -2.34864,-5.41992 -1.08398,-1.44531 -2.89062,-2.70997 -5.05859,-4.15528 -2.34863,-1.44531 -5.41992,-3.07129 -9.0332,-4.87793 -3.79394,-1.80663 -8.49122,-4.15527 -13.91113,-7.40722 l 0.18066,0 c -1.08398,-0.36133 -1.98731,-0.72266 -2.89063,-1.08399 -0.90332,-0.36132 -1.806637,-0.54199 -2.709957,-0.54199 -1.625975,0 -3.613283,0.72266 -5.78125,1.80664 -2.34863,1.08398 -4.697268,2.5293 -7.045898,3.97461 -2.348631,1.62598 -4.516604,3.25196 -6.503907,4.69727 -2.167966,1.62597 -3.613282,2.70996 -4.697265,3.43261 -1.625975,1.08399 -2.890626,2.34864 -3.793946,3.97461 -0.903319,1.62598 -1.264648,3.43262 -1.264648,5.23926 0,2.34863 0.361329,4.15528 1.445313,5.60059 1.083983,1.44531 2.529298,2.70996 4.516601,3.79394 l 20.595703,11.20117"
       id="path3355"
       inkscape:connector-curvature="0" />
    <path
       style="fill:#ffffff;stroke:#00ff00;stroke-width:1px"
       d="m 80.70193,131.07531 68.29102,-37.57813 c 6.68456,4.5166 13.36914,8.85254 20.41503,13.18848 6.86523,4.33593 13.54982,8.85254 20.05372,13.5498 1.9873,1.80664 3.61328,3.61328 4.69726,5.41992 1.08398,1.80664 1.44531,4.15528 1.62598,6.86524 l -0.18067,149.77051 -67.74902,38.48144 c -6.86523,-4.33593 -13.73048,-8.49121 -20.5957,-12.82715 -6.86523,-4.33593 -13.36915,-8.85254 -19.87305,-13.5498 -2.16797,-1.44531 -3.79395,-3.25196 -4.87793,-5.23926 -1.26465,-1.9873 -1.80664,-4.33594 -1.80664,-7.0459 l 0,-151.03515"
       id="path3353"
       inkscape:connector-curvature="0" />
    <path
       style="fill:#ffffff;stroke:#00ff00;stroke-width:1px"
       d="m 342.30349,132.52062 0,153.74511 -61.06445,34.50684 c -6.86523,-4.33593 -13.73048,-8.67188 -20.41504,-13.18848 l -20.23438,-13.5498 0.18067,0.18066 c -2.34863,-1.26464 -3.97461,-3.07129 -5.05859,-5.23925 -1.08399,-1.98731 -1.62598,-4.51661 -1.62598,-7.22657 l 0,-154.46777 60.88379,-33.78418 c 6.5039,4.69726 13.18848,9.21387 20.05371,13.5498 6.86523,4.33594 13.54981,8.85255 20.5957,13.18848 4.33594,3.07129 6.50391,7.22657 6.68457,12.28516"
       id="path3348"
       inkscape:connector-curvature="0" />
  </g>
  <g
     inkscape:groupmode="layer"
     id="layer8"
     inkscape:label="XX_WWWW-008"
     style="display:none"
     zpos="-200">
    <path
       style="fill:#ffffff;stroke:#00ff00;stroke-width:1px"
       d="m 395.71462,61.4915 c -8.20311,0.78125 -18.35938,1.17188 -30.46875,1.17188 -15.23435,0 -31.83595,-0.39063 -49.80468,-1.17188 l 0,8.00782 c 11.32811,0.39062 19.92188,3.125 25.78125,8.20312 5.66405,5.27343 8.59375,13.67189 8.59375,25.19531 0,11.71874 -3.12501,27.34377 -8.98438,46.48438 L 302.74587,270.47588 247.86306,103.09307 c -2.73437,-8.00781 -4.10156,-14.25782 -4.10156,-18.75 0,-5.66406 1.95313,-9.37501 6.25,-11.32813 4.10156,-1.95312 11.13282,-3.125 21.09375,-3.51562 l 0,-8.00782 c -12.6953,0.78125 -31.83596,1.17188 -57.61719,1.17188 -23.43747,0 -42.57814,-0.39063 -57.03125,-1.17188 l 0,8.00782 c 4.6875,0.39062 8.78907,2.14844 12.30469,5.27343 3.51562,3.125 6.64063,8.59376 9.375,16.21094 l 20.70312,62.30469 -40.82031,118.94531 -58.00781,-169.14062 c -2.53906,-7.03125 -3.71094,-12.89063 -3.71094,-17.96875 0,-8.98437 4.68751,-14.25782 14.0625,-15.625 l 0,-8.00782 C 99.8162,62.27275 83.40992,62.66338 61.14431,62.66338 37.120899,62.66338 17.198984,62.27275 1.574,61.4915 l 0,8.00782 c 4.492183,0.39062 8.984379,2.53906 13.476562,6.44531 4.492184,3.90624 8.398441,10.35157 11.71875,19.14062 l 89.648438,250.39063 c 5.66406,-0.19531 10.15625,-0.39063 13.67187,-0.39063 3.51563,0 8.20314,0.19532 14.0625,0.39063 l 59.375,-177.92969 58.98438,177.92969 c 5.66406,-0.19531 10.15625,-0.39063 13.67187,-0.39063 3.51563,0 8.20314,0.19532 14.0625,0.39063 l 70.50782,-228.51563 c 4.10156,-13.86717 9.17969,-24.60938 15.42968,-32.22656 6.25,-7.42187 12.69532,-12.5 19.53125,-15.23437 l 0,-8.00782"
       id="path3229"
       inkscape:connector-curvature="0"
       clip-path="url(#clipPath3277)" />
  </g>
  <g
     inkscape:groupmode="layer"
     id="layer9"
     inkscape:label="UKON-001"
     zpos="-100"
     style="display:inline"
     sodipodi:insensitive="true">
    <path
       id="path3260"
       style="fill:#ffffff;stroke:none;display:inline"
       d="m 30.5,393 0,-60 339,0 0,60 z"
       inkscape:connector-curvature="0"
       sodipodi:nodetypes="ccccc" />
    <path
       sodipodi:nodetypes="cccc"
       inkscape:connector-curvature="0"
       id="path3576"
       d="m 369.5,333 -10,0 -319,0 -10,0"
       style="fill:none;stroke:#000000;stroke-width:1px;stroke-linecap:square;display:inline" />
  </g>
  <g
     inkscape:groupmode="layer"
     id="g3131"
     inkscape:label="OKON-002"
     zpos="-40"
     style="display:inline">
    <path
       id="path3133"
       style="fill:#ffffff;stroke:none;display:inline"
       d="m 369.5,27 0,40 -339,0 0,-40 z"
       inkscape:connector-curvature="0"
       sodipodi:nodetypes="ccccc" />
    <path
       sodipodi:nodetypes="cccc"
       inkscape:connector-curvature="0"
       id="path3135"
       d="m 30.5,67 10,0 319,0 10,0"
       style="fill:none;stroke:#000000;stroke-width:1px;stroke-linecap:square;display:inline" />
  </g>
</svg>
