<?xml version="1.0" encoding="UTF-8" standalone="no"?>
<!-- Created with Inkscape (http://www.inkscape.org/) -->

<svg
   xmlns:dc="http://purl.org/dc/elements/1.1/"
   xmlns:cc="http://creativecommons.org/ns#"
   xmlns:rdf="http://www.w3.org/1999/02/22-rdf-syntax-ns#"
   xmlns:svg="http://www.w3.org/2000/svg"
   xmlns="http://www.w3.org/2000/svg"
   xmlns:sodipodi="http://sodipodi.sourceforge.net/DTD/sodipodi-0.dtd"
   xmlns:inkscape="http://www.inkscape.org/namespaces/inkscape"
   style="display:inline"
   sodipodi:docname="161212_YYYY_00_UW_00_UW_.svg"
   inkscape:version="0.48.3.1 r9886"
   version="1.1"
   id="svg2902"
   height="400"
   width="400">
  <sodipodi:namedview
     id="base"
     pagecolor="#f0f0f0"
     bordercolor="#666666"
     borderopacity="1.0"
     inkscape:pageopacity="1"
     inkscape:pageshadow="2"
     inkscape:zoom="0.68627883"
     inkscape:cx="136.76161"
     inkscape:cy="181.52333"
     inkscape:document-units="px"
     inkscape:current-layer="g3221"
     showgrid="false"
     inkscape:window-width="1018"
     inkscape:window-height="709"
     inkscape:window-x="0"
     inkscape:window-y="1"
     inkscape:window-maximized="0"
     showguides="true"
     inkscape:guide-bbox="true"
     inkscape:snap-bbox="true"
     inkscape:snap-global="false" />
  <defs
     id="defs2904">
    <clipPath
       clipPathUnits="userSpaceOnUse"
       id="clipPath5174">
      <path
         id="path5176"
         style="opacity:0.5;fill:#00ff00;stroke:#00ff00;stroke-width:1px;stroke-linecap:square;display:inline"
         d="m 436.26971,600.11436 -232.09481,134 -169.500003,-293.58262 232.094813,-134 z"
         inkscape:connector-curvature="0"
         sodipodi:nodetypes="ccccc" />
    </clipPath>
    <clipPath
       clipPathUnits="userSpaceOnUse"
       id="clipPath5174-5">
      <path
         id="path5176-9"
         style="opacity:0.5;fill:#00ff00;stroke:#00ff00;stroke-width:1px;stroke-linecap:square;display:inline"
         d="m 436.26971,600.11436 -232.09481,134 -169.500003,-293.58262 232.094813,-134 z"
         inkscape:connector-curvature="0"
         sodipodi:nodetypes="ccccc" />
    </clipPath>
    <clipPath
       clipPathUnits="userSpaceOnUse"
       id="clipPath3238">
      <path
         sodipodi:nodetypes="ccccc"
         inkscape:connector-curvature="0"
         d="m 461.26971,643.41563 -232.09481,134 -169.500002,-293.58262 232.094812,-134 z"
         style="opacity:0.5;fill:#00ff00;stroke:#00ff00;stroke-width:1px;stroke-linecap:square;display:inline"
         id="path3240" />
    </clipPath>
  </defs>
  <metadata
     id="metadata2907">
    <rdf:RDF>
      <cc:Work
         rdf:about="">
        <dc:format>image/svg+xml</dc:format>
        <dc:type
           rdf:resource="http://purl.org/dc/dcmitype/StillImage" />
        <dc:title />
      </cc:Work>
    </rdf:RDF>
  </metadata>
  <g
     inkscape:groupmode="layer"
     id="bg"
     inkscape:label="XX_BG"
     sodipodi:insensitive="true">
    <path
       style="fill:#f6ffd5"
       d="M 400,0 400,400 0,400 0,0 z"
       id="bgrect"
       inkscape:connector-curvature="0" />
  </g>
  <g
     inkscape:label="XX_Referenz"
     inkscape:groupmode="layer"
     id="XX_referenz"
     style="display:inline"
     sodipodi:insensitive="true">
    <path
       id="innerframe"
       style="fill:none;stroke:#ff0000;stroke-width:1"
       d="m 40.5,40.5 319,0 0,319 -319,0 0,-319 z"
       inkscape:label="#innerframe"
       sodipodi:insensitive="true"
       inkscape:connector-curvature="0" />
    <path
       id="outerframe"
       style="fill:none;stroke:#ff0000;stroke-width:1"
       d="m 30.5,30.5 339,0 0,339 -339,0 0,-339 z"
       inkscape:label="#outerframe"
       sodipodi:nodetypes="ccccc"
       sodipodi:insensitive="true"
       inkscape:connector-curvature="0" />
    <path
       style="opacity:0.5;fill:none;stroke:#ffc200;stroke-width:1px;stroke-linecap:square"
       d="m 189,30.5 0,10"
       id="ref-S-top-1"
       sodipodi:insensitive="true"
       inkscape:connector-curvature="0" />
    <path
       style="opacity:0.5;fill:none;stroke:#ffc200;stroke-width:1px;stroke-linecap:square"
       d="m 191,30.5 0,10"
       id="ref-S-top-2"
       sodipodi:insensitive="true"
       inkscape:connector-curvature="0" />
    <path
       style="opacity:0.5;fill:none;stroke:#ffc200;stroke-width:1px;stroke-linecap:square"
       d="m 209,30.5 0,10"
       id="ref-S-top-3"
       sodipodi:insensitive="true"
       inkscape:connector-curvature="0" />
    <path
       style="opacity:0.5;fill:none;stroke:#ffc200;stroke-width:1px;stroke-linecap:square"
       d="m 211,30.5 0,10"
       id="ref-S-top-4"
       sodipodi:insensitive="true"
       inkscape:connector-curvature="0" />
    <path
       style="opacity:0.5;fill:none;stroke:#00ff00;stroke-width:1px;stroke-linecap:square"
       d="m 199,30.5 0,10"
       id="ref-I-top-1"
       sodipodi:insensitive="true"
       inkscape:connector-curvature="0" />
    <path
       style="opacity:0.5;fill:none;stroke:#00ff00;stroke-width:1px;stroke-linecap:square"
       d="m 201,30.5 0,10"
       id="ref-I-top-2"
       sodipodi:insensitive="true"
       inkscape:connector-curvature="0" />
    <path
       style="opacity:0.5;fill:none;stroke:#00ffcc;stroke-width:1px;stroke-linecap:square"
       d="m 66,30.5 0,10"
       id="ref-C-top-1"
       sodipodi:insensitive="true"
       inkscape:connector-curvature="0" />
    <path
       style="opacity:0.5;fill:none;stroke:#00ffcc;stroke-width:1px;stroke-linecap:square"
       d="m 68,30.5 0,10"
       id="ref-C-top-2"
       sodipodi:insensitive="true"
       inkscape:connector-curvature="0" />
    <path
       style="opacity:0.5;fill:none;stroke:#00ffcc;stroke-width:1px;stroke-linecap:square"
       d="m 92,30.5 0,10"
       id="ref-C-top-3"
       sodipodi:insensitive="true"
       inkscape:connector-curvature="0" />
    <path
       style="opacity:0.5;fill:none;stroke:#00ffcc;stroke-width:1px;stroke-linecap:square"
       d="m 94,30.5 0,10"
       id="ref-C-top-4"
       sodipodi:insensitive="true"
       inkscape:connector-curvature="0" />
    <path
       style="opacity:0.5;fill:none;stroke:#00ffcc;stroke-width:1px;stroke-linecap:square"
       d="m 306,30.5 0,10"
       id="ref-C-top-5"
       sodipodi:insensitive="true"
       inkscape:connector-curvature="0" />
    <path
       style="opacity:0.5;fill:none;stroke:#00ffcc;stroke-width:1px;stroke-linecap:square"
       d="m 308,30.5 0,10"
       id="ref-C-top-6"
       sodipodi:insensitive="true"
       inkscape:connector-curvature="0" />
    <path
       style="opacity:0.5;fill:none;stroke:#00ffcc;stroke-width:1px;stroke-linecap:square"
       d="m 332,30.5 0,10"
       id="ref-C-top-7"
       sodipodi:insensitive="true"
       inkscape:connector-curvature="0" />
    <path
       style="opacity:0.5;fill:none;stroke:#00ffcc;stroke-width:1px;stroke-linecap:square"
       d="m 334,30.5 0,10"
       id="ref-C-top-8"
       sodipodi:insensitive="true"
       inkscape:connector-curvature="0" />
    <path
       style="opacity:0.5;fill:none;stroke:#ffc200;stroke-width:1px;stroke-linecap:square"
       d="m 369.5,189 -10,0"
       id="ref-S-right-1"
       sodipodi:insensitive="true"
       inkscape:connector-curvature="0" />
    <path
       style="opacity:0.5;fill:none;stroke:#ffc200;stroke-width:1px;stroke-linecap:square"
       d="m 369.5,191 -10,0"
       id="ref-S-right-2"
       sodipodi:insensitive="true"
       inkscape:connector-curvature="0" />
    <path
       style="opacity:0.5;fill:none;stroke:#ffc200;stroke-width:1px;stroke-linecap:square"
       d="m 369.5,209 -10,0"
       id="ref-S-right-3"
       sodipodi:insensitive="true"
       inkscape:connector-curvature="0" />
    <path
       style="opacity:0.5;fill:none;stroke:#ffc200;stroke-width:1px;stroke-linecap:square"
       d="m 369.5,211 -10,0"
       id="ref-S-right-4"
       sodipodi:insensitive="true"
       inkscape:connector-curvature="0" />
    <path
       style="opacity:0.5;fill:none;stroke:#00ff00;stroke-width:1px;stroke-linecap:square"
       d="m 369.5,199 -10,0"
       id="ref-I-right-1"
       sodipodi:insensitive="true"
       inkscape:connector-curvature="0" />
    <path
       style="opacity:0.5;fill:none;stroke:#00ff00;stroke-width:1px;stroke-linecap:square"
       d="m 369.5,201 -10,0"
       id="ref-I-right-2"
       sodipodi:insensitive="true"
       inkscape:connector-curvature="0" />
    <path
       style="opacity:0.5;fill:none;stroke:#00ffcc;stroke-width:1px;stroke-linecap:square"
       d="m 369.5,66 -10,0"
       id="ref-C-right-1"
       sodipodi:insensitive="true"
       inkscape:connector-curvature="0" />
    <path
       style="opacity:0.5;fill:none;stroke:#00ffcc;stroke-width:1px;stroke-linecap:square"
       d="m 369.5,68 -10,0"
       id="ref-C-right-2"
       sodipodi:insensitive="true"
       inkscape:connector-curvature="0" />
    <path
       style="opacity:0.5;fill:none;stroke:#00ffcc;stroke-width:1px;stroke-linecap:square"
       d="m 369.5,92 -10,0"
       id="ref-C-right-3"
       sodipodi:insensitive="true"
       inkscape:connector-curvature="0" />
    <path
       style="opacity:0.5;fill:none;stroke:#00ffcc;stroke-width:1px;stroke-linecap:square"
       d="m 369.5,94 -10,0"
       id="ref-C-right-4"
       sodipodi:insensitive="true"
       inkscape:connector-curvature="0" />
    <path
       style="opacity:0.5;fill:none;stroke:#00ffcc;stroke-width:1px;stroke-linecap:square"
       d="m 369.5,306 -10,0"
       id="ref-C-right-5"
       sodipodi:insensitive="true"
       inkscape:connector-curvature="0" />
    <path
       style="opacity:0.5;fill:none;stroke:#00ffcc;stroke-width:1px;stroke-linecap:square"
       d="m 369.5,308 -10,0"
       id="ref-C-right-6"
       sodipodi:insensitive="true"
       inkscape:connector-curvature="0" />
    <path
       style="opacity:0.5;fill:none;stroke:#00ffcc;stroke-width:1px;stroke-linecap:square"
       d="m 369.5,332 -10,0"
       id="ref-C-right-7"
       sodipodi:insensitive="true"
       inkscape:connector-curvature="0" />
    <path
       style="opacity:0.5;fill:none;stroke:#00ffcc;stroke-width:1px;stroke-linecap:square"
       d="m 369.5,334 -10,0"
       id="ref-C-right-8"
       sodipodi:insensitive="true"
       inkscape:connector-curvature="0" />
    <path
       style="opacity:0.5;fill:none;stroke:#ffc200;stroke-width:1px;stroke-linecap:square"
       d="m 189,369.5 0,-10"
       id="ref-S-bottom-1"
       sodipodi:insensitive="true"
       inkscape:connector-curvature="0" />
    <path
       style="opacity:0.5;fill:none;stroke:#ffc200;stroke-width:1px;stroke-linecap:square"
       d="m 191,369.5 0,-10"
       id="ref-S-bottom-2"
       sodipodi:insensitive="true"
       inkscape:connector-curvature="0" />
    <path
       style="opacity:0.5;fill:none;stroke:#ffc200;stroke-width:1px;stroke-linecap:square"
       d="m 209,369.5 0,-10"
       id="ref-S-bottom-3"
       sodipodi:insensitive="true"
       inkscape:connector-curvature="0" />
    <path
       style="opacity:0.5;fill:none;stroke:#ffc200;stroke-width:1px;stroke-linecap:square"
       d="m 211,369.5 0,-10"
       id="ref-S-bottom-4"
       sodipodi:insensitive="true"
       inkscape:connector-curvature="0" />
    <path
       style="opacity:0.5;fill:none;stroke:#00ff00;stroke-width:1px;stroke-linecap:square"
       d="m 199,369.5 0,-10"
       id="ref-I-bottom-1"
       sodipodi:insensitive="true"
       inkscape:connector-curvature="0" />
    <path
       style="opacity:0.5;fill:none;stroke:#00ff00;stroke-width:1px;stroke-linecap:square"
       d="m 201,369.5 0,-10"
       id="ref-I-bottom-2"
       sodipodi:insensitive="true"
       inkscape:connector-curvature="0" />
    <path
       style="opacity:0.5;fill:none;stroke:#00ffcc;stroke-width:1px;stroke-linecap:square"
       d="m 66,369.5 0,-10"
       id="ref-C-bottom-1"
       sodipodi:insensitive="true"
       inkscape:connector-curvature="0" />
    <path
       style="opacity:0.5;fill:none;stroke:#00ffcc;stroke-width:1px;stroke-linecap:square"
       d="m 68,369.5 0,-10"
       id="ref-C-bottom-2"
       sodipodi:insensitive="true"
       inkscape:connector-curvature="0" />
    <path
       style="opacity:0.5;fill:none;stroke:#00ffcc;stroke-width:1px;stroke-linecap:square"
       d="m 92,369.5 0,-10"
       id="ref-C-bottom-3"
       sodipodi:insensitive="true"
       inkscape:connector-curvature="0" />
    <path
       style="opacity:0.5;fill:none;stroke:#00ffcc;stroke-width:1px;stroke-linecap:square"
       d="m 94,369.5 0,-10"
       id="ref-C-bottom-4"
       sodipodi:insensitive="true"
       inkscape:connector-curvature="0" />
    <path
       style="opacity:0.5;fill:none;stroke:#00ffcc;stroke-width:1px;stroke-linecap:square"
       d="m 306,369.5 0,-10"
       id="ref-C-bottom-5"
       sodipodi:insensitive="true"
       inkscape:connector-curvature="0" />
    <path
       style="opacity:0.5;fill:none;stroke:#00ffcc;stroke-width:1px;stroke-linecap:square"
       d="m 308,369.5 0,-10"
       id="ref-C-bottom-6"
       sodipodi:insensitive="true"
       inkscape:connector-curvature="0" />
    <path
       style="opacity:0.5;fill:none;stroke:#00ffcc;stroke-width:1px;stroke-linecap:square"
       d="m 332,369.5 0,-10"
       id="ref-C-bottom-7"
       sodipodi:insensitive="true"
       inkscape:connector-curvature="0" />
    <path
       style="opacity:0.5;fill:none;stroke:#00ffcc;stroke-width:1px;stroke-linecap:square"
       d="m 334,369.5 0,-10"
       id="ref-C-bottom-8"
       sodipodi:insensitive="true"
       inkscape:connector-curvature="0" />
    <path
       style="opacity:0.5;fill:none;stroke:#ffc200;stroke-width:1px;stroke-linecap:square"
       d="m 30.5,189 10,0"
       id="ref-S-left-1"
       sodipodi:insensitive="true"
       inkscape:connector-curvature="0" />
    <path
       style="opacity:0.5;fill:none;stroke:#ffc200;stroke-width:1px;stroke-linecap:square"
       d="m 30.5,191 10,0"
       id="ref-S-left-2"
       sodipodi:insensitive="true"
       inkscape:connector-curvature="0" />
    <path
       style="opacity:0.5;fill:none;stroke:#ffc200;stroke-width:1px;stroke-linecap:square"
       d="m 30.5,209 10,0"
       id="ref-S-left-3"
       sodipodi:insensitive="true"
       inkscape:connector-curvature="0" />
    <path
       style="opacity:0.5;fill:none;stroke:#ffc200;stroke-width:1px;stroke-linecap:square"
       d="m 30.5,211 10,0"
       id="ref-S-left-4"
       sodipodi:insensitive="true"
       inkscape:connector-curvature="0" />
    <path
       style="opacity:0.5;fill:none;stroke:#00ff00;stroke-width:1px;stroke-linecap:square"
       d="m 40.5,199 -10,0"
       id="ref-I-left-1"
       sodipodi:insensitive="true"
       inkscape:connector-curvature="0" />
    <path
       style="opacity:0.5;fill:none;stroke:#00ff00;stroke-width:1px;stroke-linecap:square"
       d="m 40.5,201 -10,0"
       id="ref-I-left-2"
       sodipodi:insensitive="true"
       inkscape:connector-curvature="0" />
    <path
       style="opacity:0.5;fill:none;stroke:#00ffcc;stroke-width:1px;stroke-linecap:square"
       d="m 30.5,66 10,0"
       id="ref-C-left-1"
       sodipodi:insensitive="true"
       inkscape:connector-curvature="0" />
    <path
       style="opacity:0.5;fill:none;stroke:#00ffcc;stroke-width:1px;stroke-linecap:square"
       d="m 30.5,68 10,0"
       id="ref-C-left-2"
       sodipodi:insensitive="true"
       inkscape:connector-curvature="0" />
    <path
       style="opacity:0.5;fill:none;stroke:#00ffcc;stroke-width:1px;stroke-linecap:square"
       d="m 30.5,92 10,0"
       id="ref-C-left-3"
       sodipodi:insensitive="true"
       inkscape:connector-curvature="0" />
    <path
       style="opacity:0.5;fill:none;stroke:#00ffcc;stroke-width:1px;stroke-linecap:square"
       d="m 30.5,94 10,0"
       id="ref-C-left-4"
       sodipodi:insensitive="true"
       inkscape:connector-curvature="0" />
    <path
       style="opacity:0.5;fill:none;stroke:#00ffcc;stroke-width:1px;stroke-linecap:square"
       d="m 30.5,306 10,0"
       id="ref-C-left-5"
       sodipodi:insensitive="true"
       inkscape:connector-curvature="0" />
    <path
       style="opacity:0.5;fill:none;stroke:#00ffcc;stroke-width:1px;stroke-linecap:square"
       d="m 30.5,308 10,0"
       id="ref-C-left-6"
       sodipodi:insensitive="true"
       inkscape:connector-curvature="0" />
    <path
       style="opacity:0.5;fill:none;stroke:#00ffcc;stroke-width:1px;stroke-linecap:square"
       d="m 30.5,332 10,0"
       id="ref-C-left-7"
       sodipodi:insensitive="true"
       inkscape:connector-curvature="0" />
    <path
       style="opacity:0.5;fill:none;stroke:#00ffcc;stroke-width:1px;stroke-linecap:square"
       d="m 30.5,334 10,0"
       id="ref-C-left-8"
       sodipodi:insensitive="true"
       inkscape:connector-curvature="0" />
    <path
       style="fill:none;stroke:#000000;stroke-width:1px;stroke-linecap:square"
       d="m 190,30.5 0,10"
       id="S-top-1"
       inkscape:connector-curvature="0" />
    <path
       style="fill:none;stroke:#000000;stroke-width:1px;stroke-linecap:square"
       d="m 210,30.5 0,10"
       id="S-top-2"
       inkscape:connector-curvature="0" />
    <path
       style="fill:none;stroke:#000000;stroke-width:1px;stroke-linecap:square"
       d="m 369.5,190 -10,0"
       id="S-right-1"
       inkscape:connector-curvature="0" />
    <path
       style="fill:none;stroke:#000000;stroke-width:1px;stroke-linecap:square"
       d="m 369.5,210 -10,0"
       id="S-right-2"
       inkscape:connector-curvature="0" />
    <path
       style="fill:none;stroke:#000000;stroke-width:1px;stroke-linecap:square"
       d="m 190,369.5 0,-10"
       id="S-bottom-1"
       inkscape:connector-curvature="0" />
    <path
       style="fill:none;stroke:#000000;stroke-width:1px;stroke-linecap:square"
       d="m 210,369.5 0,-10"
       id="S-bottom-2"
       inkscape:connector-curvature="0" />
    <path
       style="fill:none;stroke:#000000;stroke-width:1px;stroke-linecap:square"
       d="m 30.5,190 10,0"
       id="S-left-1"
       inkscape:connector-curvature="0" />
    <path
       style="fill:none;stroke:#000000;stroke-width:1px;stroke-linecap:square"
       d="m 30.5,210 10,0"
       id="S-left-2"
       inkscape:connector-curvature="0" />
    <path
       style="fill:none;stroke:#000000;stroke-width:1px;stroke-linecap:square"
       d="m 200,30.5 0,10"
       id="I-top-1"
       inkscape:connector-curvature="0" />
    <path
       style="fill:none;stroke:#000000;stroke-width:1px;stroke-linecap:square"
       d="m 369.5,200 -10,0"
       id="I-right-1"
       inkscape:connector-curvature="0" />
    <path
       style="fill:none;stroke:#000000;stroke-width:1px;stroke-linecap:square"
       d="m 200,369.5 0,-10"
       id="I-bottom-1"
       inkscape:connector-curvature="0" />
    <path
       style="fill:none;stroke:#000000;stroke-width:1px;stroke-linecap:square"
       d="m 40.5,200 -10,0"
       id="I-left-1"
       inkscape:connector-curvature="0" />
    <path
       style="fill:none;stroke:#000000;stroke-width:1px;stroke-linecap:square"
       d="m 67,30.5 0,10"
       id="C-top-1"
       inkscape:connector-curvature="0" />
    <path
       style="fill:none;stroke:#000000;stroke-width:1px;stroke-linecap:square"
       d="m 93,30.5 0,10"
       id="C-top-2"
       inkscape:connector-curvature="0" />
    <path
       style="fill:none;stroke:#000000;stroke-width:1px;stroke-linecap:square"
       d="m 307,30.5 0,10"
       id="C-top-3"
       inkscape:connector-curvature="0" />
    <path
       style="fill:none;stroke:#000000;stroke-width:1px;stroke-linecap:square"
       d="m 333,30.5 0,10"
       id="C-top-4"
       inkscape:connector-curvature="0" />
    <path
       style="fill:none;stroke:#000000;stroke-width:1px;stroke-linecap:square"
       d="m 369.5,67 -10,0"
       id="C-right-1"
       inkscape:connector-curvature="0" />
    <path
       style="fill:none;stroke:#000000;stroke-width:1px;stroke-linecap:square"
       d="m 369.5,93 -10,0"
       id="C-right-2"
       inkscape:connector-curvature="0" />
    <path
       style="fill:none;stroke:#000000;stroke-width:1px;stroke-linecap:square"
       d="m 369.5,307 -10,0"
       id="C-right-3"
       inkscape:connector-curvature="0" />
    <path
       style="fill:none;stroke:#000000;stroke-width:1px;stroke-linecap:square"
       d="m 369.5,333 -10,0"
       id="C-right-4"
       inkscape:connector-curvature="0" />
    <path
       style="fill:none;stroke:#000000;stroke-width:1px;stroke-linecap:square"
       d="m 67,369.5 0,-10"
       id="C-bottom-1"
       inkscape:connector-curvature="0" />
    <path
       style="fill:none;stroke:#000000;stroke-width:1px;stroke-linecap:square"
       d="m 93,369.5 0,-10"
       id="C-bottom-2"
       inkscape:connector-curvature="0" />
    <path
       style="fill:none;stroke:#000000;stroke-width:1px;stroke-linecap:square"
       d="m 307,369.5 0,-10"
       id="C-bottom-3"
       inkscape:connector-curvature="0" />
    <path
       style="fill:none;stroke:#000000;stroke-width:1px;stroke-linecap:square"
       d="m 333,369.5 0,-10"
       id="C-bottom-4"
       inkscape:connector-curvature="0" />
    <path
       style="fill:none;stroke:#000000;stroke-width:1px;stroke-linecap:square"
       d="m 30.5,67 10,0"
       id="C-left-1"
       inkscape:connector-curvature="0" />
    <path
       style="fill:none;stroke:#000000;stroke-width:1px;stroke-linecap:square"
       d="m 30.5,93 10,0"
       id="C-left-2"
       inkscape:connector-curvature="0" />
    <path
       style="fill:none;stroke:#000000;stroke-width:1px;stroke-linecap:square"
       d="m 30.5,307 10,0"
       id="C-left-3"
       inkscape:connector-curvature="0" />
    <path
       style="fill:none;stroke:#000000;stroke-width:1px;stroke-linecap:square"
       d="m 30.5,333 10,0"
       id="C-left-4"
       inkscape:connector-curvature="0" />
  </g>
  <g
     style="display:inline"
     zpos="-300"
     inkscape:label="OKON-001"
     id="g3121"
     inkscape:groupmode="layer"
     sodipodi:insensitive="true">
    <path
       sodipodi:nodetypes="ccccc"
       inkscape:connector-curvature="0"
       d="m 369.5,17 0,50 -339,0 0,-50 z"
       style="fill:#ffffff;stroke:none;display:inline"
       id="path3123" />
    <path
       style="fill:none;stroke:#000000;stroke-width:1px;stroke-linecap:square;display:inline"
       d="m 30.5,67 10,0 319,0 10,0"
       id="path3129"
       inkscape:connector-curvature="0"
       sodipodi:nodetypes="cccc" />
  </g>
  <g
     inkscape:groupmode="layer"
     id="layer1"
     inkscape:label="XX_YYYY-001"
     style="display:none"
     zpos="-200"
     sodipodi:insensitive="true">
    <flowRoot
       xml:space="preserve"
       id="flowRoot3429"
       style="font-size:405px;font-style:normal;font-variant:normal;font-weight:bold;font-stretch:normal;text-align:center;line-height:140.99999666%;letter-spacing:0px;word-spacing:0px;writing-mode:lr-tb;text-anchor:middle;fill:#00ff00;fill-opacity:1;stroke:none;display:inline;font-family:osifont;-inkscape-font-specification:osifont Bold"
       transform="translate(-51.9775,-126.0522)"><flowRegion
         id="flowRegion3431"><rect
           id="rect3433"
           width="370"
           height="600"
           x="65"
           y="10.35376"
           style="font-size:405px;font-style:normal;font-variant:normal;font-weight:bold;font-stretch:normal;text-align:center;line-height:140.99999666%;writing-mode:lr-tb;text-anchor:middle;fill:#00ff00;font-family:osifont;-inkscape-font-specification:osifont Bold" /></flowRegion><flowPara
         id="flowPara3435">Y</flowPara></flowRoot>  </g>
  <g
     zpos="-200"
     style="display:none"
     inkscape:label="YYYY-001"
     id="g3125"
     inkscape:groupmode="layer">
    <path
       style="fill:#ffffff;stroke:#00ff00;stroke-width:1px"
       d="m 183.98197,198.81345 0,133.28614 c 0,11.46971 4.74611,17.20458 14.43604,17.20458 9.09667,0 13.84277,-5.53712 13.84277,-16.80908 l 0,-132.89062 86.41846,-124.78272 c 2.37304,-3.75732 3.75732,-7.31689 3.75732,-10.67871 0,-8.89891 -5.14161,-13.44726 -15.02929,-13.44726 -4.94385,0 -9.09669,2.37305 -12.4585,6.92138 L 197.82475,170.13914 121.49174,59.39695 c -3.95508,-5.73486 -8.10792,-8.70117 -12.65625,-8.70117 -10.48095,0 -15.62256,4.7461 -15.62256,14.23828 0,3.16406 0.98877,6.13037 3.16406,9.09668 l 87.60498,124.78271"
       id="path3136"
       inkscape:connector-curvature="0" />
  </g>
  <g
     inkscape:groupmode="layer"
     id="layer2"
     inkscape:label="XX_YYYY-002"
     style="display:none"
     zpos="-200"
     sodipodi:insensitive="true">
    <flowRoot
       transform="translate(-43.7541,-107.7518)"
       style="font-size:405px;font-style:normal;font-variant:normal;font-weight:bold;font-stretch:normal;text-align:center;line-height:140.99999666%;letter-spacing:0px;word-spacing:0px;writing-mode:lr-tb;text-anchor:middle;fill:#00ff00;fill-opacity:1;stroke:none;display:inline;font-family:OCRA;-inkscape-font-specification:OCRA Bold"
       id="flowRoot3484"
       xml:space="preserve"><flowRegion
         id="flowRegion3486"><rect
           style="font-size:405px;font-style:normal;font-variant:normal;font-weight:bold;font-stretch:normal;text-align:center;line-height:140.99999666%;writing-mode:lr-tb;text-anchor:middle;fill:#00ff00;font-family:OCRA;-inkscape-font-specification:OCRA Bold"
           y="10.35376"
           x="65"
           height="600"
           width="370"
           id="rect3488" /></flowRegion><flowPara
         id="flowPara3490">Y</flowPara></flowRoot>  </g>
  <g
     zpos="-200"
     style="display:none"
     inkscape:label="YYYY-002"
     id="g3141"
     inkscape:groupmode="layer">
    <path
       style="fill:#ffffff;stroke:#00ff00;stroke-width:1px"
       d="m 120.21504,50.55497 c -4.05,0.81 -6.885,2.025 -9.72,5.265 -2.835,2.83499 -3.645,4.455 -4.86,7.29 -1.215,3.64499 -1.215,4.86002 -1.215,26.325 l 0,19.035 38.07,49.005 38.07,49.005 0,62.775 c 0,67.63493 0,63.99 1.215,67.635 1.215,2.83499 2.025,4.455 4.86,6.885 2.43,2.42999 4.05,3.645 6.885,4.86 5.265,1.61999 10.12501,1.21499 14.985,-1.215 4.05,-1.62 6.885,-4.45501 8.91,-8.505 2.025,-4.455 1.62,2.83492 2.025,-68.85 l 0,-63.585 28.35,-36.45 c 15.38999,-19.84498 32.80501,-41.71501 38.07,-49.005 l 9.72,-12.555 0,-21.06 c 0,-23.89498 0,-22.27501 -2.025,-26.325 -1.62,-4.05 -4.86,-6.88501 -8.505,-8.91 -5.26499,-2.43 -10.125,-2.835 -15.39,-0.81 -2.43,0.81 -4.455,2.025 -6.885,4.455 -2.43,2.42999 -3.645,4.05 -4.455,6.885 -1.215,3.23999 -1.215,4.05001 -1.215,19.035 l 0,13.365 -28.35,36.45 c -15.38998,19.84498 -28.35,36.045 -28.35,36.45 -0.405,0 -5.26502,-6.07503 -28.755,-36.045 l -28.35,-36.45 0,-14.58 c -0.405,-16.60499 0,-15.79501 -2.025,-19.845 -2.025,-4.05 -4.86,-6.88501 -8.91,-8.91 -1.215,-0.81 -2.835,-1.215 -3.645,-1.62 -2.025,-0.405 -6.48,-0.405 -8.505,0"
       id="path3152"
       inkscape:connector-curvature="0" />
  </g>
  <g
     inkscape:groupmode="layer"
     id="layer3"
     inkscape:label="XX_YYYY-003"
     style="display:none"
     zpos="-200"
     sodipodi:insensitive="true">
    <flowRoot
       xml:space="preserve"
       id="flowRoot3498"
       style="font-size:405px;font-style:normal;font-variant:normal;font-weight:bold;font-stretch:normal;text-align:center;line-height:140.99999666%;letter-spacing:0px;word-spacing:0px;writing-mode:lr-tb;text-anchor:middle;fill:#00ff00;fill-opacity:1;stroke:none;display:inline;font-family:MgOpen Modata;-inkscape-font-specification:MgOpen Modata Bold"
       transform="translate(-20.624688,-108.0621)"><flowRegion
         id="flowRegion3500"><rect
           id="rect3502"
           width="450"
           height="600"
           x="8.8190002"
           y="10.35376"
           style="font-size:405px;font-style:normal;font-variant:normal;font-weight:bold;font-stretch:normal;text-align:center;line-height:140.99999666%;writing-mode:lr-tb;text-anchor:middle;fill:#00ff00;font-family:MgOpen Modata;-inkscape-font-specification:MgOpen Modata Bold" /></flowRegion><flowPara
         id="flowPara3504">Y</flowPara></flowRoot>  </g>
  <g
     zpos="-200"
     style="display:inline"
     inkscape:label="YYYY-003"
     id="g3157"
     inkscape:groupmode="layer">
    <path
       style="fill:#ffffff;stroke:#00ff00;stroke-width:1px"
       d="m 147.85625,75.15995 53.46,75.33 49.005,-72.9 c 8.90982,-13.7697 20.11481,-20.6547 33.615,-20.655 9.71979,3e-4 18.22478,3.3753 25.515,10.125 7.28976,6.75029 10.93476,14.71528 10.935,23.895 -2.4e-4,6.75026 -2.29524,13.09526 -6.885,19.035 l -79.785,109.35 0,110.565 c -1.5e-4,8.91002 -3.10515,15.93002 -9.315,21.06 -6.21014,4.86001 -13.63513,7.29 -22.275,7.29 -9.18011,0 -17.0101,-2.69999 -23.49,-8.1 -7.29009,-5.66998 -10.93509,-13.49998 -10.935,-23.49 l 0,-107.325 -78.164998,-108.135 c -4.05,-5.39974 -6.075,-11.33974 -6.075,-17.82 0,-9.17972 3.64499,-17.27971 10.935,-24.3 7.289978,-7.2897 15.524968,-10.9347 24.704998,-10.935 11.33995,3e-4 20.92494,5.6703 28.755,17.01"
       id="path3168"
       inkscape:connector-curvature="0" />
  </g>
  <g
     inkscape:groupmode="layer"
     id="layer4"
     inkscape:label="XX_YYYY-004"
     style="display:none"
     zpos="-200"
     sodipodi:insensitive="true">
    <flowRoot
       transform="translate(-57.6135,-118.4601)"
       style="font-size:405px;font-style:normal;font-variant:normal;font-weight:500;font-stretch:normal;text-align:center;line-height:140.99999666%;letter-spacing:0px;word-spacing:0px;writing-mode:lr-tb;text-anchor:middle;fill:#00ff00;fill-opacity:1;stroke:none;display:inline;font-family:Roboto;-inkscape-font-specification:Roboto Medium"
       id="flowRoot3512"
       xml:space="preserve"><flowRegion
         id="flowRegion3514"><rect
           style="font-size:405px;font-style:normal;font-variant:normal;font-weight:500;font-stretch:normal;text-align:center;line-height:140.99999666%;writing-mode:lr-tb;text-anchor:middle;fill:#00ff00;font-family:Roboto;-inkscape-font-specification:Roboto Medium"
           y="10.35376"
           x="65"
           height="600"
           width="370"
           id="rect3516" /></flowRegion><flowPara
         id="flowPara3518">Y</flowPara></flowRoot>  </g>
  <g
     zpos="-200"
     style="display:none"
     inkscape:label="YYYY-004"
     id="g3173"
     inkscape:groupmode="layer">
    <path
       style="fill:#ffffff;stroke:#00ff00;stroke-width:1px"
       d="m 191.99099,196.04497 69.41162,-140.00977 53.59131,0 -99.86572,187.27295 0,100.65674 -47.85645,0 0,-103.62305 -98.28369,-184.30664 53.59131,0 69.41162,140.00977"
       id="path3184"
       inkscape:connector-curvature="0" />
  </g>
  <g
     inkscape:groupmode="layer"
     id="layer8"
     inkscape:label="XX_YYYY-008"
     style="display:none"
     zpos="-200">
    <flowRoot
       transform="translate(-47.6135,-123.4601)"
       style="font-size:400px;font-style:normal;font-variant:normal;font-weight:bold;font-stretch:normal;text-align:center;line-height:140.99999666%;letter-spacing:0px;word-spacing:0px;writing-mode:lr-tb;text-anchor:middle;fill:#00ff00;fill-opacity:1;stroke:none;display:inline;font-family:Playfair Display;-inkscape-font-specification:Playfair Display Bold"
       id="flowRoot3568"
       xml:space="preserve"><flowRegion
         id="flowRegion3570"><rect
           style="font-size:400px;font-style:normal;font-variant:normal;font-weight:bold;font-stretch:normal;text-align:center;line-height:140.99999666%;writing-mode:lr-tb;text-anchor:middle;fill:#00ff00;font-family:Playfair Display;-inkscape-font-specification:Playfair Display Bold"
           y="10.35376"
           x="22.613501"
           height="600"
           width="450"
           id="rect3572" /></flowRegion><flowPara
         id="flowPara3270">Y</flowPara></flowRoot>  </g>
  <g
     zpos="-200"
     style="display:none"
     inkscape:label="YYYY-008"
     id="g3221"
     inkscape:groupmode="layer">
    <path
       style="fill:#ffffff;stroke:#00ff00;stroke-width:1px"
       d="m 322.08181,61.29619 c -8.0078,0.78125 -18.16407,1.17188 -30.46875,1.17188 -15.03904,0 -31.64064,-0.39063 -49.80469,-1.17188 l 0,8.00781 c 22.26561,0.78125 33.39844,9.57033 33.39844,26.5625 0,11.91405 -5.27345,28.32034 -15.82031,49.21875 l -31.05469,62.10938 -60.9375,-116.79688 c -1.75781,-3.32031 -2.53906,-6.25 -2.53906,-8.78906 0,-4.68749 2.53907,-7.8125 8.00781,-9.375 5.27343,-1.5625 12.69532,-2.53906 22.26563,-2.53906 l 0,-8.39844 c -25.3906,1.36719 -50.58596,1.95313 -75.19532,1.95313 -16.0156,0 -31.64064,-0.58594 -47.26562,-1.95313 l 0,8.39844 c 7.22656,0 15.03907,7.42189 23.24219,22.26562 l 76.95312,142.38282 0,67.96875 c 0,10.15624 -0.78125,17.38281 -2.34375,21.875 -1.5625,4.68749 -4.29688,7.8125 -8.20312,9.375 -4.10156,1.75781 -10.54689,2.73437 -19.53125,3.125 l 0,8.00781 c 13.08592,-0.78125 33.78909,-1.17188 62.10937,-1.17188 26.75779,0 47.26564,0.39063 61.52344,1.17188 l 0,-8.00781 c -8.98437,-0.39063 -15.42969,-1.36719 -19.33594,-3.125 -4.10156,-1.5625 -6.83594,-4.68751 -8.39844,-9.375 -1.56249,-4.49219 -2.14843,-11.71876 -2.14843,-21.875 l 0,-93.16407 47.26562,-93.75 C 296.88649,89.61653 309.58183,74.18681 322.08181,69.304 l 0,-8.00781"
       id="path3232"
       inkscape:connector-curvature="0" />
  </g>
  <g
     inkscape:groupmode="layer"
     id="layer9"
     inkscape:label="UKON-001"
     zpos="-20"
     style="display:inline"
     sodipodi:insensitive="true">
    <path
       id="path3260"
       style="fill:#ffffff;stroke:none;display:inline"
       d="m 30.5,393 0,-60 339,0 0,60 z"
       inkscape:connector-curvature="0"
       sodipodi:nodetypes="ccccc" />
    <path
       sodipodi:nodetypes="cccc"
       inkscape:connector-curvature="0"
       id="path3576"
       d="m 369.5,333 -10,0 -319,0 -10,0"
       style="fill:none;stroke:#000000;stroke-width:1px;stroke-linecap:square;display:inline" />
  </g>
  <g
     inkscape:groupmode="layer"
     id="layer5"
     inkscape:label="XX_YYYY-005"
     style="display:none"
     zpos="50"
     sodipodi:insensitive="true">
    <flowRoot
       xml:space="preserve"
       id="flowRoot3526"
       style="font-size:420px;font-style:normal;font-variant:normal;font-weight:600;font-stretch:normal;text-align:center;line-height:140.99999666%;letter-spacing:0px;word-spacing:0px;writing-mode:lr-tb;text-anchor:middle;fill:#00ff00;fill-opacity:1;stroke:none;display:inline;font-family:Autobahn;-inkscape-font-specification:Autobahn Semi-Bold"
       transform="matrix(1.0918244,0,0,1.0918244,-72.753649,-134.44094)"><flowRegion
         id="flowRegion3528"><rect
           id="rect3530"
           width="370"
           height="600"
           x="65"
           y="10.35376"
           style="font-size:420px;font-style:normal;font-variant:normal;font-weight:600;font-stretch:normal;text-align:center;line-height:140.99999666%;writing-mode:lr-tb;text-anchor:middle;fill:#00ff00;font-family:Autobahn;-inkscape-font-specification:Autobahn Semi-Bold" /></flowRegion><flowPara
         id="flowPara3532">Y</flowPara></flowRoot>  </g>
  <g
     zpos="50"
     style="display:none"
     inkscape:label="YYYY-005"
     id="g3189"
     inkscape:groupmode="layer">
    <path
       style="fill:#ffffff;stroke:#00ff00;stroke-width:1px"
       d="m 292.2238,371.87487 0,0 0,-331.084829 -70.6192,0 0,281.101109 -42.64666,-24.30401 0,-256.797099 -70.6192,0 0,293.482399 -0.45857,0.45857 63.74071,35.3096 49.98372,-35.3096 0,40.35383 -68.78494,0 -32.5582,64.19927 111.4316,0 60.53074,-67.40924"
       id="path3200"
       inkscape:connector-curvature="0" />
  </g>
  <g
     inkscape:groupmode="layer"
     id="layer6"
     inkscape:label="XX_YYYY-006"
     style="display:none"
     zpos="50"
     sodipodi:insensitive="true">
    <flowRoot
       transform="matrix(1.2543692,0,0,1.2543692,-142.32784,-126.60765)"
       style="font-size:360px;font-style:normal;font-variant:normal;font-weight:bold;font-stretch:normal;text-align:center;line-height:140.99999666%;letter-spacing:0px;word-spacing:0px;writing-mode:lr-tb;text-anchor:middle;fill:#00ff00;fill-opacity:1;stroke:none;display:inline;font-family:Dancing Script;-inkscape-font-specification:Dancing Script Bold"
       id="flowRoot3540"
       xml:space="preserve"><flowRegion
         id="flowRegion3542"><rect
           style="font-size:360px;font-style:normal;font-variant:normal;font-weight:bold;font-stretch:normal;text-align:center;line-height:140.99999666%;writing-mode:lr-tb;text-anchor:middle;fill:#00ff00;font-family:Dancing Script;-inkscape-font-specification:Dancing Script Bold"
           y="10.35376"
           x="65"
           height="600"
           width="370"
           id="rect3544" /></flowRegion><flowPara
         id="flowPara3546">Y</flowPara></flowRoot>  </g>
  <g
     zpos="50"
     style="display:none"
     inkscape:label="YYYY-006"
     id="g3205"
     inkscape:groupmode="layer">
    <path
       style="fill:#ffffff;stroke:#00ff00;stroke-width:1px"
       d="m 26.517705,132.47446 c 0,23.48176 13.09564,34.77111 40.189989,34.77111 -3.612583,-9.48302 -5.418875,-18.06292 -5.418875,-25.28808 0,-17.61133 4.064157,-34.77113 12.192469,-50.124596 8.1283,-15.353467 19.417648,-23.030219 34.319542,-23.481792 16.2566,0 24.38494,10.837775 24.38494,32.513248 0,13.0956 -4.96732,37.93216 -14.45034,73.60639 -9.93459,36.12579 -14.45033,61.8655 -14.45033,76.76739 0,17.61133 4.51573,31.61012 13.54719,41.99628 9.03144,10.83774 23.03023,15.80505 41.99628,15.80505 36.12579,0 67.73596,-21.22396 94.37874,-64.12335 -2.70944,7.67673 -5.41889,21.22395 -8.57989,40.64156 -3.16101,19.41763 -6.7736,37.02899 -10.38618,52.83403 -4.06415,16.25662 -9.48304,32.51327 -15.80505,49.67302 -6.77359,17.15976 -16.25663,30.2554 -28.44909,40.18999 -12.19246,9.93459 -26.64283,14.90191 -43.351,14.90191 -27.54592,0 -41.09314,-12.64407 -41.09314,-38.3837 -0.45157,-5.41886 1.35472,-15.80506 4.96731,-30.70696 -10.83774,2.70944 -19.417651,7.67676 -25.288086,14.90191 -6.322021,7.22517 -9.031458,15.80506 -9.031458,25.28808 0,14.45032 5.87046,25.2881 18.062916,32.96483 11.740888,8.1283 27.545958,11.74089 46.963578,11.74089 17.15975,0 32.96484,-3.61258 47.86673,-10.83775 14.45032,-7.22515 26.19123,-15.80506 35.22269,-26.6428 9.03145,-10.38616 17.61134,-23.93338 25.73966,-40.64156 7.67672,-16.25661 13.54718,-31.61012 18.06291,-45.15729 4.06415,-13.09561 8.57989,-29.35226 13.09562,-48.31831 18.06289,-75.86417 31.15853,-125.53729 39.28684,-149.01906 7.67673,-23.48176 19.41765,-47.415177 35.22269,-71.800089 C 343.97347,55.255501 334.03885,49.38504 325.0074,49.38504 c -4.51573,0 -9.03147,3.161023 -13.54719,8.579885 -4.51573,5.418875 -9.03147,13.5472 -13.09561,23.933365 -4.06416,10.386164 -7.67674,20.32079 -10.38618,29.80381 l -10.83775,34.77112 -9.03146,29.80381 c -10.83773,31.1585 -24.38496,56.89821 -40.64156,77.67054 -16.70818,20.77233 -34.77114,30.70696 -53.73718,30.70696 l -0.45157,0 c -21.22391,0 -31.6101,-13.99879 -31.6101,-42.44786 0,-15.80504 5.41889,-43.35103 16.25662,-82.18627 8.1283,-29.80378 12.19247,-50.1246 12.64404,-60.96234 0,-14.45032 -4.51574,-26.191241 -13.54718,-35.67426 -9.03146,-9.031445 -22.1271,-13.99876 -39.28685,-13.99876 -25.288054,0 -46.512032,9.031483 -64.574923,27.094375 C 35.097603,94.542319 26.517705,113.05685 26.517705,132.47446"
       id="path3216"
       inkscape:connector-curvature="0" />
  </g>
  <g
     inkscape:groupmode="layer"
     id="layer7"
     inkscape:label="XX_YYYY-007"
     style="display:none"
     zpos="-200">
    <flowRoot
       xml:space="preserve"
       id="flowRoot3554"
       style="font-size:370px;font-style:normal;font-variant:normal;font-weight:normal;font-stretch:normal;text-align:center;line-height:140.99999666%;letter-spacing:0px;word-spacing:0px;writing-mode:lr-tb;text-anchor:middle;fill:#00ff00;fill-opacity:1;stroke:none;display:inline;font-family:Standard Graf;-inkscape-font-specification:Standard Graf"
       transform="translate(-57.6135,-87.8157)"><flowRegion
         id="flowRegion3556"><rect
           id="rect3558"
           width="420"
           height="600"
           x="47.613499"
           y="10.35376"
           style="font-size:370px;font-style:normal;font-variant:normal;font-weight:normal;font-stretch:normal;text-align:center;line-height:140.99999666%;writing-mode:lr-tb;text-anchor:middle;fill:#00ff00;font-family:Standard Graf;-inkscape-font-specification:Standard Graf" /></flowRegion><flowPara
         id="flowPara3560">Y</flowPara></flowRoot>  </g>
  <g
     inkscape:groupmode="layer"
     id="g3131"
     inkscape:label="OKON-002"
     zpos="100"
     style="display:none"
     sodipodi:insensitive="true">
    <path
       id="path3133"
       style="fill:#ffffff;stroke:none;display:inline"
       d="m 369.5,17 0,50 -339,0 0,-50 z"
       inkscape:connector-curvature="0"
       sodipodi:nodetypes="ccccc" />
    <path
       sodipodi:nodetypes="cccc"
       inkscape:connector-curvature="0"
       id="path3135"
       d="m 30.5,67 10,0 319,0 10,0"
       style="fill:none;stroke:#000000;stroke-width:1px;stroke-linecap:square;display:inline" />
  </g>
</svg>
