<?xml version="1.0" encoding="UTF-8" standalone="no"?>
<!-- Created with Inkscape (http://www.inkscape.org/) -->

<svg
   xmlns:dc="http://purl.org/dc/elements/1.1/"
   xmlns:cc="http://creativecommons.org/ns#"
   xmlns:rdf="http://www.w3.org/1999/02/22-rdf-syntax-ns#"
   xmlns:svg="http://www.w3.org/2000/svg"
   xmlns="http://www.w3.org/2000/svg"
   xmlns:sodipodi="http://sodipodi.sourceforge.net/DTD/sodipodi-0.dtd"
   xmlns:inkscape="http://www.inkscape.org/namespaces/inkscape"
   style="display:inline"
   sodipodi:docname="161206_Biege-R+_SW_II_00_SW_.svg"
   inkscape:version="0.48.3.1 r9886"
   version="1.1"
   id="svg2902"
   height="400"
   width="400">
  <sodipodi:namedview
     id="base"
     pagecolor="#f0f0f0"
     bordercolor="#666666"
     borderopacity="1.0"
     inkscape:pageopacity="1"
     inkscape:pageshadow="2"
     inkscape:zoom="1.3492135"
     inkscape:cx="212.47048"
     inkscape:cy="167.56247"
     inkscape:document-units="px"
     inkscape:current-layer="g3163"
     showgrid="false"
     inkscape:window-width="1018"
     inkscape:window-height="709"
     inkscape:window-x="0"
     inkscape:window-y="1"
     inkscape:window-maximized="0"
     showguides="true"
     inkscape:guide-bbox="true"
     inkscape:snap-bbox="true"
     inkscape:snap-global="false" />
  <defs
     id="defs2904">
    <clipPath
       clipPathUnits="userSpaceOnUse"
       id="clipPath5174">
      <path
         id="path5176"
         style="opacity:0.5;fill:#00ff00;stroke:#00ff00;stroke-width:1px;stroke-linecap:square;display:inline"
         d="m 436.26971,600.11436 -232.09481,134 -169.500003,-293.58262 232.094813,-134 z"
         inkscape:connector-curvature="0"
         sodipodi:nodetypes="ccccc" />
    </clipPath>
    <clipPath
       clipPathUnits="userSpaceOnUse"
       id="clipPath5174-5">
      <path
         id="path5176-9"
         style="opacity:0.5;fill:#00ff00;stroke:#00ff00;stroke-width:1px;stroke-linecap:square;display:inline"
         d="m 436.26971,600.11436 -232.09481,134 -169.500003,-293.58262 232.094813,-134 z"
         inkscape:connector-curvature="0"
         sodipodi:nodetypes="ccccc" />
    </clipPath>
    <clipPath
       clipPathUnits="userSpaceOnUse"
       id="clipPath3238">
      <path
         sodipodi:nodetypes="ccccc"
         inkscape:connector-curvature="0"
         d="m 461.26971,643.41563 -232.09481,134 -169.500002,-293.58262 232.094812,-134 z"
         style="opacity:0.5;fill:#00ff00;stroke:#00ff00;stroke-width:1px;stroke-linecap:square;display:inline"
         id="path3240" />
    </clipPath>
  </defs>
  <metadata
     id="metadata2907">
    <rdf:RDF>
      <cc:Work
         rdf:about="">
        <dc:format>image/svg+xml</dc:format>
        <dc:type
           rdf:resource="http://purl.org/dc/dcmitype/StillImage" />
        <dc:title></dc:title>
      </cc:Work>
    </rdf:RDF>
  </metadata>
  <g
     inkscape:groupmode="layer"
     id="bg"
     inkscape:label="XX_BG"
     style="display:inline"
     sodipodi:insensitive="true">
    <path
       style="fill:#e5ffd5"
       d="m 0,0 400,0 0,400 -400,0 z"
       id="bgrect"
       inkscape:connector-curvature="0" />
  </g>
  <g
     inkscape:label="XX_Referenz"
     inkscape:groupmode="layer"
     id="XX_referenz"
     style="display:none"
     sodipodi:insensitive="true">
    <path
       id="innerframe"
       style="fill:none;stroke:#ff0000;stroke-width:1"
       d="m 40.5,40.5 319,0 0,319 -319,0 0,-319 z"
       inkscape:label="#innerframe"
       sodipodi:insensitive="true"
       inkscape:connector-curvature="0" />
    <path
       id="outerframe"
       style="fill:none;stroke:#ff0000;stroke-width:1"
       d="m 30.5,30.5 339,0 0,339 -339,0 0,-339 z"
       inkscape:label="#outerframe"
       sodipodi:nodetypes="ccccc"
       sodipodi:insensitive="true"
       inkscape:connector-curvature="0" />
    <path
       style="opacity:0.5;fill:none;stroke:#ffc200;stroke-width:1px;stroke-linecap:square"
       d="m 189,30.5 0,10"
       id="ref-S-top-1"
       sodipodi:insensitive="true"
       inkscape:connector-curvature="0" />
    <path
       style="opacity:0.5;fill:none;stroke:#ffc200;stroke-width:1px;stroke-linecap:square"
       d="m 191,30.5 0,10"
       id="ref-S-top-2"
       sodipodi:insensitive="true"
       inkscape:connector-curvature="0" />
    <path
       style="opacity:0.5;fill:none;stroke:#ffc200;stroke-width:1px;stroke-linecap:square"
       d="m 209,30.5 0,10"
       id="ref-S-top-3"
       sodipodi:insensitive="true"
       inkscape:connector-curvature="0" />
    <path
       style="opacity:0.5;fill:none;stroke:#ffc200;stroke-width:1px;stroke-linecap:square"
       d="m 211,30.5 0,10"
       id="ref-S-top-4"
       sodipodi:insensitive="true"
       inkscape:connector-curvature="0" />
    <path
       style="opacity:0.5;fill:none;stroke:#00ff00;stroke-width:1px;stroke-linecap:square"
       d="m 199,30.5 0,10"
       id="ref-I-top-1"
       sodipodi:insensitive="true"
       inkscape:connector-curvature="0" />
    <path
       style="opacity:0.5;fill:none;stroke:#00ff00;stroke-width:1px;stroke-linecap:square"
       d="m 201,30.5 0,10"
       id="ref-I-top-2"
       sodipodi:insensitive="true"
       inkscape:connector-curvature="0" />
    <path
       style="opacity:0.5;fill:none;stroke:#00ffcc;stroke-width:1px;stroke-linecap:square"
       d="m 66,30.5 0,10"
       id="ref-C-top-1"
       sodipodi:insensitive="true"
       inkscape:connector-curvature="0" />
    <path
       style="opacity:0.5;fill:none;stroke:#00ffcc;stroke-width:1px;stroke-linecap:square"
       d="m 68,30.5 0,10"
       id="ref-C-top-2"
       sodipodi:insensitive="true"
       inkscape:connector-curvature="0" />
    <path
       style="opacity:0.5;fill:none;stroke:#00ffcc;stroke-width:1px;stroke-linecap:square"
       d="m 92,30.5 0,10"
       id="ref-C-top-3"
       sodipodi:insensitive="true"
       inkscape:connector-curvature="0" />
    <path
       style="opacity:0.5;fill:none;stroke:#00ffcc;stroke-width:1px;stroke-linecap:square"
       d="m 94,30.5 0,10"
       id="ref-C-top-4"
       sodipodi:insensitive="true"
       inkscape:connector-curvature="0" />
    <path
       style="opacity:0.5;fill:none;stroke:#00ffcc;stroke-width:1px;stroke-linecap:square"
       d="m 306,30.5 0,10"
       id="ref-C-top-5"
       sodipodi:insensitive="true"
       inkscape:connector-curvature="0" />
    <path
       style="opacity:0.5;fill:none;stroke:#00ffcc;stroke-width:1px;stroke-linecap:square"
       d="m 308,30.5 0,10"
       id="ref-C-top-6"
       sodipodi:insensitive="true"
       inkscape:connector-curvature="0" />
    <path
       style="opacity:0.5;fill:none;stroke:#00ffcc;stroke-width:1px;stroke-linecap:square"
       d="m 332,30.5 0,10"
       id="ref-C-top-7"
       sodipodi:insensitive="true"
       inkscape:connector-curvature="0" />
    <path
       style="opacity:0.5;fill:none;stroke:#00ffcc;stroke-width:1px;stroke-linecap:square"
       d="m 334,30.5 0,10"
       id="ref-C-top-8"
       sodipodi:insensitive="true"
       inkscape:connector-curvature="0" />
    <path
       style="opacity:0.5;fill:none;stroke:#ffc200;stroke-width:1px;stroke-linecap:square"
       d="m 369.5,189 -10,0"
       id="ref-S-right-1"
       sodipodi:insensitive="true"
       inkscape:connector-curvature="0" />
    <path
       style="opacity:0.5;fill:none;stroke:#ffc200;stroke-width:1px;stroke-linecap:square"
       d="m 369.5,191 -10,0"
       id="ref-S-right-2"
       sodipodi:insensitive="true"
       inkscape:connector-curvature="0" />
    <path
       style="opacity:0.5;fill:none;stroke:#ffc200;stroke-width:1px;stroke-linecap:square"
       d="m 369.5,209 -10,0"
       id="ref-S-right-3"
       sodipodi:insensitive="true"
       inkscape:connector-curvature="0" />
    <path
       style="opacity:0.5;fill:none;stroke:#ffc200;stroke-width:1px;stroke-linecap:square"
       d="m 369.5,211 -10,0"
       id="ref-S-right-4"
       sodipodi:insensitive="true"
       inkscape:connector-curvature="0" />
    <path
       style="opacity:0.5;fill:none;stroke:#00ff00;stroke-width:1px;stroke-linecap:square"
       d="m 369.5,199 -10,0"
       id="ref-I-right-1"
       sodipodi:insensitive="true"
       inkscape:connector-curvature="0" />
    <path
       style="opacity:0.5;fill:none;stroke:#00ff00;stroke-width:1px;stroke-linecap:square"
       d="m 369.5,201 -10,0"
       id="ref-I-right-2"
       sodipodi:insensitive="true"
       inkscape:connector-curvature="0" />
    <path
       style="opacity:0.5;fill:none;stroke:#00ffcc;stroke-width:1px;stroke-linecap:square"
       d="m 369.5,66 -10,0"
       id="ref-C-right-1"
       sodipodi:insensitive="true"
       inkscape:connector-curvature="0" />
    <path
       style="opacity:0.5;fill:none;stroke:#00ffcc;stroke-width:1px;stroke-linecap:square"
       d="m 369.5,68 -10,0"
       id="ref-C-right-2"
       sodipodi:insensitive="true"
       inkscape:connector-curvature="0" />
    <path
       style="opacity:0.5;fill:none;stroke:#00ffcc;stroke-width:1px;stroke-linecap:square"
       d="m 369.5,92 -10,0"
       id="ref-C-right-3"
       sodipodi:insensitive="true"
       inkscape:connector-curvature="0" />
    <path
       style="opacity:0.5;fill:none;stroke:#00ffcc;stroke-width:1px;stroke-linecap:square"
       d="m 369.5,94 -10,0"
       id="ref-C-right-4"
       sodipodi:insensitive="true"
       inkscape:connector-curvature="0" />
    <path
       style="opacity:0.5;fill:none;stroke:#00ffcc;stroke-width:1px;stroke-linecap:square"
       d="m 369.5,306 -10,0"
       id="ref-C-right-5"
       sodipodi:insensitive="true"
       inkscape:connector-curvature="0" />
    <path
       style="opacity:0.5;fill:none;stroke:#00ffcc;stroke-width:1px;stroke-linecap:square"
       d="m 369.5,308 -10,0"
       id="ref-C-right-6"
       sodipodi:insensitive="true"
       inkscape:connector-curvature="0" />
    <path
       style="opacity:0.5;fill:none;stroke:#00ffcc;stroke-width:1px;stroke-linecap:square"
       d="m 369.5,332 -10,0"
       id="ref-C-right-7"
       sodipodi:insensitive="true"
       inkscape:connector-curvature="0" />
    <path
       style="opacity:0.5;fill:none;stroke:#00ffcc;stroke-width:1px;stroke-linecap:square"
       d="m 369.5,334 -10,0"
       id="ref-C-right-8"
       sodipodi:insensitive="true"
       inkscape:connector-curvature="0" />
    <path
       style="opacity:0.5;fill:none;stroke:#ffc200;stroke-width:1px;stroke-linecap:square"
       d="m 189,369.5 0,-10"
       id="ref-S-bottom-1"
       sodipodi:insensitive="true"
       inkscape:connector-curvature="0" />
    <path
       style="opacity:0.5;fill:none;stroke:#ffc200;stroke-width:1px;stroke-linecap:square"
       d="m 191,369.5 0,-10"
       id="ref-S-bottom-2"
       sodipodi:insensitive="true"
       inkscape:connector-curvature="0" />
    <path
       style="opacity:0.5;fill:none;stroke:#ffc200;stroke-width:1px;stroke-linecap:square"
       d="m 209,369.5 0,-10"
       id="ref-S-bottom-3"
       sodipodi:insensitive="true"
       inkscape:connector-curvature="0" />
    <path
       style="opacity:0.5;fill:none;stroke:#ffc200;stroke-width:1px;stroke-linecap:square"
       d="m 211,369.5 0,-10"
       id="ref-S-bottom-4"
       sodipodi:insensitive="true"
       inkscape:connector-curvature="0" />
    <path
       style="opacity:0.5;fill:none;stroke:#00ff00;stroke-width:1px;stroke-linecap:square"
       d="m 199,369.5 0,-10"
       id="ref-I-bottom-1"
       sodipodi:insensitive="true"
       inkscape:connector-curvature="0" />
    <path
       style="opacity:0.5;fill:none;stroke:#00ff00;stroke-width:1px;stroke-linecap:square"
       d="m 201,369.5 0,-10"
       id="ref-I-bottom-2"
       sodipodi:insensitive="true"
       inkscape:connector-curvature="0" />
    <path
       style="opacity:0.5;fill:none;stroke:#00ffcc;stroke-width:1px;stroke-linecap:square"
       d="m 66,369.5 0,-10"
       id="ref-C-bottom-1"
       sodipodi:insensitive="true"
       inkscape:connector-curvature="0" />
    <path
       style="opacity:0.5;fill:none;stroke:#00ffcc;stroke-width:1px;stroke-linecap:square"
       d="m 68,369.5 0,-10"
       id="ref-C-bottom-2"
       sodipodi:insensitive="true"
       inkscape:connector-curvature="0" />
    <path
       style="opacity:0.5;fill:none;stroke:#00ffcc;stroke-width:1px;stroke-linecap:square"
       d="m 92,369.5 0,-10"
       id="ref-C-bottom-3"
       sodipodi:insensitive="true"
       inkscape:connector-curvature="0" />
    <path
       style="opacity:0.5;fill:none;stroke:#00ffcc;stroke-width:1px;stroke-linecap:square"
       d="m 94,369.5 0,-10"
       id="ref-C-bottom-4"
       sodipodi:insensitive="true"
       inkscape:connector-curvature="0" />
    <path
       style="opacity:0.5;fill:none;stroke:#00ffcc;stroke-width:1px;stroke-linecap:square"
       d="m 306,369.5 0,-10"
       id="ref-C-bottom-5"
       sodipodi:insensitive="true"
       inkscape:connector-curvature="0" />
    <path
       style="opacity:0.5;fill:none;stroke:#00ffcc;stroke-width:1px;stroke-linecap:square"
       d="m 308,369.5 0,-10"
       id="ref-C-bottom-6"
       sodipodi:insensitive="true"
       inkscape:connector-curvature="0" />
    <path
       style="opacity:0.5;fill:none;stroke:#00ffcc;stroke-width:1px;stroke-linecap:square"
       d="m 332,369.5 0,-10"
       id="ref-C-bottom-7"
       sodipodi:insensitive="true"
       inkscape:connector-curvature="0" />
    <path
       style="opacity:0.5;fill:none;stroke:#00ffcc;stroke-width:1px;stroke-linecap:square"
       d="m 334,369.5 0,-10"
       id="ref-C-bottom-8"
       sodipodi:insensitive="true"
       inkscape:connector-curvature="0" />
    <path
       style="opacity:0.5;fill:none;stroke:#ffc200;stroke-width:1px;stroke-linecap:square"
       d="m 30.5,189 10,0"
       id="ref-S-left-1"
       sodipodi:insensitive="true"
       inkscape:connector-curvature="0" />
    <path
       style="opacity:0.5;fill:none;stroke:#ffc200;stroke-width:1px;stroke-linecap:square"
       d="m 30.5,191 10,0"
       id="ref-S-left-2"
       sodipodi:insensitive="true"
       inkscape:connector-curvature="0" />
    <path
       style="opacity:0.5;fill:none;stroke:#ffc200;stroke-width:1px;stroke-linecap:square"
       d="m 30.5,209 10,0"
       id="ref-S-left-3"
       sodipodi:insensitive="true"
       inkscape:connector-curvature="0" />
    <path
       style="opacity:0.5;fill:none;stroke:#ffc200;stroke-width:1px;stroke-linecap:square"
       d="m 30.5,211 10,0"
       id="ref-S-left-4"
       sodipodi:insensitive="true"
       inkscape:connector-curvature="0" />
    <path
       style="opacity:0.5;fill:none;stroke:#00ff00;stroke-width:1px;stroke-linecap:square"
       d="m 40.5,199 -10,0"
       id="ref-I-left-1"
       sodipodi:insensitive="true"
       inkscape:connector-curvature="0" />
    <path
       style="opacity:0.5;fill:none;stroke:#00ff00;stroke-width:1px;stroke-linecap:square"
       d="m 40.5,201 -10,0"
       id="ref-I-left-2"
       sodipodi:insensitive="true"
       inkscape:connector-curvature="0" />
    <path
       style="opacity:0.5;fill:none;stroke:#00ffcc;stroke-width:1px;stroke-linecap:square"
       d="m 30.5,66 10,0"
       id="ref-C-left-1"
       sodipodi:insensitive="true"
       inkscape:connector-curvature="0" />
    <path
       style="opacity:0.5;fill:none;stroke:#00ffcc;stroke-width:1px;stroke-linecap:square"
       d="m 30.5,68 10,0"
       id="ref-C-left-2"
       sodipodi:insensitive="true"
       inkscape:connector-curvature="0" />
    <path
       style="opacity:0.5;fill:none;stroke:#00ffcc;stroke-width:1px;stroke-linecap:square"
       d="m 30.5,92 10,0"
       id="ref-C-left-3"
       sodipodi:insensitive="true"
       inkscape:connector-curvature="0" />
    <path
       style="opacity:0.5;fill:none;stroke:#00ffcc;stroke-width:1px;stroke-linecap:square"
       d="m 30.5,94 10,0"
       id="ref-C-left-4"
       sodipodi:insensitive="true"
       inkscape:connector-curvature="0" />
    <path
       style="opacity:0.5;fill:none;stroke:#00ffcc;stroke-width:1px;stroke-linecap:square"
       d="m 30.5,306 10,0"
       id="ref-C-left-5"
       sodipodi:insensitive="true"
       inkscape:connector-curvature="0" />
    <path
       style="opacity:0.5;fill:none;stroke:#00ffcc;stroke-width:1px;stroke-linecap:square"
       d="m 30.5,308 10,0"
       id="ref-C-left-6"
       sodipodi:insensitive="true"
       inkscape:connector-curvature="0" />
    <path
       style="opacity:0.5;fill:none;stroke:#00ffcc;stroke-width:1px;stroke-linecap:square"
       d="m 30.5,332 10,0"
       id="ref-C-left-7"
       sodipodi:insensitive="true"
       inkscape:connector-curvature="0" />
    <path
       style="opacity:0.5;fill:none;stroke:#00ffcc;stroke-width:1px;stroke-linecap:square"
       d="m 30.5,334 10,0"
       id="ref-C-left-8"
       sodipodi:insensitive="true"
       inkscape:connector-curvature="0" />
    <path
       style="fill:none;stroke:#000000;stroke-width:1px;stroke-linecap:square"
       d="m 190,30.5 0,10"
       id="S-top-1"
       inkscape:connector-curvature="0" />
    <path
       style="fill:none;stroke:#000000;stroke-width:1px;stroke-linecap:square"
       d="m 210,30.5 0,10"
       id="S-top-2"
       inkscape:connector-curvature="0" />
    <path
       style="fill:none;stroke:#000000;stroke-width:1px;stroke-linecap:square"
       d="m 369.5,190 -10,0"
       id="S-right-1"
       inkscape:connector-curvature="0" />
    <path
       style="fill:none;stroke:#000000;stroke-width:1px;stroke-linecap:square"
       d="m 369.5,210 -10,0"
       id="S-right-2"
       inkscape:connector-curvature="0" />
    <path
       style="fill:none;stroke:#000000;stroke-width:1px;stroke-linecap:square"
       d="m 190,369.5 0,-10"
       id="S-bottom-1"
       inkscape:connector-curvature="0" />
    <path
       style="fill:none;stroke:#000000;stroke-width:1px;stroke-linecap:square"
       d="m 210,369.5 0,-10"
       id="S-bottom-2"
       inkscape:connector-curvature="0" />
    <path
       style="fill:none;stroke:#000000;stroke-width:1px;stroke-linecap:square"
       d="m 30.5,190 10,0"
       id="S-left-1"
       inkscape:connector-curvature="0" />
    <path
       style="fill:none;stroke:#000000;stroke-width:1px;stroke-linecap:square"
       d="m 30.5,210 10,0"
       id="S-left-2"
       inkscape:connector-curvature="0" />
    <path
       style="fill:none;stroke:#000000;stroke-width:1px;stroke-linecap:square"
       d="m 200,30.5 0,10"
       id="I-top-1"
       inkscape:connector-curvature="0" />
    <path
       style="fill:none;stroke:#000000;stroke-width:1px;stroke-linecap:square"
       d="m 369.5,200 -10,0"
       id="I-right-1"
       inkscape:connector-curvature="0" />
    <path
       style="fill:none;stroke:#000000;stroke-width:1px;stroke-linecap:square"
       d="m 200,369.5 0,-10"
       id="I-bottom-1"
       inkscape:connector-curvature="0" />
    <path
       style="fill:none;stroke:#000000;stroke-width:1px;stroke-linecap:square"
       d="m 40.5,200 -10,0"
       id="I-left-1"
       inkscape:connector-curvature="0" />
    <path
       style="fill:none;stroke:#000000;stroke-width:1px;stroke-linecap:square"
       d="m 67,30.5 0,10"
       id="C-top-1"
       inkscape:connector-curvature="0" />
    <path
       style="fill:none;stroke:#000000;stroke-width:1px;stroke-linecap:square"
       d="m 93,30.5 0,10"
       id="C-top-2"
       inkscape:connector-curvature="0" />
    <path
       style="fill:none;stroke:#000000;stroke-width:1px;stroke-linecap:square"
       d="m 307,30.5 0,10"
       id="C-top-3"
       inkscape:connector-curvature="0" />
    <path
       style="fill:none;stroke:#000000;stroke-width:1px;stroke-linecap:square"
       d="m 333,30.5 0,10"
       id="C-top-4"
       inkscape:connector-curvature="0" />
    <path
       style="fill:none;stroke:#000000;stroke-width:1px;stroke-linecap:square"
       d="m 369.5,67 -10,0"
       id="C-right-1"
       inkscape:connector-curvature="0" />
    <path
       style="fill:none;stroke:#000000;stroke-width:1px;stroke-linecap:square"
       d="m 369.5,93 -10,0"
       id="C-right-2"
       inkscape:connector-curvature="0" />
    <path
       style="fill:none;stroke:#000000;stroke-width:1px;stroke-linecap:square"
       d="m 369.5,307 -10,0"
       id="C-right-3"
       inkscape:connector-curvature="0" />
    <path
       style="fill:none;stroke:#000000;stroke-width:1px;stroke-linecap:square"
       d="m 369.5,333 -10,0"
       id="C-right-4"
       inkscape:connector-curvature="0" />
    <path
       style="fill:none;stroke:#000000;stroke-width:1px;stroke-linecap:square"
       d="m 67,369.5 0,-10"
       id="C-bottom-1"
       inkscape:connector-curvature="0" />
    <path
       style="fill:none;stroke:#000000;stroke-width:1px;stroke-linecap:square"
       d="m 93,369.5 0,-10"
       id="C-bottom-2"
       inkscape:connector-curvature="0" />
    <path
       style="fill:none;stroke:#000000;stroke-width:1px;stroke-linecap:square"
       d="m 307,369.5 0,-10"
       id="C-bottom-3"
       inkscape:connector-curvature="0" />
    <path
       style="fill:none;stroke:#000000;stroke-width:1px;stroke-linecap:square"
       d="m 333,369.5 0,-10"
       id="C-bottom-4"
       inkscape:connector-curvature="0" />
    <path
       style="fill:none;stroke:#000000;stroke-width:1px;stroke-linecap:square"
       d="m 30.5,67 10,0"
       id="C-left-1"
       inkscape:connector-curvature="0" />
    <path
       style="fill:none;stroke:#000000;stroke-width:1px;stroke-linecap:square"
       d="m 30.5,93 10,0"
       id="C-left-2"
       inkscape:connector-curvature="0" />
    <path
       style="fill:none;stroke:#000000;stroke-width:1px;stroke-linecap:square"
       d="m 30.5,307 10,0"
       id="C-left-3"
       inkscape:connector-curvature="0" />
    <path
       style="fill:none;stroke:#000000;stroke-width:1px;stroke-linecap:square"
       d="m 30.5,333 10,0"
       id="C-left-4"
       inkscape:connector-curvature="0" />
  </g>
  <g
     inkscape:groupmode="layer"
     id="layer1"
     inkscape:label="BIEGE-001"
     style="display:inline">
    <path
       id="S-left-1-9"
       style="fill:none;stroke:#000000;stroke-width:1px;stroke-linecap:square;display:inline"
       d="m 190,30.5 0,10 C 190,138.71566 145.83648,190 40.5,190 l -10,0"
       inkscape:connector-curvature="0"
       sodipodi:nodetypes="cccc" />
  </g>
  <g
     style="display:none"
     inkscape:label="BIEGE-002"
     id="g3195"
     inkscape:groupmode="layer"
     sodipodi:insensitive="true">
    <path
       sodipodi:nodetypes="cccc"
       inkscape:connector-curvature="0"
       d="m 190,30.5 0,100 c 0,39.78932 -27.59784,59.5 -69.5,59.5 l -90,0"
       style="fill:none;stroke:#000000;stroke-width:1px;stroke-linecap:square;display:inline"
       id="path3197" />
  </g>
  <g
     inkscape:groupmode="layer"
     id="layer2"
     inkscape:label="VTKL-001"
     style="display:inline"
     sodipodi:insensitive="true">
    <path
       inkscape:connector-curvature="0"
       id="path3123"
       d="m 210,30.5 0,320"
       style="fill:none;stroke:#000000;stroke-width:1px;stroke-linecap:square;display:inline"
       sodipodi:nodetypes="cc" />
  </g>
  <g
     style="display:none"
     inkscape:label="VTKL-002"
     id="g3199"
     inkscape:groupmode="layer">
    <path
       sodipodi:nodetypes="ccac"
       style="fill:none;stroke:#000000;stroke-width:1px;stroke-linecap:square;display:inline"
       d="m 210,30.5 0,18 c 0,82.12882 39.43014,102.40135 39,156 -0.40424,50.37143 -57.18521,78.13186 -39,146"
       id="path3201"
       inkscape:connector-curvature="0" />
  </g>
  <g
     inkscape:groupmode="layer"
     id="g3203"
     inkscape:label="VTKL-003"
     style="display:none">
    <path
       inkscape:connector-curvature="0"
       id="path3205"
       d="m 210,30.5 0,21 c 0,68.58428 85.99172,90.1583 93,148 6.75791,55.77532 -53,76.00913 -53,160"
       style="fill:none;stroke:#000000;stroke-width:1px;stroke-linecap:square;display:inline"
       sodipodi:nodetypes="ccac" />
  </g>
  <g
     style="display:none"
     inkscape:label="VTKL-004"
     id="g3207"
     inkscape:groupmode="layer">
    <path
       sodipodi:nodetypes="ccac"
       style="fill:none;stroke:#000000;stroke-width:1px;stroke-linecap:square;display:inline"
       d="m 210,30.5 0,10 c 0,60.10105 109.25145,86.14106 120,149 10.1285,59.2328 -60,95.44618 -60,170"
       id="path3209"
       inkscape:connector-curvature="0" />
  </g>
  <g
     inkscape:groupmode="layer"
     id="layer3"
     inkscape:label="HNZL-001"
     style="display:none">
    <path
       id="path3168"
       style="fill:#ffffff;stroke:none;display:inline"
       d="m 369.5,363 0,-163 -10,0 c -51.21452,0 -102.71828,58.40902 -159.5,60 -55.69593,1.56056 -96.6555,-50 -159.5,-50 l -10,0 0,153 z"
       inkscape:connector-curvature="0"
       sodipodi:nodetypes="ccsasccc" />
    <path
       id="S-left-2-8"
       style="fill:none;stroke:#000000;stroke-width:1px;stroke-linecap:square;display:inline"
       d="m 30.5,210 10,0 c 62.8445,0 103.80407,51.56056 159.5,50 56.78172,-1.59098 108.28548,-60 159.5,-60 l 10,0"
       inkscape:connector-curvature="0"
       sodipodi:nodetypes="ccacc" />
  </g>
  <g
     inkscape:label="HNZL-002"
     id="g3171"
     inkscape:groupmode="layer"
     style="display:none">
    <path
       sodipodi:nodetypes="ccsasccc"
       inkscape:connector-curvature="0"
       d="m 369.5,363 0,-163 -10,0 c -51.21452,0 -88.52052,95.5725 -147.5,98 -60.67045,2.4971 -96.6555,-88 -159.5,-88 l -22,0 0,153 z"
       style="fill:#ffffff;stroke:none;display:inline"
       id="path3173" />
    <path
       sodipodi:nodetypes="ccacc"
       inkscape:connector-curvature="0"
       d="m 30.5,210 22,0 c 62.8445,0 98.82955,90.4971 159.5,88 58.97948,-2.4275 96.28548,-98 147.5,-98 l 10,0"
       style="fill:none;stroke:#000000;stroke-width:1px;stroke-linecap:square;display:inline"
       id="path3175" />
  </g>
  <g
     inkscape:groupmode="layer"
     id="g3177"
     inkscape:label="HNZL-003"
     style="display:none">
    <path
       id="path3179"
       style="fill:#ffffff;stroke:none;display:inline"
       d="m 369.5,363 0,-163 -10,0 c -51.21452,0 -98.11627,36.12444 -149.5,38 -53.28769,1.94506 -94.6555,-28 -157.5,-28 l -22,0 0,153 z"
       inkscape:connector-curvature="0"
       sodipodi:nodetypes="ccsasccc" />
    <path
       id="path3181"
       style="fill:none;stroke:#000000;stroke-width:1px;stroke-linecap:square;display:inline"
       d="m 30.5,210 22,0 c 62.8445,0 104.21231,29.94506 157.5,28 51.38373,-1.87556 98.28548,-38 149.5,-38 l 10,0"
       inkscape:connector-curvature="0"
       sodipodi:nodetypes="ccacc" />
  </g>
  <g
     inkscape:label="HNZL-004"
     id="g3183"
     inkscape:groupmode="layer"
     style="display:none">
    <path
       sodipodi:nodetypes="ccsasccc"
       inkscape:connector-curvature="0"
       d="m 369.5,363 0,-163 -40,0 c -51.21452,0 -71.60364,65.52557 -116.5,68 -47.53068,2.61961 -67.6555,-58 -130.5,-58 l -52,0 0,153 z"
       style="fill:#ffffff;stroke:none;display:inline"
       id="path3185" />
    <path
       sodipodi:nodetypes="ccacc"
       inkscape:connector-curvature="0"
       d="m 30.5,210 52,0 c 62.8445,0 82.96932,60.61961 130.5,58 44.89636,-2.47443 65.28548,-68 116.5,-68 l 40,0"
       style="fill:none;stroke:#000000;stroke-width:1px;stroke-linecap:square;display:inline"
       id="path3187" />
  </g>
  <g
     inkscape:groupmode="layer"
     id="g3189"
     inkscape:label="HNZL-005"
     style="display:none">
    <path
       id="path3191"
       style="fill:#ffffff;stroke:none;display:inline"
       d="m 369.5,363 0,-163 -30,0 C 288.28548,200 274.9961,347.11797 209,349 144.08774,350.85112 135.3445,210 72.5,210 l -42,0 0,153 z"
       inkscape:connector-curvature="0"
       sodipodi:nodetypes="ccsasccc" />
    <path
       id="path3193"
       style="fill:none;stroke:#000000;stroke-width:1px;stroke-linecap:square;display:inline"
       d="m 30.5,210 42,0 c 62.8445,0 71.58774,140.85112 136.5,139 65.9961,-1.88203 79.28548,-149 130.5,-149 l 30,0"
       inkscape:connector-curvature="0"
       sodipodi:nodetypes="ccacc" />
  </g>
  <g
     inkscape:groupmode="layer"
     id="layer4"
     inkscape:label="HNZL-006"
     style="display:none">
    <path
       id="path3154"
       style="fill:#ffffff;stroke:none"
       d="m 369.5,363 -10,0 -319,0 -10,0 0,-153 10,0 116.606,0 c 13.51428,0 24.394,10.87973 24.394,24.39402 l 0,74.21196 C 181.5,322.12027 192.37972,333 205.894,333 l 6.409,0 c 13.51428,0 24.394,-10.87973 24.394,-24.39402 l 0.197,-84.21196 C 236.894,210.87973 247.77372,200 261.288,200 l 98.212,0 10,0 z"
       inkscape:connector-curvature="0"
       sodipodi:nodetypes="ccccccsssssccsccc" />
    <path
       id="path3122"
       style="fill:none;stroke:#000000;stroke-width:1px"
       d="m 369.5,200 -10,0 -98.212,0 c -13.51428,0 -24.394,10.87973 -24.394,24.39402 l -0.197,84.21196 C 236.697,322.12027 225.81728,333 212.303,333 l -6.409,0 C 192.37972,333 181.5,322.12027 181.5,308.60598 l 0,-74.21196 C 181.5,220.87973 170.62028,210 157.106,210 l -116.606,0 -10,0"
       inkscape:connector-curvature="0"
       sodipodi:nodetypes="cccccssssscc" />
  </g>
  <g
     inkscape:label="HNZL-007"
     id="g3157"
     inkscape:groupmode="layer"
     style="display:none">
    <path
       sodipodi:nodetypes="ccccccsssssccsccc"
       inkscape:connector-curvature="0"
       d="m 369.5,363 -10,0 -319,0 -10,0 0,-153 10,0 16.606,0 c 13.51428,0 24.394,10.87973 24.394,24.39402 l 0,74.21196 C 81.5,322.12027 92.37972,333 105.894,333 l 13.409,0 c 13.51428,0 24.394,-10.87973 24.394,-24.39402 l 0.197,-84.21196 C 143.894,210.87973 154.77372,200 168.288,200 l 191.212,0 10,0 z"
       style="fill:#ffffff;stroke:none"
       id="path3159" />
    <path
       sodipodi:nodetypes="cccccssssscc"
       inkscape:connector-curvature="0"
       d="m 369.5,200 -10,0 -191.212,0 c -13.51428,0 -24.394,10.87973 -24.394,24.39402 l -0.197,84.21196 C 143.697,322.12027 132.81728,333 119.303,333 l -13.409,0 C 92.37972,333 81.5,322.12027 81.5,308.60598 l 0,-74.21196 C 81.5,220.87973 70.62028,210 57.106,210 l -16.606,0 -10,0"
       style="fill:none;stroke:#000000;stroke-width:1px"
       id="path3161" />
  </g>
  <g
     inkscape:groupmode="layer"
     id="g3163"
     inkscape:label="HNZL-008"
     style="display:inline">
    <path
       id="path3165"
       style="fill:#ffffff;stroke:none"
       d="m 369.5,363 -10,0 -319,0 -10,0 0,-153 10,0 92.606,0 c 13.51428,0 24.394,10.87973 24.394,24.39402 l 0,74.21196 C 157.5,322.12027 168.37972,333 181.894,333 l 0.409,0 c 13.51428,0 24.394,-10.87973 24.394,-24.39402 l 0.197,-84.21196 C 206.894,210.87973 217.77372,200 231.288,200 l 128.212,0 10,0 z"
       inkscape:connector-curvature="0"
       sodipodi:nodetypes="ccccccsssssccsccc" />
    <path
       id="path3167"
       style="fill:none;stroke:#000000;stroke-width:1px"
       d="m 369.5,200 -10,0 -128.212,0 c -13.51428,0 -24.394,10.87973 -24.394,24.39402 l -0.197,84.21196 C 206.697,322.12027 195.81728,333 182.303,333 l -0.409,0 C 168.37972,333 157.5,322.12027 157.5,308.60598 l 0,-74.21196 C 157.5,220.87973 146.62028,210 133.106,210 l -92.606,0 -10,0"
       inkscape:connector-curvature="0"
       sodipodi:nodetypes="cccccssssscc" />
  </g>
  <g
     inkscape:label="HNZL-009"
     id="g3169"
     inkscape:groupmode="layer"
     style="display:none">
    <path
       sodipodi:nodetypes="ccccccsssssccsccc"
       inkscape:connector-curvature="0"
       d="m 369.5,363 -10,0 -319,0 -10,0 0,-153 10,0 132.606,0 c 13.51428,0 24.394,10.87973 24.394,24.39402 l 0,14.21196 C 197.5,262.12027 208.37972,273 221.894,273 l 70.409,0 c 13.51428,0 24.394,-10.87973 24.394,-24.39402 l 0.197,-24.21196 C 316.894,210.87973 327.77372,200 341.288,200 l 18.212,0 10,0 z"
       style="fill:#ffffff;stroke:none"
       id="path3171" />
    <path
       sodipodi:nodetypes="cccccssssscc"
       inkscape:connector-curvature="0"
       d="m 369.5,200 -10,0 -18.212,0 c -13.51428,0 -24.394,10.87973 -24.394,24.39402 l -0.197,24.21196 C 316.697,262.12027 305.81728,273 292.303,273 l -70.409,0 C 208.37972,273 197.5,262.12027 197.5,248.60598 l 0,-14.21196 C 197.5,220.87973 186.62028,210 173.106,210 l -132.606,0 -10,0"
       style="fill:none;stroke:#000000;stroke-width:1px"
       id="path3174" />
  </g>
</svg>
