<?xml version="1.0" encoding="UTF-8" standalone="no"?>
<!-- Created with Inkscape (http://www.inkscape.org/) -->

<svg
   xmlns:dc="http://purl.org/dc/elements/1.1/"
   xmlns:cc="http://creativecommons.org/ns#"
   xmlns:rdf="http://www.w3.org/1999/02/22-rdf-syntax-ns#"
   xmlns:svg="http://www.w3.org/2000/svg"
   xmlns="http://www.w3.org/2000/svg"
   xmlns:sodipodi="http://sodipodi.sourceforge.net/DTD/sodipodi-0.dtd"
   xmlns:inkscape="http://www.inkscape.org/namespaces/inkscape"
   style="display:inline"
   sodipodi:docname="161211_Gti_00_UW_00_UW_.svg"
   inkscape:version="0.48.3.1 r9886"
   version="1.1"
   id="svg2902"
   height="400"
   width="400">
  <sodipodi:namedview
     id="base"
     pagecolor="#f0f0f0"
     bordercolor="#666666"
     borderopacity="1.0"
     inkscape:pageopacity="1"
     inkscape:pageshadow="2"
     inkscape:zoom="0.95575534"
     inkscape:cx="80.071299"
     inkscape:cy="124.31786"
     inkscape:document-units="px"
     inkscape:current-layer="layer1"
     showgrid="false"
     inkscape:window-width="1018"
     inkscape:window-height="709"
     inkscape:window-x="0"
     inkscape:window-y="1"
     inkscape:window-maximized="0"
     showguides="true"
     inkscape:guide-bbox="true"
     inkscape:snap-bbox="true"
     inkscape:snap-global="false" />
  <defs
     id="defs2904">
    <clipPath
       clipPathUnits="userSpaceOnUse"
       id="clipPath5174">
      <path
         id="path5176"
         style="opacity:0.5;fill:#00ff00;stroke:#00ff00;stroke-width:1px;stroke-linecap:square;display:inline"
         d="m 436.26971,600.11436 -232.09481,134 -169.500003,-293.58262 232.094813,-134 z"
         inkscape:connector-curvature="0"
         sodipodi:nodetypes="ccccc" />
    </clipPath>
    <clipPath
       clipPathUnits="userSpaceOnUse"
       id="clipPath5174-5">
      <path
         id="path5176-9"
         style="opacity:0.5;fill:#00ff00;stroke:#00ff00;stroke-width:1px;stroke-linecap:square;display:inline"
         d="m 436.26971,600.11436 -232.09481,134 -169.500003,-293.58262 232.094813,-134 z"
         inkscape:connector-curvature="0"
         sodipodi:nodetypes="ccccc" />
    </clipPath>
    <clipPath
       clipPathUnits="userSpaceOnUse"
       id="clipPath3238">
      <path
         sodipodi:nodetypes="ccccc"
         inkscape:connector-curvature="0"
         d="m 461.26971,643.41563 -232.09481,134 -169.500002,-293.58262 232.094812,-134 z"
         style="opacity:0.5;fill:#00ff00;stroke:#00ff00;stroke-width:1px;stroke-linecap:square;display:inline"
         id="path3240" />
    </clipPath>
  </defs>
  <metadata
     id="metadata2907">
    <rdf:RDF>
      <cc:Work
         rdf:about="">
        <dc:format>image/svg+xml</dc:format>
        <dc:type
           rdf:resource="http://purl.org/dc/dcmitype/StillImage" />
        <dc:title />
      </cc:Work>
    </rdf:RDF>
  </metadata>
  <g
     inkscape:groupmode="layer"
     id="bg"
     inkscape:label="XX_BG"
     sodipodi:insensitive="true">
    <path
       style="fill:#ffd5f6"
       d="M 400,0 400,400 0,400 0,0 z"
       id="bgrect"
       inkscape:connector-curvature="0" />
  </g>
  <g
     inkscape:label="XX_Referenz"
     inkscape:groupmode="layer"
     id="XX_referenz"
     style="display:inline"
     sodipodi:insensitive="true">
    <path
       id="innerframe"
       style="fill:none;stroke:#ff0000;stroke-width:1"
       d="m 40.5,40.5 319,0 0,319 -319,0 0,-319 z"
       inkscape:label="#innerframe"
       sodipodi:insensitive="true"
       inkscape:connector-curvature="0" />
    <path
       id="outerframe"
       style="fill:none;stroke:#ff0000;stroke-width:1"
       d="m 30.5,30.5 339,0 0,339 -339,0 0,-339 z"
       inkscape:label="#outerframe"
       sodipodi:nodetypes="ccccc"
       sodipodi:insensitive="true"
       inkscape:connector-curvature="0" />
    <path
       style="opacity:0.5;fill:none;stroke:#ffc200;stroke-width:1px;stroke-linecap:square"
       d="m 189,30.5 0,10"
       id="ref-S-top-1"
       sodipodi:insensitive="true"
       inkscape:connector-curvature="0" />
    <path
       style="opacity:0.5;fill:none;stroke:#ffc200;stroke-width:1px;stroke-linecap:square"
       d="m 191,30.5 0,10"
       id="ref-S-top-2"
       sodipodi:insensitive="true"
       inkscape:connector-curvature="0" />
    <path
       style="opacity:0.5;fill:none;stroke:#ffc200;stroke-width:1px;stroke-linecap:square"
       d="m 209,30.5 0,10"
       id="ref-S-top-3"
       sodipodi:insensitive="true"
       inkscape:connector-curvature="0" />
    <path
       style="opacity:0.5;fill:none;stroke:#ffc200;stroke-width:1px;stroke-linecap:square"
       d="m 211,30.5 0,10"
       id="ref-S-top-4"
       sodipodi:insensitive="true"
       inkscape:connector-curvature="0" />
    <path
       style="opacity:0.5;fill:none;stroke:#00ff00;stroke-width:1px;stroke-linecap:square"
       d="m 199,30.5 0,10"
       id="ref-I-top-1"
       sodipodi:insensitive="true"
       inkscape:connector-curvature="0" />
    <path
       style="opacity:0.5;fill:none;stroke:#00ff00;stroke-width:1px;stroke-linecap:square"
       d="m 201,30.5 0,10"
       id="ref-I-top-2"
       sodipodi:insensitive="true"
       inkscape:connector-curvature="0" />
    <path
       style="opacity:0.5;fill:none;stroke:#00ffcc;stroke-width:1px;stroke-linecap:square"
       d="m 66,30.5 0,10"
       id="ref-C-top-1"
       sodipodi:insensitive="true"
       inkscape:connector-curvature="0" />
    <path
       style="opacity:0.5;fill:none;stroke:#00ffcc;stroke-width:1px;stroke-linecap:square"
       d="m 68,30.5 0,10"
       id="ref-C-top-2"
       sodipodi:insensitive="true"
       inkscape:connector-curvature="0" />
    <path
       style="opacity:0.5;fill:none;stroke:#00ffcc;stroke-width:1px;stroke-linecap:square"
       d="m 92,30.5 0,10"
       id="ref-C-top-3"
       sodipodi:insensitive="true"
       inkscape:connector-curvature="0" />
    <path
       style="opacity:0.5;fill:none;stroke:#00ffcc;stroke-width:1px;stroke-linecap:square"
       d="m 94,30.5 0,10"
       id="ref-C-top-4"
       sodipodi:insensitive="true"
       inkscape:connector-curvature="0" />
    <path
       style="opacity:0.5;fill:none;stroke:#00ffcc;stroke-width:1px;stroke-linecap:square"
       d="m 306,30.5 0,10"
       id="ref-C-top-5"
       sodipodi:insensitive="true"
       inkscape:connector-curvature="0" />
    <path
       style="opacity:0.5;fill:none;stroke:#00ffcc;stroke-width:1px;stroke-linecap:square"
       d="m 308,30.5 0,10"
       id="ref-C-top-6"
       sodipodi:insensitive="true"
       inkscape:connector-curvature="0" />
    <path
       style="opacity:0.5;fill:none;stroke:#00ffcc;stroke-width:1px;stroke-linecap:square"
       d="m 332,30.5 0,10"
       id="ref-C-top-7"
       sodipodi:insensitive="true"
       inkscape:connector-curvature="0" />
    <path
       style="opacity:0.5;fill:none;stroke:#00ffcc;stroke-width:1px;stroke-linecap:square"
       d="m 334,30.5 0,10"
       id="ref-C-top-8"
       sodipodi:insensitive="true"
       inkscape:connector-curvature="0" />
    <path
       style="opacity:0.5;fill:none;stroke:#ffc200;stroke-width:1px;stroke-linecap:square"
       d="m 369.5,189 -10,0"
       id="ref-S-right-1"
       sodipodi:insensitive="true"
       inkscape:connector-curvature="0" />
    <path
       style="opacity:0.5;fill:none;stroke:#ffc200;stroke-width:1px;stroke-linecap:square"
       d="m 369.5,191 -10,0"
       id="ref-S-right-2"
       sodipodi:insensitive="true"
       inkscape:connector-curvature="0" />
    <path
       style="opacity:0.5;fill:none;stroke:#ffc200;stroke-width:1px;stroke-linecap:square"
       d="m 369.5,209 -10,0"
       id="ref-S-right-3"
       sodipodi:insensitive="true"
       inkscape:connector-curvature="0" />
    <path
       style="opacity:0.5;fill:none;stroke:#ffc200;stroke-width:1px;stroke-linecap:square"
       d="m 369.5,211 -10,0"
       id="ref-S-right-4"
       sodipodi:insensitive="true"
       inkscape:connector-curvature="0" />
    <path
       style="opacity:0.5;fill:none;stroke:#00ff00;stroke-width:1px;stroke-linecap:square"
       d="m 369.5,199 -10,0"
       id="ref-I-right-1"
       sodipodi:insensitive="true"
       inkscape:connector-curvature="0" />
    <path
       style="opacity:0.5;fill:none;stroke:#00ff00;stroke-width:1px;stroke-linecap:square"
       d="m 369.5,201 -10,0"
       id="ref-I-right-2"
       sodipodi:insensitive="true"
       inkscape:connector-curvature="0" />
    <path
       style="opacity:0.5;fill:none;stroke:#00ffcc;stroke-width:1px;stroke-linecap:square"
       d="m 369.5,66 -10,0"
       id="ref-C-right-1"
       sodipodi:insensitive="true"
       inkscape:connector-curvature="0" />
    <path
       style="opacity:0.5;fill:none;stroke:#00ffcc;stroke-width:1px;stroke-linecap:square"
       d="m 369.5,68 -10,0"
       id="ref-C-right-2"
       sodipodi:insensitive="true"
       inkscape:connector-curvature="0" />
    <path
       style="opacity:0.5;fill:none;stroke:#00ffcc;stroke-width:1px;stroke-linecap:square"
       d="m 369.5,92 -10,0"
       id="ref-C-right-3"
       sodipodi:insensitive="true"
       inkscape:connector-curvature="0" />
    <path
       style="opacity:0.5;fill:none;stroke:#00ffcc;stroke-width:1px;stroke-linecap:square"
       d="m 369.5,94 -10,0"
       id="ref-C-right-4"
       sodipodi:insensitive="true"
       inkscape:connector-curvature="0" />
    <path
       style="opacity:0.5;fill:none;stroke:#00ffcc;stroke-width:1px;stroke-linecap:square"
       d="m 369.5,306 -10,0"
       id="ref-C-right-5"
       sodipodi:insensitive="true"
       inkscape:connector-curvature="0" />
    <path
       style="opacity:0.5;fill:none;stroke:#00ffcc;stroke-width:1px;stroke-linecap:square"
       d="m 369.5,308 -10,0"
       id="ref-C-right-6"
       sodipodi:insensitive="true"
       inkscape:connector-curvature="0" />
    <path
       style="opacity:0.5;fill:none;stroke:#00ffcc;stroke-width:1px;stroke-linecap:square"
       d="m 369.5,332 -10,0"
       id="ref-C-right-7"
       sodipodi:insensitive="true"
       inkscape:connector-curvature="0" />
    <path
       style="opacity:0.5;fill:none;stroke:#00ffcc;stroke-width:1px;stroke-linecap:square"
       d="m 369.5,334 -10,0"
       id="ref-C-right-8"
       sodipodi:insensitive="true"
       inkscape:connector-curvature="0" />
    <path
       style="opacity:0.5;fill:none;stroke:#ffc200;stroke-width:1px;stroke-linecap:square"
       d="m 189,369.5 0,-10"
       id="ref-S-bottom-1"
       sodipodi:insensitive="true"
       inkscape:connector-curvature="0" />
    <path
       style="opacity:0.5;fill:none;stroke:#ffc200;stroke-width:1px;stroke-linecap:square"
       d="m 191,369.5 0,-10"
       id="ref-S-bottom-2"
       sodipodi:insensitive="true"
       inkscape:connector-curvature="0" />
    <path
       style="opacity:0.5;fill:none;stroke:#ffc200;stroke-width:1px;stroke-linecap:square"
       d="m 209,369.5 0,-10"
       id="ref-S-bottom-3"
       sodipodi:insensitive="true"
       inkscape:connector-curvature="0" />
    <path
       style="opacity:0.5;fill:none;stroke:#ffc200;stroke-width:1px;stroke-linecap:square"
       d="m 211,369.5 0,-10"
       id="ref-S-bottom-4"
       sodipodi:insensitive="true"
       inkscape:connector-curvature="0" />
    <path
       style="opacity:0.5;fill:none;stroke:#00ff00;stroke-width:1px;stroke-linecap:square"
       d="m 199,369.5 0,-10"
       id="ref-I-bottom-1"
       sodipodi:insensitive="true"
       inkscape:connector-curvature="0" />
    <path
       style="opacity:0.5;fill:none;stroke:#00ff00;stroke-width:1px;stroke-linecap:square"
       d="m 201,369.5 0,-10"
       id="ref-I-bottom-2"
       sodipodi:insensitive="true"
       inkscape:connector-curvature="0" />
    <path
       style="opacity:0.5;fill:none;stroke:#00ffcc;stroke-width:1px;stroke-linecap:square"
       d="m 66,369.5 0,-10"
       id="ref-C-bottom-1"
       sodipodi:insensitive="true"
       inkscape:connector-curvature="0" />
    <path
       style="opacity:0.5;fill:none;stroke:#00ffcc;stroke-width:1px;stroke-linecap:square"
       d="m 68,369.5 0,-10"
       id="ref-C-bottom-2"
       sodipodi:insensitive="true"
       inkscape:connector-curvature="0" />
    <path
       style="opacity:0.5;fill:none;stroke:#00ffcc;stroke-width:1px;stroke-linecap:square"
       d="m 92,369.5 0,-10"
       id="ref-C-bottom-3"
       sodipodi:insensitive="true"
       inkscape:connector-curvature="0" />
    <path
       style="opacity:0.5;fill:none;stroke:#00ffcc;stroke-width:1px;stroke-linecap:square"
       d="m 94,369.5 0,-10"
       id="ref-C-bottom-4"
       sodipodi:insensitive="true"
       inkscape:connector-curvature="0" />
    <path
       style="opacity:0.5;fill:none;stroke:#00ffcc;stroke-width:1px;stroke-linecap:square"
       d="m 306,369.5 0,-10"
       id="ref-C-bottom-5"
       sodipodi:insensitive="true"
       inkscape:connector-curvature="0" />
    <path
       style="opacity:0.5;fill:none;stroke:#00ffcc;stroke-width:1px;stroke-linecap:square"
       d="m 308,369.5 0,-10"
       id="ref-C-bottom-6"
       sodipodi:insensitive="true"
       inkscape:connector-curvature="0" />
    <path
       style="opacity:0.5;fill:none;stroke:#00ffcc;stroke-width:1px;stroke-linecap:square"
       d="m 332,369.5 0,-10"
       id="ref-C-bottom-7"
       sodipodi:insensitive="true"
       inkscape:connector-curvature="0" />
    <path
       style="opacity:0.5;fill:none;stroke:#00ffcc;stroke-width:1px;stroke-linecap:square"
       d="m 334,369.5 0,-10"
       id="ref-C-bottom-8"
       sodipodi:insensitive="true"
       inkscape:connector-curvature="0" />
    <path
       style="opacity:0.5;fill:none;stroke:#ffc200;stroke-width:1px;stroke-linecap:square"
       d="m 30.5,189 10,0"
       id="ref-S-left-1"
       sodipodi:insensitive="true"
       inkscape:connector-curvature="0" />
    <path
       style="opacity:0.5;fill:none;stroke:#ffc200;stroke-width:1px;stroke-linecap:square"
       d="m 30.5,191 10,0"
       id="ref-S-left-2"
       sodipodi:insensitive="true"
       inkscape:connector-curvature="0" />
    <path
       style="opacity:0.5;fill:none;stroke:#ffc200;stroke-width:1px;stroke-linecap:square"
       d="m 30.5,209 10,0"
       id="ref-S-left-3"
       sodipodi:insensitive="true"
       inkscape:connector-curvature="0" />
    <path
       style="opacity:0.5;fill:none;stroke:#ffc200;stroke-width:1px;stroke-linecap:square"
       d="m 30.5,211 10,0"
       id="ref-S-left-4"
       sodipodi:insensitive="true"
       inkscape:connector-curvature="0" />
    <path
       style="opacity:0.5;fill:none;stroke:#00ff00;stroke-width:1px;stroke-linecap:square"
       d="m 40.5,199 -10,0"
       id="ref-I-left-1"
       sodipodi:insensitive="true"
       inkscape:connector-curvature="0" />
    <path
       style="opacity:0.5;fill:none;stroke:#00ff00;stroke-width:1px;stroke-linecap:square"
       d="m 40.5,201 -10,0"
       id="ref-I-left-2"
       sodipodi:insensitive="true"
       inkscape:connector-curvature="0" />
    <path
       style="opacity:0.5;fill:none;stroke:#00ffcc;stroke-width:1px;stroke-linecap:square"
       d="m 30.5,66 10,0"
       id="ref-C-left-1"
       sodipodi:insensitive="true"
       inkscape:connector-curvature="0" />
    <path
       style="opacity:0.5;fill:none;stroke:#00ffcc;stroke-width:1px;stroke-linecap:square"
       d="m 30.5,68 10,0"
       id="ref-C-left-2"
       sodipodi:insensitive="true"
       inkscape:connector-curvature="0" />
    <path
       style="opacity:0.5;fill:none;stroke:#00ffcc;stroke-width:1px;stroke-linecap:square"
       d="m 30.5,92 10,0"
       id="ref-C-left-3"
       sodipodi:insensitive="true"
       inkscape:connector-curvature="0" />
    <path
       style="opacity:0.5;fill:none;stroke:#00ffcc;stroke-width:1px;stroke-linecap:square"
       d="m 30.5,94 10,0"
       id="ref-C-left-4"
       sodipodi:insensitive="true"
       inkscape:connector-curvature="0" />
    <path
       style="opacity:0.5;fill:none;stroke:#00ffcc;stroke-width:1px;stroke-linecap:square"
       d="m 30.5,306 10,0"
       id="ref-C-left-5"
       sodipodi:insensitive="true"
       inkscape:connector-curvature="0" />
    <path
       style="opacity:0.5;fill:none;stroke:#00ffcc;stroke-width:1px;stroke-linecap:square"
       d="m 30.5,308 10,0"
       id="ref-C-left-6"
       sodipodi:insensitive="true"
       inkscape:connector-curvature="0" />
    <path
       style="opacity:0.5;fill:none;stroke:#00ffcc;stroke-width:1px;stroke-linecap:square"
       d="m 30.5,332 10,0"
       id="ref-C-left-7"
       sodipodi:insensitive="true"
       inkscape:connector-curvature="0" />
    <path
       style="opacity:0.5;fill:none;stroke:#00ffcc;stroke-width:1px;stroke-linecap:square"
       d="m 30.5,334 10,0"
       id="ref-C-left-8"
       sodipodi:insensitive="true"
       inkscape:connector-curvature="0" />
    <path
       style="fill:none;stroke:#000000;stroke-width:1px;stroke-linecap:square"
       d="m 190,30.5 0,10"
       id="S-top-1"
       inkscape:connector-curvature="0" />
    <path
       style="fill:none;stroke:#000000;stroke-width:1px;stroke-linecap:square"
       d="m 210,30.5 0,10"
       id="S-top-2"
       inkscape:connector-curvature="0" />
    <path
       style="fill:none;stroke:#000000;stroke-width:1px;stroke-linecap:square"
       d="m 369.5,190 -10,0"
       id="S-right-1"
       inkscape:connector-curvature="0" />
    <path
       style="fill:none;stroke:#000000;stroke-width:1px;stroke-linecap:square"
       d="m 369.5,210 -10,0"
       id="S-right-2"
       inkscape:connector-curvature="0" />
    <path
       style="fill:none;stroke:#000000;stroke-width:1px;stroke-linecap:square"
       d="m 190,369.5 0,-10"
       id="S-bottom-1"
       inkscape:connector-curvature="0" />
    <path
       style="fill:none;stroke:#000000;stroke-width:1px;stroke-linecap:square"
       d="m 210,369.5 0,-10"
       id="S-bottom-2"
       inkscape:connector-curvature="0" />
    <path
       style="fill:none;stroke:#000000;stroke-width:1px;stroke-linecap:square"
       d="m 30.5,190 10,0"
       id="S-left-1"
       inkscape:connector-curvature="0" />
    <path
       style="fill:none;stroke:#000000;stroke-width:1px;stroke-linecap:square"
       d="m 30.5,210 10,0"
       id="S-left-2"
       inkscape:connector-curvature="0" />
    <path
       style="fill:none;stroke:#000000;stroke-width:1px;stroke-linecap:square"
       d="m 200,30.5 0,10"
       id="I-top-1"
       inkscape:connector-curvature="0" />
    <path
       style="fill:none;stroke:#000000;stroke-width:1px;stroke-linecap:square"
       d="m 369.5,200 -10,0"
       id="I-right-1"
       inkscape:connector-curvature="0" />
    <path
       style="fill:none;stroke:#000000;stroke-width:1px;stroke-linecap:square"
       d="m 200,369.5 0,-10"
       id="I-bottom-1"
       inkscape:connector-curvature="0" />
    <path
       style="fill:none;stroke:#000000;stroke-width:1px;stroke-linecap:square"
       d="m 40.5,200 -10,0"
       id="I-left-1"
       inkscape:connector-curvature="0" />
    <path
       style="fill:none;stroke:#000000;stroke-width:1px;stroke-linecap:square"
       d="m 67,30.5 0,10"
       id="C-top-1"
       inkscape:connector-curvature="0" />
    <path
       style="fill:none;stroke:#000000;stroke-width:1px;stroke-linecap:square"
       d="m 93,30.5 0,10"
       id="C-top-2"
       inkscape:connector-curvature="0" />
    <path
       style="fill:none;stroke:#000000;stroke-width:1px;stroke-linecap:square"
       d="m 307,30.5 0,10"
       id="C-top-3"
       inkscape:connector-curvature="0" />
    <path
       style="fill:none;stroke:#000000;stroke-width:1px;stroke-linecap:square"
       d="m 333,30.5 0,10"
       id="C-top-4"
       inkscape:connector-curvature="0" />
    <path
       style="fill:none;stroke:#000000;stroke-width:1px;stroke-linecap:square"
       d="m 369.5,67 -10,0"
       id="C-right-1"
       inkscape:connector-curvature="0" />
    <path
       style="fill:none;stroke:#000000;stroke-width:1px;stroke-linecap:square"
       d="m 369.5,93 -10,0"
       id="C-right-2"
       inkscape:connector-curvature="0" />
    <path
       style="fill:none;stroke:#000000;stroke-width:1px;stroke-linecap:square"
       d="m 369.5,307 -10,0"
       id="C-right-3"
       inkscape:connector-curvature="0" />
    <path
       style="fill:none;stroke:#000000;stroke-width:1px;stroke-linecap:square"
       d="m 369.5,333 -10,0"
       id="C-right-4"
       inkscape:connector-curvature="0" />
    <path
       style="fill:none;stroke:#000000;stroke-width:1px;stroke-linecap:square"
       d="m 67,369.5 0,-10"
       id="C-bottom-1"
       inkscape:connector-curvature="0" />
    <path
       style="fill:none;stroke:#000000;stroke-width:1px;stroke-linecap:square"
       d="m 93,369.5 0,-10"
       id="C-bottom-2"
       inkscape:connector-curvature="0" />
    <path
       style="fill:none;stroke:#000000;stroke-width:1px;stroke-linecap:square"
       d="m 307,369.5 0,-10"
       id="C-bottom-3"
       inkscape:connector-curvature="0" />
    <path
       style="fill:none;stroke:#000000;stroke-width:1px;stroke-linecap:square"
       d="m 333,369.5 0,-10"
       id="C-bottom-4"
       inkscape:connector-curvature="0" />
    <path
       style="fill:none;stroke:#000000;stroke-width:1px;stroke-linecap:square"
       d="m 30.5,67 10,0"
       id="C-left-1"
       inkscape:connector-curvature="0" />
    <path
       style="fill:none;stroke:#000000;stroke-width:1px;stroke-linecap:square"
       d="m 30.5,93 10,0"
       id="C-left-2"
       inkscape:connector-curvature="0" />
    <path
       style="fill:none;stroke:#000000;stroke-width:1px;stroke-linecap:square"
       d="m 30.5,307 10,0"
       id="C-left-3"
       inkscape:connector-curvature="0" />
    <path
       style="fill:none;stroke:#000000;stroke-width:1px;stroke-linecap:square"
       d="m 30.5,333 10,0"
       id="C-left-4"
       inkscape:connector-curvature="0" />
  </g>
  <g
     inkscape:groupmode="layer"
     id="layer8"
     inkscape:label="KONNEKT-001">
    <path
       sodipodi:nodetypes="ccccc"
       inkscape:connector-curvature="0"
       id="path3833"
       d="m 30.5,333 0,-266 339,0 0,266 z"
       style="fill:#ffffff;stroke:none;stroke-width:1px;stroke-linecap:square;display:inline" />
    <path
       style="fill:none;stroke:#000000;stroke-width:1px;stroke-linecap:square;display:inline"
       d="m 369.5,67 -10,0 -319,0 -10,0"
       id="C-right-1-8"
       inkscape:connector-curvature="0"
       sodipodi:nodetypes="cccc" />
    <path
       style="fill:none;stroke:#000000;stroke-width:1px;stroke-linecap:square;display:inline"
       d="m 369.5,333 -10,0 -319,0 -10,0"
       id="C-right-4-2"
       inkscape:connector-curvature="0"
       sodipodi:nodetypes="cccc" />
  </g>
  <g
     inkscape:groupmode="layer"
     id="layer1"
     inkscape:label="GTI-001"
     style="display:inline"
     zpos="500">
    <path
       style="fill:#ffffff;stroke:none;display:inline"
       d="m 6.756439,130.52546 c -8.041848,0 -14.563137,6.52129 -14.563137,14.56314 0,5.70808 3.279618,10.66812 8.061653,13.05481 l 0,29.90644 c -4.774046,2.39002 -8.061653,7.2487 -8.061653,12.95079 0,5.70193 3.28794,10.66513 8.061653,13.05482 l 0.05159,24.44526 c 0,18.31211 8.665649,25.86838 16.331352,31.36276 0,0 0.501138,0.17206 0.624134,0.20804 -11.235086,-2.88744 -22.214692,-0.31007 -25.64144,13.05481 0.912568,4.56261 7.006284,13.44031 33.70326,19.81627 l 0.936201,1.56034 c 1.154399,2.88583 19.653578,21.33982 32.350968,19.60822 17.77767,-3.15377 11.96873,-12.12508 2.70425,-15.86341 41.42654,2.01533 57.81382,-15.98931 64.23391,-24.54929 1.7792,-2.37246 3.03946,-5.11344 3.95286,-8.06174 l 1.8203,0 c 34.05195,0 34.06376,-35.78371 22.52094,-35.78371 -11.54333,0 -17.75255,7.74634 -21.79278,14.09504 l -0.78025,1.19626 c -0.48781,-7.10177 -1.66435,-12.37867 -1.66435,-12.37867 -11.16668,-55.41432 -90.753473,-44.83399 -117.337272,-4.26492 l 0,-23.97716 c 5.305142,-2.17449 9.050115,-7.43469 9.050115,-13.52292 0,-2.02785 -0.395285,-3.91515 -1.144412,-5.66922 L 56.89441,158.61151 c 1.7306,0.72566 3.67507,1.09241 5.66913,1.09224 8.04185,1.7e-4 14.56331,-6.52112 14.56314,-14.56314 0,-8.04168 -6.52129,-14.56297 -14.56314,-14.56313 -8.04151,1.6e-4 -14.5628,6.52162 -14.563133,14.56313 0,1.61676 0.241832,3.17601 0.728157,4.629 l -36.459936,36.45985 0,-27.66996 c 5.315794,-2.16966 9.049949,-7.37485 9.050115,-13.4709 0,-8.04185 -6.521622,-14.56297 -14.563136,-14.56314 z"
       id="path11620"
       inkscape:connector-curvature="0"
       sodipodi:nodetypes="csccscccccccccccsscccccscccccccccccc" />
    <path
       sodipodi:nodetypes="csc"
       inkscape:connector-curvature="0"
       id="path11622"
       style="fill:none;stroke:#000000;stroke-width:1px"
       d="m 131.35381,255.15619 c 4.18553,-7.35979 10.92452,-15.29977 22.46768,-15.29977 11.54282,0 11.77633,37.21926 -24.26186,35.82883" />
    <path
       inkscape:connector-curvature="0"
       id="path11624"
       style="fill:none;stroke:#000000;stroke-width:1px"
       d="m 25.622608,303.13006 c 1.154399,4.03745 20.271054,22.72227 32.968442,20.99067 12.69739,-1.73143 16.66572,-9.66916 2.6698,-15.79777"
       sodipodi:nodetypes="ccc" />
    <path
       inkscape:connector-curvature="0"
       style="fill:none;stroke:#000000;stroke-width:1px"
       d="m 104.18615,281.41163 c 13.85179,-15.58356 9.81156,-59.06309 -32.32051,-55.98419 -50.78956,4.61743 -33.474906,56.56139 -33.474906,56.56139 -13.851623,-13.27476 -40.97867,-21.35505 -46.749999,1.15423 1.154399,5.77133 10.389092,18.46872 59.447055,24.24038 49.0583,5.77133 67.52719,-14.42882 74.45308,-23.66335 10.38876,-13.85179 4.04007,-40.97783 4.04007,-40.97783 C 118.41409,187.32794 38.867573,197.95603 12.283773,238.5251"
       id="path11640" />
    <path
       inkscape:connector-curvature="0"
       style="fill:none;stroke:#000000;stroke-width:1px"
       d="m 12.283773,238.5251 0,-23.97941 c 5.304977,-2.17448 9.047453,-7.44567 9.047453,-13.53389 0,-2.02786 -0.428239,-3.90975 -1.177201,-5.66382 L 56.89474,158.60727 c 1.73077,0.72566 3.66974,1.10347 5.66381,1.1033 8.04185,1.7e-4 14.56397,-6.52179 14.5638,-14.5638 0,-8.04168 -6.52195,-14.5638 -14.5638,-14.56397 -8.04151,1.7e-4 -14.563635,6.52246 -14.563968,14.56397 0,1.61676 0.249321,3.18076 0.735647,4.63374 l -36.446456,36.44662 0,-27.65664 c 5.315795,-2.16966 9.047287,-7.36446 9.047453,-13.4605 0,-8.04185 -6.522454,-14.5638 -14.563969,-14.56397 -8.041847,0 -14.563969,6.52212 -14.563969,14.56397 0,5.70808 3.272129,10.6692 8.054164,13.05589 l 3.33e-4,29.86325 c -4.774046,2.39002 -8.054497,7.28057 -8.054497,12.98267 0,5.70192 3.280451,10.6662 8.054164,13.05589 l 0.03828,24.45741 c 0,18.31211 8.797965,25.94378 16.463668,31.43816"
       id="path11626" />
    <path
       inkscape:connector-curvature="0"
       id="path11567"
       style="fill:#000000;stroke:none"
       d="m 185.77236,255.94156 c -10.43081,0 -18.19916,5.12191 -18.19916,17.44836 0,9.28754 5.1193,15.7345 17.63711,15.7345 10.6091,0 17.81574,-6.25107 17.81574,-16.11826 0,-11.18179 -6.44852,-17.0646 -17.25369,-17.0646 z m -20.85483,87.03511 c -2.46815,3.0295 -4.92776,6.24793 -4.92776,10.04653 0,7.5782 9.66381,9.85865 22.93957,9.85865 10.99705,0 25.97639,-0.77014 25.97639,-10.99443 0,-6.07696 -7.20647,-6.45323 -16.31258,-7.02417 l -27.67562,-1.88658 z m 56.12033,-86.46225 c 3.40699,4.36187 7.01458,10.43011 7.01458,19.15107 0,21.04445 -16.49557,33.36672 -40.37834,33.36672 -6.07365,0 -11.57217,-0.75655 -14.9816,-1.70289 l -6.25874,10.04671 18.57822,1.13508 c 32.8038,2.08996 52.13577,3.03979 52.13577,28.24656 0,21.80866 -19.14462,34.12658 -52.13577,34.12658 -34.31567,0 -47.39763,-8.72253 -47.39763,-23.69786 0,-8.53535 3.79285,-13.07533 10.42855,-19.34121 -6.25891,-2.64557 -8.34155,-7.38284 -8.34155,-12.50405 0,-4.174 2.08264,-7.9651 5.50079,-11.56973 3.41152,-3.59888 7.20211,-7.20612 11.7529,-11.37593 -9.28911,-4.5494 -16.30596,-14.40875 -16.30596,-28.44141 0,-21.80099 14.41067,-36.77389 43.41308,-36.77389 8.15402,0 13.08614,0.75045 17.44749,1.89512 l 36.97343,0 0,16.11146 -17.44539,1.32767" />
    <path
       style="fill:#000000;stroke:none"
       d="m 348.51196,188.29123 c -10.8097,0 -17.04664,5.92255 -17.04664,16.71987 0,10.81092 6.23694,17.04682 17.04664,17.04682 10.99723,0 17.26467,-6.2359 17.26467,-17.04682 0,-10.79732 -6.26762,-16.71987 -17.26467,-16.71987 z m 16.88352,48.96162 -39.26748,0 -2.06957,17.26467 10.23893,3.59452 c 1.90174,0.56432 2.45072,1.89424 2.45072,3.97567 l 0,43.62447 c 0,21.43344 8.53762,30.49895 31.09812,30.49895 10.81179,0 22.77819,-3.59365 30.93465,-7.57019 l -5.11946,-16.66567 c -4.5508,1.70812 -10.04287,2.99552 -15.3584,2.99552 -10.23231,0 -12.90751,-4.33399 -12.90751,-15.5217 z"
       id="path11569"
       inkscape:connector-curvature="0"
       sodipodi:nodetypes="sssssccccccsccscc" />
    <path
       style="fill:#000000;stroke:none"
       d="m 262.11158,316.86295 c 0.0784,3.48089 -4.16302,2.74699 -6.51109,3.31567 -2.07044,0.27919 -4.14071,0.55822 -6.21116,0.83741 0,4.99242 0,9.98466 0,14.97708 18.02715,0 36.05412,0 54.08126,0 0,-4.99242 0,-9.98466 0,-14.97708 -3.96207,-0.65965 -8.05416,-0.80186 -11.91254,-1.88117 -1.56364,-2.10757 -0.54027,-5.1247 -0.83166,-7.63206 0,-18.90429 0,-37.80876 0,-56.71306 9.42208,0 18.84399,0 28.26608,0 0,-5.88194 0,-11.76388 0,-17.64582 -9.20494,-0.0645 -18.42363,0.12723 -27.61968,-0.0959 -1.24923,-1.74802 -0.39073,-4.361 -0.6464,-6.49628 0,-7.42431 0,-14.84845 0,-22.27259 -6.00847,0 -12.0199,0 -18.02662,0 l 5.2e-4,-3.5e-4 c -1.03557,9.91111 -3.18775,21.55718 -12.51764,27.07975 -3.8955,2.31426 -8.40202,3.34112 -12.86167,3.8549 0,5.19214 0,10.38428 0,15.57642 4.7181,0.068 9.45293,-0.13768 14.16023,0.10631 z"
       id="path11571"
       inkscape:connector-curvature="0"
       sodipodi:nodetypes="ccccccccccccccccccccc" />
    <path
       d="m 185.77238,255.94157 c -10.43082,0 -18.19916,5.12191 -18.19916,17.44837 0,9.28754 5.11929,15.73449 17.6371,15.73449 10.60911,0 17.81575,-6.25106 17.81575,-16.11826 0,-11.18178 -6.44853,-17.0646 -17.25369,-17.0646 z m -20.85484,87.03512 c -2.46815,3.0295 -4.92776,6.24792 -4.92776,10.04653 0,7.5782 9.66381,9.85865 22.93957,9.85865 10.99705,0 25.97639,-0.77014 25.97639,-10.99444 0,-6.07695 -7.20646,-6.45322 -16.31258,-7.02417 l -27.67562,-1.88657 z m 56.12033,-86.46226 c 3.407,4.36187 7.01459,10.43012 7.01459,19.15108 0,21.04445 -16.49558,33.36672 -40.37834,33.36672 -6.07365,0 -11.57218,-0.75655 -14.98161,-1.70289 l -6.25873,10.0467 18.57821,1.13509 c 32.8038,2.08996 52.13578,3.03978 52.13578,28.24656 0,21.80866 -19.14463,34.12658 -52.13578,34.12658 -34.31567,0 -47.39763,-8.72253 -47.39763,-23.69786 0,-8.53535 3.79285,-13.07534 10.42855,-19.34121 -6.25891,-2.64557 -8.34155,-7.38284 -8.34155,-12.50405 0,-4.174 2.08264,-7.96511 5.50079,-11.56973 3.41153,-3.59888 7.20211,-7.20612 11.7529,-11.37594 -9.28911,-4.5494 -16.30596,-14.40875 -16.30596,-28.4414 0,-21.801 14.41067,-36.77389 43.41308,-36.77389 8.15402,0 13.08614,0.75045 17.44749,1.89512 l 36.97344,0 0,16.11146 -17.4454,1.32766"
       style="fill:none;stroke:#000000;stroke-width:1px"
       id="path11573"
       inkscape:connector-curvature="0" />
    <path
       sodipodi:nodetypes="ccccccccccccccccccccc"
       inkscape:connector-curvature="0"
       id="path11575"
       d="m 262.11159,316.86296 c 0.0784,3.48089 -4.16302,2.747 -6.51109,3.31568 -2.07044,0.27919 -4.14071,0.55821 -6.21115,0.83741 0,4.99242 0,9.98466 0,14.97707 18.02714,0 36.05411,0 54.08126,0 0,-4.99241 0,-9.98465 0,-14.97707 -3.96208,-0.65965 -8.05416,-0.80186 -11.91254,-1.88118 -1.56364,-2.10756 -0.54027,-5.12469 -0.83166,-7.63205 0,-18.9043 0,-37.80877 0,-56.71306 9.42208,0 18.84399,0 28.26607,0 0,-5.88194 0,-11.76388 0,-17.64582 -9.20493,-0.0645 -18.42363,0.12722 -27.61967,-0.0959 -1.24924,-1.74803 -0.39074,-4.36101 -0.6464,-6.49628 0,-7.42432 0,-14.84846 0,-22.2726 -6.00847,0 -12.0199,0 -18.02663,0 l 5.3e-4,-3.5e-4 c -1.03557,9.91111 -3.18775,21.55718 -12.51764,27.07976 -3.8955,2.31426 -8.40203,3.34111 -12.86167,3.85489 0,5.19214 0,10.38428 0,15.57642 4.7181,0.068 9.45293,-0.13768 14.16022,0.10631 z"
       style="fill:none;stroke:#000000;stroke-width:1px" />
    <path
       sodipodi:nodetypes="sssssccccccsccscc"
       inkscape:connector-curvature="0"
       id="path11577"
       d="m 348.51198,188.29124 c -10.8097,0 -17.04665,5.92255 -17.04665,16.71988 0,10.81092 6.23695,17.04682 17.04665,17.04682 10.99722,0 17.26467,-6.2359 17.26467,-17.04682 0,-10.79733 -6.26762,-16.71988 -17.26467,-16.71988 z m 16.88352,48.96162 -39.26748,0 -2.06957,17.26467 10.23893,3.59452 c 1.90174,0.56432 2.45072,1.89425 2.45072,3.97567 l 0,43.62448 c 0,21.43344 8.53761,30.49895 31.09812,30.49895 10.81179,0 22.77819,-3.59365 30.93465,-7.57019 l -5.11947,-16.66567 c -4.55079,1.70811 -10.04286,2.99552 -15.35839,2.99552 -10.23232,0 -12.90751,-4.33399 -12.90751,-15.5217 z"
       style="fill:none;stroke:#000000;stroke-width:1px" />
    <path
       style="color:#000000;fill:#ffffff;fill-opacity:1;fill-rule:nonzero;stroke:#000000;stroke-width:1;stroke-linecap:round;stroke-linejoin:miter;stroke-miterlimit:4;stroke-opacity:1;stroke-dashoffset:0;marker:none;visibility:visible;display:inline;overflow:visible;enable-background:accumulate"
       d="M 147.63457,316.68279 349.96129,199.86938 374.12953,241.73011 171.80281,358.54353 z"
       id="path11579"
       inkscape:connector-curvature="0"
       sodipodi:nodetypes="ccccc" />
    <path
       sodipodi:nodetypes="cscsc"
       inkscape:connector-curvature="0"
       d="m 178.07255,318.41845 c 3.07404,-4.42556 -1.56535,-10.69209 -6.23184,-5.39973 -8.45241,9.58586 2.11779,42.78164 18.79167,16.27089 0,0 10.5563,-15.1444 3.42269,-15.89087 -7.88845,-0.82545 -2.98383,31.0995 10.23738,6.40316"
       style="fill:none;stroke:#ff0000;stroke-width:1px"
       id="path11583" />
    <path
       sodipodi:nodetypes="csccc"
       inkscape:connector-curvature="0"
       d="m 209.74575,307.42585 c -0.83847,-1.64563 -2.60357,-3.51057 -5.43737,-0.88753 -6.06627,5.615 1.85916,24.78518 10.77268,8.50974 2.72262,-4.66458 2.50957,-8.39643 2.05651,-15.46285 0.53052,5.11381 -0.54214,23.1004 9.43004,12.0638"
       style="fill:none;stroke:#ff0000;stroke-width:1px"
       id="path11585" />
    <path
       sodipodi:nodetypes="ccsc"
       inkscape:connector-curvature="0"
       id="path11587"
       d="m 231.3347,295.2894 c 5.11309,-10.51211 6.42771,-10.42616 8.64402,8.84717 -1.53467,-11.91021 -1.84792,-19.14165 3.9287,-19.75188 5.29232,-0.559 1.81886,21.92407 9.40172,11.23192"
       style="fill:none;stroke:#ff0000;stroke-width:1px" />
    <path
       sodipodi:nodetypes="cszccccc"
       inkscape:connector-curvature="0"
       d="m 258.03967,292.07262 c 0,0 9.60007,-17.68843 3.42865,-19.00908 -11.95635,-2.55861 0.24738,27.70298 6.61801,10.01055 6.37059,-17.69248 3.92005,-15.30838 4.44542,-17.23025 0.21334,2.43693 0.0724,0.85181 0.36691,1.11748 14.11945,3.86513 8.98331,18.91388 1.508,13.06922 11.82772,8.11826 10.38432,-20.95312 8.99354,-28.97137 1.97796,18.29611 3.55516,31.10424 9.77664,20.55268"
       style="fill:none;stroke:#ff0000;stroke-width:1px"
       id="path11589" />
    <path
       sodipodi:nodetypes="cc"
       inkscape:connector-curvature="0"
       id="path11591"
       d="m 279.04064,258.9064 9.9685,-6.84528"
       style="fill:none;stroke:#ff0000;stroke-width:1px" />
    <path
       sodipodi:nodetypes="ccczc"
       inkscape:connector-curvature="0"
       id="path11593"
       d="m 308.39595,272.06461 c 0,0 -2.31766,-19.92211 -2.57694,-26.58821 -1.07226,2.23944 -1.07094,2.11028 -2.92289,4.7212 3.54878,-3.36897 12.44667,-12.12338 12.50897,-3.96397 0.0623,8.15934 1.50989,16.32669 7.78164,4.72259"
       style="fill:none;stroke:#ff0000;stroke-width:1px" />
    <path
       sodipodi:nodetypes="csccsccc"
       inkscape:connector-curvature="0"
       d="m 331.07347,238.87904 c 0,0 -2.93647,-6.38337 -6.82147,-4.43688 -3.88497,1.94654 -5.39031,14.5314 0.29407,17.19974 10.1465,3.09329 6.29357,-13.98842 5.95635,-19.66926 0.39248,10.0587 8.44722,21.12813 10.07239,9.17204 1.55629,-11.44934 1.32141,-15.09126 0.89279,-18.01938 0.36456,2.87725 0.53234,3.21066 0.82683,3.47628 15.7835,-1.4998 13.44656,15.21862 4.6103,13.07535"
       style="fill:none;stroke:#ff0000;stroke-width:1px"
       id="path11595" />
    <path
       style="fill:none;stroke:#ff0000;stroke-width:1px"
       d="M 249.98439,282.30366 249.37,273.64167"
       id="path11597"
       inkscape:connector-curvature="0" />
    <path
       id="path11599"
       d="m 218.4375,291.7816 c 0.56896,0.98546 0.23135,2.24555 -0.75417,2.81454 -0.98542,0.56894 -2.2456,0.23132 -2.81455,-0.75414 -0.56898,-0.98549 -0.23128,-2.24565 0.75415,-2.81459 0.98552,-0.56899 2.2456,-0.23131 2.81457,0.75419 z"
       style="fill:none;stroke:#ff0000;stroke-width:1px"
       inkscape:connector-curvature="0" />
  </g>
</svg>
