<?xml version="1.0" encoding="UTF-8" standalone="no"?>
<!-- Created with Inkscape (http://www.inkscape.org/) -->

<svg
   xmlns:dc="http://purl.org/dc/elements/1.1/"
   xmlns:cc="http://creativecommons.org/ns#"
   xmlns:rdf="http://www.w3.org/1999/02/22-rdf-syntax-ns#"
   xmlns:svg="http://www.w3.org/2000/svg"
   xmlns="http://www.w3.org/2000/svg"
   xmlns:sodipodi="http://sodipodi.sourceforge.net/DTD/sodipodi-0.dtd"
   xmlns:inkscape="http://www.inkscape.org/namespaces/inkscape"
   style="display:inline"
   sodipodi:docname="170418_OOIUA-R+_00_00_II_UB_.svg"
   inkscape:version="0.48.3.1 r9886"
   version="1.1"
   id="svg2902"
   height="400"
   width="400">
  <sodipodi:namedview
     id="base"
     pagecolor="#f0f0f0"
     bordercolor="#666666"
     borderopacity="1.0"
     inkscape:pageopacity="1"
     inkscape:pageshadow="2"
     inkscape:zoom="1.538751"
     inkscape:cx="107.15742"
     inkscape:cy="213.91956"
     inkscape:document-units="px"
     inkscape:current-layer="layer2"
     showgrid="false"
     inkscape:window-width="1018"
     inkscape:window-height="709"
     inkscape:window-x="0"
     inkscape:window-y="1"
     inkscape:window-maximized="0"
     showguides="true"
     inkscape:guide-bbox="true"
     inkscape:snap-bbox="true"
     inkscape:snap-global="false" />
  <defs
     id="defs2904">
    <clipPath
       clipPathUnits="userSpaceOnUse"
       id="clipPath5174">
      <path
         id="path5176"
         style="opacity:0.5;fill:#00ff00;stroke:#00ff00;stroke-width:1px;stroke-linecap:square;display:inline"
         d="m 436.26971,600.11436 -232.09481,134 -169.500003,-293.58262 232.094813,-134 z"
         inkscape:connector-curvature="0"
         sodipodi:nodetypes="ccccc" />
    </clipPath>
    <clipPath
       clipPathUnits="userSpaceOnUse"
       id="clipPath5174-5">
      <path
         id="path5176-9"
         style="opacity:0.5;fill:#00ff00;stroke:#00ff00;stroke-width:1px;stroke-linecap:square;display:inline"
         d="m 436.26971,600.11436 -232.09481,134 -169.500003,-293.58262 232.094813,-134 z"
         inkscape:connector-curvature="0"
         sodipodi:nodetypes="ccccc" />
    </clipPath>
    <clipPath
       clipPathUnits="userSpaceOnUse"
       id="clipPath3238">
      <path
         sodipodi:nodetypes="ccccc"
         inkscape:connector-curvature="0"
         d="m 461.26971,643.41563 -232.09481,134 -169.500002,-293.58262 232.094812,-134 z"
         style="opacity:0.5;fill:#00ff00;stroke:#00ff00;stroke-width:1px;stroke-linecap:square;display:inline"
         id="path3240" />
    </clipPath>
  </defs>
  <metadata
     id="metadata2907">
    <rdf:RDF>
      <cc:Work
         rdf:about="">
        <dc:format>image/svg+xml</dc:format>
        <dc:type
           rdf:resource="http://purl.org/dc/dcmitype/StillImage" />
        <dc:title />
      </cc:Work>
    </rdf:RDF>
  </metadata>
  <g
     inkscape:groupmode="layer"
     id="bg"
     inkscape:label="XX_BG"
     sodipodi:insensitive="true">
    <path
       style="fill:#d7f4e3"
       d="M 400,0 400,400 0,400 0,0 z"
       id="bgrect"
       inkscape:connector-curvature="0" />
  </g>
  <g
     inkscape:label="XX_Referenz"
     inkscape:groupmode="layer"
     id="XX_referenz"
     style="display:inline"
     sodipodi:insensitive="true">
    <path
       id="innerframe"
       style="fill:none;stroke:#ff0000;stroke-width:1"
       d="m 40.5,40.5 319,0 0,319 -319,0 0,-319 z"
       inkscape:label="#innerframe"
       sodipodi:insensitive="true"
       inkscape:connector-curvature="0" />
    <path
       id="outerframe"
       style="fill:none;stroke:#ff0000;stroke-width:1"
       d="m 30.5,30.5 339,0 0,339 -339,0 0,-339 z"
       inkscape:label="#outerframe"
       sodipodi:nodetypes="ccccc"
       sodipodi:insensitive="true"
       inkscape:connector-curvature="0" />
    <path
       style="opacity:0.5;fill:none;stroke:#ffc200;stroke-width:1px;stroke-linecap:square"
       d="m 189,30.5 0,10"
       id="ref-S-top-1"
       sodipodi:insensitive="true"
       inkscape:connector-curvature="0" />
    <path
       style="opacity:0.5;fill:none;stroke:#ffc200;stroke-width:1px;stroke-linecap:square"
       d="m 191,30.5 0,10"
       id="ref-S-top-2"
       sodipodi:insensitive="true"
       inkscape:connector-curvature="0" />
    <path
       style="opacity:0.5;fill:none;stroke:#ffc200;stroke-width:1px;stroke-linecap:square"
       d="m 209,30.5 0,10"
       id="ref-S-top-3"
       sodipodi:insensitive="true"
       inkscape:connector-curvature="0" />
    <path
       style="opacity:0.5;fill:none;stroke:#ffc200;stroke-width:1px;stroke-linecap:square"
       d="m 211,30.5 0,10"
       id="ref-S-top-4"
       sodipodi:insensitive="true"
       inkscape:connector-curvature="0" />
    <path
       style="opacity:0.5;fill:none;stroke:#00ff00;stroke-width:1px;stroke-linecap:square"
       d="m 199,30.5 0,10"
       id="ref-I-top-1"
       sodipodi:insensitive="true"
       inkscape:connector-curvature="0" />
    <path
       style="opacity:0.5;fill:none;stroke:#00ff00;stroke-width:1px;stroke-linecap:square"
       d="m 201,30.5 0,10"
       id="ref-I-top-2"
       sodipodi:insensitive="true"
       inkscape:connector-curvature="0" />
    <path
       style="opacity:0.5;fill:none;stroke:#00ffcc;stroke-width:1px;stroke-linecap:square"
       d="m 66,30.5 0,10"
       id="ref-C-top-1"
       sodipodi:insensitive="true"
       inkscape:connector-curvature="0" />
    <path
       style="opacity:0.5;fill:none;stroke:#00ffcc;stroke-width:1px;stroke-linecap:square"
       d="m 68,30.5 0,10"
       id="ref-C-top-2"
       sodipodi:insensitive="true"
       inkscape:connector-curvature="0" />
    <path
       style="opacity:0.5;fill:none;stroke:#00ffcc;stroke-width:1px;stroke-linecap:square"
       d="m 92,30.5 0,10"
       id="ref-C-top-3"
       sodipodi:insensitive="true"
       inkscape:connector-curvature="0" />
    <path
       style="opacity:0.5;fill:none;stroke:#00ffcc;stroke-width:1px;stroke-linecap:square"
       d="m 94,30.5 0,10"
       id="ref-C-top-4"
       sodipodi:insensitive="true"
       inkscape:connector-curvature="0" />
    <path
       style="opacity:0.5;fill:none;stroke:#00ffcc;stroke-width:1px;stroke-linecap:square"
       d="m 306,30.5 0,10"
       id="ref-C-top-5"
       sodipodi:insensitive="true"
       inkscape:connector-curvature="0" />
    <path
       style="opacity:0.5;fill:none;stroke:#00ffcc;stroke-width:1px;stroke-linecap:square"
       d="m 308,30.5 0,10"
       id="ref-C-top-6"
       sodipodi:insensitive="true"
       inkscape:connector-curvature="0" />
    <path
       style="opacity:0.5;fill:none;stroke:#00ffcc;stroke-width:1px;stroke-linecap:square"
       d="m 332,30.5 0,10"
       id="ref-C-top-7"
       sodipodi:insensitive="true"
       inkscape:connector-curvature="0" />
    <path
       style="opacity:0.5;fill:none;stroke:#00ffcc;stroke-width:1px;stroke-linecap:square"
       d="m 334,30.5 0,10"
       id="ref-C-top-8"
       sodipodi:insensitive="true"
       inkscape:connector-curvature="0" />
    <path
       style="opacity:0.5;fill:none;stroke:#ffc200;stroke-width:1px;stroke-linecap:square"
       d="m 369.5,189 -10,0"
       id="ref-S-right-1"
       sodipodi:insensitive="true"
       inkscape:connector-curvature="0" />
    <path
       style="opacity:0.5;fill:none;stroke:#ffc200;stroke-width:1px;stroke-linecap:square"
       d="m 369.5,191 -10,0"
       id="ref-S-right-2"
       sodipodi:insensitive="true"
       inkscape:connector-curvature="0" />
    <path
       style="opacity:0.5;fill:none;stroke:#ffc200;stroke-width:1px;stroke-linecap:square"
       d="m 369.5,209 -10,0"
       id="ref-S-right-3"
       sodipodi:insensitive="true"
       inkscape:connector-curvature="0" />
    <path
       style="opacity:0.5;fill:none;stroke:#ffc200;stroke-width:1px;stroke-linecap:square"
       d="m 369.5,211 -10,0"
       id="ref-S-right-4"
       sodipodi:insensitive="true"
       inkscape:connector-curvature="0" />
    <path
       style="opacity:0.5;fill:none;stroke:#00ff00;stroke-width:1px;stroke-linecap:square"
       d="m 369.5,199 -10,0"
       id="ref-I-right-1"
       sodipodi:insensitive="true"
       inkscape:connector-curvature="0" />
    <path
       style="opacity:0.5;fill:none;stroke:#00ff00;stroke-width:1px;stroke-linecap:square"
       d="m 369.5,201 -10,0"
       id="ref-I-right-2"
       sodipodi:insensitive="true"
       inkscape:connector-curvature="0" />
    <path
       style="opacity:0.5;fill:none;stroke:#00ffcc;stroke-width:1px;stroke-linecap:square"
       d="m 369.5,66 -10,0"
       id="ref-C-right-1"
       sodipodi:insensitive="true"
       inkscape:connector-curvature="0" />
    <path
       style="opacity:0.5;fill:none;stroke:#00ffcc;stroke-width:1px;stroke-linecap:square"
       d="m 369.5,68 -10,0"
       id="ref-C-right-2"
       sodipodi:insensitive="true"
       inkscape:connector-curvature="0" />
    <path
       style="opacity:0.5;fill:none;stroke:#00ffcc;stroke-width:1px;stroke-linecap:square"
       d="m 369.5,92 -10,0"
       id="ref-C-right-3"
       sodipodi:insensitive="true"
       inkscape:connector-curvature="0" />
    <path
       style="opacity:0.5;fill:none;stroke:#00ffcc;stroke-width:1px;stroke-linecap:square"
       d="m 369.5,94 -10,0"
       id="ref-C-right-4"
       sodipodi:insensitive="true"
       inkscape:connector-curvature="0" />
    <path
       style="opacity:0.5;fill:none;stroke:#00ffcc;stroke-width:1px;stroke-linecap:square"
       d="m 369.5,306 -10,0"
       id="ref-C-right-5"
       sodipodi:insensitive="true"
       inkscape:connector-curvature="0" />
    <path
       style="opacity:0.5;fill:none;stroke:#00ffcc;stroke-width:1px;stroke-linecap:square"
       d="m 369.5,308 -10,0"
       id="ref-C-right-6"
       sodipodi:insensitive="true"
       inkscape:connector-curvature="0" />
    <path
       style="opacity:0.5;fill:none;stroke:#00ffcc;stroke-width:1px;stroke-linecap:square"
       d="m 369.5,332 -10,0"
       id="ref-C-right-7"
       sodipodi:insensitive="true"
       inkscape:connector-curvature="0" />
    <path
       style="opacity:0.5;fill:none;stroke:#00ffcc;stroke-width:1px;stroke-linecap:square"
       d="m 369.5,334 -10,0"
       id="ref-C-right-8"
       sodipodi:insensitive="true"
       inkscape:connector-curvature="0" />
    <path
       style="opacity:0.5;fill:none;stroke:#ffc200;stroke-width:1px;stroke-linecap:square"
       d="m 189,369.5 0,-10"
       id="ref-S-bottom-1"
       sodipodi:insensitive="true"
       inkscape:connector-curvature="0" />
    <path
       style="opacity:0.5;fill:none;stroke:#ffc200;stroke-width:1px;stroke-linecap:square"
       d="m 191,369.5 0,-10"
       id="ref-S-bottom-2"
       sodipodi:insensitive="true"
       inkscape:connector-curvature="0" />
    <path
       style="opacity:0.5;fill:none;stroke:#ffc200;stroke-width:1px;stroke-linecap:square"
       d="m 209,369.5 0,-10"
       id="ref-S-bottom-3"
       sodipodi:insensitive="true"
       inkscape:connector-curvature="0" />
    <path
       style="opacity:0.5;fill:none;stroke:#ffc200;stroke-width:1px;stroke-linecap:square"
       d="m 211,369.5 0,-10"
       id="ref-S-bottom-4"
       sodipodi:insensitive="true"
       inkscape:connector-curvature="0" />
    <path
       style="opacity:0.5;fill:none;stroke:#00ff00;stroke-width:1px;stroke-linecap:square"
       d="m 199,369.5 0,-10"
       id="ref-I-bottom-1"
       sodipodi:insensitive="true"
       inkscape:connector-curvature="0" />
    <path
       style="opacity:0.5;fill:none;stroke:#00ff00;stroke-width:1px;stroke-linecap:square"
       d="m 201,369.5 0,-10"
       id="ref-I-bottom-2"
       sodipodi:insensitive="true"
       inkscape:connector-curvature="0" />
    <path
       style="opacity:0.5;fill:none;stroke:#00ffcc;stroke-width:1px;stroke-linecap:square"
       d="m 66,369.5 0,-10"
       id="ref-C-bottom-1"
       sodipodi:insensitive="true"
       inkscape:connector-curvature="0" />
    <path
       style="opacity:0.5;fill:none;stroke:#00ffcc;stroke-width:1px;stroke-linecap:square"
       d="m 68,369.5 0,-10"
       id="ref-C-bottom-2"
       sodipodi:insensitive="true"
       inkscape:connector-curvature="0" />
    <path
       style="opacity:0.5;fill:none;stroke:#00ffcc;stroke-width:1px;stroke-linecap:square"
       d="m 92,369.5 0,-10"
       id="ref-C-bottom-3"
       sodipodi:insensitive="true"
       inkscape:connector-curvature="0" />
    <path
       style="opacity:0.5;fill:none;stroke:#00ffcc;stroke-width:1px;stroke-linecap:square"
       d="m 94,369.5 0,-10"
       id="ref-C-bottom-4"
       sodipodi:insensitive="true"
       inkscape:connector-curvature="0" />
    <path
       style="opacity:0.5;fill:none;stroke:#00ffcc;stroke-width:1px;stroke-linecap:square"
       d="m 306,369.5 0,-10"
       id="ref-C-bottom-5"
       sodipodi:insensitive="true"
       inkscape:connector-curvature="0" />
    <path
       style="opacity:0.5;fill:none;stroke:#00ffcc;stroke-width:1px;stroke-linecap:square"
       d="m 308,369.5 0,-10"
       id="ref-C-bottom-6"
       sodipodi:insensitive="true"
       inkscape:connector-curvature="0" />
    <path
       style="opacity:0.5;fill:none;stroke:#00ffcc;stroke-width:1px;stroke-linecap:square"
       d="m 332,369.5 0,-10"
       id="ref-C-bottom-7"
       sodipodi:insensitive="true"
       inkscape:connector-curvature="0" />
    <path
       style="opacity:0.5;fill:none;stroke:#00ffcc;stroke-width:1px;stroke-linecap:square"
       d="m 334,369.5 0,-10"
       id="ref-C-bottom-8"
       sodipodi:insensitive="true"
       inkscape:connector-curvature="0" />
    <path
       style="opacity:0.5;fill:none;stroke:#ffc200;stroke-width:1px;stroke-linecap:square"
       d="m 30.5,189 10,0"
       id="ref-S-left-1"
       sodipodi:insensitive="true"
       inkscape:connector-curvature="0" />
    <path
       style="opacity:0.5;fill:none;stroke:#ffc200;stroke-width:1px;stroke-linecap:square"
       d="m 30.5,191 10,0"
       id="ref-S-left-2"
       sodipodi:insensitive="true"
       inkscape:connector-curvature="0" />
    <path
       style="opacity:0.5;fill:none;stroke:#ffc200;stroke-width:1px;stroke-linecap:square"
       d="m 30.5,209 10,0"
       id="ref-S-left-3"
       sodipodi:insensitive="true"
       inkscape:connector-curvature="0" />
    <path
       style="opacity:0.5;fill:none;stroke:#ffc200;stroke-width:1px;stroke-linecap:square"
       d="m 30.5,211 10,0"
       id="ref-S-left-4"
       sodipodi:insensitive="true"
       inkscape:connector-curvature="0" />
    <path
       style="opacity:0.5;fill:none;stroke:#00ff00;stroke-width:1px;stroke-linecap:square"
       d="m 40.5,199 -10,0"
       id="ref-I-left-1"
       sodipodi:insensitive="true"
       inkscape:connector-curvature="0" />
    <path
       style="opacity:0.5;fill:none;stroke:#00ff00;stroke-width:1px;stroke-linecap:square"
       d="m 40.5,201 -10,0"
       id="ref-I-left-2"
       sodipodi:insensitive="true"
       inkscape:connector-curvature="0" />
    <path
       style="opacity:0.5;fill:none;stroke:#00ffcc;stroke-width:1px;stroke-linecap:square"
       d="m 30.5,66 10,0"
       id="ref-C-left-1"
       sodipodi:insensitive="true"
       inkscape:connector-curvature="0" />
    <path
       style="opacity:0.5;fill:none;stroke:#00ffcc;stroke-width:1px;stroke-linecap:square"
       d="m 30.5,68 10,0"
       id="ref-C-left-2"
       sodipodi:insensitive="true"
       inkscape:connector-curvature="0" />
    <path
       style="opacity:0.5;fill:none;stroke:#00ffcc;stroke-width:1px;stroke-linecap:square"
       d="m 30.5,92 10,0"
       id="ref-C-left-3"
       sodipodi:insensitive="true"
       inkscape:connector-curvature="0" />
    <path
       style="opacity:0.5;fill:none;stroke:#00ffcc;stroke-width:1px;stroke-linecap:square"
       d="m 30.5,94 10,0"
       id="ref-C-left-4"
       sodipodi:insensitive="true"
       inkscape:connector-curvature="0" />
    <path
       style="opacity:0.5;fill:none;stroke:#00ffcc;stroke-width:1px;stroke-linecap:square"
       d="m 30.5,306 10,0"
       id="ref-C-left-5"
       sodipodi:insensitive="true"
       inkscape:connector-curvature="0" />
    <path
       style="opacity:0.5;fill:none;stroke:#00ffcc;stroke-width:1px;stroke-linecap:square"
       d="m 30.5,308 10,0"
       id="ref-C-left-6"
       sodipodi:insensitive="true"
       inkscape:connector-curvature="0" />
    <path
       style="opacity:0.5;fill:none;stroke:#00ffcc;stroke-width:1px;stroke-linecap:square"
       d="m 30.5,332 10,0"
       id="ref-C-left-7"
       sodipodi:insensitive="true"
       inkscape:connector-curvature="0" />
    <path
       style="opacity:0.5;fill:none;stroke:#00ffcc;stroke-width:1px;stroke-linecap:square"
       d="m 30.5,334 10,0"
       id="ref-C-left-8"
       sodipodi:insensitive="true"
       inkscape:connector-curvature="0" />
    <path
       style="fill:none;stroke:#000000;stroke-width:1px;stroke-linecap:square"
       d="m 190,30.5 0,10"
       id="S-top-1"
       inkscape:connector-curvature="0" />
    <path
       style="fill:none;stroke:#000000;stroke-width:1px;stroke-linecap:square"
       d="m 210,30.5 0,10"
       id="S-top-2"
       inkscape:connector-curvature="0" />
    <path
       style="fill:none;stroke:#000000;stroke-width:1px;stroke-linecap:square"
       d="m 369.5,190 -10,0"
       id="S-right-1"
       inkscape:connector-curvature="0" />
    <path
       style="fill:none;stroke:#000000;stroke-width:1px;stroke-linecap:square"
       d="m 369.5,210 -10,0"
       id="S-right-2"
       inkscape:connector-curvature="0" />
    <path
       style="fill:none;stroke:#000000;stroke-width:1px;stroke-linecap:square"
       d="m 190,369.5 0,-10"
       id="S-bottom-1"
       inkscape:connector-curvature="0" />
    <path
       style="fill:none;stroke:#000000;stroke-width:1px;stroke-linecap:square"
       d="m 210,369.5 0,-10"
       id="S-bottom-2"
       inkscape:connector-curvature="0" />
    <path
       style="fill:none;stroke:#000000;stroke-width:1px;stroke-linecap:square"
       d="m 30.5,190 10,0"
       id="S-left-1"
       inkscape:connector-curvature="0" />
    <path
       style="fill:none;stroke:#000000;stroke-width:1px;stroke-linecap:square"
       d="m 30.5,210 10,0"
       id="S-left-2"
       inkscape:connector-curvature="0" />
    <path
       style="fill:none;stroke:#000000;stroke-width:1px;stroke-linecap:square"
       d="m 200,30.5 0,10"
       id="I-top-1"
       inkscape:connector-curvature="0" />
    <path
       style="fill:none;stroke:#000000;stroke-width:1px;stroke-linecap:square"
       d="m 369.5,200 -10,0"
       id="I-right-1"
       inkscape:connector-curvature="0" />
    <path
       style="fill:none;stroke:#000000;stroke-width:1px;stroke-linecap:square"
       d="m 200,369.5 0,-10"
       id="I-bottom-1"
       inkscape:connector-curvature="0" />
    <path
       style="fill:none;stroke:#000000;stroke-width:1px;stroke-linecap:square"
       d="m 40.5,200 -10,0"
       id="I-left-1"
       inkscape:connector-curvature="0" />
    <path
       style="fill:none;stroke:#000000;stroke-width:1px;stroke-linecap:square"
       d="m 67,30.5 0,10"
       id="C-top-1"
       inkscape:connector-curvature="0" />
    <path
       style="fill:none;stroke:#000000;stroke-width:1px;stroke-linecap:square"
       d="m 93,30.5 0,10"
       id="C-top-2"
       inkscape:connector-curvature="0" />
    <path
       style="fill:none;stroke:#000000;stroke-width:1px;stroke-linecap:square"
       d="m 307,30.5 0,10"
       id="C-top-3"
       inkscape:connector-curvature="0" />
    <path
       style="fill:none;stroke:#000000;stroke-width:1px;stroke-linecap:square"
       d="m 333,30.5 0,10"
       id="C-top-4"
       inkscape:connector-curvature="0" />
    <path
       style="fill:none;stroke:#000000;stroke-width:1px;stroke-linecap:square"
       d="m 369.5,67 -10,0"
       id="C-right-1"
       inkscape:connector-curvature="0" />
    <path
       style="fill:none;stroke:#000000;stroke-width:1px;stroke-linecap:square"
       d="m 369.5,93 -10,0"
       id="C-right-2"
       inkscape:connector-curvature="0" />
    <path
       style="fill:none;stroke:#000000;stroke-width:1px;stroke-linecap:square"
       d="m 369.5,307 -10,0"
       id="C-right-3"
       inkscape:connector-curvature="0" />
    <path
       style="fill:none;stroke:#000000;stroke-width:1px;stroke-linecap:square"
       d="m 369.5,333 -10,0"
       id="C-right-4"
       inkscape:connector-curvature="0" />
    <path
       style="fill:none;stroke:#000000;stroke-width:1px;stroke-linecap:square"
       d="m 67,369.5 0,-10"
       id="C-bottom-1"
       inkscape:connector-curvature="0" />
    <path
       style="fill:none;stroke:#000000;stroke-width:1px;stroke-linecap:square"
       d="m 93,369.5 0,-10"
       id="C-bottom-2"
       inkscape:connector-curvature="0" />
    <path
       style="fill:none;stroke:#000000;stroke-width:1px;stroke-linecap:square"
       d="m 307,369.5 0,-10"
       id="C-bottom-3"
       inkscape:connector-curvature="0" />
    <path
       style="fill:none;stroke:#000000;stroke-width:1px;stroke-linecap:square"
       d="m 333,369.5 0,-10"
       id="C-bottom-4"
       inkscape:connector-curvature="0" />
    <path
       style="fill:none;stroke:#000000;stroke-width:1px;stroke-linecap:square"
       d="m 30.5,67 10,0"
       id="C-left-1"
       inkscape:connector-curvature="0" />
    <path
       style="fill:none;stroke:#000000;stroke-width:1px;stroke-linecap:square"
       d="m 30.5,93 10,0"
       id="C-left-2"
       inkscape:connector-curvature="0" />
    <path
       style="fill:none;stroke:#000000;stroke-width:1px;stroke-linecap:square"
       d="m 30.5,307 10,0"
       id="C-left-3"
       inkscape:connector-curvature="0" />
    <path
       style="fill:none;stroke:#000000;stroke-width:1px;stroke-linecap:square"
       d="m 30.5,333 10,0"
       id="C-left-4"
       inkscape:connector-curvature="0" />
  </g>
  <g
     inkscape:groupmode="layer"
     id="layer2"
     inkscape:label="SCHWARZ-01"
     style="display:inline"
     zpos="-500">
    <path
       inkscape:connector-curvature="0"
       id="path3101"
       d="m 30,370 167,0 0,-340 -167,0 z"
       style="fill:#000000;stroke:none;display:inline"
       sodipodi:nodetypes="ccccc" />
  </g>
  <g
     style="opacity:0.5;display:none"
     inkscape:label="XX_COVER"
     id="g3124"
     inkscape:groupmode="layer"
     sodipodi:insensitive="true">
    <path
       sodipodi:nodetypes="ccccc"
       style="fill:#ff00ff;stroke:none;display:inline"
       d="m 29.5,370.5 340,0 0,-341 -340,0 z"
       id="path3126"
       inkscape:connector-curvature="0" />
  </g>
  <g
     inkscape:groupmode="layer"
     id="layer1"
     inkscape:label="XX_DOODLE"
     style="display:none"
     sodipodi:insensitive="true">
    <path
       style="fill:none;stroke:#ff0000;stroke-width:1px;stroke-linecap:square;display:inline"
       d="m 30.5,190 10,0"
       id="S-left-1-9"
       inkscape:connector-curvature="0" />
    <path
       style="fill:none;stroke:#ff0000;stroke-width:1px;stroke-linecap:square;display:inline"
       d="m 30.5,210 10,0 120,0"
       id="S-left-2-9"
       inkscape:connector-curvature="0"
       sodipodi:nodetypes="ccc" />
    <path
       style="fill:none;stroke:#ff0000;stroke-width:1px;stroke-linecap:square;display:inline"
       d="m 200,369.5 0,-10"
       id="I-bottom-1-7"
       inkscape:connector-curvature="0" />
    <rect
       style="color:#000000;fill:none;stroke:#ff0000;stroke-width:1px;marker:none;visibility:visible;display:inline;overflow:visible;enable-background:accumulate"
       id="rect3128"
       width="35"
       height="85"
       x="165"
       y="39.5"
       rx="17.5"
       ry="17.5" />
    <rect
       ry="17.5"
       rx="17.5"
       y="210"
       x="130"
       height="85"
       width="35"
       id="rect3130"
       style="color:#000000;fill:none;stroke:#00ff00;stroke-width:1px;marker:none;visibility:visible;display:inline;overflow:visible;enable-background:accumulate" />
    <rect
       style="color:#000000;fill:none;stroke:#ffff00;stroke-width:1px;marker:none;visibility:visible;display:inline;overflow:visible;enable-background:accumulate"
       id="rect3164-3"
       width="35"
       height="85"
       x="95"
       y="210"
       rx="17.5"
       ry="17.5" />
  </g>
  <g
     inkscape:groupmode="layer"
     id="g3294"
     inkscape:label="HZ-01"
     style="display:none"
     zpos="-490"
     sodipodi:insensitive="true">
    <path
       style="fill:#ffffff;stroke:none;display:inline"
       d="m 198.5,29.5 -169,0 0,160.375 1,0.125 168,0 z"
       id="path3296"
       inkscape:connector-curvature="0"
       sodipodi:nodetypes="cccccc" />
  </g>
  <g
     inkscape:groupmode="layer"
     id="layer6"
     inkscape:label="HZ-01"
     sodipodi:insensitive="true"
     style="display:none">
    <path
       style="fill:none;stroke:#000000;stroke-width:1px;stroke-linecap:square;display:inline"
       d="m 30.5,190 169,0"
       id="S-left-1-9-1"
       inkscape:connector-curvature="0"
       sodipodi:nodetypes="cc" />
  </g>
  <g
     zpos="-490"
     style="display:none"
     inkscape:label="HZ-02"
     id="g3356"
     inkscape:groupmode="layer"
     sodipodi:insensitive="true">
    <path
       style="fill:#ffffff;stroke:none;display:inline"
       d="m 29.5,29.5 0,160.375 1,0.125 12.25,0 c 31.358079,0 45.773464,-33 72.25,-33 26.47654,0 36.49852,33 72.25,33 l 11.25,0 0,-160.5 -169,0 z"
       id="path3358"
       inkscape:connector-curvature="0" />
  </g>
  <g
     inkscape:groupmode="layer"
     id="layer5"
     inkscape:label="HZ-02"
     style="display:none"
     sodipodi:insensitive="true">
    <path
       sodipodi:nodetypes="ccacc"
       inkscape:connector-curvature="0"
       id="path3362"
       d="m 30.5,190 12.25,0 c 31.358079,0 45.773464,-33 72.25,-33 26.47654,0 36.49852,33 72.25,33 l 12.25,0"
       style="fill:none;stroke:#000000;stroke-width:1px;stroke-linecap:square;display:inline" />
  </g>
  <g
     inkscape:groupmode="layer"
     id="g3477"
     inkscape:label="HZ-03"
     style="display:none"
     zpos="-490"
     sodipodi:insensitive="true">
    <path
       inkscape:connector-curvature="0"
       id="path3479"
       d="m 29.5,29.5 0,160.375 1,0.125 15.25,0 c 31.358079,0 44.820279,24.17031 69.25,24 23.48716,-0.16373 30.49852,-24 66.25,-24 l 17.25,0 0,-160.5 z"
       style="fill:#ffffff;stroke:none;display:inline"
       sodipodi:nodetypes="cccsasccc" />
  </g>
  <g
     style="display:none"
     inkscape:label="HZ-03"
     id="g3481"
     inkscape:groupmode="layer"
     sodipodi:insensitive="true">
    <path
       style="fill:none;stroke:#000000;stroke-width:1px;stroke-linecap:square;display:inline"
       d="m 30.5,190 15.25,0 c 31.358079,0 44.820279,24.17031 69.25,24 23.48716,-0.16373 30.49852,-24 66.25,-24 l 18.25,0"
       id="path3483"
       inkscape:connector-curvature="0"
       sodipodi:nodetypes="ccacc" />
  </g>
  <g
     inkscape:groupmode="layer"
     id="g3485"
     inkscape:label="HZ-04"
     style="display:inline"
     zpos="-490"
     sodipodi:insensitive="true">
    <path
       inkscape:connector-curvature="0"
       id="path3487"
       d="m 29.5,29.5 0,160.375 1,0.125 17.25,0 c 31.358079,0 36.761226,-62.22961 67.25,-62 30.00204,0.22595 29.49852,62 65.25,62 l 18.25,0 0,-160.5 z"
       style="fill:#ffffff;stroke:none;display:inline"
       sodipodi:nodetypes="cccsasccc" />
  </g>
  <g
     style="display:inline"
     inkscape:label="HZ-04"
     id="g3489"
     inkscape:groupmode="layer"
     sodipodi:insensitive="true">
    <path
       style="fill:none;stroke:#000000;stroke-width:1px;stroke-linecap:square;display:inline"
       d="m 30.5,190 17.25,0 c 31.358079,0 36.761226,-62.22961 67.25,-62 30.00204,0.22595 29.49852,62 65.25,62 l 19.25,0"
       id="path3491"
       inkscape:connector-curvature="0"
       sodipodi:nodetypes="ccacc" />
  </g>
  <g
     inkscape:groupmode="layer"
     id="layer3"
     inkscape:label="VERT-01"
     style="display:none"
     sodipodi:insensitive="true">
    <path
       style="fill:#ffffff;stroke:none;display:inline"
       d="M 182.5,39.5 C 172.805,39.5 165,47.305 165,57 l 0,220.5 c 0,9.695 -7.805,17.5 -17.5,17.5 -9.695,0 -17.5,-7.805 -17.5,-17.5 l 0,-50 c 0,-9.695 -7.805,-17.5 -17.5,-17.5 l -72,0 -10,0 -1,-3.65625 0,164.15625 174.3125,0 -3.8125,-1 0,-10 0,-302.5 c 0,-9.695 -7.805,-17.5 -17.5,-17.5 z"
       id="path3255"
       inkscape:connector-curvature="0"
       zpos="-485" />
    <path
       style="fill:none;stroke:#000000;stroke-width:1px;stroke-linecap:square;display:inline"
       d="m 200,369.5 0,-10 0,-302.5 c 0,-9.695 -7.805,-17.5 -17.5,-17.5 -9.695,0 -17.5,7.805 -17.5,17.5 l 0,220.5 c 0,9.695 -7.805,17.5 -17.5,17.5 -9.695,0 -17.5,-7.805 -17.5,-17.5 l 0,-50 c 0,-9.695 -7.805,-17.5 -17.5,-17.5 l -72,0 -10,0"
       id="I-bottom-1-7-8"
       inkscape:connector-curvature="0"
       sodipodi:nodetypes="cccsccsccccc" />
  </g>
  <g
     style="display:none"
     inkscape:label="VERT-02"
     id="g3360"
     inkscape:groupmode="layer"
     sodipodi:insensitive="true">
    <path
       inkscape:connector-curvature="0"
       id="path3364"
       d="M 172.5,39.5 C 162.805,39.5 155,47.305 155,57 l 0,220.5 c 0,9.695 -7.805,17.5 -17.5,17.5 l -40,0 C 87.805,295 80,287.195 80,277.5 l 0,-50 C 80,217.805 72.195,210 62.5,210 l -22,0 -10,0 -1,-3.65625 0,164.15625 174.3125,0 -3.8125,-1 0,-10 0,-302.5 c 0,-9.695 -7.805,-17.5 -17.5,-17.5 z"
       style="fill:#ffffff;stroke:none;display:inline"
       sodipodi:nodetypes="cssccssscccccccscc"
       zpos="-485" />
    <path
       sodipodi:nodetypes="cccccccccccccc"
       inkscape:connector-curvature="0"
       id="path3366"
       d="m 200,369.5 0,-10 0,-302.5 c 0,-9.695 -7.805,-17.5 -17.5,-17.5 l -10,0 C 162.805,39.5 155,47.305 155,57 l 0,220.5 c 0,9.695 -7.805,17.5 -17.5,17.5 l -40,0 C 87.805,295 80,287.195 80,277.5 l 0,-50 C 80,217.805 72.195,210 62.5,210 l -22,0 -10,0"
       style="fill:none;stroke:#000000;stroke-width:1px;stroke-linecap:square;display:inline" />
  </g>
  <g
     inkscape:groupmode="layer"
     id="g3445"
     inkscape:label="VERT-03"
     style="display:none"
     sodipodi:insensitive="true">
    <path
       sodipodi:nodetypes="cssccssscccccccscc"
       style="fill:#ffffff;stroke:none;display:inline"
       d="M 139.5,39.5 C 129.805,39.5 122,47.305 122,57 l 0,220.5 c 0,9.695 -7.805,17.5 -17.5,17.5 l -7,0 C 87.805,295 80,287.195 80,277.5 l 0,-50 C 80,217.805 72.195,210 62.5,210 l -22,0 -10,0 -1,-3.65625 0,164.15625 174.3125,0 -3.8125,-1 0,-10 0,-302.5 c 0,-9.695 -7.805,-17.5 -17.5,-17.5 z"
       id="path3447"
       inkscape:connector-curvature="0"
       zpos="-485" />
    <path
       style="fill:none;stroke:#000000;stroke-width:1px;stroke-linecap:square;display:inline"
       d="m 200,369.5 0,-10 0,-302.5 c 0,-9.695 -7.805,-17.5 -17.5,-17.5 l -43,0 C 129.805,39.5 122,47.305 122,57 l 0,220.5 c 0,9.695 -7.805,17.5 -17.5,17.5 l -7,0 C 87.805,295 80,287.195 80,277.5 l 0,-50 C 80,217.805 72.195,210 62.5,210 l -22,0 -10,0"
       id="path3449"
       inkscape:connector-curvature="0"
       sodipodi:nodetypes="cccccccccccccc" />
  </g>
  <g
     style="display:none"
     inkscape:label="VERT-04"
     id="g3451"
     inkscape:groupmode="layer"
     sodipodi:insensitive="true">
    <path
       style="fill:#ffffff;stroke:none;display:inline"
       d="m 200,370.5 0,-11 0,-302.5 c 0,-9.695 -7.805,-17.5 -17.5,-17.5 l -13,0 c -9.695,0 -17.5,7.805 -17.5,17.5 0,0 -28.02803,208.61862 -30,220.5 -1.97197,11.88138 -7.805,17.5 -17.5,17.5 l -7,0 C 87.805,295 80,287.195 80,277.5 l 0,-50 C 80,217.805 72.195,210 62.5,210 l -22,0 -11,0 0,160.5 z"
       id="path3457"
       inkscape:connector-curvature="0"
       sodipodi:nodetypes="cccccczccccccccc"
       zpos="-485" />
    <path
       sodipodi:nodetypes="cccccczccccccc"
       inkscape:connector-curvature="0"
       id="path3455"
       d="m 200,369.5 0,-10 0,-302.5 c 0,-9.695 -7.805,-17.5 -17.5,-17.5 l -13,0 c -9.695,0 -17.5,7.805 -17.5,17.5 0,0 -28.02803,208.61862 -30,220.5 -1.97197,11.88138 -7.805,17.5 -17.5,17.5 l -7,0 C 87.805,295 80,287.195 80,277.5 l 0,-50 C 80,217.805 72.195,210 62.5,210 l -22,0 -10,0"
       style="fill:none;stroke:#000000;stroke-width:1px;stroke-linecap:square;display:inline" />
  </g>
  <g
     inkscape:groupmode="layer"
     id="g3459"
     inkscape:label="VERT-05"
     style="display:none"
     sodipodi:insensitive="true">
    <path
       zpos="-485"
       sodipodi:nodetypes="cccccczccccccccc"
       inkscape:connector-curvature="0"
       id="path3461"
       d="m 200,370.5 0,-11 0,-302.5 c 0,-9.695 -7.805,-17.5 -17.5,-17.5 l -4,0 c -9.695,0 -17.5,7.805 -17.5,17.5 0,0 -28.02803,208.61862 -30,220.5 -1.97197,11.88138 -7.805,17.5 -17.5,17.5 l -16,0 C 87.805,295 80,287.195 80,277.5 l 0,-50 C 80,217.805 72.195,210 62.5,210 l -22,0 -11,0 0,160.5 z"
       style="fill:#ffffff;stroke:none;display:inline" />
    <path
       style="fill:none;stroke:#000000;stroke-width:1px;stroke-linecap:square;display:inline"
       d="m 200,369.5 0,-10 0,-302.5 c 0,-9.695 -7.805,-17.5 -17.5,-17.5 l -4,0 c -9.695,0 -17.5,7.805 -17.5,17.5 0,0 -28.02803,208.61862 -30,220.5 -1.97197,11.88138 -7.805,17.5 -17.5,17.5 l -16,0 C 87.805,295 80,287.195 80,277.5 l 0,-50 C 80,217.805 72.195,210 62.5,210 l -22,0 -10,0"
       id="path3463"
       inkscape:connector-curvature="0"
       sodipodi:nodetypes="cccccczccccccc" />
  </g>
  <g
     style="display:inline"
     inkscape:label="VERT-06"
     id="g3465"
     inkscape:groupmode="layer"
     sodipodi:insensitive="true">
    <path
       style="fill:#ffffff;stroke:none;display:inline"
       d="m 200,370.5 0,-11 0,-302.5 c 0,-9.695 -7.805,-17.5 -17.5,-17.5 l -17,0 c -9.695,0 -17.5,7.805 -17.5,17.5 0,0 -25.02803,208.61862 -27,220.5 -1.97197,11.88138 -7.805,17.5 -17.5,17.5 l -9,0 C 84.805,295 77,287.195 77,277.5 l 0,-50 C 77,217.805 69.195,210 59.5,210 l -19,0 -11,0 0,160.5 z"
       id="path3467"
       inkscape:connector-curvature="0"
       sodipodi:nodetypes="cccccczccccccccc"
       zpos="-485" />
    <path
       sodipodi:nodetypes="cccccczccccccc"
       inkscape:connector-curvature="0"
       id="path3469"
       d="m 200,369.5 0,-10 0,-302.5 c 0,-9.695 -7.805,-17.5 -17.5,-17.5 l -17,0 c -9.695,0 -17.5,7.805 -17.5,17.5 0,0 -25.02803,208.61862 -27,220.5 -1.97197,11.88138 -7.805,17.5 -17.5,17.5 l -9,0 C 84.805,295 77,287.195 77,277.5 l 0,-50 C 77,217.805 69.195,210 59.5,210 l -19,0 -10,0"
       style="fill:none;stroke:#000000;stroke-width:1px;stroke-linecap:square;display:inline" />
  </g>
  <g
     inkscape:groupmode="layer"
     id="g3471"
     inkscape:label="VERT-07"
     style="display:none"
     sodipodi:insensitive="true">
    <path
       zpos="-485"
       sodipodi:nodetypes="cccccczccccccccc"
       inkscape:connector-curvature="0"
       id="path3473"
       d="m 200,370.5 0,-11 0,-302.5 c 0,-9.695 -7.805,-17.5 -17.5,-17.5 l -107,0 C 65.805,39.5 58,47.305 58,57 c 0,0 64.97197,208.61862 63,220.5 -1.97197,11.88138 -7.805,17.5 -17.5,17.5 l -9,0 C 84.805,295 77,287.195 77,277.5 l 0,-50 C 77,217.805 69.195,210 59.5,210 l -19,0 -11,0 0,160.5 z"
       style="fill:#ffffff;stroke:none;display:inline" />
    <path
       style="fill:none;stroke:#000000;stroke-width:1px;stroke-linecap:square;display:inline"
       d="m 200,369.5 0,-10 0,-302.5 c 0,-9.695 -7.805,-17.5 -17.5,-17.5 l -107,0 C 65.805,39.5 58,47.305 58,57 c 0,0 64.97197,208.61862 63,220.5 -1.97197,11.88138 -7.805,17.5 -17.5,17.5 l -9,0 C 84.805,295 77,287.195 77,277.5 l 0,-50 C 77,217.805 69.195,210 59.5,210 l -19,0 -10,0"
       id="path3475"
       inkscape:connector-curvature="0"
       sodipodi:nodetypes="cccccczccccccc" />
  </g>
</svg>
