<?xml version="1.0" encoding="UTF-8" standalone="no"?>
<!-- Created with Inkscape (http://www.inkscape.org/) -->

<svg
   xmlns:dc="http://purl.org/dc/elements/1.1/"
   xmlns:cc="http://creativecommons.org/ns#"
   xmlns:rdf="http://www.w3.org/1999/02/22-rdf-syntax-ns#"
   xmlns:svg="http://www.w3.org/2000/svg"
   xmlns="http://www.w3.org/2000/svg"
   xmlns:sodipodi="http://sodipodi.sourceforge.net/DTD/sodipodi-0.dtd"
   xmlns:inkscape="http://www.inkscape.org/namespaces/inkscape"
   style="display:inline"
   sodipodi:docname="170726_Overlap-R+_SB_00_00_SB_.svg"
   inkscape:version="0.48.3.1 r9886"
   version="1.1"
   id="svg2902"
   height="400"
   width="400">
  <sodipodi:namedview
     id="base"
     pagecolor="#f0f0f0"
     bordercolor="#666666"
     borderopacity="1.0"
     inkscape:pageopacity="1"
     inkscape:pageshadow="2"
     inkscape:zoom="1.2722664"
     inkscape:cx="202.39983"
     inkscape:cy="175.79998"
     inkscape:document-units="px"
     inkscape:current-layer="g3956"
     showgrid="false"
     inkscape:window-width="1018"
     inkscape:window-height="709"
     inkscape:window-x="0"
     inkscape:window-y="1"
     inkscape:window-maximized="0"
     showguides="true"
     inkscape:guide-bbox="true"
     inkscape:snap-bbox="true"
     inkscape:snap-global="false" />
  <defs
     id="defs2904" />
  <metadata
     id="metadata2907">
    <rdf:RDF>
      <cc:Work
         rdf:about="">
        <dc:format>image/svg+xml</dc:format>
        <dc:type
           rdf:resource="http://purl.org/dc/dcmitype/StillImage" />
        <dc:title />
      </cc:Work>
    </rdf:RDF>
  </metadata>
  <g
     inkscape:groupmode="layer"
     id="bg"
     inkscape:label="XX_BG"
     sodipodi:insensitive="true">
    <path
       style="fill:#d5fff6"
       d="M 400,0 400,400 0,400 0,0 z"
       id="bgrect"
       inkscape:connector-curvature="0" />
  </g>
  <g
     inkscape:label="XX_REFERENZ"
     inkscape:groupmode="layer"
     id="XX_referenz"
     style="display:inline"
     sodipodi:insensitive="true">
    <path
       id="innerframe"
       style="fill:none;stroke:#ff0000;stroke-width:1"
       d="m 40.5,40.5 319,0 0,319 -319,0 0,-319 z"
       inkscape:label="#innerframe"
       sodipodi:insensitive="true"
       inkscape:connector-curvature="0" />
    <path
       id="outerframe"
       style="fill:none;stroke:#ff0000;stroke-width:1"
       d="m 30.5,30.5 339,0 0,339 -339,0 0,-339 z"
       inkscape:label="#outerframe"
       sodipodi:nodetypes="ccccc"
       sodipodi:insensitive="true"
       inkscape:connector-curvature="0" />
    <path
       style="opacity:0.5;fill:none;stroke:#ffc200;stroke-width:1px;stroke-linecap:square"
       d="m 189,30.5 0,10"
       id="ref-S-top-1"
       sodipodi:insensitive="true"
       inkscape:connector-curvature="0" />
    <path
       style="opacity:0.5;fill:none;stroke:#ffc200;stroke-width:1px;stroke-linecap:square"
       d="m 191,30.5 0,10"
       id="ref-S-top-2"
       sodipodi:insensitive="true"
       inkscape:connector-curvature="0" />
    <path
       style="opacity:0.5;fill:none;stroke:#ffc200;stroke-width:1px;stroke-linecap:square"
       d="m 209,30.5 0,10"
       id="ref-S-top-3"
       sodipodi:insensitive="true"
       inkscape:connector-curvature="0" />
    <path
       style="opacity:0.5;fill:none;stroke:#ffc200;stroke-width:1px;stroke-linecap:square"
       d="m 211,30.5 0,10"
       id="ref-S-top-4"
       sodipodi:insensitive="true"
       inkscape:connector-curvature="0" />
    <path
       style="opacity:0.5;fill:none;stroke:#00ff00;stroke-width:1px;stroke-linecap:square"
       d="m 199,30.5 0,10"
       id="ref-I-top-1"
       sodipodi:insensitive="true"
       inkscape:connector-curvature="0" />
    <path
       style="opacity:0.5;fill:none;stroke:#00ff00;stroke-width:1px;stroke-linecap:square"
       d="m 201,30.5 0,10"
       id="ref-I-top-2"
       sodipodi:insensitive="true"
       inkscape:connector-curvature="0" />
    <path
       style="opacity:0.5;fill:none;stroke:#00ffcc;stroke-width:1px;stroke-linecap:square"
       d="m 66,30.5 0,10"
       id="ref-C-top-1"
       sodipodi:insensitive="true"
       inkscape:connector-curvature="0" />
    <path
       style="opacity:0.5;fill:none;stroke:#00ffcc;stroke-width:1px;stroke-linecap:square"
       d="m 68,30.5 0,10"
       id="ref-C-top-2"
       sodipodi:insensitive="true"
       inkscape:connector-curvature="0" />
    <path
       style="opacity:0.5;fill:none;stroke:#00ffcc;stroke-width:1px;stroke-linecap:square"
       d="m 92,30.5 0,10"
       id="ref-C-top-3"
       sodipodi:insensitive="true"
       inkscape:connector-curvature="0" />
    <path
       style="opacity:0.5;fill:none;stroke:#00ffcc;stroke-width:1px;stroke-linecap:square"
       d="m 94,30.5 0,10"
       id="ref-C-top-4"
       sodipodi:insensitive="true"
       inkscape:connector-curvature="0" />
    <path
       style="opacity:0.5;fill:none;stroke:#00ffcc;stroke-width:1px;stroke-linecap:square"
       d="m 306,30.5 0,10"
       id="ref-C-top-5"
       sodipodi:insensitive="true"
       inkscape:connector-curvature="0" />
    <path
       style="opacity:0.5;fill:none;stroke:#00ffcc;stroke-width:1px;stroke-linecap:square"
       d="m 308,30.5 0,10"
       id="ref-C-top-6"
       sodipodi:insensitive="true"
       inkscape:connector-curvature="0" />
    <path
       style="opacity:0.5;fill:none;stroke:#00ffcc;stroke-width:1px;stroke-linecap:square"
       d="m 332,30.5 0,10"
       id="ref-C-top-7"
       sodipodi:insensitive="true"
       inkscape:connector-curvature="0" />
    <path
       style="opacity:0.5;fill:none;stroke:#00ffcc;stroke-width:1px;stroke-linecap:square"
       d="m 334,30.5 0,10"
       id="ref-C-top-8"
       sodipodi:insensitive="true"
       inkscape:connector-curvature="0" />
    <path
       style="opacity:0.5;fill:none;stroke:#ffc200;stroke-width:1px;stroke-linecap:square"
       d="m 369.5,189 -10,0"
       id="ref-S-right-1"
       sodipodi:insensitive="true"
       inkscape:connector-curvature="0" />
    <path
       style="opacity:0.5;fill:none;stroke:#ffc200;stroke-width:1px;stroke-linecap:square"
       d="m 369.5,191 -10,0"
       id="ref-S-right-2"
       sodipodi:insensitive="true"
       inkscape:connector-curvature="0" />
    <path
       style="opacity:0.5;fill:none;stroke:#ffc200;stroke-width:1px;stroke-linecap:square"
       d="m 369.5,209 -10,0"
       id="ref-S-right-3"
       sodipodi:insensitive="true"
       inkscape:connector-curvature="0" />
    <path
       style="opacity:0.5;fill:none;stroke:#ffc200;stroke-width:1px;stroke-linecap:square"
       d="m 369.5,211 -10,0"
       id="ref-S-right-4"
       sodipodi:insensitive="true"
       inkscape:connector-curvature="0" />
    <path
       style="opacity:0.5;fill:none;stroke:#00ff00;stroke-width:1px;stroke-linecap:square"
       d="m 369.5,199 -10,0"
       id="ref-I-right-1"
       sodipodi:insensitive="true"
       inkscape:connector-curvature="0" />
    <path
       style="opacity:0.5;fill:none;stroke:#00ff00;stroke-width:1px;stroke-linecap:square"
       d="m 369.5,201 -10,0"
       id="ref-I-right-2"
       sodipodi:insensitive="true"
       inkscape:connector-curvature="0" />
    <path
       style="opacity:0.5;fill:none;stroke:#00ffcc;stroke-width:1px;stroke-linecap:square"
       d="m 369.5,66 -10,0"
       id="ref-C-right-1"
       sodipodi:insensitive="true"
       inkscape:connector-curvature="0" />
    <path
       style="opacity:0.5;fill:none;stroke:#00ffcc;stroke-width:1px;stroke-linecap:square"
       d="m 369.5,68 -10,0"
       id="ref-C-right-2"
       sodipodi:insensitive="true"
       inkscape:connector-curvature="0" />
    <path
       style="opacity:0.5;fill:none;stroke:#00ffcc;stroke-width:1px;stroke-linecap:square"
       d="m 369.5,92 -10,0"
       id="ref-C-right-3"
       sodipodi:insensitive="true"
       inkscape:connector-curvature="0" />
    <path
       style="opacity:0.5;fill:none;stroke:#00ffcc;stroke-width:1px;stroke-linecap:square"
       d="m 369.5,94 -10,0"
       id="ref-C-right-4"
       sodipodi:insensitive="true"
       inkscape:connector-curvature="0" />
    <path
       style="opacity:0.5;fill:none;stroke:#00ffcc;stroke-width:1px;stroke-linecap:square"
       d="m 369.5,306 -10,0"
       id="ref-C-right-5"
       sodipodi:insensitive="true"
       inkscape:connector-curvature="0" />
    <path
       style="opacity:0.5;fill:none;stroke:#00ffcc;stroke-width:1px;stroke-linecap:square"
       d="m 369.5,308 -10,0"
       id="ref-C-right-6"
       sodipodi:insensitive="true"
       inkscape:connector-curvature="0" />
    <path
       style="opacity:0.5;fill:none;stroke:#00ffcc;stroke-width:1px;stroke-linecap:square"
       d="m 369.5,332 -10,0"
       id="ref-C-right-7"
       sodipodi:insensitive="true"
       inkscape:connector-curvature="0" />
    <path
       style="opacity:0.5;fill:none;stroke:#00ffcc;stroke-width:1px;stroke-linecap:square"
       d="m 369.5,334 -10,0"
       id="ref-C-right-8"
       sodipodi:insensitive="true"
       inkscape:connector-curvature="0" />
    <path
       style="opacity:0.5;fill:none;stroke:#ffc200;stroke-width:1px;stroke-linecap:square"
       d="m 189,369.5 0,-10"
       id="ref-S-bottom-1"
       sodipodi:insensitive="true"
       inkscape:connector-curvature="0" />
    <path
       style="opacity:0.5;fill:none;stroke:#ffc200;stroke-width:1px;stroke-linecap:square"
       d="m 191,369.5 0,-10"
       id="ref-S-bottom-2"
       sodipodi:insensitive="true"
       inkscape:connector-curvature="0" />
    <path
       style="opacity:0.5;fill:none;stroke:#ffc200;stroke-width:1px;stroke-linecap:square"
       d="m 209,369.5 0,-10"
       id="ref-S-bottom-3"
       sodipodi:insensitive="true"
       inkscape:connector-curvature="0" />
    <path
       style="opacity:0.5;fill:none;stroke:#ffc200;stroke-width:1px;stroke-linecap:square"
       d="m 211,369.5 0,-10"
       id="ref-S-bottom-4"
       sodipodi:insensitive="true"
       inkscape:connector-curvature="0" />
    <path
       style="opacity:0.5;fill:none;stroke:#00ff00;stroke-width:1px;stroke-linecap:square"
       d="m 199,369.5 0,-10"
       id="ref-I-bottom-1"
       sodipodi:insensitive="true"
       inkscape:connector-curvature="0" />
    <path
       style="opacity:0.5;fill:none;stroke:#00ff00;stroke-width:1px;stroke-linecap:square"
       d="m 201,369.5 0,-10"
       id="ref-I-bottom-2"
       sodipodi:insensitive="true"
       inkscape:connector-curvature="0" />
    <path
       style="opacity:0.5;fill:none;stroke:#00ffcc;stroke-width:1px;stroke-linecap:square"
       d="m 66,369.5 0,-10"
       id="ref-C-bottom-1"
       sodipodi:insensitive="true"
       inkscape:connector-curvature="0" />
    <path
       style="opacity:0.5;fill:none;stroke:#00ffcc;stroke-width:1px;stroke-linecap:square"
       d="m 68,369.5 0,-10"
       id="ref-C-bottom-2"
       sodipodi:insensitive="true"
       inkscape:connector-curvature="0" />
    <path
       style="opacity:0.5;fill:none;stroke:#00ffcc;stroke-width:1px;stroke-linecap:square"
       d="m 92,369.5 0,-10"
       id="ref-C-bottom-3"
       sodipodi:insensitive="true"
       inkscape:connector-curvature="0" />
    <path
       style="opacity:0.5;fill:none;stroke:#00ffcc;stroke-width:1px;stroke-linecap:square"
       d="m 94,369.5 0,-10"
       id="ref-C-bottom-4"
       sodipodi:insensitive="true"
       inkscape:connector-curvature="0" />
    <path
       style="opacity:0.5;fill:none;stroke:#00ffcc;stroke-width:1px;stroke-linecap:square"
       d="m 306,369.5 0,-10"
       id="ref-C-bottom-5"
       sodipodi:insensitive="true"
       inkscape:connector-curvature="0" />
    <path
       style="opacity:0.5;fill:none;stroke:#00ffcc;stroke-width:1px;stroke-linecap:square"
       d="m 308,369.5 0,-10"
       id="ref-C-bottom-6"
       sodipodi:insensitive="true"
       inkscape:connector-curvature="0" />
    <path
       style="opacity:0.5;fill:none;stroke:#00ffcc;stroke-width:1px;stroke-linecap:square"
       d="m 332,369.5 0,-10"
       id="ref-C-bottom-7"
       sodipodi:insensitive="true"
       inkscape:connector-curvature="0" />
    <path
       style="opacity:0.5;fill:none;stroke:#00ffcc;stroke-width:1px;stroke-linecap:square"
       d="m 334,369.5 0,-10"
       id="ref-C-bottom-8"
       sodipodi:insensitive="true"
       inkscape:connector-curvature="0" />
    <path
       style="opacity:0.5;fill:none;stroke:#ffc200;stroke-width:1px;stroke-linecap:square"
       d="m 30.5,189 10,0"
       id="ref-S-left-1"
       sodipodi:insensitive="true"
       inkscape:connector-curvature="0" />
    <path
       style="opacity:0.5;fill:none;stroke:#ffc200;stroke-width:1px;stroke-linecap:square"
       d="m 30.5,191 10,0"
       id="ref-S-left-2"
       sodipodi:insensitive="true"
       inkscape:connector-curvature="0" />
    <path
       style="opacity:0.5;fill:none;stroke:#ffc200;stroke-width:1px;stroke-linecap:square"
       d="m 30.5,209 10,0"
       id="ref-S-left-3"
       sodipodi:insensitive="true"
       inkscape:connector-curvature="0" />
    <path
       style="opacity:0.5;fill:none;stroke:#ffc200;stroke-width:1px;stroke-linecap:square"
       d="m 30.5,211 10,0"
       id="ref-S-left-4"
       sodipodi:insensitive="true"
       inkscape:connector-curvature="0" />
    <path
       style="opacity:0.5;fill:none;stroke:#00ff00;stroke-width:1px;stroke-linecap:square"
       d="m 40.5,199 -10,0"
       id="ref-I-left-1"
       sodipodi:insensitive="true"
       inkscape:connector-curvature="0" />
    <path
       style="opacity:0.5;fill:none;stroke:#00ff00;stroke-width:1px;stroke-linecap:square"
       d="m 40.5,201 -10,0"
       id="ref-I-left-2"
       sodipodi:insensitive="true"
       inkscape:connector-curvature="0" />
    <path
       style="opacity:0.5;fill:none;stroke:#00ffcc;stroke-width:1px;stroke-linecap:square"
       d="m 30.5,66 10,0"
       id="ref-C-left-1"
       sodipodi:insensitive="true"
       inkscape:connector-curvature="0" />
    <path
       style="opacity:0.5;fill:none;stroke:#00ffcc;stroke-width:1px;stroke-linecap:square"
       d="m 30.5,68 10,0"
       id="ref-C-left-2"
       sodipodi:insensitive="true"
       inkscape:connector-curvature="0" />
    <path
       style="opacity:0.5;fill:none;stroke:#00ffcc;stroke-width:1px;stroke-linecap:square"
       d="m 30.5,92 10,0"
       id="ref-C-left-3"
       sodipodi:insensitive="true"
       inkscape:connector-curvature="0" />
    <path
       style="opacity:0.5;fill:none;stroke:#00ffcc;stroke-width:1px;stroke-linecap:square"
       d="m 30.5,94 10,0"
       id="ref-C-left-4"
       sodipodi:insensitive="true"
       inkscape:connector-curvature="0" />
    <path
       style="opacity:0.5;fill:none;stroke:#00ffcc;stroke-width:1px;stroke-linecap:square"
       d="m 30.5,306 10,0"
       id="ref-C-left-5"
       sodipodi:insensitive="true"
       inkscape:connector-curvature="0" />
    <path
       style="opacity:0.5;fill:none;stroke:#00ffcc;stroke-width:1px;stroke-linecap:square"
       d="m 30.5,308 10,0"
       id="ref-C-left-6"
       sodipodi:insensitive="true"
       inkscape:connector-curvature="0" />
    <path
       style="opacity:0.5;fill:none;stroke:#00ffcc;stroke-width:1px;stroke-linecap:square"
       d="m 30.5,332 10,0"
       id="ref-C-left-7"
       sodipodi:insensitive="true"
       inkscape:connector-curvature="0" />
    <path
       style="opacity:0.5;fill:none;stroke:#00ffcc;stroke-width:1px;stroke-linecap:square"
       d="m 30.5,334 10,0"
       id="ref-C-left-8"
       sodipodi:insensitive="true"
       inkscape:connector-curvature="0" />
    <path
       style="fill:none;stroke:#000000;stroke-width:1px;stroke-linecap:square"
       d="m 190,30.5 0,10"
       id="S-top-1"
       inkscape:connector-curvature="0" />
    <path
       style="fill:none;stroke:#000000;stroke-width:1px;stroke-linecap:square"
       d="m 210,30.5 0,10"
       id="S-top-2"
       inkscape:connector-curvature="0" />
    <path
       style="fill:none;stroke:#000000;stroke-width:1px;stroke-linecap:square"
       d="m 369.5,190 -10,0"
       id="S-right-1"
       inkscape:connector-curvature="0" />
    <path
       style="fill:none;stroke:#000000;stroke-width:1px;stroke-linecap:square"
       d="m 369.5,210 -10,0"
       id="S-right-2"
       inkscape:connector-curvature="0" />
    <path
       style="fill:none;stroke:#000000;stroke-width:1px;stroke-linecap:square"
       d="m 190,369.5 0,-10"
       id="S-bottom-1"
       inkscape:connector-curvature="0" />
    <path
       style="fill:none;stroke:#000000;stroke-width:1px;stroke-linecap:square"
       d="m 210,369.5 0,-10"
       id="S-bottom-2"
       inkscape:connector-curvature="0" />
    <path
       style="fill:none;stroke:#000000;stroke-width:1px;stroke-linecap:square"
       d="m 30.5,190 10,0"
       id="S-left-1"
       inkscape:connector-curvature="0" />
    <path
       style="fill:none;stroke:#000000;stroke-width:1px;stroke-linecap:square"
       d="m 30.5,210 10,0"
       id="S-left-2"
       inkscape:connector-curvature="0" />
    <path
       style="fill:none;stroke:#000000;stroke-width:1px;stroke-linecap:square"
       d="m 200,30.5 0,10"
       id="I-top-1"
       inkscape:connector-curvature="0" />
    <path
       style="fill:none;stroke:#000000;stroke-width:1px;stroke-linecap:square"
       d="m 369.5,200 -10,0"
       id="I-right-1"
       inkscape:connector-curvature="0" />
    <path
       style="fill:none;stroke:#000000;stroke-width:1px;stroke-linecap:square"
       d="m 200,369.5 0,-10"
       id="I-bottom-1"
       inkscape:connector-curvature="0" />
    <path
       style="fill:none;stroke:#000000;stroke-width:1px;stroke-linecap:square"
       d="m 40.5,200 -10,0"
       id="I-left-1"
       inkscape:connector-curvature="0" />
    <path
       style="fill:none;stroke:#000000;stroke-width:1px;stroke-linecap:square"
       d="m 67,30.5 0,10"
       id="C-top-1"
       inkscape:connector-curvature="0" />
    <path
       style="fill:none;stroke:#000000;stroke-width:1px;stroke-linecap:square"
       d="m 93,30.5 0,10"
       id="C-top-2"
       inkscape:connector-curvature="0" />
    <path
       style="fill:none;stroke:#000000;stroke-width:1px;stroke-linecap:square"
       d="m 307,30.5 0,10"
       id="C-top-3"
       inkscape:connector-curvature="0" />
    <path
       style="fill:none;stroke:#000000;stroke-width:1px;stroke-linecap:square"
       d="m 333,30.5 0,10"
       id="C-top-4"
       inkscape:connector-curvature="0" />
    <path
       style="fill:none;stroke:#000000;stroke-width:1px;stroke-linecap:square"
       d="m 369.5,67 -10,0"
       id="C-right-1"
       inkscape:connector-curvature="0" />
    <path
       style="fill:none;stroke:#000000;stroke-width:1px;stroke-linecap:square"
       d="m 369.5,93 -10,0"
       id="C-right-2"
       inkscape:connector-curvature="0" />
    <path
       style="fill:none;stroke:#000000;stroke-width:1px;stroke-linecap:square"
       d="m 369.5,307 -10,0"
       id="C-right-3"
       inkscape:connector-curvature="0" />
    <path
       style="fill:none;stroke:#000000;stroke-width:1px;stroke-linecap:square"
       d="m 369.5,333 -10,0"
       id="C-right-4"
       inkscape:connector-curvature="0" />
    <path
       style="fill:none;stroke:#000000;stroke-width:1px;stroke-linecap:square"
       d="m 67,369.5 0,-10"
       id="C-bottom-1"
       inkscape:connector-curvature="0" />
    <path
       style="fill:none;stroke:#000000;stroke-width:1px;stroke-linecap:square"
       d="m 93,369.5 0,-10"
       id="C-bottom-2"
       inkscape:connector-curvature="0" />
    <path
       style="fill:none;stroke:#000000;stroke-width:1px;stroke-linecap:square"
       d="m 307,369.5 0,-10"
       id="C-bottom-3"
       inkscape:connector-curvature="0" />
    <path
       style="fill:none;stroke:#000000;stroke-width:1px;stroke-linecap:square"
       d="m 333,369.5 0,-10"
       id="C-bottom-4"
       inkscape:connector-curvature="0" />
    <path
       style="fill:none;stroke:#000000;stroke-width:1px;stroke-linecap:square"
       d="m 30.5,67 10,0"
       id="C-left-1"
       inkscape:connector-curvature="0" />
    <path
       style="fill:none;stroke:#000000;stroke-width:1px;stroke-linecap:square"
       d="m 30.5,93 10,0"
       id="C-left-2"
       inkscape:connector-curvature="0" />
    <path
       style="fill:none;stroke:#000000;stroke-width:1px;stroke-linecap:square"
       d="m 30.5,307 10,0"
       id="C-left-3"
       inkscape:connector-curvature="0" />
    <path
       style="fill:none;stroke:#000000;stroke-width:1px;stroke-linecap:square"
       d="m 30.5,333 10,0"
       id="C-left-4"
       inkscape:connector-curvature="0" />
  </g>
  <g
     style="display:none"
     inkscape:label="XX_DRAFT"
     id="g3162"
     inkscape:groupmode="layer">
    <path
       style="fill:none;stroke:#000000;stroke-width:1px;stroke-linecap:square;display:inline"
       d="m 190,30.5 0,200"
       id="S-top-1-5"
       inkscape:connector-curvature="0"
       sodipodi:nodetypes="cc" />
    <path
       style="fill:none;stroke:#000000;stroke-width:1px;stroke-linecap:square;display:inline"
       d="m 30.5,190 160,0"
       id="S-left-1-2"
       inkscape:connector-curvature="0"
       sodipodi:nodetypes="cc" />
    <path
       style="fill:#ffff00;stroke:none;display:inline"
       d="m 30.5,210 110,0 18,0 c 8.00813,0 14.50001,6.49187 14.50001,14.49999 L 173,244.415 173,276 c 0,2.48528 2.01472,4.5 4.5,4.5 l 3,0 c 2.48528,0 4.5,-2.01472 4.5,-4.5 l 0,-211 c 0,-2.48528 2.01472,-4.5 4.5,-4.5 l 4,0 c 2.48528,0 4.5,2.01472 4.5,4.5 l 0,196 c 0,2.48528 2.01472,4.5 4.5,4.5 l 3,0 c 2.48528,0 4.5,-2.01472 4.5,-4.5 l 0,-30.5 0,-200 106.88606,0 0,325.21369 -286.38606,0 z"
       id="path3571"
       inkscape:connector-curvature="0"
       sodipodi:nodetypes="cccccsccssccssccccccccc"
       zpos="-200" />
    <path
       sodipodi:nodetypes="ccccc"
       inkscape:connector-curvature="0"
       id="path3247"
       d="m -267.5,142 140,0 0,18 -140,0 z"
       style="fill:#ffff00;stroke:none;display:inline" />
    <path
       sodipodi:nodetypes="ccccc"
       inkscape:connector-curvature="0"
       id="path3215"
       d="m -179.5,300 -150,0 0,-110 150,0 z"
       style="fill:#00ff00;stroke:none;display:inline" />
    <path
       style="fill:#ffff00;stroke:none;display:inline"
       d="m -309.5,308 140,0 0,-18 -140,0 z"
       id="path3243"
       inkscape:connector-curvature="0"
       sodipodi:nodetypes="ccccc" />
    <path
       sodipodi:nodetypes="cc"
       inkscape:connector-curvature="0"
       id="path3168"
       d="m -329.5,190 150,0"
       style="fill:none;stroke:#000000;stroke-width:1px;stroke-linecap:square;display:inline" />
    <path
       style="fill:#00ff00;stroke:none;display:inline"
       d="m -170,30.5 0,264 20,0 0,-264 z"
       id="path3193"
       inkscape:connector-curvature="0"
       sodipodi:nodetypes="ccccc" />
    <path
       sodipodi:nodetypes="cc"
       inkscape:connector-curvature="0"
       id="path3164"
       d="m -170,30.5 0,180"
       style="fill:none;stroke:#000000;stroke-width:1px;stroke-linecap:square;display:inline" />
    <path
       sodipodi:nodetypes="cc"
       inkscape:connector-curvature="0"
       id="path3166"
       d="m -150,30.5 0,220"
       style="fill:none;stroke:#000000;stroke-width:1px;stroke-linecap:square;display:inline" />
    <path
       style="color:#000000;fill:#ffff00;stroke:none;stroke-width:1;marker:none;visibility:visible;display:inline;overflow:visible;enable-background:accumulate"
       d="m -168,308 0,-138 c 0,-5.54 -4.46,-10 -10,-10 l -13,0 0,148 z"
       id="path3199"
       inkscape:connector-curvature="0"
       sodipodi:nodetypes="cssccc" />
    <path
       sodipodi:nodetypes="cssccc"
       inkscape:connector-curvature="0"
       id="path3197"
       d="m -210,308 0,-138 c 0,-5.54 4.46,-10 10,-10 l 21,0 0,148 z"
       style="color:#000000;fill:#ffff00;stroke:none;stroke-width:1;marker:none;visibility:visible;display:inline;overflow:visible;enable-background:accumulate" />
    <path
       sodipodi:nodetypes="cc"
       inkscape:connector-curvature="0"
       id="path3249"
       d="m -217.5,160 38,0"
       style="fill:none;stroke:#ff0000;stroke-width:1px;stroke-linecap:square;display:inline" />
    <path
       style="fill:#ffff00;stroke:#ffff00;stroke-width:1"
       d="m -209.5,188 0,-18 c 0,-5.27165 4.22835,-9.5 9.5,-9.5 l 3.75,0 0,-1 -3.75,0 -14.25,0 -5.75,0 c -5.80835,0 -10.5,4.69165 -10.5,10.5 l 0,18 z"
       id="path3262"
       inkscape:connector-curvature="0"
       sodipodi:nodetypes="cssccccsscc" />
    <path
       style="color:#000000;fill:none;stroke:#ff00ff;stroke-width:1;stroke-linecap:round;stroke-linejoin:miter;stroke-miterlimit:4;stroke-opacity:1;stroke-dashoffset:0;marker:none;visibility:visible;display:inline;overflow:visible;enable-background:accumulate"
       d="m -210,230 0,-60 c 0,-5.54 4.46,-10 10,-10 l 5.74644,0"
       id="path3185"
       inkscape:connector-curvature="0"
       sodipodi:nodetypes="cssc" />
    <path
       style="color:#000000;fill:none;stroke:#ff00ff;stroke-width:1;stroke-linecap:round;stroke-linejoin:miter;stroke-miterlimit:4;stroke-opacity:1;stroke-dashoffset:0;marker:none;visibility:visible;display:inline;overflow:visible;enable-background:accumulate"
       d="m -168,240 0,-70 c 0,-5.54 -4.46,-10 -10,-10 l -6,0"
       id="rect3172"
       inkscape:connector-curvature="0"
       sodipodi:nodetypes="cssc" />
    <path
       id="path3207"
       d="m -99,290 -56,0 c 2.77,0 5,-2.23 5,-5 l 0,-40 51,0 z"
       style="color:#000000;fill:#00ffff;stroke:none;stroke-width:1;marker:none;visibility:visible;display:inline;overflow:visible;enable-background:accumulate"
       inkscape:connector-curvature="0"
       sodipodi:nodetypes="ccsccc" />
    <path
       inkscape:connector-curvature="0"
       id="path3211"
       d="m -167,245 0,40 c 0,2.77 2.23,5 5,5 l 63,0 0,18.28242 -72,0 L -171,245 z"
       style="color:#000000;fill:#00ffff;stroke:none;stroke-width:1;marker:none;visibility:visible;display:inline;overflow:visible;enable-background:accumulate"
       sodipodi:nodetypes="cssccccc" />
    <path
       style="color:#000000;fill:none;stroke:#0000ff;stroke-width:1;stroke-linecap:round;stroke-linejoin:miter;stroke-miterlimit:4;stroke-opacity:1;stroke-dashoffset:0;marker:none;visibility:visible;display:inline;overflow:visible;enable-background:accumulate"
       d="m -168,225 0,60 c 0,2.77 2.23,5 5,5 l 1.50798,0"
       id="rect3176"
       inkscape:connector-curvature="0"
       sodipodi:nodetypes="cssc" />
    <path
       style="color:#000000;fill:none;stroke:#0000ff;stroke-width:1;stroke-linecap:round;stroke-linejoin:miter;stroke-miterlimit:4;stroke-opacity:1;stroke-dashoffset:0;marker:none;visibility:visible;display:inline;overflow:visible;enable-background:accumulate"
       d="m -150,245 0,40 c 0,2.77 -2.23,5 -5,5 l -0.8976,0"
       id="path3203"
       inkscape:connector-curvature="0"
       sodipodi:nodetypes="cssc" />
    <path
       style="fill:none;stroke:#ff0000;stroke-width:1px;stroke-linecap:square;display:inline"
       d="m -259.5,290 60,0"
       id="path3239"
       inkscape:connector-curvature="0"
       sodipodi:nodetypes="cc" />
    <path
       sodipodi:nodetypes="cccsscc"
       inkscape:connector-curvature="0"
       style="color:#000000;fill:#ffd5d5;stroke:none;stroke-width:1;marker:none;visibility:visible;display:inline;overflow:visible;enable-background:accumulate"
       d="m -220,308 25,0 0,-63 -15,0 0,35 c 0,5.54 -4.46,10 -10,10 z"
       id="path3205-3" />
    <path
       style="color:#000000;fill:none;stroke:#0000ff;stroke-width:1;stroke-linecap:round;stroke-linejoin:miter;stroke-miterlimit:4;stroke-opacity:1;stroke-dashoffset:0;marker:none;visibility:visible;display:inline;overflow:visible;enable-background:accumulate"
       d="m -210,229 0,51 c 0,5.54 -4.46,10 -10,10"
       id="path3237"
       inkscape:connector-curvature="0" />
    <path
       sodipodi:nodetypes="cccccccc"
       inkscape:connector-curvature="0"
       style="color:#000000;fill:#00ffff;stroke:none;stroke-width:1;marker:none;visibility:visible;display:inline;overflow:visible;enable-background:accumulate"
       d="m -240,290 c -5.54,0 -10,-4.46 -10,-10 l 0,-60 c 0,-5.54 -4.46,-10 -10,-10 l -43,0 0,98 63,0 z"
       id="path3205" />
    <path
       style="color:#000000;fill:none;stroke:#0000ff;stroke-width:1;stroke-linecap:round;stroke-linejoin:miter;stroke-miterlimit:4;stroke-opacity:1;stroke-dashoffset:0;marker:none;visibility:visible;display:inline;overflow:visible;enable-background:accumulate"
       d="m -240,290 c -5.54,0 -10,-4.46 -10,-10 l 0,-60 c 0,-5.54 -4.46,-10 -10,-10 l -38.84331,0"
       id="path3181"
       inkscape:connector-curvature="0" />
    <path
       id="path3245"
       d="m -298,210 -33,0 0,98 33,0 z"
       style="color:#000000;fill:#ffd5d5;stroke:none;stroke-width:1;marker:none;visibility:visible;display:inline;overflow:visible;enable-background:accumulate"
       inkscape:connector-curvature="0"
       sodipodi:nodetypes="ccccc" />
    <path
       sodipodi:nodetypes="cc"
       inkscape:connector-curvature="0"
       id="path3170"
       d="m -329.5,210 60,0"
       style="fill:none;stroke:#000000;stroke-width:1px;stroke-linecap:square;display:inline" />
    <path
       style="fill:none;stroke:#000000;stroke-width:1px;stroke-linecap:square;display:inline"
       d="m -161.5,290 6,0"
       id="path3266"
       inkscape:connector-curvature="0"
       sodipodi:nodetypes="cc" />
    <path
       inkscape:connector-curvature="0"
       id="path3352"
       d="m 210,462 c 0,5.2467 -4.2533,9.5 -9.5,9.5 -5.24671,0 -9.5,-4.2533 -9.5,-9.5 0,-5.24671 4.25329,-9.5 9.5,-9.5 5.2467,0 9.5,4.25329 9.5,9.5 z"
       style="color:#000000;fill:none;stroke:#ff0000;stroke-width:1;marker:none;visibility:visible;display:inline;overflow:visible;enable-background:accumulate" />
    <path
       style="color:#000000;fill:none;stroke:#00ff00;stroke-width:1;marker:none;visibility:visible;display:inline;overflow:visible;enable-background:accumulate"
       d="m 191,442 c 0,5.2467 -4.2533,9.5 -9.5,9.5 -5.24671,0 -9.5,-4.2533 -9.5,-9.5 0,-5.24671 4.25329,-9.5 9.5,-9.5 5.2467,0 9.5,4.25329 9.5,9.5 z"
       id="path3354"
       inkscape:connector-curvature="0" />
    <path
       inkscape:connector-curvature="0"
       id="path3356"
       d="m 172,452 c 0,5.2467 -4.2533,9.5 -9.5,9.5 -5.24671,0 -9.5,-4.2533 -9.5,-9.5 0,-5.24671 4.25329,-9.5 9.5,-9.5 5.2467,0 9.5,4.25329 9.5,9.5 z"
       style="color:#000000;fill:none;stroke:#0000ff;stroke-width:1;marker:none;visibility:visible;display:inline;overflow:visible;enable-background:accumulate" />
    <path
       style="color:#000000;fill:none;stroke:#00ffff;stroke-width:1;marker:none;visibility:visible;display:inline;overflow:visible;enable-background:accumulate"
       d="m 153,442 c 0,5.2467 -4.2533,9.5 -9.5,9.5 -5.24671,0 -9.5,-4.2533 -9.5,-9.5 0,-5.24671 4.25329,-9.5 9.5,-9.5 5.2467,0 9.5,4.25329 9.5,9.5 z"
       id="path3358"
       inkscape:connector-curvature="0" />
    <path
       sodipodi:nodetypes="cccccsccssccssccccc"
       inkscape:connector-curvature="0"
       id="path3384"
       d="m 30.5,210 110,0 18,0 c 8.00813,0 14.50001,6.49187 14.50001,14.49999 L 173,244.415 173,276 c 0,2.48528 2.01472,4.5 4.5,4.5 l 3,0 c 2.48528,0 4.5,-2.01472 4.5,-4.5 l 0,-211 c 0,-2.48528 2.01472,-4.5 4.5,-4.5 l 4,0 c 2.48528,0 4.5,2.01472 4.5,4.5 l 0,196 c 0,2.48528 2.01472,4.5 4.5,4.5 l 3,0 c 2.48528,0 4.5,-2.01472 4.5,-4.5 l 0,-30.5 0,-200"
       style="fill:none;stroke:#00ff00;stroke-width:1px;stroke-linecap:square;display:inline" />
  </g>
  <g
     inkscape:groupmode="layer"
     id="g3388"
     inkscape:label="KONNEKTOR-001"
     style="display:none">
    <path
       sodipodi:nodetypes="ccccccc"
       inkscape:connector-curvature="0"
       id="path3460"
       d="m 190,30.5 30,0 0,309.5 -189.5,0 0,-150 159.5,0 z"
       style="fill:#000000;stroke:none;display:inline"
       zpos="-220" />
    <path
       sodipodi:nodetypes="cc"
       inkscape:connector-curvature="0"
       id="path3390"
       d="m 30.5,190 160,0"
       style="fill:none;stroke:#000000;stroke-width:1px;stroke-linecap:square;display:inline" />
    <path
       sodipodi:nodetypes="cc"
       inkscape:connector-curvature="0"
       id="path3392"
       d="m 190,30.5 0,200"
       style="fill:none;stroke:#000000;stroke-width:1px;stroke-linecap:square;display:inline" />
    <path
       style="fill:#ffffff;stroke:none;display:inline"
       d="m 173,276 c 0,2.48528 2.01472,4.5 4.5,4.5 l 3,0 c 2.48528,0 4.5,-2.01472 4.5,-4.5 l 0,-211 c 0,-2.48528 2.01472,-4.5 4.5,-4.5 l 4,0 c 2.48528,0 4.5,2.01472 4.5,4.5 l 0,196 c 0,2.48528 2.01472,4.5 4.5,4.5 l 3,0 c 2.48528,0 4.5,-2.01472 4.5,-4.5 l 0,-230.5 106.88606,0 0,325.21369 -286.38606,0 0,-145.71369 110,0 18,0 c 8.00813,0 14.50001,6.49187 14.50001,14.49999 z"
       id="path3571-1"
       inkscape:connector-curvature="0"
       sodipodi:nodetypes="cccssccsscccccccccccc"
       zpos="-200" />
    <path
       sodipodi:nodetypes="cccccccssccssccccc"
       inkscape:connector-curvature="0"
       id="path3384-2"
       d="m 30.5,210 110,0 18,0 c 8.00813,0 14.50001,6.49187 14.50001,14.49999 L 173,276 c 0,2.48528 2.01472,4.5 4.5,4.5 l 3,0 c 2.48528,0 4.5,-2.01472 4.5,-4.5 l 0,-211 c 0,-2.48528 2.01472,-4.5 4.5,-4.5 l 4,0 c 2.48528,0 4.5,2.01472 4.5,4.5 l 0,196 c 0,2.48528 2.01472,4.5 4.5,4.5 l 3,0 c 2.48528,0 4.5,-2.01472 4.5,-4.5 l 0,-219.5 0,-11"
       style="fill:none;stroke:#000000;stroke-width:1px;stroke-linecap:square;display:inline" />
  </g>
  <g
     style="display:none"
     inkscape:label="KONNEKTOR-002"
     id="g3664"
     inkscape:groupmode="layer">
    <path
       zpos="-220"
       style="fill:#000000;stroke:none;display:inline"
       d="m 190,30.5 30,0 0,309.5 -189.5,0 0,-150 159.5,0 z"
       id="path3666"
       inkscape:connector-curvature="0"
       sodipodi:nodetypes="ccccccc" />
    <path
       style="fill:none;stroke:#000000;stroke-width:1px;stroke-linecap:square;display:inline"
       d="m 30.5,190 160,0"
       id="path3668"
       inkscape:connector-curvature="0"
       sodipodi:nodetypes="cc" />
    <path
       style="fill:none;stroke:#000000;stroke-width:1px;stroke-linecap:square;display:inline"
       d="m 190,30.5 0,200"
       id="path3670"
       inkscape:connector-curvature="0"
       sodipodi:nodetypes="cc" />
    <path
       zpos="-200"
       sodipodi:nodetypes="cccssccsscccccccccccc"
       inkscape:connector-curvature="0"
       id="path3730"
       d="m 133,276 c 0,2.48528 2.01472,4.5 4.5,4.5 l 43,0 c 2.48528,0 4.5,-2.01472 4.5,-4.5 l 0,-211 c 0,-2.48528 2.01472,-4.5 4.5,-4.5 l 4,0 c 2.48528,0 4.5,2.01472 4.5,4.5 l 0,196 c 0,2.48528 2.01472,4.5 4.5,4.5 l 3,0 c 2.48528,0 4.5,-2.01472 4.5,-4.5 l 0,-230.5 106.88606,0 0,325.21369 -286.38606,0 0,-145.71369 70,0 18,0 c 8.00813,0 14.50001,6.49187 14.50001,14.49999 z"
       style="fill:#ffffff;stroke:none;display:inline" />
    <path
       style="fill:none;stroke:#000000;stroke-width:1px;stroke-linecap:square;display:inline"
       d="m 30.5,210 70,0 18,0 c 8.00813,0 14.50001,6.49187 14.50001,14.49999 L 133,276 c 0,2.48528 2.01472,4.5 4.5,4.5 l 43,0 c 2.48528,0 4.5,-2.01472 4.5,-4.5 l 0,-211 c 0,-2.48528 2.01472,-4.5 4.5,-4.5 l 4,0 c 2.48528,0 4.5,2.01472 4.5,4.5 l 0,196 c 0,2.48528 2.01472,4.5 4.5,4.5 l 3,0 c 2.48528,0 4.5,-2.01472 4.5,-4.5 l 0,-219.5 0,-11"
       id="path3732"
       inkscape:connector-curvature="0"
       sodipodi:nodetypes="cccccccssccssccccc" />
  </g>
  <g
     inkscape:groupmode="layer"
     id="g3734"
     inkscape:label="KONNEKTOR-003"
     style="display:none">
    <path
       sodipodi:nodetypes="ccccccc"
       inkscape:connector-curvature="0"
       id="path3736"
       d="m 190,30.5 30,0 0,309.5 -189.5,0 0,-150 159.5,0 z"
       style="fill:#000000;stroke:none;display:inline"
       zpos="-220" />
    <path
       sodipodi:nodetypes="cc"
       inkscape:connector-curvature="0"
       id="path3738"
       d="m 30.5,190 160,0"
       style="fill:none;stroke:#000000;stroke-width:1px;stroke-linecap:square;display:inline" />
    <path
       sodipodi:nodetypes="cc"
       inkscape:connector-curvature="0"
       id="path3740"
       d="m 190,30.5 0,200"
       style="fill:none;stroke:#000000;stroke-width:1px;stroke-linecap:square;display:inline" />
    <path
       style="fill:#ffffff;stroke:none;display:inline"
       d="m 133,326 c 0,2.48528 2.01472,4.5 4.5,4.5 l 33,0 c 2.48528,0 4.5,-2.01472 4.5,-4.5 l 0,-261 c 0,-2.48528 2.01472,-4.5 4.5,-4.5 l 14,0 c 2.48528,0 4.5,2.01472 4.5,4.5 l 0,196 c 0,2.48528 2.01472,4.5 4.5,4.5 l 3,0 c 2.48528,0 4.5,-2.01472 4.5,-4.5 l 0,-230.5 106.88606,0 0,325.21369 -286.38606,0 0,-145.71369 70,0 18,0 c 8.00813,0 14.50001,6.49187 14.50001,14.49999 z"
       id="path3800"
       inkscape:connector-curvature="0"
       sodipodi:nodetypes="cccssccsscccccccccccc"
       zpos="-200" />
    <path
       sodipodi:nodetypes="cccccccssccssccccc"
       inkscape:connector-curvature="0"
       id="path3802"
       d="m 30.5,210 70,0 18,0 c 8.00813,0 14.50001,6.49187 14.50001,14.49999 L 133,326 c 0,2.48528 2.01472,4.5 4.5,4.5 l 33,0 c 2.48528,0 4.5,-2.01472 4.5,-4.5 l 0,-261 c 0,-2.48528 2.01472,-4.5 4.5,-4.5 l 14,0 c 2.48528,0 4.5,2.01472 4.5,4.5 l 0,196 c 0,2.48528 2.01472,4.5 4.5,4.5 l 3,0 c 2.48528,0 4.5,-2.01472 4.5,-4.5 l 0,-219.5 0,-11"
       style="fill:none;stroke:#000000;stroke-width:1px;stroke-linecap:square;display:inline" />
  </g>
  <g
     style="display:none"
     inkscape:label="KONNEKTOR-004"
     id="g3804"
     inkscape:groupmode="layer">
    <path
       zpos="-220"
       style="fill:#000000;stroke:none;display:inline"
       d="m 190,30.5 30,0 0,309.5 -189.5,0 0,-150 159.5,0 z"
       id="path3806"
       inkscape:connector-curvature="0"
       sodipodi:nodetypes="ccccccc" />
    <path
       style="fill:none;stroke:#000000;stroke-width:1px;stroke-linecap:square;display:inline"
       d="m 30.5,190 160,0"
       id="path3808"
       inkscape:connector-curvature="0"
       sodipodi:nodetypes="cc" />
    <path
       style="fill:none;stroke:#000000;stroke-width:1px;stroke-linecap:square;display:inline"
       d="m 190,30.5 0,200"
       id="path3810"
       inkscape:connector-curvature="0"
       sodipodi:nodetypes="cc" />
    <path
       zpos="-200"
       sodipodi:nodetypes="cccssccsscccccccccccc"
       inkscape:connector-curvature="0"
       id="path3870"
       d="m 133,326 c 0,2.48528 2.01472,4.5 4.5,4.5 l 33,0 c 2.48528,0 4.5,-2.01472 4.5,-4.5 l 0,-261 c 0,-2.48528 2.01472,-4.5 4.5,-4.5 l 14,0 c 2.48528,0 4.5,2.01472 4.5,4.5 l 0,46 c 0,2.48528 2.01472,4.5 4.5,4.5 l 3,0 c 2.48528,0 4.5,-2.01472 4.5,-4.5 l 0,-80.5 106.88606,0 0,325.21369 -286.38606,0 0,-145.71369 70,0 18,0 c 8.00813,0 14.50001,6.49187 14.50001,14.49999 z"
       style="fill:#ffffff;stroke:none;display:inline" />
    <path
       style="fill:none;stroke:#000000;stroke-width:1px;stroke-linecap:square;display:inline"
       d="m 30.5,210 70,0 18,0 c 8.00813,0 14.50001,6.49187 14.50001,14.49999 L 133,326 c 0,2.48528 2.01472,4.5 4.5,4.5 l 33,0 c 2.48528,0 4.5,-2.01472 4.5,-4.5 l 0,-261 c 0,-2.48528 2.01472,-4.5 4.5,-4.5 l 14,0 c 2.48528,0 4.5,2.01472 4.5,4.5 l 0,46 c 0,2.48528 2.01472,4.5 4.5,4.5 l 3,0 c 2.48528,0 4.5,-2.01472 4.5,-4.5 l 0,-69.5 0,-11"
       id="path3872"
       inkscape:connector-curvature="0"
       sodipodi:nodetypes="cccccccssccssccccc" />
  </g>
  <g
     inkscape:groupmode="layer"
     id="g3874"
     inkscape:label="KONNEKTOR-005"
     style="display:none">
    <path
       sodipodi:nodetypes="ccccccc"
       inkscape:connector-curvature="0"
       id="path3876"
       d="m 190,30.5 30,0 0,309.5 -189.5,0 0,-150 159.5,0 z"
       style="fill:#000000;stroke:none;display:inline"
       zpos="-220" />
    <path
       sodipodi:nodetypes="cc"
       inkscape:connector-curvature="0"
       id="path3878"
       d="m 30.5,190 160,0"
       style="fill:none;stroke:#000000;stroke-width:1px;stroke-linecap:square;display:inline" />
    <path
       sodipodi:nodetypes="cc"
       inkscape:connector-curvature="0"
       id="path3880"
       d="m 190,30.5 0,200"
       style="fill:none;stroke:#000000;stroke-width:1px;stroke-linecap:square;display:inline" />
    <path
       style="fill:#ffffff;stroke:none;display:inline"
       d="m 73,326 c 0,2.48528 2.01472,4.5 4.5,4.5 l 93,0 c 2.48528,0 4.5,-2.01472 4.5,-4.5 l 0,-231 c 0,-2.48528 2.01472,-4.5 4.5,-4.5 l 14,0 c 2.48528,0 4.5,2.01472 4.5,4.5 l 0,16 c 0,2.48528 2.01472,4.5 4.5,4.5 l 3,0 c 2.48528,0 4.5,-2.01472 4.5,-4.5 l 0,-80.5 106.88606,0 0,325.21369 -286.38606,0 0,-145.71369 10,0 18,0 c 8.00813,0 14.50001,6.49187 14.50001,14.49999 z"
       id="path3940"
       inkscape:connector-curvature="0"
       sodipodi:nodetypes="cccssccsscccccccccccc"
       zpos="-200" />
    <path
       sodipodi:nodetypes="cccccccssccssccccc"
       inkscape:connector-curvature="0"
       id="path3942"
       d="m 30.5,210 10,0 18,0 c 8.00813,0 14.50001,6.49187 14.50001,14.49999 L 73,326 c 0,2.48528 2.01472,4.5 4.5,4.5 l 93,0 c 2.48528,0 4.5,-2.01472 4.5,-4.5 l 0,-231 c 0,-2.48528 2.01472,-4.5 4.5,-4.5 l 14,0 c 2.48528,0 4.5,2.01472 4.5,4.5 l 0,16 c 0,2.48528 2.01472,4.5 4.5,4.5 l 3,0 c 2.48528,0 4.5,-2.01472 4.5,-4.5 l 0,-69.5 0,-11"
       style="fill:none;stroke:#000000;stroke-width:1px;stroke-linecap:square;display:inline" />
  </g>
  <g
     style="display:none"
     inkscape:label="KONNEKTOR-006"
     id="g3944"
     inkscape:groupmode="layer">
    <path
       zpos="-220"
       style="fill:#000000;stroke:none;display:inline"
       d="m 190,30.5 30,0 0,309.5 -189.5,0 0,-150 159.5,0 z"
       id="path3946"
       inkscape:connector-curvature="0"
       sodipodi:nodetypes="ccccccc" />
    <path
       style="fill:none;stroke:#000000;stroke-width:1px;stroke-linecap:square;display:inline"
       d="m 30.5,190 160,0"
       id="path3948"
       inkscape:connector-curvature="0"
       sodipodi:nodetypes="cc" />
    <path
       style="fill:none;stroke:#000000;stroke-width:1px;stroke-linecap:square;display:inline"
       d="m 190,30.5 0,200"
       id="path3950"
       inkscape:connector-curvature="0"
       sodipodi:nodetypes="cc" />
    <path
       zpos="-200"
       sodipodi:nodetypes="cccssccsscccccccccccc"
       inkscape:connector-curvature="0"
       id="path3952"
       d="m 168,261 c 0,2.48528 2.01472,4.5 4.5,4.5 l 3,0 c 2.48528,0 4.5,-2.01472 4.5,-4.5 l 0,-166 c 0,-2.48528 2.01472,-4.5 4.5,-4.5 l 5,0 c 2.48528,0 4.5,2.01472 4.5,4.5 l 0,16 c 0,2.48528 2.01472,4.5 4.5,4.5 l 7,0 c 2.48528,0 4.5,-2.01472 4.5,-4.5 l 0,-80.5 106.88606,0 0,325.21369 -286.38606,0 0,-145.71369 10,0 113,0 c 8.00813,0 14.50001,6.49187 14.50001,14.49999 z"
       style="fill:#ffffff;stroke:none;display:inline" />
    <path
       style="fill:none;stroke:#000000;stroke-width:1px;stroke-linecap:square;display:inline"
       d="m 30.5,210 10,0 113,0 c 8.00813,0 14.50001,6.49187 14.50001,14.49999 L 168,261 c 0,2.48528 2.01472,4.5 4.5,4.5 l 3,0 c 2.48528,0 4.5,-2.01472 4.5,-4.5 l 0,-166 c 0,-2.48528 2.01472,-4.5 4.5,-4.5 l 5,0 c 2.48528,0 4.5,2.01472 4.5,4.5 l 0,16 c 0,2.48528 2.01472,4.5 4.5,4.5 l 7,0 c 2.48528,0 4.5,-2.01472 4.5,-4.5 l 0,-69.5 0,-11"
       id="path3954"
       inkscape:connector-curvature="0"
       sodipodi:nodetypes="cccccccssccssccccc" />
  </g>
  <g
     inkscape:groupmode="layer"
     id="g3956"
     inkscape:label="KONNEKTOR-007"
     style="display:inline">
    <path
       sodipodi:nodetypes="ccccccc"
       inkscape:connector-curvature="0"
       id="path3958"
       d="m 190,30.5 30,0 0,309.5 -189.5,0 0,-150 159.5,0 z"
       style="fill:#000000;stroke:none;display:inline"
       zpos="-220" />
    <path
       sodipodi:nodetypes="cc"
       inkscape:connector-curvature="0"
       id="path3960"
       d="m 30.5,190 160,0"
       style="fill:none;stroke:#000000;stroke-width:1px;stroke-linecap:square;display:inline" />
    <path
       sodipodi:nodetypes="cc"
       inkscape:connector-curvature="0"
       id="path3962"
       d="m 190,30.5 0,200"
       style="fill:none;stroke:#000000;stroke-width:1px;stroke-linecap:square;display:inline" />
    <path
       style="fill:#ffffff;stroke:none;display:inline"
       d="m 168,261 c 0,2.48528 2.01472,4.5 4.5,4.5 l 3,0 c 2.48528,0 4.5,-2.01472 4.5,-4.5 l 0,-166 c 0,-2.48528 2.01472,-4.5 4.5,-4.5 l 5,0 c 2.48528,0 4.5,2.01472 4.5,4.5 l 0,226 c 0,2.48528 2.01472,4.5 4.5,4.5 l 7,0 c 2.48528,0 4.5,-2.01472 4.5,-4.5 l 0,-290.5 106.88606,0 0,325.21369 -286.38606,0 0,-145.71369 10,0 113,0 c 8.00813,0 14.50001,6.49187 14.50001,14.49999 z"
       id="path3964"
       inkscape:connector-curvature="0"
       sodipodi:nodetypes="cccssccsscccccccccccc"
       zpos="-200" />
    <path
       sodipodi:nodetypes="cccccccssccssccccc"
       inkscape:connector-curvature="0"
       id="path3966"
       d="m 30.5,210 10,0 113,0 c 8.00813,0 14.50001,6.49187 14.50001,14.49999 L 168,261 c 0,2.48528 2.01472,4.5 4.5,4.5 l 3,0 c 2.48528,0 4.5,-2.01472 4.5,-4.5 l 0,-166 c 0,-2.48528 2.01472,-4.5 4.5,-4.5 l 5,0 c 2.48528,0 4.5,2.01472 4.5,4.5 l 0,226 c 0,2.48528 2.01472,4.5 4.5,4.5 l 7,0 c 2.48528,0 4.5,-2.01472 4.5,-4.5 l 0,-279.5 0,-11"
       style="fill:none;stroke:#000000;stroke-width:1px;stroke-linecap:square;display:inline" />
  </g>
</svg>
