<?xml version="1.0" encoding="UTF-8" standalone="no"?>
<!-- Created with Inkscape (http://www.inkscape.org/) -->
<svg
   xmlns:dc="http://purl.org/dc/elements/1.1/"
   xmlns:cc="http://creativecommons.org/ns#"
   xmlns:rdf="http://www.w3.org/1999/02/22-rdf-syntax-ns#"
   xmlns:svg="http://www.w3.org/2000/svg"
   xmlns="http://www.w3.org/2000/svg"
   xmlns:sodipodi="http://sodipodi.sourceforge.net/DTD/sodipodi-0.dtd"
   xmlns:inkscape="http://www.inkscape.org/namespaces/inkscape"
   style="display:inline"
   sodipodi:docname="181212_ZZZZ-MR+-MR+_CW_CW_CW_00_.svg"
   inkscape:version="0.48.3.1 r9886"
   version="1.1"
   id="svg2902"
   height="400"
   width="400"><sodipodi:namedview
   id="base"
   pagecolor="#f0f0f0"
   bordercolor="#666666"
   borderopacity="1.0"
   inkscape:pageopacity="1"
   inkscape:pageshadow="2"
   inkscape:zoom="0.88428464"
   inkscape:cx="37.054674"
   inkscape:cy="190.99397"
   inkscape:document-units="px"
   inkscape:current-layer="g3157"
   showgrid="false"
   inkscape:window-width="1018"
   inkscape:window-height="709"
   inkscape:window-x="0"
   inkscape:window-y="1"
   inkscape:window-maximized="0"
   showguides="true"
   inkscape:guide-bbox="true"
   inkscape:snap-bbox="true"
   inkscape:snap-global="false" />
<defs
   id="defs2904">
  <clipPath
     clipPathUnits="userSpaceOnUse"
     id="clipPath5174">
    <path
       id="path5176"
       style="opacity:0.5;fill:#00ff00;stroke:#00ff00;stroke-width:1px;stroke-linecap:square;display:inline"
       d="m 436.26971,600.11436 -232.09481,134 -169.500003,-293.58262 232.094813,-134 z"
       inkscape:connector-curvature="0"
       sodipodi:nodetypes="ccccc" />
  </clipPath>
  <clipPath
     clipPathUnits="userSpaceOnUse"
     id="clipPath5174-5">
    <path
       id="path5176-9"
       style="opacity:0.5;fill:#00ff00;stroke:#00ff00;stroke-width:1px;stroke-linecap:square;display:inline"
       d="m 436.26971,600.11436 -232.09481,134 -169.500003,-293.58262 232.094813,-134 z"
       inkscape:connector-curvature="0"
       sodipodi:nodetypes="ccccc" />
  </clipPath>
  <clipPath
     clipPathUnits="userSpaceOnUse"
     id="clipPath3238">
    <path
       sodipodi:nodetypes="ccccc"
       inkscape:connector-curvature="0"
       d="m 461.26971,643.41563 -232.09481,134 -169.500002,-293.58262 232.094812,-134 z"
       style="opacity:0.5;fill:#00ff00;stroke:#00ff00;stroke-width:1px;stroke-linecap:square;display:inline"
       id="path3240" />
  </clipPath>
</defs>
<metadata
   id="metadata2907">
  <rdf:RDF>
    <cc:Work
       rdf:about="">
      <dc:format>image/svg+xml</dc:format>
      <dc:type
         rdf:resource="http://purl.org/dc/dcmitype/StillImage" />
      <dc:title />
    </cc:Work>
  </rdf:RDF>
</metadata>
<g
     inkscape:groupmode="layer"
     id="bg"
     inkscape:label="XX_BG"
     sodipodi:insensitive="true">
    <path
       style="fill:#f6ffd5"
       d="M 400,0 400,400 0,400 0,0 z"
       id="bgrect"
       inkscape:connector-curvature="0" />
  </g>
<g
     inkscape:label="XX_Referenz"
     inkscape:groupmode="layer"
     id="XX_referenz"
     style="display:none"
     sodipodi:insensitive="true">
    <path
       id="innerframe"
       style="fill:none;stroke:#ff0000;stroke-width:1"
       d="m 40.5,40.5 319,0 0,319 -319,0 0,-319 z"
       inkscape:label="#innerframe"
       sodipodi:insensitive="true"
       inkscape:connector-curvature="0" />
    <path
       id="outerframe"
       style="fill:none;stroke:#ff0000;stroke-width:1"
       d="m 30.5,30.5 339,0 0,339 -339,0 0,-339 z"
       inkscape:label="#outerframe"
       sodipodi:nodetypes="ccccc"
       sodipodi:insensitive="true"
       inkscape:connector-curvature="0" />
    <path
       style="opacity:0.5;fill:none;stroke:#ffc200;stroke-width:1px;stroke-linecap:square"
       d="m 189,30.5 0,10"
       id="ref-S-top-1"
       sodipodi:insensitive="true"
       inkscape:connector-curvature="0" />
    <path
       style="opacity:0.5;fill:none;stroke:#ffc200;stroke-width:1px;stroke-linecap:square"
       d="m 191,30.5 0,10"
       id="ref-S-top-2"
       sodipodi:insensitive="true"
       inkscape:connector-curvature="0" />
    <path
       style="opacity:0.5;fill:none;stroke:#ffc200;stroke-width:1px;stroke-linecap:square"
       d="m 209,30.5 0,10"
       id="ref-S-top-3"
       sodipodi:insensitive="true"
       inkscape:connector-curvature="0" />
    <path
       style="opacity:0.5;fill:none;stroke:#ffc200;stroke-width:1px;stroke-linecap:square"
       d="m 211,30.5 0,10"
       id="ref-S-top-4"
       sodipodi:insensitive="true"
       inkscape:connector-curvature="0" />
    <path
       style="opacity:0.5;fill:none;stroke:#00ff00;stroke-width:1px;stroke-linecap:square"
       d="m 199,30.5 0,10"
       id="ref-I-top-1"
       sodipodi:insensitive="true"
       inkscape:connector-curvature="0" />
    <path
       style="opacity:0.5;fill:none;stroke:#00ff00;stroke-width:1px;stroke-linecap:square"
       d="m 201,30.5 0,10"
       id="ref-I-top-2"
       sodipodi:insensitive="true"
       inkscape:connector-curvature="0" />
    <path
       style="opacity:0.5;fill:none;stroke:#00ffcc;stroke-width:1px;stroke-linecap:square"
       d="m 66,30.5 0,10"
       id="ref-C-top-1"
       sodipodi:insensitive="true"
       inkscape:connector-curvature="0" />
    <path
       style="opacity:0.5;fill:none;stroke:#00ffcc;stroke-width:1px;stroke-linecap:square"
       d="m 68,30.5 0,10"
       id="ref-C-top-2"
       sodipodi:insensitive="true"
       inkscape:connector-curvature="0" />
    <path
       style="opacity:0.5;fill:none;stroke:#00ffcc;stroke-width:1px;stroke-linecap:square"
       d="m 92,30.5 0,10"
       id="ref-C-top-3"
       sodipodi:insensitive="true"
       inkscape:connector-curvature="0" />
    <path
       style="opacity:0.5;fill:none;stroke:#00ffcc;stroke-width:1px;stroke-linecap:square"
       d="m 94,30.5 0,10"
       id="ref-C-top-4"
       sodipodi:insensitive="true"
       inkscape:connector-curvature="0" />
    <path
       style="opacity:0.5;fill:none;stroke:#00ffcc;stroke-width:1px;stroke-linecap:square"
       d="m 306,30.5 0,10"
       id="ref-C-top-5"
       sodipodi:insensitive="true"
       inkscape:connector-curvature="0" />
    <path
       style="opacity:0.5;fill:none;stroke:#00ffcc;stroke-width:1px;stroke-linecap:square"
       d="m 308,30.5 0,10"
       id="ref-C-top-6"
       sodipodi:insensitive="true"
       inkscape:connector-curvature="0" />
    <path
       style="opacity:0.5;fill:none;stroke:#00ffcc;stroke-width:1px;stroke-linecap:square"
       d="m 332,30.5 0,10"
       id="ref-C-top-7"
       sodipodi:insensitive="true"
       inkscape:connector-curvature="0" />
    <path
       style="opacity:0.5;fill:none;stroke:#00ffcc;stroke-width:1px;stroke-linecap:square"
       d="m 334,30.5 0,10"
       id="ref-C-top-8"
       sodipodi:insensitive="true"
       inkscape:connector-curvature="0" />
    <path
       style="opacity:0.5;fill:none;stroke:#ffc200;stroke-width:1px;stroke-linecap:square"
       d="m 369.5,189 -10,0"
       id="ref-S-right-1"
       sodipodi:insensitive="true"
       inkscape:connector-curvature="0" />
    <path
       style="opacity:0.5;fill:none;stroke:#ffc200;stroke-width:1px;stroke-linecap:square"
       d="m 369.5,191 -10,0"
       id="ref-S-right-2"
       sodipodi:insensitive="true"
       inkscape:connector-curvature="0" />
    <path
       style="opacity:0.5;fill:none;stroke:#ffc200;stroke-width:1px;stroke-linecap:square"
       d="m 369.5,209 -10,0"
       id="ref-S-right-3"
       sodipodi:insensitive="true"
       inkscape:connector-curvature="0" />
    <path
       style="opacity:0.5;fill:none;stroke:#ffc200;stroke-width:1px;stroke-linecap:square"
       d="m 369.5,211 -10,0"
       id="ref-S-right-4"
       sodipodi:insensitive="true"
       inkscape:connector-curvature="0" />
    <path
       style="opacity:0.5;fill:none;stroke:#00ff00;stroke-width:1px;stroke-linecap:square"
       d="m 369.5,199 -10,0"
       id="ref-I-right-1"
       sodipodi:insensitive="true"
       inkscape:connector-curvature="0" />
    <path
       style="opacity:0.5;fill:none;stroke:#00ff00;stroke-width:1px;stroke-linecap:square"
       d="m 369.5,201 -10,0"
       id="ref-I-right-2"
       sodipodi:insensitive="true"
       inkscape:connector-curvature="0" />
    <path
       style="opacity:0.5;fill:none;stroke:#00ffcc;stroke-width:1px;stroke-linecap:square"
       d="m 369.5,66 -10,0"
       id="ref-C-right-1"
       sodipodi:insensitive="true"
       inkscape:connector-curvature="0" />
    <path
       style="opacity:0.5;fill:none;stroke:#00ffcc;stroke-width:1px;stroke-linecap:square"
       d="m 369.5,68 -10,0"
       id="ref-C-right-2"
       sodipodi:insensitive="true"
       inkscape:connector-curvature="0" />
    <path
       style="opacity:0.5;fill:none;stroke:#00ffcc;stroke-width:1px;stroke-linecap:square"
       d="m 369.5,92 -10,0"
       id="ref-C-right-3"
       sodipodi:insensitive="true"
       inkscape:connector-curvature="0" />
    <path
       style="opacity:0.5;fill:none;stroke:#00ffcc;stroke-width:1px;stroke-linecap:square"
       d="m 369.5,94 -10,0"
       id="ref-C-right-4"
       sodipodi:insensitive="true"
       inkscape:connector-curvature="0" />
    <path
       style="opacity:0.5;fill:none;stroke:#00ffcc;stroke-width:1px;stroke-linecap:square"
       d="m 369.5,306 -10,0"
       id="ref-C-right-5"
       sodipodi:insensitive="true"
       inkscape:connector-curvature="0" />
    <path
       style="opacity:0.5;fill:none;stroke:#00ffcc;stroke-width:1px;stroke-linecap:square"
       d="m 369.5,308 -10,0"
       id="ref-C-right-6"
       sodipodi:insensitive="true"
       inkscape:connector-curvature="0" />
    <path
       style="opacity:0.5;fill:none;stroke:#00ffcc;stroke-width:1px;stroke-linecap:square"
       d="m 369.5,332 -10,0"
       id="ref-C-right-7"
       sodipodi:insensitive="true"
       inkscape:connector-curvature="0" />
    <path
       style="opacity:0.5;fill:none;stroke:#00ffcc;stroke-width:1px;stroke-linecap:square"
       d="m 369.5,334 -10,0"
       id="ref-C-right-8"
       sodipodi:insensitive="true"
       inkscape:connector-curvature="0" />
    <path
       style="opacity:0.5;fill:none;stroke:#ffc200;stroke-width:1px;stroke-linecap:square"
       d="m 189,369.5 0,-10"
       id="ref-S-bottom-1"
       sodipodi:insensitive="true"
       inkscape:connector-curvature="0" />
    <path
       style="opacity:0.5;fill:none;stroke:#ffc200;stroke-width:1px;stroke-linecap:square"
       d="m 191,369.5 0,-10"
       id="ref-S-bottom-2"
       sodipodi:insensitive="true"
       inkscape:connector-curvature="0" />
    <path
       style="opacity:0.5;fill:none;stroke:#ffc200;stroke-width:1px;stroke-linecap:square"
       d="m 209,369.5 0,-10"
       id="ref-S-bottom-3"
       sodipodi:insensitive="true"
       inkscape:connector-curvature="0" />
    <path
       style="opacity:0.5;fill:none;stroke:#ffc200;stroke-width:1px;stroke-linecap:square"
       d="m 211,369.5 0,-10"
       id="ref-S-bottom-4"
       sodipodi:insensitive="true"
       inkscape:connector-curvature="0" />
    <path
       style="opacity:0.5;fill:none;stroke:#00ff00;stroke-width:1px;stroke-linecap:square"
       d="m 199,369.5 0,-10"
       id="ref-I-bottom-1"
       sodipodi:insensitive="true"
       inkscape:connector-curvature="0" />
    <path
       style="opacity:0.5;fill:none;stroke:#00ff00;stroke-width:1px;stroke-linecap:square"
       d="m 201,369.5 0,-10"
       id="ref-I-bottom-2"
       sodipodi:insensitive="true"
       inkscape:connector-curvature="0" />
    <path
       style="opacity:0.5;fill:none;stroke:#00ffcc;stroke-width:1px;stroke-linecap:square"
       d="m 66,369.5 0,-10"
       id="ref-C-bottom-1"
       sodipodi:insensitive="true"
       inkscape:connector-curvature="0" />
    <path
       style="opacity:0.5;fill:none;stroke:#00ffcc;stroke-width:1px;stroke-linecap:square"
       d="m 68,369.5 0,-10"
       id="ref-C-bottom-2"
       sodipodi:insensitive="true"
       inkscape:connector-curvature="0" />
    <path
       style="opacity:0.5;fill:none;stroke:#00ffcc;stroke-width:1px;stroke-linecap:square"
       d="m 92,369.5 0,-10"
       id="ref-C-bottom-3"
       sodipodi:insensitive="true"
       inkscape:connector-curvature="0" />
    <path
       style="opacity:0.5;fill:none;stroke:#00ffcc;stroke-width:1px;stroke-linecap:square"
       d="m 94,369.5 0,-10"
       id="ref-C-bottom-4"
       sodipodi:insensitive="true"
       inkscape:connector-curvature="0" />
    <path
       style="opacity:0.5;fill:none;stroke:#00ffcc;stroke-width:1px;stroke-linecap:square"
       d="m 306,369.5 0,-10"
       id="ref-C-bottom-5"
       sodipodi:insensitive="true"
       inkscape:connector-curvature="0" />
    <path
       style="opacity:0.5;fill:none;stroke:#00ffcc;stroke-width:1px;stroke-linecap:square"
       d="m 308,369.5 0,-10"
       id="ref-C-bottom-6"
       sodipodi:insensitive="true"
       inkscape:connector-curvature="0" />
    <path
       style="opacity:0.5;fill:none;stroke:#00ffcc;stroke-width:1px;stroke-linecap:square"
       d="m 332,369.5 0,-10"
       id="ref-C-bottom-7"
       sodipodi:insensitive="true"
       inkscape:connector-curvature="0" />
    <path
       style="opacity:0.5;fill:none;stroke:#00ffcc;stroke-width:1px;stroke-linecap:square"
       d="m 334,369.5 0,-10"
       id="ref-C-bottom-8"
       sodipodi:insensitive="true"
       inkscape:connector-curvature="0" />
    <path
       style="opacity:0.5;fill:none;stroke:#ffc200;stroke-width:1px;stroke-linecap:square"
       d="m 30.5,189 10,0"
       id="ref-S-left-1"
       sodipodi:insensitive="true"
       inkscape:connector-curvature="0" />
    <path
       style="opacity:0.5;fill:none;stroke:#ffc200;stroke-width:1px;stroke-linecap:square"
       d="m 30.5,191 10,0"
       id="ref-S-left-2"
       sodipodi:insensitive="true"
       inkscape:connector-curvature="0" />
    <path
       style="opacity:0.5;fill:none;stroke:#ffc200;stroke-width:1px;stroke-linecap:square"
       d="m 30.5,209 10,0"
       id="ref-S-left-3"
       sodipodi:insensitive="true"
       inkscape:connector-curvature="0" />
    <path
       style="opacity:0.5;fill:none;stroke:#ffc200;stroke-width:1px;stroke-linecap:square"
       d="m 30.5,211 10,0"
       id="ref-S-left-4"
       sodipodi:insensitive="true"
       inkscape:connector-curvature="0" />
    <path
       style="opacity:0.5;fill:none;stroke:#00ff00;stroke-width:1px;stroke-linecap:square"
       d="m 40.5,199 -10,0"
       id="ref-I-left-1"
       sodipodi:insensitive="true"
       inkscape:connector-curvature="0" />
    <path
       style="opacity:0.5;fill:none;stroke:#00ff00;stroke-width:1px;stroke-linecap:square"
       d="m 40.5,201 -10,0"
       id="ref-I-left-2"
       sodipodi:insensitive="true"
       inkscape:connector-curvature="0" />
    <path
       style="opacity:0.5;fill:none;stroke:#00ffcc;stroke-width:1px;stroke-linecap:square"
       d="m 30.5,66 10,0"
       id="ref-C-left-1"
       sodipodi:insensitive="true"
       inkscape:connector-curvature="0" />
    <path
       style="opacity:0.5;fill:none;stroke:#00ffcc;stroke-width:1px;stroke-linecap:square"
       d="m 30.5,68 10,0"
       id="ref-C-left-2"
       sodipodi:insensitive="true"
       inkscape:connector-curvature="0" />
    <path
       style="opacity:0.5;fill:none;stroke:#00ffcc;stroke-width:1px;stroke-linecap:square"
       d="m 30.5,92 10,0"
       id="ref-C-left-3"
       sodipodi:insensitive="true"
       inkscape:connector-curvature="0" />
    <path
       style="opacity:0.5;fill:none;stroke:#00ffcc;stroke-width:1px;stroke-linecap:square"
       d="m 30.5,94 10,0"
       id="ref-C-left-4"
       sodipodi:insensitive="true"
       inkscape:connector-curvature="0" />
    <path
       style="opacity:0.5;fill:none;stroke:#00ffcc;stroke-width:1px;stroke-linecap:square"
       d="m 30.5,306 10,0"
       id="ref-C-left-5"
       sodipodi:insensitive="true"
       inkscape:connector-curvature="0" />
    <path
       style="opacity:0.5;fill:none;stroke:#00ffcc;stroke-width:1px;stroke-linecap:square"
       d="m 30.5,308 10,0"
       id="ref-C-left-6"
       sodipodi:insensitive="true"
       inkscape:connector-curvature="0" />
    <path
       style="opacity:0.5;fill:none;stroke:#00ffcc;stroke-width:1px;stroke-linecap:square"
       d="m 30.5,332 10,0"
       id="ref-C-left-7"
       sodipodi:insensitive="true"
       inkscape:connector-curvature="0" />
    <path
       style="opacity:0.5;fill:none;stroke:#00ffcc;stroke-width:1px;stroke-linecap:square"
       d="m 30.5,334 10,0"
       id="ref-C-left-8"
       sodipodi:insensitive="true"
       inkscape:connector-curvature="0" />
    <path
       style="fill:none;stroke:#000000;stroke-width:1px;stroke-linecap:square"
       d="m 190,30.5 0,10"
       id="S-top-1"
       inkscape:connector-curvature="0" />
    <path
       style="fill:none;stroke:#000000;stroke-width:1px;stroke-linecap:square"
       d="m 210,30.5 0,10"
       id="S-top-2"
       inkscape:connector-curvature="0" />
    <path
       style="fill:none;stroke:#000000;stroke-width:1px;stroke-linecap:square"
       d="m 369.5,190 -10,0"
       id="S-right-1"
       inkscape:connector-curvature="0" />
    <path
       style="fill:none;stroke:#000000;stroke-width:1px;stroke-linecap:square"
       d="m 369.5,210 -10,0"
       id="S-right-2"
       inkscape:connector-curvature="0" />
    <path
       style="fill:none;stroke:#000000;stroke-width:1px;stroke-linecap:square"
       d="m 190,369.5 0,-10"
       id="S-bottom-1"
       inkscape:connector-curvature="0" />
    <path
       style="fill:none;stroke:#000000;stroke-width:1px;stroke-linecap:square"
       d="m 210,369.5 0,-10"
       id="S-bottom-2"
       inkscape:connector-curvature="0" />
    <path
       style="fill:none;stroke:#000000;stroke-width:1px;stroke-linecap:square"
       d="m 30.5,190 10,0"
       id="S-left-1"
       inkscape:connector-curvature="0" />
    <path
       style="fill:none;stroke:#000000;stroke-width:1px;stroke-linecap:square"
       d="m 30.5,210 10,0"
       id="S-left-2"
       inkscape:connector-curvature="0" />
    <path
       style="fill:none;stroke:#000000;stroke-width:1px;stroke-linecap:square"
       d="m 200,30.5 0,10"
       id="I-top-1"
       inkscape:connector-curvature="0" />
    <path
       style="fill:none;stroke:#000000;stroke-width:1px;stroke-linecap:square"
       d="m 369.5,200 -10,0"
       id="I-right-1"
       inkscape:connector-curvature="0" />
    <path
       style="fill:none;stroke:#000000;stroke-width:1px;stroke-linecap:square"
       d="m 200,369.5 0,-10"
       id="I-bottom-1"
       inkscape:connector-curvature="0" />
    <path
       style="fill:none;stroke:#000000;stroke-width:1px;stroke-linecap:square"
       d="m 40.5,200 -10,0"
       id="I-left-1"
       inkscape:connector-curvature="0" />
    <path
       style="fill:none;stroke:#000000;stroke-width:1px;stroke-linecap:square"
       d="m 67,30.5 0,10"
       id="C-top-1"
       inkscape:connector-curvature="0" />
    <path
       style="fill:none;stroke:#000000;stroke-width:1px;stroke-linecap:square"
       d="m 93,30.5 0,10"
       id="C-top-2"
       inkscape:connector-curvature="0" />
    <path
       style="fill:none;stroke:#000000;stroke-width:1px;stroke-linecap:square"
       d="m 307,30.5 0,10"
       id="C-top-3"
       inkscape:connector-curvature="0" />
    <path
       style="fill:none;stroke:#000000;stroke-width:1px;stroke-linecap:square"
       d="m 333,30.5 0,10"
       id="C-top-4"
       inkscape:connector-curvature="0" />
    <path
       style="fill:none;stroke:#000000;stroke-width:1px;stroke-linecap:square"
       d="m 369.5,67 -10,0"
       id="C-right-1"
       inkscape:connector-curvature="0" />
    <path
       style="fill:none;stroke:#000000;stroke-width:1px;stroke-linecap:square"
       d="m 369.5,93 -10,0"
       id="C-right-2"
       inkscape:connector-curvature="0" />
    <path
       style="fill:none;stroke:#000000;stroke-width:1px;stroke-linecap:square"
       d="m 369.5,307 -10,0"
       id="C-right-3"
       inkscape:connector-curvature="0" />
    <path
       style="fill:none;stroke:#000000;stroke-width:1px;stroke-linecap:square"
       d="m 369.5,333 -10,0"
       id="C-right-4"
       inkscape:connector-curvature="0" />
    <path
       style="fill:none;stroke:#000000;stroke-width:1px;stroke-linecap:square"
       d="m 67,369.5 0,-10"
       id="C-bottom-1"
       inkscape:connector-curvature="0" />
    <path
       style="fill:none;stroke:#000000;stroke-width:1px;stroke-linecap:square"
       d="m 93,369.5 0,-10"
       id="C-bottom-2"
       inkscape:connector-curvature="0" />
    <path
       style="fill:none;stroke:#000000;stroke-width:1px;stroke-linecap:square"
       d="m 307,369.5 0,-10"
       id="C-bottom-3"
       inkscape:connector-curvature="0" />
    <path
       style="fill:none;stroke:#000000;stroke-width:1px;stroke-linecap:square"
       d="m 333,369.5 0,-10"
       id="C-bottom-4"
       inkscape:connector-curvature="0" />
    <path
       style="fill:none;stroke:#000000;stroke-width:1px;stroke-linecap:square"
       d="m 30.5,67 10,0"
       id="C-left-1"
       inkscape:connector-curvature="0" />
    <path
       style="fill:none;stroke:#000000;stroke-width:1px;stroke-linecap:square"
       d="m 30.5,93 10,0"
       id="C-left-2"
       inkscape:connector-curvature="0" />
    <path
       style="fill:none;stroke:#000000;stroke-width:1px;stroke-linecap:square"
       d="m 30.5,307 10,0"
       id="C-left-3"
       inkscape:connector-curvature="0" />
    <path
       style="fill:none;stroke:#000000;stroke-width:1px;stroke-linecap:square"
       d="m 30.5,333 10,0"
       id="C-left-4"
       inkscape:connector-curvature="0" />
  </g>
<g
     inkscape:groupmode="layer"
     id="g3149"
     inkscape:label="OKON-001"
     zpos="-300"
     style="display:inline"
     sodipodi:insensitive="true">
    <path
       sodipodi:nodetypes="ccccc"
       inkscape:connector-curvature="0"
       id="path3147"
       d="m 67,307 0,26 302.5,0 0,-26 z"
       style="fill:#ffffff;stroke:none;display:inline" />
    <path
       style="fill:#ffffff;stroke:none;display:inline"
       d="m 67,67 0,26 302.5,0 0,-26 z"
       id="path3118"
       inkscape:connector-curvature="0"
       sodipodi:nodetypes="ccccc" />
    <path
       style="fill:none;stroke:#000000;stroke-width:1px;stroke-linecap:square;display:inline"
       d="m 307,93.5 0,213"
       id="path3178-9"
       inkscape:connector-curvature="0"
       sodipodi:nodetypes="cc" />
    <path
       style="fill:none;stroke:#000000;stroke-width:1px;stroke-linecap:square;display:inline"
       d="m 369.5,307 -10,0 -282.5,0 -10,0"
       id="C-right-3-7"
       inkscape:connector-curvature="0"
       sodipodi:nodetypes="cccc" />
    <path
       style="fill:none;stroke:#000000;stroke-width:1px;stroke-linecap:square;display:inline"
       d="m 66.5,93 10,0 283,0 10,0"
       id="C-left-2-6"
       inkscape:connector-curvature="0"
       sodipodi:nodetypes="cccc" />
  </g>
<g
   zpos="-200"
   style="display:none"
   inkscape:label="ZZZZ-001"
   id="g3125"
   inkscape:groupmode="layer"
   sodipodi:insensitive="true">
  <path
     style="fill:#ffffff;stroke:none"
     d="m 108.84375,67 c 1.08398,8.29073 6.54692,12.375 16.40625,12.375 l 123.1875,0 -135.65625,242.25 c -2.57925,4.51369 -3.94686,8.22397 -4.375,11.375 l 178.78125,0 c -1.00458,-7.83675 -6.06395,-11.78125 -15.21875,-11.78125 l -125.5625,0 137.25,-245.8125 c 1.43541,-2.72728 2.42662,-5.549456 2.875,-8.40625 l -177.6875,0 z"
     id="path3136"
     inkscape:connector-curvature="0" />
  <path
     style="fill:none;stroke:#00ff00;stroke-width:1px;display:inline"
     d="m 108.84375,67 c 1.08398,8.29073 6.54692,12.375 16.40625,12.375 l 123.1875,0 -135.65625,242.25 c -2.57925,4.51369 -3.94686,8.22397 -4.375,11.375 m 178.78125,0 c -1.00458,-7.83675 -6.06395,-11.78125 -15.21875,-11.78125 l -125.5625,0 137.25,-245.8125 c 1.43541,-2.72728 2.42662,-5.549456 2.875,-8.40625"
     id="path3136-6"
     inkscape:connector-curvature="0"
     sodipodi:nodetypes="csccccsccc" />
</g>
<g
   zpos="-200"
   style="display:none"
   inkscape:label="ZZZZ-002"
   id="g3141"
   inkscape:groupmode="layer"
   sodipodi:insensitive="true">
  <path
     style="fill:#ffffff;stroke:none"
     d="m 104.65625,67 c -0.3838,3.497296 0.0657,21.138929 1.375,24.28125 2.43,5.26499 6.89251,8.9125 12.5625,10.9375 l 2.03125,0.40625 60.75,0 c 33.61497,0 60.75,0.40625 60.75,0.40625 0,0 -104.49753,157.40505 -134.0625,207.625 l -3.65625,6.09375 0,16.25 190.96875,0 c 0.11375,-0.85189 0.21875,-9.70918 0.21875,-10.59375 0,-9.71999 -6.49751,-17.41126 -15.8125,-19.03125 -1.62,-0.405 -11.3438,-0.40625 -61.96875,-0.40625 -33.20997,0 -60.34375,-10e-4 -60.34375,-0.40625 0,0 98.01879,-145.25507 134.46875,-207.625 l 3.65625,-6.5 0,-21.4375 z"
     id="path3152"
     inkscape:connector-curvature="0"
     sodipodi:nodetypes="ccccscccccscsccccc" />
  <path
     style="fill:none;stroke:#00ff00;stroke-width:1px;display:inline"
     d="m 104.65625,67 c -0.3838,3.497296 0.0657,21.138929 1.375,24.28125 2.43,5.26499 6.89251,8.9125 12.5625,10.9375 l 2.03125,0.40625 60.75,0 c 33.61497,0 60.75,0.40625 60.75,0.40625 0,0 -104.49753,157.40505 -134.0625,207.625 l -3.65625,6.09375 0,16.25 m 190.96875,0 c 0.11375,-0.85189 0.21875,-9.70918 0.21875,-10.59375 0,-9.71999 -6.49751,-17.41126 -15.8125,-19.03125 -1.62,-0.405 -11.3438,-0.40625 -61.96875,-0.40625 -33.20997,0 -60.34375,-10e-4 -60.34375,-0.40625 0,0 98.01879,-145.25507 134.46875,-207.625 l 3.65625,-6.5 0,-21.4375"
     id="path3152-5"
     inkscape:connector-curvature="0"
     sodipodi:nodetypes="ccccscccccscscccc" />
</g>
<g
   zpos="-200"
   style="display:inline"
   inkscape:label="ZZZZ-003"
   id="g3157"
   inkscape:groupmode="layer"
   sodipodi:insensitive="true">
  <path
     style="fill:#ffffff;stroke:none"
     d="m 86.15625,67 c -0.0191,0.02296 -0.0435,0.03946 -0.0625,0.0625 -5.13002,5.94029 -7.68751,12.96278 -7.6875,21.0625 -1e-5,8.64026 2.82998,16.20776 8.5,22.6875 5.66997,6.48024 13.50996,9.71899 23.5,9.71875 l 94.21875,0 -135.28125,182.25 c -4.32001,5.94005 -6.46875,12.8263 -6.46875,20.65625 0,3.38043 0.39286,6.56212 1.1875,9.5625 l 264.15625,0 c 0.27715,-1.66137 0.4062,-3.37545 0.40625,-5.125 -2.4e-4,-8.63996 -2.96649,-15.93495 -8.90625,-21.875 -6.75023,-6.47994 -15.78522,-9.71875 -27.125,-9.71875 l -141.4375,0 132.4375,-179.40625 c 5.39977,-7.01975 8.12477,-14.45099 8.125,-22.28125 C 291.71852,84.33403 287.52602,75.70779 279.15625,68.6875 278.49995,68.096871 277.81503,67.542807 277.125,67 z"
     id="path3168"
     inkscape:connector-curvature="0"
     sodipodi:nodetypes="ccsccccsccccscccccc" />
  <path
     style="fill:none;stroke:#00ff00;stroke-width:1px;display:inline"
     d="m 86.15625,67 c -0.0191,0.02296 -0.0435,0.03946 -0.0625,0.0625 -5.13002,5.94029 -7.68751,12.96278 -7.6875,21.0625 -1e-5,8.64026 2.82998,16.20776 8.5,22.6875 5.66997,6.48024 13.50996,9.71899 23.5,9.71875 l 94.21875,0 -135.28125,182.25 c -4.32001,5.94005 -6.46875,12.8263 -6.46875,20.65625 0,3.38043 0.39286,6.56212 1.1875,9.5625 m 264.15625,0 c 0.27715,-1.66137 0.4062,-3.37545 0.40625,-5.125 -2.4e-4,-8.63996 -2.96649,-15.93495 -8.90625,-21.875 -6.75023,-6.47994 -15.78522,-9.71875 -27.125,-9.71875 l -141.4375,0 132.4375,-179.40625 c 5.39977,-7.01975 8.12477,-14.45099 8.125,-22.28125 C 291.71852,84.33403 287.52602,75.70779 279.15625,68.6875 278.49995,68.096871 277.81503,67.542807 277.125,67"
     id="path3168-5"
     inkscape:connector-curvature="0"
     sodipodi:nodetypes="ccsccccsccccsccccc" />
</g>
<g
   zpos="-200"
   style="display:none"
   inkscape:label="ZZZZ-004"
   id="g3173"
   inkscape:groupmode="layer"
   sodipodi:insensitive="true">
  <path
     style="fill:#ffffff;stroke:none"
     d="m 111.71875,67 0,27.59375 139.40625,0 -140.59375,219.3125 0,19.09375 202.6875,0 0,-27.40625 -146.125,0 141,-220.6875 0,-17.90625 -196.375,0 z"
     id="path3184"
     inkscape:connector-curvature="0" />
  <path
     style="fill:none;stroke:#00ff00;stroke-width:1px;display:inline"
     d="m 111.71875,67 0,27.59375 139.40625,0 -140.59375,219.3125 0,19.09375 m 202.6875,0 0,-27.40625 -146.125,0 141,-220.6875 0,-17.90625"
     id="path3184-2"
     inkscape:connector-curvature="0"
     sodipodi:nodetypes="cccccccccc" />
</g>
<g
   zpos="-200"
   style="display:none"
   inkscape:label="ZZZZ-008"
   id="g3233"
   inkscape:groupmode="layer"
   sodipodi:insensitive="true">
  <path
     style="fill:#ffffff;stroke:none"
     d="M 110.53125,67 C 112.17121,86.941866 113,105.40118 113,122.21875 c 0,12.89061 -0.40625,23.04688 -1.1875,30.46875 l 9.1875,0 c 3.51563,-29.49216 12.09376,-50.56251 26.15625,-63.0625 14.06249,-12.49998 31.84377,-18.96875 53.71875,-18.96875 l 45.71875,0 -139.46875,258.03125 0,4.3125 206.125,0 c -1.29227,-16.48858 -1.8125,-37.66112 -1.8125,-57.0625 0,-14.45311 0.375,-26.16407 1.15625,-35.34375 l -9.1875,0 c -2.34375,20.7031 -7.59376,37.70313 -16.1875,50.59375 -8.59374,12.89061 -18.77345,22.27345 -30.6875,27.9375 -11.91405,5.66406 -24.41408,8.375 -37.5,8.375 l -43.9375,0 139.0625,-258 0,-2.5 -203.625,0 z"
     id="path3244"
     inkscape:connector-curvature="0" />
  <path
     style="fill:none;stroke:#00ff00;stroke-width:1px;display:inline"
     d="M 110.53125,67 C 112.17121,86.941866 113,105.40118 113,122.21875 c 0,12.89061 -0.40625,23.04688 -1.1875,30.46875 l 9.1875,0 c 3.51563,-29.49216 12.09376,-50.56251 26.15625,-63.0625 14.06249,-12.49998 31.84377,-18.96875 53.71875,-18.96875 l 45.71875,0 -139.46875,258.03125 0,4.3125 m 206.125,0 c -1.29227,-16.48858 -1.8125,-37.66112 -1.8125,-57.0625 0,-14.45311 0.375,-26.16407 1.15625,-35.34375 l -9.1875,0 c -2.34375,20.7031 -7.59376,37.70313 -16.1875,50.59375 -8.59374,12.89061 -18.77345,22.27345 -30.6875,27.9375 -11.91405,5.66406 -24.41408,8.375 -37.5,8.375 l -43.9375,0 139.0625,-258 0,-2.5"
     id="path3244-7"
     inkscape:connector-curvature="0"
     sodipodi:nodetypes="csccssccccsccsssccc" />
</g>
<g
     style="display:inline"
     zpos="-180"
     inkscape:label="UKON-001"
     id="g3155"
     inkscape:groupmode="layer"
     sodipodi:insensitive="true">
    <path
       sodipodi:nodetypes="ccccc"
       inkscape:connector-curvature="0"
       id="path3343"
       d="m 333,365.5 32,0 0,-332 -32,0 z"
       style="fill:#ffffff;stroke:none;display:inline" />
    <path
       style="fill:none;stroke:#000000;stroke-width:1px;stroke-linecap:square;display:inline"
       d="m 307,30.5 0,10 0,26"
       id="path3178-9-2"
       inkscape:connector-curvature="0"
       sodipodi:nodetypes="ccc" />
    <path
       sodipodi:nodetypes="ccc"
       inkscape:connector-curvature="0"
       id="path3409"
       d="m 93,30.5 0,10 0,26"
       style="fill:none;stroke:#000000;stroke-width:1px;stroke-linecap:square;display:inline" />
    <path
       sodipodi:nodetypes="cccc"
       inkscape:connector-curvature="0"
       id="path3153"
       d="m 67,67 10,0 282.5,0 10,0"
       style="fill:none;stroke:#000000;stroke-width:1px;stroke-linecap:square;display:inline" />
    <path
       sodipodi:nodetypes="ccccc"
       inkscape:connector-curvature="0"
       id="path3261"
       d="m 34,365.5 33,0 0,-332 -33,0 z"
       style="fill:#ffffff;stroke:none;display:inline" />
    <path
       style="fill:none;stroke:#000000;stroke-width:1px;stroke-linecap:square;display:inline"
       d="m 307,333.5 0,26 0,10"
       id="path3178-9-1"
       inkscape:connector-curvature="0"
       sodipodi:nodetypes="ccc" />
    <path
       sodipodi:nodetypes="ccc"
       inkscape:connector-curvature="0"
       id="path3411"
       d="m 93,333.5 0,26 0,10"
       style="fill:none;stroke:#000000;stroke-width:1px;stroke-linecap:square;display:inline" />
    <path
       style="fill:none;stroke:#000000;stroke-width:1px;stroke-linecap:square;display:inline"
       d="m 369.5,333 -10,0 -282,0 -10,0"
       id="path3159"
       inkscape:connector-curvature="0"
       sodipodi:nodetypes="cccc" />
    <path
       sodipodi:nodetypes="cc"
       inkscape:connector-curvature="0"
       id="path3236"
       d="m 67,30.5 0,62"
       style="fill:none;stroke:#000000;stroke-width:1px;stroke-linecap:square;display:inline" />
    <path
       sodipodi:nodetypes="cccc"
       inkscape:connector-curvature="0"
       id="path3234"
       d="m 67,93.5 0,10 0,256 0,10"
       style="fill:none;stroke:#000000;stroke-width:1px;stroke-linecap:square;display:inline" />
    <path
       style="fill:none;stroke:#000000;stroke-width:1px;stroke-linecap:square;display:inline"
       d="m 369.5,93 -36,0"
       id="C-right-2-7"
       inkscape:connector-curvature="0"
       sodipodi:nodetypes="cc" />
    <path
       style="fill:none;stroke:#000000;stroke-width:1px;stroke-linecap:square;display:inline"
       d="m 369.5,307 -36,0"
       id="C-right-3-0"
       inkscape:connector-curvature="0"
       sodipodi:nodetypes="cc" />
    <path
       style="fill:none;stroke:#000000;stroke-width:1px;stroke-linecap:square;display:inline"
       d="m 333,30.5 0,10 0,319 0,10"
       id="path3178"
       inkscape:connector-curvature="0"
       sodipodi:nodetypes="cccc" />
  </g>
<g
   zpos="-200"
   style="display:none"
   inkscape:label="ZZZZ-006"
   id="g3193"
   inkscape:groupmode="layer"
   sodipodi:insensitive="true">
  <path
     style="fill:#ffffff;stroke:none"
     d="m 189.15625,53.375 c -24.76885,0 -43.62355,4.44008 -56.5625,13.3125 -12.93894,8.872419 -19.21875,21.832968 -19.21875,38.46875 0,16.2661 8.85954,26.23002 27.34375,29.1875 -1.47874,-2.21811 -2.57313,-7.40352 -3.3125,-15.90625 -0.36968,-32.901898 13.29962,-49.161565 40.65625,-49.53125 15.15706,0 39.93718,6.305734 74.6875,18.875 11.09053,4.436215 21.05976,7.750643 29.5625,9.96875 -8.87242,22.18106 -22.55236,49.14997 -41.40625,81.3125 -7.39369,-0.36969 -13.30316,-0.71875 -17,-0.71875 -38.07748,0 -57.66688,10.70393 -58.40625,31.40625 25.13853,-3.32716 45.47327,-5.54188 61,-6.28125 -25.50822,40.66526 -48.79769,71.36018 -69.5,92.0625 -22.92043,-5.91494 -40.2951,-8.88032 -52.125,-9.25 -11.090525,0 -19.22535,2.2094 -24.03125,5.90625 -5.175574,4.06653 -7.40625,9.2413 -7.40625,15.15625 0,8.13305 3.325069,15.53319 10.71875,22.1875 1.344697,1.27392 2.772559,2.43761 4.28125,3.46875 l 49.96875,0 c 7.17732,-3.25986 14.74041,-7.7381 22.65625,-13.4375 1.10905,0.73937 7.01321,3.3138 16.625,7.75 4.77947,2.20591 8.93233,4.11898 12.4375,5.6875 l 103.25,0 c 3.56117,-5.35256 6.8986,-12.0301 10,-20.09375 -11.09053,5.54526 -22.15948,8.125 -33.25,8.125 -17.37516,0 -46.97037,-6.27448 -88.375,-18.84375 25.13853,-24.39916 51.04431,-57.2935 78.03125,-99.4375 18.11452,-0.36968 30.30912,-1.49533 36.59375,-3.34375 5.91495,-1.84842 12.1788,-6.6482 18.09375,-14.78125 -3.69685,0 -17.72583,-0.75064 -42.125,-2.96875 18.48421,-31.05347 34.01386,-60.61744 45.84375,-88.34375 6.65431,-3.327161 14.40883,-9.25258 23.28125,-18.125 -4.43621,1.109054 -10.36695,1.5 -18.5,1.5 -12.56926,0 -32.88339,-3.705385 -61.71875,-11.46875 C 232.41463,57.455384 208.37982,53.375 189.15625,53.375 z M 100.4375,299.96875 c 7.02399,0 19.96392,3.70007 39.1875,11.09375 -14.41769,11.09053 -24.77255,16.25 -30.6875,16.25 -6.65431,0 -12.188785,-1.83441 -16.625,-5.53125 -4.436215,-3.69685 -6.65625,-7.78253 -6.65625,-12.21875 0,-6.28462 4.799774,-9.22407 14.78125,-9.59375 z"
     id="path3209"
     inkscape:connector-curvature="0" />
  <path
     inkscape:connector-curvature="0"
     style="fill:none;stroke:#00ff00;stroke-width:1px;display:inline"
     d="m 138.40625,333 c 7.17732,-3.25986 14.74041,-7.7381 22.65625,-13.4375 1.10905,0.73937 7.01321,3.3138 16.625,7.75 4.77947,2.20591 8.93233,4.11898 12.4375,5.6875 m 103.25,0 c 3.56117,-5.35256 6.8986,-12.0301 10,-20.09375 -11.09053,5.54526 -22.15948,8.125 -33.25,8.125 -17.37516,0 -46.97037,-6.27448 -88.375,-18.84375 25.13853,-24.39916 51.04431,-57.2935 78.03125,-99.4375 18.11452,-0.36968 30.30912,-1.49533 36.59375,-3.34375 5.91495,-1.84842 12.1788,-6.6482 18.09375,-14.78125 -3.69685,0 -17.72583,-0.75064 -42.125,-2.96875 18.48421,-31.05347 34.01386,-60.61744 45.84375,-88.34375 6.65431,-3.327161 14.40883,-9.25258 23.28125,-18.125 -4.43621,1.109054 -10.36695,1.5 -18.5,1.5 -12.56926,0 -32.88339,-3.705385 -61.71875,-11.46875 C 232.41463,57.455384 208.37982,53.375 189.15625,53.375 c -24.76885,0 -43.62355,4.44008 -56.5625,13.3125 -12.93894,8.872419 -19.21875,21.832968 -19.21875,38.46875 0,16.2661 8.85954,26.23002 27.34375,29.1875 -1.47874,-2.21811 -2.57313,-7.40352 -3.3125,-15.90625 -0.36968,-32.901898 13.29962,-49.161565 40.65625,-49.53125 15.15706,0 39.93718,6.305734 74.6875,18.875 11.09053,4.436215 21.05976,7.750643 29.5625,9.96875 -8.87242,22.18106 -22.55236,49.14997 -41.40625,81.3125 -7.39369,-0.36969 -13.30316,-0.71875 -17,-0.71875 -38.07748,0 -57.66688,10.70393 -58.40625,31.40625 25.13853,-3.32716 45.47327,-5.54188 61,-6.28125 -25.50822,40.66526 -48.79769,71.36018 -69.5,92.0625 -22.92043,-5.91494 -40.2951,-8.88032 -52.125,-9.25 -11.090525,0 -19.22535,2.2094 -24.03125,5.90625 -5.175574,4.06653 -7.40625,9.2413 -7.40625,15.15625 0,8.13305 3.325069,15.53319 10.71875,22.1875 1.344697,1.27392 2.772559,2.43761 4.28125,3.46875 m 12,-33.03125 c 7.02399,0 19.96392,3.70007 39.1875,11.09375 -14.41769,11.09053 -24.77255,16.25 -30.6875,16.25 -6.65431,0 -12.188785,-1.83441 -16.625,-5.53125 -4.436215,-3.69685 -6.65625,-7.78253 -6.65625,-12.21875 0,-6.28462 4.799774,-9.22407 14.78125,-9.59375 z"
     id="path3209-1"
     sodipodi:nodetypes="ccscccscccccccsssssccccccscccccsccccsssc" />
  <path
     style="fill:none;stroke:#00ff00;stroke-width:1px;display:inline"
     d="m 138.40625,333 c 7.17732,-3.25986 14.74041,-7.7381 22.65625,-13.4375 1.10905,0.73937 7.01321,3.3138 16.625,7.75 4.77947,2.20591 8.93233,4.11898 12.4375,5.6875"
     id="path139"
     inkscape:connector-curvature="0" />
  <path
     sodipodi:nodetypes="cc"
     inkscape:connector-curvature="0"
     id="path3576-7"
     d="m 147.5,333 -67,0"
     style="fill:none;stroke:#000000;stroke-width:1px;stroke-linecap:square;display:inline" />
  <path
     style="fill:none;stroke:#000000;stroke-width:1px;stroke-linecap:square;display:inline"
     d="m 298.5,333 -117,0"
     id="path3221"
     inkscape:connector-curvature="0"
     sodipodi:nodetypes="cc" />
</g>
<g
   zpos="-80"
   style="display:none"
   inkscape:label="ZZZZ-007"
   id="g3215"
   inkscape:groupmode="layer"
   sodipodi:insensitive="true">
  <path
     style="fill:#ffffff;stroke:none"
     d="m 256.02174,96.127572 -39.82609,38.872758 c -0.95582,0.96778 -1.59304,2.09688 -2.23026,3.22596 -0.63721,1.29038 -0.79652,2.58077 -0.79652,3.70985 0,3.87115 1.59305,6.77451 4.77913,8.38747 l 58.94262,34.84032 c 1.91164,1.29039 3.50469,2.90336 4.46052,4.83893 0.95582,1.93557 1.43374,4.03245 1.43374,6.29063 l 0,110.49593 -44.76453,23.12924 c -1.75235,-0.9678 -4.93844,-2.74207 -9.23965,-5.64542 -4.46052,-2.74207 -9.71757,-5.96803 -15.45252,-9.67787 -5.89426,-3.54855 -12.10714,-7.41971 -18.47931,-11.45215 -6.53147,-3.87114 -12.58505,-7.58099 -18.1607,-10.80694 -5.73495,-3.22596 -10.51409,-5.96802 -14.656,-8.2262 -4.1419,-2.09687 -6.69078,-3.06464 -7.64661,-3.22595 -1.27443,0 -3.02679,0.4839 -4.93843,1.29039 -1.91165,0.80648 -3.98262,1.77427 -5.89426,2.74205 -2.07095,1.12909 -3.98262,2.25817 -5.89426,3.22596 -1.91165,1.12909 -3.3454,1.93556 -4.30122,2.41948 l 0.1593,0 c -1.59304,0.96777 -3.02678,2.09686 -3.98261,3.54855 -0.95582,1.45167 -1.43374,3.06464 -1.43374,4.83892 0,3.87114 1.59305,6.61321 4.93844,8.54878 l 84.59062,49.84102 c 0.79652,0.64519 1.75234,0.96777 2.38956,1.29037 0.63721,0.3226 1.59304,0.3226 2.86748,0.3226 0.79652,0.1613 1.59304,0 2.38956,-0.3226 0.63722,-0.3226 1.43374,-0.64518 2.38957,-0.96778 l -0.15931,0 84.27201,-45.06573 c 3.18608,-1.77427 4.77913,-4.51633 4.77913,-8.38748 l 0,-129.36778 c 0,-3.54854 -1.59305,-6.45191 -4.61983,-8.38749 -10.51408,-6.45189 -21.02819,-12.58122 -31.54226,-18.71053 -10.51408,-6.12931 -21.18749,-12.09734 -31.70157,-18.38794 l 49.86227,-48.550638 c 1.11513,-1.129077 2.07095,-2.258163 2.70817,-3.387248 0.63721,-0.967792 1.11513,-2.419467 1.11513,-4.35504 0,-2.742063 -0.95583,-5.161529 -2.70817,-7.097104 -1.75235,-1.935573 -3.98262,-2.742061 -6.85009,-2.903356 l -128.87722,0 c -1.59305,0 -3.50471,0.645186 -6.05357,1.935575 -2.54887,1.290379 -5.09774,2.903356 -7.80592,4.516334 -2.70816,1.77427 -5.25704,3.548551 -7.6466,5.161527 -2.38957,1.612978 -4.14192,2.903357 -5.41635,3.548552 l 0,-0.161303 c -1.27443,0.967791 -2.38957,1.935575 -3.3454,3.225962 -0.95582,1.290381 -1.27443,2.58076 -1.27443,4.193738 -0.1593,2.903356 0.79652,5.484125 2.54887,7.580994 1.59305,2.096868 3.98261,3.064659 7.0094,3.064659 l 114.06191,0"
     id="path3226"
     inkscape:connector-curvature="0"
     sodipodi:nodetypes="cccsccssccccccccsccccssccscccccsscscccsscsscsccsccsc" />
  <path
     style="fill:none;stroke:#00ff00;stroke-width:1px;display:inline"
     d="m 256.02174,96.127573 -39.82609,38.872757 c -0.95582,0.96778 -1.59304,2.09688 -2.23026,3.22596 -0.63721,1.29038 -0.79652,2.58077 -0.79652,3.70985 0,3.87115 1.59305,6.77451 4.77913,8.38748 l 58.94262,34.84031 c 1.91164,1.29039 3.50469,2.90336 4.46052,4.83893 0.95582,1.93557 1.43374,4.03246 1.43374,6.29063 l 0,110.49594 -44.76453,23.12923 c -1.75235,-0.9678 -4.93844,-2.74207 -9.23965,-5.64542 -4.46052,-2.74207 -9.71757,-5.96803 -15.45252,-9.67787 -5.89426,-3.54855 -12.10714,-7.41971 -18.47931,-11.45215 -6.53147,-3.87114 -12.58505,-7.58099 -18.1607,-10.80694 -5.73495,-3.22596 -10.51409,-5.96802 -14.656,-8.2262 -4.1419,-2.09686 -6.69078,-3.06464 -7.64661,-3.22595 -1.27443,0 -3.02678,0.4839 -4.93843,1.29039 -1.91165,0.80648 -3.98262,1.77427 -5.89426,2.74205 -2.07095,1.12909 -3.98262,2.25817 -5.89426,3.22596 -1.91165,1.12909 -3.3454,1.93556 -4.30122,2.41948 l 0.1593,0 c -1.59304,0.96777 -3.02678,2.09686 -3.98261,3.54855 -0.95582,1.45167 -1.43374,3.06464 -1.43374,4.83892 0,3.87114 1.59305,6.61321 4.93844,8.54879 l 84.59062,49.84101 c 0.79652,0.64519 1.75234,0.96778 2.38956,1.29037 0.63721,0.3226 1.59304,0.3226 2.86748,0.3226 0.79652,0.1613 1.59304,0 2.38956,-0.3226 0.63722,-0.32259 1.43374,-0.64518 2.38957,-0.96778 l -0.1593,0 84.272,-45.06573 c 3.18608,-1.77427 4.77913,-4.51633 4.77913,-8.38748 l 0,-129.36778 c 0,-3.54854 -1.59305,-6.45191 -4.61983,-8.38749 -10.51408,-6.45189 -21.02818,-12.58122 -31.54226,-18.71053 -10.51408,-6.12931 -21.18749,-12.09734 -31.70156,-18.38794 l 49.86226,-48.550638 c 1.11513,-1.129076 2.07095,-2.258162 2.70817,-3.387248 0.63721,-0.967792 1.11513,-2.419466 1.11513,-4.35504 0,-2.742063 -0.95583,-5.161529 -2.70817,-7.097103 -1.75234,-1.935574 -3.98262,-2.742062 -6.85009,-2.903357 l -128.87722,0 c -1.59305,0 -3.50471,0.645186 -6.05357,1.935575 -2.54887,1.29038 -5.09774,2.903356 -7.80592,4.516334 -2.70816,1.774271 -5.25704,3.548551 -7.6466,5.161527 -2.38957,1.612978 -4.14192,2.903358 -5.41635,3.548553 l 0,-0.161304 c -1.27443,0.967791 -2.38957,1.935575 -3.3454,3.225963 -0.95582,1.29038 -1.27443,2.58076 -1.27443,4.193737 -0.1593,2.903357 0.79652,5.484125 2.54887,7.580994 1.59305,2.096869 3.98261,3.06466 7.0094,3.06466 l 114.06191,0"
     id="path3226-0"
     inkscape:connector-curvature="0"
     sodipodi:nodetypes="cccsccssccccccccsccccssccscccccsscscccsscsscsccsccsc" />
</g>
</svg>
