<?xml version="1.0" encoding="UTF-8" standalone="no"?>
<!-- Created with Inkscape (http://www.inkscape.org/) -->

<svg
   xmlns:dc="http://purl.org/dc/elements/1.1/"
   xmlns:cc="http://creativecommons.org/ns#"
   xmlns:rdf="http://www.w3.org/1999/02/22-rdf-syntax-ns#"
   xmlns:svg="http://www.w3.org/2000/svg"
   xmlns="http://www.w3.org/2000/svg"
   xmlns:sodipodi="http://sodipodi.sourceforge.net/DTD/sodipodi-0.dtd"
   xmlns:inkscape="http://www.inkscape.org/namespaces/inkscape"
   style="display:inline"
   sodipodi:docname="161212_HHHH_00_UW_00_UW_.svg"
   inkscape:version="0.48.3.1 r9886"
   version="1.1"
   id="svg2902"
   height="400"
   width="400">
  <sodipodi:namedview
     id="base"
     pagecolor="#f0f0f0"
     bordercolor="#666666"
     borderopacity="1.0"
     inkscape:pageopacity="1"
     inkscape:pageshadow="2"
     inkscape:zoom="1.02574"
     inkscape:cx="122.07395"
     inkscape:cy="168.8155"
     inkscape:document-units="px"
     inkscape:current-layer="g3221"
     showgrid="false"
     inkscape:window-width="1018"
     inkscape:window-height="709"
     inkscape:window-x="0"
     inkscape:window-y="1"
     inkscape:window-maximized="0"
     showguides="true"
     inkscape:guide-bbox="true"
     inkscape:snap-bbox="true"
     inkscape:snap-global="false" />
  <defs
     id="defs2904">
    <clipPath
       clipPathUnits="userSpaceOnUse"
       id="clipPath5174">
      <path
         id="path5176"
         style="opacity:0.5;fill:#00ff00;stroke:#00ff00;stroke-width:1px;stroke-linecap:square;display:inline"
         d="m 436.26971,600.11436 -232.09481,134 -169.500003,-293.58262 232.094813,-134 z"
         inkscape:connector-curvature="0"
         sodipodi:nodetypes="ccccc" />
    </clipPath>
    <clipPath
       clipPathUnits="userSpaceOnUse"
       id="clipPath5174-5">
      <path
         id="path5176-9"
         style="opacity:0.5;fill:#00ff00;stroke:#00ff00;stroke-width:1px;stroke-linecap:square;display:inline"
         d="m 436.26971,600.11436 -232.09481,134 -169.500003,-293.58262 232.094813,-134 z"
         inkscape:connector-curvature="0"
         sodipodi:nodetypes="ccccc" />
    </clipPath>
    <clipPath
       clipPathUnits="userSpaceOnUse"
       id="clipPath3238">
      <path
         sodipodi:nodetypes="ccccc"
         inkscape:connector-curvature="0"
         d="m 461.26971,643.41563 -232.09481,134 -169.500002,-293.58262 232.094812,-134 z"
         style="opacity:0.5;fill:#00ff00;stroke:#00ff00;stroke-width:1px;stroke-linecap:square;display:inline"
         id="path3240" />
    </clipPath>
  </defs>
  <metadata
     id="metadata2907">
    <rdf:RDF>
      <cc:Work
         rdf:about="">
        <dc:format>image/svg+xml</dc:format>
        <dc:type
           rdf:resource="http://purl.org/dc/dcmitype/StillImage" />
        <dc:title />
      </cc:Work>
    </rdf:RDF>
  </metadata>
  
tmp/TMP.change:<g
     inkscape:groupmode="layer"
     id="bg"
     inkscape:label="XX_BG"
     sodipodi:insensitive="true">
    <path
       style="fill:#f6ffd5"
       d="M 400,0 400,400 0,400 0,0 z"
       id="bgrect"
       inkscape:connector-curvature="0" />
  </g>
  
tmp/TMP.change:<g
     inkscape:label="XX_Referenz"
     inkscape:groupmode="layer"
     id="XX_referenz"
     style="display:inline"
     sodipodi:insensitive="true">
    <path
       id="innerframe"
       style="fill:none;stroke:#ff0000;stroke-width:1"
       d="m 40.5,40.5 319,0 0,319 -319,0 0,-319 z"
       inkscape:label="#innerframe"
       sodipodi:insensitive="true"
       inkscape:connector-curvature="0" />
    <path
       id="outerframe"
       style="fill:none;stroke:#ff0000;stroke-width:1"
       d="m 30.5,30.5 339,0 0,339 -339,0 0,-339 z"
       inkscape:label="#outerframe"
       sodipodi:nodetypes="ccccc"
       sodipodi:insensitive="true"
       inkscape:connector-curvature="0" />
    <path
       style="opacity:0.5;fill:none;stroke:#ffc200;stroke-width:1px;stroke-linecap:square"
       d="m 189,30.5 0,10"
       id="ref-S-top-1"
       sodipodi:insensitive="true"
       inkscape:connector-curvature="0" />
    <path
       style="opacity:0.5;fill:none;stroke:#ffc200;stroke-width:1px;stroke-linecap:square"
       d="m 191,30.5 0,10"
       id="ref-S-top-2"
       sodipodi:insensitive="true"
       inkscape:connector-curvature="0" />
    <path
       style="opacity:0.5;fill:none;stroke:#ffc200;stroke-width:1px;stroke-linecap:square"
       d="m 209,30.5 0,10"
       id="ref-S-top-3"
       sodipodi:insensitive="true"
       inkscape:connector-curvature="0" />
    <path
       style="opacity:0.5;fill:none;stroke:#ffc200;stroke-width:1px;stroke-linecap:square"
       d="m 211,30.5 0,10"
       id="ref-S-top-4"
       sodipodi:insensitive="true"
       inkscape:connector-curvature="0" />
    <path
       style="opacity:0.5;fill:none;stroke:#00ff00;stroke-width:1px;stroke-linecap:square"
       d="m 199,30.5 0,10"
       id="ref-I-top-1"
       sodipodi:insensitive="true"
       inkscape:connector-curvature="0" />
    <path
       style="opacity:0.5;fill:none;stroke:#00ff00;stroke-width:1px;stroke-linecap:square"
       d="m 201,30.5 0,10"
       id="ref-I-top-2"
       sodipodi:insensitive="true"
       inkscape:connector-curvature="0" />
    <path
       style="opacity:0.5;fill:none;stroke:#00ffcc;stroke-width:1px;stroke-linecap:square"
       d="m 66,30.5 0,10"
       id="ref-C-top-1"
       sodipodi:insensitive="true"
       inkscape:connector-curvature="0" />
    <path
       style="opacity:0.5;fill:none;stroke:#00ffcc;stroke-width:1px;stroke-linecap:square"
       d="m 68,30.5 0,10"
       id="ref-C-top-2"
       sodipodi:insensitive="true"
       inkscape:connector-curvature="0" />
    <path
       style="opacity:0.5;fill:none;stroke:#00ffcc;stroke-width:1px;stroke-linecap:square"
       d="m 92,30.5 0,10"
       id="ref-C-top-3"
       sodipodi:insensitive="true"
       inkscape:connector-curvature="0" />
    <path
       style="opacity:0.5;fill:none;stroke:#00ffcc;stroke-width:1px;stroke-linecap:square"
       d="m 94,30.5 0,10"
       id="ref-C-top-4"
       sodipodi:insensitive="true"
       inkscape:connector-curvature="0" />
    <path
       style="opacity:0.5;fill:none;stroke:#00ffcc;stroke-width:1px;stroke-linecap:square"
       d="m 306,30.5 0,10"
       id="ref-C-top-5"
       sodipodi:insensitive="true"
       inkscape:connector-curvature="0" />
    <path
       style="opacity:0.5;fill:none;stroke:#00ffcc;stroke-width:1px;stroke-linecap:square"
       d="m 308,30.5 0,10"
       id="ref-C-top-6"
       sodipodi:insensitive="true"
       inkscape:connector-curvature="0" />
    <path
       style="opacity:0.5;fill:none;stroke:#00ffcc;stroke-width:1px;stroke-linecap:square"
       d="m 332,30.5 0,10"
       id="ref-C-top-7"
       sodipodi:insensitive="true"
       inkscape:connector-curvature="0" />
    <path
       style="opacity:0.5;fill:none;stroke:#00ffcc;stroke-width:1px;stroke-linecap:square"
       d="m 334,30.5 0,10"
       id="ref-C-top-8"
       sodipodi:insensitive="true"
       inkscape:connector-curvature="0" />
    <path
       style="opacity:0.5;fill:none;stroke:#ffc200;stroke-width:1px;stroke-linecap:square"
       d="m 369.5,189 -10,0"
       id="ref-S-right-1"
       sodipodi:insensitive="true"
       inkscape:connector-curvature="0" />
    <path
       style="opacity:0.5;fill:none;stroke:#ffc200;stroke-width:1px;stroke-linecap:square"
       d="m 369.5,191 -10,0"
       id="ref-S-right-2"
       sodipodi:insensitive="true"
       inkscape:connector-curvature="0" />
    <path
       style="opacity:0.5;fill:none;stroke:#ffc200;stroke-width:1px;stroke-linecap:square"
       d="m 369.5,209 -10,0"
       id="ref-S-right-3"
       sodipodi:insensitive="true"
       inkscape:connector-curvature="0" />
    <path
       style="opacity:0.5;fill:none;stroke:#ffc200;stroke-width:1px;stroke-linecap:square"
       d="m 369.5,211 -10,0"
       id="ref-S-right-4"
       sodipodi:insensitive="true"
       inkscape:connector-curvature="0" />
    <path
       style="opacity:0.5;fill:none;stroke:#00ff00;stroke-width:1px;stroke-linecap:square"
       d="m 369.5,199 -10,0"
       id="ref-I-right-1"
       sodipodi:insensitive="true"
       inkscape:connector-curvature="0" />
    <path
       style="opacity:0.5;fill:none;stroke:#00ff00;stroke-width:1px;stroke-linecap:square"
       d="m 369.5,201 -10,0"
       id="ref-I-right-2"
       sodipodi:insensitive="true"
       inkscape:connector-curvature="0" />
    <path
       style="opacity:0.5;fill:none;stroke:#00ffcc;stroke-width:1px;stroke-linecap:square"
       d="m 369.5,66 -10,0"
       id="ref-C-right-1"
       sodipodi:insensitive="true"
       inkscape:connector-curvature="0" />
    <path
       style="opacity:0.5;fill:none;stroke:#00ffcc;stroke-width:1px;stroke-linecap:square"
       d="m 369.5,68 -10,0"
       id="ref-C-right-2"
       sodipodi:insensitive="true"
       inkscape:connector-curvature="0" />
    <path
       style="opacity:0.5;fill:none;stroke:#00ffcc;stroke-width:1px;stroke-linecap:square"
       d="m 369.5,92 -10,0"
       id="ref-C-right-3"
       sodipodi:insensitive="true"
       inkscape:connector-curvature="0" />
    <path
       style="opacity:0.5;fill:none;stroke:#00ffcc;stroke-width:1px;stroke-linecap:square"
       d="m 369.5,94 -10,0"
       id="ref-C-right-4"
       sodipodi:insensitive="true"
       inkscape:connector-curvature="0" />
    <path
       style="opacity:0.5;fill:none;stroke:#00ffcc;stroke-width:1px;stroke-linecap:square"
       d="m 369.5,306 -10,0"
       id="ref-C-right-5"
       sodipodi:insensitive="true"
       inkscape:connector-curvature="0" />
    <path
       style="opacity:0.5;fill:none;stroke:#00ffcc;stroke-width:1px;stroke-linecap:square"
       d="m 369.5,308 -10,0"
       id="ref-C-right-6"
       sodipodi:insensitive="true"
       inkscape:connector-curvature="0" />
    <path
       style="opacity:0.5;fill:none;stroke:#00ffcc;stroke-width:1px;stroke-linecap:square"
       d="m 369.5,332 -10,0"
       id="ref-C-right-7"
       sodipodi:insensitive="true"
       inkscape:connector-curvature="0" />
    <path
       style="opacity:0.5;fill:none;stroke:#00ffcc;stroke-width:1px;stroke-linecap:square"
       d="m 369.5,334 -10,0"
       id="ref-C-right-8"
       sodipodi:insensitive="true"
       inkscape:connector-curvature="0" />
    <path
       style="opacity:0.5;fill:none;stroke:#ffc200;stroke-width:1px;stroke-linecap:square"
       d="m 189,369.5 0,-10"
       id="ref-S-bottom-1"
       sodipodi:insensitive="true"
       inkscape:connector-curvature="0" />
    <path
       style="opacity:0.5;fill:none;stroke:#ffc200;stroke-width:1px;stroke-linecap:square"
       d="m 191,369.5 0,-10"
       id="ref-S-bottom-2"
       sodipodi:insensitive="true"
       inkscape:connector-curvature="0" />
    <path
       style="opacity:0.5;fill:none;stroke:#ffc200;stroke-width:1px;stroke-linecap:square"
       d="m 209,369.5 0,-10"
       id="ref-S-bottom-3"
       sodipodi:insensitive="true"
       inkscape:connector-curvature="0" />
    <path
       style="opacity:0.5;fill:none;stroke:#ffc200;stroke-width:1px;stroke-linecap:square"
       d="m 211,369.5 0,-10"
       id="ref-S-bottom-4"
       sodipodi:insensitive="true"
       inkscape:connector-curvature="0" />
    <path
       style="opacity:0.5;fill:none;stroke:#00ff00;stroke-width:1px;stroke-linecap:square"
       d="m 199,369.5 0,-10"
       id="ref-I-bottom-1"
       sodipodi:insensitive="true"
       inkscape:connector-curvature="0" />
    <path
       style="opacity:0.5;fill:none;stroke:#00ff00;stroke-width:1px;stroke-linecap:square"
       d="m 201,369.5 0,-10"
       id="ref-I-bottom-2"
       sodipodi:insensitive="true"
       inkscape:connector-curvature="0" />
    <path
       style="opacity:0.5;fill:none;stroke:#00ffcc;stroke-width:1px;stroke-linecap:square"
       d="m 66,369.5 0,-10"
       id="ref-C-bottom-1"
       sodipodi:insensitive="true"
       inkscape:connector-curvature="0" />
    <path
       style="opacity:0.5;fill:none;stroke:#00ffcc;stroke-width:1px;stroke-linecap:square"
       d="m 68,369.5 0,-10"
       id="ref-C-bottom-2"
       sodipodi:insensitive="true"
       inkscape:connector-curvature="0" />
    <path
       style="opacity:0.5;fill:none;stroke:#00ffcc;stroke-width:1px;stroke-linecap:square"
       d="m 92,369.5 0,-10"
       id="ref-C-bottom-3"
       sodipodi:insensitive="true"
       inkscape:connector-curvature="0" />
    <path
       style="opacity:0.5;fill:none;stroke:#00ffcc;stroke-width:1px;stroke-linecap:square"
       d="m 94,369.5 0,-10"
       id="ref-C-bottom-4"
       sodipodi:insensitive="true"
       inkscape:connector-curvature="0" />
    <path
       style="opacity:0.5;fill:none;stroke:#00ffcc;stroke-width:1px;stroke-linecap:square"
       d="m 306,369.5 0,-10"
       id="ref-C-bottom-5"
       sodipodi:insensitive="true"
       inkscape:connector-curvature="0" />
    <path
       style="opacity:0.5;fill:none;stroke:#00ffcc;stroke-width:1px;stroke-linecap:square"
       d="m 308,369.5 0,-10"
       id="ref-C-bottom-6"
       sodipodi:insensitive="true"
       inkscape:connector-curvature="0" />
    <path
       style="opacity:0.5;fill:none;stroke:#00ffcc;stroke-width:1px;stroke-linecap:square"
       d="m 332,369.5 0,-10"
       id="ref-C-bottom-7"
       sodipodi:insensitive="true"
       inkscape:connector-curvature="0" />
    <path
       style="opacity:0.5;fill:none;stroke:#00ffcc;stroke-width:1px;stroke-linecap:square"
       d="m 334,369.5 0,-10"
       id="ref-C-bottom-8"
       sodipodi:insensitive="true"
       inkscape:connector-curvature="0" />
    <path
       style="opacity:0.5;fill:none;stroke:#ffc200;stroke-width:1px;stroke-linecap:square"
       d="m 30.5,189 10,0"
       id="ref-S-left-1"
       sodipodi:insensitive="true"
       inkscape:connector-curvature="0" />
    <path
       style="opacity:0.5;fill:none;stroke:#ffc200;stroke-width:1px;stroke-linecap:square"
       d="m 30.5,191 10,0"
       id="ref-S-left-2"
       sodipodi:insensitive="true"
       inkscape:connector-curvature="0" />
    <path
       style="opacity:0.5;fill:none;stroke:#ffc200;stroke-width:1px;stroke-linecap:square"
       d="m 30.5,209 10,0"
       id="ref-S-left-3"
       sodipodi:insensitive="true"
       inkscape:connector-curvature="0" />
    <path
       style="opacity:0.5;fill:none;stroke:#ffc200;stroke-width:1px;stroke-linecap:square"
       d="m 30.5,211 10,0"
       id="ref-S-left-4"
       sodipodi:insensitive="true"
       inkscape:connector-curvature="0" />
    <path
       style="opacity:0.5;fill:none;stroke:#00ff00;stroke-width:1px;stroke-linecap:square"
       d="m 40.5,199 -10,0"
       id="ref-I-left-1"
       sodipodi:insensitive="true"
       inkscape:connector-curvature="0" />
    <path
       style="opacity:0.5;fill:none;stroke:#00ff00;stroke-width:1px;stroke-linecap:square"
       d="m 40.5,201 -10,0"
       id="ref-I-left-2"
       sodipodi:insensitive="true"
       inkscape:connector-curvature="0" />
    <path
       style="opacity:0.5;fill:none;stroke:#00ffcc;stroke-width:1px;stroke-linecap:square"
       d="m 30.5,66 10,0"
       id="ref-C-left-1"
       sodipodi:insensitive="true"
       inkscape:connector-curvature="0" />
    <path
       style="opacity:0.5;fill:none;stroke:#00ffcc;stroke-width:1px;stroke-linecap:square"
       d="m 30.5,68 10,0"
       id="ref-C-left-2"
       sodipodi:insensitive="true"
       inkscape:connector-curvature="0" />
    <path
       style="opacity:0.5;fill:none;stroke:#00ffcc;stroke-width:1px;stroke-linecap:square"
       d="m 30.5,92 10,0"
       id="ref-C-left-3"
       sodipodi:insensitive="true"
       inkscape:connector-curvature="0" />
    <path
       style="opacity:0.5;fill:none;stroke:#00ffcc;stroke-width:1px;stroke-linecap:square"
       d="m 30.5,94 10,0"
       id="ref-C-left-4"
       sodipodi:insensitive="true"
       inkscape:connector-curvature="0" />
    <path
       style="opacity:0.5;fill:none;stroke:#00ffcc;stroke-width:1px;stroke-linecap:square"
       d="m 30.5,306 10,0"
       id="ref-C-left-5"
       sodipodi:insensitive="true"
       inkscape:connector-curvature="0" />
    <path
       style="opacity:0.5;fill:none;stroke:#00ffcc;stroke-width:1px;stroke-linecap:square"
       d="m 30.5,308 10,0"
       id="ref-C-left-6"
       sodipodi:insensitive="true"
       inkscape:connector-curvature="0" />
    <path
       style="opacity:0.5;fill:none;stroke:#00ffcc;stroke-width:1px;stroke-linecap:square"
       d="m 30.5,332 10,0"
       id="ref-C-left-7"
       sodipodi:insensitive="true"
       inkscape:connector-curvature="0" />
    <path
       style="opacity:0.5;fill:none;stroke:#00ffcc;stroke-width:1px;stroke-linecap:square"
       d="m 30.5,334 10,0"
       id="ref-C-left-8"
       sodipodi:insensitive="true"
       inkscape:connector-curvature="0" />
    <path
       style="fill:none;stroke:#000000;stroke-width:1px;stroke-linecap:square"
       d="m 190,30.5 0,10"
       id="S-top-1"
       inkscape:connector-curvature="0" />
    <path
       style="fill:none;stroke:#000000;stroke-width:1px;stroke-linecap:square"
       d="m 210,30.5 0,10"
       id="S-top-2"
       inkscape:connector-curvature="0" />
    <path
       style="fill:none;stroke:#000000;stroke-width:1px;stroke-linecap:square"
       d="m 369.5,190 -10,0"
       id="S-right-1"
       inkscape:connector-curvature="0" />
    <path
       style="fill:none;stroke:#000000;stroke-width:1px;stroke-linecap:square"
       d="m 369.5,210 -10,0"
       id="S-right-2"
       inkscape:connector-curvature="0" />
    <path
       style="fill:none;stroke:#000000;stroke-width:1px;stroke-linecap:square"
       d="m 190,369.5 0,-10"
       id="S-bottom-1"
       inkscape:connector-curvature="0" />
    <path
       style="fill:none;stroke:#000000;stroke-width:1px;stroke-linecap:square"
       d="m 210,369.5 0,-10"
       id="S-bottom-2"
       inkscape:connector-curvature="0" />
    <path
       style="fill:none;stroke:#000000;stroke-width:1px;stroke-linecap:square"
       d="m 30.5,190 10,0"
       id="S-left-1"
       inkscape:connector-curvature="0" />
    <path
       style="fill:none;stroke:#000000;stroke-width:1px;stroke-linecap:square"
       d="m 30.5,210 10,0"
       id="S-left-2"
       inkscape:connector-curvature="0" />
    <path
       style="fill:none;stroke:#000000;stroke-width:1px;stroke-linecap:square"
       d="m 200,30.5 0,10"
       id="I-top-1"
       inkscape:connector-curvature="0" />
    <path
       style="fill:none;stroke:#000000;stroke-width:1px;stroke-linecap:square"
       d="m 369.5,200 -10,0"
       id="I-right-1"
       inkscape:connector-curvature="0" />
    <path
       style="fill:none;stroke:#000000;stroke-width:1px;stroke-linecap:square"
       d="m 200,369.5 0,-10"
       id="I-bottom-1"
       inkscape:connector-curvature="0" />
    <path
       style="fill:none;stroke:#000000;stroke-width:1px;stroke-linecap:square"
       d="m 40.5,200 -10,0"
       id="I-left-1"
       inkscape:connector-curvature="0" />
    <path
       style="fill:none;stroke:#000000;stroke-width:1px;stroke-linecap:square"
       d="m 67,30.5 0,10"
       id="C-top-1"
       inkscape:connector-curvature="0" />
    <path
       style="fill:none;stroke:#000000;stroke-width:1px;stroke-linecap:square"
       d="m 93,30.5 0,10"
       id="C-top-2"
       inkscape:connector-curvature="0" />
    <path
       style="fill:none;stroke:#000000;stroke-width:1px;stroke-linecap:square"
       d="m 307,30.5 0,10"
       id="C-top-3"
       inkscape:connector-curvature="0" />
    <path
       style="fill:none;stroke:#000000;stroke-width:1px;stroke-linecap:square"
       d="m 333,30.5 0,10"
       id="C-top-4"
       inkscape:connector-curvature="0" />
    <path
       style="fill:none;stroke:#000000;stroke-width:1px;stroke-linecap:square"
       d="m 369.5,67 -10,0"
       id="C-right-1"
       inkscape:connector-curvature="0" />
    <path
       style="fill:none;stroke:#000000;stroke-width:1px;stroke-linecap:square"
       d="m 369.5,93 -10,0"
       id="C-right-2"
       inkscape:connector-curvature="0" />
    <path
       style="fill:none;stroke:#000000;stroke-width:1px;stroke-linecap:square"
       d="m 369.5,307 -10,0"
       id="C-right-3"
       inkscape:connector-curvature="0" />
    <path
       style="fill:none;stroke:#000000;stroke-width:1px;stroke-linecap:square"
       d="m 369.5,333 -10,0"
       id="C-right-4"
       inkscape:connector-curvature="0" />
    <path
       style="fill:none;stroke:#000000;stroke-width:1px;stroke-linecap:square"
       d="m 67,369.5 0,-10"
       id="C-bottom-1"
       inkscape:connector-curvature="0" />
    <path
       style="fill:none;stroke:#000000;stroke-width:1px;stroke-linecap:square"
       d="m 93,369.5 0,-10"
       id="C-bottom-2"
       inkscape:connector-curvature="0" />
    <path
       style="fill:none;stroke:#000000;stroke-width:1px;stroke-linecap:square"
       d="m 307,369.5 0,-10"
       id="C-bottom-3"
       inkscape:connector-curvature="0" />
    <path
       style="fill:none;stroke:#000000;stroke-width:1px;stroke-linecap:square"
       d="m 333,369.5 0,-10"
       id="C-bottom-4"
       inkscape:connector-curvature="0" />
    <path
       style="fill:none;stroke:#000000;stroke-width:1px;stroke-linecap:square"
       d="m 30.5,67 10,0"
       id="C-left-1"
       inkscape:connector-curvature="0" />
    <path
       style="fill:none;stroke:#000000;stroke-width:1px;stroke-linecap:square"
       d="m 30.5,93 10,0"
       id="C-left-2"
       inkscape:connector-curvature="0" />
    <path
       style="fill:none;stroke:#000000;stroke-width:1px;stroke-linecap:square"
       d="m 30.5,307 10,0"
       id="C-left-3"
       inkscape:connector-curvature="0" />
    <path
       style="fill:none;stroke:#000000;stroke-width:1px;stroke-linecap:square"
       d="m 30.5,333 10,0"
       id="C-left-4"
       inkscape:connector-curvature="0" />
  </g>
  
tmp/TMP.change:<g
     inkscape:groupmode="layer"
     id="g3149"
     inkscape:label="OKON-001"
     zpos="-300"
     style="display:inline"
     sodipodi:insensitive="true">
    <path
       sodipodi:nodetypes="ccccc"
       inkscape:connector-curvature="0"
       id="path3147"
       d="m 30.5,307 0,26 339,0 0,-26 z"
       style="fill:#000000;stroke:none;display:inline" />
    <path
       style="fill:#000000;stroke:none;display:inline"
       d="m 30.5,67 0,26 339,0 0,-26 z"
       id="path3118"
       inkscape:connector-curvature="0"
       sodipodi:nodetypes="ccccc" />
    <path
       style="fill:none;stroke:#000000;stroke-width:1px;stroke-linecap:square;display:inline"
       d="m 30.5,93 10,0 319,0 10,0"
       id="C-left-2-6"
       inkscape:connector-curvature="0"
       sodipodi:nodetypes="cccc" />
    <path
       style="fill:none;stroke:#000000;stroke-width:1px;stroke-linecap:square;display:inline"
       d="m 369.5,307 -10,0 -319,0 -10,0"
       id="C-right-3-7"
       inkscape:connector-curvature="0"
       sodipodi:nodetypes="cccc" />
  </g>
  
tmp/TMP.master:<g
     zpos="-200"
     style="display:none"
     inkscape:label="HHHH-001"
     id="g3125"
     inkscape:groupmode="layer"
     sodipodi:insensitive="true">
    <path
       style="fill:#ffff00;stroke:none"
       d="m 107.875,67 c -0.002,0.170591 -0.0313,0.326797 -0.0313,0.5 l 0,265.5 29.0625,0 0,-134 122.8125,0 0,134 28.09375,0 0,-266 -28.09375,0 0,103.53125 -122.8125,0 0,-103.03125 c 0,-0.173203 -0.0288,-0.329409 -0.0313,-0.5 l -29,0 z"
       id="path3136"
       inkscape:connector-curvature="0" />
    <path
       style="fill:none;stroke:#00ff00;stroke-width:1px;display:inline"
       d="m 107.875,67 c -0.002,0.170591 -0.0313,0.326797 -0.0313,0.5 l 0,265.5 m 29.0625,0 0,-134 122.8125,0 0,134 m 28.09375,0 0,-266 m -28.09375,0 0,103.53125 -122.8125,0 0,-103.03125 c 0,-0.173203 -0.0288,-0.329409 -0.0313,-0.5"
       id="path3136-6"
       inkscape:connector-curvature="0"
       sodipodi:nodetypes="csccccccccccsc" />
  </g>
  
tmp/TMP.master:<g
     zpos="-200"
     style="display:none"
     inkscape:label="HHHH-002"
     id="g3141"
     inkscape:groupmode="layer"
     sodipodi:insensitive="true">
    <path
       style="fill:#ffff00;stroke:none"
       d="m 104.78125,67 c -0.3765,12.303986 -0.35168,257.33597 0.0313,266 l 38.09375,0 c 0.39715,-5.60901 0.40625,-19.05512 0.40625,-56.46875 l 0,-57.5 56.6875,0 57.09375,0 0,56.3125 c 0,41.17347 -0.18693,53.10805 0.1875,57.65625 l 38.0625,0 c 0.23153,-5.09453 0.25,-26.78362 0.25,-133 0,-104.942548 0.003,-127.328945 -0.21875,-133 l -38.09375,0 c -0.34637,4.838496 -0.1875,17.170048 -0.1875,57.25 l 0,55.90625 -57.09375,0 -56.6875,0 0,-57.09375 c 0,-36.666901 5.7e-4,-50.324636 -0.375,-56.0625 l -38.15625,0 z"
       id="path3152"
       inkscape:connector-curvature="0" />
    <path
       style="fill:none;stroke:#00ff00;stroke-width:1px;display:inline"
       d="m 104.78125,67 c -0.3765,12.303986 -0.35168,257.33597 0.0313,266 m 38.09375,0 0.40625,-113.96875 113.78125,0 L 257.28125,333 m 38.0625,0 -0.15625,-266 m -37.90625,0 c -0.41001,41.44204 -0.1875,64.71735 -0.1875,113.15625 l -113.78125,0 C 141.98382,142.5137 145.18195,104.60071 142.9375,67"
       id="path3152-5"
       inkscape:connector-curvature="0"
       sodipodi:nodetypes="cccccccccccc" />
  </g>
  
tmp/TMP.master:<g
     zpos="-200"
     style="display:none"
     inkscape:label="HHHH-003"
     id="g3157"
     inkscape:groupmode="layer"
     sodipodi:insensitive="true">
    <path
       style="fill:#ffff00;stroke:none"
       d="m 78.75,67 c -5.92979,6.010745 -8.90625,13.72693 -8.90625,23.15625 L 70.3125,333 l 64.65625,0 c 0.32001,-2.00667 0.46873,-4.12375 0.46875,-6.34375 l 0,-91.53125 129.21875,0 0,91.53125 c -5e-5,2.22321 0.16102,4.33242 0.5,6.34375 l 63.78125,0 0.90625,-236.375 C 329.84349,84.47528 326.33224,74.75904 319.3125,67.46875 319.14515,67.308382 318.98163,67.156223 318.8125,67 l -45.1875,0 c -5.97194,5.642887 -8.96895,13.359955 -8.96875,23.15625 l 0,83 -129.21875,0 0,-85.84375 c -6e-5,-8.157981 -2.66902,-14.925103 -8,-20.3125 L 78.75,67 z"
       id="path3168"
       inkscape:connector-curvature="0" />
    <path
       style="fill:none;stroke:#00ff00;stroke-width:1px;display:inline"
       d="m 78.75,67 c -5.92979,6.010745 -8.90625,13.72693 -8.90625,23.15625 L 70.3125,333 m 64.65625,0 0.46875,-97.875 129.21875,0 0.5,97.875 m 63.78125,0 0.90625,-236.375 C 329.84349,84.47528 326.33224,74.75904 319.3125,67.46875 319.14515,67.308382 318.98163,67.156223 318.8125,67 m -45.1875,0 c -5.97194,5.642887 -8.96895,13.359955 -8.96875,23.15625 l 0,83 -129.21875,0 0,-85.84375 c -6e-5,-8.157981 -2.66902,-14.925103 -8,-20.3125"
       id="path3168-5"
       inkscape:connector-curvature="0"
       sodipodi:nodetypes="cccccccccccccccsc" />
  </g>
  
tmp/TMP.master:<g
     zpos="-200"
     style="display:none"
     inkscape:label="HHHH-004"
     id="g3173"
     inkscape:groupmode="layer"
     sodipodi:insensitive="true">
    <path
       style="fill:#ffff00;stroke:none"
       d="m 79.875,67 0,266 48.03125,0 0,-111.84375 128.75,0 0,111.84375 48.0625,0 0,-266 -48.0625,0 0,115.59375 -128.75,0 0,-115.59375 -48.03125,0 z"
       id="path3184"
       inkscape:connector-curvature="0" />
    <path
       style="fill:none;stroke:#00ff00;stroke-width:1px;display:inline"
       d="m 79.875,67 0,266 m 48.03125,0 0,-111.84375 128.75,0 0,111.84375 m 48.0625,0 0,-266 m -48.0625,0 0,115.59375 -128.75,0 0,-115.59375"
       id="path3184-2"
       inkscape:connector-curvature="0"
       sodipodi:nodetypes="cccccccccccc" />
  </g>
  
tmp/TMP.master:<g
     zpos="-200"
     style="display:none"
     inkscape:label="HHHH-005"
     id="g3189"
     inkscape:groupmode="layer"
     sodipodi:insensitive="true">
    <path
       style="fill:#ffff00;stroke:none"
       d="m 154.15625,67 -37.28125,41.53125 0,224.46875 64.65625,0 0,-166.5 36.5625,17.625 0,148.875 64.65625,0 0,-182.0625 0.4375,-0.40625 -57.125,-31.5 -44.53125,28.125 0,-41.5625 73.09375,0 L 268.125,67 154.15625,67 z"
       id="path3200"
       inkscape:connector-curvature="0" />
    <path
       style="fill:none;stroke:#00ff00;stroke-width:1px;display:inline"
       d="M 154.15625,67 116.875,108.53125 116.875,333 m 64.65625,0 0,-166.5 36.5625,17.625 0,148.875 m 64.65625,0 0,-182.0625 0.4375,-0.40625 -57.125,-31.5 -44.53125,28.125 0,-41.5625 73.09375,0 L 268.125,67"
       id="path3200-1"
       inkscape:connector-curvature="0"
       sodipodi:nodetypes="ccccccccccccccc" />
  </g>
  
tmp/TMP.master:<g
     zpos="-200"
     style="display:inline"
     inkscape:label="HHHH-006"
     id="g3205"
     inkscape:groupmode="layer"
     sodipodi:insensitive="true">
    <path
       style="fill:#ffff00;stroke:none"
       d="m 155.21875,67 c -5.01803,3.25984 -10.10526,7.172427 -15.25,11.78125 -17.27998,15.47999 -25.90625,30.97252 -25.90625,46.8125 0,15.83998 9.35752,23.40625 28.4375,23.40625 -2.51999,-6.83999 -3.625,-12.25875 -3.625,-16.21875 0,-11.51999 4.32751,-24.84876 13.6875,-39.96875 9.35999,-14.75998 18.35876,-21.9525 27.71875,-22.3125 2.88,0 4.6875,1.79125 4.6875,5.03125 0,2.88 -1.4325,8.64126 -4.3125,17.28125 l -29.875,87.125 c -20.87998,4.32 -31.34375,13.33626 -31.34375,26.65625 2.16,0 10.08627,-0.71625 23.40625,-2.15625 -17.39846,53.14438 -29.21449,95.98769 -35.25,128.5625 l 22.15625,0 c 2.5238,-3.2965 4.50136,-7.14711 5.90625,-11.5625 l 23.03125,-74.53125 c 6.12,-19.07998 9.73125,-31.335 11.53125,-36.375 1.08,-5.03999 2.14,-7.545 2.5,-8.625 16.19999,-1.08 43.91629,-2.17125 83.15625,-2.53125 -17.27998,54.71995 -25.90625,92.54252 -25.90625,113.0625 0,8.85836 1.22308,15.70733 3.625,20.5625 L 260,333 c -0.099,-2.03835 -0.15625,-4.09845 -0.15625,-6.1875 0,-26.63997 6.83502,-69.46131 20.875,-127.78125 12.59999,0 24.49626,-5.40251 35.65625,-16.5625 -3.95999,0 -9.72126,-0.015 -17.28125,-0.375 -7.55999,-0.36 -12.23125,-0.71875 -14.03125,-0.71875 C 295.93786,137.5537 307.09078,99.450382 318.53125,67 L 301.375,67 c -1.63678,2.380602 -3.10695,5.110607 -4.4375,8.1875 -9.35999,21.23998 -20.88126,56.1663 -35.28125,104.40625 -20.51998,-1.8 -41.40002,-2.875 -63,-2.875 -8.27999,0 -14.4,0.34375 -18,0.34375 L 206.9375,90.65625 c 1.8,-6.11999 2.875,-11.16375 2.875,-15.84375 0,-2.949639 -0.38967,-5.534385 -1.09375,-7.8125 l -53.5,0 z"
       id="path3216"
       inkscape:connector-curvature="0" />
    <path
       style="fill:none;stroke:#00ff00;stroke-width:1px;display:inline"
       d="m 155.21875,67 c -5.01803,3.25984 -10.10526,7.172427 -15.25,11.78125 -17.27998,15.47999 -25.90625,30.97252 -25.90625,46.8125 0,15.83998 9.35752,23.40625 28.4375,23.40625 -2.51999,-6.83999 -3.625,-12.25875 -3.625,-16.21875 0,-11.51999 4.32751,-24.84876 13.6875,-39.96875 9.35999,-14.75998 18.35876,-21.9525 27.71875,-22.3125 2.88,0 4.6875,1.79125 4.6875,5.03125 0,2.88 -1.4325,8.64126 -4.3125,17.28125 l -29.875,87.125 c -20.87998,4.32 -31.34375,13.33626 -31.34375,26.65625 2.16,0 10.08627,-0.71625 23.40625,-2.15625 -17.39846,53.14438 -29.21449,95.98769 -35.25,128.5625 m 22.15625,0 c 2.5238,-3.2965 4.50136,-7.14711 5.90625,-11.5625 l 23.03125,-74.53125 c 6.12,-19.07998 9.73125,-31.335 11.53125,-36.375 1.08,-5.03999 2.14,-7.545 2.5,-8.625 16.19999,-1.08 43.91629,-2.17125 83.15625,-2.53125 -17.27998,54.71995 -25.90625,92.54252 -25.90625,113.0625 0,8.85836 1.22308,15.70733 3.625,20.5625 M 260,333 c -0.099,-2.03835 -0.15625,-4.09845 -0.15625,-6.1875 0,-26.63997 6.83502,-69.46131 20.875,-127.78125 12.59999,0 24.49626,-5.40251 35.65625,-16.5625 -3.95999,0 -9.72126,-0.015 -17.28125,-0.375 -7.55999,-0.36 -12.23125,-0.71875 -14.03125,-0.71875 C 295.93786,137.5537 307.09078,99.450382 318.53125,67 M 301.375,67 c -1.63678,2.380602 -3.10695,5.110607 -4.4375,8.1875 -9.35999,21.23998 -20.88126,56.1663 -35.28125,104.40625 -20.51998,-1.8 -41.40002,-2.875 -63,-2.875 -8.27999,0 -14.4,0.34375 -18,0.34375 L 206.9375,90.65625 c 1.8,-6.11999 2.875,-11.16375 2.875,-15.84375 0,-2.949639 -0.38967,-5.534385 -1.09375,-7.8125"
       id="path3216-7"
       inkscape:connector-curvature="0"
       sodipodi:nodetypes="csscsccscccccccccccsccsccscccccsccsc" />
  </g>
  
tmp/TMP.master:<g
     zpos="-200"
     style="display:none"
     inkscape:label="HHHH-008"
     id="g3237"
     inkscape:groupmode="layer"
     sodipodi:insensitive="true">
    <path
       style="fill:#ffff00;stroke:none"
       d="m 53.125,67 0,13.5 c 8.78905,0.39062 15.24219,1.5625 19.34375,3.125 3.90624,1.75781 6.65625,4.88281 8.21875,9.375 1.5625,4.68749 2.34375,11.91407 2.34375,21.875 l 0,187.4375 c 0,10.15624 -0.78125,17.38281 -2.34375,21.875 -1.393562,4.18068 -3.74211,7.11759 -7,8.8125 l 82.28125,0 c -3.40447,-1.69376 -5.72942,-4.62578 -7.125,-8.8125 -1.56249,-4.49219 -2.15625,-11.71876 -2.15625,-21.875 l 0,-96.09375 106.0625,0 0,96.09375 c 0,10.15624 -0.78125,17.38281 -2.34375,21.875 -1.39355,4.18068 -3.7421,7.11759 -7,8.8125 L 325.5,333 c -3.40447,-1.69376 -5.72942,-4.62578 -7.125,-8.8125 -1.56249,-4.49219 -2.15625,-11.71876 -2.15625,-21.875 l 0,-187.4375 c 0,-9.96093 0.59376,-17.18751 2.15625,-21.875 1.5625,-4.49219 4.30469,-7.61719 8.40625,-9.375 3.90625,-1.5625 10.54689,-2.73438 19.53125,-3.125 l 0,-13.5 -123.65625,0 0,13.5 c 8.98437,0.39062 15.42969,1.5625 19.53125,3.125 3.90625,1.75781 6.65626,4.88281 8.21875,9.375 1.5625,4.68749 2.34375,11.91407 2.34375,21.875 l 0,83.34375 -106.0625,0 0,-83.34375 c 0,-9.96093 0.59376,-17.18751 2.15625,-21.875 1.5625,-4.49219 4.30469,-7.61719 8.40625,-9.375 3.90625,-1.5625 10.54689,-2.73438 19.53125,-3.125 l 0,-13.5 L 53.125,67 z"
       id="path3248"
       inkscape:connector-curvature="0" />
    <path
       style="fill:none;stroke:#00ff00;stroke-width:1px;display:inline"
       d="m 53.125,67 0,13.5 c 8.78905,0.39062 15.24219,1.5625 19.34375,3.125 3.90624,1.75781 6.65625,4.88281 8.21875,9.375 1.5625,4.68749 2.34375,11.91407 2.34375,21.875 l 0,187.4375 c 0,10.15624 -0.78125,17.38281 -2.34375,21.875 -1.393562,4.18068 -3.74211,7.11759 -7,8.8125 m 82.28125,0 c -3.40447,-1.69376 -5.72942,-4.62578 -7.125,-8.8125 -1.56249,-4.49219 -2.15625,-11.71876 -2.15625,-21.875 l 0,-96.09375 106.0625,0 0,96.09375 c 0,10.15624 -0.78125,17.38281 -2.34375,21.875 -1.39355,4.18068 -3.7421,7.11759 -7,8.8125 M 325.5,333 c -3.40447,-1.69376 -5.72942,-4.62578 -7.125,-8.8125 -1.56249,-4.49219 -2.15625,-11.71876 -2.15625,-21.875 l 0,-187.4375 c 0,-9.96093 0.59376,-17.18751 2.15625,-21.875 1.5625,-4.49219 4.30469,-7.61719 8.40625,-9.375 3.90625,-1.5625 10.54689,-2.73438 19.53125,-3.125 l 0,-13.5 m -123.65625,0 0,13.5 c 8.98437,0.39062 15.42969,1.5625 19.53125,3.125 3.90625,1.75781 6.65626,4.88281 8.21875,9.375 1.5625,4.68749 2.34375,11.91407 2.34375,21.875 l 0,83.34375 -106.0625,0 0,-83.34375 c 0,-9.96093 0.59376,-17.18751 2.15625,-21.875 1.5625,-4.49219 4.30469,-7.61719 8.40625,-9.375 3.90625,-1.5625 10.54689,-2.73438 19.53125,-3.125 l 0,-13.5"
       id="path3248-9"
       inkscape:connector-curvature="0"
       sodipodi:nodetypes="ccccssccccsccsccccssccccccccsccscccc" />
  </g>
  
tmp/TMP.master:<g
     zpos="-80"
     style="display:none"
     inkscape:label="HHHH-007"
     id="g3221"
     inkscape:groupmode="layer"
     sodipodi:insensitive="true">
    <path
       style="fill:#ffff00;stroke:none"
       d="m 148.9375,67 c -0.0212,0.01139 -0.0413,0.01986 -0.0625,0.03125 -7.78183,4.085465 -14.99635,7.959879 -22,11.65625 -7.00366,3.890923 -13.02146,7.206807 -18.46875,10.125 -5.44729,3.112734 -9.148288,5.058519 -11.09375,6.03125 -1.945451,1.167272 -3.301478,2.523288 -4.46875,4.46875 -1.167273,1.94545 -1.75,4.08579 -1.75,6.03125 l 0,227.65625 57.5,0 c -0.19851,-1.59594 -0.90993,-3.05777 -2.0625,-4.375 -1.36182,-1.55637 -2.72489,-2.73898 -4.28125,-3.90625 l 0.1875,0.21875 -9.90625,-6.4375 0,-107.125 51.34375,-27.25 83.65625,49.21875 0,99.65625 40.875,0 0.1875,-116.375 c 0,-4.28 -1.95283,-7.60295 -5.84375,-9.9375 -2.14,-1.16728 -6.04567,-3.49817 -11.6875,-7 -5.64183,-3.50182 -12.04475,-7.36919 -19.4375,-11.84375 -7.39274,-4.47456 -15.17282,-9.16055 -23.34375,-14.21875 -8.17094,-4.86365 -15.9651,-9.32078 -22.96875,-13.40625 -7.19822,-4.08546 -13.41056,-7.40136 -18.46875,-10.125 -5.0582,-2.72365 -8.36396,-3.8992 -9.53125,-4.09375 -1.16727,0 -3.50522,0.79443 -6.8125,2.15625 -3.30729,1.55638 -7.00124,3.2975 -11.28125,5.4375 -4.28002,2.14 -8.9559,4.4709 -13.625,7 -4.86366,2.72365 -9.53248,5.25921 -13.8125,7.59375 -4.47456,2.5291 -8.37317,4.64828 -11.875,6.59375 -3.50183,1.94546 -5.81863,3.31556 -7.375,4.09375 l 0,-69.84375 L 183.875,82 c 1.75092,1.167283 5.0668,3.293516 10.125,6.40625 5.05819,3.112735 10.69793,6.640326 17.3125,10.53125 6.61456,4.08546 13.42679,8.34499 20.625,12.625 7.1982,4.28002 13.98623,8.37317 20.40625,11.875 6.22548,3.69637 11.67465,6.60295 16.34375,8.9375 4.47456,2.33455 7.41942,3.5 8.78125,3.5 1.55636,0 3.485,-0.36397 5.625,-1.53125 2.14001,-0.97273 4.29046,-2.16238 6.625,-3.71875 2.14002,-1.55636 4.27329,-2.91238 6.21875,-4.46875 1.94547,-1.36182 3.48897,-2.53433 4.65625,-3.3125 l -0.1875,0 c 1.55637,-0.97273 2.73896,-2.31863 3.90625,-3.875 0.97273,-1.55637 1.53125,-3.30454 1.53125,-5.25 0,-4.66911 -1.92158,-8.18965 -5.8125,-10.71875 -2.14,-0.97273 -6.05271,-3.310671 -11.5,-6.8125 -5.44729,-3.501829 -11.8643,-7.376243 -19.0625,-11.65625 -7.1982,-4.280018 -14.78067,-8.948856 -22.5625,-13.8125 -2.17726,-1.274497 -4.21801,-2.48152 -6.3125,-3.71875 l -91.65625,0 z"
       id="path3232"
       inkscape:connector-curvature="0" />
    <path
       style="fill:none;stroke:#00ff00;stroke-width:1px;display:inline"
       d="m 148.9375,67 c -0.0212,0.01139 -0.0413,0.01986 -0.0625,0.03125 -7.78183,4.085465 -14.99635,7.959879 -22,11.65625 -7.00366,3.890923 -13.02146,7.206807 -18.46875,10.125 -5.44729,3.112734 -9.148288,5.058519 -11.09375,6.03125 -1.945451,1.167272 -3.301478,2.523288 -4.46875,4.46875 -1.167273,1.94545 -1.75,4.08579 -1.75,6.03125 l 0,227.65625 m 57.5,0 c -0.19851,-1.59594 -0.90993,-3.05777 -2.0625,-4.375 -1.36182,-1.55637 -2.72489,-2.73898 -4.28125,-3.90625 l 0.1875,0.21875 -9.90625,-6.4375 0,-107.125 51.34375,-27.25 83.65625,49.21875 0,99.65625 m 40.875,0 0.1875,-116.375 c 0,-4.28 -1.95283,-7.60295 -5.84375,-9.9375 -2.14,-1.16728 -6.04567,-3.49817 -11.6875,-7 -5.64183,-3.50182 -12.04475,-7.36919 -19.4375,-11.84375 -7.39274,-4.47456 -15.17282,-9.16055 -23.34375,-14.21875 -8.17094,-4.86365 -15.9651,-9.32078 -22.96875,-13.40625 -7.19822,-4.08546 -13.41056,-7.40136 -18.46875,-10.125 -5.0582,-2.72365 -8.36396,-3.8992 -9.53125,-4.09375 -1.16727,0 -3.50522,0.79443 -6.8125,2.15625 -3.30729,1.55638 -7.00124,3.2975 -11.28125,5.4375 -4.28002,2.14 -8.9559,4.4709 -13.625,7 -4.86366,2.72365 -9.53248,5.25921 -13.8125,7.59375 -4.47456,2.5291 -8.37317,4.64828 -11.875,6.59375 -3.50183,1.94546 -5.81863,3.31556 -7.375,4.09375 l 0,-69.84375 L 183.875,82 c 1.75092,1.167283 5.0668,3.293516 10.125,6.40625 5.05819,3.112735 10.69793,6.640326 17.3125,10.53125 6.61456,4.08546 13.42679,8.34499 20.625,12.625 7.1982,4.28002 13.98623,8.37317 20.40625,11.875 6.22548,3.69637 11.67465,6.60295 16.34375,8.9375 4.47456,2.33455 7.41942,3.5 8.78125,3.5 1.55636,0 3.485,-0.36397 5.625,-1.53125 2.14001,-0.97273 4.29046,-2.16238 6.625,-3.71875 2.14002,-1.55636 4.27329,-2.91238 6.21875,-4.46875 1.94547,-1.36182 3.48897,-2.53433 4.65625,-3.3125 l -0.1875,0 c 1.55637,-0.97273 2.73896,-2.31863 3.90625,-3.875 0.97273,-1.55637 1.53125,-3.30454 1.53125,-5.25 0,-4.66911 -1.92158,-8.18965 -5.8125,-10.71875 -2.14,-0.97273 -6.05271,-3.310671 -11.5,-6.8125 -5.44729,-3.501829 -11.8643,-7.376243 -19.0625,-11.65625 -7.1982,-4.280018 -14.78067,-8.948856 -22.5625,-13.8125 -2.17726,-1.274497 -4.21801,-2.48152 -6.3125,-3.71875"
       id="path3232-6"
       inkscape:connector-curvature="0"
       sodipodi:nodetypes="cccccssccsccccccccccssccsccsccscccscsccsccccccscsscc" />
  </g>
  
tmp/TMP.change:<g
     style="display:inline"
     zpos="-180"
     inkscape:label="UKON-001"
     id="g3155"
     inkscape:groupmode="layer"
     sodipodi:insensitive="true">
    <path
       style="fill:none;stroke:#000000;stroke-width:1px;stroke-linecap:square;display:inline"
       d="m 369.5,333 -10,0 -319,0 -10,0"
       id="path3159"
       inkscape:connector-curvature="0"
       sodipodi:nodetypes="cccc" />
    <path
       sodipodi:nodetypes="cccc"
       inkscape:connector-curvature="0"
       id="path3153"
       d="m 30.5,67 10,0 319,0 10,0"
       style="fill:none;stroke:#000000;stroke-width:1px;stroke-linecap:square;display:inline" />
  </g>

</svg>
