<?xml version="1.0" encoding="UTF-8" standalone="no"?>
<!-- Created with Inkscape (http://www.inkscape.org/) -->

<svg
   xmlns:dc="http://purl.org/dc/elements/1.1/"
   xmlns:cc="http://creativecommons.org/ns#"
   xmlns:rdf="http://www.w3.org/1999/02/22-rdf-syntax-ns#"
   xmlns:svg="http://www.w3.org/2000/svg"
   xmlns="http://www.w3.org/2000/svg"
   xmlns:sodipodi="http://sodipodi.sourceforge.net/DTD/sodipodi-0.dtd"
   xmlns:inkscape="http://www.inkscape.org/namespaces/inkscape"
   style="display:inline"
   sodipodi:docname="181206_OSOU-R+_00_SB_00_UW_.svg"
   inkscape:version="0.48.3.1 r9886"
   version="1.1"
   id="svg2902"
   height="400"
   width="400">
  <sodipodi:namedview
     id="base"
     pagecolor="#f0f0f0"
     bordercolor="#666666"
     borderopacity="1.0"
     inkscape:pageopacity="1"
     inkscape:pageshadow="2"
     inkscape:zoom="0.78725926"
     inkscape:cx="230.99931"
     inkscape:cy="162.67558"
     inkscape:document-units="px"
     inkscape:current-layer="g5420"
     showgrid="false"
     inkscape:window-width="1018"
     inkscape:window-height="709"
     inkscape:window-x="0"
     inkscape:window-y="1"
     inkscape:window-maximized="0"
     showguides="true"
     inkscape:guide-bbox="true"
     inkscape:snap-bbox="true"
     inkscape:snap-global="false" />
  <defs
     id="defs2904" />
  <metadata
     id="metadata2907">
    <rdf:RDF>
      <cc:Work
         rdf:about="">
        <dc:format>image/svg+xml</dc:format>
        <dc:type
           rdf:resource="http://purl.org/dc/dcmitype/StillImage" />
        <dc:title />
      </cc:Work>
    </rdf:RDF>
  </metadata>
  <g
     inkscape:groupmode="layer"
     id="bg"
     inkscape:label="XX_BG"
     sodipodi:insensitive="true">
    <path
       style="fill:#ddff55"
       d="M 0,400 400,400 400,0 0,0 z"
       id="bgrect"
       inkscape:connector-curvature="0" />
  </g>
  <g
     inkscape:label="XX_REFERENZ"
     inkscape:groupmode="layer"
     id="XX_referenz"
     style="display:inline"
     sodipodi:insensitive="true">
    <path
       id="innerframe"
       style="fill:none;stroke:#ff0000;stroke-width:1"
       d="m 40.5,40.5 319,0 0,319 -319,0 0,-319 z"
       inkscape:label="#innerframe"
       sodipodi:insensitive="true"
       inkscape:connector-curvature="0" />
    <path
       id="outerframe"
       style="fill:none;stroke:#ff0000;stroke-width:1"
       d="m 30.5,30.5 339,0 0,339 -339,0 0,-339 z"
       inkscape:label="#outerframe"
       sodipodi:nodetypes="ccccc"
       sodipodi:insensitive="true"
       inkscape:connector-curvature="0" />
    <path
       style="opacity:0.5;fill:none;stroke:#ffc200;stroke-width:1px;stroke-linecap:square"
       d="m 189,30.5 0,10"
       id="ref-S-top-1"
       sodipodi:insensitive="true"
       inkscape:connector-curvature="0" />
    <path
       style="opacity:0.5;fill:none;stroke:#ffc200;stroke-width:1px;stroke-linecap:square"
       d="m 191,30.5 0,10"
       id="ref-S-top-2"
       sodipodi:insensitive="true"
       inkscape:connector-curvature="0" />
    <path
       style="opacity:0.5;fill:none;stroke:#ffc200;stroke-width:1px;stroke-linecap:square"
       d="m 209,30.5 0,10"
       id="ref-S-top-3"
       sodipodi:insensitive="true"
       inkscape:connector-curvature="0" />
    <path
       style="opacity:0.5;fill:none;stroke:#ffc200;stroke-width:1px;stroke-linecap:square"
       d="m 211,30.5 0,10"
       id="ref-S-top-4"
       sodipodi:insensitive="true"
       inkscape:connector-curvature="0" />
    <path
       style="opacity:0.5;fill:none;stroke:#00ff00;stroke-width:1px;stroke-linecap:square"
       d="m 199,30.5 0,10"
       id="ref-I-top-1"
       sodipodi:insensitive="true"
       inkscape:connector-curvature="0" />
    <path
       style="opacity:0.5;fill:none;stroke:#00ff00;stroke-width:1px;stroke-linecap:square"
       d="m 201,30.5 0,10"
       id="ref-I-top-2"
       sodipodi:insensitive="true"
       inkscape:connector-curvature="0" />
    <path
       style="opacity:0.5;fill:none;stroke:#00ffcc;stroke-width:1px;stroke-linecap:square"
       d="m 66,30.5 0,10"
       id="ref-C-top-1"
       sodipodi:insensitive="true"
       inkscape:connector-curvature="0" />
    <path
       style="opacity:0.5;fill:none;stroke:#00ffcc;stroke-width:1px;stroke-linecap:square"
       d="m 68,30.5 0,10"
       id="ref-C-top-2"
       sodipodi:insensitive="true"
       inkscape:connector-curvature="0" />
    <path
       style="opacity:0.5;fill:none;stroke:#00ffcc;stroke-width:1px;stroke-linecap:square"
       d="m 92,30.5 0,10"
       id="ref-C-top-3"
       sodipodi:insensitive="true"
       inkscape:connector-curvature="0" />
    <path
       style="opacity:0.5;fill:none;stroke:#00ffcc;stroke-width:1px;stroke-linecap:square"
       d="m 94,30.5 0,10"
       id="ref-C-top-4"
       sodipodi:insensitive="true"
       inkscape:connector-curvature="0" />
    <path
       style="opacity:0.5;fill:none;stroke:#00ffcc;stroke-width:1px;stroke-linecap:square"
       d="m 306,30.5 0,10"
       id="ref-C-top-5"
       sodipodi:insensitive="true"
       inkscape:connector-curvature="0" />
    <path
       style="opacity:0.5;fill:none;stroke:#00ffcc;stroke-width:1px;stroke-linecap:square"
       d="m 308,30.5 0,10"
       id="ref-C-top-6"
       sodipodi:insensitive="true"
       inkscape:connector-curvature="0" />
    <path
       style="opacity:0.5;fill:none;stroke:#00ffcc;stroke-width:1px;stroke-linecap:square"
       d="m 332,30.5 0,10"
       id="ref-C-top-7"
       sodipodi:insensitive="true"
       inkscape:connector-curvature="0" />
    <path
       style="opacity:0.5;fill:none;stroke:#00ffcc;stroke-width:1px;stroke-linecap:square"
       d="m 334,30.5 0,10"
       id="ref-C-top-8"
       sodipodi:insensitive="true"
       inkscape:connector-curvature="0" />
    <path
       style="opacity:0.5;fill:none;stroke:#ffc200;stroke-width:1px;stroke-linecap:square"
       d="m 369.5,189 -10,0"
       id="ref-S-right-1"
       sodipodi:insensitive="true"
       inkscape:connector-curvature="0" />
    <path
       style="opacity:0.5;fill:none;stroke:#ffc200;stroke-width:1px;stroke-linecap:square"
       d="m 369.5,191 -10,0"
       id="ref-S-right-2"
       sodipodi:insensitive="true"
       inkscape:connector-curvature="0" />
    <path
       style="opacity:0.5;fill:none;stroke:#ffc200;stroke-width:1px;stroke-linecap:square"
       d="m 369.5,209 -10,0"
       id="ref-S-right-3"
       sodipodi:insensitive="true"
       inkscape:connector-curvature="0" />
    <path
       style="opacity:0.5;fill:none;stroke:#ffc200;stroke-width:1px;stroke-linecap:square"
       d="m 369.5,211 -10,0"
       id="ref-S-right-4"
       sodipodi:insensitive="true"
       inkscape:connector-curvature="0" />
    <path
       style="opacity:0.5;fill:none;stroke:#00ff00;stroke-width:1px;stroke-linecap:square"
       d="m 369.5,199 -10,0"
       id="ref-I-right-1"
       sodipodi:insensitive="true"
       inkscape:connector-curvature="0" />
    <path
       style="opacity:0.5;fill:none;stroke:#00ff00;stroke-width:1px;stroke-linecap:square"
       d="m 369.5,201 -10,0"
       id="ref-I-right-2"
       sodipodi:insensitive="true"
       inkscape:connector-curvature="0" />
    <path
       style="opacity:0.5;fill:none;stroke:#00ffcc;stroke-width:1px;stroke-linecap:square"
       d="m 369.5,66 -10,0"
       id="ref-C-right-1"
       sodipodi:insensitive="true"
       inkscape:connector-curvature="0" />
    <path
       style="opacity:0.5;fill:none;stroke:#00ffcc;stroke-width:1px;stroke-linecap:square"
       d="m 369.5,68 -10,0"
       id="ref-C-right-2"
       sodipodi:insensitive="true"
       inkscape:connector-curvature="0" />
    <path
       style="opacity:0.5;fill:none;stroke:#00ffcc;stroke-width:1px;stroke-linecap:square"
       d="m 369.5,92 -10,0"
       id="ref-C-right-3"
       sodipodi:insensitive="true"
       inkscape:connector-curvature="0" />
    <path
       style="opacity:0.5;fill:none;stroke:#00ffcc;stroke-width:1px;stroke-linecap:square"
       d="m 369.5,94 -10,0"
       id="ref-C-right-4"
       sodipodi:insensitive="true"
       inkscape:connector-curvature="0" />
    <path
       style="opacity:0.5;fill:none;stroke:#00ffcc;stroke-width:1px;stroke-linecap:square"
       d="m 369.5,306 -10,0"
       id="ref-C-right-5"
       sodipodi:insensitive="true"
       inkscape:connector-curvature="0" />
    <path
       style="opacity:0.5;fill:none;stroke:#00ffcc;stroke-width:1px;stroke-linecap:square"
       d="m 369.5,308 -10,0"
       id="ref-C-right-6"
       sodipodi:insensitive="true"
       inkscape:connector-curvature="0" />
    <path
       style="opacity:0.5;fill:none;stroke:#00ffcc;stroke-width:1px;stroke-linecap:square"
       d="m 369.5,332 -10,0"
       id="ref-C-right-7"
       sodipodi:insensitive="true"
       inkscape:connector-curvature="0" />
    <path
       style="opacity:0.5;fill:none;stroke:#00ffcc;stroke-width:1px;stroke-linecap:square"
       d="m 369.5,334 -10,0"
       id="ref-C-right-8"
       sodipodi:insensitive="true"
       inkscape:connector-curvature="0" />
    <path
       style="opacity:0.5;fill:none;stroke:#ffc200;stroke-width:1px;stroke-linecap:square"
       d="m 189,369.5 0,-10"
       id="ref-S-bottom-1"
       sodipodi:insensitive="true"
       inkscape:connector-curvature="0" />
    <path
       style="opacity:0.5;fill:none;stroke:#ffc200;stroke-width:1px;stroke-linecap:square"
       d="m 191,369.5 0,-10"
       id="ref-S-bottom-2"
       sodipodi:insensitive="true"
       inkscape:connector-curvature="0" />
    <path
       style="opacity:0.5;fill:none;stroke:#ffc200;stroke-width:1px;stroke-linecap:square"
       d="m 209,369.5 0,-10"
       id="ref-S-bottom-3"
       sodipodi:insensitive="true"
       inkscape:connector-curvature="0" />
    <path
       style="opacity:0.5;fill:none;stroke:#ffc200;stroke-width:1px;stroke-linecap:square"
       d="m 211,369.5 0,-10"
       id="ref-S-bottom-4"
       sodipodi:insensitive="true"
       inkscape:connector-curvature="0" />
    <path
       style="opacity:0.5;fill:none;stroke:#00ff00;stroke-width:1px;stroke-linecap:square"
       d="m 199,369.5 0,-10"
       id="ref-I-bottom-1"
       sodipodi:insensitive="true"
       inkscape:connector-curvature="0" />
    <path
       style="opacity:0.5;fill:none;stroke:#00ff00;stroke-width:1px;stroke-linecap:square"
       d="m 201,369.5 0,-10"
       id="ref-I-bottom-2"
       sodipodi:insensitive="true"
       inkscape:connector-curvature="0" />
    <path
       style="opacity:0.5;fill:none;stroke:#00ffcc;stroke-width:1px;stroke-linecap:square"
       d="m 66,369.5 0,-10"
       id="ref-C-bottom-1"
       sodipodi:insensitive="true"
       inkscape:connector-curvature="0" />
    <path
       style="opacity:0.5;fill:none;stroke:#00ffcc;stroke-width:1px;stroke-linecap:square"
       d="m 68,369.5 0,-10"
       id="ref-C-bottom-2"
       sodipodi:insensitive="true"
       inkscape:connector-curvature="0" />
    <path
       style="opacity:0.5;fill:none;stroke:#00ffcc;stroke-width:1px;stroke-linecap:square"
       d="m 92,369.5 0,-10"
       id="ref-C-bottom-3"
       sodipodi:insensitive="true"
       inkscape:connector-curvature="0" />
    <path
       style="opacity:0.5;fill:none;stroke:#00ffcc;stroke-width:1px;stroke-linecap:square"
       d="m 94,369.5 0,-10"
       id="ref-C-bottom-4"
       sodipodi:insensitive="true"
       inkscape:connector-curvature="0" />
    <path
       style="opacity:0.5;fill:none;stroke:#00ffcc;stroke-width:1px;stroke-linecap:square"
       d="m 306,369.5 0,-10"
       id="ref-C-bottom-5"
       sodipodi:insensitive="true"
       inkscape:connector-curvature="0" />
    <path
       style="opacity:0.5;fill:none;stroke:#00ffcc;stroke-width:1px;stroke-linecap:square"
       d="m 308,369.5 0,-10"
       id="ref-C-bottom-6"
       sodipodi:insensitive="true"
       inkscape:connector-curvature="0" />
    <path
       style="opacity:0.5;fill:none;stroke:#00ffcc;stroke-width:1px;stroke-linecap:square"
       d="m 332,369.5 0,-10"
       id="ref-C-bottom-7"
       sodipodi:insensitive="true"
       inkscape:connector-curvature="0" />
    <path
       style="opacity:0.5;fill:none;stroke:#00ffcc;stroke-width:1px;stroke-linecap:square"
       d="m 334,369.5 0,-10"
       id="ref-C-bottom-8"
       sodipodi:insensitive="true"
       inkscape:connector-curvature="0" />
    <path
       style="opacity:0.5;fill:none;stroke:#ffc200;stroke-width:1px;stroke-linecap:square"
       d="m 30.5,189 10,0"
       id="ref-S-left-1"
       sodipodi:insensitive="true"
       inkscape:connector-curvature="0" />
    <path
       style="opacity:0.5;fill:none;stroke:#ffc200;stroke-width:1px;stroke-linecap:square"
       d="m 30.5,191 10,0"
       id="ref-S-left-2"
       sodipodi:insensitive="true"
       inkscape:connector-curvature="0" />
    <path
       style="opacity:0.5;fill:none;stroke:#ffc200;stroke-width:1px;stroke-linecap:square"
       d="m 30.5,209 10,0"
       id="ref-S-left-3"
       sodipodi:insensitive="true"
       inkscape:connector-curvature="0" />
    <path
       style="opacity:0.5;fill:none;stroke:#ffc200;stroke-width:1px;stroke-linecap:square"
       d="m 30.5,211 10,0"
       id="ref-S-left-4"
       sodipodi:insensitive="true"
       inkscape:connector-curvature="0" />
    <path
       style="opacity:0.5;fill:none;stroke:#00ff00;stroke-width:1px;stroke-linecap:square"
       d="m 40.5,199 -10,0"
       id="ref-I-left-1"
       sodipodi:insensitive="true"
       inkscape:connector-curvature="0" />
    <path
       style="opacity:0.5;fill:none;stroke:#00ff00;stroke-width:1px;stroke-linecap:square"
       d="m 40.5,201 -10,0"
       id="ref-I-left-2"
       sodipodi:insensitive="true"
       inkscape:connector-curvature="0" />
    <path
       style="opacity:0.5;fill:none;stroke:#00ffcc;stroke-width:1px;stroke-linecap:square"
       d="m 30.5,66 10,0"
       id="ref-C-left-1"
       sodipodi:insensitive="true"
       inkscape:connector-curvature="0" />
    <path
       style="opacity:0.5;fill:none;stroke:#00ffcc;stroke-width:1px;stroke-linecap:square"
       d="m 30.5,68 10,0"
       id="ref-C-left-2"
       sodipodi:insensitive="true"
       inkscape:connector-curvature="0" />
    <path
       style="opacity:0.5;fill:none;stroke:#00ffcc;stroke-width:1px;stroke-linecap:square"
       d="m 30.5,92 10,0"
       id="ref-C-left-3"
       sodipodi:insensitive="true"
       inkscape:connector-curvature="0" />
    <path
       style="opacity:0.5;fill:none;stroke:#00ffcc;stroke-width:1px;stroke-linecap:square"
       d="m 30.5,94 10,0"
       id="ref-C-left-4"
       sodipodi:insensitive="true"
       inkscape:connector-curvature="0" />
    <path
       style="opacity:0.5;fill:none;stroke:#00ffcc;stroke-width:1px;stroke-linecap:square"
       d="m 30.5,306 10,0"
       id="ref-C-left-5"
       sodipodi:insensitive="true"
       inkscape:connector-curvature="0" />
    <path
       style="opacity:0.5;fill:none;stroke:#00ffcc;stroke-width:1px;stroke-linecap:square"
       d="m 30.5,308 10,0"
       id="ref-C-left-6"
       sodipodi:insensitive="true"
       inkscape:connector-curvature="0" />
    <path
       style="opacity:0.5;fill:none;stroke:#00ffcc;stroke-width:1px;stroke-linecap:square"
       d="m 30.5,332 10,0"
       id="ref-C-left-7"
       sodipodi:insensitive="true"
       inkscape:connector-curvature="0" />
    <path
       style="opacity:0.5;fill:none;stroke:#00ffcc;stroke-width:1px;stroke-linecap:square"
       d="m 30.5,334 10,0"
       id="ref-C-left-8"
       sodipodi:insensitive="true"
       inkscape:connector-curvature="0" />
    <path
       style="fill:none;stroke:#000000;stroke-width:1px;stroke-linecap:square"
       d="m 190,30.5 0,10"
       id="S-top-1"
       inkscape:connector-curvature="0" />
    <path
       style="fill:none;stroke:#000000;stroke-width:1px;stroke-linecap:square"
       d="m 210,30.5 0,10"
       id="S-top-2"
       inkscape:connector-curvature="0" />
    <path
       style="fill:none;stroke:#000000;stroke-width:1px;stroke-linecap:square"
       d="m 369.5,190 -10,0"
       id="S-right-1"
       inkscape:connector-curvature="0" />
    <path
       style="fill:none;stroke:#000000;stroke-width:1px;stroke-linecap:square"
       d="m 369.5,210 -10,0"
       id="S-right-2"
       inkscape:connector-curvature="0" />
    <path
       style="fill:none;stroke:#000000;stroke-width:1px;stroke-linecap:square"
       d="m 190,369.5 0,-10"
       id="S-bottom-1"
       inkscape:connector-curvature="0" />
    <path
       style="fill:none;stroke:#000000;stroke-width:1px;stroke-linecap:square"
       d="m 210,369.5 0,-10"
       id="S-bottom-2"
       inkscape:connector-curvature="0" />
    <path
       style="fill:none;stroke:#000000;stroke-width:1px;stroke-linecap:square"
       d="m 30.5,190 10,0"
       id="S-left-1"
       inkscape:connector-curvature="0" />
    <path
       style="fill:none;stroke:#000000;stroke-width:1px;stroke-linecap:square"
       d="m 30.5,210 10,0"
       id="S-left-2"
       inkscape:connector-curvature="0" />
    <path
       style="fill:none;stroke:#000000;stroke-width:1px;stroke-linecap:square"
       d="m 200,30.5 0,10"
       id="I-top-1"
       inkscape:connector-curvature="0" />
    <path
       style="fill:none;stroke:#000000;stroke-width:1px;stroke-linecap:square"
       d="m 369.5,200 -10,0"
       id="I-right-1"
       inkscape:connector-curvature="0" />
    <path
       style="fill:none;stroke:#000000;stroke-width:1px;stroke-linecap:square"
       d="m 200,369.5 0,-10"
       id="I-bottom-1"
       inkscape:connector-curvature="0" />
    <path
       style="fill:none;stroke:#000000;stroke-width:1px;stroke-linecap:square"
       d="m 40.5,200 -10,0"
       id="I-left-1"
       inkscape:connector-curvature="0" />
    <path
       style="fill:none;stroke:#000000;stroke-width:1px;stroke-linecap:square"
       d="m 67,30.5 0,10"
       id="C-top-1"
       inkscape:connector-curvature="0" />
    <path
       style="fill:none;stroke:#000000;stroke-width:1px;stroke-linecap:square"
       d="m 93,30.5 0,10"
       id="C-top-2"
       inkscape:connector-curvature="0" />
    <path
       style="fill:none;stroke:#000000;stroke-width:1px;stroke-linecap:square"
       d="m 307,30.5 0,10"
       id="C-top-3"
       inkscape:connector-curvature="0" />
    <path
       style="fill:none;stroke:#000000;stroke-width:1px;stroke-linecap:square"
       d="m 333,30.5 0,10"
       id="C-top-4"
       inkscape:connector-curvature="0" />
    <path
       style="fill:none;stroke:#000000;stroke-width:1px;stroke-linecap:square"
       d="m 369.5,67 -10,0"
       id="C-right-1"
       inkscape:connector-curvature="0" />
    <path
       style="fill:none;stroke:#000000;stroke-width:1px;stroke-linecap:square"
       d="m 369.5,93 -10,0"
       id="C-right-2"
       inkscape:connector-curvature="0" />
    <path
       style="fill:none;stroke:#000000;stroke-width:1px;stroke-linecap:square"
       d="m 369.5,307 -10,0"
       id="C-right-3"
       inkscape:connector-curvature="0" />
    <path
       style="fill:none;stroke:#000000;stroke-width:1px;stroke-linecap:square"
       d="m 369.5,333 -10,0"
       id="C-right-4"
       inkscape:connector-curvature="0" />
    <path
       style="fill:none;stroke:#000000;stroke-width:1px;stroke-linecap:square"
       d="m 67,369.5 0,-10"
       id="C-bottom-1"
       inkscape:connector-curvature="0" />
    <path
       style="fill:none;stroke:#000000;stroke-width:1px;stroke-linecap:square"
       d="m 93,369.5 0,-10"
       id="C-bottom-2"
       inkscape:connector-curvature="0" />
    <path
       style="fill:none;stroke:#000000;stroke-width:1px;stroke-linecap:square"
       d="m 307,369.5 0,-10"
       id="C-bottom-3"
       inkscape:connector-curvature="0" />
    <path
       style="fill:none;stroke:#000000;stroke-width:1px;stroke-linecap:square"
       d="m 333,369.5 0,-10"
       id="C-bottom-4"
       inkscape:connector-curvature="0" />
    <path
       style="fill:none;stroke:#000000;stroke-width:1px;stroke-linecap:square"
       d="m 30.5,67 10,0"
       id="C-left-1"
       inkscape:connector-curvature="0" />
    <path
       style="fill:none;stroke:#000000;stroke-width:1px;stroke-linecap:square"
       d="m 30.5,93 10,0"
       id="C-left-2"
       inkscape:connector-curvature="0" />
    <path
       style="fill:none;stroke:#000000;stroke-width:1px;stroke-linecap:square"
       d="m 30.5,307 10,0"
       id="C-left-3"
       inkscape:connector-curvature="0" />
    <path
       style="fill:none;stroke:#000000;stroke-width:1px;stroke-linecap:square"
       d="m 30.5,333 10,0"
       id="C-left-4"
       inkscape:connector-curvature="0" />
    <path
       inkscape:connector-curvature="0"
       id="path4254"
       d="m 30.5,333 10,0"
       style="fill:none;stroke:#000000;stroke-width:1px;stroke-linecap:square" />
  </g>
  <g
     inkscape:groupmode="layer"
     id="layer1"
     inkscape:label="XX_DRAFT"
     style="display:none"
     sodipodi:insensitive="true">
    <path
       sodipodi:nodetypes="ccccc"
       inkscape:connector-curvature="0"
       id="path5375"
       d="m 369.5,190 -314,0 0,20 314,0 z"
       style="fill:#ffff00;stroke:none;display:inline" />
    <path
       style="fill:none;stroke:#000000;stroke-width:1px;stroke-linecap:square;display:inline"
       d="m 369.5,190 -314,0"
       id="S-right-1-9"
       inkscape:connector-curvature="0"
       sodipodi:nodetypes="cc" />
    <path
       sodipodi:nodetypes="csscccc"
       inkscape:connector-curvature="0"
       id="path5381"
       d="m 206,333 -1e-5,-206.50001 c 0,-32.860936 -26.63905,-59.5 -59.5,-59.499998 L 40.5,67 l -10,0 0,266 z"
       style="fill:#00ffff;stroke:none;display:inline" />
    <path
       inkscape:connector-curvature="0"
       id="path4254-6"
       d="m 30.5,333 320,0"
       style="fill:none;stroke:#000000;stroke-width:1px;stroke-linecap:square;display:inline"
       sodipodi:nodetypes="cc" />
    <path
       style="fill:#00ff00;stroke:none;display:inline"
       d="m 369.5,361 -134,0 C 219.2076,361 206,347.79239 206,331.49999 l -1e-5,-131 163.50001,0 z"
       id="path5379"
       inkscape:connector-curvature="0"
       sodipodi:nodetypes="cssccc" />
    <path
       sodipodi:nodetypes="ssssscccs"
       inkscape:connector-curvature="0"
       id="path5377"
       d="m 294.5,209.99998 c -16.2924,0 -29.5,13.20761 -29.5,29.50001 l 0,92 c 0,16.2924 -13.2076,29.49999 -29.5,29.49999 -16.2924,0 -29.5,-13.20759 -29.5,-29.49999 l -1e-5,-131 163.50001,0 0,9.50001 z"
       style="fill:#ffff00;stroke:none;display:inline" />
    <path
       transform="matrix(1.9210683,0,0,1.9210683,-495.85938,-57.63826)"
       d="m 131.10381,151.55019 a 51.794098,51.794098 0 1 1 -103.588193,0 51.794098,51.794098 0 1 1 103.588193,0 z"
       sodipodi:ry="51.794098"
       sodipodi:rx="51.794098"
       sodipodi:cy="151.55019"
       sodipodi:cx="79.309715"
       id="path3887"
       style="color:#000000;fill:none;stroke:#ff0000;stroke-width:0.52054369;stroke-linecap:square;stroke-linejoin:miter;stroke-miterlimit:4;stroke-opacity:1;stroke-dasharray:none;stroke-dashoffset:0;marker:none;visibility:visible;display:inline;overflow:visible;enable-background:accumulate"
       sodipodi:type="arc" />
    <path
       style="fill:none;stroke:#000000;stroke-width:1px;stroke-linecap:square;display:inline"
       d="m 369.5,210 -10,0 -65,-2e-5 c -16.2924,-1e-5 -29.5,13.20761 -29.5,29.50001 l 0,92 c 0,16.2924 -13.2076,29.49999 -29.5,29.49999 -16.2924,0 -29.5,-13.20759 -29.5,-29.49999 l -1e-5,-205 c 0,-32.860936 -26.63905,-59.5 -59.5,-59.499998 L 40.5,67 l -10,0"
       id="S-right-2-3"
       inkscape:connector-curvature="0"
       sodipodi:nodetypes="ccssssssscc" />
    <path
       sodipodi:nodetypes="cssssssccc"
       inkscape:connector-curvature="0"
       id="path5371"
       d="m 324,-235.50001 c 0,-16.2924 -13.2076,-29.50001 -29.5,-29.50001 -16.2924,0 -29.5,13.20761 -29.5,29.50001 l 0,150 c 0,16.2924 -13.2076,29.49999 -29.5,29.49999 -16.2924,0 -29.5,-13.20759 -29.5,-29.49999 l -1e-5,-180 c 0,-32.86094 -26.63905,-59.5 -59.5,-59.5 L 40.5,-325 l -10,0"
       style="color:#000000;fill:none;stroke:#ff0000;stroke-width:1;stroke-linecap:square;stroke-linejoin:miter;stroke-miterlimit:4;stroke-opacity:1;stroke-dasharray:none;stroke-dashoffset:0;marker:none;visibility:visible;display:inline;overflow:visible;enable-background:accumulate" />
  </g>
  <g
     inkscape:groupmode="layer"
     id="layer3"
     inkscape:label="THIS-01"
     style="display:none">
    <path
       sodipodi:nodetypes="ccccc"
       inkscape:connector-curvature="0"
       id="path5375-2"
       d="m 369.5,190 -314,0 0,20 314,0 z"
       style="fill:#000000;stroke:none;display:inline" />
    <path
       style="fill:none;stroke:#000000;stroke-width:1px;stroke-linecap:square;display:inline"
       d="m 369.5,190 -314,0"
       id="S-right-1-9-6"
       inkscape:connector-curvature="0"
       sodipodi:nodetypes="cc" />
    <path
       sodipodi:nodetypes="csscccc"
       inkscape:connector-curvature="0"
       id="path5381-1"
       d="m 206,333 -1e-5,-206.50001 c 0,-32.860938 -26.63905,-59.500002 -59.5,-59.5 l -105.99999,8e-6 -10,0 L 30.5,333 z"
       style="fill:#ffffff;stroke:none;display:inline" />
    <path
       inkscape:connector-curvature="0"
       id="path4254-6-8"
       d="m 30.5,333 320,0"
       style="fill:none;stroke:#000000;stroke-width:1px;stroke-linecap:square;display:inline"
       sodipodi:nodetypes="cc" />
    <path
       style="fill:#ffffff;stroke:none;display:inline"
       d="m 369.5,361 -134,0 C 219.2076,361 206,347.79239 206,331.49999 l -1e-5,-131 163.50001,0 z"
       id="path5379-7"
       inkscape:connector-curvature="0"
       sodipodi:nodetypes="cssccc" />
    <path
       sodipodi:nodetypes="ssssscccs"
       inkscape:connector-curvature="0"
       id="path5377-9"
       d="m 294.5,209.99998 c -16.2924,0 -29.5,13.20761 -29.5,29.50001 l 0,92 c 0,16.2924 -13.2076,29.49999 -29.5,29.49999 -16.2924,0 -29.5,-13.20759 -29.5,-29.49999 l -1e-5,-132 163.50001,0 0,10.50001 z"
       style="fill:#000000;stroke:none;display:inline" />
    <path
       style="fill:none;stroke:#000000;stroke-width:1px;stroke-linecap:square;display:inline"
       d="m 369.5,210 -10,0 -65,-2e-5 c -16.2924,-1e-5 -29.5,13.20761 -29.5,29.50001 l 0,92 c 0,16.2924 -13.2076,29.49999 -29.5,29.49999 -16.2924,0 -29.5,-13.20759 -29.5,-29.49999 l -1e-5,-205 c 0,-32.860938 -26.63905,-59.500002 -59.5,-59.5 l -105.99999,8e-6 -10,0"
       id="S-right-2-3-2"
       inkscape:connector-curvature="0"
       sodipodi:nodetypes="ccssssssscc" />
  </g>
  <g
     inkscape:label="THIS-02"
     id="g5420"
     inkscape:groupmode="layer">
    <path
       style="fill:#000000;stroke:none;display:inline"
       d="m 369.5,190 -314,0 0,20 314,0 z"
       id="path5422"
       inkscape:connector-curvature="0"
       sodipodi:nodetypes="ccccc" />
    <path
       sodipodi:nodetypes="cc"
       inkscape:connector-curvature="0"
       id="path5424"
       d="m 369.5,190 -314,0"
       style="fill:none;stroke:#000000;stroke-width:1px;stroke-linecap:square;display:inline" />
    <path
       style="fill:#ffffff;stroke:none;display:inline"
       d="m 116,333 -1e-5,-206.50001 c 0,-32.860938 -26.63905,-59.500016 -59.5,-59.5 l -15.99999,8e-6 -10,0 L 30.5,333 z"
       id="path5426"
       inkscape:connector-curvature="0"
       sodipodi:nodetypes="csscccc" />
    <path
       sodipodi:nodetypes="cc"
       style="fill:none;stroke:#000000;stroke-width:1px;stroke-linecap:square;display:inline"
       d="m 30.5,333 320,0"
       id="path5428"
       inkscape:connector-curvature="0" />
    <path
       sodipodi:nodetypes="cssccc"
       inkscape:connector-curvature="0"
       id="path5430"
       d="m 369.5,361 -224,0 C 129.2076,361 116,347.79239 116,331.49999 l -1e-5,-131 253.50001,0 z"
       style="fill:#ffffff;stroke:none;display:inline" />
    <path
       style="fill:#000000;stroke:none;display:inline"
       d="m 204.5,209.99998 c -16.2924,0 -29.5,13.20761 -29.5,29.50001 l 0,92 c 0,16.2924 -13.2076,29.49999 -29.5,29.49999 -16.2924,0 -30.73074,-13.25414 -29.5,-29.49999 l -1e-5,-132 253.50001,0 0,10.50001 z"
       id="path5432"
       inkscape:connector-curvature="0"
       sodipodi:nodetypes="ssssscccs" />
    <path
       sodipodi:nodetypes="ccssssssscc"
       inkscape:connector-curvature="0"
       id="path5434"
       d="m 369.5,210 -10,0 -155,-2e-5 c -16.2924,0 -29.5,13.20761 -29.5,29.50001 l 0,92 c 0,16.2924 -13.2076,29.49999 -29.5,29.49999 -16.2924,0 -29.5,-13.20759 -29.5,-29.49999 l -1e-5,-205 c 0,-32.860938 -26.63905,-59.500016 -59.5,-59.5 l -15.99999,8e-6 -10,0"
       style="fill:none;stroke:#000000;stroke-width:1px;stroke-linecap:square;display:inline" />
  </g>
</svg>
