<?xml version="1.0" encoding="UTF-8" standalone="no"?>
<!-- Created with Inkscape (http://www.inkscape.org/) -->
<svg
   xmlns:dc="http://purl.org/dc/elements/1.1/"
   xmlns:cc="http://creativecommons.org/ns#"
   xmlns:rdf="http://www.w3.org/1999/02/22-rdf-syntax-ns#"
   xmlns:svg="http://www.w3.org/2000/svg"
   xmlns="http://www.w3.org/2000/svg"
   xmlns:sodipodi="http://sodipodi.sourceforge.net/DTD/sodipodi-0.dtd"
   xmlns:inkscape="http://www.inkscape.org/namespaces/inkscape"
   style="display:inline"
   sodipodi:docname="181212_KKKK-MR+-MR+_CW_CW_CW_00_.svg"
   inkscape:version="0.48.3.1 r9886"
   version="1.1"
   id="svg2902"
   height="400"
   width="400"><sodipodi:namedview
   id="base"
   pagecolor="#f0f0f0"
   bordercolor="#666666"
   borderopacity="1.0"
   inkscape:pageopacity="1"
   inkscape:pageshadow="2"
   inkscape:zoom="1.5801496"
   inkscape:cx="210.95388"
   inkscape:cy="212.46456"
   inkscape:document-units="px"
   inkscape:current-layer="g3224"
   showgrid="false"
   inkscape:window-width="1018"
   inkscape:window-height="709"
   inkscape:window-x="0"
   inkscape:window-y="1"
   inkscape:window-maximized="0"
   showguides="true"
   inkscape:guide-bbox="true"
   inkscape:snap-bbox="true"
   inkscape:snap-global="false" />
<defs
   id="defs2904">
  <clipPath
     clipPathUnits="userSpaceOnUse"
     id="clipPath5174">
    <path
       id="path5176"
       style="opacity:0.5;fill:#00ff00;stroke:#00ff00;stroke-width:1px;stroke-linecap:square;display:inline"
       d="m 436.26971,600.11436 -232.09481,134 -169.500003,-293.58262 232.094813,-134 z"
       inkscape:connector-curvature="0"
       sodipodi:nodetypes="ccccc" />
  </clipPath>
  <clipPath
     clipPathUnits="userSpaceOnUse"
     id="clipPath5174-5">
    <path
       id="path5176-9"
       style="opacity:0.5;fill:#00ff00;stroke:#00ff00;stroke-width:1px;stroke-linecap:square;display:inline"
       d="m 436.26971,600.11436 -232.09481,134 -169.500003,-293.58262 232.094813,-134 z"
       inkscape:connector-curvature="0"
       sodipodi:nodetypes="ccccc" />
  </clipPath>
  <clipPath
     clipPathUnits="userSpaceOnUse"
     id="clipPath3238">
    <path
       sodipodi:nodetypes="ccccc"
       inkscape:connector-curvature="0"
       d="m 461.26971,643.41563 -232.09481,134 -169.500002,-293.58262 232.094812,-134 z"
       style="opacity:0.5;fill:#00ff00;stroke:#00ff00;stroke-width:1px;stroke-linecap:square;display:inline"
       id="path3240" />
  </clipPath>
</defs>
<metadata
   id="metadata2907">
  <rdf:RDF>
    <cc:Work
       rdf:about="">
      <dc:format>image/svg+xml</dc:format>
      <dc:type
         rdf:resource="http://purl.org/dc/dcmitype/StillImage" />
      <dc:title />
    </cc:Work>
  </rdf:RDF>
</metadata>
<g
     inkscape:groupmode="layer"
     id="bg"
     inkscape:label="XX_BG"
     sodipodi:insensitive="true">
    <path
       style="fill:#f6ffd5"
       d="M 400,0 400,400 0,400 0,0 z"
       id="bgrect"
       inkscape:connector-curvature="0" />
  </g>
<g
     inkscape:label="XX_Referenz"
     inkscape:groupmode="layer"
     id="XX_referenz"
     style="display:inline"
     sodipodi:insensitive="true">
    <path
       id="innerframe"
       style="fill:none;stroke:#ff0000;stroke-width:1"
       d="m 40.5,40.5 319,0 0,319 -319,0 0,-319 z"
       inkscape:label="#innerframe"
       sodipodi:insensitive="true"
       inkscape:connector-curvature="0" />
    <path
       id="outerframe"
       style="fill:none;stroke:#ff0000;stroke-width:1"
       d="m 30.5,30.5 339,0 0,339 -339,0 0,-339 z"
       inkscape:label="#outerframe"
       sodipodi:nodetypes="ccccc"
       sodipodi:insensitive="true"
       inkscape:connector-curvature="0" />
    <path
       style="opacity:0.5;fill:none;stroke:#ffc200;stroke-width:1px;stroke-linecap:square"
       d="m 189,30.5 0,10"
       id="ref-S-top-1"
       sodipodi:insensitive="true"
       inkscape:connector-curvature="0" />
    <path
       style="opacity:0.5;fill:none;stroke:#ffc200;stroke-width:1px;stroke-linecap:square"
       d="m 191,30.5 0,10"
       id="ref-S-top-2"
       sodipodi:insensitive="true"
       inkscape:connector-curvature="0" />
    <path
       style="opacity:0.5;fill:none;stroke:#ffc200;stroke-width:1px;stroke-linecap:square"
       d="m 209,30.5 0,10"
       id="ref-S-top-3"
       sodipodi:insensitive="true"
       inkscape:connector-curvature="0" />
    <path
       style="opacity:0.5;fill:none;stroke:#ffc200;stroke-width:1px;stroke-linecap:square"
       d="m 211,30.5 0,10"
       id="ref-S-top-4"
       sodipodi:insensitive="true"
       inkscape:connector-curvature="0" />
    <path
       style="opacity:0.5;fill:none;stroke:#00ff00;stroke-width:1px;stroke-linecap:square"
       d="m 199,30.5 0,10"
       id="ref-I-top-1"
       sodipodi:insensitive="true"
       inkscape:connector-curvature="0" />
    <path
       style="opacity:0.5;fill:none;stroke:#00ff00;stroke-width:1px;stroke-linecap:square"
       d="m 201,30.5 0,10"
       id="ref-I-top-2"
       sodipodi:insensitive="true"
       inkscape:connector-curvature="0" />
    <path
       style="opacity:0.5;fill:none;stroke:#00ffcc;stroke-width:1px;stroke-linecap:square"
       d="m 66,30.5 0,10"
       id="ref-C-top-1"
       sodipodi:insensitive="true"
       inkscape:connector-curvature="0" />
    <path
       style="opacity:0.5;fill:none;stroke:#00ffcc;stroke-width:1px;stroke-linecap:square"
       d="m 68,30.5 0,10"
       id="ref-C-top-2"
       sodipodi:insensitive="true"
       inkscape:connector-curvature="0" />
    <path
       style="opacity:0.5;fill:none;stroke:#00ffcc;stroke-width:1px;stroke-linecap:square"
       d="m 92,30.5 0,10"
       id="ref-C-top-3"
       sodipodi:insensitive="true"
       inkscape:connector-curvature="0" />
    <path
       style="opacity:0.5;fill:none;stroke:#00ffcc;stroke-width:1px;stroke-linecap:square"
       d="m 94,30.5 0,10"
       id="ref-C-top-4"
       sodipodi:insensitive="true"
       inkscape:connector-curvature="0" />
    <path
       style="opacity:0.5;fill:none;stroke:#00ffcc;stroke-width:1px;stroke-linecap:square"
       d="m 306,30.5 0,10"
       id="ref-C-top-5"
       sodipodi:insensitive="true"
       inkscape:connector-curvature="0" />
    <path
       style="opacity:0.5;fill:none;stroke:#00ffcc;stroke-width:1px;stroke-linecap:square"
       d="m 308,30.5 0,10"
       id="ref-C-top-6"
       sodipodi:insensitive="true"
       inkscape:connector-curvature="0" />
    <path
       style="opacity:0.5;fill:none;stroke:#00ffcc;stroke-width:1px;stroke-linecap:square"
       d="m 332,30.5 0,10"
       id="ref-C-top-7"
       sodipodi:insensitive="true"
       inkscape:connector-curvature="0" />
    <path
       style="opacity:0.5;fill:none;stroke:#00ffcc;stroke-width:1px;stroke-linecap:square"
       d="m 334,30.5 0,10"
       id="ref-C-top-8"
       sodipodi:insensitive="true"
       inkscape:connector-curvature="0" />
    <path
       style="opacity:0.5;fill:none;stroke:#ffc200;stroke-width:1px;stroke-linecap:square"
       d="m 369.5,189 -10,0"
       id="ref-S-right-1"
       sodipodi:insensitive="true"
       inkscape:connector-curvature="0" />
    <path
       style="opacity:0.5;fill:none;stroke:#ffc200;stroke-width:1px;stroke-linecap:square"
       d="m 369.5,191 -10,0"
       id="ref-S-right-2"
       sodipodi:insensitive="true"
       inkscape:connector-curvature="0" />
    <path
       style="opacity:0.5;fill:none;stroke:#ffc200;stroke-width:1px;stroke-linecap:square"
       d="m 369.5,209 -10,0"
       id="ref-S-right-3"
       sodipodi:insensitive="true"
       inkscape:connector-curvature="0" />
    <path
       style="opacity:0.5;fill:none;stroke:#ffc200;stroke-width:1px;stroke-linecap:square"
       d="m 369.5,211 -10,0"
       id="ref-S-right-4"
       sodipodi:insensitive="true"
       inkscape:connector-curvature="0" />
    <path
       style="opacity:0.5;fill:none;stroke:#00ff00;stroke-width:1px;stroke-linecap:square"
       d="m 369.5,199 -10,0"
       id="ref-I-right-1"
       sodipodi:insensitive="true"
       inkscape:connector-curvature="0" />
    <path
       style="opacity:0.5;fill:none;stroke:#00ff00;stroke-width:1px;stroke-linecap:square"
       d="m 369.5,201 -10,0"
       id="ref-I-right-2"
       sodipodi:insensitive="true"
       inkscape:connector-curvature="0" />
    <path
       style="opacity:0.5;fill:none;stroke:#00ffcc;stroke-width:1px;stroke-linecap:square"
       d="m 369.5,66 -10,0"
       id="ref-C-right-1"
       sodipodi:insensitive="true"
       inkscape:connector-curvature="0" />
    <path
       style="opacity:0.5;fill:none;stroke:#00ffcc;stroke-width:1px;stroke-linecap:square"
       d="m 369.5,68 -10,0"
       id="ref-C-right-2"
       sodipodi:insensitive="true"
       inkscape:connector-curvature="0" />
    <path
       style="opacity:0.5;fill:none;stroke:#00ffcc;stroke-width:1px;stroke-linecap:square"
       d="m 369.5,92 -10,0"
       id="ref-C-right-3"
       sodipodi:insensitive="true"
       inkscape:connector-curvature="0" />
    <path
       style="opacity:0.5;fill:none;stroke:#00ffcc;stroke-width:1px;stroke-linecap:square"
       d="m 369.5,94 -10,0"
       id="ref-C-right-4"
       sodipodi:insensitive="true"
       inkscape:connector-curvature="0" />
    <path
       style="opacity:0.5;fill:none;stroke:#00ffcc;stroke-width:1px;stroke-linecap:square"
       d="m 369.5,306 -10,0"
       id="ref-C-right-5"
       sodipodi:insensitive="true"
       inkscape:connector-curvature="0" />
    <path
       style="opacity:0.5;fill:none;stroke:#00ffcc;stroke-width:1px;stroke-linecap:square"
       d="m 369.5,308 -10,0"
       id="ref-C-right-6"
       sodipodi:insensitive="true"
       inkscape:connector-curvature="0" />
    <path
       style="opacity:0.5;fill:none;stroke:#00ffcc;stroke-width:1px;stroke-linecap:square"
       d="m 369.5,332 -10,0"
       id="ref-C-right-7"
       sodipodi:insensitive="true"
       inkscape:connector-curvature="0" />
    <path
       style="opacity:0.5;fill:none;stroke:#00ffcc;stroke-width:1px;stroke-linecap:square"
       d="m 369.5,334 -10,0"
       id="ref-C-right-8"
       sodipodi:insensitive="true"
       inkscape:connector-curvature="0" />
    <path
       style="opacity:0.5;fill:none;stroke:#ffc200;stroke-width:1px;stroke-linecap:square"
       d="m 189,369.5 0,-10"
       id="ref-S-bottom-1"
       sodipodi:insensitive="true"
       inkscape:connector-curvature="0" />
    <path
       style="opacity:0.5;fill:none;stroke:#ffc200;stroke-width:1px;stroke-linecap:square"
       d="m 191,369.5 0,-10"
       id="ref-S-bottom-2"
       sodipodi:insensitive="true"
       inkscape:connector-curvature="0" />
    <path
       style="opacity:0.5;fill:none;stroke:#ffc200;stroke-width:1px;stroke-linecap:square"
       d="m 209,369.5 0,-10"
       id="ref-S-bottom-3"
       sodipodi:insensitive="true"
       inkscape:connector-curvature="0" />
    <path
       style="opacity:0.5;fill:none;stroke:#ffc200;stroke-width:1px;stroke-linecap:square"
       d="m 211,369.5 0,-10"
       id="ref-S-bottom-4"
       sodipodi:insensitive="true"
       inkscape:connector-curvature="0" />
    <path
       style="opacity:0.5;fill:none;stroke:#00ff00;stroke-width:1px;stroke-linecap:square"
       d="m 199,369.5 0,-10"
       id="ref-I-bottom-1"
       sodipodi:insensitive="true"
       inkscape:connector-curvature="0" />
    <path
       style="opacity:0.5;fill:none;stroke:#00ff00;stroke-width:1px;stroke-linecap:square"
       d="m 201,369.5 0,-10"
       id="ref-I-bottom-2"
       sodipodi:insensitive="true"
       inkscape:connector-curvature="0" />
    <path
       style="opacity:0.5;fill:none;stroke:#00ffcc;stroke-width:1px;stroke-linecap:square"
       d="m 66,369.5 0,-10"
       id="ref-C-bottom-1"
       sodipodi:insensitive="true"
       inkscape:connector-curvature="0" />
    <path
       style="opacity:0.5;fill:none;stroke:#00ffcc;stroke-width:1px;stroke-linecap:square"
       d="m 68,369.5 0,-10"
       id="ref-C-bottom-2"
       sodipodi:insensitive="true"
       inkscape:connector-curvature="0" />
    <path
       style="opacity:0.5;fill:none;stroke:#00ffcc;stroke-width:1px;stroke-linecap:square"
       d="m 92,369.5 0,-10"
       id="ref-C-bottom-3"
       sodipodi:insensitive="true"
       inkscape:connector-curvature="0" />
    <path
       style="opacity:0.5;fill:none;stroke:#00ffcc;stroke-width:1px;stroke-linecap:square"
       d="m 94,369.5 0,-10"
       id="ref-C-bottom-4"
       sodipodi:insensitive="true"
       inkscape:connector-curvature="0" />
    <path
       style="opacity:0.5;fill:none;stroke:#00ffcc;stroke-width:1px;stroke-linecap:square"
       d="m 306,369.5 0,-10"
       id="ref-C-bottom-5"
       sodipodi:insensitive="true"
       inkscape:connector-curvature="0" />
    <path
       style="opacity:0.5;fill:none;stroke:#00ffcc;stroke-width:1px;stroke-linecap:square"
       d="m 308,369.5 0,-10"
       id="ref-C-bottom-6"
       sodipodi:insensitive="true"
       inkscape:connector-curvature="0" />
    <path
       style="opacity:0.5;fill:none;stroke:#00ffcc;stroke-width:1px;stroke-linecap:square"
       d="m 332,369.5 0,-10"
       id="ref-C-bottom-7"
       sodipodi:insensitive="true"
       inkscape:connector-curvature="0" />
    <path
       style="opacity:0.5;fill:none;stroke:#00ffcc;stroke-width:1px;stroke-linecap:square"
       d="m 334,369.5 0,-10"
       id="ref-C-bottom-8"
       sodipodi:insensitive="true"
       inkscape:connector-curvature="0" />
    <path
       style="opacity:0.5;fill:none;stroke:#ffc200;stroke-width:1px;stroke-linecap:square"
       d="m 30.5,189 10,0"
       id="ref-S-left-1"
       sodipodi:insensitive="true"
       inkscape:connector-curvature="0" />
    <path
       style="opacity:0.5;fill:none;stroke:#ffc200;stroke-width:1px;stroke-linecap:square"
       d="m 30.5,191 10,0"
       id="ref-S-left-2"
       sodipodi:insensitive="true"
       inkscape:connector-curvature="0" />
    <path
       style="opacity:0.5;fill:none;stroke:#ffc200;stroke-width:1px;stroke-linecap:square"
       d="m 30.5,209 10,0"
       id="ref-S-left-3"
       sodipodi:insensitive="true"
       inkscape:connector-curvature="0" />
    <path
       style="opacity:0.5;fill:none;stroke:#ffc200;stroke-width:1px;stroke-linecap:square"
       d="m 30.5,211 10,0"
       id="ref-S-left-4"
       sodipodi:insensitive="true"
       inkscape:connector-curvature="0" />
    <path
       style="opacity:0.5;fill:none;stroke:#00ff00;stroke-width:1px;stroke-linecap:square"
       d="m 40.5,199 -10,0"
       id="ref-I-left-1"
       sodipodi:insensitive="true"
       inkscape:connector-curvature="0" />
    <path
       style="opacity:0.5;fill:none;stroke:#00ff00;stroke-width:1px;stroke-linecap:square"
       d="m 40.5,201 -10,0"
       id="ref-I-left-2"
       sodipodi:insensitive="true"
       inkscape:connector-curvature="0" />
    <path
       style="opacity:0.5;fill:none;stroke:#00ffcc;stroke-width:1px;stroke-linecap:square"
       d="m 30.5,66 10,0"
       id="ref-C-left-1"
       sodipodi:insensitive="true"
       inkscape:connector-curvature="0" />
    <path
       style="opacity:0.5;fill:none;stroke:#00ffcc;stroke-width:1px;stroke-linecap:square"
       d="m 30.5,68 10,0"
       id="ref-C-left-2"
       sodipodi:insensitive="true"
       inkscape:connector-curvature="0" />
    <path
       style="opacity:0.5;fill:none;stroke:#00ffcc;stroke-width:1px;stroke-linecap:square"
       d="m 30.5,92 10,0"
       id="ref-C-left-3"
       sodipodi:insensitive="true"
       inkscape:connector-curvature="0" />
    <path
       style="opacity:0.5;fill:none;stroke:#00ffcc;stroke-width:1px;stroke-linecap:square"
       d="m 30.5,94 10,0"
       id="ref-C-left-4"
       sodipodi:insensitive="true"
       inkscape:connector-curvature="0" />
    <path
       style="opacity:0.5;fill:none;stroke:#00ffcc;stroke-width:1px;stroke-linecap:square"
       d="m 30.5,306 10,0"
       id="ref-C-left-5"
       sodipodi:insensitive="true"
       inkscape:connector-curvature="0" />
    <path
       style="opacity:0.5;fill:none;stroke:#00ffcc;stroke-width:1px;stroke-linecap:square"
       d="m 30.5,308 10,0"
       id="ref-C-left-6"
       sodipodi:insensitive="true"
       inkscape:connector-curvature="0" />
    <path
       style="opacity:0.5;fill:none;stroke:#00ffcc;stroke-width:1px;stroke-linecap:square"
       d="m 30.5,332 10,0"
       id="ref-C-left-7"
       sodipodi:insensitive="true"
       inkscape:connector-curvature="0" />
    <path
       style="opacity:0.5;fill:none;stroke:#00ffcc;stroke-width:1px;stroke-linecap:square"
       d="m 30.5,334 10,0"
       id="ref-C-left-8"
       sodipodi:insensitive="true"
       inkscape:connector-curvature="0" />
    <path
       style="fill:none;stroke:#000000;stroke-width:1px;stroke-linecap:square"
       d="m 190,30.5 0,10"
       id="S-top-1"
       inkscape:connector-curvature="0" />
    <path
       style="fill:none;stroke:#000000;stroke-width:1px;stroke-linecap:square"
       d="m 210,30.5 0,10"
       id="S-top-2"
       inkscape:connector-curvature="0" />
    <path
       style="fill:none;stroke:#000000;stroke-width:1px;stroke-linecap:square"
       d="m 369.5,190 -10,0"
       id="S-right-1"
       inkscape:connector-curvature="0" />
    <path
       style="fill:none;stroke:#000000;stroke-width:1px;stroke-linecap:square"
       d="m 369.5,210 -10,0"
       id="S-right-2"
       inkscape:connector-curvature="0" />
    <path
       style="fill:none;stroke:#000000;stroke-width:1px;stroke-linecap:square"
       d="m 190,369.5 0,-10"
       id="S-bottom-1"
       inkscape:connector-curvature="0" />
    <path
       style="fill:none;stroke:#000000;stroke-width:1px;stroke-linecap:square"
       d="m 210,369.5 0,-10"
       id="S-bottom-2"
       inkscape:connector-curvature="0" />
    <path
       style="fill:none;stroke:#000000;stroke-width:1px;stroke-linecap:square"
       d="m 30.5,190 10,0"
       id="S-left-1"
       inkscape:connector-curvature="0" />
    <path
       style="fill:none;stroke:#000000;stroke-width:1px;stroke-linecap:square"
       d="m 30.5,210 10,0"
       id="S-left-2"
       inkscape:connector-curvature="0" />
    <path
       style="fill:none;stroke:#000000;stroke-width:1px;stroke-linecap:square"
       d="m 200,30.5 0,10"
       id="I-top-1"
       inkscape:connector-curvature="0" />
    <path
       style="fill:none;stroke:#000000;stroke-width:1px;stroke-linecap:square"
       d="m 369.5,200 -10,0"
       id="I-right-1"
       inkscape:connector-curvature="0" />
    <path
       style="fill:none;stroke:#000000;stroke-width:1px;stroke-linecap:square"
       d="m 200,369.5 0,-10"
       id="I-bottom-1"
       inkscape:connector-curvature="0" />
    <path
       style="fill:none;stroke:#000000;stroke-width:1px;stroke-linecap:square"
       d="m 40.5,200 -10,0"
       id="I-left-1"
       inkscape:connector-curvature="0" />
    <path
       style="fill:none;stroke:#000000;stroke-width:1px;stroke-linecap:square"
       d="m 67,30.5 0,10"
       id="C-top-1"
       inkscape:connector-curvature="0" />
    <path
       style="fill:none;stroke:#000000;stroke-width:1px;stroke-linecap:square"
       d="m 93,30.5 0,10"
       id="C-top-2"
       inkscape:connector-curvature="0" />
    <path
       style="fill:none;stroke:#000000;stroke-width:1px;stroke-linecap:square"
       d="m 307,30.5 0,10"
       id="C-top-3"
       inkscape:connector-curvature="0" />
    <path
       style="fill:none;stroke:#000000;stroke-width:1px;stroke-linecap:square"
       d="m 333,30.5 0,10"
       id="C-top-4"
       inkscape:connector-curvature="0" />
    <path
       style="fill:none;stroke:#000000;stroke-width:1px;stroke-linecap:square"
       d="m 369.5,67 -10,0"
       id="C-right-1"
       inkscape:connector-curvature="0" />
    <path
       style="fill:none;stroke:#000000;stroke-width:1px;stroke-linecap:square"
       d="m 369.5,93 -10,0"
       id="C-right-2"
       inkscape:connector-curvature="0" />
    <path
       style="fill:none;stroke:#000000;stroke-width:1px;stroke-linecap:square"
       d="m 369.5,307 -10,0"
       id="C-right-3"
       inkscape:connector-curvature="0" />
    <path
       style="fill:none;stroke:#000000;stroke-width:1px;stroke-linecap:square"
       d="m 369.5,333 -10,0"
       id="C-right-4"
       inkscape:connector-curvature="0" />
    <path
       style="fill:none;stroke:#000000;stroke-width:1px;stroke-linecap:square"
       d="m 67,369.5 0,-10"
       id="C-bottom-1"
       inkscape:connector-curvature="0" />
    <path
       style="fill:none;stroke:#000000;stroke-width:1px;stroke-linecap:square"
       d="m 93,369.5 0,-10"
       id="C-bottom-2"
       inkscape:connector-curvature="0" />
    <path
       style="fill:none;stroke:#000000;stroke-width:1px;stroke-linecap:square"
       d="m 307,369.5 0,-10"
       id="C-bottom-3"
       inkscape:connector-curvature="0" />
    <path
       style="fill:none;stroke:#000000;stroke-width:1px;stroke-linecap:square"
       d="m 333,369.5 0,-10"
       id="C-bottom-4"
       inkscape:connector-curvature="0" />
    <path
       style="fill:none;stroke:#000000;stroke-width:1px;stroke-linecap:square"
       d="m 30.5,67 10,0"
       id="C-left-1"
       inkscape:connector-curvature="0" />
    <path
       style="fill:none;stroke:#000000;stroke-width:1px;stroke-linecap:square"
       d="m 30.5,93 10,0"
       id="C-left-2"
       inkscape:connector-curvature="0" />
    <path
       style="fill:none;stroke:#000000;stroke-width:1px;stroke-linecap:square"
       d="m 30.5,307 10,0"
       id="C-left-3"
       inkscape:connector-curvature="0" />
    <path
       style="fill:none;stroke:#000000;stroke-width:1px;stroke-linecap:square"
       d="m 30.5,333 10,0"
       id="C-left-4"
       inkscape:connector-curvature="0" />
  </g>
<g
     inkscape:groupmode="layer"
     id="g3149"
     inkscape:label="OKON-001"
     style="display:inline"
     sodipodi:insensitive="true">
    <path
       style="fill:none;stroke:#000000;stroke-width:1px;stroke-linecap:square;display:inline"
       d="m 333,93.5 0,10 0,256 0,10"
       id="C-top-4-6"
       inkscape:connector-curvature="0"
       sodipodi:nodetypes="cccc" />
    <path
       sodipodi:nodetypes="ccccc"
       inkscape:connector-curvature="0"
       id="path3147"
       d="m 30.5,307 0,26 339,0 0,-26 z"
       style="fill:#ffffff;stroke:none;display:inline" />
    <path
       style="fill:#ffffff;stroke:none;display:inline"
       d="m 30.5,67 0,26 339,0 0,-26 z"
       id="path3118"
       inkscape:connector-curvature="0"
       sodipodi:nodetypes="ccccc" />
    <path
       style="fill:none;stroke:#000000;stroke-width:1px;stroke-linecap:square;display:inline"
       d="m 369.5,307 -10,0 -319,0 -10,0"
       id="C-right-3-7"
       inkscape:connector-curvature="0"
       sodipodi:nodetypes="cccc" />
    <path
       style="fill:none;stroke:#000000;stroke-width:1px;stroke-linecap:square;display:inline"
       d="m 30.5,93 10,0 319,0 10,0"
       id="C-left-2-6"
       inkscape:connector-curvature="0"
       sodipodi:nodetypes="cccc" />
  </g>
<g
   style="display:none"
   inkscape:label="KKKK-001"
   id="g3125"
   inkscape:groupmode="layer"
   sodipodi:insensitive="true">
  <path
     style="fill:#ffffff;stroke:none"
     d="m 113.375,67 0,263.3125 c 0,0.93775 0.0405,1.82147 0.0937,2.6875 l 28.625,0 c 0.0843,-1.0428 0.15625,-2.13455 0.15625,-3.28125 L 142.25,235 182,191.5 260.375,333 l 31.71875,0 c -0.49028,-1.99806 -1.70121,-4.77105 -3.5,-8.21875 L 202.375,169.15625 284.625,78 c 3.86872,-4.191112 6.15838,-7.857431 6.875,-11 l -35.9375,0 -113.6875,124.6875 0,-124.6875 -28.5,0 z"
     id="path3136"
     inkscape:connector-curvature="0" />
  <path
     style="fill:none;stroke:#00ff00;stroke-width:1px;display:inline"
     d="m 113.375,67 0,266.3125 M 142.25,332.625 142.25,235 182,191.5 260.375,333 m 31.71875,0 L 202.375,169.15625 284.625,78 c 3.86872,-4.191112 6.15838,-7.857431 6.875,-11 M 255.5625,67 141.875,191.6875 141.875,67"
     id="path3136-6"
     inkscape:connector-curvature="0"
     sodipodi:nodetypes="ccccccccccccc" />
</g>
<g
   style="display:none"
   inkscape:label="KKKK-002"
   id="g3141"
   inkscape:groupmode="layer"
   sodipodi:insensitive="true">
  <path
     style="fill:#ffffff;stroke:none"
     d="m 128.21875,67 c -0.3624,5.094857 -0.39557,210.0167 -0.125,266 L 168.5,333 c 0.0545,-7.39959 0.0625,-17.75123 0.0625,-33.65625 l 0,-47.96875 62.84375,53.90625 c 12.57184,10.73112 22.51814,19.21598 32.5,27.71875 l 61.28125,0 c -0.9121,-1.4297 -2.0483,-2.74358 -3.375,-3.9375 -0.84909,-0.84901 -33.11664,-28.45107 -71.75,-61.5625 -39.0579,-33.11144 -70.46875,-60.28125 -70.46875,-60.28125 0,-0.42451 31.41085,-27.60733 70.46875,-60.71875 38.63336,-33.11144 70.90091,-60.682238 71.75,-61.53125 5.03651,-4.700343 7.13616,-11.536269 6.125,-17.96875 l -47.21875,0 c -11.8885,10.118718 -29.22222,24.814977 -49.3125,41.71875 l -62.84375,53.9375 0,-47.96875 c 0,-31.590093 -0.01,-42.866395 -0.4375,-47.6875 l -39.90625,0 z"
     id="path3152"
     inkscape:connector-curvature="0" />
  <path
     style="fill:none;stroke:#00ff00;stroke-width:1px;display:inline"
     d="m 128.21875,67 -0.125,266 M 168.5,333 c 0.0545,-7.39959 0.0625,-81.625 0.0625,-81.625 l 62.84375,53.90625 c 12.57184,10.73112 22.51814,19.21598 32.5,27.71875 m 61.28125,0 -145.59375,-125.78125 c 0,-0.42451 31.41085,-27.60733 70.46875,-60.71875 38.63336,-33.11144 70.90091,-60.682238 71.75,-61.53125 5.03651,-4.700343 7.13616,-11.536269 6.125,-17.96875 m -47.21875,0 c -11.8885,10.118718 -29.22222,24.814976 -49.3125,41.71875 l -62.84375,53.9375 0,-47.96875 c 0,-31.590095 -0.01,-42.866395 -0.4375,-47.6875"
     id="path3152-5"
     inkscape:connector-curvature="0"
     sodipodi:nodetypes="ccccccccccccccsc" />
</g>
<g
   style="display:none"
   inkscape:label="KKKK-003"
   id="g3157"
   inkscape:groupmode="layer"
   sodipodi:insensitive="true">
  <path
     style="fill:#ffffff;stroke:none"
     d="m 89.4375,67 c -5.937006,5.616494 -8.90625,13.335711 -8.90625,23.15625 L 81.09375,333 l 67.3125,0 0.5625,-107.1875 L 249.625,333 l 77.21875,0 c 0.4961,-2.13894 0.71869,-4.39846 0.71875,-6.75 -2.5e-4,-10.52995 -5.38774,-21.44119 -16.1875,-32.78125 L 215.375,193 298,120.125 c 9.71977,-8.63975 14.59352,-18.11474 14.59375,-28.375 -2.3e-4,-8.90972 -3.64773,-16.58221 -10.9375,-23.0625 -0.63889,-0.591519 -1.27973,-1.147818 -1.9375,-1.6875 L 252.75,67 c -1.41757,1.130149 -2.79893,2.361455 -4.15625,3.71875 l -102.875,102.4375 0,-83 C 145.71869,80.335711 142.74945,72.616494 136.8125,67 l -47.375,0 z"
     id="path3168"
     inkscape:connector-curvature="0" />
  <path
     style="fill:none;stroke:#00ff00;stroke-width:1px;display:inline"
     d="m 89.4375,67 c -5.937006,5.616494 -8.90625,13.335711 -8.90625,23.15625 L 81.09375,333 m 67.3125,0 0.5625,-107.1875 L 249.625,333 m 77.21875,0 c 0.4961,-2.13894 0.71869,-4.39846 0.71875,-6.75 -2.5e-4,-10.52995 -5.38774,-21.44119 -16.1875,-32.78125 L 215.375,193 298,120.125 c 9.71977,-8.63975 14.59352,-18.11474 14.59375,-28.375 -2.3e-4,-8.90972 -3.64773,-16.58221 -10.9375,-23.0625 -0.63889,-0.591519 -1.27973,-1.147818 -1.9375,-1.6875 M 252.75,67 c -1.41757,1.130149 -2.79893,2.361455 -4.15625,3.71875 l -102.875,102.4375 0,-83 C 145.71869,80.335711 142.74945,72.616494 136.8125,67"
     id="path3168-5"
     inkscape:connector-curvature="0"
     sodipodi:nodetypes="cccccccccccccccccsc" />
</g>
<g
   style="display:none"
   inkscape:label="KKKK-004"
   id="g3173"
   inkscape:groupmode="layer"
   sodipodi:insensitive="true">
  <path
     style="fill:#ffffff;stroke:none"
     d="m 84.288793,67 0,266 48.031257,0 0,-113.625 23.53125,0 85.65625,113.625 60.5625,0 -108.4375,-140.71875 100,-125.28125 -57.375,0 -85.125,111.0625 -18.8125,0 0,-111.0625 -48.031257,0 z"
     id="path3184"
     inkscape:connector-curvature="0" />
  <path
     style="fill:none;stroke:#00ff00;stroke-width:1px;display:inline"
     d="m 84.288793,67 0,266 m 48.031257,0 0,-113.625 23.53125,0 L 241.50755,333 m 60.5625,0 L 193.63255,192.28125 293.63255,67 m -57.375,0 -85.125,111.0625 -18.8125,0 0,-111.0625"
     id="path3184-2"
     inkscape:connector-curvature="0"
     sodipodi:nodetypes="ccccccccccccc" />
</g>
<g
   style="display:none"
   inkscape:label="KKKK-005"
   id="g3189"
   inkscape:groupmode="layer"
   sodipodi:insensitive="true">
  <path
     style="fill:#ffffff;stroke:none"
     d="m 145.5,67 -37,41.53125 0,224.46875 64.6875,0 0,-86.28125 33.59375,15.125 -0.75,71.15625 64.65625,0 0.78125,-110.65625 L 235.75,206.375 l 35.71875,-23.9375 0,-44.09375 L 218.53125,114 l -45.34375,31.90625 0,-40.3125 73.0625,0 L 259.75,67 145.5,67 z m 27.6875,95.71875 33.59375,14.6875 0,28.96875 -33.59375,23.96875 0,-67.625 z"
     id="path3205"
     inkscape:connector-curvature="0" />
  <path
     style="fill:none;stroke:#00ff00;stroke-width:1px;display:inline"
     d="m 145.5,67 -37,41.53125 0,224.46875 m 64.6875,0 0,-86.28125 33.59375,15.125 -0.75,71.15625 m 64.65625,0 0.78125,-110.65625 L 235.75,206.375 l 35.71875,-23.9375 0,-44.09375 L 218.53125,114 l -45.34375,31.90625 0,-40.3125 73.0625,0 L 259.75,67 m -86.5625,95.71875 33.59375,14.6875 0,28.96875 -33.59375,23.96875 z"
     id="path3205-1"
     inkscape:connector-curvature="0"
     sodipodi:nodetypes="cccccccccccccccccccccc" />
</g>
<g
   style="display:none"
   inkscape:label="KKKK-006"
   id="g3208"
   inkscape:groupmode="layer"
   sodipodi:insensitive="true">
  <path
     style="fill:#ffffff;stroke:none"
     d="m 158.34375,67 c -5.01803,3.25984 -10.10526,7.172427 -15.25,11.78125 -17.63998,15.83998 -26.28125,31.33252 -26.28125,46.8125 0,15.83998 9.37252,23.40625 28.8125,23.40625 -2.51999,-5.39999 -3.95374,-10.8025 -3.59375,-16.5625 0,-11.51999 4.31251,-24.86501 13.3125,-39.625 9,-14.75998 18.70002,-22.3125 29.5,-22.3125 4.68,0 7.21875,2.52376 7.21875,6.84375 0,1.8 -1.4325,6.82876 -4.3125,15.46875 l -44.28125,125.65625 -28.4375,81.71875 c -4.37353,12.53746 -8.5325,23.38982 -12.625,32.8125 l 28.21875,0 c 0.57006,-0.46644 1.1475,-0.96 1.6875,-1.5 2.88,-2.52 4.65376,-5.7425 6.09375,-10.0625 L 171.1875,215.59375 c 15.83999,30.23997 34.55627,59.40378 56.15625,87.84375 9.68396,12.75055 18.49018,22.56834 26.4375,29.5625 l 46.46875,0 c 0.44852,-0.71761 0.86877,-1.45628 1.25,-2.21875 -20.87997,-15.83998 -38.88001,-31.31627 -54,-47.15625 -15.11998,-15.47998 -26.64376,-28.43501 -33.84375,-38.875 -7.56,-10.43999 -17.65002,-25.57502 -30.25,-45.375 C 271.96616,142.85506 316.25,101.10997 316.25,73.75 c 0,-2.399127 -0.21211,-4.653407 -0.625,-6.75 l -15.40625,0 C 277.17132,98.521663 246.34979,129.19141 208.25,158.71875 194.57002,169.51874 186.28624,175.6225 183.40625,177.0625 L 210.0625,90.65625 c 1.44,-5.03999 2.17126,-9.72625 2.53125,-14.40625 0,-3.514427 -0.45186,-6.603617 -1.34375,-9.25 l -52.90625,0 z"
     id="path3219"
     inkscape:connector-curvature="0" />
  <path
     style="fill:none;stroke:#00ff00;stroke-width:1px;display:inline"
     d="m 158.34375,67 c -5.01803,3.25984 -10.10526,7.172427 -15.25,11.78125 -17.63998,15.83998 -26.28125,31.33252 -26.28125,46.8125 0,15.83998 9.37252,23.40625 28.8125,23.40625 -2.51999,-5.39999 -3.95374,-10.8025 -3.59375,-16.5625 0,-11.51999 4.31251,-24.86501 13.3125,-39.625 9,-14.75998 18.70002,-22.3125 29.5,-22.3125 4.68,0 7.21875,2.52376 7.21875,6.84375 0,1.8 -1.4325,6.82876 -4.3125,15.46875 l -44.28125,125.65625 -28.4375,81.71875 c -4.37353,12.53746 -8.5325,23.38982 -12.625,32.8125 m 28.21875,0 c 0.57006,-0.46644 1.1475,-0.96 1.6875,-1.5 2.88,-2.52 4.65376,-5.7425 6.09375,-10.0625 L 171.1875,215.59375 c 15.83999,30.23997 34.55627,59.40378 56.15625,87.84375 9.68396,12.75055 18.49018,22.56834 26.4375,29.5625 m 46.46875,0 c 0.44852,-0.71761 0.86877,-1.45628 1.25,-2.21875 -20.87997,-15.83998 -38.88001,-31.31627 -54,-47.15625 -15.11998,-15.47998 -26.64376,-28.43501 -33.84375,-38.875 -7.56,-10.43999 -17.65002,-25.57502 -30.25,-45.375 C 271.96616,142.85506 316.25,101.10997 316.25,73.75 c 0,-2.399127 -0.21211,-4.653407 -0.625,-6.75 m -15.40625,0 C 277.17132,98.521663 246.34979,129.19141 208.25,158.71875 194.57002,169.51874 186.28624,175.6225 183.40625,177.0625 L 210.0625,90.65625 c 1.44,-5.03999 2.17126,-9.72625 2.53125,-14.40625 0,-3.514427 -0.45186,-6.603617 -1.34375,-9.25"
     id="path3219-7"
     inkscape:connector-curvature="0"
     sodipodi:nodetypes="ccsccsssccccccccsccccccsccccccc" />
</g>
<g
   style="display:none"
   inkscape:label="KKKK-007"
   id="g3224"
   inkscape:groupmode="layer"
   sodipodi:insensitive="true">
  <path
     style="fill:#ffffff;stroke:none"
     d="m 249.4375,110.6875 c 1.74551,0.35474 3.948,-0.37503 6.71875,-1.5625 2.57283,-0.98955 5.35427,-2.19797 8.125,-3.78125 2.57285,-1.58329 5.33342,-2.94797 7.90625,-4.53125 2.37491,-1.583278 4.57297,-2.572948 6.15625,-3.5625 1.7812,-0.989551 3.34378,-2.385469 4.53125,-3.96875 1.18745,-1.58328 1.78125,-3.375074 1.78125,-5.75 0,-2.770737 -0.79171,-5.322991 -2.375,-7.5 -1.58328,-1.979102 -3.73966,-3.572949 -6.3125,-4.5625 C 267.65652,72.895918 259.12472,70.312415 250.8125,67.9375 249.6537,67.634004 248.50258,67.317468 247.34375,67 L 141.3125,67 c -2.82482,1.46328 -5.64027,2.933018 -8.625,4.5 -7.9164,4.354029 -15.25023,8.33345 -22.375,12.09375 C 103.18774,87.551955 97.04148,90.906346 91.5,93.875 85.95851,97.04156 82.19785,99.010446 80.21875,100 c -1.97911,1.18746 -3.56254,2.5938 -4.75,4.375 -1.18746,1.97909 -1.5625,3.94799 -1.5625,6.125 l 0,222.5 56.3125,0 c -0.20208,-1.65858 -0.90612,-3.26025 -1.90625,-4.59375 -1.38537,-1.38537 -2.76046,-2.78128 -4.34375,-3.96875 l 0.1875,0.1875 -8.3125,-5.125 0,-92.8125 79.96875,-42.375 27.3125,29.09375 c -8.11431,4.35403 -15.83359,8.51055 -23.75,12.46875 -7.9164,3.95821 -15.62525,8.12514 -23.34375,12.28125 -2.77073,1.58328 -4.9688,3.37507 -6.75,5.75 -1.97909,2.37492 -2.75,5.12509 -2.75,8.09375 0,1.97909 0.17711,3.7813 0.96875,5.5625 0.79164,1.78119 1.80214,3.36463 3.1875,4.75 1.18747,1.38537 2.76047,2.55211 4.34375,3.34375 1.58328,0.79164 3.35423,1.1875 5.53125,1.1875 1.58328,0.1979 3.57299,-0.17711 5.75,-0.96875 1.9791,-0.79165 4.14589,-1.59378 6.125,-2.78125 1.9791,-0.98955 3.95839,-1.96879 5.9375,-3.15625 1.78119,-1.18747 3.35422,-2.17711 4.9375,-2.96875 L 236.21875,333 l 74.5,0 c -0.30979,-0.67611 -0.69475,-1.35514 -1.125,-2.03125 -1.38538,-1.9791 -2.9584,-3.57294 -4.9375,-4.5625 L 271.59375,311.1875 240.9375,237.15625 268.84375,222.3125 c 1.58328,-0.79164 2.96879,-1.97922 4.15625,-3.5625 0.98955,-1.38537 1.76043,-2.9584 2.15625,-4.9375 l 0,0.1875 0.21875,-2.15625 c 0,-2.96866 -1.2084,-5.55217 -3.1875,-8.125 l -52.625,-55.40625 c -1.18747,-0.98955 -2.39587,-1.98961 -3.78125,-2.78125 -1.58328,-0.79165 -2.94797,-1.1875 -4.53125,-1.1875 -1.18747,0 -2.19795,0.19792 -3.1875,0.59375 -0.98956,0.39582 -1.9792,0.60418 -2.96875,1 l 0.21875,0 -89.46875,47.5 0,-69.96875 52.25,-29.3125 z"
     id="path3235"
     inkscape:connector-curvature="0"
     sodipodi:nodetypes="sccccssccccccccccscccccccccsccsscscccccccccccccccccccsccccccs" />
  <path
     style="fill:none;stroke:#00ff00;stroke-width:1px;display:inline"
     d="m 141.3125,67 c -2.82482,1.46328 -5.64027,2.933018 -8.625,4.5 -7.9164,4.354029 -15.25023,8.33345 -22.375,12.09375 C 103.18774,87.551955 97.04148,90.906346 91.5,93.875 85.95851,97.04156 82.19785,99.010446 80.21875,100 c -1.97911,1.18746 -3.56254,2.5938 -4.75,4.375 -1.18746,1.97909 -1.5625,3.94799 -1.5625,6.125 l 0,222.5 m 56.3125,0 c -0.20208,-1.65858 -0.90612,-3.26025 -1.90625,-4.59375 -1.38537,-1.38537 -2.76046,-2.78128 -4.34375,-3.96875 l 0.1875,0.1875 -8.3125,-5.125 0,-92.8125 79.96875,-42.375 27.3125,29.09375 c -8.11431,4.35403 -15.83359,8.51055 -23.75,12.46875 -7.9164,3.95821 -15.62525,8.12514 -23.34375,12.28125 -2.77073,1.58328 -4.9688,3.37507 -6.75,5.75 -1.97909,2.37492 -2.75,5.12509 -2.75,8.09375 0,1.97909 0.17711,3.7813 0.96875,5.5625 0.79164,1.78119 1.80214,3.36463 3.1875,4.75 1.18747,1.38537 2.76047,2.55211 4.34375,3.34375 1.58328,0.79164 3.35423,1.1875 5.53125,1.1875 1.58328,0.1979 3.57299,-0.17711 5.75,-0.96875 1.9791,-0.79165 4.14589,-1.59378 6.125,-2.78125 1.9791,-0.98955 3.95839,-1.96879 5.9375,-3.15625 1.78119,-1.18747 3.35422,-2.17711 4.9375,-2.96875 L 236.21875,333 m 74.5,0 c -0.30979,-0.67611 -0.69475,-1.35514 -1.125,-2.03125 -1.38538,-1.9791 -2.9584,-3.57294 -4.9375,-4.5625 L 271.59375,311.1875 240.9375,237.15625 268.84375,222.3125 c 1.58328,-0.79164 2.96879,-1.97922 4.15625,-3.5625 0.98955,-1.38537 1.76043,-2.9584 2.15625,-4.9375 l 0,0.1875 0.21875,-2.15625 c 0,-2.96866 -1.2084,-5.55217 -3.1875,-8.125 l -52.625,-55.40625 c -1.18747,-0.98955 -2.39587,-1.98961 -3.78125,-2.78125 -1.58328,-0.79165 -2.94797,-1.1875 -4.53125,-1.1875 -1.18747,0 -2.19795,0.19792 -3.1875,0.59375 -0.98956,0.39582 -1.9792,0.60418 -2.96875,1 l 0.21875,0 -89.46875,47.5 0,-69.96875 52.25,-29.3125 81.34375,16.53125 c 1.74551,0.35474 3.948,-0.37503 6.71875,-1.5625 2.57283,-0.98955 5.35427,-2.19797 8.125,-3.78125 2.57285,-1.58329 5.33342,-2.94797 7.90625,-4.53125 2.37491,-1.583278 4.57297,-2.572948 6.15625,-3.5625 1.7812,-0.989551 3.34378,-2.385469 4.53125,-3.96875 1.18745,-1.58328 1.78125,-3.375074 1.78125,-5.75 0,-2.770737 -0.79171,-5.322991 -2.375,-7.5 -1.58328,-1.979102 -3.73966,-3.572949 -6.3125,-4.5625 C 267.65652,72.895918 259.12472,70.312415 250.8125,67.9375 249.6537,67.634004 248.50258,67.317468 247.34375,67"
     id="path3235-9"
     inkscape:connector-curvature="0"
     sodipodi:nodetypes="ccccccscccccccccsccsscscccccccccccccccccccsccccccsccccsscccc" />
</g>
<g
   style="display:inline"
   inkscape:label="KKKK-008"
   id="g3240"
   inkscape:groupmode="layer"
   sodipodi:insensitive="true">
  <path
     style="fill:#ffffff;stroke:none"
     d="m 77.34375,67 0,33.34375 c 8.327237,0.3701 14.457703,1.48835 18.34375,2.96875 3.700994,1.66545 6.30086,4.61884 7.78125,8.875 1.4804,4.4412 2.21875,11.28119 2.21875,20.71875 l 0,171.03125 c 0,9.62261 -0.73835,16.46258 -2.21875,20.71875 -1.32034,3.96102 -3.538291,6.73789 -6.625,8.34375 l 77.9375,0 c -3.22558,-1.60477 -5.42775,-4.37701 -6.75,-8.34375 C 166.55086,320.40008 166,313.56011 166,303.9375 l 0,-81.59375 c 3.88605,0.37009 7.19056,1.29595 9.78125,2.40625 2.5907,1.11029 5.03431,3.16175 7.625,5.9375 2.5907,2.96081 5.549,7.22975 9.25,12.78125 l 55.15625,76 c 2.5907,4.44121 3.875,7.587 3.875,9.4375 0,1.68086 -0.74215,3.03607 -2.09375,4.09375 l 81.46875,0 c -3.01339,-1.62233 -5.6861,-3.40363 -7.96875,-5.375 -4.07108,-3.51595 -7.76776,-8.32838 -11.46875,-14.25 l -88.25,-124.6875 47.375,-56.46875 c 16.65448,-19.61531 34.95458,-31.62129 55.125,-36.0625 l 0,-29.15625 -91.78125,0 0,29.15625 c 8.69734,0.370107 15.5637,2.2028 20.375,5.71875 4.81129,3.51595 7.40625,8.33329 7.40625,14.625 0,9.80766 -5.93317,21.49378 -17.40625,35.1875 l -22.21875,27 c -10.3628,12.02827 -19.95645,20.72974 -28.46875,26.28125 -8.51227,5.5515 -17.78857,8.69485 -27.78125,9.25 l 0,-81.3125 c 0,-9.43756 0.55086,-16.27755 2.03125,-20.71875 1.4804,-4.25616 4.0827,-7.20955 7.96875,-8.875 3.701,-1.4804 9.98773,-2.59865 18.5,-2.96875 L 194.5,67 z"
     id="path3251"
     inkscape:connector-curvature="0"
     sodipodi:nodetypes="ccccssccccscscccsccscccccccssccscsccccc" />
  <path
     style="fill:none;stroke:#00ff00;stroke-width:1px;display:inline"
     d="m 77.34375,67 0,33.34375 c 8.327237,0.3701 14.457703,1.48835 18.34375,2.96875 3.700995,1.66545 6.30086,4.61884 7.78125,8.875 1.4804,4.4412 2.21875,11.28119 2.21875,20.71875 l 0,171.03125 c 0,9.62261 -0.73835,16.46259 -2.21875,20.71875 -1.32034,3.96102 -3.538291,6.73789 -6.625,8.34375 m 77.9375,0 c -3.22558,-1.60477 -5.42774,-4.37701 -6.75,-8.34375 C 166.55086,320.40009 166,313.56011 166,303.9375 l 0,-81.59375 c 3.88605,0.37009 7.19055,1.29595 9.78125,2.40625 2.59069,1.11029 5.03431,3.16175 7.625,5.9375 2.5907,2.96081 5.549,7.22974 9.25,12.78125 l 55.15625,76 c 2.59069,4.44121 3.875,7.587 3.875,9.4375 0,1.68086 -0.74215,3.03607 -2.09375,4.09375 m 81.46875,0 c -3.01338,-1.62232 -5.68609,-3.40362 -7.96875,-5.375 -4.07109,-3.51595 -7.76775,-8.32838 -11.46875,-14.25 l -88.25,-124.6875 47.375,-56.46875 c 16.65449,-19.61531 34.95458,-31.62129 55.125,-36.0625 L 325.875,67 m -91.78125,0 0,29.15625 c 8.69734,0.370105 15.56371,2.2028 20.375,5.71875 4.81129,3.51595 7.40625,8.33329 7.40625,14.625 0,9.80766 -5.93316,21.49378 -17.40625,35.1875 l -22.21875,27 c -10.36279,12.02827 -19.95645,20.72974 -28.46875,26.28125 -8.51227,5.55151 -17.78857,8.69485 -27.78125,9.25 l 0,-81.3125 c 0,-9.43756 0.55086,-16.27755 2.03125,-20.71875 1.4804,-4.25616 4.0827,-7.20955 7.96875,-8.875 3.70101,-1.4804 9.98772,-2.59865 18.5,-2.96875 L 194.5,67"
     id="path3251-0"
     inkscape:connector-curvature="0"
     sodipodi:nodetypes="ccccssccccscscccsccscccccccssccscscccc" />
</g>
<g
     style="display:inline"
     inkscape:label="UKON-001"
     id="g3155"
     inkscape:groupmode="layer"
     sodipodi:insensitive="true">
    <path
       sodipodi:nodetypes="ccccc"
       inkscape:connector-curvature="0"
       id="path3261"
       d="m 37,365.5 30,0 0,-332 -30,0 z"
       style="fill:#ffffff;stroke:none;display:inline" />
    <path
       style="fill:none;stroke:#000000;stroke-width:1px;stroke-linecap:square;display:inline"
       d="m 333,30.5 0,36"
       id="path3178"
       inkscape:connector-curvature="0"
       sodipodi:nodetypes="cc" />
    <path
       sodipodi:nodetypes="cccc"
       inkscape:connector-curvature="0"
       id="path3153"
       d="m 30.5,67 10,0 319,0 10,0"
       style="fill:none;stroke:#000000;stroke-width:1px;stroke-linecap:square;display:inline" />
    <path
       style="fill:none;stroke:#000000;stroke-width:1px;stroke-linecap:square;display:inline"
       d="m 333,333.5 0,36"
       id="C-top-4-6-3"
       inkscape:connector-curvature="0"
       sodipodi:nodetypes="cc" />
    <path
       style="fill:none;stroke:#000000;stroke-width:1px;stroke-linecap:square;display:inline"
       d="m 369.5,333 -10,0 -319,0 -10,0"
       id="path3159"
       inkscape:connector-curvature="0"
       sodipodi:nodetypes="cccc" />
    <path
       style="fill:none;stroke:#000000;stroke-width:1px;stroke-linecap:square;display:inline"
       d="m 30.5,93 36,0"
       id="C-left-2-5"
       inkscape:connector-curvature="0"
       sodipodi:nodetypes="cc" />
    <path
       sodipodi:nodetypes="cc"
       inkscape:connector-curvature="0"
       id="path3236"
       d="m 67,30.5 0,62"
       style="fill:none;stroke:#000000;stroke-width:1px;stroke-linecap:square;display:inline"
        />
    <path
       style="fill:none;stroke:#000000;stroke-width:1px;stroke-linecap:square;display:inline"
       d="m 30.5,307 36,0"
       id="C-left-3-6"
       inkscape:connector-curvature="0"
       sodipodi:nodetypes="cc" />
    <path
       sodipodi:nodetypes="cccc"
       inkscape:connector-curvature="0"
       id="path3234"
       d="m 67,93.5 0,10 0,256 0,10"
       style="fill:none;stroke:#000000;stroke-width:1px;stroke-linecap:square;display:inline" />
  </g>
</svg>
