<?xml version="1.0" encoding="UTF-8" standalone="no"?>
<!-- Created with Inkscape (http://www.inkscape.org/) -->

<svg
   xmlns:dc="http://purl.org/dc/elements/1.1/"
   xmlns:cc="http://creativecommons.org/ns#"
   xmlns:rdf="http://www.w3.org/1999/02/22-rdf-syntax-ns#"
   xmlns:svg="http://www.w3.org/2000/svg"
   xmlns="http://www.w3.org/2000/svg"
   xmlns:sodipodi="http://sodipodi.sourceforge.net/DTD/sodipodi-0.dtd"
   xmlns:inkscape="http://www.inkscape.org/namespaces/inkscape"
   style="display:inline"
   sodipodi:docname="161212_TTTT_00_UW_00_UW_.svg"
   inkscape:version="0.48.3.1 r9886"
   version="1.1"
   id="svg2902"
   height="400"
   width="400">
  <sodipodi:namedview
     id="base"
     pagecolor="#f0f0f0"
     bordercolor="#666666"
     borderopacity="1.0"
     inkscape:pageopacity="1"
     inkscape:pageshadow="2"
     inkscape:zoom="1.2066268"
     inkscape:cx="199.65217"
     inkscape:cy="171.72464"
     inkscape:document-units="px"
     inkscape:current-layer="g3237"
     showgrid="false"
     inkscape:window-width="1018"
     inkscape:window-height="709"
     inkscape:window-x="0"
     inkscape:window-y="1"
     inkscape:window-maximized="0"
     showguides="true"
     inkscape:guide-bbox="true"
     inkscape:snap-bbox="true"
     inkscape:snap-global="false" />
  <defs
     id="defs2904">
    <clipPath
       clipPathUnits="userSpaceOnUse"
       id="clipPath5174">
      <path
         id="path5176"
         style="opacity:0.5;fill:#00ff00;stroke:#00ff00;stroke-width:1px;stroke-linecap:square;display:inline"
         d="m 436.26971,600.11436 -232.09481,134 -169.500003,-293.58262 232.094813,-134 z"
         inkscape:connector-curvature="0"
         sodipodi:nodetypes="ccccc" />
    </clipPath>
    <clipPath
       clipPathUnits="userSpaceOnUse"
       id="clipPath5174-5">
      <path
         id="path5176-9"
         style="opacity:0.5;fill:#00ff00;stroke:#00ff00;stroke-width:1px;stroke-linecap:square;display:inline"
         d="m 436.26971,600.11436 -232.09481,134 -169.500003,-293.58262 232.094813,-134 z"
         inkscape:connector-curvature="0"
         sodipodi:nodetypes="ccccc" />
    </clipPath>
    <clipPath
       clipPathUnits="userSpaceOnUse"
       id="clipPath3238">
      <path
         sodipodi:nodetypes="ccccc"
         inkscape:connector-curvature="0"
         d="m 461.26971,643.41563 -232.09481,134 -169.500002,-293.58262 232.094812,-134 z"
         style="opacity:0.5;fill:#00ff00;stroke:#00ff00;stroke-width:1px;stroke-linecap:square;display:inline"
         id="path3240" />
    </clipPath>
  </defs>
  <metadata
     id="metadata2907">
    <rdf:RDF>
      <cc:Work
         rdf:about="">
        <dc:format>image/svg+xml</dc:format>
        <dc:type
           rdf:resource="http://purl.org/dc/dcmitype/StillImage" />
        <dc:title />
      </cc:Work>
    </rdf:RDF>
  </metadata>
  
tmp/TMP.change:<g
     inkscape:groupmode="layer"
     id="bg"
     inkscape:label="XX_BG"
     sodipodi:insensitive="true">
    <path
       style="fill:#f6ffd5"
       d="M 400,0 400,400 0,400 0,0 z"
       id="bgrect"
       inkscape:connector-curvature="0" />
  </g>
  
tmp/TMP.change:<g
     inkscape:label="XX_Referenz"
     inkscape:groupmode="layer"
     id="XX_referenz"
     style="display:inline"
     sodipodi:insensitive="true">
    <path
       id="innerframe"
       style="fill:none;stroke:#ff0000;stroke-width:1"
       d="m 40.5,40.5 319,0 0,319 -319,0 0,-319 z"
       inkscape:label="#innerframe"
       sodipodi:insensitive="true"
       inkscape:connector-curvature="0" />
    <path
       id="outerframe"
       style="fill:none;stroke:#ff0000;stroke-width:1"
       d="m 30.5,30.5 339,0 0,339 -339,0 0,-339 z"
       inkscape:label="#outerframe"
       sodipodi:nodetypes="ccccc"
       sodipodi:insensitive="true"
       inkscape:connector-curvature="0" />
    <path
       style="opacity:0.5;fill:none;stroke:#ffc200;stroke-width:1px;stroke-linecap:square"
       d="m 189,30.5 0,10"
       id="ref-S-top-1"
       sodipodi:insensitive="true"
       inkscape:connector-curvature="0" />
    <path
       style="opacity:0.5;fill:none;stroke:#ffc200;stroke-width:1px;stroke-linecap:square"
       d="m 191,30.5 0,10"
       id="ref-S-top-2"
       sodipodi:insensitive="true"
       inkscape:connector-curvature="0" />
    <path
       style="opacity:0.5;fill:none;stroke:#ffc200;stroke-width:1px;stroke-linecap:square"
       d="m 209,30.5 0,10"
       id="ref-S-top-3"
       sodipodi:insensitive="true"
       inkscape:connector-curvature="0" />
    <path
       style="opacity:0.5;fill:none;stroke:#ffc200;stroke-width:1px;stroke-linecap:square"
       d="m 211,30.5 0,10"
       id="ref-S-top-4"
       sodipodi:insensitive="true"
       inkscape:connector-curvature="0" />
    <path
       style="opacity:0.5;fill:none;stroke:#00ff00;stroke-width:1px;stroke-linecap:square"
       d="m 199,30.5 0,10"
       id="ref-I-top-1"
       sodipodi:insensitive="true"
       inkscape:connector-curvature="0" />
    <path
       style="opacity:0.5;fill:none;stroke:#00ff00;stroke-width:1px;stroke-linecap:square"
       d="m 201,30.5 0,10"
       id="ref-I-top-2"
       sodipodi:insensitive="true"
       inkscape:connector-curvature="0" />
    <path
       style="opacity:0.5;fill:none;stroke:#00ffcc;stroke-width:1px;stroke-linecap:square"
       d="m 66,30.5 0,10"
       id="ref-C-top-1"
       sodipodi:insensitive="true"
       inkscape:connector-curvature="0" />
    <path
       style="opacity:0.5;fill:none;stroke:#00ffcc;stroke-width:1px;stroke-linecap:square"
       d="m 68,30.5 0,10"
       id="ref-C-top-2"
       sodipodi:insensitive="true"
       inkscape:connector-curvature="0" />
    <path
       style="opacity:0.5;fill:none;stroke:#00ffcc;stroke-width:1px;stroke-linecap:square"
       d="m 92,30.5 0,10"
       id="ref-C-top-3"
       sodipodi:insensitive="true"
       inkscape:connector-curvature="0" />
    <path
       style="opacity:0.5;fill:none;stroke:#00ffcc;stroke-width:1px;stroke-linecap:square"
       d="m 94,30.5 0,10"
       id="ref-C-top-4"
       sodipodi:insensitive="true"
       inkscape:connector-curvature="0" />
    <path
       style="opacity:0.5;fill:none;stroke:#00ffcc;stroke-width:1px;stroke-linecap:square"
       d="m 306,30.5 0,10"
       id="ref-C-top-5"
       sodipodi:insensitive="true"
       inkscape:connector-curvature="0" />
    <path
       style="opacity:0.5;fill:none;stroke:#00ffcc;stroke-width:1px;stroke-linecap:square"
       d="m 308,30.5 0,10"
       id="ref-C-top-6"
       sodipodi:insensitive="true"
       inkscape:connector-curvature="0" />
    <path
       style="opacity:0.5;fill:none;stroke:#00ffcc;stroke-width:1px;stroke-linecap:square"
       d="m 332,30.5 0,10"
       id="ref-C-top-7"
       sodipodi:insensitive="true"
       inkscape:connector-curvature="0" />
    <path
       style="opacity:0.5;fill:none;stroke:#00ffcc;stroke-width:1px;stroke-linecap:square"
       d="m 334,30.5 0,10"
       id="ref-C-top-8"
       sodipodi:insensitive="true"
       inkscape:connector-curvature="0" />
    <path
       style="opacity:0.5;fill:none;stroke:#ffc200;stroke-width:1px;stroke-linecap:square"
       d="m 369.5,189 -10,0"
       id="ref-S-right-1"
       sodipodi:insensitive="true"
       inkscape:connector-curvature="0" />
    <path
       style="opacity:0.5;fill:none;stroke:#ffc200;stroke-width:1px;stroke-linecap:square"
       d="m 369.5,191 -10,0"
       id="ref-S-right-2"
       sodipodi:insensitive="true"
       inkscape:connector-curvature="0" />
    <path
       style="opacity:0.5;fill:none;stroke:#ffc200;stroke-width:1px;stroke-linecap:square"
       d="m 369.5,209 -10,0"
       id="ref-S-right-3"
       sodipodi:insensitive="true"
       inkscape:connector-curvature="0" />
    <path
       style="opacity:0.5;fill:none;stroke:#ffc200;stroke-width:1px;stroke-linecap:square"
       d="m 369.5,211 -10,0"
       id="ref-S-right-4"
       sodipodi:insensitive="true"
       inkscape:connector-curvature="0" />
    <path
       style="opacity:0.5;fill:none;stroke:#00ff00;stroke-width:1px;stroke-linecap:square"
       d="m 369.5,199 -10,0"
       id="ref-I-right-1"
       sodipodi:insensitive="true"
       inkscape:connector-curvature="0" />
    <path
       style="opacity:0.5;fill:none;stroke:#00ff00;stroke-width:1px;stroke-linecap:square"
       d="m 369.5,201 -10,0"
       id="ref-I-right-2"
       sodipodi:insensitive="true"
       inkscape:connector-curvature="0" />
    <path
       style="opacity:0.5;fill:none;stroke:#00ffcc;stroke-width:1px;stroke-linecap:square"
       d="m 369.5,66 -10,0"
       id="ref-C-right-1"
       sodipodi:insensitive="true"
       inkscape:connector-curvature="0" />
    <path
       style="opacity:0.5;fill:none;stroke:#00ffcc;stroke-width:1px;stroke-linecap:square"
       d="m 369.5,68 -10,0"
       id="ref-C-right-2"
       sodipodi:insensitive="true"
       inkscape:connector-curvature="0" />
    <path
       style="opacity:0.5;fill:none;stroke:#00ffcc;stroke-width:1px;stroke-linecap:square"
       d="m 369.5,92 -10,0"
       id="ref-C-right-3"
       sodipodi:insensitive="true"
       inkscape:connector-curvature="0" />
    <path
       style="opacity:0.5;fill:none;stroke:#00ffcc;stroke-width:1px;stroke-linecap:square"
       d="m 369.5,94 -10,0"
       id="ref-C-right-4"
       sodipodi:insensitive="true"
       inkscape:connector-curvature="0" />
    <path
       style="opacity:0.5;fill:none;stroke:#00ffcc;stroke-width:1px;stroke-linecap:square"
       d="m 369.5,306 -10,0"
       id="ref-C-right-5"
       sodipodi:insensitive="true"
       inkscape:connector-curvature="0" />
    <path
       style="opacity:0.5;fill:none;stroke:#00ffcc;stroke-width:1px;stroke-linecap:square"
       d="m 369.5,308 -10,0"
       id="ref-C-right-6"
       sodipodi:insensitive="true"
       inkscape:connector-curvature="0" />
    <path
       style="opacity:0.5;fill:none;stroke:#00ffcc;stroke-width:1px;stroke-linecap:square"
       d="m 369.5,332 -10,0"
       id="ref-C-right-7"
       sodipodi:insensitive="true"
       inkscape:connector-curvature="0" />
    <path
       style="opacity:0.5;fill:none;stroke:#00ffcc;stroke-width:1px;stroke-linecap:square"
       d="m 369.5,334 -10,0"
       id="ref-C-right-8"
       sodipodi:insensitive="true"
       inkscape:connector-curvature="0" />
    <path
       style="opacity:0.5;fill:none;stroke:#ffc200;stroke-width:1px;stroke-linecap:square"
       d="m 189,369.5 0,-10"
       id="ref-S-bottom-1"
       sodipodi:insensitive="true"
       inkscape:connector-curvature="0" />
    <path
       style="opacity:0.5;fill:none;stroke:#ffc200;stroke-width:1px;stroke-linecap:square"
       d="m 191,369.5 0,-10"
       id="ref-S-bottom-2"
       sodipodi:insensitive="true"
       inkscape:connector-curvature="0" />
    <path
       style="opacity:0.5;fill:none;stroke:#ffc200;stroke-width:1px;stroke-linecap:square"
       d="m 209,369.5 0,-10"
       id="ref-S-bottom-3"
       sodipodi:insensitive="true"
       inkscape:connector-curvature="0" />
    <path
       style="opacity:0.5;fill:none;stroke:#ffc200;stroke-width:1px;stroke-linecap:square"
       d="m 211,369.5 0,-10"
       id="ref-S-bottom-4"
       sodipodi:insensitive="true"
       inkscape:connector-curvature="0" />
    <path
       style="opacity:0.5;fill:none;stroke:#00ff00;stroke-width:1px;stroke-linecap:square"
       d="m 199,369.5 0,-10"
       id="ref-I-bottom-1"
       sodipodi:insensitive="true"
       inkscape:connector-curvature="0" />
    <path
       style="opacity:0.5;fill:none;stroke:#00ff00;stroke-width:1px;stroke-linecap:square"
       d="m 201,369.5 0,-10"
       id="ref-I-bottom-2"
       sodipodi:insensitive="true"
       inkscape:connector-curvature="0" />
    <path
       style="opacity:0.5;fill:none;stroke:#00ffcc;stroke-width:1px;stroke-linecap:square"
       d="m 66,369.5 0,-10"
       id="ref-C-bottom-1"
       sodipodi:insensitive="true"
       inkscape:connector-curvature="0" />
    <path
       style="opacity:0.5;fill:none;stroke:#00ffcc;stroke-width:1px;stroke-linecap:square"
       d="m 68,369.5 0,-10"
       id="ref-C-bottom-2"
       sodipodi:insensitive="true"
       inkscape:connector-curvature="0" />
    <path
       style="opacity:0.5;fill:none;stroke:#00ffcc;stroke-width:1px;stroke-linecap:square"
       d="m 92,369.5 0,-10"
       id="ref-C-bottom-3"
       sodipodi:insensitive="true"
       inkscape:connector-curvature="0" />
    <path
       style="opacity:0.5;fill:none;stroke:#00ffcc;stroke-width:1px;stroke-linecap:square"
       d="m 94,369.5 0,-10"
       id="ref-C-bottom-4"
       sodipodi:insensitive="true"
       inkscape:connector-curvature="0" />
    <path
       style="opacity:0.5;fill:none;stroke:#00ffcc;stroke-width:1px;stroke-linecap:square"
       d="m 306,369.5 0,-10"
       id="ref-C-bottom-5"
       sodipodi:insensitive="true"
       inkscape:connector-curvature="0" />
    <path
       style="opacity:0.5;fill:none;stroke:#00ffcc;stroke-width:1px;stroke-linecap:square"
       d="m 308,369.5 0,-10"
       id="ref-C-bottom-6"
       sodipodi:insensitive="true"
       inkscape:connector-curvature="0" />
    <path
       style="opacity:0.5;fill:none;stroke:#00ffcc;stroke-width:1px;stroke-linecap:square"
       d="m 332,369.5 0,-10"
       id="ref-C-bottom-7"
       sodipodi:insensitive="true"
       inkscape:connector-curvature="0" />
    <path
       style="opacity:0.5;fill:none;stroke:#00ffcc;stroke-width:1px;stroke-linecap:square"
       d="m 334,369.5 0,-10"
       id="ref-C-bottom-8"
       sodipodi:insensitive="true"
       inkscape:connector-curvature="0" />
    <path
       style="opacity:0.5;fill:none;stroke:#ffc200;stroke-width:1px;stroke-linecap:square"
       d="m 30.5,189 10,0"
       id="ref-S-left-1"
       sodipodi:insensitive="true"
       inkscape:connector-curvature="0" />
    <path
       style="opacity:0.5;fill:none;stroke:#ffc200;stroke-width:1px;stroke-linecap:square"
       d="m 30.5,191 10,0"
       id="ref-S-left-2"
       sodipodi:insensitive="true"
       inkscape:connector-curvature="0" />
    <path
       style="opacity:0.5;fill:none;stroke:#ffc200;stroke-width:1px;stroke-linecap:square"
       d="m 30.5,209 10,0"
       id="ref-S-left-3"
       sodipodi:insensitive="true"
       inkscape:connector-curvature="0" />
    <path
       style="opacity:0.5;fill:none;stroke:#ffc200;stroke-width:1px;stroke-linecap:square"
       d="m 30.5,211 10,0"
       id="ref-S-left-4"
       sodipodi:insensitive="true"
       inkscape:connector-curvature="0" />
    <path
       style="opacity:0.5;fill:none;stroke:#00ff00;stroke-width:1px;stroke-linecap:square"
       d="m 40.5,199 -10,0"
       id="ref-I-left-1"
       sodipodi:insensitive="true"
       inkscape:connector-curvature="0" />
    <path
       style="opacity:0.5;fill:none;stroke:#00ff00;stroke-width:1px;stroke-linecap:square"
       d="m 40.5,201 -10,0"
       id="ref-I-left-2"
       sodipodi:insensitive="true"
       inkscape:connector-curvature="0" />
    <path
       style="opacity:0.5;fill:none;stroke:#00ffcc;stroke-width:1px;stroke-linecap:square"
       d="m 30.5,66 10,0"
       id="ref-C-left-1"
       sodipodi:insensitive="true"
       inkscape:connector-curvature="0" />
    <path
       style="opacity:0.5;fill:none;stroke:#00ffcc;stroke-width:1px;stroke-linecap:square"
       d="m 30.5,68 10,0"
       id="ref-C-left-2"
       sodipodi:insensitive="true"
       inkscape:connector-curvature="0" />
    <path
       style="opacity:0.5;fill:none;stroke:#00ffcc;stroke-width:1px;stroke-linecap:square"
       d="m 30.5,92 10,0"
       id="ref-C-left-3"
       sodipodi:insensitive="true"
       inkscape:connector-curvature="0" />
    <path
       style="opacity:0.5;fill:none;stroke:#00ffcc;stroke-width:1px;stroke-linecap:square"
       d="m 30.5,94 10,0"
       id="ref-C-left-4"
       sodipodi:insensitive="true"
       inkscape:connector-curvature="0" />
    <path
       style="opacity:0.5;fill:none;stroke:#00ffcc;stroke-width:1px;stroke-linecap:square"
       d="m 30.5,306 10,0"
       id="ref-C-left-5"
       sodipodi:insensitive="true"
       inkscape:connector-curvature="0" />
    <path
       style="opacity:0.5;fill:none;stroke:#00ffcc;stroke-width:1px;stroke-linecap:square"
       d="m 30.5,308 10,0"
       id="ref-C-left-6"
       sodipodi:insensitive="true"
       inkscape:connector-curvature="0" />
    <path
       style="opacity:0.5;fill:none;stroke:#00ffcc;stroke-width:1px;stroke-linecap:square"
       d="m 30.5,332 10,0"
       id="ref-C-left-7"
       sodipodi:insensitive="true"
       inkscape:connector-curvature="0" />
    <path
       style="opacity:0.5;fill:none;stroke:#00ffcc;stroke-width:1px;stroke-linecap:square"
       d="m 30.5,334 10,0"
       id="ref-C-left-8"
       sodipodi:insensitive="true"
       inkscape:connector-curvature="0" />
    <path
       style="fill:none;stroke:#000000;stroke-width:1px;stroke-linecap:square"
       d="m 190,30.5 0,10"
       id="S-top-1"
       inkscape:connector-curvature="0" />
    <path
       style="fill:none;stroke:#000000;stroke-width:1px;stroke-linecap:square"
       d="m 210,30.5 0,10"
       id="S-top-2"
       inkscape:connector-curvature="0" />
    <path
       style="fill:none;stroke:#000000;stroke-width:1px;stroke-linecap:square"
       d="m 369.5,190 -10,0"
       id="S-right-1"
       inkscape:connector-curvature="0" />
    <path
       style="fill:none;stroke:#000000;stroke-width:1px;stroke-linecap:square"
       d="m 369.5,210 -10,0"
       id="S-right-2"
       inkscape:connector-curvature="0" />
    <path
       style="fill:none;stroke:#000000;stroke-width:1px;stroke-linecap:square"
       d="m 190,369.5 0,-10"
       id="S-bottom-1"
       inkscape:connector-curvature="0" />
    <path
       style="fill:none;stroke:#000000;stroke-width:1px;stroke-linecap:square"
       d="m 210,369.5 0,-10"
       id="S-bottom-2"
       inkscape:connector-curvature="0" />
    <path
       style="fill:none;stroke:#000000;stroke-width:1px;stroke-linecap:square"
       d="m 30.5,190 10,0"
       id="S-left-1"
       inkscape:connector-curvature="0" />
    <path
       style="fill:none;stroke:#000000;stroke-width:1px;stroke-linecap:square"
       d="m 30.5,210 10,0"
       id="S-left-2"
       inkscape:connector-curvature="0" />
    <path
       style="fill:none;stroke:#000000;stroke-width:1px;stroke-linecap:square"
       d="m 200,30.5 0,10"
       id="I-top-1"
       inkscape:connector-curvature="0" />
    <path
       style="fill:none;stroke:#000000;stroke-width:1px;stroke-linecap:square"
       d="m 369.5,200 -10,0"
       id="I-right-1"
       inkscape:connector-curvature="0" />
    <path
       style="fill:none;stroke:#000000;stroke-width:1px;stroke-linecap:square"
       d="m 200,369.5 0,-10"
       id="I-bottom-1"
       inkscape:connector-curvature="0" />
    <path
       style="fill:none;stroke:#000000;stroke-width:1px;stroke-linecap:square"
       d="m 40.5,200 -10,0"
       id="I-left-1"
       inkscape:connector-curvature="0" />
    <path
       style="fill:none;stroke:#000000;stroke-width:1px;stroke-linecap:square"
       d="m 67,30.5 0,10"
       id="C-top-1"
       inkscape:connector-curvature="0" />
    <path
       style="fill:none;stroke:#000000;stroke-width:1px;stroke-linecap:square"
       d="m 93,30.5 0,10"
       id="C-top-2"
       inkscape:connector-curvature="0" />
    <path
       style="fill:none;stroke:#000000;stroke-width:1px;stroke-linecap:square"
       d="m 307,30.5 0,10"
       id="C-top-3"
       inkscape:connector-curvature="0" />
    <path
       style="fill:none;stroke:#000000;stroke-width:1px;stroke-linecap:square"
       d="m 333,30.5 0,10"
       id="C-top-4"
       inkscape:connector-curvature="0" />
    <path
       style="fill:none;stroke:#000000;stroke-width:1px;stroke-linecap:square"
       d="m 369.5,67 -10,0"
       id="C-right-1"
       inkscape:connector-curvature="0" />
    <path
       style="fill:none;stroke:#000000;stroke-width:1px;stroke-linecap:square"
       d="m 369.5,93 -10,0"
       id="C-right-2"
       inkscape:connector-curvature="0" />
    <path
       style="fill:none;stroke:#000000;stroke-width:1px;stroke-linecap:square"
       d="m 369.5,307 -10,0"
       id="C-right-3"
       inkscape:connector-curvature="0" />
    <path
       style="fill:none;stroke:#000000;stroke-width:1px;stroke-linecap:square"
       d="m 369.5,333 -10,0"
       id="C-right-4"
       inkscape:connector-curvature="0" />
    <path
       style="fill:none;stroke:#000000;stroke-width:1px;stroke-linecap:square"
       d="m 67,369.5 0,-10"
       id="C-bottom-1"
       inkscape:connector-curvature="0" />
    <path
       style="fill:none;stroke:#000000;stroke-width:1px;stroke-linecap:square"
       d="m 93,369.5 0,-10"
       id="C-bottom-2"
       inkscape:connector-curvature="0" />
    <path
       style="fill:none;stroke:#000000;stroke-width:1px;stroke-linecap:square"
       d="m 307,369.5 0,-10"
       id="C-bottom-3"
       inkscape:connector-curvature="0" />
    <path
       style="fill:none;stroke:#000000;stroke-width:1px;stroke-linecap:square"
       d="m 333,369.5 0,-10"
       id="C-bottom-4"
       inkscape:connector-curvature="0" />
    <path
       style="fill:none;stroke:#000000;stroke-width:1px;stroke-linecap:square"
       d="m 30.5,67 10,0"
       id="C-left-1"
       inkscape:connector-curvature="0" />
    <path
       style="fill:none;stroke:#000000;stroke-width:1px;stroke-linecap:square"
       d="m 30.5,93 10,0"
       id="C-left-2"
       inkscape:connector-curvature="0" />
    <path
       style="fill:none;stroke:#000000;stroke-width:1px;stroke-linecap:square"
       d="m 30.5,307 10,0"
       id="C-left-3"
       inkscape:connector-curvature="0" />
    <path
       style="fill:none;stroke:#000000;stroke-width:1px;stroke-linecap:square"
       d="m 30.5,333 10,0"
       id="C-left-4"
       inkscape:connector-curvature="0" />
  </g>
  
tmp/TMP.change:<g
     inkscape:groupmode="layer"
     id="g3149"
     inkscape:label="OKON-001"
     zpos="-300"
     style="display:inline"
     sodipodi:insensitive="true">
    <path
       style="fill:#000000;stroke:none;display:inline"
       d="m 30.5,67 0,266 339,0 0,-266 z"
       id="path3163"
       inkscape:connector-curvature="0"
       sodipodi:nodetypes="ccccc" />
    <path
       id="path3151"
       style="fill:#ffffff;stroke:none;display:inline"
       d="m 369.5,17 0,50 -339,0 0,-50 z"
       inkscape:connector-curvature="0"
       sodipodi:nodetypes="ccccc" />
    <path
       sodipodi:nodetypes="cccc"
       inkscape:connector-curvature="0"
       id="path3153"
       d="m 30.5,67 10,0 319,0 10,0"
       style="fill:none;stroke:#000000;stroke-width:1px;stroke-linecap:square;display:inline" />
  </g>
  
tmp/TMP.master:<g
     zpos="-200"
     style="display:none"
     inkscape:label="TTTT-001"
     id="g3125"
     inkscape:groupmode="layer">
    <path
       style="fill:#ffffff;stroke:#00ff00;stroke-width:1px"
       d="m 109.03324,63.35203 c 0,10.08544 5.53712,15.02929 17.00684,15.02929 l 57.74414,0 0,255.6958 c 0,10.2832 4.7461,15.22705 14.43603,15.22705 9.49218,0 14.43604,-5.14161 14.43604,-15.62255 l 0,-255.3003 60.71045,0 c 9.09667,0 13.84277,-4.7461 13.84277,-14.43603 0,-9.49218 -4.7461,-14.23828 -14.23828,-14.23828 l -146.53564,0 c -11.66747,0 -17.40235,4.54835 -17.40235,13.64502"
       id="path3136"
       inkscape:connector-curvature="0" />
  </g>
  
tmp/TMP.master:<g
     zpos="-200"
     style="display:none"
     inkscape:label="TTTT-002"
     id="g3141"
     inkscape:groupmode="layer">
    <path
       style="fill:#ffffff;stroke:#00ff00;stroke-width:1px"
       d="m 104.42004,76.87997 c 0,28.75497 0,28.35 1.215,31.995 1.62,4.45499 5.26501,8.505 9.72,10.53 2.43,1.215 5.265,2.025 8.505,2.025 2.835,0 4.455,-0.405 7.29,-1.62 4.86,-1.62 8.91,-6.07501 10.53,-10.53 1.215,-3.24 1.62,-4.86001 1.62,-12.96 l 0,-7.29 18.63,0 18.63,0 0,121.095 c 0,132.02986 0,123.12 1.215,126.765 1.215,2.83499 2.025,4.455 4.86,6.885 2.43,2.42999 4.05,3.645 6.885,4.86 5.265,1.61999 10.12501,1.21499 14.985,-1.215 4.86,-2.43 8.505,-6.48001 10.125,-12.15 0.81,-1.62 0.81,-6.88512 0.81,-123.93 l 0,-122.31 18.63,0 19.035,0 0,7.29 c 0,8.09999 0,9.72 1.215,12.555 1.62,4.45499 5.26501,8.505 9.72,10.53 2.43,1.215 5.265,2.025 8.1,2.025 3.24,0 4.86,-0.405 7.29,-1.62 4.86,-1.62 8.91,-6.07501 10.935,-10.53 1.215,-3.645 1.215,-3.24003 1.215,-32.4 l 0,-26.73 -95.58,0 -95.58,0 0,26.73"
       id="path3152"
       inkscape:connector-curvature="0" />
  </g>
  
tmp/TMP.master:<g
     zpos="-200"
     style="display:none"
     inkscape:label="TTTT-003"
     id="g3157"
     inkscape:groupmode="layer">
    <path
       style="fill:#ffffff;stroke:#00ff00;stroke-width:1px"
       d="m 167.49242,120.51995 -44.55,0 c -9.72002,2.4e-4 -17.41501,-3.37476 -23.084998,-10.125 -5.13,-5.66974 -7.695,-12.82474 -7.695,-21.465 0,-8.36972 2.565,-15.65971 7.695,-21.87 5.129988,-6.2097 12.284978,-9.3147 21.464998,-9.315 l 157.545,0 c 10.7998,3e-4 19.16979,3.2403 25.11,9.72 5.93978,6.21029 8.90978,13.63528 8.91,22.275 -2.2e-4,8.37026 -2.70022,15.39026 -8.1,21.06 -6.21021,6.48024 -14.7152,9.72024 -25.515,9.72 l -45.765,0 0,199.26 c -1.4e-4,12.42003 -3.37514,22.00502 -10.125,28.755 -6.48013,6.75001 -14.17512,10.125 -23.085,10.125 -8.9101,0 -16.60509,-3.23999 -23.085,-9.72 -6.48008,-6.47998 -9.72008,-15.52497 -9.72,-27.135 l 0,-201.285"
       id="path3168"
       inkscape:connector-curvature="0" />
  </g>
  
tmp/TMP.master:<g
     zpos="-200"
     style="display:none"
     inkscape:label="TTTT-004"
     id="g3173"
     inkscape:groupmode="layer">
    <path
       style="fill:#ffffff;stroke:#00ff00;stroke-width:1px"
       d="m 304.71072,94.59721 -88.98926,0 0,249.36768 -48.0542,0 0,-249.36768 -87.60498,0 0,-38.56201 224.64844,0 0,38.56201"
       id="path3184"
       inkscape:connector-curvature="0" />
  </g>
  
tmp/TMP.master:<g
     zpos="-200"
     style="display:none"
     inkscape:label="TTTT-005"
     id="g3189"
     inkscape:groupmode="layer">
    <path
       style="fill:#ffffff;stroke:#00ff00;stroke-width:1px"
       d="m 237.20419,368.00777 0,0 45.49797,-49.63415 -50.09373,-21.60004 0,-191.64297 52.85118,0 22.5192,-64.340568 -172.80037,0 -22.5192,64.340568 77.66825,0 -28.49368,32.17028 0,195.77915 -0.45957,0.45957 75.82995,34.46816"
       id="path3200"
       inkscape:connector-curvature="0" />
  </g>
  
tmp/TMP.master:<g
     zpos="-200"
     style="display:none"
     inkscape:label="TTTT-006"
     id="g3205"
     inkscape:groupmode="layer">
    <path
       style="fill:#ffffff;stroke:#00ff00;stroke-width:1px"
       d="m 128.99715,93.18504 c 30.23997,-5.03999 65.52004,-7.92 105.48,-8.64 l -15.84,37.44 -19.44,46.44 c -5.03999,11.51999 -10.80001,26.64002 -18,45.36 -7.19999,18.71998 -13.32001,35.64002 -18.36,51.48 -8.63999,25.91997 -12.6,43.56001 -12.6,52.92 0.36,18.71998 12.24002,27.72 35.28,27.72 -0.72,-3.6 -1.08,-6.84 -1.08,-10.44 -0.36,-6.83999 0.36,-14.04001 1.8,-21.6 1.08,-7.55999 2.16,-14.4 3.96,-20.16 1.08,-5.75999 3.96,-15.84001 7.92,-30.6 19.07998,-70.19993 38.52002,-129.96005 58.32,-178.56 14.03999,0 25.92001,0 35.28,-0.72 9.35999,-0.72 19.80001,-2.52 32.04,-6.12 12.23999,-3.24 21.60001,-7.92001 28.44,-14.4 -11.87999,0 -30.24003,-1.08 -55.44,-3.6 -28.79997,-2.88 -52.92002,-4.32 -72.36,-4.32 -19.43998,0 -35.28001,1.08 -48.24,3.24 -12.95999,2.16 -24.12001,5.76001 -32.76,11.52 -8.63999,6.11999 -13.68,13.68001 -14.4,23.04"
       id="path3216"
       inkscape:connector-curvature="0" />
  </g>
  
tmp/TMP.master:<g
     zpos="-200"
     style="display:none"
     inkscape:label="TTTT-007"
     id="g3221"
     inkscape:groupmode="layer">
    <path
       style="fill:#ffffff;stroke:#00ff00;stroke-width:1px"
       d="m 266.94252,98.78806 c 6.23472,0 11.10561,0.194831 14.80749,0.194831 3.50703,0 6.6244,0 8.96241,-0.194831 2.33803,0 4.28638,-0.389673 6.0399,-1.169007 1.55868,-0.584515 3.50704,-1.558691 5.84506,-2.92254 2.14318,-1.169007 4.87089,-2.922528 8.18308,-5.260554 3.3122,-2.338014 7.79342,-5.065712 13.63848,-8.767586 l 0,0.194842 c 3.70186,-2.338025 5.65022,-5.455396 5.65022,-9.546931 0,-1.169018 -0.19483,-2.532867 -0.58451,-4.091547 l 0,0.194842 c -0.77933,-2.727698 -2.14318,-4.870892 -4.09153,-6.429572 -1.94836,-1.55868 -4.28639,-2.338025 -7.20891,-2.338025 l -157.62177,0 c -1.55868,0.194841 -3.89671,0.974176 -7.01408,2.532866 -3.11736,1.55868 -6.42956,3.507033 -9.93659,5.650216 -3.50703,2.143194 -6.6244,4.286378 -9.54693,6.23473 -3.11736,1.948353 -5.26056,3.312202 -6.42958,4.091547 l 0,-0.194842 c -1.75351,1.169018 -3.11735,2.338025 -4.09153,3.896716 -1.16902,1.55868 -1.55868,3.507032 -1.55868,5.455385 0,3.701863 0.97418,6.624403 3.11736,8.962428 1.94835,2.338014 4.87089,3.507032 8.76758,3.507032 l 85.53272,-0.389673 -34.29103,19.093863 c -4.09153,2.33803 -6.03988,5.84507 -6.03988,10.32628 l 0,202.23905 c 0,4.67605 1.94835,7.98825 5.84505,10.13143 1.16901,0.77935 3.11737,1.94837 5.84506,3.50705 2.72769,1.55868 5.65023,3.3122 8.96243,5.26055 3.11736,1.94834 6.6244,3.8967 10.32627,5.84506 3.50703,2.14318 7.01407,4.09153 10.32627,5.65022 3.31219,1.75351 6.23473,3.11736 8.76759,4.28638 2.53285,1.16901 4.48121,1.55868 5.84506,1.55868 1.36384,0 3.50704,-0.77934 6.6244,-2.7277 2.92253,-1.94835 5.84506,-4.09154 8.96243,-6.81923 3.11736,-2.53286 5.65022,-5.06572 7.98824,-7.98825 2.33802,-2.72769 3.50704,-4.87088 3.50704,-6.81924 0,-2.14318 -0.58451,-4.09154 -1.75352,-6.0399 -1.16901,-1.94834 -2.53286,-3.50703 -4.28638,-4.67603 l 0,0.19483 -27.86145,-16.36617 c -5.45538,-2.92253 -7.98825,-7.59858 -7.98825,-13.63848 l 0,-176.71562 46.76048,-25.9131"
       id="path3232"
       inkscape:connector-curvature="0" />
  </g>
  
tmp/TMP.master:<g
     zpos="-200"
     style="display:inline"
     inkscape:label="TTTT-008"
     id="g3237"
     inkscape:groupmode="layer">
    <path
       style="fill:#ffffff;stroke:#00ff00;stroke-width:1px"
       d="m 320.324,129.46025 c 0,-20.50779 0.97656,-43.16408 2.92969,-67.96875 -24.21873,0.78125 -65.23444,1.17188 -123.24219,1.17188 -58.39838,0 -99.6094,-0.39063 -123.63281,-1.17188 1.75781,25.3906 2.73437,48.0469 2.73437,67.96875 0,12.89062 -0.39062,23.04689 -1.17187,30.46875 l 9.17968,0 c 4.49219,-22.2656 9.96095,-40.03907 16.40625,-52.92968 6.25,-12.89062 13.8672,-22.26563 22.85157,-27.92969 8.98436,-5.46875 19.92189,-8.39844 32.8125,-8.39844 l 8.78906,0 0,228.32031 c 0,11.32812 -1.17188,19.33595 -3.32031,24.41407 -2.34375,5.07812 -6.25001,8.59375 -12.10938,10.35156 -5.85937,1.95312 -14.84376,2.92969 -27.34375,2.92969 l 0,8.00781 c 21.09373,-0.78125 45.31253,-1.17188 73.04688,-1.17188 28.12497,0 53.51565,0.39063 76.17187,1.17188 l 0,-8.00781 c -12.49999,0 -21.67969,-0.97657 -27.53906,-2.92969 -5.85937,-1.75781 -9.76563,-5.27344 -11.91406,-10.35156 -2.34375,-5.07812 -3.32032,-13.08595 -3.32032,-24.41407 l 0,-228.32031 8.78907,0 c 12.6953,0 23.63282,2.92969 32.61718,8.39844 8.98437,5.66406 16.60157,15.03907 23.04688,27.92969 6.24999,12.89061 11.71875,30.66408 16.21094,52.92968 l 9.17968,0 c -0.78124,-7.42186 -1.17187,-17.57813 -1.17187,-30.46875"
       id="path3248"
       inkscape:connector-curvature="0" />
  </g>
  
tmp/TMP.change:<g
     sodipodi:insensitive="true"
     style="display:inline"
     zpos="-180"
     inkscape:label="UKON-001"
     id="g3155"
     inkscape:groupmode="layer">
    <path
       sodipodi:nodetypes="ccccc"
       inkscape:connector-curvature="0"
       d="m 30.5,383 0,-50 339,0 0,50 z"
       style="fill:#ffffff;stroke:none;display:inline"
       id="path3157" />
    <path
       style="fill:none;stroke:#000000;stroke-width:1px;stroke-linecap:square;display:inline"
       d="m 369.5,333 -10,0 -319,0 -10,0"
       id="path3159"
       inkscape:connector-curvature="0"
       sodipodi:nodetypes="cccc" />
  </g>

</svg>
