<?xml version="1.0" encoding="UTF-8" standalone="no"?>
<!-- Created with Inkscape (http://www.inkscape.org/) -->

<svg
   xmlns:dc="http://purl.org/dc/elements/1.1/"
   xmlns:cc="http://creativecommons.org/ns#"
   xmlns:rdf="http://www.w3.org/1999/02/22-rdf-syntax-ns#"
   xmlns:svg="http://www.w3.org/2000/svg"
   xmlns="http://www.w3.org/2000/svg"
   xmlns:sodipodi="http://sodipodi.sourceforge.net/DTD/sodipodi-0.dtd"
   xmlns:inkscape="http://www.inkscape.org/namespaces/inkscape"
   style="display:inline"
   sodipodi:docname="161212_HHHH_00_UW_00_UW_.svg"
   inkscape:version="0.48.3.1 r9886"
   version="1.1"
   id="svg2902"
   height="400"
   width="400">
  <sodipodi:namedview
     id="base"
     pagecolor="#f0f0f0"
     bordercolor="#666666"
     borderopacity="1.0"
     inkscape:pageopacity="1"
     inkscape:pageshadow="2"
     inkscape:zoom="1.2132189"
     inkscape:cx="210.63764"
     inkscape:cy="204.82705"
     inkscape:document-units="px"
     inkscape:current-layer="svg2902"
     showgrid="false"
     inkscape:window-width="1018"
     inkscape:window-height="709"
     inkscape:window-x="0"
     inkscape:window-y="1"
     inkscape:window-maximized="0"
     showguides="true"
     inkscape:guide-bbox="true"
     inkscape:snap-bbox="true"
     inkscape:snap-global="false" />
  <defs
     id="defs2904">
    <clipPath
       clipPathUnits="userSpaceOnUse"
       id="clipPath5174">
      <path
         id="path5176"
         style="opacity:0.5;fill:#00ff00;stroke:#00ff00;stroke-width:1px;stroke-linecap:square;display:inline"
         d="m 436.26971,600.11436 -232.09481,134 -169.500003,-293.58262 232.094813,-134 z"
         inkscape:connector-curvature="0"
         sodipodi:nodetypes="ccccc" />
    </clipPath>
    <clipPath
       clipPathUnits="userSpaceOnUse"
       id="clipPath5174-5">
      <path
         id="path5176-9"
         style="opacity:0.5;fill:#00ff00;stroke:#00ff00;stroke-width:1px;stroke-linecap:square;display:inline"
         d="m 436.26971,600.11436 -232.09481,134 -169.500003,-293.58262 232.094813,-134 z"
         inkscape:connector-curvature="0"
         sodipodi:nodetypes="ccccc" />
    </clipPath>
    <clipPath
       clipPathUnits="userSpaceOnUse"
       id="clipPath3238">
      <path
         sodipodi:nodetypes="ccccc"
         inkscape:connector-curvature="0"
         d="m 461.26971,643.41563 -232.09481,134 -169.500002,-293.58262 232.094812,-134 z"
         style="opacity:0.5;fill:#00ff00;stroke:#00ff00;stroke-width:1px;stroke-linecap:square;display:inline"
         id="path3240" />
    </clipPath>
  </defs>
  <metadata
     id="metadata2907">
    <rdf:RDF>
      <cc:Work
         rdf:about="">
        <dc:format>image/svg+xml</dc:format>
        <dc:type
           rdf:resource="http://purl.org/dc/dcmitype/StillImage" />
        <dc:title />
      </cc:Work>
    </rdf:RDF>
  </metadata>
  
tmp/TMP.change:<g
     inkscape:groupmode="layer"
     id="bg"
     inkscape:label="XX_BG"
     sodipodi:insensitive="true">
    <path
       style="fill:#f6ffd5"
       d="M 400,0 400,400 0,400 0,0 z"
       id="bgrect"
       inkscape:connector-curvature="0" />
  </g>
  
tmp/TMP.change:<g
     inkscape:label="XX_Referenz"
     inkscape:groupmode="layer"
     id="XX_referenz"
     style="display:inline"
     sodipodi:insensitive="true">
    <path
       id="innerframe"
       style="fill:none;stroke:#ff0000;stroke-width:1"
       d="m 40.5,40.5 319,0 0,319 -319,0 0,-319 z"
       inkscape:label="#innerframe"
       sodipodi:insensitive="true"
       inkscape:connector-curvature="0" />
    <path
       id="outerframe"
       style="fill:none;stroke:#ff0000;stroke-width:1"
       d="m 30.5,30.5 339,0 0,339 -339,0 0,-339 z"
       inkscape:label="#outerframe"
       sodipodi:nodetypes="ccccc"
       sodipodi:insensitive="true"
       inkscape:connector-curvature="0" />
    <path
       style="opacity:0.5;fill:none;stroke:#ffc200;stroke-width:1px;stroke-linecap:square"
       d="m 189,30.5 0,10"
       id="ref-S-top-1"
       sodipodi:insensitive="true"
       inkscape:connector-curvature="0" />
    <path
       style="opacity:0.5;fill:none;stroke:#ffc200;stroke-width:1px;stroke-linecap:square"
       d="m 191,30.5 0,10"
       id="ref-S-top-2"
       sodipodi:insensitive="true"
       inkscape:connector-curvature="0" />
    <path
       style="opacity:0.5;fill:none;stroke:#ffc200;stroke-width:1px;stroke-linecap:square"
       d="m 209,30.5 0,10"
       id="ref-S-top-3"
       sodipodi:insensitive="true"
       inkscape:connector-curvature="0" />
    <path
       style="opacity:0.5;fill:none;stroke:#ffc200;stroke-width:1px;stroke-linecap:square"
       d="m 211,30.5 0,10"
       id="ref-S-top-4"
       sodipodi:insensitive="true"
       inkscape:connector-curvature="0" />
    <path
       style="opacity:0.5;fill:none;stroke:#00ff00;stroke-width:1px;stroke-linecap:square"
       d="m 199,30.5 0,10"
       id="ref-I-top-1"
       sodipodi:insensitive="true"
       inkscape:connector-curvature="0" />
    <path
       style="opacity:0.5;fill:none;stroke:#00ff00;stroke-width:1px;stroke-linecap:square"
       d="m 201,30.5 0,10"
       id="ref-I-top-2"
       sodipodi:insensitive="true"
       inkscape:connector-curvature="0" />
    <path
       style="opacity:0.5;fill:none;stroke:#00ffcc;stroke-width:1px;stroke-linecap:square"
       d="m 66,30.5 0,10"
       id="ref-C-top-1"
       sodipodi:insensitive="true"
       inkscape:connector-curvature="0" />
    <path
       style="opacity:0.5;fill:none;stroke:#00ffcc;stroke-width:1px;stroke-linecap:square"
       d="m 68,30.5 0,10"
       id="ref-C-top-2"
       sodipodi:insensitive="true"
       inkscape:connector-curvature="0" />
    <path
       style="opacity:0.5;fill:none;stroke:#00ffcc;stroke-width:1px;stroke-linecap:square"
       d="m 92,30.5 0,10"
       id="ref-C-top-3"
       sodipodi:insensitive="true"
       inkscape:connector-curvature="0" />
    <path
       style="opacity:0.5;fill:none;stroke:#00ffcc;stroke-width:1px;stroke-linecap:square"
       d="m 94,30.5 0,10"
       id="ref-C-top-4"
       sodipodi:insensitive="true"
       inkscape:connector-curvature="0" />
    <path
       style="opacity:0.5;fill:none;stroke:#00ffcc;stroke-width:1px;stroke-linecap:square"
       d="m 306,30.5 0,10"
       id="ref-C-top-5"
       sodipodi:insensitive="true"
       inkscape:connector-curvature="0" />
    <path
       style="opacity:0.5;fill:none;stroke:#00ffcc;stroke-width:1px;stroke-linecap:square"
       d="m 308,30.5 0,10"
       id="ref-C-top-6"
       sodipodi:insensitive="true"
       inkscape:connector-curvature="0" />
    <path
       style="opacity:0.5;fill:none;stroke:#00ffcc;stroke-width:1px;stroke-linecap:square"
       d="m 332,30.5 0,10"
       id="ref-C-top-7"
       sodipodi:insensitive="true"
       inkscape:connector-curvature="0" />
    <path
       style="opacity:0.5;fill:none;stroke:#00ffcc;stroke-width:1px;stroke-linecap:square"
       d="m 334,30.5 0,10"
       id="ref-C-top-8"
       sodipodi:insensitive="true"
       inkscape:connector-curvature="0" />
    <path
       style="opacity:0.5;fill:none;stroke:#ffc200;stroke-width:1px;stroke-linecap:square"
       d="m 369.5,189 -10,0"
       id="ref-S-right-1"
       sodipodi:insensitive="true"
       inkscape:connector-curvature="0" />
    <path
       style="opacity:0.5;fill:none;stroke:#ffc200;stroke-width:1px;stroke-linecap:square"
       d="m 369.5,191 -10,0"
       id="ref-S-right-2"
       sodipodi:insensitive="true"
       inkscape:connector-curvature="0" />
    <path
       style="opacity:0.5;fill:none;stroke:#ffc200;stroke-width:1px;stroke-linecap:square"
       d="m 369.5,209 -10,0"
       id="ref-S-right-3"
       sodipodi:insensitive="true"
       inkscape:connector-curvature="0" />
    <path
       style="opacity:0.5;fill:none;stroke:#ffc200;stroke-width:1px;stroke-linecap:square"
       d="m 369.5,211 -10,0"
       id="ref-S-right-4"
       sodipodi:insensitive="true"
       inkscape:connector-curvature="0" />
    <path
       style="opacity:0.5;fill:none;stroke:#00ff00;stroke-width:1px;stroke-linecap:square"
       d="m 369.5,199 -10,0"
       id="ref-I-right-1"
       sodipodi:insensitive="true"
       inkscape:connector-curvature="0" />
    <path
       style="opacity:0.5;fill:none;stroke:#00ff00;stroke-width:1px;stroke-linecap:square"
       d="m 369.5,201 -10,0"
       id="ref-I-right-2"
       sodipodi:insensitive="true"
       inkscape:connector-curvature="0" />
    <path
       style="opacity:0.5;fill:none;stroke:#00ffcc;stroke-width:1px;stroke-linecap:square"
       d="m 369.5,66 -10,0"
       id="ref-C-right-1"
       sodipodi:insensitive="true"
       inkscape:connector-curvature="0" />
    <path
       style="opacity:0.5;fill:none;stroke:#00ffcc;stroke-width:1px;stroke-linecap:square"
       d="m 369.5,68 -10,0"
       id="ref-C-right-2"
       sodipodi:insensitive="true"
       inkscape:connector-curvature="0" />
    <path
       style="opacity:0.5;fill:none;stroke:#00ffcc;stroke-width:1px;stroke-linecap:square"
       d="m 369.5,92 -10,0"
       id="ref-C-right-3"
       sodipodi:insensitive="true"
       inkscape:connector-curvature="0" />
    <path
       style="opacity:0.5;fill:none;stroke:#00ffcc;stroke-width:1px;stroke-linecap:square"
       d="m 369.5,94 -10,0"
       id="ref-C-right-4"
       sodipodi:insensitive="true"
       inkscape:connector-curvature="0" />
    <path
       style="opacity:0.5;fill:none;stroke:#00ffcc;stroke-width:1px;stroke-linecap:square"
       d="m 369.5,306 -10,0"
       id="ref-C-right-5"
       sodipodi:insensitive="true"
       inkscape:connector-curvature="0" />
    <path
       style="opacity:0.5;fill:none;stroke:#00ffcc;stroke-width:1px;stroke-linecap:square"
       d="m 369.5,308 -10,0"
       id="ref-C-right-6"
       sodipodi:insensitive="true"
       inkscape:connector-curvature="0" />
    <path
       style="opacity:0.5;fill:none;stroke:#00ffcc;stroke-width:1px;stroke-linecap:square"
       d="m 369.5,332 -10,0"
       id="ref-C-right-7"
       sodipodi:insensitive="true"
       inkscape:connector-curvature="0" />
    <path
       style="opacity:0.5;fill:none;stroke:#00ffcc;stroke-width:1px;stroke-linecap:square"
       d="m 369.5,334 -10,0"
       id="ref-C-right-8"
       sodipodi:insensitive="true"
       inkscape:connector-curvature="0" />
    <path
       style="opacity:0.5;fill:none;stroke:#ffc200;stroke-width:1px;stroke-linecap:square"
       d="m 189,369.5 0,-10"
       id="ref-S-bottom-1"
       sodipodi:insensitive="true"
       inkscape:connector-curvature="0" />
    <path
       style="opacity:0.5;fill:none;stroke:#ffc200;stroke-width:1px;stroke-linecap:square"
       d="m 191,369.5 0,-10"
       id="ref-S-bottom-2"
       sodipodi:insensitive="true"
       inkscape:connector-curvature="0" />
    <path
       style="opacity:0.5;fill:none;stroke:#ffc200;stroke-width:1px;stroke-linecap:square"
       d="m 209,369.5 0,-10"
       id="ref-S-bottom-3"
       sodipodi:insensitive="true"
       inkscape:connector-curvature="0" />
    <path
       style="opacity:0.5;fill:none;stroke:#ffc200;stroke-width:1px;stroke-linecap:square"
       d="m 211,369.5 0,-10"
       id="ref-S-bottom-4"
       sodipodi:insensitive="true"
       inkscape:connector-curvature="0" />
    <path
       style="opacity:0.5;fill:none;stroke:#00ff00;stroke-width:1px;stroke-linecap:square"
       d="m 199,369.5 0,-10"
       id="ref-I-bottom-1"
       sodipodi:insensitive="true"
       inkscape:connector-curvature="0" />
    <path
       style="opacity:0.5;fill:none;stroke:#00ff00;stroke-width:1px;stroke-linecap:square"
       d="m 201,369.5 0,-10"
       id="ref-I-bottom-2"
       sodipodi:insensitive="true"
       inkscape:connector-curvature="0" />
    <path
       style="opacity:0.5;fill:none;stroke:#00ffcc;stroke-width:1px;stroke-linecap:square"
       d="m 66,369.5 0,-10"
       id="ref-C-bottom-1"
       sodipodi:insensitive="true"
       inkscape:connector-curvature="0" />
    <path
       style="opacity:0.5;fill:none;stroke:#00ffcc;stroke-width:1px;stroke-linecap:square"
       d="m 68,369.5 0,-10"
       id="ref-C-bottom-2"
       sodipodi:insensitive="true"
       inkscape:connector-curvature="0" />
    <path
       style="opacity:0.5;fill:none;stroke:#00ffcc;stroke-width:1px;stroke-linecap:square"
       d="m 92,369.5 0,-10"
       id="ref-C-bottom-3"
       sodipodi:insensitive="true"
       inkscape:connector-curvature="0" />
    <path
       style="opacity:0.5;fill:none;stroke:#00ffcc;stroke-width:1px;stroke-linecap:square"
       d="m 94,369.5 0,-10"
       id="ref-C-bottom-4"
       sodipodi:insensitive="true"
       inkscape:connector-curvature="0" />
    <path
       style="opacity:0.5;fill:none;stroke:#00ffcc;stroke-width:1px;stroke-linecap:square"
       d="m 306,369.5 0,-10"
       id="ref-C-bottom-5"
       sodipodi:insensitive="true"
       inkscape:connector-curvature="0" />
    <path
       style="opacity:0.5;fill:none;stroke:#00ffcc;stroke-width:1px;stroke-linecap:square"
       d="m 308,369.5 0,-10"
       id="ref-C-bottom-6"
       sodipodi:insensitive="true"
       inkscape:connector-curvature="0" />
    <path
       style="opacity:0.5;fill:none;stroke:#00ffcc;stroke-width:1px;stroke-linecap:square"
       d="m 332,369.5 0,-10"
       id="ref-C-bottom-7"
       sodipodi:insensitive="true"
       inkscape:connector-curvature="0" />
    <path
       style="opacity:0.5;fill:none;stroke:#00ffcc;stroke-width:1px;stroke-linecap:square"
       d="m 334,369.5 0,-10"
       id="ref-C-bottom-8"
       sodipodi:insensitive="true"
       inkscape:connector-curvature="0" />
    <path
       style="opacity:0.5;fill:none;stroke:#ffc200;stroke-width:1px;stroke-linecap:square"
       d="m 30.5,189 10,0"
       id="ref-S-left-1"
       sodipodi:insensitive="true"
       inkscape:connector-curvature="0" />
    <path
       style="opacity:0.5;fill:none;stroke:#ffc200;stroke-width:1px;stroke-linecap:square"
       d="m 30.5,191 10,0"
       id="ref-S-left-2"
       sodipodi:insensitive="true"
       inkscape:connector-curvature="0" />
    <path
       style="opacity:0.5;fill:none;stroke:#ffc200;stroke-width:1px;stroke-linecap:square"
       d="m 30.5,209 10,0"
       id="ref-S-left-3"
       sodipodi:insensitive="true"
       inkscape:connector-curvature="0" />
    <path
       style="opacity:0.5;fill:none;stroke:#ffc200;stroke-width:1px;stroke-linecap:square"
       d="m 30.5,211 10,0"
       id="ref-S-left-4"
       sodipodi:insensitive="true"
       inkscape:connector-curvature="0" />
    <path
       style="opacity:0.5;fill:none;stroke:#00ff00;stroke-width:1px;stroke-linecap:square"
       d="m 40.5,199 -10,0"
       id="ref-I-left-1"
       sodipodi:insensitive="true"
       inkscape:connector-curvature="0" />
    <path
       style="opacity:0.5;fill:none;stroke:#00ff00;stroke-width:1px;stroke-linecap:square"
       d="m 40.5,201 -10,0"
       id="ref-I-left-2"
       sodipodi:insensitive="true"
       inkscape:connector-curvature="0" />
    <path
       style="opacity:0.5;fill:none;stroke:#00ffcc;stroke-width:1px;stroke-linecap:square"
       d="m 30.5,66 10,0"
       id="ref-C-left-1"
       sodipodi:insensitive="true"
       inkscape:connector-curvature="0" />
    <path
       style="opacity:0.5;fill:none;stroke:#00ffcc;stroke-width:1px;stroke-linecap:square"
       d="m 30.5,68 10,0"
       id="ref-C-left-2"
       sodipodi:insensitive="true"
       inkscape:connector-curvature="0" />
    <path
       style="opacity:0.5;fill:none;stroke:#00ffcc;stroke-width:1px;stroke-linecap:square"
       d="m 30.5,92 10,0"
       id="ref-C-left-3"
       sodipodi:insensitive="true"
       inkscape:connector-curvature="0" />
    <path
       style="opacity:0.5;fill:none;stroke:#00ffcc;stroke-width:1px;stroke-linecap:square"
       d="m 30.5,94 10,0"
       id="ref-C-left-4"
       sodipodi:insensitive="true"
       inkscape:connector-curvature="0" />
    <path
       style="opacity:0.5;fill:none;stroke:#00ffcc;stroke-width:1px;stroke-linecap:square"
       d="m 30.5,306 10,0"
       id="ref-C-left-5"
       sodipodi:insensitive="true"
       inkscape:connector-curvature="0" />
    <path
       style="opacity:0.5;fill:none;stroke:#00ffcc;stroke-width:1px;stroke-linecap:square"
       d="m 30.5,308 10,0"
       id="ref-C-left-6"
       sodipodi:insensitive="true"
       inkscape:connector-curvature="0" />
    <path
       style="opacity:0.5;fill:none;stroke:#00ffcc;stroke-width:1px;stroke-linecap:square"
       d="m 30.5,332 10,0"
       id="ref-C-left-7"
       sodipodi:insensitive="true"
       inkscape:connector-curvature="0" />
    <path
       style="opacity:0.5;fill:none;stroke:#00ffcc;stroke-width:1px;stroke-linecap:square"
       d="m 30.5,334 10,0"
       id="ref-C-left-8"
       sodipodi:insensitive="true"
       inkscape:connector-curvature="0" />
    <path
       style="fill:none;stroke:#000000;stroke-width:1px;stroke-linecap:square"
       d="m 190,30.5 0,10"
       id="S-top-1"
       inkscape:connector-curvature="0" />
    <path
       style="fill:none;stroke:#000000;stroke-width:1px;stroke-linecap:square"
       d="m 210,30.5 0,10"
       id="S-top-2"
       inkscape:connector-curvature="0" />
    <path
       style="fill:none;stroke:#000000;stroke-width:1px;stroke-linecap:square"
       d="m 369.5,190 -10,0"
       id="S-right-1"
       inkscape:connector-curvature="0" />
    <path
       style="fill:none;stroke:#000000;stroke-width:1px;stroke-linecap:square"
       d="m 369.5,210 -10,0"
       id="S-right-2"
       inkscape:connector-curvature="0" />
    <path
       style="fill:none;stroke:#000000;stroke-width:1px;stroke-linecap:square"
       d="m 190,369.5 0,-10"
       id="S-bottom-1"
       inkscape:connector-curvature="0" />
    <path
       style="fill:none;stroke:#000000;stroke-width:1px;stroke-linecap:square"
       d="m 210,369.5 0,-10"
       id="S-bottom-2"
       inkscape:connector-curvature="0" />
    <path
       style="fill:none;stroke:#000000;stroke-width:1px;stroke-linecap:square"
       d="m 30.5,190 10,0"
       id="S-left-1"
       inkscape:connector-curvature="0" />
    <path
       style="fill:none;stroke:#000000;stroke-width:1px;stroke-linecap:square"
       d="m 30.5,210 10,0"
       id="S-left-2"
       inkscape:connector-curvature="0" />
    <path
       style="fill:none;stroke:#000000;stroke-width:1px;stroke-linecap:square"
       d="m 200,30.5 0,10"
       id="I-top-1"
       inkscape:connector-curvature="0" />
    <path
       style="fill:none;stroke:#000000;stroke-width:1px;stroke-linecap:square"
       d="m 369.5,200 -10,0"
       id="I-right-1"
       inkscape:connector-curvature="0" />
    <path
       style="fill:none;stroke:#000000;stroke-width:1px;stroke-linecap:square"
       d="m 200,369.5 0,-10"
       id="I-bottom-1"
       inkscape:connector-curvature="0" />
    <path
       style="fill:none;stroke:#000000;stroke-width:1px;stroke-linecap:square"
       d="m 40.5,200 -10,0"
       id="I-left-1"
       inkscape:connector-curvature="0" />
    <path
       style="fill:none;stroke:#000000;stroke-width:1px;stroke-linecap:square"
       d="m 67,30.5 0,10"
       id="C-top-1"
       inkscape:connector-curvature="0" />
    <path
       style="fill:none;stroke:#000000;stroke-width:1px;stroke-linecap:square"
       d="m 93,30.5 0,10"
       id="C-top-2"
       inkscape:connector-curvature="0" />
    <path
       style="fill:none;stroke:#000000;stroke-width:1px;stroke-linecap:square"
       d="m 307,30.5 0,10"
       id="C-top-3"
       inkscape:connector-curvature="0" />
    <path
       style="fill:none;stroke:#000000;stroke-width:1px;stroke-linecap:square"
       d="m 333,30.5 0,10"
       id="C-top-4"
       inkscape:connector-curvature="0" />
    <path
       style="fill:none;stroke:#000000;stroke-width:1px;stroke-linecap:square"
       d="m 369.5,67 -10,0"
       id="C-right-1"
       inkscape:connector-curvature="0" />
    <path
       style="fill:none;stroke:#000000;stroke-width:1px;stroke-linecap:square"
       d="m 369.5,93 -10,0"
       id="C-right-2"
       inkscape:connector-curvature="0" />
    <path
       style="fill:none;stroke:#000000;stroke-width:1px;stroke-linecap:square"
       d="m 369.5,307 -10,0"
       id="C-right-3"
       inkscape:connector-curvature="0" />
    <path
       style="fill:none;stroke:#000000;stroke-width:1px;stroke-linecap:square"
       d="m 369.5,333 -10,0"
       id="C-right-4"
       inkscape:connector-curvature="0" />
    <path
       style="fill:none;stroke:#000000;stroke-width:1px;stroke-linecap:square"
       d="m 67,369.5 0,-10"
       id="C-bottom-1"
       inkscape:connector-curvature="0" />
    <path
       style="fill:none;stroke:#000000;stroke-width:1px;stroke-linecap:square"
       d="m 93,369.5 0,-10"
       id="C-bottom-2"
       inkscape:connector-curvature="0" />
    <path
       style="fill:none;stroke:#000000;stroke-width:1px;stroke-linecap:square"
       d="m 307,369.5 0,-10"
       id="C-bottom-3"
       inkscape:connector-curvature="0" />
    <path
       style="fill:none;stroke:#000000;stroke-width:1px;stroke-linecap:square"
       d="m 333,369.5 0,-10"
       id="C-bottom-4"
       inkscape:connector-curvature="0" />
    <path
       style="fill:none;stroke:#000000;stroke-width:1px;stroke-linecap:square"
       d="m 30.5,67 10,0"
       id="C-left-1"
       inkscape:connector-curvature="0" />
    <path
       style="fill:none;stroke:#000000;stroke-width:1px;stroke-linecap:square"
       d="m 30.5,93 10,0"
       id="C-left-2"
       inkscape:connector-curvature="0" />
    <path
       style="fill:none;stroke:#000000;stroke-width:1px;stroke-linecap:square"
       d="m 30.5,307 10,0"
       id="C-left-3"
       inkscape:connector-curvature="0" />
    <path
       style="fill:none;stroke:#000000;stroke-width:1px;stroke-linecap:square"
       d="m 30.5,333 10,0"
       id="C-left-4"
       inkscape:connector-curvature="0" />
  </g>
  
tmp/TMP.change:<g
     inkscape:groupmode="layer"
     id="g3149"
     inkscape:label="OKON-001"
     zpos="-300"
     style="display:inline"
     sodipodi:insensitive="true">
    <path
       sodipodi:nodetypes="ccccc"
       inkscape:connector-curvature="0"
       id="path3147"
       d="m 30.5,307 0,25 339,0 0,-25 z"
       style="fill:#000000;stroke:none;display:inline" />
    <path
       style="fill:#000000;stroke:none;display:inline"
       d="m 30.5,67 0,26 339,0 0,-26 z"
       id="path3118"
       inkscape:connector-curvature="0"
       sodipodi:nodetypes="ccccc" />
    <path
       style="fill:none;stroke:#000000;stroke-width:1px;stroke-linecap:square;display:inline"
       d="m 30.5,93 10,0 319,0 10,0"
       id="C-left-2-6"
       inkscape:connector-curvature="0"
       sodipodi:nodetypes="cccc" />
    <path
       style="fill:none;stroke:#000000;stroke-width:1px;stroke-linecap:square;display:inline"
       d="m 369.5,307 -10,0 -319,0 -10,0"
       id="C-right-3-7"
       inkscape:connector-curvature="0"
       sodipodi:nodetypes="cccc" />
  </g>
  
tmp/TMP.master:<g
     zpos="-200"
     style="display:none"
     inkscape:label="HHHH-001"
     id="g3125"
     inkscape:groupmode="layer">
    <path
       style="fill:#ffffff;stroke:#00ff00;stroke-width:1px"
       d="m 259.72172,199.01121 0,134.86816 c 0,10.28319 4.54835,15.4248 14.04053,15.4248 9.29442,0 14.04052,-5.14161 14.04052,-15.82031 l 0,-267.36328 c 0,-9.68993 -4.7461,-14.63379 -14.04052,-14.63379 -9.49218,0 -14.04053,4.94386 -14.04053,14.83155 l 0,104.2163 -122.80518,0 0,-103.02978 c 0,-11.07421 -4.94385,-16.80908 -14.63379,-16.80908 -9.68993,0 -14.43603,5.73487 -14.43603,16.80908 l 0,266.77002 c 0,10.08544 4.7461,15.02929 14.43603,15.02929 9.68994,0 14.63379,-4.94385 14.63379,-15.22705 l 0,-135.06591 122.80518,0"
       id="path3136"
       inkscape:connector-curvature="0" />
  </g>
  
tmp/TMP.master:<g
     zpos="-200"
     style="display:none"
     inkscape:label="HHHH-002"
     id="g3141"
     inkscape:groupmode="layer">
    <path
       style="fill:#ffffff;stroke:#00ff00;stroke-width:1px"
       d="m 120.21504,50.55497 c -4.05,0.81 -6.885,2.025 -9.72,5.265 -3.24,3.23999 -4.86,6.075 -5.67,10.125 -0.405,2.83499 -0.405,264.87 0,267.705 0.81,4.04999 2.43,6.885 5.67,10.125 2.43,2.42999 4.05,3.645 6.885,4.86 5.265,1.61999 10.12501,1.21499 14.985,-1.215 4.05,-1.62 6.885,-4.45501 8.91,-8.505 2.025,-4.455 2.025,2.02493 2.025,-62.37 l 0,-57.51 56.7,0 57.105,0 0,56.295 c 0,61.15494 -0.405,57.915 1.215,61.56 0.81,2.83499 2.025,4.455 4.455,6.885 2.43,2.42999 4.455,3.645 6.885,4.86 5.265,1.61999 10.12501,1.21499 15.39,-1.215 3.645,-1.62 6.885,-4.45501 8.505,-8.505 0.81,-1.215 1.215,-2.835 1.62,-4.05 0.405,-1.215 0.405,-6.88513 0.405,-134.865 0,-128.38488 0,-133.65001 -0.405,-135.27 -0.405,-0.81 -0.81,-2.43 -1.62,-3.645 -1.62,-4.05 -4.86,-6.88501 -8.505,-8.91 -5.26499,-2.43 -10.125,-2.835 -15.39,-0.81 -2.43,0.81 -4.455,2.025 -6.885,4.455 -2.43,2.42999 -3.645,4.05 -4.455,6.885 -1.62,3.64499 -1.215,0.81006 -1.215,61.56 l 0,55.89 -57.105,0 -56.7,0 0,-57.105 c 0,-64.39494 0,-57.91501 -2.025,-61.965 -2.025,-4.05 -4.86,-6.88501 -8.91,-8.91 -1.215,-0.81 -2.835,-1.215 -3.645,-1.62 -2.025,-0.405 -6.48,-0.405 -8.505,0"
       id="path3152"
       inkscape:connector-curvature="0" />
  </g>
  
tmp/TMP.master:<g
     zpos="-200"
     style="display:inline"
     inkscape:label="HHHH-003"
     id="g3157"
     inkscape:groupmode="layer">
    <path
       style="fill:#ffffff;stroke:#00ff00;stroke-width:1px"
       d="m 69.84311,90.14495 c 0,-10.25972 3.51,-18.49471 10.53,-24.705 6.20998,-5.1297 13.90497,-7.6947 23.085,-7.695 8.63996,3e-4 15.92995,2.4303 21.87,7.29 6.74994,5.67029 10.12493,13.09528 10.125,22.275 l 0,85.86 129.195,0 0,-83.025 c -2e-4,-9.98972 3.1048,-17.81971 9.315,-23.49 6.20979,-5.6697 13.49978,-8.5047 21.87,-8.505 9.17976,3e-4 17.00976,3.1053 23.49,9.315 7.01974,7.29029 10.52974,17.01028 10.53,29.16 l 0,226.8 c -2.6e-4,11.07003 -3.24026,19.71002 -9.72,25.92 -6.21024,5.94001 -13.90524,8.91 -23.085,8.91 -8.64022,0 -16.20021,-2.83499 -22.68,-8.505 -6.4802,-5.66998 -9.7202,-13.36498 -9.72,-23.085 l 0,-91.53 -129.195,0 0,91.53 c -7e-5,9.99002 -3.24006,17.82002 -9.72,23.49 -6.48005,5.67001 -14.31004,8.505 -23.49,8.505 -8.64002,0 -16.20002,-2.83499 -22.68,-8.505 -6.48,-5.66998 -9.72,-13.49998 -9.72,-23.49 l 0,-236.52"
       id="path3168"
       inkscape:connector-curvature="0" />
  </g>
  
tmp/TMP.master:<g
     zpos="-200"
     style="display:none"
     inkscape:label="HHHH-004"
     id="g3173"
     inkscape:groupmode="layer">
    <path
       style="fill:#ffffff;stroke:#00ff00;stroke-width:1px"
       d="m 304.71072,343.96489 -48.0542,0 0,-122.80518 -128.73779,0 0,122.80518 -48.0542,0 0,-287.92969 48.0542,0 0,126.5625 128.73779,0 0,-126.5625 48.0542,0 0,287.92969"
       id="path3184"
       inkscape:connector-curvature="0" />
  </g>
  
tmp/TMP.master:<g
     zpos="-200"
     style="display:none"
     inkscape:label="HHHH-005"
     id="g3189"
     inkscape:groupmode="layer">
    <path
       style="fill:#ffffff;stroke:#00ff00;stroke-width:1px"
       d="m 226.06246,119.03004 0,0 -44.52,28.14 0,-41.58 73.08,0 20.58,-58.8 -102.9,0 -55.44,61.74 0,232.26 64.68,0 0,-174.3 36.54,17.64 0,191.36 64.68,-42 0,-182.54 0.42,-0.42 -57.12,-31.5"
       id="path3200"
       inkscape:connector-curvature="0"
       sodipodi:nodetypes="ccccccccccccccccc" />
  </g>
  
tmp/TMP.master:<g
     zpos="-200"
     style="display:none"
     inkscape:label="HHHH-006"
     id="g3205"
     inkscape:groupmode="layer">
    <path
       style="fill:#ffffff;stroke:#00ff00;stroke-width:1px"
       d="m 105.40871,345.90504 c 5.4,0.36 11.16001,-1.8 17.28,-6.12 6.12,-4.31999 10.44001,-10.44001 12.96,-18.36 l 23.04,-74.52 c 6.12,-19.07998 9.72,-31.32 11.52,-36.36 1.08,-5.03999 2.16,-7.56 2.52,-8.64 16.19999,-1.08 43.92004,-2.16 83.16,-2.52 -17.27998,54.71995 -25.92,92.52002 -25.92,113.04 0,11.87999 2.16001,20.16001 6.48,24.84 4.32,4.68 12.96001,7.56 25.2,8.64 -1.44,-6.47999 -1.8,-12.60001 -1.8,-19.08 0,-26.63997 6.84002,-69.48006 20.88,-127.8 12.59999,0 24.48001,-5.40001 35.64,-16.56 -3.95999,0 -9.72001,0 -17.28,-0.36 -7.55999,-0.36 -12.24,-0.72 -14.04,-0.72 12.23999,-49.31995 24.84002,-91.44003 37.8,-126.36 -11.51999,0 -20.16,6.84001 -25.92,20.16 -9.35999,21.23998 -20.88001,56.16005 -35.28,104.4 -20.51998,-1.8 -41.40002,-2.88 -63,-2.88 -8.27999,0 -14.4,0.36 -18,0.36 l 26.28,-86.4 c 1.8,-6.11999 2.88,-11.16 2.88,-15.84 0,-12.95999 -6.84001,-19.44 -20.16,-19.44 -15.83998,0 -32.40001,7.92002 -49.68,23.4 -17.27998,15.47999 -25.92,30.96002 -25.92,46.8 0,15.83998 9.36002,23.4 28.44,23.4 -2.51999,-6.83999 -3.6,-12.24 -3.6,-16.2 0,-11.51999 4.32001,-24.84001 13.68,-39.96 9.35999,-14.75998 18.36001,-21.96 27.72,-22.32 2.88,0 4.68,1.8 4.68,5.04 0,2.88 -1.44,8.64001 -4.32,17.28 l -29.88,87.12 c -20.87998,4.32 -31.32,13.32001 -31.32,26.64 2.16,0 10.08002,-0.72 23.4,-2.16 -19.79998,60.47994 -32.4,107.64003 -37.44,141.48"
       id="path3216"
       inkscape:connector-curvature="0" />
  </g>
  
tmp/TMP.master:<g
     zpos="-200"
     style="display:none"
     inkscape:label="HHHH-008"
     id="g3237"
     inkscape:groupmode="layer">
    <path
       style="fill:#ffffff;stroke:#00ff00;stroke-width:1px"
       d="m 326.76931,72.62432 c 3.90625,-1.5625 10.54689,-2.73438 19.53125,-3.125 l 0,-8.00782 c -13.08592,0.78125 -33.39846,1.17188 -60.74219,1.17188 -27.14841,0 -48.04688,-0.39063 -62.89062,-1.17188 l 0,8.00782 c 8.98437,0.39062 15.42969,1.5625 19.53125,3.125 3.90625,1.75781 6.64063,4.88281 8.20312,9.375 1.5625,4.68749 2.34375,11.91407 2.34375,21.875 l 0,94.33593 -106.05468,0 0,-94.33593 c 0,-9.96093 0.58594,-17.18751 2.14843,-21.875 1.5625,-4.49219 4.29688,-7.61719 8.39844,-9.375 3.90625,-1.5625 10.54689,-2.73438 19.53125,-3.125 l 0,-8.00782 c -14.45311,0.78125 -34.76565,1.17188 -60.54687,1.17188 -28.5156,0 -49.60939,-0.39063 -63.08594,-1.17188 l 0,8.00782 c 8.78905,0.39062 15.23438,1.5625 19.33594,3.125 3.90624,1.75781 6.64062,4.88281 8.20312,9.375 1.5625,4.68749 2.34375,11.91407 2.34375,21.875 l 0,198.4375 c 0,10.15624 -0.78125,17.38281 -2.34375,21.875 -1.5625,4.68749 -4.29688,7.8125 -8.20312,9.375 -3.90625,1.75781 -10.35157,2.73437 -19.33594,3.125 l 0,8.00781 c 13.47655,-0.78125 34.57034,-1.17188 63.08594,-1.17188 25.78122,0 46.09376,0.39063 60.54687,1.17188 l 0,-8.00781 c -8.98436,-0.39063 -15.625,-1.36719 -19.53125,-3.125 -4.10156,-1.5625 -6.83594,-4.68751 -8.39844,-9.375 -1.56249,-4.49219 -2.14843,-11.71876 -2.14843,-21.875 l 0,-96.09375 106.05468,0 0,96.09375 c 0,10.15624 -0.78125,17.38281 -2.34375,21.875 -1.56249,4.68749 -4.29687,7.8125 -8.20312,9.375 -4.10156,1.75781 -10.54688,2.73437 -19.53125,3.125 l 0,8.00781 c 14.84374,-0.78125 35.74221,-1.17188 62.89062,-1.17188 27.34373,0 47.65627,0.39063 60.74219,1.17188 l 0,-8.00781 c -8.98436,-0.39063 -15.42969,-1.36719 -19.53125,-3.125 -4.10156,-1.5625 -6.83594,-4.68751 -8.39844,-9.375 -1.56249,-4.49219 -2.14843,-11.71876 -2.14843,-21.875 l 0,-198.4375 c 0,-9.96093 0.58594,-17.18751 2.14843,-21.875 1.5625,-4.49219 4.29688,-7.61719 8.39844,-9.375"
       id="path3248"
       inkscape:connector-curvature="0" />
  </g>
  
tmp/TMP.change:<g
     style="display:inline"
     zpos="-180"
     inkscape:label="UKON-001"
     id="g3155"
     inkscape:groupmode="layer"
     sodipodi:insensitive="true">
    <path
       sodipodi:nodetypes="ccccc"
       inkscape:connector-curvature="0"
       d="m 30.5,369 0,-36 339,0 0,36 z"
       style="fill:#ffffff;stroke:none;display:inline"
       id="path3157" />
    <path
       style="fill:none;stroke:#000000;stroke-width:1px;stroke-linecap:square;display:inline"
       d="m 369.5,333 -10,0 -319,0 -10,0"
       id="path3159"
       inkscape:connector-curvature="0"
       sodipodi:nodetypes="cccc" />
    <path
       id="path3151"
       style="fill:#ffffff;stroke:none;display:inline"
       d="m 369.5,26 0,41 -339,0 0,-41 z"
       inkscape:connector-curvature="0"
       sodipodi:nodetypes="ccccc" />
    <path
       sodipodi:nodetypes="cccc"
       inkscape:connector-curvature="0"
       id="path3153"
       d="m 30.5,67 10,0 319,0 10,0"
       style="fill:none;stroke:#000000;stroke-width:1px;stroke-linecap:square;display:inline" />
  </g>

tmp/TMP.master:<g
     zpos="-80"
     style="display:none"
     inkscape:label="HHHH-007"
     id="g3221"
     inkscape:groupmode="layer">
    <path
       style="fill:#ffffff;stroke:#00ff00;stroke-width:1px"
       d="m 271.03477,395.80033 c 0.97273,-0.38909 1.75092,-0.97273 2.5291,-1.75092 0.77818,-0.77818 1.36182,-1.55636 2.14001,-2.33455 0.77819,-1.16727 2.14001,-2.91819 4.28002,-5.64184 1.94546,-2.72364 4.08547,-5.64185 6.42002,-9.14368 2.33455,-3.30727 4.86366,-6.80911 7.5873,-10.50549 2.5291,-3.69637 4.86367,-7.19821 7.00367,-10.5055 2.14,-3.11274 3.89092,-6.03093 5.25275,-8.56004 1.36182,-2.5291 2.14,-4.28001 2.14,-5.44729 l 0.19456,-125.28778 c 0,-4.28 -1.94548,-7.5873 -5.8364,-9.92185 -2.14,-1.16728 -6.03094,-3.50184 -11.67277,-7.00367 -5.64183,-3.50182 -12.06188,-7.39276 -19.45463,-11.86732 -7.39274,-4.47456 -15.17461,-9.14367 -23.34554,-14.20187 -8.17094,-4.86365 -15.9528,-9.33822 -22.95645,-13.42369 -7.19822,-4.08546 -13.42371,-7.39276 -18.4819,-10.1164 -5.0582,-2.72365 -8.36548,-3.89093 -9.53277,-4.08548 -1.16727,0 -3.50183,0.77819 -6.80911,2.14001 -3.30729,1.55638 -7.00367,3.3073 -11.28368,5.4473 -4.28002,2.14 -8.94914,4.47456 -13.61824,7.00366 -4.86366,2.72365 -9.53277,5.25276 -13.81279,7.5873 -4.47456,2.5291 -8.36549,4.66911 -11.86732,6.61458 -3.50183,1.94546 -5.83638,3.30728 -7.39275,4.08547 l 0,-69.8421 51.3602,-27.04193 c 1.75092,1.167283 5.05821,3.307298 10.11641,6.420032 5.05819,3.112735 10.70005,6.614574 17.31462,10.505498 6.61456,4.08546 13.42369,8.36549 20.6219,12.6455 7.1982,4.28002 14.00733,8.36549 20.42735,11.86732 6.22548,3.69637 11.67278,6.61458 16.34188,8.94913 4.47456,2.33455 7.39276,3.50183 8.75459,3.50183 1.55636,0 3.50183,-0.38909 5.64183,-1.55637 2.14001,-0.97273 4.28003,-2.14001 6.61457,-3.69638 2.14002,-1.55636 4.28002,-2.91819 6.22548,-4.47456 1.94547,-1.36182 3.50184,-2.52911 4.66912,-3.30728 l -0.19455,0 c 1.55637,-0.97273 2.72364,-2.33456 3.89093,-3.89093 0.97273,-1.55637 1.55636,-3.30729 1.55636,-5.25275 0,-4.66911 -1.94546,-8.17095 -5.83638,-10.70005 -2.14,-0.97273 -6.03094,-3.307282 -11.47823,-6.809111 -5.44729,-3.501829 -11.86733,-7.392763 -19.06553,-11.67277 -7.1982,-4.280018 -14.78553,-8.949141 -22.56736,-13.812785 -7.97639,-4.669112 -15.36917,-9.143682 -22.37282,-13.034595 -7.00366,-3.890923 -12.84006,-7.198221 -17.89825,-9.921861 -5.0582,-2.529098 -8.3655,-3.890923 -9.53277,-3.890923 -1.55637,0 -4.66911,1.167272 -9.53277,3.307287 -4.86365,2.334545 -10.70005,5.058207 -17.31461,8.560035 -6.61456,3.501818 -13.81279,7.198211 -21.40009,11.283676 -7.78183,4.085465 -14.98007,7.976399 -21.98372,11.67277 -7.00366,3.890923 -13.0346,7.198221 -18.48189,10.116414 -5.44729,3.112734 -9.143683,5.058196 -11.089145,6.030927 -1.945451,1.167272 -3.307287,2.529108 -4.474559,4.47457 -1.167273,1.945446 -1.75092,4.085466 -1.75092,6.030926 l 0,224.31182 c 0,4.6691 1.75092,7.97638 5.447301,10.1164 l 23.929183,15.1746 0,-0.19454 c 0.97274,0.77817 2.14001,1.36182 3.30729,1.75092 1.16727,0.58363 2.5291,0.77817 3.89092,0.77817 2.14001,0 4.08548,-0.77818 6.03093,-2.52909 1.94546,-1.55637 3.50184,-3.69639 5.25275,-6.03094 1.55638,-2.33455 2.9182,-4.66911 4.08548,-7.00366 1.16727,-2.33456 2.33455,-4.08548 3.11273,-5.64184 0.77819,-1.36183 1.36183,-2.5291 1.94547,-3.30729 0.38909,-0.77819 0.58364,-2.14001 0.58364,-3.89092 0,-1.94546 -0.77819,-3.69638 -2.14001,-5.25275 -1.36182,-1.55637 -2.72366,-2.72365 -4.28002,-3.89092 l 0.19455,0.19454 -9.92186,-6.42002 0,-102.13677 51.3602,-27.23648 83.65489,49.22019 0,92.99311 -44.74563,69.06391 c -1.55638,2.14 -2.14002,4.28002 -2.14002,6.42002 0,1.36183 0.19456,2.72365 0.97273,4.08548 0.77819,1.36181 1.55637,2.5291 2.72365,3.69637 1.16728,1.16728 2.33456,2.14001 3.69638,2.9182 1.36182,0.77818 2.72365,0.97273 4.08547,0.97273 2.14,0.19454 5.05821,-0.58364 8.56004,-2.14001 3.50183,-1.55637 7.19821,-3.30729 11.08913,-5.25275 3.89092,-1.94546 7.58731,-3.89092 11.08913,-5.83639 3.50183,-1.94546 6.22548,-3.30728 8.3655,-4.47456 l -0.19455,0"
       id="path3232"
       inkscape:connector-curvature="0" />
  </g>
  
</svg>
