<?xml version="1.0" encoding="UTF-8" standalone="no"?>
<!-- Created with Inkscape (http://www.inkscape.org/) -->

<svg
   xmlns:dc="http://purl.org/dc/elements/1.1/"
   xmlns:cc="http://creativecommons.org/ns#"
   xmlns:rdf="http://www.w3.org/1999/02/22-rdf-syntax-ns#"
   xmlns:svg="http://www.w3.org/2000/svg"
   xmlns="http://www.w3.org/2000/svg"
   xmlns:sodipodi="http://sodipodi.sourceforge.net/DTD/sodipodi-0.dtd"
   xmlns:inkscape="http://www.inkscape.org/namespaces/inkscape"
   style="display:inline"
   sodipodi:docname="161212_CCCC_00_UW_00_UW_.svg"
   inkscape:version="0.48.3.1 r9886"
   version="1.1"
   id="svg2902"
   height="400"
   width="400">
  <sodipodi:namedview
     id="base"
     pagecolor="#f0f0f0"
     bordercolor="#666666"
     borderopacity="1.0"
     inkscape:pageopacity="1"
     inkscape:pageshadow="2"
     inkscape:zoom="0.91569524"
     inkscape:cx="136.79062"
     inkscape:cy="173.41289"
     inkscape:document-units="px"
     inkscape:current-layer="g3246"
     showgrid="false"
     inkscape:window-width="1018"
     inkscape:window-height="709"
     inkscape:window-x="0"
     inkscape:window-y="1"
     inkscape:window-maximized="0"
     showguides="true"
     inkscape:guide-bbox="true"
     inkscape:snap-bbox="true"
     inkscape:snap-global="false" />
  <defs
     id="defs2904">
    <clipPath
       clipPathUnits="userSpaceOnUse"
       id="clipPath5174">
      <path
         id="path5176"
         style="opacity:0.5;fill:#00ff00;stroke:#00ff00;stroke-width:1px;stroke-linecap:square;display:inline"
         d="m 436.26971,600.11436 -232.09481,134 -169.500003,-293.58262 232.094813,-134 z"
         inkscape:connector-curvature="0"
         sodipodi:nodetypes="ccccc" />
    </clipPath>
    <clipPath
       clipPathUnits="userSpaceOnUse"
       id="clipPath5174-5">
      <path
         id="path5176-9"
         style="opacity:0.5;fill:#00ff00;stroke:#00ff00;stroke-width:1px;stroke-linecap:square;display:inline"
         d="m 436.26971,600.11436 -232.09481,134 -169.500003,-293.58262 232.094813,-134 z"
         inkscape:connector-curvature="0"
         sodipodi:nodetypes="ccccc" />
    </clipPath>
    <clipPath
       clipPathUnits="userSpaceOnUse"
       id="clipPath3238">
      <path
         sodipodi:nodetypes="ccccc"
         inkscape:connector-curvature="0"
         d="m 461.26971,643.41563 -232.09481,134 -169.500002,-293.58262 232.094812,-134 z"
         style="opacity:0.5;fill:#00ff00;stroke:#00ff00;stroke-width:1px;stroke-linecap:square;display:inline"
         id="path3240" />
    </clipPath>
  </defs>
  <metadata
     id="metadata2907">
    <rdf:RDF>
      <cc:Work
         rdf:about="">
        <dc:format>image/svg+xml</dc:format>
        <dc:type
           rdf:resource="http://purl.org/dc/dcmitype/StillImage" />
        <dc:title />
      </cc:Work>
    </rdf:RDF>
  </metadata>
  
tmp/TMP.change:<g
     inkscape:groupmode="layer"
     id="bg"
     inkscape:label="XX_BG"
     sodipodi:insensitive="true">
    <path
       style="fill:#f6ffd5"
       d="M 400,0 400,400 0,400 0,0 z"
       id="bgrect"
       inkscape:connector-curvature="0" />
  </g>
  
tmp/TMP.change:<g
     inkscape:label="XX_Referenz"
     inkscape:groupmode="layer"
     id="XX_referenz"
     style="display:inline"
     sodipodi:insensitive="true">
    <path
       id="innerframe"
       style="fill:none;stroke:#ff0000;stroke-width:1"
       d="m 40.5,40.5 319,0 0,319 -319,0 0,-319 z"
       inkscape:label="#innerframe"
       sodipodi:insensitive="true"
       inkscape:connector-curvature="0" />
    <path
       id="outerframe"
       style="fill:none;stroke:#ff0000;stroke-width:1"
       d="m 30.5,30.5 339,0 0,339 -339,0 0,-339 z"
       inkscape:label="#outerframe"
       sodipodi:nodetypes="ccccc"
       sodipodi:insensitive="true"
       inkscape:connector-curvature="0" />
    <path
       style="opacity:0.5;fill:none;stroke:#ffc200;stroke-width:1px;stroke-linecap:square"
       d="m 189,30.5 0,10"
       id="ref-S-top-1"
       sodipodi:insensitive="true"
       inkscape:connector-curvature="0" />
    <path
       style="opacity:0.5;fill:none;stroke:#ffc200;stroke-width:1px;stroke-linecap:square"
       d="m 191,30.5 0,10"
       id="ref-S-top-2"
       sodipodi:insensitive="true"
       inkscape:connector-curvature="0" />
    <path
       style="opacity:0.5;fill:none;stroke:#ffc200;stroke-width:1px;stroke-linecap:square"
       d="m 209,30.5 0,10"
       id="ref-S-top-3"
       sodipodi:insensitive="true"
       inkscape:connector-curvature="0" />
    <path
       style="opacity:0.5;fill:none;stroke:#ffc200;stroke-width:1px;stroke-linecap:square"
       d="m 211,30.5 0,10"
       id="ref-S-top-4"
       sodipodi:insensitive="true"
       inkscape:connector-curvature="0" />
    <path
       style="opacity:0.5;fill:none;stroke:#00ff00;stroke-width:1px;stroke-linecap:square"
       d="m 199,30.5 0,10"
       id="ref-I-top-1"
       sodipodi:insensitive="true"
       inkscape:connector-curvature="0" />
    <path
       style="opacity:0.5;fill:none;stroke:#00ff00;stroke-width:1px;stroke-linecap:square"
       d="m 201,30.5 0,10"
       id="ref-I-top-2"
       sodipodi:insensitive="true"
       inkscape:connector-curvature="0" />
    <path
       style="opacity:0.5;fill:none;stroke:#00ffcc;stroke-width:1px;stroke-linecap:square"
       d="m 66,30.5 0,10"
       id="ref-C-top-1"
       sodipodi:insensitive="true"
       inkscape:connector-curvature="0" />
    <path
       style="opacity:0.5;fill:none;stroke:#00ffcc;stroke-width:1px;stroke-linecap:square"
       d="m 68,30.5 0,10"
       id="ref-C-top-2"
       sodipodi:insensitive="true"
       inkscape:connector-curvature="0" />
    <path
       style="opacity:0.5;fill:none;stroke:#00ffcc;stroke-width:1px;stroke-linecap:square"
       d="m 92,30.5 0,10"
       id="ref-C-top-3"
       sodipodi:insensitive="true"
       inkscape:connector-curvature="0" />
    <path
       style="opacity:0.5;fill:none;stroke:#00ffcc;stroke-width:1px;stroke-linecap:square"
       d="m 94,30.5 0,10"
       id="ref-C-top-4"
       sodipodi:insensitive="true"
       inkscape:connector-curvature="0" />
    <path
       style="opacity:0.5;fill:none;stroke:#00ffcc;stroke-width:1px;stroke-linecap:square"
       d="m 306,30.5 0,10"
       id="ref-C-top-5"
       sodipodi:insensitive="true"
       inkscape:connector-curvature="0" />
    <path
       style="opacity:0.5;fill:none;stroke:#00ffcc;stroke-width:1px;stroke-linecap:square"
       d="m 308,30.5 0,10"
       id="ref-C-top-6"
       sodipodi:insensitive="true"
       inkscape:connector-curvature="0" />
    <path
       style="opacity:0.5;fill:none;stroke:#00ffcc;stroke-width:1px;stroke-linecap:square"
       d="m 332,30.5 0,10"
       id="ref-C-top-7"
       sodipodi:insensitive="true"
       inkscape:connector-curvature="0" />
    <path
       style="opacity:0.5;fill:none;stroke:#00ffcc;stroke-width:1px;stroke-linecap:square"
       d="m 334,30.5 0,10"
       id="ref-C-top-8"
       sodipodi:insensitive="true"
       inkscape:connector-curvature="0" />
    <path
       style="opacity:0.5;fill:none;stroke:#ffc200;stroke-width:1px;stroke-linecap:square"
       d="m 369.5,189 -10,0"
       id="ref-S-right-1"
       sodipodi:insensitive="true"
       inkscape:connector-curvature="0" />
    <path
       style="opacity:0.5;fill:none;stroke:#ffc200;stroke-width:1px;stroke-linecap:square"
       d="m 369.5,191 -10,0"
       id="ref-S-right-2"
       sodipodi:insensitive="true"
       inkscape:connector-curvature="0" />
    <path
       style="opacity:0.5;fill:none;stroke:#ffc200;stroke-width:1px;stroke-linecap:square"
       d="m 369.5,209 -10,0"
       id="ref-S-right-3"
       sodipodi:insensitive="true"
       inkscape:connector-curvature="0" />
    <path
       style="opacity:0.5;fill:none;stroke:#ffc200;stroke-width:1px;stroke-linecap:square"
       d="m 369.5,211 -10,0"
       id="ref-S-right-4"
       sodipodi:insensitive="true"
       inkscape:connector-curvature="0" />
    <path
       style="opacity:0.5;fill:none;stroke:#00ff00;stroke-width:1px;stroke-linecap:square"
       d="m 369.5,199 -10,0"
       id="ref-I-right-1"
       sodipodi:insensitive="true"
       inkscape:connector-curvature="0" />
    <path
       style="opacity:0.5;fill:none;stroke:#00ff00;stroke-width:1px;stroke-linecap:square"
       d="m 369.5,201 -10,0"
       id="ref-I-right-2"
       sodipodi:insensitive="true"
       inkscape:connector-curvature="0" />
    <path
       style="opacity:0.5;fill:none;stroke:#00ffcc;stroke-width:1px;stroke-linecap:square"
       d="m 369.5,66 -10,0"
       id="ref-C-right-1"
       sodipodi:insensitive="true"
       inkscape:connector-curvature="0" />
    <path
       style="opacity:0.5;fill:none;stroke:#00ffcc;stroke-width:1px;stroke-linecap:square"
       d="m 369.5,68 -10,0"
       id="ref-C-right-2"
       sodipodi:insensitive="true"
       inkscape:connector-curvature="0" />
    <path
       style="opacity:0.5;fill:none;stroke:#00ffcc;stroke-width:1px;stroke-linecap:square"
       d="m 369.5,92 -10,0"
       id="ref-C-right-3"
       sodipodi:insensitive="true"
       inkscape:connector-curvature="0" />
    <path
       style="opacity:0.5;fill:none;stroke:#00ffcc;stroke-width:1px;stroke-linecap:square"
       d="m 369.5,94 -10,0"
       id="ref-C-right-4"
       sodipodi:insensitive="true"
       inkscape:connector-curvature="0" />
    <path
       style="opacity:0.5;fill:none;stroke:#00ffcc;stroke-width:1px;stroke-linecap:square"
       d="m 369.5,306 -10,0"
       id="ref-C-right-5"
       sodipodi:insensitive="true"
       inkscape:connector-curvature="0" />
    <path
       style="opacity:0.5;fill:none;stroke:#00ffcc;stroke-width:1px;stroke-linecap:square"
       d="m 369.5,308 -10,0"
       id="ref-C-right-6"
       sodipodi:insensitive="true"
       inkscape:connector-curvature="0" />
    <path
       style="opacity:0.5;fill:none;stroke:#00ffcc;stroke-width:1px;stroke-linecap:square"
       d="m 369.5,332 -10,0"
       id="ref-C-right-7"
       sodipodi:insensitive="true"
       inkscape:connector-curvature="0" />
    <path
       style="opacity:0.5;fill:none;stroke:#00ffcc;stroke-width:1px;stroke-linecap:square"
       d="m 369.5,334 -10,0"
       id="ref-C-right-8"
       sodipodi:insensitive="true"
       inkscape:connector-curvature="0" />
    <path
       style="opacity:0.5;fill:none;stroke:#ffc200;stroke-width:1px;stroke-linecap:square"
       d="m 189,369.5 0,-10"
       id="ref-S-bottom-1"
       sodipodi:insensitive="true"
       inkscape:connector-curvature="0" />
    <path
       style="opacity:0.5;fill:none;stroke:#ffc200;stroke-width:1px;stroke-linecap:square"
       d="m 191,369.5 0,-10"
       id="ref-S-bottom-2"
       sodipodi:insensitive="true"
       inkscape:connector-curvature="0" />
    <path
       style="opacity:0.5;fill:none;stroke:#ffc200;stroke-width:1px;stroke-linecap:square"
       d="m 209,369.5 0,-10"
       id="ref-S-bottom-3"
       sodipodi:insensitive="true"
       inkscape:connector-curvature="0" />
    <path
       style="opacity:0.5;fill:none;stroke:#ffc200;stroke-width:1px;stroke-linecap:square"
       d="m 211,369.5 0,-10"
       id="ref-S-bottom-4"
       sodipodi:insensitive="true"
       inkscape:connector-curvature="0" />
    <path
       style="opacity:0.5;fill:none;stroke:#00ff00;stroke-width:1px;stroke-linecap:square"
       d="m 199,369.5 0,-10"
       id="ref-I-bottom-1"
       sodipodi:insensitive="true"
       inkscape:connector-curvature="0" />
    <path
       style="opacity:0.5;fill:none;stroke:#00ff00;stroke-width:1px;stroke-linecap:square"
       d="m 201,369.5 0,-10"
       id="ref-I-bottom-2"
       sodipodi:insensitive="true"
       inkscape:connector-curvature="0" />
    <path
       style="opacity:0.5;fill:none;stroke:#00ffcc;stroke-width:1px;stroke-linecap:square"
       d="m 66,369.5 0,-10"
       id="ref-C-bottom-1"
       sodipodi:insensitive="true"
       inkscape:connector-curvature="0" />
    <path
       style="opacity:0.5;fill:none;stroke:#00ffcc;stroke-width:1px;stroke-linecap:square"
       d="m 68,369.5 0,-10"
       id="ref-C-bottom-2"
       sodipodi:insensitive="true"
       inkscape:connector-curvature="0" />
    <path
       style="opacity:0.5;fill:none;stroke:#00ffcc;stroke-width:1px;stroke-linecap:square"
       d="m 92,369.5 0,-10"
       id="ref-C-bottom-3"
       sodipodi:insensitive="true"
       inkscape:connector-curvature="0" />
    <path
       style="opacity:0.5;fill:none;stroke:#00ffcc;stroke-width:1px;stroke-linecap:square"
       d="m 94,369.5 0,-10"
       id="ref-C-bottom-4"
       sodipodi:insensitive="true"
       inkscape:connector-curvature="0" />
    <path
       style="opacity:0.5;fill:none;stroke:#00ffcc;stroke-width:1px;stroke-linecap:square"
       d="m 306,369.5 0,-10"
       id="ref-C-bottom-5"
       sodipodi:insensitive="true"
       inkscape:connector-curvature="0" />
    <path
       style="opacity:0.5;fill:none;stroke:#00ffcc;stroke-width:1px;stroke-linecap:square"
       d="m 308,369.5 0,-10"
       id="ref-C-bottom-6"
       sodipodi:insensitive="true"
       inkscape:connector-curvature="0" />
    <path
       style="opacity:0.5;fill:none;stroke:#00ffcc;stroke-width:1px;stroke-linecap:square"
       d="m 332,369.5 0,-10"
       id="ref-C-bottom-7"
       sodipodi:insensitive="true"
       inkscape:connector-curvature="0" />
    <path
       style="opacity:0.5;fill:none;stroke:#00ffcc;stroke-width:1px;stroke-linecap:square"
       d="m 334,369.5 0,-10"
       id="ref-C-bottom-8"
       sodipodi:insensitive="true"
       inkscape:connector-curvature="0" />
    <path
       style="opacity:0.5;fill:none;stroke:#ffc200;stroke-width:1px;stroke-linecap:square"
       d="m 30.5,189 10,0"
       id="ref-S-left-1"
       sodipodi:insensitive="true"
       inkscape:connector-curvature="0" />
    <path
       style="opacity:0.5;fill:none;stroke:#ffc200;stroke-width:1px;stroke-linecap:square"
       d="m 30.5,191 10,0"
       id="ref-S-left-2"
       sodipodi:insensitive="true"
       inkscape:connector-curvature="0" />
    <path
       style="opacity:0.5;fill:none;stroke:#ffc200;stroke-width:1px;stroke-linecap:square"
       d="m 30.5,209 10,0"
       id="ref-S-left-3"
       sodipodi:insensitive="true"
       inkscape:connector-curvature="0" />
    <path
       style="opacity:0.5;fill:none;stroke:#ffc200;stroke-width:1px;stroke-linecap:square"
       d="m 30.5,211 10,0"
       id="ref-S-left-4"
       sodipodi:insensitive="true"
       inkscape:connector-curvature="0" />
    <path
       style="opacity:0.5;fill:none;stroke:#00ff00;stroke-width:1px;stroke-linecap:square"
       d="m 40.5,199 -10,0"
       id="ref-I-left-1"
       sodipodi:insensitive="true"
       inkscape:connector-curvature="0" />
    <path
       style="opacity:0.5;fill:none;stroke:#00ff00;stroke-width:1px;stroke-linecap:square"
       d="m 40.5,201 -10,0"
       id="ref-I-left-2"
       sodipodi:insensitive="true"
       inkscape:connector-curvature="0" />
    <path
       style="opacity:0.5;fill:none;stroke:#00ffcc;stroke-width:1px;stroke-linecap:square"
       d="m 30.5,66 10,0"
       id="ref-C-left-1"
       sodipodi:insensitive="true"
       inkscape:connector-curvature="0" />
    <path
       style="opacity:0.5;fill:none;stroke:#00ffcc;stroke-width:1px;stroke-linecap:square"
       d="m 30.5,68 10,0"
       id="ref-C-left-2"
       sodipodi:insensitive="true"
       inkscape:connector-curvature="0" />
    <path
       style="opacity:0.5;fill:none;stroke:#00ffcc;stroke-width:1px;stroke-linecap:square"
       d="m 30.5,92 10,0"
       id="ref-C-left-3"
       sodipodi:insensitive="true"
       inkscape:connector-curvature="0" />
    <path
       style="opacity:0.5;fill:none;stroke:#00ffcc;stroke-width:1px;stroke-linecap:square"
       d="m 30.5,94 10,0"
       id="ref-C-left-4"
       sodipodi:insensitive="true"
       inkscape:connector-curvature="0" />
    <path
       style="opacity:0.5;fill:none;stroke:#00ffcc;stroke-width:1px;stroke-linecap:square"
       d="m 30.5,306 10,0"
       id="ref-C-left-5"
       sodipodi:insensitive="true"
       inkscape:connector-curvature="0" />
    <path
       style="opacity:0.5;fill:none;stroke:#00ffcc;stroke-width:1px;stroke-linecap:square"
       d="m 30.5,308 10,0"
       id="ref-C-left-6"
       sodipodi:insensitive="true"
       inkscape:connector-curvature="0" />
    <path
       style="opacity:0.5;fill:none;stroke:#00ffcc;stroke-width:1px;stroke-linecap:square"
       d="m 30.5,332 10,0"
       id="ref-C-left-7"
       sodipodi:insensitive="true"
       inkscape:connector-curvature="0" />
    <path
       style="opacity:0.5;fill:none;stroke:#00ffcc;stroke-width:1px;stroke-linecap:square"
       d="m 30.5,334 10,0"
       id="ref-C-left-8"
       sodipodi:insensitive="true"
       inkscape:connector-curvature="0" />
    <path
       style="fill:none;stroke:#000000;stroke-width:1px;stroke-linecap:square"
       d="m 190,30.5 0,10"
       id="S-top-1"
       inkscape:connector-curvature="0" />
    <path
       style="fill:none;stroke:#000000;stroke-width:1px;stroke-linecap:square"
       d="m 210,30.5 0,10"
       id="S-top-2"
       inkscape:connector-curvature="0" />
    <path
       style="fill:none;stroke:#000000;stroke-width:1px;stroke-linecap:square"
       d="m 369.5,190 -10,0"
       id="S-right-1"
       inkscape:connector-curvature="0" />
    <path
       style="fill:none;stroke:#000000;stroke-width:1px;stroke-linecap:square"
       d="m 369.5,210 -10,0"
       id="S-right-2"
       inkscape:connector-curvature="0" />
    <path
       style="fill:none;stroke:#000000;stroke-width:1px;stroke-linecap:square"
       d="m 190,369.5 0,-10"
       id="S-bottom-1"
       inkscape:connector-curvature="0" />
    <path
       style="fill:none;stroke:#000000;stroke-width:1px;stroke-linecap:square"
       d="m 210,369.5 0,-10"
       id="S-bottom-2"
       inkscape:connector-curvature="0" />
    <path
       style="fill:none;stroke:#000000;stroke-width:1px;stroke-linecap:square"
       d="m 30.5,190 10,0"
       id="S-left-1"
       inkscape:connector-curvature="0" />
    <path
       style="fill:none;stroke:#000000;stroke-width:1px;stroke-linecap:square"
       d="m 30.5,210 10,0"
       id="S-left-2"
       inkscape:connector-curvature="0" />
    <path
       style="fill:none;stroke:#000000;stroke-width:1px;stroke-linecap:square"
       d="m 200,30.5 0,10"
       id="I-top-1"
       inkscape:connector-curvature="0" />
    <path
       style="fill:none;stroke:#000000;stroke-width:1px;stroke-linecap:square"
       d="m 369.5,200 -10,0"
       id="I-right-1"
       inkscape:connector-curvature="0" />
    <path
       style="fill:none;stroke:#000000;stroke-width:1px;stroke-linecap:square"
       d="m 200,369.5 0,-10"
       id="I-bottom-1"
       inkscape:connector-curvature="0" />
    <path
       style="fill:none;stroke:#000000;stroke-width:1px;stroke-linecap:square"
       d="m 40.5,200 -10,0"
       id="I-left-1"
       inkscape:connector-curvature="0" />
    <path
       style="fill:none;stroke:#000000;stroke-width:1px;stroke-linecap:square"
       d="m 67,30.5 0,10"
       id="C-top-1"
       inkscape:connector-curvature="0" />
    <path
       style="fill:none;stroke:#000000;stroke-width:1px;stroke-linecap:square"
       d="m 93,30.5 0,10"
       id="C-top-2"
       inkscape:connector-curvature="0" />
    <path
       style="fill:none;stroke:#000000;stroke-width:1px;stroke-linecap:square"
       d="m 307,30.5 0,10"
       id="C-top-3"
       inkscape:connector-curvature="0" />
    <path
       style="fill:none;stroke:#000000;stroke-width:1px;stroke-linecap:square"
       d="m 333,30.5 0,10"
       id="C-top-4"
       inkscape:connector-curvature="0" />
    <path
       style="fill:none;stroke:#000000;stroke-width:1px;stroke-linecap:square"
       d="m 369.5,67 -10,0"
       id="C-right-1"
       inkscape:connector-curvature="0" />
    <path
       style="fill:none;stroke:#000000;stroke-width:1px;stroke-linecap:square"
       d="m 369.5,93 -10,0"
       id="C-right-2"
       inkscape:connector-curvature="0" />
    <path
       style="fill:none;stroke:#000000;stroke-width:1px;stroke-linecap:square"
       d="m 369.5,307 -10,0"
       id="C-right-3"
       inkscape:connector-curvature="0" />
    <path
       style="fill:none;stroke:#000000;stroke-width:1px;stroke-linecap:square"
       d="m 369.5,333 -10,0"
       id="C-right-4"
       inkscape:connector-curvature="0" />
    <path
       style="fill:none;stroke:#000000;stroke-width:1px;stroke-linecap:square"
       d="m 67,369.5 0,-10"
       id="C-bottom-1"
       inkscape:connector-curvature="0" />
    <path
       style="fill:none;stroke:#000000;stroke-width:1px;stroke-linecap:square"
       d="m 93,369.5 0,-10"
       id="C-bottom-2"
       inkscape:connector-curvature="0" />
    <path
       style="fill:none;stroke:#000000;stroke-width:1px;stroke-linecap:square"
       d="m 307,369.5 0,-10"
       id="C-bottom-3"
       inkscape:connector-curvature="0" />
    <path
       style="fill:none;stroke:#000000;stroke-width:1px;stroke-linecap:square"
       d="m 333,369.5 0,-10"
       id="C-bottom-4"
       inkscape:connector-curvature="0" />
    <path
       style="fill:none;stroke:#000000;stroke-width:1px;stroke-linecap:square"
       d="m 30.5,67 10,0"
       id="C-left-1"
       inkscape:connector-curvature="0" />
    <path
       style="fill:none;stroke:#000000;stroke-width:1px;stroke-linecap:square"
       d="m 30.5,93 10,0"
       id="C-left-2"
       inkscape:connector-curvature="0" />
    <path
       style="fill:none;stroke:#000000;stroke-width:1px;stroke-linecap:square"
       d="m 30.5,307 10,0"
       id="C-left-3"
       inkscape:connector-curvature="0" />
    <path
       style="fill:none;stroke:#000000;stroke-width:1px;stroke-linecap:square"
       d="m 30.5,333 10,0"
       id="C-left-4"
       inkscape:connector-curvature="0" />
  </g>
  
tmp/TMP.change:<g
     inkscape:groupmode="layer"
     id="g3149"
     inkscape:label="OKON-001"
     zpos="-300"
     style="display:inline"
     sodipodi:insensitive="true">
    <path
       style="fill:none;stroke:#000000;stroke-width:1px;stroke-linecap:square;display:inline"
       d="m 333,93.5 0,10 0,256 0,10"
       id="C-top-4-6"
       inkscape:connector-curvature="0"
       sodipodi:nodetypes="cccc" />
    <path
       sodipodi:nodetypes="ccccc"
       inkscape:connector-curvature="0"
       id="path3147"
       d="m 30.5,307 0,25 339,0 0,-25 z"
       style="fill:#ffffff;stroke:none;display:inline" />
    <path
       style="fill:#ffffff;stroke:none;display:inline"
       d="m 30.5,67 0,26 339,0 0,-26 z"
       id="path3118"
       inkscape:connector-curvature="0"
       sodipodi:nodetypes="ccccc" />
    <path
       style="fill:none;stroke:#000000;stroke-width:1px;stroke-linecap:square;display:inline"
       d="m 369.5,307 -10,0 -285,0 -10,0"
       id="C-right-3-7"
       inkscape:connector-curvature="0"
       sodipodi:nodetypes="cccc" />
    <path
       style="fill:none;stroke:#000000;stroke-width:1px;stroke-linecap:square;display:inline"
       d="m 30.5,93 10,0 319,0 10,0"
       id="C-left-2-6"
       inkscape:connector-curvature="0"
       sodipodi:nodetypes="cccc" />
  </g>
  
tmp/TMP.master:<g
     zpos="-200"
     style="display:none"
     inkscape:label="CCCC-001"
     id="g3125"
     inkscape:groupmode="layer"
     sodipodi:insensitive="true">
    <path
       style="fill:#ffffff;stroke:none"
       d="m 154.96875,67 c -1.08776,0.927471 -2.15746,1.872666 -3.21875,2.875 -15.62255,14.63377 -23.34375,31.84963 -23.34375,51.625 l 0,211.5 28.875,0 0,-209.34375 c 0,-12.26073 3.96485,-22.14161 11.875,-29.65625 10.28319,-9.49218 21.14454,-14.4375 32.21875,-14.4375 l 59.53125,0 c 9.58357,0 14.85392,-4.14403 15.6875,-12.5625 l -121.625,0 z"
       id="path3136"
       inkscape:connector-curvature="0" />
    <path
       style="fill:none;stroke:#00ff00;stroke-width:1px;display:inline"
       d="m 157.28125,333 0,-209.34375 c 0,-12.26073 3.96485,-22.14161 11.875,-29.65625 10.28319,-9.49218 21.14454,-14.4375 32.21875,-14.4375 l 59.53125,0 c 9.58357,0 14.85392,-4.14403 15.6875,-12.5625 m -121.625,0 c -1.08776,0.927471 -2.15746,1.872666 -3.21875,2.875 -15.62255,14.63377 -23.34375,31.84963 -23.34375,51.625 l 0,211.5"
       id="path3136-6"
       inkscape:connector-curvature="0"
       sodipodi:nodetypes="cscsscccsc" />
  </g>
  
tmp/TMP.master:<g
     zpos="-200"
     style="display:none"
     inkscape:label="CCCC-002"
     id="g3141"
     inkscape:groupmode="layer"
     sodipodi:insensitive="true">
    <path
       style="fill:#ffffff;stroke:none"
       d="m 134,67 c -3.22252,3.178142 -6.10926,6.740974 -8.5625,10.6875 -1.62,2.83499 -42.09875,83.41875 -43.71875,87.46875 -3.24,7.69499 -5.69,15.80876 -6.5,24.71875 -0.81,4.45499 -0.81,15.39 0,20.25 0.81,8.50499 3.26,16.6175 6.5,24.3125 1.62,4.04999 42.09875,84.63375 43.71875,87.46875 2.49792,4.127 5.49978,7.81345 8.84375,11.09375 l 131.09375,0 c 0.11375,-0.85189 0.21875,-1.70918 0.21875,-2.59375 0,-8.1 -4.86501,-14.97751 -11.75,-17.8125 -3.645,-1.62 -0.41379,-1.625 -43.34375,-1.625 -36.44996,-0.405 -39.285,-0.4075 -40.5,-0.8125 -4.05,-1.215 -8.1,-3.63376 -10.125,-6.46875 -1.215,-1.62 -4.05751,-6.89627 -12.5625,-23.90625 -13.76999,-27.13498 -29.565,-58.72751 -30.375,-61.5625 -1.215,-2.43 -2.40875,-7.29126 -3.21875,-10.53125 -0.405,-4.05 -0.405,-11.73001 0,-15.375 0.81,-3.645 2.00375,-8.10251 3.21875,-10.9375 0.81,-2.43 16.60501,-34.42753 30.375,-61.5625 8.50499,-16.60499 11.3475,-22.285 12.5625,-23.5 2.025,-3.24 6.075,-5.66 10.125,-6.875 1.215,-0.405 4.05004,-0.40625 40.5,-0.40625 42.92996,-0.405 39.69875,-0.41 43.34375,-1.625 6.88499,-2.835 11.75,-10.11751 11.75,-17.8125 0,-0.884208 -0.0827,-1.746162 -0.1875,-2.59375 L 134,67 z"
       id="path3152"
       inkscape:connector-curvature="0" />
    <path
       style="fill:none;stroke:#00ff00;stroke-width:1px;display:inline"
       d="m 134,67 c -3.22252,3.178142 -6.10926,6.740974 -8.5625,10.6875 -1.62,2.83499 -42.09875,83.41875 -43.71875,87.46875 -3.24,7.69499 -5.69,15.80876 -6.5,24.71875 -0.81,4.45499 -0.81,15.39 0,20.25 0.81,8.50499 3.26,16.6175 6.5,24.3125 1.62,4.04999 42.09875,84.63375 43.71875,87.46875 2.49792,4.127 5.49978,7.81345 8.84375,11.09375 m 131.09375,0 c 0.11375,-0.85189 0.21875,-1.70918 0.21875,-2.59375 0,-8.1 -4.86501,-14.97751 -11.75,-17.8125 -3.645,-1.62 -0.41379,-1.625 -43.34375,-1.625 -36.44996,-0.405 -39.285,-0.4075 -40.5,-0.8125 -4.05,-1.215 -8.1,-3.63376 -10.125,-6.46875 -1.215,-1.62 -4.05751,-6.89627 -12.5625,-23.90625 -13.76999,-27.13498 -29.565,-58.72751 -30.375,-61.5625 -1.215,-2.43 -2.40875,-7.29126 -3.21875,-10.53125 -0.405,-4.05 -0.405,-11.73001 0,-15.375 0.81,-3.645 2.00375,-8.10251 3.21875,-10.9375 0.81,-2.43 16.60501,-34.42753 30.375,-61.5625 8.50499,-16.60499 11.3475,-22.285 12.5625,-23.5 2.025,-3.24 6.075,-5.66 10.125,-6.875 1.215,-0.405 4.05004,-0.40625 40.5,-0.40625 42.92996,-0.405 39.69875,-0.41 43.34375,-1.625 6.88499,-2.835 11.75,-10.11751 11.75,-17.8125 0,-0.884208 -0.0827,-1.746162 -0.1875,-2.59375"
       id="path3152-5"
       inkscape:connector-curvature="0"
       sodipodi:nodetypes="cccccccccsccccccccccccccsc" />
  </g>
  
tmp/TMP.master:<g
     zpos="-200"
     style="display:none"
     inkscape:label="CCCC-003"
     id="g3157"
     inkscape:groupmode="layer"
     sodipodi:insensitive="true">
    <path
       style="fill:#ffffff;stroke:none"
       d="m 142.03125,67 c -8.61979,6.642922 -16.58074,14.520066 -23.875,23.65625 -24.03001,30.51023 -36.0625,67.22645 -36.0625,110.15625 0,42.12011 11.62374,77.47382 34.84375,106.09375 C 125.30618,317.27996 134.66112,325.97562 145,333 l 176.21875,0 c 9.60719,-5.3699 14.40603,-12.97675 14.40625,-22.84375 -2.5e-4,-8.90995 -3.64775,-16.99119 -10.9375,-24.28125 -7.29023,-7.55993 -15.50773,-11.34367 -24.6875,-11.34375 -2.43021,8e-5 -4.85146,0.40883 -7.28125,1.21875 -11.8802,2.97007 -23.77644,6.07257 -35.65625,9.3125 -8.91016,2.16007 -18.21766,3.21881 -27.9375,3.21875 -23.22012,6e-5 -41.7301,-9.57993 -55.5,-28.75 -12.15008,-17.00989 -18.21882,-37.94112 -18.21875,-62.78125 -7e-5,-24.56982 5.93242,-45.3648 17.8125,-62.375 12.9599,-19.16976 30.51613,-29.1585 52.65625,-29.96875 14.03984,-0.26975 25.79983,1.229 35.25,4.46875 21.5998,7.02024 32.91979,10.66773 34,10.9375 2.42979,0.81023 4.88228,1.21898 7.3125,1.21875 8.90977,2.3e-4 16.71851,-3.23851 23.46875,-9.71875 6.74975,-6.74975 10.12475,-14.31724 10.125,-22.6875 -1.9e-4,-8.629774 -3.59002,-15.832227 -10.75,-21.625 l -183.25,0 z"
       id="path3168"
       inkscape:connector-curvature="0" />
    <path
       style="fill:none;stroke:#00ff00;stroke-width:1px;display:inline"
       d="m 142.03125,67 c -8.61979,6.642922 -16.58074,14.520066 -23.875,23.65625 -24.03001,30.51023 -36.0625,67.22645 -36.0625,110.15625 0,42.12011 11.62374,77.47382 34.84375,106.09375 C 125.30618,317.27996 134.66112,325.97562 145,333 m 176.21875,0 c 9.60719,-5.3699 14.40603,-12.97675 14.40625,-22.84375 -2.5e-4,-8.90995 -3.64775,-16.99119 -10.9375,-24.28125 -7.29023,-7.55993 -15.50773,-11.34367 -24.6875,-11.34375 -2.43021,8e-5 -4.85146,0.40883 -7.28125,1.21875 -11.8802,2.97007 -23.77644,6.07257 -35.65625,9.3125 -8.91016,2.16007 -18.21766,3.21881 -27.9375,3.21875 -23.22012,6e-5 -41.7301,-9.57993 -55.5,-28.75 -12.15008,-17.00989 -18.21882,-37.94112 -18.21875,-62.78125 -7e-5,-24.56982 5.93242,-45.3648 17.8125,-62.375 12.9599,-19.16976 30.51613,-29.1585 52.65625,-29.96875 14.03984,-0.26975 25.79983,1.229 35.25,4.46875 21.5998,7.02024 32.91979,10.66773 34,10.9375 2.42979,0.81023 4.88228,1.21898 7.3125,1.21875 8.90977,2.3e-4 16.71851,-3.23851 23.46875,-9.71875 6.74975,-6.74975 10.12475,-14.31724 10.125,-22.6875 -1.9e-4,-8.629774 -3.59002,-15.832227 -10.75,-21.625"
       id="path3168-5"
       inkscape:connector-curvature="0"
       sodipodi:nodetypes="ccsccccccccscscccccccc" />
  </g>
  
tmp/TMP.master:<g
     zpos="-200"
     style="display:none"
     inkscape:label="CCCC-004"
     id="g3173"
     inkscape:groupmode="layer"
     sodipodi:insensitive="true">
    <path
       style="fill:#ffffff;stroke:none"
       d="m 139.09375,67 c -8.31741,5.087218 -15.93983,11.437542 -22.84375,19.09375 -20.56644,22.67601 -30.84377,51.55684 -30.84375,86.625 l 0,54.78125 c -2e-5,35.20028 10.41989,64.13677 31.25,86.8125 6.90779,7.47619 14.5128,13.69062 22.8125,18.6875 l 121.5,0 c 5.6337,-3.31658 10.85571,-7.18513 15.65625,-11.59375 19.37965,-17.92964 28.80835,-41.37103 28.28125,-70.375 l -0.40625,-1.1875 -46.25,0 c -1.9e-4,19.37996 -5.15449,34.21686 -15.4375,44.5 -10.15154,10.28324 -25.0441,15.40629 -44.6875,15.40625 -20.03917,4e-5 -35.86729,-7.70016 -47.46875,-23.125 C 139.05461,271.06843 133.24993,251.3624 133.25,227.5 l 0,-55.1875 c -7e-5,-23.59844 5.66203,-43.10623 17,-58.53125 11.46963,-15.55639 26.98816,-23.34349 46.5,-23.34375 20.17074,2.6e-4 35.45979,5.15454 45.875,15.4375 10.41485,10.15159 15.62481,24.84591 15.625,44.09375 l 46.46875,0 0.375,-1.1875 c 0.5271,-30.05836 -8.95726,-53.72924 -28.46875,-71 C 272.05219,73.706265 267.06618,70.113532 261.6875,67 l -122.59375,0 z"
       id="path3184"
       inkscape:connector-curvature="0" />
    <path
       style="fill:none;stroke:#00ff00;stroke-width:1px;display:inline"
       d="m 139.09375,67 c -8.31741,5.087218 -15.93983,11.437542 -22.84375,19.09375 -20.56644,22.67601 -30.84377,51.55684 -30.84375,86.625 l 0,54.78125 c -2e-5,35.20028 10.41989,64.13677 31.25,86.8125 6.90779,7.47619 14.5128,13.69062 22.8125,18.6875 m 121.5,0 c 5.6337,-3.31658 10.85571,-7.18513 15.65625,-11.59375 19.37965,-17.92964 28.80835,-41.37103 28.28125,-70.375 l -0.40625,-1.1875 -46.25,0 c -1.9e-4,19.37996 -5.15449,34.21686 -15.4375,44.5 -10.15154,10.28324 -25.0441,15.40629 -44.6875,15.40625 -20.03917,4e-5 -35.86729,-7.70016 -47.46875,-23.125 C 139.05461,271.06843 133.24993,251.3624 133.25,227.5 l 0,-55.1875 c -7e-5,-23.59844 5.66203,-43.10623 17,-58.53125 11.46963,-15.55639 26.98816,-23.34349 46.5,-23.34375 20.17074,2.6e-4 35.45979,5.15454 45.875,15.4375 10.41485,10.15159 15.62481,24.84591 15.625,44.09375 l 46.46875,0 0.375,-1.1875 c 0.5271,-30.05836 -8.95726,-53.72924 -28.46875,-71 C 272.05219,73.706265 267.06618,70.113532 261.6875,67"
       id="path3184-2"
       inkscape:connector-curvature="0"
       sodipodi:nodetypes="ccssccccccccscsscccccccc" />
  </g>
  
tmp/TMP.master:<g
     zpos="-200"
     style="display:none"
     inkscape:label="CCCC-005"
     id="g3189"
     inkscape:groupmode="layer"
     sodipodi:insensitive="true">
    <path
       style="fill:#ffffff;stroke:none"
       d="m 160.53125,67 -34.25,38.125 0,226.875 -0.4375,0.46875 L 127,333 l 125.75,0 9,-9.8125 -64,-27.84375 0,-193.4375 53.8125,0 L 263.78125,67 l -103.25,0 z"
       id="path3200"
       inkscape:connector-curvature="0" />
    <path
       style="fill:none;stroke:#00ff00;stroke-width:1px;display:inline"
       d="m 160.53125,67 -34.25,38.125 0,229.875 m 126.46875,-2 9,-9.8125 -64,-27.84375 0,-193.4375 53.8125,0 L 263.78125,67"
       id="path3200-1"
       inkscape:connector-curvature="0"
       sodipodi:nodetypes="ccccccccc" />
  </g>
  
tmp/TMP.master:<g
     zpos="-200"
     style="display:inline"
     inkscape:label="CCCC-006"
     id="g3205"
     inkscape:groupmode="layer"
     sodipodi:insensitive="true">
    <path
       style="fill:#ffffff;stroke:none"
       d="M 172.15625,67 C 147.1253,89.05505 126.51122,116.97899 110.34375,150.46875 93.492046,185.7771 85.0625,220.30662 85.0625,254.8125 c 0,27.28373 7.21694,50.95965 22.0625,70.21875 2.21756,2.87683 4.60172,5.52165 7.125,7.96875 l 52.9375,0 c -12.22658,-2.89342 -21.75638,-9.62441 -28.75,-20.40625 -9.62955,-14.44433 -14.46875,-32.52102 -14.46875,-54.1875 0,-28.08618 6.83191,-58.97906 20.875,-92.28125 13.64187,-32.90096 31.29724,-60.97357 52.5625,-83.84375 C 202.82397,76.446783 208.19774,71.361532 213.5,67 l -41.34375,0 z m 102.9375,0 c -0.88973,9.445819 -5.64503,20.857238 -14.28125,34.53125 -9.62955,15.64802 -19.28172,28.89053 -29.3125,40.125 4.01232,8.42586 9.64782,12.4375 16.46875,12.4375 11.23448,0.40123 22.448,-10.03721 33.28125,-30.5 10.43201,-20.06156 16.0625,-38.908331 16.0625,-56.5625 0,-0.01059 10e-6,-0.02066 0,-0.03125 l -22.21875,0 z M 293.3125,248.78125 C 282.07803,272.45389 265.61402,292.5233 244.75,309.375 229.19584,321.93799 213.64794,329.80274 198.09375,333 l 40.25,0 c 2.83943,-1.98241 5.6391,-4.10199 8.40625,-6.375 22.46894,-18.45663 41.72196,-42.1426 56.96875,-71.03125 l -10.40625,-6.8125 z"
       id="path3216"
       inkscape:connector-curvature="0" />
    <path
       style="fill:none;stroke:#00ff00;stroke-width:1px;display:inline"
       d="M 172.15625,67 C 147.1253,89.05505 126.51122,116.97899 110.34375,150.46875 93.492046,185.7771 85.0625,220.30662 85.0625,254.8125 c 0,27.28373 7.21694,50.95965 22.0625,70.21875 2.21756,2.87683 4.60172,5.52165 7.125,7.96875 m 52.9375,0 c -12.22658,-2.89342 -21.75638,-9.62441 -28.75,-20.40625 -9.62955,-14.44433 -14.46875,-32.52102 -14.46875,-54.1875 0,-28.08618 6.83191,-58.97906 20.875,-92.28125 13.64187,-32.90096 31.29724,-60.97357 52.5625,-83.84375 C 202.82397,76.446783 208.19774,71.361532 213.5,67 m 61.59375,0 c -0.88973,9.445819 -5.64503,20.857238 -14.28125,34.53125 -9.62955,15.64802 -19.28172,28.89053 -29.3125,40.125 4.01232,8.42586 9.64782,12.4375 16.46875,12.4375 11.23448,0.40123 22.448,-10.03721 33.28125,-30.5 10.43201,-20.06156 16.0625,-38.908331 16.0625,-56.5625 M 238.34375,333 c 2.83943,-1.98241 5.6391,-4.10199 8.40625,-6.375 22.46894,-18.45663 41.72196,-42.1426 56.96875,-71.03125 l -10.40625,-6.8125 C 282.07803,272.45389 265.61402,292.5233 244.75,309.375 229.19584,321.93799 213.64794,329.80274 198.09375,333"
       id="path3216-7"
       inkscape:connector-curvature="0"
       sodipodi:nodetypes="ccsscccsccccccccccsccsc" />
  </g>
  
tmp/TMP.master:<g
     zpos="-200"
     style="display:none"
     inkscape:label="CCCC-007"
     id="g3230"
     inkscape:groupmode="layer"
     sodipodi:insensitive="true">
    <path
       style="fill:#ffffff;stroke:none"
       d="M 165.59375,67 119.9375,91.0625 c -4.68953,2.557923 -7.02565,6.196658 -6.8125,11.3125 l 0,226.59375 c 0,1.47791 0.16542,2.80686 0.46875,4.03125 l 151.0625,0 c -13.31819,-3.65628 -26.53469,-7.22783 -39.625,-10.65625 -17.90548,-4.68952 -36.00636,-9.3585 -54.125,-14.6875 -3.83689,-1.06581 -6.84274,-3.20325 -9.1875,-6.1875 -2.34477,-2.77108 -3.40625,-6.38745 -3.40625,-10.4375 l 0,-184.40625 54.15625,-28.5625 c 1.27896,0.852641 3.39076,2.138468 6.375,3.84375 2.98425,1.705282 6.18878,3.430897 9.8125,5.5625 3.62373,2.131603 7.4756,4.243397 11.3125,6.375 3.83689,2.131602 7.65752,4.263469 11.28125,5.96875 3.41057,1.91844 6.6095,3.40295 9.59375,4.46875 2.77108,1.27896 4.69538,1.71875 6.1875,1.71875 1.49213,0.21317 3.40524,-0.43979 5.75,-1.71875 2.34477,-1.27896 4.69207,-2.54472 7.25,-4.25 2.55793,-1.49212 4.89965,-2.982218 7.03125,-4.6875 2.13161,-1.705293 3.85163,-2.777943 5.34375,-3.84375 l -0.21875,0 c 1.70528,-1.065807 2.96544,-2.544718 4.03125,-4.25 1.0658,-1.705283 1.71875,-3.618398 1.71875,-5.75 0,-5.542168 -2.33054,-9.379576 -6.59375,-11.9375 L 286.65625,67 165.59375,67 z"
       id="path3241"
       inkscape:connector-curvature="0" />
    <path
       style="fill:none;stroke:#00ff00;stroke-width:1px;display:inline"
       d="M 165.59375,67 119.9375,91.0625 c -4.68953,2.557923 -7.02565,6.196658 -6.8125,11.3125 l 0,232.59375 M 264.65625,333 c -13.31819,-3.65628 -26.53469,-7.22783 -39.625,-10.65625 -17.90548,-4.68952 -36.00636,-9.3585 -54.125,-14.6875 -3.83689,-1.06581 -6.84274,-3.20325 -9.1875,-6.1875 -2.34477,-2.77108 -3.40625,-6.38745 -3.40625,-10.4375 l 0,-184.40625 54.15625,-28.5625 c 1.27896,0.852641 3.39076,2.138468 6.375,3.84375 2.98425,1.705282 6.18878,3.430897 9.8125,5.5625 3.62373,2.131603 7.4756,4.243397 11.3125,6.375 3.83689,2.131602 7.65752,4.263469 11.28125,5.96875 3.41057,1.91844 6.6095,3.40295 9.59375,4.46875 2.77108,1.27896 4.69538,1.71875 6.1875,1.71875 1.49213,0.21317 3.40524,-0.43979 5.75,-1.71875 2.34477,-1.27896 4.69207,-2.54472 7.25,-4.25 2.55793,-1.49212 4.89965,-2.982218 7.03125,-4.6875 2.13161,-1.705293 3.85163,-2.777943 5.34375,-3.84375 l -0.21875,0 c 1.70528,-1.065807 2.96544,-2.544718 4.03125,-4.25 1.0658,-1.705283 1.71875,-3.618398 1.71875,-5.75 0,-5.542168 -2.33054,-9.379576 -6.59375,-11.9375 L 286.65625,67"
       id="path3241-9"
       inkscape:connector-curvature="0"
       sodipodi:nodetypes="cccccsccsccssscccscsccsscc" />
  </g>
  
tmp/TMP.master:<g
     zpos="-200"
     style="display:none"
     inkscape:label="CCCC-008"
     id="g3246"
     inkscape:groupmode="layer"
     sodipodi:insensitive="true">
    <path
       style="fill:#ffffff;stroke:none;display:inline"
       d="m 167.875,67 c -9.64443,13.655175 -17.03965,30.157978 -22.125,49.40625 -6.72877,25.46874 -10.09375,53.58903 -10.09375,84.34375 0,30.7547 3.3531,58.84376 10.5625,84.3125 5.31992,18.79374 12.74272,34.70725 22.25,47.9375 l 140.96875,0 c 2.59425,-3.19351 4.93013,-6.60612 6.9375,-10.21875 4.56597,-8.40949 8.15936,-18.23851 10.5625,-29.53125 2.40313,-11.05248 4.31781,-25.46993 6,-43.25 l 0,-105.25 C 331.015,128.41156 328.62188,114.95667 326.21875,104.625 323.81562,94.533619 320.21253,85.397696 315.40625,77.46875 313.20206,73.832472 310.63131,70.351481 307.71875,67 L 167.875,67 z"
       id="path3448"
       inkscape:connector-curvature="0" />
    <path
       style="fill:#ffffff;stroke:none"
       d="m 99.125,67 c -11.328038,11.380988 -20.955097,24.563775 -28.84375,39.5625 -14.89943,27.87146 -22.125,60.05308 -22.125,96.09375 0,37.00177 6.98744,68.96463 21.40625,95.875 C 76.531837,311.5384 84.839853,323.02408 94.53125,333 l 73.9375,0 c -9.50728,-13.23025 -16.93008,-29.14376 -22.25,-47.9375 -7.2094,-25.46874 -10.5625,-53.5578 -10.5625,-84.3125 0,-30.75472 3.36498,-58.87501 10.09375,-84.34375 C 150.83535,97.157978 158.23057,80.655175 167.875,67 l -68.75,0 z m 208.59375,0 c 2.91256,3.351481 5.48331,6.832472 7.6875,10.46875 4.80628,7.928946 8.40937,17.064869 10.8125,27.15625 2.40313,10.33167 4.79625,23.78656 6.71875,40.125 l 11.53125,0 c 0,-31.13942 0.16114,-56.914066 0.53125,-77.75 l -37.28125,0 z m 25.21875,183 c -1.68219,17.78007 -3.59687,32.19752 -6,43.25 -2.40314,11.29274 -5.99653,21.12176 -10.5625,29.53125 -2.00737,3.61263 -4.34325,7.02524 -6.9375,10.21875 l 35.59375,0 c -0.38969,-21.96232 -0.5625,-49.48217 -0.5625,-83 l -11.53125,0 z"
       id="path3257"
       inkscape:connector-curvature="0" />
    <path
       style="fill:none;stroke:#00ff00;stroke-width:1px;display:inline"
       d="m 99.125,67 c -11.328038,11.380988 -20.955097,24.563775 -28.84375,39.5625 -14.89943,27.87146 -22.125,60.05308 -22.125,96.09375 0,37.00177 6.98744,68.96463 21.40625,95.875 C 76.531837,311.5384 84.839853,323.02408 94.53125,333 m 73.9375,0 c -9.50728,-13.23025 -16.93008,-29.14376 -22.25,-47.9375 -7.2094,-25.46874 -10.5625,-53.5578 -10.5625,-84.3125 0,-30.75472 3.36498,-58.87501 10.09375,-84.34375 C 150.83535,97.157978 158.23057,80.655175 167.875,67 m 139.84375,0 c 2.91256,3.351481 5.48331,6.832472 7.6875,10.46875 4.80628,7.928946 8.40937,17.064869 10.8125,27.15625 2.40313,10.33167 4.79625,23.78656 6.71875,40.125 l 11.53125,0 c 0,-31.13942 0.16114,-56.914066 0.53125,-77.75 m 0.0313,266 c -0.38969,-21.96232 -0.5625,-49.48217 -0.5625,-83 l -11.53125,0 c -1.68219,17.78007 -3.59687,32.19752 -6,43.25 -2.40314,11.29274 -5.99653,21.12176 -10.5625,29.53125 -2.00737,3.61263 -4.34325,7.02524 -6.9375,10.21875"
       id="path3257-6"
       inkscape:connector-curvature="0"
       sodipodi:nodetypes="ccssccsssccscccccccccc" />
  </g>
  
tmp/TMP.change:<g
     style="display:inline"
     zpos="-180"
     inkscape:label="UKON-001"
     id="g3155"
     inkscape:groupmode="layer"
     sodipodi:insensitive="true">
    <path
       sodipodi:nodetypes="cccc"
       inkscape:connector-curvature="0"
       id="path3153"
       d="m 64.5,67 10,0 285,0 10,0"
       style="fill:none;stroke:#000000;stroke-width:1px;stroke-linecap:square;display:inline" />
    <path
       sodipodi:nodetypes="ccccc"
       inkscape:connector-curvature="0"
       id="path3261"
       d="m 38,365.5 29,0 0,-332 -29,0 z"
       style="fill:#ffffff;stroke:none;display:inline" />
    <path
       style="fill:none;stroke:#000000;stroke-width:1px;stroke-linecap:square;display:inline"
       d="m 333,30.5 0,36"
       id="path3178"
       inkscape:connector-curvature="0"
       sodipodi:nodetypes="cc" />
    <path
       style="fill:none;stroke:#000000;stroke-width:1px;stroke-linecap:square;display:inline"
       d="m 333,333.5 0,36"
       id="C-top-4-6-3"
       inkscape:connector-curvature="0"
       sodipodi:nodetypes="cc" />
    <path
       style="fill:none;stroke:#000000;stroke-width:1px;stroke-linecap:square;display:inline"
       d="m 369.5,333 -10,0 -282,0 -10,0"
       id="path3159"
       inkscape:connector-curvature="0"
       sodipodi:nodetypes="cccc" />
    <path
       sodipodi:nodetypes="cc"
       inkscape:connector-curvature="0"
       id="path3236"
       d="m 67,30.5 0,62"
       style="fill:none;stroke:#000000;stroke-width:1px;stroke-linecap:square;display:inline" />
    <path
       sodipodi:nodetypes="cccc"
       inkscape:connector-curvature="0"
       id="path3234"
       d="m 67,93.5 0,10 0,256 0,10"
       style="fill:none;stroke:#000000;stroke-width:1px;stroke-linecap:square;display:inline" />
  </g>

</svg>
