<?xml version="1.0" encoding="UTF-8" standalone="no"?>
<!-- Created with Inkscape (http://www.inkscape.org/) -->
<svg
   xmlns:dc="http://purl.org/dc/elements/1.1/"
   xmlns:cc="http://creativecommons.org/ns#"
   xmlns:rdf="http://www.w3.org/1999/02/22-rdf-syntax-ns#"
   xmlns:svg="http://www.w3.org/2000/svg"
   xmlns="http://www.w3.org/2000/svg"
   xmlns:sodipodi="http://sodipodi.sourceforge.net/DTD/sodipodi-0.dtd"
   xmlns:inkscape="http://www.inkscape.org/namespaces/inkscape"
   style="display:inline"
   sodipodi:docname="161212_VVVV_00_UW_00_UW_.svg"
   inkscape:version="0.48.3.1 r9886"
   version="1.1"
   id="svg2902"
   height="400"
   width="400">
  <sodipodi:namedview
     id="base"
     pagecolor="#f0f0f0"
     bordercolor="#666666"
     borderopacity="1.0"
     inkscape:pageopacity="1"
     inkscape:pageshadow="2"
     inkscape:zoom="0.8967903"
     inkscape:cx="187.40104"
     inkscape:cy="229.37609"
     inkscape:document-units="px"
     inkscape:current-layer="g3205"
     showgrid="false"
     inkscape:window-width="1018"
     inkscape:window-height="709"
     inkscape:window-x="0"
     inkscape:window-y="1"
     inkscape:window-maximized="0"
     showguides="true"
     inkscape:guide-bbox="true"
     inkscape:snap-bbox="true"
     inkscape:snap-global="false" />
  <defs
     id="defs2904">
    <clipPath
       clipPathUnits="userSpaceOnUse"
       id="clipPath5174">
      <path
         id="path5176"
         style="opacity:0.5;fill:#00ff00;stroke:#00ff00;stroke-width:1px;stroke-linecap:square;display:inline"
         d="m 436.26971,600.11436 -232.09481,134 -169.500003,-293.58262 232.094813,-134 z"
         inkscape:connector-curvature="0"
         sodipodi:nodetypes="ccccc" />
    </clipPath>
    <clipPath
       clipPathUnits="userSpaceOnUse"
       id="clipPath5174-5">
      <path
         id="path5176-9"
         style="opacity:0.5;fill:#00ff00;stroke:#00ff00;stroke-width:1px;stroke-linecap:square;display:inline"
         d="m 436.26971,600.11436 -232.09481,134 -169.500003,-293.58262 232.094813,-134 z"
         inkscape:connector-curvature="0"
         sodipodi:nodetypes="ccccc" />
    </clipPath>
    <clipPath
       clipPathUnits="userSpaceOnUse"
       id="clipPath3238">
      <path
         sodipodi:nodetypes="ccccc"
         inkscape:connector-curvature="0"
         d="m 461.26971,643.41563 -232.09481,134 -169.500002,-293.58262 232.094812,-134 z"
         style="opacity:0.5;fill:#00ff00;stroke:#00ff00;stroke-width:1px;stroke-linecap:square;display:inline"
         id="path3240" />
    </clipPath>
  </defs>
  <metadata
     id="metadata2907">
    <rdf:RDF>
      <cc:Work
         rdf:about="">
        <dc:format>image/svg+xml</dc:format>
        <dc:type
           rdf:resource="http://purl.org/dc/dcmitype/StillImage" />
        <dc:title />
      </cc:Work>
    </rdf:RDF>
  </metadata>
<g
     inkscape:groupmode="layer"
     id="bg"
     inkscape:label="XX_BG"
     sodipodi:insensitive="true">
    <path
       style="fill:#f6ffd5"
       d="M 400,0 400,400 0,400 0,0 z"
       id="bgrect"
       inkscape:connector-curvature="0" />
  </g>
<g
     inkscape:label="XX_Referenz"
     inkscape:groupmode="layer"
     id="XX_referenz"
     style="display:inline"
     sodipodi:insensitive="true">
    <path
       id="innerframe"
       style="fill:none;stroke:#ff0000;stroke-width:1"
       d="m 40.5,40.5 319,0 0,319 -319,0 0,-319 z"
       inkscape:label="#innerframe"
       sodipodi:insensitive="true"
       inkscape:connector-curvature="0" />
    <path
       id="outerframe"
       style="fill:none;stroke:#ff0000;stroke-width:1"
       d="m 30.5,30.5 339,0 0,339 -339,0 0,-339 z"
       inkscape:label="#outerframe"
       sodipodi:nodetypes="ccccc"
       sodipodi:insensitive="true"
       inkscape:connector-curvature="0" />
    <path
       style="opacity:0.5;fill:none;stroke:#ffc200;stroke-width:1px;stroke-linecap:square"
       d="m 189,30.5 0,10"
       id="ref-S-top-1"
       sodipodi:insensitive="true"
       inkscape:connector-curvature="0" />
    <path
       style="opacity:0.5;fill:none;stroke:#ffc200;stroke-width:1px;stroke-linecap:square"
       d="m 191,30.5 0,10"
       id="ref-S-top-2"
       sodipodi:insensitive="true"
       inkscape:connector-curvature="0" />
    <path
       style="opacity:0.5;fill:none;stroke:#ffc200;stroke-width:1px;stroke-linecap:square"
       d="m 209,30.5 0,10"
       id="ref-S-top-3"
       sodipodi:insensitive="true"
       inkscape:connector-curvature="0" />
    <path
       style="opacity:0.5;fill:none;stroke:#ffc200;stroke-width:1px;stroke-linecap:square"
       d="m 211,30.5 0,10"
       id="ref-S-top-4"
       sodipodi:insensitive="true"
       inkscape:connector-curvature="0" />
    <path
       style="opacity:0.5;fill:none;stroke:#00ff00;stroke-width:1px;stroke-linecap:square"
       d="m 199,30.5 0,10"
       id="ref-I-top-1"
       sodipodi:insensitive="true"
       inkscape:connector-curvature="0" />
    <path
       style="opacity:0.5;fill:none;stroke:#00ff00;stroke-width:1px;stroke-linecap:square"
       d="m 201,30.5 0,10"
       id="ref-I-top-2"
       sodipodi:insensitive="true"
       inkscape:connector-curvature="0" />
    <path
       style="opacity:0.5;fill:none;stroke:#00ffcc;stroke-width:1px;stroke-linecap:square"
       d="m 66,30.5 0,10"
       id="ref-C-top-1"
       sodipodi:insensitive="true"
       inkscape:connector-curvature="0" />
    <path
       style="opacity:0.5;fill:none;stroke:#00ffcc;stroke-width:1px;stroke-linecap:square"
       d="m 68,30.5 0,10"
       id="ref-C-top-2"
       sodipodi:insensitive="true"
       inkscape:connector-curvature="0" />
    <path
       style="opacity:0.5;fill:none;stroke:#00ffcc;stroke-width:1px;stroke-linecap:square"
       d="m 92,30.5 0,10"
       id="ref-C-top-3"
       sodipodi:insensitive="true"
       inkscape:connector-curvature="0" />
    <path
       style="opacity:0.5;fill:none;stroke:#00ffcc;stroke-width:1px;stroke-linecap:square"
       d="m 94,30.5 0,10"
       id="ref-C-top-4"
       sodipodi:insensitive="true"
       inkscape:connector-curvature="0" />
    <path
       style="opacity:0.5;fill:none;stroke:#00ffcc;stroke-width:1px;stroke-linecap:square"
       d="m 306,30.5 0,10"
       id="ref-C-top-5"
       sodipodi:insensitive="true"
       inkscape:connector-curvature="0" />
    <path
       style="opacity:0.5;fill:none;stroke:#00ffcc;stroke-width:1px;stroke-linecap:square"
       d="m 308,30.5 0,10"
       id="ref-C-top-6"
       sodipodi:insensitive="true"
       inkscape:connector-curvature="0" />
    <path
       style="opacity:0.5;fill:none;stroke:#00ffcc;stroke-width:1px;stroke-linecap:square"
       d="m 332,30.5 0,10"
       id="ref-C-top-7"
       sodipodi:insensitive="true"
       inkscape:connector-curvature="0" />
    <path
       style="opacity:0.5;fill:none;stroke:#00ffcc;stroke-width:1px;stroke-linecap:square"
       d="m 334,30.5 0,10"
       id="ref-C-top-8"
       sodipodi:insensitive="true"
       inkscape:connector-curvature="0" />
    <path
       style="opacity:0.5;fill:none;stroke:#ffc200;stroke-width:1px;stroke-linecap:square"
       d="m 369.5,189 -10,0"
       id="ref-S-right-1"
       sodipodi:insensitive="true"
       inkscape:connector-curvature="0" />
    <path
       style="opacity:0.5;fill:none;stroke:#ffc200;stroke-width:1px;stroke-linecap:square"
       d="m 369.5,191 -10,0"
       id="ref-S-right-2"
       sodipodi:insensitive="true"
       inkscape:connector-curvature="0" />
    <path
       style="opacity:0.5;fill:none;stroke:#ffc200;stroke-width:1px;stroke-linecap:square"
       d="m 369.5,209 -10,0"
       id="ref-S-right-3"
       sodipodi:insensitive="true"
       inkscape:connector-curvature="0" />
    <path
       style="opacity:0.5;fill:none;stroke:#ffc200;stroke-width:1px;stroke-linecap:square"
       d="m 369.5,211 -10,0"
       id="ref-S-right-4"
       sodipodi:insensitive="true"
       inkscape:connector-curvature="0" />
    <path
       style="opacity:0.5;fill:none;stroke:#00ff00;stroke-width:1px;stroke-linecap:square"
       d="m 369.5,199 -10,0"
       id="ref-I-right-1"
       sodipodi:insensitive="true"
       inkscape:connector-curvature="0" />
    <path
       style="opacity:0.5;fill:none;stroke:#00ff00;stroke-width:1px;stroke-linecap:square"
       d="m 369.5,201 -10,0"
       id="ref-I-right-2"
       sodipodi:insensitive="true"
       inkscape:connector-curvature="0" />
    <path
       style="opacity:0.5;fill:none;stroke:#00ffcc;stroke-width:1px;stroke-linecap:square"
       d="m 369.5,66 -10,0"
       id="ref-C-right-1"
       sodipodi:insensitive="true"
       inkscape:connector-curvature="0" />
    <path
       style="opacity:0.5;fill:none;stroke:#00ffcc;stroke-width:1px;stroke-linecap:square"
       d="m 369.5,68 -10,0"
       id="ref-C-right-2"
       sodipodi:insensitive="true"
       inkscape:connector-curvature="0" />
    <path
       style="opacity:0.5;fill:none;stroke:#00ffcc;stroke-width:1px;stroke-linecap:square"
       d="m 369.5,92 -10,0"
       id="ref-C-right-3"
       sodipodi:insensitive="true"
       inkscape:connector-curvature="0" />
    <path
       style="opacity:0.5;fill:none;stroke:#00ffcc;stroke-width:1px;stroke-linecap:square"
       d="m 369.5,94 -10,0"
       id="ref-C-right-4"
       sodipodi:insensitive="true"
       inkscape:connector-curvature="0" />
    <path
       style="opacity:0.5;fill:none;stroke:#00ffcc;stroke-width:1px;stroke-linecap:square"
       d="m 369.5,306 -10,0"
       id="ref-C-right-5"
       sodipodi:insensitive="true"
       inkscape:connector-curvature="0" />
    <path
       style="opacity:0.5;fill:none;stroke:#00ffcc;stroke-width:1px;stroke-linecap:square"
       d="m 369.5,308 -10,0"
       id="ref-C-right-6"
       sodipodi:insensitive="true"
       inkscape:connector-curvature="0" />
    <path
       style="opacity:0.5;fill:none;stroke:#00ffcc;stroke-width:1px;stroke-linecap:square"
       d="m 369.5,332 -10,0"
       id="ref-C-right-7"
       sodipodi:insensitive="true"
       inkscape:connector-curvature="0" />
    <path
       style="opacity:0.5;fill:none;stroke:#00ffcc;stroke-width:1px;stroke-linecap:square"
       d="m 369.5,334 -10,0"
       id="ref-C-right-8"
       sodipodi:insensitive="true"
       inkscape:connector-curvature="0" />
    <path
       style="opacity:0.5;fill:none;stroke:#ffc200;stroke-width:1px;stroke-linecap:square"
       d="m 189,369.5 0,-10"
       id="ref-S-bottom-1"
       sodipodi:insensitive="true"
       inkscape:connector-curvature="0" />
    <path
       style="opacity:0.5;fill:none;stroke:#ffc200;stroke-width:1px;stroke-linecap:square"
       d="m 191,369.5 0,-10"
       id="ref-S-bottom-2"
       sodipodi:insensitive="true"
       inkscape:connector-curvature="0" />
    <path
       style="opacity:0.5;fill:none;stroke:#ffc200;stroke-width:1px;stroke-linecap:square"
       d="m 209,369.5 0,-10"
       id="ref-S-bottom-3"
       sodipodi:insensitive="true"
       inkscape:connector-curvature="0" />
    <path
       style="opacity:0.5;fill:none;stroke:#ffc200;stroke-width:1px;stroke-linecap:square"
       d="m 211,369.5 0,-10"
       id="ref-S-bottom-4"
       sodipodi:insensitive="true"
       inkscape:connector-curvature="0" />
    <path
       style="opacity:0.5;fill:none;stroke:#00ff00;stroke-width:1px;stroke-linecap:square"
       d="m 199,369.5 0,-10"
       id="ref-I-bottom-1"
       sodipodi:insensitive="true"
       inkscape:connector-curvature="0" />
    <path
       style="opacity:0.5;fill:none;stroke:#00ff00;stroke-width:1px;stroke-linecap:square"
       d="m 201,369.5 0,-10"
       id="ref-I-bottom-2"
       sodipodi:insensitive="true"
       inkscape:connector-curvature="0" />
    <path
       style="opacity:0.5;fill:none;stroke:#00ffcc;stroke-width:1px;stroke-linecap:square"
       d="m 66,369.5 0,-10"
       id="ref-C-bottom-1"
       sodipodi:insensitive="true"
       inkscape:connector-curvature="0" />
    <path
       style="opacity:0.5;fill:none;stroke:#00ffcc;stroke-width:1px;stroke-linecap:square"
       d="m 68,369.5 0,-10"
       id="ref-C-bottom-2"
       sodipodi:insensitive="true"
       inkscape:connector-curvature="0" />
    <path
       style="opacity:0.5;fill:none;stroke:#00ffcc;stroke-width:1px;stroke-linecap:square"
       d="m 92,369.5 0,-10"
       id="ref-C-bottom-3"
       sodipodi:insensitive="true"
       inkscape:connector-curvature="0" />
    <path
       style="opacity:0.5;fill:none;stroke:#00ffcc;stroke-width:1px;stroke-linecap:square"
       d="m 94,369.5 0,-10"
       id="ref-C-bottom-4"
       sodipodi:insensitive="true"
       inkscape:connector-curvature="0" />
    <path
       style="opacity:0.5;fill:none;stroke:#00ffcc;stroke-width:1px;stroke-linecap:square"
       d="m 306,369.5 0,-10"
       id="ref-C-bottom-5"
       sodipodi:insensitive="true"
       inkscape:connector-curvature="0" />
    <path
       style="opacity:0.5;fill:none;stroke:#00ffcc;stroke-width:1px;stroke-linecap:square"
       d="m 308,369.5 0,-10"
       id="ref-C-bottom-6"
       sodipodi:insensitive="true"
       inkscape:connector-curvature="0" />
    <path
       style="opacity:0.5;fill:none;stroke:#00ffcc;stroke-width:1px;stroke-linecap:square"
       d="m 332,369.5 0,-10"
       id="ref-C-bottom-7"
       sodipodi:insensitive="true"
       inkscape:connector-curvature="0" />
    <path
       style="opacity:0.5;fill:none;stroke:#00ffcc;stroke-width:1px;stroke-linecap:square"
       d="m 334,369.5 0,-10"
       id="ref-C-bottom-8"
       sodipodi:insensitive="true"
       inkscape:connector-curvature="0" />
    <path
       style="opacity:0.5;fill:none;stroke:#ffc200;stroke-width:1px;stroke-linecap:square"
       d="m 30.5,189 10,0"
       id="ref-S-left-1"
       sodipodi:insensitive="true"
       inkscape:connector-curvature="0" />
    <path
       style="opacity:0.5;fill:none;stroke:#ffc200;stroke-width:1px;stroke-linecap:square"
       d="m 30.5,191 10,0"
       id="ref-S-left-2"
       sodipodi:insensitive="true"
       inkscape:connector-curvature="0" />
    <path
       style="opacity:0.5;fill:none;stroke:#ffc200;stroke-width:1px;stroke-linecap:square"
       d="m 30.5,209 10,0"
       id="ref-S-left-3"
       sodipodi:insensitive="true"
       inkscape:connector-curvature="0" />
    <path
       style="opacity:0.5;fill:none;stroke:#ffc200;stroke-width:1px;stroke-linecap:square"
       d="m 30.5,211 10,0"
       id="ref-S-left-4"
       sodipodi:insensitive="true"
       inkscape:connector-curvature="0" />
    <path
       style="opacity:0.5;fill:none;stroke:#00ff00;stroke-width:1px;stroke-linecap:square"
       d="m 40.5,199 -10,0"
       id="ref-I-left-1"
       sodipodi:insensitive="true"
       inkscape:connector-curvature="0" />
    <path
       style="opacity:0.5;fill:none;stroke:#00ff00;stroke-width:1px;stroke-linecap:square"
       d="m 40.5,201 -10,0"
       id="ref-I-left-2"
       sodipodi:insensitive="true"
       inkscape:connector-curvature="0" />
    <path
       style="opacity:0.5;fill:none;stroke:#00ffcc;stroke-width:1px;stroke-linecap:square"
       d="m 30.5,66 10,0"
       id="ref-C-left-1"
       sodipodi:insensitive="true"
       inkscape:connector-curvature="0" />
    <path
       style="opacity:0.5;fill:none;stroke:#00ffcc;stroke-width:1px;stroke-linecap:square"
       d="m 30.5,68 10,0"
       id="ref-C-left-2"
       sodipodi:insensitive="true"
       inkscape:connector-curvature="0" />
    <path
       style="opacity:0.5;fill:none;stroke:#00ffcc;stroke-width:1px;stroke-linecap:square"
       d="m 30.5,92 10,0"
       id="ref-C-left-3"
       sodipodi:insensitive="true"
       inkscape:connector-curvature="0" />
    <path
       style="opacity:0.5;fill:none;stroke:#00ffcc;stroke-width:1px;stroke-linecap:square"
       d="m 30.5,94 10,0"
       id="ref-C-left-4"
       sodipodi:insensitive="true"
       inkscape:connector-curvature="0" />
    <path
       style="opacity:0.5;fill:none;stroke:#00ffcc;stroke-width:1px;stroke-linecap:square"
       d="m 30.5,306 10,0"
       id="ref-C-left-5"
       sodipodi:insensitive="true"
       inkscape:connector-curvature="0" />
    <path
       style="opacity:0.5;fill:none;stroke:#00ffcc;stroke-width:1px;stroke-linecap:square"
       d="m 30.5,308 10,0"
       id="ref-C-left-6"
       sodipodi:insensitive="true"
       inkscape:connector-curvature="0" />
    <path
       style="opacity:0.5;fill:none;stroke:#00ffcc;stroke-width:1px;stroke-linecap:square"
       d="m 30.5,332 10,0"
       id="ref-C-left-7"
       sodipodi:insensitive="true"
       inkscape:connector-curvature="0" />
    <path
       style="opacity:0.5;fill:none;stroke:#00ffcc;stroke-width:1px;stroke-linecap:square"
       d="m 30.5,334 10,0"
       id="ref-C-left-8"
       sodipodi:insensitive="true"
       inkscape:connector-curvature="0" />
    <path
       style="fill:none;stroke:#000000;stroke-width:1px;stroke-linecap:square"
       d="m 190,30.5 0,10"
       id="S-top-1"
       inkscape:connector-curvature="0" />
    <path
       style="fill:none;stroke:#000000;stroke-width:1px;stroke-linecap:square"
       d="m 210,30.5 0,10"
       id="S-top-2"
       inkscape:connector-curvature="0" />
    <path
       style="fill:none;stroke:#000000;stroke-width:1px;stroke-linecap:square"
       d="m 369.5,190 -10,0"
       id="S-right-1"
       inkscape:connector-curvature="0" />
    <path
       style="fill:none;stroke:#000000;stroke-width:1px;stroke-linecap:square"
       d="m 369.5,210 -10,0"
       id="S-right-2"
       inkscape:connector-curvature="0" />
    <path
       style="fill:none;stroke:#000000;stroke-width:1px;stroke-linecap:square"
       d="m 190,369.5 0,-10"
       id="S-bottom-1"
       inkscape:connector-curvature="0" />
    <path
       style="fill:none;stroke:#000000;stroke-width:1px;stroke-linecap:square"
       d="m 210,369.5 0,-10"
       id="S-bottom-2"
       inkscape:connector-curvature="0" />
    <path
       style="fill:none;stroke:#000000;stroke-width:1px;stroke-linecap:square"
       d="m 30.5,190 10,0"
       id="S-left-1"
       inkscape:connector-curvature="0" />
    <path
       style="fill:none;stroke:#000000;stroke-width:1px;stroke-linecap:square"
       d="m 30.5,210 10,0"
       id="S-left-2"
       inkscape:connector-curvature="0" />
    <path
       style="fill:none;stroke:#000000;stroke-width:1px;stroke-linecap:square"
       d="m 200,30.5 0,10"
       id="I-top-1"
       inkscape:connector-curvature="0" />
    <path
       style="fill:none;stroke:#000000;stroke-width:1px;stroke-linecap:square"
       d="m 369.5,200 -10,0"
       id="I-right-1"
       inkscape:connector-curvature="0" />
    <path
       style="fill:none;stroke:#000000;stroke-width:1px;stroke-linecap:square"
       d="m 200,369.5 0,-10"
       id="I-bottom-1"
       inkscape:connector-curvature="0" />
    <path
       style="fill:none;stroke:#000000;stroke-width:1px;stroke-linecap:square"
       d="m 40.5,200 -10,0"
       id="I-left-1"
       inkscape:connector-curvature="0" />
    <path
       style="fill:none;stroke:#000000;stroke-width:1px;stroke-linecap:square"
       d="m 67,30.5 0,10"
       id="C-top-1"
       inkscape:connector-curvature="0" />
    <path
       style="fill:none;stroke:#000000;stroke-width:1px;stroke-linecap:square"
       d="m 93,30.5 0,10"
       id="C-top-2"
       inkscape:connector-curvature="0" />
    <path
       style="fill:none;stroke:#000000;stroke-width:1px;stroke-linecap:square"
       d="m 307,30.5 0,10"
       id="C-top-3"
       inkscape:connector-curvature="0" />
    <path
       style="fill:none;stroke:#000000;stroke-width:1px;stroke-linecap:square"
       d="m 333,30.5 0,10"
       id="C-top-4"
       inkscape:connector-curvature="0" />
    <path
       style="fill:none;stroke:#000000;stroke-width:1px;stroke-linecap:square"
       d="m 369.5,67 -10,0"
       id="C-right-1"
       inkscape:connector-curvature="0" />
    <path
       style="fill:none;stroke:#000000;stroke-width:1px;stroke-linecap:square"
       d="m 369.5,93 -10,0"
       id="C-right-2"
       inkscape:connector-curvature="0" />
    <path
       style="fill:none;stroke:#000000;stroke-width:1px;stroke-linecap:square"
       d="m 369.5,307 -10,0"
       id="C-right-3"
       inkscape:connector-curvature="0" />
    <path
       style="fill:none;stroke:#000000;stroke-width:1px;stroke-linecap:square"
       d="m 369.5,333 -10,0"
       id="C-right-4"
       inkscape:connector-curvature="0" />
    <path
       style="fill:none;stroke:#000000;stroke-width:1px;stroke-linecap:square"
       d="m 67,369.5 0,-10"
       id="C-bottom-1"
       inkscape:connector-curvature="0" />
    <path
       style="fill:none;stroke:#000000;stroke-width:1px;stroke-linecap:square"
       d="m 93,369.5 0,-10"
       id="C-bottom-2"
       inkscape:connector-curvature="0" />
    <path
       style="fill:none;stroke:#000000;stroke-width:1px;stroke-linecap:square"
       d="m 307,369.5 0,-10"
       id="C-bottom-3"
       inkscape:connector-curvature="0" />
    <path
       style="fill:none;stroke:#000000;stroke-width:1px;stroke-linecap:square"
       d="m 333,369.5 0,-10"
       id="C-bottom-4"
       inkscape:connector-curvature="0" />
    <path
       style="fill:none;stroke:#000000;stroke-width:1px;stroke-linecap:square"
       d="m 30.5,67 10,0"
       id="C-left-1"
       inkscape:connector-curvature="0" />
    <path
       style="fill:none;stroke:#000000;stroke-width:1px;stroke-linecap:square"
       d="m 30.5,93 10,0"
       id="C-left-2"
       inkscape:connector-curvature="0" />
    <path
       style="fill:none;stroke:#000000;stroke-width:1px;stroke-linecap:square"
       d="m 30.5,307 10,0"
       id="C-left-3"
       inkscape:connector-curvature="0" />
    <path
       style="fill:none;stroke:#000000;stroke-width:1px;stroke-linecap:square"
       d="m 30.5,333 10,0"
       id="C-left-4"
       inkscape:connector-curvature="0" />
  </g>
<g
     inkscape:groupmode="layer"
     id="g3149"
     inkscape:label="OKON-001"
     zpos="-300"
     style="display:inline"
     sodipodi:insensitive="true">
    <path
       sodipodi:nodetypes="ccccc"
       inkscape:connector-curvature="0"
       id="path3147"
       d="m 30.5,307 0,26 339,0 0,-26 z"
       style="fill:#ffffff;stroke:none;display:inline" />
    <path
       style="fill:#ffffff;stroke:none;display:inline"
       d="m 30.5,67 0,26 339,0 0,-26 z"
       id="path3118"
       inkscape:connector-curvature="0"
       sodipodi:nodetypes="ccccc" />
    <path
       style="fill:none;stroke:#000000;stroke-width:1px;stroke-linecap:square;display:inline"
       d="m 30.5,93 10,0 319,0 10,0"
       id="C-left-2-6"
       inkscape:connector-curvature="0"
       sodipodi:nodetypes="cccc" />
    <path
       style="fill:none;stroke:#000000;stroke-width:1px;stroke-linecap:square;display:inline"
       d="m 369.5,307 -10,0 -319,0 -10,0"
       id="C-right-3-7"
       inkscape:connector-curvature="0"
       sodipodi:nodetypes="cccc" />
  </g>
<g
     zpos="-200"
     style="display:none"
     inkscape:label="VVVV-001"
     id="g3125"
     inkscape:groupmode="layer"
     sodipodi:insensitive="true">
    <path
       style="fill:#ffffff;stroke:none"
       d="m 93.46875,67 c 0.193783,1.231916 0.484042,2.51462 0.9375,3.875 L 182.875,333 l 31.71875,0 86.25,-259.375 c 0.82641,-2.479241 1.3425,-4.655402 1.59375,-6.625 L 272.65625,67 197.625,289.96875 123.03125,67 93.46875,67 z"
       id="path3136"
       inkscape:connector-curvature="0" />
    <path
       style="fill:none;stroke:#00ff00;stroke-width:1px;display:inline"
       d="m 93.46875,67 c 0.193783,1.231916 0.484042,2.51462 0.9375,3.875 L 182.875,333 m 31.71875,0 86.25,-259.375 c 0.82641,-2.479241 1.3425,-4.655402 1.59375,-6.625 M 272.65625,67 197.625,289.96875 123.03125,67"
       id="path3136-6"
       inkscape:connector-curvature="0"
       sodipodi:nodetypes="ccccccccc" />
  </g>
<g
     zpos="-200"
     style="display:none"
     inkscape:label="VVVV-002"
     id="g3141"
     inkscape:groupmode="layer"
     sodipodi:insensitive="true">
    <path
       style="fill:#ffffff;stroke:none"
       d="m 104.71875,67 c -0.3066,3.828251 -0.3125,12.190277 -0.3125,36.21875 l 0,35.21875 1.21875,2.84375 c 0.81,2.02499 18.22002,46.57005 38.875,99.625 16.84611,43.79989 31.114,80.11889 35.875,92.09375 l 39.4375,0 c 5.39239,-13.68851 19.75562,-51.00854 36.875,-94.9375 l 38.90625,-100.03125 0,-36.03125 c 0,-21.69521 4.2e-4,-30.671164 -0.3125,-35 l -37.875,0 c -0.29773,3.639338 -0.3125,11.300019 -0.3125,32.5625 l 0,31.1875 -28.34375,72.90625 c -15.79498,39.68996 -28.345,72.47 -28.75,72.875 0,0 -12.54877,-32.37379 -28.34375,-72.46875 l -28.34375,-72.5 0,-32.8125 C 143.3125,79.319894 143.29834,71.082948 143,67 l -38.28125,0 z"
       id="path3152"
       inkscape:connector-curvature="0" />
    <path
       style="fill:none;stroke:#00ff00;stroke-width:1px;display:inline"
       d="m 257.40625,67 c -0.29773,3.639338 -0.3125,11.300019 -0.3125,32.5625 l 0,31.1875 -28.34375,72.90625 c -15.79498,39.68996 -28.345,72.47 -28.75,72.875 0,0 -12.54877,-32.37379 -28.34375,-72.46875 l -28.34375,-72.5 0,-32.8125 C 143.3125,79.319894 143.29834,71.082948 143,67 m -38.28125,0 c -0.3066,3.828251 -0.3125,12.190277 -0.3125,36.21875 l 0,35.21875 1.21875,2.84375 c 0.81,2.02499 18.22002,46.57005 38.875,99.625 16.84611,43.79989 31.114,80.11889 35.875,92.09375 m 39.4375,0 c 5.39239,-13.68851 19.75562,-51.00854 36.875,-94.9375 l 38.90625,-100.03125 0,-36.03125 c 0,-21.69521 4.2e-4,-30.671164 -0.3125,-35"
       id="path3152-5"
       inkscape:connector-curvature="0"
       sodipodi:nodetypes="cscccccsccscccccccsc" />
  </g>
<g
     zpos="-200"
     style="display:inline"
     inkscape:label="VVVV-003"
     id="g3157"
     inkscape:groupmode="layer"
     sodipodi:insensitive="true">
    <path
       style="fill:#ffffff;stroke:none"
       d="m 79.78125,67 c -5.97176,5.627367 -8.96875,12.935521 -8.96875,21.9375 0,5.67027 1.331249,11.60276 4.03125,17.8125 L 166.375,326.65625 c 0.93586,2.24041 1.91082,4.33866 2.90625,6.34375 l 63.84375,0 c 0.99614,-2.00623 1.96976,-4.1019 2.90625,-6.34375 L 328.78125,103.5 c 1.88974,-4.85974 2.84349,-9.70223 2.84375,-14.5625 -2.6e-4,-8.90972 -3.37526,-16.20471 -10.125,-21.875 -0.0221,-0.01942 -0.0404,-0.04315 -0.0625,-0.0625 l -48.71875,0 C 267.1858,71.80914 262.64277,78.578644 259.125,87.3125 L 200,235.125 140.46875,87.3125 C 136.95087,78.578644 132.44694,71.80914 126.96875,67 l -47.1875,0 z"
       id="path3168"
       inkscape:connector-curvature="0" />
    <path
       style="fill:none;stroke:#00ff00;stroke-width:1px;display:inline"
       d="m 79.78125,67 c -5.97176,5.627367 -8.96875,12.935521 -8.96875,21.9375 0,5.67027 1.331249,11.60276 4.03125,17.8125 L 166.375,326.65625 c 0.93586,2.24041 1.91082,4.33866 2.90625,6.34375 m 63.84375,0 c 0.99614,-2.00623 1.96976,-4.1019 2.90625,-6.34375 L 328.78125,103.5 c 1.88974,-4.85974 2.84349,-9.70223 2.84375,-14.5625 -2.6e-4,-8.90972 -3.37526,-16.20471 -10.125,-21.875 -0.0221,-0.01942 -0.0404,-0.04315 -0.0625,-0.0625 m -48.71875,0 C 267.1858,71.80914 262.64277,78.578644 259.125,87.3125 L 200,235.125 140.46875,87.3125 C 136.95087,78.578644 132.44694,71.80914 126.96875,67"
       id="path3168-5"
       inkscape:connector-curvature="0"
       sodipodi:nodetypes="cscccccccccccccc" />
  </g>
<g
     zpos="-200"
     style="display:none"
     inkscape:label="VVVV-004"
     id="g3173"
     inkscape:groupmode="layer"
     sodipodi:insensitive="true">
    <path
       style="fill:#ffffff;stroke:none"
       d="m 70.71875,67 94.8125,266 53.5,0 95.03125,-266 -50.90625,0 -65.21875,199.25 -4.96875,20.5625 -1.1875,0 -5.125,-20.96875 L 121.625,67 70.71875,67 z"
       id="path3184"
       inkscape:connector-curvature="0" />
    <path
       style="fill:none;stroke:#00ff00;stroke-width:1px;display:inline"
       d="m 70.71875,67 94.8125,266 m 53.5,0 95.03125,-266 m -50.90625,0 -65.21875,199.25 -4.96875,20.5625 -1.1875,0 -5.125,-20.96875 L 121.625,67"
       id="path3184-2"
       inkscape:connector-curvature="0"
       sodipodi:nodetypes="cccccccccc" />
  </g>
<g
     zpos="-200"
     style="display:none"
     inkscape:label="VVVV-006"
     id="g3189"
     inkscape:groupmode="layer"
     sodipodi:insensitive="true">
    <path
       style="fill:#ffffff;stroke:none"
       d="m 116.96875,67 c -1.97488,1.632182 -3.90264,3.371388 -5.78125,5.25 -14.03998,14.03999 -20.875,28.81752 -20.875,43.9375 0,8.63999 2.52126,15.83501 8.28125,20.875 5.4,5.4 13.69876,7.9375 25.21875,7.9375 -3.59999,-6.83999 -5.40625,-14.76626 -5.40625,-23.40625 0,-12.95999 2.86501,-25.55751 8.625,-37.4375 C 131.86306,74.492636 138.73603,68.642564 147.625,67 l -30.65625,0 z m 40.8125,0 c 5.74592,1.27192 9.89745,4.942251 12.46875,10.65625 2.88,7.19999 4.3275,18.00751 4.6875,31.6875 0,24.47998 -3.6125,50.38878 -10.8125,78.46875 -7.19999,28.07997 -14.39375,53.29002 -21.59375,75.25 -7.19999,21.95998 -10.8125,37.45251 -10.8125,46.8125 -0.32001,10.56024 2.78284,18.25391 8.53125,23.125 l 55.25,0 c 12.44362,-7.13792 25.7428,-18.54408 39.90625,-34.28125 25.91998,-28.79997 47.87502,-62.30879 65.875,-100.46875 17.99998,-37.79996 27,-69.47127 27,-95.03125 C 328.28125,89.53876 325.4,78.01499 320,69.375 319.44218,68.538268 318.87738,67.755318 318.3125,67 l -36.375,0 c -2.44287,2.818233 -4.52316,6.122427 -6.21875,9.9375 15.83999,5.4 24.125,19.80377 24.125,42.84375 0,18.71998 -4.67126,39.95753 -14.03125,64.4375 -9.35999,24.47998 -20.54001,47.16752 -33.5,67.6875 -12.95998,20.51998 -26.97501,37.78752 -41.375,52.1875 -14.75998,14.39999 -27.03001,21.625 -36.75,21.625 -3.59999,0 -5.7325,-0.74625 -6.8125,-2.90625 -1.44,-1.8 -1.8125,-5.02375 -1.8125,-9.34375 -0.36,-11.51999 3.61251,-28.80252 10.8125,-52.5625 7.2,-23.39998 14.75251,-48.23503 22.3125,-74.875 7.2,-26.63997 11.15625,-48.95127 11.15625,-68.03125 0,-20.87998 -4.32876,-37.08876 -12.96875,-48.96875 C 196.35276,68.334928 195.82979,67.656816 195.28125,67 l -37.5,0 z"
       id="path3200"
       inkscape:connector-curvature="0" />
    <path
       style="fill:none;stroke:#00ff00;stroke-width:1px;display:inline"
       d="m 116.96875,67 c -1.97488,1.632182 -3.90264,3.371388 -5.78125,5.25 -14.03998,14.03999 -20.875,28.81752 -20.875,43.9375 0,8.63999 2.52126,15.83501 8.28125,20.875 5.4,5.4 13.69876,7.9375 25.21875,7.9375 -3.59999,-6.83999 -5.40625,-14.76626 -5.40625,-23.40625 0,-12.95999 2.86501,-25.55751 8.625,-37.4375 C 131.86306,74.492636 138.73603,68.642564 147.625,67 m 10.15625,0 c 5.74592,1.27192 9.89745,4.942251 12.46875,10.65625 2.88,7.19999 4.3275,18.00751 4.6875,31.6875 0,24.47998 -3.6125,50.38878 -10.8125,78.46875 -7.19999,28.07997 -14.39375,53.29002 -21.59375,75.25 -7.19999,21.95998 -10.8125,37.45251 -10.8125,46.8125 -0.32001,10.56024 2.78284,18.25391 8.53125,23.125 m 55.25,0 c 12.44362,-7.13792 25.7428,-18.54408 39.90625,-34.28125 25.91998,-28.79997 47.87502,-62.30879 65.875,-100.46875 17.99998,-37.79996 27,-69.47127 27,-95.03125 C 328.28125,89.53876 325.4,78.01499 320,69.375 319.44218,68.538268 318.87738,67.755318 318.3125,67 m -36.375,0 c -2.44287,2.818233 -4.52316,6.122427 -6.21875,9.9375 15.83999,5.4 24.125,19.80377 24.125,42.84375 0,18.71998 -4.67126,39.95753 -14.03125,64.4375 -9.35999,24.47998 -20.54001,47.16752 -33.5,67.6875 -12.95998,20.51998 -26.97501,37.78752 -41.375,52.1875 -14.75998,14.39999 -27.03001,21.625 -36.75,21.625 -3.59999,0 -5.7325,-0.74625 -6.8125,-2.90625 -1.44,-1.8 -1.8125,-5.02375 -1.8125,-9.34375 -0.36,-11.51999 3.61251,-28.80252 10.8125,-52.5625 7.2,-23.39998 14.75251,-48.23503 22.3125,-74.875 7.2,-26.63997 11.15625,-48.95127 11.15625,-68.03125 0,-20.87998 -4.32876,-37.08876 -12.96875,-48.96875 C 196.35276,68.334928 195.82979,67.656816 195.28125,67"
       id="path3200-1"
       inkscape:connector-curvature="0"
       sodipodi:nodetypes="cssccscccccsscccscsccccssscsccccscc" />
  </g>
<g
     zpos="-200"
     style="display:none"
     inkscape:label="VVVV-008"
     id="g3205"
     inkscape:groupmode="layer"
     sodipodi:insensitive="true">
    <path
       style="fill:#ffffff;stroke:none"
       d="m 61.53125,67 0,2.5 c 10.15624,0.58593 18.54688,9.18752 25.1875,25.59375 L 183.625,333 221.03125,333 301,116.96875 C 305.88281,103.29689 311.52344,92.55468 317.96875,84.9375 324.41406,77.32032 330.85938,72.23437 337.5,69.5 l 0,-2.5 -80.25,0 0,2.5 c 10.93749,0.39062 19.33595,2.92969 25,7.8125 5.66406,5.07812 8.59375,12.88282 8.59375,23.625 0,12.10936 -3.73438,28.32033 -11.15625,48.4375 l -49.21875,132.8125 -70.6875,-179.09375 c -3.12499,-8.00781 -4.6875,-14.25782 -4.6875,-18.75 0,-5.46875 2.14063,-9.17187 6.4375,-11.125 4.29687,-1.95312 11.53127,-3.32813 21.6875,-3.71875 l 0,-2.5 -121.6875,0 z"
       id="path3216"
       inkscape:connector-curvature="0" />
    <path
       style="fill:none;stroke:#00ff00;stroke-width:1px;display:inline"
       d="m 61.53125,67 0,2.5 c 10.15624,0.58593 18.54688,9.18752 25.1875,25.59375 L 183.625,333 m 37.40625,0 L 301,116.96875 C 305.88281,103.29689 311.52344,92.55468 317.96875,84.9375 324.41406,77.32032 330.85938,72.23437 337.5,69.5 l 0,-2.5 m -80.25,0 0,2.5 c 10.93749,0.39062 19.33595,2.92969 25,7.8125 5.66406,5.07812 8.59375,12.88282 8.59375,23.625 0,12.10936 -3.73438,28.32033 -11.15625,48.4375 l -49.21875,132.8125 -70.6875,-179.09375 c -3.12499,-8.00781 -4.6875,-14.25782 -4.6875,-18.75 0,-5.46875 2.14063,-9.17187 6.4375,-11.125 4.29687,-1.95312 11.53127,-3.32813 21.6875,-3.71875 l 0,-2.5"
       id="path3216-7"
       inkscape:connector-curvature="0"
       sodipodi:nodetypes="ccccccscccccscccsscc" />
  </g>
<g
     style="display:inline"
     zpos="-180"
     inkscape:label="UKON-001"
     id="g3155"
     inkscape:groupmode="layer"
     sodipodi:insensitive="true">
    <path
       style="fill:none;stroke:#000000;stroke-width:1px;stroke-linecap:square;display:inline"
       d="m 369.5,333 -10,0 -319,0 -10,0"
       id="path3159"
       inkscape:connector-curvature="0"
       sodipodi:nodetypes="cccc" />
    <path
       sodipodi:nodetypes="cccc"
       inkscape:connector-curvature="0"
       id="path3153"
       d="m 30.5,67 10,0 319,0 10,0"
       style="fill:none;stroke:#000000;stroke-width:1px;stroke-linecap:square;display:inline" />
  </g>
</svg>
