<?xml version="1.0" encoding="UTF-8" standalone="no"?>
<!-- Created with Inkscape (http://www.inkscape.org/) -->
<svg
   xmlns:dc="http://purl.org/dc/elements/1.1/"
   xmlns:cc="http://creativecommons.org/ns#"
   xmlns:rdf="http://www.w3.org/1999/02/22-rdf-syntax-ns#"
   xmlns:svg="http://www.w3.org/2000/svg"
   xmlns="http://www.w3.org/2000/svg"
   xmlns:sodipodi="http://sodipodi.sourceforge.net/DTD/sodipodi-0.dtd"
   xmlns:inkscape="http://www.inkscape.org/namespaces/inkscape"
   style="display:inline"
   sodipodi:docname="181212_WWWW-MR+_00_CB_00_CB_.svg"
   inkscape:version="0.48.3.1 r9886"
   version="1.1"
   id="svg2902"
   height="400"
   width="400"><sodipodi:namedview
   id="base"
   pagecolor="#f0f0f0"
   bordercolor="#666666"
   borderopacity="1.0"
   inkscape:pageopacity="1"
   inkscape:pageshadow="2"
   inkscape:zoom="0.81917532"
   inkscape:cx="286.33681"
   inkscape:cy="171.25413"
   inkscape:document-units="px"
   inkscape:current-layer="g3337"
   showgrid="false"
   inkscape:window-width="1018"
   inkscape:window-height="709"
   inkscape:window-x="0"
   inkscape:window-y="1"
   inkscape:window-maximized="0"
   showguides="true"
   inkscape:guide-bbox="true"
   inkscape:snap-bbox="true"
   inkscape:snap-global="false" />
<defs
   id="defs2904">
  <clipPath
     clipPathUnits="userSpaceOnUse"
     id="clipPath5174">
    <path
       id="path5176"
       style="opacity:0.5;fill:#00ff00;stroke:#00ff00;stroke-width:1px;stroke-linecap:square;display:inline"
       d="m 436.26971,600.11436 -232.09481,134 -169.500003,-293.58262 232.094813,-134 z"
       inkscape:connector-curvature="0"
       sodipodi:nodetypes="ccccc" />
  </clipPath>
  <clipPath
     clipPathUnits="userSpaceOnUse"
     id="clipPath5174-5">
    <path
       id="path5176-9"
       style="opacity:0.5;fill:#00ff00;stroke:#00ff00;stroke-width:1px;stroke-linecap:square;display:inline"
       d="m 436.26971,600.11436 -232.09481,134 -169.500003,-293.58262 232.094813,-134 z"
       inkscape:connector-curvature="0"
       sodipodi:nodetypes="ccccc" />
  </clipPath>
  <clipPath
     clipPathUnits="userSpaceOnUse"
     id="clipPath3238">
    <path
       sodipodi:nodetypes="ccccc"
       inkscape:connector-curvature="0"
       d="m 461.26971,643.41563 -232.09481,134 -169.500002,-293.58262 232.094812,-134 z"
       style="opacity:0.5;fill:#00ff00;stroke:#00ff00;stroke-width:1px;stroke-linecap:square;display:inline"
       id="path3240" />
  </clipPath>
  <clipPath
     clipPathUnits="userSpaceOnUse"
     id="clipPath3277">
    <path
       sodipodi:nodetypes="ccccc"
       inkscape:connector-curvature="0"
       d="m 399.5,67 0,265 -409,0 0,-265 z"
       style="opacity:0.5;fill:#00ff00;stroke:none;display:inline"
       id="path3279" />
  </clipPath>
</defs>
<metadata
   id="metadata2907">
  <rdf:RDF>
    <cc:Work
       rdf:about="">
      <dc:format>image/svg+xml</dc:format>
      <dc:type
         rdf:resource="http://purl.org/dc/dcmitype/StillImage" />
      <dc:title />
    </cc:Work>
  </rdf:RDF>
</metadata>
<g
   inkscape:groupmode="layer"
   id="bg"
   inkscape:label="XX_BG"
   sodipodi:insensitive="true">
  <path
     style="fill:#f6ffd5"
     d="M 400,0 400,400 0,400 0,0 z"
     id="bgrect"
     inkscape:connector-curvature="0" />
</g>
<g
   inkscape:label="XX_Referenz"
   inkscape:groupmode="layer"
   id="XX_referenz"
   style="display:inline"
   sodipodi:insensitive="true">
  <path
     id="innerframe"
     style="fill:none;stroke:#ff0000;stroke-width:1"
     d="m 40.5,40.5 319,0 0,319 -319,0 0,-319 z"
     inkscape:label="#innerframe"
     sodipodi:insensitive="true"
     inkscape:connector-curvature="0" />
  <path
     id="outerframe"
     style="fill:none;stroke:#ff0000;stroke-width:1"
     d="m 30.5,30.5 339,0 0,339 -339,0 0,-339 z"
     inkscape:label="#outerframe"
     sodipodi:nodetypes="ccccc"
     sodipodi:insensitive="true"
     inkscape:connector-curvature="0" />
  <path
     style="opacity:0.5;fill:none;stroke:#ffc200;stroke-width:1px;stroke-linecap:square"
     d="m 189,30.5 0,10"
     id="ref-S-top-1"
     sodipodi:insensitive="true"
     inkscape:connector-curvature="0" />
  <path
     style="opacity:0.5;fill:none;stroke:#ffc200;stroke-width:1px;stroke-linecap:square"
     d="m 191,30.5 0,10"
     id="ref-S-top-2"
     sodipodi:insensitive="true"
     inkscape:connector-curvature="0" />
  <path
     style="opacity:0.5;fill:none;stroke:#ffc200;stroke-width:1px;stroke-linecap:square"
     d="m 209,30.5 0,10"
     id="ref-S-top-3"
     sodipodi:insensitive="true"
     inkscape:connector-curvature="0" />
  <path
     style="opacity:0.5;fill:none;stroke:#ffc200;stroke-width:1px;stroke-linecap:square"
     d="m 211,30.5 0,10"
     id="ref-S-top-4"
     sodipodi:insensitive="true"
     inkscape:connector-curvature="0" />
  <path
     style="opacity:0.5;fill:none;stroke:#00ff00;stroke-width:1px;stroke-linecap:square"
     d="m 199,30.5 0,10"
     id="ref-I-top-1"
     sodipodi:insensitive="true"
     inkscape:connector-curvature="0" />
  <path
     style="opacity:0.5;fill:none;stroke:#00ff00;stroke-width:1px;stroke-linecap:square"
     d="m 201,30.5 0,10"
     id="ref-I-top-2"
     sodipodi:insensitive="true"
     inkscape:connector-curvature="0" />
  <path
     style="opacity:0.5;fill:none;stroke:#00ffcc;stroke-width:1px;stroke-linecap:square"
     d="m 66,30.5 0,10"
     id="ref-C-top-1"
     sodipodi:insensitive="true"
     inkscape:connector-curvature="0" />
  <path
     style="opacity:0.5;fill:none;stroke:#00ffcc;stroke-width:1px;stroke-linecap:square"
     d="m 68,30.5 0,10"
     id="ref-C-top-2"
     sodipodi:insensitive="true"
     inkscape:connector-curvature="0" />
  <path
     style="opacity:0.5;fill:none;stroke:#00ffcc;stroke-width:1px;stroke-linecap:square"
     d="m 92,30.5 0,10"
     id="ref-C-top-3"
     sodipodi:insensitive="true"
     inkscape:connector-curvature="0" />
  <path
     style="opacity:0.5;fill:none;stroke:#00ffcc;stroke-width:1px;stroke-linecap:square"
     d="m 94,30.5 0,10"
     id="ref-C-top-4"
     sodipodi:insensitive="true"
     inkscape:connector-curvature="0" />
  <path
     style="opacity:0.5;fill:none;stroke:#00ffcc;stroke-width:1px;stroke-linecap:square"
     d="m 306,30.5 0,10"
     id="ref-C-top-5"
     sodipodi:insensitive="true"
     inkscape:connector-curvature="0" />
  <path
     style="opacity:0.5;fill:none;stroke:#00ffcc;stroke-width:1px;stroke-linecap:square"
     d="m 308,30.5 0,10"
     id="ref-C-top-6"
     sodipodi:insensitive="true"
     inkscape:connector-curvature="0" />
  <path
     style="opacity:0.5;fill:none;stroke:#00ffcc;stroke-width:1px;stroke-linecap:square"
     d="m 332,30.5 0,10"
     id="ref-C-top-7"
     sodipodi:insensitive="true"
     inkscape:connector-curvature="0" />
  <path
     style="opacity:0.5;fill:none;stroke:#00ffcc;stroke-width:1px;stroke-linecap:square"
     d="m 334,30.5 0,10"
     id="ref-C-top-8"
     sodipodi:insensitive="true"
     inkscape:connector-curvature="0" />
  <path
     style="opacity:0.5;fill:none;stroke:#ffc200;stroke-width:1px;stroke-linecap:square"
     d="m 369.5,189 -10,0"
     id="ref-S-right-1"
     sodipodi:insensitive="true"
     inkscape:connector-curvature="0" />
  <path
     style="opacity:0.5;fill:none;stroke:#ffc200;stroke-width:1px;stroke-linecap:square"
     d="m 369.5,191 -10,0"
     id="ref-S-right-2"
     sodipodi:insensitive="true"
     inkscape:connector-curvature="0" />
  <path
     style="opacity:0.5;fill:none;stroke:#ffc200;stroke-width:1px;stroke-linecap:square"
     d="m 369.5,209 -10,0"
     id="ref-S-right-3"
     sodipodi:insensitive="true"
     inkscape:connector-curvature="0" />
  <path
     style="opacity:0.5;fill:none;stroke:#ffc200;stroke-width:1px;stroke-linecap:square"
     d="m 369.5,211 -10,0"
     id="ref-S-right-4"
     sodipodi:insensitive="true"
     inkscape:connector-curvature="0" />
  <path
     style="opacity:0.5;fill:none;stroke:#00ff00;stroke-width:1px;stroke-linecap:square"
     d="m 369.5,199 -10,0"
     id="ref-I-right-1"
     sodipodi:insensitive="true"
     inkscape:connector-curvature="0" />
  <path
     style="opacity:0.5;fill:none;stroke:#00ff00;stroke-width:1px;stroke-linecap:square"
     d="m 369.5,201 -10,0"
     id="ref-I-right-2"
     sodipodi:insensitive="true"
     inkscape:connector-curvature="0" />
  <path
     style="opacity:0.5;fill:none;stroke:#00ffcc;stroke-width:1px;stroke-linecap:square"
     d="m 369.5,66 -10,0"
     id="ref-C-right-1"
     sodipodi:insensitive="true"
     inkscape:connector-curvature="0" />
  <path
     style="opacity:0.5;fill:none;stroke:#00ffcc;stroke-width:1px;stroke-linecap:square"
     d="m 369.5,68 -10,0"
     id="ref-C-right-2"
     sodipodi:insensitive="true"
     inkscape:connector-curvature="0" />
  <path
     style="opacity:0.5;fill:none;stroke:#00ffcc;stroke-width:1px;stroke-linecap:square"
     d="m 369.5,92 -10,0"
     id="ref-C-right-3"
     sodipodi:insensitive="true"
     inkscape:connector-curvature="0" />
  <path
     style="opacity:0.5;fill:none;stroke:#00ffcc;stroke-width:1px;stroke-linecap:square"
     d="m 369.5,94 -10,0"
     id="ref-C-right-4"
     sodipodi:insensitive="true"
     inkscape:connector-curvature="0" />
  <path
     style="opacity:0.5;fill:none;stroke:#00ffcc;stroke-width:1px;stroke-linecap:square"
     d="m 369.5,306 -10,0"
     id="ref-C-right-5"
     sodipodi:insensitive="true"
     inkscape:connector-curvature="0" />
  <path
     style="opacity:0.5;fill:none;stroke:#00ffcc;stroke-width:1px;stroke-linecap:square"
     d="m 369.5,308 -10,0"
     id="ref-C-right-6"
     sodipodi:insensitive="true"
     inkscape:connector-curvature="0" />
  <path
     style="opacity:0.5;fill:none;stroke:#00ffcc;stroke-width:1px;stroke-linecap:square"
     d="m 369.5,332 -10,0"
     id="ref-C-right-7"
     sodipodi:insensitive="true"
     inkscape:connector-curvature="0" />
  <path
     style="opacity:0.5;fill:none;stroke:#00ffcc;stroke-width:1px;stroke-linecap:square"
     d="m 369.5,334 -10,0"
     id="ref-C-right-8"
     sodipodi:insensitive="true"
     inkscape:connector-curvature="0" />
  <path
     style="opacity:0.5;fill:none;stroke:#ffc200;stroke-width:1px;stroke-linecap:square"
     d="m 189,369.5 0,-10"
     id="ref-S-bottom-1"
     sodipodi:insensitive="true"
     inkscape:connector-curvature="0" />
  <path
     style="opacity:0.5;fill:none;stroke:#ffc200;stroke-width:1px;stroke-linecap:square"
     d="m 191,369.5 0,-10"
     id="ref-S-bottom-2"
     sodipodi:insensitive="true"
     inkscape:connector-curvature="0" />
  <path
     style="opacity:0.5;fill:none;stroke:#ffc200;stroke-width:1px;stroke-linecap:square"
     d="m 209,369.5 0,-10"
     id="ref-S-bottom-3"
     sodipodi:insensitive="true"
     inkscape:connector-curvature="0" />
  <path
     style="opacity:0.5;fill:none;stroke:#ffc200;stroke-width:1px;stroke-linecap:square"
     d="m 211,369.5 0,-10"
     id="ref-S-bottom-4"
     sodipodi:insensitive="true"
     inkscape:connector-curvature="0" />
  <path
     style="opacity:0.5;fill:none;stroke:#00ff00;stroke-width:1px;stroke-linecap:square"
     d="m 199,369.5 0,-10"
     id="ref-I-bottom-1"
     sodipodi:insensitive="true"
     inkscape:connector-curvature="0" />
  <path
     style="opacity:0.5;fill:none;stroke:#00ff00;stroke-width:1px;stroke-linecap:square"
     d="m 201,369.5 0,-10"
     id="ref-I-bottom-2"
     sodipodi:insensitive="true"
     inkscape:connector-curvature="0" />
  <path
     style="opacity:0.5;fill:none;stroke:#00ffcc;stroke-width:1px;stroke-linecap:square"
     d="m 66,369.5 0,-10"
     id="ref-C-bottom-1"
     sodipodi:insensitive="true"
     inkscape:connector-curvature="0" />
  <path
     style="opacity:0.5;fill:none;stroke:#00ffcc;stroke-width:1px;stroke-linecap:square"
     d="m 68,369.5 0,-10"
     id="ref-C-bottom-2"
     sodipodi:insensitive="true"
     inkscape:connector-curvature="0" />
  <path
     style="opacity:0.5;fill:none;stroke:#00ffcc;stroke-width:1px;stroke-linecap:square"
     d="m 92,369.5 0,-10"
     id="ref-C-bottom-3"
     sodipodi:insensitive="true"
     inkscape:connector-curvature="0" />
  <path
     style="opacity:0.5;fill:none;stroke:#00ffcc;stroke-width:1px;stroke-linecap:square"
     d="m 94,369.5 0,-10"
     id="ref-C-bottom-4"
     sodipodi:insensitive="true"
     inkscape:connector-curvature="0" />
  <path
     style="opacity:0.5;fill:none;stroke:#00ffcc;stroke-width:1px;stroke-linecap:square"
     d="m 306,369.5 0,-10"
     id="ref-C-bottom-5"
     sodipodi:insensitive="true"
     inkscape:connector-curvature="0" />
  <path
     style="opacity:0.5;fill:none;stroke:#00ffcc;stroke-width:1px;stroke-linecap:square"
     d="m 308,369.5 0,-10"
     id="ref-C-bottom-6"
     sodipodi:insensitive="true"
     inkscape:connector-curvature="0" />
  <path
     style="opacity:0.5;fill:none;stroke:#00ffcc;stroke-width:1px;stroke-linecap:square"
     d="m 332,369.5 0,-10"
     id="ref-C-bottom-7"
     sodipodi:insensitive="true"
     inkscape:connector-curvature="0" />
  <path
     style="opacity:0.5;fill:none;stroke:#00ffcc;stroke-width:1px;stroke-linecap:square"
     d="m 334,369.5 0,-10"
     id="ref-C-bottom-8"
     sodipodi:insensitive="true"
     inkscape:connector-curvature="0" />
  <path
     style="opacity:0.5;fill:none;stroke:#ffc200;stroke-width:1px;stroke-linecap:square"
     d="m 30.5,189 10,0"
     id="ref-S-left-1"
     sodipodi:insensitive="true"
     inkscape:connector-curvature="0" />
  <path
     style="opacity:0.5;fill:none;stroke:#ffc200;stroke-width:1px;stroke-linecap:square"
     d="m 30.5,191 10,0"
     id="ref-S-left-2"
     sodipodi:insensitive="true"
     inkscape:connector-curvature="0" />
  <path
     style="opacity:0.5;fill:none;stroke:#ffc200;stroke-width:1px;stroke-linecap:square"
     d="m 30.5,209 10,0"
     id="ref-S-left-3"
     sodipodi:insensitive="true"
     inkscape:connector-curvature="0" />
  <path
     style="opacity:0.5;fill:none;stroke:#ffc200;stroke-width:1px;stroke-linecap:square"
     d="m 30.5,211 10,0"
     id="ref-S-left-4"
     sodipodi:insensitive="true"
     inkscape:connector-curvature="0" />
  <path
     style="opacity:0.5;fill:none;stroke:#00ff00;stroke-width:1px;stroke-linecap:square"
     d="m 40.5,199 -10,0"
     id="ref-I-left-1"
     sodipodi:insensitive="true"
     inkscape:connector-curvature="0" />
  <path
     style="opacity:0.5;fill:none;stroke:#00ff00;stroke-width:1px;stroke-linecap:square"
     d="m 40.5,201 -10,0"
     id="ref-I-left-2"
     sodipodi:insensitive="true"
     inkscape:connector-curvature="0" />
  <path
     style="opacity:0.5;fill:none;stroke:#00ffcc;stroke-width:1px;stroke-linecap:square"
     d="m 30.5,66 10,0"
     id="ref-C-left-1"
     sodipodi:insensitive="true"
     inkscape:connector-curvature="0" />
  <path
     style="opacity:0.5;fill:none;stroke:#00ffcc;stroke-width:1px;stroke-linecap:square"
     d="m 30.5,68 10,0"
     id="ref-C-left-2"
     sodipodi:insensitive="true"
     inkscape:connector-curvature="0" />
  <path
     style="opacity:0.5;fill:none;stroke:#00ffcc;stroke-width:1px;stroke-linecap:square"
     d="m 30.5,92 10,0"
     id="ref-C-left-3"
     sodipodi:insensitive="true"
     inkscape:connector-curvature="0" />
  <path
     style="opacity:0.5;fill:none;stroke:#00ffcc;stroke-width:1px;stroke-linecap:square"
     d="m 30.5,94 10,0"
     id="ref-C-left-4"
     sodipodi:insensitive="true"
     inkscape:connector-curvature="0" />
  <path
     style="opacity:0.5;fill:none;stroke:#00ffcc;stroke-width:1px;stroke-linecap:square"
     d="m 30.5,306 10,0"
     id="ref-C-left-5"
     sodipodi:insensitive="true"
     inkscape:connector-curvature="0" />
  <path
     style="opacity:0.5;fill:none;stroke:#00ffcc;stroke-width:1px;stroke-linecap:square"
     d="m 30.5,308 10,0"
     id="ref-C-left-6"
     sodipodi:insensitive="true"
     inkscape:connector-curvature="0" />
  <path
     style="opacity:0.5;fill:none;stroke:#00ffcc;stroke-width:1px;stroke-linecap:square"
     d="m 30.5,332 10,0"
     id="ref-C-left-7"
     sodipodi:insensitive="true"
     inkscape:connector-curvature="0" />
  <path
     style="opacity:0.5;fill:none;stroke:#00ffcc;stroke-width:1px;stroke-linecap:square"
     d="m 30.5,334 10,0"
     id="ref-C-left-8"
     sodipodi:insensitive="true"
     inkscape:connector-curvature="0" />
  <path
     style="fill:none;stroke:#000000;stroke-width:1px;stroke-linecap:square"
     d="m 190,30.5 0,10"
     id="S-top-1"
     inkscape:connector-curvature="0" />
  <path
     style="fill:none;stroke:#000000;stroke-width:1px;stroke-linecap:square"
     d="m 210,30.5 0,10"
     id="S-top-2"
     inkscape:connector-curvature="0" />
  <path
     style="fill:none;stroke:#000000;stroke-width:1px;stroke-linecap:square"
     d="m 369.5,190 -10,0"
     id="S-right-1"
     inkscape:connector-curvature="0" />
  <path
     style="fill:none;stroke:#000000;stroke-width:1px;stroke-linecap:square"
     d="m 369.5,210 -10,0"
     id="S-right-2"
     inkscape:connector-curvature="0" />
  <path
     style="fill:none;stroke:#000000;stroke-width:1px;stroke-linecap:square"
     d="m 190,369.5 0,-10"
     id="S-bottom-1"
     inkscape:connector-curvature="0" />
  <path
     style="fill:none;stroke:#000000;stroke-width:1px;stroke-linecap:square"
     d="m 210,369.5 0,-10"
     id="S-bottom-2"
     inkscape:connector-curvature="0" />
  <path
     style="fill:none;stroke:#000000;stroke-width:1px;stroke-linecap:square"
     d="m 30.5,190 10,0"
     id="S-left-1"
     inkscape:connector-curvature="0" />
  <path
     style="fill:none;stroke:#000000;stroke-width:1px;stroke-linecap:square"
     d="m 30.5,210 10,0"
     id="S-left-2"
     inkscape:connector-curvature="0" />
  <path
     style="fill:none;stroke:#000000;stroke-width:1px;stroke-linecap:square"
     d="m 200,30.5 0,10"
     id="I-top-1"
     inkscape:connector-curvature="0" />
  <path
     style="fill:none;stroke:#000000;stroke-width:1px;stroke-linecap:square"
     d="m 369.5,200 -10,0"
     id="I-right-1"
     inkscape:connector-curvature="0" />
  <path
     style="fill:none;stroke:#000000;stroke-width:1px;stroke-linecap:square"
     d="m 200,369.5 0,-10"
     id="I-bottom-1"
     inkscape:connector-curvature="0" />
  <path
     style="fill:none;stroke:#000000;stroke-width:1px;stroke-linecap:square"
     d="m 40.5,200 -10,0"
     id="I-left-1"
     inkscape:connector-curvature="0" />
  <path
     style="fill:none;stroke:#000000;stroke-width:1px;stroke-linecap:square"
     d="m 67,30.5 0,10"
     id="C-top-1"
     inkscape:connector-curvature="0" />
  <path
     style="fill:none;stroke:#000000;stroke-width:1px;stroke-linecap:square"
     d="m 93,30.5 0,10"
     id="C-top-2"
     inkscape:connector-curvature="0" />
  <path
     style="fill:none;stroke:#000000;stroke-width:1px;stroke-linecap:square"
     d="m 307,30.5 0,10"
     id="C-top-3"
     inkscape:connector-curvature="0" />
  <path
     style="fill:none;stroke:#000000;stroke-width:1px;stroke-linecap:square"
     d="m 333,30.5 0,10"
     id="C-top-4"
     inkscape:connector-curvature="0" />
  <path
     style="fill:none;stroke:#000000;stroke-width:1px;stroke-linecap:square"
     d="m 369.5,67 -10,0"
     id="C-right-1"
     inkscape:connector-curvature="0" />
  <path
     style="fill:none;stroke:#000000;stroke-width:1px;stroke-linecap:square"
     d="m 369.5,93 -10,0"
     id="C-right-2"
     inkscape:connector-curvature="0" />
  <path
     style="fill:none;stroke:#000000;stroke-width:1px;stroke-linecap:square"
     d="m 369.5,307 -10,0"
     id="C-right-3"
     inkscape:connector-curvature="0" />
  <path
     style="fill:none;stroke:#000000;stroke-width:1px;stroke-linecap:square"
     d="m 369.5,333 -10,0"
     id="C-right-4"
     inkscape:connector-curvature="0" />
  <path
     style="fill:none;stroke:#000000;stroke-width:1px;stroke-linecap:square"
     d="m 67,369.5 0,-10"
     id="C-bottom-1"
     inkscape:connector-curvature="0" />
  <path
     style="fill:none;stroke:#000000;stroke-width:1px;stroke-linecap:square"
     d="m 93,369.5 0,-10"
     id="C-bottom-2"
     inkscape:connector-curvature="0" />
  <path
     style="fill:none;stroke:#000000;stroke-width:1px;stroke-linecap:square"
     d="m 307,369.5 0,-10"
     id="C-bottom-3"
     inkscape:connector-curvature="0" />
  <path
     style="fill:none;stroke:#000000;stroke-width:1px;stroke-linecap:square"
     d="m 333,369.5 0,-10"
     id="C-bottom-4"
     inkscape:connector-curvature="0" />
  <path
     style="fill:none;stroke:#000000;stroke-width:1px;stroke-linecap:square"
     d="m 30.5,67 10,0"
     id="C-left-1"
     inkscape:connector-curvature="0" />
  <path
     style="fill:none;stroke:#000000;stroke-width:1px;stroke-linecap:square"
     d="m 30.5,93 10,0"
     id="C-left-2"
     inkscape:connector-curvature="0" />
  <path
     style="fill:none;stroke:#000000;stroke-width:1px;stroke-linecap:square"
     d="m 30.5,307 10,0"
     id="C-left-3"
     inkscape:connector-curvature="0" />
  <path
     style="fill:none;stroke:#000000;stroke-width:1px;stroke-linecap:square"
     d="m 30.5,333 10,0"
     id="C-left-4"
     inkscape:connector-curvature="0" />
</g>
<g
   inkscape:groupmode="layer"
   id="g3149"
   inkscape:label="OKON-001"
   zpos="-300"
   style="display:inline"
   sodipodi:insensitive="true">
  <path
     sodipodi:nodetypes="ccccc"
     inkscape:connector-curvature="0"
     id="path3147"
     d="m 30.5,307 0,26 339,0 0,-26 z"
     style="fill:#000000;stroke:none;display:inline" />
  <path
     style="fill:#000000;stroke:none;display:inline"
     d="m 30.5,67 0,26 339,0 0,-26 z"
     id="path3118"
     inkscape:connector-curvature="0"
     sodipodi:nodetypes="ccccc" />
  <path
     style="fill:none;stroke:#000000;stroke-width:1px;stroke-linecap:square;display:inline"
     d="m 30.5,93 10,0 319,0 10,0"
     id="C-left-2-6"
     inkscape:connector-curvature="0"
     sodipodi:nodetypes="cccc" />
  <path
     style="fill:none;stroke:#000000;stroke-width:1px;stroke-linecap:square;display:inline"
     d="m 369.5,307 -10,0 -319,0 -10,0"
     id="C-right-3-7"
     inkscape:connector-curvature="0"
     sodipodi:nodetypes="cccc" />
</g>
<g
   zpos="-200"
   style="display:none"
   inkscape:label="WWWW-001"
   id="g3125"
   inkscape:groupmode="layer"
   sodipodi:insensitive="true">
  <path
     style="fill:#ffff00;stroke:none"
     d="m 63.65625,67 c 0.08944,1.690905 0.240701,3.172263 0.5,4.46875 L 122.53125,333 153.8125,333 197.625,200.59375 241.875,333 272.96875,333 331.125,74.03125 c 0.53717,-2.417284 0.88983,-4.735008 1.0625,-7.03125 l -28.75,0 -48.0625,213.875 -42.3125,-126.34375 c -3.16406,-9.49218 -7.92189,-14.4375 -14.25,-14.4375 -7.51465,0 -12.84619,4.54884 -15.8125,13.25 l -42.71875,126.75 L 92.96875,67 63.65625,67 z"
     id="path3136"
     inkscape:connector-curvature="0" />
  <path
     style="fill:none;stroke:#00ff00;stroke-width:1px;display:inline"
     d="m 63.65625,67 c 0.08944,1.690905 0.240701,3.172263 0.5,4.46875 L 122.53125,333 M 153.8125,333 197.625,200.59375 241.875,333 m 31.09375,0 L 331.125,74.03125 c 0.53717,-2.417284 0.88983,-4.735008 1.0625,-7.03125 m -28.75,0 -48.0625,213.875 -42.3125,-126.34375 c -3.16406,-9.49218 -7.92189,-14.4375 -14.25,-14.4375 -7.51465,0 -12.84619,4.54884 -15.8125,13.25 l -42.71875,126.75 L 92.96875,67"
     id="path3136-6"
     inkscape:connector-curvature="0"
     sodipodi:nodetypes="ccccccccccccsccc" />
</g>
<g
   zpos="-200"
   style="display:none"
   inkscape:label="WWWW-002"
   id="g3141"
   inkscape:groupmode="layer"
   sodipodi:insensitive="true">
  <path
     style="fill:#ffff00;stroke:none"
     d="m 105.34375,67 c -1.21049,30.82489 -0.97128,239.81613 -0.9375,266 l 191.1875,0 -0.40625,-266 -36.90625,0 -1.1875,219.34375 -5.65625,9.3125 -5.28125,9.3125 -8.09375,0 -7.6875,0 -5.65625,-9.3125 -5.28125,-9.3125 -2.03125,-127.65625 c -2.025,-4.05 -4.85625,-6.88126 -8.90625,-8.90625 -3.24,-1.62 -4.855,-1.625 -8.5,-1.625 -2.43,0 -3.63,0.001 -5.25,0.40625 -5.26499,1.61999 -9.72625,5.265 -12.15625,10.125 l -2.03125,128.0625 -5.28125,8.90625 -5.25,9.3125 -8.09375,0 -8.09375,-0.40625 -5.28125,-8.90625 -5.25,-9.3125 L 142.90625,67 z"
     id="path3152"
     inkscape:connector-curvature="0"
     sodipodi:nodetypes="cccccccccccccssccccccccccc" />
  <path
     style="fill:none;stroke:#00ff00;stroke-width:1px;display:inline"
     d="m 105.34375,67 -0.9375,266 m 191.1875,0 -0.40625,-266 m -36.90625,0 -1.1875,219.34375 -5.65625,9.3125 -5.28125,9.3125 -8.09375,0 -7.6875,0 -5.65625,-9.3125 -5.28125,-9.3125 -2.03125,-127.65625 c -2.025,-4.05 -4.85625,-6.88126 -8.90625,-8.90625 -3.24,-1.62 -4.855,-1.625 -8.5,-1.625 -2.43,0 -3.63,0.001 -5.25,0.40625 -5.26499,1.61999 -9.72625,5.265 -12.15625,10.125 l -2.03125,128.0625 -5.28125,8.90625 -5.25,9.3125 -8.09375,0 -8.09375,-0.40625 -5.28125,-8.90625 -5.25,-9.3125 L 142.90625,67"
     id="path3152-5"
     inkscape:connector-curvature="0"
     sodipodi:nodetypes="cccccccccccccsscccccccccc" />
</g>
<g
   zpos="-200"
   style="display:none"
   inkscape:label="WWWW-003"
   id="g3157"
   inkscape:groupmode="layer"
   sodipodi:insensitive="true">
  <path
     style="fill:#ffff00;stroke:none"
     clip-path="none"
     d="M 37.96875,67 C 32.30871,73.056858 29.5,80.234439 29.5,88.53125 c 0,2.43027 0.215248,4.85152 0.6875,7.28125 l 52.4375,227.625 c 0.727336,3.40998 1.685989,6.58806 2.90625,9.5625 l 71.09375,0 c 1.36605,-2.9591 2.5632,-6.13466 3.5625,-9.5625 l 40.03125,-140.15625 43.90625,146.625 c 0.31797,1.06049 0.67239,2.09276 1.03125,3.09375 l 71.3125,0 c 1.25552,-2.95949 2.29014,-6.13789 3.09375,-9.5625 L 367.75,96.625 c 0.70804,-2.96973 1.06216,-5.93598 1.0625,-8.90625 C 368.81218,79.182051 366.36931,72.268811 361.46875,67 L 317.25,67 c -4.76192,5.429779 -8.11793,13.149792 -10.0625,23.15625 L 275.65625,245.25 238.46875,110 c -5.6114,-20.187639 -12.26442,-34.511804 -19.9375,-43 l -36.46875,0 c -7.21276,8.025441 -13.55545,21.271259 -19.03125,39.75 l -40.375,138.5 L 91.125,90.15625 C 89.108187,80.203676 85.916985,72.480548 81.5625,67 l -43.59375,0 z"
     id="path3168"
     inkscape:connector-curvature="0" />
  <path
     inkscape:connector-curvature="0"
     style="fill:none;stroke:#00ff00;stroke-width:1px;display:inline"
     clip-path="none"
     d="m 156.625,333 c 1.36605,-2.9591 2.5632,-6.13466 3.5625,-9.5625 l 40.03125,-140.15625 43.90625,146.625 c 0.31797,1.06049 0.67239,2.09276 1.03125,3.09375 m 71.3125,0 c 1.25552,-2.95949 2.29014,-6.13789 3.09375,-9.5625 L 367.75,96.625 c 0.70804,-2.96973 1.06216,-5.93598 1.0625,-8.90625 C 368.81218,79.182051 366.36931,72.268811 361.46875,67 M 317.25,67 c -4.76192,5.429779 -8.11793,13.149792 -10.0625,23.15625 L 275.65625,245.25 238.46875,110 c -5.6114,-20.187639 -12.26442,-34.511804 -19.9375,-43 m -36.46875,0 c -7.21276,8.025441 -13.55545,21.271259 -19.03125,39.75 l -40.375,138.5 L 91.125,90.15625 C 89.108187,80.203676 85.916985,72.480548 81.5625,67 M 37.96875,67 C 32.30871,73.056858 29.5,80.234439 29.5,88.53125 c 0,2.43027 0.215248,4.85152 0.6875,7.28125 l 52.4375,227.625 c 0.727336,3.40998 1.685989,6.58806 2.90625,9.5625"
     id="path3168-1"
     sodipodi:nodetypes="cccccccccccccccccccccsccc" />
  <path
     style="fill:none;stroke:#000000;stroke-width:1px;stroke-linecap:square;display:inline"
     d="m 30.5,67 59,0"
     id="path3129-2"
     inkscape:connector-curvature="0"
     sodipodi:nodetypes="cc" />
  <path
     sodipodi:nodetypes="cc"
     inkscape:connector-curvature="0"
     id="path3313"
     d="m 170.5,67 59,0"
     style="fill:none;stroke:#000000;stroke-width:1px;stroke-linecap:square;display:inline" />
  <path
     style="fill:none;stroke:#000000;stroke-width:1px;stroke-linecap:square;display:inline"
     d="m 311.5,67 52,0"
     id="path3315"
     inkscape:connector-curvature="0"
     sodipodi:nodetypes="cc" />
</g>
<g
   inkscape:groupmode="layer"
   id="layer4"
   inkscape:label="WWWW-004"
   style="display:none"
   zpos="-200"
   sodipodi:insensitive="true">
  <path
     style="fill:#ffff00;stroke:none"
     clip-path="none"
     d="M 32.71875,67 95.75,333 145.34375,333 200,139.09375 l 1.1875,0 L 255.625,333 305.03125,333 368.25,67 l -50.28125,0 -40.0625,196.6875 -1.1875,0 L 224.4375,67 l -48.125,0 -51.875,196.46875 -1.1875,0 L 82.8125,67 z"
     id="path3289"
     inkscape:connector-curvature="0"
     sodipodi:nodetypes="ccccccccccccccccc" />
  <path
     sodipodi:nodetypes="cccccccccccccccc"
     inkscape:connector-curvature="0"
     id="path3381"
     d="M 32.71875,67 95.75,333 m 49.59375,0 L 200,139.09375 l 1.1875,0 L 255.625,333 m 49.40625,0 L 368.25,67 m -50.28125,0 -40.0625,196.6875 -1.1875,0 L 224.4375,67 m -48.125,0 -51.875,196.46875 -1.1875,0 L 82.8125,67"
     clip-path="none"
     style="fill:none;stroke:#00ff00;stroke-width:1px" />
  <path
     style="fill:none;stroke:#000000;stroke-width:1px;stroke-linecap:square;display:inline"
     d="m 30.5,67 55,0"
     id="path3129-6"
     inkscape:connector-curvature="0"
     sodipodi:nodetypes="cc" />
  <path
     sodipodi:nodetypes="cc"
     inkscape:connector-curvature="0"
     id="path3401"
     d="m 173.5,67 55,0"
     style="fill:none;stroke:#000000;stroke-width:1px;stroke-linecap:square;display:inline" />
  <path
     style="fill:none;stroke:#000000;stroke-width:1px;stroke-linecap:square;display:inline"
     d="m 314.5,67 55,0"
     id="path3403"
     inkscape:connector-curvature="0"
     sodipodi:nodetypes="cc" />
</g>
<g
   zpos="-200"
   style="display:none"
   inkscape:label="WWWW-006"
   id="g3321"
   inkscape:groupmode="layer"
   sodipodi:insensitive="true">
  <path
     style="fill:#ffff00;stroke:none"
     d="m 57.28125,67 c -3.855765,2.650315 -7.540242,5.727742 -11.0625,9.25 -14.039986,14.03999 -20.875,28.81752 -20.875,43.9375 0,8.63999 2.521256,15.83501 8.28125,20.875 5.39999,5.4 13.66751,7.9375 25.1875,7.9375 -3.6,-6.47999 -5.375,-15.12126 -5.375,-26.28125 0,-13.67999 2.88001,-25.91876 9,-36.71875 C 68.55749,75.20001 77.20001,69.78125 88,69.78125 c 7.91999,0 13.66625,3.95626 16.90625,11.15625 3.24,7.55999 5.03125,19.09877 5.03125,34.21875 0,7.19999 -0.35875,14.03501 -0.71875,20.875 -0.72,7.19999 -1.42,14.03501 -2.5,20.875 l -3.25,18 c -1.08,5.04 -2.5275,11.53376 -4.6875,19.09375 l -4.6875,17.25 C 92.65375,215.21 90.88,221.36001 88,230 85.12,238.99999 83.31375,244.745 82.59375,247.625 71.79376,282.18497 66.75,304.15501 66.75,313.875 c -0.36,6.83999 1.08875,12.60126 3.96875,17.28125 0.34573,0.64207 0.688737,1.25589 1.0625,1.84375 l 64.3125,0 c 11.51616,-8.18668 23.70633,-20.28272 36.5,-36.40625 -2.52,7.19999 -3.59375,13.30376 -3.59375,18.34375 0,7.037 1.62255,13.06032 5.03125,18.0625 l 63.6875,0 c 5.69317,-3.74804 11.56926,-8.31519 17.65625,-13.75 20.15998,-17.63998 38.16002,-38.87877 54,-63.71875 15.47998,-24.47997 29.16876,-50.74878 39.96875,-78.46875 10.79999,-27.35997 16.5625,-50.38877 16.5625,-69.46875 0,-13.67999 -2.88126,-24.48626 -8.28125,-32.40625 -2.57425,-3.603956 -5.22668,-6.302733 -8,-8.1875 l -21.375,0 c -5.41304,3.256341 -10.52501,8.865915 -15.25,16.8125 16.19998,5.76 24.10875,19.08877 24.46875,39.96875 0,17.99998 -4.67126,38.89503 -14.03125,63.375 -9.35999,24.47998 -20.54001,46.77627 -33.5,67.65625 -12.95999,20.87998 -27.00626,38.53752 -41.40625,52.9375 -14.39999,14.75999 -26.62376,21.96875 -36.34375,21.96875 -3.6,0 -6.1225,-0.74625 -7.5625,-2.90625 -1.44,-2.16 -1.8125,-5.74125 -1.8125,-10.78125 0,-17.27998 8.64127,-46.08504 26.28125,-87.125 8.63999,-20.51998 13.34375,-33.1325 13.34375,-37.8125 0,-5.03999 -2.88126,-9.71 -8.28125,-14.75 -5.39999,-4.67999 -12.25126,-7.1875 -20.53125,-7.1875 -2.52,16.55998 -9.73001,37.42503 -21.25,62.625 -11.87999,25.19998 -25.91002,47.52752 -41.75,67.6875 -16.19998,20.15998 -30.24501,30.25 -42.125,30.25 -3.24,0 -5.38875,-0.73125 -6.46875,-2.53125 -1.08,-1.8 -1.4375,-5.03875 -1.4375,-9.71875 0,-6.47999 0.7,-14.03251 2.5,-22.3125 1.44,-7.91999 3.2625,-14.77125 5.0625,-20.53125 1.44,-5.75999 3.9475,-12.95376 7.1875,-21.59375 2.88,-8.63999 5.045,-14.775 6.125,-18.375 C 136.94873,185.3363 144.875,148.61998 144.875,124.5 c 0,-21.95998 -4.32876,-38.88501 -12.96875,-51.125 C 130.18104,71.002832 128.28614,68.889879 126.25,67 l -68.96875,0 z"
     id="path3332"
     inkscape:connector-curvature="0" />
  <path
     style="fill:none;stroke:#00ff00;stroke-width:1px;display:inline"
     d="m 57.28125,67 c -3.855765,2.650315 -7.540242,5.727742 -11.0625,9.25 -14.039986,14.03999 -20.875,28.81752 -20.875,43.9375 0,8.63999 2.521256,15.83501 8.28125,20.875 5.39999,5.4 13.66751,7.9375 25.1875,7.9375 -3.6,-6.47999 -5.375,-15.12126 -5.375,-26.28125 0,-13.67999 2.88001,-25.91876 9,-36.71875 C 68.55749,75.20001 77.20001,69.78125 88,69.78125 c 7.91999,0 13.66625,3.95626 16.90625,11.15625 3.24,7.55999 5.03125,19.09877 5.03125,34.21875 0,7.19999 -0.35875,14.03501 -0.71875,20.875 -0.72,7.19999 -1.42,14.03501 -2.5,20.875 l -3.25,18 c -1.08,5.04 -2.5275,11.53376 -4.6875,19.09375 l -4.6875,17.25 C 92.65375,215.21 90.88,221.36001 88,230 85.12,238.99999 83.31375,244.745 82.59375,247.625 71.79376,282.18497 66.75,304.15501 66.75,313.875 c -0.36,6.83999 1.08875,12.60126 3.96875,17.28125 0.34573,0.64207 0.688737,1.25589 1.0625,1.84375 m 64.3125,0 c 11.51616,-8.18668 23.70633,-20.28272 36.5,-36.40625 -2.52,7.19999 -3.59375,13.30376 -3.59375,18.34375 0,7.037 1.62255,13.06032 5.03125,18.0625 m 63.6875,0 c 5.69317,-3.74804 11.56926,-8.31519 17.65625,-13.75 20.15998,-17.63998 38.16002,-38.87877 54,-63.71875 15.47998,-24.47997 29.16876,-50.74878 39.96875,-78.46875 10.79999,-27.35997 16.5625,-50.38877 16.5625,-69.46875 0,-13.67999 -2.88126,-24.48626 -8.28125,-32.40625 -2.57425,-3.603956 -5.22668,-6.302733 -8,-8.1875 m -21.375,0 c -5.41304,3.256341 -10.52501,8.865915 -15.25,16.8125 16.19998,5.76 24.10875,19.08877 24.46875,39.96875 0,17.99998 -4.67126,38.89503 -14.03125,63.375 -9.35999,24.47998 -20.54001,46.77627 -33.5,67.65625 -12.95999,20.87998 -27.00626,38.53752 -41.40625,52.9375 -14.39999,14.75999 -26.62376,21.96875 -36.34375,21.96875 -3.6,0 -6.1225,-0.74625 -7.5625,-2.90625 -1.44,-2.16 -1.8125,-5.74125 -1.8125,-10.78125 0,-17.27998 8.64127,-46.08504 26.28125,-87.125 8.63999,-20.51998 13.34375,-33.1325 13.34375,-37.8125 0,-5.03999 -2.88126,-9.71 -8.28125,-14.75 -5.39999,-4.67999 -12.25126,-7.1875 -20.53125,-7.1875 -2.52,16.55998 -9.73001,37.42503 -21.25,62.625 -11.87999,25.19998 -25.91002,47.52752 -41.75,67.6875 -16.19998,20.15998 -30.24501,30.25 -42.125,30.25 -3.24,0 -5.38875,-0.73125 -6.46875,-2.53125 -1.08,-1.8 -1.4375,-5.03875 -1.4375,-9.71875 0,-6.47999 0.7,-14.03251 2.5,-22.3125 1.44,-7.91999 3.2625,-14.77125 5.0625,-20.53125 1.44,-5.75999 3.9475,-12.95376 7.1875,-21.59375 2.88,-8.63999 5.045,-14.775 6.125,-18.375 C 136.94873,185.3363 144.875,148.61998 144.875,124.5 c 0,-21.95998 -4.32876,-38.88501 -12.96875,-51.125 C 130.18104,71.002832 128.28614,68.889879 126.25,67"
     id="path3332-6"
     inkscape:connector-curvature="0"
     sodipodi:nodetypes="cssccssscsccccccccccccscccccscccccsscssscsccccsssccccscc" />
</g>
<g
   zpos="-200"
   style="display:none"
   inkscape:label="WWWW-007"
   id="g3337"
   inkscape:groupmode="layer"
   sodipodi:insensitive="true">
  <path
     style="fill:#000000;stroke:none;display:inline"
     d="m 70.5,67 0,57 239,0 0,-57 z"
     id="path3118-3"
     inkscape:connector-curvature="0"
     sodipodi:nodetypes="ccccc" />
  <path
     style="fill:#ffffff;stroke:none;display:inline"
     d="m 155.12132,93.5 c 6.06931,4.5166 12.13067,8.85156 18.52804,13.1875 6.23335,4.33593 12.31065,8.86524 18.21593,13.5625 1.80438,1.80664 3.27184,3.59961 4.25605,5.40625 0.98421,1.80664 1.31139,4.16504 1.47543,6.875 l -0.17024,149.75 -61.5142,38.5 c -6.23335,-4.33593 -12.46495,-8.50781 -18.69829,-12.84375 -6.23334,-4.33593 -12.1404,-8.83399 -18.045676,-13.53125 -1.968427,-1.44531 -3.442089,-3.2627 -4.426299,-5.25 -1.14825,-1.9873 -1.645676,-4.32129 -1.645676,-7.03125 l 0,-151.0625 z"
     id="path3119"
     inkscape:connector-curvature="0" />
  <path
     style="fill:#ffffff;stroke:none;display:inline"
     d="m 287.65494,93.5 c 5.90527,4.69726 11.98258,9.22657 18.21592,13.5625 6.23334,4.33594 12.3009,8.85157 18.69828,13.1875 3.93686,3.07129 5.90794,7.22266 6.07198,12.28125 l 0,153.75 -55.44224,34.5 c -6.23335,-4.33593 -12.4871,-8.6709 -18.55641,-13.1875 l -18.3578,-13.5625 0.17025,0.1875 c -2.13246,-1.26464 -3.61233,-3.08204 -4.59654,-5.25 -0.98422,-1.98731 -1.47543,-4.50879 -1.47543,-7.21875 l 0,-154.46875 z"
     id="path3114"
     inkscape:connector-curvature="0" />
  <path
     style="fill:#ffff00;stroke:none"
     d="m 47.726823,67 c -1.830646,1.419308 -3.555814,2.828313 -5.135642,4.09375 -1.968424,1.62597 -3.271845,2.71485 -4.256057,3.4375 -1.476318,1.08399 -2.641416,2.34278 -3.461593,3.96875 -0.820176,1.62598 -1.134948,3.44336 -1.134948,5.25 0,2.34863 0.320977,4.14844 1.30519,5.59375 0.984213,1.44531 2.281426,2.69727 4.085815,3.78125 l 18.698277,11.21875 0,200.71875 c 0,4.15527 1.502033,7.23145 4.454673,9.21875 L 88.58497,333 l 67.27408,0 41.56749,-25.59375 c 0.32806,0.90332 0.67741,1.97852 1.33356,3.0625 0.4921,1.26465 1.13761,2.17676 1.95779,2.71875 L 228.41063,333 l 67.67131,0 64.89068,-39.15625 c 3.44475,-2.16797 5.0851,-5.41407 5.24913,-9.75 l 0,-174.15625 c 0,-3.79394 -1.6439,-6.87012 -4.59654,-9.21875 L 314.78021,67 291.03141,67 232.38295,102.90625 182.27497,67 l -23.86229,0 -65.316289,39.6875 0,-13.90625 c 0,-3.61327 -0.154281,-6.51953 -0.482354,-8.6875 C 92.121932,81.92578 91.470227,80.13281 90.486009,78.6875 89.5018,77.24219 87.857894,75.97656 85.889467,74.53125 83.757008,73.08594 80.970174,71.46289 77.689465,69.65625 76.224161,68.887756 74.586131,67.992247 72.837559,67 L 47.726823,67 z M 155.12132,93.5 c 6.06931,4.5166 12.13067,8.85156 18.52804,13.1875 6.23335,4.33593 12.31065,8.86524 18.21593,13.5625 1.80438,1.80664 3.27185,3.59961 4.25606,5.40625 0.9842,1.80664 1.31138,4.16504 1.47542,6.875 l -0.17023,149.75 -61.51421,38.5 c -6.23335,-4.33593 -12.46495,-8.50781 -18.69829,-12.84375 -6.23334,-4.33593 -12.1404,-8.83399 -18.045675,-13.53125 -1.968427,-1.44531 -3.44209,-3.2627 -4.4263,-5.25 -1.14825,-1.9873 -1.645674,-4.32129 -1.645674,-7.03125 l 0,-151.0625 L 155.12132,93.5 z m 132.53362,0 c 5.90527,4.69726 11.98258,9.22657 18.21593,13.5625 6.23334,4.33594 12.3009,8.85157 18.69827,13.1875 3.93686,3.07129 5.90794,7.22266 6.07198,12.28125 l 0,153.75 -55.44224,34.5 c -6.23335,-4.33593 -12.4871,-8.6709 -18.55641,-13.1875 l -18.35779,-13.5625 0.17024,0.1875 c -2.13246,-1.26464 -3.61233,-3.08204 -4.59654,-5.25 -0.98422,-1.98731 -1.47543,-4.50879 -1.47543,-7.21875 l 0,-154.46875 L 287.65494,93.5 z"
     id="path3355"
     inkscape:connector-curvature="0" />
  <path
     style="fill:none;stroke:#00ff00;stroke-width:1px;display:inline"
     d="m 47.726823,67 c -1.830646,1.419308 -3.555814,2.828313 -5.135642,4.09375 -1.968424,1.62597 -3.271845,2.71485 -4.256057,3.4375 -1.476318,1.08399 -2.641416,2.34278 -3.461593,3.96875 -0.820177,1.62598 -1.134948,3.44336 -1.134948,5.25 0,2.34863 0.320977,4.14844 1.30519,5.59375 0.984213,1.44531 2.281425,2.69727 4.085815,3.78125 l 18.698277,11.21875 0,200.71875 c 0,4.15527 1.502033,7.23145 4.454672,9.21875 L 88.58497,333 m 67.27408,0 41.56748,-25.59375 c 0.32807,0.90332 0.67742,1.97852 1.33357,3.0625 0.4921,1.26465 1.13761,2.17676 1.95779,2.71875 L 228.41063,333 m 67.6713,0 64.89069,-39.15625 c 3.44475,-2.16797 5.0851,-5.41407 5.24913,-9.75 l 0,-174.15625 c 0,-3.79394 -1.64391,-6.87012 -4.59654,-9.21875 L 314.78021,67 m -23.7488,0 -58.64846,35.90625 L 182.27497,67 m -23.86229,0 -65.316291,39.6875 0,-13.90625 c 0,-3.61327 -0.15428,-6.51953 -0.482352,-8.6875 -0.492105,-2.16797 -1.143811,-3.96094 -2.128029,-5.40625 -0.984209,-1.44531 -2.628114,-2.71094 -4.596541,-4.15625 -2.13246,-1.44531 -4.919294,-3.06836 -8.200004,-4.875 C 76.22416,68.887756 74.586131,67.992247 72.837559,67 m 82.283761,26.5 c 6.06931,4.5166 12.13067,8.85156 18.52804,13.1875 6.23335,4.33593 12.31065,8.86524 18.21593,13.5625 1.80438,1.80664 3.27184,3.59961 4.25605,5.40625 0.98421,1.80664 1.31139,4.16504 1.47543,6.875 l -0.17024,149.75 -61.5142,38.5 c -6.23335,-4.33593 -12.46495,-8.50781 -18.69829,-12.84375 -6.23334,-4.33593 -12.1404,-8.83399 -18.045676,-13.53125 -1.968427,-1.44531 -3.442089,-3.2627 -4.426299,-5.25 -1.14825,-1.9873 -1.645676,-4.32129 -1.645676,-7.03125 l 0,-151.0625 z m 132.53362,0 c 5.90527,4.69726 11.98258,9.22657 18.21592,13.5625 6.23334,4.33594 12.3009,8.85157 18.69828,13.1875 3.93686,3.07129 5.90794,7.22266 6.07198,12.28125 l 0,153.75 -55.44224,34.5 c -6.23335,-4.33593 -12.4871,-8.6709 -18.55641,-13.1875 l -18.3578,-13.5625 0.17025,0.1875 c -2.13246,-1.26464 -3.61233,-3.08204 -4.59654,-5.25 -0.98422,-1.98731 -1.47543,-4.50879 -1.47543,-7.21875 l 0,-154.46875 z"
     id="path3355-8"
     inkscape:connector-curvature="0"
     sodipodi:nodetypes="ccssssccsccccccccccscccccccscsccccccscccsccscccsccccccccscc" />
</g>
<g
   style="display:inline"
   zpos="-180"
   inkscape:label="UKON-001"
   id="g3155"
   inkscape:groupmode="layer"
   sodipodi:insensitive="true">
  <path
     style="fill:none;stroke:#000000;stroke-width:1px;stroke-linecap:square;display:inline"
     d="m 369.5,333 -10,0 -319,0 -10,0"
     id="path3159"
     inkscape:connector-curvature="0"
     sodipodi:nodetypes="cccc" />
  <path
     sodipodi:nodetypes="cccc"
     inkscape:connector-curvature="0"
     id="path3153"
     d="m 30.5,67 10,0 319,0 10,0"
     style="fill:none;stroke:#000000;stroke-width:1px;stroke-linecap:square;display:inline" />
</g>
<g
   zpos="-200"
   style="display:inline"
   inkscape:label="WWWW-005"
   id="g3303"
   inkscape:groupmode="layer"
   sodipodi:insensitive="true">
  <path
     style="fill:#ffff00;stroke:none"
     d="m 276.21875,37.0625 -43.28125,28.375 0,-21.65625 -65.09375,0 0,259.78125 -42.40625,-23.09375 0,-236.6875 -64.6875,0 0,289.21875 277.625,0 0.40625,-261.5 z m -25.625,60 23.09375,18.0625 0,183.8125 -40.75,-18.0625 0,-183.59375 z"
     id="path3319"
     inkscape:connector-curvature="0"
     sodipodi:nodetypes="cccccccccccccccccc" />
  <path
     inkscape:connector-curvature="0"
     style="fill:none;stroke:#00ff00;stroke-width:1px;display:inline"
     d="m 338.375,333 0.40625,-261.5 -62.5625,-34.4375 -43.28125,28.375 0,-21.65625 -65.09375,0 0,259.78125 -42.40625,-23.09375 0,-236.6875 -64.6875,0 0,289.21875 m 189.84375,-235.9375 23.09375,18.0625 0,183.8125 -40.75,-18.0625 0,-183.59375 z"
     id="path3319-6"
     sodipodi:nodetypes="ccccccccccccccccc" />
  <path
     sodipodi:nodetypes="cccc"
     inkscape:connector-curvature="0"
     id="path3576-5"
     d="m 369.5,333 -10,0 -319,0 -10,0"
     style="fill:none;stroke:#000000;stroke-width:1px;stroke-linecap:square;display:inline" />
</g>
</svg>
