<?xml version="1.0" encoding="UTF-8" standalone="no"?>
<!-- Created with Inkscape (http://www.inkscape.org/) -->
<svg
   xmlns:dc="http://purl.org/dc/elements/1.1/"
   xmlns:cc="http://creativecommons.org/ns#"
   xmlns:rdf="http://www.w3.org/1999/02/22-rdf-syntax-ns#"
   xmlns:svg="http://www.w3.org/2000/svg"
   xmlns="http://www.w3.org/2000/svg"
   xmlns:sodipodi="http://sodipodi.sourceforge.net/DTD/sodipodi-0.dtd"
   xmlns:inkscape="http://www.inkscape.org/namespaces/inkscape"
   style="display:inline"
   sodipodi:docname="181212_LLLL-MR+-MR+_CW_CW_CW_00_.svg"
   inkscape:version="0.48.3.1 r9886"
   version="1.1"
   id="svg2902"
   height="400"
   width="400"><sodipodi:namedview
   id="base"
   pagecolor="#f0f0f0"
   bordercolor="#666666"
   borderopacity="1.0"
   inkscape:pageopacity="1"
   inkscape:pageshadow="2"
   inkscape:zoom="2.2227"
   inkscape:cx="193.29189"
   inkscape:cy="129.22631"
   inkscape:document-units="px"
   inkscape:current-layer="g3243"
   showgrid="false"
   inkscape:window-width="1018"
   inkscape:window-height="709"
   inkscape:window-x="0"
   inkscape:window-y="1"
   inkscape:window-maximized="0"
   showguides="true"
   inkscape:guide-bbox="true"
   inkscape:snap-bbox="true"
   inkscape:snap-global="false" />
<defs
   id="defs2904">
  <clipPath
     clipPathUnits="userSpaceOnUse"
     id="clipPath5174">
    <path
       id="path5176"
       style="opacity:0.5;fill:#00ff00;stroke:#00ff00;stroke-width:1px;stroke-linejoin:round;stroke-linecap:round;stroke-linecap:square;display:inline"
       d="m 436.26971,600.11436 -232.09481,134 -169.500003,-293.58262 232.094813,-134 z"
       inkscape:connector-curvature="0"
       sodipodi:nodetypes="ccccc" />
  </clipPath>
  <clipPath
     clipPathUnits="userSpaceOnUse"
     id="clipPath5174-5">
    <path
       id="path5176-9"
       style="opacity:0.5;fill:#00ff00;stroke:#00ff00;stroke-width:1px;stroke-linejoin:round;stroke-linecap:round;stroke-linecap:square;display:inline"
       d="m 436.26971,600.11436 -232.09481,134 -169.500003,-293.58262 232.094813,-134 z"
       inkscape:connector-curvature="0"
       sodipodi:nodetypes="ccccc" />
  </clipPath>
  <clipPath
     clipPathUnits="userSpaceOnUse"
     id="clipPath3238">
    <path
       sodipodi:nodetypes="ccccc"
       inkscape:connector-curvature="0"
       d="m 461.26971,643.41563 -232.09481,134 -169.500002,-293.58262 232.094812,-134 z"
       style="opacity:0.5;fill:#00ff00;stroke:#00ff00;stroke-width:1px;stroke-linejoin:round;stroke-linecap:round;stroke-linecap:square;display:inline"
       id="path3240" />
  </clipPath>
</defs>
<metadata
   id="metadata2907">
  <rdf:RDF>
    <cc:Work
       rdf:about="">
      <dc:format>image/svg+xml</dc:format>
      <dc:type
         rdf:resource="http://purl.org/dc/dcmitype/StillImage" />
      <dc:title />
    </cc:Work>
  </rdf:RDF>
</metadata>
<g
     inkscape:groupmode="layer"
     id="bg"
     inkscape:label="XX_BG"
     sodipodi:insensitive="true">
    <path
       style="fill:#f6ffd5"
       d="M 400,0 400,400 0,400 0,0 z"
       id="bgrect"
       inkscape:connector-curvature="0" />
  </g>
<g
     inkscape:label="XX_Referenz"
     inkscape:groupmode="layer"
     id="XX_referenz"
     style="display:none"
     sodipodi:insensitive="true">
    <path
       id="innerframe"
       style="fill:none;stroke:#ff0000;stroke-width:1"
       d="m 40.5,40.5 319,0 0,319 -319,0 0,-319 z"
       inkscape:label="#innerframe"
       sodipodi:insensitive="true"
       inkscape:connector-curvature="0" />
    <path
       id="outerframe"
       style="fill:none;stroke:#ff0000;stroke-width:1"
       d="m 30.5,30.5 339,0 0,339 -339,0 0,-339 z"
       inkscape:label="#outerframe"
       sodipodi:nodetypes="ccccc"
       sodipodi:insensitive="true"
       inkscape:connector-curvature="0" />
    <path
       style="opacity:0.5;fill:none;stroke:#ffc200;stroke-width:1px;stroke-linejoin:round;stroke-linecap:round;stroke-linecap:square"
       d="m 189,30.5 0,10"
       id="ref-S-top-1"
       sodipodi:insensitive="true"
       inkscape:connector-curvature="0" />
    <path
       style="opacity:0.5;fill:none;stroke:#ffc200;stroke-width:1px;stroke-linejoin:round;stroke-linecap:round;stroke-linecap:square"
       d="m 191,30.5 0,10"
       id="ref-S-top-2"
       sodipodi:insensitive="true"
       inkscape:connector-curvature="0" />
    <path
       style="opacity:0.5;fill:none;stroke:#ffc200;stroke-width:1px;stroke-linejoin:round;stroke-linecap:round;stroke-linecap:square"
       d="m 209,30.5 0,10"
       id="ref-S-top-3"
       sodipodi:insensitive="true"
       inkscape:connector-curvature="0" />
    <path
       style="opacity:0.5;fill:none;stroke:#ffc200;stroke-width:1px;stroke-linejoin:round;stroke-linecap:round;stroke-linecap:square"
       d="m 211,30.5 0,10"
       id="ref-S-top-4"
       sodipodi:insensitive="true"
       inkscape:connector-curvature="0" />
    <path
       style="opacity:0.5;fill:none;stroke:#00ff00;stroke-width:1px;stroke-linejoin:round;stroke-linecap:round;stroke-linecap:square"
       d="m 199,30.5 0,10"
       id="ref-I-top-1"
       sodipodi:insensitive="true"
       inkscape:connector-curvature="0" />
    <path
       style="opacity:0.5;fill:none;stroke:#00ff00;stroke-width:1px;stroke-linejoin:round;stroke-linecap:round;stroke-linecap:square"
       d="m 201,30.5 0,10"
       id="ref-I-top-2"
       sodipodi:insensitive="true"
       inkscape:connector-curvature="0" />
    <path
       style="opacity:0.5;fill:none;stroke:#00ffcc;stroke-width:1px;stroke-linejoin:round;stroke-linecap:round;stroke-linecap:square"
       d="m 66,30.5 0,10"
       id="ref-C-top-1"
       sodipodi:insensitive="true"
       inkscape:connector-curvature="0" />
    <path
       style="opacity:0.5;fill:none;stroke:#00ffcc;stroke-width:1px;stroke-linejoin:round;stroke-linecap:round;stroke-linecap:square"
       d="m 68,30.5 0,10"
       id="ref-C-top-2"
       sodipodi:insensitive="true"
       inkscape:connector-curvature="0" />
    <path
       style="opacity:0.5;fill:none;stroke:#00ffcc;stroke-width:1px;stroke-linejoin:round;stroke-linecap:round;stroke-linecap:square"
       d="m 92,30.5 0,10"
       id="ref-C-top-3"
       sodipodi:insensitive="true"
       inkscape:connector-curvature="0" />
    <path
       style="opacity:0.5;fill:none;stroke:#00ffcc;stroke-width:1px;stroke-linejoin:round;stroke-linecap:round;stroke-linecap:square"
       d="m 94,30.5 0,10"
       id="ref-C-top-4"
       sodipodi:insensitive="true"
       inkscape:connector-curvature="0" />
    <path
       style="opacity:0.5;fill:none;stroke:#00ffcc;stroke-width:1px;stroke-linejoin:round;stroke-linecap:round;stroke-linecap:square"
       d="m 306,30.5 0,10"
       id="ref-C-top-5"
       sodipodi:insensitive="true"
       inkscape:connector-curvature="0" />
    <path
       style="opacity:0.5;fill:none;stroke:#00ffcc;stroke-width:1px;stroke-linejoin:round;stroke-linecap:round;stroke-linecap:square"
       d="m 308,30.5 0,10"
       id="ref-C-top-6"
       sodipodi:insensitive="true"
       inkscape:connector-curvature="0" />
    <path
       style="opacity:0.5;fill:none;stroke:#00ffcc;stroke-width:1px;stroke-linejoin:round;stroke-linecap:round;stroke-linecap:square"
       d="m 332,30.5 0,10"
       id="ref-C-top-7"
       sodipodi:insensitive="true"
       inkscape:connector-curvature="0" />
    <path
       style="opacity:0.5;fill:none;stroke:#00ffcc;stroke-width:1px;stroke-linejoin:round;stroke-linecap:round;stroke-linecap:square"
       d="m 334,30.5 0,10"
       id="ref-C-top-8"
       sodipodi:insensitive="true"
       inkscape:connector-curvature="0" />
    <path
       style="opacity:0.5;fill:none;stroke:#ffc200;stroke-width:1px;stroke-linejoin:round;stroke-linecap:round;stroke-linecap:square"
       d="m 369.5,189 -10,0"
       id="ref-S-right-1"
       sodipodi:insensitive="true"
       inkscape:connector-curvature="0" />
    <path
       style="opacity:0.5;fill:none;stroke:#ffc200;stroke-width:1px;stroke-linejoin:round;stroke-linecap:round;stroke-linecap:square"
       d="m 369.5,191 -10,0"
       id="ref-S-right-2"
       sodipodi:insensitive="true"
       inkscape:connector-curvature="0" />
    <path
       style="opacity:0.5;fill:none;stroke:#ffc200;stroke-width:1px;stroke-linejoin:round;stroke-linecap:round;stroke-linecap:square"
       d="m 369.5,209 -10,0"
       id="ref-S-right-3"
       sodipodi:insensitive="true"
       inkscape:connector-curvature="0" />
    <path
       style="opacity:0.5;fill:none;stroke:#ffc200;stroke-width:1px;stroke-linejoin:round;stroke-linecap:round;stroke-linecap:square"
       d="m 369.5,211 -10,0"
       id="ref-S-right-4"
       sodipodi:insensitive="true"
       inkscape:connector-curvature="0" />
    <path
       style="opacity:0.5;fill:none;stroke:#00ff00;stroke-width:1px;stroke-linejoin:round;stroke-linecap:round;stroke-linecap:square"
       d="m 369.5,199 -10,0"
       id="ref-I-right-1"
       sodipodi:insensitive="true"
       inkscape:connector-curvature="0" />
    <path
       style="opacity:0.5;fill:none;stroke:#00ff00;stroke-width:1px;stroke-linejoin:round;stroke-linecap:round;stroke-linecap:square"
       d="m 369.5,201 -10,0"
       id="ref-I-right-2"
       sodipodi:insensitive="true"
       inkscape:connector-curvature="0" />
    <path
       style="opacity:0.5;fill:none;stroke:#00ffcc;stroke-width:1px;stroke-linejoin:round;stroke-linecap:round;stroke-linecap:square"
       d="m 369.5,66 -10,0"
       id="ref-C-right-1"
       sodipodi:insensitive="true"
       inkscape:connector-curvature="0" />
    <path
       style="opacity:0.5;fill:none;stroke:#00ffcc;stroke-width:1px;stroke-linejoin:round;stroke-linecap:round;stroke-linecap:square"
       d="m 369.5,68 -10,0"
       id="ref-C-right-2"
       sodipodi:insensitive="true"
       inkscape:connector-curvature="0" />
    <path
       style="opacity:0.5;fill:none;stroke:#00ffcc;stroke-width:1px;stroke-linejoin:round;stroke-linecap:round;stroke-linecap:square"
       d="m 369.5,92 -10,0"
       id="ref-C-right-3"
       sodipodi:insensitive="true"
       inkscape:connector-curvature="0" />
    <path
       style="opacity:0.5;fill:none;stroke:#00ffcc;stroke-width:1px;stroke-linejoin:round;stroke-linecap:round;stroke-linecap:square"
       d="m 369.5,94 -10,0"
       id="ref-C-right-4"
       sodipodi:insensitive="true"
       inkscape:connector-curvature="0" />
    <path
       style="opacity:0.5;fill:none;stroke:#00ffcc;stroke-width:1px;stroke-linejoin:round;stroke-linecap:round;stroke-linecap:square"
       d="m 369.5,306 -10,0"
       id="ref-C-right-5"
       sodipodi:insensitive="true"
       inkscape:connector-curvature="0" />
    <path
       style="opacity:0.5;fill:none;stroke:#00ffcc;stroke-width:1px;stroke-linejoin:round;stroke-linecap:round;stroke-linecap:square"
       d="m 369.5,308 -10,0"
       id="ref-C-right-6"
       sodipodi:insensitive="true"
       inkscape:connector-curvature="0" />
    <path
       style="opacity:0.5;fill:none;stroke:#00ffcc;stroke-width:1px;stroke-linejoin:round;stroke-linecap:round;stroke-linecap:square"
       d="m 369.5,332 -10,0"
       id="ref-C-right-7"
       sodipodi:insensitive="true"
       inkscape:connector-curvature="0" />
    <path
       style="opacity:0.5;fill:none;stroke:#00ffcc;stroke-width:1px;stroke-linejoin:round;stroke-linecap:round;stroke-linecap:square"
       d="m 369.5,334 -10,0"
       id="ref-C-right-8"
       sodipodi:insensitive="true"
       inkscape:connector-curvature="0" />
    <path
       style="opacity:0.5;fill:none;stroke:#ffc200;stroke-width:1px;stroke-linejoin:round;stroke-linecap:round;stroke-linecap:square"
       d="m 189,369.5 0,-10"
       id="ref-S-bottom-1"
       sodipodi:insensitive="true"
       inkscape:connector-curvature="0" />
    <path
       style="opacity:0.5;fill:none;stroke:#ffc200;stroke-width:1px;stroke-linejoin:round;stroke-linecap:round;stroke-linecap:square"
       d="m 191,369.5 0,-10"
       id="ref-S-bottom-2"
       sodipodi:insensitive="true"
       inkscape:connector-curvature="0" />
    <path
       style="opacity:0.5;fill:none;stroke:#ffc200;stroke-width:1px;stroke-linejoin:round;stroke-linecap:round;stroke-linecap:square"
       d="m 209,369.5 0,-10"
       id="ref-S-bottom-3"
       sodipodi:insensitive="true"
       inkscape:connector-curvature="0" />
    <path
       style="opacity:0.5;fill:none;stroke:#ffc200;stroke-width:1px;stroke-linejoin:round;stroke-linecap:round;stroke-linecap:square"
       d="m 211,369.5 0,-10"
       id="ref-S-bottom-4"
       sodipodi:insensitive="true"
       inkscape:connector-curvature="0" />
    <path
       style="opacity:0.5;fill:none;stroke:#00ff00;stroke-width:1px;stroke-linejoin:round;stroke-linecap:round;stroke-linecap:square"
       d="m 199,369.5 0,-10"
       id="ref-I-bottom-1"
       sodipodi:insensitive="true"
       inkscape:connector-curvature="0" />
    <path
       style="opacity:0.5;fill:none;stroke:#00ff00;stroke-width:1px;stroke-linejoin:round;stroke-linecap:round;stroke-linecap:square"
       d="m 201,369.5 0,-10"
       id="ref-I-bottom-2"
       sodipodi:insensitive="true"
       inkscape:connector-curvature="0" />
    <path
       style="opacity:0.5;fill:none;stroke:#00ffcc;stroke-width:1px;stroke-linejoin:round;stroke-linecap:round;stroke-linecap:square"
       d="m 66,369.5 0,-10"
       id="ref-C-bottom-1"
       sodipodi:insensitive="true"
       inkscape:connector-curvature="0" />
    <path
       style="opacity:0.5;fill:none;stroke:#00ffcc;stroke-width:1px;stroke-linejoin:round;stroke-linecap:round;stroke-linecap:square"
       d="m 68,369.5 0,-10"
       id="ref-C-bottom-2"
       sodipodi:insensitive="true"
       inkscape:connector-curvature="0" />
    <path
       style="opacity:0.5;fill:none;stroke:#00ffcc;stroke-width:1px;stroke-linejoin:round;stroke-linecap:round;stroke-linecap:square"
       d="m 92,369.5 0,-10"
       id="ref-C-bottom-3"
       sodipodi:insensitive="true"
       inkscape:connector-curvature="0" />
    <path
       style="opacity:0.5;fill:none;stroke:#00ffcc;stroke-width:1px;stroke-linejoin:round;stroke-linecap:round;stroke-linecap:square"
       d="m 94,369.5 0,-10"
       id="ref-C-bottom-4"
       sodipodi:insensitive="true"
       inkscape:connector-curvature="0" />
    <path
       style="opacity:0.5;fill:none;stroke:#00ffcc;stroke-width:1px;stroke-linejoin:round;stroke-linecap:round;stroke-linecap:square"
       d="m 306,369.5 0,-10"
       id="ref-C-bottom-5"
       sodipodi:insensitive="true"
       inkscape:connector-curvature="0" />
    <path
       style="opacity:0.5;fill:none;stroke:#00ffcc;stroke-width:1px;stroke-linejoin:round;stroke-linecap:round;stroke-linecap:square"
       d="m 308,369.5 0,-10"
       id="ref-C-bottom-6"
       sodipodi:insensitive="true"
       inkscape:connector-curvature="0" />
    <path
       style="opacity:0.5;fill:none;stroke:#00ffcc;stroke-width:1px;stroke-linejoin:round;stroke-linecap:round;stroke-linecap:square"
       d="m 332,369.5 0,-10"
       id="ref-C-bottom-7"
       sodipodi:insensitive="true"
       inkscape:connector-curvature="0" />
    <path
       style="opacity:0.5;fill:none;stroke:#00ffcc;stroke-width:1px;stroke-linejoin:round;stroke-linecap:round;stroke-linecap:square"
       d="m 334,369.5 0,-10"
       id="ref-C-bottom-8"
       sodipodi:insensitive="true"
       inkscape:connector-curvature="0" />
    <path
       style="opacity:0.5;fill:none;stroke:#ffc200;stroke-width:1px;stroke-linejoin:round;stroke-linecap:round;stroke-linecap:square"
       d="m 30.5,189 10,0"
       id="ref-S-left-1"
       sodipodi:insensitive="true"
       inkscape:connector-curvature="0" />
    <path
       style="opacity:0.5;fill:none;stroke:#ffc200;stroke-width:1px;stroke-linejoin:round;stroke-linecap:round;stroke-linecap:square"
       d="m 30.5,191 10,0"
       id="ref-S-left-2"
       sodipodi:insensitive="true"
       inkscape:connector-curvature="0" />
    <path
       style="opacity:0.5;fill:none;stroke:#ffc200;stroke-width:1px;stroke-linejoin:round;stroke-linecap:round;stroke-linecap:square"
       d="m 30.5,209 10,0"
       id="ref-S-left-3"
       sodipodi:insensitive="true"
       inkscape:connector-curvature="0" />
    <path
       style="opacity:0.5;fill:none;stroke:#ffc200;stroke-width:1px;stroke-linejoin:round;stroke-linecap:round;stroke-linecap:square"
       d="m 30.5,211 10,0"
       id="ref-S-left-4"
       sodipodi:insensitive="true"
       inkscape:connector-curvature="0" />
    <path
       style="opacity:0.5;fill:none;stroke:#00ff00;stroke-width:1px;stroke-linejoin:round;stroke-linecap:round;stroke-linecap:square"
       d="m 40.5,199 -10,0"
       id="ref-I-left-1"
       sodipodi:insensitive="true"
       inkscape:connector-curvature="0" />
    <path
       style="opacity:0.5;fill:none;stroke:#00ff00;stroke-width:1px;stroke-linejoin:round;stroke-linecap:round;stroke-linecap:square"
       d="m 40.5,201 -10,0"
       id="ref-I-left-2"
       sodipodi:insensitive="true"
       inkscape:connector-curvature="0" />
    <path
       style="opacity:0.5;fill:none;stroke:#00ffcc;stroke-width:1px;stroke-linejoin:round;stroke-linecap:round;stroke-linecap:square"
       d="m 30.5,66 10,0"
       id="ref-C-left-1"
       sodipodi:insensitive="true"
       inkscape:connector-curvature="0" />
    <path
       style="opacity:0.5;fill:none;stroke:#00ffcc;stroke-width:1px;stroke-linejoin:round;stroke-linecap:round;stroke-linecap:square"
       d="m 30.5,68 10,0"
       id="ref-C-left-2"
       sodipodi:insensitive="true"
       inkscape:connector-curvature="0" />
    <path
       style="opacity:0.5;fill:none;stroke:#00ffcc;stroke-width:1px;stroke-linejoin:round;stroke-linecap:round;stroke-linecap:square"
       d="m 30.5,92 10,0"
       id="ref-C-left-3"
       sodipodi:insensitive="true"
       inkscape:connector-curvature="0" />
    <path
       style="opacity:0.5;fill:none;stroke:#00ffcc;stroke-width:1px;stroke-linejoin:round;stroke-linecap:round;stroke-linecap:square"
       d="m 30.5,94 10,0"
       id="ref-C-left-4"
       sodipodi:insensitive="true"
       inkscape:connector-curvature="0" />
    <path
       style="opacity:0.5;fill:none;stroke:#00ffcc;stroke-width:1px;stroke-linejoin:round;stroke-linecap:round;stroke-linecap:square"
       d="m 30.5,306 10,0"
       id="ref-C-left-5"
       sodipodi:insensitive="true"
       inkscape:connector-curvature="0" />
    <path
       style="opacity:0.5;fill:none;stroke:#00ffcc;stroke-width:1px;stroke-linejoin:round;stroke-linecap:round;stroke-linecap:square"
       d="m 30.5,308 10,0"
       id="ref-C-left-6"
       sodipodi:insensitive="true"
       inkscape:connector-curvature="0" />
    <path
       style="opacity:0.5;fill:none;stroke:#00ffcc;stroke-width:1px;stroke-linejoin:round;stroke-linecap:round;stroke-linecap:square"
       d="m 30.5,332 10,0"
       id="ref-C-left-7"
       sodipodi:insensitive="true"
       inkscape:connector-curvature="0" />
    <path
       style="opacity:0.5;fill:none;stroke:#00ffcc;stroke-width:1px;stroke-linejoin:round;stroke-linecap:round;stroke-linecap:square"
       d="m 30.5,334 10,0"
       id="ref-C-left-8"
       sodipodi:insensitive="true"
       inkscape:connector-curvature="0" />
    <path
       style="fill:none;stroke:#000000;stroke-width:1px;stroke-linejoin:round;stroke-linecap:round;stroke-linecap:square"
       d="m 190,30.5 0,10"
       id="S-top-1"
       inkscape:connector-curvature="0" />
    <path
       style="fill:none;stroke:#000000;stroke-width:1px;stroke-linejoin:round;stroke-linecap:round;stroke-linecap:square"
       d="m 210,30.5 0,10"
       id="S-top-2"
       inkscape:connector-curvature="0" />
    <path
       style="fill:none;stroke:#000000;stroke-width:1px;stroke-linejoin:round;stroke-linecap:round;stroke-linecap:square"
       d="m 369.5,190 -10,0"
       id="S-right-1"
       inkscape:connector-curvature="0" />
    <path
       style="fill:none;stroke:#000000;stroke-width:1px;stroke-linejoin:round;stroke-linecap:round;stroke-linecap:square"
       d="m 369.5,210 -10,0"
       id="S-right-2"
       inkscape:connector-curvature="0" />
    <path
       style="fill:none;stroke:#000000;stroke-width:1px;stroke-linejoin:round;stroke-linecap:round;stroke-linecap:square"
       d="m 190,369.5 0,-10"
       id="S-bottom-1"
       inkscape:connector-curvature="0" />
    <path
       style="fill:none;stroke:#000000;stroke-width:1px;stroke-linejoin:round;stroke-linecap:round;stroke-linecap:square"
       d="m 210,369.5 0,-10"
       id="S-bottom-2"
       inkscape:connector-curvature="0" />
    <path
       style="fill:none;stroke:#000000;stroke-width:1px;stroke-linejoin:round;stroke-linecap:round;stroke-linecap:square"
       d="m 30.5,190 10,0"
       id="S-left-1"
       inkscape:connector-curvature="0" />
    <path
       style="fill:none;stroke:#000000;stroke-width:1px;stroke-linejoin:round;stroke-linecap:round;stroke-linecap:square"
       d="m 30.5,210 10,0"
       id="S-left-2"
       inkscape:connector-curvature="0" />
    <path
       style="fill:none;stroke:#000000;stroke-width:1px;stroke-linejoin:round;stroke-linecap:round;stroke-linecap:square"
       d="m 200,30.5 0,10"
       id="I-top-1"
       inkscape:connector-curvature="0" />
    <path
       style="fill:none;stroke:#000000;stroke-width:1px;stroke-linejoin:round;stroke-linecap:round;stroke-linecap:square"
       d="m 369.5,200 -10,0"
       id="I-right-1"
       inkscape:connector-curvature="0" />
    <path
       style="fill:none;stroke:#000000;stroke-width:1px;stroke-linejoin:round;stroke-linecap:round;stroke-linecap:square"
       d="m 200,369.5 0,-10"
       id="I-bottom-1"
       inkscape:connector-curvature="0" />
    <path
       style="fill:none;stroke:#000000;stroke-width:1px;stroke-linejoin:round;stroke-linecap:round;stroke-linecap:square"
       d="m 40.5,200 -10,0"
       id="I-left-1"
       inkscape:connector-curvature="0" />
    <path
       style="fill:none;stroke:#000000;stroke-width:1px;stroke-linejoin:round;stroke-linecap:round;stroke-linecap:square"
       d="m 67,30.5 0,10"
       id="C-top-1"
       inkscape:connector-curvature="0" />
    <path
       style="fill:none;stroke:#000000;stroke-width:1px;stroke-linejoin:round;stroke-linecap:round;stroke-linecap:square"
       d="m 93,30.5 0,10"
       id="C-top-2"
       inkscape:connector-curvature="0" />
    <path
       style="fill:none;stroke:#000000;stroke-width:1px;stroke-linejoin:round;stroke-linecap:round;stroke-linecap:square"
       d="m 307,30.5 0,10"
       id="C-top-3"
       inkscape:connector-curvature="0" />
    <path
       style="fill:none;stroke:#000000;stroke-width:1px;stroke-linejoin:round;stroke-linecap:round;stroke-linecap:square"
       d="m 333,30.5 0,10"
       id="C-top-4"
       inkscape:connector-curvature="0" />
    <path
       style="fill:none;stroke:#000000;stroke-width:1px;stroke-linejoin:round;stroke-linecap:round;stroke-linecap:square"
       d="m 369.5,67 -10,0"
       id="C-right-1"
       inkscape:connector-curvature="0" />
    <path
       style="fill:none;stroke:#000000;stroke-width:1px;stroke-linejoin:round;stroke-linecap:round;stroke-linecap:square"
       d="m 369.5,93 -10,0"
       id="C-right-2"
       inkscape:connector-curvature="0" />
    <path
       style="fill:none;stroke:#000000;stroke-width:1px;stroke-linejoin:round;stroke-linecap:round;stroke-linecap:square"
       d="m 369.5,307 -10,0"
       id="C-right-3"
       inkscape:connector-curvature="0" />
    <path
       style="fill:none;stroke:#000000;stroke-width:1px;stroke-linejoin:round;stroke-linecap:round;stroke-linecap:square"
       d="m 369.5,333 -10,0"
       id="C-right-4"
       inkscape:connector-curvature="0" />
    <path
       style="fill:none;stroke:#000000;stroke-width:1px;stroke-linejoin:round;stroke-linecap:round;stroke-linecap:square"
       d="m 67,369.5 0,-10"
       id="C-bottom-1"
       inkscape:connector-curvature="0" />
    <path
       style="fill:none;stroke:#000000;stroke-width:1px;stroke-linejoin:round;stroke-linecap:round;stroke-linecap:square"
       d="m 93,369.5 0,-10"
       id="C-bottom-2"
       inkscape:connector-curvature="0" />
    <path
       style="fill:none;stroke:#000000;stroke-width:1px;stroke-linejoin:round;stroke-linecap:round;stroke-linecap:square"
       d="m 307,369.5 0,-10"
       id="C-bottom-3"
       inkscape:connector-curvature="0" />
    <path
       style="fill:none;stroke:#000000;stroke-width:1px;stroke-linejoin:round;stroke-linecap:round;stroke-linecap:square"
       d="m 333,369.5 0,-10"
       id="C-bottom-4"
       inkscape:connector-curvature="0" />
    <path
       style="fill:none;stroke:#000000;stroke-width:1px;stroke-linejoin:round;stroke-linecap:round;stroke-linecap:square"
       d="m 30.5,67 10,0"
       id="C-left-1"
       inkscape:connector-curvature="0" />
    <path
       style="fill:none;stroke:#000000;stroke-width:1px;stroke-linejoin:round;stroke-linecap:round;stroke-linecap:square"
       d="m 30.5,93 10,0"
       id="C-left-2"
       inkscape:connector-curvature="0" />
    <path
       style="fill:none;stroke:#000000;stroke-width:1px;stroke-linejoin:round;stroke-linecap:round;stroke-linecap:square"
       d="m 30.5,307 10,0"
       id="C-left-3"
       inkscape:connector-curvature="0" />
    <path
       style="fill:none;stroke:#000000;stroke-width:1px;stroke-linejoin:round;stroke-linecap:round;stroke-linecap:square"
       d="m 30.5,333 10,0"
       id="C-left-4"
       inkscape:connector-curvature="0" />
  </g>
<g
     inkscape:groupmode="layer"
     id="g3149"
     inkscape:label="OKON-001"
     style="display:inline"
     sodipodi:insensitive="true">
    <path
       sodipodi:nodetypes="ccccc"
       inkscape:connector-curvature="0"
       id="path3147"
       d="m 67,307 0,26 302.5,0 0,-26 z"
       style="fill:#ffffff;stroke:none;display:inline" />
    <path
       style="fill:#ffffff;stroke:none;display:inline"
       d="m 67,67 0,26 302.5,0 0,-26 z"
       id="path3118"
       inkscape:connector-curvature="0"
       sodipodi:nodetypes="ccccc" />
    <path
       style="fill:none;stroke:#000000;stroke-width:1px;stroke-linejoin:round;stroke-linecap:round;stroke-linecap:square;display:inline"
       d="m 307,93.5 0,213"
       id="path3178-9"
       inkscape:connector-curvature="0"
       sodipodi:nodetypes="cc" />
    <path
       style="fill:none;stroke:#000000;stroke-width:1px;stroke-linejoin:round;stroke-linecap:round;stroke-linecap:square;display:inline"
       d="m 369.5,307 -10,0 -282.5,0 -10,0"
       id="C-right-3-7"
       inkscape:connector-curvature="0"
       sodipodi:nodetypes="cccc" />
    <path
       style="fill:none;stroke:#000000;stroke-width:1px;stroke-linejoin:round;stroke-linecap:round;stroke-linecap:square;display:inline"
       d="m 66.5,93 10,0 283,0 10,0"
       id="C-left-2-6"
       inkscape:connector-curvature="0"
       sodipodi:nodetypes="cccc" />
  </g>
<g
   style="display:none"
   inkscape:label="LLLL-001"
   id="g3125"
   inkscape:groupmode="layer"
   sodipodi:insensitive="true">
  <path
     style="fill:#ffffff;stroke:none"
     d="m 128.03125,67 0,264.71875 c 0,0.44719 0.0182,0.85145 0.0313,1.28125 l 149.5625,0 c -0.85521,-8.13599 -6.93857,-12.375 -17.90625,-12.375 l -103.03125,0 0,-253.625 -28.65625,0 z"
     id="path3136"
     inkscape:connector-curvature="0" />
  <path
     style="fill:none;stroke:#00ff00;stroke-width:1px;stroke-linejoin:round;stroke-linecap:round;display:inline"
     d="m 128.03125,67 0.0313,266 m 149.5625,0 c -0.85521,-8.13599 -6.93857,-12.375 -17.90625,-12.375 l -103.03125,0 0,-253.625"
     id="path3136-6"
     inkscape:connector-curvature="0"
     sodipodi:nodetypes="cccscc" />
</g>
<g
   style="display:none"
   inkscape:label="LLLL-002"
   id="g3141"
   inkscape:groupmode="layer"
   sodipodi:insensitive="true">
  <path
     style="fill:#ffffff;stroke:none"
     d="m 105.59375,67 -1.125,266 190.90625,0 c 0.11375,-0.85189 0.21875,-7.70918 0.21875,-8.59375 0,-9.71999 -6.49751,-17.41126 -15.8125,-19.03125 -1.62,-0.405 -12.14506,-0.40625 -69.25,-0.40625 l -67.21875,0 L 142.90625,67 z"
     id="path3152"
     inkscape:connector-curvature="0"
     sodipodi:nodetypes="cccscsccc" />
  <path
     style="fill:none;stroke:#00ff00;stroke-width:1px;stroke-linejoin:round;stroke-linecap:round;display:inline"
     d="m 295.375,333 c 0.11375,-0.85189 0.21875,-7.70918 0.21875,-8.59375 0,-9.71999 -6.49751,-17.41126 -15.8125,-19.03125 -1.62,-0.405 -12.14506,-0.40625 -69.25,-0.40625 l -67.21875,0 L 142.90625,67 m -37.3125,0 -1.125,266"
     id="path3152-5"
     inkscape:connector-curvature="0"
     sodipodi:nodetypes="cscscccc" />
</g>
<g
   style="display:none"
   inkscape:label="LLLL-003"
   id="g3157"
   inkscape:groupmode="layer"
   sodipodi:insensitive="true">
  <path
     style="fill:#ffffff;stroke:none"
     d="m 129.78125,67 c -6.72059,6.129156 -10.09375,14.265008 -10.09375,24.375 l 0,240.96875 c 0,0.22161 0.0246,0.43609 0.0313,0.65625 l 175.65625,0 c 0.31359,-2.03786 0.46871,-4.1491 0.46875,-6.34375 -1.7e-4,-8.90996 -2.55767,-16.7187 -7.6875,-23.46875 -4.86016,-6.74994 -11.61015,-10.12493 -20.25,-10.125 l -78.96875,0 0,-202.09375 C 188.93743,80.909132 185.56133,72.907502 178.8125,67 l -49.03125,0 z"
     id="path3168"
     inkscape:connector-curvature="0" />
  <path
     style="fill:none;stroke:#00ff00;stroke-width:1px;stroke-linejoin:round;stroke-linecap:round;display:inline"
     d="M 129.78125,67 C 123.06066,73.129156 119.6875,81.265008 119.6875,91.375 L 119.71875,333 m 175.65625,0 c 0.31359,-2.03786 0.46871,-4.1491 0.46875,-6.34375 -1.7e-4,-8.90996 -2.55767,-16.7187 -7.6875,-23.46875 -4.86016,-6.74994 -11.61015,-10.12493 -20.25,-10.125 l -78.96875,0 0,-202.09375 C 188.93743,80.909132 185.56133,72.907502 178.8125,67"
     id="path3168-5"
     inkscape:connector-curvature="0"
     sodipodi:nodetypes="ccccccscsc" />
</g>
<g
   style="display:none"
   inkscape:label="LLLL-004"
   id="g3173"
   inkscape:groupmode="layer"
   sodipodi:insensitive="true">
  <path
     style="fill:#ffffff;stroke:none"
     d="m 110.71875,67 0,266 182.90625,0 0,-27.40625 -134.84375,0 0,-238.59375 -48.0625,0 z"
     id="path3184"
     inkscape:connector-curvature="0" />
  <path
     style="fill:none;stroke:#00ff00;stroke-width:1px;stroke-linejoin:round;stroke-linecap:round;display:inline"
     d="m 110.71875,67 0,266 m 182.90625,0 0,-27.40625 -134.84375,0 0,-238.59375"
     id="path3184-2"
     inkscape:connector-curvature="0"
     sodipodi:nodetypes="cccccc" />
</g>
<g
   style="display:none"
   inkscape:label="LLLL-005"
   id="g3189"
   inkscape:groupmode="layer"
   sodipodi:insensitive="true">
  <path
     style="fill:#ffffff;stroke:none"
     d="m 187.8125,67 -33.1875,43.21875 0,195.71875 -14.6875,27.0625 112.09375,0 27.34375,-51 -84.4375,0 24.78125,-31.9375 0,-144.46875 35.28125,0 L 271,67 187.8125,67 z"
     id="path3200"
     inkscape:connector-curvature="0" />
  <path
     style="fill:none;stroke:#00ff00;stroke-width:1px;stroke-linejoin:round;stroke-linecap:round;display:inline"
     d="m 187.8125,67 -33.1875,43.21875 0,195.71875 L 139.9375,333 m 112.09375,0 27.34375,-51 -84.4375,0 24.78125,-31.9375 0,-144.46875 35.28125,0 L 271,67"
     id="path3200-1"
     inkscape:connector-curvature="0"
     sodipodi:nodetypes="ccccccccccc" />
</g>
<g
   style="display:none"
   inkscape:label="LLLL-006"
   id="g3205"
   inkscape:groupmode="layer"
   sodipodi:insensitive="true">
  <path
     style="fill:#ffffff;stroke:none"
     d="m 223.1875,67 c -6.72475,5.505642 -12.89478,12.70026 -18.53125,21.78125 -6.83999,10.79999 -12.22625,21.59001 -16.90625,32.75 -5.03999,11.15999 -10.10125,24.50502 -14.78125,39.625 -12.59999,-7.19999 -18.71875,-18.00501 -18.71875,-33.125 -0.36,-9.71999 2.17876,-18.02001 7.21875,-24.5 -8.99999,0 -16.20876,3.23876 -21.96875,9.71875 -5.75999,6.47999 -8.28125,13.69001 -8.28125,21.25 -0.36,7.91999 3.23876,15.48751 9.71875,22.6875 6.47999,7.19999 15.83876,12.9625 27.71875,16.5625 -2.16,5.76 -5.3825,15.85002 -10.0625,30.25 l -10.8125,33.46875 c -2.88,7.91999 -6.13375,17.26376 -10.09375,27.34375 -4.32,10.43999 -8.275,19.08251 -11.875,25.5625 -18.71998,-4.67999 -33.82376,-7.1875 -45.34375,-7.1875 -19.79998,0 -29.53125,6.12001 -29.53125,18 0,7.91999 3.61126,15.48751 11.53125,22.6875 4.593348,4.37462 10.000453,7.41377 16.1875,9.125 l 25.3125,0 c 10.27184,-2.76821 20.11001,-9.03105 29.40625,-18.84375 3.24,1.44 10.07751,4.30501 19.4375,8.625 9.35999,4.32 16.92876,7.215 21.96875,9.375 0.65005,0.27859 1.39586,0.56397 2.09375,0.84375 l 84.21875,0 c 5.24862,-6.0187 9.71931,-13.97986 13.40625,-23.90625 -10.79999,5.4 -21.60751,7.9375 -31.6875,7.9375 -17.27998,0 -48.9663,-6.83501 -95.40625,-20.875 14.39999,-21.95998 30.62377,-61.21506 49.34375,-117.375 16.19998,0 30.60251,-2.52125 43.5625,-8.28125 12.95999,-5.39999 22.65876,-12.61001 30.21875,-21.25 6.83999,-8.27999 12.61875,-17.26501 16.21875,-26.625 3.6,-9.35999 5.39,-18.37501 5.75,-27.375 0,-12.785309 -3.77903,-22.091015 -11.03125,-28.25 l -58.28125,0 z m 32.21875,3.4375 c 7.91999,0 11.90625,5.38751 11.90625,16.1875 0,9.35999 -2.52251,20.16751 -7.5625,31.6875 -5.03999,11.51999 -12.98126,22.32626 -23.78125,32.40625 -10.79999,10.07999 -22.32126,15.4675 -35.28125,16.1875 5.03999,-15.47998 9.36875,-28.09251 12.96875,-37.8125 3.6,-9.35999 7.55376,-19.07626 12.59375,-29.15625 4.68,-10.07999 9.36626,-17.2725 14.40625,-22.3125 4.68,-4.67999 9.71001,-7.1875 14.75,-7.1875 z M 76.875,297.59375 c 7.91999,0 20.50127,3.22376 37.78125,9.34375 -5.03999,5.04 -9.36875,8.99625 -12.96875,11.15625 -3.6,2.16 -8.25626,3.25 -13.65625,3.25 -6.47999,0 -12.2575,-1.4325 -16.9375,-4.3125 -5.03999,-2.88 -7.1875,-6.83625 -7.1875,-11.15625 0,-5.39999 4.32876,-7.92125 12.96875,-8.28125 z"
     id="path3223"
     inkscape:connector-curvature="0" />
  <path
     style="fill:none;stroke:#00ff00;stroke-width:1px;stroke-linejoin:round;stroke-linecap:round;display:inline"
     d="m 261.09375,333 c 5.24862,-6.0187 9.71931,-13.97986 13.40625,-23.90625 -10.79999,5.4 -21.60751,7.9375 -31.6875,7.9375 -17.27998,0 -48.9663,-6.83501 -95.40625,-20.875 14.39999,-21.95998 30.62377,-61.21506 49.34375,-117.375 16.19998,0 30.60251,-2.52125 43.5625,-8.28125 12.95999,-5.39999 22.65876,-12.61001 30.21875,-21.25 6.83999,-8.27999 12.61875,-17.26501 16.21875,-26.625 3.6,-9.35999 5.39,-18.37501 5.75,-27.375 0,-12.785309 -3.77903,-22.091015 -11.03125,-28.25 m -58.28125,0 c -6.72475,5.505642 -12.89478,12.70026 -18.53125,21.78125 -6.83999,10.79999 -12.22625,21.59001 -16.90625,32.75 -5.03999,11.15999 -10.10125,24.50502 -14.78125,39.625 -12.59999,-7.19999 -18.71875,-18.00501 -18.71875,-33.125 -0.36,-9.71999 2.17876,-18.02001 7.21875,-24.5 -8.99999,0 -16.20876,3.23876 -21.96875,9.71875 -5.75999,6.47999 -8.28125,13.69001 -8.28125,21.25 -0.36,7.91999 3.23876,15.48751 9.71875,22.6875 6.47999,7.19999 15.83876,12.9625 27.71875,16.5625 -2.16,5.76 -5.3825,15.85002 -10.0625,30.25 l -10.8125,33.46875 c -2.88,7.91999 -6.13375,17.26376 -10.09375,27.34375 -4.32,10.43999 -8.275,19.08251 -11.875,25.5625 -18.71998,-4.67999 -33.82376,-7.1875 -45.34375,-7.1875 -19.79998,0 -29.53125,6.12001 -29.53125,18 0,7.91999 3.61126,15.48751 11.53125,22.6875 4.593348,4.37462 10.000453,7.41377 16.1875,9.125 m 25.3125,0 c 10.27184,-2.76821 20.11001,-9.03105 29.40625,-18.84375 3.24,1.44 10.07751,4.30501 19.4375,8.625 9.35999,4.32 16.92876,7.215 21.96875,9.375 0.65005,0.27859 1.39586,0.56397 2.09375,0.84375 M 255.40625,70.4375 c 7.91999,0 11.90625,5.38751 11.90625,16.1875 0,9.35999 -2.52251,20.16751 -7.5625,31.6875 -5.03999,11.51999 -12.98126,22.32626 -23.78125,32.40625 -10.79999,10.07999 -22.32126,15.4675 -35.28125,16.1875 5.03999,-15.47998 9.36875,-28.09251 12.96875,-37.8125 3.6,-9.35999 7.55376,-19.07626 12.59375,-29.15625 4.68,-10.07999 9.36626,-17.2725 14.40625,-22.3125 4.68,-4.67999 9.71001,-7.1875 14.75,-7.1875 z M 76.875,297.59375 c 7.91999,0 20.50127,3.22376 37.78125,9.34375 -5.03999,5.04 -9.36875,8.99625 -12.96875,11.15625 -3.6,2.16 -8.25626,3.25 -13.65625,3.25 -6.47999,0 -12.2575,-1.4325 -16.9375,-4.3125 -5.03999,-2.88 -7.1875,-6.83625 -7.1875,-11.15625 0,-5.39999 4.32876,-7.92125 12.96875,-8.28125 z"
     id="path3223-7"
     inkscape:connector-curvature="0"
     sodipodi:nodetypes="ccsccccsccccccccscscccccssccccsscsssscccssccsscsc" />
</g>
<g
   style="display:inline"
   inkscape:label="LLLL-008"
   id="g3243"
   inkscape:groupmode="layer"
   sodipodi:insensitive="true">
  <path
     style="fill:#ffffff;stroke:none"
     d="m 36.03125,67 0,8.5 c 8.78906,0.39062 15.24219,1.5625 19.34375,3.125 3.90625,1.75781 6.625,4.88281 8.1875,9.375 1.5625,4.68749 2.34375,11.91407 2.34375,21.875 l 0,185.4375 c 0,10.15624 -0.78125,17.38281 -2.34375,21.875 -1.5625,4.68749 -4.28125,7.8125 -8.1875,9.375 -3.90624,1.75781 -10.35938,2.73437 -19.34375,3.125 l 0,3.3125 221.03125,0 c -1.33943,-17.86326 -1.90625,-39.36273 -1.90625,-58.59375 0,-14.2578 0.40626,-25.97657 1.1875,-35.15625 l -9.1875,0 c -2.73437,17.77342 -7.41406,33.39845 -14.25,46.875 -6.83593,13.47655 -15.25001,23.82813 -25.40625,31.25 -10.15624,7.42187 -21.07813,11.125 -33.1875,11.125 l -19.53125,0 c -7.42186,0 -12.89844,-0.57032 -16.21875,-1.9375 -3.51562,-1.17188 -5.85938,-3.90626 -7.03125,-7.8125 -1.36719,-3.90625 -1.9375,-10.15626 -1.9375,-18.75 l 0,-190.125 c 0,-9.96093 0.78125,-17.18751 2.34375,-21.875 1.5625,-4.49219 4.67188,-7.61719 8.96875,-9.375 C 145.20312,77.0625 152.23438,75.89062 162,75.5 L 162,67 36.03125,67 z"
     id="path3254"
     inkscape:connector-curvature="0" />
  <path
     style="fill:none;stroke:#00ff00;stroke-width:1px;stroke-linejoin:round;stroke-linecap:round;display:inline"
     d="m 36.03125,67 0,8.5 c 8.78906,0.39062 15.24219,1.5625 19.34375,3.125 3.90625,1.75781 6.625,4.88281 8.1875,9.375 1.5625,4.68749 2.34375,11.91407 2.34375,21.875 l 0,185.4375 c 0,10.15624 -0.78125,17.38281 -2.34375,21.875 -1.5625,4.68749 -4.28125,7.8125 -8.1875,9.375 -3.90624,1.75781 -10.35938,2.73437 -19.34375,3.125 l 0,3.3125 m 221.03125,0 c -1.33943,-17.86326 -1.90625,-39.36273 -1.90625,-58.59375 0,-14.2578 0.40626,-25.97657 1.1875,-35.15625 l -9.1875,0 c -2.73437,17.77342 -7.41406,33.39845 -14.25,46.875 -6.83593,13.47655 -15.25001,23.82813 -25.40625,31.25 -10.15624,7.42187 -21.07813,11.125 -33.1875,11.125 l -19.53125,0 c -7.42186,0 -12.89844,-0.57032 -16.21875,-1.9375 -3.51562,-1.17188 -5.85938,-3.90626 -7.03125,-7.8125 -1.36719,-3.90625 -1.9375,-10.15626 -1.9375,-18.75 l 0,-190.125 c 0,-9.96093 0.78125,-17.18751 2.34375,-21.875 1.5625,-4.49219 4.67188,-7.61719 8.96875,-9.375 C 145.20312,77.0625 152.23438,75.89062 162,75.5 l 0,-8.5"
     id="path3254-9"
     inkscape:connector-curvature="0"
     sodipodi:nodetypes="ccccsscccccsccssssccsscccc" />
</g>
<g
     style="display:inline"
     inkscape:label="UKON-001"
     id="g3155"
     inkscape:groupmode="layer"
     sodipodi:insensitive="true">
    <path
       sodipodi:nodetypes="ccccc"
       inkscape:connector-curvature="0"
       id="path3343"
       d="m 333,365.5 32,0 0,-332 -32,0 z"
       style="fill:#ffffff;stroke:none;display:inline" />
    <path
       style="fill:none;stroke:#000000;stroke-width:1px;stroke-linejoin:round;stroke-linecap:round;stroke-linecap:square;display:inline"
       d="m 307,30.5 0,10 0,26"
       id="path3178-9-2"
       inkscape:connector-curvature="0"
       sodipodi:nodetypes="ccc" />
    <path
       sodipodi:nodetypes="ccc"
       inkscape:connector-curvature="0"
       id="path3409"
       d="m 93,30.5 0,10 0,26"
       style="fill:none;stroke:#000000;stroke-width:1px;stroke-linejoin:round;stroke-linecap:round;stroke-linecap:square;display:inline" />
    <path
       sodipodi:nodetypes="cccc"
       inkscape:connector-curvature="0"
       id="path3153"
       d="m 67,67 10,0 282.5,0 10,0"
       style="fill:none;stroke:#000000;stroke-width:1px;stroke-linejoin:round;stroke-linecap:round;stroke-linecap:square;display:inline" />
    <path
       sodipodi:nodetypes="ccccc"
       inkscape:connector-curvature="0"
       id="path3261"
       d="m 34,365.5 33,0 0,-332 -33,0 z"
       style="fill:#ffffff;stroke:none;display:inline" />
    <path
       style="fill:none;stroke:#000000;stroke-width:1px;stroke-linejoin:round;stroke-linecap:round;stroke-linecap:square;display:inline"
       d="m 307,333.5 0,26 0,10"
       id="path3178-9-1"
       inkscape:connector-curvature="0"
       sodipodi:nodetypes="ccc" />
    <path
       sodipodi:nodetypes="ccc"
       inkscape:connector-curvature="0"
       id="path3411"
       d="m 93,333.5 0,26 0,10"
       style="fill:none;stroke:#000000;stroke-width:1px;stroke-linejoin:round;stroke-linecap:round;stroke-linecap:square;display:inline" />
    <path
       style="fill:none;stroke:#000000;stroke-width:1px;stroke-linejoin:round;stroke-linecap:round;stroke-linecap:square;display:inline"
       d="m 369.5,333 -10,0 -282,0 -10,0"
       id="path3159"
       inkscape:connector-curvature="0"
       sodipodi:nodetypes="cccc" />
    <path
       sodipodi:nodetypes="cc"
       inkscape:connector-curvature="0"
       id="path3236"
       d="m 67,30.5 0,62"
       style="fill:none;stroke:#000000;stroke-width:1px;stroke-linejoin:round;stroke-linecap:round;stroke-linecap:square;display:inline" />
    <path
       sodipodi:nodetypes="cccc"
       inkscape:connector-curvature="0"
       id="path3234"
       d="m 67,93.5 0,10 0,256 0,10"
       style="fill:none;stroke:#000000;stroke-width:1px;stroke-linejoin:round;stroke-linecap:round;stroke-linecap:square;display:inline" />
    <path
       style="fill:none;stroke:#000000;stroke-width:1px;stroke-linejoin:round;stroke-linecap:round;stroke-linecap:square;display:inline"
       d="m 369.5,93 -36,0"
       id="C-right-2-7"
       inkscape:connector-curvature="0"
       sodipodi:nodetypes="cc" />
    <path
       style="fill:none;stroke:#000000;stroke-width:1px;stroke-linejoin:round;stroke-linecap:round;stroke-linecap:square;display:inline"
       d="m 369.5,307 -36,0"
       id="C-right-3-0"
       inkscape:connector-curvature="0"
       sodipodi:nodetypes="cc" />
    <path
       style="fill:none;stroke:#000000;stroke-width:1px;stroke-linejoin:round;stroke-linecap:round;stroke-linecap:square;display:inline"
       d="m 333,30.5 0,10 0,319 0,10"
       id="path3178"
       inkscape:connector-curvature="0"
       sodipodi:nodetypes="cccc" />
  </g>
</svg>
