<?xml version="1.0" encoding="UTF-8" standalone="no"?>
<!-- Created with Inkscape (http://www.inkscape.org/) -->
<svg
   xmlns:dc="http://purl.org/dc/elements/1.1/"
   xmlns:cc="http://creativecommons.org/ns#"
   xmlns:rdf="http://www.w3.org/1999/02/22-rdf-syntax-ns#"
   xmlns:svg="http://www.w3.org/2000/svg"
   xmlns="http://www.w3.org/2000/svg"
   xmlns:sodipodi="http://sodipodi.sourceforge.net/DTD/sodipodi-0.dtd"
   xmlns:inkscape="http://www.inkscape.org/namespaces/inkscape"
   style="display:inline"
   sodipodi:docname="181212_ZZZZ-MR+_00_CB_00_CB_.svg"
   inkscape:version="0.48.3.1 r9886"
   version="1.1"
   id="svg2902"
   height="400"
   width="400"><sodipodi:namedview
   id="base"
   pagecolor="#f0f0f0"
   bordercolor="#666666"
   borderopacity="1.0"
   inkscape:pageopacity="1"
   inkscape:pageshadow="2"
   inkscape:zoom="1.2663973"
   inkscape:cx="92.987693"
   inkscape:cy="157.70852"
   inkscape:document-units="px"
   inkscape:current-layer="g3215"
   showgrid="false"
   inkscape:window-width="1018"
   inkscape:window-height="709"
   inkscape:window-x="0"
   inkscape:window-y="1"
   inkscape:window-maximized="0"
   showguides="true"
   inkscape:guide-bbox="true"
   inkscape:snap-bbox="true"
   inkscape:snap-global="false" />
<defs
   id="defs2904">
  <clipPath
     clipPathUnits="userSpaceOnUse"
     id="clipPath5174">
    <path
       id="path5176"
       style="opacity:0.5;fill:#00ff00;stroke:#00ff00;stroke-width:1px;stroke-linecap:square;display:inline"
       d="m 436.26971,600.11436 -232.09481,134 -169.500003,-293.58262 232.094813,-134 z"
       inkscape:connector-curvature="0"
       sodipodi:nodetypes="ccccc" />
  </clipPath>
  <clipPath
     clipPathUnits="userSpaceOnUse"
     id="clipPath5174-5">
    <path
       id="path5176-9"
       style="opacity:0.5;fill:#00ff00;stroke:#00ff00;stroke-width:1px;stroke-linecap:square;display:inline"
       d="m 436.26971,600.11436 -232.09481,134 -169.500003,-293.58262 232.094813,-134 z"
       inkscape:connector-curvature="0"
       sodipodi:nodetypes="ccccc" />
  </clipPath>
  <clipPath
     clipPathUnits="userSpaceOnUse"
     id="clipPath3238">
    <path
       sodipodi:nodetypes="ccccc"
       inkscape:connector-curvature="0"
       d="m 461.26971,643.41563 -232.09481,134 -169.500002,-293.58262 232.094812,-134 z"
       style="opacity:0.5;fill:#00ff00;stroke:#00ff00;stroke-width:1px;stroke-linecap:square;display:inline"
       id="path3240" />
  </clipPath>
</defs>
<metadata
   id="metadata2907">
  <rdf:RDF>
    <cc:Work
       rdf:about="">
      <dc:format>image/svg+xml</dc:format>
      <dc:type
         rdf:resource="http://purl.org/dc/dcmitype/StillImage" />
      <dc:title />
    </cc:Work>
  </rdf:RDF>
</metadata>
<g
     inkscape:groupmode="layer"
     id="bg"
     inkscape:label="XX_BG"
     sodipodi:insensitive="true">
    <path
       style="fill:#f6ffd5"
       d="M 400,0 400,400 0,400 0,0 z"
       id="bgrect"
       inkscape:connector-curvature="0" />
  </g>
<g
     inkscape:label="XX_Referenz"
     inkscape:groupmode="layer"
     id="XX_referenz"
     style="display:inline"
     sodipodi:insensitive="true">
    <path
       id="innerframe"
       style="fill:none;stroke:#ff0000;stroke-width:1"
       d="m 40.5,40.5 319,0 0,319 -319,0 0,-319 z"
       inkscape:label="#innerframe"
       sodipodi:insensitive="true"
       inkscape:connector-curvature="0" />
    <path
       id="outerframe"
       style="fill:none;stroke:#ff0000;stroke-width:1"
       d="m 30.5,30.5 339,0 0,339 -339,0 0,-339 z"
       inkscape:label="#outerframe"
       sodipodi:nodetypes="ccccc"
       sodipodi:insensitive="true"
       inkscape:connector-curvature="0" />
    <path
       style="opacity:0.5;fill:none;stroke:#ffc200;stroke-width:1px;stroke-linecap:square"
       d="m 189,30.5 0,10"
       id="ref-S-top-1"
       sodipodi:insensitive="true"
       inkscape:connector-curvature="0" />
    <path
       style="opacity:0.5;fill:none;stroke:#ffc200;stroke-width:1px;stroke-linecap:square"
       d="m 191,30.5 0,10"
       id="ref-S-top-2"
       sodipodi:insensitive="true"
       inkscape:connector-curvature="0" />
    <path
       style="opacity:0.5;fill:none;stroke:#ffc200;stroke-width:1px;stroke-linecap:square"
       d="m 209,30.5 0,10"
       id="ref-S-top-3"
       sodipodi:insensitive="true"
       inkscape:connector-curvature="0" />
    <path
       style="opacity:0.5;fill:none;stroke:#ffc200;stroke-width:1px;stroke-linecap:square"
       d="m 211,30.5 0,10"
       id="ref-S-top-4"
       sodipodi:insensitive="true"
       inkscape:connector-curvature="0" />
    <path
       style="opacity:0.5;fill:none;stroke:#00ff00;stroke-width:1px;stroke-linecap:square"
       d="m 199,30.5 0,10"
       id="ref-I-top-1"
       sodipodi:insensitive="true"
       inkscape:connector-curvature="0" />
    <path
       style="opacity:0.5;fill:none;stroke:#00ff00;stroke-width:1px;stroke-linecap:square"
       d="m 201,30.5 0,10"
       id="ref-I-top-2"
       sodipodi:insensitive="true"
       inkscape:connector-curvature="0" />
    <path
       style="opacity:0.5;fill:none;stroke:#00ffcc;stroke-width:1px;stroke-linecap:square"
       d="m 66,30.5 0,10"
       id="ref-C-top-1"
       sodipodi:insensitive="true"
       inkscape:connector-curvature="0" />
    <path
       style="opacity:0.5;fill:none;stroke:#00ffcc;stroke-width:1px;stroke-linecap:square"
       d="m 68,30.5 0,10"
       id="ref-C-top-2"
       sodipodi:insensitive="true"
       inkscape:connector-curvature="0" />
    <path
       style="opacity:0.5;fill:none;stroke:#00ffcc;stroke-width:1px;stroke-linecap:square"
       d="m 92,30.5 0,10"
       id="ref-C-top-3"
       sodipodi:insensitive="true"
       inkscape:connector-curvature="0" />
    <path
       style="opacity:0.5;fill:none;stroke:#00ffcc;stroke-width:1px;stroke-linecap:square"
       d="m 94,30.5 0,10"
       id="ref-C-top-4"
       sodipodi:insensitive="true"
       inkscape:connector-curvature="0" />
    <path
       style="opacity:0.5;fill:none;stroke:#00ffcc;stroke-width:1px;stroke-linecap:square"
       d="m 306,30.5 0,10"
       id="ref-C-top-5"
       sodipodi:insensitive="true"
       inkscape:connector-curvature="0" />
    <path
       style="opacity:0.5;fill:none;stroke:#00ffcc;stroke-width:1px;stroke-linecap:square"
       d="m 308,30.5 0,10"
       id="ref-C-top-6"
       sodipodi:insensitive="true"
       inkscape:connector-curvature="0" />
    <path
       style="opacity:0.5;fill:none;stroke:#00ffcc;stroke-width:1px;stroke-linecap:square"
       d="m 332,30.5 0,10"
       id="ref-C-top-7"
       sodipodi:insensitive="true"
       inkscape:connector-curvature="0" />
    <path
       style="opacity:0.5;fill:none;stroke:#00ffcc;stroke-width:1px;stroke-linecap:square"
       d="m 334,30.5 0,10"
       id="ref-C-top-8"
       sodipodi:insensitive="true"
       inkscape:connector-curvature="0" />
    <path
       style="opacity:0.5;fill:none;stroke:#ffc200;stroke-width:1px;stroke-linecap:square"
       d="m 369.5,189 -10,0"
       id="ref-S-right-1"
       sodipodi:insensitive="true"
       inkscape:connector-curvature="0" />
    <path
       style="opacity:0.5;fill:none;stroke:#ffc200;stroke-width:1px;stroke-linecap:square"
       d="m 369.5,191 -10,0"
       id="ref-S-right-2"
       sodipodi:insensitive="true"
       inkscape:connector-curvature="0" />
    <path
       style="opacity:0.5;fill:none;stroke:#ffc200;stroke-width:1px;stroke-linecap:square"
       d="m 369.5,209 -10,0"
       id="ref-S-right-3"
       sodipodi:insensitive="true"
       inkscape:connector-curvature="0" />
    <path
       style="opacity:0.5;fill:none;stroke:#ffc200;stroke-width:1px;stroke-linecap:square"
       d="m 369.5,211 -10,0"
       id="ref-S-right-4"
       sodipodi:insensitive="true"
       inkscape:connector-curvature="0" />
    <path
       style="opacity:0.5;fill:none;stroke:#00ff00;stroke-width:1px;stroke-linecap:square"
       d="m 369.5,199 -10,0"
       id="ref-I-right-1"
       sodipodi:insensitive="true"
       inkscape:connector-curvature="0" />
    <path
       style="opacity:0.5;fill:none;stroke:#00ff00;stroke-width:1px;stroke-linecap:square"
       d="m 369.5,201 -10,0"
       id="ref-I-right-2"
       sodipodi:insensitive="true"
       inkscape:connector-curvature="0" />
    <path
       style="opacity:0.5;fill:none;stroke:#00ffcc;stroke-width:1px;stroke-linecap:square"
       d="m 369.5,66 -10,0"
       id="ref-C-right-1"
       sodipodi:insensitive="true"
       inkscape:connector-curvature="0" />
    <path
       style="opacity:0.5;fill:none;stroke:#00ffcc;stroke-width:1px;stroke-linecap:square"
       d="m 369.5,68 -10,0"
       id="ref-C-right-2"
       sodipodi:insensitive="true"
       inkscape:connector-curvature="0" />
    <path
       style="opacity:0.5;fill:none;stroke:#00ffcc;stroke-width:1px;stroke-linecap:square"
       d="m 369.5,92 -10,0"
       id="ref-C-right-3"
       sodipodi:insensitive="true"
       inkscape:connector-curvature="0" />
    <path
       style="opacity:0.5;fill:none;stroke:#00ffcc;stroke-width:1px;stroke-linecap:square"
       d="m 369.5,94 -10,0"
       id="ref-C-right-4"
       sodipodi:insensitive="true"
       inkscape:connector-curvature="0" />
    <path
       style="opacity:0.5;fill:none;stroke:#00ffcc;stroke-width:1px;stroke-linecap:square"
       d="m 369.5,306 -10,0"
       id="ref-C-right-5"
       sodipodi:insensitive="true"
       inkscape:connector-curvature="0" />
    <path
       style="opacity:0.5;fill:none;stroke:#00ffcc;stroke-width:1px;stroke-linecap:square"
       d="m 369.5,308 -10,0"
       id="ref-C-right-6"
       sodipodi:insensitive="true"
       inkscape:connector-curvature="0" />
    <path
       style="opacity:0.5;fill:none;stroke:#00ffcc;stroke-width:1px;stroke-linecap:square"
       d="m 369.5,332 -10,0"
       id="ref-C-right-7"
       sodipodi:insensitive="true"
       inkscape:connector-curvature="0" />
    <path
       style="opacity:0.5;fill:none;stroke:#00ffcc;stroke-width:1px;stroke-linecap:square"
       d="m 369.5,334 -10,0"
       id="ref-C-right-8"
       sodipodi:insensitive="true"
       inkscape:connector-curvature="0" />
    <path
       style="opacity:0.5;fill:none;stroke:#ffc200;stroke-width:1px;stroke-linecap:square"
       d="m 189,369.5 0,-10"
       id="ref-S-bottom-1"
       sodipodi:insensitive="true"
       inkscape:connector-curvature="0" />
    <path
       style="opacity:0.5;fill:none;stroke:#ffc200;stroke-width:1px;stroke-linecap:square"
       d="m 191,369.5 0,-10"
       id="ref-S-bottom-2"
       sodipodi:insensitive="true"
       inkscape:connector-curvature="0" />
    <path
       style="opacity:0.5;fill:none;stroke:#ffc200;stroke-width:1px;stroke-linecap:square"
       d="m 209,369.5 0,-10"
       id="ref-S-bottom-3"
       sodipodi:insensitive="true"
       inkscape:connector-curvature="0" />
    <path
       style="opacity:0.5;fill:none;stroke:#ffc200;stroke-width:1px;stroke-linecap:square"
       d="m 211,369.5 0,-10"
       id="ref-S-bottom-4"
       sodipodi:insensitive="true"
       inkscape:connector-curvature="0" />
    <path
       style="opacity:0.5;fill:none;stroke:#00ff00;stroke-width:1px;stroke-linecap:square"
       d="m 199,369.5 0,-10"
       id="ref-I-bottom-1"
       sodipodi:insensitive="true"
       inkscape:connector-curvature="0" />
    <path
       style="opacity:0.5;fill:none;stroke:#00ff00;stroke-width:1px;stroke-linecap:square"
       d="m 201,369.5 0,-10"
       id="ref-I-bottom-2"
       sodipodi:insensitive="true"
       inkscape:connector-curvature="0" />
    <path
       style="opacity:0.5;fill:none;stroke:#00ffcc;stroke-width:1px;stroke-linecap:square"
       d="m 66,369.5 0,-10"
       id="ref-C-bottom-1"
       sodipodi:insensitive="true"
       inkscape:connector-curvature="0" />
    <path
       style="opacity:0.5;fill:none;stroke:#00ffcc;stroke-width:1px;stroke-linecap:square"
       d="m 68,369.5 0,-10"
       id="ref-C-bottom-2"
       sodipodi:insensitive="true"
       inkscape:connector-curvature="0" />
    <path
       style="opacity:0.5;fill:none;stroke:#00ffcc;stroke-width:1px;stroke-linecap:square"
       d="m 92,369.5 0,-10"
       id="ref-C-bottom-3"
       sodipodi:insensitive="true"
       inkscape:connector-curvature="0" />
    <path
       style="opacity:0.5;fill:none;stroke:#00ffcc;stroke-width:1px;stroke-linecap:square"
       d="m 94,369.5 0,-10"
       id="ref-C-bottom-4"
       sodipodi:insensitive="true"
       inkscape:connector-curvature="0" />
    <path
       style="opacity:0.5;fill:none;stroke:#00ffcc;stroke-width:1px;stroke-linecap:square"
       d="m 306,369.5 0,-10"
       id="ref-C-bottom-5"
       sodipodi:insensitive="true"
       inkscape:connector-curvature="0" />
    <path
       style="opacity:0.5;fill:none;stroke:#00ffcc;stroke-width:1px;stroke-linecap:square"
       d="m 308,369.5 0,-10"
       id="ref-C-bottom-6"
       sodipodi:insensitive="true"
       inkscape:connector-curvature="0" />
    <path
       style="opacity:0.5;fill:none;stroke:#00ffcc;stroke-width:1px;stroke-linecap:square"
       d="m 332,369.5 0,-10"
       id="ref-C-bottom-7"
       sodipodi:insensitive="true"
       inkscape:connector-curvature="0" />
    <path
       style="opacity:0.5;fill:none;stroke:#00ffcc;stroke-width:1px;stroke-linecap:square"
       d="m 334,369.5 0,-10"
       id="ref-C-bottom-8"
       sodipodi:insensitive="true"
       inkscape:connector-curvature="0" />
    <path
       style="opacity:0.5;fill:none;stroke:#ffc200;stroke-width:1px;stroke-linecap:square"
       d="m 30.5,189 10,0"
       id="ref-S-left-1"
       sodipodi:insensitive="true"
       inkscape:connector-curvature="0" />
    <path
       style="opacity:0.5;fill:none;stroke:#ffc200;stroke-width:1px;stroke-linecap:square"
       d="m 30.5,191 10,0"
       id="ref-S-left-2"
       sodipodi:insensitive="true"
       inkscape:connector-curvature="0" />
    <path
       style="opacity:0.5;fill:none;stroke:#ffc200;stroke-width:1px;stroke-linecap:square"
       d="m 30.5,209 10,0"
       id="ref-S-left-3"
       sodipodi:insensitive="true"
       inkscape:connector-curvature="0" />
    <path
       style="opacity:0.5;fill:none;stroke:#ffc200;stroke-width:1px;stroke-linecap:square"
       d="m 30.5,211 10,0"
       id="ref-S-left-4"
       sodipodi:insensitive="true"
       inkscape:connector-curvature="0" />
    <path
       style="opacity:0.5;fill:none;stroke:#00ff00;stroke-width:1px;stroke-linecap:square"
       d="m 40.5,199 -10,0"
       id="ref-I-left-1"
       sodipodi:insensitive="true"
       inkscape:connector-curvature="0" />
    <path
       style="opacity:0.5;fill:none;stroke:#00ff00;stroke-width:1px;stroke-linecap:square"
       d="m 40.5,201 -10,0"
       id="ref-I-left-2"
       sodipodi:insensitive="true"
       inkscape:connector-curvature="0" />
    <path
       style="opacity:0.5;fill:none;stroke:#00ffcc;stroke-width:1px;stroke-linecap:square"
       d="m 30.5,66 10,0"
       id="ref-C-left-1"
       sodipodi:insensitive="true"
       inkscape:connector-curvature="0" />
    <path
       style="opacity:0.5;fill:none;stroke:#00ffcc;stroke-width:1px;stroke-linecap:square"
       d="m 30.5,68 10,0"
       id="ref-C-left-2"
       sodipodi:insensitive="true"
       inkscape:connector-curvature="0" />
    <path
       style="opacity:0.5;fill:none;stroke:#00ffcc;stroke-width:1px;stroke-linecap:square"
       d="m 30.5,92 10,0"
       id="ref-C-left-3"
       sodipodi:insensitive="true"
       inkscape:connector-curvature="0" />
    <path
       style="opacity:0.5;fill:none;stroke:#00ffcc;stroke-width:1px;stroke-linecap:square"
       d="m 30.5,94 10,0"
       id="ref-C-left-4"
       sodipodi:insensitive="true"
       inkscape:connector-curvature="0" />
    <path
       style="opacity:0.5;fill:none;stroke:#00ffcc;stroke-width:1px;stroke-linecap:square"
       d="m 30.5,306 10,0"
       id="ref-C-left-5"
       sodipodi:insensitive="true"
       inkscape:connector-curvature="0" />
    <path
       style="opacity:0.5;fill:none;stroke:#00ffcc;stroke-width:1px;stroke-linecap:square"
       d="m 30.5,308 10,0"
       id="ref-C-left-6"
       sodipodi:insensitive="true"
       inkscape:connector-curvature="0" />
    <path
       style="opacity:0.5;fill:none;stroke:#00ffcc;stroke-width:1px;stroke-linecap:square"
       d="m 30.5,332 10,0"
       id="ref-C-left-7"
       sodipodi:insensitive="true"
       inkscape:connector-curvature="0" />
    <path
       style="opacity:0.5;fill:none;stroke:#00ffcc;stroke-width:1px;stroke-linecap:square"
       d="m 30.5,334 10,0"
       id="ref-C-left-8"
       sodipodi:insensitive="true"
       inkscape:connector-curvature="0" />
    <path
       style="fill:none;stroke:#000000;stroke-width:1px;stroke-linecap:square"
       d="m 190,30.5 0,10"
       id="S-top-1"
       inkscape:connector-curvature="0" />
    <path
       style="fill:none;stroke:#000000;stroke-width:1px;stroke-linecap:square"
       d="m 210,30.5 0,10"
       id="S-top-2"
       inkscape:connector-curvature="0" />
    <path
       style="fill:none;stroke:#000000;stroke-width:1px;stroke-linecap:square"
       d="m 369.5,190 -10,0"
       id="S-right-1"
       inkscape:connector-curvature="0" />
    <path
       style="fill:none;stroke:#000000;stroke-width:1px;stroke-linecap:square"
       d="m 369.5,210 -10,0"
       id="S-right-2"
       inkscape:connector-curvature="0" />
    <path
       style="fill:none;stroke:#000000;stroke-width:1px;stroke-linecap:square"
       d="m 190,369.5 0,-10"
       id="S-bottom-1"
       inkscape:connector-curvature="0" />
    <path
       style="fill:none;stroke:#000000;stroke-width:1px;stroke-linecap:square"
       d="m 210,369.5 0,-10"
       id="S-bottom-2"
       inkscape:connector-curvature="0" />
    <path
       style="fill:none;stroke:#000000;stroke-width:1px;stroke-linecap:square"
       d="m 30.5,190 10,0"
       id="S-left-1"
       inkscape:connector-curvature="0" />
    <path
       style="fill:none;stroke:#000000;stroke-width:1px;stroke-linecap:square"
       d="m 30.5,210 10,0"
       id="S-left-2"
       inkscape:connector-curvature="0" />
    <path
       style="fill:none;stroke:#000000;stroke-width:1px;stroke-linecap:square"
       d="m 200,30.5 0,10"
       id="I-top-1"
       inkscape:connector-curvature="0" />
    <path
       style="fill:none;stroke:#000000;stroke-width:1px;stroke-linecap:square"
       d="m 369.5,200 -10,0"
       id="I-right-1"
       inkscape:connector-curvature="0" />
    <path
       style="fill:none;stroke:#000000;stroke-width:1px;stroke-linecap:square"
       d="m 200,369.5 0,-10"
       id="I-bottom-1"
       inkscape:connector-curvature="0" />
    <path
       style="fill:none;stroke:#000000;stroke-width:1px;stroke-linecap:square"
       d="m 40.5,200 -10,0"
       id="I-left-1"
       inkscape:connector-curvature="0" />
    <path
       style="fill:none;stroke:#000000;stroke-width:1px;stroke-linecap:square"
       d="m 67,30.5 0,10"
       id="C-top-1"
       inkscape:connector-curvature="0" />
    <path
       style="fill:none;stroke:#000000;stroke-width:1px;stroke-linecap:square"
       d="m 93,30.5 0,10"
       id="C-top-2"
       inkscape:connector-curvature="0" />
    <path
       style="fill:none;stroke:#000000;stroke-width:1px;stroke-linecap:square"
       d="m 307,30.5 0,10"
       id="C-top-3"
       inkscape:connector-curvature="0" />
    <path
       style="fill:none;stroke:#000000;stroke-width:1px;stroke-linecap:square"
       d="m 333,30.5 0,10"
       id="C-top-4"
       inkscape:connector-curvature="0" />
    <path
       style="fill:none;stroke:#000000;stroke-width:1px;stroke-linecap:square"
       d="m 369.5,67 -10,0"
       id="C-right-1"
       inkscape:connector-curvature="0" />
    <path
       style="fill:none;stroke:#000000;stroke-width:1px;stroke-linecap:square"
       d="m 369.5,93 -10,0"
       id="C-right-2"
       inkscape:connector-curvature="0" />
    <path
       style="fill:none;stroke:#000000;stroke-width:1px;stroke-linecap:square"
       d="m 369.5,307 -10,0"
       id="C-right-3"
       inkscape:connector-curvature="0" />
    <path
       style="fill:none;stroke:#000000;stroke-width:1px;stroke-linecap:square"
       d="m 369.5,333 -10,0"
       id="C-right-4"
       inkscape:connector-curvature="0" />
    <path
       style="fill:none;stroke:#000000;stroke-width:1px;stroke-linecap:square"
       d="m 67,369.5 0,-10"
       id="C-bottom-1"
       inkscape:connector-curvature="0" />
    <path
       style="fill:none;stroke:#000000;stroke-width:1px;stroke-linecap:square"
       d="m 93,369.5 0,-10"
       id="C-bottom-2"
       inkscape:connector-curvature="0" />
    <path
       style="fill:none;stroke:#000000;stroke-width:1px;stroke-linecap:square"
       d="m 307,369.5 0,-10"
       id="C-bottom-3"
       inkscape:connector-curvature="0" />
    <path
       style="fill:none;stroke:#000000;stroke-width:1px;stroke-linecap:square"
       d="m 333,369.5 0,-10"
       id="C-bottom-4"
       inkscape:connector-curvature="0" />
    <path
       style="fill:none;stroke:#000000;stroke-width:1px;stroke-linecap:square"
       d="m 30.5,67 10,0"
       id="C-left-1"
       inkscape:connector-curvature="0" />
    <path
       style="fill:none;stroke:#000000;stroke-width:1px;stroke-linecap:square"
       d="m 30.5,93 10,0"
       id="C-left-2"
       inkscape:connector-curvature="0" />
    <path
       style="fill:none;stroke:#000000;stroke-width:1px;stroke-linecap:square"
       d="m 30.5,307 10,0"
       id="C-left-3"
       inkscape:connector-curvature="0" />
    <path
       style="fill:none;stroke:#000000;stroke-width:1px;stroke-linecap:square"
       d="m 30.5,333 10,0"
       id="C-left-4"
       inkscape:connector-curvature="0" />
  </g>
<g
     inkscape:groupmode="layer"
     id="g3149"
     inkscape:label="OKON-001"
     zpos="-300"
     style="display:inline"
     sodipodi:insensitive="true">
    <path
       sodipodi:nodetypes="ccccc"
       inkscape:connector-curvature="0"
       id="path3147"
       d="m 30.5,307 0,26 339,0 0,-26 z"
       style="fill:#ffffff;stroke:none;display:inline" />
    <path
       style="fill:#ffffff;stroke:none;display:inline"
       d="m 30.5,67 0,26 339,0 0,-26 z"
       id="path3118"
       inkscape:connector-curvature="0"
       sodipodi:nodetypes="ccccc" />
    <path
       style="fill:none;stroke:#000000;stroke-width:1px;stroke-linecap:square;display:inline"
       d="m 30.5,93 10,0 319,0 10,0"
       id="C-left-2-6"
       inkscape:connector-curvature="0"
       sodipodi:nodetypes="cccc" />
    <path
       style="fill:none;stroke:#000000;stroke-width:1px;stroke-linecap:square;display:inline"
       d="m 369.5,307 -10,0 -319,0 -10,0"
       id="C-right-3-7"
       inkscape:connector-curvature="0"
       sodipodi:nodetypes="cccc" />
  </g>
<g
   zpos="-200"
   style="display:none"
   inkscape:label="ZZZZ-001"
   id="g3125"
   inkscape:groupmode="layer"
   sodipodi:insensitive="true">
  <path
     style="fill:#ffffff;stroke:none"
     d="m 108.84375,67 c 1.08398,8.29073 6.54692,12.375 16.40625,12.375 l 123.1875,0 -135.65625,242.25 c -2.57925,4.51369 -3.94686,8.22397 -4.375,11.375 l 178.78125,0 c -1.00458,-7.83675 -6.06395,-11.78125 -15.21875,-11.78125 l -125.5625,0 137.25,-245.8125 c 1.43541,-2.72728 2.42662,-5.549456 2.875,-8.40625 l -177.6875,0 z"
     id="path3136"
     inkscape:connector-curvature="0" />
  <path
     style="fill:none;stroke:#00ff00;stroke-width:1px;display:inline"
     d="m 108.84375,67 c 1.08398,8.29073 6.54692,12.375 16.40625,12.375 l 123.1875,0 -135.65625,242.25 c -2.57925,4.51369 -3.94686,8.22397 -4.375,11.375 m 178.78125,0 c -1.00458,-7.83675 -6.06395,-11.78125 -15.21875,-11.78125 l -125.5625,0 137.25,-245.8125 c 1.43541,-2.72728 2.42662,-5.549456 2.875,-8.40625"
     id="path3136-6"
     inkscape:connector-curvature="0"
     sodipodi:nodetypes="csccccsccc" />
</g>
<g
   zpos="-200"
   style="display:none"
   inkscape:label="ZZZZ-002"
   id="g3141"
   inkscape:groupmode="layer"
   sodipodi:insensitive="true">
  <path
     style="fill:#ffffff;stroke:none"
     d="m 104.65625,67 c -0.3838,3.497296 0.0657,7.138929 1.375,10.28125 2.43,5.26499 6.89251,8.9125 12.5625,10.9375 l 2.03125,0.40625 60.75,0 c 33.61497,0 60.75,0.40625 60.75,0.40625 0,0 -104.49753,179.40505 -134.0625,229.625 l -3.65625,6.09375 0,8.25 190.96875,0 c 0.11375,-0.85189 0.21875,-1.70918 0.21875,-2.59375 0,-9.71999 -6.49751,-17.41126 -15.8125,-19.03125 -1.62,-0.405 -11.3438,-0.40625 -61.96875,-0.40625 -33.20997,0 -60.34375,-10e-4 -60.34375,-0.40625 0,0 98.01879,-167.25507 134.46875,-229.625 l 3.65625,-6.5 0,-7.4375 -190.9375,0 z"
     id="path3152"
     inkscape:connector-curvature="0" />
  <path
     style="fill:none;stroke:#00ff00;stroke-width:1px;display:inline"
     d="m 104.65625,67 c -0.3838,3.497296 0.0657,7.138929 1.375,10.28125 2.43,5.26499 6.89251,8.9125 12.5625,10.9375 l 2.03125,0.40625 60.75,0 c 33.61497,0 60.75,0.40625 60.75,0.40625 0,0 -104.49753,179.40505 -134.0625,229.625 l -3.65625,6.09375 0,8.25 m 190.96875,0 c 0.11375,-0.85189 0.21875,-1.70918 0.21875,-2.59375 0,-9.71999 -6.49751,-17.41126 -15.8125,-19.03125 -1.62,-0.405 -11.3438,-0.40625 -61.96875,-0.40625 -33.20997,0 -60.34375,-10e-4 -60.34375,-0.40625 0,0 98.01879,-167.25507 134.46875,-229.625 l 3.65625,-6.5 0,-7.4375"
     id="path3152-5"
     inkscape:connector-curvature="0"
     sodipodi:nodetypes="ccccscccccscscccc" />
</g>
<g
   zpos="-200"
   style="display:none"
   inkscape:label="ZZZZ-003"
   id="g3157"
   inkscape:groupmode="layer"
   sodipodi:insensitive="true">
  <path
     style="fill:#ffffff;stroke:none"
     d="m 100.15625,67 c -0.0191,0.02296 -0.0435,0.03946 -0.0625,0.0625 -5.130018,5.94029 -7.68751,12.96278 -7.6875,21.0625 -1e-5,8.64026 2.829982,16.20776 8.5,22.6875 5.66997,6.48024 13.50996,9.71899 23.5,9.71875 l 99.21875,0 -135.28125,182.25 c -4.32001,5.94005 -6.46875,12.8263 -6.46875,20.65625 0,3.38043 0.392862,6.56212 1.1875,9.5625 l 238.15625,0 c 0.27715,-1.66137 0.4062,-3.37545 0.40625,-5.125 -2.4e-4,-8.63996 -2.96649,-15.93495 -8.90625,-21.875 -6.75023,-6.47994 -15.78522,-9.71869 -27.125,-9.71875 l -115.4375,0 132.4375,-179.40625 c 5.39977,-7.01975 8.12477,-14.45099 8.125,-22.28125 C 310.71852,84.33403 306.52602,75.70779 298.15625,68.6875 297.49995,68.096871 296.81503,67.542807 296.125,67 l -195.96875,0 z"
     id="path3168"
     inkscape:connector-curvature="0" />
  <path
     style="fill:none;stroke:#00ff00;stroke-width:1px;display:inline"
     d="m 100.15625,67 c -0.0191,0.02296 -0.0435,0.03946 -0.0625,0.0625 -5.130018,5.94029 -7.68751,12.96278 -7.6875,21.0625 -1e-5,8.64026 2.829982,16.20776 8.5,22.6875 5.66997,6.48024 13.50996,9.71899 23.5,9.71875 l 99.21875,0 -135.28125,182.25 c -4.32001,5.94005 -6.46875,12.8263 -6.46875,20.65625 0,3.38043 0.392862,6.56212 1.1875,9.5625 m 238.15625,0 c 0.27715,-1.66137 0.4062,-3.37545 0.40625,-5.125 -2.4e-4,-8.63996 -2.96649,-15.93495 -8.90625,-21.875 -6.75023,-6.47994 -15.78522,-9.71869 -27.125,-9.71875 l -115.4375,0 132.4375,-179.40625 c 5.39977,-7.01975 8.12477,-14.45099 8.125,-22.28125 C 310.71852,84.33403 306.52602,75.70779 298.15625,68.6875 297.49995,68.096871 296.81503,67.542807 296.125,67"
     id="path3168-5"
     inkscape:connector-curvature="0"
     sodipodi:nodetypes="ccsccccsccccsccccc" />
</g>
<g
   zpos="-200"
   style="display:inline"
   inkscape:label="ZZZZ-004"
   id="g3173"
   inkscape:groupmode="layer"
   sodipodi:insensitive="true">
  <path
     style="fill:#ffffff;stroke:none"
     d="m 92.71875,67 0,27.59375 139.40625,0 -140.59375,219.3125 0,19.09375 202.6875,0 0,-27.40625 -146.125,0 141,-220.6875 0,-17.90625 -196.375,0 z"
     id="path3184"
     inkscape:connector-curvature="0" />
  <path
     style="fill:none;stroke:#00ff00;stroke-width:1px;display:inline"
     d="m 92.71875,67 0,27.59375 139.40625,0 -140.59375,219.3125 0,19.09375 m 202.6875,0 0,-27.40625 -146.125,0 141,-220.6875 0,-17.90625"
     id="path3184-2"
     inkscape:connector-curvature="0"
     sodipodi:nodetypes="cccccccccc" />
</g>
<g
   zpos="-200"
   style="display:none"
   inkscape:label="ZZZZ-008"
   id="g3233"
   inkscape:groupmode="layer"
   sodipodi:insensitive="true">
  <path
     style="fill:#ffffff;stroke:none"
     d="M 98.53125,67 C 100.17121,86.941866 101,105.40118 101,122.21875 c 0,12.89061 -0.40625,23.04688 -1.1875,30.46875 l 9.1875,0 c 3.51563,-29.49216 12.09376,-50.56251 26.15625,-63.0625 14.06249,-12.49998 31.84377,-18.96875 53.71875,-18.96875 l 45.71875,0 L 95.125,328.6875 l 0,4.3125 206.125,0 c -1.29227,-16.48858 -1.8125,-37.66112 -1.8125,-57.0625 0,-14.45311 0.375,-26.16407 1.15625,-35.34375 l -9.1875,0 c -2.34375,20.7031 -7.59376,37.70313 -16.1875,50.59375 -8.59374,12.89061 -18.77345,22.27345 -30.6875,27.9375 -11.91405,5.66406 -24.41408,8.375 -37.5,8.375 l -43.9375,0 139.0625,-258 0,-2.5 -203.625,0 z"
     id="path3244"
     inkscape:connector-curvature="0" />
  <path
     style="fill:none;stroke:#00ff00;stroke-width:1px;display:inline"
     d="M 98.53125,67 C 100.17121,86.941866 101,105.40118 101,122.21875 c 0,12.89061 -0.40625,23.04688 -1.1875,30.46875 l 9.1875,0 c 3.51563,-29.49216 12.09376,-50.56251 26.15625,-63.0625 14.06249,-12.49998 31.84377,-18.96875 53.71875,-18.96875 l 45.71875,0 L 95.125,328.6875 l 0,4.3125 m 206.125,0 c -1.29227,-16.48858 -1.8125,-37.66112 -1.8125,-57.0625 0,-14.45311 0.375,-26.16407 1.15625,-35.34375 l -9.1875,0 c -2.34375,20.7031 -7.59376,37.70313 -16.1875,50.59375 -8.59374,12.89061 -18.77345,22.27345 -30.6875,27.9375 -11.91405,5.66406 -24.41408,8.375 -37.5,8.375 l -43.9375,0 139.0625,-258 0,-2.5"
     id="path3244-7"
     inkscape:connector-curvature="0"
     sodipodi:nodetypes="csccssccccsccsssccc" />
</g>
<g
     style="display:inline"
     zpos="-180"
     inkscape:label="UKON-001"
     id="g3155"
     inkscape:groupmode="layer"
     sodipodi:insensitive="true">
    <path
       style="fill:none;stroke:#000000;stroke-width:1px;stroke-linecap:square;display:inline"
       d="m 369.5,333 -10,0 -319,0 -10,0"
       id="path3159"
       inkscape:connector-curvature="0"
       sodipodi:nodetypes="cccc" />
    <path
       sodipodi:nodetypes="cccc"
       inkscape:connector-curvature="0"
       id="path3153"
       d="m 30.5,67 10,0 319,0 10,0"
       style="fill:none;stroke:#000000;stroke-width:1px;stroke-linecap:square;display:inline" />
  </g>
<g
   zpos="-200"
   style="display:none"
   inkscape:label="ZZZZ-006"
   id="g3193"
   inkscape:groupmode="layer"
   sodipodi:insensitive="true">
  <path
     style="fill:#ffffff;stroke:none"
     d="m 189.15625,53.375 c -24.76885,0 -43.62355,4.44008 -56.5625,13.3125 -12.93894,8.872419 -19.21875,21.832968 -19.21875,38.46875 0,16.2661 8.85954,26.23002 27.34375,29.1875 -1.47874,-2.21811 -2.57313,-7.40352 -3.3125,-15.90625 -0.36968,-32.901898 13.29962,-49.161565 40.65625,-49.53125 15.15706,0 39.93718,6.305734 74.6875,18.875 11.09053,4.436215 21.05976,7.750643 29.5625,9.96875 -8.87242,22.18106 -22.55236,49.14997 -41.40625,81.3125 -7.39369,-0.36969 -13.30316,-0.71875 -17,-0.71875 -38.07748,0 -57.66688,10.70393 -58.40625,31.40625 25.13853,-3.32716 45.47327,-5.54188 61,-6.28125 -25.50822,40.66526 -48.79769,71.36018 -69.5,92.0625 -22.92043,-5.91494 -40.2951,-8.88032 -52.125,-9.25 -11.090525,0 -19.22535,2.2094 -24.03125,5.90625 -5.175574,4.06653 -7.40625,9.2413 -7.40625,15.15625 0,8.13305 3.325069,15.53319 10.71875,22.1875 1.344697,1.27392 2.772559,2.43761 4.28125,3.46875 l 49.96875,0 c 7.17732,-3.25986 14.74041,-7.7381 22.65625,-13.4375 1.10905,0.73937 7.01321,3.3138 16.625,7.75 4.77947,2.20591 8.93233,4.11898 12.4375,5.6875 l 103.25,0 c 3.56117,-5.35256 6.8986,-12.0301 10,-20.09375 -11.09053,5.54526 -22.15948,8.125 -33.25,8.125 -17.37516,0 -46.97037,-6.27448 -88.375,-18.84375 25.13853,-24.39916 51.04431,-57.2935 78.03125,-99.4375 18.11452,-0.36968 30.30912,-1.49533 36.59375,-3.34375 5.91495,-1.84842 12.1788,-6.6482 18.09375,-14.78125 -3.69685,0 -17.72583,-0.75064 -42.125,-2.96875 18.48421,-31.05347 34.01386,-60.61744 45.84375,-88.34375 6.65431,-3.327161 14.40883,-9.25258 23.28125,-18.125 -4.43621,1.109054 -10.36695,1.5 -18.5,1.5 -12.56926,0 -32.88339,-3.705385 -61.71875,-11.46875 C 232.41463,57.455384 208.37982,53.375 189.15625,53.375 z M 100.4375,299.96875 c 7.02399,0 19.96392,3.70007 39.1875,11.09375 -14.41769,11.09053 -24.77255,16.25 -30.6875,16.25 -6.65431,0 -12.188785,-1.83441 -16.625,-5.53125 -4.436215,-3.69685 -6.65625,-7.78253 -6.65625,-12.21875 0,-6.28462 4.799774,-9.22407 14.78125,-9.59375 z"
     id="path3209"
     inkscape:connector-curvature="0" />
  <path
     inkscape:connector-curvature="0"
     style="fill:none;stroke:#00ff00;stroke-width:1px;display:inline"
     d="m 138.40625,333 c 7.17732,-3.25986 14.74041,-7.7381 22.65625,-13.4375 1.10905,0.73937 7.01321,3.3138 16.625,7.75 4.77947,2.20591 8.93233,4.11898 12.4375,5.6875 m 103.25,0 c 3.56117,-5.35256 6.8986,-12.0301 10,-20.09375 -11.09053,5.54526 -22.15948,8.125 -33.25,8.125 -17.37516,0 -46.97037,-6.27448 -88.375,-18.84375 25.13853,-24.39916 51.04431,-57.2935 78.03125,-99.4375 18.11452,-0.36968 30.30912,-1.49533 36.59375,-3.34375 5.91495,-1.84842 12.1788,-6.6482 18.09375,-14.78125 -3.69685,0 -17.72583,-0.75064 -42.125,-2.96875 18.48421,-31.05347 34.01386,-60.61744 45.84375,-88.34375 6.65431,-3.327161 14.40883,-9.25258 23.28125,-18.125 -4.43621,1.109054 -10.36695,1.5 -18.5,1.5 -12.56926,0 -32.88339,-3.705385 -61.71875,-11.46875 C 232.41463,57.455384 208.37982,53.375 189.15625,53.375 c -24.76885,0 -43.62355,4.44008 -56.5625,13.3125 -12.93894,8.872419 -19.21875,21.832968 -19.21875,38.46875 0,16.2661 8.85954,26.23002 27.34375,29.1875 -1.47874,-2.21811 -2.57313,-7.40352 -3.3125,-15.90625 -0.36968,-32.901898 13.29962,-49.161565 40.65625,-49.53125 15.15706,0 39.93718,6.305734 74.6875,18.875 11.09053,4.436215 21.05976,7.750643 29.5625,9.96875 -8.87242,22.18106 -22.55236,49.14997 -41.40625,81.3125 -7.39369,-0.36969 -13.30316,-0.71875 -17,-0.71875 -38.07748,0 -57.66688,10.70393 -58.40625,31.40625 25.13853,-3.32716 45.47327,-5.54188 61,-6.28125 -25.50822,40.66526 -48.79769,71.36018 -69.5,92.0625 -22.92043,-5.91494 -40.2951,-8.88032 -52.125,-9.25 -11.090525,0 -19.22535,2.2094 -24.03125,5.90625 -5.175574,4.06653 -7.40625,9.2413 -7.40625,15.15625 0,8.13305 3.325069,15.53319 10.71875,22.1875 1.344697,1.27392 2.772559,2.43761 4.28125,3.46875 m 12,-33.03125 c 7.02399,0 19.96392,3.70007 39.1875,11.09375 -14.41769,11.09053 -24.77255,16.25 -30.6875,16.25 -6.65431,0 -12.188785,-1.83441 -16.625,-5.53125 -4.436215,-3.69685 -6.65625,-7.78253 -6.65625,-12.21875 0,-6.28462 4.799774,-9.22407 14.78125,-9.59375 z"
     id="path3209-1"
     sodipodi:nodetypes="ccscccscccccccsssssccccccscccccsccccsssc" />
  <path
     style="fill:none;stroke:#00ff00;stroke-width:1px;display:inline"
     d="m 138.40625,333 c 7.17732,-3.25986 14.74041,-7.7381 22.65625,-13.4375 1.10905,0.73937 7.01321,3.3138 16.625,7.75 4.77947,2.20591 8.93233,4.11898 12.4375,5.6875"
     id="path3343"
     inkscape:connector-curvature="0" />
  <path
     sodipodi:nodetypes="cc"
     inkscape:connector-curvature="0"
     id="path3576-7"
     d="m 147.5,333 -67,0"
     style="fill:none;stroke:#000000;stroke-width:1px;stroke-linecap:square;display:inline" />
  <path
     style="fill:none;stroke:#000000;stroke-width:1px;stroke-linecap:square;display:inline"
     d="m 298.5,333 -117,0"
     id="path3221"
     inkscape:connector-curvature="0"
     sodipodi:nodetypes="cc" />
</g>
<g
   zpos="-80"
   style="display:none"
   inkscape:label="ZZZZ-007"
   id="g3215"
   inkscape:groupmode="layer"
   sodipodi:insensitive="true">
  <path
     style="fill:#ffffff;stroke:none"
     d="m 239.02174,95.745142 -39.82609,39.598778 c -0.95582,0.98586 -1.59304,2.13604 -2.23026,3.28621 -0.63721,1.31448 -0.79652,2.62897 -0.79652,3.77914 0,3.94345 1.59305,6.90104 4.77913,8.54412 l 58.94262,35.49103 c 1.91164,1.31449 3.50469,2.95759 4.46052,4.92931 0.95582,1.97172 1.43374,4.10776 1.43374,6.40811 l 0,112.55965 -44.76453,23.56122 c -1.75235,-0.98587 -4.93844,-2.79328 -9.23965,-5.75086 -4.46052,-2.79328 -9.71757,-6.07949 -15.45252,-9.85862 -5.89426,-3.61482 -12.10714,-7.55828 -18.47931,-11.66604 -6.53147,-3.94344 -12.58505,-7.72258 -18.1607,-11.00878 -5.73495,-3.28621 -10.51409,-6.07948 -14.656,-8.37984 -4.1419,-2.13603 -6.69078,-3.12188 -7.64661,-3.2862 -1.27443,0 -3.02679,0.49294 -4.93843,1.31449 -1.91165,0.82154 -3.98262,1.80741 -5.89426,2.79327 -2.07095,1.15017 -3.98262,2.30034 -5.89426,3.28621 -1.91165,1.15017 -3.3454,1.97171 -4.30122,2.46466 l 0.1593,0 c -1.59304,0.98585 -3.02678,2.13603 -3.98261,3.61483 -0.95582,1.47878 -1.43374,3.12188 -1.43374,4.9293 0,3.94344 1.59305,6.73672 4.93844,8.70844 l 84.59062,50.77189 c 0.79652,0.65724 1.75234,0.98585 2.38956,1.31447 0.63721,0.32863 1.59304,0.32863 2.86748,0.32863 0.79652,0.16431 1.59304,0 2.38956,-0.32863 0.63722,-0.32862 1.43374,-0.65723 2.38957,-0.98585 l -0.15931,0 84.27201,-45.90742 c 3.18608,-1.80741 4.77913,-4.60068 4.77913,-8.54413 l 0,-131.78396 c 0,-3.61482 -1.59305,-6.57241 -4.61983,-8.54414 -10.51408,-6.5724 -21.02819,-12.8162 -31.54226,-19.05999 -10.51408,-6.24379 -21.18749,-12.32328 -31.70157,-18.73137 l 49.86227,-49.457409 c 1.11513,-1.150165 2.07095,-2.300339 2.70817,-3.450511 0.63721,-0.985868 1.11513,-2.464655 1.11513,-4.436379 0,-2.793276 -0.95583,-5.25793 -2.70817,-7.229655 -1.75235,-1.971724 -3.98262,-2.793275 -6.85009,-2.957582 l -128.87722,0 c -1.59305,0 -3.50471,0.657236 -6.05357,1.971725 -2.54887,1.31448 -5.09774,2.957582 -7.80592,4.600685 -2.70816,1.807408 -5.25704,3.614827 -7.6466,5.257929 -2.38957,1.643103 -4.14192,2.957582 -5.41635,3.614827 l 0,-0.164315 c -1.27443,0.985866 -2.38957,1.971725 -3.3454,3.286213 -0.95582,1.314481 -1.27443,2.62896 -1.27443,4.272063 -0.1593,2.957582 0.79652,5.586552 2.54887,7.722584 1.59305,2.13603 3.98261,3.121897 7.0094,3.121897 l 114.06191,0"
     id="path3226"
     inkscape:connector-curvature="0"
     sodipodi:nodetypes="cccsccssccccccccsccccssccscccccsscscccsscsscsccsccsc" />
  <path
     style="fill:none;stroke:#00ff00;stroke-width:1px;display:inline"
     d="m 239.02174,95.745143 -39.82609,39.598777 c -0.95582,0.98586 -1.59304,2.13604 -2.23026,3.28621 -0.63721,1.31448 -0.79652,2.62897 -0.79652,3.77914 0,3.94345 1.59305,6.90104 4.77913,8.54413 l 58.94262,35.49102 c 1.91164,1.31449 3.50469,2.95759 4.46052,4.92931 0.95582,1.97172 1.43374,4.10777 1.43374,6.40811 l 0,112.55966 -44.76453,23.56121 c -1.75235,-0.98587 -4.93844,-2.79328 -9.23965,-5.75086 -4.46052,-2.79328 -9.71757,-6.07949 -15.45252,-9.85862 -5.89426,-3.61482 -12.10714,-7.55828 -18.47931,-11.66604 -6.53147,-3.94344 -12.58505,-7.72258 -18.1607,-11.00878 -5.73495,-3.28621 -10.51409,-6.07948 -14.656,-8.37984 -4.1419,-2.13602 -6.69078,-3.12188 -7.64661,-3.2862 -1.27443,0 -3.02678,0.49294 -4.93843,1.31449 -1.91165,0.82154 -3.98262,1.80741 -5.89426,2.79327 -2.07095,1.15017 -3.98262,2.30034 -5.89426,3.28621 -1.91165,1.15017 -3.3454,1.97171 -4.30122,2.46466 l 0.1593,0 c -1.59304,0.98585 -3.02678,2.13603 -3.98261,3.61483 -0.95582,1.47878 -1.43374,3.12188 -1.43374,4.9293 0,3.94344 1.59305,6.73672 4.93844,8.70845 l 84.59062,50.77188 c 0.79652,0.65724 1.75234,0.98586 2.38956,1.31447 0.63721,0.32863 1.59304,0.32863 2.86748,0.32863 0.79652,0.16431 1.59304,0 2.38956,-0.32863 0.63722,-0.32861 1.43374,-0.65723 2.38957,-0.98585 l -0.1593,0 84.272,-45.90742 c 3.18608,-1.8074 4.77913,-4.60068 4.77913,-8.54413 l 0,-131.78396 c 0,-3.61482 -1.59305,-6.57241 -4.61983,-8.54414 -10.51408,-6.5724 -21.02818,-12.8162 -31.54226,-19.05999 -10.51408,-6.24379 -21.18749,-12.32328 -31.70156,-18.73137 l 49.86226,-49.457409 c 1.11513,-1.150164 2.07095,-2.300338 2.70817,-3.450511 0.63721,-0.985868 1.11513,-2.464654 1.11513,-4.436379 0,-2.793276 -0.95583,-5.25793 -2.70817,-7.229654 -1.75234,-1.971725 -3.98262,-2.793276 -6.85009,-2.957583 l -128.87722,0 c -1.59305,0 -3.50471,0.657236 -6.05357,1.971725 -2.54887,1.314481 -5.09774,2.957582 -7.80592,4.600685 -2.70816,1.807409 -5.25704,3.614827 -7.6466,5.257929 -2.38957,1.643103 -4.14192,2.957583 -5.41635,3.614828 l 0,-0.164316 c -1.27443,0.985866 -2.38957,1.971725 -3.3454,3.286214 -0.95582,1.31448 -1.27443,2.62896 -1.27443,4.272062 -0.1593,2.957583 0.79652,5.586552 2.54887,7.722584 1.59305,2.136031 3.98261,3.121898 7.0094,3.121898 l 114.06191,0"
     id="path3226-0"
     inkscape:connector-curvature="0"
     sodipodi:nodetypes="cccsccssccccccccsccccssccscccccsscscccsscsscsccsccsc" />
</g>
</svg>
