<?xml version="1.0" encoding="UTF-8" standalone="no"?>
<!-- Created with Inkscape (http://www.inkscape.org/) -->

<svg
   xmlns:dc="http://purl.org/dc/elements/1.1/"
   xmlns:cc="http://creativecommons.org/ns#"
   xmlns:rdf="http://www.w3.org/1999/02/22-rdf-syntax-ns#"
   xmlns:svg="http://www.w3.org/2000/svg"
   xmlns="http://www.w3.org/2000/svg"
   xmlns:sodipodi="http://sodipodi.sourceforge.net/DTD/sodipodi-0.dtd"
   xmlns:inkscape="http://www.inkscape.org/namespaces/inkscape"
   style="display:inline"
   sodipodi:docname="161212_PPPP_00_UW_00_UW_.svg"
   inkscape:version="0.48.3.1 r9886"
   version="1.1"
   id="svg2902"
   height="400"
   width="400">
  <sodipodi:namedview
     id="base"
     pagecolor="#f0f0f0"
     bordercolor="#666666"
     borderopacity="1.0"
     inkscape:pageopacity="1"
     inkscape:pageshadow="2"
     inkscape:zoom="1.0037425"
     inkscape:cx="178.07761"
     inkscape:cy="200"
     inkscape:document-units="px"
     inkscape:current-layer="g3271"
     showgrid="false"
     inkscape:window-width="1018"
     inkscape:window-height="709"
     inkscape:window-x="0"
     inkscape:window-y="1"
     inkscape:window-maximized="0"
     showguides="true"
     inkscape:guide-bbox="true"
     inkscape:snap-bbox="true"
     inkscape:snap-global="false" />
  <defs
     id="defs2904">
    <clipPath
       clipPathUnits="userSpaceOnUse"
       id="clipPath5174">
      <path
         id="path5176"
         style="opacity:0.5;fill:#00ff00;stroke:#00ff00;stroke-width:1px;stroke-linecap:square;display:inline"
         d="m 436.26971,600.11436 -232.09481,134 -169.500003,-293.58262 232.094813,-134 z"
         inkscape:connector-curvature="0"
         sodipodi:nodetypes="ccccc" />
    </clipPath>
    <clipPath
       clipPathUnits="userSpaceOnUse"
       id="clipPath5174-5">
      <path
         id="path5176-9"
         style="opacity:0.5;fill:#00ff00;stroke:#00ff00;stroke-width:1px;stroke-linecap:square;display:inline"
         d="m 436.26971,600.11436 -232.09481,134 -169.500003,-293.58262 232.094813,-134 z"
         inkscape:connector-curvature="0"
         sodipodi:nodetypes="ccccc" />
    </clipPath>
    <clipPath
       clipPathUnits="userSpaceOnUse"
       id="clipPath3238">
      <path
         sodipodi:nodetypes="ccccc"
         inkscape:connector-curvature="0"
         d="m 461.26971,643.41563 -232.09481,134 -169.500002,-293.58262 232.094812,-134 z"
         style="opacity:0.5;fill:#00ff00;stroke:#00ff00;stroke-width:1px;stroke-linecap:square;display:inline"
         id="path3240" />
    </clipPath>
  </defs>
  <metadata
     id="metadata2907">
    <rdf:RDF>
      <cc:Work
         rdf:about="">
        <dc:format>image/svg+xml</dc:format>
        <dc:type
           rdf:resource="http://purl.org/dc/dcmitype/StillImage" />
        <dc:title />
      </cc:Work>
    </rdf:RDF>
  </metadata>
  
tmp/TMP.change:<g
     inkscape:groupmode="layer"
     id="bg"
     inkscape:label="XX_BG"
     sodipodi:insensitive="true">
    <path
       style="fill:#f6ffd5"
       d="M 400,0 400,400 0,400 0,0 z"
       id="bgrect"
       inkscape:connector-curvature="0" />
  </g>
  
tmp/TMP.change:<g
     inkscape:label="XX_Referenz"
     inkscape:groupmode="layer"
     id="XX_referenz"
     style="display:inline"
     sodipodi:insensitive="true">
    <path
       id="innerframe"
       style="fill:none;stroke:#ff0000;stroke-width:1"
       d="m 40.5,40.5 319,0 0,319 -319,0 0,-319 z"
       inkscape:label="#innerframe"
       sodipodi:insensitive="true"
       inkscape:connector-curvature="0" />
    <path
       id="outerframe"
       style="fill:none;stroke:#ff0000;stroke-width:1"
       d="m 30.5,30.5 339,0 0,339 -339,0 0,-339 z"
       inkscape:label="#outerframe"
       sodipodi:nodetypes="ccccc"
       sodipodi:insensitive="true"
       inkscape:connector-curvature="0" />
    <path
       style="opacity:0.5;fill:none;stroke:#ffc200;stroke-width:1px;stroke-linecap:square"
       d="m 189,30.5 0,10"
       id="ref-S-top-1"
       sodipodi:insensitive="true"
       inkscape:connector-curvature="0" />
    <path
       style="opacity:0.5;fill:none;stroke:#ffc200;stroke-width:1px;stroke-linecap:square"
       d="m 191,30.5 0,10"
       id="ref-S-top-2"
       sodipodi:insensitive="true"
       inkscape:connector-curvature="0" />
    <path
       style="opacity:0.5;fill:none;stroke:#ffc200;stroke-width:1px;stroke-linecap:square"
       d="m 209,30.5 0,10"
       id="ref-S-top-3"
       sodipodi:insensitive="true"
       inkscape:connector-curvature="0" />
    <path
       style="opacity:0.5;fill:none;stroke:#ffc200;stroke-width:1px;stroke-linecap:square"
       d="m 211,30.5 0,10"
       id="ref-S-top-4"
       sodipodi:insensitive="true"
       inkscape:connector-curvature="0" />
    <path
       style="opacity:0.5;fill:none;stroke:#00ff00;stroke-width:1px;stroke-linecap:square"
       d="m 199,30.5 0,10"
       id="ref-I-top-1"
       sodipodi:insensitive="true"
       inkscape:connector-curvature="0" />
    <path
       style="opacity:0.5;fill:none;stroke:#00ff00;stroke-width:1px;stroke-linecap:square"
       d="m 201,30.5 0,10"
       id="ref-I-top-2"
       sodipodi:insensitive="true"
       inkscape:connector-curvature="0" />
    <path
       style="opacity:0.5;fill:none;stroke:#00ffcc;stroke-width:1px;stroke-linecap:square"
       d="m 66,30.5 0,10"
       id="ref-C-top-1"
       sodipodi:insensitive="true"
       inkscape:connector-curvature="0" />
    <path
       style="opacity:0.5;fill:none;stroke:#00ffcc;stroke-width:1px;stroke-linecap:square"
       d="m 68,30.5 0,10"
       id="ref-C-top-2"
       sodipodi:insensitive="true"
       inkscape:connector-curvature="0" />
    <path
       style="opacity:0.5;fill:none;stroke:#00ffcc;stroke-width:1px;stroke-linecap:square"
       d="m 92,30.5 0,10"
       id="ref-C-top-3"
       sodipodi:insensitive="true"
       inkscape:connector-curvature="0" />
    <path
       style="opacity:0.5;fill:none;stroke:#00ffcc;stroke-width:1px;stroke-linecap:square"
       d="m 94,30.5 0,10"
       id="ref-C-top-4"
       sodipodi:insensitive="true"
       inkscape:connector-curvature="0" />
    <path
       style="opacity:0.5;fill:none;stroke:#00ffcc;stroke-width:1px;stroke-linecap:square"
       d="m 306,30.5 0,10"
       id="ref-C-top-5"
       sodipodi:insensitive="true"
       inkscape:connector-curvature="0" />
    <path
       style="opacity:0.5;fill:none;stroke:#00ffcc;stroke-width:1px;stroke-linecap:square"
       d="m 308,30.5 0,10"
       id="ref-C-top-6"
       sodipodi:insensitive="true"
       inkscape:connector-curvature="0" />
    <path
       style="opacity:0.5;fill:none;stroke:#00ffcc;stroke-width:1px;stroke-linecap:square"
       d="m 332,30.5 0,10"
       id="ref-C-top-7"
       sodipodi:insensitive="true"
       inkscape:connector-curvature="0" />
    <path
       style="opacity:0.5;fill:none;stroke:#00ffcc;stroke-width:1px;stroke-linecap:square"
       d="m 334,30.5 0,10"
       id="ref-C-top-8"
       sodipodi:insensitive="true"
       inkscape:connector-curvature="0" />
    <path
       style="opacity:0.5;fill:none;stroke:#ffc200;stroke-width:1px;stroke-linecap:square"
       d="m 369.5,189 -10,0"
       id="ref-S-right-1"
       sodipodi:insensitive="true"
       inkscape:connector-curvature="0" />
    <path
       style="opacity:0.5;fill:none;stroke:#ffc200;stroke-width:1px;stroke-linecap:square"
       d="m 369.5,191 -10,0"
       id="ref-S-right-2"
       sodipodi:insensitive="true"
       inkscape:connector-curvature="0" />
    <path
       style="opacity:0.5;fill:none;stroke:#ffc200;stroke-width:1px;stroke-linecap:square"
       d="m 369.5,209 -10,0"
       id="ref-S-right-3"
       sodipodi:insensitive="true"
       inkscape:connector-curvature="0" />
    <path
       style="opacity:0.5;fill:none;stroke:#ffc200;stroke-width:1px;stroke-linecap:square"
       d="m 369.5,211 -10,0"
       id="ref-S-right-4"
       sodipodi:insensitive="true"
       inkscape:connector-curvature="0" />
    <path
       style="opacity:0.5;fill:none;stroke:#00ff00;stroke-width:1px;stroke-linecap:square"
       d="m 369.5,199 -10,0"
       id="ref-I-right-1"
       sodipodi:insensitive="true"
       inkscape:connector-curvature="0" />
    <path
       style="opacity:0.5;fill:none;stroke:#00ff00;stroke-width:1px;stroke-linecap:square"
       d="m 369.5,201 -10,0"
       id="ref-I-right-2"
       sodipodi:insensitive="true"
       inkscape:connector-curvature="0" />
    <path
       style="opacity:0.5;fill:none;stroke:#00ffcc;stroke-width:1px;stroke-linecap:square"
       d="m 369.5,66 -10,0"
       id="ref-C-right-1"
       sodipodi:insensitive="true"
       inkscape:connector-curvature="0" />
    <path
       style="opacity:0.5;fill:none;stroke:#00ffcc;stroke-width:1px;stroke-linecap:square"
       d="m 369.5,68 -10,0"
       id="ref-C-right-2"
       sodipodi:insensitive="true"
       inkscape:connector-curvature="0" />
    <path
       style="opacity:0.5;fill:none;stroke:#00ffcc;stroke-width:1px;stroke-linecap:square"
       d="m 369.5,92 -10,0"
       id="ref-C-right-3"
       sodipodi:insensitive="true"
       inkscape:connector-curvature="0" />
    <path
       style="opacity:0.5;fill:none;stroke:#00ffcc;stroke-width:1px;stroke-linecap:square"
       d="m 369.5,94 -10,0"
       id="ref-C-right-4"
       sodipodi:insensitive="true"
       inkscape:connector-curvature="0" />
    <path
       style="opacity:0.5;fill:none;stroke:#00ffcc;stroke-width:1px;stroke-linecap:square"
       d="m 369.5,306 -10,0"
       id="ref-C-right-5"
       sodipodi:insensitive="true"
       inkscape:connector-curvature="0" />
    <path
       style="opacity:0.5;fill:none;stroke:#00ffcc;stroke-width:1px;stroke-linecap:square"
       d="m 369.5,308 -10,0"
       id="ref-C-right-6"
       sodipodi:insensitive="true"
       inkscape:connector-curvature="0" />
    <path
       style="opacity:0.5;fill:none;stroke:#00ffcc;stroke-width:1px;stroke-linecap:square"
       d="m 369.5,332 -10,0"
       id="ref-C-right-7"
       sodipodi:insensitive="true"
       inkscape:connector-curvature="0" />
    <path
       style="opacity:0.5;fill:none;stroke:#00ffcc;stroke-width:1px;stroke-linecap:square"
       d="m 369.5,334 -10,0"
       id="ref-C-right-8"
       sodipodi:insensitive="true"
       inkscape:connector-curvature="0" />
    <path
       style="opacity:0.5;fill:none;stroke:#ffc200;stroke-width:1px;stroke-linecap:square"
       d="m 189,369.5 0,-10"
       id="ref-S-bottom-1"
       sodipodi:insensitive="true"
       inkscape:connector-curvature="0" />
    <path
       style="opacity:0.5;fill:none;stroke:#ffc200;stroke-width:1px;stroke-linecap:square"
       d="m 191,369.5 0,-10"
       id="ref-S-bottom-2"
       sodipodi:insensitive="true"
       inkscape:connector-curvature="0" />
    <path
       style="opacity:0.5;fill:none;stroke:#ffc200;stroke-width:1px;stroke-linecap:square"
       d="m 209,369.5 0,-10"
       id="ref-S-bottom-3"
       sodipodi:insensitive="true"
       inkscape:connector-curvature="0" />
    <path
       style="opacity:0.5;fill:none;stroke:#ffc200;stroke-width:1px;stroke-linecap:square"
       d="m 211,369.5 0,-10"
       id="ref-S-bottom-4"
       sodipodi:insensitive="true"
       inkscape:connector-curvature="0" />
    <path
       style="opacity:0.5;fill:none;stroke:#00ff00;stroke-width:1px;stroke-linecap:square"
       d="m 199,369.5 0,-10"
       id="ref-I-bottom-1"
       sodipodi:insensitive="true"
       inkscape:connector-curvature="0" />
    <path
       style="opacity:0.5;fill:none;stroke:#00ff00;stroke-width:1px;stroke-linecap:square"
       d="m 201,369.5 0,-10"
       id="ref-I-bottom-2"
       sodipodi:insensitive="true"
       inkscape:connector-curvature="0" />
    <path
       style="opacity:0.5;fill:none;stroke:#00ffcc;stroke-width:1px;stroke-linecap:square"
       d="m 66,369.5 0,-10"
       id="ref-C-bottom-1"
       sodipodi:insensitive="true"
       inkscape:connector-curvature="0" />
    <path
       style="opacity:0.5;fill:none;stroke:#00ffcc;stroke-width:1px;stroke-linecap:square"
       d="m 68,369.5 0,-10"
       id="ref-C-bottom-2"
       sodipodi:insensitive="true"
       inkscape:connector-curvature="0" />
    <path
       style="opacity:0.5;fill:none;stroke:#00ffcc;stroke-width:1px;stroke-linecap:square"
       d="m 92,369.5 0,-10"
       id="ref-C-bottom-3"
       sodipodi:insensitive="true"
       inkscape:connector-curvature="0" />
    <path
       style="opacity:0.5;fill:none;stroke:#00ffcc;stroke-width:1px;stroke-linecap:square"
       d="m 94,369.5 0,-10"
       id="ref-C-bottom-4"
       sodipodi:insensitive="true"
       inkscape:connector-curvature="0" />
    <path
       style="opacity:0.5;fill:none;stroke:#00ffcc;stroke-width:1px;stroke-linecap:square"
       d="m 306,369.5 0,-10"
       id="ref-C-bottom-5"
       sodipodi:insensitive="true"
       inkscape:connector-curvature="0" />
    <path
       style="opacity:0.5;fill:none;stroke:#00ffcc;stroke-width:1px;stroke-linecap:square"
       d="m 308,369.5 0,-10"
       id="ref-C-bottom-6"
       sodipodi:insensitive="true"
       inkscape:connector-curvature="0" />
    <path
       style="opacity:0.5;fill:none;stroke:#00ffcc;stroke-width:1px;stroke-linecap:square"
       d="m 332,369.5 0,-10"
       id="ref-C-bottom-7"
       sodipodi:insensitive="true"
       inkscape:connector-curvature="0" />
    <path
       style="opacity:0.5;fill:none;stroke:#00ffcc;stroke-width:1px;stroke-linecap:square"
       d="m 334,369.5 0,-10"
       id="ref-C-bottom-8"
       sodipodi:insensitive="true"
       inkscape:connector-curvature="0" />
    <path
       style="opacity:0.5;fill:none;stroke:#ffc200;stroke-width:1px;stroke-linecap:square"
       d="m 30.5,189 10,0"
       id="ref-S-left-1"
       sodipodi:insensitive="true"
       inkscape:connector-curvature="0" />
    <path
       style="opacity:0.5;fill:none;stroke:#ffc200;stroke-width:1px;stroke-linecap:square"
       d="m 30.5,191 10,0"
       id="ref-S-left-2"
       sodipodi:insensitive="true"
       inkscape:connector-curvature="0" />
    <path
       style="opacity:0.5;fill:none;stroke:#ffc200;stroke-width:1px;stroke-linecap:square"
       d="m 30.5,209 10,0"
       id="ref-S-left-3"
       sodipodi:insensitive="true"
       inkscape:connector-curvature="0" />
    <path
       style="opacity:0.5;fill:none;stroke:#ffc200;stroke-width:1px;stroke-linecap:square"
       d="m 30.5,211 10,0"
       id="ref-S-left-4"
       sodipodi:insensitive="true"
       inkscape:connector-curvature="0" />
    <path
       style="opacity:0.5;fill:none;stroke:#00ff00;stroke-width:1px;stroke-linecap:square"
       d="m 40.5,199 -10,0"
       id="ref-I-left-1"
       sodipodi:insensitive="true"
       inkscape:connector-curvature="0" />
    <path
       style="opacity:0.5;fill:none;stroke:#00ff00;stroke-width:1px;stroke-linecap:square"
       d="m 40.5,201 -10,0"
       id="ref-I-left-2"
       sodipodi:insensitive="true"
       inkscape:connector-curvature="0" />
    <path
       style="opacity:0.5;fill:none;stroke:#00ffcc;stroke-width:1px;stroke-linecap:square"
       d="m 30.5,66 10,0"
       id="ref-C-left-1"
       sodipodi:insensitive="true"
       inkscape:connector-curvature="0" />
    <path
       style="opacity:0.5;fill:none;stroke:#00ffcc;stroke-width:1px;stroke-linecap:square"
       d="m 30.5,68 10,0"
       id="ref-C-left-2"
       sodipodi:insensitive="true"
       inkscape:connector-curvature="0" />
    <path
       style="opacity:0.5;fill:none;stroke:#00ffcc;stroke-width:1px;stroke-linecap:square"
       d="m 30.5,92 10,0"
       id="ref-C-left-3"
       sodipodi:insensitive="true"
       inkscape:connector-curvature="0" />
    <path
       style="opacity:0.5;fill:none;stroke:#00ffcc;stroke-width:1px;stroke-linecap:square"
       d="m 30.5,94 10,0"
       id="ref-C-left-4"
       sodipodi:insensitive="true"
       inkscape:connector-curvature="0" />
    <path
       style="opacity:0.5;fill:none;stroke:#00ffcc;stroke-width:1px;stroke-linecap:square"
       d="m 30.5,306 10,0"
       id="ref-C-left-5"
       sodipodi:insensitive="true"
       inkscape:connector-curvature="0" />
    <path
       style="opacity:0.5;fill:none;stroke:#00ffcc;stroke-width:1px;stroke-linecap:square"
       d="m 30.5,308 10,0"
       id="ref-C-left-6"
       sodipodi:insensitive="true"
       inkscape:connector-curvature="0" />
    <path
       style="opacity:0.5;fill:none;stroke:#00ffcc;stroke-width:1px;stroke-linecap:square"
       d="m 30.5,332 10,0"
       id="ref-C-left-7"
       sodipodi:insensitive="true"
       inkscape:connector-curvature="0" />
    <path
       style="opacity:0.5;fill:none;stroke:#00ffcc;stroke-width:1px;stroke-linecap:square"
       d="m 30.5,334 10,0"
       id="ref-C-left-8"
       sodipodi:insensitive="true"
       inkscape:connector-curvature="0" />
    <path
       style="fill:none;stroke:#000000;stroke-width:1px;stroke-linecap:square"
       d="m 190,30.5 0,10"
       id="S-top-1"
       inkscape:connector-curvature="0" />
    <path
       style="fill:none;stroke:#000000;stroke-width:1px;stroke-linecap:square"
       d="m 210,30.5 0,10"
       id="S-top-2"
       inkscape:connector-curvature="0" />
    <path
       style="fill:none;stroke:#000000;stroke-width:1px;stroke-linecap:square"
       d="m 369.5,190 -10,0"
       id="S-right-1"
       inkscape:connector-curvature="0" />
    <path
       style="fill:none;stroke:#000000;stroke-width:1px;stroke-linecap:square"
       d="m 369.5,210 -10,0"
       id="S-right-2"
       inkscape:connector-curvature="0" />
    <path
       style="fill:none;stroke:#000000;stroke-width:1px;stroke-linecap:square"
       d="m 190,369.5 0,-10"
       id="S-bottom-1"
       inkscape:connector-curvature="0" />
    <path
       style="fill:none;stroke:#000000;stroke-width:1px;stroke-linecap:square"
       d="m 210,369.5 0,-10"
       id="S-bottom-2"
       inkscape:connector-curvature="0" />
    <path
       style="fill:none;stroke:#000000;stroke-width:1px;stroke-linecap:square"
       d="m 30.5,190 10,0"
       id="S-left-1"
       inkscape:connector-curvature="0" />
    <path
       style="fill:none;stroke:#000000;stroke-width:1px;stroke-linecap:square"
       d="m 30.5,210 10,0"
       id="S-left-2"
       inkscape:connector-curvature="0" />
    <path
       style="fill:none;stroke:#000000;stroke-width:1px;stroke-linecap:square"
       d="m 200,30.5 0,10"
       id="I-top-1"
       inkscape:connector-curvature="0" />
    <path
       style="fill:none;stroke:#000000;stroke-width:1px;stroke-linecap:square"
       d="m 369.5,200 -10,0"
       id="I-right-1"
       inkscape:connector-curvature="0" />
    <path
       style="fill:none;stroke:#000000;stroke-width:1px;stroke-linecap:square"
       d="m 200,369.5 0,-10"
       id="I-bottom-1"
       inkscape:connector-curvature="0" />
    <path
       style="fill:none;stroke:#000000;stroke-width:1px;stroke-linecap:square"
       d="m 40.5,200 -10,0"
       id="I-left-1"
       inkscape:connector-curvature="0" />
    <path
       style="fill:none;stroke:#000000;stroke-width:1px;stroke-linecap:square"
       d="m 67,30.5 0,10"
       id="C-top-1"
       inkscape:connector-curvature="0" />
    <path
       style="fill:none;stroke:#000000;stroke-width:1px;stroke-linecap:square"
       d="m 93,30.5 0,10"
       id="C-top-2"
       inkscape:connector-curvature="0" />
    <path
       style="fill:none;stroke:#000000;stroke-width:1px;stroke-linecap:square"
       d="m 307,30.5 0,10"
       id="C-top-3"
       inkscape:connector-curvature="0" />
    <path
       style="fill:none;stroke:#000000;stroke-width:1px;stroke-linecap:square"
       d="m 333,30.5 0,10"
       id="C-top-4"
       inkscape:connector-curvature="0" />
    <path
       style="fill:none;stroke:#000000;stroke-width:1px;stroke-linecap:square"
       d="m 369.5,67 -10,0"
       id="C-right-1"
       inkscape:connector-curvature="0" />
    <path
       style="fill:none;stroke:#000000;stroke-width:1px;stroke-linecap:square"
       d="m 369.5,93 -10,0"
       id="C-right-2"
       inkscape:connector-curvature="0" />
    <path
       style="fill:none;stroke:#000000;stroke-width:1px;stroke-linecap:square"
       d="m 369.5,307 -10,0"
       id="C-right-3"
       inkscape:connector-curvature="0" />
    <path
       style="fill:none;stroke:#000000;stroke-width:1px;stroke-linecap:square"
       d="m 369.5,333 -10,0"
       id="C-right-4"
       inkscape:connector-curvature="0" />
    <path
       style="fill:none;stroke:#000000;stroke-width:1px;stroke-linecap:square"
       d="m 67,369.5 0,-10"
       id="C-bottom-1"
       inkscape:connector-curvature="0" />
    <path
       style="fill:none;stroke:#000000;stroke-width:1px;stroke-linecap:square"
       d="m 93,369.5 0,-10"
       id="C-bottom-2"
       inkscape:connector-curvature="0" />
    <path
       style="fill:none;stroke:#000000;stroke-width:1px;stroke-linecap:square"
       d="m 307,369.5 0,-10"
       id="C-bottom-3"
       inkscape:connector-curvature="0" />
    <path
       style="fill:none;stroke:#000000;stroke-width:1px;stroke-linecap:square"
       d="m 333,369.5 0,-10"
       id="C-bottom-4"
       inkscape:connector-curvature="0" />
    <path
       style="fill:none;stroke:#000000;stroke-width:1px;stroke-linecap:square"
       d="m 30.5,67 10,0"
       id="C-left-1"
       inkscape:connector-curvature="0" />
    <path
       style="fill:none;stroke:#000000;stroke-width:1px;stroke-linecap:square"
       d="m 30.5,93 10,0"
       id="C-left-2"
       inkscape:connector-curvature="0" />
    <path
       style="fill:none;stroke:#000000;stroke-width:1px;stroke-linecap:square"
       d="m 30.5,307 10,0"
       id="C-left-3"
       inkscape:connector-curvature="0" />
    <path
       style="fill:none;stroke:#000000;stroke-width:1px;stroke-linecap:square"
       d="m 30.5,333 10,0"
       id="C-left-4"
       inkscape:connector-curvature="0" />
  </g>
  
tmp/TMP.change:<g
     inkscape:groupmode="layer"
     id="g3149"
     inkscape:label="OKON-001"
     zpos="-300"
     style="display:inline"
     sodipodi:insensitive="true">
    <path
       style="fill:#000000;stroke:none;display:inline"
       d="m 30.5,67 0,266 339,0 0,-266 z"
       id="path3163"
       inkscape:connector-curvature="0"
       sodipodi:nodetypes="ccccc" />
    <path
       id="path3151"
       style="fill:#ffffff;stroke:none;display:inline"
       d="m 369.5,17 0,50 -339,0 0,-50 z"
       inkscape:connector-curvature="0"
       sodipodi:nodetypes="ccccc" />
    <path
       sodipodi:nodetypes="cccc"
       inkscape:connector-curvature="0"
       id="path3153"
       d="m 30.5,67 10,0 319,0 10,0"
       style="fill:none;stroke:#000000;stroke-width:1px;stroke-linecap:square;display:inline" />
  </g>
  
tmp/TMP.master:<g
     zpos="-200"
     style="display:none"
     inkscape:label="PPPP-001"
     id="g3125"
     inkscape:groupmode="layer">
    <path
       style="fill:#ffffff;stroke:#00ff00;stroke-width:1px"
       d="m 143.04691,331.90183 0,-102.63428 65.6543,0 c 26.10349,0 48.84523,-12.65627 68.02734,-38.1665 10.2832,-13.64501 15.42481,-32.43166 15.42481,-56.55762 0,-19.57761 -7.51466,-37.57326 -22.14844,-54.18457 -17.79783,-19.77537 -38.95754,-29.66308 -63.479,-29.66308 l -76.53076,0 c -10.87646,0 -16.21582,5.33936 -16.21582,15.62256 l 0,265.18798 c 0,11.27196 4.7461,16.80909 14.63378,16.80909 9.68994,0 14.63379,-5.33937 14.63379,-16.41358"
       id="path3136"
       inkscape:connector-curvature="0" />
    <path
       style="fill:#ffffff;stroke:#00ff00;stroke-width:1px"
       d="m 143.04691,79.17234 57.34864,0 c 18.7866,0 34.01368,5.73487 45.68115,17.20459 11.66747,11.46971 17.6001,25.90578 17.6001,42.9126 0,17.20457 -5.93263,31.64063 -17.40235,43.11035 -11.86522,11.86522 -24.32374,17.6001 -37.57324,17.6001 l -65.6543,0 0,-120.82764"
       id="path3141"
       inkscape:connector-curvature="0" />
  </g>
  
tmp/TMP.master:<g
     zpos="-200"
     style="display:none"
     inkscape:label="PPPP-002"
     id="g3143"
     inkscape:groupmode="layer">
    <path
       style="fill:#ffffff;stroke:#00ff00;stroke-width:1px"
       d="m 104.42004,191.08997 c 0,152.68484 0,142.155 1.215,145.8 1.215,2.83499 2.025,4.455 4.86,6.885 2.43,2.42999 4.05,3.645 6.885,4.86 5.265,1.61999 10.12501,1.21499 14.985,-1.215 4.05,-1.62 6.885,-4.45501 8.91,-8.505 2.025,-4.455 2.025,0.80994 2.025,-54.27 l 0,-49.005 48.6,0 c 47.38495,0 49.005,0 52.65,-0.81 26.72997,-3.24 47.79,-24.30003 51.03,-51.03 0.405,-4.86 0.405,-77.35501 0,-81.81 -2.835,-24.29998 -20.25002,-44.14501 -43.74,-50.22 -7.28999,-1.62 -0.40508,-1.62 -77.76,-1.62 l -69.66,0 0,140.94"
       id="path3159"
       inkscape:connector-curvature="0" />
    <path
       style="fill:#ffffff;stroke:#00ff00;stroke-width:1px"
       d="m 242.52504,89.43497 c 6.47999,2.02499 11.745,7.29 13.77,13.77 l 0.405,2.025 0,37.665 c 0,42.11995 0.405,38.475 -1.62,42.525 -2.025,4.04999 -5.265,7.29 -9.315,9.315 -4.05,2.02499 1.21495,1.62 -53.46,2.025 l -49.005,0 0,-53.865 0,-53.865 49.005,0 c 46.16995,0 48.6,0 50.22,0.405"
       id="path3154"
       inkscape:connector-curvature="0" />
  </g>
  
tmp/TMP.master:<g
     zpos="-200"
     style="display:none"
     inkscape:label="PPPP-003"
     id="g3161"
     inkscape:groupmode="layer">
    <path
       style="fill:#ffffff;stroke:#00ff00;stroke-width:1px"
       d="m 80.15463,84.06995 c 0,-6.47972 2.835,-12.41971 8.505,-17.82 5.66999,-5.6697 11.60998,-8.5047 17.82,-8.505 l 92.34,0 c 32.66985,3e-4 58.18483,10.53029 76.545,31.59 15.92979,18.63025 23.89478,41.85023 23.895,69.66 -2.2e-4,27.54017 -7.56021,51.30015 -22.68,71.28 -16.74018,21.60011 -38.20516,32.4001 -64.395,32.4 l -62.775,0 0,61.56 c -7e-5,10.80003 -3.64506,19.44002 -10.935,25.92 -6.21005,5.67001 -13.90504,8.505 -23.085,8.505 -9.45002,0 -17.68501,-3.10499 -24.705,-9.315 -7.02,-6.20998 -10.53,-14.84997 -10.53,-25.92 l 0,-239.355"
       id="path3177"
       inkscape:connector-curvature="0" />
    <path
       style="fill:#ffffff;stroke:#00ff00;stroke-width:1px"
       d="m 192.33963,120.51995 -42.93,0 0,78.975 42.93,0 c 11.33988,1.6e-4 20.38487,-4.04983 27.135,-12.15 5.93986,-7.28982 8.90985,-16.19981 8.91,-26.73 -1.5e-4,-10.79979 -3.24014,-20.11478 -9.72,-27.945 -6.48013,-8.09976 -15.25512,-12.14976 -26.325,-12.15"
       id="path3172"
       inkscape:connector-curvature="0" />
  </g>
  
tmp/TMP.master:<g
     zpos="-200"
     style="display:none"
     inkscape:label="PPPP-004"
     id="g3179"
     inkscape:groupmode="layer">
    <path
       style="fill:#ffffff;stroke:#00ff00;stroke-width:1px"
       d="m 141.7615,234.80473 0,109.16016 -48.0542,0 0,-287.92969 110.34668,0 c 31.77229,2.9e-4 56.62334,8.24003 74.55322,24.71924 18.06129,16.3479 27.09205,37.90306 27.09229,64.66553 -2.4e-4,27.02654 -9.031,48.71353 -27.09229,65.06103 -17.92988,16.21594 -42.78093,24.32384 -74.55322,24.32373 l -62.29248,0"
       id="path3195"
       inkscape:connector-curvature="0" />
    <path
       style="fill:#ffffff;stroke:#00ff00;stroke-width:1px"
       d="m 141.7615,196.24272 62.29248,0 c 17.79769,1.5e-4 31.17903,-4.74594 40.14404,-14.23828 8.96466,-9.49202 13.44707,-21.55499 13.44727,-36.18896 -2e-4,-14.63358 -4.48261,-26.82839 -13.44727,-36.58448 -8.96501,-9.75561 -22.34635,-14.63354 -40.14404,-14.63379 l -62.29248,0 0,101.64551"
       id="path3190"
       inkscape:connector-curvature="0" />
  </g>
  
tmp/TMP.master:<g
     zpos="-200"
     style="display:none"
     inkscape:label="PPPP-005"
     id="g3207"
     inkscape:groupmode="layer">
    <path
       style="fill:#ffffff;stroke:#00ff00;stroke-width:1px"
       d="m 280.89868,62.193919 -48.33673,-26.970494 -38.52928,26.970494 0,-20.665703 -53.94099,0 0,216.306764 -20.31544,38.87955 20.31544,0 0,79.89551 53.94099,-31.17369 0,-48.72182 32.57475,0 53.94099,-58.14418 0,-176.026164 0.35027,-0.350267"
       id="path3223"
       inkscape:connector-curvature="0"
       sodipodi:nodetypes="ccccccccccccccc" />
    <path
       style="fill:#ffffff;stroke:#00ff00;stroke-width:1px"
       d="m 226.60742,100.56548 0,147.11179 -32.57475,0 0,-165.675898 32.57475,18.564108"
       id="path3218"
       inkscape:connector-curvature="0" />
  </g>
  
tmp/TMP.master:<g
     zpos="-200"
     style="display:none"
     inkscape:label="PPPP-006"
     id="g3225"
     inkscape:groupmode="layer">
    <path
       style="fill:#ffffff;stroke:#00ff00;stroke-width:1px"
       d="m 110.36152,325.38504 c 0,5.76 2.88001,10.8 9.36,14.76 6.12,3.96 12.96001,5.76 20.52,5.76 l 37.8,-135.36 2.16,0 c 6.84,0 15.48001,-0.36 25.2,-1.08 9.36,-0.72 21.60002,-3.24 36.36,-6.84 14.39999,-3.6 27.72002,-7.92 39.24,-13.68 11.51999,-5.75999 21.60001,-14.04001 30.24,-24.84 8.64,-10.79999 12.96,-23.76001 12.96,-38.16 0,-14.39998 -5.40001,-27.36001 -16.2,-38.52 -10.79998,-11.15999 -23.40001,-19.44 -38.15999,-24.48 -15.11999,-5.03999 -30.60002,-7.56 -46.08001,-7.56 -24.47997,0 -52.56003,6.84001 -84.6,20.16 0,2.52 1.44001,5.4 5.04,9 3.6,3.6 6.48001,5.4 8.64,5.04 1.08,0 3.60001,-1.08 7.92001,-3.24 4.31999,-2.16 10.08,-4.68 17.27999,-7.92 7.2,-3.24 14.76001,-5.76 23.04,-7.56 -11.51998,25.55998 -22.68001,52.20003 -33.12,79.56 -10.79998,27.71997 -19.08,50.76002 -24.84,68.76 l -28.08,86.04 c -3.23999,9.35999 -4.68,16.2 -4.68,20.16"
       id="path3241"
       inkscape:connector-curvature="0" />
    <path
       style="fill:#ffffff;stroke:#00ff00;stroke-width:1px"
       d="m 181.28152,199.38504 c 17.27999,-59.39994 33.12002,-103.32003 47.52,-131.4 17.99999,0.72 33.48002,5.40001 46.44,14.04 12.59999,8.99999 18.72001,21.60002 19.08,38.16 0,16.19998 -6.12001,30.24001 -17.64,42.12 -11.51998,12.23999 -25.56001,20.88001 -42.12,26.64 -16.55998,6.11999 -34.20001,9.36 -53.28,10.44"
       id="path3236"
       inkscape:connector-curvature="0" />
  </g>
  
tmp/TMP.master:<g
     zpos="-200"
     style="display:inline"
     inkscape:label="PPPP-007"
     id="g3271"
     inkscape:groupmode="layer">
    <path
       style="fill:#ffffff;stroke:#00ff00;stroke-width:1px"
       d="m 118.89334,372.28527 c 1.26464,0 2.89062,-0.36133 5.05859,-1.44532 2.16797,-0.90332 4.15528,-1.9873 6.32324,-3.43261 2.16797,-1.26465 4.15528,-2.5293 6.14258,-3.79395 1.80664,-1.26465 3.25195,-2.16797 4.33594,-2.89062 1.62597,-1.08399 2.89062,-2.34864 3.97461,-3.79395 1.08398,-1.44531 1.44531,-3.25195 1.62597,-5.41992 l 0,-75.33692 50.40528,32.33887 c 1.80664,1.26465 3.79394,1.80664 5.96191,1.80664 1.62598,0 3.43262,-0.36133 5.23926,-1.44531 l 95.39062,-53.65723 c 3.79395,-2.16796 5.78125,-5.23926 5.78125,-9.57519 l 0,-159.16504 c 0,-3.97461 -1.80664,-7.0459 -5.23925,-9.21387 l -83.4668,-53.65722 0,0.18066 c -2.16797,-1.08398 -4.15528,-1.62598 -5.96192,-1.80664 -1.26464,0 -3.61328,0.90332 -6.86523,2.34863 -3.43261,1.62598 -7.40723,3.61329 -11.74316,5.96192 -4.33594,2.52929 -9.03321,5.05859 -14.0918,7.94921 -5.05859,2.89063 -9.75586,5.78126 -14.45313,8.49122 -4.69726,2.89062 -8.85254,5.41992 -12.46582,7.40722 -3.79394,2.34863 -6.68457,3.79395 -8.49121,4.69727 0,-1.80664 0,-3.79395 0.18067,-6.14258 0.18066,-2.16797 0.18066,-4.15528 0,-6.32324 -0.18067,-1.98731 -0.72266,-3.79395 -1.62598,-5.60059 -0.90332,-1.80664 -2.34863,-3.07129 -4.33594,-4.33594 -1.26464,-0.54199 -3.25195,-1.62597 -5.96191,-3.25195 -2.70996,-1.44531 -5.60059,-3.07129 -8.49121,-4.69726 -3.07129,-1.62598 -5.96192,-3.0713 -8.67188,-4.33594 -2.89062,-1.08399 -4.87793,-1.62598 -6.32324,-1.80664 -1.80664,0 -3.79395,0.72265 -5.78125,1.80664 l 0,-0.18067 -18.42773,11.74317 c -3.61328,2.34863 -5.23926,5.41992 -5.23926,9.39453 0,4.69726 1.98731,7.94922 6.14258,9.75586 l 20.41504,10.29785 0,143.2666 -19.87305,10.47852 c -1.9873,1.08398 -3.43262,2.34863 -4.5166,3.97461 -1.08399,1.62597 -1.62598,3.61328 -1.62598,5.78125 -0.18066,2.16796 0.36133,3.97461 1.08399,5.23925 0.72265,1.44532 2.16797,2.70997 3.9746,3.79395 l 20.77637,13.5498 0,109.84375 c -0.18066,2.89063 0.90332,5.60059 3.07129,7.76856 1.9873,2.34863 4.51661,3.43262 7.76856,3.43262"
       id="path3287"
       inkscape:connector-curvature="0" />
    <path
       style="fill:#ffffff;stroke:#00ff00;stroke-width:1px"
       d="m 146.35427,224.3214 0,-140.73731 51.12793,-29.08691 66.48438,42.99805 c 2.16796,1.44531 3.79394,3.07129 4.87793,5.23925 1.08398,2.16797 1.80664,4.51661 1.80664,7.0459 l 0,138.93067 -50.58594,28.90625 -67.02637,-43.17871 0,0.18066 c -1.80664,-0.90332 -3.25195,-2.34863 -4.69726,-4.33594 -1.44531,-1.80664 -1.98731,-3.79394 -1.98731,-5.96191"
       id="path3282"
       inkscape:connector-curvature="0" />
  </g>
  
tmp/TMP.master:<g
     zpos="-200"
     style="display:none"
     inkscape:label="PPPP-008"
     id="g3243"
     inkscape:groupmode="layer">
    <path
       style="fill:#ffffff;stroke:#00ff00;stroke-width:1px"
       d="m 178.72244,301.96807 0,-69.72657 21.28906,0 c 29.29685,0 52.92971,-4.49219 70.70312,-13.47656 17.77342,-8.98437 30.27345,-20.1172 37.69532,-33.59375 7.42187,-13.47655 11.13281,-27.53908 11.13281,-42.38281 0,-15.62499 -4.29688,-29.4922 -12.5,-41.40625 -8.20312,-11.71874 -20.70314,-20.89845 -37.10938,-27.53906 -16.60154,-6.64062 -36.91408,-9.96094 -61.13281,-9.96094 l -17.96875,0.19531 c -24.99997,0.39063 -40.03906,0.58594 -44.92187,0.58594 -26.9531,0 -47.26564,-0.39063 -60.74219,-1.17188 l 0,8.00782 c 8.78905,0.39062 15.23438,1.5625 19.33594,3.125 3.90624,1.75781 6.64062,4.88281 8.20312,9.375 1.5625,4.68749 2.34375,11.91407 2.34375,21.875 l 0,198.4375 c 0,10.15624 -0.78125,17.38281 -2.34375,21.875 -1.5625,4.68749 -4.29688,7.8125 -8.20312,9.375 -3.90625,1.75781 -10.35157,2.73437 -19.33594,3.125 l 0,8.00781 c 23.04685,-0.78125 44.33596,-1.17188 63.47656,-1.17188 26.56248,0 50.97659,0.39063 72.85156,1.17188 l 0,-8.78906 c -12.69529,0 -21.875,-0.97657 -27.53906,-2.73438 -5.85937,-1.5625 -9.76562,-4.88282 -11.91406,-9.76562 -2.34375,-4.88281 -3.32031,-12.69533 -3.32031,-23.4375"
       id="path3259"
       inkscape:connector-curvature="0" />
    <path
       style="fill:#ffffff;stroke:#00ff00;stroke-width:1px"
       d="m 187.70681,74.429 c 3.51562,-1.95312 8.78907,-2.92968 15.82031,-2.92968 17.57811,0 30.27345,6.25001 38.08594,18.35937 7.61718,12.30468 11.52344,31.44534 11.52344,57.22656 0,23.8281 -4.10157,42.57814 -12.30469,56.44532 -8.20311,13.86717 -23.24221,20.70312 -44.92187,20.70312 l -17.1875,0 0,-118.35937 c 0,-9.37499 0.58594,-16.60157 1.95312,-21.48438 1.17188,-4.68749 3.51563,-8.00781 7.03125,-9.96094"
       id="path3254"
       inkscape:connector-curvature="0" />
  </g>
  
tmp/TMP.change:<g
     sodipodi:insensitive="true"
     style="display:inline"
     zpos="-180"
     inkscape:label="UKON-001"
     id="g3155"
     inkscape:groupmode="layer">
    <path
       sodipodi:nodetypes="ccccc"
       inkscape:connector-curvature="0"
       d="m 30.5,383 0,-50 339,0 0,50 z"
       style="fill:#ffffff;stroke:none;display:inline"
       id="path3157" />
    <path
       style="fill:none;stroke:#000000;stroke-width:1px;stroke-linecap:square;display:inline"
       d="m 369.5,333 -10,0 -319,0 -10,0"
       id="path3159"
       inkscape:connector-curvature="0"
       sodipodi:nodetypes="cccc" />
  </g>

</svg>
