<?xml version="1.0" encoding="UTF-8" standalone="no"?>
<!-- Created with Inkscape (http://www.inkscape.org/) -->

<svg
   xmlns:dc="http://purl.org/dc/elements/1.1/"
   xmlns:cc="http://creativecommons.org/ns#"
   xmlns:rdf="http://www.w3.org/1999/02/22-rdf-syntax-ns#"
   xmlns:svg="http://www.w3.org/2000/svg"
   xmlns="http://www.w3.org/2000/svg"
   xmlns:sodipodi="http://sodipodi.sourceforge.net/DTD/sodipodi-0.dtd"
   xmlns:inkscape="http://www.inkscape.org/namespaces/inkscape"
   style="display:inline"
   sodipodi:docname="161212_JJJJ_00_UW_00_UW_.svg"
   inkscape:version="0.48.3.1 r9886"
   version="1.1"
   id="svg2902"
   height="400"
   width="400">
  <sodipodi:namedview
     id="base"
     pagecolor="#f0f0f0"
     bordercolor="#666666"
     borderopacity="1.0"
     inkscape:pageopacity="1"
     inkscape:pageshadow="2"
     inkscape:zoom="1.0076482"
     inkscape:cx="222.58563"
     inkscape:cy="217.43789"
     inkscape:document-units="px"
     inkscape:current-layer="svg2902"
     showgrid="false"
     inkscape:window-width="1018"
     inkscape:window-height="709"
     inkscape:window-x="0"
     inkscape:window-y="1"
     inkscape:window-maximized="0"
     showguides="true"
     inkscape:guide-bbox="true"
     inkscape:snap-bbox="true"
     inkscape:snap-global="false" />
  <defs
     id="defs2904">
    <clipPath
       clipPathUnits="userSpaceOnUse"
       id="clipPath5174">
      <path
         id="path5176"
         style="opacity:0.5;fill:#00ff00;stroke:#00ff00;stroke-width:1px;stroke-linecap:square;display:inline"
         d="m 436.26971,600.11436 -232.09481,134 -169.500003,-293.58262 232.094813,-134 z"
         inkscape:connector-curvature="0"
         sodipodi:nodetypes="ccccc" />
    </clipPath>
    <clipPath
       clipPathUnits="userSpaceOnUse"
       id="clipPath5174-5">
      <path
         id="path5176-9"
         style="opacity:0.5;fill:#00ff00;stroke:#00ff00;stroke-width:1px;stroke-linecap:square;display:inline"
         d="m 436.26971,600.11436 -232.09481,134 -169.500003,-293.58262 232.094813,-134 z"
         inkscape:connector-curvature="0"
         sodipodi:nodetypes="ccccc" />
    </clipPath>
    <clipPath
       clipPathUnits="userSpaceOnUse"
       id="clipPath3238">
      <path
         sodipodi:nodetypes="ccccc"
         inkscape:connector-curvature="0"
         d="m 461.26971,643.41563 -232.09481,134 -169.500002,-293.58262 232.094812,-134 z"
         style="opacity:0.5;fill:#00ff00;stroke:#00ff00;stroke-width:1px;stroke-linecap:square;display:inline"
         id="path3240" />
    </clipPath>
  </defs>
  <metadata
     id="metadata2907">
    <rdf:RDF>
      <cc:Work
         rdf:about="">
        <dc:format>image/svg+xml</dc:format>
        <dc:type
           rdf:resource="http://purl.org/dc/dcmitype/StillImage" />
        <dc:title />
      </cc:Work>
    </rdf:RDF>
  </metadata>
  
tmp/TMP.change:<g
     inkscape:groupmode="layer"
     id="bg"
     inkscape:label="XX_BG"
     sodipodi:insensitive="true">
    <path
       style="fill:#f6ffd5"
       d="M 400,0 400,400 0,400 0,0 z"
       id="bgrect"
       inkscape:connector-curvature="0" />
  </g>
  
tmp/TMP.change:<g
     inkscape:label="XX_Referenz"
     inkscape:groupmode="layer"
     id="XX_referenz"
     style="display:inline"
     sodipodi:insensitive="true">
    <path
       id="innerframe"
       style="fill:none;stroke:#ff0000;stroke-width:1"
       d="m 40.5,40.5 319,0 0,319 -319,0 0,-319 z"
       inkscape:label="#innerframe"
       sodipodi:insensitive="true"
       inkscape:connector-curvature="0" />
    <path
       id="outerframe"
       style="fill:none;stroke:#ff0000;stroke-width:1"
       d="m 30.5,30.5 339,0 0,339 -339,0 0,-339 z"
       inkscape:label="#outerframe"
       sodipodi:nodetypes="ccccc"
       sodipodi:insensitive="true"
       inkscape:connector-curvature="0" />
    <path
       style="opacity:0.5;fill:none;stroke:#ffc200;stroke-width:1px;stroke-linecap:square"
       d="m 189,30.5 0,10"
       id="ref-S-top-1"
       sodipodi:insensitive="true"
       inkscape:connector-curvature="0" />
    <path
       style="opacity:0.5;fill:none;stroke:#ffc200;stroke-width:1px;stroke-linecap:square"
       d="m 191,30.5 0,10"
       id="ref-S-top-2"
       sodipodi:insensitive="true"
       inkscape:connector-curvature="0" />
    <path
       style="opacity:0.5;fill:none;stroke:#ffc200;stroke-width:1px;stroke-linecap:square"
       d="m 209,30.5 0,10"
       id="ref-S-top-3"
       sodipodi:insensitive="true"
       inkscape:connector-curvature="0" />
    <path
       style="opacity:0.5;fill:none;stroke:#ffc200;stroke-width:1px;stroke-linecap:square"
       d="m 211,30.5 0,10"
       id="ref-S-top-4"
       sodipodi:insensitive="true"
       inkscape:connector-curvature="0" />
    <path
       style="opacity:0.5;fill:none;stroke:#00ff00;stroke-width:1px;stroke-linecap:square"
       d="m 199,30.5 0,10"
       id="ref-I-top-1"
       sodipodi:insensitive="true"
       inkscape:connector-curvature="0" />
    <path
       style="opacity:0.5;fill:none;stroke:#00ff00;stroke-width:1px;stroke-linecap:square"
       d="m 201,30.5 0,10"
       id="ref-I-top-2"
       sodipodi:insensitive="true"
       inkscape:connector-curvature="0" />
    <path
       style="opacity:0.5;fill:none;stroke:#00ffcc;stroke-width:1px;stroke-linecap:square"
       d="m 66,30.5 0,10"
       id="ref-C-top-1"
       sodipodi:insensitive="true"
       inkscape:connector-curvature="0" />
    <path
       style="opacity:0.5;fill:none;stroke:#00ffcc;stroke-width:1px;stroke-linecap:square"
       d="m 68,30.5 0,10"
       id="ref-C-top-2"
       sodipodi:insensitive="true"
       inkscape:connector-curvature="0" />
    <path
       style="opacity:0.5;fill:none;stroke:#00ffcc;stroke-width:1px;stroke-linecap:square"
       d="m 92,30.5 0,10"
       id="ref-C-top-3"
       sodipodi:insensitive="true"
       inkscape:connector-curvature="0" />
    <path
       style="opacity:0.5;fill:none;stroke:#00ffcc;stroke-width:1px;stroke-linecap:square"
       d="m 94,30.5 0,10"
       id="ref-C-top-4"
       sodipodi:insensitive="true"
       inkscape:connector-curvature="0" />
    <path
       style="opacity:0.5;fill:none;stroke:#00ffcc;stroke-width:1px;stroke-linecap:square"
       d="m 306,30.5 0,10"
       id="ref-C-top-5"
       sodipodi:insensitive="true"
       inkscape:connector-curvature="0" />
    <path
       style="opacity:0.5;fill:none;stroke:#00ffcc;stroke-width:1px;stroke-linecap:square"
       d="m 308,30.5 0,10"
       id="ref-C-top-6"
       sodipodi:insensitive="true"
       inkscape:connector-curvature="0" />
    <path
       style="opacity:0.5;fill:none;stroke:#00ffcc;stroke-width:1px;stroke-linecap:square"
       d="m 332,30.5 0,10"
       id="ref-C-top-7"
       sodipodi:insensitive="true"
       inkscape:connector-curvature="0" />
    <path
       style="opacity:0.5;fill:none;stroke:#00ffcc;stroke-width:1px;stroke-linecap:square"
       d="m 334,30.5 0,10"
       id="ref-C-top-8"
       sodipodi:insensitive="true"
       inkscape:connector-curvature="0" />
    <path
       style="opacity:0.5;fill:none;stroke:#ffc200;stroke-width:1px;stroke-linecap:square"
       d="m 369.5,189 -10,0"
       id="ref-S-right-1"
       sodipodi:insensitive="true"
       inkscape:connector-curvature="0" />
    <path
       style="opacity:0.5;fill:none;stroke:#ffc200;stroke-width:1px;stroke-linecap:square"
       d="m 369.5,191 -10,0"
       id="ref-S-right-2"
       sodipodi:insensitive="true"
       inkscape:connector-curvature="0" />
    <path
       style="opacity:0.5;fill:none;stroke:#ffc200;stroke-width:1px;stroke-linecap:square"
       d="m 369.5,209 -10,0"
       id="ref-S-right-3"
       sodipodi:insensitive="true"
       inkscape:connector-curvature="0" />
    <path
       style="opacity:0.5;fill:none;stroke:#ffc200;stroke-width:1px;stroke-linecap:square"
       d="m 369.5,211 -10,0"
       id="ref-S-right-4"
       sodipodi:insensitive="true"
       inkscape:connector-curvature="0" />
    <path
       style="opacity:0.5;fill:none;stroke:#00ff00;stroke-width:1px;stroke-linecap:square"
       d="m 369.5,199 -10,0"
       id="ref-I-right-1"
       sodipodi:insensitive="true"
       inkscape:connector-curvature="0" />
    <path
       style="opacity:0.5;fill:none;stroke:#00ff00;stroke-width:1px;stroke-linecap:square"
       d="m 369.5,201 -10,0"
       id="ref-I-right-2"
       sodipodi:insensitive="true"
       inkscape:connector-curvature="0" />
    <path
       style="opacity:0.5;fill:none;stroke:#00ffcc;stroke-width:1px;stroke-linecap:square"
       d="m 369.5,66 -10,0"
       id="ref-C-right-1"
       sodipodi:insensitive="true"
       inkscape:connector-curvature="0" />
    <path
       style="opacity:0.5;fill:none;stroke:#00ffcc;stroke-width:1px;stroke-linecap:square"
       d="m 369.5,68 -10,0"
       id="ref-C-right-2"
       sodipodi:insensitive="true"
       inkscape:connector-curvature="0" />
    <path
       style="opacity:0.5;fill:none;stroke:#00ffcc;stroke-width:1px;stroke-linecap:square"
       d="m 369.5,92 -10,0"
       id="ref-C-right-3"
       sodipodi:insensitive="true"
       inkscape:connector-curvature="0" />
    <path
       style="opacity:0.5;fill:none;stroke:#00ffcc;stroke-width:1px;stroke-linecap:square"
       d="m 369.5,94 -10,0"
       id="ref-C-right-4"
       sodipodi:insensitive="true"
       inkscape:connector-curvature="0" />
    <path
       style="opacity:0.5;fill:none;stroke:#00ffcc;stroke-width:1px;stroke-linecap:square"
       d="m 369.5,306 -10,0"
       id="ref-C-right-5"
       sodipodi:insensitive="true"
       inkscape:connector-curvature="0" />
    <path
       style="opacity:0.5;fill:none;stroke:#00ffcc;stroke-width:1px;stroke-linecap:square"
       d="m 369.5,308 -10,0"
       id="ref-C-right-6"
       sodipodi:insensitive="true"
       inkscape:connector-curvature="0" />
    <path
       style="opacity:0.5;fill:none;stroke:#00ffcc;stroke-width:1px;stroke-linecap:square"
       d="m 369.5,332 -10,0"
       id="ref-C-right-7"
       sodipodi:insensitive="true"
       inkscape:connector-curvature="0" />
    <path
       style="opacity:0.5;fill:none;stroke:#00ffcc;stroke-width:1px;stroke-linecap:square"
       d="m 369.5,334 -10,0"
       id="ref-C-right-8"
       sodipodi:insensitive="true"
       inkscape:connector-curvature="0" />
    <path
       style="opacity:0.5;fill:none;stroke:#ffc200;stroke-width:1px;stroke-linecap:square"
       d="m 189,369.5 0,-10"
       id="ref-S-bottom-1"
       sodipodi:insensitive="true"
       inkscape:connector-curvature="0" />
    <path
       style="opacity:0.5;fill:none;stroke:#ffc200;stroke-width:1px;stroke-linecap:square"
       d="m 191,369.5 0,-10"
       id="ref-S-bottom-2"
       sodipodi:insensitive="true"
       inkscape:connector-curvature="0" />
    <path
       style="opacity:0.5;fill:none;stroke:#ffc200;stroke-width:1px;stroke-linecap:square"
       d="m 209,369.5 0,-10"
       id="ref-S-bottom-3"
       sodipodi:insensitive="true"
       inkscape:connector-curvature="0" />
    <path
       style="opacity:0.5;fill:none;stroke:#ffc200;stroke-width:1px;stroke-linecap:square"
       d="m 211,369.5 0,-10"
       id="ref-S-bottom-4"
       sodipodi:insensitive="true"
       inkscape:connector-curvature="0" />
    <path
       style="opacity:0.5;fill:none;stroke:#00ff00;stroke-width:1px;stroke-linecap:square"
       d="m 199,369.5 0,-10"
       id="ref-I-bottom-1"
       sodipodi:insensitive="true"
       inkscape:connector-curvature="0" />
    <path
       style="opacity:0.5;fill:none;stroke:#00ff00;stroke-width:1px;stroke-linecap:square"
       d="m 201,369.5 0,-10"
       id="ref-I-bottom-2"
       sodipodi:insensitive="true"
       inkscape:connector-curvature="0" />
    <path
       style="opacity:0.5;fill:none;stroke:#00ffcc;stroke-width:1px;stroke-linecap:square"
       d="m 66,369.5 0,-10"
       id="ref-C-bottom-1"
       sodipodi:insensitive="true"
       inkscape:connector-curvature="0" />
    <path
       style="opacity:0.5;fill:none;stroke:#00ffcc;stroke-width:1px;stroke-linecap:square"
       d="m 68,369.5 0,-10"
       id="ref-C-bottom-2"
       sodipodi:insensitive="true"
       inkscape:connector-curvature="0" />
    <path
       style="opacity:0.5;fill:none;stroke:#00ffcc;stroke-width:1px;stroke-linecap:square"
       d="m 92,369.5 0,-10"
       id="ref-C-bottom-3"
       sodipodi:insensitive="true"
       inkscape:connector-curvature="0" />
    <path
       style="opacity:0.5;fill:none;stroke:#00ffcc;stroke-width:1px;stroke-linecap:square"
       d="m 94,369.5 0,-10"
       id="ref-C-bottom-4"
       sodipodi:insensitive="true"
       inkscape:connector-curvature="0" />
    <path
       style="opacity:0.5;fill:none;stroke:#00ffcc;stroke-width:1px;stroke-linecap:square"
       d="m 306,369.5 0,-10"
       id="ref-C-bottom-5"
       sodipodi:insensitive="true"
       inkscape:connector-curvature="0" />
    <path
       style="opacity:0.5;fill:none;stroke:#00ffcc;stroke-width:1px;stroke-linecap:square"
       d="m 308,369.5 0,-10"
       id="ref-C-bottom-6"
       sodipodi:insensitive="true"
       inkscape:connector-curvature="0" />
    <path
       style="opacity:0.5;fill:none;stroke:#00ffcc;stroke-width:1px;stroke-linecap:square"
       d="m 332,369.5 0,-10"
       id="ref-C-bottom-7"
       sodipodi:insensitive="true"
       inkscape:connector-curvature="0" />
    <path
       style="opacity:0.5;fill:none;stroke:#00ffcc;stroke-width:1px;stroke-linecap:square"
       d="m 334,369.5 0,-10"
       id="ref-C-bottom-8"
       sodipodi:insensitive="true"
       inkscape:connector-curvature="0" />
    <path
       style="opacity:0.5;fill:none;stroke:#ffc200;stroke-width:1px;stroke-linecap:square"
       d="m 30.5,189 10,0"
       id="ref-S-left-1"
       sodipodi:insensitive="true"
       inkscape:connector-curvature="0" />
    <path
       style="opacity:0.5;fill:none;stroke:#ffc200;stroke-width:1px;stroke-linecap:square"
       d="m 30.5,191 10,0"
       id="ref-S-left-2"
       sodipodi:insensitive="true"
       inkscape:connector-curvature="0" />
    <path
       style="opacity:0.5;fill:none;stroke:#ffc200;stroke-width:1px;stroke-linecap:square"
       d="m 30.5,209 10,0"
       id="ref-S-left-3"
       sodipodi:insensitive="true"
       inkscape:connector-curvature="0" />
    <path
       style="opacity:0.5;fill:none;stroke:#ffc200;stroke-width:1px;stroke-linecap:square"
       d="m 30.5,211 10,0"
       id="ref-S-left-4"
       sodipodi:insensitive="true"
       inkscape:connector-curvature="0" />
    <path
       style="opacity:0.5;fill:none;stroke:#00ff00;stroke-width:1px;stroke-linecap:square"
       d="m 40.5,199 -10,0"
       id="ref-I-left-1"
       sodipodi:insensitive="true"
       inkscape:connector-curvature="0" />
    <path
       style="opacity:0.5;fill:none;stroke:#00ff00;stroke-width:1px;stroke-linecap:square"
       d="m 40.5,201 -10,0"
       id="ref-I-left-2"
       sodipodi:insensitive="true"
       inkscape:connector-curvature="0" />
    <path
       style="opacity:0.5;fill:none;stroke:#00ffcc;stroke-width:1px;stroke-linecap:square"
       d="m 30.5,66 10,0"
       id="ref-C-left-1"
       sodipodi:insensitive="true"
       inkscape:connector-curvature="0" />
    <path
       style="opacity:0.5;fill:none;stroke:#00ffcc;stroke-width:1px;stroke-linecap:square"
       d="m 30.5,68 10,0"
       id="ref-C-left-2"
       sodipodi:insensitive="true"
       inkscape:connector-curvature="0" />
    <path
       style="opacity:0.5;fill:none;stroke:#00ffcc;stroke-width:1px;stroke-linecap:square"
       d="m 30.5,92 10,0"
       id="ref-C-left-3"
       sodipodi:insensitive="true"
       inkscape:connector-curvature="0" />
    <path
       style="opacity:0.5;fill:none;stroke:#00ffcc;stroke-width:1px;stroke-linecap:square"
       d="m 30.5,94 10,0"
       id="ref-C-left-4"
       sodipodi:insensitive="true"
       inkscape:connector-curvature="0" />
    <path
       style="opacity:0.5;fill:none;stroke:#00ffcc;stroke-width:1px;stroke-linecap:square"
       d="m 30.5,306 10,0"
       id="ref-C-left-5"
       sodipodi:insensitive="true"
       inkscape:connector-curvature="0" />
    <path
       style="opacity:0.5;fill:none;stroke:#00ffcc;stroke-width:1px;stroke-linecap:square"
       d="m 30.5,308 10,0"
       id="ref-C-left-6"
       sodipodi:insensitive="true"
       inkscape:connector-curvature="0" />
    <path
       style="opacity:0.5;fill:none;stroke:#00ffcc;stroke-width:1px;stroke-linecap:square"
       d="m 30.5,332 10,0"
       id="ref-C-left-7"
       sodipodi:insensitive="true"
       inkscape:connector-curvature="0" />
    <path
       style="opacity:0.5;fill:none;stroke:#00ffcc;stroke-width:1px;stroke-linecap:square"
       d="m 30.5,334 10,0"
       id="ref-C-left-8"
       sodipodi:insensitive="true"
       inkscape:connector-curvature="0" />
    <path
       style="fill:none;stroke:#000000;stroke-width:1px;stroke-linecap:square"
       d="m 190,30.5 0,10"
       id="S-top-1"
       inkscape:connector-curvature="0" />
    <path
       style="fill:none;stroke:#000000;stroke-width:1px;stroke-linecap:square"
       d="m 210,30.5 0,10"
       id="S-top-2"
       inkscape:connector-curvature="0" />
    <path
       style="fill:none;stroke:#000000;stroke-width:1px;stroke-linecap:square"
       d="m 369.5,190 -10,0"
       id="S-right-1"
       inkscape:connector-curvature="0" />
    <path
       style="fill:none;stroke:#000000;stroke-width:1px;stroke-linecap:square"
       d="m 369.5,210 -10,0"
       id="S-right-2"
       inkscape:connector-curvature="0" />
    <path
       style="fill:none;stroke:#000000;stroke-width:1px;stroke-linecap:square"
       d="m 190,369.5 0,-10"
       id="S-bottom-1"
       inkscape:connector-curvature="0" />
    <path
       style="fill:none;stroke:#000000;stroke-width:1px;stroke-linecap:square"
       d="m 210,369.5 0,-10"
       id="S-bottom-2"
       inkscape:connector-curvature="0" />
    <path
       style="fill:none;stroke:#000000;stroke-width:1px;stroke-linecap:square"
       d="m 30.5,190 10,0"
       id="S-left-1"
       inkscape:connector-curvature="0" />
    <path
       style="fill:none;stroke:#000000;stroke-width:1px;stroke-linecap:square"
       d="m 30.5,210 10,0"
       id="S-left-2"
       inkscape:connector-curvature="0" />
    <path
       style="fill:none;stroke:#000000;stroke-width:1px;stroke-linecap:square"
       d="m 200,30.5 0,10"
       id="I-top-1"
       inkscape:connector-curvature="0" />
    <path
       style="fill:none;stroke:#000000;stroke-width:1px;stroke-linecap:square"
       d="m 369.5,200 -10,0"
       id="I-right-1"
       inkscape:connector-curvature="0" />
    <path
       style="fill:none;stroke:#000000;stroke-width:1px;stroke-linecap:square"
       d="m 200,369.5 0,-10"
       id="I-bottom-1"
       inkscape:connector-curvature="0" />
    <path
       style="fill:none;stroke:#000000;stroke-width:1px;stroke-linecap:square"
       d="m 40.5,200 -10,0"
       id="I-left-1"
       inkscape:connector-curvature="0" />
    <path
       style="fill:none;stroke:#000000;stroke-width:1px;stroke-linecap:square"
       d="m 67,30.5 0,10"
       id="C-top-1"
       inkscape:connector-curvature="0" />
    <path
       style="fill:none;stroke:#000000;stroke-width:1px;stroke-linecap:square"
       d="m 93,30.5 0,10"
       id="C-top-2"
       inkscape:connector-curvature="0" />
    <path
       style="fill:none;stroke:#000000;stroke-width:1px;stroke-linecap:square"
       d="m 307,30.5 0,10"
       id="C-top-3"
       inkscape:connector-curvature="0" />
    <path
       style="fill:none;stroke:#000000;stroke-width:1px;stroke-linecap:square"
       d="m 333,30.5 0,10"
       id="C-top-4"
       inkscape:connector-curvature="0" />
    <path
       style="fill:none;stroke:#000000;stroke-width:1px;stroke-linecap:square"
       d="m 369.5,67 -10,0"
       id="C-right-1"
       inkscape:connector-curvature="0" />
    <path
       style="fill:none;stroke:#000000;stroke-width:1px;stroke-linecap:square"
       d="m 369.5,93 -10,0"
       id="C-right-2"
       inkscape:connector-curvature="0" />
    <path
       style="fill:none;stroke:#000000;stroke-width:1px;stroke-linecap:square"
       d="m 369.5,307 -10,0"
       id="C-right-3"
       inkscape:connector-curvature="0" />
    <path
       style="fill:none;stroke:#000000;stroke-width:1px;stroke-linecap:square"
       d="m 369.5,333 -10,0"
       id="C-right-4"
       inkscape:connector-curvature="0" />
    <path
       style="fill:none;stroke:#000000;stroke-width:1px;stroke-linecap:square"
       d="m 67,369.5 0,-10"
       id="C-bottom-1"
       inkscape:connector-curvature="0" />
    <path
       style="fill:none;stroke:#000000;stroke-width:1px;stroke-linecap:square"
       d="m 93,369.5 0,-10"
       id="C-bottom-2"
       inkscape:connector-curvature="0" />
    <path
       style="fill:none;stroke:#000000;stroke-width:1px;stroke-linecap:square"
       d="m 307,369.5 0,-10"
       id="C-bottom-3"
       inkscape:connector-curvature="0" />
    <path
       style="fill:none;stroke:#000000;stroke-width:1px;stroke-linecap:square"
       d="m 333,369.5 0,-10"
       id="C-bottom-4"
       inkscape:connector-curvature="0" />
    <path
       style="fill:none;stroke:#000000;stroke-width:1px;stroke-linecap:square"
       d="m 30.5,67 10,0"
       id="C-left-1"
       inkscape:connector-curvature="0" />
    <path
       style="fill:none;stroke:#000000;stroke-width:1px;stroke-linecap:square"
       d="m 30.5,93 10,0"
       id="C-left-2"
       inkscape:connector-curvature="0" />
    <path
       style="fill:none;stroke:#000000;stroke-width:1px;stroke-linecap:square"
       d="m 30.5,307 10,0"
       id="C-left-3"
       inkscape:connector-curvature="0" />
    <path
       style="fill:none;stroke:#000000;stroke-width:1px;stroke-linecap:square"
       d="m 30.5,333 10,0"
       id="C-left-4"
       inkscape:connector-curvature="0" />
  </g>
  
tmp/TMP.change:<g
     inkscape:groupmode="layer"
     id="g3149"
     inkscape:label="OKON-001"
     zpos="-300"
     style="display:inline"
     sodipodi:insensitive="true">
    <path
       id="path3151"
       style="fill:#ffffff;stroke:none;display:inline"
       d="m 369.5,30 0,37 -339,0 0,-37 z"
       inkscape:connector-curvature="0"
       sodipodi:nodetypes="ccccc" />
    <path
       style="fill:none;stroke:#000000;stroke-width:1px;stroke-linecap:square;display:inline"
       d="m 67,30.5 0,36"
       id="C-top-1-3"
       inkscape:connector-curvature="0"
       sodipodi:nodetypes="cc" />
    <path
       style="fill:none;stroke:#000000;stroke-width:1px;stroke-linecap:square;display:inline"
       d="m 333,30.5 0,36"
       id="C-top-4-6"
       inkscape:connector-curvature="0"
       sodipodi:nodetypes="cc" />
    <path
       sodipodi:nodetypes="cccc"
       inkscape:connector-curvature="0"
       id="path3153"
       d="m 30.5,67 10,0 319,0 10,0"
       style="fill:none;stroke:#000000;stroke-width:1px;stroke-linecap:square;display:inline" />
  </g>
  
tmp/TMP.master:<g
     zpos="-200"
     style="display:none"
     inkscape:label="JJJJ-001"
     id="g3125"
     inkscape:groupmode="layer">
    <path
       style="fill:#ffffff;stroke:#00ff00;stroke-width:1px"
       d="m 223.73051,66.12058 0,210.01465 c 0,11.27196 -4.15284,21.35743 -12.4585,30.4541 -8.30565,9.09667 -18.58888,13.44727 -30.84961,13.44727 l -29.26758,0 c -11.46971,0 -17.20459,4.94385 -17.20459,14.63379 0,9.88768 4.74611,14.63378 14.63379,14.63378 l 30.4541,0 c 20.17088,0 37.37551,-7.11915 51.61377,-21.35742 14.23827,-14.23826 21.35743,-31.24513 21.35743,-51.0205 l 0,-211.00342 c 0,-10.08544 -4.74611,-15.22705 -14.04053,-15.22705 -9.49218,0 -14.23828,5.14161 -14.23828,15.4248"
       id="path3136"
       inkscape:connector-curvature="0" />
  </g>
  
tmp/TMP.master:<g
     zpos="-200"
     style="display:none"
     inkscape:label="JJJJ-002"
     id="g3141"
     inkscape:groupmode="layer">
    <path
       style="fill:#ffffff;stroke:#00ff00;stroke-width:1px"
       d="m 253.46004,50.55497 c -3.645,0.81 -6.48,2.025 -9.315,4.86 -3.24,2.83499 -4.455,5.265 -6.075,9.315 -0.405,1.61999 -0.405,9.7201 -0.405,115.83 0,109.34989 0,114.21 -0.405,115.83 -1.62,5.66999 -5.67,10.125 -10.53,12.555 -4.05,2.02499 -2.83502,1.62 -26.73,1.62 l -21.465,0 -2.025,-0.405 c -5.26499,-1.62 -9.72,-5.26501 -12.15,-10.53 -2.025,-4.05 -2.025,-0.81004 -2.025,-37.665 0,-35.63997 0,-33.21001 -1.62,-36.855 -1.215,-3.24 -4.455,-6.88501 -7.695,-9.315 -3.24,-2.025 -8.505,-3.24 -12.15,-2.43 -2.835,0 -5.67,1.215 -7.695,2.43 -2.025,0.81 -6.075,4.86 -6.885,6.885 -1.215,1.61999 -2.025,4.05 -2.43,6.48 -0.405,2.83499 -0.405,63.99 0,68.445 3.24,27.13497 24.30003,48.6 51.435,51.84 4.86,0.405 44.55001,0.405 49.41,0 21.86998,-2.835 40.50001,-17.41502 48.195,-38.07 1.215,-3.645 2.43,-8.50501 3.24,-12.96 0.405,-3.645 0.405,-5.67012 0.405,-118.26 0,-108.94489 -0.405,-114.21 -0.81,-115.425 -0.81,-4.05 -3.645,-8.10001 -6.48,-10.125 -1.62,-1.62 -5.265,-3.24 -7.29,-4.05 -2.025,-0.405 -6.48,-0.405 -8.505,0"
       id="path3152"
       inkscape:connector-curvature="0" />
  </g>
  
tmp/TMP.master:<g
     zpos="-200"
     style="display:none"
     inkscape:label="JJJJ-003"
     id="g3159"
     inkscape:groupmode="layer">
    <path
       style="fill:#ffffff;stroke:#00ff00;stroke-width:1px"
       d="m 282.14854,93.38495 0,182.25 c -1.7e-4,28.89006 -7.83016,51.16503 -23.49,66.825 -14.04013,14.04 -32.13011,21.06 -54.27,21.06 -21.87007,0 -42.25505,-6.615 -61.155,-19.845 -16.74001,-11.60997 -25.11,-24.97496 -25.11,-40.095 0,-7.55993 2.43,-13.90493 7.29,-19.035 4.85999,-5.12992 11.20498,-7.69492 19.035,-7.695 5.66997,8e-5 11.74496,1.48508 18.225,4.455 0.53995,0.27008 6.20995,3.91508 17.01,10.935 7.55993,4.86006 13.49992,7.29006 17.82,7.29 9.98991,6e-5 14.9849,-12.28493 14.985,-36.855 l 0,-169.29 c -1e-4,-11.06972 3.5099,-19.70971 10.53,-25.92 7.01989,-6.2097 15.25488,-9.3147 24.705,-9.315 9.44986,3e-4 17.27985,2.8353 23.49,8.505 7.28984,6.75029 10.93483,15.66028 10.935,26.73"
       id="path3170"
       inkscape:connector-curvature="0" />
  </g>
  
tmp/TMP.master:<g
     zpos="-200"
     style="display:inline"
     inkscape:label="JJJJ-004"
     id="g3239"
     inkscape:groupmode="layer">
    <path
       style="fill:#ffffff;stroke:#00ff00;stroke-width:1px"
       d="m 226.20242,56.0352 47.85644,0 0,201.51123 c -1.9e-4,27.68561 -8.43768,49.70219 -25.3125,66.04981 -16.74331,16.34766 -38.49622,24.52148 -65.25879,24.52148 -28.3448,0 -50.8228,-7.25097 -67.43408,-21.75293 -16.61134,-14.50192 -24.58741,-35.66157 -23.92822,-63.479 l 0.39551,-1.18653 46.47217,0 c -6e-5,16.34773 3.88909,28.47662 11.66748,36.38672 7.91007,7.77836 18.85245,11.66752 32.82714,11.66748 12.5243,4e-5 22.74158,-4.74605 30.65186,-14.23828 8.04185,-9.49213 12.06284,-22.14836 12.06299,-37.96875 l 0,-201.51123"
       id="path3250"
       inkscape:connector-curvature="0" />
  </g>
  
tmp/TMP.master:<g
     zpos="-200"
     style="display:none"
     inkscape:label="JJJJ-006"
     id="g3191"
     inkscape:groupmode="layer">
    <path
       style="fill:#ffffff;stroke:#00ff00;stroke-width:1px"
       d="m 113.08684,296.94504 c 0,32.39997 14.40003,48.6 43.92,48.6 25.55997,0 46.44001,-17.64004 62.64,-53.64 12.23999,-26.99997 23.76001,-64.08005 33.84,-110.16 10.07999,-46.07995 15.48,-75.60001 15.84,-88.56 0,-5.03999 -1.80001,-9.72 -4.68,-14.04 0.72,0 3.6,0 9,0 5.03999,0 9,0 11.88,-0.36 15.83998,0.36 26.64,-4.68001 32.76,-14.76 -31.67997,-5.03999 -59.40003,-7.92 -82.8,-7.92 -21.23998,0 -37.08001,2.52001 -47.16,7.2 -10.07999,5.04 -16.2,12.96001 -17.64,24.12 21.95998,-4.67999 47.52003,-7.56 77.04,-8.28 -5.4,29.87997 -13.32001,66.96005 -23.76,111.6 -10.79999,44.63996 -20.16001,78.84002 -28.08,101.88 -5.04,12.95999 -9.72001,22.32001 -14.4,27.36 -5.04,5.4 -10.44001,7.92 -16.2,7.92 -7.2,0 -12.60001,-2.52 -16.56,-8.28 -3.96,-5.39999 -5.76,-12.96001 -5.76,-22.68 0,-16.19998 4.32001,-35.64002 13.68,-57.96 -6.12,-2.52 -10.80001,-3.6 -14.04,-3.96 -9.35999,0 -16.56001,6.48001 -21.6,19.08 -5.4,12.95999 -7.92,27.00002 -7.92,42.84"
       id="path3202"
       inkscape:connector-curvature="0" />
  </g>
  
tmp/TMP.change:<g
     style="display:inline"
     zpos="-180"
     inkscape:label="UKON-001"
     id="g3155"
     inkscape:groupmode="layer">
    <path
       sodipodi:nodetypes="ccccc"
       inkscape:connector-curvature="0"
       d="m 30.5,369 0,-36 339,0 0,36 z"
       style="fill:#ffffff;stroke:none;display:inline"
       id="path3157" />
    <path
       style="fill:none;stroke:#000000;stroke-width:1px;stroke-linecap:square;display:inline"
       d="m 67,369.5 0,-36"
       id="C-bottom-1-7"
       inkscape:connector-curvature="0"
       sodipodi:nodetypes="cc" />
    <path
       style="fill:none;stroke:#000000;stroke-width:1px;stroke-linecap:square;display:inline"
       d="m 333,369.5 0,-36"
       id="C-bottom-4-5"
       inkscape:connector-curvature="0"
       sodipodi:nodetypes="cc" />
    <path
       style="fill:none;stroke:#000000;stroke-width:1px;stroke-linecap:square;display:inline"
       d="m 369.5,333 -10,0 -319,0 -10,0"
       id="path3159"
       inkscape:connector-curvature="0"
       sodipodi:nodetypes="cccc" />
  </g>

tmp/TMP.master:<g
     zpos="-80"
     style="display:none"
     inkscape:label="JJJJ-005"
     id="g3175"
     inkscape:groupmode="layer">
    <path
       style="fill:#ffffff;stroke:#00ff00;stroke-width:1px"
       d="m 139.01089,105.59004 0,0 71.82,0 -24.36,31.92 0,280.56 64.68,-40.32 0,-296.1 18.9,-34.86 -99.12,0 -31.92,58.8"
       id="path3186"
       inkscape:connector-curvature="0" />
  </g>
  
tmp/TMP.master:<g
     zpos="-80"
     style="display:none"
     inkscape:label="JJJJ-007"
     id="g3207"
     inkscape:groupmode="layer">
    <path
       style="fill:#ffffff;stroke:#00ff00;stroke-width:1px"
       d="m 207.0574,105.64269 58.53515,-39.7461 c 3.07129,-1.9873 4.69727,-4.87793 4.69727,-8.49121 0,-3.07128 -1.08399,-5.78125 -3.07129,-7.94922 -2.16797,-2.16796 -4.69727,-3.43261 -7.76855,-3.43261 l -104.78516,0 c -1.80664,0 -4.15528,0.72265 -7.0459,2.16797 -2.89062,1.44531 -5.78125,3.07129 -8.67187,4.87793 -2.89063,1.80663 -5.78126,3.79394 -8.49121,5.60058 -2.89063,1.9873 -5.0586,3.43262 -6.50391,4.33594 -3.43261,1.9873 -5.05859,4.69727 -5.05859,8.31055 0,3.61327 0.90332,6.32324 2.89062,8.49121 1.80664,2.16796 4.51661,3.25195 8.12988,3.25195 l 62.69043,0 -20.95703,13.91113 0.18067,0 c -1.44531,1.08399 -2.70997,2.16797 -3.61329,3.61328 -0.90331,1.44532 -1.26464,3.0713 -1.26464,4.87793 -0.18067,0.90332 0.72265,4.33595 2.52929,10.47852 1.62598,6.14257 3.79395,13.91114 6.68457,23.30566 2.89063,9.57519 6.14259,20.41505 9.75586,32.33887 3.61328,11.92382 7.40723,24.38966 11.38184,37.03613 3.79394,12.82714 7.58789,25.47365 11.5625,37.93946 3.9746,12.64647 7.40723,24.20899 10.83984,34.6875 3.25195,10.65917 5.96192,19.87305 8.31055,27.46093 2.34863,7.58789 3.97461,12.82716 5.05859,15.71778 l -45.708,29.99023 c -1.08399,-0.54199 -2.89063,-1.44531 -5.0586,-3.07129 -2.34863,-1.44531 -5.05859,-3.07129 -7.94922,-4.87793 -2.89062,-1.80664 -5.96191,-3.61328 -9.21386,-5.60058 -3.25195,-1.80664 -6.32325,-3.61329 -9.03321,-5.23926 -2.89062,-1.44531 -5.41992,-2.70996 -7.58789,-3.79395 -2.16796,-1.08398 -3.79394,-1.62597 -4.69726,-1.62597 -1.08399,0 -2.16797,0.36133 -3.25196,0.72265 -1.08398,0.36133 -1.9873,0.90332 -2.89062,1.44532 l 0.18066,-0.18067 c -1.80664,1.26465 -3.97461,2.5293 -6.14258,3.79395 -2.34863,1.26464 -4.5166,2.70996 -6.5039,4.15527 -2.16797,1.44531 -3.79395,3.25196 -5.23926,5.05859 -1.44531,1.98731 -2.16797,4.15528 -2.16797,6.68458 0,1.9873 0.36133,3.79394 1.44531,5.23925 0.90332,1.44531 2.16797,2.70996 3.79395,3.61328 1.26465,0.90332 3.25196,2.16797 6.14258,3.97461 2.89062,1.80664 5.96191,3.79395 9.39453,5.78125 3.43261,2.34863 7.0459,4.51661 10.83984,6.68457 3.79394,2.34863 7.40723,4.51661 10.83985,6.32325 3.43261,1.80663 6.50391,3.43261 9.21386,4.5166 2.5293,1.26464 4.51661,1.80664 5.78125,1.80664 0.72266,0 3.43263,-1.08399 7.94922,-3.43262 4.33594,-2.34863 9.75587,-5.41992 16.0791,-9.0332 6.32324,-3.61328 13.18849,-7.76856 20.59571,-12.10449 7.22655,-4.33594 14.27246,-8.49122 20.77636,-12.46582 6.5039,-3.97461 12.28517,-7.40723 17.34375,-10.47852 5.05859,-2.89062 8.31055,-4.87793 10.11719,-5.96191 1.62598,-0.90332 2.89063,-1.98731 4.15527,-3.43262 1.08399,-1.26465 1.62598,-2.89063 1.62598,-5.0586 0,-0.36132 -0.72266,-2.70996 -1.80664,-6.86523 -1.08398,-4.15527 -2.70996,-9.5752 -4.69726,-16.44043 -1.98731,-6.68456 -4.33594,-14.45313 -6.86524,-23.30566 -2.70996,-8.85253 -5.60059,-18.24708 -8.49121,-28.36426 -3.07129,-9.93651 -6.32325,-20.23439 -9.39453,-30.89356 -3.25195,-10.65916 -6.50391,-21.1377 -9.5752,-31.43554 -3.25195,-10.11718 -6.14258,-20.05372 -9.0332,-29.44824 -2.89062,-9.39453 -5.60059,-17.88575 -7.94922,-25.47364 -2.34863,-7.58788 -4.33594,-13.91114 -5.78125,-19.15039 -1.62597,-5.23925 -2.70996,-8.85254 -3.25195,-10.83984"
       id="path3218"
       inkscape:connector-curvature="0" />
  </g>
  
tmp/TMP.master:<g
     zpos="-80"
     style="display:none"
     inkscape:label="JJJJ-008"
     id="g3223"
     inkscape:groupmode="layer">
    <path
       style="fill:#ffffff;stroke:#00ff00;stroke-width:1px"
       d="m 243.47089,73.561812 c 3.69093,-1.476374 9.96553,-2.583659 18.45467,-2.952747 l 0,-7.566423 c -14.02553,0.738187 -33.95662,1.107285 -59.42404,1.107285 -26.02106,0 -45.21396,-0.369098 -57.39403,-1.107285 l 0,7.566423 c 8.30459,0.369088 14.39465,1.476373 18.27013,2.952747 3.69092,1.660918 6.27458,4.613665 7.75096,8.858242 1.47637,4.429112 2.21456,11.257357 2.21456,20.669236 l 0,172.73572 c 0,19.93101 -0.18455,34.87933 -0.36909,44.84484 -0.3691,9.96552 -0.92274,18.63923 -2.03002,25.83654 -1.10727,7.38187 -2.58366,14.2101 -4.79822,20.48469 -2.95274,8.12004 -7.75096,14.76374 -14.39464,19.7465 -6.64367,4.98275 -14.5792,7.38187 -23.80652,7.38187 -6.45913,0 -11.07281,-0.92274 -13.65646,-2.76821 6.27458,-1.84546 11.07281,-5.1673 14.39465,-9.59643 3.32183,-4.42911 4.98275,-9.41188 4.98275,-15.13282 0,-7.9355 -2.58366,-14.02556 -7.75096,-18.45467 -5.1673,-4.24458 -12.18008,-6.45914 -20.85377,-6.45914 -9.227333,0 -16.424667,2.39912 -21.961064,7.01277 -5.536396,4.79821 -8.304599,10.88827 -8.304599,18.45467 0,12.18008 6.090048,21.40743 18.639215,27.49747 9.227328,4.79821 21.961068,7.01277 38.016618,7.01277 16.60919,0 31.37296,-2.58366 44.66031,-7.93551 13.28735,-5.35184 24.17563,-12.73373 32.84931,-21.96105 8.48914,-9.22733 14.5792,-19.93107 18.08558,-31.74204 2.58365,-9.22733 4.42912,-20.30015 5.16731,-33.21841 0.73819,-12.91826 1.29183,-28.05111 1.29183,-45.58304 l 0,-19.7465 0,-138.41002 c 0,-9.411879 0.55364,-16.240124 2.03,-20.669236 1.47638,-4.244577 4.06004,-7.197324 7.93552,-8.858242"
       id="path3234"
       inkscape:connector-curvature="0" />
  </g>
  
</svg>
