<?xml version="1.0" encoding="UTF-8" standalone="no"?>
<!-- Created with Inkscape (http://www.inkscape.org/) -->

<svg
   xmlns:dc="http://purl.org/dc/elements/1.1/"
   xmlns:cc="http://creativecommons.org/ns#"
   xmlns:rdf="http://www.w3.org/1999/02/22-rdf-syntax-ns#"
   xmlns:svg="http://www.w3.org/2000/svg"
   xmlns="http://www.w3.org/2000/svg"
   xmlns:sodipodi="http://sodipodi.sourceforge.net/DTD/sodipodi-0.dtd"
   xmlns:inkscape="http://www.inkscape.org/namespaces/inkscape"
   style="display:inline"
   sodipodi:docname="181212_WWWW-MR+_00_UB_00_UB_.svg"
   inkscape:version="0.48.3.1 r9886"
   version="1.1"
   id="svg2902"
   height="400"
   width="400"><sodipodi:namedview
   id="base"
   pagecolor="#f0f0f0"
   bordercolor="#666666"
   borderopacity="1.0"
   inkscape:pageopacity="1"
   inkscape:pageshadow="2"
   inkscape:zoom="1.1867911"
   inkscape:cx="164.3459"
   inkscape:cy="187.81217"
   inkscape:document-units="px"
   inkscape:current-layer="g3303"
   showgrid="false"
   inkscape:window-width="1018"
   inkscape:window-height="709"
   inkscape:window-x="0"
   inkscape:window-y="1"
   inkscape:window-maximized="0"
   showguides="true"
   inkscape:guide-bbox="true"
   inkscape:snap-bbox="true"
   inkscape:snap-global="false" />
<defs
   id="defs2904">
  <clipPath
     clipPathUnits="userSpaceOnUse"
     id="clipPath5174">
    <path
       id="path5176"
       style="opacity:0.5;fill:#00ff00;stroke:#00ff00;stroke-width:1px;stroke-linecap:square;display:inline"
       d="m 436.26971,600.11436 -232.09481,134 -169.500003,-293.58262 232.094813,-134 z"
       inkscape:connector-curvature="0"
       sodipodi:nodetypes="ccccc" />
  </clipPath>
  <clipPath
     clipPathUnits="userSpaceOnUse"
     id="clipPath5174-5">
    <path
       id="path5176-9"
       style="opacity:0.5;fill:#00ff00;stroke:#00ff00;stroke-width:1px;stroke-linecap:square;display:inline"
       d="m 436.26971,600.11436 -232.09481,134 -169.500003,-293.58262 232.094813,-134 z"
       inkscape:connector-curvature="0"
       sodipodi:nodetypes="ccccc" />
  </clipPath>
  <clipPath
     clipPathUnits="userSpaceOnUse"
     id="clipPath3238">
    <path
       sodipodi:nodetypes="ccccc"
       inkscape:connector-curvature="0"
       d="m 461.26971,643.41563 -232.09481,134 -169.500002,-293.58262 232.094812,-134 z"
       style="opacity:0.5;fill:#00ff00;stroke:#00ff00;stroke-width:1px;stroke-linecap:square;display:inline"
       id="path3240" />
  </clipPath>
  <clipPath
     clipPathUnits="userSpaceOnUse"
     id="clipPath3277">
    <path
       sodipodi:nodetypes="ccccc"
       inkscape:connector-curvature="0"
       d="m 399.5,67 0,265 -409,0 0,-265 z"
       style="opacity:0.5;fill:#00ff00;stroke:none;display:inline"
       id="path3279" />
  </clipPath>
</defs>
<metadata
   id="metadata2907">
  <rdf:RDF>
    <cc:Work
       rdf:about="">
      <dc:format>image/svg+xml</dc:format>
      <dc:type
         rdf:resource="http://purl.org/dc/dcmitype/StillImage" />
      <dc:title />
    </cc:Work>
  </rdf:RDF>
</metadata>

  
tmp/TMP.change:<g
   inkscape:groupmode="layer"
   id="bg"
   inkscape:label="XX_BG"
   sodipodi:insensitive="true">
  <path
     style="fill:#f6ffd5"
     d="M 400,0 400,400 0,400 0,0 z"
     id="bgrect"
     inkscape:connector-curvature="0" />
</g>

  
tmp/TMP.change:<g
   inkscape:label="XX_Referenz"
   inkscape:groupmode="layer"
   id="XX_referenz"
   style="display:inline"
   sodipodi:insensitive="true">
  <path
     id="innerframe"
     style="fill:none;stroke:#ff0000;stroke-width:1"
     d="m 40.5,40.5 319,0 0,319 -319,0 0,-319 z"
     inkscape:label="#innerframe"
     sodipodi:insensitive="true"
     inkscape:connector-curvature="0" />
  <path
     id="outerframe"
     style="fill:none;stroke:#ff0000;stroke-width:1"
     d="m 30.5,30.5 339,0 0,339 -339,0 0,-339 z"
     inkscape:label="#outerframe"
     sodipodi:nodetypes="ccccc"
     sodipodi:insensitive="true"
     inkscape:connector-curvature="0" />
  <path
     style="opacity:0.5;fill:none;stroke:#ffc200;stroke-width:1px;stroke-linecap:square"
     d="m 189,30.5 0,10"
     id="ref-S-top-1"
     sodipodi:insensitive="true"
     inkscape:connector-curvature="0" />
  <path
     style="opacity:0.5;fill:none;stroke:#ffc200;stroke-width:1px;stroke-linecap:square"
     d="m 191,30.5 0,10"
     id="ref-S-top-2"
     sodipodi:insensitive="true"
     inkscape:connector-curvature="0" />
  <path
     style="opacity:0.5;fill:none;stroke:#ffc200;stroke-width:1px;stroke-linecap:square"
     d="m 209,30.5 0,10"
     id="ref-S-top-3"
     sodipodi:insensitive="true"
     inkscape:connector-curvature="0" />
  <path
     style="opacity:0.5;fill:none;stroke:#ffc200;stroke-width:1px;stroke-linecap:square"
     d="m 211,30.5 0,10"
     id="ref-S-top-4"
     sodipodi:insensitive="true"
     inkscape:connector-curvature="0" />
  <path
     style="opacity:0.5;fill:none;stroke:#00ff00;stroke-width:1px;stroke-linecap:square"
     d="m 199,30.5 0,10"
     id="ref-I-top-1"
     sodipodi:insensitive="true"
     inkscape:connector-curvature="0" />
  <path
     style="opacity:0.5;fill:none;stroke:#00ff00;stroke-width:1px;stroke-linecap:square"
     d="m 201,30.5 0,10"
     id="ref-I-top-2"
     sodipodi:insensitive="true"
     inkscape:connector-curvature="0" />
  <path
     style="opacity:0.5;fill:none;stroke:#00ffcc;stroke-width:1px;stroke-linecap:square"
     d="m 66,30.5 0,10"
     id="ref-C-top-1"
     sodipodi:insensitive="true"
     inkscape:connector-curvature="0" />
  <path
     style="opacity:0.5;fill:none;stroke:#00ffcc;stroke-width:1px;stroke-linecap:square"
     d="m 68,30.5 0,10"
     id="ref-C-top-2"
     sodipodi:insensitive="true"
     inkscape:connector-curvature="0" />
  <path
     style="opacity:0.5;fill:none;stroke:#00ffcc;stroke-width:1px;stroke-linecap:square"
     d="m 92,30.5 0,10"
     id="ref-C-top-3"
     sodipodi:insensitive="true"
     inkscape:connector-curvature="0" />
  <path
     style="opacity:0.5;fill:none;stroke:#00ffcc;stroke-width:1px;stroke-linecap:square"
     d="m 94,30.5 0,10"
     id="ref-C-top-4"
     sodipodi:insensitive="true"
     inkscape:connector-curvature="0" />
  <path
     style="opacity:0.5;fill:none;stroke:#00ffcc;stroke-width:1px;stroke-linecap:square"
     d="m 306,30.5 0,10"
     id="ref-C-top-5"
     sodipodi:insensitive="true"
     inkscape:connector-curvature="0" />
  <path
     style="opacity:0.5;fill:none;stroke:#00ffcc;stroke-width:1px;stroke-linecap:square"
     d="m 308,30.5 0,10"
     id="ref-C-top-6"
     sodipodi:insensitive="true"
     inkscape:connector-curvature="0" />
  <path
     style="opacity:0.5;fill:none;stroke:#00ffcc;stroke-width:1px;stroke-linecap:square"
     d="m 332,30.5 0,10"
     id="ref-C-top-7"
     sodipodi:insensitive="true"
     inkscape:connector-curvature="0" />
  <path
     style="opacity:0.5;fill:none;stroke:#00ffcc;stroke-width:1px;stroke-linecap:square"
     d="m 334,30.5 0,10"
     id="ref-C-top-8"
     sodipodi:insensitive="true"
     inkscape:connector-curvature="0" />
  <path
     style="opacity:0.5;fill:none;stroke:#ffc200;stroke-width:1px;stroke-linecap:square"
     d="m 369.5,189 -10,0"
     id="ref-S-right-1"
     sodipodi:insensitive="true"
     inkscape:connector-curvature="0" />
  <path
     style="opacity:0.5;fill:none;stroke:#ffc200;stroke-width:1px;stroke-linecap:square"
     d="m 369.5,191 -10,0"
     id="ref-S-right-2"
     sodipodi:insensitive="true"
     inkscape:connector-curvature="0" />
  <path
     style="opacity:0.5;fill:none;stroke:#ffc200;stroke-width:1px;stroke-linecap:square"
     d="m 369.5,209 -10,0"
     id="ref-S-right-3"
     sodipodi:insensitive="true"
     inkscape:connector-curvature="0" />
  <path
     style="opacity:0.5;fill:none;stroke:#ffc200;stroke-width:1px;stroke-linecap:square"
     d="m 369.5,211 -10,0"
     id="ref-S-right-4"
     sodipodi:insensitive="true"
     inkscape:connector-curvature="0" />
  <path
     style="opacity:0.5;fill:none;stroke:#00ff00;stroke-width:1px;stroke-linecap:square"
     d="m 369.5,199 -10,0"
     id="ref-I-right-1"
     sodipodi:insensitive="true"
     inkscape:connector-curvature="0" />
  <path
     style="opacity:0.5;fill:none;stroke:#00ff00;stroke-width:1px;stroke-linecap:square"
     d="m 369.5,201 -10,0"
     id="ref-I-right-2"
     sodipodi:insensitive="true"
     inkscape:connector-curvature="0" />
  <path
     style="opacity:0.5;fill:none;stroke:#00ffcc;stroke-width:1px;stroke-linecap:square"
     d="m 369.5,66 -10,0"
     id="ref-C-right-1"
     sodipodi:insensitive="true"
     inkscape:connector-curvature="0" />
  <path
     style="opacity:0.5;fill:none;stroke:#00ffcc;stroke-width:1px;stroke-linecap:square"
     d="m 369.5,68 -10,0"
     id="ref-C-right-2"
     sodipodi:insensitive="true"
     inkscape:connector-curvature="0" />
  <path
     style="opacity:0.5;fill:none;stroke:#00ffcc;stroke-width:1px;stroke-linecap:square"
     d="m 369.5,92 -10,0"
     id="ref-C-right-3"
     sodipodi:insensitive="true"
     inkscape:connector-curvature="0" />
  <path
     style="opacity:0.5;fill:none;stroke:#00ffcc;stroke-width:1px;stroke-linecap:square"
     d="m 369.5,94 -10,0"
     id="ref-C-right-4"
     sodipodi:insensitive="true"
     inkscape:connector-curvature="0" />
  <path
     style="opacity:0.5;fill:none;stroke:#00ffcc;stroke-width:1px;stroke-linecap:square"
     d="m 369.5,306 -10,0"
     id="ref-C-right-5"
     sodipodi:insensitive="true"
     inkscape:connector-curvature="0" />
  <path
     style="opacity:0.5;fill:none;stroke:#00ffcc;stroke-width:1px;stroke-linecap:square"
     d="m 369.5,308 -10,0"
     id="ref-C-right-6"
     sodipodi:insensitive="true"
     inkscape:connector-curvature="0" />
  <path
     style="opacity:0.5;fill:none;stroke:#00ffcc;stroke-width:1px;stroke-linecap:square"
     d="m 369.5,332 -10,0"
     id="ref-C-right-7"
     sodipodi:insensitive="true"
     inkscape:connector-curvature="0" />
  <path
     style="opacity:0.5;fill:none;stroke:#00ffcc;stroke-width:1px;stroke-linecap:square"
     d="m 369.5,334 -10,0"
     id="ref-C-right-8"
     sodipodi:insensitive="true"
     inkscape:connector-curvature="0" />
  <path
     style="opacity:0.5;fill:none;stroke:#ffc200;stroke-width:1px;stroke-linecap:square"
     d="m 189,369.5 0,-10"
     id="ref-S-bottom-1"
     sodipodi:insensitive="true"
     inkscape:connector-curvature="0" />
  <path
     style="opacity:0.5;fill:none;stroke:#ffc200;stroke-width:1px;stroke-linecap:square"
     d="m 191,369.5 0,-10"
     id="ref-S-bottom-2"
     sodipodi:insensitive="true"
     inkscape:connector-curvature="0" />
  <path
     style="opacity:0.5;fill:none;stroke:#ffc200;stroke-width:1px;stroke-linecap:square"
     d="m 209,369.5 0,-10"
     id="ref-S-bottom-3"
     sodipodi:insensitive="true"
     inkscape:connector-curvature="0" />
  <path
     style="opacity:0.5;fill:none;stroke:#ffc200;stroke-width:1px;stroke-linecap:square"
     d="m 211,369.5 0,-10"
     id="ref-S-bottom-4"
     sodipodi:insensitive="true"
     inkscape:connector-curvature="0" />
  <path
     style="opacity:0.5;fill:none;stroke:#00ff00;stroke-width:1px;stroke-linecap:square"
     d="m 199,369.5 0,-10"
     id="ref-I-bottom-1"
     sodipodi:insensitive="true"
     inkscape:connector-curvature="0" />
  <path
     style="opacity:0.5;fill:none;stroke:#00ff00;stroke-width:1px;stroke-linecap:square"
     d="m 201,369.5 0,-10"
     id="ref-I-bottom-2"
     sodipodi:insensitive="true"
     inkscape:connector-curvature="0" />
  <path
     style="opacity:0.5;fill:none;stroke:#00ffcc;stroke-width:1px;stroke-linecap:square"
     d="m 66,369.5 0,-10"
     id="ref-C-bottom-1"
     sodipodi:insensitive="true"
     inkscape:connector-curvature="0" />
  <path
     style="opacity:0.5;fill:none;stroke:#00ffcc;stroke-width:1px;stroke-linecap:square"
     d="m 68,369.5 0,-10"
     id="ref-C-bottom-2"
     sodipodi:insensitive="true"
     inkscape:connector-curvature="0" />
  <path
     style="opacity:0.5;fill:none;stroke:#00ffcc;stroke-width:1px;stroke-linecap:square"
     d="m 92,369.5 0,-10"
     id="ref-C-bottom-3"
     sodipodi:insensitive="true"
     inkscape:connector-curvature="0" />
  <path
     style="opacity:0.5;fill:none;stroke:#00ffcc;stroke-width:1px;stroke-linecap:square"
     d="m 94,369.5 0,-10"
     id="ref-C-bottom-4"
     sodipodi:insensitive="true"
     inkscape:connector-curvature="0" />
  <path
     style="opacity:0.5;fill:none;stroke:#00ffcc;stroke-width:1px;stroke-linecap:square"
     d="m 306,369.5 0,-10"
     id="ref-C-bottom-5"
     sodipodi:insensitive="true"
     inkscape:connector-curvature="0" />
  <path
     style="opacity:0.5;fill:none;stroke:#00ffcc;stroke-width:1px;stroke-linecap:square"
     d="m 308,369.5 0,-10"
     id="ref-C-bottom-6"
     sodipodi:insensitive="true"
     inkscape:connector-curvature="0" />
  <path
     style="opacity:0.5;fill:none;stroke:#00ffcc;stroke-width:1px;stroke-linecap:square"
     d="m 332,369.5 0,-10"
     id="ref-C-bottom-7"
     sodipodi:insensitive="true"
     inkscape:connector-curvature="0" />
  <path
     style="opacity:0.5;fill:none;stroke:#00ffcc;stroke-width:1px;stroke-linecap:square"
     d="m 334,369.5 0,-10"
     id="ref-C-bottom-8"
     sodipodi:insensitive="true"
     inkscape:connector-curvature="0" />
  <path
     style="opacity:0.5;fill:none;stroke:#ffc200;stroke-width:1px;stroke-linecap:square"
     d="m 30.5,189 10,0"
     id="ref-S-left-1"
     sodipodi:insensitive="true"
     inkscape:connector-curvature="0" />
  <path
     style="opacity:0.5;fill:none;stroke:#ffc200;stroke-width:1px;stroke-linecap:square"
     d="m 30.5,191 10,0"
     id="ref-S-left-2"
     sodipodi:insensitive="true"
     inkscape:connector-curvature="0" />
  <path
     style="opacity:0.5;fill:none;stroke:#ffc200;stroke-width:1px;stroke-linecap:square"
     d="m 30.5,209 10,0"
     id="ref-S-left-3"
     sodipodi:insensitive="true"
     inkscape:connector-curvature="0" />
  <path
     style="opacity:0.5;fill:none;stroke:#ffc200;stroke-width:1px;stroke-linecap:square"
     d="m 30.5,211 10,0"
     id="ref-S-left-4"
     sodipodi:insensitive="true"
     inkscape:connector-curvature="0" />
  <path
     style="opacity:0.5;fill:none;stroke:#00ff00;stroke-width:1px;stroke-linecap:square"
     d="m 40.5,199 -10,0"
     id="ref-I-left-1"
     sodipodi:insensitive="true"
     inkscape:connector-curvature="0" />
  <path
     style="opacity:0.5;fill:none;stroke:#00ff00;stroke-width:1px;stroke-linecap:square"
     d="m 40.5,201 -10,0"
     id="ref-I-left-2"
     sodipodi:insensitive="true"
     inkscape:connector-curvature="0" />
  <path
     style="opacity:0.5;fill:none;stroke:#00ffcc;stroke-width:1px;stroke-linecap:square"
     d="m 30.5,66 10,0"
     id="ref-C-left-1"
     sodipodi:insensitive="true"
     inkscape:connector-curvature="0" />
  <path
     style="opacity:0.5;fill:none;stroke:#00ffcc;stroke-width:1px;stroke-linecap:square"
     d="m 30.5,68 10,0"
     id="ref-C-left-2"
     sodipodi:insensitive="true"
     inkscape:connector-curvature="0" />
  <path
     style="opacity:0.5;fill:none;stroke:#00ffcc;stroke-width:1px;stroke-linecap:square"
     d="m 30.5,92 10,0"
     id="ref-C-left-3"
     sodipodi:insensitive="true"
     inkscape:connector-curvature="0" />
  <path
     style="opacity:0.5;fill:none;stroke:#00ffcc;stroke-width:1px;stroke-linecap:square"
     d="m 30.5,94 10,0"
     id="ref-C-left-4"
     sodipodi:insensitive="true"
     inkscape:connector-curvature="0" />
  <path
     style="opacity:0.5;fill:none;stroke:#00ffcc;stroke-width:1px;stroke-linecap:square"
     d="m 30.5,306 10,0"
     id="ref-C-left-5"
     sodipodi:insensitive="true"
     inkscape:connector-curvature="0" />
  <path
     style="opacity:0.5;fill:none;stroke:#00ffcc;stroke-width:1px;stroke-linecap:square"
     d="m 30.5,308 10,0"
     id="ref-C-left-6"
     sodipodi:insensitive="true"
     inkscape:connector-curvature="0" />
  <path
     style="opacity:0.5;fill:none;stroke:#00ffcc;stroke-width:1px;stroke-linecap:square"
     d="m 30.5,332 10,0"
     id="ref-C-left-7"
     sodipodi:insensitive="true"
     inkscape:connector-curvature="0" />
  <path
     style="opacity:0.5;fill:none;stroke:#00ffcc;stroke-width:1px;stroke-linecap:square"
     d="m 30.5,334 10,0"
     id="ref-C-left-8"
     sodipodi:insensitive="true"
     inkscape:connector-curvature="0" />
  <path
     style="fill:none;stroke:#000000;stroke-width:1px;stroke-linecap:square"
     d="m 190,30.5 0,10"
     id="S-top-1"
     inkscape:connector-curvature="0" />
  <path
     style="fill:none;stroke:#000000;stroke-width:1px;stroke-linecap:square"
     d="m 210,30.5 0,10"
     id="S-top-2"
     inkscape:connector-curvature="0" />
  <path
     style="fill:none;stroke:#000000;stroke-width:1px;stroke-linecap:square"
     d="m 369.5,190 -10,0"
     id="S-right-1"
     inkscape:connector-curvature="0" />
  <path
     style="fill:none;stroke:#000000;stroke-width:1px;stroke-linecap:square"
     d="m 369.5,210 -10,0"
     id="S-right-2"
     inkscape:connector-curvature="0" />
  <path
     style="fill:none;stroke:#000000;stroke-width:1px;stroke-linecap:square"
     d="m 190,369.5 0,-10"
     id="S-bottom-1"
     inkscape:connector-curvature="0" />
  <path
     style="fill:none;stroke:#000000;stroke-width:1px;stroke-linecap:square"
     d="m 210,369.5 0,-10"
     id="S-bottom-2"
     inkscape:connector-curvature="0" />
  <path
     style="fill:none;stroke:#000000;stroke-width:1px;stroke-linecap:square"
     d="m 30.5,190 10,0"
     id="S-left-1"
     inkscape:connector-curvature="0" />
  <path
     style="fill:none;stroke:#000000;stroke-width:1px;stroke-linecap:square"
     d="m 30.5,210 10,0"
     id="S-left-2"
     inkscape:connector-curvature="0" />
  <path
     style="fill:none;stroke:#000000;stroke-width:1px;stroke-linecap:square"
     d="m 200,30.5 0,10"
     id="I-top-1"
     inkscape:connector-curvature="0" />
  <path
     style="fill:none;stroke:#000000;stroke-width:1px;stroke-linecap:square"
     d="m 369.5,200 -10,0"
     id="I-right-1"
     inkscape:connector-curvature="0" />
  <path
     style="fill:none;stroke:#000000;stroke-width:1px;stroke-linecap:square"
     d="m 200,369.5 0,-10"
     id="I-bottom-1"
     inkscape:connector-curvature="0" />
  <path
     style="fill:none;stroke:#000000;stroke-width:1px;stroke-linecap:square"
     d="m 40.5,200 -10,0"
     id="I-left-1"
     inkscape:connector-curvature="0" />
  <path
     style="fill:none;stroke:#000000;stroke-width:1px;stroke-linecap:square"
     d="m 67,30.5 0,10"
     id="C-top-1"
     inkscape:connector-curvature="0" />
  <path
     style="fill:none;stroke:#000000;stroke-width:1px;stroke-linecap:square"
     d="m 93,30.5 0,10"
     id="C-top-2"
     inkscape:connector-curvature="0" />
  <path
     style="fill:none;stroke:#000000;stroke-width:1px;stroke-linecap:square"
     d="m 307,30.5 0,10"
     id="C-top-3"
     inkscape:connector-curvature="0" />
  <path
     style="fill:none;stroke:#000000;stroke-width:1px;stroke-linecap:square"
     d="m 333,30.5 0,10"
     id="C-top-4"
     inkscape:connector-curvature="0" />
  <path
     style="fill:none;stroke:#000000;stroke-width:1px;stroke-linecap:square"
     d="m 369.5,67 -10,0"
     id="C-right-1"
     inkscape:connector-curvature="0" />
  <path
     style="fill:none;stroke:#000000;stroke-width:1px;stroke-linecap:square"
     d="m 369.5,93 -10,0"
     id="C-right-2"
     inkscape:connector-curvature="0" />
  <path
     style="fill:none;stroke:#000000;stroke-width:1px;stroke-linecap:square"
     d="m 369.5,307 -10,0"
     id="C-right-3"
     inkscape:connector-curvature="0" />
  <path
     style="fill:none;stroke:#000000;stroke-width:1px;stroke-linecap:square"
     d="m 369.5,333 -10,0"
     id="C-right-4"
     inkscape:connector-curvature="0" />
  <path
     style="fill:none;stroke:#000000;stroke-width:1px;stroke-linecap:square"
     d="m 67,369.5 0,-10"
     id="C-bottom-1"
     inkscape:connector-curvature="0" />
  <path
     style="fill:none;stroke:#000000;stroke-width:1px;stroke-linecap:square"
     d="m 93,369.5 0,-10"
     id="C-bottom-2"
     inkscape:connector-curvature="0" />
  <path
     style="fill:none;stroke:#000000;stroke-width:1px;stroke-linecap:square"
     d="m 307,369.5 0,-10"
     id="C-bottom-3"
     inkscape:connector-curvature="0" />
  <path
     style="fill:none;stroke:#000000;stroke-width:1px;stroke-linecap:square"
     d="m 333,369.5 0,-10"
     id="C-bottom-4"
     inkscape:connector-curvature="0" />
  <path
     style="fill:none;stroke:#000000;stroke-width:1px;stroke-linecap:square"
     d="m 30.5,67 10,0"
     id="C-left-1"
     inkscape:connector-curvature="0" />
  <path
     style="fill:none;stroke:#000000;stroke-width:1px;stroke-linecap:square"
     d="m 30.5,93 10,0"
     id="C-left-2"
     inkscape:connector-curvature="0" />
  <path
     style="fill:none;stroke:#000000;stroke-width:1px;stroke-linecap:square"
     d="m 30.5,307 10,0"
     id="C-left-3"
     inkscape:connector-curvature="0" />
  <path
     style="fill:none;stroke:#000000;stroke-width:1px;stroke-linecap:square"
     d="m 30.5,333 10,0"
     id="C-left-4"
     inkscape:connector-curvature="0" />
</g>

  
tmp/TMP.change:<g
   inkscape:groupmode="layer"
   id="g3149"
   inkscape:label="OKON-001"
   zpos="-300"
   style="display:inline"
   sodipodi:insensitive="true">
  <path
     style="fill:#000000;stroke:none;display:inline"
     d="m 30.5,67 0,266 339,0 0,-266 z"
     id="path3163"
     inkscape:connector-curvature="0"
     sodipodi:nodetypes="ccccc" />
</g>

  
tmp/TMP.master:<g
   zpos="-200"
   style="display:none"
   inkscape:label="WWWW-001"
   id="g3125"
   inkscape:groupmode="layer"
   sodipodi:insensitive="true">
  <path
     style="fill:#ffff00;stroke:none"
     d="m 63.65625,67 c 0.08944,1.690905 0.240701,3.172263 0.5,4.46875 L 122.53125,333 153.8125,333 197.625,200.59375 241.875,333 272.96875,333 331.125,74.03125 c 0.53717,-2.417284 0.88983,-4.735008 1.0625,-7.03125 l -28.75,0 -48.0625,213.875 -42.3125,-126.34375 c -3.16406,-9.49218 -7.92189,-14.4375 -14.25,-14.4375 -7.51465,0 -12.84619,4.54884 -15.8125,13.25 l -42.71875,126.75 L 92.96875,67 63.65625,67 z"
     id="path3136"
     inkscape:connector-curvature="0" />
  <path
     style="fill:none;stroke:#00ff00;stroke-width:1px;display:inline"
     d="m 63.65625,67 c 0.08944,1.690905 0.240701,3.172263 0.5,4.46875 L 122.53125,333 M 153.8125,333 197.625,200.59375 241.875,333 m 31.09375,0 L 331.125,74.03125 c 0.53717,-2.417284 0.88983,-4.735008 1.0625,-7.03125 m -28.75,0 -48.0625,213.875 -42.3125,-126.34375 c -3.16406,-9.49218 -7.92189,-14.4375 -14.25,-14.4375 -7.51465,0 -12.84619,4.54884 -15.8125,13.25 l -42.71875,126.75 L 92.96875,67"
     id="path3136-6"
     inkscape:connector-curvature="0"
     sodipodi:nodetypes="ccccccccccccsccc" />
</g>

  
tmp/TMP.master:<g
   zpos="-200"
   style="display:none"
   inkscape:label="WWWW-002"
   id="g3141"
   inkscape:groupmode="layer"
   sodipodi:insensitive="true">
  <path
     style="fill:#ffff00;stroke:none"
     d="m 105.34375,67 c -1.21049,30.82489 -0.97128,239.81613 -0.9375,266 l 191.1875,0 -0.40625,-266 -36.90625,0 -1.1875,225.34375 -5.65625,9.3125 -5.28125,9.3125 -8.09375,0 -7.6875,0 -5.65625,-9.3125 -5.28125,-9.3125 -2.03125,-133.65625 c -2.025,-4.05 -4.85625,-6.88126 -8.90625,-8.90625 -3.24,-1.62 -4.855,-1.625 -8.5,-1.625 -2.43,0 -3.63,0.001 -5.25,0.40625 -5.26499,1.61999 -9.72625,5.265 -12.15625,10.125 l -2.03125,134.0625 -5.28125,8.90625 -5.25,9.3125 -8.09375,0 -8.09375,-0.40625 -5.28125,-8.90625 -5.25,-9.3125 L 142.90625,67 l -37.5625,0 z"
     id="path3152"
     inkscape:connector-curvature="0" />
  <path
     style="fill:none;stroke:#00ff00;stroke-width:1px;display:inline"
     d="m 105.34375,67 -0.9375,266 m 191.1875,0 -0.40625,-266 m -36.90625,0 -1.1875,225.34375 -5.65625,9.3125 -5.28125,9.3125 -8.09375,0 -7.6875,0 -5.65625,-9.3125 -5.28125,-9.3125 -2.03125,-133.65625 c -2.025,-4.05 -4.85625,-6.88126 -8.90625,-8.90625 -3.24,-1.62 -4.855,-1.625 -8.5,-1.625 -2.43,0 -3.63,0.001 -5.25,0.40625 -5.26499,1.61999 -9.72625,5.265 -12.15625,10.125 l -2.03125,134.0625 -5.28125,8.90625 -5.25,9.3125 -8.09375,0 -8.09375,-0.40625 -5.28125,-8.90625 -5.25,-9.3125 L 142.90625,67"
     id="path3152-5"
     inkscape:connector-curvature="0"
     sodipodi:nodetypes="cccccccccccccsscccccccccc" />
</g>

  
tmp/TMP.master:<g
   zpos="-200"
   style="display:none"
   inkscape:label="WWWW-003"
   id="g3157"
   inkscape:groupmode="layer"
   sodipodi:insensitive="true">
  <path
     style="fill:#ffff00;stroke:none"
     clip-path="none"
     d="m 46.774775,67 c -5.35082,6.056858 -8.006084,13.234439 -8.006084,21.53125 0,2.43027 0.203489,4.85152 0.64994,7.28125 l 49.572725,227.625 c 0.6876,3.40998 1.59388,6.58806 2.747476,9.5625 l 67.209738,0 c 1.29142,-2.9591 2.42317,-6.13466 3.36788,-9.5625 l 37.84425,-140.15625 41.50756,146.625 c 0.3006,1.06049 0.63565,2.09276 0.97491,3.09375 l 67.41654,0 c 1.18693,-2.95949 2.16503,-6.13789 2.92473,-9.5625 L 358.53936,96.625 c 0.66935,-2.96973 1.00413,-5.93598 1.00445,-8.90625 C 359.54351,79.182051 357.2341,72.268811 352.60126,67 l -41.80298,0 c -4.50177,5.429779 -7.67443,13.149792 -9.51276,23.15625 L 271.47689,245.25 236.32102,110 C 231.01619,89.812361 224.72663,75.488196 217.47275,67 l -34.47638,0 c -6.81871,8.025441 -12.81489,21.271259 -17.99153,39.75 L 126.83561,245.25 97.026983,90.15625 C 95.120353,80.203676 92.103493,72.480548 87.986903,67 l -41.212128,0 z"
     id="path3168"
     inkscape:connector-curvature="0" />
  <path
     inkscape:connector-curvature="0"
     style="fill:none;stroke:#00ff00;stroke-width:1px;display:inline"
     clip-path="none"
     d="m 158.94857,333 c 1.29142,-2.9591 2.42317,-6.13466 3.36788,-9.5625 l 37.84425,-140.15625 41.50756,146.625 c 0.3006,1.06049 0.63565,2.09276 0.97491,3.09375 m 67.41654,0 c 1.18693,-2.95949 2.16503,-6.13789 2.92473,-9.5625 L 358.53936,96.625 c 0.66935,-2.96973 1.00413,-5.93598 1.00445,-8.90625 C 359.54351,79.182051 357.2341,72.268811 352.60126,67 m -41.80298,0 c -4.50177,5.429779 -7.67443,13.149792 -9.51276,23.15625 L 271.47689,245.25 236.32102,110 C 231.01619,89.812361 224.72663,75.488196 217.47275,67 m -34.47638,0 c -6.81871,8.025441 -12.81489,21.271259 -17.99153,39.75 L 126.83561,245.25 97.026983,90.15625 C 95.120352,80.203676 92.103493,72.480548 87.986903,67 m -41.212129,0 c -5.350819,6.056858 -8.006083,13.234439 -8.006083,21.53125 0,2.43027 0.203488,4.85152 0.64994,7.28125 l 49.572725,227.625 c 0.6876,3.40998 1.59388,6.58806 2.747475,9.5625"
     id="path3168-1"
     sodipodi:nodetypes="cccccccccccccccccccccsccc" />
  <path
     style="fill:none;stroke:#000000;stroke-width:1px;stroke-linecap:square;display:inline"
     d="M 39.714059,67 95.49076,67"
     id="path3129-2"
     inkscape:connector-curvature="0"
     sodipodi:nodetypes="cc" />
  <path
     sodipodi:nodetypes="cc"
     inkscape:connector-curvature="0"
     id="path3313"
     d="m 172.06555,67 55.7767,0"
     style="fill:none;stroke:#000000;stroke-width:1px;stroke-linecap:square;display:inline" />
  <path
     style="fill:none;stroke:#000000;stroke-width:1px;stroke-linecap:square;display:inline"
     d="m 305.36242,67 49.15912,0"
     id="path3315"
     inkscape:connector-curvature="0"
     sodipodi:nodetypes="cc" />
</g>

  
tmp/TMP.master:<g
   inkscape:groupmode="layer"
   id="layer4"
   inkscape:label="WWWW-004"
   style="display:none"
   zpos="-200"
   sodipodi:insensitive="true">
  <path
     style="fill:#ffff00;stroke:none"
     clip-path="none"
     d="M 32.71875,67 95.75,333 145.34375,333 200,139.09375 l 1.1875,0 L 255.625,333 305.03125,333 368.25,67 l -50.28125,0 -40.0625,196.6875 -1.1875,0 L 224.4375,67 l -48.125,0 -51.875,196.46875 -1.1875,0 L 82.8125,67 z"
     id="path3289"
     inkscape:connector-curvature="0"
     sodipodi:nodetypes="ccccccccccccccccc" />
  <path
     sodipodi:nodetypes="cccccccccccccccc"
     inkscape:connector-curvature="0"
     id="path3381"
     d="M 32.71875,67 95.75,333 m 49.59375,0 L 200,139.09375 l 1.1875,0 L 255.625,333 m 49.40625,0 L 368.25,67 m -50.28125,0 -40.0625,196.6875 -1.1875,0 L 224.4375,67 m -48.125,0 -51.875,196.46875 -1.1875,0 L 82.8125,67"
     clip-path="none"
     style="fill:none;stroke:#00ff00" />
  <path
     style="fill:none;stroke:#000000;stroke-width:1px;stroke-linecap:square;display:inline"
     d="m 30.5,67 55,0"
     id="path3129-6"
     inkscape:connector-curvature="0"
     sodipodi:nodetypes="cc" />
  <path
     sodipodi:nodetypes="cc"
     inkscape:connector-curvature="0"
     id="path3401"
     d="m 173.5,67 55,0"
     style="fill:none;stroke:#000000;stroke-width:1px;stroke-linecap:square;display:inline" />
  <path
     style="fill:none;stroke:#000000;stroke-width:1px;stroke-linecap:square;display:inline"
     d="m 314.5,67 55,0"
     id="path3403"
     inkscape:connector-curvature="0"
     sodipodi:nodetypes="cc" />
</g>

  
tmp/TMP.master:<g
   zpos="-200"
   style="display:none"
   inkscape:label="WWWW-006"
   id="g3321"
   inkscape:groupmode="layer"
   sodipodi:insensitive="true">
  <path
     style="fill:#ffff00;stroke:none"
     d="m 66.12825,67 c -3.703128,2.650315 -7.241749,5.727742 -10.624572,9.25 -13.48419,14.03999 -20.048629,28.81752 -20.048629,43.9375 0,8.63999 2.421448,15.83501 7.953423,20.875 5.186222,5.4 13.126459,7.9375 24.190411,7.9375 -3.457488,-6.47999 -5.162221,-15.12126 -5.162221,-26.28125 0,-13.67999 2.765999,-25.91876 8.64372,-36.71875 5.87772,-10.79999 14.178111,-16.21875 24.550565,-16.21875 7.606463,0 13.125243,3.95626 16.236993,11.15625 3.11173,7.55999 4.83207,19.09877 4.83207,34.21875 0,7.19999 -0.34455,14.03501 -0.69029,20.875 -0.6915,7.19999 -1.36379,14.03501 -2.40103,20.875 l -3.12135,18 c -1.03725,5.04 -2.42744,11.53376 -4.50194,19.09375 l -4.50194,17.25 c -1.38298,3.96 -3.086522,10.11001 -5.852513,18.75 -2.76599,8.99999 -4.500737,14.745 -5.192234,17.625 -10.372454,34.55997 -15.216549,56.53001 -15.216549,66.25 -0.345749,6.83999 1.04565,12.60126 3.811641,17.28125 0.332043,0.64207 0.661472,1.25589 1.020439,1.84375 l 61.766576,0 c 11.06028,-8.18668 22.76788,-20.28272 35.0551,-36.40625 -2.42024,7.19999 -3.45149,13.30376 -3.45149,18.34375 0,7.037 1.55831,13.06032 4.83208,18.0625 l 61.16633,0 c 5.46779,-3.74804 11.11127,-8.31519 16.95729,-13.75 19.36191,-17.63998 36.64939,-38.87877 51.86232,-63.71875 14.86718,-24.47997 28.01406,-50.74878 38.38652,-78.46875 10.37246,-27.35997 15.90685,-50.38877 15.90685,-69.46875 0,-13.67999 -2.76721,-24.48626 -7.95343,-32.40625 -2.47234,-3.603956 -5.01977,-6.302733 -7.6833,-8.1875 l -20.52884,0 c -5.19875,3.256341 -10.10836,8.865915 -14.6463,16.8125 15.55868,5.76 23.15437,19.08877 23.50011,39.96875 0,17.99998 -4.48634,38.89503 -13.47579,63.375 -8.98946,24.47998 -19.72691,46.77627 -32.17386,67.65625 -12.44695,20.87998 -25.93716,38.53752 -39.76711,52.9375 -13.82994,14.75999 -25.56982,21.96875 -34.90502,21.96875 -3.45749,0 -5.88013,-0.74625 -7.26313,-2.90625 -1.383,-2.16 -1.74075,-5.74125 -1.74075,-10.78125 0,-17.27998 8.29919,-46.08504 25.24086,-87.125 8.29797,-20.51998 12.81553,-33.1325 12.81553,-37.8125 0,-5.03999 -2.76721,-9.71 -7.95343,-14.75 -5.18623,-4.67999 -11.76627,-7.1875 -19.71849,-7.1875 -2.42024,16.55998 -9.34483,37.42503 -20.40878,62.625 -11.4097,25.19998 -24.88433,47.52752 -40.09726,67.6875 -15.55867,20.15998 -29.04771,30.25 -40.45741,30.25 -3.11173,0 -5.17543,-0.73125 -6.21267,-2.53125 -1.03725,-1.8 -1.38059,-5.03875 -1.38059,-9.71875 0,-6.47999 0.67228,-14.03251 2.40102,-22.3125 1.383,-7.91999 3.13336,-14.77125 4.8621,-20.53125 1.38299,-5.75999 3.79124,-12.95376 6.90297,-21.59375 2.76599,-8.63999 4.84528,-14.775 5.88253,-18.375 14.86718,-49.31995 22.47968,-86.03627 22.47968,-110.15625 0,-21.95998 -4.1574,-38.88501 -12.45536,-51.125 -1.65692,-2.372168 -3.47681,-4.485121 -5.43235,-6.375 l -66.2385,0 z"
     id="path3332"
     inkscape:connector-curvature="0" />
  <path
     style="fill:none;stroke:#00ff00;stroke-width:0.99999988px;display:inline"
     d="m 66.12825,67 c -3.703129,2.650315 -7.24175,5.727742 -10.624573,9.25 -13.48419,14.03999 -20.048628,28.81752 -20.048628,43.9375 0,8.63999 2.421448,15.83501 7.953423,20.875 5.186222,5.4 13.126458,7.9375 24.190411,7.9375 -3.457488,-6.47999 -5.162222,-15.12126 -5.162222,-26.28125 0,-13.67999 2.766,-25.91876 8.64372,-36.71875 5.87772,-10.79999 14.178112,-16.21875 24.550566,-16.21875 7.606463,0 13.125243,3.95626 16.236993,11.15625 3.11173,7.55999 4.83207,19.09877 4.83207,34.21875 0,7.19999 -0.34455,14.03501 -0.69029,20.875 -0.6915,7.19999 -1.36379,14.03501 -2.40103,20.875 l -3.12135,18 c -1.03725,5.04 -2.42744,11.53376 -4.50194,19.09375 l -4.50194,17.25 c -1.38298,3.96 -3.086523,10.11001 -5.852513,18.75 -2.765991,8.99999 -4.500737,14.745 -5.192234,17.625 -10.372455,34.55997 -15.21655,56.53001 -15.21655,66.25 -0.345748,6.83999 1.045651,12.60126 3.811641,17.28125 0.332044,0.64207 0.661472,1.25589 1.020439,1.84375 m 61.766577,0 c 11.06028,-8.18668 22.76788,-20.28272 35.0551,-36.40625 -2.42024,7.19999 -3.4515,13.30376 -3.4515,18.34375 0,7.037 1.55832,13.06032 4.83209,18.0625 m 61.16633,0 c 5.46779,-3.74804 11.11126,-8.31519 16.95729,-13.75 19.36191,-17.63998 36.64939,-38.87877 51.86232,-63.71875 14.86718,-24.47997 28.01406,-50.74878 38.38652,-78.46875 10.37246,-27.35997 15.90685,-50.38877 15.90685,-69.46875 0,-13.67999 -2.76721,-24.48626 -7.95343,-32.40625 -2.47234,-3.603956 -5.01977,-6.302733 -7.6833,-8.1875 m -20.52884,0 c -5.19875,3.256341 -10.10836,8.865915 -14.64631,16.8125 15.55869,5.76 23.15438,19.08877 23.50012,39.96875 0,17.99998 -4.48634,38.89503 -13.47579,63.375 -8.98947,24.47998 -19.72691,46.77627 -32.17386,67.65625 -12.44695,20.87998 -25.93716,38.53752 -39.76711,52.9375 -13.82994,14.75999 -25.56982,21.96875 -34.90502,21.96875 -3.45749,0 -5.88013,-0.74625 -7.26313,-2.90625 -1.383,-2.16 -1.74075,-5.74125 -1.74075,-10.78125 0,-17.27998 8.29919,-46.08504 25.24086,-87.125 8.29797,-20.51998 12.81553,-33.1325 12.81553,-37.8125 0,-5.03999 -2.76721,-9.71 -7.95343,-14.75 -5.18623,-4.67999 -11.76627,-7.1875 -19.71849,-7.1875 -2.42024,16.55998 -9.34483,37.42503 -20.40878,62.625 -11.4097,25.19998 -24.88433,47.52752 -40.09726,67.6875 -15.55867,20.15998 -29.04771,30.25 -40.45741,30.25 -3.11173,0 -5.17543,-0.73125 -6.21267,-2.53125 -1.03725,-1.8 -1.38059,-5.03875 -1.38059,-9.71875 0,-6.47999 0.67228,-14.03251 2.40102,-22.3125 1.383,-7.91999 3.13336,-14.77125 4.8621,-20.53125 1.38299,-5.75999 3.79123,-12.95376 6.90297,-21.59375 2.76599,-8.63999 4.84528,-14.775 5.88253,-18.375 14.86718,-49.31995 22.47968,-86.03627 22.47968,-110.15625 0,-21.95998 -4.1574,-38.88501 -12.45536,-51.125 -1.65692,-2.372168 -3.47681,-4.485121 -5.43235,-6.375"
     id="path3332-6"
     inkscape:connector-curvature="0"
     sodipodi:nodetypes="cssccssscsccccccccccccscccccscccccsscssscsccccsssccccscc" />
</g>

  
tmp/TMP.master:<g
   zpos="-200"
   style="display:none"
   inkscape:label="WWWW-007"
   id="g3337"
   inkscape:groupmode="layer"
   sodipodi:insensitive="true">
  <path
     style="fill:#ffff00;stroke:none"
     d="m 47.620472,67 c -1.816727,1.419308 -3.52878,2.828313 -5.096596,4.09375 -1.953458,1.62597 -3.24697,2.71485 -4.223699,3.4375 -1.465094,1.08399 -2.621333,2.34278 -3.435274,3.96875 -0.813941,1.62598 -1.12632,3.44336 -1.12632,5.25 0,2.34863 0.318537,4.14844 1.295267,5.59375 0.97673,1.44531 2.264081,2.69727 4.054751,3.78125 l 18.556117,11.21875 0,200.71875 c 0,4.15527 1.490612,7.23145 4.420805,9.21875 L 88.16798,333 l 66.7626,0 41.25146,-25.59375 c 0.32557,0.90332 0.67226,1.97852 1.32342,3.0625 0.48836,1.26465 1.12897,2.17676 1.94291,2.71875 L 226.93056,333 l 67.15682,0 64.39732,-39.15625 c 3.41856,-2.16797 5.04645,-5.41407 5.20923,-9.75 l 0,-174.15625 c 0,-3.79394 -1.63141,-6.87012 -4.5616,-9.21875 L 312.64349,67 289.07525,67 230.87268,102.90625 181.14567,67 l -23.68087,0 -64.819699,39.6875 0,-13.90625 c 0,-3.61327 -0.153107,-6.51953 -0.478686,-8.6875 -0.488363,-2.16797 -1.135114,-3.96094 -2.11185,-5.40625 -0.976726,-1.44531 -2.608132,-2.71094 -4.561594,-4.15625 -2.116246,-1.44531 -4.881893,-3.06836 -8.137659,-4.875 C 75.901149,68.887756 74.275572,67.992247 72.540295,67 L 47.620472,67 z M 154.19847,93.5 c 6.02316,4.5166 12.03843,8.85156 18.38717,13.1875 6.18595,4.33593 12.21705,8.86524 18.07743,13.5625 1.79067,1.80664 3.24697,3.59961 4.2237,5.40625 0.97672,1.80664 1.30142,4.16504 1.46421,6.875 l -0.16894,149.75 -61.04653,38.5 c -6.18595,-4.33593 -12.37017,-8.50781 -18.55612,-12.84375 -6.18596,-4.33593 -12.0481,-8.83399 -17.908479,-13.53125 -1.953462,-1.44531 -3.41592,-3.2627 -4.392647,-5.25 -1.13952,-1.9873 -1.633163,-4.32129 -1.633163,-7.03125 l 0,-151.0625 L 154.19847,93.5 z m 131.52598,0 c 5.86037,4.69726 11.89148,9.22657 18.07743,13.5625 6.18595,4.33594 12.20738,8.85157 18.55612,13.1875 3.90692,3.07129 5.86302,7.22266 6.02581,12.28125 l 0,153.75 -55.02072,34.5 c -6.18596,-4.33593 -12.39217,-8.6709 -18.41532,-13.1875 l -18.21823,-13.5625 0.16895,0.1875 c -2.11625,-1.26464 -3.58486,-3.08204 -4.56159,-5.25 -0.97674,-1.98731 -1.46422,-4.50879 -1.46422,-7.21875 l 0,-154.46875 L 285.72445,93.5 z"
     id="path3355"
     inkscape:connector-curvature="0" />
  <path
     style="fill:none;stroke:#00ff00;stroke-width:1px;display:inline"
     d="m 47.620472,67 c -1.816727,1.419308 -3.52878,2.828313 -5.096596,4.09375 -1.953458,1.62597 -3.24697,2.71485 -4.223699,3.4375 -1.465094,1.08399 -2.621333,2.34278 -3.435275,3.96875 -0.813941,1.62598 -1.126319,3.44336 -1.126319,5.25 0,2.34863 0.318537,4.14844 1.295267,5.59375 0.97673,1.44531 2.26408,2.69727 4.054751,3.78125 l 18.556117,11.21875 0,200.71875 c 0,4.15527 1.490612,7.23145 4.420803,9.21875 L 88.16798,333 m 66.7626,0 41.25146,-25.59375 c 0.32557,0.90332 0.67226,1.97852 1.32342,3.0625 0.48836,1.26465 1.12897,2.17676 1.94291,2.71875 L 226.93056,333 m 67.15681,0 64.39733,-39.15625 c 3.41856,-2.16797 5.04644,-5.41407 5.20923,-9.75 l 0,-174.15625 c 0,-3.79394 -1.63141,-6.87012 -4.5616,-9.21875 L 312.64349,67 M 289.07525,67 230.87268,102.90625 181.14567,67 m -23.68087,0 -64.819699,39.6875 0,-13.90625 c 0,-3.61327 -0.153108,-6.51953 -0.478686,-8.6875 -0.488364,-2.16797 -1.135114,-3.96094 -2.11185,-5.40625 -0.976726,-1.44531 -2.608133,-2.71094 -4.561594,-4.15625 -2.116247,-1.44531 -4.881893,-3.06836 -8.13766,-4.875 C 75.901148,68.887756 74.275572,67.992247 72.540295,67 m 81.658175,26.5 c 6.02316,4.5166 12.03843,8.85156 18.38717,13.1875 6.18595,4.33593 12.21705,8.86524 18.07743,13.5625 1.79067,1.80664 3.24697,3.59961 4.22369,5.40625 0.97673,1.80664 1.30143,4.16504 1.46422,6.875 l -0.16894,149.75 -61.04653,38.5 c -6.18595,-4.33593 -12.37017,-8.50781 -18.55612,-12.84375 -6.18596,-4.33593 -12.0481,-8.83399 -17.90848,-13.53125 -1.953461,-1.44531 -3.415919,-3.2627 -4.392646,-5.25 -1.13952,-1.9873 -1.633163,-4.32129 -1.633163,-7.03125 l 0,-151.0625 z m 131.52598,0 c 5.86037,4.69726 11.89148,9.22657 18.07743,13.5625 6.18595,4.33594 12.20737,8.85157 18.55612,13.1875 3.90692,3.07129 5.86302,7.22266 6.02581,12.28125 l 0,153.75 -55.02072,34.5 c -6.18596,-4.33593 -12.39217,-8.6709 -18.41533,-13.1875 l -18.21822,-13.5625 0.16895,0.1875 c -2.11625,-1.26464 -3.58486,-3.08204 -4.56159,-5.25 -0.97674,-1.98731 -1.46422,-4.50879 -1.46422,-7.21875 l 0,-154.46875 z"
     id="path3355-8"
     inkscape:connector-curvature="0"
     sodipodi:nodetypes="ccssssccsccccccccccscccccccscsccccccscccsccscccsccccccccscc" />
</g>

  
tmp/TMP.change:<g
   style="display:inline"
   zpos="-180"
   inkscape:label="UKON-001"
   id="g3155"
   inkscape:groupmode="layer"
   sodipodi:insensitive="true">
  <path
     style="fill:none;stroke:#000000;stroke-width:1px;stroke-linecap:square;display:inline"
     d="m 369.5,333 -10,0 -319,0 -10,0"
     id="path3159"
     inkscape:connector-curvature="0"
     sodipodi:nodetypes="cccc" />
  <path
     sodipodi:nodetypes="cccc"
     inkscape:connector-curvature="0"
     id="path3153-3"
     d="m 30.5,67 10,0 319,0 10,0"
     style="fill:none;stroke:#000000;stroke-width:1px;stroke-linecap:square;display:inline" />
</g>


tmp/TMP.master:<g
   zpos="-200"
   style="display:inline"
   inkscape:label="WWWW-005"
   id="g3303"
   inkscape:groupmode="layer"
   sodipodi:insensitive="true">
  <path
     style="fill:#ffff00;stroke:none"
     d="m 276.21875,47.0625 -43.28125,45.375 0,-38.65625 -65.09375,0 0,262.78125 -42.40625,-23.09375 0,-239.6875 -64.6875,0 0,279.21875 277.625,0 0.40625,-251.5 z m -25.625,50 23.09375,18.0625 0,201.8125 -40.75,-18.0625 0,-184.59375 z"
     id="path3319"
     inkscape:connector-curvature="0"
     sodipodi:nodetypes="cccccccccccccccccc" />
  <path
     inkscape:connector-curvature="0"
     style="fill:none;stroke:#00ff00;stroke-width:1px;display:inline"
     d="m 338.375,333 0.40625,-251.5 -62.5625,-34.4375 -43.28125,45.375 0,-38.65625 -65.09375,0 0,262.78125 -42.40625,-23.09375 0,-239.6875 -64.6875,0 0,279.21875 m 189.84375,-235.9375 23.09375,18.0625 0,201.8125 -40.75,-18.0625 0,-184.59375 z"
     id="path3319-6"
     sodipodi:nodetypes="ccccccccccccccccc" />
  <path
     sodipodi:nodetypes="cccc"
     inkscape:connector-curvature="0"
     id="path3576-5"
     d="m 369.5,333 -10,0 -319,0 -10,0"
     style="fill:none;stroke:#000000;stroke-width:1px;stroke-linecap:square;display:inline" />
</g>
</svg>
