<?xml version="1.0" encoding="UTF-8" standalone="no"?>
<!-- Created with Inkscape (http://www.inkscape.org/) -->

<svg
   xmlns:dc="http://purl.org/dc/elements/1.1/"
   xmlns:cc="http://creativecommons.org/ns#"
   xmlns:rdf="http://www.w3.org/1999/02/22-rdf-syntax-ns#"
   xmlns:svg="http://www.w3.org/2000/svg"
   xmlns="http://www.w3.org/2000/svg"
   xmlns:sodipodi="http://sodipodi.sourceforge.net/DTD/sodipodi-0.dtd"
   xmlns:inkscape="http://www.inkscape.org/namespaces/inkscape"
   style="display:inline"
   sodipodi:docname="161212_YYYY_00_UW_00_UW_.svg"
   inkscape:version="0.48.3.1 r9886"
   version="1.1"
   id="svg2902"
   height="400"
   width="400">
  <sodipodi:namedview
     id="base"
     pagecolor="#f0f0f0"
     bordercolor="#666666"
     borderopacity="1.0"
     inkscape:pageopacity="1"
     inkscape:pageshadow="2"
     inkscape:zoom="1.04981"
     inkscape:cx="96.156224"
     inkscape:cy="185.08711"
     inkscape:document-units="px"
     inkscape:current-layer="g3221"
     showgrid="false"
     inkscape:window-width="1018"
     inkscape:window-height="709"
     inkscape:window-x="0"
     inkscape:window-y="1"
     inkscape:window-maximized="0"
     showguides="true"
     inkscape:guide-bbox="true"
     inkscape:snap-bbox="true"
     inkscape:snap-global="false" />
  <defs
     id="defs2904">
    <clipPath
       clipPathUnits="userSpaceOnUse"
       id="clipPath5174">
      <path
         id="path5176"
         style="opacity:0.5;fill:#00ff00;stroke:#00ff00;stroke-width:1px;stroke-linecap:square;display:inline"
         d="m 436.26971,600.11436 -232.09481,134 -169.500003,-293.58262 232.094813,-134 z"
         inkscape:connector-curvature="0"
         sodipodi:nodetypes="ccccc" />
    </clipPath>
    <clipPath
       clipPathUnits="userSpaceOnUse"
       id="clipPath5174-5">
      <path
         id="path5176-9"
         style="opacity:0.5;fill:#00ff00;stroke:#00ff00;stroke-width:1px;stroke-linecap:square;display:inline"
         d="m 436.26971,600.11436 -232.09481,134 -169.500003,-293.58262 232.094813,-134 z"
         inkscape:connector-curvature="0"
         sodipodi:nodetypes="ccccc" />
    </clipPath>
    <clipPath
       clipPathUnits="userSpaceOnUse"
       id="clipPath3238">
      <path
         sodipodi:nodetypes="ccccc"
         inkscape:connector-curvature="0"
         d="m 461.26971,643.41563 -232.09481,134 -169.500002,-293.58262 232.094812,-134 z"
         style="opacity:0.5;fill:#00ff00;stroke:#00ff00;stroke-width:1px;stroke-linecap:square;display:inline"
         id="path3240" />
    </clipPath>
  </defs>
  <metadata
     id="metadata2907">
    <rdf:RDF>
      <cc:Work
         rdf:about="">
        <dc:format>image/svg+xml</dc:format>
        <dc:type
           rdf:resource="http://purl.org/dc/dcmitype/StillImage" />
        <dc:title />
      </cc:Work>
    </rdf:RDF>
  </metadata>
  
tmp/TMP.change:<g
     inkscape:groupmode="layer"
     id="bg"
     inkscape:label="XX_BG"
     sodipodi:insensitive="true">
    <path
       style="fill:#f6ffd5"
       d="M 400,0 400,400 0,400 0,0 z"
       id="bgrect"
       inkscape:connector-curvature="0" />
  </g>
  
tmp/TMP.change:<g
     inkscape:label="XX_Referenz"
     inkscape:groupmode="layer"
     id="XX_referenz"
     style="display:inline"
     sodipodi:insensitive="true">
    <path
       id="innerframe"
       style="fill:none;stroke:#ff0000;stroke-width:1"
       d="m 40.5,40.5 319,0 0,319 -319,0 0,-319 z"
       inkscape:label="#innerframe"
       sodipodi:insensitive="true"
       inkscape:connector-curvature="0" />
    <path
       id="outerframe"
       style="fill:none;stroke:#ff0000;stroke-width:1"
       d="m 30.5,30.5 339,0 0,339 -339,0 0,-339 z"
       inkscape:label="#outerframe"
       sodipodi:nodetypes="ccccc"
       sodipodi:insensitive="true"
       inkscape:connector-curvature="0" />
    <path
       style="opacity:0.5;fill:none;stroke:#ffc200;stroke-width:1px;stroke-linecap:square"
       d="m 189,30.5 0,10"
       id="ref-S-top-1"
       sodipodi:insensitive="true"
       inkscape:connector-curvature="0" />
    <path
       style="opacity:0.5;fill:none;stroke:#ffc200;stroke-width:1px;stroke-linecap:square"
       d="m 191,30.5 0,10"
       id="ref-S-top-2"
       sodipodi:insensitive="true"
       inkscape:connector-curvature="0" />
    <path
       style="opacity:0.5;fill:none;stroke:#ffc200;stroke-width:1px;stroke-linecap:square"
       d="m 209,30.5 0,10"
       id="ref-S-top-3"
       sodipodi:insensitive="true"
       inkscape:connector-curvature="0" />
    <path
       style="opacity:0.5;fill:none;stroke:#ffc200;stroke-width:1px;stroke-linecap:square"
       d="m 211,30.5 0,10"
       id="ref-S-top-4"
       sodipodi:insensitive="true"
       inkscape:connector-curvature="0" />
    <path
       style="opacity:0.5;fill:none;stroke:#00ff00;stroke-width:1px;stroke-linecap:square"
       d="m 199,30.5 0,10"
       id="ref-I-top-1"
       sodipodi:insensitive="true"
       inkscape:connector-curvature="0" />
    <path
       style="opacity:0.5;fill:none;stroke:#00ff00;stroke-width:1px;stroke-linecap:square"
       d="m 201,30.5 0,10"
       id="ref-I-top-2"
       sodipodi:insensitive="true"
       inkscape:connector-curvature="0" />
    <path
       style="opacity:0.5;fill:none;stroke:#00ffcc;stroke-width:1px;stroke-linecap:square"
       d="m 66,30.5 0,10"
       id="ref-C-top-1"
       sodipodi:insensitive="true"
       inkscape:connector-curvature="0" />
    <path
       style="opacity:0.5;fill:none;stroke:#00ffcc;stroke-width:1px;stroke-linecap:square"
       d="m 68,30.5 0,10"
       id="ref-C-top-2"
       sodipodi:insensitive="true"
       inkscape:connector-curvature="0" />
    <path
       style="opacity:0.5;fill:none;stroke:#00ffcc;stroke-width:1px;stroke-linecap:square"
       d="m 92,30.5 0,10"
       id="ref-C-top-3"
       sodipodi:insensitive="true"
       inkscape:connector-curvature="0" />
    <path
       style="opacity:0.5;fill:none;stroke:#00ffcc;stroke-width:1px;stroke-linecap:square"
       d="m 94,30.5 0,10"
       id="ref-C-top-4"
       sodipodi:insensitive="true"
       inkscape:connector-curvature="0" />
    <path
       style="opacity:0.5;fill:none;stroke:#00ffcc;stroke-width:1px;stroke-linecap:square"
       d="m 306,30.5 0,10"
       id="ref-C-top-5"
       sodipodi:insensitive="true"
       inkscape:connector-curvature="0" />
    <path
       style="opacity:0.5;fill:none;stroke:#00ffcc;stroke-width:1px;stroke-linecap:square"
       d="m 308,30.5 0,10"
       id="ref-C-top-6"
       sodipodi:insensitive="true"
       inkscape:connector-curvature="0" />
    <path
       style="opacity:0.5;fill:none;stroke:#00ffcc;stroke-width:1px;stroke-linecap:square"
       d="m 332,30.5 0,10"
       id="ref-C-top-7"
       sodipodi:insensitive="true"
       inkscape:connector-curvature="0" />
    <path
       style="opacity:0.5;fill:none;stroke:#00ffcc;stroke-width:1px;stroke-linecap:square"
       d="m 334,30.5 0,10"
       id="ref-C-top-8"
       sodipodi:insensitive="true"
       inkscape:connector-curvature="0" />
    <path
       style="opacity:0.5;fill:none;stroke:#ffc200;stroke-width:1px;stroke-linecap:square"
       d="m 369.5,189 -10,0"
       id="ref-S-right-1"
       sodipodi:insensitive="true"
       inkscape:connector-curvature="0" />
    <path
       style="opacity:0.5;fill:none;stroke:#ffc200;stroke-width:1px;stroke-linecap:square"
       d="m 369.5,191 -10,0"
       id="ref-S-right-2"
       sodipodi:insensitive="true"
       inkscape:connector-curvature="0" />
    <path
       style="opacity:0.5;fill:none;stroke:#ffc200;stroke-width:1px;stroke-linecap:square"
       d="m 369.5,209 -10,0"
       id="ref-S-right-3"
       sodipodi:insensitive="true"
       inkscape:connector-curvature="0" />
    <path
       style="opacity:0.5;fill:none;stroke:#ffc200;stroke-width:1px;stroke-linecap:square"
       d="m 369.5,211 -10,0"
       id="ref-S-right-4"
       sodipodi:insensitive="true"
       inkscape:connector-curvature="0" />
    <path
       style="opacity:0.5;fill:none;stroke:#00ff00;stroke-width:1px;stroke-linecap:square"
       d="m 369.5,199 -10,0"
       id="ref-I-right-1"
       sodipodi:insensitive="true"
       inkscape:connector-curvature="0" />
    <path
       style="opacity:0.5;fill:none;stroke:#00ff00;stroke-width:1px;stroke-linecap:square"
       d="m 369.5,201 -10,0"
       id="ref-I-right-2"
       sodipodi:insensitive="true"
       inkscape:connector-curvature="0" />
    <path
       style="opacity:0.5;fill:none;stroke:#00ffcc;stroke-width:1px;stroke-linecap:square"
       d="m 369.5,66 -10,0"
       id="ref-C-right-1"
       sodipodi:insensitive="true"
       inkscape:connector-curvature="0" />
    <path
       style="opacity:0.5;fill:none;stroke:#00ffcc;stroke-width:1px;stroke-linecap:square"
       d="m 369.5,68 -10,0"
       id="ref-C-right-2"
       sodipodi:insensitive="true"
       inkscape:connector-curvature="0" />
    <path
       style="opacity:0.5;fill:none;stroke:#00ffcc;stroke-width:1px;stroke-linecap:square"
       d="m 369.5,92 -10,0"
       id="ref-C-right-3"
       sodipodi:insensitive="true"
       inkscape:connector-curvature="0" />
    <path
       style="opacity:0.5;fill:none;stroke:#00ffcc;stroke-width:1px;stroke-linecap:square"
       d="m 369.5,94 -10,0"
       id="ref-C-right-4"
       sodipodi:insensitive="true"
       inkscape:connector-curvature="0" />
    <path
       style="opacity:0.5;fill:none;stroke:#00ffcc;stroke-width:1px;stroke-linecap:square"
       d="m 369.5,306 -10,0"
       id="ref-C-right-5"
       sodipodi:insensitive="true"
       inkscape:connector-curvature="0" />
    <path
       style="opacity:0.5;fill:none;stroke:#00ffcc;stroke-width:1px;stroke-linecap:square"
       d="m 369.5,308 -10,0"
       id="ref-C-right-6"
       sodipodi:insensitive="true"
       inkscape:connector-curvature="0" />
    <path
       style="opacity:0.5;fill:none;stroke:#00ffcc;stroke-width:1px;stroke-linecap:square"
       d="m 369.5,332 -10,0"
       id="ref-C-right-7"
       sodipodi:insensitive="true"
       inkscape:connector-curvature="0" />
    <path
       style="opacity:0.5;fill:none;stroke:#00ffcc;stroke-width:1px;stroke-linecap:square"
       d="m 369.5,334 -10,0"
       id="ref-C-right-8"
       sodipodi:insensitive="true"
       inkscape:connector-curvature="0" />
    <path
       style="opacity:0.5;fill:none;stroke:#ffc200;stroke-width:1px;stroke-linecap:square"
       d="m 189,369.5 0,-10"
       id="ref-S-bottom-1"
       sodipodi:insensitive="true"
       inkscape:connector-curvature="0" />
    <path
       style="opacity:0.5;fill:none;stroke:#ffc200;stroke-width:1px;stroke-linecap:square"
       d="m 191,369.5 0,-10"
       id="ref-S-bottom-2"
       sodipodi:insensitive="true"
       inkscape:connector-curvature="0" />
    <path
       style="opacity:0.5;fill:none;stroke:#ffc200;stroke-width:1px;stroke-linecap:square"
       d="m 209,369.5 0,-10"
       id="ref-S-bottom-3"
       sodipodi:insensitive="true"
       inkscape:connector-curvature="0" />
    <path
       style="opacity:0.5;fill:none;stroke:#ffc200;stroke-width:1px;stroke-linecap:square"
       d="m 211,369.5 0,-10"
       id="ref-S-bottom-4"
       sodipodi:insensitive="true"
       inkscape:connector-curvature="0" />
    <path
       style="opacity:0.5;fill:none;stroke:#00ff00;stroke-width:1px;stroke-linecap:square"
       d="m 199,369.5 0,-10"
       id="ref-I-bottom-1"
       sodipodi:insensitive="true"
       inkscape:connector-curvature="0" />
    <path
       style="opacity:0.5;fill:none;stroke:#00ff00;stroke-width:1px;stroke-linecap:square"
       d="m 201,369.5 0,-10"
       id="ref-I-bottom-2"
       sodipodi:insensitive="true"
       inkscape:connector-curvature="0" />
    <path
       style="opacity:0.5;fill:none;stroke:#00ffcc;stroke-width:1px;stroke-linecap:square"
       d="m 66,369.5 0,-10"
       id="ref-C-bottom-1"
       sodipodi:insensitive="true"
       inkscape:connector-curvature="0" />
    <path
       style="opacity:0.5;fill:none;stroke:#00ffcc;stroke-width:1px;stroke-linecap:square"
       d="m 68,369.5 0,-10"
       id="ref-C-bottom-2"
       sodipodi:insensitive="true"
       inkscape:connector-curvature="0" />
    <path
       style="opacity:0.5;fill:none;stroke:#00ffcc;stroke-width:1px;stroke-linecap:square"
       d="m 92,369.5 0,-10"
       id="ref-C-bottom-3"
       sodipodi:insensitive="true"
       inkscape:connector-curvature="0" />
    <path
       style="opacity:0.5;fill:none;stroke:#00ffcc;stroke-width:1px;stroke-linecap:square"
       d="m 94,369.5 0,-10"
       id="ref-C-bottom-4"
       sodipodi:insensitive="true"
       inkscape:connector-curvature="0" />
    <path
       style="opacity:0.5;fill:none;stroke:#00ffcc;stroke-width:1px;stroke-linecap:square"
       d="m 306,369.5 0,-10"
       id="ref-C-bottom-5"
       sodipodi:insensitive="true"
       inkscape:connector-curvature="0" />
    <path
       style="opacity:0.5;fill:none;stroke:#00ffcc;stroke-width:1px;stroke-linecap:square"
       d="m 308,369.5 0,-10"
       id="ref-C-bottom-6"
       sodipodi:insensitive="true"
       inkscape:connector-curvature="0" />
    <path
       style="opacity:0.5;fill:none;stroke:#00ffcc;stroke-width:1px;stroke-linecap:square"
       d="m 332,369.5 0,-10"
       id="ref-C-bottom-7"
       sodipodi:insensitive="true"
       inkscape:connector-curvature="0" />
    <path
       style="opacity:0.5;fill:none;stroke:#00ffcc;stroke-width:1px;stroke-linecap:square"
       d="m 334,369.5 0,-10"
       id="ref-C-bottom-8"
       sodipodi:insensitive="true"
       inkscape:connector-curvature="0" />
    <path
       style="opacity:0.5;fill:none;stroke:#ffc200;stroke-width:1px;stroke-linecap:square"
       d="m 30.5,189 10,0"
       id="ref-S-left-1"
       sodipodi:insensitive="true"
       inkscape:connector-curvature="0" />
    <path
       style="opacity:0.5;fill:none;stroke:#ffc200;stroke-width:1px;stroke-linecap:square"
       d="m 30.5,191 10,0"
       id="ref-S-left-2"
       sodipodi:insensitive="true"
       inkscape:connector-curvature="0" />
    <path
       style="opacity:0.5;fill:none;stroke:#ffc200;stroke-width:1px;stroke-linecap:square"
       d="m 30.5,209 10,0"
       id="ref-S-left-3"
       sodipodi:insensitive="true"
       inkscape:connector-curvature="0" />
    <path
       style="opacity:0.5;fill:none;stroke:#ffc200;stroke-width:1px;stroke-linecap:square"
       d="m 30.5,211 10,0"
       id="ref-S-left-4"
       sodipodi:insensitive="true"
       inkscape:connector-curvature="0" />
    <path
       style="opacity:0.5;fill:none;stroke:#00ff00;stroke-width:1px;stroke-linecap:square"
       d="m 40.5,199 -10,0"
       id="ref-I-left-1"
       sodipodi:insensitive="true"
       inkscape:connector-curvature="0" />
    <path
       style="opacity:0.5;fill:none;stroke:#00ff00;stroke-width:1px;stroke-linecap:square"
       d="m 40.5,201 -10,0"
       id="ref-I-left-2"
       sodipodi:insensitive="true"
       inkscape:connector-curvature="0" />
    <path
       style="opacity:0.5;fill:none;stroke:#00ffcc;stroke-width:1px;stroke-linecap:square"
       d="m 30.5,66 10,0"
       id="ref-C-left-1"
       sodipodi:insensitive="true"
       inkscape:connector-curvature="0" />
    <path
       style="opacity:0.5;fill:none;stroke:#00ffcc;stroke-width:1px;stroke-linecap:square"
       d="m 30.5,68 10,0"
       id="ref-C-left-2"
       sodipodi:insensitive="true"
       inkscape:connector-curvature="0" />
    <path
       style="opacity:0.5;fill:none;stroke:#00ffcc;stroke-width:1px;stroke-linecap:square"
       d="m 30.5,92 10,0"
       id="ref-C-left-3"
       sodipodi:insensitive="true"
       inkscape:connector-curvature="0" />
    <path
       style="opacity:0.5;fill:none;stroke:#00ffcc;stroke-width:1px;stroke-linecap:square"
       d="m 30.5,94 10,0"
       id="ref-C-left-4"
       sodipodi:insensitive="true"
       inkscape:connector-curvature="0" />
    <path
       style="opacity:0.5;fill:none;stroke:#00ffcc;stroke-width:1px;stroke-linecap:square"
       d="m 30.5,306 10,0"
       id="ref-C-left-5"
       sodipodi:insensitive="true"
       inkscape:connector-curvature="0" />
    <path
       style="opacity:0.5;fill:none;stroke:#00ffcc;stroke-width:1px;stroke-linecap:square"
       d="m 30.5,308 10,0"
       id="ref-C-left-6"
       sodipodi:insensitive="true"
       inkscape:connector-curvature="0" />
    <path
       style="opacity:0.5;fill:none;stroke:#00ffcc;stroke-width:1px;stroke-linecap:square"
       d="m 30.5,332 10,0"
       id="ref-C-left-7"
       sodipodi:insensitive="true"
       inkscape:connector-curvature="0" />
    <path
       style="opacity:0.5;fill:none;stroke:#00ffcc;stroke-width:1px;stroke-linecap:square"
       d="m 30.5,334 10,0"
       id="ref-C-left-8"
       sodipodi:insensitive="true"
       inkscape:connector-curvature="0" />
    <path
       style="fill:none;stroke:#000000;stroke-width:1px;stroke-linecap:square"
       d="m 190,30.5 0,10"
       id="S-top-1"
       inkscape:connector-curvature="0" />
    <path
       style="fill:none;stroke:#000000;stroke-width:1px;stroke-linecap:square"
       d="m 210,30.5 0,10"
       id="S-top-2"
       inkscape:connector-curvature="0" />
    <path
       style="fill:none;stroke:#000000;stroke-width:1px;stroke-linecap:square"
       d="m 369.5,190 -10,0"
       id="S-right-1"
       inkscape:connector-curvature="0" />
    <path
       style="fill:none;stroke:#000000;stroke-width:1px;stroke-linecap:square"
       d="m 369.5,210 -10,0"
       id="S-right-2"
       inkscape:connector-curvature="0" />
    <path
       style="fill:none;stroke:#000000;stroke-width:1px;stroke-linecap:square"
       d="m 190,369.5 0,-10"
       id="S-bottom-1"
       inkscape:connector-curvature="0" />
    <path
       style="fill:none;stroke:#000000;stroke-width:1px;stroke-linecap:square"
       d="m 210,369.5 0,-10"
       id="S-bottom-2"
       inkscape:connector-curvature="0" />
    <path
       style="fill:none;stroke:#000000;stroke-width:1px;stroke-linecap:square"
       d="m 30.5,190 10,0"
       id="S-left-1"
       inkscape:connector-curvature="0" />
    <path
       style="fill:none;stroke:#000000;stroke-width:1px;stroke-linecap:square"
       d="m 30.5,210 10,0"
       id="S-left-2"
       inkscape:connector-curvature="0" />
    <path
       style="fill:none;stroke:#000000;stroke-width:1px;stroke-linecap:square"
       d="m 200,30.5 0,10"
       id="I-top-1"
       inkscape:connector-curvature="0" />
    <path
       style="fill:none;stroke:#000000;stroke-width:1px;stroke-linecap:square"
       d="m 369.5,200 -10,0"
       id="I-right-1"
       inkscape:connector-curvature="0" />
    <path
       style="fill:none;stroke:#000000;stroke-width:1px;stroke-linecap:square"
       d="m 200,369.5 0,-10"
       id="I-bottom-1"
       inkscape:connector-curvature="0" />
    <path
       style="fill:none;stroke:#000000;stroke-width:1px;stroke-linecap:square"
       d="m 40.5,200 -10,0"
       id="I-left-1"
       inkscape:connector-curvature="0" />
    <path
       style="fill:none;stroke:#000000;stroke-width:1px;stroke-linecap:square"
       d="m 67,30.5 0,10"
       id="C-top-1"
       inkscape:connector-curvature="0" />
    <path
       style="fill:none;stroke:#000000;stroke-width:1px;stroke-linecap:square"
       d="m 93,30.5 0,10"
       id="C-top-2"
       inkscape:connector-curvature="0" />
    <path
       style="fill:none;stroke:#000000;stroke-width:1px;stroke-linecap:square"
       d="m 307,30.5 0,10"
       id="C-top-3"
       inkscape:connector-curvature="0" />
    <path
       style="fill:none;stroke:#000000;stroke-width:1px;stroke-linecap:square"
       d="m 333,30.5 0,10"
       id="C-top-4"
       inkscape:connector-curvature="0" />
    <path
       style="fill:none;stroke:#000000;stroke-width:1px;stroke-linecap:square"
       d="m 369.5,67 -10,0"
       id="C-right-1"
       inkscape:connector-curvature="0" />
    <path
       style="fill:none;stroke:#000000;stroke-width:1px;stroke-linecap:square"
       d="m 369.5,93 -10,0"
       id="C-right-2"
       inkscape:connector-curvature="0" />
    <path
       style="fill:none;stroke:#000000;stroke-width:1px;stroke-linecap:square"
       d="m 369.5,307 -10,0"
       id="C-right-3"
       inkscape:connector-curvature="0" />
    <path
       style="fill:none;stroke:#000000;stroke-width:1px;stroke-linecap:square"
       d="m 369.5,333 -10,0"
       id="C-right-4"
       inkscape:connector-curvature="0" />
    <path
       style="fill:none;stroke:#000000;stroke-width:1px;stroke-linecap:square"
       d="m 67,369.5 0,-10"
       id="C-bottom-1"
       inkscape:connector-curvature="0" />
    <path
       style="fill:none;stroke:#000000;stroke-width:1px;stroke-linecap:square"
       d="m 93,369.5 0,-10"
       id="C-bottom-2"
       inkscape:connector-curvature="0" />
    <path
       style="fill:none;stroke:#000000;stroke-width:1px;stroke-linecap:square"
       d="m 307,369.5 0,-10"
       id="C-bottom-3"
       inkscape:connector-curvature="0" />
    <path
       style="fill:none;stroke:#000000;stroke-width:1px;stroke-linecap:square"
       d="m 333,369.5 0,-10"
       id="C-bottom-4"
       inkscape:connector-curvature="0" />
    <path
       style="fill:none;stroke:#000000;stroke-width:1px;stroke-linecap:square"
       d="m 30.5,67 10,0"
       id="C-left-1"
       inkscape:connector-curvature="0" />
    <path
       style="fill:none;stroke:#000000;stroke-width:1px;stroke-linecap:square"
       d="m 30.5,93 10,0"
       id="C-left-2"
       inkscape:connector-curvature="0" />
    <path
       style="fill:none;stroke:#000000;stroke-width:1px;stroke-linecap:square"
       d="m 30.5,307 10,0"
       id="C-left-3"
       inkscape:connector-curvature="0" />
    <path
       style="fill:none;stroke:#000000;stroke-width:1px;stroke-linecap:square"
       d="m 30.5,333 10,0"
       id="C-left-4"
       inkscape:connector-curvature="0" />
  </g>
  
tmp/TMP.change:<g
     inkscape:groupmode="layer"
     id="g3149"
     inkscape:label="OKON-001"
     zpos="-300"
     style="display:inline">
    <path
       sodipodi:nodetypes="ccccc"
       inkscape:connector-curvature="0"
       id="path3147"
       d="m 30.5,307 0,25 339,0 0,-25 z"
       style="fill:#ffffff;stroke:none;display:inline" />
    <path
       style="fill:#ffffff;stroke:none;display:inline"
       d="m 30.5,67 0,26 339,0 0,-26 z"
       id="path3118"
       inkscape:connector-curvature="0"
       sodipodi:nodetypes="ccccc" />
    <path
       style="fill:none;stroke:#000000;stroke-width:1px;stroke-linecap:square;display:inline"
       d="m 307,93.5 0,213"
       id="path3178-9"
       inkscape:connector-curvature="0"
       sodipodi:nodetypes="cc" />
    <path
       style="fill:none;stroke:#000000;stroke-width:1px;stroke-linecap:square;display:inline"
       d="m 369.5,307 -10,0 -285,0 -10,0"
       id="C-right-3-7"
       inkscape:connector-curvature="0"
       sodipodi:nodetypes="cccc" />
    <path
       style="fill:none;stroke:#000000;stroke-width:1px;stroke-linecap:square;display:inline"
       d="m 30.5,93 10,0 319,0 10,0"
       id="C-left-2-6"
       inkscape:connector-curvature="0"
       sodipodi:nodetypes="cccc" />
  </g>
  
tmp/TMP.master:<g
     zpos="-200"
     style="display:none"
     inkscape:label="YYYY-001"
     id="g3125"
     inkscape:groupmode="layer"
     sodipodi:insensitive="true">
    <path
       style="fill:#ffffff;stroke:none"
       d="m 93.375,67 c 0.344362,2.407807 1.302603,4.716613 3,7.03125 l 87.59375,124.78125 0,133.28125 c 0,0.31032 0.0242,0.60432 0.0313,0.90625 l 28.25,0 c 0.002,-0.17066 0,-0.32663 0,-0.5 l 0,-132.90625 L 298.6875,74.8125 C 300.40249,72.097093 301.59427,69.502335 302.125,67 L 268.5,67 197.8125,170.125 126.71875,67 93.375,67 z"
       id="path3136"
       inkscape:connector-curvature="0" />
    <path
       style="fill:none;stroke:#00ff00;stroke-width:1px;display:inline"
       d="m 93.375,67 c 0.344362,2.407807 1.302603,4.716613 3,7.03125 l 87.59375,124.78125 0,133.28125 M 212.25,332.5 212.25,199.59375 298.6875,74.8125 C 300.40249,72.097093 301.59427,69.502335 302.125,67 M 268.5,67 197.8125,170.125 126.71875,67"
       id="path3136-6"
       inkscape:connector-curvature="0"
       sodipodi:nodetypes="ccccccccccc" />
  </g>
  
tmp/TMP.master:<g
     zpos="-200"
     style="display:none"
     inkscape:label="YYYY-002"
     id="g3141"
     inkscape:groupmode="layer"
     sodipodi:insensitive="true">
    <path
       style="fill:#ffffff;stroke:none"
       d="m 104.78125,67 c -0.34371,3.051914 -0.375,8.361903 -0.375,22.4375 l 0,19.03125 38.09375,49 38.0625,49 0,62.78125 c 0,45.87951 -0.004,58.94432 0.375,63.75 l 37.96875,0 c 0.33852,-5.96434 0.29272,-20.71734 0.53125,-62.9375 l 0,-63.59375 28.34375,-36.4375 c 15.38999,-19.84498 32.82876,-41.71001 38.09375,-49 l 9.71875,-12.5625 0,-21.0625 c 0,-11.751146 -0.008,-17.290716 -0.25,-20.40625 l -38,0 c -0.22018,2.410375 -0.25,6.283536 -0.25,14.75 l 0,13.34375 L 228.75,131.5625 C 213.36002,151.40748 200.40625,167.595 200.40625,168 c -0.405,0 -5.26002,-6.06128 -28.75,-36.03125 L 143.3125,95.5 l 0,-14.5625 C 143.12637,73.306004 143.09741,69.436679 142.9375,67 l -38.15625,0 z"
       id="path3152"
       inkscape:connector-curvature="0" />
    <path
       id="path3156"
       d="m 104.78125,67 c -0.34371,3.051914 -0.375,41.46875 -0.375,41.46875 l 76.15625,98 L 180.9375,333 m 37.96875,0 0.53125,-126.53125 76.15625,-98 L 295.34375,67 m -38,0 -0.25,28.09375 L 200.40625,168 143.3125,95.5 142.9375,67"
       style="fill:none;stroke:#00ff00;stroke-width:1px"
       inkscape:connector-curvature="0"
       sodipodi:nodetypes="ccccccccccccc" />
  </g>
  
tmp/TMP.master:<g
     zpos="-200"
     style="display:none"
     inkscape:label="YYYY-003"
     id="g3157"
     inkscape:groupmode="layer"
     sodipodi:insensitive="true">
    <path
       style="fill:#ffffff;stroke:none"
       d="m 96.65625,67 c -0.758816,0.664653 -1.510318,1.354097 -2.25,2.09375 -7.29001,7.02029 -10.9375,15.10153 -10.9375,24.28125 0,6.48026 2.0125,12.44401 6.0625,17.84375 l 78.15625,108.125 0,107.3125 c -2e-5,2.22 0.20251,4.33708 0.5625,6.34375 l 65.3125,0 c 0.0878,-1.00604 0.15623,-2.03426 0.15625,-3.09375 l 0,-110.5625 L 313.5,110 c 4.58976,-5.93974 6.87476,-12.28099 6.875,-19.03125 C 320.37476,81.78903 316.72726,73.81279 309.4375,67.0625 309.4156,67.04224 309.3969,67.0202 309.375,67 l -50.34375,0 c -3.11269,2.903712 -6.02647,6.432958 -8.71875,10.59375 l -49,72.90625 -53.46875,-75.34375 C 145.65592,71.987772 143.33629,69.282057 140.875,67 l -44.21875,0 z"
       id="path3168"
       inkscape:connector-curvature="0" />
    <path
       style="fill:none;stroke:#00ff00;stroke-width:1px;display:inline"
       d="m 96.65625,67 c -0.758816,0.664653 -1.510318,1.354097 -2.25,2.09375 -7.29001,7.02029 -10.9375,15.10153 -10.9375,24.28125 0,6.48026 2.0125,12.44401 6.0625,17.84375 l 78.15625,108.125 0,113.3125 m 66.03125,0.25 0,-113.5625 L 313.5,110 c 4.58976,-5.93974 6.87476,-12.28099 6.875,-19.03125 C 320.37476,81.78903 316.72726,73.81279 309.4375,67.0625 309.4156,67.04224 309.3969,67.0202 309.375,67 m -50.34375,0 c -3.11269,2.903712 -6.02647,6.432958 -8.71875,10.59375 l -49,72.90625 -53.46875,-75.34375 C 145.65592,71.987772 143.33629,69.282057 140.875,67"
       id="path3168-5"
       inkscape:connector-curvature="0"
       sodipodi:nodetypes="ccscccccccccccccc" />
  </g>
  
tmp/TMP.master:<g
     zpos="-200"
     style="display:none"
     inkscape:label="YYYY-004"
     id="g3173"
     inkscape:groupmode="layer"
     sodipodi:insensitive="true">
    <path
       style="fill:#ffffff;stroke:none"
       d="m 74.84375,67 92.4375,173.34375 0,92.65625 47.84375,0 0,-89.6875 L 309.15625,67 255.96875,67 192,196.03125 128.03125,67 74.84375,67 z"
       id="path3184"
       inkscape:connector-curvature="0" />
    <path
       style="fill:none;stroke:#00ff00;stroke-width:1px;display:inline"
       d="m 74.84375,67 92.4375,173.34375 0,92.65625 m 47.84375,0 0,-89.6875 L 309.15625,67 M 255.96875,67 192,196.03125 128.03125,67"
       id="path3184-5"
       inkscape:connector-curvature="0"
       sodipodi:nodetypes="ccccccccc" />
  </g>
  
tmp/TMP.change:<g
     style="display:inline"
     zpos="-180"
     inkscape:label="UKON-001"
     id="g3155"
     inkscape:groupmode="layer">
    <path
       sodipodi:nodetypes="ccccc"
       inkscape:connector-curvature="0"
       id="path3343"
       d="m 333,369.5 32,0 0,-339 -32,0 z"
       style="fill:#ffffff;stroke:none;display:inline" />
    <path
       style="fill:none;stroke:#000000;stroke-width:1px;stroke-linecap:square;display:inline"
       d="m 307,30.5 0,10 0,26"
       id="path3178-9-2"
       inkscape:connector-curvature="0"
       sodipodi:nodetypes="ccc" />
    <path
       sodipodi:nodetypes="ccc"
       inkscape:connector-curvature="0"
       id="path3409"
       d="m 93,30.5 0,10 0,26"
       style="fill:none;stroke:#000000;stroke-width:1px;stroke-linecap:square;display:inline" />
    <path
       sodipodi:nodetypes="cccc"
       inkscape:connector-curvature="0"
       id="path3153"
       d="m 64.5,67 10,0 285,0 10,0"
       style="fill:none;stroke:#000000;stroke-width:1px;stroke-linecap:square;display:inline" />
    <path
       sodipodi:nodetypes="ccccc"
       inkscape:connector-curvature="0"
       id="path3261"
       d="m 34,365.5 33,0 0,-332 -33,0 z"
       style="fill:#ffffff;stroke:none;display:inline" />
    <path
       style="fill:none;stroke:#000000;stroke-width:1px;stroke-linecap:square;display:inline"
       d="m 307,333.5 0,26 0,10"
       id="path3178-9-1"
       inkscape:connector-curvature="0"
       sodipodi:nodetypes="ccc" />
    <path
       sodipodi:nodetypes="ccc"
       inkscape:connector-curvature="0"
       id="path3411"
       d="m 93,333.5 0,26 0,10"
       style="fill:none;stroke:#000000;stroke-width:1px;stroke-linecap:square;display:inline" />
    <path
       style="fill:none;stroke:#000000;stroke-width:1px;stroke-linecap:square;display:inline"
       d="m 369.5,333 -10,0 -282,0 -10,0"
       id="path3159"
       inkscape:connector-curvature="0"
       sodipodi:nodetypes="cccc" />
    <path
       sodipodi:nodetypes="cc"
       inkscape:connector-curvature="0"
       id="path3236"
       d="m 67,30.5 0,62"
       style="fill:none;stroke:#000000;stroke-width:1px;stroke-linecap:square;display:inline" />
    <path
       sodipodi:nodetypes="cccc"
       inkscape:connector-curvature="0"
       id="path3234"
       d="m 67,93.5 0,10 0,256 0,10"
       style="fill:none;stroke:#000000;stroke-width:1px;stroke-linecap:square;display:inline" />
    <path
       style="fill:none;stroke:#000000;stroke-width:1px;stroke-linecap:square;display:inline"
       d="m 369.5,93 -36,0"
       id="C-right-2-7"
       inkscape:connector-curvature="0"
       sodipodi:nodetypes="cc" />
    <path
       style="fill:none;stroke:#000000;stroke-width:1px;stroke-linecap:square;display:inline"
       d="m 369.5,307 -36,0"
       id="C-right-3-0"
       inkscape:connector-curvature="0"
       sodipodi:nodetypes="cc" />
    <path
       style="fill:none;stroke:#000000;stroke-width:1px;stroke-linecap:square;display:inline"
       d="m 333,30.5 0,10 0,319 0,10"
       id="path3178"
       inkscape:connector-curvature="0"
       sodipodi:nodetypes="cccc" />
  </g>

tmp/TMP.master:<g
     zpos="-200"
     style="display:inline"
     inkscape:label="YYYY-008"
     id="g3221"
     inkscape:groupmode="layer"
     sodipodi:insensitive="true">
    <path
       style="fill:#ffffff;stroke:none"
       d="m 72.65625,61.28125 0,8.40625 c 7.22656,0 15.04688,7.43752 23.25,22.28125 l 76.96875,142.375 0,67.96875 c 0,10.15624 -0.78125,17.38281 -2.34375,21.875 -1.39356,4.18068 -3.74211,7.11759 -7,8.8125 l 82.28125,0 c -3.40447,-1.69376 -5.72942,-4.62578 -7.125,-8.8125 -1.56249,-4.49219 -2.15625,-11.71876 -2.15625,-21.875 l 0,-93.15625 47.28125,-93.75 C 296.89843,89.62503 309.59377,74.19531 322.09375,69.3125 l 0,-8.03125 c -8.0078,0.78125 -18.16407,1.1875 -30.46875,1.1875 -15.03904,0 -31.64845,-0.40625 -49.8125,-1.1875 l 0,8.03125 c 22.26561,0.78125 33.40625,9.57033 33.40625,26.5625 0,11.91405 -5.29689,28.32034 -15.84375,49.21875 L 228.34375,207.1875 167.40625,90.40625 c -1.75781,-3.32031 -2.5625,-6.27344 -2.5625,-8.8125 0,-4.68749 2.56251,-7.8125 8.03125,-9.375 5.27343,-1.5625 12.67969,-2.53125 22.25,-2.53125 l 0,-8.40625 C 169.7344,62.64844 144.54686,63.25 119.9375,63.25 c -16.0156,0 -31.65627,-0.60156 -47.28125,-1.96875 z"
       id="path3232"
       inkscape:connector-curvature="0" />
    <path
       inkscape:connector-curvature="0"
       style="fill:none;stroke:#00ff00;stroke-width:1px;display:inline"
       d="m 245.8125,333 c -3.40447,-1.69376 -5.72942,-4.62578 -7.125,-8.8125 -1.56249,-4.49219 -2.15625,-11.71876 -2.15625,-21.875 l 0,-93.15625 47.28125,-93.75 C 296.89843,89.62503 309.59377,74.19531 322.09375,69.3125 l 0,-8.03125 c -8.0078,0.78125 -18.16407,1.1875 -30.46875,1.1875 -15.03904,0 -31.64845,-0.40625 -49.8125,-1.1875 l 0,8.03125 c 22.26561,0.78125 33.40625,9.57033 33.40625,26.5625 0,11.91405 -5.29689,28.32034 -15.84375,49.21875 L 228.34375,207.1875 167.40625,90.40625 c -1.75781,-3.32031 -2.5625,-6.27344 -2.5625,-8.8125 0,-4.68749 2.56251,-7.8125 8.03125,-9.375 5.27343,-1.5625 12.67969,-2.53125 22.25,-2.53125 l 0,-8.40625 C 169.7344,62.64844 144.54686,63.25 119.9375,63.25 c -16.0156,0 -31.65627,-0.60156 -47.28125,-1.96875 l 0,8.40625 c 7.22656,0 15.04688,7.43752 23.25,22.28125 l 76.96875,142.375 0,67.96875 c 0,10.15624 -0.78125,17.38281 -2.34375,21.875 -1.39356,4.18068 -3.74211,7.11759 -7,8.8125"
       id="path3232-2"
       sodipodi:nodetypes="ccsccccsccscccscccsccccscc" />
    <path
       sodipodi:nodetypes="cc"
       inkscape:connector-curvature="0"
       id="path3576-1"
       d="m 269.5,333 -129,0"
       style="fill:none;stroke:#000000;stroke-width:1px;stroke-linecap:square;display:inline" />
  </g>
  
tmp/TMP.master:<g
     zpos="-80"
     style="display:none"
     inkscape:label="YYYY-005"
     id="g3189"
     inkscape:groupmode="layer"
     sodipodi:insensitive="true">
    <path
       style="fill:#ffffff;stroke:none"
       d="m 292.2238,371.87487 0,0 0,-331.084829 -70.6192,0 0,281.101109 -42.64666,-24.30401 0,-256.797099 -70.6192,0 0,293.482399 -0.45857,0.45857 63.74071,35.3096 49.98372,-35.3096 0,40.35383 -68.78494,0 -32.5582,64.19927 111.4316,0 60.53074,-67.40924"
       id="path3200"
       inkscape:connector-curvature="0" />
    <path
       style="fill:none;stroke:#00ff00;stroke-width:1px;display:inline"
       d="m 292.2238,371.87487 0,0 0,-331.08483 -70.6192,0 0,281.10111 -42.64666,-24.30401 0,-256.7971 -70.6192,0 0,293.4824 -0.45857,0.45857 63.74071,35.3096 49.98372,-35.3096 0,40.35383 -68.78494,0 -32.5582,64.19927 111.4316,0 60.53074,-67.40924"
       id="path3200-9"
       inkscape:connector-curvature="0" />
  </g>
  
tmp/TMP.master:<g
     zpos="-80"
     style="display:none"
     inkscape:label="YYYY-006"
     id="g3205"
     inkscape:groupmode="layer"
     sodipodi:insensitive="true">
    <path
       style="fill:#ffffff;stroke:none"
       d="m 26.517705,132.47446 c 0,23.48176 13.09564,34.77111 40.189989,34.77111 -3.612583,-9.48302 -5.418875,-18.06292 -5.418875,-25.28808 0,-17.61133 4.064157,-34.77113 12.192469,-50.124596 8.1283,-15.353467 19.417648,-23.030219 34.319542,-23.481792 16.2566,0 24.38494,10.837775 24.38494,32.513248 0,13.0956 -4.96732,37.93216 -14.45034,73.60639 -9.93459,36.12579 -14.45033,61.8655 -14.45033,76.76739 0,17.61133 4.51573,31.61012 13.54719,41.99628 9.03144,10.83774 23.03023,15.80505 41.99628,15.80505 36.12579,0 67.73596,-21.22396 94.37874,-64.12335 -2.70944,7.67673 -5.41889,21.22395 -8.57989,40.64156 -3.16101,19.41763 -6.7736,37.02899 -10.38618,52.83403 -4.06415,16.25662 -9.48304,32.51327 -15.80505,49.67302 -6.77359,17.15976 -16.25663,30.2554 -28.44909,40.18999 -12.19246,9.93459 -26.64283,14.90191 -43.351,14.90191 -27.54592,0 -41.09314,-12.64407 -41.09314,-38.3837 -0.45157,-5.41886 1.35472,-15.80506 4.96731,-30.70696 -10.83774,2.70944 -19.417651,7.67676 -25.288086,14.90191 -6.322021,7.22517 -9.031458,15.80506 -9.031458,25.28808 0,14.45032 5.87046,25.2881 18.062916,32.96483 11.740888,8.1283 27.545958,11.74089 46.963578,11.74089 17.15975,0 32.96484,-3.61258 47.86673,-10.83775 14.45032,-7.22515 26.19123,-15.80506 35.22269,-26.6428 9.03145,-10.38616 17.61134,-23.93338 25.73966,-40.64156 7.67672,-16.25661 13.54718,-31.61012 18.06291,-45.15729 4.06415,-13.09561 8.57989,-29.35226 13.09562,-48.31831 18.06289,-75.86417 31.15853,-125.53729 39.28684,-149.01906 7.67673,-23.48176 19.41765,-47.415177 35.22269,-71.800089 C 343.97347,55.255501 334.03885,49.38504 325.0074,49.38504 c -4.51573,0 -9.03147,3.161023 -13.54719,8.579885 -4.51573,5.418875 -9.03147,13.5472 -13.09561,23.933365 -4.06416,10.386164 -7.67674,20.32079 -10.38618,29.80381 l -10.83775,34.77112 -9.03146,29.80381 c -10.83773,31.1585 -24.38496,56.89821 -40.64156,77.67054 -16.70818,20.77233 -34.77114,30.70696 -53.73718,30.70696 l -0.45157,0 c -21.22391,0 -31.6101,-13.99879 -31.6101,-42.44786 0,-15.80504 5.41889,-43.35103 16.25662,-82.18627 8.1283,-29.80378 12.19247,-50.1246 12.64404,-60.96234 0,-14.45032 -4.51574,-26.191241 -13.54718,-35.67426 -9.03146,-9.031445 -22.1271,-13.99876 -39.28685,-13.99876 -25.288054,0 -46.512032,9.031483 -64.574923,27.094375 C 35.097603,94.542319 26.517705,113.05685 26.517705,132.47446"
       id="path3216"
       inkscape:connector-curvature="0" />
    <path
       style="fill:none;stroke:#00ff00;stroke-width:1px;display:inline"
       d="m 26.517705,132.47446 c 0,23.48176 13.09564,34.77111 40.189989,34.77111 -3.612583,-9.48302 -5.418875,-18.06292 -5.418875,-25.28808 0,-17.61133 4.064157,-34.77113 12.192469,-50.124596 8.1283,-15.353467 19.417648,-23.030219 34.319542,-23.481792 16.2566,0 24.38493,10.837775 24.38493,32.513248 0,13.0956 -4.96731,37.93216 -14.45033,73.60639 -9.93459,36.12579 -14.45033,61.8655 -14.45033,76.76739 0,17.61133 4.51573,31.61012 13.54719,41.99628 9.03144,10.83774 23.03022,15.80505 41.99627,15.80505 36.12579,0 67.73596,-21.22396 94.37874,-64.12335 -2.70944,7.67673 -5.41889,21.22395 -8.57989,40.64156 -3.16101,19.41763 -6.7736,37.02899 -10.38618,52.83403 -4.06415,16.25662 -9.48304,32.51327 -15.80505,49.67302 -6.77359,17.15976 -16.25663,30.2554 -28.44909,40.18999 -12.19246,9.93459 -26.64283,14.90191 -43.351,14.90191 -27.54591,0 -41.09313,-12.64407 -41.09313,-38.3837 -0.45157,-5.41886 1.35472,-15.80506 4.96731,-30.70696 -10.83774,2.70944 -19.417651,7.67676 -25.288086,14.90191 -6.322021,7.22517 -9.031458,15.80506 -9.031458,25.28808 0,14.45032 5.87046,25.2881 18.062916,32.96483 11.740888,8.1283 27.545958,11.74089 46.963568,11.74089 17.15975,0 32.96484,-3.61258 47.86673,-10.83775 14.45032,-7.22515 26.19123,-15.80506 35.22269,-26.6428 9.03145,-10.38616 17.61134,-23.93338 25.73966,-40.64156 7.67672,-16.25661 13.54718,-31.61012 18.06291,-45.15729 4.06415,-13.09561 8.57989,-29.35226 13.09562,-48.31831 18.06289,-75.86417 31.15853,-125.53729 39.28684,-149.01906 7.67673,-23.48176 19.41765,-47.415177 35.22269,-71.800089 -11.74088,-11.28931 -21.6755,-17.159771 -30.70695,-17.159771 -4.51573,0 -9.03147,3.161023 -13.54719,8.579885 -4.51573,5.418875 -9.03147,13.5472 -13.09561,23.933365 -4.06417,10.386164 -7.67674,20.32079 -10.38619,29.80381 l -10.83774,34.77112 -9.03147,29.80381 c -10.83773,31.1585 -24.38496,56.89821 -40.64155,77.67054 -16.70818,20.77233 -34.77115,30.70696 -53.73717,30.70696 l -0.45158,0 c -21.22391,0 -31.6101,-13.99879 -31.6101,-42.44786 0,-15.80504 5.41889,-43.35103 16.25663,-82.18627 8.1283,-29.80378 12.19246,-50.1246 12.64403,-60.96234 0,-14.45032 -4.51573,-26.191241 -13.54718,-35.67426 -9.03146,-9.031445 -22.1271,-13.99876 -39.28685,-13.99876 -25.288054,0 -46.512032,9.031483 -64.574923,27.094375 C 35.097603,94.542319 26.517705,113.05685 26.517705,132.47446"
       id="path3216-1"
       inkscape:connector-curvature="0" />
  </g>

</svg>
