<?xml version="1.0" encoding="UTF-8" standalone="no"?>
<!-- Created with Inkscape (http://www.inkscape.org/) -->

<svg
   xmlns:dc="http://purl.org/dc/elements/1.1/"
   xmlns:cc="http://creativecommons.org/ns#"
   xmlns:rdf="http://www.w3.org/1999/02/22-rdf-syntax-ns#"
   xmlns:svg="http://www.w3.org/2000/svg"
   xmlns="http://www.w3.org/2000/svg"
   xmlns:sodipodi="http://sodipodi.sourceforge.net/DTD/sodipodi-0.dtd"
   xmlns:inkscape="http://www.inkscape.org/namespaces/inkscape"
   style="display:inline"
   sodipodi:docname="161212_MMMM_00_UW_00_UW_.svg"
   inkscape:version="0.48.3.1 r9886"
   version="1.1"
   id="svg2902"
   height="400"
   width="400">
  <sodipodi:namedview
     id="base"
     pagecolor="#f0f0f0"
     bordercolor="#666666"
     borderopacity="1.0"
     inkscape:pageopacity="1"
     inkscape:pageshadow="2"
     inkscape:zoom="1.0654774"
     inkscape:cx="268.82074"
     inkscape:cy="132.01611"
     inkscape:document-units="px"
     inkscape:current-layer="g3237"
     showgrid="false"
     inkscape:window-width="1018"
     inkscape:window-height="709"
     inkscape:window-x="0"
     inkscape:window-y="1"
     inkscape:window-maximized="0"
     showguides="true"
     inkscape:guide-bbox="true"
     inkscape:snap-bbox="true"
     inkscape:snap-global="false" />
  <defs
     id="defs2904">
    <clipPath
       clipPathUnits="userSpaceOnUse"
       id="clipPath5174">
      <path
         id="path5176"
         style="opacity:0.5;fill:#00ff00;stroke:#00ff00;stroke-width:1px;stroke-linecap:square;display:inline"
         d="m 436.26971,600.11436 -232.09481,134 -169.500003,-293.58262 232.094813,-134 z"
         inkscape:connector-curvature="0"
         sodipodi:nodetypes="ccccc" />
    </clipPath>
    <clipPath
       clipPathUnits="userSpaceOnUse"
       id="clipPath5174-5">
      <path
         id="path5176-9"
         style="opacity:0.5;fill:#00ff00;stroke:#00ff00;stroke-width:1px;stroke-linecap:square;display:inline"
         d="m 436.26971,600.11436 -232.09481,134 -169.500003,-293.58262 232.094813,-134 z"
         inkscape:connector-curvature="0"
         sodipodi:nodetypes="ccccc" />
    </clipPath>
    <clipPath
       clipPathUnits="userSpaceOnUse"
       id="clipPath3238">
      <path
         sodipodi:nodetypes="ccccc"
         inkscape:connector-curvature="0"
         d="m 461.26971,643.41563 -232.09481,134 -169.500002,-293.58262 232.094812,-134 z"
         style="opacity:0.5;fill:#00ff00;stroke:#00ff00;stroke-width:1px;stroke-linecap:square;display:inline"
         id="path3240" />
    </clipPath>
  </defs>
  <metadata
     id="metadata2907">
    <rdf:RDF>
      <cc:Work
         rdf:about="">
        <dc:format>image/svg+xml</dc:format>
        <dc:type
           rdf:resource="http://purl.org/dc/dcmitype/StillImage" />
        <dc:title />
      </cc:Work>
    </rdf:RDF>
  </metadata>
  
tmp/TMP.change:<g
     inkscape:groupmode="layer"
     id="bg"
     inkscape:label="XX_BG"
     sodipodi:insensitive="true">
    <path
       style="fill:#f6ffd5"
       d="M 400,0 400,400 0,400 0,0 z"
       id="bgrect"
       inkscape:connector-curvature="0" />
  </g>
  
tmp/TMP.change:<g
     inkscape:label="XX_Referenz"
     inkscape:groupmode="layer"
     id="XX_referenz"
     style="display:inline"
     sodipodi:insensitive="true">
    <path
       id="innerframe"
       style="fill:none;stroke:#ff0000;stroke-width:1"
       d="m 40.5,40.5 319,0 0,319 -319,0 0,-319 z"
       inkscape:label="#innerframe"
       sodipodi:insensitive="true"
       inkscape:connector-curvature="0" />
    <path
       id="outerframe"
       style="fill:none;stroke:#ff0000;stroke-width:1"
       d="m 30.5,30.5 339,0 0,339 -339,0 0,-339 z"
       inkscape:label="#outerframe"
       sodipodi:nodetypes="ccccc"
       sodipodi:insensitive="true"
       inkscape:connector-curvature="0" />
    <path
       style="opacity:0.5;fill:none;stroke:#ffc200;stroke-width:1px;stroke-linecap:square"
       d="m 189,30.5 0,10"
       id="ref-S-top-1"
       sodipodi:insensitive="true"
       inkscape:connector-curvature="0" />
    <path
       style="opacity:0.5;fill:none;stroke:#ffc200;stroke-width:1px;stroke-linecap:square"
       d="m 191,30.5 0,10"
       id="ref-S-top-2"
       sodipodi:insensitive="true"
       inkscape:connector-curvature="0" />
    <path
       style="opacity:0.5;fill:none;stroke:#ffc200;stroke-width:1px;stroke-linecap:square"
       d="m 209,30.5 0,10"
       id="ref-S-top-3"
       sodipodi:insensitive="true"
       inkscape:connector-curvature="0" />
    <path
       style="opacity:0.5;fill:none;stroke:#ffc200;stroke-width:1px;stroke-linecap:square"
       d="m 211,30.5 0,10"
       id="ref-S-top-4"
       sodipodi:insensitive="true"
       inkscape:connector-curvature="0" />
    <path
       style="opacity:0.5;fill:none;stroke:#00ff00;stroke-width:1px;stroke-linecap:square"
       d="m 199,30.5 0,10"
       id="ref-I-top-1"
       sodipodi:insensitive="true"
       inkscape:connector-curvature="0" />
    <path
       style="opacity:0.5;fill:none;stroke:#00ff00;stroke-width:1px;stroke-linecap:square"
       d="m 201,30.5 0,10"
       id="ref-I-top-2"
       sodipodi:insensitive="true"
       inkscape:connector-curvature="0" />
    <path
       style="opacity:0.5;fill:none;stroke:#00ffcc;stroke-width:1px;stroke-linecap:square"
       d="m 66,30.5 0,10"
       id="ref-C-top-1"
       sodipodi:insensitive="true"
       inkscape:connector-curvature="0" />
    <path
       style="opacity:0.5;fill:none;stroke:#00ffcc;stroke-width:1px;stroke-linecap:square"
       d="m 68,30.5 0,10"
       id="ref-C-top-2"
       sodipodi:insensitive="true"
       inkscape:connector-curvature="0" />
    <path
       style="opacity:0.5;fill:none;stroke:#00ffcc;stroke-width:1px;stroke-linecap:square"
       d="m 92,30.5 0,10"
       id="ref-C-top-3"
       sodipodi:insensitive="true"
       inkscape:connector-curvature="0" />
    <path
       style="opacity:0.5;fill:none;stroke:#00ffcc;stroke-width:1px;stroke-linecap:square"
       d="m 94,30.5 0,10"
       id="ref-C-top-4"
       sodipodi:insensitive="true"
       inkscape:connector-curvature="0" />
    <path
       style="opacity:0.5;fill:none;stroke:#00ffcc;stroke-width:1px;stroke-linecap:square"
       d="m 306,30.5 0,10"
       id="ref-C-top-5"
       sodipodi:insensitive="true"
       inkscape:connector-curvature="0" />
    <path
       style="opacity:0.5;fill:none;stroke:#00ffcc;stroke-width:1px;stroke-linecap:square"
       d="m 308,30.5 0,10"
       id="ref-C-top-6"
       sodipodi:insensitive="true"
       inkscape:connector-curvature="0" />
    <path
       style="opacity:0.5;fill:none;stroke:#00ffcc;stroke-width:1px;stroke-linecap:square"
       d="m 332,30.5 0,10"
       id="ref-C-top-7"
       sodipodi:insensitive="true"
       inkscape:connector-curvature="0" />
    <path
       style="opacity:0.5;fill:none;stroke:#00ffcc;stroke-width:1px;stroke-linecap:square"
       d="m 334,30.5 0,10"
       id="ref-C-top-8"
       sodipodi:insensitive="true"
       inkscape:connector-curvature="0" />
    <path
       style="opacity:0.5;fill:none;stroke:#ffc200;stroke-width:1px;stroke-linecap:square"
       d="m 369.5,189 -10,0"
       id="ref-S-right-1"
       sodipodi:insensitive="true"
       inkscape:connector-curvature="0" />
    <path
       style="opacity:0.5;fill:none;stroke:#ffc200;stroke-width:1px;stroke-linecap:square"
       d="m 369.5,191 -10,0"
       id="ref-S-right-2"
       sodipodi:insensitive="true"
       inkscape:connector-curvature="0" />
    <path
       style="opacity:0.5;fill:none;stroke:#ffc200;stroke-width:1px;stroke-linecap:square"
       d="m 369.5,209 -10,0"
       id="ref-S-right-3"
       sodipodi:insensitive="true"
       inkscape:connector-curvature="0" />
    <path
       style="opacity:0.5;fill:none;stroke:#ffc200;stroke-width:1px;stroke-linecap:square"
       d="m 369.5,211 -10,0"
       id="ref-S-right-4"
       sodipodi:insensitive="true"
       inkscape:connector-curvature="0" />
    <path
       style="opacity:0.5;fill:none;stroke:#00ff00;stroke-width:1px;stroke-linecap:square"
       d="m 369.5,199 -10,0"
       id="ref-I-right-1"
       sodipodi:insensitive="true"
       inkscape:connector-curvature="0" />
    <path
       style="opacity:0.5;fill:none;stroke:#00ff00;stroke-width:1px;stroke-linecap:square"
       d="m 369.5,201 -10,0"
       id="ref-I-right-2"
       sodipodi:insensitive="true"
       inkscape:connector-curvature="0" />
    <path
       style="opacity:0.5;fill:none;stroke:#00ffcc;stroke-width:1px;stroke-linecap:square"
       d="m 369.5,66 -10,0"
       id="ref-C-right-1"
       sodipodi:insensitive="true"
       inkscape:connector-curvature="0" />
    <path
       style="opacity:0.5;fill:none;stroke:#00ffcc;stroke-width:1px;stroke-linecap:square"
       d="m 369.5,68 -10,0"
       id="ref-C-right-2"
       sodipodi:insensitive="true"
       inkscape:connector-curvature="0" />
    <path
       style="opacity:0.5;fill:none;stroke:#00ffcc;stroke-width:1px;stroke-linecap:square"
       d="m 369.5,92 -10,0"
       id="ref-C-right-3"
       sodipodi:insensitive="true"
       inkscape:connector-curvature="0" />
    <path
       style="opacity:0.5;fill:none;stroke:#00ffcc;stroke-width:1px;stroke-linecap:square"
       d="m 369.5,94 -10,0"
       id="ref-C-right-4"
       sodipodi:insensitive="true"
       inkscape:connector-curvature="0" />
    <path
       style="opacity:0.5;fill:none;stroke:#00ffcc;stroke-width:1px;stroke-linecap:square"
       d="m 369.5,306 -10,0"
       id="ref-C-right-5"
       sodipodi:insensitive="true"
       inkscape:connector-curvature="0" />
    <path
       style="opacity:0.5;fill:none;stroke:#00ffcc;stroke-width:1px;stroke-linecap:square"
       d="m 369.5,308 -10,0"
       id="ref-C-right-6"
       sodipodi:insensitive="true"
       inkscape:connector-curvature="0" />
    <path
       style="opacity:0.5;fill:none;stroke:#00ffcc;stroke-width:1px;stroke-linecap:square"
       d="m 369.5,332 -10,0"
       id="ref-C-right-7"
       sodipodi:insensitive="true"
       inkscape:connector-curvature="0" />
    <path
       style="opacity:0.5;fill:none;stroke:#00ffcc;stroke-width:1px;stroke-linecap:square"
       d="m 369.5,334 -10,0"
       id="ref-C-right-8"
       sodipodi:insensitive="true"
       inkscape:connector-curvature="0" />
    <path
       style="opacity:0.5;fill:none;stroke:#ffc200;stroke-width:1px;stroke-linecap:square"
       d="m 189,369.5 0,-10"
       id="ref-S-bottom-1"
       sodipodi:insensitive="true"
       inkscape:connector-curvature="0" />
    <path
       style="opacity:0.5;fill:none;stroke:#ffc200;stroke-width:1px;stroke-linecap:square"
       d="m 191,369.5 0,-10"
       id="ref-S-bottom-2"
       sodipodi:insensitive="true"
       inkscape:connector-curvature="0" />
    <path
       style="opacity:0.5;fill:none;stroke:#ffc200;stroke-width:1px;stroke-linecap:square"
       d="m 209,369.5 0,-10"
       id="ref-S-bottom-3"
       sodipodi:insensitive="true"
       inkscape:connector-curvature="0" />
    <path
       style="opacity:0.5;fill:none;stroke:#ffc200;stroke-width:1px;stroke-linecap:square"
       d="m 211,369.5 0,-10"
       id="ref-S-bottom-4"
       sodipodi:insensitive="true"
       inkscape:connector-curvature="0" />
    <path
       style="opacity:0.5;fill:none;stroke:#00ff00;stroke-width:1px;stroke-linecap:square"
       d="m 199,369.5 0,-10"
       id="ref-I-bottom-1"
       sodipodi:insensitive="true"
       inkscape:connector-curvature="0" />
    <path
       style="opacity:0.5;fill:none;stroke:#00ff00;stroke-width:1px;stroke-linecap:square"
       d="m 201,369.5 0,-10"
       id="ref-I-bottom-2"
       sodipodi:insensitive="true"
       inkscape:connector-curvature="0" />
    <path
       style="opacity:0.5;fill:none;stroke:#00ffcc;stroke-width:1px;stroke-linecap:square"
       d="m 66,369.5 0,-10"
       id="ref-C-bottom-1"
       sodipodi:insensitive="true"
       inkscape:connector-curvature="0" />
    <path
       style="opacity:0.5;fill:none;stroke:#00ffcc;stroke-width:1px;stroke-linecap:square"
       d="m 68,369.5 0,-10"
       id="ref-C-bottom-2"
       sodipodi:insensitive="true"
       inkscape:connector-curvature="0" />
    <path
       style="opacity:0.5;fill:none;stroke:#00ffcc;stroke-width:1px;stroke-linecap:square"
       d="m 92,369.5 0,-10"
       id="ref-C-bottom-3"
       sodipodi:insensitive="true"
       inkscape:connector-curvature="0" />
    <path
       style="opacity:0.5;fill:none;stroke:#00ffcc;stroke-width:1px;stroke-linecap:square"
       d="m 94,369.5 0,-10"
       id="ref-C-bottom-4"
       sodipodi:insensitive="true"
       inkscape:connector-curvature="0" />
    <path
       style="opacity:0.5;fill:none;stroke:#00ffcc;stroke-width:1px;stroke-linecap:square"
       d="m 306,369.5 0,-10"
       id="ref-C-bottom-5"
       sodipodi:insensitive="true"
       inkscape:connector-curvature="0" />
    <path
       style="opacity:0.5;fill:none;stroke:#00ffcc;stroke-width:1px;stroke-linecap:square"
       d="m 308,369.5 0,-10"
       id="ref-C-bottom-6"
       sodipodi:insensitive="true"
       inkscape:connector-curvature="0" />
    <path
       style="opacity:0.5;fill:none;stroke:#00ffcc;stroke-width:1px;stroke-linecap:square"
       d="m 332,369.5 0,-10"
       id="ref-C-bottom-7"
       sodipodi:insensitive="true"
       inkscape:connector-curvature="0" />
    <path
       style="opacity:0.5;fill:none;stroke:#00ffcc;stroke-width:1px;stroke-linecap:square"
       d="m 334,369.5 0,-10"
       id="ref-C-bottom-8"
       sodipodi:insensitive="true"
       inkscape:connector-curvature="0" />
    <path
       style="opacity:0.5;fill:none;stroke:#ffc200;stroke-width:1px;stroke-linecap:square"
       d="m 30.5,189 10,0"
       id="ref-S-left-1"
       sodipodi:insensitive="true"
       inkscape:connector-curvature="0" />
    <path
       style="opacity:0.5;fill:none;stroke:#ffc200;stroke-width:1px;stroke-linecap:square"
       d="m 30.5,191 10,0"
       id="ref-S-left-2"
       sodipodi:insensitive="true"
       inkscape:connector-curvature="0" />
    <path
       style="opacity:0.5;fill:none;stroke:#ffc200;stroke-width:1px;stroke-linecap:square"
       d="m 30.5,209 10,0"
       id="ref-S-left-3"
       sodipodi:insensitive="true"
       inkscape:connector-curvature="0" />
    <path
       style="opacity:0.5;fill:none;stroke:#ffc200;stroke-width:1px;stroke-linecap:square"
       d="m 30.5,211 10,0"
       id="ref-S-left-4"
       sodipodi:insensitive="true"
       inkscape:connector-curvature="0" />
    <path
       style="opacity:0.5;fill:none;stroke:#00ff00;stroke-width:1px;stroke-linecap:square"
       d="m 40.5,199 -10,0"
       id="ref-I-left-1"
       sodipodi:insensitive="true"
       inkscape:connector-curvature="0" />
    <path
       style="opacity:0.5;fill:none;stroke:#00ff00;stroke-width:1px;stroke-linecap:square"
       d="m 40.5,201 -10,0"
       id="ref-I-left-2"
       sodipodi:insensitive="true"
       inkscape:connector-curvature="0" />
    <path
       style="opacity:0.5;fill:none;stroke:#00ffcc;stroke-width:1px;stroke-linecap:square"
       d="m 30.5,66 10,0"
       id="ref-C-left-1"
       sodipodi:insensitive="true"
       inkscape:connector-curvature="0" />
    <path
       style="opacity:0.5;fill:none;stroke:#00ffcc;stroke-width:1px;stroke-linecap:square"
       d="m 30.5,68 10,0"
       id="ref-C-left-2"
       sodipodi:insensitive="true"
       inkscape:connector-curvature="0" />
    <path
       style="opacity:0.5;fill:none;stroke:#00ffcc;stroke-width:1px;stroke-linecap:square"
       d="m 30.5,92 10,0"
       id="ref-C-left-3"
       sodipodi:insensitive="true"
       inkscape:connector-curvature="0" />
    <path
       style="opacity:0.5;fill:none;stroke:#00ffcc;stroke-width:1px;stroke-linecap:square"
       d="m 30.5,94 10,0"
       id="ref-C-left-4"
       sodipodi:insensitive="true"
       inkscape:connector-curvature="0" />
    <path
       style="opacity:0.5;fill:none;stroke:#00ffcc;stroke-width:1px;stroke-linecap:square"
       d="m 30.5,306 10,0"
       id="ref-C-left-5"
       sodipodi:insensitive="true"
       inkscape:connector-curvature="0" />
    <path
       style="opacity:0.5;fill:none;stroke:#00ffcc;stroke-width:1px;stroke-linecap:square"
       d="m 30.5,308 10,0"
       id="ref-C-left-6"
       sodipodi:insensitive="true"
       inkscape:connector-curvature="0" />
    <path
       style="opacity:0.5;fill:none;stroke:#00ffcc;stroke-width:1px;stroke-linecap:square"
       d="m 30.5,332 10,0"
       id="ref-C-left-7"
       sodipodi:insensitive="true"
       inkscape:connector-curvature="0" />
    <path
       style="opacity:0.5;fill:none;stroke:#00ffcc;stroke-width:1px;stroke-linecap:square"
       d="m 30.5,334 10,0"
       id="ref-C-left-8"
       sodipodi:insensitive="true"
       inkscape:connector-curvature="0" />
    <path
       style="fill:none;stroke:#000000;stroke-width:1px;stroke-linecap:square"
       d="m 190,30.5 0,10"
       id="S-top-1"
       inkscape:connector-curvature="0" />
    <path
       style="fill:none;stroke:#000000;stroke-width:1px;stroke-linecap:square"
       d="m 210,30.5 0,10"
       id="S-top-2"
       inkscape:connector-curvature="0" />
    <path
       style="fill:none;stroke:#000000;stroke-width:1px;stroke-linecap:square"
       d="m 369.5,190 -10,0"
       id="S-right-1"
       inkscape:connector-curvature="0" />
    <path
       style="fill:none;stroke:#000000;stroke-width:1px;stroke-linecap:square"
       d="m 369.5,210 -10,0"
       id="S-right-2"
       inkscape:connector-curvature="0" />
    <path
       style="fill:none;stroke:#000000;stroke-width:1px;stroke-linecap:square"
       d="m 190,369.5 0,-10"
       id="S-bottom-1"
       inkscape:connector-curvature="0" />
    <path
       style="fill:none;stroke:#000000;stroke-width:1px;stroke-linecap:square"
       d="m 210,369.5 0,-10"
       id="S-bottom-2"
       inkscape:connector-curvature="0" />
    <path
       style="fill:none;stroke:#000000;stroke-width:1px;stroke-linecap:square"
       d="m 30.5,190 10,0"
       id="S-left-1"
       inkscape:connector-curvature="0" />
    <path
       style="fill:none;stroke:#000000;stroke-width:1px;stroke-linecap:square"
       d="m 30.5,210 10,0"
       id="S-left-2"
       inkscape:connector-curvature="0" />
    <path
       style="fill:none;stroke:#000000;stroke-width:1px;stroke-linecap:square"
       d="m 200,30.5 0,10"
       id="I-top-1"
       inkscape:connector-curvature="0" />
    <path
       style="fill:none;stroke:#000000;stroke-width:1px;stroke-linecap:square"
       d="m 369.5,200 -10,0"
       id="I-right-1"
       inkscape:connector-curvature="0" />
    <path
       style="fill:none;stroke:#000000;stroke-width:1px;stroke-linecap:square"
       d="m 200,369.5 0,-10"
       id="I-bottom-1"
       inkscape:connector-curvature="0" />
    <path
       style="fill:none;stroke:#000000;stroke-width:1px;stroke-linecap:square"
       d="m 40.5,200 -10,0"
       id="I-left-1"
       inkscape:connector-curvature="0" />
    <path
       style="fill:none;stroke:#000000;stroke-width:1px;stroke-linecap:square"
       d="m 67,30.5 0,10"
       id="C-top-1"
       inkscape:connector-curvature="0" />
    <path
       style="fill:none;stroke:#000000;stroke-width:1px;stroke-linecap:square"
       d="m 93,30.5 0,10"
       id="C-top-2"
       inkscape:connector-curvature="0" />
    <path
       style="fill:none;stroke:#000000;stroke-width:1px;stroke-linecap:square"
       d="m 307,30.5 0,10"
       id="C-top-3"
       inkscape:connector-curvature="0" />
    <path
       style="fill:none;stroke:#000000;stroke-width:1px;stroke-linecap:square"
       d="m 333,30.5 0,10"
       id="C-top-4"
       inkscape:connector-curvature="0" />
    <path
       style="fill:none;stroke:#000000;stroke-width:1px;stroke-linecap:square"
       d="m 369.5,67 -10,0"
       id="C-right-1"
       inkscape:connector-curvature="0" />
    <path
       style="fill:none;stroke:#000000;stroke-width:1px;stroke-linecap:square"
       d="m 369.5,93 -10,0"
       id="C-right-2"
       inkscape:connector-curvature="0" />
    <path
       style="fill:none;stroke:#000000;stroke-width:1px;stroke-linecap:square"
       d="m 369.5,307 -10,0"
       id="C-right-3"
       inkscape:connector-curvature="0" />
    <path
       style="fill:none;stroke:#000000;stroke-width:1px;stroke-linecap:square"
       d="m 369.5,333 -10,0"
       id="C-right-4"
       inkscape:connector-curvature="0" />
    <path
       style="fill:none;stroke:#000000;stroke-width:1px;stroke-linecap:square"
       d="m 67,369.5 0,-10"
       id="C-bottom-1"
       inkscape:connector-curvature="0" />
    <path
       style="fill:none;stroke:#000000;stroke-width:1px;stroke-linecap:square"
       d="m 93,369.5 0,-10"
       id="C-bottom-2"
       inkscape:connector-curvature="0" />
    <path
       style="fill:none;stroke:#000000;stroke-width:1px;stroke-linecap:square"
       d="m 307,369.5 0,-10"
       id="C-bottom-3"
       inkscape:connector-curvature="0" />
    <path
       style="fill:none;stroke:#000000;stroke-width:1px;stroke-linecap:square"
       d="m 333,369.5 0,-10"
       id="C-bottom-4"
       inkscape:connector-curvature="0" />
    <path
       style="fill:none;stroke:#000000;stroke-width:1px;stroke-linecap:square"
       d="m 30.5,67 10,0"
       id="C-left-1"
       inkscape:connector-curvature="0" />
    <path
       style="fill:none;stroke:#000000;stroke-width:1px;stroke-linecap:square"
       d="m 30.5,93 10,0"
       id="C-left-2"
       inkscape:connector-curvature="0" />
    <path
       style="fill:none;stroke:#000000;stroke-width:1px;stroke-linecap:square"
       d="m 30.5,307 10,0"
       id="C-left-3"
       inkscape:connector-curvature="0" />
    <path
       style="fill:none;stroke:#000000;stroke-width:1px;stroke-linecap:square"
       d="m 30.5,333 10,0"
       id="C-left-4"
       inkscape:connector-curvature="0" />
  </g>
  
tmp/TMP.change:<g
     inkscape:groupmode="layer"
     id="g3149"
     inkscape:label="OKON-001"
     zpos="-300"
     style="display:inline"
     sodipodi:insensitive="true">
    <path
       style="fill:#000000;stroke:none;display:inline"
       d="m 30.5,67 0,266 339,0 0,-266 z"
       id="path3163"
       inkscape:connector-curvature="0"
       sodipodi:nodetypes="ccccc" />
  </g>
  
tmp/TMP.master:<g
     zpos="-200"
     style="display:none"
     inkscape:label="MMMM-001"
     id="g3125"
     inkscape:groupmode="layer"
     sodipodi:insensitive="true">
    <path
       style="fill:#ffff00;stroke:none"
       d="m 92.8125,67 0,264.125 c 0,0.64767 0.03706,1.26259 0.0625,1.875 l 29.15625,0 c 0.0413,-0.73918 0.0625,-1.49123 0.0625,-2.28125 l 0,-212.78125 60.5,100.46875 c 4.74608,8.1079 9.48341,12.0625 14.625,12.0625 4.94385,0 9.88965,-4.16309 15.03125,-12.46875 l 61.71875,-100.46875 0,212.1875 c 0,1.14889 0.0512,2.23349 0.125,3.28125 l 29,0 c 0.0765,-1.04776 0.125,-2.13236 0.125,-3.28125 L 303.21875,67 270.125,67 196.4375,186.34375 125.65625,67 92.8125,67 z"
       id="path3136"
       inkscape:connector-curvature="0" />
    <path
       style="fill:none;stroke:#00ff00;stroke-width:1px;display:inline"
       d="m 92.8125,67 0,269.125 m 210.40625,-1.40625 0,-267.71875 M 270.125,67 196.4375,186.34375 125.65625,67 m -3.5625,268.71875 0,-217.78125 60.5,100.46875 c 4.74608,8.1079 9.48341,12.0625 14.625,12.0625 4.94385,0 9.88965,-4.16309 15.03125,-12.46875 l 61.71875,-100.46875 0,217.1875"
       id="path3136-6"
       inkscape:connector-curvature="0"
       sodipodi:nodetypes="ccccccccccsccc" />
  </g>
  
tmp/TMP.master:<g
     zpos="-200"
     style="display:none"
     inkscape:label="MMMM-002"
     id="g3141"
     inkscape:groupmode="layer"
     sodipodi:insensitive="true">
    <path
       style="fill:#ffff00;stroke:none"
       d="m 104.46875,67 1.125,266 37.3125,0 0.40625,-229 37.25,53.0625 0,6.5 c 0,7.28999 0.41,7.6975 1.625,10.9375 1.215,3.23999 4.85375,7.6925 8.09375,9.3125 1.62,1.215 4.8525,2.4075 7.6875,2.8125 4.05,0.405 8.9175,-0.78876 12.5625,-3.21875 2.025,-1.215 4.8475,-4.47501 6.0625,-6.5 2.43,-3.645 2.84375,-6.46001 2.84375,-13.75 l 0,-6.09375 37.25,-53.0625 0.78125,229 37.71875,0 0.375,-266 -60.78125,0 -35.375,48.96875 -34.5,-48.96875 -60.4375,0 z"
       id="path3152"
       inkscape:connector-curvature="0" />
    <path
       style="fill:none;stroke:#00ff00;stroke-width:1px;display:inline"
       d="m 104.46875,67 1.125,266 m 37.3125,0 0.40625,-229 37.25,53.0625 0,6.5 c 0,7.28999 0.41,7.6975 1.625,10.9375 1.215,3.23999 4.85375,7.6925 8.09375,9.3125 1.62,1.215 4.8525,2.4075 7.6875,2.8125 4.05,0.405 8.9175,-0.78876 12.5625,-3.21875 2.025,-1.215 4.8475,-4.47501 6.0625,-6.5 2.43,-3.645 2.84375,-6.46001 2.84375,-13.75 l 0,-6.09375 37.25,-53.0625 0.78125,229 m 37.71875,0 0.375,-266 m -60.78125,0 -35.375,48.96875 L 164.90625,67"
       id="path3152-5"
       inkscape:connector-curvature="0"
       sodipodi:nodetypes="cccccssccccscccccccc" />
  </g>
  
tmp/TMP.master:<g
     zpos="-200"
     style="display:none"
     inkscape:label="MMMM-003"
     id="g3157"
     inkscape:groupmode="layer"
     sodipodi:insensitive="true">
    <path
       style="fill:#ffff00;stroke:none"
       d="M 97.4375,67 C 90.398265,74.836366 86.00343,85.505286 84.21875,99.03125 l -32.375,229.9375 c -0.164461,1.42454 -0.267033,2.75399 -0.3125,4.03125 l 58.6875,0 c 0.4997,-2.73379 0.92929,-5.60777 1.28125,-8.65625 L 128.1875,185.53125 169.59375,333 l 62.375,0 38.0625,-150.84375 L 291.5625,333 l 55.0625,0 c -0.0558,-1.04156 -0.12063,-2.09338 -0.21875,-3.1875 L 315.03125,99.03125 C 313.30549,85.687165 309.13612,75.02481 302.5,67 l -49.03125,0 c -5.94477,6.058924 -10.54239,14.354519 -13.78125,24.875 L 198.09375,233.1875 159.5625,91.875 C 156.65838,81.334357 152.73515,73.051473 147.8125,67 l -50.375,0 z"
       id="path3168"
       inkscape:connector-curvature="0" />
    <path
       style="fill:none;stroke:#00ff00;display:inline"
       d="M 97.4375,67 C 90.398265,74.836366 86.00343,85.505286 84.21875,99.03125 L 51.53125,333 m 58.6875,0 L 128.1875,185.53125 169.59375,333 m 62.375,0 38.0625,-150.84375 L 291.5625,333 m 55.0625,0 C 346.5692,331.95844 315.03125,99.03125 315.03125,99.03125 313.30549,85.687165 309.13612,75.02481 302.5,67 m -49.03125,0 c -5.94477,6.058924 -10.54239,14.354519 -13.78125,24.875 L 198.09375,233.1875 159.5625,91.875 C 156.65838,81.334357 152.73515,73.051473 147.8125,67"
       id="path3168-6"
       inkscape:connector-curvature="0"
       sodipodi:nodetypes="ccccccccccccccccc" />
  </g>
  
tmp/TMP.master:<g
     zpos="-200"
     style="display:none"
     inkscape:label="MMMM-004"
     id="g3173"
     inkscape:groupmode="layer"
     sodipodi:insensitive="true">
    <path
       style="fill:#ffff00;stroke:none"
       d="m 54.25,67 0,266 48.0625,0 0,-199.65625 1.1875,-0.375 L 180,333 221.40625,333 296.5,136.90625 l 1.1875,0.21875 0,195.875 48.0625,0 0,-266 -65.4375,0 -79.125,210.53125 -1.1875,0 L 121.4375,67 54.25,67 z"
       id="path3184"
       inkscape:connector-curvature="0" />
    <path
       style="fill:none;stroke:#00ff00;stroke-width:1px;display:inline"
       d="m 54.25,67 0,266 m 48.0625,0 0.59375,-199.84375 L 180,333 m 41.40625,0 75.6875,-196 0.59375,196 m 48.0625,0 0,-266 M 280.28125,67 200.59375,277.53125 121.46875,67"
       id="path3184-9"
       inkscape:connector-curvature="0"
       sodipodi:nodetypes="ccccccccccccc" />
  </g>
  
tmp/TMP.master:<g
     zpos="-200"
     style="display:none"
     inkscape:label="MMMM-005"
     id="g3189"
     inkscape:groupmode="layer"
     sodipodi:insensitive="true">
    <path
       style="fill:#ffff00;stroke:none"
       d="m 63.53125,67 0,266 64.6875,0 0,-255.65625 39.0625,22.25 0,233.40625 64.6875,0 0,-255.65625 39.46875,22.25 0,233.40625 64.6875,0 0,-266 -272.59375,0 z"
       id="path3200"
       inkscape:connector-curvature="0" />
    <path
       style="fill:none;stroke:#00ff00;stroke-width:1px;display:inline"
       d="m 63.53125,67 0,266 m 64.6875,0 0,-255.65625 39.0625,22.25 0,233.40625 m 64.6875,0 0,-255.65625 39.46875,22.25 0,233.40625 m 64.6875,0 0,-266"
       id="path3200-2"
       inkscape:connector-curvature="0"
       sodipodi:nodetypes="cccccccccccc" />
  </g>
  
tmp/TMP.master:<g
     zpos="-200"
     style="display:none"
     inkscape:label="MMMM-006"
     id="g3205"
     inkscape:groupmode="layer"
     sodipodi:insensitive="true">
    <path
       style="fill:#ffffff;stroke:none;display:inline"
       d="m 111.0625,67 c -3.09281,2.817939 -5.90515,6.163451 -8.40625,10.09375 -8.94781,14.486946 -13.1875,30.2378 -13.1875,47.28125 -0.42609,5.96522 0.40924,12.79919 1.6875,20.46875 -9.3739,0 24.3125,7.65625 24.3125,7.65625 L 149.125,79.21875 C 151.28559,74.537474 152.51407,70.464327 152.84375,67 l -41.78125,0 z"
       id="path3372"
       inkscape:connector-curvature="0" />
    <path
       style="fill:#ffff00;stroke:none"
       d="m 77.9375,67 c -11.338795,12.259189 -17.03125,25.145738 -17.03125,39.0625 -0.426087,9.79999 2.554619,18.74811 8.09375,26.84375 5.113032,8.09564 12.78235,11.9375 22.15625,11.9375 -1.27826,-7.66956 -2.11359,-14.50353 -1.6875,-20.46875 0,-17.04345 4.23969,-32.794304 13.1875,-47.28125 2.5011,-3.930299 5.31344,-7.275811 8.40625,-10.09375 l -33.125,0 z m 74.90625,0 c -0.32968,3.464327 -1.55816,7.537474 -3.71875,12.21875 L 81.78125,225.78125 32.3125,333 l 26.71875,0 c 1.015627,-1.85261 2.04035,-3.75238 3.15625,-5.8125 l 14.5,-29.375 c 4.260863,-9.3739 9.77636,-22.1837 16.59375,-38.375 l 18.75,-45.15625 23.4375,-54.53125 26.4375,-62.21875 0,12.375 c 0,5.96521 0.40625,10.22472 0.40625,12.78125 0,16.61738 -0.83533,42.1859 -1.6875,77.125 -1.27827,34.9391 -1.71875,59.63805 -1.71875,74.125 0,23.86085 1.29864,40.91033 4.28125,51.5625 0.78462,2.91432 1.78259,5.3958 3.03125,7.5 l 26.9375,0 c 10.2302,-28.87385 25.22429,-65.39969 45,-108.90625 21.30433,-46.86952 40.91685,-83.09106 58.8125,-108.65625 -11.93043,46.01734 -21.31605,85.2196 -27.28125,116.75 -5.96522,31.95649 -8.9375,62.19078 -8.9375,90.3125 0,3.70514 0.0909,7.20726 0.25,10.5 l 35.15625,0 C 296.56594,295.71982 303.37473,243.69358 317,177.21875 326.7786,128.02023 335.66448,91.374729 343.375,67 l -39.65625,0 c -15.23727,23.442549 -34.09398,55.87541 -56.59375,97.875 -25.5652,47.72169 -44.75708,89.4503 -56.6875,126.09375 0,-9.79999 1.28723,-32.35357 3.84375,-67.71875 2.55652,-34.9391 4.25,-62.65302 4.25,-83.53125 0,-32.52379 -2.79956,-56.597549 -8.1875,-72.71875 l -37.5,0 z"
       id="path3216"
       inkscape:connector-curvature="0" />
    <path
       style="fill:none;stroke:#00ff00;display:inline"
       d="m 77.9375,67 c -11.338795,12.259189 -17.03125,25.145738 -17.03125,39.0625 -0.426087,9.79999 2.554619,18.74811 8.09375,26.84375 5.113032,8.09564 12.78235,11.9375 22.15625,11.9375 -1.27826,-7.66956 -2.11359,-14.50353 -1.6875,-20.46875 0,-17.04345 4.23969,-32.794304 13.1875,-47.28125 2.5011,-3.930299 5.31344,-7.275811 8.40625,-10.09375 M 59.03125,333 c 1.015627,-1.85261 2.04035,-3.75238 3.15625,-5.8125 l 14.5,-29.375 c 4.260863,-9.3739 9.77636,-22.1837 16.59375,-38.375 l 18.75,-45.15625 23.4375,-54.53125 26.4375,-62.21875 0,12.375 c 0,5.96521 0.40625,10.22472 0.40625,12.78125 0,16.61738 -0.83533,42.1859 -1.6875,77.125 -1.27827,34.9391 -1.71875,59.63805 -1.71875,74.125 0,23.86085 1.29864,40.91033 4.28125,51.5625 0.78462,2.91432 1.78259,5.3958 3.03125,7.5 m 26.9375,0 c 10.2302,-28.87385 25.22429,-65.39969 45,-108.90625 21.30433,-46.86952 40.91685,-83.09106 58.8125,-108.65625 -11.93043,46.01734 -21.31605,85.2196 -27.28125,116.75 -5.96522,31.95649 -8.9375,62.19078 -8.9375,90.3125 0,3.70514 0.0909,7.20726 0.25,10.5 m 35.15625,0 C 296.56594,295.71982 303.37473,243.69358 317,177.21875 326.7786,128.02023 335.66448,91.374729 343.375,67 m -39.65625,0 c -15.23727,23.442549 -34.09398,55.87541 -56.59375,97.875 -25.5652,47.72169 -44.75708,89.4503 -56.6875,126.09375 0,-9.79999 1.28723,-32.35357 3.84375,-67.71875 2.55652,-34.9391 4.25,-62.65302 4.25,-83.53125 0,-32.52379 -2.79956,-56.597549 -8.1875,-72.71875 m -37.5,0 c -0.32968,3.464327 -1.55816,7.537474 -3.71875,12.21875 L 81.78125,225.78125 32.3125,333"
       id="path3216-0"
       inkscape:connector-curvature="0"
       sodipodi:nodetypes="ccccccccccccccsscscccsccscccccsccsccccc" />
  </g>
  
tmp/TMP.master:<g
     zpos="-200"
     style="display:inline"
     inkscape:label="MMMM-007"
     id="g3221"
     inkscape:groupmode="layer"
     sodipodi:insensitive="true">
    <path
       style="fill:#ffff00;stroke:none"
       d="m 42.25,67 c -1.23918,1.06448 -2.383072,2.178435 -3.40625,3.40625 -1.928302,2.313956 -2.90625,4.831631 -2.90625,7.53125 0,3.085292 0.967286,5.597609 3.28125,7.71875 2.313962,2.313956 4.815642,4.233283 8.09375,5.96875 3.085282,1.735478 6.190631,3.280511 9.46875,4.4375 3.085282,1.349804 5.571696,2.509934 7.5,3.28125 l 0,233.65625 41.09375,0 0,-223.25 37.78125,-23.125 36.28125,26.03125 -0.1875,0 c 2.5068,1.54265 4.43677,3.24855 5.59375,5.5625 1.15698,2.31397 1.74468,4.82629 1.9375,7.71875 l 0,207.0625 56.875,0 c -0.29175,-1.30096 -0.92231,-2.52142 -1.75,-3.625 -1.34982,-1.34982 -2.67611,-2.49926 -4.21875,-3.65625 l 0,0.1875 -10.03125,-6.34375 0,-216.75 27.53125,-16.40625 44.5625,26.25 c 4.82075,3.08529 7.3125,7.49634 7.3125,13.28125 l 0,207.0625 59.15625,0 c 0.0304,-0.25628 0.0625,-0.50011 0.0625,-0.71875 0,-1.92831 -0.76986,-3.67611 -2.3125,-5.21875 -1.54264,-1.3498 -3.29045,-2.87427 -5.21875,-4.03125 -1.92831,-1.15699 -4.04045,-2.3171 -5.96875,-3.28125 -2.12113,-0.96415 -3.68676,-1.72869 -4.84375,-2.5 l 0,-216.1875 c 0,-4.242264 -1.71656,-7.311044 -5.1875,-9.625 -1.54264,-0.771326 -4.24248,-2.498544 -7.90625,-4.8125 -3.66378,-2.313967 -7.90333,-5.039718 -12.53125,-8.125 -4.62792,-2.892455 -9.63734,-5.977207 -14.84375,-9.0625 C 305.99399,68.594784 304.64923,67.811654 303.25,67 l -59.75,0 -30.90625,18.0625 -26,-18.0625 -54.78125,0 c -3.57443,2.162278 -6.9025,4.316703 -10.0625,6.3125 -3.85661,2.313956 -7.1388,4.415447 -10.03125,6.34375 -3.08529,1.928304 -5.18677,3.103685 -6.34375,3.875 L 104.78125,78.5 c -0.38567,-2.699629 -1.74321,-5.186044 -4.25,-7.5 -1.515205,-1.398649 -3.177855,-2.7389 -4.96875,-4 L 42.25,67 z"
       id="path3232"
       inkscape:connector-curvature="0" />
    <path
       style="fill:none;stroke:#00ff00"
       d="m 42.25,67 c -1.23918,1.06448 -2.383072,2.178435 -3.40625,3.40625 -1.928302,2.313956 -2.90625,4.831631 -2.90625,7.53125 0,3.085292 0.967286,5.597609 3.28125,7.71875 2.313962,2.313956 4.815642,4.233283 8.09375,5.96875 3.085282,1.735478 6.190631,3.280511 9.46875,4.4375 3.085282,1.349804 5.571696,2.509934 7.5,3.28125 l 0,233.65625 m 41.09375,-0.0937 0,-223.15625 37.78125,-23.125 36.28125,26.03125 -0.1875,0 c 2.5068,1.54265 4.43677,3.24855 5.59375,5.5625 1.15698,2.31397 1.74468,4.82629 1.9375,7.71875 l 0,206.78125 m 56.75,-0.15625 c -0.32505,-1.13774 -0.89064,-2.20836 -1.625,-3.1875 -1.34982,-1.34982 -2.67611,-2.49926 -4.21875,-3.65625 l 0,0.1875 -10.03125,-6.34375 0,-216.75 27.53125,-16.40625 44.5625,26.25 c 4.82075,3.08529 7.3125,7.49634 7.3125,13.28125 l 0,206.5 m 59.21875,-0.15625 c 0,-1.92831 -0.76986,-3.67611 -2.3125,-5.21875 -1.54264,-1.3498 -3.29045,-2.87427 -5.21875,-4.03125 -1.92831,-1.15699 -4.04045,-2.3171 -5.96875,-3.28125 -2.12113,-0.96415 -3.68676,-1.72869 -4.84375,-2.5 l 0,-216.1875 c 0,-4.242264 -1.71656,-7.311044 -5.1875,-9.625 -1.54264,-0.771326 -4.24248,-2.498544 -7.90625,-4.8125 -3.66378,-2.313967 -7.90333,-5.039718 -12.53125,-8.125 -4.62792,-2.892455 -9.63734,-5.977207 -14.84375,-9.0625 C 305.99399,68.594784 304.64923,67.811654 303.25,67 m 3.8125,266 0,-0.5625 m -63.53125,0.125 c 0.0413,0.1446 0.0921,0.2908 0.125,0.4375 m -138.28125,-0.0937 0,0.0937 m 81.40625,0 0,-0.2812"
       id="path3422"
       inkscape:connector-curvature="0"
       sodipodi:nodetypes="cssccccccccccsccccccccccscccsccscsccccccccccc" />
  </g>
  
tmp/TMP.master:<g
     zpos="-200"
     style="display:none"
     inkscape:label="MMMM-008"
     id="g3237"
     inkscape:groupmode="layer"
     sodipodi:insensitive="true">
    <path
       style="fill:#ffff00;stroke:none"
       d="m 38.125,67 0,2.5 c 8.984366,0.39062 15.429692,1.5625 19.53125,3.125 3.906246,1.75781 6.65625,4.88281 8.21875,9.375 1.56249,4.68749 2.34375,11.91407 2.34375,21.875 l 0,180.0625 c 0,13.67186 -0.78126,23.85157 -2.34375,30.6875 -1.5625,7.03125 -4.304691,12.08594 -8.40625,15.40625 C 56.028904,331.14386 55.026407,332.14321 54,333 l 42.9375,0 c -2.611473,-0.90235 -4.840257,-1.94559 -6.65625,-3.15625 -5.46875,-3.32031 -8.96875,-8.57813 -10.53125,-16 -1.5625,-7.22655 -2.260248,-18.76586 -2.34375,-34.78125 l 0,-191.78125 L 170.75,333 l 15.3125,0 82.0625,-238.90625 0,208.21875 c 0,10.15624 -0.96875,17.38281 -2.53125,21.875 -1.39509,4.18526 -4.04797,7.11846 -7.65625,8.8125 l 83.15625,0 c -3.40647,-1.69347 -5.72892,-4.62427 -7.125,-8.8125 -1.5625,-4.49219 -2.15625,-11.71876 -2.15625,-21.875 l 0,-198.4375 c 0,-9.96093 0.59375,-17.18751 2.15625,-21.875 1.5625,-4.49219 4.27344,-7.61719 8.375,-9.375 C 346.25,71.0625 352.89063,69.89062 361.875,69.5 l 0,-2.5 L 269.25,67 206.84375,256.03125 138.1875,67 38.125,67 z"
       id="path3248"
       inkscape:connector-curvature="0" />
    <path
       style="fill:none;stroke:#00ff00;display:inline"
       d="m 38.125,67 0,2.5 c 8.984366,0.39062 15.429692,1.5625 19.53125,3.125 3.906246,1.75781 6.65625,4.88281 8.21875,9.375 1.56249,4.68749 2.34375,11.91407 2.34375,21.875 l 0,180.0625 c 0,13.67186 -0.78126,23.85157 -2.34375,30.6875 -1.5625,7.03125 -4.304691,12.08594 -8.40625,15.40625 C 56.028904,331.14386 55.026407,332.14321 54,333 m 42.9375,0 c -2.611473,-0.90235 -4.840257,-1.94559 -6.65625,-3.15625 -5.46875,-3.32031 -8.96875,-8.57813 -10.53125,-16 -1.5625,-7.22655 -2.260248,-18.76586 -2.34375,-34.78125 l 0,-191.78125 L 170.75,333 m 15.3125,0 82.0625,-238.90625 0,208.21875 c 0,10.15624 -0.96875,17.38281 -2.53125,21.875 -1.39509,4.18526 -4.04797,7.11846 -7.65625,8.8125 m 83.15625,0 c -3.40647,-1.69347 -5.72892,-4.62427 -7.125,-8.8125 -1.5625,-4.49219 -2.15625,-11.71876 -2.15625,-21.875 l 0,-198.4375 c 0,-9.96093 0.59375,-17.18751 2.15625,-21.875 1.5625,-4.49219 4.27344,-7.61719 8.375,-9.375 C 346.25,71.0625 352.89063,69.89062 361.875,69.5 l 0,-2.5 M 269.25,67 206.84375,256.03125 138.1875,67"
       id="path3248-6"
       inkscape:connector-curvature="0"
       sodipodi:nodetypes="ccccsscccccccccccsccccssccccccc" />
  </g>
  
tmp/TMP.change:<g
     style="display:inline"
     zpos="-180"
     inkscape:label="UKON-001"
     id="g3155"
     inkscape:groupmode="layer"
     sodipodi:insensitive="true">
    <path
       style="fill:none;stroke:#000000;stroke-width:1px;stroke-linecap:square;display:inline"
       d="m 369.5,333 -10,0 -319,0 -10,0"
       id="path3159"
       inkscape:connector-curvature="0"
       sodipodi:nodetypes="cccc" />
    <path
       sodipodi:nodetypes="cccc"
       inkscape:connector-curvature="0"
       id="path3153-3"
       d="m 30.5,67 10,0 319,0 10,0"
       style="fill:none;stroke:#000000;stroke-width:1px;stroke-linecap:square;display:inline" />
  </g>

</svg>
