<?xml version="1.0" encoding="UTF-8" standalone="no"?>
<!-- Created with Inkscape (http://www.inkscape.org/) -->

<svg
   xmlns:dc="http://purl.org/dc/elements/1.1/"
   xmlns:cc="http://creativecommons.org/ns#"
   xmlns:rdf="http://www.w3.org/1999/02/22-rdf-syntax-ns#"
   xmlns:svg="http://www.w3.org/2000/svg"
   xmlns="http://www.w3.org/2000/svg"
   xmlns:sodipodi="http://sodipodi.sourceforge.net/DTD/sodipodi-0.dtd"
   xmlns:inkscape="http://www.inkscape.org/namespaces/inkscape"
   style="display:inline"
   sodipodi:docname="161212_RRRR_00_UW_00_UW_.svg"
   inkscape:version="0.48.3.1 r9886"
   version="1.1"
   id="svg2902"
   height="400"
   width="400">
  <sodipodi:namedview
     id="base"
     pagecolor="#f0f0f0"
     bordercolor="#666666"
     borderopacity="1.0"
     inkscape:pageopacity="1"
     inkscape:pageshadow="2"
     inkscape:zoom="0.95687518"
     inkscape:cx="199.38164"
     inkscape:cy="204.2358"
     inkscape:document-units="px"
     inkscape:current-layer="g3251"
     showgrid="false"
     inkscape:window-width="1018"
     inkscape:window-height="709"
     inkscape:window-x="0"
     inkscape:window-y="1"
     inkscape:window-maximized="0"
     showguides="true"
     inkscape:guide-bbox="true"
     inkscape:snap-bbox="true"
     inkscape:snap-global="false" />
  <defs
     id="defs2904">
    <clipPath
       clipPathUnits="userSpaceOnUse"
       id="clipPath5174">
      <path
         id="path5176"
         style="opacity:0.5;fill:#00ff00;stroke:#00ff00;stroke-width:1px;stroke-linecap:square;display:inline"
         d="m 436.26971,600.11436 -232.09481,134 -169.500003,-293.58262 232.094813,-134 z"
         inkscape:connector-curvature="0"
         sodipodi:nodetypes="ccccc" />
    </clipPath>
    <clipPath
       clipPathUnits="userSpaceOnUse"
       id="clipPath5174-5">
      <path
         id="path5176-9"
         style="opacity:0.5;fill:#00ff00;stroke:#00ff00;stroke-width:1px;stroke-linecap:square;display:inline"
         d="m 436.26971,600.11436 -232.09481,134 -169.500003,-293.58262 232.094813,-134 z"
         inkscape:connector-curvature="0"
         sodipodi:nodetypes="ccccc" />
    </clipPath>
    <clipPath
       clipPathUnits="userSpaceOnUse"
       id="clipPath3238">
      <path
         sodipodi:nodetypes="ccccc"
         inkscape:connector-curvature="0"
         d="m 461.26971,643.41563 -232.09481,134 -169.500002,-293.58262 232.094812,-134 z"
         style="opacity:0.5;fill:#00ff00;stroke:#00ff00;stroke-width:1px;stroke-linecap:square;display:inline"
         id="path3240" />
    </clipPath>
  </defs>
  <metadata
     id="metadata2907">
    <rdf:RDF>
      <cc:Work
         rdf:about="">
        <dc:format>image/svg+xml</dc:format>
        <dc:type
           rdf:resource="http://purl.org/dc/dcmitype/StillImage" />
        <dc:title />
      </cc:Work>
    </rdf:RDF>
  </metadata>
  
tmp/TMP.change:<g
     inkscape:groupmode="layer"
     id="bg"
     inkscape:label="XX_BG"
     sodipodi:insensitive="true">
    <path
       style="fill:#f6ffd5"
       d="M 400,0 400,400 0,400 0,0 z"
       id="bgrect"
       inkscape:connector-curvature="0" />
  </g>
  
tmp/TMP.change:<g
     inkscape:label="XX_Referenz"
     inkscape:groupmode="layer"
     id="XX_referenz"
     style="display:inline"
     sodipodi:insensitive="true">
    <path
       id="innerframe"
       style="fill:none;stroke:#ff0000;stroke-width:1"
       d="m 40.5,40.5 319,0 0,319 -319,0 0,-319 z"
       inkscape:label="#innerframe"
       sodipodi:insensitive="true"
       inkscape:connector-curvature="0" />
    <path
       id="outerframe"
       style="fill:none;stroke:#ff0000;stroke-width:1"
       d="m 30.5,30.5 339,0 0,339 -339,0 0,-339 z"
       inkscape:label="#outerframe"
       sodipodi:nodetypes="ccccc"
       sodipodi:insensitive="true"
       inkscape:connector-curvature="0" />
    <path
       style="opacity:0.5;fill:none;stroke:#ffc200;stroke-width:1px;stroke-linecap:square"
       d="m 189,30.5 0,10"
       id="ref-S-top-1"
       sodipodi:insensitive="true"
       inkscape:connector-curvature="0" />
    <path
       style="opacity:0.5;fill:none;stroke:#ffc200;stroke-width:1px;stroke-linecap:square"
       d="m 191,30.5 0,10"
       id="ref-S-top-2"
       sodipodi:insensitive="true"
       inkscape:connector-curvature="0" />
    <path
       style="opacity:0.5;fill:none;stroke:#ffc200;stroke-width:1px;stroke-linecap:square"
       d="m 209,30.5 0,10"
       id="ref-S-top-3"
       sodipodi:insensitive="true"
       inkscape:connector-curvature="0" />
    <path
       style="opacity:0.5;fill:none;stroke:#ffc200;stroke-width:1px;stroke-linecap:square"
       d="m 211,30.5 0,10"
       id="ref-S-top-4"
       sodipodi:insensitive="true"
       inkscape:connector-curvature="0" />
    <path
       style="opacity:0.5;fill:none;stroke:#00ff00;stroke-width:1px;stroke-linecap:square"
       d="m 199,30.5 0,10"
       id="ref-I-top-1"
       sodipodi:insensitive="true"
       inkscape:connector-curvature="0" />
    <path
       style="opacity:0.5;fill:none;stroke:#00ff00;stroke-width:1px;stroke-linecap:square"
       d="m 201,30.5 0,10"
       id="ref-I-top-2"
       sodipodi:insensitive="true"
       inkscape:connector-curvature="0" />
    <path
       style="opacity:0.5;fill:none;stroke:#00ffcc;stroke-width:1px;stroke-linecap:square"
       d="m 66,30.5 0,10"
       id="ref-C-top-1"
       sodipodi:insensitive="true"
       inkscape:connector-curvature="0" />
    <path
       style="opacity:0.5;fill:none;stroke:#00ffcc;stroke-width:1px;stroke-linecap:square"
       d="m 68,30.5 0,10"
       id="ref-C-top-2"
       sodipodi:insensitive="true"
       inkscape:connector-curvature="0" />
    <path
       style="opacity:0.5;fill:none;stroke:#00ffcc;stroke-width:1px;stroke-linecap:square"
       d="m 92,30.5 0,10"
       id="ref-C-top-3"
       sodipodi:insensitive="true"
       inkscape:connector-curvature="0" />
    <path
       style="opacity:0.5;fill:none;stroke:#00ffcc;stroke-width:1px;stroke-linecap:square"
       d="m 94,30.5 0,10"
       id="ref-C-top-4"
       sodipodi:insensitive="true"
       inkscape:connector-curvature="0" />
    <path
       style="opacity:0.5;fill:none;stroke:#00ffcc;stroke-width:1px;stroke-linecap:square"
       d="m 306,30.5 0,10"
       id="ref-C-top-5"
       sodipodi:insensitive="true"
       inkscape:connector-curvature="0" />
    <path
       style="opacity:0.5;fill:none;stroke:#00ffcc;stroke-width:1px;stroke-linecap:square"
       d="m 308,30.5 0,10"
       id="ref-C-top-6"
       sodipodi:insensitive="true"
       inkscape:connector-curvature="0" />
    <path
       style="opacity:0.5;fill:none;stroke:#00ffcc;stroke-width:1px;stroke-linecap:square"
       d="m 332,30.5 0,10"
       id="ref-C-top-7"
       sodipodi:insensitive="true"
       inkscape:connector-curvature="0" />
    <path
       style="opacity:0.5;fill:none;stroke:#00ffcc;stroke-width:1px;stroke-linecap:square"
       d="m 334,30.5 0,10"
       id="ref-C-top-8"
       sodipodi:insensitive="true"
       inkscape:connector-curvature="0" />
    <path
       style="opacity:0.5;fill:none;stroke:#ffc200;stroke-width:1px;stroke-linecap:square"
       d="m 369.5,189 -10,0"
       id="ref-S-right-1"
       sodipodi:insensitive="true"
       inkscape:connector-curvature="0" />
    <path
       style="opacity:0.5;fill:none;stroke:#ffc200;stroke-width:1px;stroke-linecap:square"
       d="m 369.5,191 -10,0"
       id="ref-S-right-2"
       sodipodi:insensitive="true"
       inkscape:connector-curvature="0" />
    <path
       style="opacity:0.5;fill:none;stroke:#ffc200;stroke-width:1px;stroke-linecap:square"
       d="m 369.5,209 -10,0"
       id="ref-S-right-3"
       sodipodi:insensitive="true"
       inkscape:connector-curvature="0" />
    <path
       style="opacity:0.5;fill:none;stroke:#ffc200;stroke-width:1px;stroke-linecap:square"
       d="m 369.5,211 -10,0"
       id="ref-S-right-4"
       sodipodi:insensitive="true"
       inkscape:connector-curvature="0" />
    <path
       style="opacity:0.5;fill:none;stroke:#00ff00;stroke-width:1px;stroke-linecap:square"
       d="m 369.5,199 -10,0"
       id="ref-I-right-1"
       sodipodi:insensitive="true"
       inkscape:connector-curvature="0" />
    <path
       style="opacity:0.5;fill:none;stroke:#00ff00;stroke-width:1px;stroke-linecap:square"
       d="m 369.5,201 -10,0"
       id="ref-I-right-2"
       sodipodi:insensitive="true"
       inkscape:connector-curvature="0" />
    <path
       style="opacity:0.5;fill:none;stroke:#00ffcc;stroke-width:1px;stroke-linecap:square"
       d="m 369.5,66 -10,0"
       id="ref-C-right-1"
       sodipodi:insensitive="true"
       inkscape:connector-curvature="0" />
    <path
       style="opacity:0.5;fill:none;stroke:#00ffcc;stroke-width:1px;stroke-linecap:square"
       d="m 369.5,68 -10,0"
       id="ref-C-right-2"
       sodipodi:insensitive="true"
       inkscape:connector-curvature="0" />
    <path
       style="opacity:0.5;fill:none;stroke:#00ffcc;stroke-width:1px;stroke-linecap:square"
       d="m 369.5,92 -10,0"
       id="ref-C-right-3"
       sodipodi:insensitive="true"
       inkscape:connector-curvature="0" />
    <path
       style="opacity:0.5;fill:none;stroke:#00ffcc;stroke-width:1px;stroke-linecap:square"
       d="m 369.5,94 -10,0"
       id="ref-C-right-4"
       sodipodi:insensitive="true"
       inkscape:connector-curvature="0" />
    <path
       style="opacity:0.5;fill:none;stroke:#00ffcc;stroke-width:1px;stroke-linecap:square"
       d="m 369.5,306 -10,0"
       id="ref-C-right-5"
       sodipodi:insensitive="true"
       inkscape:connector-curvature="0" />
    <path
       style="opacity:0.5;fill:none;stroke:#00ffcc;stroke-width:1px;stroke-linecap:square"
       d="m 369.5,308 -10,0"
       id="ref-C-right-6"
       sodipodi:insensitive="true"
       inkscape:connector-curvature="0" />
    <path
       style="opacity:0.5;fill:none;stroke:#00ffcc;stroke-width:1px;stroke-linecap:square"
       d="m 369.5,332 -10,0"
       id="ref-C-right-7"
       sodipodi:insensitive="true"
       inkscape:connector-curvature="0" />
    <path
       style="opacity:0.5;fill:none;stroke:#00ffcc;stroke-width:1px;stroke-linecap:square"
       d="m 369.5,334 -10,0"
       id="ref-C-right-8"
       sodipodi:insensitive="true"
       inkscape:connector-curvature="0" />
    <path
       style="opacity:0.5;fill:none;stroke:#ffc200;stroke-width:1px;stroke-linecap:square"
       d="m 189,369.5 0,-10"
       id="ref-S-bottom-1"
       sodipodi:insensitive="true"
       inkscape:connector-curvature="0" />
    <path
       style="opacity:0.5;fill:none;stroke:#ffc200;stroke-width:1px;stroke-linecap:square"
       d="m 191,369.5 0,-10"
       id="ref-S-bottom-2"
       sodipodi:insensitive="true"
       inkscape:connector-curvature="0" />
    <path
       style="opacity:0.5;fill:none;stroke:#ffc200;stroke-width:1px;stroke-linecap:square"
       d="m 209,369.5 0,-10"
       id="ref-S-bottom-3"
       sodipodi:insensitive="true"
       inkscape:connector-curvature="0" />
    <path
       style="opacity:0.5;fill:none;stroke:#ffc200;stroke-width:1px;stroke-linecap:square"
       d="m 211,369.5 0,-10"
       id="ref-S-bottom-4"
       sodipodi:insensitive="true"
       inkscape:connector-curvature="0" />
    <path
       style="opacity:0.5;fill:none;stroke:#00ff00;stroke-width:1px;stroke-linecap:square"
       d="m 199,369.5 0,-10"
       id="ref-I-bottom-1"
       sodipodi:insensitive="true"
       inkscape:connector-curvature="0" />
    <path
       style="opacity:0.5;fill:none;stroke:#00ff00;stroke-width:1px;stroke-linecap:square"
       d="m 201,369.5 0,-10"
       id="ref-I-bottom-2"
       sodipodi:insensitive="true"
       inkscape:connector-curvature="0" />
    <path
       style="opacity:0.5;fill:none;stroke:#00ffcc;stroke-width:1px;stroke-linecap:square"
       d="m 66,369.5 0,-10"
       id="ref-C-bottom-1"
       sodipodi:insensitive="true"
       inkscape:connector-curvature="0" />
    <path
       style="opacity:0.5;fill:none;stroke:#00ffcc;stroke-width:1px;stroke-linecap:square"
       d="m 68,369.5 0,-10"
       id="ref-C-bottom-2"
       sodipodi:insensitive="true"
       inkscape:connector-curvature="0" />
    <path
       style="opacity:0.5;fill:none;stroke:#00ffcc;stroke-width:1px;stroke-linecap:square"
       d="m 92,369.5 0,-10"
       id="ref-C-bottom-3"
       sodipodi:insensitive="true"
       inkscape:connector-curvature="0" />
    <path
       style="opacity:0.5;fill:none;stroke:#00ffcc;stroke-width:1px;stroke-linecap:square"
       d="m 94,369.5 0,-10"
       id="ref-C-bottom-4"
       sodipodi:insensitive="true"
       inkscape:connector-curvature="0" />
    <path
       style="opacity:0.5;fill:none;stroke:#00ffcc;stroke-width:1px;stroke-linecap:square"
       d="m 306,369.5 0,-10"
       id="ref-C-bottom-5"
       sodipodi:insensitive="true"
       inkscape:connector-curvature="0" />
    <path
       style="opacity:0.5;fill:none;stroke:#00ffcc;stroke-width:1px;stroke-linecap:square"
       d="m 308,369.5 0,-10"
       id="ref-C-bottom-6"
       sodipodi:insensitive="true"
       inkscape:connector-curvature="0" />
    <path
       style="opacity:0.5;fill:none;stroke:#00ffcc;stroke-width:1px;stroke-linecap:square"
       d="m 332,369.5 0,-10"
       id="ref-C-bottom-7"
       sodipodi:insensitive="true"
       inkscape:connector-curvature="0" />
    <path
       style="opacity:0.5;fill:none;stroke:#00ffcc;stroke-width:1px;stroke-linecap:square"
       d="m 334,369.5 0,-10"
       id="ref-C-bottom-8"
       sodipodi:insensitive="true"
       inkscape:connector-curvature="0" />
    <path
       style="opacity:0.5;fill:none;stroke:#ffc200;stroke-width:1px;stroke-linecap:square"
       d="m 30.5,189 10,0"
       id="ref-S-left-1"
       sodipodi:insensitive="true"
       inkscape:connector-curvature="0" />
    <path
       style="opacity:0.5;fill:none;stroke:#ffc200;stroke-width:1px;stroke-linecap:square"
       d="m 30.5,191 10,0"
       id="ref-S-left-2"
       sodipodi:insensitive="true"
       inkscape:connector-curvature="0" />
    <path
       style="opacity:0.5;fill:none;stroke:#ffc200;stroke-width:1px;stroke-linecap:square"
       d="m 30.5,209 10,0"
       id="ref-S-left-3"
       sodipodi:insensitive="true"
       inkscape:connector-curvature="0" />
    <path
       style="opacity:0.5;fill:none;stroke:#ffc200;stroke-width:1px;stroke-linecap:square"
       d="m 30.5,211 10,0"
       id="ref-S-left-4"
       sodipodi:insensitive="true"
       inkscape:connector-curvature="0" />
    <path
       style="opacity:0.5;fill:none;stroke:#00ff00;stroke-width:1px;stroke-linecap:square"
       d="m 40.5,199 -10,0"
       id="ref-I-left-1"
       sodipodi:insensitive="true"
       inkscape:connector-curvature="0" />
    <path
       style="opacity:0.5;fill:none;stroke:#00ff00;stroke-width:1px;stroke-linecap:square"
       d="m 40.5,201 -10,0"
       id="ref-I-left-2"
       sodipodi:insensitive="true"
       inkscape:connector-curvature="0" />
    <path
       style="opacity:0.5;fill:none;stroke:#00ffcc;stroke-width:1px;stroke-linecap:square"
       d="m 30.5,66 10,0"
       id="ref-C-left-1"
       sodipodi:insensitive="true"
       inkscape:connector-curvature="0" />
    <path
       style="opacity:0.5;fill:none;stroke:#00ffcc;stroke-width:1px;stroke-linecap:square"
       d="m 30.5,68 10,0"
       id="ref-C-left-2"
       sodipodi:insensitive="true"
       inkscape:connector-curvature="0" />
    <path
       style="opacity:0.5;fill:none;stroke:#00ffcc;stroke-width:1px;stroke-linecap:square"
       d="m 30.5,92 10,0"
       id="ref-C-left-3"
       sodipodi:insensitive="true"
       inkscape:connector-curvature="0" />
    <path
       style="opacity:0.5;fill:none;stroke:#00ffcc;stroke-width:1px;stroke-linecap:square"
       d="m 30.5,94 10,0"
       id="ref-C-left-4"
       sodipodi:insensitive="true"
       inkscape:connector-curvature="0" />
    <path
       style="opacity:0.5;fill:none;stroke:#00ffcc;stroke-width:1px;stroke-linecap:square"
       d="m 30.5,306 10,0"
       id="ref-C-left-5"
       sodipodi:insensitive="true"
       inkscape:connector-curvature="0" />
    <path
       style="opacity:0.5;fill:none;stroke:#00ffcc;stroke-width:1px;stroke-linecap:square"
       d="m 30.5,308 10,0"
       id="ref-C-left-6"
       sodipodi:insensitive="true"
       inkscape:connector-curvature="0" />
    <path
       style="opacity:0.5;fill:none;stroke:#00ffcc;stroke-width:1px;stroke-linecap:square"
       d="m 30.5,332 10,0"
       id="ref-C-left-7"
       sodipodi:insensitive="true"
       inkscape:connector-curvature="0" />
    <path
       style="opacity:0.5;fill:none;stroke:#00ffcc;stroke-width:1px;stroke-linecap:square"
       d="m 30.5,334 10,0"
       id="ref-C-left-8"
       sodipodi:insensitive="true"
       inkscape:connector-curvature="0" />
    <path
       style="fill:none;stroke:#000000;stroke-width:1px;stroke-linecap:square"
       d="m 190,30.5 0,10"
       id="S-top-1"
       inkscape:connector-curvature="0" />
    <path
       style="fill:none;stroke:#000000;stroke-width:1px;stroke-linecap:square"
       d="m 210,30.5 0,10"
       id="S-top-2"
       inkscape:connector-curvature="0" />
    <path
       style="fill:none;stroke:#000000;stroke-width:1px;stroke-linecap:square"
       d="m 369.5,190 -10,0"
       id="S-right-1"
       inkscape:connector-curvature="0" />
    <path
       style="fill:none;stroke:#000000;stroke-width:1px;stroke-linecap:square"
       d="m 369.5,210 -10,0"
       id="S-right-2"
       inkscape:connector-curvature="0" />
    <path
       style="fill:none;stroke:#000000;stroke-width:1px;stroke-linecap:square"
       d="m 190,369.5 0,-10"
       id="S-bottom-1"
       inkscape:connector-curvature="0" />
    <path
       style="fill:none;stroke:#000000;stroke-width:1px;stroke-linecap:square"
       d="m 210,369.5 0,-10"
       id="S-bottom-2"
       inkscape:connector-curvature="0" />
    <path
       style="fill:none;stroke:#000000;stroke-width:1px;stroke-linecap:square"
       d="m 30.5,190 10,0"
       id="S-left-1"
       inkscape:connector-curvature="0" />
    <path
       style="fill:none;stroke:#000000;stroke-width:1px;stroke-linecap:square"
       d="m 30.5,210 10,0"
       id="S-left-2"
       inkscape:connector-curvature="0" />
    <path
       style="fill:none;stroke:#000000;stroke-width:1px;stroke-linecap:square"
       d="m 200,30.5 0,10"
       id="I-top-1"
       inkscape:connector-curvature="0" />
    <path
       style="fill:none;stroke:#000000;stroke-width:1px;stroke-linecap:square"
       d="m 369.5,200 -10,0"
       id="I-right-1"
       inkscape:connector-curvature="0" />
    <path
       style="fill:none;stroke:#000000;stroke-width:1px;stroke-linecap:square"
       d="m 200,369.5 0,-10"
       id="I-bottom-1"
       inkscape:connector-curvature="0" />
    <path
       style="fill:none;stroke:#000000;stroke-width:1px;stroke-linecap:square"
       d="m 40.5,200 -10,0"
       id="I-left-1"
       inkscape:connector-curvature="0" />
    <path
       style="fill:none;stroke:#000000;stroke-width:1px;stroke-linecap:square"
       d="m 67,30.5 0,10"
       id="C-top-1"
       inkscape:connector-curvature="0" />
    <path
       style="fill:none;stroke:#000000;stroke-width:1px;stroke-linecap:square"
       d="m 93,30.5 0,10"
       id="C-top-2"
       inkscape:connector-curvature="0" />
    <path
       style="fill:none;stroke:#000000;stroke-width:1px;stroke-linecap:square"
       d="m 307,30.5 0,10"
       id="C-top-3"
       inkscape:connector-curvature="0" />
    <path
       style="fill:none;stroke:#000000;stroke-width:1px;stroke-linecap:square"
       d="m 333,30.5 0,10"
       id="C-top-4"
       inkscape:connector-curvature="0" />
    <path
       style="fill:none;stroke:#000000;stroke-width:1px;stroke-linecap:square"
       d="m 369.5,67 -10,0"
       id="C-right-1"
       inkscape:connector-curvature="0" />
    <path
       style="fill:none;stroke:#000000;stroke-width:1px;stroke-linecap:square"
       d="m 369.5,93 -10,0"
       id="C-right-2"
       inkscape:connector-curvature="0" />
    <path
       style="fill:none;stroke:#000000;stroke-width:1px;stroke-linecap:square"
       d="m 369.5,307 -10,0"
       id="C-right-3"
       inkscape:connector-curvature="0" />
    <path
       style="fill:none;stroke:#000000;stroke-width:1px;stroke-linecap:square"
       d="m 369.5,333 -10,0"
       id="C-right-4"
       inkscape:connector-curvature="0" />
    <path
       style="fill:none;stroke:#000000;stroke-width:1px;stroke-linecap:square"
       d="m 67,369.5 0,-10"
       id="C-bottom-1"
       inkscape:connector-curvature="0" />
    <path
       style="fill:none;stroke:#000000;stroke-width:1px;stroke-linecap:square"
       d="m 93,369.5 0,-10"
       id="C-bottom-2"
       inkscape:connector-curvature="0" />
    <path
       style="fill:none;stroke:#000000;stroke-width:1px;stroke-linecap:square"
       d="m 307,369.5 0,-10"
       id="C-bottom-3"
       inkscape:connector-curvature="0" />
    <path
       style="fill:none;stroke:#000000;stroke-width:1px;stroke-linecap:square"
       d="m 333,369.5 0,-10"
       id="C-bottom-4"
       inkscape:connector-curvature="0" />
    <path
       style="fill:none;stroke:#000000;stroke-width:1px;stroke-linecap:square"
       d="m 30.5,67 10,0"
       id="C-left-1"
       inkscape:connector-curvature="0" />
    <path
       style="fill:none;stroke:#000000;stroke-width:1px;stroke-linecap:square"
       d="m 30.5,93 10,0"
       id="C-left-2"
       inkscape:connector-curvature="0" />
    <path
       style="fill:none;stroke:#000000;stroke-width:1px;stroke-linecap:square"
       d="m 30.5,307 10,0"
       id="C-left-3"
       inkscape:connector-curvature="0" />
    <path
       style="fill:none;stroke:#000000;stroke-width:1px;stroke-linecap:square"
       d="m 30.5,333 10,0"
       id="C-left-4"
       inkscape:connector-curvature="0" />
  </g>
  
tmp/TMP.change:<g
     inkscape:groupmode="layer"
     id="g3149"
     inkscape:label="OKON-001"
     zpos="-300"
     style="display:inline"
     sodipodi:insensitive="true">
    <path
       sodipodi:nodetypes="ccccc"
       inkscape:connector-curvature="0"
       id="path3147"
       d="m 30.5,307 0,25 339,0 0,-25 z"
       style="fill:#000000;stroke:none;display:inline" />
    <path
       style="fill:#000000;stroke:none;display:inline"
       d="m 30.5,67 0,26 339,0 0,-26 z"
       id="path3118"
       inkscape:connector-curvature="0"
       sodipodi:nodetypes="ccccc" />
    <path
       style="fill:none;stroke:#000000;stroke-width:1px;stroke-linecap:square;display:inline"
       d="m 30.5,93 10,0 319,0 10,0"
       id="C-left-2-6"
       inkscape:connector-curvature="0"
       sodipodi:nodetypes="cccc" />
    <path
       style="fill:none;stroke:#000000;stroke-width:1px;stroke-linecap:square;display:inline"
       d="m 369.5,307 -10,0 -319,0 -10,0"
       id="C-right-3-7"
       inkscape:connector-curvature="0"
       sodipodi:nodetypes="cccc" />
  </g>
  
tmp/TMP.master:<g
     zpos="-200"
     style="display:none"
     inkscape:label="RRRR-001"
     id="g3125"
     inkscape:groupmode="layer">
    <path
       style="fill:#ffffff;stroke:#00ff00;stroke-width:1px"
       d="m 128.80863,51.8823 c -10.28319,0 -15.4248,5.14161 -15.4248,15.22705 l 0,266.37451 c 0,10.6787 4.54835,15.82031 14.04053,15.82031 9.49217,0 14.43603,-5.14161 14.43603,-15.62255 l 0,-103.8208 67.03857,0 55.3711,108.17138 c 3.55957,7.51464 8.10791,11.27197 13.24951,11.27197 9.68993,0 14.63379,-4.94385 14.63379,-15.02929 0,-2.5708 -0.98877,-5.93262 -2.96631,-10.08545 L 237.57328,222.74167 c 22.54392,-9.49217 37.57325,-22.74171 44.89014,-39.74853 6.52587,-15.42479 9.88769,-32.03615 9.88769,-49.83398 0,-18.19335 -6.52589,-34.60695 -19.57763,-48.84522 C 252.99811,62.75879 231.04738,51.8823 206.92143,51.8823 l -78.1128,0"
       id="path3136"
       inkscape:connector-curvature="0" />
    <path
       style="fill:#ffffff;stroke:#00ff00;stroke-width:1px"
       d="m 142.45365,200.79099 0,-120.62988 64.46778,0 c 14.23826,0 27.68555,6.52589 39.94628,19.18213 11.46972,12.06297 17.40235,25.11476 17.40235,38.95752 0,18.58885 -5.33937,32.82716 -16.01807,42.91259 -13.84276,13.05175 -27.4878,19.57764 -41.13281,19.57764 l -64.66553,0"
       id="path3141"
       inkscape:connector-curvature="0" />
  </g>
  
tmp/TMP.master:<g
     zpos="-200"
     style="display:none"
     inkscape:label="RRRR-002"
     id="g3143"
     inkscape:groupmode="layer">
    <path
       style="fill:#ffffff;stroke:#00ff00;stroke-width:1px"
       d="m 104.42004,191.08997 c 0,152.68484 0,142.155 1.215,145.8 1.215,2.83499 2.025,4.455 4.86,6.885 2.43,2.42999 4.05,3.645 6.885,4.86 5.265,1.61999 10.12501,1.21499 14.985,-1.215 2.43,-1.215 4.86,-2.83501 6.48,-4.86 1.215,-1.62 3.24,-5.26501 4.05,-7.29 0.405,-1.62 0.405,-5.26507 0.405,-74.925 l 0,-73.71 13.365,0 13.365,0 43.335,74.925 c 24.29998,40.90496 44.55,75.735 45.36,77.355 0.81,1.61999 2.43,3.24 3.24,4.455 7.28999,7.69499 19.44001,8.50499 27.54,1.215 5.66999,-5.67 7.695,-13.77001 4.86,-21.465 -0.405,-0.405 -18.22502,-31.59004 -40.095,-68.85 l -39.285,-67.635 13.77,0 c 15.79498,0 16.60501,-0.405 23.085,-1.62 20.65498,-5.265 36.85501,-21.87002 42.12,-42.525 1.62,-6.075 1.62,-6.88502 1.62,-22.68 0,-12.14999 0,-14.98501 0,-17.82 -2.835,-24.29998 -20.25002,-44.14501 -43.74,-50.22 -7.28999,-1.62 -0.40508,-1.62 -77.76,-1.62 l -69.66,0 0,140.94"
       id="path3159"
       inkscape:connector-curvature="0" />
    <path
       style="fill:#ffffff;stroke:#00ff00;stroke-width:1px"
       d="m 242.52504,89.43497 c 5.66999,1.61999 10.125,5.265 12.555,10.53 1.62,4.04999 1.62,3.64501 1.62,18.225 0,14.98498 0,14.58 -1.62,18.63 -2.025,4.04999 -5.265,7.29 -9.315,8.91 -4.05,2.02499 1.21495,2.025 -53.46,2.025 l -49.005,0 0,-29.565 0,-29.16 49.005,0 c 46.16995,0 48.6,0 50.22,0.405"
       id="path3154"
       inkscape:connector-curvature="0" />
  </g>
  
tmp/TMP.master:<g
     zpos="-200"
     style="display:none"
     inkscape:label="RRRR-003"
     id="g3161"
     inkscape:groupmode="layer">
    <path
       style="fill:#ffffff;stroke:#00ff00;stroke-width:1px"
       d="m 87.020822,84.06995 c 0,-5.39972 2.43,-11.06971 7.29,-17.01 4.85999,-6.2097 9.989978,-9.3147 15.389998,-9.315 l 112.185,0 c 22.40984,3e-4 41.71482,9.18029 57.915,27.54 16.19979,18.36026 24.29978,39.15024 24.3,62.37 -2.2e-4,17.5502 -5.26521,33.07518 -15.795,46.575 -11.88019,15.39015 -29.56517,26.86514 -53.055,34.425 l 66.015,76.545 c 7.28978,8.37005 10.93477,17.28004 10.935,26.73 -2.3e-4,8.91002 -3.10522,16.47001 -9.315,22.68 -6.21021,6.21 -13.7702,9.315 -22.68,9.315 -12.96018,0 -24.70517,-6.48 -35.235,-19.44 l -89.505,-109.35 0,89.505 c -7e-5,11.88002 -3.51007,21.33002 -10.53,28.35 -7.02005,6.75 -15.25504,10.125 -24.705,10.125 -9.18003,0 -17.01002,-3.24 -23.489998,-9.72 -6.48001,-6.74999 -9.72,-16.33498 -9.72,-28.755 l 0,-240.57"
       id="path3177"
       inkscape:connector-curvature="0" />
    <path
       style="fill:#ffffff;stroke:#00ff00;stroke-width:1px"
       d="m 155.46582,120.51995 0,62.775 50.22,0 c 8.36987,1.8e-4 14.98486,-3.23982 19.845,-9.72 4.31985,-5.66981 6.47985,-12.6898 6.48,-21.06 -1.5e-4,-8.63978 -2.16015,-15.92978 -6.48,-21.87 -5.13014,-6.74976 -11.74513,-10.12476 -19.845,-10.125 l -50.22,0"
       id="path3172"
       inkscape:connector-curvature="0" />
  </g>
  
tmp/TMP.master:<g
     zpos="-200"
     style="display:none"
     inkscape:label="RRRR-004"
     id="g3179"
     inkscape:groupmode="layer">
    <path
       style="fill:#ffffff;stroke:#00ff00;stroke-width:1px"
       d="m 141.7615,224.52153 0,119.44336 -48.0542,0 0,-287.92969 99.07471,0 c 32.03597,2.9e-4 56.8211,7.25126 74.35547,21.75293 17.53396,14.50221 26.30104,35.20043 26.30127,62.09473 -2.3e-4,14.89765 -3.88939,27.75164 -11.66748,38.56201 -7.6467,10.67887 -18.85274,19.24819 -33.61817,25.70801 16.21562,5.14173 27.88309,13.51331 35.00244,25.11474 7.25075,11.60167 10.87624,25.97177 10.87647,43.11036 l 0,23.92822 c -2.3e-4,8.43754 1.05445,16.67727 3.16406,24.71924 2.10914,8.042 5.60279,14.17237 10.48096,18.39111 l 0,4.54834 -49.43848,0 c -5.27363,-4.35058 -8.63544,-11.14013 -10.08545,-20.36865 -1.45038,-9.22849 -2.17547,-18.457 -2.17529,-27.68555 l 0,-23.13721 c -1.8e-4,-14.76554 -4.28485,-26.49892 -12.85401,-35.20019 -8.43766,-8.70106 -19.97329,-13.05164 -34.60693,-13.05176 l -56.75537,0"
       id="path3195"
       inkscape:connector-curvature="0" />
    <path
       style="fill:#ffffff;stroke:#00ff00;stroke-width:1px"
       d="m 141.7615,185.95952 48.44971,0 c 19.2479,1.6e-4 33.28841,-3.69125 42.12158,-11.07422 8.83283,-7.38264 13.24933,-18.6546 13.24951,-33.81592 -1.8e-4,-14.50173 -4.35076,-25.83961 -13.05176,-34.01367 -8.70133,-8.30542 -21.95083,-12.45825 -39.74853,-12.4585 l -51.02051,0 0,91.36231"
       id="path3190"
       inkscape:connector-curvature="0" />
  </g>
  
tmp/TMP.master:<g
     zpos="-200"
     style="display:none"
     inkscape:label="RRRR-005"
     id="g3197"
     inkscape:groupmode="layer">
    <path
       style="fill:#ffffff;stroke:#00ff00;stroke-width:1px"
       d="m 115.63199,332.79004 64.68,0 0,-140.28 34.02,14.7 -1.26,125.58 64.68,0 1.26,-165.06 -35.7,-15.96 35.7,-23.94 0,-69.72 -53.34,-24.36 -45.36,31.92 0,-26.88 -64.68,0 0,294"
       id="path3213"
       inkscape:connector-curvature="0" />
    <path
       style="fill:#ffffff;stroke:#00ff00;stroke-width:1px"
       d="m 180.31199,175.71004 0,-93.24 34.02,14.7 0,54.6 -34.02,23.94"
       id="path3208"
       inkscape:connector-curvature="0" />
  </g>
  
tmp/TMP.master:<g
     zpos="-200"
     style="display:none"
     inkscape:label="RRRR-006"
     id="g3215"
     inkscape:groupmode="layer">
    <path
       style="fill:#ffffff;stroke:#00ff00;stroke-width:1px"
       d="m 99.08621,325.38504 c 0,6.11999 2.88001,11.16 8.64,15.12 5.76,3.96 12.60001,5.76 20.16,5.76 l 35.28,-124.92 c 9.35999,19.07998 19.80001,38.52002 32.04,57.96 11.87999,19.79998 25.20002,37.80002 39.6,54.36 14.39999,16.55998 25.92001,24.48 34.92,24.48 4.32,0 8.64001,-1.44 13.32,-4.32 4.68,-2.88 7.56,-6.84 8.64,-11.52 -8.63999,-6.47999 -16.56,-12.60001 -23.76,-19.08 -7.19999,-6.11999 -14.4,-12.96001 -21.24,-20.88 l -16.2,-18.36 c -4.31999,-4.31999 -9.72,-11.16001 -16.2,-21.24 l -12.6,-18.36 c -1.8,-2.16 -6.48,-9.36001 -13.68,-21.24 l -12.6,-19.8 c 8.63999,0 18.00001,-0.72 27.72,-1.8 9.35999,-0.72 20.88002,-2.88 34.92,-6.48 13.31999,-3.6 25.56001,-7.92 36,-13.32 10.07999,-5.03999 19.08001,-12.60001 26.64,-22.68 7.2,-9.71999 11.16,-21.24001 11.16,-34.2 0,-11.87999 -3.24,-22.32001 -9,-31.68 -6.11999,-9.35999 -14.04001,-16.56 -24.12,-21.96 -10.07999,-5.03999 -20.52001,-9 -31.32,-11.88 -11.15999,-2.52 -22.32001,-3.6 -33.84,-3.96 -24.47997,0 -53.28003,6.84001 -86.76,20.16 0,2.88 1.80001,5.76 5.4,9 3.6,3.6 6.48001,5.04 9,5.04 1.08,0 3.96001,-1.08 8.28,-3.6 4.32,-2.16 10.44001,-5.04 18.72,-8.28 7.55999,-3.24 15.84001,-5.76 24.12,-7.56 -19.43998,44.63996 -34.56001,81.00003 -45,109.08 -10.43999,28.07997 -24.84002,70.20006 -43.2,126.36 -3.59999,10.79999 -5.04,17.28 -5.04,19.8"
       id="path3231"
       inkscape:connector-curvature="0" />
    <path
       style="fill:#ffffff;stroke:#00ff00;stroke-width:1px"
       d="m 171.44621,192.54504 c 17.27999,-56.15994 32.40002,-97.56003 46.08,-124.56 18.35998,0.72 33.84001,4.68001 46.08,12.6 12.23999,7.91999 18.36,20.16002 18.36,37.08 0,15.47999 -5.76001,28.80001 -16.92,39.96 -11.51999,11.51999 -25.20001,19.80001 -41.04,24.84 -15.83998,5.4 -33.48002,8.64 -52.56,10.08"
       id="path3226"
       inkscape:connector-curvature="0" />
  </g>
  
tmp/TMP.master:<g
     zpos="-200"
     style="display:none"
     inkscape:label="RRRR-007"
     id="g3233"
     inkscape:groupmode="layer">
    <path
       inkscape:connector-curvature="0"
       id="path3249"
       d="m 316.2755,354.67367 c 3.16139,-1.68608 6.3228,-4.00445 9.27344,-6.53356 2.95064,-2.52912 5.69053,-5.47977 8.00889,-8.43042 2.1076,-2.95063 3.1614,-5.69052 3.37215,-8.21963 0,-1.89685 -0.84303,-4.21521 -2.31835,-6.32282 -1.47532,-2.1076 -3.1614,-3.58292 -5.05825,-4.63672 l -35.19694,-16.22853 -37.09378,-91.25914 52.90079,-30.56023 c 2.73988,-1.47531 4.84748,-3.58292 6.53356,-6.3228 1.68609,-2.73988 2.31837,-5.69052 2.52912,-9.06268 l 0,-70.604647 c 0,-4.425969 -2.1076,-8.219659 -6.11203,-10.959538 l -97.58196,-62.595756 0,0.210755 c -2.52911,-1.264556 -4.63672,-1.896834 -6.74432,-2.107601 -1.26456,0 -4.00445,1.053801 -7.79813,2.950646 -4.00443,1.896834 -8.64117,4.215202 -13.91016,7.165847 -5.269,2.950634 -10.95954,6.112047 -16.86082,9.484204 -6.11203,3.372156 -11.80257,6.744324 -17.28233,9.905726 -5.47975,3.372156 -10.32724,6.322802 -14.54245,8.851925 -4.2152,2.529123 -7.37661,4.425969 -9.06269,5.269002 l 0,-14.331683 c 0,-4.847479 -2.31837,-8.64117 -6.53356,-11.381049 -1.26456,-0.843045 -3.58293,-2.107612 -6.95509,-4.004446 -3.37215,-1.896845 -6.95508,-3.79369 -10.74876,-5.901279 -3.79368,-1.896846 -7.165856,-3.582924 -10.538013,-5.269014 -3.372157,-1.475311 -5.479757,-2.318356 -6.322802,-2.318356 -2.107601,0 -4.425969,0.843045 -6.744325,2.107601 l 0,-0.210756 c -2.107601,1.264556 -4.636724,2.739879 -7.58737,4.215202 -3.161389,1.686078 -6.112047,3.372156 -9.062681,5.479757 -2.950634,2.107601 -5.690524,4.215213 -7.798125,6.533569 -2.1076,2.529124 -3.161401,5.058247 -3.161401,8.008881 0,2.529123 0.632278,4.847491 1.896834,6.955092 1.264567,2.1076 2.950646,3.793679 5.058246,4.847479 l 24.026665,12.013327 0,255.652062 c -0.210767,4.63672 1.896846,8.4304 6.112035,10.95953 l -0.210755,0 c 1.686078,1.26455 4.004446,2.73989 6.95508,4.84748 2.950642,2.1076 5.901292,4.00444 9.273452,6.11204 z"
       style="fill:#ffffff;stroke:none"
       sodipodi:nodetypes="csccsccccscscccccsccscscsccscccscsssccccscc" />
    <path
       style="fill:#ffffff;stroke:#00ff00;stroke-width:1px"
       d="m 216.79671,234.54039 42.7843,99.9003 c 0.21077,1.26457 1.68609,2.52913 4.00445,4.2152 2.1076,1.68608 4.84749,3.16142 8.00888,4.84749 3.1614,1.68608 6.53357,3.37216 10.32725,5.05824 3.58292,1.68609 7.16586,3.16141 10.53801,4.42597 3.37216,1.26455 6.53357,2.31837 9.48421,3.1614 2.73987,0.84304 4.84747,1.26457 6.3228,1.26457 2.1076,0 4.63672,-0.84305 8.00889,-2.73989 3.16139,-1.68608 6.3228,-4.00445 9.27344,-6.53356 2.95064,-2.52912 5.69053,-5.47977 8.00889,-8.43042 2.1076,-2.95063 3.1614,-5.69052 3.37215,-8.21963 0,-1.89685 -0.84303,-4.21521 -2.31835,-6.32282 -1.47532,-2.1076 -3.1614,-3.58292 -5.05825,-4.63672 l -35.19694,-16.22853 -37.09378,-91.25914 52.90079,-30.56023 c 2.73988,-1.47531 4.84748,-3.58292 6.53356,-6.3228 1.68609,-2.73988 2.31837,-5.69052 2.52912,-9.06268 l 0,-70.604647 c 0,-4.425969 -2.1076,-8.219659 -6.11203,-10.959538 l -97.58196,-62.595756 0,0.210755 c -2.52911,-1.264556 -4.63672,-1.896834 -6.74432,-2.107601 -1.26456,0 -4.00445,1.053801 -7.79813,2.950646 -4.00443,1.896834 -8.64117,4.215202 -13.91016,7.165847 -5.269,2.950634 -10.95954,6.112047 -16.86082,9.484204 -6.11203,3.372156 -11.80257,6.744324 -17.28233,9.905726 -5.47975,3.372156 -10.32724,6.322802 -14.54245,8.851925 -4.2152,2.529123 -7.37661,4.425969 -9.06269,5.269002 l 0,-14.331683 c 0,-4.847479 -2.31837,-8.64117 -6.53356,-11.381049 -1.26456,-0.843045 -3.58293,-2.107612 -6.95509,-4.004446 -3.37215,-1.896845 -6.95508,-3.79369 -10.74876,-5.901279 -3.79368,-1.896846 -7.165856,-3.582924 -10.538013,-5.269014 -3.372157,-1.475311 -5.479757,-2.318356 -6.322802,-2.318356 -2.107601,0 -4.425969,0.843045 -6.744325,2.107601 l 0,-0.210756 c -2.107601,1.264556 -4.636724,2.739879 -7.58737,4.215202 -3.161389,1.686078 -6.112047,3.372156 -9.062681,5.479757 -2.950634,2.107601 -5.690524,4.215213 -7.798125,6.533569 -2.1076,2.529124 -3.161401,5.058247 -3.161401,8.008881 0,2.529123 0.632278,4.847491 1.896834,6.955092 1.264567,2.1076 2.950646,3.793679 5.058246,4.847479 l 24.026665,12.013327 0,255.652062 c -0.210767,4.63672 1.896846,8.4304 6.112035,10.95953 l -0.210755,0 c 1.686078,1.26455 4.004446,2.73989 6.95508,4.84748 2.950642,2.1076 5.901292,4.00444 9.273452,6.11204 3.1614,2.1076 6.32281,4.00445 9.4842,5.47977 3.1614,1.68608 5.90129,2.31836 8.00889,2.31836 2.1076,0 4.2152,-0.84304 6.3228,-2.73988 2.1076,-1.68608 3.79369,-4.00445 5.69053,-6.53357 1.47532,-2.52911 3.1614,-5.05825 4.63672,-7.58736 1.26456,-2.52912 2.31837,-4.42597 3.37217,-5.90129 l -0.21077,0 c 0.63228,-1.0538 1.26457,-2.31836 1.89685,-3.79368 0.42152,-1.26455 0.63228,-2.73988 0.84303,-4.2152 0,-2.1076 -0.63228,-4.00445 -1.89683,-5.69053 -1.26457,-1.68607 -2.95065,-2.95064 -4.63673,-4.2152 l 0,0.21076 -11.17029,-6.95508 0,-216.661438 59.64512,-33.721623 77.34898,50.160921 c 2.31836,1.68608 4.21521,3.58292 5.69052,6.11204 1.47532,2.52912 2.31837,5.26901 2.31837,8.21965 l 0,41.09823 -86.2009,49.95015 c -2.52912,1.47532 -4.63672,3.1614 -6.53357,5.269 -2.1076,2.1076 -2.95065,4.63673 -2.95065,7.58737 0,2.1076 0.42153,4.00445 1.26457,5.90128 0.84304,2.1076 1.89685,3.79369 3.37216,5.47977 1.47532,1.68608 3.16141,2.95065 5.05825,4.00445 1.68607,1.05379 3.58292,1.47531 5.69052,1.47531 1.68608,0 3.58292,-0.21076 5.69052,-1.0538 2.1076,-0.63228 4.00445,-1.47533 6.11205,-2.52913 1.89683,-1.05378 3.79368,-2.1076 5.69053,-3.1614 1.89683,-1.0538 3.58292,-2.1076 5.269,-2.95063"
       id="path3244"
       inkscape:connector-curvature="0" />
  </g>
  
tmp/TMP.master:<g
     zpos="-200"
     style="display:inline"
     inkscape:label="RRRR-008"
     id="g3251"
     inkscape:groupmode="layer">
    <path
       style="fill:#ffffff;stroke:#00ff00;stroke-width:1px"
       d="m 322.86306,342.88994 c 8.20312,-3.51562 16.01563,-9.57032 23.24219,-17.77344 l -5.46875,-4.88281 c -2.73437,3.32031 -5.46875,5.66406 -7.8125,7.03125 -2.34375,1.5625 -5.27344,2.14844 -8.39844,2.14844 -5.07812,0 -8.78906,-1.95313 -11.52344,-6.25 -2.73437,-4.10156 -5.27343,-11.52345 -7.42187,-22.46094 l -8.98438,-41.21094 c -2.34374,-11.1328 -6.64063,-20.3125 -12.5,-27.53906 -5.85936,-7.22655 -14.06251,-12.89063 -24.41406,-16.99219 -10.54686,-3.90624 -23.82814,-6.64062 -39.84375,-8.20312 l -0.19531,0 c 21.87498,-2.34375 39.64845,-7.6172 52.92969,-15.42969 13.28123,-7.81249 22.85157,-17.18751 28.51562,-27.92969 5.46875,-10.54686 8.39844,-21.87501 8.39844,-33.98437 0,-22.2656 -9.37502,-39.25783 -27.92969,-51.36719 -18.55467,-12.10936 -46.09378,-18.16406 -82.8125,-18.16406 l -17.96875,0.19531 c -24.99997,0.39063 -40.03906,0.58594 -44.92187,0.58594 -26.9531,0 -47.26564,-0.39063 -60.74219,-1.17188 l 0,8.00782 c 8.78905,0.39062 15.23438,1.5625 19.33594,3.125 3.90624,1.75781 6.64062,4.88281 8.20312,9.375 1.5625,4.68749 2.34375,11.91407 2.34375,21.875 l 0,198.4375 c 0,10.15624 -0.78125,17.38281 -2.34375,21.875 -1.5625,4.68749 -4.29688,7.8125 -8.20312,9.375 -3.90625,1.75781 -10.35157,2.73437 -19.33594,3.125 l 0,8.00781 c 13.47655,-0.78125 34.57034,-1.17188 63.08594,-1.17188 25.78122,0 46.09376,0.39063 60.54687,1.17188 l 0,-8.00781 c -8.98436,-0.39063 -15.625,-1.36719 -19.53125,-3.125 -4.10156,-1.5625 -6.83594,-4.68751 -8.39844,-9.375 -1.56249,-4.49219 -2.14843,-11.71876 -2.14843,-21.875 l 0,-91.99219 25.97656,0 c 7.81249,0 14.25782,2.34375 18.94531,7.03125 4.6875,4.68749 8.39844,10.74219 11.13281,18.55469 2.53906,7.81249 4.88282,18.35938 7.22657,31.25 l 7.03125,39.84375 c 2.73437,16.0156 8.78907,27.14844 17.77343,33.59375 8.98437,6.64061 21.09377,9.76562 36.32813,9.76562 11.71874,0 21.6797,-1.75782 29.88281,-5.46875"
       id="path3267"
       inkscape:connector-curvature="0" />
    <path
       style="fill:#ffffff;stroke:#00ff00;stroke-width:1px"
       d="m 177.55056,70.429 c 3.51562,-1.95312 8.78907,-2.92968 15.82031,-2.92968 17.57811,0 30.07814,5.66407 37.89063,16.79687 7.81249,11.32811 11.71875,27.7344 11.71875,49.60938 0,13.67186 -1.75782,25.19532 -4.88281,34.76562 -3.125,9.76562 -8.98439,17.38282 -17.38282,23.04688 -8.39842,5.85936 -20.1172,8.59375 -34.96093,8.59375 l -17.1875,0 0,-98.4375 c 0,-9.37499 0.58594,-16.60157 1.95312,-21.48438 1.17188,-4.68749 3.51563,-8.00781 7.03125,-9.96094"
       id="path3262"
       inkscape:connector-curvature="0" />
  </g>
  
tmp/TMP.change:<g
     style="display:inline"
     zpos="-180"
     inkscape:label="UKON-001"
     id="g3155"
     inkscape:groupmode="layer"
     sodipodi:insensitive="true">
    <path
       sodipodi:nodetypes="ccccc"
       inkscape:connector-curvature="0"
       d="m 30.5,369 0,-36 339,0 0,36 z"
       style="fill:#ffffff;stroke:none;display:inline"
       id="path3157" />
    <path
       style="fill:none;stroke:#000000;stroke-width:1px;stroke-linecap:square;display:inline"
       d="m 369.5,333 -10,0 -319,0 -10,0"
       id="path3159"
       inkscape:connector-curvature="0"
       sodipodi:nodetypes="cccc" />
    <path
       id="path3151"
       style="fill:#ffffff;stroke:none;display:inline"
       d="m 369.5,26 0,41 -339,0 0,-41 z"
       inkscape:connector-curvature="0"
       sodipodi:nodetypes="ccccc" />
    <path
       sodipodi:nodetypes="cccc"
       inkscape:connector-curvature="0"
       id="path3153"
       d="m 30.5,67 10,0 319,0 10,0"
       style="fill:none;stroke:#000000;stroke-width:1px;stroke-linecap:square;display:inline" />
  </g>

</svg>
