<?xml version="1.0" encoding="UTF-8" standalone="no"?>
<!-- Created with Inkscape (http://www.inkscape.org/) -->

<svg
   xmlns:dc="http://purl.org/dc/elements/1.1/"
   xmlns:cc="http://creativecommons.org/ns#"
   xmlns:rdf="http://www.w3.org/1999/02/22-rdf-syntax-ns#"
   xmlns:svg="http://www.w3.org/2000/svg"
   xmlns="http://www.w3.org/2000/svg"
   xmlns:sodipodi="http://sodipodi.sourceforge.net/DTD/sodipodi-0.dtd"
   xmlns:inkscape="http://www.inkscape.org/namespaces/inkscape"
   style="display:inline"
   sodipodi:docname="181212_WWWW-MR+-MR+_CW_CW_CW_00_.svg"
   inkscape:version="0.48.3.1 r9886"
   version="1.1"
   id="svg2902"
   height="400"
   width="400"><sodipodi:namedview
   id="base"
   pagecolor="#f0f0f0"
   bordercolor="#666666"
   borderopacity="1.0"
   inkscape:pageopacity="1"
   inkscape:pageshadow="2"
   inkscape:zoom="1.1053655"
   inkscape:cx="258.02155"
   inkscape:cy="133.35532"
   inkscape:document-units="px"
   inkscape:current-layer="g3157"
   showgrid="false"
   inkscape:window-width="1018"
   inkscape:window-height="709"
   inkscape:window-x="0"
   inkscape:window-y="1"
   inkscape:window-maximized="0"
   showguides="true"
   inkscape:guide-bbox="true"
   inkscape:snap-bbox="true"
   inkscape:snap-global="false" />
<defs
   id="defs2904">
  <clipPath
     clipPathUnits="userSpaceOnUse"
     id="clipPath5174">
    <path
       id="path5176"
       style="opacity:0.5;fill:#00ff00;stroke:#00ff00;stroke-width:1px;stroke-linecap:square;display:inline"
       d="m 436.26971,600.11436 -232.09481,134 -169.500003,-293.58262 232.094813,-134 z"
       inkscape:connector-curvature="0"
       sodipodi:nodetypes="ccccc" />
  </clipPath>
  <clipPath
     clipPathUnits="userSpaceOnUse"
     id="clipPath5174-5">
    <path
       id="path5176-9"
       style="opacity:0.5;fill:#00ff00;stroke:#00ff00;stroke-width:1px;stroke-linecap:square;display:inline"
       d="m 436.26971,600.11436 -232.09481,134 -169.500003,-293.58262 232.094813,-134 z"
       inkscape:connector-curvature="0"
       sodipodi:nodetypes="ccccc" />
  </clipPath>
  <clipPath
     clipPathUnits="userSpaceOnUse"
     id="clipPath3238">
    <path
       sodipodi:nodetypes="ccccc"
       inkscape:connector-curvature="0"
       d="m 461.26971,643.41563 -232.09481,134 -169.500002,-293.58262 232.094812,-134 z"
       style="opacity:0.5;fill:#00ff00;stroke:#00ff00;stroke-width:1px;stroke-linecap:square;display:inline"
       id="path3240" />
  </clipPath>
  <clipPath
     clipPathUnits="userSpaceOnUse"
     id="clipPath3277">
    <path
       sodipodi:nodetypes="ccccc"
       inkscape:connector-curvature="0"
       d="m 399.5,67 0,265 -409,0 0,-265 z"
       style="opacity:0.5;fill:#00ff00;stroke:none;display:inline"
       id="path3279" />
  </clipPath>
</defs>
<metadata
   id="metadata2907">
  <rdf:RDF>
    <cc:Work
       rdf:about="">
      <dc:format>image/svg+xml</dc:format>
      <dc:type
         rdf:resource="http://purl.org/dc/dcmitype/StillImage" />
      <dc:title />
    </cc:Work>
  </rdf:RDF>
</metadata>


  
tmp/TMP.change:
tmp/TMP.change:
tmp/TMP.change:<g
     inkscape:groupmode="layer"
     id="bg"
     inkscape:label="XX_BG"
     sodipodi:insensitive="true">
    <path
       style="fill:#f6ffd5"
       d="M 400,0 400,400 0,400 0,0 z"
       id="bgrect"
       inkscape:connector-curvature="0" />
  </g>
  
tmp/TMP.change:<g
     inkscape:label="XX_Referenz"
     inkscape:groupmode="layer"
     id="XX_referenz"
     style="display:inline"
     sodipodi:insensitive="true">
    <path
       id="innerframe"
       style="fill:none;stroke:#ff0000;stroke-width:1"
       d="m 40.5,40.5 319,0 0,319 -319,0 0,-319 z"
       inkscape:label="#innerframe"
       sodipodi:insensitive="true"
       inkscape:connector-curvature="0" />
    <path
       id="outerframe"
       style="fill:none;stroke:#ff0000;stroke-width:1"
       d="m 30.5,30.5 339,0 0,339 -339,0 0,-339 z"
       inkscape:label="#outerframe"
       sodipodi:nodetypes="ccccc"
       sodipodi:insensitive="true"
       inkscape:connector-curvature="0" />
    <path
       style="opacity:0.5;fill:none;stroke:#ffc200;stroke-width:1px;stroke-linecap:square"
       d="m 189,30.5 0,10"
       id="ref-S-top-1"
       sodipodi:insensitive="true"
       inkscape:connector-curvature="0" />
    <path
       style="opacity:0.5;fill:none;stroke:#ffc200;stroke-width:1px;stroke-linecap:square"
       d="m 191,30.5 0,10"
       id="ref-S-top-2"
       sodipodi:insensitive="true"
       inkscape:connector-curvature="0" />
    <path
       style="opacity:0.5;fill:none;stroke:#ffc200;stroke-width:1px;stroke-linecap:square"
       d="m 209,30.5 0,10"
       id="ref-S-top-3"
       sodipodi:insensitive="true"
       inkscape:connector-curvature="0" />
    <path
       style="opacity:0.5;fill:none;stroke:#ffc200;stroke-width:1px;stroke-linecap:square"
       d="m 211,30.5 0,10"
       id="ref-S-top-4"
       sodipodi:insensitive="true"
       inkscape:connector-curvature="0" />
    <path
       style="opacity:0.5;fill:none;stroke:#00ff00;stroke-width:1px;stroke-linecap:square"
       d="m 199,30.5 0,10"
       id="ref-I-top-1"
       sodipodi:insensitive="true"
       inkscape:connector-curvature="0" />
    <path
       style="opacity:0.5;fill:none;stroke:#00ff00;stroke-width:1px;stroke-linecap:square"
       d="m 201,30.5 0,10"
       id="ref-I-top-2"
       sodipodi:insensitive="true"
       inkscape:connector-curvature="0" />
    <path
       style="opacity:0.5;fill:none;stroke:#00ffcc;stroke-width:1px;stroke-linecap:square"
       d="m 66,30.5 0,10"
       id="ref-C-top-1"
       sodipodi:insensitive="true"
       inkscape:connector-curvature="0" />
    <path
       style="opacity:0.5;fill:none;stroke:#00ffcc;stroke-width:1px;stroke-linecap:square"
       d="m 68,30.5 0,10"
       id="ref-C-top-2"
       sodipodi:insensitive="true"
       inkscape:connector-curvature="0" />
    <path
       style="opacity:0.5;fill:none;stroke:#00ffcc;stroke-width:1px;stroke-linecap:square"
       d="m 92,30.5 0,10"
       id="ref-C-top-3"
       sodipodi:insensitive="true"
       inkscape:connector-curvature="0" />
    <path
       style="opacity:0.5;fill:none;stroke:#00ffcc;stroke-width:1px;stroke-linecap:square"
       d="m 94,30.5 0,10"
       id="ref-C-top-4"
       sodipodi:insensitive="true"
       inkscape:connector-curvature="0" />
    <path
       style="opacity:0.5;fill:none;stroke:#00ffcc;stroke-width:1px;stroke-linecap:square"
       d="m 306,30.5 0,10"
       id="ref-C-top-5"
       sodipodi:insensitive="true"
       inkscape:connector-curvature="0" />
    <path
       style="opacity:0.5;fill:none;stroke:#00ffcc;stroke-width:1px;stroke-linecap:square"
       d="m 308,30.5 0,10"
       id="ref-C-top-6"
       sodipodi:insensitive="true"
       inkscape:connector-curvature="0" />
    <path
       style="opacity:0.5;fill:none;stroke:#00ffcc;stroke-width:1px;stroke-linecap:square"
       d="m 332,30.5 0,10"
       id="ref-C-top-7"
       sodipodi:insensitive="true"
       inkscape:connector-curvature="0" />
    <path
       style="opacity:0.5;fill:none;stroke:#00ffcc;stroke-width:1px;stroke-linecap:square"
       d="m 334,30.5 0,10"
       id="ref-C-top-8"
       sodipodi:insensitive="true"
       inkscape:connector-curvature="0" />
    <path
       style="opacity:0.5;fill:none;stroke:#ffc200;stroke-width:1px;stroke-linecap:square"
       d="m 369.5,189 -10,0"
       id="ref-S-right-1"
       sodipodi:insensitive="true"
       inkscape:connector-curvature="0" />
    <path
       style="opacity:0.5;fill:none;stroke:#ffc200;stroke-width:1px;stroke-linecap:square"
       d="m 369.5,191 -10,0"
       id="ref-S-right-2"
       sodipodi:insensitive="true"
       inkscape:connector-curvature="0" />
    <path
       style="opacity:0.5;fill:none;stroke:#ffc200;stroke-width:1px;stroke-linecap:square"
       d="m 369.5,209 -10,0"
       id="ref-S-right-3"
       sodipodi:insensitive="true"
       inkscape:connector-curvature="0" />
    <path
       style="opacity:0.5;fill:none;stroke:#ffc200;stroke-width:1px;stroke-linecap:square"
       d="m 369.5,211 -10,0"
       id="ref-S-right-4"
       sodipodi:insensitive="true"
       inkscape:connector-curvature="0" />
    <path
       style="opacity:0.5;fill:none;stroke:#00ff00;stroke-width:1px;stroke-linecap:square"
       d="m 369.5,199 -10,0"
       id="ref-I-right-1"
       sodipodi:insensitive="true"
       inkscape:connector-curvature="0" />
    <path
       style="opacity:0.5;fill:none;stroke:#00ff00;stroke-width:1px;stroke-linecap:square"
       d="m 369.5,201 -10,0"
       id="ref-I-right-2"
       sodipodi:insensitive="true"
       inkscape:connector-curvature="0" />
    <path
       style="opacity:0.5;fill:none;stroke:#00ffcc;stroke-width:1px;stroke-linecap:square"
       d="m 369.5,66 -10,0"
       id="ref-C-right-1"
       sodipodi:insensitive="true"
       inkscape:connector-curvature="0" />
    <path
       style="opacity:0.5;fill:none;stroke:#00ffcc;stroke-width:1px;stroke-linecap:square"
       d="m 369.5,68 -10,0"
       id="ref-C-right-2"
       sodipodi:insensitive="true"
       inkscape:connector-curvature="0" />
    <path
       style="opacity:0.5;fill:none;stroke:#00ffcc;stroke-width:1px;stroke-linecap:square"
       d="m 369.5,92 -10,0"
       id="ref-C-right-3"
       sodipodi:insensitive="true"
       inkscape:connector-curvature="0" />
    <path
       style="opacity:0.5;fill:none;stroke:#00ffcc;stroke-width:1px;stroke-linecap:square"
       d="m 369.5,94 -10,0"
       id="ref-C-right-4"
       sodipodi:insensitive="true"
       inkscape:connector-curvature="0" />
    <path
       style="opacity:0.5;fill:none;stroke:#00ffcc;stroke-width:1px;stroke-linecap:square"
       d="m 369.5,306 -10,0"
       id="ref-C-right-5"
       sodipodi:insensitive="true"
       inkscape:connector-curvature="0" />
    <path
       style="opacity:0.5;fill:none;stroke:#00ffcc;stroke-width:1px;stroke-linecap:square"
       d="m 369.5,308 -10,0"
       id="ref-C-right-6"
       sodipodi:insensitive="true"
       inkscape:connector-curvature="0" />
    <path
       style="opacity:0.5;fill:none;stroke:#00ffcc;stroke-width:1px;stroke-linecap:square"
       d="m 369.5,332 -10,0"
       id="ref-C-right-7"
       sodipodi:insensitive="true"
       inkscape:connector-curvature="0" />
    <path
       style="opacity:0.5;fill:none;stroke:#00ffcc;stroke-width:1px;stroke-linecap:square"
       d="m 369.5,334 -10,0"
       id="ref-C-right-8"
       sodipodi:insensitive="true"
       inkscape:connector-curvature="0" />
    <path
       style="opacity:0.5;fill:none;stroke:#ffc200;stroke-width:1px;stroke-linecap:square"
       d="m 189,369.5 0,-10"
       id="ref-S-bottom-1"
       sodipodi:insensitive="true"
       inkscape:connector-curvature="0" />
    <path
       style="opacity:0.5;fill:none;stroke:#ffc200;stroke-width:1px;stroke-linecap:square"
       d="m 191,369.5 0,-10"
       id="ref-S-bottom-2"
       sodipodi:insensitive="true"
       inkscape:connector-curvature="0" />
    <path
       style="opacity:0.5;fill:none;stroke:#ffc200;stroke-width:1px;stroke-linecap:square"
       d="m 209,369.5 0,-10"
       id="ref-S-bottom-3"
       sodipodi:insensitive="true"
       inkscape:connector-curvature="0" />
    <path
       style="opacity:0.5;fill:none;stroke:#ffc200;stroke-width:1px;stroke-linecap:square"
       d="m 211,369.5 0,-10"
       id="ref-S-bottom-4"
       sodipodi:insensitive="true"
       inkscape:connector-curvature="0" />
    <path
       style="opacity:0.5;fill:none;stroke:#00ff00;stroke-width:1px;stroke-linecap:square"
       d="m 199,369.5 0,-10"
       id="ref-I-bottom-1"
       sodipodi:insensitive="true"
       inkscape:connector-curvature="0" />
    <path
       style="opacity:0.5;fill:none;stroke:#00ff00;stroke-width:1px;stroke-linecap:square"
       d="m 201,369.5 0,-10"
       id="ref-I-bottom-2"
       sodipodi:insensitive="true"
       inkscape:connector-curvature="0" />
    <path
       style="opacity:0.5;fill:none;stroke:#00ffcc;stroke-width:1px;stroke-linecap:square"
       d="m 66,369.5 0,-10"
       id="ref-C-bottom-1"
       sodipodi:insensitive="true"
       inkscape:connector-curvature="0" />
    <path
       style="opacity:0.5;fill:none;stroke:#00ffcc;stroke-width:1px;stroke-linecap:square"
       d="m 68,369.5 0,-10"
       id="ref-C-bottom-2"
       sodipodi:insensitive="true"
       inkscape:connector-curvature="0" />
    <path
       style="opacity:0.5;fill:none;stroke:#00ffcc;stroke-width:1px;stroke-linecap:square"
       d="m 92,369.5 0,-10"
       id="ref-C-bottom-3"
       sodipodi:insensitive="true"
       inkscape:connector-curvature="0" />
    <path
       style="opacity:0.5;fill:none;stroke:#00ffcc;stroke-width:1px;stroke-linecap:square"
       d="m 94,369.5 0,-10"
       id="ref-C-bottom-4"
       sodipodi:insensitive="true"
       inkscape:connector-curvature="0" />
    <path
       style="opacity:0.5;fill:none;stroke:#00ffcc;stroke-width:1px;stroke-linecap:square"
       d="m 306,369.5 0,-10"
       id="ref-C-bottom-5"
       sodipodi:insensitive="true"
       inkscape:connector-curvature="0" />
    <path
       style="opacity:0.5;fill:none;stroke:#00ffcc;stroke-width:1px;stroke-linecap:square"
       d="m 308,369.5 0,-10"
       id="ref-C-bottom-6"
       sodipodi:insensitive="true"
       inkscape:connector-curvature="0" />
    <path
       style="opacity:0.5;fill:none;stroke:#00ffcc;stroke-width:1px;stroke-linecap:square"
       d="m 332,369.5 0,-10"
       id="ref-C-bottom-7"
       sodipodi:insensitive="true"
       inkscape:connector-curvature="0" />
    <path
       style="opacity:0.5;fill:none;stroke:#00ffcc;stroke-width:1px;stroke-linecap:square"
       d="m 334,369.5 0,-10"
       id="ref-C-bottom-8"
       sodipodi:insensitive="true"
       inkscape:connector-curvature="0" />
    <path
       style="opacity:0.5;fill:none;stroke:#ffc200;stroke-width:1px;stroke-linecap:square"
       d="m 30.5,189 10,0"
       id="ref-S-left-1"
       sodipodi:insensitive="true"
       inkscape:connector-curvature="0" />
    <path
       style="opacity:0.5;fill:none;stroke:#ffc200;stroke-width:1px;stroke-linecap:square"
       d="m 30.5,191 10,0"
       id="ref-S-left-2"
       sodipodi:insensitive="true"
       inkscape:connector-curvature="0" />
    <path
       style="opacity:0.5;fill:none;stroke:#ffc200;stroke-width:1px;stroke-linecap:square"
       d="m 30.5,209 10,0"
       id="ref-S-left-3"
       sodipodi:insensitive="true"
       inkscape:connector-curvature="0" />
    <path
       style="opacity:0.5;fill:none;stroke:#ffc200;stroke-width:1px;stroke-linecap:square"
       d="m 30.5,211 10,0"
       id="ref-S-left-4"
       sodipodi:insensitive="true"
       inkscape:connector-curvature="0" />
    <path
       style="opacity:0.5;fill:none;stroke:#00ff00;stroke-width:1px;stroke-linecap:square"
       d="m 40.5,199 -10,0"
       id="ref-I-left-1"
       sodipodi:insensitive="true"
       inkscape:connector-curvature="0" />
    <path
       style="opacity:0.5;fill:none;stroke:#00ff00;stroke-width:1px;stroke-linecap:square"
       d="m 40.5,201 -10,0"
       id="ref-I-left-2"
       sodipodi:insensitive="true"
       inkscape:connector-curvature="0" />
    <path
       style="opacity:0.5;fill:none;stroke:#00ffcc;stroke-width:1px;stroke-linecap:square"
       d="m 30.5,66 10,0"
       id="ref-C-left-1"
       sodipodi:insensitive="true"
       inkscape:connector-curvature="0" />
    <path
       style="opacity:0.5;fill:none;stroke:#00ffcc;stroke-width:1px;stroke-linecap:square"
       d="m 30.5,68 10,0"
       id="ref-C-left-2"
       sodipodi:insensitive="true"
       inkscape:connector-curvature="0" />
    <path
       style="opacity:0.5;fill:none;stroke:#00ffcc;stroke-width:1px;stroke-linecap:square"
       d="m 30.5,92 10,0"
       id="ref-C-left-3"
       sodipodi:insensitive="true"
       inkscape:connector-curvature="0" />
    <path
       style="opacity:0.5;fill:none;stroke:#00ffcc;stroke-width:1px;stroke-linecap:square"
       d="m 30.5,94 10,0"
       id="ref-C-left-4"
       sodipodi:insensitive="true"
       inkscape:connector-curvature="0" />
    <path
       style="opacity:0.5;fill:none;stroke:#00ffcc;stroke-width:1px;stroke-linecap:square"
       d="m 30.5,306 10,0"
       id="ref-C-left-5"
       sodipodi:insensitive="true"
       inkscape:connector-curvature="0" />
    <path
       style="opacity:0.5;fill:none;stroke:#00ffcc;stroke-width:1px;stroke-linecap:square"
       d="m 30.5,308 10,0"
       id="ref-C-left-6"
       sodipodi:insensitive="true"
       inkscape:connector-curvature="0" />
    <path
       style="opacity:0.5;fill:none;stroke:#00ffcc;stroke-width:1px;stroke-linecap:square"
       d="m 30.5,332 10,0"
       id="ref-C-left-7"
       sodipodi:insensitive="true"
       inkscape:connector-curvature="0" />
    <path
       style="opacity:0.5;fill:none;stroke:#00ffcc;stroke-width:1px;stroke-linecap:square"
       d="m 30.5,334 10,0"
       id="ref-C-left-8"
       sodipodi:insensitive="true"
       inkscape:connector-curvature="0" />
    <path
       style="fill:none;stroke:#000000;stroke-width:1px;stroke-linecap:square"
       d="m 190,30.5 0,10"
       id="S-top-1"
       inkscape:connector-curvature="0" />
    <path
       style="fill:none;stroke:#000000;stroke-width:1px;stroke-linecap:square"
       d="m 210,30.5 0,10"
       id="S-top-2"
       inkscape:connector-curvature="0" />
    <path
       style="fill:none;stroke:#000000;stroke-width:1px;stroke-linecap:square"
       d="m 369.5,190 -10,0"
       id="S-right-1"
       inkscape:connector-curvature="0" />
    <path
       style="fill:none;stroke:#000000;stroke-width:1px;stroke-linecap:square"
       d="m 369.5,210 -10,0"
       id="S-right-2"
       inkscape:connector-curvature="0" />
    <path
       style="fill:none;stroke:#000000;stroke-width:1px;stroke-linecap:square"
       d="m 190,369.5 0,-10"
       id="S-bottom-1"
       inkscape:connector-curvature="0" />
    <path
       style="fill:none;stroke:#000000;stroke-width:1px;stroke-linecap:square"
       d="m 210,369.5 0,-10"
       id="S-bottom-2"
       inkscape:connector-curvature="0" />
    <path
       style="fill:none;stroke:#000000;stroke-width:1px;stroke-linecap:square"
       d="m 30.5,190 10,0"
       id="S-left-1"
       inkscape:connector-curvature="0" />
    <path
       style="fill:none;stroke:#000000;stroke-width:1px;stroke-linecap:square"
       d="m 30.5,210 10,0"
       id="S-left-2"
       inkscape:connector-curvature="0" />
    <path
       style="fill:none;stroke:#000000;stroke-width:1px;stroke-linecap:square"
       d="m 200,30.5 0,10"
       id="I-top-1"
       inkscape:connector-curvature="0" />
    <path
       style="fill:none;stroke:#000000;stroke-width:1px;stroke-linecap:square"
       d="m 369.5,200 -10,0"
       id="I-right-1"
       inkscape:connector-curvature="0" />
    <path
       style="fill:none;stroke:#000000;stroke-width:1px;stroke-linecap:square"
       d="m 200,369.5 0,-10"
       id="I-bottom-1"
       inkscape:connector-curvature="0" />
    <path
       style="fill:none;stroke:#000000;stroke-width:1px;stroke-linecap:square"
       d="m 40.5,200 -10,0"
       id="I-left-1"
       inkscape:connector-curvature="0" />
    <path
       style="fill:none;stroke:#000000;stroke-width:1px;stroke-linecap:square"
       d="m 67,30.5 0,10"
       id="C-top-1"
       inkscape:connector-curvature="0" />
    <path
       style="fill:none;stroke:#000000;stroke-width:1px;stroke-linecap:square"
       d="m 93,30.5 0,10"
       id="C-top-2"
       inkscape:connector-curvature="0" />
    <path
       style="fill:none;stroke:#000000;stroke-width:1px;stroke-linecap:square"
       d="m 307,30.5 0,10"
       id="C-top-3"
       inkscape:connector-curvature="0" />
    <path
       style="fill:none;stroke:#000000;stroke-width:1px;stroke-linecap:square"
       d="m 333,30.5 0,10"
       id="C-top-4"
       inkscape:connector-curvature="0" />
    <path
       style="fill:none;stroke:#000000;stroke-width:1px;stroke-linecap:square"
       d="m 369.5,67 -10,0"
       id="C-right-1"
       inkscape:connector-curvature="0" />
    <path
       style="fill:none;stroke:#000000;stroke-width:1px;stroke-linecap:square"
       d="m 369.5,93 -10,0"
       id="C-right-2"
       inkscape:connector-curvature="0" />
    <path
       style="fill:none;stroke:#000000;stroke-width:1px;stroke-linecap:square"
       d="m 369.5,307 -10,0"
       id="C-right-3"
       inkscape:connector-curvature="0" />
    <path
       style="fill:none;stroke:#000000;stroke-width:1px;stroke-linecap:square"
       d="m 369.5,333 -10,0"
       id="C-right-4"
       inkscape:connector-curvature="0" />
    <path
       style="fill:none;stroke:#000000;stroke-width:1px;stroke-linecap:square"
       d="m 67,369.5 0,-10"
       id="C-bottom-1"
       inkscape:connector-curvature="0" />
    <path
       style="fill:none;stroke:#000000;stroke-width:1px;stroke-linecap:square"
       d="m 93,369.5 0,-10"
       id="C-bottom-2"
       inkscape:connector-curvature="0" />
    <path
       style="fill:none;stroke:#000000;stroke-width:1px;stroke-linecap:square"
       d="m 307,369.5 0,-10"
       id="C-bottom-3"
       inkscape:connector-curvature="0" />
    <path
       style="fill:none;stroke:#000000;stroke-width:1px;stroke-linecap:square"
       d="m 333,369.5 0,-10"
       id="C-bottom-4"
       inkscape:connector-curvature="0" />
    <path
       style="fill:none;stroke:#000000;stroke-width:1px;stroke-linecap:square"
       d="m 30.5,67 10,0"
       id="C-left-1"
       inkscape:connector-curvature="0" />
    <path
       style="fill:none;stroke:#000000;stroke-width:1px;stroke-linecap:square"
       d="m 30.5,93 10,0"
       id="C-left-2"
       inkscape:connector-curvature="0" />
    <path
       style="fill:none;stroke:#000000;stroke-width:1px;stroke-linecap:square"
       d="m 30.5,307 10,0"
       id="C-left-3"
       inkscape:connector-curvature="0" />
    <path
       style="fill:none;stroke:#000000;stroke-width:1px;stroke-linecap:square"
       d="m 30.5,333 10,0"
       id="C-left-4"
       inkscape:connector-curvature="0" />
  </g>
  
tmp/TMP.change:<g
     inkscape:groupmode="layer"
     id="g3149"
     inkscape:label="OKON-001"
     zpos="-300"
     style="display:inline"
     sodipodi:insensitive="true">
    <path
       sodipodi:nodetypes="ccccc"
       inkscape:connector-curvature="0"
       id="path3147"
       d="m 30.5,307 0,26 339,0 0,-26 z"
       style="fill:#ffffff;stroke:none;display:inline" />
    <path
       style="fill:#ffffff;stroke:none;display:inline"
       d="m 30.5,67 0,26 339,0 0,-26 z"
       id="path3118"
       inkscape:connector-curvature="0"
       sodipodi:nodetypes="ccccc" />
    <path
       style="fill:none;stroke:#000000;stroke-width:1px;stroke-linecap:square;display:inline"
       d="m 307,93.5 0,213"
       id="path3178-9"
       inkscape:connector-curvature="0"
       sodipodi:nodetypes="cc" />
    <path
       style="fill:none;stroke:#000000;stroke-width:1px;stroke-linecap:square;display:inline"
       d="m 369.5,307 -10,0 -285,0 -10,0"
       id="C-right-3-7"
       inkscape:connector-curvature="0"
       sodipodi:nodetypes="cccc" />
    <path
       style="fill:none;stroke:#000000;stroke-width:1px;stroke-linecap:square;display:inline"
       d="m 30.5,93 10,0 319,0 10,0"
       id="C-left-2-6"
       inkscape:connector-curvature="0"
       sodipodi:nodetypes="cccc" />
  </g>
  
tmp/TMP.master:<g
   zpos="-200"
   style="display:none"
   inkscape:label="WWWW-001"
   id="g3125"
   inkscape:groupmode="layer"
   sodipodi:insensitive="true">
  <path
     style="fill:#ffffff;stroke:none"
     d="m 35.65625,67 c 0.08944,1.690905 0.240701,3.172263 0.5,4.46875 L 94.53125,333 125.8125,333 169.625,200.59375 213.875,333 244.96875,333 303.125,74.03125 c 0.53717,-2.417284 0.88983,-4.735008 1.0625,-7.03125 l -28.75,0 -48.0625,213.875 -42.3125,-126.34375 c -3.16406,-9.49218 -7.92189,-14.4375 -14.25,-14.4375 -7.51465,0 -12.84619,4.54884 -15.8125,13.25 l -42.71875,126.75 L 64.96875,67 35.65625,67 z"
     id="path3136"
     inkscape:connector-curvature="0" />
  <path
     style="fill:none;stroke:#00ff00;stroke-width:1px;display:inline"
     d="m 35.65625,67 c 0.08944,1.690905 0.240701,3.172263 0.5,4.46875 L 94.53125,333 M 125.8125,333 169.625,200.59375 213.875,333 m 31.09375,0 L 303.125,74.03125 c 0.53717,-2.417284 0.88983,-4.735008 1.0625,-7.03125 m -28.75,0 -48.0625,213.875 -42.3125,-126.34375 c -3.16406,-9.49218 -7.92189,-14.4375 -14.25,-14.4375 -7.51465,0 -12.84619,4.54884 -15.8125,13.25 l -42.71875,126.75 L 64.96875,67"
     id="path3136-6"
     inkscape:connector-curvature="0"
     sodipodi:nodetypes="ccccccccccccsccc" />
</g>


  
tmp/TMP.master:
tmp/TMP.master:
tmp/TMP.master:<g
   zpos="-200"
   style="display:none"
   inkscape:label="WWWW-002"
   id="g3141"
   inkscape:groupmode="layer"
   sodipodi:insensitive="true">
  <path
     style="fill:#ffffff;stroke:none"
     d="m 125.34375,67 c -1.21049,30.82489 -0.97128,239.81613 -0.9375,266 l 191.1875,0 -0.40625,-266 -36.90625,0 -1.1875,219.34375 -5.65625,9.3125 -5.28125,9.3125 -8.09375,0 -7.6875,0 -5.65625,-9.3125 -5.28125,-9.3125 -2.03125,-127.65625 c -2.025,-4.05 -4.85625,-6.88126 -8.90625,-8.90625 -3.24,-1.62 -4.855,-1.625 -8.5,-1.625 -2.43,0 -3.63,0.001 -5.25,0.40625 -5.26499,1.61999 -9.72625,5.265 -12.15625,10.125 l -2.03125,128.0625 -5.28125,8.90625 -5.25,9.3125 -8.09375,0 -8.09375,-0.40625 -5.28125,-8.90625 -5.25,-9.3125 L 162.90625,67 z"
     id="path3152"
     inkscape:connector-curvature="0"
     sodipodi:nodetypes="cccccccccccccssccccccccccc" />
  <path
     style="fill:none;stroke:#00ff00;stroke-width:1px;display:inline"
     d="m 125.34375,67 -0.9375,266 m 191.1875,0 -0.40625,-266 m -36.90625,0 -1.1875,219.34375 -5.65625,9.3125 -5.28125,9.3125 -8.09375,0 -7.6875,0 -5.65625,-9.3125 -5.28125,-9.3125 -2.03125,-127.65625 c -2.025,-4.05 -4.85625,-6.88126 -8.90625,-8.90625 -3.24,-1.62 -4.855,-1.625 -8.5,-1.625 -2.43,0 -3.63,0.001 -5.25,0.40625 -5.26499,1.61999 -9.72625,5.265 -12.15625,10.125 l -2.03125,128.0625 -5.28125,8.90625 -5.25,9.3125 -8.09375,0 -8.09375,-0.40625 -5.28125,-8.90625 -5.25,-9.3125 L 162.90625,67"
     id="path3152-5"
     inkscape:connector-curvature="0"
     sodipodi:nodetypes="cccccccccccccsscccccccccc" />
</g>


  
tmp/TMP.master:
tmp/TMP.master:
tmp/TMP.master:<g
   zpos="-200"
   style="display:inline"
   inkscape:label="WWWW-003"
   id="g3157"
   inkscape:groupmode="layer"
   sodipodi:insensitive="true">
  <path
     style="fill:#ffffff;stroke:none"
     clip-path="none"
     d="m 66.985284,67 c -4.781594,6.056858 -7.154388,13.234439 -7.154388,21.53125 0,2.43027 0.181841,4.85152 0.580799,7.28125 l 44.299125,227.625 c 0.61445,3.40998 1.42432,6.58806 2.45519,9.5625 l 60.0599,0 c 1.15404,-2.9591 2.16539,-6.13466 3.0096,-9.5625 l 33.81834,-140.15625 37.09193,146.625 c 0.26863,1.06049 0.56804,2.09276 0.8712,3.09375 l 60.2447,0 c 1.06066,-2.95949 1.93471,-6.13789 2.6136,-9.5625 L 345.58401,96.625 c 0.59815,-2.96973 0.89731,-5.93598 0.89759,-8.90625 C 346.48133,79.182051 344.4176,72.268811 340.27761,67 l -37.35593,0 c -4.02286,5.429779 -6.85802,13.149792 -8.50079,23.15625 L 267.78334,245.25 236.36739,110 C 231.62689,89.812361 226.00643,75.488196 219.52422,67 l -30.80875,0 c -6.09332,8.025441 -11.45162,21.271259 -16.07757,39.75 L 138.52916,245.25 111.89161,90.15625 C 110.18781,80.203676 107.49188,72.480548 103.81322,67 l -36.827936,0 z"
     id="path3168"
     inkscape:connector-curvature="0" />
  <path
     inkscape:connector-curvature="0"
     style="fill:none;stroke:#00ff00;stroke-width:0.99999994px;display:inline"
     clip-path="none"
     d="m 167.22591,333 c 1.15404,-2.9591 2.16539,-6.13466 3.0096,-9.5625 l 33.81834,-140.15625 37.09194,146.625 c 0.26862,1.06049 0.56803,2.09276 0.87119,3.09375 m 60.2447,0 c 1.06066,-2.95949 1.93471,-6.13789 2.6136,-9.5625 L 345.58401,96.625 c 0.59815,-2.96973 0.89731,-5.93598 0.89759,-8.90625 C 346.48133,79.182051 344.4176,72.268811 340.27761,67 m -37.35593,0 c -4.02286,5.429779 -6.85802,13.149792 -8.50079,23.15625 L 267.78334,245.25 236.36739,110 C 231.62689,89.812361 226.00643,75.488196 219.52422,67 m -30.80874,0 c -6.09333,8.025441 -11.45163,21.271259 -16.07758,39.75 L 138.52916,245.25 111.89161,90.15625 C 110.18781,80.203676 107.49188,72.480548 103.81322,67 m -36.827936,0 c -4.781594,6.056858 -7.154388,13.234439 -7.154388,21.53125 0,2.43027 0.181841,4.85152 0.580799,7.28125 l 44.299125,227.625 c 0.61445,3.40998 1.42432,6.58806 2.45519,9.5625"
     id="path3168-1"
     sodipodi:nodetypes="cccccccccccccccccccccsccc" />
  <path
     style="fill:none;stroke:#000000;stroke-width:0.99999994px;stroke-linecap:square;display:inline"
     d="m 60.675695,67 49.843115,0"
     id="path3129-2"
     inkscape:connector-curvature="0"
     sodipodi:nodetypes="cc" />
  <path
     sodipodi:nodetypes="cc"
     inkscape:connector-curvature="0"
     id="path3313"
     d="m 178.94749,67 49.84312,0"
     style="fill:none;stroke:#000000;stroke-width:0.99999994px;stroke-linecap:square;display:inline" />
  <path
     style="fill:none;stroke:#000000;stroke-width:0.99999994px;stroke-linecap:square;display:inline"
     d="m 298.06409,67 43.92952,0"
     id="path3315"
     inkscape:connector-curvature="0"
     sodipodi:nodetypes="cc" />
</g>


  
tmp/TMP.master:
tmp/TMP.master:
tmp/TMP.master:<g
   inkscape:groupmode="layer"
   id="layer4"
   inkscape:label="WWWW-004"
   style="display:none"
   zpos="-200"
   sodipodi:insensitive="true">
  <path
     style="fill:#ffffff;stroke:none"
     clip-path="none"
     d="m 69.633055,67 52.889995,266 41.61448,0 L 210,139.09375 l 0.99644,0 L 256.67535,333 l 46.45716,0 48.04732,-266 -47.19137,0 -28.61674,196.6875 -0.99644,0 L 230.50569,67 l -40.38205,0 -43.5287,196.46875 -0.99644,0 L 111.66709,67 z"
     id="path3289"
     inkscape:connector-curvature="0"
     sodipodi:nodetypes="ccccccccccccccccc" />
  <path
     sodipodi:nodetypes="cccccccccccccccc"
     inkscape:connector-curvature="0"
     id="path3381"
     d="m 69.633055,67 52.889995,266 m 41.61448,0 L 210,139.09375 l 0.99644,0 L 256.67535,333 m 46.45716,0 48.04732,-266 m -47.19137,0 -28.61674,196.6875 -0.99644,0 L 230.50569,67 m -40.38205,0 -43.5287,196.46875 -0.99644,0 L 111.66709,67"
     clip-path="none"
     style="fill:none;stroke:#00ff00;stroke-width:1" />
  <path
     style="fill:none;stroke:#000000;stroke-width:1px;stroke-linecap:square;display:inline"
     d="M 67.771286,67 113.9222,67"
     id="path3129-6"
     inkscape:connector-curvature="0"
     sodipodi:nodetypes="cc" />
  <path
     sodipodi:nodetypes="cc"
     inkscape:connector-curvature="0"
     id="path3401"
     d="m 187.76365,67 46.15091,0"
     style="fill:none;stroke:#000000;stroke-width:1px;stroke-linecap:square;display:inline" />
  <path
     style="fill:none;stroke:#000000;stroke-width:1px;stroke-linecap:square;display:inline"
     d="m 301.0778,67 51.15091,0"
     id="path3403"
     inkscape:connector-curvature="0"
     sodipodi:nodetypes="cc" />
</g>


  
tmp/TMP.master:
tmp/TMP.master:
tmp/TMP.master:<g
   zpos="-200"
   style="display:none"
   inkscape:label="WWWW-006"
   id="g3321"
   inkscape:groupmode="layer"
   sodipodi:insensitive="true">
  <path
     style="fill:#ffffff;stroke:none"
     d="m 84.909581,67 c -3.280835,2.650315 -6.415923,5.727742 -9.412979,9.25 -11.946495,14.03999 -17.762345,28.81752 -17.762345,43.9375 0,8.63999 2.145313,15.83501 7.046439,20.875 4.594802,5.4 11.629558,7.9375 21.431811,7.9375 -3.063207,-6.47999 -4.573538,-15.12126 -4.573538,-26.28125 0,-13.67999 2.450574,-25.91876 7.658017,-36.71875 5.207443,-10.79999 12.561284,-16.21875 21.750894,-16.21875 6.73905,0 11.62849,3.95626 14.38537,11.15625 2.75689,7.55999 4.28105,19.09877 4.28105,34.21875 0,7.19999 -0.30526,14.03501 -0.61158,20.875 -0.61264,7.19999 -1.20827,14.03501 -2.12723,20.875 l -2.76539,18 c -0.91896,5.04 -2.15063,11.53376 -3.98855,19.09375 l -3.98855,17.25 c -1.22529,3.96 -2.73455,10.11001 -5.18512,18.75 -2.45056,8.99999 -3.98749,14.745 -4.60013,17.625 -9.18961,34.55997 -13.481297,56.53001 -13.481297,66.25 -0.306321,6.83999 0.926407,12.60126 3.376972,17.28125 0.294179,0.64207 0.58604,1.25589 0.904075,1.84375 l 54.72291,0 c 9.79899,-8.18668 20.1715,-20.28272 31.05751,-36.40625 -2.14424,7.19999 -3.05789,13.30376 -3.05789,18.34375 0,7.037 1.38062,13.06032 4.28105,18.0625 l 54.1911,0 c 4.84427,-3.74804 9.84418,-8.31519 15.02354,-13.75 17.15394,-17.63998 32.47001,-38.87877 45.9481,-63.71875 13.17178,-24.47997 24.81943,-50.74878 34.00904,-78.46875 9.18962,-27.35997 14.09288,-50.38877 14.09288,-69.46875 0,-13.67999 -2.45163,-24.48626 -7.04644,-32.40625 -2.1904,-3.603956 -4.44733,-6.302733 -6.80712,-8.1875 l -18.18779,0 c -4.60591,3.256341 -8.95564,8.865915 -12.97609,16.8125 13.78442,5.76 20.51392,19.08877 20.82024,39.96875 0,17.99998 -3.97474,38.89503 -11.93906,63.375 -7.96433,24.47998 -17.47731,46.77627 -28.50484,67.65625 -11.02754,20.87998 -22.97938,38.53752 -35.2322,52.9375 -12.25282,14.75999 -22.65391,21.96875 -30.92456,21.96875 -3.06321,0 -5.20958,-0.74625 -6.43486,-2.90625 -1.22529,-2.16 -1.54224,-5.74125 -1.54224,-10.78125 0,-17.27998 7.35277,-46.08504 22.36247,-87.125 7.35169,-20.51998 11.35407,-33.1325 11.35407,-37.8125 0,-5.03999 -2.45163,-9.71 -7.04644,-14.75 -4.5948,-4.67999 -10.42448,-7.1875 -17.46985,-7.1875 -2.14424,16.55998 -8.27917,37.42503 -18.08142,62.625 -10.10858,25.19998 -22.0466,47.52752 -35.52469,67.6875 -13.78442,20.15998 -25.7352,30.25 -35.84378,30.25 -2.75688,0 -4.58524,-0.73125 -5.5042,-2.53125 -0.91896,-1.8 -1.22315,-5.03875 -1.22315,-9.71875 0,-6.47999 0.59562,-14.03251 2.12722,-22.3125 1.22529,-7.91999 2.77604,-14.77125 4.30764,-20.53125 1.22528,-5.75999 3.35889,-12.95376 6.11578,-21.59375 2.45056,-8.63999 4.29274,-14.775 5.2117,-18.375 13.17177,-49.31995 19.91616,-86.03627 19.91616,-110.15625 0,-21.95998 -3.6833,-38.88501 -11.03499,-51.125 -1.46796,-2.372168 -3.08031,-4.485121 -4.81285,-6.375 l -58.684869,0 z"
     id="path3332"
     inkscape:connector-curvature="0" />
  <path
     style="fill:none;stroke:#00ff00;stroke-width:1px;display:inline"
     d="m 84.90958,67 c -3.280834,2.650315 -6.415922,5.727742 -9.412979,9.25 -11.946494,14.03999 -17.762344,28.81752 -17.762344,43.9375 0,8.63999 2.145313,15.83501 7.046439,20.875 4.594801,5.4 11.629558,7.9375 21.431811,7.9375 -3.063207,-6.47999 -4.573538,-15.12126 -4.573538,-26.28125 0,-13.67999 2.450574,-25.91876 7.658017,-36.71875 5.207443,-10.79999 12.561284,-16.21875 21.750894,-16.21875 6.73905,0 11.62849,3.95626 14.38537,11.15625 2.75689,7.55999 4.28105,19.09877 4.28105,34.21875 0,7.19999 -0.30526,14.03501 -0.61158,20.875 -0.61264,7.19999 -1.20827,14.03501 -2.12723,20.875 l -2.76539,18 c -0.91896,5.04 -2.15063,11.53376 -3.98855,19.09375 l -3.98855,17.25 c -1.22529,3.96 -2.73455,10.11001 -5.18512,18.75 -2.45056,8.99999 -3.98749,14.745 -4.60013,17.625 -9.18961,34.55997 -13.481298,56.53001 -13.481298,66.25 -0.30632,6.83999 0.926408,12.60126 3.376973,17.28125 0.294178,0.64207 0.58604,1.25589 0.904075,1.84375 m 54.72291,0 c 9.79899,-8.18668 20.1715,-20.28272 31.05751,-36.40625 -2.14424,7.19999 -3.05789,13.30376 -3.05789,18.34375 0,7.037 1.38062,13.06032 4.28105,18.0625 m 54.1911,0 c 4.84427,-3.74804 9.84418,-8.31519 15.02354,-13.75 17.15394,-17.63998 32.47001,-38.87877 45.9481,-63.71875 13.17177,-24.47997 24.81943,-50.74878 34.00904,-78.46875 9.18961,-27.35997 14.09288,-50.38877 14.09288,-69.46875 0,-13.67999 -2.45164,-24.48626 -7.04644,-32.40625 -2.1904,-3.603956 -4.44733,-6.302733 -6.80712,-8.1875 m -18.18779,0 c -4.60591,3.256341 -8.95564,8.865915 -12.97609,16.8125 13.78442,5.76 20.51391,19.08877 20.82024,39.96875 0,17.99998 -3.97474,38.89503 -11.93907,63.375 -7.96432,24.47998 -17.4773,46.77627 -28.50484,67.65625 -11.02753,20.87998 -22.97937,38.53752 -35.23219,52.9375 -12.25282,14.75999 -22.65391,21.96875 -30.92456,21.96875 -3.06321,0 -5.20958,-0.74625 -6.43486,-2.90625 -1.22529,-2.16 -1.54224,-5.74125 -1.54224,-10.78125 0,-17.27998 7.35277,-46.08504 22.36247,-87.125 7.35169,-20.51998 11.35407,-33.1325 11.35407,-37.8125 0,-5.03999 -2.45163,-9.71 -7.04644,-14.75 -4.5948,-4.67999 -10.42448,-7.1875 -17.46985,-7.1875 -2.14424,16.55998 -8.27917,37.42503 -18.08143,62.625 -10.10857,25.19998 -22.04659,47.52752 -35.52469,67.6875 -13.78441,20.15998 -25.73519,30.25 -35.84377,30.25 -2.75688,0 -4.58524,-0.73125 -5.5042,-2.53125 -0.91896,-1.8 -1.22315,-5.03875 -1.22315,-9.71875 0,-6.47999 0.59562,-14.03251 2.12722,-22.3125 1.22529,-7.91999 2.77603,-14.77125 4.30764,-20.53125 1.22528,-5.75999 3.35889,-12.95376 6.11578,-21.59375 2.45056,-8.63999 4.29274,-14.775 5.2117,-18.375 13.17177,-49.31995 19.91616,-86.03627 19.91616,-110.15625 0,-21.95998 -3.6833,-38.88501 -11.03499,-51.125 -1.46796,-2.372168 -3.08031,-4.485121 -4.81285,-6.375"
     id="path3332-6"
     inkscape:connector-curvature="0"
     sodipodi:nodetypes="cssccssscsccccccccccccscccccscccccsscssscsccccsssccccscc" />
</g>


  
tmp/TMP.master:
tmp/TMP.master:
tmp/TMP.master:<g
   zpos="-200"
   style="display:none"
   inkscape:label="WWWW-007"
   id="g3337"
   inkscape:groupmode="layer"
   sodipodi:insensitive="true">
  <path
     style="fill:#ffffff;stroke:none;display:inline"
     d="m 78.824385,67 0,57 225.480335,0 0,-57 z"
     id="path3118-3"
     inkscape:connector-curvature="0"
     sodipodi:nodetypes="ccccc" />
  <path
     style="fill:#ffffff;stroke:none;display:inline"
     d="m 158.65888,93.5 c 5.72598,4.5166 11.44447,8.85156 17.47995,13.1875 5.88075,4.33593 11.61427,8.86524 17.1855,13.5625 1.70231,1.80664 3.08676,3.59961 4.01529,5.40625 0.92854,1.80664 1.23721,4.16504 1.39197,6.875 l -0.16061,149.75 -58.03448,38.5 c -5.88075,-4.33593 -11.75984,-8.50781 -17.64058,-12.84375 -5.88073,-4.33593 -11.45364,-8.83399 -17.02487,-13.53125 -1.85708,-1.44531 -3.24738,-3.2627 -4.17592,-5.25 -1.08329,-1.9873 -1.55258,-4.32129 -1.55258,-7.03125 l 0,-151.0625 z"
     id="path3119"
     inkscape:connector-curvature="0" />
  <path
     style="fill:#ffffff;stroke:none;display:inline"
     d="m 283.69539,93.5 c 5.57122,4.69726 11.30475,9.22657 17.18549,13.5625 5.88073,4.33594 11.60506,8.85157 17.64056,13.1875 3.71416,3.07129 5.57374,7.22266 5.7285,12.28125 l 0,153.75 -52.306,34.5 c -5.88075,-4.33593 -11.78074,-8.6709 -17.50672,-13.1875 l -17.31934,-13.5625 0.16061,0.1875 c -2.01183,-1.26464 -3.40798,-3.08204 -4.33652,-5.25 C 232.01342,286.98144 231.55,284.45996 231.55,281.75 l 0,-154.46875 z"
     id="path3114"
     inkscape:connector-curvature="0" />
  <path
     style="fill:#ffffff;stroke:none"
     d="m 57.339433,67 c -1.727091,1.419308 -3.35467,2.828313 -4.845131,4.09375 -1.857075,1.62597 -3.086764,2.71485 -4.015302,3.4375 -1.392806,1.08399 -2.491997,2.34278 -3.265779,3.96875 -0.77378,1.62598 -1.070747,3.44336 -1.070747,5.25 0,2.34863 0.302821,4.14844 1.231359,5.59375 0.928538,1.44531 2.152371,2.69727 3.85469,3.78125 l 17.64056,11.21875 0,200.71875 c 0,4.15527 1.417067,7.23145 4.202683,9.21875 L 95.886332,333 l 63.468548,0 39.21611,-25.59375 c 0.30951,0.90332 0.63909,1.97852 1.25813,3.0625 0.46426,1.26465 1.07325,2.17676 1.84704,2.71875 L 227.80239,333 l 63.8433,0 61.21997,-39.15625 c 3.24989,-2.16797 4.79745,-5.41407 4.9522,-9.75 l 0,-174.15625 c 0,-3.79394 -1.55091,-6.87012 -4.33653,-9.21875 L 309.28624,67 286.88086,67 231.55,102.90625 184.27651,67 l -22.51246,0 -61.6215,39.6875 0,-13.90625 c 0,-3.61327 -0.145551,-6.51953 -0.455066,-8.6875 -0.464268,-2.16797 -1.079107,-3.96094 -2.007651,-5.40625 -0.928534,-1.44531 -2.479448,-2.71094 -4.336526,-4.15625 -2.011831,-1.44531 -4.64102,-3.06836 -7.736148,-4.875 C 84.224744,68.887756 82.679374,67.992247 81.029714,67 L 57.339433,67 z M 158.65888,93.5 c 5.72598,4.5166 11.44447,8.85156 17.47995,13.1875 5.88075,4.33593 11.61427,8.86524 17.1855,13.5625 1.70231,1.80664 3.08677,3.59961 4.0153,5.40625 0.92853,1.80664 1.2372,4.16504 1.39196,6.875 l -0.1606,149.75 -58.03449,38.5 c -5.88075,-4.33593 -11.75984,-8.50781 -17.64058,-12.84375 -5.88073,-4.33593 -11.45364,-8.83399 -17.02487,-13.53125 -1.85708,-1.44531 -3.24738,-3.2627 -4.17592,-5.25 -1.08329,-1.9873 -1.55258,-4.32129 -1.55258,-7.03125 l 0,-151.0625 L 158.65888,93.5 z m 125.03651,0 c 5.57122,4.69726 11.30475,9.22657 17.18549,13.5625 5.88074,4.33594 11.60507,8.85157 17.64056,13.1875 3.71416,3.07129 5.57374,7.22266 5.7285,12.28125 l 0,153.75 -52.306,34.5 c -5.88075,-4.33593 -11.78074,-8.6709 -17.50672,-13.1875 l -17.31934,-13.5625 0.16061,0.1875 c -2.01183,-1.26464 -3.40798,-3.08204 -4.33652,-5.25 C 232.01342,286.98144 231.55,284.45996 231.55,281.75 l 0,-154.46875 L 283.69539,93.5 z"
     id="path3355"
     inkscape:connector-curvature="0" />
  <path
     style="fill:none;stroke:#00ff00;stroke-width:1px;display:inline"
     d="m 57.339433,67 c -1.72709,1.419308 -3.35467,2.828313 -4.845131,4.09375 -1.857075,1.62597 -3.086764,2.71485 -4.015302,3.4375 -1.392806,1.08399 -2.491997,2.34278 -3.265779,3.96875 -0.773781,1.62598 -1.070746,3.44336 -1.070746,5.25 0,2.34863 0.30282,4.14844 1.231358,5.59375 0.928539,1.44531 2.15237,2.69727 3.85469,3.78125 l 17.64056,11.21875 0,200.71875 c 0,4.15527 1.417067,7.23145 4.202682,9.21875 L 95.886332,333 m 63.468548,0 39.2161,-25.59375 c 0.30952,0.90332 0.6391,1.97852 1.25814,3.0625 0.46426,1.26465 1.07326,2.17676 1.84704,2.71875 L 227.80239,333 m 63.84329,0 61.21998,-39.15625 c 3.24989,-2.16797 4.79745,-5.41407 4.9522,-9.75 l 0,-174.15625 c 0,-3.79394 -1.55092,-6.87012 -4.33652,-9.21875 L 309.28625,67 M 286.88086,67 231.55,102.90625 184.27651,67 m -22.51246,0 -61.6215,39.6875 0,-13.90625 c 0,-3.61327 -0.145552,-6.51953 -0.455066,-8.6875 -0.464267,-2.16797 -1.079108,-3.96094 -2.007651,-5.40625 -0.928535,-1.44531 -2.479448,-2.71094 -4.336526,-4.15625 -2.011832,-1.44531 -4.641021,-3.06836 -7.736149,-4.875 C 84.224744,68.887756 82.679374,67.992247 81.029715,67 m 77.629165,26.5 c 5.72598,4.5166 11.44447,8.85156 17.47995,13.1875 5.88075,4.33593 11.61427,8.86524 17.1855,13.5625 1.70231,1.80664 3.08676,3.59961 4.0153,5.40625 0.92853,1.80664 1.2372,4.16504 1.39196,6.875 l -0.16061,149.75 -58.03448,38.5 c -5.88075,-4.33593 -11.75984,-8.50781 -17.64058,-12.84375 -5.88073,-4.33593 -11.45364,-8.83399 -17.02487,-13.53125 -1.85708,-1.44531 -3.24738,-3.2627 -4.17592,-5.25 -1.08329,-1.9873 -1.55258,-4.32129 -1.55258,-7.03125 l 0,-151.0625 z m 125.03651,0 c 5.57122,4.69726 11.30475,9.22657 17.18549,13.5625 5.88073,4.33594 11.60506,8.85157 17.64056,13.1875 3.71416,3.07129 5.57374,7.22266 5.7285,12.28125 l 0,153.75 -52.306,34.5 c -5.88075,-4.33593 -11.78074,-8.6709 -17.50672,-13.1875 l -17.31934,-13.5625 0.16062,0.1875 c -2.01184,-1.26464 -3.40799,-3.08204 -4.33653,-5.25 C 232.01343,286.98144 231.55,284.45996 231.55,281.75 l 0,-154.46875 z"
     id="path3355-8"
     inkscape:connector-curvature="0"
     sodipodi:nodetypes="ccssssccsccccccccccscccccccscsccccccscccsccscccsccccccccscc" />
</g>


  
tmp/TMP.change:
tmp/TMP.change:
tmp/TMP.change:<g
     style="display:inline"
     zpos="-180"
     inkscape:label="UKON-001"
     id="g3155"
     inkscape:groupmode="layer"
     sodipodi:insensitive="true">
    <path
       sodipodi:nodetypes="ccccc"
       inkscape:connector-curvature="0"
       id="path3343"
       d="m 333,365.5 32,0 0,-332 -32,0 z"
       style="fill:#ffffff;stroke:none;display:inline" />
    <path
       style="fill:none;stroke:#000000;stroke-width:1px;stroke-linecap:square;display:inline"
       d="m 307,30.5 0,10 0,26"
       id="path3178-9-2"
       inkscape:connector-curvature="0"
       sodipodi:nodetypes="ccc" />
    <path
       sodipodi:nodetypes="ccc"
       inkscape:connector-curvature="0"
       id="path3409"
       d="m 93,30.5 0,10 0,26"
       style="fill:none;stroke:#000000;stroke-width:1px;stroke-linecap:square;display:inline" />
    <path
       sodipodi:nodetypes="cccc"
       inkscape:connector-curvature="0"
       id="path3153"
       d="m 64.5,67 10,0 285,0 10,0"
       style="fill:none;stroke:#000000;stroke-width:1px;stroke-linecap:square;display:inline" />
    <path
       sodipodi:nodetypes="ccccc"
       inkscape:connector-curvature="0"
       id="path3261"
       d="m 34,365.5 33,0 0,-332 -33,0 z"
       style="fill:#ffffff;stroke:none;display:inline" />
    <path
       style="fill:none;stroke:#000000;stroke-width:1px;stroke-linecap:square;display:inline"
       d="m 307,333.5 0,26 0,10"
       id="path3178-9-1"
       inkscape:connector-curvature="0"
       sodipodi:nodetypes="ccc" />
    <path
       sodipodi:nodetypes="ccc"
       inkscape:connector-curvature="0"
       id="path3411"
       d="m 93,333.5 0,26 0,10"
       style="fill:none;stroke:#000000;stroke-width:1px;stroke-linecap:square;display:inline" />
    <path
       style="fill:none;stroke:#000000;stroke-width:1px;stroke-linecap:square;display:inline"
       d="m 369.5,333 -10,0 -282,0 -10,0"
       id="path3159"
       inkscape:connector-curvature="0"
       sodipodi:nodetypes="cccc" />
    <path
       sodipodi:nodetypes="cc"
       inkscape:connector-curvature="0"
       id="path3236"
       d="m 67,30.5 0,62"
       style="fill:none;stroke:#000000;stroke-width:1px;stroke-linecap:square;display:inline" />
    <path
       sodipodi:nodetypes="cccc"
       inkscape:connector-curvature="0"
       id="path3234"
       d="m 67,93.5 0,10 0,256 0,10"
       style="fill:none;stroke:#000000;stroke-width:1px;stroke-linecap:square;display:inline" />
    <path
       style="fill:none;stroke:#000000;stroke-width:1px;stroke-linecap:square;display:inline"
       d="m 369.5,93 -36,0"
       id="C-right-2-7"
       inkscape:connector-curvature="0"
       sodipodi:nodetypes="cc" />
    <path
       style="fill:none;stroke:#000000;stroke-width:1px;stroke-linecap:square;display:inline"
       d="m 369.5,307 -36,0"
       id="C-right-3-0"
       inkscape:connector-curvature="0"
       sodipodi:nodetypes="cc" />
    <path
       style="fill:none;stroke:#000000;stroke-width:1px;stroke-linecap:square;display:inline"
       d="m 333,30.5 0,10 0,319 0,10"
       id="path3178"
       inkscape:connector-curvature="0"
       sodipodi:nodetypes="cccc" />
  </g>

tmp/TMP.master:<g
   zpos="-200"
   style="display:none"
   inkscape:label="WWWW-005"
   id="g3303"
   inkscape:groupmode="layer"
   sodipodi:insensitive="true">
  <path
     style="fill:#ffffff;stroke:none"
     d="m 276.21875,37.0625 -43.28125,28.375 0,-21.65625 -65.09375,0 0,259.78125 -42.40625,-23.09375 0,-236.6875 -64.6875,0 0,289.21875 277.625,0 0.40625,-261.5 z m -25.625,60 23.09375,18.0625 0,183.8125 -40.75,-18.0625 0,-183.59375 z"
     id="path3319"
     inkscape:connector-curvature="0"
     sodipodi:nodetypes="cccccccccccccccccc" />
  <path
     inkscape:connector-curvature="0"
     style="fill:none;stroke:#00ff00;stroke-width:1px;display:inline"
     d="m 338.375,333 0.40625,-261.5 -62.5625,-34.4375 -43.28125,28.375 0,-21.65625 -65.09375,0 0,259.78125 -42.40625,-23.09375 0,-236.6875 -64.6875,0 0,289.21875 m 189.84375,-235.9375 23.09375,18.0625 0,183.8125 -40.75,-18.0625 0,-183.59375 z"
     id="path3319-6"
     sodipodi:nodetypes="ccccccccccccccccc" />
  <path
     sodipodi:nodetypes="cccc"
     inkscape:connector-curvature="0"
     id="path3576-5"
     d="m 369.5,333 -10,0 -319,0 -10,0"
     style="fill:none;stroke:#000000;stroke-width:1px;stroke-linecap:square;display:inline" />
</g>

</svg>
