<?xml version="1.0" encoding="UTF-8" standalone="no"?>
<!-- Created with Inkscape (http://www.inkscape.org/) -->

<svg
   xmlns:dc="http://purl.org/dc/elements/1.1/"
   xmlns:cc="http://creativecommons.org/ns#"
   xmlns:rdf="http://www.w3.org/1999/02/22-rdf-syntax-ns#"
   xmlns:svg="http://www.w3.org/2000/svg"
   xmlns="http://www.w3.org/2000/svg"
   xmlns:sodipodi="http://sodipodi.sourceforge.net/DTD/sodipodi-0.dtd"
   xmlns:inkscape="http://www.inkscape.org/namespaces/inkscape"
   style="display:inline"
   sodipodi:docname="190111_Nsthnx-R+_00_00_II_II_.svg"
   inkscape:version="0.48.3.1 r9886"
   version="1.1"
   id="svg2902"
   height="400"
   width="400">
  <sodipodi:namedview
     id="base"
     pagecolor="#f0f0f0"
     bordercolor="#666666"
     borderopacity="1.0"
     inkscape:pageopacity="1"
     inkscape:pageshadow="2"
     inkscape:zoom="0.49264766"
     inkscape:cx="-0.4450775"
     inkscape:cy="136.37677"
     inkscape:document-units="px"
     inkscape:current-layer="layer2"
     showgrid="false"
     inkscape:window-width="1018"
     inkscape:window-height="709"
     inkscape:window-x="0"
     inkscape:window-y="1"
     inkscape:window-maximized="0"
     showguides="true"
     inkscape:guide-bbox="true"
     inkscape:snap-bbox="true"
     inkscape:snap-global="false" />
  <defs
     id="defs2904">
    <inkscape:path-effect
       fuse_tolerance="0"
       vertical_pattern="false"
       prop_units="false"
       tang_offset="0"
       normal_offset="0"
       spacing="0"
       scale_y_rel="false"
       prop_scale="1"
       copytype="repeated_stretched"
       pattern="m 2403.0836,1781.1379 43.3629,-45.5492 43.3634,45.5492 43.3629,-45.5492 43.3633,45.5492"
       is_visible="true"
       id="path-effect6268"
       effect="skeletal" />
    <inkscape:path-effect
       effect="skeletal"
       id="path-effect6266"
       is_visible="true"
       pattern="m 2384.9163,1735.5887 -43.363,45.5492 -43.3632,-45.5492 -43.3631,45.5492 -43.3632,-45.5492"
       copytype="repeated_stretched"
       prop_scale="1"
       scale_y_rel="false"
       spacing="0"
       normal_offset="0"
       tang_offset="0"
       prop_units="false"
       vertical_pattern="false"
       fuse_tolerance="0" />
    <inkscape:path-effect
       effect="skeletal"
       id="path-effect6173"
       is_visible="true"
       pattern="m 2403.0836,1781.1379 43.3629,-45.5492 43.3634,45.5492 43.3629,-45.5492 43.3633,45.5492"
       copytype="repeated_stretched"
       prop_scale="1"
       scale_y_rel="false"
       spacing="0"
       normal_offset="0"
       tang_offset="0"
       prop_units="false"
       vertical_pattern="false"
       fuse_tolerance="0" />
    <inkscape:path-effect
       fuse_tolerance="0"
       vertical_pattern="false"
       prop_units="false"
       tang_offset="0"
       normal_offset="0"
       spacing="0"
       scale_y_rel="false"
       prop_scale="1"
       copytype="repeated_stretched"
       pattern="m 2384.9163,1735.5887 -43.363,45.5492 -43.3632,-45.5492 -43.3631,45.5492 -43.3632,-45.5492"
       is_visible="true"
       id="path-effect6171"
       effect="skeletal" />
    <inkscape:path-effect
       effect="skeletal"
       id="path-effect6140"
       is_visible="true"
       pattern="M 81.9672,0.5 61.6005,26.1419 41.2336,0.5 20.8669,26.1419 0.5,0.5"
       copytype="repeated_stretched"
       prop_scale="1"
       scale_y_rel="false"
       spacing="0"
       normal_offset="0"
       tang_offset="10"
       prop_units="false"
       vertical_pattern="false"
       fuse_tolerance="0" />
    <inkscape:path-effect
       fuse_tolerance="0"
       vertical_pattern="false"
       prop_units="false"
       tang_offset="10"
       normal_offset="0"
       spacing="0"
       scale_y_rel="false"
       prop_scale="1"
       copytype="repeated_stretched"
       pattern="m 1915.2664,1796.1843 20.3667,-25.6419 20.3669,25.6419 20.3667,-25.6419 20.3669,25.6419"
       is_visible="true"
       id="path-effect6100"
       effect="skeletal" />
    <inkscape:path-effect
       fuse_tolerance="0"
       vertical_pattern="false"
       prop_units="false"
       tang_offset="0"
       normal_offset="0"
       spacing="0"
       scale_y_rel="false"
       prop_scale="1"
       copytype="repeated"
       pattern="m 1433.7321,1794.3633 -29.732,43.2733 -29.7322,-43.2733"
       is_visible="true"
       id="path-effect6090"
       effect="skeletal" />
    <inkscape:path-effect
       fuse_tolerance="0"
       vertical_pattern="true"
       prop_units="false"
       tang_offset="0"
       normal_offset="0"
       spacing="0"
       scale_y_rel="false"
       prop_scale="1"
       copytype="repeated_stretched"
       pattern="m 1433.7321,1794.3633 -29.732,43.2733 -29.7322,-43.2733"
       is_visible="true"
       id="path-effect6084"
       effect="skeletal" />
    <inkscape:path-effect
       fuse_tolerance="0"
       vertical_pattern="true"
       prop_units="false"
       tang_offset="0"
       normal_offset="0.4"
       spacing="0"
       scale_y_rel="false"
       prop_scale="1"
       copytype="repeated_stretched"
       pattern="m 1433.7321,1794.3633 -29.732,43.2733 -29.7322,-43.2733"
       is_visible="true"
       id="path-effect6082"
       effect="skeletal" />
    <inkscape:path-effect
       effect="skeletal"
       id="path-effect6064"
       is_visible="true"
       pattern="m 1433.7321,1794.3633 -29.732,43.2733 -29.7322,-43.2733"
       copytype="repeated"
       prop_scale="1"
       scale_y_rel="false"
       spacing="0"
       normal_offset="0"
       tang_offset="10"
       prop_units="false"
       vertical_pattern="false"
       fuse_tolerance="0" />
    <inkscape:path-effect
       effect="skeletal"
       id="path-effect6054"
       is_visible="true"
       pattern="M 0,0 1,0"
       copytype="single_stretched"
       prop_scale="1"
       scale_y_rel="false"
       spacing="0"
       normal_offset="0"
       tang_offset="0"
       prop_units="false"
       vertical_pattern="false"
       fuse_tolerance="0" />
    <inkscape:path-effect
       effect="skeletal"
       id="path-effect5966"
       is_visible="true"
       pattern="#path6029"
       copytype="single_stretched"
       prop_scale="1"
       scale_y_rel="false"
       spacing="0"
       normal_offset="0"
       tang_offset="0"
       prop_units="false"
       vertical_pattern="false"
       fuse_tolerance="0" />
    <clipPath
       clipPathUnits="userSpaceOnUse"
       id="clipPath5174">
      <path
         id="path5176"
         style="opacity:0.5;fill:#00ff00;stroke:#00ff00;stroke-width:1px;stroke-linecap:square;display:inline"
         d="m 436.26971,600.11436 -232.09481,134 -169.500003,-293.58262 232.094813,-134 z"
         inkscape:connector-curvature="0"
         sodipodi:nodetypes="ccccc" />
    </clipPath>
    <clipPath
       clipPathUnits="userSpaceOnUse"
       id="clipPath5174-5">
      <path
         id="path5176-9"
         style="opacity:0.5;fill:#00ff00;stroke:#00ff00;stroke-width:1px;stroke-linecap:square;display:inline"
         d="m 436.26971,600.11436 -232.09481,134 -169.500003,-293.58262 232.094813,-134 z"
         inkscape:connector-curvature="0"
         sodipodi:nodetypes="ccccc" />
    </clipPath>
    <clipPath
       clipPathUnits="userSpaceOnUse"
       id="clipPath3238">
      <path
         sodipodi:nodetypes="ccccc"
         inkscape:connector-curvature="0"
         d="m 461.26971,643.41563 -232.09481,134 -169.500002,-293.58262 232.094812,-134 z"
         style="opacity:0.5;fill:#00ff00;stroke:#00ff00;stroke-width:1px;stroke-linecap:square;display:inline"
         id="path3240" />
    </clipPath>
  </defs>
  <metadata
     id="metadata2907">
    <rdf:RDF>
      <cc:Work
         rdf:about="">
        <dc:format>image/svg+xml</dc:format>
        <dc:type
           rdf:resource="http://purl.org/dc/dcmitype/StillImage" />
        <dc:title />
      </cc:Work>
    </rdf:RDF>
  </metadata>
  <g
     inkscape:groupmode="layer"
     id="bg"
     inkscape:label="XX_BG"
     sodipodi:insensitive="true">
    <path
       style="fill:#f4d7e3"
       d="M 400,0 400,400 0,400 0,0 z"
       id="bgrect"
       inkscape:connector-curvature="0" />
  </g>
  <g
     inkscape:label="XX_REFERENZ"
     inkscape:groupmode="layer"
     id="XX_referenz"
     style="display:none"
     sodipodi:insensitive="true">
    <path
       id="innerframe"
       style="fill:none;stroke:#ff0000;stroke-width:1"
       d="m 40.5,40.5 319,0 0,319 -319,0 0,-319 z"
       inkscape:label="#innerframe"
       sodipodi:insensitive="true"
       inkscape:connector-curvature="0" />
    <path
       id="outerframe"
       style="fill:none;stroke:#ff0000;stroke-width:1"
       d="m 30.5,30.5 339,0 0,339 -339,0 0,-339 z"
       inkscape:label="#outerframe"
       sodipodi:nodetypes="ccccc"
       sodipodi:insensitive="true"
       inkscape:connector-curvature="0" />
    <path
       style="opacity:0.5;fill:none;stroke:#ffc200;stroke-width:1px;stroke-linecap:square"
       d="m 189,30.5 0,10"
       id="ref-S-top-1"
       sodipodi:insensitive="true"
       inkscape:connector-curvature="0" />
    <path
       style="opacity:0.5;fill:none;stroke:#ffc200;stroke-width:1px;stroke-linecap:square"
       d="m 191,30.5 0,10"
       id="ref-S-top-2"
       sodipodi:insensitive="true"
       inkscape:connector-curvature="0" />
    <path
       style="opacity:0.5;fill:none;stroke:#ffc200;stroke-width:1px;stroke-linecap:square"
       d="m 209,30.5 0,10"
       id="ref-S-top-3"
       sodipodi:insensitive="true"
       inkscape:connector-curvature="0" />
    <path
       style="opacity:0.5;fill:none;stroke:#ffc200;stroke-width:1px;stroke-linecap:square"
       d="m 211,30.5 0,10"
       id="ref-S-top-4"
       sodipodi:insensitive="true"
       inkscape:connector-curvature="0" />
    <path
       style="opacity:0.5;fill:none;stroke:#00ff00;stroke-width:1px;stroke-linecap:square"
       d="m 199,30.5 0,10"
       id="ref-I-top-1"
       sodipodi:insensitive="true"
       inkscape:connector-curvature="0" />
    <path
       style="opacity:0.5;fill:none;stroke:#00ff00;stroke-width:1px;stroke-linecap:square"
       d="m 201,30.5 0,10"
       id="ref-I-top-2"
       sodipodi:insensitive="true"
       inkscape:connector-curvature="0" />
    <path
       style="opacity:0.5;fill:none;stroke:#00ffcc;stroke-width:1px;stroke-linecap:square"
       d="m 66,30.5 0,10"
       id="ref-C-top-1"
       sodipodi:insensitive="true"
       inkscape:connector-curvature="0" />
    <path
       style="opacity:0.5;fill:none;stroke:#00ffcc;stroke-width:1px;stroke-linecap:square"
       d="m 68,30.5 0,10"
       id="ref-C-top-2"
       sodipodi:insensitive="true"
       inkscape:connector-curvature="0" />
    <path
       style="opacity:0.5;fill:none;stroke:#00ffcc;stroke-width:1px;stroke-linecap:square"
       d="m 92,30.5 0,10"
       id="ref-C-top-3"
       sodipodi:insensitive="true"
       inkscape:connector-curvature="0" />
    <path
       style="opacity:0.5;fill:none;stroke:#00ffcc;stroke-width:1px;stroke-linecap:square"
       d="m 94,30.5 0,10"
       id="ref-C-top-4"
       sodipodi:insensitive="true"
       inkscape:connector-curvature="0" />
    <path
       style="opacity:0.5;fill:none;stroke:#00ffcc;stroke-width:1px;stroke-linecap:square"
       d="m 306,30.5 0,10"
       id="ref-C-top-5"
       sodipodi:insensitive="true"
       inkscape:connector-curvature="0" />
    <path
       style="opacity:0.5;fill:none;stroke:#00ffcc;stroke-width:1px;stroke-linecap:square"
       d="m 308,30.5 0,10"
       id="ref-C-top-6"
       sodipodi:insensitive="true"
       inkscape:connector-curvature="0" />
    <path
       style="opacity:0.5;fill:none;stroke:#00ffcc;stroke-width:1px;stroke-linecap:square"
       d="m 332,30.5 0,10"
       id="ref-C-top-7"
       sodipodi:insensitive="true"
       inkscape:connector-curvature="0" />
    <path
       style="opacity:0.5;fill:none;stroke:#00ffcc;stroke-width:1px;stroke-linecap:square"
       d="m 334,30.5 0,10"
       id="ref-C-top-8"
       sodipodi:insensitive="true"
       inkscape:connector-curvature="0" />
    <path
       style="opacity:0.5;fill:none;stroke:#ffc200;stroke-width:1px;stroke-linecap:square"
       d="m 369.5,189 -10,0"
       id="ref-S-right-1"
       sodipodi:insensitive="true"
       inkscape:connector-curvature="0" />
    <path
       style="opacity:0.5;fill:none;stroke:#ffc200;stroke-width:1px;stroke-linecap:square"
       d="m 369.5,191 -10,0"
       id="ref-S-right-2"
       sodipodi:insensitive="true"
       inkscape:connector-curvature="0" />
    <path
       style="opacity:0.5;fill:none;stroke:#ffc200;stroke-width:1px;stroke-linecap:square"
       d="m 369.5,209 -10,0"
       id="ref-S-right-3"
       sodipodi:insensitive="true"
       inkscape:connector-curvature="0" />
    <path
       style="opacity:0.5;fill:none;stroke:#ffc200;stroke-width:1px;stroke-linecap:square"
       d="m 369.5,211 -10,0"
       id="ref-S-right-4"
       sodipodi:insensitive="true"
       inkscape:connector-curvature="0" />
    <path
       style="opacity:0.5;fill:none;stroke:#00ff00;stroke-width:1px;stroke-linecap:square"
       d="m 369.5,199 -10,0"
       id="ref-I-right-1"
       sodipodi:insensitive="true"
       inkscape:connector-curvature="0" />
    <path
       style="opacity:0.5;fill:none;stroke:#00ff00;stroke-width:1px;stroke-linecap:square"
       d="m 369.5,201 -10,0"
       id="ref-I-right-2"
       sodipodi:insensitive="true"
       inkscape:connector-curvature="0" />
    <path
       style="opacity:0.5;fill:none;stroke:#00ffcc;stroke-width:1px;stroke-linecap:square"
       d="m 369.5,66 -10,0"
       id="ref-C-right-1"
       sodipodi:insensitive="true"
       inkscape:connector-curvature="0" />
    <path
       style="opacity:0.5;fill:none;stroke:#00ffcc;stroke-width:1px;stroke-linecap:square"
       d="m 369.5,68 -10,0"
       id="ref-C-right-2"
       sodipodi:insensitive="true"
       inkscape:connector-curvature="0" />
    <path
       style="opacity:0.5;fill:none;stroke:#00ffcc;stroke-width:1px;stroke-linecap:square"
       d="m 369.5,92 -10,0"
       id="ref-C-right-3"
       sodipodi:insensitive="true"
       inkscape:connector-curvature="0" />
    <path
       style="opacity:0.5;fill:none;stroke:#00ffcc;stroke-width:1px;stroke-linecap:square"
       d="m 369.5,94 -10,0"
       id="ref-C-right-4"
       sodipodi:insensitive="true"
       inkscape:connector-curvature="0" />
    <path
       style="opacity:0.5;fill:none;stroke:#00ffcc;stroke-width:1px;stroke-linecap:square"
       d="m 369.5,306 -10,0"
       id="ref-C-right-5"
       sodipodi:insensitive="true"
       inkscape:connector-curvature="0" />
    <path
       style="opacity:0.5;fill:none;stroke:#00ffcc;stroke-width:1px;stroke-linecap:square"
       d="m 369.5,308 -10,0"
       id="ref-C-right-6"
       sodipodi:insensitive="true"
       inkscape:connector-curvature="0" />
    <path
       style="opacity:0.5;fill:none;stroke:#00ffcc;stroke-width:1px;stroke-linecap:square"
       d="m 369.5,332 -10,0"
       id="ref-C-right-7"
       sodipodi:insensitive="true"
       inkscape:connector-curvature="0" />
    <path
       style="opacity:0.5;fill:none;stroke:#00ffcc;stroke-width:1px;stroke-linecap:square"
       d="m 369.5,334 -10,0"
       id="ref-C-right-8"
       sodipodi:insensitive="true"
       inkscape:connector-curvature="0" />
    <path
       style="opacity:0.5;fill:none;stroke:#ffc200;stroke-width:1px;stroke-linecap:square"
       d="m 189,369.5 0,-10"
       id="ref-S-bottom-1"
       sodipodi:insensitive="true"
       inkscape:connector-curvature="0" />
    <path
       style="opacity:0.5;fill:none;stroke:#ffc200;stroke-width:1px;stroke-linecap:square"
       d="m 191,369.5 0,-10"
       id="ref-S-bottom-2"
       sodipodi:insensitive="true"
       inkscape:connector-curvature="0" />
    <path
       style="opacity:0.5;fill:none;stroke:#ffc200;stroke-width:1px;stroke-linecap:square"
       d="m 209,369.5 0,-10"
       id="ref-S-bottom-3"
       sodipodi:insensitive="true"
       inkscape:connector-curvature="0" />
    <path
       style="opacity:0.5;fill:none;stroke:#ffc200;stroke-width:1px;stroke-linecap:square"
       d="m 211,369.5 0,-10"
       id="ref-S-bottom-4"
       sodipodi:insensitive="true"
       inkscape:connector-curvature="0" />
    <path
       style="opacity:0.5;fill:none;stroke:#00ff00;stroke-width:1px;stroke-linecap:square"
       d="m 199,369.5 0,-10"
       id="ref-I-bottom-1"
       sodipodi:insensitive="true"
       inkscape:connector-curvature="0" />
    <path
       style="opacity:0.5;fill:none;stroke:#00ff00;stroke-width:1px;stroke-linecap:square"
       d="m 201,369.5 0,-10"
       id="ref-I-bottom-2"
       sodipodi:insensitive="true"
       inkscape:connector-curvature="0" />
    <path
       style="opacity:0.5;fill:none;stroke:#00ffcc;stroke-width:1px;stroke-linecap:square"
       d="m 66,369.5 0,-10"
       id="ref-C-bottom-1"
       sodipodi:insensitive="true"
       inkscape:connector-curvature="0" />
    <path
       style="opacity:0.5;fill:none;stroke:#00ffcc;stroke-width:1px;stroke-linecap:square"
       d="m 68,369.5 0,-10"
       id="ref-C-bottom-2"
       sodipodi:insensitive="true"
       inkscape:connector-curvature="0" />
    <path
       style="opacity:0.5;fill:none;stroke:#00ffcc;stroke-width:1px;stroke-linecap:square"
       d="m 92,369.5 0,-10"
       id="ref-C-bottom-3"
       sodipodi:insensitive="true"
       inkscape:connector-curvature="0" />
    <path
       style="opacity:0.5;fill:none;stroke:#00ffcc;stroke-width:1px;stroke-linecap:square"
       d="m 94,369.5 0,-10"
       id="ref-C-bottom-4"
       sodipodi:insensitive="true"
       inkscape:connector-curvature="0" />
    <path
       style="opacity:0.5;fill:none;stroke:#00ffcc;stroke-width:1px;stroke-linecap:square"
       d="m 306,369.5 0,-10"
       id="ref-C-bottom-5"
       sodipodi:insensitive="true"
       inkscape:connector-curvature="0" />
    <path
       style="opacity:0.5;fill:none;stroke:#00ffcc;stroke-width:1px;stroke-linecap:square"
       d="m 308,369.5 0,-10"
       id="ref-C-bottom-6"
       sodipodi:insensitive="true"
       inkscape:connector-curvature="0" />
    <path
       style="opacity:0.5;fill:none;stroke:#00ffcc;stroke-width:1px;stroke-linecap:square"
       d="m 332,369.5 0,-10"
       id="ref-C-bottom-7"
       sodipodi:insensitive="true"
       inkscape:connector-curvature="0" />
    <path
       style="opacity:0.5;fill:none;stroke:#00ffcc;stroke-width:1px;stroke-linecap:square"
       d="m 334,369.5 0,-10"
       id="ref-C-bottom-8"
       sodipodi:insensitive="true"
       inkscape:connector-curvature="0" />
    <path
       style="opacity:0.5;fill:none;stroke:#ffc200;stroke-width:1px;stroke-linecap:square"
       d="m 30.5,189 10,0"
       id="ref-S-left-1"
       sodipodi:insensitive="true"
       inkscape:connector-curvature="0" />
    <path
       style="opacity:0.5;fill:none;stroke:#ffc200;stroke-width:1px;stroke-linecap:square"
       d="m 30.5,191 10,0"
       id="ref-S-left-2"
       sodipodi:insensitive="true"
       inkscape:connector-curvature="0" />
    <path
       style="opacity:0.5;fill:none;stroke:#ffc200;stroke-width:1px;stroke-linecap:square"
       d="m 30.5,209 10,0"
       id="ref-S-left-3"
       sodipodi:insensitive="true"
       inkscape:connector-curvature="0" />
    <path
       style="opacity:0.5;fill:none;stroke:#ffc200;stroke-width:1px;stroke-linecap:square"
       d="m 30.5,211 10,0"
       id="ref-S-left-4"
       sodipodi:insensitive="true"
       inkscape:connector-curvature="0" />
    <path
       style="opacity:0.5;fill:none;stroke:#00ff00;stroke-width:1px;stroke-linecap:square"
       d="m 40.5,199 -10,0"
       id="ref-I-left-1"
       sodipodi:insensitive="true"
       inkscape:connector-curvature="0" />
    <path
       style="opacity:0.5;fill:none;stroke:#00ff00;stroke-width:1px;stroke-linecap:square"
       d="m 40.5,201 -10,0"
       id="ref-I-left-2"
       sodipodi:insensitive="true"
       inkscape:connector-curvature="0" />
    <path
       style="opacity:0.5;fill:none;stroke:#00ffcc;stroke-width:1px;stroke-linecap:square"
       d="m 30.5,66 10,0"
       id="ref-C-left-1"
       sodipodi:insensitive="true"
       inkscape:connector-curvature="0" />
    <path
       style="opacity:0.5;fill:none;stroke:#00ffcc;stroke-width:1px;stroke-linecap:square"
       d="m 30.5,68 10,0"
       id="ref-C-left-2"
       sodipodi:insensitive="true"
       inkscape:connector-curvature="0" />
    <path
       style="opacity:0.5;fill:none;stroke:#00ffcc;stroke-width:1px;stroke-linecap:square"
       d="m 30.5,92 10,0"
       id="ref-C-left-3"
       sodipodi:insensitive="true"
       inkscape:connector-curvature="0" />
    <path
       style="opacity:0.5;fill:none;stroke:#00ffcc;stroke-width:1px;stroke-linecap:square"
       d="m 30.5,94 10,0"
       id="ref-C-left-4"
       sodipodi:insensitive="true"
       inkscape:connector-curvature="0" />
    <path
       style="opacity:0.5;fill:none;stroke:#00ffcc;stroke-width:1px;stroke-linecap:square"
       d="m 30.5,306 10,0"
       id="ref-C-left-5"
       sodipodi:insensitive="true"
       inkscape:connector-curvature="0" />
    <path
       style="opacity:0.5;fill:none;stroke:#00ffcc;stroke-width:1px;stroke-linecap:square"
       d="m 30.5,308 10,0"
       id="ref-C-left-6"
       sodipodi:insensitive="true"
       inkscape:connector-curvature="0" />
    <path
       style="opacity:0.5;fill:none;stroke:#00ffcc;stroke-width:1px;stroke-linecap:square"
       d="m 30.5,332 10,0"
       id="ref-C-left-7"
       sodipodi:insensitive="true"
       inkscape:connector-curvature="0" />
    <path
       style="opacity:0.5;fill:none;stroke:#00ffcc;stroke-width:1px;stroke-linecap:square"
       d="m 30.5,334 10,0"
       id="ref-C-left-8"
       sodipodi:insensitive="true"
       inkscape:connector-curvature="0" />
    <path
       style="fill:none;stroke:#000000;stroke-width:1px;stroke-linecap:butt"
       d="m 190,30 0,11"
       id="S-top-1"
       inkscape:connector-curvature="0"
       sodipodi:nodetypes="cc" />
    <path
       style="fill:none;stroke:#000000;stroke-width:1px;stroke-linecap:butt"
       d="m 210,30 0,11"
       id="S-top-2"
       inkscape:connector-curvature="0"
       sodipodi:nodetypes="cc" />
    <path
       style="fill:none;stroke:#000000;stroke-width:1px;stroke-linecap:butt"
       d="m 370,190 -11,0"
       id="S-right-1"
       inkscape:connector-curvature="0"
       sodipodi:nodetypes="cc" />
    <path
       style="fill:none;stroke:#000000;stroke-width:1px;stroke-linecap:butt"
       d="m 370,210 -11,0"
       id="S-right-2"
       inkscape:connector-curvature="0"
       sodipodi:nodetypes="cc" />
    <path
       style="fill:none;stroke:#000000;stroke-width:1px;stroke-linecap:butt"
       d="m 190,370 0,-11"
       id="S-bottom-1"
       inkscape:connector-curvature="0"
       sodipodi:nodetypes="cc" />
    <path
       style="fill:none;stroke:#000000;stroke-width:1px;stroke-linecap:butt"
       d="m 210,370 0,-11"
       id="S-bottom-2"
       inkscape:connector-curvature="0"
       sodipodi:nodetypes="cc" />
    <path
       style="fill:none;stroke:#000000;stroke-width:1px;stroke-linecap:butt"
       d="m 30,190 11,0"
       id="S-left-1"
       inkscape:connector-curvature="0"
       sodipodi:nodetypes="cc" />
    <path
       style="fill:none;stroke:#000000;stroke-width:1px;stroke-linecap:butt"
       d="m 30,210 11,0"
       id="S-left-2"
       inkscape:connector-curvature="0"
       sodipodi:nodetypes="cc" />
    <path
       style="fill:none;stroke:#000000;stroke-width:1px;stroke-linecap:butt"
       d="m 200,30 0,11"
       id="I-top-1"
       inkscape:connector-curvature="0"
       sodipodi:nodetypes="cc" />
    <path
       style="fill:none;stroke:#000000;stroke-width:1px;stroke-linecap:butt"
       d="m 370,200 -11,0"
       id="I-right-1"
       inkscape:connector-curvature="0"
       sodipodi:nodetypes="cc" />
    <path
       style="fill:none;stroke:#000000;stroke-width:1px;stroke-linecap:butt"
       d="m 200,370 0,-11"
       id="I-bottom-1"
       inkscape:connector-curvature="0"
       sodipodi:nodetypes="cc" />
    <path
       style="fill:none;stroke:#000000;stroke-width:1px;stroke-linecap:butt"
       d="m 41,200 -11,0"
       id="I-left-1"
       inkscape:connector-curvature="0"
       sodipodi:nodetypes="cc" />
    <path
       style="fill:none;stroke:#000000;stroke-width:1px;stroke-linecap:butt"
       d="m 67,30 0,11"
       id="C-top-1"
       inkscape:connector-curvature="0"
       sodipodi:nodetypes="cc" />
    <path
       style="fill:none;stroke:#000000;stroke-width:1px;stroke-linecap:butt"
       d="m 93,30 0,11"
       id="C-top-2"
       inkscape:connector-curvature="0"
       sodipodi:nodetypes="cc" />
    <path
       style="fill:none;stroke:#000000;stroke-width:1px;stroke-linecap:butt"
       d="m 307,30 0,11"
       id="C-top-3"
       inkscape:connector-curvature="0"
       sodipodi:nodetypes="cc" />
    <path
       style="fill:none;stroke:#000000;stroke-width:1px;stroke-linecap:butt"
       d="m 333,30 0,11"
       id="C-top-4"
       inkscape:connector-curvature="0"
       sodipodi:nodetypes="cc" />
    <path
       style="fill:none;stroke:#000000;stroke-width:1px;stroke-linecap:butt"
       d="m 370,67 -11,0"
       id="C-right-1"
       inkscape:connector-curvature="0"
       sodipodi:nodetypes="cc" />
    <path
       style="fill:none;stroke:#000000;stroke-width:1px;stroke-linecap:butt"
       d="m 370,93 -11,0"
       id="C-right-2"
       inkscape:connector-curvature="0"
       sodipodi:nodetypes="cc" />
    <path
       style="fill:none;stroke:#000000;stroke-width:1px;stroke-linecap:butt"
       d="m 370,307 -11,0"
       id="C-right-3"
       inkscape:connector-curvature="0"
       sodipodi:nodetypes="cc" />
    <path
       style="fill:none;stroke:#000000;stroke-width:1px;stroke-linecap:butt"
       d="m 370,333 -11,0"
       id="C-right-4"
       inkscape:connector-curvature="0"
       sodipodi:nodetypes="cc" />
    <path
       style="fill:none;stroke:#000000;stroke-width:1px;stroke-linecap:butt"
       d="m 67,370 0,-11"
       id="C-bottom-1"
       inkscape:connector-curvature="0"
       sodipodi:nodetypes="cc" />
    <path
       style="fill:none;stroke:#000000;stroke-width:1px;stroke-linecap:butt"
       d="m 93,370 0,-11"
       id="C-bottom-2"
       inkscape:connector-curvature="0"
       sodipodi:nodetypes="cc" />
    <path
       style="fill:none;stroke:#000000;stroke-width:1px;stroke-linecap:butt"
       d="m 307,370 0,-11"
       id="C-bottom-3"
       inkscape:connector-curvature="0"
       sodipodi:nodetypes="cc" />
    <path
       style="fill:none;stroke:#000000;stroke-width:1px;stroke-linecap:butt"
       d="m 333,370 0,-11"
       id="C-bottom-4"
       inkscape:connector-curvature="0"
       sodipodi:nodetypes="cc" />
    <path
       style="fill:none;stroke:#000000;stroke-width:1px;stroke-linecap:butt"
       d="m 30,67 11,0"
       id="C-left-1"
       inkscape:connector-curvature="0"
       sodipodi:nodetypes="cc" />
    <path
       style="fill:none;stroke:#000000;stroke-width:1px;stroke-linecap:butt"
       d="m 30,93 11,0"
       id="C-left-2"
       inkscape:connector-curvature="0"
       sodipodi:nodetypes="cc" />
    <path
       style="fill:none;stroke:#000000;stroke-width:1px;stroke-linecap:butt"
       d="m 30,307 11,0"
       id="C-left-3"
       inkscape:connector-curvature="0"
       sodipodi:nodetypes="cc" />
    <path
       style="fill:none;stroke:#000000;stroke-width:1px;stroke-linecap:butt"
       d="m 30,333 11,0"
       id="C-left-4"
       inkscape:connector-curvature="0"
       sodipodi:nodetypes="cc" />
  </g>
  <g
     inkscape:groupmode="layer"
     id="layer1"
     inkscape:label="XX_DOODLE"
     style="display:none"
     sodipodi:insensitive="true">
    <path
       style="fill:none;stroke:#000000;stroke-width:1px;stroke-linecap:butt;display:inline"
       d="m 200,370 0,-51"
       id="I-bottom-1-1"
       inkscape:connector-curvature="0"
       sodipodi:nodetypes="cc" />
    <path
       style="fill:none;stroke:#000000;stroke-width:1px;stroke-linecap:butt;display:inline"
       d="m 71,200 -41,0"
       id="I-left-1-5"
       inkscape:connector-curvature="0"
       sodipodi:nodetypes="cc" />
    <path
       sodipodi:nodetypes="cc"
       inkscape:connector-curvature="0"
       id="path6754"
       d="m 982,370 0,-51"
       style="fill:none;stroke:#000000;stroke-width:1px;stroke-linecap:butt;display:inline" />
    <path
       sodipodi:nodetypes="cc"
       inkscape:connector-curvature="0"
       id="path6756"
       d="m 853,200 -41,0"
       style="fill:none;stroke:#000000;stroke-width:1px;stroke-linecap:butt;display:inline" />
    <path
       style="fill:none;stroke:#ff0000;stroke-width:1px"
       d="m 981.99999,177.97025 c 0,27.3381 -22.16189,49.5 -49.49999,49.5 -27.33809,0 -49.5,-22.1619 -49.5,-49.5 0,-27.33809 22.16191,-49.5 49.5,-49.5 27.3381,0 49.49999,22.16191 49.49999,49.5 z"
       id="path6758"
       inkscape:connector-curvature="0" />
    <path
       inkscape:connector-curvature="0"
       id="path6761"
       d="m 883.00003,287.97026 c 0,19.05383 -15.44618,34.5 -34.50001,34.5 -19.05381,0 -34.5,-15.44617 -34.5,-34.5 0,-19.05383 15.44619,-34.5 34.5,-34.5 19.05383,0 34.50001,15.44617 34.50001,34.5 z"
       style="fill:none;stroke:#0000ff;stroke-width:1px" />
    <path
       style="fill:none;stroke:#000000;stroke-width:1px;stroke-linecap:butt;display:inline"
       d="m 1232,370 0,-192.02975 c 0,-27.33809 -22.1619,-49.5 -49.5,-49.5 -27.3381,0 -49.5,22.16191 -49.5,49.5 l 0,110.00001 c 0,19.05383 -15.4462,34.5 -34.5,34.5 -19.0538,0 -34.5,-15.44617 -34.5,-34.5 l 0,-79.34756 99,-8.6227 -101,0"
       id="path6763"
       inkscape:connector-curvature="0"
       sodipodi:nodetypes="cssssscccc" />
    <path
       sodipodi:nodetypes="cssssscccc"
       inkscape:connector-curvature="0"
       id="path6771"
       d="m 1453,370 0,-192.02975 c 0,-27.33809 -22.1619,-49.5 -49.5,-49.5 -27.3381,0 -49.5,22.16191 -49.5,49.5 l 0,110.00001 c 0,19.05383 -15.4462,34.5 -34.5,34.5 -19.0538,0 -34.5,-15.44617 -34.5,-34.5 l 0,-59.34756 c 0,0 99,-16.2819 99,-28.6227 l -101,0"
       style="fill:none;stroke:#000000;stroke-width:1px;stroke-linecap:butt;display:inline" />
    <path
       style="fill:none;stroke:#0000ff;stroke-width:1px"
       d="m 1384,173.5 c 0,2.48528 -2.0147,4.5 -4.5,4.5 -2.4853,0 -4.5,-2.01472 -4.5,-4.5 0,-2.48528 2.0147,-4.5 4.5,-4.5 2.4853,0 4.5,2.01472 4.5,4.5 z"
       id="path6773"
       inkscape:connector-curvature="0" />
    <path
       style="fill:none;stroke:#000000;stroke-width:1px;stroke-linecap:butt;display:inline"
       d="m 982,770 0,-51"
       id="path3105"
       inkscape:connector-curvature="0"
       sodipodi:nodetypes="cc" />
    <path
       style="fill:none;stroke:#000000;stroke-width:1px;stroke-linecap:butt;display:inline"
       d="m 853,600 -41,0"
       id="path3107"
       inkscape:connector-curvature="0"
       sodipodi:nodetypes="cc" />
    <path
       inkscape:connector-curvature="0"
       id="path3109"
       d="m 982,582.5 c 0,24.57667 -19.92332,44.5 -44.5,44.5 -24.57666,0 -44.5,-19.92333 -44.5,-44.5 0,-24.57667 19.92334,-44.50001 44.5,-44.50001 24.57668,0 44.5,19.92334 44.5,44.50001 z"
       style="fill:none;stroke:#ff0000;stroke-width:0.99999994px" />
    <path
       style="fill:none;stroke:#0000ff;stroke-width:0.99999994px"
       d="m 883.00002,692.5 c 0,16.29241 -13.2076,29.5 -29.5,29.5 -16.29239,0 -29.5,-13.20759 -29.5,-29.5 0,-16.2924 13.20761,-29.49999 29.5,-29.49999 16.2924,0 29.5,13.20759 29.5,29.49999 z"
       id="path3111"
       inkscape:connector-curvature="0" />
    <path
       inkscape:connector-curvature="0"
       id="path3113"
       d="m 883.00002,604.5 c 0,2.48528 -2.01472,4.5 -4.5,4.5 -2.48528,0 -4.5,-2.01472 -4.5,-4.5 0,-2.48528 2.01472,-4.5 4.5,-4.5 2.48528,0 4.5,2.01472 4.5,4.5 z"
       style="fill:none;stroke:#0000ff;stroke-width:0.99999994px" />
    <path
       sodipodi:nodetypes="cc"
       inkscape:connector-curvature="0"
       id="path3117"
       d="m 1093,600 -41,0"
       style="fill:none;stroke:#000000;stroke-width:1px;stroke-linecap:butt;display:inline" />
    <path
       inkscape:connector-curvature="0"
       id="path3121"
       d="m 1074,692.5 c 0,16.29241 13.2076,29.5 29.5,29.5 16.2924,0 29.5,-13.20759 29.5,-29.5 l 0,-110 c 0,-24.57667 19.9233,-44.50001 44.5,-44.50001 24.5767,0 44.5,19.92334 44.5,44.50001 0,64.57633 0,187.5 0,187.5"
       style="fill:none;stroke:#0000ff;stroke-width:0.99999994px"
       sodipodi:nodetypes="csssssc" />
    <path
       style="fill:none;stroke:#0000ff;stroke-width:0.99999994px"
       d="m 1118.5,600 c 2.4853,0 4.5,2.01472 4.5,4.5 0,2.48528 -2.0147,4.5 -4.5,4.5"
       id="path3123"
       inkscape:connector-curvature="0"
       sodipodi:nodetypes="csc" />
    <path
       style="fill:none;stroke:#000000;stroke-width:1px;stroke-linecap:butt;display:inline"
       d="m 1323,600 -41,0"
       id="path3125"
       inkscape:connector-curvature="0"
       sodipodi:nodetypes="cc" />
    <path
       sodipodi:nodetypes="cssssssssssc"
       inkscape:connector-curvature="0"
       id="path3129"
       d="m 1328.5,608 c 2.4853,0 4.5,2.01472 4.5,4.5 0,2.48528 -2.0147,4.5 -4.5,4.5 l -20,0 c -2.4853,0 -4.5,2.0147 -4.5,4.5 l 0,71 c 0,16.29241 13.2076,29.5 29.5,29.5 16.2924,0 29.5,-13.20759 29.5,-29.5 l 0,-110 c 0,-24.57667 19.9233,-44.50001 44.5,-44.50001 24.5767,0 44.5,19.92334 44.5,44.50001 0,64.57633 0,187.5 0,187.5"
       style="fill:none;stroke:#0000ff;stroke-width:0.99999994px" />
    <path
       style="fill:none;stroke:#0000ff;stroke-width:0.99999994px"
       d="m 1652,770 c 0,0 0,-122.92367 0,-187.5 0,-24.57667 -19.9233,-44.50001 -44.5,-44.50001 -24.5767,0 -44.5,19.92334 -44.5,44.50001 l 0,110 c 0,16.29241 -13.2076,29.5 -29.5,29.5 -16.2924,0 -29.5,-13.20759 -29.5,-29.5 l 0,-79 c 0,-2.4853 2.0147,-4.5 4.5,-4.5 l 20,0 c 3.3776,0 4.5,-2.01472 4.5,-4.5 0,-2.48528 -1.0332,-4.5 -4.5,-4.5 l -36.5,0 -10,0"
       id="path3135"
       inkscape:connector-curvature="0"
       sodipodi:nodetypes="cssssssssssscc" />
    <path
       sodipodi:nodetypes="cssssssssssscc"
       inkscape:connector-curvature="0"
       id="path3137"
       d="m 1852,770 c 0,0 0,-122.92367 0,-187.5 0,-24.57667 -19.9233,-44.50001 -44.5,-44.50001 -24.5767,0 -44.5,19.92334 -44.5,44.50001 l 0,110 c 0,16.29241 -13.2076,29.5 -29.5,29.5 -16.2924,0 -29.5,-13.20759 -29.5,-29.5 l 0,-10 c 0,-2.4853 2.5712,-4.93283 4.5,-6.5 l 80,-65 c 2.6214,-2.12988 4.5,-4.01472 4.5,-6.5 0,-2.48528 -1.0332,-4.5 -4.5,-4.5 l -96.5,0 -10,0"
       style="fill:none;stroke:#0000ff;stroke-width:0.99999994px" />
    <path
       style="fill:none;stroke:#0000ff;stroke-width:0.99999994px"
       d="m 2072,770 c 0,0 0,-122.92367 0,-187.5 0,-24.57667 -19.9233,-44.50001 -44.5,-44.50001 -24.5767,0 -44.5,19.92334 -44.5,44.50001 l 0,110 c 0,16.29241 -13.2076,29.5 -29.5,29.5 -16.2924,0 -29.5,-13.20759 -29.5,-29.5 l 0,-20 c 0,-2.4853 2.2772,-5.38858 4.5,-6.5 l 110,-55 c 3.021,-1.5105 4.5,-4.01472 4.5,-6.5 0,-2.48528 -1.0332,-4.5 -4.5,-4.5 l -126.5,0 -10,0"
       id="path3141"
       inkscape:connector-curvature="0"
       sodipodi:nodetypes="cssssssssssscc" />
  </g>
  <g
     inkscape:groupmode="layer"
     id="layer11"
     inkscape:label="UNDRAFT-01"
     style="display:none"
     sodipodi:insensitive="true">
    <path
       inkscape:connector-curvature="0"
       zpos="-200"
       id="path6811"
       d="m 200,344 0,-166.02975 c 0,-27.33809 -22.1619,-49.5 -49.5,-49.5 -27.3381,0 -49.5,22.16191 -49.5,49.5 l 0,110.00001 z"
       style="fill:#ffffff;stroke:none;display:inline"
       sodipodi:nodetypes="cssscc" />
    <path
       style="fill:none;stroke:#000000;stroke-width:1px;stroke-linecap:butt;display:inline"
       d="m 200,370 0,-26"
       id="path6809"
       inkscape:connector-curvature="0" />
    <path
       style="fill:none;stroke:#000000;stroke-width:1px;stroke-linecap:round;display:inline"
       d="m 200,344 0,-166.02975 c 0,-27.33809 -22.1619,-49.5 -49.5,-49.5 -27.3381,0 -49.5,22.16191 -49.5,49.5 l 0,110.00001 c 0,19.05383 -15.4462,34.5 -34.5,34.5 -19.0538,0 -34.5,-15.44617 -34.5,-34.5 l 0,-29.67378"
       id="path6803"
       zpos="-200"
       inkscape:connector-curvature="0" />
    <path
       id="path6805"
       d="m 32,228.6227 c 0,0 99,-16.2819 99,-28.6227 l -101,0 z"
       style="fill:#ffffff;stroke:none;display:inline"
       inkscape:connector-curvature="0"
       sodipodi:nodetypes="cccc"
       zpos="-200" />
    <path
       style="fill:none;stroke:#000000;stroke-width:1px;stroke-linecap:butt;display:inline"
       d="m 32,258.29648 0,-29.67378 c 0,0 99,-16.2819 99,-28.6227 l -101,0"
       id="path6775"
       inkscape:connector-curvature="0"
       zpos="100" />
    <path
       inkscape:connector-curvature="0"
       id="path6777"
       d="m 131,173.5 c 0,2.48528 -2.0147,4.5 -4.5,4.5 -2.4853,0 -4.5,-2.01472 -4.5,-4.5 0,-2.48528 2.0147,-4.5 4.5,-4.5 2.4853,0 4.5,2.01472 4.5,4.5 z"
       style="fill:#ffffff;stroke:#000000;stroke-width:1px;display:inline" />
  </g>
  <g
     inkscape:groupmode="layer"
     id="layer2"
     inkscape:label="UNDRAFT-02"
     style="display:inline"
     sodipodi:insensitive="true">
    <path
       inkscape:connector-curvature="0"
       zpos="-100"
       id="path3973"
       d="m 200,340 c 0,0 0,-125.21184 0,-157.5 0,-24.57667 -19.9233,-44.50001 -44.5,-44.50001 -24.5767,0 -44.5,19.92334 -44.5,44.50001 l 0,110 z"
       style="fill:#ffffff;stroke:none;display:inline"
       sodipodi:nodetypes="cssscc" />
    <path
       inkscape:connector-curvature="0"
       zpos="-100"
       id="path3971"
       d="m 111,242.5 0,50 C 111,308.79241 97.7924,322 81.5,322 65.2076,322 52,308.79241 52,292.5 l 0,-20 z"
       style="fill:#ffffff;stroke:none;display:inline"
       sodipodi:nodetypes="cssscc" />
    <path
       style="fill:none;stroke:#000000;stroke-width:1;stroke-linecap:round;stroke-miterlimit:4;stroke-dasharray:none;display:inline"
       d="m 200,370 0,-30"
       id="path3969"
       zpos="100"
       inkscape:connector-curvature="0" />
    <path
       style="fill:none;stroke:#000000;stroke-width:1;stroke-linecap:round;stroke-miterlimit:4;stroke-dasharray:none;display:inline"
       d="m 200,340 c 0,0 0,-125.21184 0,-157.5 0,-24.57667 -19.9233,-44.50001 -44.5,-44.50001 -24.5767,0 -44.5,19.92334 -44.5,44.50001 l 0,110 C 111,308.79241 97.7924,322 81.5,322 65.2076,322 52,308.79241 52,292.5 l 0,-20"
       id="path3195"
       zpos="-100"
       inkscape:connector-curvature="0" />
    <path
       id="path3965"
       d="m 56.5,266 110,-55 c 3.021,-1.5105 4.5,-4.01472 4.5,-6.5 0,-2.48528 -1.0332,-4.5 -4.5,-4.5 l -110,0 z"
       style="fill:#ffffff;stroke:none;display:inline"
       inkscape:connector-curvature="0"
       sodipodi:nodetypes="cssscc"
       zpos="-80" />
    <path
       style="fill:none;stroke:#000000;stroke-width:1px;display:inline"
       d="m 52,272.5 c 0,-2.4853 2.2772,-5.38858 4.5,-6.5 l 110,-55 c 3.021,-1.5105 4.5,-4.01472 4.5,-6.5 0,-2.48528 -1.0332,-4.5 -4.5,-4.5 L 40,200 30,200"
       id="path3154"
       inkscape:connector-curvature="0"
       zpos="100" />
    <path
       inkscape:connector-curvature="0"
       id="path6777-3"
       d="m 101,218.5 c 0,5.2467 -4.25325,9.5 -9.5,9.5 -5.246743,0 -9.499999,-4.2533 -9.499999,-9.5 0,-5.2467 4.253256,-9.5 9.499999,-9.5 5.24675,0 9.5,4.2533 9.5,9.5 z"
       style="fill:#ffffff;stroke:#000000;stroke-width:1px;display:inline" />
  </g>
</svg>
