<?xml version="1.0" encoding="UTF-8" standalone="no"?>
<!-- Created with Inkscape (http://www.inkscape.org/) -->

<svg
   xmlns:dc="http://purl.org/dc/elements/1.1/"
   xmlns:cc="http://creativecommons.org/ns#"
   xmlns:rdf="http://www.w3.org/1999/02/22-rdf-syntax-ns#"
   xmlns:svg="http://www.w3.org/2000/svg"
   xmlns="http://www.w3.org/2000/svg"
   xmlns:sodipodi="http://sodipodi.sourceforge.net/DTD/sodipodi-0.dtd"
   xmlns:inkscape="http://www.inkscape.org/namespaces/inkscape"
   style="display:inline"
   sodipodi:docname="200305_OIUI-R+_00_II_UB_II_.svg"
   inkscape:version="0.48.3.1 r9886"
   version="1.1"
   id="svg2902"
   height="400"
   width="400">
  <sodipodi:namedview
     id="base"
     pagecolor="#f0f0f0"
     bordercolor="#666666"
     borderopacity="1.0"
     inkscape:pageopacity="1"
     inkscape:pageshadow="2"
     inkscape:zoom="0.7519125876"
     inkscape:cx="120.1064344"
     inkscape:cy="77.18019434"
     inkscape:document-units="px"
     inkscape:current-layer="layer6"
     showgrid="false"
     inkscape:window-width="1018"
     inkscape:window-height="709"
     inkscape:window-x="0"
     inkscape:window-y="1"
     inkscape:window-maximized="0"
     showguides="true"
     inkscape:guide-bbox="true"
     inkscape:snap-bbox="true"
     inkscape:snap-global="false" />
  <defs
     id="defs2904">
    <clipPath
       clipPathUnits="userSpaceOnUse"
       id="clipPath5174">
      <path
         id="path5176"
         style="opacity:0.5;fill:#00ff00;stroke:#00ff00;stroke-width:1px;stroke-linecap:square;display:inline"
         d="m 436.26971,600.11436 -232.09481,134 -169.500003,-293.58262 232.094813,-134 z"
         inkscape:connector-curvature="0"
         sodipodi:nodetypes="ccccc" />
    </clipPath>
    <clipPath
       clipPathUnits="userSpaceOnUse"
       id="clipPath5174-5">
      <path
         id="path5176-9"
         style="opacity:0.5;fill:#00ff00;stroke:#00ff00;stroke-width:1px;stroke-linecap:square;display:inline"
         d="m 436.26971,600.11436 -232.09481,134 -169.500003,-293.58262 232.094813,-134 z"
         inkscape:connector-curvature="0"
         sodipodi:nodetypes="ccccc" />
    </clipPath>
    <clipPath
       clipPathUnits="userSpaceOnUse"
       id="clipPath3238">
      <path
         sodipodi:nodetypes="ccccc"
         inkscape:connector-curvature="0"
         d="m 461.26971,643.41563 -232.09481,134 -169.500002,-293.58262 232.094812,-134 z"
         style="opacity:0.5;fill:#00ff00;stroke:#00ff00;stroke-width:1px;stroke-linecap:square;display:inline"
         id="path3240" />
    </clipPath>
  </defs>
  <metadata
     id="metadata2907">
    <rdf:RDF>
      <cc:Work
         rdf:about="">
        <dc:format>image/svg+xml</dc:format>
        <dc:type
           rdf:resource="http://purl.org/dc/dcmitype/StillImage" />
        <dc:title />
      </cc:Work>
    </rdf:RDF>
  </metadata>
  <g
     inkscape:groupmode="layer"
     id="bg"
     inkscape:label="XX_BG"
     sodipodi:insensitive="true">
    <path
       style="fill:#d5ffd5"
       d="m 0,0 400,0 0,400 -400,0 z"
       id="bgrect"
       inkscape:connector-curvature="0" />
  </g>
  <g
     inkscape:label="XX_REFERENZ"
     inkscape:groupmode="layer"
     id="XX_referenz"
     style="display:none"
     sodipodi:insensitive="true">
    <path
       id="innerframe"
       style="fill:none;stroke:#ff0000;stroke-width:1"
       d="m 40.5,40.5 319,0 0,319 -319,0 0,-319 z"
       inkscape:label="#innerframe"
       sodipodi:insensitive="true"
       inkscape:connector-curvature="0" />
    <path
       id="outerframe"
       style="fill:none;stroke:#ff0000;stroke-width:1"
       d="m 30.5,30.5 339,0 0,339 -339,0 0,-339 z"
       inkscape:label="#outerframe"
       sodipodi:nodetypes="ccccc"
       sodipodi:insensitive="true"
       inkscape:connector-curvature="0" />
    <path
       style="opacity:0.5;fill:none;stroke:#ffc200;stroke-width:1px;stroke-linecap:square"
       d="m 189,30.5 0,10"
       id="ref-S-top-1"
       sodipodi:insensitive="true"
       inkscape:connector-curvature="0" />
    <path
       style="opacity:0.5;fill:none;stroke:#ffc200;stroke-width:1px;stroke-linecap:square"
       d="m 191,30.5 0,10"
       id="ref-S-top-2"
       sodipodi:insensitive="true"
       inkscape:connector-curvature="0" />
    <path
       style="opacity:0.5;fill:none;stroke:#ffc200;stroke-width:1px;stroke-linecap:square"
       d="m 209,30.5 0,10"
       id="ref-S-top-3"
       sodipodi:insensitive="true"
       inkscape:connector-curvature="0" />
    <path
       style="opacity:0.5;fill:none;stroke:#ffc200;stroke-width:1px;stroke-linecap:square"
       d="m 211,30.5 0,10"
       id="ref-S-top-4"
       sodipodi:insensitive="true"
       inkscape:connector-curvature="0" />
    <path
       style="opacity:0.5;fill:none;stroke:#00ff00;stroke-width:1px;stroke-linecap:square"
       d="m 199,30.5 0,10"
       id="ref-I-top-1"
       sodipodi:insensitive="true"
       inkscape:connector-curvature="0" />
    <path
       style="opacity:0.5;fill:none;stroke:#00ff00;stroke-width:1px;stroke-linecap:square"
       d="m 201,30.5 0,10"
       id="ref-I-top-2"
       sodipodi:insensitive="true"
       inkscape:connector-curvature="0" />
    <path
       style="opacity:0.5;fill:none;stroke:#00ffcc;stroke-width:1px;stroke-linecap:square"
       d="m 66,30.5 0,10"
       id="ref-C-top-1"
       sodipodi:insensitive="true"
       inkscape:connector-curvature="0" />
    <path
       style="opacity:0.5;fill:none;stroke:#00ffcc;stroke-width:1px;stroke-linecap:square"
       d="m 68,30.5 0,10"
       id="ref-C-top-2"
       sodipodi:insensitive="true"
       inkscape:connector-curvature="0" />
    <path
       style="opacity:0.5;fill:none;stroke:#00ffcc;stroke-width:1px;stroke-linecap:square"
       d="m 92,30.5 0,10"
       id="ref-C-top-3"
       sodipodi:insensitive="true"
       inkscape:connector-curvature="0" />
    <path
       style="opacity:0.5;fill:none;stroke:#00ffcc;stroke-width:1px;stroke-linecap:square"
       d="m 94,30.5 0,10"
       id="ref-C-top-4"
       sodipodi:insensitive="true"
       inkscape:connector-curvature="0" />
    <path
       style="opacity:0.5;fill:none;stroke:#00ffcc;stroke-width:1px;stroke-linecap:square"
       d="m 306,30.5 0,10"
       id="ref-C-top-5"
       sodipodi:insensitive="true"
       inkscape:connector-curvature="0" />
    <path
       style="opacity:0.5;fill:none;stroke:#00ffcc;stroke-width:1px;stroke-linecap:square"
       d="m 308,30.5 0,10"
       id="ref-C-top-6"
       sodipodi:insensitive="true"
       inkscape:connector-curvature="0" />
    <path
       style="opacity:0.5;fill:none;stroke:#00ffcc;stroke-width:1px;stroke-linecap:square"
       d="m 332,30.5 0,10"
       id="ref-C-top-7"
       sodipodi:insensitive="true"
       inkscape:connector-curvature="0" />
    <path
       style="opacity:0.5;fill:none;stroke:#00ffcc;stroke-width:1px;stroke-linecap:square"
       d="m 334,30.5 0,10"
       id="ref-C-top-8"
       sodipodi:insensitive="true"
       inkscape:connector-curvature="0" />
    <path
       style="opacity:0.5;fill:none;stroke:#ffc200;stroke-width:1px;stroke-linecap:square"
       d="m 369.5,189 -10,0"
       id="ref-S-right-1"
       sodipodi:insensitive="true"
       inkscape:connector-curvature="0" />
    <path
       style="opacity:0.5;fill:none;stroke:#ffc200;stroke-width:1px;stroke-linecap:square"
       d="m 369.5,191 -10,0"
       id="ref-S-right-2"
       sodipodi:insensitive="true"
       inkscape:connector-curvature="0" />
    <path
       style="opacity:0.5;fill:none;stroke:#ffc200;stroke-width:1px;stroke-linecap:square"
       d="m 369.5,209 -10,0"
       id="ref-S-right-3"
       sodipodi:insensitive="true"
       inkscape:connector-curvature="0" />
    <path
       style="opacity:0.5;fill:none;stroke:#ffc200;stroke-width:1px;stroke-linecap:square"
       d="m 369.5,211 -10,0"
       id="ref-S-right-4"
       sodipodi:insensitive="true"
       inkscape:connector-curvature="0" />
    <path
       style="opacity:0.5;fill:none;stroke:#00ff00;stroke-width:1px;stroke-linecap:square"
       d="m 369.5,199 -10,0"
       id="ref-I-right-1"
       sodipodi:insensitive="true"
       inkscape:connector-curvature="0" />
    <path
       style="opacity:0.5;fill:none;stroke:#00ff00;stroke-width:1px;stroke-linecap:square"
       d="m 369.5,201 -10,0"
       id="ref-I-right-2"
       sodipodi:insensitive="true"
       inkscape:connector-curvature="0" />
    <path
       style="opacity:0.5;fill:none;stroke:#00ffcc;stroke-width:1px;stroke-linecap:square"
       d="m 369.5,66 -10,0"
       id="ref-C-right-1"
       sodipodi:insensitive="true"
       inkscape:connector-curvature="0" />
    <path
       style="opacity:0.5;fill:none;stroke:#00ffcc;stroke-width:1px;stroke-linecap:square"
       d="m 369.5,68 -10,0"
       id="ref-C-right-2"
       sodipodi:insensitive="true"
       inkscape:connector-curvature="0" />
    <path
       style="opacity:0.5;fill:none;stroke:#00ffcc;stroke-width:1px;stroke-linecap:square"
       d="m 369.5,92 -10,0"
       id="ref-C-right-3"
       sodipodi:insensitive="true"
       inkscape:connector-curvature="0" />
    <path
       style="opacity:0.5;fill:none;stroke:#00ffcc;stroke-width:1px;stroke-linecap:square"
       d="m 369.5,94 -10,0"
       id="ref-C-right-4"
       sodipodi:insensitive="true"
       inkscape:connector-curvature="0" />
    <path
       style="opacity:0.5;fill:none;stroke:#00ffcc;stroke-width:1px;stroke-linecap:square"
       d="m 369.5,306 -10,0"
       id="ref-C-right-5"
       sodipodi:insensitive="true"
       inkscape:connector-curvature="0" />
    <path
       style="opacity:0.5;fill:none;stroke:#00ffcc;stroke-width:1px;stroke-linecap:square"
       d="m 369.5,308 -10,0"
       id="ref-C-right-6"
       sodipodi:insensitive="true"
       inkscape:connector-curvature="0" />
    <path
       style="opacity:0.5;fill:none;stroke:#00ffcc;stroke-width:1px;stroke-linecap:square"
       d="m 369.5,332 -10,0"
       id="ref-C-right-7"
       sodipodi:insensitive="true"
       inkscape:connector-curvature="0" />
    <path
       style="opacity:0.5;fill:none;stroke:#00ffcc;stroke-width:1px;stroke-linecap:square"
       d="m 369.5,334 -10,0"
       id="ref-C-right-8"
       sodipodi:insensitive="true"
       inkscape:connector-curvature="0" />
    <path
       style="opacity:0.5;fill:none;stroke:#ffc200;stroke-width:1px;stroke-linecap:square"
       d="m 189,369.5 0,-10"
       id="ref-S-bottom-1"
       sodipodi:insensitive="true"
       inkscape:connector-curvature="0" />
    <path
       style="opacity:0.5;fill:none;stroke:#ffc200;stroke-width:1px;stroke-linecap:square"
       d="m 191,369.5 0,-10"
       id="ref-S-bottom-2"
       sodipodi:insensitive="true"
       inkscape:connector-curvature="0" />
    <path
       style="opacity:0.5;fill:none;stroke:#ffc200;stroke-width:1px;stroke-linecap:square"
       d="m 209,369.5 0,-10"
       id="ref-S-bottom-3"
       sodipodi:insensitive="true"
       inkscape:connector-curvature="0" />
    <path
       style="opacity:0.5;fill:none;stroke:#ffc200;stroke-width:1px;stroke-linecap:square"
       d="m 211,369.5 0,-10"
       id="ref-S-bottom-4"
       sodipodi:insensitive="true"
       inkscape:connector-curvature="0" />
    <path
       style="opacity:0.5;fill:none;stroke:#00ff00;stroke-width:1px;stroke-linecap:square"
       d="m 199,369.5 0,-10"
       id="ref-I-bottom-1"
       sodipodi:insensitive="true"
       inkscape:connector-curvature="0" />
    <path
       style="opacity:0.5;fill:none;stroke:#00ff00;stroke-width:1px;stroke-linecap:square"
       d="m 201,369.5 0,-10"
       id="ref-I-bottom-2"
       sodipodi:insensitive="true"
       inkscape:connector-curvature="0" />
    <path
       style="opacity:0.5;fill:none;stroke:#00ffcc;stroke-width:1px;stroke-linecap:square"
       d="m 66,369.5 0,-10"
       id="ref-C-bottom-1"
       sodipodi:insensitive="true"
       inkscape:connector-curvature="0" />
    <path
       style="opacity:0.5;fill:none;stroke:#00ffcc;stroke-width:1px;stroke-linecap:square"
       d="m 68,369.5 0,-10"
       id="ref-C-bottom-2"
       sodipodi:insensitive="true"
       inkscape:connector-curvature="0" />
    <path
       style="opacity:0.5;fill:none;stroke:#00ffcc;stroke-width:1px;stroke-linecap:square"
       d="m 92,369.5 0,-10"
       id="ref-C-bottom-3"
       sodipodi:insensitive="true"
       inkscape:connector-curvature="0" />
    <path
       style="opacity:0.5;fill:none;stroke:#00ffcc;stroke-width:1px;stroke-linecap:square"
       d="m 94,369.5 0,-10"
       id="ref-C-bottom-4"
       sodipodi:insensitive="true"
       inkscape:connector-curvature="0" />
    <path
       style="opacity:0.5;fill:none;stroke:#00ffcc;stroke-width:1px;stroke-linecap:square"
       d="m 306,369.5 0,-10"
       id="ref-C-bottom-5"
       sodipodi:insensitive="true"
       inkscape:connector-curvature="0" />
    <path
       style="opacity:0.5;fill:none;stroke:#00ffcc;stroke-width:1px;stroke-linecap:square"
       d="m 308,369.5 0,-10"
       id="ref-C-bottom-6"
       sodipodi:insensitive="true"
       inkscape:connector-curvature="0" />
    <path
       style="opacity:0.5;fill:none;stroke:#00ffcc;stroke-width:1px;stroke-linecap:square"
       d="m 332,369.5 0,-10"
       id="ref-C-bottom-7"
       sodipodi:insensitive="true"
       inkscape:connector-curvature="0" />
    <path
       style="opacity:0.5;fill:none;stroke:#00ffcc;stroke-width:1px;stroke-linecap:square"
       d="m 334,369.5 0,-10"
       id="ref-C-bottom-8"
       sodipodi:insensitive="true"
       inkscape:connector-curvature="0" />
    <path
       style="opacity:0.5;fill:none;stroke:#ffc200;stroke-width:1px;stroke-linecap:square"
       d="m 30.5,189 10,0"
       id="ref-S-left-1"
       sodipodi:insensitive="true"
       inkscape:connector-curvature="0" />
    <path
       style="opacity:0.5;fill:none;stroke:#ffc200;stroke-width:1px;stroke-linecap:square"
       d="m 30.5,191 10,0"
       id="ref-S-left-2"
       sodipodi:insensitive="true"
       inkscape:connector-curvature="0" />
    <path
       style="opacity:0.5;fill:none;stroke:#ffc200;stroke-width:1px;stroke-linecap:square"
       d="m 30.5,209 10,0"
       id="ref-S-left-3"
       sodipodi:insensitive="true"
       inkscape:connector-curvature="0" />
    <path
       style="opacity:0.5;fill:none;stroke:#ffc200;stroke-width:1px;stroke-linecap:square"
       d="m 30.5,211 10,0"
       id="ref-S-left-4"
       sodipodi:insensitive="true"
       inkscape:connector-curvature="0" />
    <path
       style="opacity:0.5;fill:none;stroke:#00ff00;stroke-width:1px;stroke-linecap:square"
       d="m 40.5,199 -10,0"
       id="ref-I-left-1"
       sodipodi:insensitive="true"
       inkscape:connector-curvature="0" />
    <path
       style="opacity:0.5;fill:none;stroke:#00ff00;stroke-width:1px;stroke-linecap:square"
       d="m 40.5,201 -10,0"
       id="ref-I-left-2"
       sodipodi:insensitive="true"
       inkscape:connector-curvature="0" />
    <path
       style="opacity:0.5;fill:none;stroke:#00ffcc;stroke-width:1px;stroke-linecap:square"
       d="m 30.5,66 10,0"
       id="ref-C-left-1"
       sodipodi:insensitive="true"
       inkscape:connector-curvature="0" />
    <path
       style="opacity:0.5;fill:none;stroke:#00ffcc;stroke-width:1px;stroke-linecap:square"
       d="m 30.5,68 10,0"
       id="ref-C-left-2"
       sodipodi:insensitive="true"
       inkscape:connector-curvature="0" />
    <path
       style="opacity:0.5;fill:none;stroke:#00ffcc;stroke-width:1px;stroke-linecap:square"
       d="m 30.5,92 10,0"
       id="ref-C-left-3"
       sodipodi:insensitive="true"
       inkscape:connector-curvature="0" />
    <path
       style="opacity:0.5;fill:none;stroke:#00ffcc;stroke-width:1px;stroke-linecap:square"
       d="m 30.5,94 10,0"
       id="ref-C-left-4"
       sodipodi:insensitive="true"
       inkscape:connector-curvature="0" />
    <path
       style="opacity:0.5;fill:none;stroke:#00ffcc;stroke-width:1px;stroke-linecap:square"
       d="m 30.5,306 10,0"
       id="ref-C-left-5"
       sodipodi:insensitive="true"
       inkscape:connector-curvature="0" />
    <path
       style="opacity:0.5;fill:none;stroke:#00ffcc;stroke-width:1px;stroke-linecap:square"
       d="m 30.5,308 10,0"
       id="ref-C-left-6"
       sodipodi:insensitive="true"
       inkscape:connector-curvature="0" />
    <path
       style="opacity:0.5;fill:none;stroke:#00ffcc;stroke-width:1px;stroke-linecap:square"
       d="m 30.5,332 10,0"
       id="ref-C-left-7"
       sodipodi:insensitive="true"
       inkscape:connector-curvature="0" />
    <path
       style="opacity:0.5;fill:none;stroke:#00ffcc;stroke-width:1px;stroke-linecap:square"
       d="m 30.5,334 10,0"
       id="ref-C-left-8"
       sodipodi:insensitive="true"
       inkscape:connector-curvature="0" />
    <path
       style="fill:none;stroke:#000000;stroke-width:1px;stroke-linecap:butt"
       d="m 190,30 0,11"
       id="S-top-1"
       inkscape:connector-curvature="0"
       sodipodi:nodetypes="cc" />
    <path
       style="fill:none;stroke:#000000;stroke-width:1px;stroke-linecap:butt"
       d="m 210,30 0,11"
       id="S-top-2"
       inkscape:connector-curvature="0"
       sodipodi:nodetypes="cc" />
    <path
       style="fill:none;stroke:#000000;stroke-width:1px;stroke-linecap:butt"
       d="m 370,190 -11,0"
       id="S-right-1"
       inkscape:connector-curvature="0"
       sodipodi:nodetypes="cc" />
    <path
       style="fill:none;stroke:#000000;stroke-width:1px;stroke-linecap:butt"
       d="m 370,210 -11,0"
       id="S-right-2"
       inkscape:connector-curvature="0"
       sodipodi:nodetypes="cc" />
    <path
       style="fill:none;stroke:#000000;stroke-width:1px;stroke-linecap:butt"
       d="m 190,370 0,-11"
       id="S-bottom-1"
       inkscape:connector-curvature="0"
       sodipodi:nodetypes="cc" />
    <path
       style="fill:none;stroke:#000000;stroke-width:1px;stroke-linecap:butt"
       d="m 210,370 0,-11"
       id="S-bottom-2"
       inkscape:connector-curvature="0"
       sodipodi:nodetypes="cc" />
    <path
       style="fill:none;stroke:#000000;stroke-width:1px;stroke-linecap:butt"
       d="m 30,190 11,0"
       id="S-left-1"
       inkscape:connector-curvature="0"
       sodipodi:nodetypes="cc" />
    <path
       style="fill:none;stroke:#000000;stroke-width:1px;stroke-linecap:butt"
       d="m 30,210 11,0"
       id="S-left-2"
       inkscape:connector-curvature="0"
       sodipodi:nodetypes="cc" />
    <path
       style="fill:none;stroke:#000000;stroke-width:1px;stroke-linecap:butt"
       d="m 200,30 0,11"
       id="I-top-1"
       inkscape:connector-curvature="0"
       sodipodi:nodetypes="cc" />
    <path
       style="fill:none;stroke:#000000;stroke-width:1px;stroke-linecap:butt"
       d="m 370,200 -11,0"
       id="I-right-1"
       inkscape:connector-curvature="0"
       sodipodi:nodetypes="cc" />
    <path
       style="fill:none;stroke:#000000;stroke-width:1px;stroke-linecap:butt"
       d="m 200,370 0,-11"
       id="I-bottom-1"
       inkscape:connector-curvature="0"
       sodipodi:nodetypes="cc" />
    <path
       style="fill:none;stroke:#000000;stroke-width:1px;stroke-linecap:butt"
       d="m 41,200 -11,0"
       id="I-left-1"
       inkscape:connector-curvature="0"
       sodipodi:nodetypes="cc" />
    <path
       style="fill:none;stroke:#000000;stroke-width:1px;stroke-linecap:butt"
       d="m 67,30 0,11"
       id="C-top-1"
       inkscape:connector-curvature="0"
       sodipodi:nodetypes="cc" />
    <path
       style="fill:none;stroke:#000000;stroke-width:1px;stroke-linecap:butt"
       d="m 93,30 0,11"
       id="C-top-2"
       inkscape:connector-curvature="0"
       sodipodi:nodetypes="cc" />
    <path
       style="fill:none;stroke:#000000;stroke-width:1px;stroke-linecap:butt"
       d="m 307,30 0,11"
       id="C-top-3"
       inkscape:connector-curvature="0"
       sodipodi:nodetypes="cc" />
    <path
       style="fill:none;stroke:#000000;stroke-width:1px;stroke-linecap:butt"
       d="m 333,30 0,11"
       id="C-top-4"
       inkscape:connector-curvature="0"
       sodipodi:nodetypes="cc" />
    <path
       style="fill:none;stroke:#000000;stroke-width:1px;stroke-linecap:butt"
       d="m 370,67 -11,0"
       id="C-right-1"
       inkscape:connector-curvature="0"
       sodipodi:nodetypes="cc" />
    <path
       style="fill:none;stroke:#000000;stroke-width:1px;stroke-linecap:butt"
       d="m 370,93 -11,0"
       id="C-right-2"
       inkscape:connector-curvature="0"
       sodipodi:nodetypes="cc" />
    <path
       style="fill:none;stroke:#000000;stroke-width:1px;stroke-linecap:butt"
       d="m 370,307 -11,0"
       id="C-right-3"
       inkscape:connector-curvature="0"
       sodipodi:nodetypes="cc" />
    <path
       style="fill:none;stroke:#000000;stroke-width:1px;stroke-linecap:butt"
       d="m 370,333 -11,0"
       id="C-right-4"
       inkscape:connector-curvature="0"
       sodipodi:nodetypes="cc" />
    <path
       style="fill:none;stroke:#000000;stroke-width:1px;stroke-linecap:butt"
       d="m 67,370 0,-11"
       id="C-bottom-1"
       inkscape:connector-curvature="0"
       sodipodi:nodetypes="cc" />
    <path
       style="fill:none;stroke:#000000;stroke-width:1px;stroke-linecap:butt"
       d="m 93,370 0,-11"
       id="C-bottom-2"
       inkscape:connector-curvature="0"
       sodipodi:nodetypes="cc" />
    <path
       style="fill:none;stroke:#000000;stroke-width:1px;stroke-linecap:butt"
       d="m 307,370 0,-11"
       id="C-bottom-3"
       inkscape:connector-curvature="0"
       sodipodi:nodetypes="cc" />
    <path
       style="fill:none;stroke:#000000;stroke-width:1px;stroke-linecap:butt"
       d="m 333,370 0,-11"
       id="C-bottom-4"
       inkscape:connector-curvature="0"
       sodipodi:nodetypes="cc" />
    <path
       style="fill:none;stroke:#000000;stroke-width:1px;stroke-linecap:butt"
       d="m 30,67 11,0"
       id="C-left-1"
       inkscape:connector-curvature="0"
       sodipodi:nodetypes="cc" />
    <path
       style="fill:none;stroke:#000000;stroke-width:1px;stroke-linecap:butt"
       d="m 30,93 11,0"
       id="C-left-2"
       inkscape:connector-curvature="0"
       sodipodi:nodetypes="cc" />
    <path
       style="fill:none;stroke:#000000;stroke-width:1px;stroke-linecap:butt"
       d="m 30,307 11,0"
       id="C-left-3"
       inkscape:connector-curvature="0"
       sodipodi:nodetypes="cc" />
    <path
       style="fill:none;stroke:#000000;stroke-width:1px;stroke-linecap:butt"
       d="m 30,333 11,0"
       id="C-left-4"
       inkscape:connector-curvature="0"
       sodipodi:nodetypes="cc" />
  </g>
  <g
     inkscape:groupmode="layer"
     id="layer1"
     inkscape:label="LMNT-01"
     style="display:none"
     sodipodi:insensitive="true">
    <path
       sodipodi:nodetypes="ccsscc"
       inkscape:connector-curvature="0"
       id="path3109"
       d="m 332.4249649,370 0,-169.9999999 -116.4999999,10e-8 c -110.8294584,0 -149.50000005,66.9334297 -149.50000005,149.5 l 0,20.4999998 z"
       style="fill:#000000;stroke:none;display:inline" />
    <path
       style="fill:none;stroke:#000000;stroke-width:1px;stroke-linecap:butt;display:inline"
       d="m 333,370 0,-170"
       id="C-bottom-4-3"
       inkscape:connector-curvature="0"
       sodipodi:nodetypes="cc" />
    <path
       style="fill:none;stroke:#000000;stroke-width:1px;stroke-linecap:butt;display:inline"
       d="m 30,200.0000002 13.4999999,0 c 36.17230223,0 64.6580469,7.129925 86.6215125,19.6062358"
       id="path3084"
       inkscape:connector-curvature="0" />
    <path
       style="fill:none;stroke:#000000;stroke-width:1px;stroke-linecap:butt;display:inline"
       d="m 370,200.0000002 -153.4999999,0 C 105.6705417,200.0000002 67,266.9334299 67,349.5000002 L 67,370"
       id="path4469"
       inkscape:connector-curvature="0"
       sodipodi:nodetypes="cssc" />
  </g>
  <g
     inkscape:label="LMNT-02"
     id="g3113"
     inkscape:groupmode="layer"
     style="display:none"
     sodipodi:insensitive="true">
    <path
       style="fill:#000000;stroke:none"
       d="m 333,370 0,-169.9999999 -86.4999999,10e-8 C 140.1543593,200.0000002 67,264.6199744 67,339.5000002 L 67,370 z"
       id="path3157"
       inkscape:connector-curvature="0"
       sodipodi:nodetypes="ccsscc" />
    <path
       style="fill:none;stroke:#000000;stroke-width:1px;stroke-linecap:butt;display:inline"
       d="m 30,199.9999999 8.5,0 c 30.32820683,0 62.1709972,22.6909295 66.8993585,52.0220234"
       id="path3150"
       inkscape:connector-curvature="0" />
    <path
       sodipodi:nodetypes="cc"
       inkscape:connector-curvature="0"
       id="path3117"
       d="m 333,370 0,-170"
       style="fill:none;stroke:#000000;stroke-width:1px;stroke-linecap:butt;display:inline" />
    <path
       sodipodi:nodetypes="cssc"
       inkscape:connector-curvature="0"
       id="path3121"
       d="m 370,200.0000002 -123.4999999,0 C 140.1543593,200.0000002 67,264.6199744 67,339.5000002 L 67,370"
       style="fill:none;stroke:#000000;stroke-width:1px;stroke-linecap:butt;display:inline" />
  </g>
  <g
     inkscape:groupmode="layer"
     id="layer2"
     inkscape:label="LMNT-03"
     style="display:none"
     sodipodi:insensitive="true">
    <path
       style="fill:none;stroke:#000000;stroke-width:1px;stroke-linecap:butt;display:inline"
       d="M 370,200 30,200"
       id="I-right-1-7"
       inkscape:connector-curvature="0"
       sodipodi:nodetypes="cc" />
    <path
       sodipodi:nodetypes="cssscc"
       inkscape:connector-curvature="0"
       id="path3192"
       d="m 333,370 0,-130 C 333,166.5461283 273.4538718,107 200,107 126.5461283,107 67.00000008,166.5461283 67.00000005,240 L 67,370 z"
       style="fill:#000000;stroke:none" />
    <path
       style="fill:none;stroke:#000000;stroke-width:1px;stroke-linecap:butt;display:inline"
       d="m 333,370 0,-130 C 333,166.5461283 273.4538718,107 200,107 126.5461283,107 67.00000008,166.5461283 67.00000005,240 L 67,370"
       id="C-bottom-4-5"
       inkscape:connector-curvature="0"
       sodipodi:nodetypes="csssc" />
  </g>
  <g
     style="display:none"
     inkscape:label="LMNT-04"
     id="g3194"
     inkscape:groupmode="layer"
     sodipodi:insensitive="true">
    <path
       style="fill:#000000;stroke:none;display:inline"
       d="m 319.5505618,320.0505618 0,-66.8539326 c 0,-66.0259521 -53.5246096,-119.5505618 -119.5505618,-119.5505618 -66.0259521,0 -119.55056173,53.5246097 -119.55056175,119.5505618 l -5e-8,66.8539326 z"
       id="path3198-9"
       inkscape:connector-curvature="0"
       sodipodi:nodetypes="cssscc" />
    <path
       sodipodi:nodetypes="csssc"
       inkscape:connector-curvature="0"
       id="path3200-1"
       d="m 319.5505618,320.0505618 0,-66.8539326 c 0,-66.0259521 -53.5246096,-119.5505618 -119.5505618,-119.5505618 -66.0259521,0 -119.5505617,53.5246097 -119.55056175,119.5505618 l -5e-8,66.8539326"
       style="fill:none;stroke:#000000;stroke-width:0.9999999404px;stroke-linecap:butt;display:inline" />
    <path
       style="fill:#000000;stroke:none"
       d="M 73.125,200 C 69.14986684,212.6231469 67.00000001,226.0639364 67,240 l 0,130 266,0 0,-130 c 0,-13.9360636 -2.1498668,-27.3768531 -6.125,-40 l -253.75,0 z"
       id="path3198"
       inkscape:connector-curvature="0" />
    <path
       style="fill:none;stroke:#000000;stroke-width:1px;stroke-linecap:butt;display:inline"
       d="m 333,370 0,-130 c 0,-13.9360636 -2.1498668,-27.3768531 -6.125,-40 m -253.75,0 C 69.14986684,212.6231469 67.00000001,226.0639364 67,240 l 0,130"
       id="path3200"
       inkscape:connector-curvature="0"
       sodipodi:nodetypes="csccsc" />
    <path
       style="fill:none;stroke:#000000;stroke-width:1px;stroke-linecap:butt;display:inline"
       d="M 370,200 30,200"
       id="I-right-1-7-2"
       inkscape:connector-curvature="0"
       sodipodi:nodetypes="cc" />
  </g>
  <g
     inkscape:groupmode="layer"
     id="layer3"
     inkscape:label="LMNT-05"
     style="display:none"
     sodipodi:insensitive="true">
    <path
       style="fill:#000000;stroke:none"
       d="M 333,370 333,90.4999999 C 333,49.35478608 299.6452139,16 258.5000001,16 217.3547861,16 184,49.35478608 184,90.4999999 l 0,35 C 184,166.6452137 150.6452139,200 109.5000001,200 L 67,200 67,370 z"
       id="path3302"
       inkscape:connector-curvature="0"
       sodipodi:nodetypes="csssssccc" />
    <path
       style="fill:none;stroke:#000000;stroke-width:1px;stroke-linecap:butt;display:inline"
       d="m 370,200 -37,0"
       id="I-right-1-70"
       inkscape:connector-curvature="0"
       sodipodi:nodetypes="cc" />
    <path
       style="fill:none;stroke:#000000;stroke-width:1px;stroke-linecap:butt;display:inline"
       d="M 67,370 67,200"
       id="C-bottom-1-3"
       inkscape:connector-curvature="0"
       sodipodi:nodetypes="cc" />
    <path
       sodipodi:nodetypes="csssssc"
       inkscape:connector-curvature="0"
       id="path3298"
       d="M 333,370 333,90.4999999 C 333,49.35478608 299.6452139,16 258.5000001,16 217.3547861,16 184,49.35478608 184,90.4999999 l 0,35 C 184,166.6452137 150.6452139,200 109.5000001,200 L 30,200"
       style="fill:none;stroke:#000000;stroke-width:1px;stroke-linecap:butt;display:inline" />
  </g>
  <g
     inkscape:groupmode="layer"
     id="layer4"
     inkscape:label="LMNT-06"
     style="display:none"
     sodipodi:insensitive="true">
    <path
       style="fill:#000000;stroke:none;display:inline"
       d="M 333,275.28125 333,370 67,370 67,342.5 C 67,311.7856616 80.8706498,296 111.5,296 l 178,0 c 20.6108447,0 35.1421638,-8.6250198 43.5,-20.71875 z"
       id="path3371"
       inkscape:connector-curvature="0" />
    <path
       style="fill:none;stroke:#000000;stroke-width:1px;stroke-linecap:butt;display:inline"
       d="M 333.881841,221.7507584 C 337.129985,206.0253953 348.868922,200 361,200 l 9,0"
       id="path3369"
       inkscape:connector-curvature="0" />
    <path
       style="fill:none;stroke:#000000;stroke-width:1px;stroke-linecap:butt;display:inline"
       d="m 333,370 0,-94.9687522"
       id="C-bottom-1-2"
       inkscape:connector-curvature="0" />
    <path
       style="fill:none;stroke:#000000;stroke-width:1px;stroke-linecap:butt;display:inline"
       d="m 30,200 259.5000001,0 c 69.8427118,0 68.7110211,96 0,96 l -178,0 C 80.8706499,296 67,311.7856615 67,342.4999999 L 67,370"
       id="path3323"
       inkscape:connector-curvature="0"
       sodipodi:nodetypes="cssssc" />
  </g>
  <g
     style="display:none"
     inkscape:label="LMNT-07"
     id="g3358"
     inkscape:groupmode="layer"
     sodipodi:insensitive="true">
    <path
       style="fill:#000000;stroke:none"
       d="M 67,294.28125 67,370 l 266,0 0,-10.5 C 333,335.78023 321.2539832,308 273.5,308 l -172,0 C 87.0468419,308 75.44113049,302.6208228 67,294.28125 z"
       id="path3385"
       inkscape:connector-curvature="0" />
    <path
       style="fill:none;stroke:#000000;stroke-width:1px;stroke-linecap:butt;display:inline"
       d="M 63.56212901,217.5400303 C 59.28432125,208.3059468 51.04309506,200 39,200 l -9,0"
       id="path3383"
       inkscape:connector-curvature="0" />
    <path
       style="fill:none;stroke:#000000;stroke-width:1px;stroke-linecap:butt;display:inline"
       d="m 67,370 0,-75.7500025"
       id="path3362"
       inkscape:connector-curvature="0" />
    <path
       sodipodi:nodetypes="cssssc"
       inkscape:connector-curvature="0"
       id="path3360"
       d="m 370,200 -263.5000001,0 c -77.19724899,0 -69.84205443,108 -5,108 l 172,0 C 321.2539831,308 333,335.7802299 333,359.4999999 L 333,370"
       style="fill:none;stroke:#000000;stroke-width:1px;stroke-linecap:butt;display:inline" />
  </g>
  <g
     inkscape:groupmode="layer"
     id="layer5"
     inkscape:label="LMNT-08"
     style="display:none"
     sodipodi:insensitive="true">
    <path
       style="fill:none;stroke:#000000;stroke-width:1px;stroke-linecap:butt;display:inline"
       d="m 370,200 -171,0"
       id="path3433"
       inkscape:connector-curvature="0"
       sodipodi:nodetypes="cc" />
    <path
       sodipodi:nodetypes="csssssscc"
       inkscape:connector-curvature="0"
       id="path3435"
       d="m 66.99999747,370 -3e-8,-273.9999999 c -1e-8,-57.1575009 88.66448026,-59.9035993 88.66508166,3 l 0.00109,114 c 6.128e-4,64.0924848 88.6624162,58.9313572 88.665082,3 l 0.00367,-77 c 0.003,-62.90341438 88.6650788,-60.6042633 88.6650788,-3 L 333,370 z"
       style="fill:#000000;stroke:none" />
    <path
       style="fill:none;stroke:#000000;stroke-width:1px;stroke-linecap:butt;display:inline"
       d="M 201,200 30,200"
       id="I-right-1-6"
       inkscape:connector-curvature="0"
       sodipodi:nodetypes="cc" />
    <path
       style="fill:none;stroke:#000000;stroke-width:1px;stroke-linecap:butt;display:inline"
       d="m 66.99999747,370 -3e-8,-273.9999999 c -1e-8,-57.1575009 88.66448026,-59.9035993 88.66508166,3 l 0.00109,114 c 6.128e-4,64.0924848 88.6624162,58.9313572 88.665082,3 l 0.00367,-77 c 0.003,-62.90341438 88.6650788,-60.6042633 88.6650788,-3 L 333,370"
       id="C-bottom-4-7"
       inkscape:connector-curvature="0"
       sodipodi:nodetypes="cssssssc" />
  </g>
  <g
     inkscape:label="LMNT-09"
     id="g3437"
     inkscape:groupmode="layer"
     style="display:none"
     sodipodi:insensitive="true">
    <path
       sodipodi:nodetypes="cc"
       inkscape:connector-curvature="0"
       id="path3443"
       d="M 215,200 30,200"
       style="fill:none;stroke:#000000;stroke-width:1px;stroke-linecap:butt;display:inline" />
    <path
       style="fill:#000000;stroke:none;display:inline"
       d="m 66.99999747,370 -3e-8,-273.9999999 c -1e-8,-93.095075675 128.66413606,-95.8951864517 128.66508166,3 l 0.00109,114 c 3.175e-4,33.205331 38.6635571,32.1632028 38.665082,1 l 0.00367,-75 c 0.00401,-81.89410444 98.6650788,-81.29559423 98.6650788,-3 L 333,370 z"
       id="path3447"
       inkscape:connector-curvature="0"
       sodipodi:nodetypes="csssssscc" />
    <path
       sodipodi:nodetypes="cc"
       inkscape:connector-curvature="0"
       id="path3439"
       d="m 370,200 -157,0"
       style="fill:none;stroke:#000000;stroke-width:1px;stroke-linecap:butt;display:inline" />
    <path
       sodipodi:nodetypes="cssssssc"
       inkscape:connector-curvature="0"
       id="path3445"
       d="m 66.99999747,370 -3e-8,-273.9999999 c -1e-8,-93.095075675 128.66413606,-95.8951864517 128.66508166,3 l 0.00109,114 c 3.175e-4,33.205331 38.6635571,32.1632028 38.665082,1 l 0.00367,-75 c 0.00401,-81.89410444 98.6650788,-81.29559423 98.6650788,-3 L 333,370"
       style="fill:none;stroke:#000000;stroke-width:1px;stroke-linecap:butt;display:inline" />
  </g>
  <g
     inkscape:groupmode="layer"
     id="layer6"
     inkscape:label="LMNT-10"
     style="display:none"
     sodipodi:insensitive="true">
    <path
       sodipodi:nodetypes="csssssccc"
       inkscape:connector-curvature="0"
       id="path3508"
       d="M 67,370 67,141.9999999 C 67,-5.471514432 271.0928337,-33.88813249 325.1366696,60.4339482 c 23.6056977,41.1987508 -0.1792467,40.5660517 -14.7086121,40.5660517 L 208.4999999,101 c -70.9440123,10e-8 -75.0814946,98.9999998 0,98.9999999 L 333,200 l 0,170 z"
       style="fill:#000000;stroke:none" />
    <path
       style="fill:none;stroke:#000000;stroke-width:1px;stroke-linecap:butt;display:inline"
       d="m 67,200 -37,0"
       id="I-left-1-2"
       inkscape:connector-curvature="0"
       sodipodi:nodetypes="cc" />
    <path
       style="fill:none;stroke:#000000;stroke-width:1px;stroke-linecap:butt;display:inline"
       d="m 333,200 0,170"
       id="path3502"
       inkscape:connector-curvature="0"
       sodipodi:nodetypes="cc" />
    <path
       style="fill:none;stroke:#000000;stroke-width:1px;stroke-linecap:butt;display:inline"
       d="M 67,370 67,141.9999999 C 67,-5.471514432 271.0928337,-33.88813249 325.1366696,60.4339482 c 23.6056977,41.1987508 -0.1792467,40.5660517 -14.7086121,40.5660517 L 208.4999999,101 c -70.9440123,10e-8 -75.0814946,98.9999999 0,98.9999999 l 161.5000001,0"
       id="path3498"
       inkscape:connector-curvature="0"
       sodipodi:nodetypes="csssssc" />
  </g>
  <g
     inkscape:label="LMNT-11"
     id="g3510"
     inkscape:groupmode="layer"
     style="display:inline"
     sodipodi:insensitive="true">
    <path
       style="fill:#000000;stroke:none"
       d="m 67,370 0,-216.0000001 c 0,-156.9353563 216.73801,-188.70451871 261.1366696,-40.5660517 13.5299829,45.1435009 -0.8135141,57.5660517 -30.7086121,57.5660517 L 224.4999999,171 c -23.4177624,0 -23.7121124,28.9999999 0,28.9999999 L 333,200 l 0,170 z"
       id="path3525"
       inkscape:connector-curvature="0"
       sodipodi:nodetypes="csssssccc" />
    <path
       sodipodi:nodetypes="cc"
       inkscape:connector-curvature="0"
       id="path3514"
       d="m 67,200 -37,0"
       style="fill:none;stroke:#000000;stroke-width:1px;stroke-linecap:butt;display:inline" />
    <path
       id="path3516"
       d="m 333,200 0,170"
       style="fill:none;stroke:#000000;stroke-width:1px;stroke-linecap:butt;display:inline"
       inkscape:connector-curvature="0" />
    <path
       sodipodi:nodetypes="csssssc"
       inkscape:connector-curvature="0"
       id="path3518"
       d="m 67,370 0,-216.0000001 c 0,-156.9353563 216.73801,-188.70451871 261.1366696,-40.5660517 13.5299829,45.1435009 -0.8135141,57.5660517 -30.7086121,57.5660517 L 224.4999999,171 c -23.4177624,0 -23.7121124,28.9999999 0,28.9999999 l 145.5000001,0"
       style="fill:none;stroke:#000000;stroke-width:1px;stroke-linecap:butt;display:inline" />
  </g>
</svg>
