<?xml version="1.0" encoding="UTF-8" standalone="no"?>
<!-- Created with Inkscape (http://www.inkscape.org/) -->

<svg
   xmlns:dc="http://purl.org/dc/elements/1.1/"
   xmlns:cc="http://creativecommons.org/ns#"
   xmlns:rdf="http://www.w3.org/1999/02/22-rdf-syntax-ns#"
   xmlns:svg="http://www.w3.org/2000/svg"
   xmlns="http://www.w3.org/2000/svg"
   xmlns:sodipodi="http://sodipodi.sourceforge.net/DTD/sodipodi-0.dtd"
   xmlns:inkscape="http://www.inkscape.org/namespaces/inkscape"
   style="display:inline"
   sodipodi:docname="200515_Panik-R+_XX_XX_XX_XX_.svg"
   inkscape:version="0.48.3.1 r9886"
   version="1.1"
   id="svg2902"
   height="400"
   width="400">
  <metadata
     id="metadata95">
    <rdf:RDF>
      <cc:Work
         rdf:about="">
        <dc:format>image/svg+xml</dc:format>
        <dc:type
           rdf:resource="http://purl.org/dc/dcmitype/StillImage" />
      </cc:Work>
    </rdf:RDF>
  </metadata>
  <defs
     id="defs93" />
  <sodipodi:namedview
     id="base"
     pagecolor="#f0f0f0"
     bordercolor="#666666"
     borderopacity="1.0"
     inkscape:pageopacity="1"
     inkscape:pageshadow="2"
     inkscape:zoom="0.8200482009"
     inkscape:cx="65.61835421"
     inkscape:cy="220.9536986"
     inkscape:document-units="px"
     showgrid="false"
     inkscape:current-layer="bg" />
  <g
     inkscape:groupmode="layer"
     id="bg"
     inkscape:label="XX_BG"
     sodipodi:insensitive="true">
    <path
       style="fill:#dbe2e3"
       d="M 400,0 400,400 0,400 0,0 z"
       id="bgrect"
       inkscape:connector-curvature="0" />
  </g>
  <g
     inkscape:label="XX_REFERENZ"
     inkscape:groupmode="layer"
     id="XX_referenz"
     style="display:inline"
     sodipodi:insensitive="true">
    <path
       id="innerframe"
       style="fill:none;stroke:#ff0000;stroke-width:1"
       d="m 40.5,40.5 319,0 0,319 -319,0 0,-319 z"
       inkscape:label="#innerframe"
       sodipodi:insensitive="true"
       inkscape:connector-curvature="0" />
    <path
       id="outerframe"
       style="fill:none;stroke:#ff0000;stroke-width:1"
       d="m 30.5,30.5 339,0 0,339 -339,0 0,-339 z"
       inkscape:label="#outerframe"
       sodipodi:nodetypes="ccccc"
       sodipodi:insensitive="true"
       inkscape:connector-curvature="0" />
    <path
       style="opacity:0.5;fill:none;stroke:#ffc200;stroke-width:1px;stroke-linecap:square"
       d="m 189,30.5 0,10"
       id="ref-S-top-1"
       sodipodi:insensitive="true"
       inkscape:connector-curvature="0" />
    <path
       style="opacity:0.5;fill:none;stroke:#ffc200;stroke-width:1px;stroke-linecap:square"
       d="m 191,30.5 0,10"
       id="ref-S-top-2"
       sodipodi:insensitive="true"
       inkscape:connector-curvature="0" />
    <path
       style="opacity:0.5;fill:none;stroke:#ffc200;stroke-width:1px;stroke-linecap:square"
       d="m 209,30.5 0,10"
       id="ref-S-top-3"
       sodipodi:insensitive="true"
       inkscape:connector-curvature="0" />
    <path
       style="opacity:0.5;fill:none;stroke:#ffc200;stroke-width:1px;stroke-linecap:square"
       d="m 211,30.5 0,10"
       id="ref-S-top-4"
       sodipodi:insensitive="true"
       inkscape:connector-curvature="0" />
    <path
       style="opacity:0.5;fill:none;stroke:#00ff00;stroke-width:1px;stroke-linecap:square"
       d="m 199,30.5 0,10"
       id="ref-I-top-1"
       sodipodi:insensitive="true"
       inkscape:connector-curvature="0" />
    <path
       style="opacity:0.5;fill:none;stroke:#00ff00;stroke-width:1px;stroke-linecap:square"
       d="m 201,30.5 0,10"
       id="ref-I-top-2"
       sodipodi:insensitive="true"
       inkscape:connector-curvature="0" />
    <path
       style="opacity:0.5;fill:none;stroke:#00ffcc;stroke-width:1px;stroke-linecap:square"
       d="m 66,30.5 0,10"
       id="ref-C-top-1"
       sodipodi:insensitive="true"
       inkscape:connector-curvature="0" />
    <path
       style="opacity:0.5;fill:none;stroke:#00ffcc;stroke-width:1px;stroke-linecap:square"
       d="m 68,30.5 0,10"
       id="ref-C-top-2"
       sodipodi:insensitive="true"
       inkscape:connector-curvature="0" />
    <path
       style="opacity:0.5;fill:none;stroke:#00ffcc;stroke-width:1px;stroke-linecap:square"
       d="m 92,30.5 0,10"
       id="ref-C-top-3"
       sodipodi:insensitive="true"
       inkscape:connector-curvature="0" />
    <path
       style="opacity:0.5;fill:none;stroke:#00ffcc;stroke-width:1px;stroke-linecap:square"
       d="m 94,30.5 0,10"
       id="ref-C-top-4"
       sodipodi:insensitive="true"
       inkscape:connector-curvature="0" />
    <path
       style="opacity:0.5;fill:none;stroke:#00ffcc;stroke-width:1px;stroke-linecap:square"
       d="m 306,30.5 0,10"
       id="ref-C-top-5"
       sodipodi:insensitive="true"
       inkscape:connector-curvature="0" />
    <path
       style="opacity:0.5;fill:none;stroke:#00ffcc;stroke-width:1px;stroke-linecap:square"
       d="m 308,30.5 0,10"
       id="ref-C-top-6"
       sodipodi:insensitive="true"
       inkscape:connector-curvature="0" />
    <path
       style="opacity:0.5;fill:none;stroke:#00ffcc;stroke-width:1px;stroke-linecap:square"
       d="m 332,30.5 0,10"
       id="ref-C-top-7"
       sodipodi:insensitive="true"
       inkscape:connector-curvature="0" />
    <path
       style="opacity:0.5;fill:none;stroke:#00ffcc;stroke-width:1px;stroke-linecap:square"
       d="m 334,30.5 0,10"
       id="ref-C-top-8"
       sodipodi:insensitive="true"
       inkscape:connector-curvature="0" />
    <path
       style="opacity:0.5;fill:none;stroke:#ffc200;stroke-width:1px;stroke-linecap:square"
       d="m 369.5,189 -10,0"
       id="ref-S-right-1"
       sodipodi:insensitive="true"
       inkscape:connector-curvature="0" />
    <path
       style="opacity:0.5;fill:none;stroke:#ffc200;stroke-width:1px;stroke-linecap:square"
       d="m 369.5,191 -10,0"
       id="ref-S-right-2"
       sodipodi:insensitive="true"
       inkscape:connector-curvature="0" />
    <path
       style="opacity:0.5;fill:none;stroke:#ffc200;stroke-width:1px;stroke-linecap:square"
       d="m 369.5,209 -10,0"
       id="ref-S-right-3"
       sodipodi:insensitive="true"
       inkscape:connector-curvature="0" />
    <path
       style="opacity:0.5;fill:none;stroke:#ffc200;stroke-width:1px;stroke-linecap:square"
       d="m 369.5,211 -10,0"
       id="ref-S-right-4"
       sodipodi:insensitive="true"
       inkscape:connector-curvature="0" />
    <path
       style="opacity:0.5;fill:none;stroke:#00ff00;stroke-width:1px;stroke-linecap:square"
       d="m 369.5,199 -10,0"
       id="ref-I-right-1"
       sodipodi:insensitive="true"
       inkscape:connector-curvature="0" />
    <path
       style="opacity:0.5;fill:none;stroke:#00ff00;stroke-width:1px;stroke-linecap:square"
       d="m 369.5,201 -10,0"
       id="ref-I-right-2"
       sodipodi:insensitive="true"
       inkscape:connector-curvature="0" />
    <path
       style="opacity:0.5;fill:none;stroke:#00ffcc;stroke-width:1px;stroke-linecap:square"
       d="m 369.5,66 -10,0"
       id="ref-C-right-1"
       sodipodi:insensitive="true"
       inkscape:connector-curvature="0" />
    <path
       style="opacity:0.5;fill:none;stroke:#00ffcc;stroke-width:1px;stroke-linecap:square"
       d="m 369.5,68 -10,0"
       id="ref-C-right-2"
       sodipodi:insensitive="true"
       inkscape:connector-curvature="0" />
    <path
       style="opacity:0.5;fill:none;stroke:#00ffcc;stroke-width:1px;stroke-linecap:square"
       d="m 369.5,92 -10,0"
       id="ref-C-right-3"
       sodipodi:insensitive="true"
       inkscape:connector-curvature="0" />
    <path
       style="opacity:0.5;fill:none;stroke:#00ffcc;stroke-width:1px;stroke-linecap:square"
       d="m 369.5,94 -10,0"
       id="ref-C-right-4"
       sodipodi:insensitive="true"
       inkscape:connector-curvature="0" />
    <path
       style="opacity:0.5;fill:none;stroke:#00ffcc;stroke-width:1px;stroke-linecap:square"
       d="m 369.5,306 -10,0"
       id="ref-C-right-5"
       sodipodi:insensitive="true"
       inkscape:connector-curvature="0" />
    <path
       style="opacity:0.5;fill:none;stroke:#00ffcc;stroke-width:1px;stroke-linecap:square"
       d="m 369.5,308 -10,0"
       id="ref-C-right-6"
       sodipodi:insensitive="true"
       inkscape:connector-curvature="0" />
    <path
       style="opacity:0.5;fill:none;stroke:#00ffcc;stroke-width:1px;stroke-linecap:square"
       d="m 369.5,332 -10,0"
       id="ref-C-right-7"
       sodipodi:insensitive="true"
       inkscape:connector-curvature="0" />
    <path
       style="opacity:0.5;fill:none;stroke:#00ffcc;stroke-width:1px;stroke-linecap:square"
       d="m 369.5,334 -10,0"
       id="ref-C-right-8"
       sodipodi:insensitive="true"
       inkscape:connector-curvature="0" />
    <path
       style="opacity:0.5;fill:none;stroke:#ffc200;stroke-width:1px;stroke-linecap:square"
       d="m 189,369.5 0,-10"
       id="ref-S-bottom-1"
       sodipodi:insensitive="true"
       inkscape:connector-curvature="0" />
    <path
       style="opacity:0.5;fill:none;stroke:#ffc200;stroke-width:1px;stroke-linecap:square"
       d="m 191,369.5 0,-10"
       id="ref-S-bottom-2"
       sodipodi:insensitive="true"
       inkscape:connector-curvature="0" />
    <path
       style="opacity:0.5;fill:none;stroke:#ffc200;stroke-width:1px;stroke-linecap:square"
       d="m 209,369.5 0,-10"
       id="ref-S-bottom-3"
       sodipodi:insensitive="true"
       inkscape:connector-curvature="0" />
    <path
       style="opacity:0.5;fill:none;stroke:#ffc200;stroke-width:1px;stroke-linecap:square"
       d="m 211,369.5 0,-10"
       id="ref-S-bottom-4"
       sodipodi:insensitive="true"
       inkscape:connector-curvature="0" />
    <path
       style="opacity:0.5;fill:none;stroke:#00ff00;stroke-width:1px;stroke-linecap:square"
       d="m 199,369.5 0,-10"
       id="ref-I-bottom-1"
       sodipodi:insensitive="true"
       inkscape:connector-curvature="0" />
    <path
       style="opacity:0.5;fill:none;stroke:#00ff00;stroke-width:1px;stroke-linecap:square"
       d="m 201,369.5 0,-10"
       id="ref-I-bottom-2"
       sodipodi:insensitive="true"
       inkscape:connector-curvature="0" />
    <path
       style="opacity:0.5;fill:none;stroke:#00ffcc;stroke-width:1px;stroke-linecap:square"
       d="m 66,369.5 0,-10"
       id="ref-C-bottom-1"
       sodipodi:insensitive="true"
       inkscape:connector-curvature="0" />
    <path
       style="opacity:0.5;fill:none;stroke:#00ffcc;stroke-width:1px;stroke-linecap:square"
       d="m 68,369.5 0,-10"
       id="ref-C-bottom-2"
       sodipodi:insensitive="true"
       inkscape:connector-curvature="0" />
    <path
       style="opacity:0.5;fill:none;stroke:#00ffcc;stroke-width:1px;stroke-linecap:square"
       d="m 92,369.5 0,-10"
       id="ref-C-bottom-3"
       sodipodi:insensitive="true"
       inkscape:connector-curvature="0" />
    <path
       style="opacity:0.5;fill:none;stroke:#00ffcc;stroke-width:1px;stroke-linecap:square"
       d="m 94,369.5 0,-10"
       id="ref-C-bottom-4"
       sodipodi:insensitive="true"
       inkscape:connector-curvature="0" />
    <path
       style="opacity:0.5;fill:none;stroke:#00ffcc;stroke-width:1px;stroke-linecap:square"
       d="m 306,369.5 0,-10"
       id="ref-C-bottom-5"
       sodipodi:insensitive="true"
       inkscape:connector-curvature="0" />
    <path
       style="opacity:0.5;fill:none;stroke:#00ffcc;stroke-width:1px;stroke-linecap:square"
       d="m 308,369.5 0,-10"
       id="ref-C-bottom-6"
       sodipodi:insensitive="true"
       inkscape:connector-curvature="0" />
    <path
       style="opacity:0.5;fill:none;stroke:#00ffcc;stroke-width:1px;stroke-linecap:square"
       d="m 332,369.5 0,-10"
       id="ref-C-bottom-7"
       sodipodi:insensitive="true"
       inkscape:connector-curvature="0" />
    <path
       style="opacity:0.5;fill:none;stroke:#00ffcc;stroke-width:1px;stroke-linecap:square"
       d="m 334,369.5 0,-10"
       id="ref-C-bottom-8"
       sodipodi:insensitive="true"
       inkscape:connector-curvature="0" />
    <path
       style="opacity:0.5;fill:none;stroke:#ffc200;stroke-width:1px;stroke-linecap:square"
       d="m 30.5,189 10,0"
       id="ref-S-left-1"
       sodipodi:insensitive="true"
       inkscape:connector-curvature="0" />
    <path
       style="opacity:0.5;fill:none;stroke:#ffc200;stroke-width:1px;stroke-linecap:square"
       d="m 30.5,191 10,0"
       id="ref-S-left-2"
       sodipodi:insensitive="true"
       inkscape:connector-curvature="0" />
    <path
       style="opacity:0.5;fill:none;stroke:#ffc200;stroke-width:1px;stroke-linecap:square"
       d="m 30.5,209 10,0"
       id="ref-S-left-3"
       sodipodi:insensitive="true"
       inkscape:connector-curvature="0" />
    <path
       style="opacity:0.5;fill:none;stroke:#ffc200;stroke-width:1px;stroke-linecap:square"
       d="m 30.5,211 10,0"
       id="ref-S-left-4"
       sodipodi:insensitive="true"
       inkscape:connector-curvature="0" />
    <path
       style="opacity:0.5;fill:none;stroke:#00ff00;stroke-width:1px;stroke-linecap:square"
       d="m 40.5,199 -10,0"
       id="ref-I-left-1"
       sodipodi:insensitive="true"
       inkscape:connector-curvature="0" />
    <path
       style="opacity:0.5;fill:none;stroke:#00ff00;stroke-width:1px;stroke-linecap:square"
       d="m 40.5,201 -10,0"
       id="ref-I-left-2"
       sodipodi:insensitive="true"
       inkscape:connector-curvature="0" />
    <path
       style="opacity:0.5;fill:none;stroke:#00ffcc;stroke-width:1px;stroke-linecap:square"
       d="m 30.5,66 10,0"
       id="ref-C-left-1"
       sodipodi:insensitive="true"
       inkscape:connector-curvature="0" />
    <path
       style="opacity:0.5;fill:none;stroke:#00ffcc;stroke-width:1px;stroke-linecap:square"
       d="m 30.5,68 10,0"
       id="ref-C-left-2"
       sodipodi:insensitive="true"
       inkscape:connector-curvature="0" />
    <path
       style="opacity:0.5;fill:none;stroke:#00ffcc;stroke-width:1px;stroke-linecap:square"
       d="m 30.5,92 10,0"
       id="ref-C-left-3"
       sodipodi:insensitive="true"
       inkscape:connector-curvature="0" />
    <path
       style="opacity:0.5;fill:none;stroke:#00ffcc;stroke-width:1px;stroke-linecap:square"
       d="m 30.5,94 10,0"
       id="ref-C-left-4"
       sodipodi:insensitive="true"
       inkscape:connector-curvature="0" />
    <path
       style="opacity:0.5;fill:none;stroke:#00ffcc;stroke-width:1px;stroke-linecap:square"
       d="m 30.5,306 10,0"
       id="ref-C-left-5"
       sodipodi:insensitive="true"
       inkscape:connector-curvature="0" />
    <path
       style="opacity:0.5;fill:none;stroke:#00ffcc;stroke-width:1px;stroke-linecap:square"
       d="m 30.5,308 10,0"
       id="ref-C-left-6"
       sodipodi:insensitive="true"
       inkscape:connector-curvature="0" />
    <path
       style="opacity:0.5;fill:none;stroke:#00ffcc;stroke-width:1px;stroke-linecap:square"
       d="m 30.5,332 10,0"
       id="ref-C-left-7"
       sodipodi:insensitive="true"
       inkscape:connector-curvature="0" />
    <path
       style="opacity:0.5;fill:none;stroke:#00ffcc;stroke-width:1px;stroke-linecap:square"
       d="m 30.5,334 10,0"
       id="ref-C-left-8"
       sodipodi:insensitive="true"
       inkscape:connector-curvature="0" />
    <path
       style="fill:none;stroke:#000000;stroke-width:1px;stroke-linecap:butt"
       d="m 190,30 0,11"
       id="S-top-1"
       inkscape:connector-curvature="0"
       sodipodi:nodetypes="cc" />
    <path
       style="fill:none;stroke:#000000;stroke-width:1px;stroke-linecap:butt"
       d="m 210,30 0,11"
       id="S-top-2"
       inkscape:connector-curvature="0"
       sodipodi:nodetypes="cc" />
    <path
       style="fill:none;stroke:#000000;stroke-width:1px;stroke-linecap:butt"
       d="m 370,190 -11,0"
       id="S-right-1"
       inkscape:connector-curvature="0"
       sodipodi:nodetypes="cc" />
    <path
       style="fill:none;stroke:#000000;stroke-width:1px;stroke-linecap:butt"
       d="m 370,210 -11,0"
       id="S-right-2"
       inkscape:connector-curvature="0"
       sodipodi:nodetypes="cc" />
    <path
       style="fill:none;stroke:#000000;stroke-width:1px;stroke-linecap:butt"
       d="m 190,370 0,-11"
       id="S-bottom-1"
       inkscape:connector-curvature="0"
       sodipodi:nodetypes="cc" />
    <path
       style="fill:none;stroke:#000000;stroke-width:1px;stroke-linecap:butt"
       d="m 210,370 0,-11"
       id="S-bottom-2"
       inkscape:connector-curvature="0"
       sodipodi:nodetypes="cc" />
    <path
       style="fill:none;stroke:#000000;stroke-width:1px;stroke-linecap:butt"
       d="m 30,190 11,0"
       id="S-left-1"
       inkscape:connector-curvature="0"
       sodipodi:nodetypes="cc" />
    <path
       style="fill:none;stroke:#000000;stroke-width:1px;stroke-linecap:butt"
       d="m 30,210 11,0"
       id="S-left-2"
       inkscape:connector-curvature="0"
       sodipodi:nodetypes="cc" />
    <path
       style="fill:none;stroke:#000000;stroke-width:1px;stroke-linecap:butt"
       d="m 200,30 0,11"
       id="I-top-1"
       inkscape:connector-curvature="0"
       sodipodi:nodetypes="cc" />
    <path
       style="fill:none;stroke:#000000;stroke-width:1px;stroke-linecap:butt"
       d="m 370,200 -11,0"
       id="I-right-1"
       inkscape:connector-curvature="0"
       sodipodi:nodetypes="cc" />
    <path
       style="fill:none;stroke:#000000;stroke-width:1px;stroke-linecap:butt"
       d="m 200,370 0,-11"
       id="I-bottom-1"
       inkscape:connector-curvature="0"
       sodipodi:nodetypes="cc" />
    <path
       style="fill:none;stroke:#000000;stroke-width:1px;stroke-linecap:butt"
       d="m 41,200 -11,0"
       id="I-left-1"
       inkscape:connector-curvature="0"
       sodipodi:nodetypes="cc" />
    <path
       style="fill:none;stroke:#000000;stroke-width:1px;stroke-linecap:butt"
       d="m 67,30 0,11"
       id="C-top-1"
       inkscape:connector-curvature="0"
       sodipodi:nodetypes="cc" />
    <path
       style="fill:none;stroke:#000000;stroke-width:1px;stroke-linecap:butt"
       d="m 93,30 0,11"
       id="C-top-2"
       inkscape:connector-curvature="0"
       sodipodi:nodetypes="cc" />
    <path
       style="fill:none;stroke:#000000;stroke-width:1px;stroke-linecap:butt"
       d="m 307,30 0,11"
       id="C-top-3"
       inkscape:connector-curvature="0"
       sodipodi:nodetypes="cc" />
    <path
       style="fill:none;stroke:#000000;stroke-width:1px;stroke-linecap:butt"
       d="m 333,30 0,11"
       id="C-top-4"
       inkscape:connector-curvature="0"
       sodipodi:nodetypes="cc" />
    <path
       style="fill:none;stroke:#000000;stroke-width:1px;stroke-linecap:butt"
       d="m 370,67 -11,0"
       id="C-right-1"
       inkscape:connector-curvature="0"
       sodipodi:nodetypes="cc" />
    <path
       style="fill:none;stroke:#000000;stroke-width:1px;stroke-linecap:butt"
       d="m 370,93 -11,0"
       id="C-right-2"
       inkscape:connector-curvature="0"
       sodipodi:nodetypes="cc" />
    <path
       style="fill:none;stroke:#000000;stroke-width:1px;stroke-linecap:butt"
       d="m 370,307 -11,0"
       id="C-right-3"
       inkscape:connector-curvature="0"
       sodipodi:nodetypes="cc" />
    <path
       style="fill:none;stroke:#000000;stroke-width:1px;stroke-linecap:butt"
       d="m 370,333 -11,0"
       id="C-right-4"
       inkscape:connector-curvature="0"
       sodipodi:nodetypes="cc" />
    <path
       style="fill:none;stroke:#000000;stroke-width:1px;stroke-linecap:butt"
       d="m 67,370 0,-11"
       id="C-bottom-1"
       inkscape:connector-curvature="0"
       sodipodi:nodetypes="cc" />
    <path
       style="fill:none;stroke:#000000;stroke-width:1px;stroke-linecap:butt"
       d="m 93,370 0,-11"
       id="C-bottom-2"
       inkscape:connector-curvature="0"
       sodipodi:nodetypes="cc" />
    <path
       style="fill:none;stroke:#000000;stroke-width:1px;stroke-linecap:butt"
       d="m 307,370 0,-11"
       id="C-bottom-3"
       inkscape:connector-curvature="0"
       sodipodi:nodetypes="cc" />
    <path
       style="fill:none;stroke:#000000;stroke-width:1px;stroke-linecap:butt"
       d="m 333,370 0,-11"
       id="C-bottom-4"
       inkscape:connector-curvature="0"
       sodipodi:nodetypes="cc" />
    <path
       style="fill:none;stroke:#000000;stroke-width:1px;stroke-linecap:butt"
       d="m 30,67 11,0"
       id="C-left-1"
       inkscape:connector-curvature="0"
       sodipodi:nodetypes="cc" />
    <path
       style="fill:none;stroke:#000000;stroke-width:1px;stroke-linecap:butt"
       d="m 30,93 11,0"
       id="C-left-2"
       inkscape:connector-curvature="0"
       sodipodi:nodetypes="cc" />
    <path
       style="fill:none;stroke:#000000;stroke-width:1px;stroke-linecap:butt"
       d="m 30,307 11,0"
       id="C-left-3"
       inkscape:connector-curvature="0"
       sodipodi:nodetypes="cc" />
    <path
       style="fill:none;stroke:#000000;stroke-width:1px;stroke-linecap:butt"
       d="m 30,333 11,0"
       id="C-left-4"
       inkscape:connector-curvature="0"
       sodipodi:nodetypes="cc" />
  </g>
  <g
     inkscape:groupmode="layer"
     id="layer1"
     inkscape:label="XX_DOODLE"
     style="display:none"
     sodipodi:insensitive="true">
    <path
       style="color:#000000;fill:none;stroke:#0000ff;stroke-width:1px;stroke-linecap:round;stroke-linejoin:miter;stroke-miterlimit:4;stroke-opacity:1;stroke-dashoffset:0;marker:none;visibility:visible;display:inline;overflow:visible;enable-background:accumulate"
       d="m 97,178.50005 -0.0115,18.49998 c -0.01699,27.32654 85.48846,4.89761 85.48846,47.49996 0,42.60235 -69.16191,45.50001 -96.499958,45.50001 l 0.139403,24.65891"
       id="path3223"
       inkscape:connector-curvature="0"
       sodipodi:nodetypes="cszcc" />
    <path
       style="fill:none;stroke:#0000ff;stroke-width:1px;stroke-linecap:butt;display:inline"
       d="m 110,180.50005 -28,-4.49998 5,-64.50002"
       id="path3219"
       inkscape:connector-curvature="0"
       sodipodi:nodetypes="ccc" />
    <path
       inkscape:connector-curvature="0"
       id="path3996"
       d="M -30,244.49999 C -30,271.83809 -52.16191,294 -79.5,294 c -27.33809,0 -49.5,-22.16191 -49.5,-49.50001 0,-27.33809 22.16191,-49.5 49.5,-49.5 27.33809,0 49.5,22.16191 49.5,49.5 z"
       style="color:#000000;fill:none;stroke:#ff0000;stroke-width:1px;stroke-linecap:round;stroke-linejoin:miter;stroke-miterlimit:4;stroke-opacity:1;stroke-dashoffset:0;marker:none;visibility:visible;display:inline;overflow:visible;enable-background:accumulate" />
    <path
       style="fill:none;stroke:#000000;stroke-width:1px;stroke-linecap:butt;display:inline"
       d="m 370,67 -11,0 -267.5,6e-5 C 77.969,67.000063 67,77.96907 67,91.50005 l 0,24.50002 c 81.6615,0 146,18.09928 146,99.50004 0,81.40076 -56.8758,99.49993 -146,99.49991 L 67,359 l 0,11"
       id="path3197"
       inkscape:connector-curvature="0"
       sodipodi:nodetypes="ccssczccc" />
    <path
       style="color:#000000;fill:none;stroke:#ff0000;stroke-width:1px;stroke-linecap:round;stroke-linejoin:miter;stroke-miterlimit:4;stroke-opacity:1;stroke-dashoffset:0;marker:none;visibility:visible;display:inline;overflow:visible;enable-background:accumulate"
       d="m 120,139.5 c 0,2.48528 -2.01472,4.5 -4.5,4.5 -2.48528,0 -4.5,-2.01472 -4.5,-4.5 0,-2.48528 2.01472,-4.5 4.5,-4.5 2.48528,0 4.5,2.01472 4.5,4.5 z"
       id="path3998"
       inkscape:connector-curvature="0" />
    <path
       sodipodi:nodetypes="cssc"
       inkscape:connector-curvature="0"
       id="path3186"
       d="m 333,370 2e-5,-6.49995 c 5e-5,-17.43821 11.02234,-30.49984 29.5,-30.49999 L 370,333"
       style="fill:none;stroke:#000000;stroke-width:1px;stroke-linecap:butt;display:inline" />
  </g>
  <g
     inkscape:groupmode="layer"
     id="layer2"
     inkscape:label="HLMT-001"
     style="display:none"
     sodipodi:insensitive="true">
    <path
       sodipodi:nodetypes="cczscccczc"
       inkscape:connector-curvature="0"
       id="path4104"
       d="M 83.116405,335.65891 85.977002,300 c 27.338048,0 97.996578,-3.16961 96.499958,-55.50001 -1.49662,-52.3304 -85.50545,-20.17342 -85.48846,-47.49996 L 97,178.50005 l 13,2 -28,-4.49998 17.602903,-58.48228 C 164.88523,111.2187 233.50708,126.59502 233,232.50011 232.49292,338.4052 142.34973,347.25418 83.116405,335.65891 z"
       style="fill:#ffffff;stroke:none" />
    <path
       style="fill:none;stroke:#000000;stroke-width:1px"
       d="m 97,178.50005 -0.0115,18.49998 c -0.01699,27.32654 83.99184,-4.83044 85.48846,47.49996 C 183.97358,296.83039 113.31505,300 85.977002,300 l -2.860597,35.65891"
       id="path3223-3"
       inkscape:connector-curvature="0"
       sodipodi:nodetypes="cszcc" />
    <path
       style="fill:none;stroke:#000000;stroke-width:1px"
       d="M 110,180.50005 82,176.00007 99.602903,117.51779"
       id="path3219-6"
       inkscape:connector-curvature="0"
       sodipodi:nodetypes="ccc" />
    <path
       style="fill:none;stroke:#000000;stroke-width:1px"
       d="m 120,136.5 c 0,2.48528 -2.01472,4.5 -4.5,4.5 -2.48528,0 -4.5,-2.01472 -4.5,-4.5 0,-2.48528 2.01472,-4.5 4.5,-4.5 2.48528,0 4.5,2.01472 4.5,4.5 z"
       id="path3998-5"
       inkscape:connector-curvature="0" />
    <path
       sodipodi:nodetypes="cccssczccc"
       inkscape:connector-curvature="0"
       id="path4098"
       d="m 333.00002,363.50005 c 5e-5,-17.43821 11.02234,-30.49984 29.5,-30.49999 L 363,67 91.5,67.00006 C 77.969,67.000063 67,77.96907 67,91.50005 l 0,24.50002 c 81.6615,0 145,34.09928 145,115.50004 0,81.40076 -55.8758,103.49993 -145,103.49991 L 67,363 z"
       style="fill:#ffffff;stroke:none" />
    <path
       style="fill:none;stroke:#000000;stroke-width:1px;stroke-linecap:butt;display:inline"
       d="m 370,67 -11,0 -267.5,6e-5 C 77.969,67.000063 67,77.96907 67,91.50005 l 0,24.50002 c 81.6615,0 145,34.09928 145,115.50004 0,81.40076 -55.8758,103.49993 -145,103.49991 L 67,359 l 0,11"
       id="path3197-7"
       inkscape:connector-curvature="0"
       sodipodi:nodetypes="ccssczccc" />
    <path
       sodipodi:nodetypes="cssc"
       inkscape:connector-curvature="0"
       id="path3186-3"
       d="m 333,370 2e-5,-6.49995 c 5e-5,-17.43821 11.02234,-30.49984 29.5,-30.49999 L 370,333"
       style="fill:none;stroke:#000000;stroke-width:1px;stroke-linecap:butt;display:inline" />
  </g>
  <g
     inkscape:label="XX_HLMT-002"
     id="g4038"
     inkscape:groupmode="layer"
     style="display:none"
     sodipodi:insensitive="true">
    <path
       style="fill:#ffffff;stroke:none"
       d="m 92,182.00007 5,-64.50002 C 174.52425,56.728629 252.31049,146.09996 255.34504,205.37439 262.40415,343.2612 137.71313,330.87876 98.116405,318.65891 L 105.977,276 c 19.35885,25.3831 101.26192,35.37852 103.49996,-25.50001 2.23804,-60.87853 -72.41282,-61.30722 -98.48846,-38.49996 l -3.99249,-27.52693 z"
       id="path4066"
       inkscape:connector-curvature="0"
       sodipodi:nodetypes="ccscczccc" />
    <path
       sodipodi:nodetypes="cczcc"
       inkscape:connector-curvature="0"
       id="path4040"
       d="m 107,184.50005 3.9885,27.49998 C 137.06414,189.19277 211.715,189.62146 209.47696,250.49999 207.23892,311.37852 125.33585,301.3831 105.977,276 l -7.860595,42.65891"
       style="fill:none;stroke:#000000;stroke-width:1px" />
    <path
       sodipodi:nodetypes="ccc"
       inkscape:connector-curvature="0"
       id="path4042"
       d="m 120,186.50005 -28,-4.49998 5,-64.50002"
       style="fill:none;stroke:#000000;stroke-width:1px" />
    <path
       inkscape:connector-curvature="0"
       id="path4046"
       d="m 130,145.5 c 0,2.48528 -2.01472,4.5 -4.5,4.5 -2.48528,0 -4.5,-2.01472 -4.5,-4.5 0,-2.48528 2.01472,-4.5 4.5,-4.5 2.48528,0 4.5,2.01472 4.5,4.5 z"
       style="color:#000000;fill:none;stroke:#000000;stroke-width:1px;stroke-linecap:round;stroke-linejoin:miter;stroke-miterlimit:4;stroke-opacity:1;stroke-dashoffset:0;marker:none;visibility:visible;display:inline;overflow:visible;enable-background:accumulate" />
    <path
       style="fill:#ffffff;stroke:none;display:inline"
       d="m 333.00002,363.50005 c 5e-5,-17.43821 11.02234,-30.49984 29.5,-30.49999 L 363,67 l -238.5,6e-5 C 82.527154,67.000071 64.305703,91.907553 67,147.00007 139.59519,86.403998 220.08043,119.94486 232,215.50011 250.4418,363.34191 67,275.62147 67,342.00002 L 67,364 z"
       id="path4070"
       inkscape:connector-curvature="0"
       sodipodi:nodetypes="cccscsscc" />
    <path
       sodipodi:nodetypes="ccscsscc"
       inkscape:connector-curvature="0"
       id="path4044"
       d="m 370,67 -11,0 -234.5,6e-5 C 82.527154,67.000071 64.305703,91.907553 67,147.00007 139.59519,86.403998 220.08043,119.94486 232,215.50011 250.4418,363.34191 67,275.62147 67,342.00002 L 67,359 l 0,11"
       style="fill:none;stroke:#000000;stroke-width:1px;stroke-linecap:butt;display:inline" />
    <path
       style="fill:none;stroke:#000000;stroke-width:1px;stroke-linecap:butt;display:inline"
       d="m 333,370 2e-5,-6.49995 c 5e-5,-17.43821 11.02234,-30.49984 29.5,-30.49999 L 370,333"
       id="path4048"
       inkscape:connector-curvature="0"
       sodipodi:nodetypes="cssc" />
  </g>
  <g
     style="display:inline"
     inkscape:groupmode="layer"
     id="g3125"
     inkscape:label="HLMT-002"
     sodipodi:insensitive="true">
    <path
       sodipodi:nodetypes="ccscczccc"
       inkscape:connector-curvature="0"
       id="path3127"
       d="m 92,182.00007 5,-64.50002 C 174.52425,56.728629 252.31049,146.09996 255.34504,205.37439 262.40415,343.2612 137.71313,330.87876 98.116405,318.65891 L 105.977,276 c 19.35885,25.3831 101.26192,35.37852 103.49996,-25.50001 2.23804,-60.87853 -72.41282,-61.30722 -98.48846,-38.49996 l -3.99249,-27.52693 z"
       style="fill:#ffffff;stroke:none" />
    <path
       style="fill:none;stroke:#000000;stroke-width:1px"
       d="m 107,184.50005 3.9885,27.49998 C 137.06414,189.19277 211.715,189.62146 209.47696,250.49999 207.23892,311.37852 125.33585,301.3831 105.977,276 l -7.860595,42.65891"
       id="path3129"
       inkscape:connector-curvature="0"
       sodipodi:nodetypes="cczcc" />
    <path
       style="fill:none;stroke:#000000;stroke-width:1px"
       d="m 120,186.50005 -28,-4.49998 5,-64.50002"
       id="path3131"
       inkscape:connector-curvature="0"
       sodipodi:nodetypes="ccc" />
    <path
       style="color:#000000;fill:none;stroke:#000000;stroke-width:1px;stroke-linecap:round;stroke-linejoin:miter;stroke-miterlimit:4;stroke-opacity:1;stroke-dashoffset:0;marker:none;visibility:visible;display:inline;overflow:visible;enable-background:accumulate"
       d="m 130,145.5 c 0,2.48528 -2.01472,4.5 -4.5,4.5 -2.48528,0 -4.5,-2.01472 -4.5,-4.5 0,-2.48528 2.01472,-4.5 4.5,-4.5 2.48528,0 4.5,2.01472 4.5,4.5 z"
       id="path3133"
       inkscape:connector-curvature="0" />
    <path
       sodipodi:nodetypes="cccscsscc"
       inkscape:connector-curvature="0"
       id="path3141"
       d="m 333.00002,363.50005 c 5e-5,-17.43821 11.02234,-30.49984 29.5,-30.49999 L 359,67 l -234.5,6e-5 C 82.527154,67.000071 64.305703,91.907553 67,147.00007 139.59519,86.403998 233.11287,118.3284 238,214.50011 245.51284,362.34191 134.40867,303.25168 93,320.00002 71.558285,328.67243 67,343.69186 67,361 z"
       style="fill:#ffffff;stroke:none;display:inline" />
    <path
       style="fill:none;stroke:#000000;stroke-width:1px;stroke-linecap:butt;display:inline"
       d="m 370,67 -11,0 -234.5,6e-5 C 82.527154,67.000071 64.305703,91.907553 67,147.00007 139.59519,86.403998 233.11287,118.3284 238,214.50011 245.51284,362.34191 134.40867,303.25168 93,320.00002 71.558285,328.67243 67,343.69186 67,361 l 0,9"
       id="path3137"
       inkscape:connector-curvature="0"
       sodipodi:nodetypes="ccscsscc" />
    <path
       sodipodi:nodetypes="cssc"
       inkscape:connector-curvature="0"
       id="path3139"
       d="m 333,370 2e-5,-6.49995 c 5e-5,-17.43821 11.02234,-30.49984 29.5,-30.49999 L 370,333"
       style="fill:none;stroke:#000000;stroke-width:1px;stroke-linecap:butt;display:inline" />
  </g>
  <g
     inkscape:groupmode="layer"
     id="g4050"
     inkscape:label="HLMT-003"
     style="display:none"
     sodipodi:insensitive="true">
    <path
       sodipodi:nodetypes="ccccczcczc"
       inkscape:connector-curvature="0"
       id="path4112"
       d="m 111.36043,157.78681 12.64898,62.4449 20.17262,-2.24858 -5.05597,0.59421 4.99747,17.81221 c 24.70902,-16.71138 134.0446,-35.06516 145.81953,23.14496 11.77493,58.21012 -83.17743,75.24296 -127.24169,64.36306 l -13.18983,27.70027 C 234.76632,381.54581 346.66254,364.67015 338,253.50011 329.33746,142.33007 177.91013,131.90614 111.36043,157.78681 z"
       style="fill:#ffffff;stroke:none;display:inline" />
    <path
       style="fill:none;stroke:#000000;stroke-width:1px"
       d="m 139.12606,218.57734 4.99747,17.81221 c 24.70902,-16.71138 134.0446,-35.06516 145.81953,23.14496 11.77493,58.21012 -83.17743,75.24296 -127.24169,64.36306 l -13.18983,27.70027"
       id="path4052"
       inkscape:connector-curvature="0"
       sodipodi:nodetypes="cczcc" />
    <path
       style="fill:none;stroke:#000000;stroke-width:1px"
       d="m 144.18203,217.98313 -20.17262,2.24858 -12.64898,-62.4449"
       id="path4054"
       inkscape:connector-curvature="0"
       sodipodi:nodetypes="ccc" />
    <path
       sodipodi:nodetypes="ccsssscccc"
       inkscape:connector-curvature="0"
       id="path4116"
       d="M 362.5,67 319,67 c -121.03934,0 -236.149983,7.643738 -234.5,76.00006 0.323778,13.41362 4.89691,15.13076 9.5,15.00001 91.32139,-2.59395 231.89766,5.5987 234,95.50004 C 331.46138,401.5172 160.78486,356.0026 87,337.00002 69.234099,332.42458 67,352.51956 67,364 l 266.00002,-0.49995 c 5e-5,-17.43821 11.02234,-30.49984 29.5,-30.49999 z"
       style="fill:#ffffff;stroke:none;display:inline" />
    <path
       style="fill:none;stroke:#000000;stroke-width:1px;stroke-linecap:butt;display:inline"
       d="m 370,67 -51,0 c -121.03934,0 -236.149983,7.643738 -234.5,76.00006 0.323778,13.41362 4.89691,15.13076 9.5,15.00001 91.32139,-2.59395 231.89766,5.5987 234,95.50004 C 331.46138,401.5172 160.78486,356.0026 87,337.00002 69.234099,332.42458 67,347.51956 67,359 l 0,11"
       id="path4056"
       inkscape:connector-curvature="0"
       sodipodi:nodetypes="ccsssscc" />
    <path
       sodipodi:nodetypes="cssc"
       inkscape:connector-curvature="0"
       id="path4060"
       d="m 333,370 2e-5,-6.49995 c 5e-5,-17.43821 11.02234,-30.49984 29.5,-30.49999 L 370,333"
       style="fill:none;stroke:#000000;stroke-width:1px;stroke-linecap:butt;display:inline" />
    <path
       inkscape:connector-curvature="0"
       id="path4120"
       d="m 147.70853,184.80692 c 0.67285,2.39246 -0.72118,4.87739 -3.11365,5.55024 -2.39246,0.67284 -4.87739,-0.72118 -5.55024,-3.11365 -0.67285,-2.39247 0.72118,-4.8774 3.11365,-5.55024 2.39247,-0.67285 4.8774,0.72118 5.55024,3.11365 z"
       style="fill:none;stroke:#000000;stroke-width:1px" />
    <path
       style="fill:none;stroke:#000000;stroke-width:1px"
       d="m 107.70853,184.80692 c 0.67285,2.39246 -0.72118,4.87739 -3.11365,5.55024 -2.39246,0.67284 -4.87739,-0.72118 -5.55024,-3.11365 -0.67285,-2.39247 0.72118,-4.8774 3.11365,-5.55024 2.39247,-0.67285 4.8774,0.72118 5.55024,3.11365 z"
       id="path4122"
       inkscape:connector-curvature="0" />
  </g>
  <g
     style="display:none"
     inkscape:label="HLMT-004"
     id="g4076"
     inkscape:groupmode="layer"
     sodipodi:insensitive="true">
    <path
       sodipodi:nodetypes="csssassscc"
       inkscape:connector-curvature="0"
       id="path3292"
       d="m 233.66762,210.05292 c -29.78828,15.24095 -51.1559,23.09416 -71.61512,19.01047 -16.48527,-3.29049 -31.36143,-12.85525 -48.52338,-13.29858 -16.091057,-0.41566 -32.114128,4.5584 -45.68224,12.87968 -3.751462,2.30077 -9.317148,8.72582 -6.529273,12.51699 4.12682,5.61197 14.082593,-1.42627 20.567245,-3.70309 13.5055,-4.74189 28.729508,-6.78243 42.238498,-1.02712 14.48213,6.16991 28.36694,14.46765 44.32616,16.38686 21.95828,2.64064 43.88874,-3.47195 64.02238,-11.6548 z"
       style="fill:#ffffff;stroke:none;display:inline" />
    <path
       style="fill:none;stroke:#000000;stroke-width:1;display:inline"
       d="m 220.72253,215.58044 c -17.92348,9.13593 -38.21081,17.56664 -58.67003,13.48295 -16.48527,-3.29049 -31.36143,-12.85525 -48.52338,-13.29858 -16.091057,-0.41566 -32.114128,4.5584 -45.68224,12.87968 -3.751462,2.30077 -9.317148,8.72582 -6.529273,12.51699 4.12682,5.61197 14.082593,-1.42627 20.567245,-3.70309 13.5055,-4.74189 28.729508,-6.78243 42.238498,-1.02712 14.48213,6.16991 28.36694,14.46765 44.32616,16.38686 21.95828,2.64064 43.88874,-3.47195 64.02238,-11.6548"
       id="path4108-6"
       inkscape:connector-curvature="0"
       sodipodi:nodetypes="csssasssc" />
    <path
       style="fill:#ffffff;stroke:none;display:inline"
       d="m 241,235.50011 c 3.82327,96.26811 -72.9871,117.20887 -157.883595,88.1588 L 85.977002,301 C 127.5631,300.38052 196.8402,295.79694 191.47696,231.49999 186.35659,170.11472 124.99248,177.88371 85.9885,171.00003 L 88,153.50005 l 13,2 -20,-3.49998 -3.397097,-28.48228 C 144.93977,98.351797 236.74351,128.32377 241,235.50011 z"
       id="path4096"
       inkscape:connector-curvature="0"
       sodipodi:nodetypes="sccscccccs" />
    <path
       sodipodi:nodetypes="ccscc"
       inkscape:connector-curvature="0"
       id="path4078"
       d="m 88,153.50005 -2.0115,17.49998 c 39.00398,6.88368 100.36809,-0.88531 105.48846,60.49996 C 196.8402,295.79694 127.5631,300.38052 85.977002,301 l -2.860597,22.65891"
       style="fill:none;stroke:#000000;stroke-width:1px" />
    <path
       sodipodi:nodetypes="ccc"
       inkscape:connector-curvature="0"
       id="path4080"
       d="M 101,155.50005 81,152.00007 77.602903,123.51779"
       style="fill:none;stroke:#000000;stroke-width:1px" />
    <path
       inkscape:connector-curvature="0"
       id="path4084"
       d="m 122,142.5 c 0,2.48528 -2.01472,4.5 -4.5,4.5 -2.48528,0 -4.5,-2.01472 -4.5,-4.5 0,-2.48528 2.01472,-4.5 4.5,-4.5 2.48528,0 4.5,2.01472 4.5,4.5 z"
       style="fill:none;stroke:#000000;stroke-width:1px"
       sodipodi:nodetypes="sssss" />
    <path
       style="fill:#ffffff;stroke:none;display:inline"
       d="m 333.00002,363.50005 c 5e-5,-17.43821 11.02234,-30.49984 29.5,-30.49999 L 359,67 91.5,67.00006 C 77.969,67.000063 67,77.96907 67,91.50005 l 0,32.50002 c 81.6615,0 157,28.47263 157,112.50004 0,98.21132 -67.8758,86.49993 -157,86.49991 L 67,363 z"
       id="path4088"
       inkscape:connector-curvature="0"
       sodipodi:nodetypes="cccsscsccc" />
    <path
       sodipodi:nodetypes="ccsscsccc"
       inkscape:connector-curvature="0"
       id="path4082"
       d="m 370,67 -11,0 -267.5,6e-5 C 77.969,67.000063 67,77.96907 67,91.50005 l 0,32.50002 c 81.6615,0 157,28.47263 157,112.50004 0,98.21132 -67.8758,86.49993 -157,86.49991 L 67,359 l 0,11"
       style="fill:none;stroke:#000000;stroke-width:1px;stroke-linecap:butt;display:inline" />
    <path
       style="fill:none;stroke:#000000;stroke-width:1px;stroke-linecap:butt;display:inline"
       d="m 333,370 2e-5,-6.49995 c 5e-5,-17.43821 11.02234,-30.49984 29.5,-30.49999 L 370,333"
       id="path4086"
       inkscape:connector-curvature="0"
       sodipodi:nodetypes="cssc" />
  </g>
</svg>
