<?xml version="1.0" encoding="UTF-8" standalone="no"?>
<!-- Created with Inkscape (http://www.inkscape.org/) -->

<svg
   xmlns:dc="http://purl.org/dc/elements/1.1/"
   xmlns:cc="http://creativecommons.org/ns#"
   xmlns:rdf="http://www.w3.org/1999/02/22-rdf-syntax-ns#"
   xmlns:svg="http://www.w3.org/2000/svg"
   xmlns="http://www.w3.org/2000/svg"
   xmlns:sodipodi="http://sodipodi.sourceforge.net/DTD/sodipodi-0.dtd"
   xmlns:inkscape="http://www.inkscape.org/namespaces/inkscape"
   style=""
   sodipodi:docname="210926_Head-R+_XX_XX_XX_XX_.svg"
   inkscape:version="0.48.3.1 r9886"
   version="1.1"
   id="svg2902"
   height="400"
   width="400">
  <sodipodi:namedview
     id="base"
     pagecolor="#d0ecf2"
     bordercolor="#666666"
     borderopacity="1.0"
     inkscape:pageopacity="1"
     inkscape:pageshadow="2"
     inkscape:zoom="0.802337925"
     inkscape:cx="241.2814073"
     inkscape:cy="270.0082007"
     inkscape:document-units="px"
     inkscape:current-layer="g3645"
     showgrid="false"
     inkscape:window-width="1018"
     inkscape:window-height="709"
     inkscape:window-x="0"
     inkscape:window-y="1"
     inkscape:window-maximized="0"
     showguides="false"
     inkscape:guide-bbox="true"
     inkscape:snap-bbox="true"
     inkscape:snap-global="false"
     inkscape:showpageshadow="false"
     showborder="false">
    <sodipodi:guide
       position="190,370"
       orientation="11,0"
       id="guide3451" />
    <sodipodi:guide
       position="210,370"
       orientation="11,0"
       id="guide3453" />
    <sodipodi:guide
       position="370,210"
       orientation="0,-11"
       id="guide3455" />
    <sodipodi:guide
       position="370,190"
       orientation="0,-11"
       id="guide3457" />
    <sodipodi:guide
       position="200,370"
       orientation="11,0"
       id="guide3467" />
    <sodipodi:guide
       position="370,200"
       orientation="0,-11"
       id="guide3469" />
    <sodipodi:guide
       position="67,370"
       orientation="11,0"
       id="guide3475" />
    <sodipodi:guide
       position="93,370"
       orientation="11,0"
       id="guide3477" />
    <sodipodi:guide
       position="307,370"
       orientation="11,0"
       id="guide3479" />
    <sodipodi:guide
       position="333,370"
       orientation="11,0"
       id="guide3481" />
    <sodipodi:guide
       position="370,333"
       orientation="0,-11"
       id="guide3483" />
    <sodipodi:guide
       position="370,307"
       orientation="0,-11"
       id="guide3485" />
    <sodipodi:guide
       position="370,93"
       orientation="0,-11"
       id="guide3487" />
    <sodipodi:guide
       position="370,67"
       orientation="0,-11"
       id="guide3489" />
    <sodipodi:guide
       position="67,370"
       orientation="0,266"
       id="guide3491" />
    <sodipodi:guide
       position="370,67"
       orientation="-266,0"
       id="guide3493" />
    <sodipodi:guide
       position="67,30"
       orientation="0,266"
       id="guide3495" />
    <sodipodi:guide
       position="30,67"
       orientation="-266,0"
       id="guide3497" />
  </sodipodi:namedview>
  <defs
     id="defs2904" />
  <metadata
     id="metadata2907">
    <rdf:RDF>
      <cc:Work
         rdf:about="">
        <dc:format>image/svg+xml</dc:format>
        <dc:type
           rdf:resource="http://purl.org/dc/dcmitype/StillImage" />
        <dc:title />
      </cc:Work>
    </rdf:RDF>
  </metadata>
  <g
     inkscape:groupmode="layer"
     id="bg"
     inkscape:label="XX_BG"
     style="display:inline"
     sodipodi:insensitive="true">
    <path
       style="fill:#d7eef4"
       d="M -8.818119568e-10,-8.818119568e-10 -8.817629843e-10,400 400,400 400,-8.818119568e-10 z"
       id="path4176"
       inkscape:connector-curvature="0" />
  </g>
  <g
     inkscape:label="XX_REFERENZ"
     inkscape:groupmode="layer"
     id="referenz-b"
     style="display:none"
     sodipodi:insensitive="true">
    <path
       id="innerframe"
       style="fill:none;stroke:#ffff00;stroke-width:1px"
       d="m 40.5,40.5 319,0 0,319 -319,0 0,-319 z"
       inkscape:label="#innerframe"
       sodipodi:insensitive="true"
       inkscape:connector-curvature="0" />
    <path
       id="outerframe"
       style="fill:none;stroke:#ffff00;stroke-width:1px"
       d="m 30.5,30.5 339,0 0,339 -339,0 0,-339 z"
       inkscape:label="#outerframe"
       sodipodi:nodetypes="ccccc"
       sodipodi:insensitive="true"
       inkscape:connector-curvature="0" />
    <path
       style="opacity:0.5;fill:none;stroke:#ffc200;stroke-width:1px;stroke-linecap:square"
       d="m 189,30.5 0,10"
       id="ref-S-top-1"
       sodipodi:insensitive="true"
       inkscape:connector-curvature="0" />
    <path
       style="opacity:0.5;fill:none;stroke:#ffc200;stroke-width:1px;stroke-linecap:square"
       d="m 191,30.5 0,10"
       id="ref-S-top-2"
       sodipodi:insensitive="true"
       inkscape:connector-curvature="0" />
    <path
       style="opacity:0.5;fill:none;stroke:#ffc200;stroke-width:1px;stroke-linecap:square"
       d="m 209,30.5 0,10"
       id="ref-S-top-3"
       sodipodi:insensitive="true"
       inkscape:connector-curvature="0" />
    <path
       style="opacity:0.5;fill:none;stroke:#ffc200;stroke-width:1px;stroke-linecap:square"
       d="m 211,30.5 0,10"
       id="ref-S-top-4"
       sodipodi:insensitive="true"
       inkscape:connector-curvature="0" />
    <path
       style="opacity:0.5;fill:none;stroke:#00ff00;stroke-width:1px;stroke-linecap:square"
       d="m 199,30.5 0,10"
       id="ref-I-top-1"
       sodipodi:insensitive="true"
       inkscape:connector-curvature="0" />
    <path
       style="opacity:0.5;fill:none;stroke:#00ff00;stroke-width:1px;stroke-linecap:square"
       d="m 201,30.5 0,10"
       id="ref-I-top-2"
       sodipodi:insensitive="true"
       inkscape:connector-curvature="0" />
    <path
       style="opacity:0.5;fill:none;stroke:#00ffcc;stroke-width:1px;stroke-linecap:square"
       d="m 66,30.5 0,10"
       id="ref-C-top-1"
       sodipodi:insensitive="true"
       inkscape:connector-curvature="0" />
    <path
       style="opacity:0.5;fill:none;stroke:#00ffcc;stroke-width:1px;stroke-linecap:square"
       d="m 68,30.5 0,10"
       id="ref-C-top-2"
       sodipodi:insensitive="true"
       inkscape:connector-curvature="0" />
    <path
       style="opacity:0.5;fill:none;stroke:#00ffcc;stroke-width:1px;stroke-linecap:square"
       d="m 92,30.5 0,10"
       id="ref-C-top-3"
       sodipodi:insensitive="true"
       inkscape:connector-curvature="0" />
    <path
       style="opacity:0.5;fill:none;stroke:#00ffcc;stroke-width:1px;stroke-linecap:square"
       d="m 94,30.5 0,10"
       id="ref-C-top-4"
       sodipodi:insensitive="true"
       inkscape:connector-curvature="0" />
    <path
       style="opacity:0.5;fill:none;stroke:#00ffcc;stroke-width:1px;stroke-linecap:square"
       d="m 306,30.5 0,10"
       id="ref-C-top-5"
       sodipodi:insensitive="true"
       inkscape:connector-curvature="0" />
    <path
       style="opacity:0.5;fill:none;stroke:#00ffcc;stroke-width:1px;stroke-linecap:square"
       d="m 308,30.5 0,10"
       id="ref-C-top-6"
       sodipodi:insensitive="true"
       inkscape:connector-curvature="0" />
    <path
       style="opacity:0.5;fill:none;stroke:#00ffcc;stroke-width:1px;stroke-linecap:square"
       d="m 332,30.5 0,10"
       id="ref-C-top-7"
       sodipodi:insensitive="true"
       inkscape:connector-curvature="0" />
    <path
       style="opacity:0.5;fill:none;stroke:#00ffcc;stroke-width:1px;stroke-linecap:square"
       d="m 334,30.5 0,10"
       id="ref-C-top-8"
       sodipodi:insensitive="true"
       inkscape:connector-curvature="0" />
    <path
       style="opacity:0.5;fill:none;stroke:#ffc200;stroke-width:1px;stroke-linecap:square"
       d="m 369.5,189 -10,0"
       id="ref-S-right-1"
       sodipodi:insensitive="true"
       inkscape:connector-curvature="0" />
    <path
       style="opacity:0.5;fill:none;stroke:#ffc200;stroke-width:1px;stroke-linecap:square"
       d="m 369.5,191 -10,0"
       id="ref-S-right-2"
       sodipodi:insensitive="true"
       inkscape:connector-curvature="0" />
    <path
       style="opacity:0.5;fill:none;stroke:#ffc200;stroke-width:1px;stroke-linecap:square"
       d="m 369.5,209 -10,0"
       id="ref-S-right-3"
       sodipodi:insensitive="true"
       inkscape:connector-curvature="0" />
    <path
       style="opacity:0.5;fill:none;stroke:#ffc200;stroke-width:1px;stroke-linecap:square"
       d="m 369.5,211 -10,0"
       id="ref-S-right-4"
       sodipodi:insensitive="true"
       inkscape:connector-curvature="0" />
    <path
       style="opacity:0.5;fill:none;stroke:#00ff00;stroke-width:1px;stroke-linecap:square"
       d="m 369.5,199 -10,0"
       id="ref-I-right-1"
       sodipodi:insensitive="true"
       inkscape:connector-curvature="0" />
    <path
       style="opacity:0.5;fill:none;stroke:#00ff00;stroke-width:1px;stroke-linecap:square"
       d="m 369.5,201 -10,0"
       id="ref-I-right-2"
       sodipodi:insensitive="true"
       inkscape:connector-curvature="0" />
    <path
       style="opacity:0.5;fill:none;stroke:#00ffcc;stroke-width:1px;stroke-linecap:square"
       d="m 369.5,66 -10,0"
       id="ref-C-right-1"
       sodipodi:insensitive="true"
       inkscape:connector-curvature="0" />
    <path
       style="opacity:0.5;fill:none;stroke:#00ffcc;stroke-width:1px;stroke-linecap:square"
       d="m 369.5,68 -10,0"
       id="ref-C-right-2"
       sodipodi:insensitive="true"
       inkscape:connector-curvature="0" />
    <path
       style="opacity:0.5;fill:none;stroke:#00ffcc;stroke-width:1px;stroke-linecap:square"
       d="m 369.5,92 -10,0"
       id="ref-C-right-3"
       sodipodi:insensitive="true"
       inkscape:connector-curvature="0" />
    <path
       style="opacity:0.5;fill:none;stroke:#00ffcc;stroke-width:1px;stroke-linecap:square"
       d="m 369.5,94 -10,0"
       id="ref-C-right-4"
       sodipodi:insensitive="true"
       inkscape:connector-curvature="0" />
    <path
       style="opacity:0.5;fill:none;stroke:#00ffcc;stroke-width:1px;stroke-linecap:square"
       d="m 369.5,306 -10,0"
       id="ref-C-right-5"
       sodipodi:insensitive="true"
       inkscape:connector-curvature="0" />
    <path
       style="opacity:0.5;fill:none;stroke:#00ffcc;stroke-width:1px;stroke-linecap:square"
       d="m 369.5,308 -10,0"
       id="ref-C-right-6"
       sodipodi:insensitive="true"
       inkscape:connector-curvature="0" />
    <path
       style="opacity:0.5;fill:none;stroke:#00ffcc;stroke-width:1px;stroke-linecap:square"
       d="m 369.5,332 -10,0"
       id="ref-C-right-7"
       sodipodi:insensitive="true"
       inkscape:connector-curvature="0" />
    <path
       style="opacity:0.5;fill:none;stroke:#00ffcc;stroke-width:1px;stroke-linecap:square"
       d="m 369.5,334 -10,0"
       id="ref-C-right-8"
       sodipodi:insensitive="true"
       inkscape:connector-curvature="0" />
    <path
       style="opacity:0.5;fill:none;stroke:#ffc200;stroke-width:1px;stroke-linecap:square"
       d="m 189,369.5 0,-10"
       id="ref-S-bottom-1"
       sodipodi:insensitive="true"
       inkscape:connector-curvature="0" />
    <path
       style="opacity:0.5;fill:none;stroke:#ffc200;stroke-width:1px;stroke-linecap:square"
       d="m 191,369.5 0,-10"
       id="ref-S-bottom-2"
       sodipodi:insensitive="true"
       inkscape:connector-curvature="0" />
    <path
       style="opacity:0.5;fill:none;stroke:#ffc200;stroke-width:1px;stroke-linecap:square"
       d="m 209,369.5 0,-10"
       id="ref-S-bottom-3"
       sodipodi:insensitive="true"
       inkscape:connector-curvature="0" />
    <path
       style="opacity:0.5;fill:none;stroke:#ffc200;stroke-width:1px;stroke-linecap:square"
       d="m 211,369.5 0,-10"
       id="ref-S-bottom-4"
       sodipodi:insensitive="true"
       inkscape:connector-curvature="0" />
    <path
       style="opacity:0.5;fill:none;stroke:#00ff00;stroke-width:1px;stroke-linecap:square"
       d="m 199,369.5 0,-10"
       id="ref-I-bottom-1"
       sodipodi:insensitive="true"
       inkscape:connector-curvature="0" />
    <path
       style="opacity:0.5;fill:none;stroke:#00ff00;stroke-width:1px;stroke-linecap:square"
       d="m 201,369.5 0,-10"
       id="ref-I-bottom-2"
       sodipodi:insensitive="true"
       inkscape:connector-curvature="0" />
    <path
       style="opacity:0.5;fill:none;stroke:#00ffcc;stroke-width:1px;stroke-linecap:square"
       d="m 66,369.5 0,-10"
       id="ref-C-bottom-1"
       sodipodi:insensitive="true"
       inkscape:connector-curvature="0" />
    <path
       style="opacity:0.5;fill:none;stroke:#00ffcc;stroke-width:1px;stroke-linecap:square"
       d="m 68,369.5 0,-10"
       id="ref-C-bottom-2"
       sodipodi:insensitive="true"
       inkscape:connector-curvature="0" />
    <path
       style="opacity:0.5;fill:none;stroke:#00ffcc;stroke-width:1px;stroke-linecap:square"
       d="m 92,369.5 0,-10"
       id="ref-C-bottom-3"
       sodipodi:insensitive="true"
       inkscape:connector-curvature="0" />
    <path
       style="opacity:0.5;fill:none;stroke:#00ffcc;stroke-width:1px;stroke-linecap:square"
       d="m 94,369.5 0,-10"
       id="ref-C-bottom-4"
       sodipodi:insensitive="true"
       inkscape:connector-curvature="0" />
    <path
       style="opacity:0.5;fill:none;stroke:#00ffcc;stroke-width:1px;stroke-linecap:square"
       d="m 306,369.5 0,-10"
       id="ref-C-bottom-5"
       sodipodi:insensitive="true"
       inkscape:connector-curvature="0" />
    <path
       style="opacity:0.5;fill:none;stroke:#00ffcc;stroke-width:1px;stroke-linecap:square"
       d="m 308,369.5 0,-10"
       id="ref-C-bottom-6"
       sodipodi:insensitive="true"
       inkscape:connector-curvature="0" />
    <path
       style="opacity:0.5;fill:none;stroke:#00ffcc;stroke-width:1px;stroke-linecap:square"
       d="m 332,369.5 0,-10"
       id="ref-C-bottom-7"
       sodipodi:insensitive="true"
       inkscape:connector-curvature="0" />
    <path
       style="opacity:0.5;fill:none;stroke:#00ffcc;stroke-width:1px;stroke-linecap:square"
       d="m 334,369.5 0,-10"
       id="ref-C-bottom-8"
       sodipodi:insensitive="true"
       inkscape:connector-curvature="0" />
    <path
       style="opacity:0.5;fill:none;stroke:#ffc200;stroke-width:1px;stroke-linecap:square"
       d="m 30.5,189 10,0"
       id="ref-S-left-1"
       sodipodi:insensitive="true"
       inkscape:connector-curvature="0" />
    <path
       style="opacity:0.5;fill:none;stroke:#ffc200;stroke-width:1px;stroke-linecap:square"
       d="m 30.5,191 10,0"
       id="ref-S-left-2"
       sodipodi:insensitive="true"
       inkscape:connector-curvature="0" />
    <path
       style="opacity:0.5;fill:none;stroke:#ffc200;stroke-width:1px;stroke-linecap:square"
       d="m 30.5,209 10,0"
       id="ref-S-left-3"
       sodipodi:insensitive="true"
       inkscape:connector-curvature="0" />
    <path
       style="opacity:0.5;fill:none;stroke:#ffc200;stroke-width:1px;stroke-linecap:square"
       d="m 30.5,211 10,0"
       id="ref-S-left-4"
       sodipodi:insensitive="true"
       inkscape:connector-curvature="0" />
    <path
       style="opacity:0.5;fill:none;stroke:#00ff00;stroke-width:1px;stroke-linecap:square"
       d="m 40.5,199 -10,0"
       id="ref-I-left-1"
       sodipodi:insensitive="true"
       inkscape:connector-curvature="0" />
    <path
       style="opacity:0.5;fill:none;stroke:#00ff00;stroke-width:1px;stroke-linecap:square"
       d="m 40.5,201 -10,0"
       id="ref-I-left-2"
       sodipodi:insensitive="true"
       inkscape:connector-curvature="0" />
    <path
       style="opacity:0.5;fill:none;stroke:#00ffcc;stroke-width:1px;stroke-linecap:square"
       d="m 30.5,66 10,0"
       id="ref-C-left-1"
       sodipodi:insensitive="true"
       inkscape:connector-curvature="0" />
    <path
       style="opacity:0.5;fill:none;stroke:#00ffcc;stroke-width:1px;stroke-linecap:square"
       d="m 30.5,68 10,0"
       id="ref-C-left-2"
       sodipodi:insensitive="true"
       inkscape:connector-curvature="0" />
    <path
       style="opacity:0.5;fill:none;stroke:#00ffcc;stroke-width:1px;stroke-linecap:square"
       d="m 30.5,92 10,0"
       id="ref-C-left-3"
       sodipodi:insensitive="true"
       inkscape:connector-curvature="0" />
    <path
       style="opacity:0.5;fill:none;stroke:#00ffcc;stroke-width:1px;stroke-linecap:square"
       d="m 30.5,94 10,0"
       id="ref-C-left-4"
       sodipodi:insensitive="true"
       inkscape:connector-curvature="0" />
    <path
       style="opacity:0.5;fill:none;stroke:#00ffcc;stroke-width:1px;stroke-linecap:square"
       d="m 30.5,306 10,0"
       id="ref-C-left-5"
       sodipodi:insensitive="true"
       inkscape:connector-curvature="0" />
    <path
       style="opacity:0.5;fill:none;stroke:#00ffcc;stroke-width:1px;stroke-linecap:square"
       d="m 30.5,308 10,0"
       id="ref-C-left-6"
       sodipodi:insensitive="true"
       inkscape:connector-curvature="0" />
    <path
       style="opacity:0.5;fill:none;stroke:#00ffcc;stroke-width:1px;stroke-linecap:square"
       d="m 30.5,332 10,0"
       id="ref-C-left-7"
       sodipodi:insensitive="true"
       inkscape:connector-curvature="0" />
    <path
       style="opacity:0.5;fill:none;stroke:#00ffcc;stroke-width:1px;stroke-linecap:square"
       d="m 30.5,334 10,0"
       id="ref-C-left-8"
       sodipodi:insensitive="true"
       inkscape:connector-curvature="0" />
    <path
       style="fill:none;stroke:#000000;stroke-width:1px;stroke-linecap:butt"
       d="m 190,30 0,11"
       id="S-top-1"
       inkscape:connector-curvature="0"
       sodipodi:nodetypes="cc" />
    <path
       style="fill:none;stroke:#000000;stroke-width:1px;stroke-linecap:butt"
       d="m 210,30 0,11"
       id="S-top-2"
       inkscape:connector-curvature="0"
       sodipodi:nodetypes="cc" />
    <path
       style="fill:none;stroke:#000000;stroke-width:1px;stroke-linecap:butt"
       d="m 370,190 -11,0"
       id="S-right-1"
       inkscape:connector-curvature="0"
       sodipodi:nodetypes="cc" />
    <path
       style="fill:none;stroke:#000000;stroke-width:1px;stroke-linecap:butt"
       d="m 370,210 -11,0"
       id="S-right-2"
       inkscape:connector-curvature="0"
       sodipodi:nodetypes="cc" />
    <path
       style="fill:none;stroke:#000000;stroke-width:1px;stroke-linecap:butt"
       d="m 190,370 0,-11"
       id="S-bottom-1"
       inkscape:connector-curvature="0"
       sodipodi:nodetypes="cc" />
    <path
       style="fill:none;stroke:#000000;stroke-width:1px;stroke-linecap:butt"
       d="m 210,370 0,-11"
       id="S-bottom-2"
       inkscape:connector-curvature="0"
       sodipodi:nodetypes="cc" />
    <path
       style="fill:none;stroke:#000000;stroke-width:1px;stroke-linecap:butt"
       d="m 30,190 11,0"
       id="S-left-1"
       inkscape:connector-curvature="0"
       sodipodi:nodetypes="cc" />
    <path
       style="fill:none;stroke:#000000;stroke-width:1px;stroke-linecap:butt"
       d="m 30,210 11,0"
       id="S-left-2"
       inkscape:connector-curvature="0"
       sodipodi:nodetypes="cc" />
    <path
       style="fill:none;stroke:#000000;stroke-width:1px;stroke-linecap:butt"
       d="m 200,30 0,11"
       id="I-top-1"
       inkscape:connector-curvature="0"
       sodipodi:nodetypes="cc" />
    <path
       style="fill:none;stroke:#000000;stroke-width:1px;stroke-linecap:butt"
       d="m 370,200 -11,0"
       id="I-right-1"
       inkscape:connector-curvature="0"
       sodipodi:nodetypes="cc" />
    <path
       style="fill:none;stroke:#000000;stroke-width:1px;stroke-linecap:butt"
       d="m 200,370 0,-11"
       id="I-bottom-1"
       inkscape:connector-curvature="0"
       sodipodi:nodetypes="cc" />
    <path
       style="fill:none;stroke:#000000;stroke-width:1px;stroke-linecap:butt"
       d="m 41,200 -11,0"
       id="I-left-1"
       inkscape:connector-curvature="0"
       sodipodi:nodetypes="cc" />
    <path
       style="fill:none;stroke:#000000;stroke-width:1px;stroke-linecap:butt"
       d="m 67,30 0,11"
       id="C-top-1"
       inkscape:connector-curvature="0"
       sodipodi:nodetypes="cc" />
    <path
       style="fill:none;stroke:#000000;stroke-width:1px;stroke-linecap:butt"
       d="m 93,30 0,11"
       id="C-top-2"
       inkscape:connector-curvature="0"
       sodipodi:nodetypes="cc" />
    <path
       style="fill:none;stroke:#000000;stroke-width:1px;stroke-linecap:butt"
       d="m 307,30 0,11"
       id="C-top-3"
       inkscape:connector-curvature="0"
       sodipodi:nodetypes="cc" />
    <path
       style="fill:none;stroke:#000000;stroke-width:1px;stroke-linecap:butt"
       d="m 333,30 0,11"
       id="C-top-4"
       inkscape:connector-curvature="0"
       sodipodi:nodetypes="cc" />
    <path
       style="fill:none;stroke:#000000;stroke-width:1px;stroke-linecap:butt"
       d="m 370,67 -11,0"
       id="C-right-1"
       inkscape:connector-curvature="0"
       sodipodi:nodetypes="cc" />
    <path
       style="fill:none;stroke:#000000;stroke-width:1px;stroke-linecap:butt"
       d="m 370,93 -11,0"
       id="C-right-2"
       inkscape:connector-curvature="0"
       sodipodi:nodetypes="cc" />
    <path
       style="fill:none;stroke:#000000;stroke-width:1px;stroke-linecap:butt"
       d="m 370,307 -11,0"
       id="C-right-3"
       inkscape:connector-curvature="0"
       sodipodi:nodetypes="cc" />
    <path
       style="fill:none;stroke:#000000;stroke-width:1px;stroke-linecap:butt"
       d="m 370,333 -11,0"
       id="C-right-4"
       inkscape:connector-curvature="0"
       sodipodi:nodetypes="cc" />
    <path
       style="fill:none;stroke:#000000;stroke-width:1px;stroke-linecap:butt"
       d="m 67,370 0,-11"
       id="C-bottom-1"
       inkscape:connector-curvature="0"
       sodipodi:nodetypes="cc" />
    <path
       style="fill:none;stroke:#000000;stroke-width:1px;stroke-linecap:butt"
       d="m 93,370 0,-11"
       id="C-bottom-2"
       inkscape:connector-curvature="0"
       sodipodi:nodetypes="cc" />
    <path
       style="fill:none;stroke:#000000;stroke-width:1px;stroke-linecap:butt"
       d="m 307,370 0,-11"
       id="C-bottom-3"
       inkscape:connector-curvature="0"
       sodipodi:nodetypes="cc" />
    <path
       style="fill:none;stroke:#000000;stroke-width:1px;stroke-linecap:butt"
       d="m 333,370 0,-11"
       id="C-bottom-4"
       inkscape:connector-curvature="0"
       sodipodi:nodetypes="cc" />
    <path
       style="fill:none;stroke:#000000;stroke-width:1px;stroke-linecap:butt"
       d="m 30,67 11,0"
       id="C-left-1"
       inkscape:connector-curvature="0"
       sodipodi:nodetypes="cc" />
    <path
       style="fill:none;stroke:#000000;stroke-width:1px;stroke-linecap:butt"
       d="m 30,93 11,0"
       id="C-left-2"
       inkscape:connector-curvature="0"
       sodipodi:nodetypes="cc" />
    <path
       style="fill:none;stroke:#000000;stroke-width:1px;stroke-linecap:butt"
       d="m 30,307 11,0"
       id="C-left-3"
       inkscape:connector-curvature="0"
       sodipodi:nodetypes="cc" />
    <path
       style="fill:none;stroke:#000000;stroke-width:1px;stroke-linecap:butt"
       d="m 30,333 11,0"
       id="C-left-4"
       inkscape:connector-curvature="0"
       sodipodi:nodetypes="cc" />
  </g>
  <g
     inkscape:groupmode="layer"
     id="layer1"
     inkscape:label="XX___________________"
     style="display:none"
     sodipodi:insensitive="true">
    <path
       style="fill:none;stroke:#000000;stroke-width:1px"
       d="m 144.5,134.9999999 c 0,19.053824 -15.4461763,34.5 -34.5,34.5 -19.0538237,0 -34.5,-15.446176 -34.5,-34.5 l 0,-50 c 0,-19.053824 15.4461763,-34.4999998 34.5,-34.4999998 19.0538237,0 34.5,15.4461758 34.5,34.4999998 z"
       id="path3316"
       inkscape:connector-curvature="0"
       sodipodi:nodetypes="sssssss" />
    <path
       sodipodi:nodetypes="sssss"
       inkscape:connector-curvature="0"
       id="path3318"
       d="m 144.5,135.076353 c 0,46.4515122 -69,45.3415245 -69,0 l 0,-50.0112512 c 0,-46.9360296 69,-44.9012215 69,-1.0002251 z"
       style="fill:none;stroke:#ff0000;stroke-width:1px" />
    <path
       style="fill:none;stroke:#ff0000;stroke-width:0.9999999404px"
       d="m 214.5,145.200955 c 0,32.7893028 -49,32.005782 -49,0 l 0,-35.3020596 c 0,-33.131315 49,-31.6949799 49,-0.7060412 z"
       id="path3324"
       inkscape:connector-curvature="0"
       sodipodi:nodetypes="sssss" />
    <path
       sodipodi:nodetypes="sssss"
       inkscape:connector-curvature="0"
       id="path3326"
       d="m 274.5000001,150.1186188 c 0,26.1533725 -39.0000001,25.5284214 -39.0000001,0 l 0,-28.1575952 c 0,-26.4261679 39.0000001,-25.2805197 39.0000001,-0.5631519 z"
       style="fill:none;stroke:#ff0000;stroke-width:0.9999999404px" />
    <path
       style="fill:none;stroke:#ff0000;stroke-width:0.9999999404px"
       d="m 324.5000001,155.0362827 c 0,19.5174421 -29.0000001,19.0510607 -29.0000001,0 l 0,-21.0131307 c 0,-19.7210208 29.0000001,-18.8660595 29.0000001,-0.4202627 z"
       id="path3328"
       inkscape:connector-curvature="0"
       sodipodi:nodetypes="sssss" />
    <path
       style="fill:none;stroke:#ff0000;stroke-width:1px"
       d="m 75.5,314.2734748 c 0,-47.5768319 69,-46.5420238 69,0.5723979 0,49.9792803 -69,47.0134727 -69,-0.5723979 z"
       id="path3407"
       inkscape:connector-curvature="0"
       sodipodi:nodetypes="sss" />
    <path
       sodipodi:nodetypes="sss"
       inkscape:connector-curvature="0"
       id="path3415"
       d="m 156.5,324.5602576 c 0,-34.308281 49,-33.5620672 49,0.4127636 0,36.0407183 -49,33.9020353 -49,-0.4127636 z"
       style="fill:none;stroke:#ff0000;stroke-width:1px" />
    <path
       style="fill:none;stroke:#ff0000;stroke-width:0.9999998808px"
       d="m 216.5,330.9646977 c 0,-26.5181474 39,-27.1403006 39,0.3133202 0,25.6937452 -39,26.68521 -39,-0.3133202 z"
       id="path3417"
       inkscape:connector-curvature="0"
       sodipodi:nodetypes="sss" />
    <path
       sodipodi:nodetypes="sss"
       inkscape:connector-curvature="0"
       id="path3419"
       d="m 266.5,336.4418951 c 0,-19.2256568 29.0000001,-19.6767179 29.0000001,0.2271572 0,18.6279653 -29.0000001,19.3467772 -29.0000001,-0.2271572 z"
       style="fill:none;stroke:#ff0000;stroke-width:0.9999998808px" />
    <path
       style="fill:none;stroke:#000000;stroke-width:1px;stroke-linecap:butt;display:inline"
       d="m 800,333 -86,0 c -12.2503915,0 -24.5,-8.2952658 -24.5,-24.2981568 l 10e-8,-103.8030833 c 0,-24.7173678 -39.0000001,-25.863016 -39.0000001,0.5631519 l 0,103.2399314 C 650.5,325.0964946 638.2503915,333 626,333 l -26.6985228,0 C 419.1640382,333 426.9734998,67 595.4626781,67 L 800,67"
       id="C-right-1-3-3"
       inkscape:connector-curvature="0"
       sodipodi:nodetypes="cssssssssc" />
    <path
       sodipodi:nodetypes="sss"
       inkscape:connector-curvature="0"
       id="path3415-5-6"
       d="m 645.5,124.5602576 c 0,-34.308281 49,-33.5620672 49,0.4127636 0,36.0407183 -49,33.9020353 -49,-0.4127636 z"
       style="fill:none;stroke:#000000;stroke-width:1px;display:inline" />
    <path
       style="fill:none;stroke:#000000;stroke-width:1px;display:inline"
       d="m 565.5,124.5602576 c 0,-34.308281 49,-33.5620672 49,0.4127636 0,36.0407183 -49,33.9020353 -49,-0.4127636 z"
       id="path3450-0"
       inkscape:connector-curvature="0"
       sodipodi:nodetypes="sss" />
  </g>
  <g
     style="display:none"
     inkscape:label="HEAD-0100"
     id="g3499"
     inkscape:groupmode="layer"
     connect="..UW...."
     sodipodi:insensitive="true">
    <path
       style="fill:#ffffff;stroke:none"
       d="m 370,333 -22,0 c -48.238688,0 -55.1710677,-31.1488752 -56.5,-60.2981568 l -2.9999999,-65.8030833 C 287.1933005,178.2371388 248.0959822,175.7431435 245.5,205.4619118 l -5,57.2399314 C 237.2581205,299.8148357 221.0158411,333 161.6850826,333 16.95333505,333 7.20462022,67 197.4626781,67 L 370,67 z"
       id="path3531"
       inkscape:connector-curvature="0"
       sodipodi:nodetypes="cssssssscc" />
    <path
       sodipodi:nodetypes="csssssssc"
       inkscape:connector-curvature="0"
       id="path3501"
       d="m 370,333 -22,0 c -48.238688,0 -55.1710677,-31.1488752 -56.5,-60.2981568 l -2.9999999,-65.8030833 C 287.1933005,178.2371388 248.0959822,175.7431435 245.5,205.4619118 l -5,57.2399314 C 237.2581205,299.8148357 221.0158411,333 161.6850826,333 16.95333505,333 7.20462022,67 197.4626781,67 L 370,67"
       style="fill:none;stroke:#000000;stroke-width:1px;stroke-linecap:butt;display:inline" />
    <path
       style="fill:none;stroke:#000000;stroke-width:1px;display:inline"
       d="m 239.5,124.5602576 c 0,-34.308281 49,-33.5620672 49,0.4127636 0,36.0407183 -49,33.9020353 -49,-0.4127636 z"
       id="path3503"
       inkscape:connector-curvature="0"
       sodipodi:nodetypes="sss" />
    <path
       sodipodi:nodetypes="sss"
       inkscape:connector-curvature="0"
       id="path3505"
       d="m 141.5,124.5602576 c 0,-34.308281 49,-33.5620672 49,0.4127636 0,36.0407183 -49,33.9020353 -49,-0.4127636 z"
       style="fill:none;stroke:#000000;stroke-width:1px;display:inline" />
  </g>
  <g
     inkscape:groupmode="layer"
     id="layer3"
     inkscape:label="HEAD-0200"
     style="display:none"
     connect="..CW...."
     sodipodi:insensitive="true">
    <path
       style="fill:#ffffff;stroke:none;display:inline"
       d="M 202.46875,93 C 42.78544585,93 51.75679533,333 199.3125,333 L 370,333 370,93 290.25,93 c -0.4308239,2.90251188 -0.6720516,6.03574188 -0.75,9.40625 l -3,129.71875 c -0.5908331,25.5477701 -34.8675232,24.3839646 -36,0 L 244.03125,93 l -41.5625,0 z"
       id="path3640"
       inkscape:connector-curvature="0" />
    <path
       sodipodi:nodetypes="csccc"
       inkscape:connector-curvature="0"
       id="path3638"
       d="m 370,307 -56.5,0 c -14.6933205,0 -25.5,16.0131205 -25.5,26 l 82,0 z"
       style="fill:#ffffff;stroke:none;display:inline" />
    <path
       style="fill:#ffffff;stroke:none;display:inline"
       d="m 321.5,67 c -19.7126716,0 -28.7157359,8.9263606 -31.25,26 l 79.75,0 0,-26 z"
       id="path3631"
       inkscape:connector-curvature="0"
       sodipodi:nodetypes="scccs" />
    <path
       id="path3623"
       d="M 243.5000001,81.3978717 C 242.4488588,59.21567509 210.1594925,60.78558545 208.5,80.9610236 l -1,12.1575952 c 1.0604194,-0.0141085 36.4026202,0 36.4026202,0 z"
       style="fill:#ffffff;stroke:none;display:inline"
       inkscape:connector-curvature="0"
       sodipodi:nodetypes="csccc" />
    <path
       style="fill:none;stroke:#000000;stroke-width:0.9999999404px;display:inline"
       d="m 207.5,93.1186188 1,-12.1575952 c 1.6594925,-20.17543815 33.9488588,-21.74534851 35.0000001,0.4368481"
       id="path3621"
       inkscape:connector-curvature="0"
       sodipodi:nodetypes="csc" />
    <path
       style="fill:none;stroke:#000000;stroke-width:1px;stroke-linecap:butt;display:inline"
       d="m 370,333 -170.6985228,0 C 51.74577253,333 42.77937395,93 202.4626781,93 l 41.7686609,0"
       id="path3627"
       inkscape:connector-curvature="0"
       sodipodi:nodetypes="cssc" />
    <path
       style="fill:none;stroke:#000000;stroke-width:1px;stroke-linecap:butt;display:inline"
       d="M 290.231339,93 370,93"
       id="C-right-1-3-3-6"
       inkscape:connector-curvature="0"
       sodipodi:nodetypes="cc" />
    <path
       style="fill:none;stroke:#000000;stroke-width:0.9999999404px;display:inline"
       d="M 243.5000001,81.3978717 250.5,232.1186188 c 1.1324768,24.3839646 35.409167,25.5477701 36.0000001,0 L 289.5,102.3978717 C 290.0364694,79.20079868 298.4361821,67 321.5,67 l 48.5,0"
       id="path3576"
       inkscape:connector-curvature="0"
       sodipodi:nodetypes="cssssc" />
    <path
       style="fill:none;stroke:#000000;stroke-width:1px;stroke-linecap:butt;display:inline"
       d="m 370,307 -56.5,0 c -14.6933205,0 -25.5,16.0131205 -25.5,26"
       id="C-right-3-1"
       inkscape:connector-curvature="0"
       sodipodi:nodetypes="csc" />
    <path
       sodipodi:nodetypes="sss"
       inkscape:connector-curvature="0"
       id="path3419-8"
       d="m 251.5000001,281.4584789 c 0,-24.5292863 37.0000001,-25.104778 37.0000001,0.2898212 0,23.7667144 -37.0000001,24.6838192 -37.0000001,-0.2898212 z"
       style="fill:none;stroke:#1a1a1a;stroke-width:0.9999998808px;display:inline" />
  </g>
  <g
     connect="..CW...."
     style="display:inline"
     inkscape:label="HEAD-0205"
     id="g3645"
     inkscape:groupmode="layer">
    <path
       sodipodi:nodetypes="ssccs"
       inkscape:connector-curvature="0"
       id="path3685"
       d="M 223.5000001,72.3978717 C 220.7980926,46.60805017 185.8281025,48.51777403 184.5,73.9610236 l -1,19.1575952 42.1708388,0 z"
       style="fill:#ffffff;stroke:none" />
    <path
       style="fill:none;stroke:#000000;stroke-width:1;display:inline;stroke-miterlimit:4;stroke-dasharray:none;stroke-linecap:round"
       d="m 183.5,93.1186188 1,-19.1575952 c 1.3281025,-25.44324957 36.7716696,-27.39820061 39.0000001,-1.5631519"
       id="path3683"
       inkscape:connector-curvature="0"
       sodipodi:nodetypes="csc" />
    <path
       style="fill:#ffffff;stroke:none;stroke-width:1px;stroke-linecap:butt;display:inline"
       d="M 178.46875 93 C 18.78544585 93 27.75679533 333 175.3125 333 L 370 333 L 370 93 L 291.375 93 C 289.2297503 98.53649064 287.9088417 104.997987 287.5 112.40625 L 281.5 221.125 C 279.6333978 254.9480644 239.1556096 253.9138815 236.5 223.125 L 225.28125 93 L 178.46875 93 z "
       id="path3676" />
    <path
       style="fill:#ffffff;stroke:none"
       d="m 370,307 -80.5,0 c -14.6933205,0 -20.5,9.0131205 -20.5,19 l 0,7 101,0 z"
       id="path3674"
       inkscape:connector-curvature="0"
       sodipodi:nodetypes="cssccc" />
    <path
       style="fill:#ffffff;stroke:none"
       d="M 322.71875,67 C 307.4503301,69.73930494 296.3627678,78.1973852 291,93 l 79,0 0,-26 -47.28125,0 z"
       id="path3669"
       inkscape:connector-curvature="0" />
    <path
       style="fill:none;stroke:#000000;stroke-width:0.9999999404px;display:inline"
       d="M 223.5000001,72.3978717 236.5,223.1186188 c 2.6556096,30.7888815 43.1333979,31.8230644 45.0000001,-2 L 287.5,112.3978717 C 289.215351,81.31549813 306.9552027,67 334.5,67 l 35.5,0"
       id="path3655" />
    <path
       sodipodi:nodetypes="cssc"
       inkscape:connector-curvature="0"
       id="path3657"
       d="m 370,333 -194.6985228,0 C 27.74577253,333 18.77937395,93 178.4626781,93 l 46.7686609,0"
       style="fill:none;stroke:#000000;stroke-width:1px;stroke-linecap:butt;display:inline" />
    <path
       sodipodi:nodetypes="cc"
       inkscape:connector-curvature="0"
       id="path3659"
       d="M 291.231339,93 370,93"
       style="fill:none;stroke:#000000;stroke-width:1px;stroke-linecap:butt;display:inline" />
    <path
       sodipodi:nodetypes="cssc"
       inkscape:connector-curvature="0"
       id="path3663"
       d="m 370,307 -80.5,0 c -14.6933205,0 -20.5,9.0131205 -20.5,19 l 0,7"
       style="fill:none;stroke:#000000;stroke-width:1px;stroke-linecap:butt;display:inline" />
    <path
       style="fill:#ffffff;stroke:#1a1a1a;stroke-width:0.99999988080000002px;display:inline"
       d="m 244.5000001,278.4584789 c 0,-24.5292863 37.0000001,-25.104778 37.0000001,0.2898212 0,23.7667144 -37.0000001,24.6838192 -37.0000001,-0.2898212 z"
       id="path3665"
       inkscape:connector-curvature="0"
       sodipodi:nodetypes="sss" />
  </g>
</svg>
