<?xml version="1.0" encoding="UTF-8" standalone="no"?>
<!-- Created with Inkscape (http://www.inkscape.org/) -->

<svg
   xmlns:dc="http://purl.org/dc/elements/1.1/"
   xmlns:cc="http://creativecommons.org/ns#"
   xmlns:rdf="http://www.w3.org/1999/02/22-rdf-syntax-ns#"
   xmlns:svg="http://www.w3.org/2000/svg"
   xmlns="http://www.w3.org/2000/svg"
   xmlns:sodipodi="http://sodipodi.sourceforge.net/DTD/sodipodi-0.dtd"
   xmlns:inkscape="http://www.inkscape.org/namespaces/inkscape"
   style="display:inline"
   sodipodi:docname="211118_Lgsh-R+_XX_XX_XX_XX_.svg"
   inkscape:version="0.48.3.1 r9886"
   version="1.1"
   id="svg2902"
   height="400"
   width="400">
  <sodipodi:namedview
     id="base"
     pagecolor="#f0f0f0"
     bordercolor="#666666"
     borderopacity="1.0"
     inkscape:pageopacity="1"
     inkscape:pageshadow="2"
     inkscape:zoom="0.7597612048"
     inkscape:cx="-14.16882594"
     inkscape:cy="73.28514678"
     inkscape:document-units="px"
     inkscape:current-layer="g4040"
     showgrid="false"
     inkscape:window-width="1018"
     inkscape:window-height="709"
     inkscape:window-x="0"
     inkscape:window-y="1"
     inkscape:window-maximized="0"
     showguides="false"
     inkscape:guide-bbox="true"
     inkscape:snap-bbox="true"
     inkscape:snap-global="false">
    <sodipodi:guide
       position="190,370"
       orientation="11,0"
       id="guide3177" />
    <sodipodi:guide
       position="210,370"
       orientation="11,0"
       id="guide3179" />
    <sodipodi:guide
       position="30,210"
       orientation="0,11"
       id="guide3181" />
    <sodipodi:guide
       position="30,190"
       orientation="0,11"
       id="guide3183" />
    <sodipodi:guide
       position="200,370"
       orientation="11,0"
       id="guide3185" />
    <sodipodi:guide
       position="41,200"
       orientation="0,-11"
       id="guide3187" />
    <sodipodi:guide
       position="67,370"
       orientation="11,0"
       id="guide3189" />
    <sodipodi:guide
       position="93,370"
       orientation="11,0"
       id="guide3191" />
    <sodipodi:guide
       position="307,370"
       orientation="11,0"
       id="guide3193" />
    <sodipodi:guide
       position="333,370"
       orientation="11,0"
       id="guide3195" />
    <sodipodi:guide
       position="30,333"
       orientation="0,11"
       id="guide3197" />
    <sodipodi:guide
       position="30,307"
       orientation="0,11"
       id="guide3199" />
    <sodipodi:guide
       position="30,93"
       orientation="0,11"
       id="guide3201" />
    <sodipodi:guide
       position="30,67"
       orientation="0,11"
       id="guide3203" />
  </sodipodi:namedview>
  <defs
     id="defs2904" />
  <metadata
     id="metadata2907">
    <rdf:RDF>
      <cc:Work
         rdf:about="">
        <dc:format>image/svg+xml</dc:format>
        <dc:type
           rdf:resource="http://purl.org/dc/dcmitype/StillImage" />
        <dc:title />
      </cc:Work>
    </rdf:RDF>
  </metadata>
  <g
     inkscape:groupmode="layer"
     id="bg"
     inkscape:label="XX_BG"
     sodipodi:insensitive="true">
    <path
       style="fill:#dedbe3"
       d="M 400,0 400,400 0,400 0,0 z"
       id="bgrect"
       inkscape:connector-curvature="0" />
  </g>
  <g
     inkscape:label="XX_REFERENZ"
     inkscape:groupmode="layer"
     id="XX_referenz"
     style="display:none"
     sodipodi:insensitive="true">
    <path
       id="innerframe"
       style="fill:none;stroke:#ff0000;stroke-width:1"
       d="m 40.5,40.5 319,0 0,319 -319,0 0,-319 z"
       inkscape:label="#innerframe"
       sodipodi:insensitive="true"
       inkscape:connector-curvature="0" />
    <path
       id="outerframe"
       style="fill:none;stroke:#ff0000;stroke-width:1"
       d="m 30.5,30.5 339,0 0,339 -339,0 0,-339 z"
       inkscape:label="#outerframe"
       sodipodi:nodetypes="ccccc"
       sodipodi:insensitive="true"
       inkscape:connector-curvature="0" />
    <path
       style="opacity:0.5;fill:none;stroke:#ffc200;stroke-width:1px;stroke-linecap:square"
       d="m 189,30.5 0,10"
       id="ref-S-top-1"
       sodipodi:insensitive="true"
       inkscape:connector-curvature="0" />
    <path
       style="opacity:0.5;fill:none;stroke:#ffc200;stroke-width:1px;stroke-linecap:square"
       d="m 191,30.5 0,10"
       id="ref-S-top-2"
       sodipodi:insensitive="true"
       inkscape:connector-curvature="0" />
    <path
       style="opacity:0.5;fill:none;stroke:#ffc200;stroke-width:1px;stroke-linecap:square"
       d="m 209,30.5 0,10"
       id="ref-S-top-3"
       sodipodi:insensitive="true"
       inkscape:connector-curvature="0" />
    <path
       style="opacity:0.5;fill:none;stroke:#ffc200;stroke-width:1px;stroke-linecap:square"
       d="m 211,30.5 0,10"
       id="ref-S-top-4"
       sodipodi:insensitive="true"
       inkscape:connector-curvature="0" />
    <path
       style="opacity:0.5;fill:none;stroke:#00ff00;stroke-width:1px;stroke-linecap:square"
       d="m 199,30.5 0,10"
       id="ref-I-top-1"
       sodipodi:insensitive="true"
       inkscape:connector-curvature="0" />
    <path
       style="opacity:0.5;fill:none;stroke:#00ff00;stroke-width:1px;stroke-linecap:square"
       d="m 201,30.5 0,10"
       id="ref-I-top-2"
       sodipodi:insensitive="true"
       inkscape:connector-curvature="0" />
    <path
       style="opacity:0.5;fill:none;stroke:#00ffcc;stroke-width:1px;stroke-linecap:square"
       d="m 66,30.5 0,10"
       id="ref-C-top-1"
       sodipodi:insensitive="true"
       inkscape:connector-curvature="0" />
    <path
       style="opacity:0.5;fill:none;stroke:#00ffcc;stroke-width:1px;stroke-linecap:square"
       d="m 68,30.5 0,10"
       id="ref-C-top-2"
       sodipodi:insensitive="true"
       inkscape:connector-curvature="0" />
    <path
       style="opacity:0.5;fill:none;stroke:#00ffcc;stroke-width:1px;stroke-linecap:square"
       d="m 92,30.5 0,10"
       id="ref-C-top-3"
       sodipodi:insensitive="true"
       inkscape:connector-curvature="0" />
    <path
       style="opacity:0.5;fill:none;stroke:#00ffcc;stroke-width:1px;stroke-linecap:square"
       d="m 94,30.5 0,10"
       id="ref-C-top-4"
       sodipodi:insensitive="true"
       inkscape:connector-curvature="0" />
    <path
       style="opacity:0.5;fill:none;stroke:#00ffcc;stroke-width:1px;stroke-linecap:square"
       d="m 306,30.5 0,10"
       id="ref-C-top-5"
       sodipodi:insensitive="true"
       inkscape:connector-curvature="0" />
    <path
       style="opacity:0.5;fill:none;stroke:#00ffcc;stroke-width:1px;stroke-linecap:square"
       d="m 308,30.5 0,10"
       id="ref-C-top-6"
       sodipodi:insensitive="true"
       inkscape:connector-curvature="0" />
    <path
       style="opacity:0.5;fill:none;stroke:#00ffcc;stroke-width:1px;stroke-linecap:square"
       d="m 332,30.5 0,10"
       id="ref-C-top-7"
       sodipodi:insensitive="true"
       inkscape:connector-curvature="0" />
    <path
       style="opacity:0.5;fill:none;stroke:#00ffcc;stroke-width:1px;stroke-linecap:square"
       d="m 334,30.5 0,10"
       id="ref-C-top-8"
       sodipodi:insensitive="true"
       inkscape:connector-curvature="0" />
    <path
       style="opacity:0.5;fill:none;stroke:#ffc200;stroke-width:1px;stroke-linecap:square"
       d="m 369.5,189 -10,0"
       id="ref-S-right-1"
       sodipodi:insensitive="true"
       inkscape:connector-curvature="0" />
    <path
       style="opacity:0.5;fill:none;stroke:#ffc200;stroke-width:1px;stroke-linecap:square"
       d="m 369.5,191 -10,0"
       id="ref-S-right-2"
       sodipodi:insensitive="true"
       inkscape:connector-curvature="0" />
    <path
       style="opacity:0.5;fill:none;stroke:#ffc200;stroke-width:1px;stroke-linecap:square"
       d="m 369.5,209 -10,0"
       id="ref-S-right-3"
       sodipodi:insensitive="true"
       inkscape:connector-curvature="0" />
    <path
       style="opacity:0.5;fill:none;stroke:#ffc200;stroke-width:1px;stroke-linecap:square"
       d="m 369.5,211 -10,0"
       id="ref-S-right-4"
       sodipodi:insensitive="true"
       inkscape:connector-curvature="0" />
    <path
       style="opacity:0.5;fill:none;stroke:#00ff00;stroke-width:1px;stroke-linecap:square"
       d="m 369.5,199 -10,0"
       id="ref-I-right-1"
       sodipodi:insensitive="true"
       inkscape:connector-curvature="0" />
    <path
       style="opacity:0.5;fill:none;stroke:#00ff00;stroke-width:1px;stroke-linecap:square"
       d="m 369.5,201 -10,0"
       id="ref-I-right-2"
       sodipodi:insensitive="true"
       inkscape:connector-curvature="0" />
    <path
       style="opacity:0.5;fill:none;stroke:#00ffcc;stroke-width:1px;stroke-linecap:square"
       d="m 369.5,66 -10,0"
       id="ref-C-right-1"
       sodipodi:insensitive="true"
       inkscape:connector-curvature="0" />
    <path
       style="opacity:0.5;fill:none;stroke:#00ffcc;stroke-width:1px;stroke-linecap:square"
       d="m 369.5,68 -10,0"
       id="ref-C-right-2"
       sodipodi:insensitive="true"
       inkscape:connector-curvature="0" />
    <path
       style="opacity:0.5;fill:none;stroke:#00ffcc;stroke-width:1px;stroke-linecap:square"
       d="m 369.5,92 -10,0"
       id="ref-C-right-3"
       sodipodi:insensitive="true"
       inkscape:connector-curvature="0" />
    <path
       style="opacity:0.5;fill:none;stroke:#00ffcc;stroke-width:1px;stroke-linecap:square"
       d="m 369.5,94 -10,0"
       id="ref-C-right-4"
       sodipodi:insensitive="true"
       inkscape:connector-curvature="0" />
    <path
       style="opacity:0.5;fill:none;stroke:#00ffcc;stroke-width:1px;stroke-linecap:square"
       d="m 369.5,306 -10,0"
       id="ref-C-right-5"
       sodipodi:insensitive="true"
       inkscape:connector-curvature="0" />
    <path
       style="opacity:0.5;fill:none;stroke:#00ffcc;stroke-width:1px;stroke-linecap:square"
       d="m 369.5,308 -10,0"
       id="ref-C-right-6"
       sodipodi:insensitive="true"
       inkscape:connector-curvature="0" />
    <path
       style="opacity:0.5;fill:none;stroke:#00ffcc;stroke-width:1px;stroke-linecap:square"
       d="m 369.5,332 -10,0"
       id="ref-C-right-7"
       sodipodi:insensitive="true"
       inkscape:connector-curvature="0" />
    <path
       style="opacity:0.5;fill:none;stroke:#00ffcc;stroke-width:1px;stroke-linecap:square"
       d="m 369.5,334 -10,0"
       id="ref-C-right-8"
       sodipodi:insensitive="true"
       inkscape:connector-curvature="0" />
    <path
       style="opacity:0.5;fill:none;stroke:#ffc200;stroke-width:1px;stroke-linecap:square"
       d="m 189,369.5 0,-10"
       id="ref-S-bottom-1"
       sodipodi:insensitive="true"
       inkscape:connector-curvature="0" />
    <path
       style="opacity:0.5;fill:none;stroke:#ffc200;stroke-width:1px;stroke-linecap:square"
       d="m 191,369.5 0,-10"
       id="ref-S-bottom-2"
       sodipodi:insensitive="true"
       inkscape:connector-curvature="0" />
    <path
       style="opacity:0.5;fill:none;stroke:#ffc200;stroke-width:1px;stroke-linecap:square"
       d="m 209,369.5 0,-10"
       id="ref-S-bottom-3"
       sodipodi:insensitive="true"
       inkscape:connector-curvature="0" />
    <path
       style="opacity:0.5;fill:none;stroke:#ffc200;stroke-width:1px;stroke-linecap:square"
       d="m 211,369.5 0,-10"
       id="ref-S-bottom-4"
       sodipodi:insensitive="true"
       inkscape:connector-curvature="0" />
    <path
       style="opacity:0.5;fill:none;stroke:#00ff00;stroke-width:1px;stroke-linecap:square"
       d="m 199,369.5 0,-10"
       id="ref-I-bottom-1"
       sodipodi:insensitive="true"
       inkscape:connector-curvature="0" />
    <path
       style="opacity:0.5;fill:none;stroke:#00ff00;stroke-width:1px;stroke-linecap:square"
       d="m 201,369.5 0,-10"
       id="ref-I-bottom-2"
       sodipodi:insensitive="true"
       inkscape:connector-curvature="0" />
    <path
       style="opacity:0.5;fill:none;stroke:#00ffcc;stroke-width:1px;stroke-linecap:square"
       d="m 66,369.5 0,-10"
       id="ref-C-bottom-1"
       sodipodi:insensitive="true"
       inkscape:connector-curvature="0" />
    <path
       style="opacity:0.5;fill:none;stroke:#00ffcc;stroke-width:1px;stroke-linecap:square"
       d="m 68,369.5 0,-10"
       id="ref-C-bottom-2"
       sodipodi:insensitive="true"
       inkscape:connector-curvature="0" />
    <path
       style="opacity:0.5;fill:none;stroke:#00ffcc;stroke-width:1px;stroke-linecap:square"
       d="m 92,369.5 0,-10"
       id="ref-C-bottom-3"
       sodipodi:insensitive="true"
       inkscape:connector-curvature="0" />
    <path
       style="opacity:0.5;fill:none;stroke:#00ffcc;stroke-width:1px;stroke-linecap:square"
       d="m 94,369.5 0,-10"
       id="ref-C-bottom-4"
       sodipodi:insensitive="true"
       inkscape:connector-curvature="0" />
    <path
       style="opacity:0.5;fill:none;stroke:#00ffcc;stroke-width:1px;stroke-linecap:square"
       d="m 306,369.5 0,-10"
       id="ref-C-bottom-5"
       sodipodi:insensitive="true"
       inkscape:connector-curvature="0" />
    <path
       style="opacity:0.5;fill:none;stroke:#00ffcc;stroke-width:1px;stroke-linecap:square"
       d="m 308,369.5 0,-10"
       id="ref-C-bottom-6"
       sodipodi:insensitive="true"
       inkscape:connector-curvature="0" />
    <path
       style="opacity:0.5;fill:none;stroke:#00ffcc;stroke-width:1px;stroke-linecap:square"
       d="m 332,369.5 0,-10"
       id="ref-C-bottom-7"
       sodipodi:insensitive="true"
       inkscape:connector-curvature="0" />
    <path
       style="opacity:0.5;fill:none;stroke:#00ffcc;stroke-width:1px;stroke-linecap:square"
       d="m 334,369.5 0,-10"
       id="ref-C-bottom-8"
       sodipodi:insensitive="true"
       inkscape:connector-curvature="0" />
    <path
       style="opacity:0.5;fill:none;stroke:#ffc200;stroke-width:1px;stroke-linecap:square"
       d="m 30.5,189 10,0"
       id="ref-S-left-1"
       sodipodi:insensitive="true"
       inkscape:connector-curvature="0" />
    <path
       style="opacity:0.5;fill:none;stroke:#ffc200;stroke-width:1px;stroke-linecap:square"
       d="m 30.5,191 10,0"
       id="ref-S-left-2"
       sodipodi:insensitive="true"
       inkscape:connector-curvature="0" />
    <path
       style="opacity:0.5;fill:none;stroke:#ffc200;stroke-width:1px;stroke-linecap:square"
       d="m 30.5,209 10,0"
       id="ref-S-left-3"
       sodipodi:insensitive="true"
       inkscape:connector-curvature="0" />
    <path
       style="opacity:0.5;fill:none;stroke:#ffc200;stroke-width:1px;stroke-linecap:square"
       d="m 30.5,211 10,0"
       id="ref-S-left-4"
       sodipodi:insensitive="true"
       inkscape:connector-curvature="0" />
    <path
       style="opacity:0.5;fill:none;stroke:#00ff00;stroke-width:1px;stroke-linecap:square"
       d="m 40.5,199 -10,0"
       id="ref-I-left-1"
       sodipodi:insensitive="true"
       inkscape:connector-curvature="0" />
    <path
       style="opacity:0.5;fill:none;stroke:#00ff00;stroke-width:1px;stroke-linecap:square"
       d="m 40.5,201 -10,0"
       id="ref-I-left-2"
       sodipodi:insensitive="true"
       inkscape:connector-curvature="0" />
    <path
       style="opacity:0.5;fill:none;stroke:#00ffcc;stroke-width:1px;stroke-linecap:square"
       d="m 30.5,66 10,0"
       id="ref-C-left-1"
       sodipodi:insensitive="true"
       inkscape:connector-curvature="0" />
    <path
       style="opacity:0.5;fill:none;stroke:#00ffcc;stroke-width:1px;stroke-linecap:square"
       d="m 30.5,68 10,0"
       id="ref-C-left-2"
       sodipodi:insensitive="true"
       inkscape:connector-curvature="0" />
    <path
       style="opacity:0.5;fill:none;stroke:#00ffcc;stroke-width:1px;stroke-linecap:square"
       d="m 30.5,92 10,0"
       id="ref-C-left-3"
       sodipodi:insensitive="true"
       inkscape:connector-curvature="0" />
    <path
       style="opacity:0.5;fill:none;stroke:#00ffcc;stroke-width:1px;stroke-linecap:square"
       d="m 30.5,94 10,0"
       id="ref-C-left-4"
       sodipodi:insensitive="true"
       inkscape:connector-curvature="0" />
    <path
       style="opacity:0.5;fill:none;stroke:#00ffcc;stroke-width:1px;stroke-linecap:square"
       d="m 30.5,306 10,0"
       id="ref-C-left-5"
       sodipodi:insensitive="true"
       inkscape:connector-curvature="0" />
    <path
       style="opacity:0.5;fill:none;stroke:#00ffcc;stroke-width:1px;stroke-linecap:square"
       d="m 30.5,308 10,0"
       id="ref-C-left-6"
       sodipodi:insensitive="true"
       inkscape:connector-curvature="0" />
    <path
       style="opacity:0.5;fill:none;stroke:#00ffcc;stroke-width:1px;stroke-linecap:square"
       d="m 30.5,332 10,0"
       id="ref-C-left-7"
       sodipodi:insensitive="true"
       inkscape:connector-curvature="0" />
    <path
       style="opacity:0.5;fill:none;stroke:#00ffcc;stroke-width:1px;stroke-linecap:square"
       d="m 30.5,334 10,0"
       id="ref-C-left-8"
       sodipodi:insensitive="true"
       inkscape:connector-curvature="0" />
    <path
       style="fill:none;stroke:#000000;stroke-width:1px;stroke-linecap:butt"
       d="m 190,30 0,11"
       id="S-top-1"
       inkscape:connector-curvature="0"
       sodipodi:nodetypes="cc" />
    <path
       style="fill:none;stroke:#000000;stroke-width:1px;stroke-linecap:butt"
       d="m 210,30 0,11"
       id="S-top-2"
       inkscape:connector-curvature="0"
       sodipodi:nodetypes="cc" />
    <path
       style="fill:none;stroke:#000000;stroke-width:1px;stroke-linecap:butt"
       d="m 370,190 -11,0"
       id="S-right-1"
       inkscape:connector-curvature="0"
       sodipodi:nodetypes="cc" />
    <path
       style="fill:none;stroke:#000000;stroke-width:1px;stroke-linecap:butt"
       d="m 370,210 -11,0"
       id="S-right-2"
       inkscape:connector-curvature="0"
       sodipodi:nodetypes="cc" />
    <path
       style="fill:none;stroke:#000000;stroke-width:1px;stroke-linecap:butt"
       d="m 190,370 0,-11"
       id="S-bottom-1"
       inkscape:connector-curvature="0"
       sodipodi:nodetypes="cc" />
    <path
       style="fill:none;stroke:#000000;stroke-width:1px;stroke-linecap:butt"
       d="m 210,370 0,-11"
       id="S-bottom-2"
       inkscape:connector-curvature="0"
       sodipodi:nodetypes="cc" />
    <path
       style="fill:none;stroke:#000000;stroke-width:1px;stroke-linecap:butt"
       d="m 30,190 11,0"
       id="S-left-1"
       inkscape:connector-curvature="0"
       sodipodi:nodetypes="cc" />
    <path
       style="fill:none;stroke:#000000;stroke-width:1px;stroke-linecap:butt"
       d="m 30,210 11,0"
       id="S-left-2"
       inkscape:connector-curvature="0"
       sodipodi:nodetypes="cc" />
    <path
       style="fill:none;stroke:#000000;stroke-width:1px;stroke-linecap:butt"
       d="m 200,30 0,11"
       id="I-top-1"
       inkscape:connector-curvature="0"
       sodipodi:nodetypes="cc" />
    <path
       style="fill:none;stroke:#000000;stroke-width:1px;stroke-linecap:butt"
       d="m 370,200 -11,0"
       id="I-right-1"
       inkscape:connector-curvature="0"
       sodipodi:nodetypes="cc" />
    <path
       style="fill:none;stroke:#000000;stroke-width:1px;stroke-linecap:butt"
       d="m 200,370 0,-11"
       id="I-bottom-1"
       inkscape:connector-curvature="0"
       sodipodi:nodetypes="cc" />
    <path
       style="fill:none;stroke:#000000;stroke-width:1px;stroke-linecap:butt"
       d="m 41,200 -11,0"
       id="I-left-1"
       inkscape:connector-curvature="0"
       sodipodi:nodetypes="cc" />
    <path
       style="fill:none;stroke:#000000;stroke-width:1px;stroke-linecap:butt"
       d="m 67,30 0,11"
       id="C-top-1"
       inkscape:connector-curvature="0"
       sodipodi:nodetypes="cc" />
    <path
       style="fill:none;stroke:#000000;stroke-width:1px;stroke-linecap:butt"
       d="m 93,30 0,11"
       id="C-top-2"
       inkscape:connector-curvature="0"
       sodipodi:nodetypes="cc" />
    <path
       style="fill:none;stroke:#000000;stroke-width:1px;stroke-linecap:butt"
       d="m 307,30 0,11"
       id="C-top-3"
       inkscape:connector-curvature="0"
       sodipodi:nodetypes="cc" />
    <path
       style="fill:none;stroke:#000000;stroke-width:1px;stroke-linecap:butt"
       d="m 333,30 0,11"
       id="C-top-4"
       inkscape:connector-curvature="0"
       sodipodi:nodetypes="cc" />
    <path
       style="fill:none;stroke:#000000;stroke-width:1px;stroke-linecap:butt"
       d="m 370,67 -11,0"
       id="C-right-1"
       inkscape:connector-curvature="0"
       sodipodi:nodetypes="cc" />
    <path
       style="fill:none;stroke:#000000;stroke-width:1px;stroke-linecap:butt"
       d="m 370,93 -11,0"
       id="C-right-2"
       inkscape:connector-curvature="0"
       sodipodi:nodetypes="cc" />
    <path
       style="fill:none;stroke:#000000;stroke-width:1px;stroke-linecap:butt"
       d="m 370,307 -11,0"
       id="C-right-3"
       inkscape:connector-curvature="0"
       sodipodi:nodetypes="cc" />
    <path
       style="fill:none;stroke:#000000;stroke-width:1px;stroke-linecap:butt"
       d="m 370,333 -11,0"
       id="C-right-4"
       inkscape:connector-curvature="0"
       sodipodi:nodetypes="cc" />
    <path
       style="fill:none;stroke:#000000;stroke-width:1px;stroke-linecap:butt"
       d="m 67,370 0,-11"
       id="C-bottom-1"
       inkscape:connector-curvature="0"
       sodipodi:nodetypes="cc" />
    <path
       style="fill:none;stroke:#000000;stroke-width:1px;stroke-linecap:butt"
       d="m 93,370 0,-11"
       id="C-bottom-2"
       inkscape:connector-curvature="0"
       sodipodi:nodetypes="cc" />
    <path
       style="fill:none;stroke:#000000;stroke-width:1px;stroke-linecap:butt"
       d="m 307,370 0,-11"
       id="C-bottom-3"
       inkscape:connector-curvature="0"
       sodipodi:nodetypes="cc" />
    <path
       style="fill:none;stroke:#000000;stroke-width:1px;stroke-linecap:butt"
       d="m 333,370 0,-11"
       id="C-bottom-4"
       inkscape:connector-curvature="0"
       sodipodi:nodetypes="cc" />
    <path
       style="fill:none;stroke:#000000;stroke-width:1px;stroke-linecap:butt"
       d="m 30,67 11,0"
       id="C-left-1"
       inkscape:connector-curvature="0"
       sodipodi:nodetypes="cc" />
    <path
       style="fill:none;stroke:#000000;stroke-width:1px;stroke-linecap:butt"
       d="m 30,93 11,0"
       id="C-left-2"
       inkscape:connector-curvature="0"
       sodipodi:nodetypes="cc" />
    <path
       style="fill:none;stroke:#000000;stroke-width:1px;stroke-linecap:butt"
       d="m 30,307 11,0"
       id="C-left-3"
       inkscape:connector-curvature="0"
       sodipodi:nodetypes="cc" />
    <path
       style="fill:none;stroke:#000000;stroke-width:1px;stroke-linecap:butt"
       d="m 30,333 11,0"
       id="C-left-4"
       inkscape:connector-curvature="0"
       sodipodi:nodetypes="cc" />
  </g>
  <g
     inkscape:groupmode="layer"
     id="layer1"
     inkscape:label="XX_________"
     sodipodi:insensitive="true"
     style="display:none" />
  <g
     inkscape:groupmode="layer"
     id="layer2"
     inkscape:label="HZ-01"
     connect="..UW..UW"
     sodipodi:insensitive="true">
    <path
       sodipodi:nodetypes="ccccc"
       inkscape:connector-curvature="0"
       id="path4135"
       d="m 370,67 -340,0 0,266 340,0 z"
       style="fill:#ffffff;stroke:none" />
    <path
       style="fill:none;stroke:#000000;stroke-width:1px;stroke-linecap:butt;display:inline"
       d="m 30,67 340,0"
       id="C-left-1-6"
       inkscape:connector-curvature="0"
       sodipodi:nodetypes="cc" />
    <path
       style="fill:none;stroke:#000000;stroke-width:1px;stroke-linecap:butt;display:inline"
       d="m 30,333 340,0"
       id="C-left-4-2"
       inkscape:connector-curvature="0"
       sodipodi:nodetypes="cc" />
  </g>
  <g
     style="display:none"
     sodipodi:insensitive="true"
     inkscape:label="XX_________"
     id="g4105"
     inkscape:groupmode="layer" />
  <g
     inkscape:label="LMNT-0100"
     id="g3935"
     inkscape:groupmode="layer"
     style="display:none"
     connect="UW......"
     zpos="2">
    <path
       sodipodi:nodetypes="csccc"
       inkscape:connector-curvature="0"
       id="path4139"
       d="m 271,97 0,-42 c 0,-9.14247418 13,-9.86986372 13,0 l 0,41.8636958 z"
       style="fill:#ffffff;stroke:none" />
    <path
       sodipodi:nodetypes="cssssccssssssccssssccccc"
       inkscape:connector-curvature="0"
       id="path4024"
       d="m 115.9999999,282 0,-178 c 0,-25.55692059 31,-26.03123199 31,0 l 0,54 c 0,17.0414232 -9.4968237,25.5 -33,25.5 l -91,0 0,49 139,0 c 34.7252771,0 51,-13.8313969 51,-49.5 l 0,-106 C 212.9999999,67.82111002 226,67.24160745 226,77 l 0,31 c 0,45.9970959 0.9313711,66.5 48.1719568,66.5 l 96,0 0,-49 -76,0 C 282.0468169,125.5 271,122.2144316 271,101 l 0,-46 c 0,-9.14247418 13,-9.86986372 13,0 l 0,196 49,0 0,-221 -266,0 0,253"
       style="fill:#00ff00;stroke:none" />
    <path
       sodipodi:nodetypes="cssccsscc"
       inkscape:connector-curvature="0"
       id="path4022"
       d="m 212.9999999,104 0,79 c 0,35.6686031 -16.2747229,49.5 -51,49.5 l -139,0 0,-49 91,0 c 23.5031763,0 33,-8.4585768 33,-25.5 l 0,-54 z"
       style="fill:#ffd5d5;stroke:none;display:inline" />
    <path
       style="fill:none;stroke:#000000;stroke-width:1px;stroke-linecap:round;display:inline"
       d="m 22.9999999,232.5 139,0 c 34.7252771,0 51,-13.8313969 51,-49.5 l 0,-106 C 212.9999999,67.82111002 226,67.24160745 226,77"
       id="path3238"
       inkscape:connector-curvature="0"
       sodipodi:nodetypes="csssc" />
    <path
       style="fill:none;stroke:#000000;stroke-width:1px;stroke-linecap:butt;display:inline"
       d="m 22.9999999,183.5 91,0 c 23.5031763,0 33,-8.4585768 33,-25.5 l 0,-54 c 0,-26.03123199 -31,-25.55692059 -31,0"
       id="path3230"
       inkscape:connector-curvature="0"
       sodipodi:nodetypes="csssc" />
    <path
       id="path3242"
       d="m 226,77 0,31 c 0,45.9970959 0.9313711,66.5 48.1719568,66.5 l 96,0 0,-49 -76,0 C 282.0468169,125.5 271.7310976,122.2018302 271,101 l 0,-24 z"
       style="fill:#ffd5d5;stroke:none;display:inline"
       inkscape:connector-curvature="0"
       sodipodi:nodetypes="cssccsscc" />
    <path
       style="fill:none;stroke:#000000;stroke-width:1px;stroke-linecap:round;display:inline"
       d="m 370.1719568,125.5 -76,0 C 282.0468169,125.5 271,122.2144316 271,101 l 0,-46 c 0,-9.14247418 13,-9.86986372 13,0"
       id="path3234"
       inkscape:connector-curvature="0"
       sodipodi:nodetypes="csssc" />
    <path
       style="fill:#f7f8f9;stroke:#1a1b1c;stroke-width:1px;stroke-linecap:butt;display:inline"
       d="m 369.5,125.5 c 8.0081287,0 14.4999999,10.9690237 14.4999999,24.5 0,13.5309764 -6.4918712,24.5 -14.4999999,24.5 -8.0081289,0 -14.5000001,-10.9690236 -14.5000001,-24.5 0,-13.5309763 6.4918712,-24.5 14.5000001,-24.5 z"
       id="path3218"
       inkscape:connector-curvature="0"
       sodipodi:nodetypes="sssss" />
    <path
       sodipodi:nodetypes="ccccc"
       inkscape:connector-curvature="0"
       d="m 67,104 0,179 48.9999999,-1 0,-178 z"
       style="fill:#ffd5d5;stroke:none"
       id="path4016" />
    <path
       style="fill:none;stroke:#000000;stroke-width:1px;stroke-linecap:butt;display:inline"
       d="m 115.9999999,104 0,178"
       id="path3220"
       inkscape:connector-curvature="0"
       sodipodi:nodetypes="cc" />
    <path
       style="fill:none;stroke:#000000;stroke-width:1px;stroke-linecap:butt;display:inline"
       d="m 226,77 0,31 c 0,45.9970959 0.9313711,66.5 48.1719568,66.5 l 96,0"
       id="path3226"
       inkscape:connector-curvature="0"
       sodipodi:nodetypes="cssc" />
    <path
       sodipodi:nodetypes="ccccc"
       inkscape:connector-curvature="0"
       d="m 333,54 0,197 -49,0 0,-196 z"
       style="fill:#ffd5d5;stroke:none;display:inline"
       id="path3244" />
    <path
       id="path3206"
       style="fill:none;stroke:#000000;stroke-width:1px;stroke-linecap:butt;display:inline"
       d="m 333,30 0,221"
       inkscape:connector-curvature="0"
       sodipodi:nodetypes="cc" />
    <path
       inkscape:connector-curvature="0"
       id="path3208"
       d="m 332.9999999,251.5 c 0,8.0081287 -10.9690237,14.4999999 -24.5,14.4999999 -13.5309764,0 -24.5,-6.4918712 -24.5,-14.4999999 0,-8.0081289 10.9690236,-14.5000001 24.5,-14.5000001 13.5309763,0 24.5,6.4918712 24.5,14.5000001 z"
       style="fill:#f7f8f9;stroke:#1a1b1c;stroke-width:1px;stroke-linecap:butt;display:inline"
       sodipodi:nodetypes="sssss" />
    <path
       style="fill:none;stroke:#000000;stroke-width:1px;stroke-linecap:butt;display:inline"
       d="m 284,55 0,196"
       id="path3216"
       inkscape:connector-curvature="0"
       sodipodi:nodetypes="cc" />
    <path
       id="path3210"
       style="fill:none;stroke:#000000;stroke-width:1px;stroke-linecap:butt;display:inline"
       d="m 67,30 0,253"
       inkscape:connector-curvature="0"
       sodipodi:nodetypes="cc" />
    <path
       inkscape:connector-curvature="0"
       id="path3222"
       d="m 23.6719567,183.5 c -8.0081287,0 -14.4999999,10.9690237 -14.4999999,24.5 0,13.5309764 6.4918712,24.5 14.4999999,24.5 8.0081289,0 14.5000001,-10.9690236 14.5000001,-24.5 0,-13.5309763 -6.4918712,-24.5 -14.5000001,-24.5 z"
       style="fill:#f7f8f9;stroke:#1a1b1c;stroke-width:1px;stroke-linecap:butt;display:inline"
       sodipodi:nodetypes="sssss" />
    <path
       style="fill:#f7f8f9;stroke:#1a1b1c;stroke-width:1px;stroke-linecap:butt;display:inline"
       d="m 67,282.5 c 0,8.0081287 10.9690237,14.4999999 24.5,14.4999999 13.5309764,0 24.5,-6.4918712 24.5,-14.4999999 0,-8.0081289 -10.9690236,-14.5000001 -24.5,-14.5000001 -13.5309763,0 -24.5,6.4918712 -24.5,14.5000001 z"
       id="path3224"
       inkscape:connector-curvature="0"
       sodipodi:nodetypes="sssss" />
  </g>
  <g
     zpos="2"
     connect="CB......"
     style="display:inline"
     inkscape:groupmode="layer"
     id="g4040"
     inkscape:label="LMNT-0120">
    <path
       style="fill:#ffffff;stroke:none"
       d="m 257,101 0,-46 c 0,-9.14247418 13,-9.86986372 13,0 l 0,46 z"
       id="path4141"
       inkscape:connector-curvature="0"
       sodipodi:nodetypes="csccc" />
    <path
       sodipodi:nodetypes="ccccc"
       inkscape:connector-curvature="0"
       id="path4103"
       d="m 67,188 0,-158 26,0 0,158 z"
       style="fill:#000000;stroke:none" />
    <path
       style="fill:none;stroke:#000000;stroke-width:1px;stroke-linecap:butt;display:inline"
       d="m 67,30 0,158"
       id="C-top-1-7"
       inkscape:connector-curvature="0"
       sodipodi:nodetypes="cc" />
    <path
       sodipodi:nodetypes="ccccc"
       inkscape:connector-curvature="0"
       id="path4099"
       d="m 333,30 0,111 -26,0 0,-111 z"
       style="fill:#000000;stroke:none" />
    <path
       style="fill:none;stroke:#000000;stroke-width:1px;stroke-linecap:butt;display:inline"
       d="m 333,30 0,101"
       id="C-top-4-5"
       inkscape:connector-curvature="0"
       sodipodi:nodetypes="cc" />
    <path
       style="fill:#ffffff;stroke:none"
       d="m 132.9999999,282 0,-167 c 0,-25.55692059 36,-26.03123199 36,0 l 0,41 c 0,17.0414232 -6.4968237,32.5 -30,32.5 l -96,0 0,38 118,0 c 34.7252771,0 52,-14.8313969 52,-50.5 l 0,-104 C 212.9999999,65.5474441 222,65.49913978 222,72 l 0,37 c 0,45.9970959 19.9313711,60.5 67.1719568,60.5 l 71,0 0,-39 -80,0 C 268.0468169,130.5 257,122.2144316 257,101 l 0,-46 c 0,-9.14247418 13.0503558,-9.86973526 13,0 l 0,196 37,0 0,-221 -214,0 0,253"
       id="path4042"
       inkscape:connector-curvature="0"
       sodipodi:nodetypes="cssssccssssssccssssccccc" />
    <path
       style="fill:#ffffff;stroke:none;display:inline"
       d="m 212.9999999,115 0,61 c 0,35.6686031 -17.2747229,50.5 -52,50.5 l -118,0 0,-38 96,0 c 23.5031763,0 30.4155209,-15.4636434 30,-32.5 l 0,-41 z"
       id="path4044"
       inkscape:connector-curvature="0"
       sodipodi:nodetypes="cssccsscc" />
    <path
       sodipodi:nodetypes="csssc"
       inkscape:connector-curvature="0"
       id="path4046"
       d="m 42.9999999,226.5 118,0 c 34.7252771,0 52,-14.8313969 52,-50.5 l 0,-104 C 212.9999999,66.27446653 222,65.69496396 222,72"
       style="fill:none;stroke:#000000;stroke-width:1px;stroke-linecap:round;display:inline" />
    <path
       sodipodi:nodetypes="csssc"
       inkscape:connector-curvature="0"
       id="path4048"
       d="m 42.9999999,188.5 96,0 c 23.5031763,0 30,-15.4585768 30,-32.5 l 0,-41 c 0,-26.03123199 -36,-25.55692059 -36,0"
       style="fill:none;stroke:#000000;stroke-width:1px;stroke-linecap:butt;display:inline" />
    <path
       sodipodi:nodetypes="csssc"
       inkscape:connector-curvature="0"
       id="path4052"
       d="m 360.1719568,130.5 -80,0 C 268.0468169,130.5 257,122.2144316 257,101 l 0,-46 c 0,-9.14247418 13,-9.86986372 13,0"
       style="fill:none;stroke:#000000;stroke-width:1px;stroke-linecap:round;display:inline" />
    <path
       sodipodi:nodetypes="sssss"
       inkscape:connector-curvature="0"
       id="path4054"
       d="m 359.5,130.5 c 8.0081287,0 14.4999999,5.9690237 14.4999999,19.5 0,13.5309764 -6.4918712,19.5 -14.4999999,19.5 -8.0081289,0 -14.5000001,-5.9690236 -14.5000001,-19.5 0,-13.5309763 6.4918712,-19.5 14.5000001,-19.5 z"
       style="fill:#f7f8f9;stroke:#1a1b1c;stroke-width:1px;stroke-linecap:butt;display:inline" />
    <path
       id="path4056"
       style="fill:#ffffff;stroke:none"
       d="m 93,115 0,168 39.9999999,-1 0,-167 z"
       inkscape:connector-curvature="0"
       sodipodi:nodetypes="ccccc" />
    <path
       sodipodi:nodetypes="cc"
       inkscape:connector-curvature="0"
       id="path4058"
       d="m 132.9999999,115 0,167"
       style="fill:none;stroke:#000000;stroke-width:1px;stroke-linecap:butt;display:inline" />
    <path
       sodipodi:nodetypes="cssc"
       inkscape:connector-curvature="0"
       id="path4060"
       d="m 222,72 0,37 c 0,45.9970959 19.9313711,60.5 67.1719568,60.5 l 71,0"
       style="fill:none;stroke:#000000;stroke-width:1px;stroke-linecap:butt;display:inline" />
    <path
       id="path4062"
       style="fill:#ffffff;stroke:none;display:inline"
       d="m 307,54 0,197 -37,0 0,-196 z"
       inkscape:connector-curvature="0"
       sodipodi:nodetypes="ccccc" />
    <path
       sodipodi:nodetypes="cc"
       inkscape:connector-curvature="0"
       d="m 307,30 0,221"
       style="fill:none;stroke:#000000;stroke-width:1px;stroke-linecap:butt;display:inline"
       id="path4064" />
    <path
       sodipodi:nodetypes="sssss"
       style="fill:#f7f8f9;stroke:#1a1b1c;stroke-width:1px;stroke-linecap:butt;display:inline"
       d="m 306.9999999,251.5 c 0,8.0081287 -4.9690237,14.4999999 -18.5,14.4999999 -13.5309764,0 -18.5,-6.4918712 -18.5,-14.4999999 0,-8.0081289 4.9690236,-14.5000001 18.5,-14.5000001 13.5309763,0 18.5,6.4918712 18.5,14.5000001 z"
       id="path4066"
       inkscape:connector-curvature="0" />
    <path
       sodipodi:nodetypes="cc"
       inkscape:connector-curvature="0"
       id="path4068"
       d="m 270,55 0,196"
       style="fill:none;stroke:#000000;stroke-width:1px;stroke-linecap:butt;display:inline" />
    <path
       sodipodi:nodetypes="cc"
       inkscape:connector-curvature="0"
       d="m 93,30 0,253"
       style="fill:none;stroke:#000000;stroke-width:1px;stroke-linecap:butt;display:inline"
       id="path4070" />
    <path
       sodipodi:nodetypes="sssss"
       style="fill:#f7f8f9;stroke:#1a1b1c;stroke-width:1px;stroke-linecap:butt;display:inline"
       d="m 43.6719567,188.5 c -8.0081287,0 -14.4999999,5.9690237 -14.4999999,19.5 0,13.5309764 6.4918712,18.5 14.4999999,18.5 8.0081289,0 14.5000001,-4.9690236 14.5000001,-18.5 0,-13.5309763 -6.4918712,-19.5 -14.5000001,-19.5 z"
       id="path4072"
       inkscape:connector-curvature="0" />
    <path
       sodipodi:nodetypes="sssss"
       inkscape:connector-curvature="0"
       id="path4074"
       d="m 93,282.5 c 0,8.0081287 6.9690237,14.4999999 20.5,14.4999999 13.5309764,0 19.5,-6.4918712 19.5,-14.4999999 0,-8.0081289 -5.9690236,-14.5000001 -19.5,-14.5000001 -13.5309763,0 -20.5,6.4918712 -20.5,14.5000001 z"
       style="fill:#f7f8f9;stroke:#1a1b1c;stroke-width:1px;stroke-linecap:butt;display:inline" />
  </g>
  <g
     inkscape:label="LMNT-0122"
     id="g4143"
     inkscape:groupmode="layer"
     style="display:none"
     connect="CB......"
     zpos="2">
    <path
       sodipodi:nodetypes="csccc"
       inkscape:connector-curvature="0"
       id="path4145"
       d="m 257,101 0,-46 c 0,-9.14247418 13,-9.86986372 13,0 l 0,46 z"
       style="fill:#ffffff;stroke:none" />
    <path
       style="fill:#ffffff;stroke:none"
       d="m 67,188 0,-158 26,0 0,158 z"
       id="path4147"
       inkscape:connector-curvature="0"
       sodipodi:nodetypes="ccccc" />
    <path
       sodipodi:nodetypes="cc"
       inkscape:connector-curvature="0"
       id="path4149"
       d="m 67,30 0,158"
       style="fill:none;stroke:#000000;stroke-width:1px;stroke-linecap:butt;display:inline" />
    <path
       style="fill:#ffffff;stroke:none"
       d="m 333,30 0,111 -26,0 0,-111 z"
       id="path4151"
       inkscape:connector-curvature="0"
       sodipodi:nodetypes="ccccc" />
    <path
       sodipodi:nodetypes="cc"
       inkscape:connector-curvature="0"
       id="path4153"
       d="m 333,30 0,101"
       style="fill:none;stroke:#000000;stroke-width:1px;stroke-linecap:butt;display:inline" />
    <path
       sodipodi:nodetypes="cssssccssssssccssssccccc"
       inkscape:connector-curvature="0"
       id="path4155"
       d="m 132.9999999,282 0,-167 c 0,-25.55692059 36,-26.03123199 36,0 l 0,41 c 0,17.0414232 -6.4968237,32.5 -30,32.5 l -96,0 0,38 118,0 c 34.7252771,0 52,-14.8313969 52,-50.5 l 0,-104 C 212.9999999,65.5474441 222,65.49913978 222,72 l 0,37 c 0,45.9970959 19.9313711,60.5 67.1719568,60.5 l 71,0 0,-39 -80,0 C 268.0468169,130.5 257,122.2144316 257,101 l 0,-46 c 0,-9.14247418 13.0503558,-9.86973526 13,0 l 0,196 37,0 0,-221 -214,0 0,253"
       style="fill:#ffffff;stroke:none" />
    <path
       sodipodi:nodetypes="cssccsscc"
       inkscape:connector-curvature="0"
       id="path4157"
       d="m 212.9999999,115 0,61 c 0,35.6686031 -17.2747229,50.5 -52,50.5 l -118,0 0,-38 96,0 c 23.5031763,0 30.4155209,-15.4636434 30,-32.5 l 0,-41 z"
       style="fill:#ffffff;stroke:none;display:inline" />
    <path
       style="fill:none;stroke:#000000;stroke-width:1px;stroke-linecap:round;display:inline"
       d="m 42.9999999,226.5 118,0 c 34.7252771,0 52,-14.8313969 52,-50.5 l 0,-104 C 212.9999999,66.27446653 222,65.69496396 222,72"
       id="path4159"
       inkscape:connector-curvature="0"
       sodipodi:nodetypes="csssc" />
    <path
       style="fill:none;stroke:#000000;stroke-width:1px;stroke-linecap:butt;display:inline"
       d="m 42.9999999,188.5 96,0 c 23.5031763,0 30,-15.4585768 30,-32.5 l 0,-41 c 0,-26.03123199 -36,-25.55692059 -36,0"
       id="path4161"
       inkscape:connector-curvature="0"
       sodipodi:nodetypes="csssc" />
    <path
       sodipodi:nodetypes="ccccc"
       inkscape:connector-curvature="0"
       d="m 93,115 0,168 39.9999999,-1 0,-167 z"
       style="fill:#ffffff;stroke:none"
       id="path4167" />
    <path
       style="fill:none;stroke:#000000;stroke-width:1px;stroke-linecap:butt;display:inline"
       d="m 132.9999999,115 0,167"
       id="path4169"
       inkscape:connector-curvature="0"
       sodipodi:nodetypes="cc" />
    <path
       sodipodi:nodetypes="ccccc"
       inkscape:connector-curvature="0"
       d="m 307,54 0,197 -37,0 0,-196 z"
       style="fill:#ffffff;stroke:none;display:inline"
       id="path4173" />
    <path
       id="path4175"
       style="fill:none;stroke:#000000;stroke-width:1px;stroke-linecap:butt;display:inline"
       d="m 307,30 0,221"
       inkscape:connector-curvature="0"
       sodipodi:nodetypes="cc" />
    <path
       inkscape:connector-curvature="0"
       id="path4177"
       d="m 306.9999999,251.5 c 0,8.0081287 -4.9690237,14.4999999 -18.5,14.4999999 -13.5309764,0 -18.5,-6.4918712 -18.5,-14.4999999 0,-8.0081289 4.9690236,-14.5000001 18.5,-14.5000001 13.5309763,0 18.5,6.4918712 18.5,14.5000001 z"
       style="fill:#f7f8f9;stroke:#1a1b1c;stroke-width:1px;stroke-linecap:butt;display:inline"
       sodipodi:nodetypes="sssss" />
    <path
       style="fill:none;stroke:#000000;stroke-width:1px;stroke-linecap:butt;display:inline"
       d="m 270,55 0,196"
       id="path4179"
       inkscape:connector-curvature="0"
       sodipodi:nodetypes="cc" />
    <path
       id="path4181"
       style="fill:none;stroke:#000000;stroke-width:1px;stroke-linecap:butt;display:inline"
       d="m 93,30 0,253"
       inkscape:connector-curvature="0"
       sodipodi:nodetypes="cc" />
    <path
       inkscape:connector-curvature="0"
       id="path4183"
       d="m 43.6719567,188.5 c -8.0081287,0 -14.4999999,5.9690237 -14.4999999,19.5 0,13.5309764 6.4918712,18.5 14.4999999,18.5 8.0081289,0 14.5000001,-4.9690236 14.5000001,-18.5 0,-13.5309763 -6.4918712,-19.5 -14.5000001,-19.5 z"
       style="fill:#f7f8f9;stroke:#1a1b1c;stroke-width:1px;stroke-linecap:butt;display:inline"
       sodipodi:nodetypes="sssss" />
    <path
       style="fill:#f7f8f9;stroke:#1a1b1c;stroke-width:1px;stroke-linecap:butt;display:inline"
       d="m 93,282.5 c 0,8.0081287 6.9690237,14.4999999 20.5,14.4999999 13.5309764,0 19.5,-6.4918712 19.5,-14.4999999 0,-8.0081289 -5.9690236,-14.5000001 -19.5,-14.5000001 -13.5309763,0 -20.5,6.4918712 -20.5,14.5000001 z"
       id="path4185"
       inkscape:connector-curvature="0"
       sodipodi:nodetypes="sssss" />
    <path
       sodipodi:nodetypes="cssccsscc"
       inkscape:connector-curvature="0"
       id="path4191"
       d="m 222,72 0,37 c 0,45.9970959 19.9313711,60.5 67.1719568,60.5 l 71,0 0,-39 -80,0 C 268.0468169,130.5 257,122.2144316 257,101 l 0,-29 z"
       style="fill:#ffffff;stroke:none" />
    <path
       style="fill:none;stroke:#000000;stroke-width:1px;stroke-linecap:round;display:inline"
       d="m 360.1719568,130.5 -80,0 C 268.0468169,130.5 257,122.2144316 257,101 l 0,-46 c 0,-9.14247418 13,-9.86986372 13,0"
       id="path4163"
       inkscape:connector-curvature="0"
       sodipodi:nodetypes="csssc" />
    <path
       style="fill:#f7f8f9;stroke:#1a1b1c;stroke-width:1px;stroke-linecap:butt;display:inline"
       d="m 359.5,130.5 c 8.0081287,0 14.4999999,5.9690237 14.4999999,19.5 0,13.5309764 -6.4918712,19.5 -14.4999999,19.5 -8.0081289,0 -14.5000001,-5.9690236 -14.5000001,-19.5 0,-13.5309763 6.4918712,-19.5 14.5000001,-19.5 z"
       id="path4165"
       inkscape:connector-curvature="0"
       sodipodi:nodetypes="sssss" />
    <path
       style="fill:none;stroke:#000000;stroke-width:1px;stroke-linecap:butt;display:inline"
       d="m 222,72 0,37 c 0,45.9970959 19.9313711,60.5 67.1719568,60.5 l 71,0"
       id="path4171"
       inkscape:connector-curvature="0"
       sodipodi:nodetypes="cssc" />
  </g>
  <g
     zpos="2"
     connect="CB......"
     style="display:none"
     inkscape:groupmode="layer"
     id="g4193"
     inkscape:label="LMNT-0124">
    <path
       style="fill:#ffffff;stroke:none"
       d="m 257,101 0,-46 c 0,-9.14247418 13,-9.86986372 13,0 l 0,46 z"
       id="path4195"
       inkscape:connector-curvature="0"
       sodipodi:nodetypes="csccc" />
    <path
       sodipodi:nodetypes="ccccc"
       inkscape:connector-curvature="0"
       id="path4197"
       d="m 67,188 0,-158 26,0 0,158 z"
       style="fill:#000000;stroke:none" />
    <path
       style="fill:none;stroke:#000000;stroke-width:1px;stroke-linecap:butt;display:inline"
       d="m 67,30 0,158"
       id="path4199"
       inkscape:connector-curvature="0"
       sodipodi:nodetypes="cc" />
    <path
       sodipodi:nodetypes="ccccc"
       inkscape:connector-curvature="0"
       id="path4201"
       d="m 333,30 0,111 -26,0 0,-111 z"
       style="fill:#000000;stroke:none" />
    <path
       style="fill:none;stroke:#000000;stroke-width:1px;stroke-linecap:butt;display:inline"
       d="m 333,30 0,101"
       id="path4203"
       inkscape:connector-curvature="0"
       sodipodi:nodetypes="cc" />
    <path
       style="fill:#ffffff;stroke:none"
       d="m 132.9999999,282 0,-167 c 0,-25.55692059 36,-26.03123199 36,0 l 0,41 c 0,17.0414232 -6.4968237,32.5 -30,32.5 l -96,0 0,38 118,0 c 34.7252771,0 52,-14.8313969 52,-50.5 l 0,-104 C 212.9999999,65.5474441 222,65.49913978 222,72 l 0,37 c 0,45.9970959 19.9313711,60.5 67.1719568,60.5 l 71,0 0,-39 -80,0 C 268.0468169,130.5 257,122.2144316 257,101 l 0,-46 c 0,-9.14247418 13.0503558,-9.86973526 13,0 l 0,196 37,0 0,-221 -214,0 0,253"
       id="path4205"
       inkscape:connector-curvature="0"
       sodipodi:nodetypes="cssssccssssssccssssccccc" />
    <path
       id="path4213"
       style="fill:#ffffff;stroke:none"
       d="m 93,115 0,168 39.9999999,-1 0,-167 z"
       inkscape:connector-curvature="0"
       sodipodi:nodetypes="ccccc" />
    <path
       sodipodi:nodetypes="cc"
       inkscape:connector-curvature="0"
       id="path4215"
       d="m 132.9999999,115 0,167"
       style="fill:none;stroke:#000000;stroke-width:1px;stroke-linecap:butt;display:inline" />
    <path
       id="path4217"
       style="fill:#ffffff;stroke:none;display:inline"
       d="m 307,54 0,197 -37,0 0,-196 z"
       inkscape:connector-curvature="0"
       sodipodi:nodetypes="ccccc" />
    <path
       sodipodi:nodetypes="cc"
       inkscape:connector-curvature="0"
       d="m 307,30 0,221"
       style="fill:none;stroke:#000000;stroke-width:1px;stroke-linecap:butt;display:inline"
       id="path4219" />
    <path
       sodipodi:nodetypes="sssss"
       style="fill:#f7f8f9;stroke:#1a1b1c;stroke-width:1px;stroke-linecap:butt;display:inline"
       d="m 306.9999999,251.5 c 0,8.0081287 -4.9690237,14.4999999 -18.5,14.4999999 -13.5309764,0 -18.5,-6.4918712 -18.5,-14.4999999 0,-8.0081289 4.9690236,-14.5000001 18.5,-14.5000001 13.5309763,0 18.5,6.4918712 18.5,14.5000001 z"
       id="path4221"
       inkscape:connector-curvature="0" />
    <path
       sodipodi:nodetypes="cc"
       inkscape:connector-curvature="0"
       id="path4223"
       d="m 270,55 0,196"
       style="fill:none;stroke:#000000;stroke-width:1px;stroke-linecap:butt;display:inline" />
    <path
       sodipodi:nodetypes="cc"
       inkscape:connector-curvature="0"
       d="m 93,30 0,253"
       style="fill:none;stroke:#000000;stroke-width:1px;stroke-linecap:butt;display:inline"
       id="path4225" />
    <path
       sodipodi:nodetypes="sssss"
       inkscape:connector-curvature="0"
       id="path4229"
       d="m 93,282.5 c 0,8.0081287 6.9690237,14.4999999 20.5,14.4999999 13.5309764,0 19.5,-6.4918712 19.5,-14.4999999 0,-8.0081289 -5.9690236,-14.5000001 -19.5,-14.5000001 -13.5309763,0 -20.5,6.4918712 -20.5,14.5000001 z"
       style="fill:#f7f8f9;stroke:#1a1b1c;stroke-width:1px;stroke-linecap:butt;display:inline" />
    <path
       style="fill:#ffffff;stroke:none"
       d="m 222,72 0,37 c 0,45.9970959 19.9313711,60.5 67.1719568,60.5 l 71,0 0,-39 -80,0 C 268.0468169,130.5 257,122.2144316 257,101 l 0,-29 z"
       id="path4231"
       inkscape:connector-curvature="0"
       sodipodi:nodetypes="cssccsscc" />
    <path
       sodipodi:nodetypes="csssc"
       inkscape:connector-curvature="0"
       id="path4233"
       d="m 360.1719568,130.5 -80,0 C 268.0468169,130.5 257,122.2144316 257,101 l 0,-46 c 0,-9.14247418 13,-9.86986372 13,0"
       style="fill:none;stroke:#000000;stroke-width:1px;stroke-linecap:round;display:inline" />
    <path
       sodipodi:nodetypes="sssss"
       inkscape:connector-curvature="0"
       id="path4235"
       d="m 359.5,130.5 c 8.0081287,0 14.4999999,5.9690237 14.4999999,19.5 0,13.5309764 -6.4918712,19.5 -14.4999999,19.5 -8.0081289,0 -14.5000001,-5.9690236 -14.5000001,-19.5 0,-13.5309763 6.4918712,-19.5 14.5000001,-19.5 z"
       style="fill:#f7f8f9;stroke:#1a1b1c;stroke-width:1px;stroke-linecap:butt;display:inline" />
    <path
       sodipodi:nodetypes="cssc"
       inkscape:connector-curvature="0"
       id="path4237"
       d="m 222,72 0,37 c 0,45.9970959 19.9313711,60.5 67.1719568,60.5 l 71,0"
       style="fill:none;stroke:#000000;stroke-width:1px;stroke-linecap:butt;display:inline" />
    <path
       style="fill:#ffffff;stroke:none;display:inline"
       d="m 212.9999999,115 0,61 c 0,35.6686031 -17.2747229,50.5 -52,50.5 l -118,0 0,-38 96,0 c 23.5031763,0 30.4155209,-15.4636434 30,-32.5 l 0,-41 z"
       id="path4207"
       inkscape:connector-curvature="0"
       sodipodi:nodetypes="cssccsscc" />
    <path
       sodipodi:nodetypes="csssc"
       inkscape:connector-curvature="0"
       id="path4209"
       d="m 42.9999999,226.5 118,0 c 34.7252771,0 52,-14.8313969 52,-50.5 l 0,-104 C 212.9999999,66.27446653 222,65.69496396 222,72"
       style="fill:none;stroke:#000000;stroke-width:1px;stroke-linecap:round;display:inline" />
    <path
       sodipodi:nodetypes="csssc"
       inkscape:connector-curvature="0"
       id="path4211"
       d="m 42.9999999,188.5 96,0 c 23.5031763,0 30,-15.4585768 30,-32.5 l 0,-41 c 0,-26.03123199 -36,-25.55692059 -36,0"
       style="fill:none;stroke:#000000;stroke-width:1px;stroke-linecap:butt;display:inline" />
    <path
       sodipodi:nodetypes="sssss"
       style="fill:#f7f8f9;stroke:#1a1b1c;stroke-width:1px;stroke-linecap:butt;display:inline"
       d="m 43.6719567,188.5 c -8.0081287,0 -14.4999999,5.9690237 -14.4999999,19.5 0,13.5309764 6.4918712,18.5 14.4999999,18.5 8.0081289,0 14.5000001,-4.9690236 14.5000001,-18.5 0,-13.5309763 -6.4918712,-19.5 -14.5000001,-19.5 z"
       id="path4227"
       inkscape:connector-curvature="0" />
  </g>
</svg>
